<svg xmlns="http://www.w3.org/2000/svg" xmlns:xlink="http://www.w3.org/1999/xlink" viewBox="0 0 277.84 724.55"><defs><style>.cls-1,.cls-14,.cls-15,.cls-17{fill:none;stroke-miterlimit:10;}.cls-1{stroke:#00a881;stroke-width:5.67px;}.cls-2{clip-path:url(#clip-path);}.cls-3{fill:#fcc5aa;}.cls-4{fill:#dce6e0;}.cls-5{fill:#d9dceb;}.cls-6{fill:#eed1bf;}.cls-7{fill:#fff;}.cls-8{fill:#ffebc6;}.cls-9{fill:#524935;}.cls-10{fill:#ebaf88;}.cls-11{fill:#ffe6b4;}.cls-12{fill:#301812;}.cls-13{fill:#d55227;}.cls-14,.cls-15{stroke:#231f20;}.cls-14{stroke-width:0.62px;}.cls-15{stroke-width:0.56px;}.cls-16{fill:#00a881;}.cls-17{stroke:#499086;stroke-width:0.95px;}.cls-18{fill:#017dad;}.cls-19{fill:#44515d;}.cls-20{fill:#499086;}</style><clipPath id="clip-path" transform="translate(36.51)"><circle id="Krog" class="cls-1" cx="111.83" cy="111.83" r="109"/></clipPath></defs><g id="Layer_2" data-name="Layer 2"><g id="Layer_1-2" data-name="Layer 1"><g class="cls-2"><path id="Vrat" class="cls-3" d="M147.52,188.09l-.21.53c-5.49,13.54-20,23.2-37.1,23.2-17.29,0-32-9.91-37.3-23.71h-.15a18.31,18.31,0,0,0,12.53-7.4,18,18,0,0,0,2-3.72,25.58,25.58,0,0,0,1.79-8.83h38.38a36.91,36.91,0,0,0,1.89,8.82c1.18,3.37,3.09,7,6.14,9.24C138.36,188.38,142.35,189.39,147.52,188.09Z" transform="translate(36.51)"/><ellipse class="cls-4" cx="138.92" cy="708.71" rx="138.92" ry="15.83"/><path class="cls-5" d="M222.68,399.62l-48.77-2.13v-157s11.27-65,28.6-29.73Q216.91,309.5,222.68,399.62Z" transform="translate(36.51)"/><path id="Koza" class="cls-6" d="M164.32,115.08a133.55,133.55,0,0,1-7.42,25.57,49.25,49.25,0,0,1-97.41-1.91,155.45,155.45,0,0,1-6.64-24.12C50.39,102,56,100.35,59.08,100.39V97.45A44.43,44.43,0,0,1,103.51,53h9.66A44.43,44.43,0,0,1,157.6,97.45v4.42C160.09,101.57,166.88,101.88,164.32,115.08Z" transform="translate(36.51)"/><path class="cls-7" d="M97.69,108.7c.09-7.58-23.45-7.86-23.54-.29C74.07,115.26,97.61,115.54,97.69,108.7Z" transform="translate(36.51)"/><path id="Brada" class="cls-8" d="M159.62,133.28a84.45,84.45,0,0,1-.63,11.28,62.13,62.13,0,0,1-1.21,6.71,39.35,39.35,0,0,1-1.16,5.64,32.64,32.64,0,0,1-2,5.14,35.78,35.78,0,0,1-2.67,4.52,30.91,30.91,0,0,1-3.45,4.06c-.85,1.37-1.75,2.71-2.72,4a47.51,47.51,0,0,1-3.09,3.69,40.28,40.28,0,0,1-3.68,4.5q-1.73,1.77-3.54,3.41c-4.92,4.45-10.38,8-16.56,9.76a31.32,31.32,0,0,1-4.76.94,14.39,14.39,0,0,1-9.82-1.72c-6.31-5.57-12.37-10.65-19.09-14.49a54,54,0,0,0-12-5.12,36,36,0,0,1-3.44-2.68,41.17,41.17,0,0,1-3.12-3.08,41.47,41.47,0,0,1-2.61-4A43.1,43.1,0,0,1,60.3,157c-.41-1.52-.74-3-1-4.61a67.93,67.93,0,0,1-.86-16.61c0-.67.09-1.34.16-2-.07-2.28-.1-4.58-.06-6.77.13-6.57.88-12.17,3-13.27,3.29-1.73,4.5-2,4.94-1.83a.32.32,0,0,1,.23.14h0a.25.25,0,0,1,0,.16s1.52,23.72,23.84,34h37.94s22.66-22,22.66-33.95l5.68,1.33.8.19A102.54,102.54,0,0,1,159.62,133.28Z" transform="translate(36.51)"/><path class="cls-7" d="M145,108.7c.09-7.58-23.45-7.86-23.55-.29C121.38,115.26,144.92,115.54,145,108.7Z" transform="translate(36.51)"/><circle class="cls-9" cx="121.69" cy="108.28" r="3.89"/><circle class="cls-9" cx="169.74" cy="108.28" r="3.89"/><path id="Oci" class="cls-10" d="M72.69,108.86s10-10,27.69,0C100.38,108.86,85,91.84,72.69,108.86Z" transform="translate(36.51)"/><path id="Oci-2" data-name="Oci" class="cls-10" d="M119.82,108.86s10-10,27.7,0C147.52,108.86,132.13,91.84,119.82,108.86Z" transform="translate(36.51)"/><path id="Brki" class="cls-8" d="M128.46,146.11H90.52c1.23-4.43,4.25-8,9.5-10.49h4.36c1.25.59,8.06,3.63,10.44.49a1.07,1.07,0,0,0,.12-.49h3.62C123.69,138.59,127.14,142.05,128.46,146.11Z" transform="translate(36.51)"/><path class="cls-6" d="M111.83,105.37l-.4,1.56C111.41,105.86,111.53,105.28,111.83,105.37Z" transform="translate(36.51)"/><path id="Nos" class="cls-10" d="M111.37,138.08a19.53,19.53,0,0,1-7.44-2l.52-1c2.11,1.07,8,3.28,9.92.75.32-.84-.77-8-1.65-13.82-1.86-12.28-2.29-16.23-1.43-17a.75.75,0,0,1,.72-.14l-.35,1.1a.4.4,0,0,0,.44-.15c-.5,1,.81,9.67,1.76,16,1.62,10.7,2,13.93,1.43,14.69A4.67,4.67,0,0,1,111.37,138.08Z" transform="translate(36.51)"/><g id="Obrve"><path class="cls-11" d="M100.89,100.57c-16.77-8.46-24.38-.64-24.69-.31l-2.13-2c.37-.4,9.28-9.82,28.12-.31Z" transform="translate(36.51)"/></g><g id="Obrve-2" data-name="Obrve"><g id="Obrve-3" data-name="Obrve"><path id="Obrve-4" data-name="Obrve" class="cls-11" d="M146.87,101.68c-16.9-8.53-24.61-.4-24.69-.32l-2.13-1.94c.37-.41,9.28-9.83,28.12-.32Z" transform="translate(36.51)"/></g></g><path class="cls-12" d="M128.46,146.12a21.58,21.58,0,0,1-7.34,10.9c-1.39-6.86-26.65-4.19-26.74-4.18a31.51,31.51,0,0,1-3.85-6.72Z" transform="translate(36.51)"/><path class="cls-13" d="M121.12,157h0a19,19,0,0,1-10.44,3.61c-7.92.47-13.15-3.77-16.29-7.79C94.47,152.83,119.73,150.16,121.12,157Z" transform="translate(36.51)"/><polygon class="cls-12" points="130.89 152.84 130.89 152.84 130.89 152.84 130.89 152.84"/><polygon class="cls-7" points="127.03 146.12 128.11 148.5 164.16 148.5 164.97 146.12 127.03 146.12"/><g id="Ocala"><path class="cls-14" d="M102.18,109.42s10.32-7.8,17.16,0" transform="translate(36.51)"/><line class="cls-14" x1="98.4" y1="102.6" x2="109.15" y2="108.28"/><line class="cls-14" x1="196.14" y1="102.38" x2="185.39" y2="108.85"/><circle class="cls-15" cx="123.92" cy="109.42" r="14.77"/><circle class="cls-15" cx="170.62" cy="109.42" r="14.77"/></g><path id="Lasje" class="cls-8" d="M66.69,112.18S63.35,87.64,74.17,78a14.38,14.38,0,0,1,3.31-2.24A11.07,11.07,0,0,1,79.66,75c4-1.14,8.66-.56,12.82-.3L95.6,75c19.31,2.1,29.26,5.73,29.26,5.73s5.78-5.54-3.74-8.62,15.48-.38,22,13.27a93.51,93.51,0,0,1,8,26.81l5.6,1.51s14.87-38.55-2.82-51.8c-9.7-7.27-21.71-16.44-33.6-19.74a34.42,34.42,0,0,0-3.56-.8,28.48,28.48,0,0,0-3.17-.46,30.72,30.72,0,0,0-3.18-.11,26.53,26.53,0,0,0-6.46.56c-1.1.25-2.17.56-3.22.91s-2.07.75-3.07,1.18c-9.91,5-18.56,13.09-29.46,15.75-1,.31-2.08.65-3.07,1-4.93,1.94-8.84,4.92-9.17,11.16a28.73,28.73,0,0,0-.61,2.9,25.39,25.39,0,0,0-.23,5.9c0,.73.09,1.46.08,2.22C55.14,90.64,57.7,100.86,66.69,112.18Z" transform="translate(36.51)"/><path class="cls-5" d="M-2.24,399.62l48.77-2.13v-157s-11.27-65-28.6-29.73Q3.53,309.5-2.24,399.62Z" transform="translate(36.51)"/><path id="Pulover" class="cls-16" d="M202.38,209.68l-.41.06c-5.35.94-11.87,8.69-17.95,27.46V410.05H36.41V237.2c-6.09-18.77-12.6-26.52-17.95-27.46l-.41-.06c-12.85-1.45,19-21.59,38.64-21.59H72.91c5.33,13.8,20,23.71,37.3,23.71,17.08,0,31.61-9.66,37.1-23.2.08-.17.14-.34.21-.51h16.22C183.39,188.09,215.23,208.23,202.38,209.68Z" transform="translate(36.51)"/><line id="Zadrga" class="cls-17" x1="146.73" y1="410.07" x2="146.73" y2="211.82"/><polygon id="Hlace" class="cls-18" points="220.4 410.07 220.4 459.88 197.23 676.78 168.41 687 146.99 459.88 146.73 459.88 122.34 687 122.23 687 93.48 676.81 72.92 459.88 72.92 410.07 220.4 410.07"/><path id="Koza-2" data-name="Koza" class="cls-6" d="M12.09,399s-5.52,43.55,24.32,47.93v-49Z" transform="translate(36.51)"/><path id="Koza-3" data-name="Koza" class="cls-6" d="M208.22,399s5.52,43.56-24.32,47.94V398Z" transform="translate(36.51)"/><path class="cls-19" d="M204,708.55H131.9V687l28.82-10.22s0,.05,0,.08C159.46,689.13,170,691,170,691,213.49,687,204,708.55,204,708.55Z" transform="translate(36.51)"/><path class="cls-19" d="M85.72,687v21.55H13.64S4.13,687,47.62,691c0,0,10.59-1.87,9.27-14.21l.08,0Z" transform="translate(36.51)"/><circle id="Gumb" class="cls-20" cx="159.1" cy="248.32" r="3.72"/><circle id="Gumb-2" data-name="Gumb" class="cls-20" cx="134.74" cy="248.32" r="3.72"/><circle id="Gumb-3" data-name="Gumb" class="cls-20" cx="159.1" cy="276.36" r="3.72"/><circle id="Gumb-4" data-name="Gumb" class="cls-20" cx="134.74" cy="276.36" r="3.72"/><circle id="Gumb-5" data-name="Gumb" class="cls-20" cx="159.1" cy="304.4" r="3.72"/><circle id="Gumb-6" data-name="Gumb" class="cls-20" cx="134.74" cy="304.4" r="3.72"/><circle id="Gumb-7" data-name="Gumb" class="cls-20" cx="159.1" cy="332.45" r="3.72"/><circle id="Gumb-8" data-name="Gumb" class="cls-20" cx="134.74" cy="332.45" r="3.72"/><circle id="Gumb-9" data-name="Gumb" class="cls-20" cx="159.1" cy="360.49" r="3.72"/><circle id="Gumb-10" data-name="Gumb" class="cls-20" cx="134.74" cy="360.49" r="3.72"/></g><circle id="Krog-2" data-name="Krog" class="cls-1" cx="148.34" cy="111.83" r="109"/></g></g></svg>