<svg xmlns="http://www.w3.org/2000/svg" xmlns:xlink="http://www.w3.org/1999/xlink" viewBox="0 0 277.84 706.48"><defs><style>.cls-1,.cls-16,.cls-17,.cls-7{fill:none;stroke-miterlimit:10;}.cls-1{stroke:#00a881;stroke-width:5.67px;}.cls-2{clip-path:url(#clip-path);}.cls-3{fill:#fcc5aa;}.cls-4{fill:#dce6e0;}.cls-5{fill:#d9dceb;}.cls-6{fill:#00a881;}.cls-7{stroke:#499086;stroke-width:0.95px;}.cls-8{fill:#017dad;}.cls-9{fill:#eed1bf;}.cls-10{fill:#44515d;}.cls-11{fill:#499086;}.cls-12{fill:#fff;}.cls-13{fill:#524935;}.cls-14{fill:#ebaf88;}.cls-15{fill:#ffe6b4;}.cls-16,.cls-17{stroke:#231f20;}.cls-16{stroke-width:0.62px;}.cls-17{stroke-width:0.56px;}.cls-18{fill:#ffebc6;}.cls-19{fill:#301812;}.cls-20{fill:#d55227;}</style><clipPath id="clip-path" transform="translate(35.82)"><circle id="Krog" class="cls-1" cx="111.83" cy="111.83" r="109"/></clipPath></defs><g id="Layer_2" data-name="Layer 2"><g id="Layer_1-2" data-name="Layer 1"><g class="cls-2"><path id="Vrat" class="cls-3" d="M148.21,170l-.21.53c-5.49,13.54-20,23.2-37.1,23.2-17.29,0-32-9.91-37.3-23.71h-.15A18.31,18.31,0,0,0,86,162.64a18,18,0,0,0,2-3.72,25.58,25.58,0,0,0,1.79-8.83h38.38a36.91,36.91,0,0,0,1.89,8.82c1.18,3.37,3.09,7,6.14,9.24C139.05,170.31,143,171.32,148.21,170Z" transform="translate(35.82)"/><ellipse class="cls-4" cx="138.92" cy="690.64" rx="138.92" ry="15.83"/><path class="cls-5" d="M223.37,381.55l-48.78-2.13v-157s11.28-65,28.61-29.73Q217.58,291.43,223.37,381.55Z" transform="translate(35.82)"/><path class="cls-5" d="M-1.55,381.55l48.77-2.13v-157s-11.27-65-28.6-29.73Q4.22,291.43-1.55,381.55Z" transform="translate(35.82)"/><path id="Pulover" class="cls-6" d="M203.07,191.61l-.41.06c-5.35.94-11.87,8.69-17.95,27.46V392H37.1V219.13c-6.09-18.77-12.6-26.52-18-27.46l-.41-.06C5.89,190.16,37.73,170,57.38,170H73.6c5.33,13.8,20,23.71,37.3,23.71,17.08,0,31.61-9.66,37.1-23.2.08-.17.14-.34.21-.51h16.22C184.08,170,215.92,190.16,203.07,191.61Z" transform="translate(35.82)"/><line id="Zadrga" class="cls-7" x1="146.73" y1="392" x2="146.73" y2="193.75"/><polygon id="Hlace" class="cls-8" points="220.4 392 220.4 441.81 197.23 658.71 168.41 668.93 146.99 441.81 146.73 441.81 122.34 668.93 122.23 668.93 93.48 658.74 72.92 441.81 72.92 392 220.4 392"/><path id="Koza" class="cls-9" d="M12.78,380.89S7.26,424.44,37.1,428.82v-49Z" transform="translate(35.82)"/><path id="Koza-2" data-name="Koza" class="cls-9" d="M208.91,380.94s5.52,43.56-24.32,47.94v-49Z" transform="translate(35.82)"/><path class="cls-10" d="M204.67,690.48H132.59V668.93l28.82-10.22s0,0,0,.08c-1.25,12.27,9.29,14.13,9.29,14.13C214.18,668.88,204.67,690.48,204.67,690.48Z" transform="translate(35.82)"/><path class="cls-10" d="M86.41,668.93v21.55H14.33s-9.51-21.6,34-17.56c0,0,10.59-1.87,9.27-14.21l.08,0Z" transform="translate(35.82)"/><circle id="Gumb" class="cls-11" cx="159.1" cy="230.25" r="3.72"/><circle id="Gumb-2" data-name="Gumb" class="cls-11" cx="134.74" cy="230.25" r="3.72"/><circle id="Gumb-3" data-name="Gumb" class="cls-11" cx="159.1" cy="258.29" r="3.72"/><circle id="Gumb-4" data-name="Gumb" class="cls-11" cx="134.74" cy="258.29" r="3.72"/><circle id="Gumb-5" data-name="Gumb" class="cls-11" cx="159.1" cy="286.33" r="3.72"/><circle id="Gumb-6" data-name="Gumb" class="cls-11" cx="134.74" cy="286.33" r="3.72"/><circle id="Gumb-7" data-name="Gumb" class="cls-11" cx="159.1" cy="314.38" r="3.72"/><circle id="Gumb-8" data-name="Gumb" class="cls-11" cx="134.74" cy="314.38" r="3.72"/><circle id="Gumb-9" data-name="Gumb" class="cls-11" cx="159.1" cy="342.42" r="3.72"/><circle id="Gumb-10" data-name="Gumb" class="cls-11" cx="134.74" cy="342.42" r="3.72"/><path id="Koza-3" data-name="Koza" class="cls-9" d="M166.66,102.73a133.55,133.55,0,0,1-7.42,25.57,49.25,49.25,0,0,1-97.41-1.91,155.45,155.45,0,0,1-6.64-24.12C52.73,89.6,58.3,88,61.42,88V85.1a44.43,44.43,0,0,1,44.43-44.43h9.66A44.43,44.43,0,0,1,159.94,85.1v4.42C162.43,89.22,169.22,89.53,166.66,102.73Z" transform="translate(35.82)"/><path class="cls-12" d="M100,96.34c.09-7.57-23.45-7.86-23.54-.28C76.41,102.9,100,103.19,100,96.34Z" transform="translate(35.82)"/><path class="cls-12" d="M147.35,96.34c.09-7.57-23.45-7.86-23.55-.28C123.72,102.9,147.26,103.19,147.35,96.34Z" transform="translate(35.82)"/><circle class="cls-13" cx="123.35" cy="95.93" r="3.89"/><circle class="cls-13" cx="171.39" cy="95.93" r="3.89"/><path id="Oci" class="cls-14" d="M75,96.5s10-10,27.69,0C102.72,96.5,87.34,79.49,75,96.5Z" transform="translate(35.82)"/><path id="Oci-2" data-name="Oci" class="cls-14" d="M122.16,96.5s10-10,27.7,0C149.86,96.5,134.47,79.49,122.16,96.5Z" transform="translate(35.82)"/><path class="cls-9" d="M114.17,93l-.4,1.56C113.75,93.51,113.87,92.93,114.17,93Z" transform="translate(35.82)"/><path id="Nos" class="cls-14" d="M113.71,125.73a19.72,19.72,0,0,1-7.44-2l.52-1c2.11,1.06,8,3.27,9.92.75.32-.85-.77-8-1.65-13.82-1.86-12.29-2.29-16.23-1.43-17a.73.73,0,0,1,.72-.15l-.35,1.1a.4.4,0,0,0,.44-.15c-.5,1,.81,9.67,1.76,16,1.62,10.7,2,13.93,1.43,14.69A4.67,4.67,0,0,1,113.71,125.73Z" transform="translate(35.82)"/><g id="Obrve"><path class="cls-15" d="M103.23,88.22c-16.77-8.47-24.38-.65-24.69-.31l-2.13-2c.37-.41,9.28-9.83,28.12-.32Z" transform="translate(35.82)"/></g><g id="Obrve-2" data-name="Obrve"><g id="Obrve-3" data-name="Obrve"><path id="Obrve-4" data-name="Obrve" class="cls-15" d="M149.21,89.32c-16.9-8.53-24.61-.4-24.69-.31l-2.13-2c.37-.4,9.28-9.82,28.12-.31Z" transform="translate(35.82)"/></g></g><g id="Ocala"><path class="cls-16" d="M104.52,97.07s10.32-7.8,17.16,0" transform="translate(35.82)"/><line class="cls-16" x1="100.05" y1="90.25" x2="110.8" y2="95.92"/><line class="cls-16" x1="197.79" y1="90.02" x2="187.04" y2="96.49"/><circle class="cls-17" cx="125.57" cy="97.07" r="14.77"/><circle class="cls-17" cx="172.27" cy="97.07" r="14.77"/></g><path id="Lasje" class="cls-18" d="M69,99.82s-3.34-24.54,7.48-34.2a14.71,14.71,0,0,1,3.31-2.24A11.75,11.75,0,0,1,82,62.61c4-1.13,8.66-.56,12.82-.3l3.12.33c19.31,2.09,29.26,5.73,29.26,5.73s5.78-5.55-3.74-8.62,15.48-.39,22,13.27a93.41,93.41,0,0,1,8,26.8l5.6,1.52s14.87-38.56-2.82-51.81c-9.7-7.26-21.71-16.44-33.6-19.73-1.18-.33-2.37-.6-3.56-.81a31,31,0,0,0-3.17-.46,30.72,30.72,0,0,0-3.18-.11,26.53,26.53,0,0,0-6.46.57c-1.1.25-2.17.55-3.22.9s-2.07.75-3.07,1.19c-9.91,5-18.56,13.09-29.46,15.74-1,.32-2.08.66-3.07,1C62.53,49.8,58.62,52.79,58.29,59a29.32,29.32,0,0,0-.61,2.9,25.45,25.45,0,0,0-.23,5.91c0,.72.09,1.46.08,2.22C57.48,78.28,60,88.5,69,99.82Z" transform="translate(35.82)"/><path id="Brki" class="cls-18" d="M121.26,127.1s18.19,4.35,15.56,23.4-23.95,18.57-23.95,18.57-25.42,1.47-26.06-18.57S99.38,128,102.47,127.1Z" transform="translate(35.82)"/><path class="cls-19" d="M130.8,133.76a21.55,21.55,0,0,1-7.34,10.91c-1.39-6.86-26.65-4.2-26.74-4.18a31.17,31.17,0,0,1-3.85-6.73Z" transform="translate(35.82)"/><path class="cls-20" d="M123.46,144.67h0A19.11,19.11,0,0,1,113,148.28c-7.92.46-13.15-3.78-16.29-7.79C96.81,140.47,122.07,137.81,123.46,144.67Z" transform="translate(35.82)"/><polygon class="cls-19" points="132.54 140.49 132.54 140.49 132.54 140.49 132.54 140.49"/><polygon class="cls-12" points="128.68 133.76 129.76 136.15 165.81 136.15 166.62 133.76 128.68 133.76"/></g><circle id="Krog-2" data-name="Krog" class="cls-1" cx="147.65" cy="111.83" r="109"/></g></g></svg>