<svg xmlns="http://www.w3.org/2000/svg" xmlns:xlink="http://www.w3.org/1999/xlink" viewBox="0 0 277.84 719.02"><defs><style>.cls-1,.cls-14,.cls-15,.cls-17{fill:none;stroke-miterlimit:10;}.cls-1{stroke:#00a881;stroke-width:5.67px;}.cls-2{clip-path:url(#clip-path);}.cls-3{fill:#fcc5aa;}.cls-4{fill:#dce6e0;}.cls-5{fill:#d9dceb;}.cls-6{fill:#eed1bf;}.cls-7{fill:#fff;}.cls-8{fill:#524935;}.cls-9{fill:#ebaf88;}.cls-10{fill:#ffebc6;}.cls-11{fill:#ffe6b4;}.cls-12{fill:#301812;}.cls-13{fill:#d55227;}.cls-14,.cls-15{stroke:#231f20;}.cls-14{stroke-width:0.62px;}.cls-15{stroke-width:0.56px;}.cls-16{fill:#00a881;}.cls-17{stroke:#499086;stroke-width:0.95px;}.cls-18{fill:#017dad;}.cls-19{fill:#44515d;}.cls-20{fill:#499086;}</style><clipPath id="clip-path" transform="translate(36.3)"><circle id="Krog" class="cls-1" cx="111.83" cy="111.83" r="109"/></clipPath></defs><g id="Layer_2" data-name="Layer 2"><g id="Layer_1-2" data-name="Layer 1"><g class="cls-2"><path id="Vrat" class="cls-3" d="M147.73,182.57l-.21.53c-5.49,13.54-20,23.2-37.1,23.2-17.29,0-32-9.91-37.3-23.71H73a18.31,18.31,0,0,0,12.53-7.4,18,18,0,0,0,2-3.72,25.58,25.58,0,0,0,1.79-8.83H127.7a36.91,36.91,0,0,0,1.89,8.82c1.18,3.37,3.09,6.95,6.14,9.24C138.57,182.86,142.56,183.87,147.73,182.57Z" transform="translate(36.3)"/><ellipse class="cls-4" cx="138.92" cy="703.19" rx="138.92" ry="15.83"/><path class="cls-5" d="M222.88,394.1,174.11,392V235s11.27-65,28.6-29.73Q217.11,304,222.88,394.1Z" transform="translate(36.3)"/><path id="Koza" class="cls-6" d="M164.53,109.56a133.55,133.55,0,0,1-7.42,25.57,49.25,49.25,0,0,1-97.41-1.91,155.45,155.45,0,0,1-6.64-24.12c-2.46-12.67,3.11-14.27,6.23-14.23V91.93A44.43,44.43,0,0,1,103.72,47.5h9.66a44.43,44.43,0,0,1,44.43,44.43v4.42C160.3,96.05,167.09,96.36,164.53,109.56Z" transform="translate(36.3)"/><path class="cls-7" d="M97.89,103.18c.09-7.58-23.45-7.87-23.54-.29C74.27,109.73,97.81,110,97.89,103.18Z" transform="translate(36.3)"/><path class="cls-7" d="M145.21,103.18c.09-7.58-23.45-7.87-23.54-.29C121.58,109.73,145.12,110,145.21,103.18Z" transform="translate(36.3)"/><circle class="cls-8" cx="121.69" cy="102.76" r="3.89"/><circle class="cls-8" cx="169.74" cy="102.76" r="3.89"/><path id="Oci" class="cls-9" d="M72.89,103.34s10-10,27.69,0C100.58,103.34,85.2,86.32,72.89,103.34Z" transform="translate(36.3)"/><path id="Oci-2" data-name="Oci" class="cls-9" d="M120,103.34s10-10,27.7,0C147.72,103.34,132.33,86.32,120,103.34Z" transform="translate(36.3)"/><path id="Brki" class="cls-10" d="M128.67,140.59H90.73c1.23-4.43,4.25-8,9.5-10.49h4.36c1.25.59,8.06,3.63,10.44.49a1.07,1.07,0,0,0,.12-.49h3.62C123.9,133.07,127.35,136.53,128.67,140.59Z" transform="translate(36.3)"/><path class="cls-6" d="M112,99.85l-.4,1.56C111.62,100.34,111.74,99.76,112,99.85Z" transform="translate(36.3)"/><path id="Nos" class="cls-9" d="M111.57,132.56a19.53,19.53,0,0,1-7.44-2l.52-1c2.11,1.06,8,3.28,9.92.75.32-.85-.77-8-1.65-13.82-1.85-12.29-2.29-16.23-1.43-17a.75.75,0,0,1,.72-.15l-.35,1.11a.41.41,0,0,0,.44-.16c-.5,1,.81,9.68,1.77,16,1.61,10.7,2,13.92,1.42,14.69A4.67,4.67,0,0,1,111.57,132.56Z" transform="translate(36.3)"/><g id="Obrve"><path class="cls-11" d="M101.09,95.05c-16.77-8.46-24.37-.65-24.69-.31l-2.13-1.95c.37-.41,9.28-9.82,28.12-.32Z" transform="translate(36.3)"/></g><g id="Obrve-2" data-name="Obrve"><g id="Obrve-3" data-name="Obrve"><path id="Obrve-4" data-name="Obrve" class="cls-11" d="M147.07,96.15c-16.9-8.52-24.61-.39-24.69-.31l-2.13-2c.37-.4,9.28-9.82,28.12-.31Z" transform="translate(36.3)"/></g></g><path class="cls-12" d="M128.67,140.6c-.09,0-1.53,6.58-7.35,10.9-1.39-6.86-26.65-4.19-26.74-4.18a31.51,31.51,0,0,1-3.85-6.72Z" transform="translate(36.3)"/><path class="cls-13" d="M121.32,151.5h0a19,19,0,0,1-10.43,3.61c-7.93.47-13.15-3.77-16.3-7.79C94.67,147.31,119.93,144.64,121.32,151.5Z" transform="translate(36.3)"/><polygon class="cls-12" points="130.89 147.32 130.89 147.32 130.89 147.32 130.89 147.32"/><polygon class="cls-7" points="127.03 140.6 128.11 142.98 164.16 142.98 164.97 140.6 127.03 140.6"/><g id="Ocala"><path class="cls-14" d="M102.38,103.9s10.32-7.8,17.16,0" transform="translate(36.3)"/><line class="cls-14" x1="98.4" y1="97.08" x2="109.15" y2="102.76"/><line class="cls-14" x1="196.14" y1="96.86" x2="185.39" y2="103.33"/><circle class="cls-15" cx="123.92" cy="103.9" r="14.77"/><circle class="cls-15" cx="170.62" cy="103.9" r="14.77"/></g><path id="Lasje" class="cls-10" d="M66.89,106.65s-3.34-24.53,7.48-34.2a15.28,15.28,0,0,1,3.31-2.24,11.75,11.75,0,0,1,2.18-.77c4-1.13,8.66-.55,12.82-.29l3.12.32c19.31,2.1,29.26,5.73,29.26,5.73s5.78-5.54-3.74-8.62,15.48-.39,22,13.27a93.12,93.12,0,0,1,8,26.8l5.6,1.52s14.87-38.55-2.82-51.81c-9.7-7.26-21.71-16.43-33.6-19.73a34.42,34.42,0,0,0-3.56-.8,26.32,26.32,0,0,0-3.17-.46,30.73,30.73,0,0,0-3.18-.12,26.58,26.58,0,0,0-6.46.57,31.27,31.27,0,0,0-3.22.91c-1,.35-2.06.75-3.07,1.18-9.91,5-18.56,13.09-29.46,15.74-1,.32-2.08.66-3.07,1.05-4.93,1.93-8.84,4.92-9.17,11.15a29.32,29.32,0,0,0-.61,2.9,24.91,24.91,0,0,0-.22,5.91c0,.73.08,1.46.07,2.22C55.34,85.11,57.9,95.34,66.89,106.65Z" transform="translate(36.3)"/><path class="cls-5" d="M-2,394.1,46.73,392V235s-11.27-65-28.6-29.73Q3.73,304-2,394.1Z" transform="translate(36.3)"/><path id="Pulover" class="cls-16" d="M202.59,204.16l-.41.06c-5.35.94-11.87,8.69-18,27.46V404.53H36.62V231.68c-6.09-18.77-12.6-26.52-17.95-27.46l-.41-.06c-12.85-1.45,19-21.59,38.64-21.59H73.12c5.33,13.8,20,23.71,37.3,23.71,17.08,0,31.61-9.66,37.1-23.2.08-.17.14-.34.21-.51H164C183.6,182.57,215.44,202.71,202.59,204.16Z" transform="translate(36.3)"/><line id="Zadrga" class="cls-17" x1="146.73" y1="404.55" x2="146.73" y2="206.3"/><polygon id="Hlace" class="cls-18" points="220.4 404.55 220.4 454.36 197.23 671.26 168.41 681.48 146.99 454.36 146.73 454.36 122.34 681.48 122.23 681.48 93.48 671.29 72.92 454.36 72.92 404.55 220.4 404.55"/><path id="Koza-2" data-name="Koza" class="cls-6" d="M12.29,393.43S6.77,437,36.62,441.37v-49Z" transform="translate(36.3)"/><path id="Koza-3" data-name="Koza" class="cls-6" d="M208.42,393.49s5.53,43.56-24.32,47.94v-49Z" transform="translate(36.3)"/><path class="cls-19" d="M204.19,703H132.11V681.48l28.82-10.22s0,0,0,.08c-1.25,12.27,9.29,14.13,9.29,14.13C213.7,681.43,204.19,703,204.19,703Z" transform="translate(36.3)"/><path class="cls-19" d="M85.93,681.48V703H13.85s-9.51-21.6,34-17.56c0,0,10.59-1.87,9.27-14.21l.08,0Z" transform="translate(36.3)"/><circle id="Gumb" class="cls-20" cx="159.1" cy="242.8" r="3.72"/><circle id="Gumb-2" data-name="Gumb" class="cls-20" cx="134.74" cy="242.8" r="3.72"/><circle id="Gumb-3" data-name="Gumb" class="cls-20" cx="159.1" cy="270.84" r="3.72"/><circle id="Gumb-4" data-name="Gumb" class="cls-20" cx="134.74" cy="270.84" r="3.72"/><circle id="Gumb-5" data-name="Gumb" class="cls-20" cx="159.1" cy="298.88" r="3.72"/><circle id="Gumb-6" data-name="Gumb" class="cls-20" cx="134.74" cy="298.88" r="3.72"/><circle id="Gumb-7" data-name="Gumb" class="cls-20" cx="159.1" cy="326.92" r="3.72"/><circle id="Gumb-8" data-name="Gumb" class="cls-20" cx="134.74" cy="326.92" r="3.72"/><circle id="Gumb-9" data-name="Gumb" class="cls-20" cx="159.1" cy="354.97" r="3.72"/><circle id="Gumb-10" data-name="Gumb" class="cls-20" cx="134.74" cy="354.97" r="3.72"/></g><circle id="Krog-2" data-name="Krog" class="cls-1" cx="148.14" cy="111.83" r="109"/></g></g></svg>