<svg xmlns="http://www.w3.org/2000/svg" xmlns:xlink="http://www.w3.org/1999/xlink" viewBox="0 0 277.84 709.23"><defs><style>.cls-1,.cls-16,.cls-17,.cls-7{fill:none;stroke-miterlimit:10;}.cls-1{stroke:#00a881;stroke-width:5.67px;}.cls-2{clip-path:url(#clip-path);}.cls-3{fill:#fcc5aa;}.cls-4{fill:#dce6e0;}.cls-5{fill:#d9dceb;}.cls-6{fill:#00a881;}.cls-7{stroke:#499086;stroke-width:0.95px;}.cls-8{fill:#017dad;}.cls-9{fill:#eed1bf;}.cls-10{fill:#44515d;}.cls-11{fill:#499086;}.cls-12{fill:#fff;}.cls-13{fill:#524935;}.cls-14{fill:#ebaf88;}.cls-15{fill:#ffe6b4;}.cls-16,.cls-17{stroke:#231f20;}.cls-16{stroke-width:0.62px;}.cls-17{stroke-width:0.56px;}.cls-18{fill:#ffebc6;}.cls-19{fill:#301812;}.cls-20{fill:#d55227;}</style><clipPath id="clip-path" transform="translate(36.06)"><circle id="Krog" class="cls-1" cx="111.83" cy="111.83" r="109"/></clipPath></defs><g id="Layer_2" data-name="Layer 2"><g id="Layer_1-2" data-name="Layer 1"><g class="cls-2"><path id="Vrat" class="cls-3" d="M148,172.77l-.21.53c-5.49,13.54-20,23.2-37.1,23.2-17.29,0-32-9.91-37.3-23.71h-.15a18.31,18.31,0,0,0,12.53-7.4,18,18,0,0,0,2-3.72,25.58,25.58,0,0,0,1.79-8.83h38.38a36.91,36.91,0,0,0,1.89,8.82c1.18,3.37,3.09,7,6.14,9.24C138.81,173.06,142.8,174.07,148,172.77Z" transform="translate(36.06)"/><ellipse class="cls-4" cx="138.92" cy="693.4" rx="138.92" ry="15.83"/><path class="cls-5" d="M223.13,384.3l-48.77-2.13v-157s11.27-65,28.6-29.74Q217.36,294.2,223.13,384.3Z" transform="translate(36.06)"/><path class="cls-5" d="M-1.79,384.3,47,382.17v-157s-11.27-65-28.6-29.74Q4,294.2-1.79,384.3Z" transform="translate(36.06)"/><path id="Pulover" class="cls-6" d="M202.83,194.36l-.41.06c-5.35.94-11.87,8.69-17.95,27.46V394.73H36.86V221.88c-6.09-18.77-12.6-26.52-17.95-27.46l-.41-.06c-12.85-1.45,19-21.59,38.64-21.59H73.36c5.33,13.8,20,23.71,37.3,23.71,17.08,0,31.61-9.66,37.1-23.2.08-.17.14-.34.21-.51h16.22C183.84,172.77,215.68,192.91,202.83,194.36Z" transform="translate(36.06)"/><line id="Zadrga" class="cls-7" x1="146.73" y1="394.76" x2="146.73" y2="196.51"/><polygon id="Hlace" class="cls-8" points="220.4 394.75 220.4 444.56 197.23 661.47 168.41 671.68 146.99 444.56 146.73 444.56 122.34 671.68 122.23 671.68 93.48 661.5 72.92 444.56 72.92 394.75 220.4 394.75"/><path id="Koza" class="cls-9" d="M12.54,383.64S7,427.2,36.86,431.57v-49Z" transform="translate(36.06)"/><path id="Koza-2" data-name="Koza" class="cls-9" d="M208.67,383.7s5.52,43.56-24.32,47.93v-49Z" transform="translate(36.06)"/><path class="cls-10" d="M204.43,693.23H132.35V671.68l28.82-10.22s0,0,0,.08c-1.25,12.27,9.29,14.13,9.29,14.13C213.94,671.63,204.43,693.23,204.43,693.23Z" transform="translate(36.06)"/><path class="cls-10" d="M86.17,671.68v21.55H14.09s-9.51-21.6,34-17.56c0,0,10.59-1.87,9.27-14.21l.08,0Z" transform="translate(36.06)"/><circle id="Gumb" class="cls-11" cx="159.1" cy="233" r="3.72"/><circle id="Gumb-2" data-name="Gumb" class="cls-11" cx="134.74" cy="233" r="3.72"/><circle id="Gumb-3" data-name="Gumb" class="cls-11" cx="159.1" cy="261.05" r="3.72"/><circle id="Gumb-4" data-name="Gumb" class="cls-11" cx="134.74" cy="261.05" r="3.72"/><circle id="Gumb-5" data-name="Gumb" class="cls-11" cx="159.1" cy="289.09" r="3.72"/><circle id="Gumb-6" data-name="Gumb" class="cls-11" cx="134.74" cy="289.09" r="3.72"/><circle id="Gumb-7" data-name="Gumb" class="cls-11" cx="159.1" cy="317.13" r="3.72"/><circle id="Gumb-8" data-name="Gumb" class="cls-11" cx="134.74" cy="317.13" r="3.72"/><circle id="Gumb-9" data-name="Gumb" class="cls-11" cx="159.1" cy="345.17" r="3.72"/><circle id="Gumb-10" data-name="Gumb" class="cls-11" cx="134.74" cy="345.17" r="3.72"/><path id="Koza-3" data-name="Koza" class="cls-9" d="M166.43,105.48A133.55,133.55,0,0,1,159,131.05a49.25,49.25,0,0,1-97.41-1.91A155.45,155.45,0,0,1,55,105c-2.46-12.67,3.11-14.27,6.23-14.23V87.85a44.43,44.43,0,0,1,44.43-44.43h9.66a44.43,44.43,0,0,1,44.43,44.43v4.42C162.2,92,169,92.28,166.43,105.48Z" transform="translate(36.06)"/><path class="cls-12" d="M99.79,99.1c.09-7.58-23.45-7.87-23.54-.29C76.17,105.65,99.71,105.94,99.79,99.1Z" transform="translate(36.06)"/><path class="cls-12" d="M147.11,99.1c.09-7.58-23.45-7.87-23.54-.29C123.48,105.65,147,105.94,147.11,99.1Z" transform="translate(36.06)"/><circle class="cls-13" cx="123.35" cy="98.68" r="3.89"/><circle class="cls-13" cx="171.39" cy="98.68" r="3.89"/><path id="Oci" class="cls-14" d="M74.79,99.26s10-10.05,27.69,0C102.48,99.26,87.1,82.24,74.79,99.26Z" transform="translate(36.06)"/><path id="Oci-2" data-name="Oci" class="cls-14" d="M121.92,99.26s10-10.05,27.7,0C149.62,99.26,134.23,82.24,121.92,99.26Z" transform="translate(36.06)"/><path class="cls-9" d="M113.94,95.77l-.4,1.56C113.52,96.26,113.64,95.68,113.94,95.77Z" transform="translate(36.06)"/><path id="Nos" class="cls-14" d="M113.47,128.48a19.53,19.53,0,0,1-7.44-2l.52-1c2.11,1.06,8,3.28,9.92.75.32-.85-.77-8-1.65-13.82-1.85-12.29-2.29-16.23-1.43-17a.75.75,0,0,1,.72-.15l-.35,1.11a.41.41,0,0,0,.44-.16c-.5,1,.81,9.68,1.77,16,1.61,10.7,2,13.92,1.42,14.69A4.67,4.67,0,0,1,113.47,128.48Z" transform="translate(36.06)"/><g id="Obrve"><path class="cls-15" d="M103,91c-16.77-8.46-24.37-.65-24.69-.31l-2.13-2c.37-.41,9.28-9.82,28.12-.32Z" transform="translate(36.06)"/></g><g id="Obrve-2" data-name="Obrve"><g id="Obrve-3" data-name="Obrve"><path id="Obrve-4" data-name="Obrve" class="cls-15" d="M149,92.07c-16.9-8.52-24.61-.39-24.69-.31l-2.13-2c.37-.4,9.28-9.82,28.12-.31Z" transform="translate(36.06)"/></g></g><g id="Ocala"><path class="cls-16" d="M104.28,99.82s10.32-7.8,17.16,0" transform="translate(36.06)"/><line class="cls-16" x1="100.05" y1="93" x2="110.8" y2="98.68"/><line class="cls-16" x1="197.79" y1="92.78" x2="187.04" y2="99.25"/><circle class="cls-17" cx="125.57" cy="99.82" r="14.77"/><circle class="cls-17" cx="172.27" cy="99.82" r="14.77"/></g><path id="Lasje" class="cls-18" d="M68.79,102.57S65.45,78,76.27,68.37a15.28,15.28,0,0,1,3.31-2.24,11.75,11.75,0,0,1,2.18-.77c4-1.13,8.66-.55,12.82-.29l3.12.32C117,67.49,127,71.12,127,71.12s5.78-5.54-3.74-8.62,15.48-.39,22,13.27a93.12,93.12,0,0,1,8,26.8l5.6,1.52S173.7,65.54,156,52.28c-9.7-7.26-21.71-16.43-33.59-19.73a35.19,35.19,0,0,0-3.57-.8,26.32,26.32,0,0,0-3.17-.46,30.73,30.73,0,0,0-3.18-.12,26.58,26.58,0,0,0-6.46.57,31.27,31.27,0,0,0-3.22.91c-1,.35-2.06.75-3.07,1.18-9.91,5-18.56,13.09-29.46,15.74-1.05.32-2.08.66-3.07,1-4.93,1.93-8.84,4.92-9.17,11.15a29.32,29.32,0,0,0-.61,2.9,24.91,24.91,0,0,0-.22,5.91c0,.73.08,1.46.08,2.22C57.24,81,59.8,91.26,68.79,102.57Z" transform="translate(36.06)"/><path class="cls-19" d="M130.57,136.52c-.09,0-1.53,6.58-7.35,10.9-1.38-6.86-26.65-4.19-26.74-4.18a31.51,31.51,0,0,1-3.85-6.72Z" transform="translate(36.06)"/><path class="cls-20" d="M123.22,147.42h0A19.11,19.11,0,0,1,112.78,151c-7.93.47-13.15-3.77-16.3-7.79C96.57,143.23,121.84,140.56,123.22,147.42Z" transform="translate(36.06)"/><polygon class="cls-19" points="132.54 143.24 132.54 143.24 132.54 143.24 132.54 143.24"/><polygon class="cls-12" points="128.68 136.52 129.76 138.9 165.81 138.9 166.62 136.52 128.68 136.52"/></g><circle id="Krog-2" data-name="Krog" class="cls-1" cx="147.89" cy="111.83" r="109"/></g></g></svg>