<svg xmlns="http://www.w3.org/2000/svg" viewBox="0 0 208.42 623.68"><defs><style>.cls-1{fill:#eed1bf;}.cls-2{fill:#fbc5aa;}.cls-3{fill:#d8dcec;}.cls-4{fill:#074368;}.cls-12,.cls-5{fill:none;stroke-miterlimit:10;}.cls-5{stroke:#c1c0db;stroke-width:1.01px;}.cls-6{fill:#c4463a;}.cls-7{fill:#fff;}.cls-8{fill:#514835;}.cls-9{fill:#cabcdc;}.cls-10{fill:#ebaf89;}.cls-11{fill:#c1c0db;}.cls-12{stroke:#231f20;stroke-width:0.63px;}.cls-13{fill:#200600;}.cls-14{fill:#d55227;}</style></defs><g id="Layer_2" data-name="Layer 2"><g id="Avatar"><path id="Koza" class="cls-1" d="M15.41,342.14s-5.89,46.38,25.89,51V341Z"/><path id="Koza-2" data-name="Koza" class="cls-1" d="M189.81,347.31s5.89,46.39-25.9,51.05V346.19Z"/><path id="Vrat" class="cls-2" d="M138.76,162.12c-5.1,12.81-18.42,22-34.07,22-15.37,0-28.5-8.84-33.8-21.31,4-1.14,12.58-5.35,13.09-20.48h35.3S122.52,166.07,138.76,162.12Z"/><path class="cls-3" d="M0,360l51.93-2V210.86s-12-61-30.45-27.87Q6.15,275.52,0,360Z"/><path class="cls-3" d="M208.42,360l-51.94-2V210.86s12-61,30.46-27.87Q202.27,275.52,208.42,360Z"/><path id="Koza-3" data-name="Koza" class="cls-1" d="M89.92,599.38l-30.69,4.17c3.61-2.34,5.93-4.17,5.93-4.17Z"/><path id="Koza-4" data-name="Koza" class="cls-1" d="M156.64,603.55,126,599.38h24.77S153,601.21,156.64,603.55Z"/><path id="cevlje" class="cls-4" d="M89.92,599.38v20.39h-15V614s-33.06,12.16-47.57,9.29c0,0-16.55-2.23,8.86-11.39,19-6.85,22.83-8.27,22.83-8.27l.17,0h0Z"/><path id="cevlje-2" data-name="cevlje" class="cls-4" d="M188.51,623.24C174,626.11,140.94,614,140.94,614v5.82H126V599.38l30.69,4.17h0l.17,0s3.83,1.42,22.84,8.27C205.06,621,188.51,623.24,188.51,623.24Z"/><path class="cls-5" d="M43.14,329c.14-12.11,61.31,48.44,119,0"/><polygon id="Hlace" class="cls-4" points="186.76 355.5 186.76 392.5 151.87 599.38 125.89 599.38 109.44 428.3 89.97 599.38 62.79 599.38 32.76 388.5 32.76 355.5 186.76 355.5"/><path id="Majica" class="cls-6" d="M189.55,182.05c-4.83.58-10.78,7.47-16.38,24.68,0,5,2.85,36.81-7.21,51.12-2.17,22.51,18,74.46,20.8,97.55-56.74,47-150.23,1.63-154,0C35.5,332.64,48.69,280,46.58,257.76,35.36,242.42,36,206.07,36,206.07c-5.54-16.71-11.39-23.45-16.16-24C8,180.67,37.32,161.42,55.41,161.42H70.35q.25.69.54,1.35c5.3,12.47,18.43,21.31,33.8,21.31,15.65,0,29-9.15,34.07-22,.1-.23.19-.47.28-.7H154C172.07,161.42,201.39,180.67,189.55,182.05Z"/><path id="Koza-5" data-name="Koza" class="cls-1" d="M99.47,26.6h8.2a37.7,37.7,0,0,1,37.7,37.7v50.06a41.8,41.8,0,0,1-41.8,41.8h0a41.8,41.8,0,0,1-41.8-41.8V64.3A37.7,37.7,0,0,1,99.47,26.6Z"/><path class="cls-7" d="M92,87c.09-8-22.94-8.35-23-.31C68.91,93.93,91.94,94.24,92,87Z"/><path class="cls-7" d="M138.31,87c.09-8-22.94-8.35-23-.31C115.2,93.93,138.23,94.24,138.31,87Z"/><ellipse class="cls-8" cx="79.79" cy="86.52" rx="3.81" ry="4.14"/><ellipse class="cls-8" cx="126.79" cy="86.52" rx="3.81" ry="4.14"/><path id="Oci" class="cls-9" d="M67.56,87.14s9.78-10.67,27.09,0C94.65,87.14,79.6,69.06,67.56,87.14Z"/><path id="Oci-2" data-name="Oci" class="cls-9" d="M113.67,87.14s9.78-10.67,27.09,0C140.76,87.14,125.71,69.06,113.67,87.14Z"/><g id="Nos"><path class="cls-10" d="M105.68,114.36a25.86,25.86,0,0,1-8.42-1.91l.47-1.11c2.43,1,9.24,3.13,11.47.7.32-.83-.91-7.54-1.9-12.94-2.1-11.49-2.61-15.2-1.7-16a.82.82,0,0,1,.78-.19l-.3,1.16a.39.39,0,0,0,.38-.14c-.54,1,.94,9.1,2,15,1.86,10.16,2.29,13.22,1.6,14A5.8,5.8,0,0,1,105.68,114.36Z"/></g><path id="Obrve" class="cls-11" d="M95.37,77.73c-16.87-9.24-24.67-.29-24.74-.2l-1.34-1.12c.36-.42,8.81-10.12,26.91-.21Z"/><path id="Obrve-2" data-name="Obrve" class="cls-11" d="M140.35,78.9c-16.87-9.24-24.67-.29-24.74-.2l-1.34-1.12c.35-.42,8.81-10.12,26.91-.2Z"/><g id="ocala"><rect class="cls-12" x="113.06" y="78.14" width="28.9" height="19.11" rx="8.59"/><rect class="cls-12" x="67.38" y="78.14" width="28.9" height="19.11" rx="8.59"/><path class="cls-12" d="M96.27,88.3s10.1-8.28,16.79,0"/><line class="cls-12" x1="61.77" y1="81.06" x2="67.38" y2="87.09"/><line class="cls-12" x1="145.36" y1="80.3" x2="141.96" y2="87.7"/></g><path id="Koza-6" data-name="Koza" class="cls-1" d="M144.66,79.89s10.48-3.19,7.43,13.86-7.43,27.6-7.43,27.6Z"/><path id="Koza-7" data-name="Koza" class="cls-1" d="M62.9,81.67s-10.48-3.18-7.43,13.87,7.43,27.6,7.43,27.6Z"/><ellipse id="Uhani" class="cls-6" cx="61.77" cy="119.67" rx="3.31" ry="3.59"/><ellipse id="Uhani-2" data-name="Uhani" class="cls-6" cx="146.97" cy="119.55" rx="3.31" ry="3.59"/><path class="cls-13" d="M122.27,125.59a15.23,15.23,0,0,1-6.56,8.14c-1.23-5.12-23.8-3.13-23.88-3.12a19.27,19.27,0,0,1-3.44-5A87.28,87.28,0,0,0,122.27,125.59Z"/><path class="cls-14" d="M115.71,133.73h0a19.2,19.2,0,0,1-9.32,2.7,18.1,18.1,0,0,1-14.56-5.82C91.91,130.6,114.48,128.61,115.71,133.73Z"/><polygon class="cls-13" points="91.83 130.61 91.84 130.61 91.84 130.61 91.83 130.61"/><path id="Lasje2" class="cls-11" d="M160.68,53.28h-4.23a30.23,30.23,0,0,1-6.15,6.8c-6.82,5.5-15.41,7.19-24,5.83-2.49-.37-5.09-1-7.73-1.6q-2.36-.59-4.74-1.28L109,61.64c-2-.68-4.2-1.26-6.42-1.76a64.2,64.2,0,0,0-6.82-1.12c-5.55-2.45-10.6.07-15.41,2.85a31,31,0,0,0-3.18,2.57c-2.93,3.89-7.13,6.42-8.38,11.7-.91,1.72-1.74,3.49-2.52,5.3S64.75,84.81,64,86.65c-.46,1.93-.85,3.91-1.18,5.86s-.64,3.91-.92,5.8c0,0-.61-1-1.42-2.75a33.24,33.24,0,0,0-1.25-4A44.49,44.49,0,0,1,55.67,87a28.08,28.08,0,0,1-4.38-4.63,28.79,28.79,0,0,1-4.35-11.23,31.92,31.92,0,0,1-.47-6.19c1.73-16.18,11-33,26.8-38.79,2-.85,4-1.61,6-2.27.62-.2,1.22-.39,1.84-.57-.06-.69-.1-1.38-.1-2.09a21.2,21.2,0,0,1,42.4,0,20.8,20.8,0,0,1-.1,2.1,75,75,0,0,1,12.32,4.57,56.13,56.13,0,0,1,5.34,2.9A47.68,47.68,0,0,1,160.68,53.28Z"/></g></g></svg>