<svg xmlns="http://www.w3.org/2000/svg" viewBox="0 0 277.84 609.29"><defs><style>.cls-1{fill:#eed1bf;}.cls-2{fill:#fcc5aa;}.cls-3{fill:#dce6e0;}.cls-4{fill:#d9dceb;}.cls-5{fill:#00a881;}.cls-6{fill:none;stroke:#499086;stroke-miterlimit:10;stroke-width:0.95px;}.cls-7{fill:#017dad;}.cls-8{fill:#44515d;}.cls-9{fill:#499086;}.cls-10{fill:#fff;}.cls-11{fill:#524935;}.cls-12{fill:#ebaf88;}.cls-13{fill:#ffe6b4;}.cls-14{fill:#301812;}.cls-15{fill:#d55227;}</style></defs><g id="Layer_2" data-name="Layer 2"><g id="Layer_1-2" data-name="Layer 1"><path id="Koza" class="cls-1" d="M48.6,344.25s-5.53,43.56,24.32,47.93v-49Z"/><path id="Koza-2" data-name="Koza" class="cls-1" d="M244.72,344.31s5.53,43.56-24.32,47.93v-49Z"/><path id="Vrat" class="cls-2" d="M184,133.39l-.21.53c-5.49,13.54-20,23.2-37.1,23.2-17.29,0-32-9.91-37.3-23.71h-.15A18.31,18.31,0,0,0,121.8,126a18,18,0,0,0,2-3.72,25.58,25.58,0,0,0,1.79-8.83H164a36.91,36.91,0,0,0,1.89,8.82c1.18,3.37,3.09,6.95,6.14,9.24C174.87,133.68,178.86,134.69,184,133.39Z"/><ellipse class="cls-3" cx="138.92" cy="593.46" rx="138.92" ry="15.83"/><path class="cls-4" d="M259.18,344.91l-48.77-2.13V185.83s11.28-65,28.6-29.74Q253.41,254.81,259.18,344.91Z"/><path class="cls-4" d="M34.27,344.91,83,342.78V185.83s-11.28-65-28.6-29.74Q40,254.81,34.27,344.91Z"/><path id="Pulover" class="cls-5" d="M238.89,155l-.41.06c-5.35.94-11.87,8.69-17.95,27.46l10.64,172.85H60.56L72.92,182.49C66.83,163.72,60.32,156,55,155l-.41-.06c-12.85-1.45,19-21.59,38.64-21.59h16.22c5.33,13.8,20,23.71,37.3,23.71,17.08,0,31.61-9.66,37.1-23.2.08-.17.14-.34.21-.51h16.22C219.9,133.38,251.74,153.52,238.89,155Z"/><line id="Zadrga" class="cls-6" x1="146.73" y1="355.37" x2="146.73" y2="157.12"/><polygon id="Hlace" class="cls-7" points="231.17 354.81 223.09 395.12 197.23 563.74 168.41 571.75 146.99 393.84 146.73 393.84 122.34 571.75 122.23 571.75 93.48 563.76 68.34 394.33 60.56 354.81 231.17 354.81"/><path class="cls-8" d="M240.49,593.3H168.41V571.75l28.82-10.22s0,.05,0,.08c-1.25,12.27,9.29,14.13,9.29,14.13C250,571.7,240.49,593.3,240.49,593.3Z"/><path class="cls-8" d="M122.23,571.75V593.3H50.15s-9.51-21.6,34-17.56c0,0,10.59-1.87,9.27-14.21l.08,0Z"/><circle id="Gumb" class="cls-9" cx="159.1" cy="193.62" r="3.72"/><circle id="Gumb-2" data-name="Gumb" class="cls-9" cx="134.74" cy="193.62" r="3.72"/><circle id="Gumb-3" data-name="Gumb" class="cls-9" cx="159.1" cy="221.66" r="3.72"/><circle id="Gumb-4" data-name="Gumb" class="cls-9" cx="134.74" cy="221.66" r="3.72"/><circle id="Gumb-5" data-name="Gumb" class="cls-9" cx="159.1" cy="249.7" r="3.72"/><circle id="Gumb-6" data-name="Gumb" class="cls-9" cx="134.74" cy="249.7" r="3.72"/><circle id="Gumb-7" data-name="Gumb" class="cls-9" cx="159.1" cy="277.74" r="3.72"/><circle id="Gumb-8" data-name="Gumb" class="cls-9" cx="134.74" cy="277.74" r="3.72"/><circle id="Gumb-9" data-name="Gumb" class="cls-9" cx="159.1" cy="305.78" r="3.72"/><circle id="Gumb-10" data-name="Gumb" class="cls-9" cx="134.74" cy="305.78" r="3.72"/><path id="Koza-3" data-name="Koza" class="cls-1" d="M201.62,62.06a133.55,133.55,0,0,1-7.42,25.57,49.25,49.25,0,0,1-97.41-1.91A155.45,155.45,0,0,1,90.15,61.6c-2.46-12.67,3.11-14.27,6.23-14.23V44.43A44.43,44.43,0,0,1,140.81,0h9.66A44.43,44.43,0,0,1,194.9,44.43v4.42C197.39,48.55,204.18,48.86,201.62,62.06Z"/><path class="cls-10" d="M135,55.68c.09-7.58-23.45-7.86-23.54-.29C111.36,62.23,134.9,62.52,135,55.68Z"/><path class="cls-10" d="M182.3,55.68c.09-7.58-23.45-7.86-23.54-.29C158.68,62.23,182.22,62.52,182.3,55.68Z"/><circle class="cls-11" cx="122.49" cy="55.26" r="3.89"/><circle class="cls-11" cx="170.53" cy="55.26" r="3.89"/><path id="Oci" class="cls-12" d="M110,55.84s10-10.05,27.7,0C137.68,55.84,122.29,38.82,110,55.84Z"/><path id="Oci-2" data-name="Oci" class="cls-12" d="M157.12,55.84s10-10.05,27.69,0C184.81,55.84,169.43,38.82,157.12,55.84Z"/><path class="cls-1" d="M149.13,52.35l-.4,1.56C148.71,52.84,148.83,52.26,149.13,52.35Z"/><path id="Nos" class="cls-12" d="M148.67,85.06a19.67,19.67,0,0,1-7.45-2l.53-1c2.1,1.06,8,3.28,9.91.75.32-.84-.77-8-1.64-13.82-1.86-12.29-2.3-16.23-1.43-17a.74.74,0,0,1,.71-.15L149,52.91a.42.42,0,0,0,.44-.16c-.5,1,.81,9.68,1.76,16,1.62,10.7,2,13.92,1.42,14.69A4.63,4.63,0,0,1,148.67,85.06Z"/><g id="Obrve"><path class="cls-13" d="M138.18,47.55c-16.77-8.46-24.37-.65-24.68-.31l-2.13-2c.37-.41,9.28-9.82,28.11-.32Z"/></g><g id="Obrve-2" data-name="Obrve"><g id="Obrve-3" data-name="Obrve"><path id="Obrve-4" data-name="Obrve" class="cls-13" d="M184.16,48.65c-16.9-8.52-24.6-.39-24.68-.31l-2.13-2c.37-.4,9.28-9.82,28.11-.31Z"/></g></g><path class="cls-14" d="M165.76,93.1a21.58,21.58,0,0,1-7.34,10.9c-1.39-6.86-26.66-4.19-26.74-4.18a31.85,31.85,0,0,1-3.86-6.72Z"/><path class="cls-15" d="M158.42,104h0A19,19,0,0,1,148,107.61c-7.92.47-13.15-3.77-16.29-7.79C131.76,99.81,157,97.14,158.42,104Z"/><polygon class="cls-14" points="131.68 99.82 131.68 99.82 131.68 99.82 131.68 99.82"/><polygon class="cls-10" points="127.82 93.1 128.9 95.48 164.95 95.48 165.76 93.1 127.82 93.1"/></g></g></svg>