<svg xmlns="http://www.w3.org/2000/svg" viewBox="0 0 57.16 67.13"><defs><style>.cls-1{fill:#790002;}.cls-2{fill:#c01823;}.cls-3{fill:#d73828;}.cls-4{fill:#3fa860;}</style></defs><title>apple</title><g id="Layer_2" data-name="Layer 2"><g id="Glavno_Besedilo" data-name="Glavno Besedilo"><path class="cls-1" d="M28.21,19.92A16.37,16.37,0,0,0,19,5.66L20.71,4S30.29,12.3,28.21,19.92Z"/><path class="cls-2" d="M57,42.23c-1.2,12-7.95,21.66-16.16,24.23,6.46-10.52,8.7-19.56,8.7-27A34.09,34.09,0,0,0,38,13.52a14.36,14.36,0,0,1,2.41,0C51,14.61,58.45,27.45,57,42.23Z"/><path class="cls-3" d="M49.51,39.42c0,7.48-2.24,16.51-8.7,27a14.31,14.31,0,0,1-11.66-1.32A14.3,14.3,0,0,1,25,66.67c-10.48,2.1-21.35-8-24.26-22.56S3.94,16,14.43,13.94c4.75-1,9.58.6,13.71,3.94A16.87,16.87,0,0,1,38,13.52,34.09,34.09,0,0,1,49.51,39.42Z"/><polygon class="cls-3" points="40.81 66.45 40.81 66.45 40.81 66.45 40.81 66.45"/><polygon class="cls-3" points="37.97 13.52 37.97 13.52 37.97 13.52 37.97 13.52"/><path class="cls-4" d="M28.45,16.62S27.52,4.16,37.89,0C37.89,0,46.06,8.27,28.45,16.62Z"/></g></g></svg>