<svg xmlns="http://www.w3.org/2000/svg" viewBox="0 0 103.32 101.78"><defs><style>.cls-1{fill:#f4d5e3;}.cls-2{fill:#00bdcd;}</style></defs><title>brush</title><g id="Layer_2" data-name="Layer 2"><g id="Glavno_Besedilo" data-name="Glavno Besedilo"><path class="cls-1" d="M4.33,101.77A3.19,3.19,0,0,0,7,100.61q2.65-2.68,5.31-5.36L22,85.58l9.21-9.22c1.26-1.27,2.51-2.55,3.78-3.81,1-1,2-2,3.09-3,1.32-1.2,2.63-2.43,4.06-3.5,1.69-1.27,3.5-2.39,5.26-3.58L58,55.33l9.79-6.58C69,48,70.2,47.22,71.34,46.39c2-1.48,4-3,5.93-4.55,1.23-1,2.3-2.23,3.43-3.36Q85.15,34,89.6,29.62c1.91-1.91,3.81-3.84,5.72-5.76q3.53-3.53,7.08-7a3.13,3.13,0,0,0,.92-2.18,3.74,3.74,0,0,0-1.46-3,3.32,3.32,0,0,0-4.92,0q-3.46,3.51-6.95,7c-2.38,2.39-4.79,4.75-7.17,7.13-1.59,1.59-3.15,3.19-4.74,4.78-1.42,1.43-2.82,2.89-4.3,4.26a51.6,51.6,0,0,1-4.21,3.61c-1.65,1.23-3.41,2.31-5.13,3.44q-6.81,4.46-13.63,8.89Q46,54,41.06,57.08a45.08,45.08,0,0,0-7.5,5.47C30.06,66,26.62,69.44,23.16,72.9L1,95.05A3.06,3.06,0,0,0,.6,99.14a18.81,18.81,0,0,0,1.52,1.64A2.72,2.72,0,0,0,4.33,101.77ZM84,1.65a4.35,4.35,0,0,0,.57.91c1.34,1.39,2.72,2.75,4.08,4.12q2.58,2.58,5.16,5.16a1.53,1.53,0,0,0,.58.34A1.45,1.45,0,0,0,96,11.59a1.41,1.41,0,0,0-.2-1.83C94.44,8.37,93,7,91.67,5.61L86.51.45A1.4,1.4,0,0,0,84.9.12,1.54,1.54,0,0,0,84,1.65Zm1.46,20a4.93,4.93,0,0,0-.53-1c-.49-.56-1-1.07-1.58-1.6l-7.6-7.56a1.44,1.44,0,1,0-2.08,2c1.44,1.46,2.9,2.91,4.35,4.37l4.89,4.89a1.36,1.36,0,0,0,1.6.31A1.55,1.55,0,0,0,85.43,21.61Zm-7.14,7.07a5.21,5.21,0,0,0,1-.37A1.44,1.44,0,0,0,79.35,26l-7.19-7.19c-.69-.69-1.37-1.4-2.09-2.06a1.44,1.44,0,0,0-2.05,2c1.06,1.09,2.14,2.16,3.21,3.23,2,2,4,4,6,6A6.6,6.6,0,0,0,78.29,28.68Zm-1.12,1.15c.1-.78-.54-1.08-1-1.51l-8.75-8.8a1.44,1.44,0,1,0-2.1,2c.18.2.37.39.56.58l8.84,8.81a1.25,1.25,0,0,0,1.49.29A1.46,1.46,0,0,0,77.17,29.83ZM90.88,16.18a4.24,4.24,0,0,0-.49-.89c-.7-.76-1.44-1.49-2.17-2.23L83.38,8.21c-.76-.76-1.51-1.55-2.3-2.28a1.43,1.43,0,0,0-2.48.68,1.59,1.59,0,0,0,.61,1.55l6.66,6.66c.85.85,1.72,1.68,2.59,2.51a1.22,1.22,0,0,0,1.5.2A1.66,1.66,0,0,0,90.88,16.18ZM72.06,13.6c-.79.07-1.28.26-1.53.87a1.46,1.46,0,0,0,.38,1.7l5.69,5.69c1.16,1.16,2.3,2.34,3.49,3.47a1.43,1.43,0,1,0,2-2c-1-1.1-2.14-2.15-3.21-3.23-2-2-3.92-4-5.9-5.92A4.18,4.18,0,0,0,72.06,13.6Zm21.54-.15a4.07,4.07,0,0,0-.54-1Q88.4,7.76,83.71,3.11a1.24,1.24,0,0,0-1.36-.35,1.43,1.43,0,0,0-.56,2.49c2.34,2.39,4.72,4.75,7.08,7.11.73.73,1.47,1.47,2.22,2.19a1.35,1.35,0,0,0,1.56.28A1.6,1.6,0,0,0,93.6,13.45ZM77.37,8.06a1.69,1.69,0,0,0-1.44,1,1.34,1.34,0,0,0,.33,1.55l9.22,9.23a1.46,1.46,0,1,0,2.1-2c-.47-.5-1-1-1.45-1.46-2.55-2.55-5.09-5.1-7.66-7.64A6.29,6.29,0,0,0,77.37,8.06Z"/><path class="cls-2" d="M4.33,101.77a2.72,2.72,0,0,1-2.2-1A18.81,18.81,0,0,1,.6,99.14,3.06,3.06,0,0,1,1,95.05L23.16,72.9c3.46-3.46,6.9-6.93,10.39-10.35a45.08,45.08,0,0,1,7.5-5.47q4.89-3.13,9.76-6.28,6.82-4.43,13.63-8.89c1.72-1.13,3.49-2.2,5.13-3.44a51.6,51.6,0,0,0,4.21-3.61c1.48-1.37,2.87-2.83,4.3-4.26,1.58-1.59,3.15-3.2,4.74-4.78,2.38-2.38,4.79-4.75,7.17-7.13s4.64-4.66,6.95-7a3.32,3.32,0,0,1,4.92,0,3.74,3.74,0,0,1,1.46,3,3.13,3.13,0,0,1-.92,2.18q-3.55,3.52-7.08,7c-1.91,1.91-3.81,3.84-5.72,5.76q-4.44,4.44-8.89,8.86c-1.14,1.13-2.2,2.34-3.43,3.36-1.92,1.59-3.93,3.07-5.93,4.55C70.2,47.22,69,48,67.81,48.75L58,55.33,47.41,62.47c-1.76,1.19-3.57,2.31-5.26,3.58-1.43,1.07-2.74,2.3-4.06,3.5-1.06,1-2.08,2-3.09,3-1.27,1.26-2.51,2.54-3.78,3.81L22,85.58l-9.66,9.67Q9.68,97.92,7,100.61A3.19,3.19,0,0,1,4.33,101.77Z"/></g></g></svg>