<svg xmlns="http://www.w3.org/2000/svg" viewBox="0 0 149.47 56.67"><defs><style>.cls-1{fill:#f15d2a;}.cls-2{fill:#c4572d;}.cls-3,.cls-4{fill:#d89707;}.cls-3{opacity:0.46;}.cls-5{fill:#ffffec;}.cls-6{fill:#565759;}.cls-7,.cls-8{fill:#fff;}.cls-8{opacity:0.61;}.cls-9{fill:#a4906f;}</style></defs><title>car</title><g id="Layer_2" data-name="Layer 2"><g id="Glavno_Besedilo" data-name="Glavno Besedilo"><path class="cls-1" d="M135.37,0h-61C60.83,1.81,49.2,9.16,43.91,13a16.45,16.45,0,0,1-7.37,3l-28,3.93a12.9,12.9,0,0,0-6.4,5.33A19.55,19.55,0,0,0,.95,27.39H149.47V23.52C148.64,11.76,135.37,0,135.37,0Z"/><path class="cls-2" d="M0,29.71v14H149.47V27.39H.95A16.94,16.94,0,0,0,0,29.71Z"/><rect class="cls-3" y="39.35" width="149.47" height="4.39"/><path class="cls-4" d="M43.66,43.74H11.81a15.93,15.93,0,0,1,31.86,0Z"/><path class="cls-4" d="M131.27,43.74H99.42a15.93,15.93,0,0,1,31.86,0Z"/><path class="cls-5" d="M125.12,18.36H142a2.38,2.38,0,0,0,2.09-3.51,54.07,54.07,0,0,0-9-11.69,2.37,2.37,0,0,0-1.68-.69h-8.3Z"/><rect class="cls-5" x="92.11" y="2.48" width="29.29" height="15.89"/><path class="cls-5" d="M51.4,11c-2.42,1.44-4.47,2.83-6,4l-.07.05a1.82,1.82,0,0,0,1,3.3H51.4Z"/><path class="cls-5" d="M74.54,2.48a61,61,0,0,0-20.35,7v8.9H88.4V2.48Z"/><circle class="cls-6" cx="27.74" cy="43.8" r="12.87"/><circle class="cls-7" cx="27.74" cy="43.8" r="8.91"/><circle class="cls-7" cx="27.74" cy="43.8" r="2.17"/><circle class="cls-6" cx="115.34" cy="43.8" r="12.87"/><circle class="cls-7" cx="115.34" cy="43.8" r="8.91"/><circle class="cls-7" cx="115.34" cy="43.8" r="2.17"/><path class="cls-8" d="M6.58,25.24v2.15c0,4.58,1.67,8.29-2.91,8.29H0v-6a18.94,18.94,0,0,1,2.16-4.47Z"/><rect class="cls-4" x="66.41" y="21.74" width="7.83" height="2.18"/><rect class="cls-4" x="100.91" y="21.74" width="7.83" height="2.18"/><circle class="cls-9" cx="27.74" cy="43.8" r="5.3"/><circle class="cls-9" cx="115.34" cy="43.8" r="5.3"/></g></g></svg>