<svg xmlns="http://www.w3.org/2000/svg" xmlns:xlink="http://www.w3.org/1999/xlink" viewBox="0 0 116.62 75.41"><defs><style>.cls-1{isolation:isolate;}.cls-2{fill:#85837d;}.cls-3{fill:#9b9892;}.cls-4{fill:#f1f1f2;}.cls-5{fill:#fff;}.cls-6{opacity:0.6;fill:url(#linear-gradient);}.cls-7{opacity:0.05;fill:url(#Fade_to_Black);}.cls-7,.cls-8{mix-blend-mode:multiply;}.cls-8{opacity:0.1;fill:url(#Fade_to_Black-2);}.cls-9{fill:#a7d7b6;}</style><linearGradient id="linear-gradient" x1="9.08" y1="22.5" x2="31.33" y2="44.75" gradientUnits="userSpaceOnUse"><stop offset="0" stop-color="#fff"/><stop offset="0.06" stop-color="#fff" stop-opacity="0.86"/><stop offset="0.16" stop-color="#fff" stop-opacity="0.66"/><stop offset="0.26" stop-color="#fff" stop-opacity="0.48"/><stop offset="0.37" stop-color="#fff" stop-opacity="0.33"/><stop offset="0.48" stop-color="#fff" stop-opacity="0.21"/><stop offset="0.59" stop-color="#fff" stop-opacity="0.12"/><stop offset="0.71" stop-color="#fff" stop-opacity="0.05"/><stop offset="0.84" stop-color="#fff" stop-opacity="0.01"/><stop offset="1" stop-color="#fff" stop-opacity="0"/></linearGradient><linearGradient id="Fade_to_Black" x1="52.9" y1="66.33" x2="30.65" y2="44.08" gradientUnits="userSpaceOnUse"><stop offset="0" stop-color="#231f20"/><stop offset="0.06" stop-color="#231f20" stop-opacity="0.86"/><stop offset="0.33" stop-color="#231f20" stop-opacity="0.38"/><stop offset="0.63" stop-color="#231f20" stop-opacity="0.09"/><stop offset="1" stop-color="#231f20" stop-opacity="0"/></linearGradient><linearGradient id="Fade_to_Black-2" x1="16.04" y1="29.46" x2="31.33" y2="44.75" xlink:href="#Fade_to_Black"/></defs><title>dishes</title><g class="cls-1"><g id="Layer_2" data-name="Layer 2"><g id="Glavno_Besedilo" data-name="Glavno Besedilo"><rect class="cls-2" x="43.57" y="13.73" width="64.51" height="56.27"/><rect class="cls-3" x="92.29" y="13.73" width="15.78" height="56.27"/><path class="cls-2" d="M108.08,16.64s19.22,15.44,0,15.44"/><path class="cls-2" d="M43.87,16.64s-19.22,15.44,0,15.44"/><path class="cls-3" d="M43.57,13.73,62.47,8.5a50.1,50.1,0,0,1,26.71,0l18.9,5.23Z"/><circle class="cls-3" cx="75.14" cy="3.43" r="3.43"/><circle class="cls-4" cx="30.99" cy="44.42" r="30.99"/><circle class="cls-5" cx="30.99" cy="44.42" r="21.15"/><path class="cls-6" d="M9.75,23.17a31,31,0,0,1,43.49-.33l-.33-.34A31,31,0,0,0,9.08,66.33l.34.33A31,31,0,0,1,9.75,23.17Z"/><path class="cls-7" d="M52.23,65.66A31,31,0,0,1,8.75,66l.33.34A31,31,0,1,0,52.9,22.5l-.34-.33A31,31,0,0,1,52.23,65.66Z"/><path class="cls-8" d="M16.71,30.13a21.15,21.15,0,0,1,29.57-.33l-.33-.34A21.15,21.15,0,1,0,16,59.37l.34.33A21.15,21.15,0,0,1,16.71,30.13Z"/><path class="cls-9" d="M12.86,60a.51.51,0,0,0-.92.25L11,63.73c-.14.51.17.81.68.68l3.49-.93a.51.51,0,0,0,.25-.92Zm-.92-31.4a.51.51,0,0,0,.92.25l2.55-2.55a.51.51,0,0,0-.25-.92l-3.49-.93c-.51-.14-.81.17-.68.68ZM6.33,42.13,3.2,43.94a.51.51,0,0,0,0,1L6.33,46.7c.46.26.83,0,.83-.48V42.61C7.16,42.08,6.78,41.87,6.33,42.13ZM29.19,20.58H32.8c.53,0,.74-.37.48-.83l-1.81-3.13a.51.51,0,0,0-1,0l-1.81,3.13C28.44,20.21,28.66,20.58,29.19,20.58ZM32.8,68.25H29.19c-.53,0-.74.37-.48.83l1.81,3.13a.51.51,0,0,0,1,0l1.81-3.13C33.54,68.62,33.32,68.25,32.8,68.25ZM49.12,28.84a.51.51,0,0,0,.92-.25L51,25.1c.14-.51-.17-.81-.68-.68l-3.49.93a.51.51,0,0,0-.25.92Zm9.66,15.1-3.13-1.81c-.46-.26-.83,0-.83.48v3.61c0,.53.37.74.83.48l3.13-1.81A.51.51,0,0,0,58.78,43.94ZM50,60.24a.51.51,0,0,0-.92-.25l-2.55,2.55a.51.51,0,0,0,.25.92l3.49.93c.51.14.81-.17.68-.68Z"/></g></g></g></svg>