<svg xmlns="http://www.w3.org/2000/svg" viewBox="0 0 94.55 104.91"><defs><style>.cls-1{fill:#b2867b;}</style></defs><title>hairbrush</title><g id="Layer_2" data-name="Layer 2"><g id="Glavno_Besedilo" data-name="Glavno Besedilo"><path class="cls-1" d="M26,46.06l8.59,7.88,7.54,6.94c.95.87,1.73,1,2.39.33s.59-1.52-.29-2.48L31.56,45a7.22,7.22,0,0,1-1.38-1.64,1.77,1.77,0,0,1,.12-1.6,2,2,0,0,1,1.6-.24c.39.07.72.53,1.05.84l14.31,13.2c.11.1.22.21.34.31a1.51,1.51,0,0,0,2.23,0,1.44,1.44,0,0,0-.13-2.13c-1.8-2-3.58-3.93-5.38-5.88l-8.5-9.2-.08-.08c-.76-.85-.83-1.62-.18-2.19s1.43-.38,2.1.24q6,5.53,12,11l3,2.76c.9.82,1.76.9,2.39.23s.51-1.48-.26-2.32L43.46,36c-.82-.89-1.62-1.81-2.46-2.69-.67-.69-1-1.43-.2-2.17s1.52-.34,2.19.28l8.87,8.18c2.06,1.9,4.12,3.82,6.19,5.71a1.5,1.5,0,1,0,2.15-2.07l-.38-.42-9-9.71c-1.57-1.7-3.16-3.39-4.71-5.11-.83-.91-.73-2.05.25-2.32a2.13,2.13,0,0,1,1.69.46c3.76,3.37,7.46,6.8,11.18,10.22L63.21,40c.83.76,1.69.83,2.31.19s.55-1.48-.22-2.32L51.83,23.22l-.54-.58a1.35,1.35,0,1,1,1.9-1.91C54.63,22,56,23.34,57.47,24.65l10.2,9.43.68.61c1,.84,1.75.94,2.4.29s.56-1.52-.33-2.5q-1.84-2-3.7-4L57.06,18c-.26-.28-.65-.55-.7-.87a2.55,2.55,0,0,1,.16-1.64,1.11,1.11,0,0,1,1.71-.15c.65.52,1.26,1.09,1.88,1.66L73.58,29.43c.91.84,1.75.94,2.41.31s.57-1.49-.26-2.39L62.1,12.52l-.23-.25a1.32,1.32,0,0,1-.15-2c.68-.71,1.42-.52,2.1.11q3.72,3.44,7.46,6.86c2.54,2.34,5.09,4.67,7.62,7,.72.67,1.47,1,2.31.27s.62-1.52-.2-2.4L68.58,8.63A10,10,0,0,1,67,6.74,2,2,0,0,1,67,5c.4-.65,1.16-.63,1.8-.14.33.25.63.54.94.82L84,18.84c.22.21.46.56.69.56a3.39,3.39,0,0,0,1.84-.24,1.21,1.21,0,0,0,.12-1.83c-.49-.63-1-1.21-1.57-1.8L72.3,1.73l-.08-.08c-.43-.46-.92-1-.27-1.53A1.59,1.59,0,0,1,73.4.28q5.23,3.84,10.36,7.8a72.16,72.16,0,0,1,6.66,5.49,20,20,0,0,1,3.42,4.9,5,5,0,0,1-1,6.24C85.74,32.26,78.8,40,71.52,47.43A240.09,240.09,0,0,1,44.67,71a91.32,91.32,0,0,0-16.91,17A114.91,114.91,0,0,1,13,103.11a8,8,0,1,1-10-12.57c7.66-6,15.24-12.06,22-19.08a38.82,38.82,0,0,0,6.9-9,3.49,3.49,0,0,0-.23-4.06c-2.21-3.17-4.19-6.5-6.27-9.76C24.6,47.29,24.61,47.23,26,46.06ZM4.94,100.23a2.37,2.37,0,1,0,0-3.37A2.43,2.43,0,0,0,4.94,100.23Z"/></g></g></svg>