<svg xmlns="http://www.w3.org/2000/svg" xmlns:xlink="http://www.w3.org/1999/xlink" viewBox="0 0 126 85.69"><defs><style>.cls-1{isolation:isolate;}.cls-2{fill:#d55225;}.cls-3{fill:#f1f1f2;}.cls-4,.cls-5,.cls-6,.cls-9{opacity:0.05;}.cls-10,.cls-4,.cls-5,.cls-6,.cls-9{mix-blend-mode:multiply;}.cls-4{fill:url(#Fade_to_Black);}.cls-5{fill:url(#Fade_to_Black-2);}.cls-6{fill:url(#Fade_to_Black-3);}.cls-7{fill:#fff;}.cls-8{opacity:0.6;fill:url(#linear-gradient);}.cls-9{fill:url(#Fade_to_Black-4);}.cls-10{opacity:0.1;fill:url(#Fade_to_Black-5);}.cls-11{fill:#a7d7b6;}</style><linearGradient id="Fade_to_Black" x1="21.23" y1="29.98" x2="21.23" y2="14.94" gradientUnits="userSpaceOnUse"><stop offset="0" stop-color="#231f20"/><stop offset="0.06" stop-color="#231f20" stop-opacity="0.86"/><stop offset="0.33" stop-color="#231f20" stop-opacity="0.38"/><stop offset="0.63" stop-color="#231f20" stop-opacity="0.09"/><stop offset="1" stop-color="#231f20" stop-opacity="0"/></linearGradient><linearGradient id="Fade_to_Black-2" x1="93.77" y1="24.19" x2="99.3" y2="24.19" xlink:href="#Fade_to_Black"/><linearGradient id="Fade_to_Black-3" x1="106.44" y1="30.2" x2="106.44" y2="14.49" xlink:href="#Fade_to_Black"/><linearGradient id="linear-gradient" x1="37.32" y1="21.42" x2="59.57" y2="43.67" gradientUnits="userSpaceOnUse"><stop offset="0" stop-color="#fff"/><stop offset="0.06" stop-color="#fff" stop-opacity="0.86"/><stop offset="0.16" stop-color="#fff" stop-opacity="0.66"/><stop offset="0.26" stop-color="#fff" stop-opacity="0.48"/><stop offset="0.37" stop-color="#fff" stop-opacity="0.33"/><stop offset="0.48" stop-color="#fff" stop-opacity="0.21"/><stop offset="0.59" stop-color="#fff" stop-opacity="0.12"/><stop offset="0.71" stop-color="#fff" stop-opacity="0.05"/><stop offset="0.84" stop-color="#fff" stop-opacity="0.01"/><stop offset="1" stop-color="#fff" stop-opacity="0"/></linearGradient><linearGradient id="Fade_to_Black-4" x1="81.15" y1="65.25" x2="58.9" y2="43" xlink:href="#Fade_to_Black"/><linearGradient id="Fade_to_Black-5" x1="44.28" y1="28.38" x2="59.57" y2="43.67" xlink:href="#Fade_to_Black"/></defs><title>meal</title><g class="cls-1"><g id="Layer_2" data-name="Layer 2"><g id="Glavno_Besedilo" data-name="Glavno Besedilo"><path class="cls-2" d="M123.67,11.95S144.25,85.69,63,85.69,2.33,11.95,2.33,11.95,20.7,0,63,0,123.67,11.95,123.67,11.95Z"/><path class="cls-2" d="M124.19,14.14l-122-1.52A81.33,81.33,0,0,0,0,28.59l125.86-1.12A83.44,83.44,0,0,0,124.19,14.14ZM63,0A174.89,174.89,0,0,0,25.86,3.64l78.44,1C94.55,2.14,80.92,0,63,0ZM21.53,75.74,105.6,75A44,44,0,0,0,115,66.34l-104.55-.6A44.14,44.14,0,0,0,21.53,75.74ZM4.9,56.44l115.51,1.44a56.6,56.6,0,0,0,5.28-19.8L.41,39.19A56.86,56.86,0,0,0,4.9,56.44ZM63,85.69a97,97,0,0,0,25.47-3l-50.18.2A98.06,98.06,0,0,0,63,85.69Z"/><path class="cls-3" d="M21.23,66.6a3.3,3.3,0,0,1-2.11-.54C19,66,20.23,34.24,20.23,34.12c0-5-4.73-3.81-4.73-11.46,0-5.47,2.17-8.38,5.73-8.38S27,17.19,27,22.66c0,7.65-4.73,6.43-4.73,11.46,0,.11,1.19,31.86,1.11,31.94A3.3,3.3,0,0,1,21.23,66.6Z"/><path class="cls-4" d="M26.4,22.46c0,4.94-2.32,7.52-5.17,7.52s-5.17-2.58-5.17-7.52c0-5.34,2.32-7.52,5.17-7.52S26.4,17.12,26.4,22.46Z"/><path class="cls-3" d="M93.33,21.23c0-8.13,3-13.13,4.63-13.13,1.17,0,1.34.59,1.34,1.57s-.82,11.66-.82,24.46c0,9.16,1.19,31.86,1.11,31.94a4.4,4.4,0,0,1-4.21,0c-.05-.05.43-25,.43-26.28C95.8,34.95,93.33,33.25,93.33,21.23Z"/><path class="cls-5" d="M98.58,40.22c-.06-2.33-.1-4.44-.1-6.1,0-12.79.82-23.48.82-24.46,0-.78-.1-1.31-.74-1.5l-.15,0c-2.76,1.11-4.63,6.7-4.63,14.22C93.77,30.94,96.47,38.81,98.58,40.22Z"/><path class="cls-3" d="M110.66,21.95c0-5.61-.21-8-.21-8h-.95l-.08,10.16a.6.6,0,0,1-1.21,0l-.08-10.16h-1l-.08,10.71a.65.65,0,0,1-1.29,0l-.08-10.71h-1l-.08,10.16a.6.6,0,0,1-1.21,0l-.08-10.16h-.95s-.21,2.39-.21,8c0,7.65,3.22,7.14,3.22,12.18,0,.11-1.19,31.86-1.11,31.94a4.4,4.4,0,0,0,4.21,0c.08-.08-1.11-31.83-1.11-31.94C107.44,29.09,110.66,29.6,110.66,21.95Z"/><path class="cls-6" d="M110.18,23.31c0-5.72-.08-7.81-.68-8.52l-.07,9.32a.6.6,0,0,1-1.21,0l-.08-9.62-1,.09-.07,10.08a.65.65,0,0,1-1.29,0l-.07-10.08-1-.09-.08,9.62a.6.6,0,0,1-1.21,0l-.07-9.32c-.6.71-.68,2.79-.68,8.52,0,3.17,1.65,6.89,3.74,6.89S110.18,26.48,110.18,23.31Z"/><circle class="cls-3" cx="59.24" cy="43.33" r="30.99"/><circle class="cls-7" cx="59.24" cy="43.33" r="21.15"/><path class="cls-8" d="M38,22.09a31,31,0,0,1,43.49-.33l-.33-.34A31,31,0,0,0,37.32,65.25l.34.33A31,31,0,0,1,38,22.09Z"/><path class="cls-9" d="M80.48,64.58A31,31,0,0,1,37,64.91l.33.34A31,31,0,1,0,81.15,21.42l-.34-.33A31,31,0,0,1,80.48,64.58Z"/><path class="cls-10" d="M45,29.05a21.15,21.15,0,0,1,29.57-.33l-.33-.34A21.15,21.15,0,0,0,44.28,58.29l.34.33A21.15,21.15,0,0,1,45,29.05Z"/><path class="cls-11" d="M41.11,58.91a.51.51,0,0,0-.92.25l-.93,3.49c-.14.51.17.81.68.68l3.49-.93a.51.51,0,0,0,.25-.92Zm-.92-31.4a.51.51,0,0,0,.92.25l2.55-2.55a.51.51,0,0,0-.25-.92l-3.49-.93c-.51-.14-.81.17-.68.68ZM34.57,41.05l-3.13,1.81a.51.51,0,0,0,0,1l3.13,1.81c.46.26.83,0,.83-.48V41.53C35.4,41,35,40.79,34.57,41.05ZM57.43,19.5H61c.53,0,.74-.37.48-.83l-1.81-3.13a.51.51,0,0,0-1,0L57,18.67C56.69,19.13,56.9,19.5,57.43,19.5ZM61,67.17H57.43c-.53,0-.74.37-.48.83l1.81,3.13a.51.51,0,0,0,1,0L61.52,68C61.78,67.54,61.57,67.17,61,67.17ZM77.37,27.76a.51.51,0,0,0,.92-.25L79.23,24c.14-.51-.17-.81-.68-.68l-3.49.93a.51.51,0,0,0-.25.92ZM87,42.86,83.9,41.05c-.46-.26-.83,0-.83.48v3.61c0,.53.37.74.83.48L87,43.81A.51.51,0,0,0,87,42.86Zm-8.74,16.3a.51.51,0,0,0-.92-.25l-2.55,2.55a.51.51,0,0,0,.25.92l3.49.93c.51.14.81-.17.68-.68Z"/></g></g></g></svg>