<svg xmlns="http://www.w3.org/2000/svg" viewBox="0 0 134 100.88"><defs><style>.cls-1{fill:#dfd5c8;}.cls-2{fill:#443548;}.cls-3,.cls-4{fill:#ffffec;stroke:#514835;stroke-miterlimit:10;}.cls-3{stroke-width:0.76px;}.cls-4{stroke-width:0.54px;}</style></defs><title>newspaper</title><g id="Layer_2" data-name="Layer 2"><g id="Glavno_Besedilo" data-name="Glavno Besedilo"><rect class="cls-1" width="67" height="100.88"/><rect class="cls-2" x="6.02" y="5.27" width="31.62" height="16.56"/><rect class="cls-2" x="43.56" y="55.82" width="22.58" height="11.83" transform="translate(116.58 6.88) rotate(90)"/><line class="cls-3" x1="6.02" y1="30.11" x2="60.98" y2="30.11"/><line class="cls-3" x1="6.02" y1="34.25" x2="60.98" y2="34.25"/><line class="cls-3" x1="6.02" y1="38.39" x2="60.98" y2="38.39"/><line class="cls-3" x1="6.02" y1="42.53" x2="60.98" y2="42.53"/><line class="cls-3" x1="6.02" y1="46.67" x2="60.98" y2="46.67"/><line class="cls-4" x1="6.02" y1="56.46" x2="33.88" y2="56.46"/><line class="cls-4" x1="6.02" y1="60.6" x2="33.88" y2="60.6"/><line class="cls-4" x1="6.02" y1="64.74" x2="33.88" y2="64.74"/><line class="cls-4" x1="6.02" y1="68.88" x2="33.88" y2="68.88"/><line class="cls-4" x1="6.02" y1="73.02" x2="33.88" y2="73.02"/><rect class="cls-1" x="67" width="67" height="100.88" transform="translate(201 100.88) rotate(180)"/><rect class="cls-2" x="96.36" y="79.04" width="31.62" height="16.56" transform="translate(224.34 174.65) rotate(180)"/><rect class="cls-2" x="67.86" y="33.23" width="22.58" height="11.83" transform="translate(40.01 118.3) rotate(-90)"/><line class="cls-3" x1="127.98" y1="70.76" x2="73.02" y2="70.76"/><line class="cls-3" x1="127.98" y1="66.62" x2="73.02" y2="66.62"/><line class="cls-3" x1="127.98" y1="62.48" x2="73.02" y2="62.48"/><line class="cls-3" x1="127.98" y1="58.34" x2="73.02" y2="58.34"/><line class="cls-3" x1="127.98" y1="54.2" x2="73.02" y2="54.2"/><line class="cls-4" x1="127.98" y1="44.42" x2="100.12" y2="44.42"/><line class="cls-4" x1="127.98" y1="40.28" x2="100.12" y2="40.28"/><line class="cls-4" x1="127.98" y1="36.13" x2="100.12" y2="36.13"/><line class="cls-4" x1="127.98" y1="31.99" x2="100.12" y2="31.99"/><line class="cls-4" x1="127.98" y1="27.85" x2="100.12" y2="27.85"/></g></g></svg>