<svg xmlns="http://www.w3.org/2000/svg" viewBox="0 0 83.89 99.12"><defs><style>.cls-1{isolation:isolate;}.cls-2{fill:#e1f6fa;}.cls-3{fill:#e6e6e6;mix-blend-mode:multiply;}.cls-4{fill:#a5e4f1;}.cls-5,.cls-7{fill:none;stroke-miterlimit:10;}.cls-5{stroke:#87dbec;stroke-width:0.7px;}.cls-6{fill:#c3edf5;}.cls-7{stroke:#666;stroke-width:1.17px;}</style></defs><title>papers</title><g class="cls-1"><g id="Layer_2" data-name="Layer 2"><g id="Glavno_Besedilo" data-name="Glavno Besedilo"><polygon class="cls-2" points="53.41 99.12 83.89 23.43 25.72 0 1.92 59.08 11.85 82.38 53.41 99.12"/><polygon class="cls-3" points="18.53 65.77 2.7 57.15 1.92 59.08 18.53 65.77"/><polygon class="cls-3" points="11.85 82.38 18.53 65.77 13.49 83.05 11.85 82.38"/><polygon class="cls-4" points="18.53 65.77 1.92 59.08 11.85 82.38 18.53 65.77"/><line class="cls-5" x1="50.7" y1="76.58" x2="13.08" y2="61.43"/><line class="cls-5" x1="52.7" y1="71.61" x2="15.08" y2="56.46"/><line class="cls-5" x1="54.7" y1="66.65" x2="17.08" y2="51.5"/><line class="cls-5" x1="56.7" y1="61.69" x2="19.08" y2="46.53"/><line class="cls-5" x1="58.7" y1="56.72" x2="21.08" y2="41.57"/><line class="cls-5" x1="62.67" y1="46.86" x2="25.05" y2="31.71"/><line class="cls-5" x1="64.66" y1="41.93" x2="27.03" y2="26.78"/><line class="cls-5" x1="66.64" y1="37" x2="29.02" y2="21.85"/><line class="cls-5" x1="68.63" y1="32.07" x2="31" y2="16.92"/><line class="cls-5" x1="60.7" y1="51.76" x2="23.07" y2="36.61"/><polygon class="cls-6" points="64.41 93.29 71.34 11.98 8.85 6.66 3.44 70.12 19.76 89.48 64.41 93.29"/><polygon class="cls-3" points="21.28 71.64 3.62 68.05 3.44 70.12 21.28 71.64"/><polygon class="cls-3" points="19.76 89.48 21.28 71.64 21.53 89.64 19.76 89.48"/><polygon class="cls-4" points="21.28 71.64 3.44 70.12 19.76 89.48 21.28 71.64"/><line class="cls-5" x1="55.21" y1="72.53" x2="14.79" y2="69.09"/><line class="cls-5" x1="55.66" y1="67.2" x2="15.25" y2="63.76"/><line class="cls-5" x1="56.11" y1="61.87" x2="15.7" y2="58.43"/><line class="cls-5" x1="56.57" y1="56.54" x2="16.15" y2="53.09"/><line class="cls-5" x1="57.02" y1="51.2" x2="16.61" y2="47.76"/><line class="cls-5" x1="57.93" y1="40.61" x2="17.51" y2="37.17"/><line class="cls-5" x1="58.38" y1="35.32" x2="17.96" y2="31.87"/><line class="cls-5" x1="58.83" y1="30.02" x2="18.41" y2="26.58"/><line class="cls-5" x1="59.28" y1="24.72" x2="18.86" y2="21.28"/><line class="cls-5" x1="57.48" y1="45.87" x2="17.06" y2="42.43"/><polygon class="cls-2" points="0 9.18 0 90.77 62.72 90.77 62.72 27.08 44.81 9.18 0 9.18"/><polygon class="cls-3" points="44.81 27.08 62.72 29.17 62.72 27.08 44.81 27.08"/><polygon class="cls-3" points="44.81 9.18 44.81 27.08 43.03 9.18 44.81 9.18"/><polygon class="cls-4" points="44.81 27.08 62.72 27.08 44.81 9.18 44.81 27.08"/><line class="cls-5" x1="10.93" y1="29.07" x2="51.49" y2="29.07"/><line class="cls-5" x1="10.93" y1="34.43" x2="51.49" y2="34.43"/><line class="cls-5" x1="10.93" y1="39.78" x2="51.49" y2="39.78"/><line class="cls-5" x1="10.93" y1="45.13" x2="51.49" y2="45.13"/><line class="cls-5" x1="10.93" y1="50.48" x2="51.49" y2="50.48"/><line class="cls-5" x1="10.93" y1="61.11" x2="51.49" y2="61.11"/><line class="cls-5" x1="10.93" y1="66.43" x2="51.49" y2="66.43"/><line class="cls-5" x1="10.93" y1="71.74" x2="51.49" y2="71.74"/><line class="cls-5" x1="10.93" y1="77.06" x2="51.49" y2="77.06"/><line class="cls-5" x1="10.93" y1="55.83" x2="51.49" y2="55.83"/><path class="cls-7" d="M10.84,32.51c2.13-.17,4.27-.33,6.41-.4q2-.06,4,0c1.09,0,2.19.09,3.27.23,1.46.19,2.9.52,4.36.76a66.94,66.94,0,0,0,10.68.58H53.47"/><path class="cls-7" d="M11.22,41.74a37.23,37.23,0,0,1,7.05-1.85,21.84,21.84,0,0,1,3.05,0c10.23.52,20.44,2.41,30.64,1.52"/><path class="cls-7" d="M11.81,50.21l3.58-2a1.92,1.92,0,0,1,1-.33,2,2,0,0,1,1,.52c2.21,1.73,5,3.44,7.67,2.58,1.17-.38,2.25-1.24,3.48-1.14a6.58,6.58,0,0,1,1.5.41,16.16,16.16,0,0,0,5.16.52l17.29-.13"/><path class="cls-7" d="M11.62,59.5a13.52,13.52,0,0,1,5.79-.29c.83.2,1.62.57,2.44.82a19.43,19.43,0,0,0,5.1.62,46.59,46.59,0,0,0,8.55-.24c2.22-.34,4.4-1,6.64-1.15,4.58-.32,9.13,1.49,13.7,1.07"/></g></g></g></svg>