<svg xmlns="http://www.w3.org/2000/svg" xmlns:xlink="http://www.w3.org/1999/xlink" viewBox="0 0 115.61 111.41"><defs><style>.cls-1{fill:none;}.cls-2{fill:#e2cf91;}.cls-3{fill:#fffef9;}.cls-4{fill:#7bafde;}.cls-5{clip-path:url(#clip-path);}.cls-6{fill:#eff9fe;}</style><clipPath id="clip-path"><path class="cls-1" d="M94.38,20.84c-2.24.27-5,3.46-7.6,11.44,0,2.29,1.32,17.07-3.34,23.7-1,10.44,2.89,36,4.18,46.67-26.31,21.77-60.69-2.24-61.67,2.13,1.27-10.56,3.11-38.54,2.13-48.84-5.2-7.12-4.91-24-4.91-24-2.57-7.75-5.28-10.88-7.49-11.14-5.49-.64,8.11-9.57,16.49-9.57h6.93A16.79,16.79,0,0,0,55,21.78c7.39,0,13.66-4.4,15.93-10.51h6.93C86.28,11.27,99.88,20.2,94.38,20.84Z"/></clipPath></defs><title>shirt</title><g id="Layer_2" data-name="Layer 2"><g id="Glavno_Besedilo" data-name="Glavno Besedilo"><path class="cls-2" d="M36,12.09,55,6.46l19,5.62L70.4,17.22a29.5,29.5,0,0,0-31.63-1Z"/><path class="cls-3" d="M60.25.18a.44.44,0,0,1-.14.87h0a4.71,4.71,0,0,0-4.71,4.71,4.77,4.77,0,0,0,0,.53.44.44,0,0,1-.85.23A4.76,4.76,0,0,1,60.25.18Z"/><path class="cls-4" d="M94.38,20.33c-2.24.27-5,3.46-7.6,11.44,0,2.29,1.32,17.07-3.34,23.7-1,10.44,2.89,36,4.18,46.67C61.32,123.91,26.94,99.91,26,104.27c1.27-10.56,3.11-38.54,2.13-48.84-5.2-7.12-4.91-24-4.91-24-2.57-7.75-5.28-10.88-7.49-11.14-5.49-.64,8.11-9.57,16.49-9.57h6.93A16.79,16.79,0,0,0,55,21.27c7.39,0,13.66-4.4,15.93-10.51h6.93C86.28,10.76,99.88,19.69,94.38,20.33Z"/><g class="cls-5"><rect class="cls-6" y="30.5" width="115.61" height="9.13"/><rect class="cls-6" y="43.86" width="115.61" height="9.13"/><rect class="cls-6" y="57.03" width="115.61" height="9.13"/><rect class="cls-6" y="70.2" width="115.61" height="9.13"/><rect class="cls-6" y="83.37" width="115.61" height="9.13"/><rect class="cls-6" y="96.53" width="115.61" height="9.13"/></g></g></g></svg>