<svg xmlns="http://www.w3.org/2000/svg" viewBox="0 0 61.04 96.05"><defs><style>.cls-1{fill:#85837d;}</style></defs><title>shower</title><g id="Layer_2" data-name="Layer 2"><g id="Glavno_Besedilo" data-name="Glavno Besedilo"><path class="cls-1" d="M33.24,19.21A13.68,13.68,0,0,1,47,5.62h2.5V0H47a19.33,19.33,0,0,0-19.4,19.21V29.54h5.67Z"/><path class="cls-1" d="M59.49,52.23H5.56a.34.34,0,1,1,0-.67H57.73c-1.08-8.81-9.14-16-19.84-18.33v-.09a2.72,2.72,0,0,0-2.72-2.7H26.1a2.72,2.72,0,0,0-2.72,2.7v.09C12.49,35.55,4.33,43,3.48,52H2.61a2.58,2.58,0,1,0,0,5.17H58.43a2.58,2.58,0,0,0,1.06-4.94Z"/><rect class="cls-1" x="8.08" y="87.85" width="2.17" height="4.41"/><rect class="cls-1" x="8.08" y="80.41" width="2.17" height="4.41"/><rect class="cls-1" x="8.08" y="72.97" width="2.17" height="4.41"/><rect class="cls-1" x="8.08" y="65.53" width="2.17" height="4.41"/><rect class="cls-1" x="8.08" y="58.09" width="2.17" height="4.41"/><rect class="cls-1" x="14.17" y="91.01" width="2.17" height="4.41"/><rect class="cls-1" x="14.17" y="83.57" width="2.17" height="4.41"/><rect class="cls-1" x="14.17" y="76.13" width="2.17" height="4.41"/><rect class="cls-1" x="14.17" y="68.69" width="2.17" height="4.41"/><rect class="cls-1" x="14.17" y="61.25" width="2.17" height="4.41"/><rect class="cls-1" x="20.52" y="87.85" width="2.17" height="4.41"/><rect class="cls-1" x="20.52" y="80.41" width="2.17" height="4.41"/><rect class="cls-1" x="20.52" y="72.98" width="2.17" height="4.41"/><rect class="cls-1" x="20.52" y="65.54" width="2.17" height="4.41"/><rect class="cls-1" x="20.52" y="58.1" width="2.17" height="4.41"/><rect class="cls-1" x="26.6" y="91.01" width="2.17" height="4.41"/><rect class="cls-1" x="26.6" y="83.57" width="2.17" height="4.41"/><rect class="cls-1" x="26.6" y="76.13" width="2.17" height="4.41"/><rect class="cls-1" x="26.6" y="68.69" width="2.17" height="4.41"/><rect class="cls-1" x="26.6" y="61.26" width="2.17" height="4.41"/><rect class="cls-1" x="32.77" y="88.47" width="2.17" height="4.41"/><rect class="cls-1" x="32.77" y="81.03" width="2.17" height="4.41"/><rect class="cls-1" x="32.77" y="73.59" width="2.17" height="4.41"/><rect class="cls-1" x="32.77" y="66.16" width="2.17" height="4.41"/><rect class="cls-1" x="32.77" y="58.72" width="2.17" height="4.41"/><rect class="cls-1" x="38.86" y="91.63" width="2.17" height="4.41"/><rect class="cls-1" x="38.86" y="84.19" width="2.17" height="4.41"/><rect class="cls-1" x="38.86" y="76.75" width="2.17" height="4.41"/><rect class="cls-1" x="38.86" y="69.31" width="2.17" height="4.41"/><rect class="cls-1" x="38.86" y="61.87" width="2.17" height="4.41"/><rect class="cls-1" x="45.21" y="88.48" width="2.17" height="4.41"/><rect class="cls-1" x="45.21" y="81.04" width="2.17" height="4.41"/><rect class="cls-1" x="45.21" y="73.6" width="2.17" height="4.41"/><rect class="cls-1" x="45.21" y="66.16" width="2.17" height="4.41"/><rect class="cls-1" x="45.21" y="58.72" width="2.17" height="4.41"/><rect class="cls-1" x="51.29" y="91.64" width="2.17" height="4.41"/><rect class="cls-1" x="51.29" y="84.2" width="2.17" height="4.41"/><rect class="cls-1" x="51.29" y="76.76" width="2.17" height="4.41"/><rect class="cls-1" x="51.29" y="69.32" width="2.17" height="4.41"/><rect class="cls-1" x="51.29" y="61.88" width="2.17" height="4.41"/></g></g></svg>