<svg xmlns="http://www.w3.org/2000/svg" viewBox="0 0 104 95"><defs><style>.cls-1{fill:#ffcf01;}</style></defs><title>sun</title><g id="Layer_2" data-name="Layer 2"><g id="Glavno_Besedilo" data-name="Glavno Besedilo"><ellipse class="cls-1" cx="52" cy="47.5" rx="24" ry="21.92"/><line class="cls-1" x1="52.33" y1="21.92" x2="52.33"/><path class="cls-1" d="M52.33,21.92a15.33,15.33,0,0,1-2.83-5.48A19.29,19.29,0,0,1,48.72,11a19,19,0,0,1,.77-5.48A15.19,15.19,0,0,1,52.33,0a15.19,15.19,0,0,1,2.84,5.48A19,19,0,0,1,55.95,11a19.29,19.29,0,0,1-.78,5.48A15.34,15.34,0,0,1,52.33,21.92Z"/><line class="cls-1" x1="72.03" y1="29.63" x2="89.01" y2="14.13"/><path class="cls-1" d="M72,29.63a16.38,16.38,0,0,1,2.33-6,21.15,21.15,0,0,1,3.72-4.45,20.85,20.85,0,0,1,4.76-3.31A16.21,16.21,0,0,1,89,14.13a16.22,16.22,0,0,1-2.33,6A20.87,20.87,0,0,1,83,24.55a21.15,21.15,0,0,1-4.77,3.3A16.38,16.38,0,0,1,72,29.63Z"/><line class="cls-1" x1="80" y1="47.8" x2="104" y2="47.8"/><path class="cls-1" d="M80,47.8A17.41,17.41,0,0,1,86,45a23,23,0,0,1,6-.78A22.67,22.67,0,0,1,98,45a17.24,17.24,0,0,1,6,2.84,17.26,17.26,0,0,1-6,2.84,22.69,22.69,0,0,1-6,.77,23,23,0,0,1-6-.78A17.43,17.43,0,0,1,80,47.8Z"/><line class="cls-1" x1="71.56" y1="65.8" x2="88.53" y2="81.3"/><path class="cls-1" d="M71.56,65.8a16.38,16.38,0,0,1,6.15,1.79,21.14,21.14,0,0,1,4.77,3.3,20.87,20.87,0,0,1,3.72,4.44,16.22,16.22,0,0,1,2.33,6,16.21,16.21,0,0,1-6.16-1.78,20.86,20.86,0,0,1-4.76-3.31,21.14,21.14,0,0,1-3.72-4.45A16.38,16.38,0,0,1,71.56,65.8Z"/><line class="cls-1" x1="51.67" y1="73.08" x2="51.67" y2="95"/><path class="cls-1" d="M51.67,73.08a15.33,15.33,0,0,1,2.83,5.48A19.29,19.29,0,0,1,55.28,84a19,19,0,0,1-.77,5.48A15.19,15.19,0,0,1,51.67,95a15.19,15.19,0,0,1-2.84-5.48A19,19,0,0,1,48.05,84a19.29,19.29,0,0,1,.78-5.48A15.34,15.34,0,0,1,51.67,73.08Z"/><line class="cls-1" x1="31.97" y1="65.37" x2="14.99" y2="80.87"/><path class="cls-1" d="M32,65.37a16.38,16.38,0,0,1-2.33,6,21.15,21.15,0,0,1-3.72,4.45,20.85,20.85,0,0,1-4.76,3.31A16.21,16.21,0,0,1,15,80.87a16.22,16.22,0,0,1,2.33-6A20.87,20.87,0,0,1,21,70.45a21.15,21.15,0,0,1,4.77-3.3A16.38,16.38,0,0,1,32,65.37Z"/><line class="cls-1" x1="24" y1="47.2" y2="47.2"/><path class="cls-1" d="M24,47.2A17.41,17.41,0,0,1,18,50a23,23,0,0,1-6,.78A22.67,22.67,0,0,1,6,50,17.24,17.24,0,0,1,0,47.2a17.26,17.26,0,0,1,6-2.84,22.69,22.69,0,0,1,6-.77,23,23,0,0,1,6,.78A17.43,17.43,0,0,1,24,47.2Z"/><line class="cls-1" x1="32.44" y1="29.2" x2="15.47" y2="13.7"/><path class="cls-1" d="M32.44,29.2a16.38,16.38,0,0,1-6.15-1.79,21.14,21.14,0,0,1-4.77-3.3,20.87,20.87,0,0,1-3.72-4.44,16.22,16.22,0,0,1-2.33-6,16.21,16.21,0,0,1,6.16,1.78,20.86,20.86,0,0,1,4.76,3.31,21.14,21.14,0,0,1,3.72,4.45A16.38,16.38,0,0,1,32.44,29.2Z"/></g></g></svg>