<svg xmlns="http://www.w3.org/2000/svg" viewBox="0 0 91.56 75.1"><defs><style>.cls-1{fill:#9b9892;}.cls-2,.cls-5{fill:#3b3a3e;}.cls-3{fill:#85837d;}.cls-4{fill:#c01823;}.cls-5{stroke:#3b3a3e;stroke-width:0.28px;}.cls-5,.cls-6{stroke-miterlimit:10;}.cls-6{fill:none;stroke:#fff;stroke-width:0.36px;}</style></defs><title>tv</title><g id="Layer_2" data-name="Layer 2"><g id="Glavno_Besedilo" data-name="Glavno Besedilo"><path d="M42.53.67l0,0h0Z"/><rect class="cls-1" y="14.5" width="91.56" height="60.6"/><rect class="cls-2" x="37.01" y="18.1" width="50.61" height="53.06"/><rect class="cls-3" x="4.64" y="18.27" width="23.14" height="53.06"/><rect class="cls-2" x="37.01" y="73.04" width="54.55" height="2.06"/><rect class="cls-4" x="79.15" y="73.04" width="12.41" height="2.06"/><line class="cls-5" x1="45.78" y1="14.5" x2="60.18" y2="0.1"/><line class="cls-5" x1="31.38" y1="0.1" x2="45.78" y2="14.5"/><polyline class="cls-6" points="37.16 24.61 39.96 28.97 42.76 24.61 45.56 28.97 48.36 24.61 51.16 28.97 53.97 24.61 56.77 28.97 59.58 24.61 62.38 28.97 65.19 24.61 67.99 28.97 70.8 24.61 73.6 28.97 76.41 24.61 79.21 28.97 82.02 24.61 84.83 28.97 87.64 24.61"/><polyline class="cls-6" points="37.16 29.68 39.96 34.04 42.76 29.68 45.56 34.04 48.36 29.68 51.16 34.04 53.97 29.68 56.77 34.04 59.58 29.68 62.38 34.04 65.19 29.68 67.99 34.04 70.8 29.68 73.6 34.04 76.41 29.68 79.21 34.04 82.02 29.68 84.83 34.04 87.64 29.68"/><polyline class="cls-6" points="37.16 34.74 39.96 39.1 42.76 34.74 45.56 39.1 48.36 34.74 51.16 39.1 53.97 34.74 56.77 39.1 59.58 34.74 62.38 39.1 65.19 34.74 67.99 39.1 70.8 34.74 73.6 39.1 76.41 34.74 79.21 39.1 82.02 34.74 84.83 39.1 87.64 34.74"/><polyline class="cls-6" points="37.16 39.81 39.96 44.17 42.76 39.81 45.56 44.17 48.36 39.81 51.16 44.17 53.97 39.81 56.77 44.17 59.58 39.81 62.38 44.17 65.19 39.81 67.99 44.17 70.8 39.81 73.6 44.17 76.41 39.81 79.21 44.17 82.02 39.81 84.83 44.17 87.64 39.81"/><polyline class="cls-6" points="37.16 44.87 39.96 49.23 42.76 44.87 45.56 49.23 48.36 44.87 51.16 49.23 53.97 44.87 56.77 49.23 59.58 44.87 62.38 49.23 65.19 44.87 67.99 49.23 70.8 44.87 73.6 49.23 76.41 44.87 79.21 49.23 82.02 44.87 84.83 49.23 87.64 44.87"/><polyline class="cls-6" points="37.16 49.94 39.96 54.3 42.76 49.94 45.56 54.3 48.36 49.94 51.16 54.3 53.97 49.94 56.77 54.3 59.58 49.94 62.38 54.3 65.19 49.94 67.99 54.3 70.8 49.94 73.6 54.3 76.41 49.94 79.21 54.3 82.02 49.94 84.83 54.3 87.64 49.94"/><polyline class="cls-6" points="37.16 55 39.96 59.36 42.76 55 45.56 59.36 48.36 55 51.16 59.36 53.97 55 56.77 59.36 59.58 55 62.38 59.36 65.19 55 67.99 59.36 70.8 55 73.6 59.36 76.41 55 79.21 59.36 82.02 55 84.83 59.36 87.64 55"/></g></g></svg>