<svg xmlns="http://www.w3.org/2000/svg" viewBox="0 0 277.84 656.53"><defs><style>.cls-1{fill:#dce6e0;}.cls-2{fill:#fbc5aa;}.cls-3{fill:#d8dcec;}.cls-4,.cls-5{fill:#00a881;}.cls-5{stroke:#489086;stroke-width:0.95px;}.cls-14,.cls-15,.cls-5{stroke-miterlimit:10;}.cls-6{fill:#007dac;}.cls-14,.cls-15,.cls-7{fill:#eed1bf;}.cls-8{fill:#44515c;}.cls-9{fill:#489086;}.cls-10{fill:#ffebc6;}.cls-11{fill:#fff;}.cls-12{fill:#514835;}.cls-13{fill:#ebaf82;}.cls-14{stroke:#ebaf82;stroke-width:1.15px;}.cls-15{stroke:#ffe6b4;stroke-width:2.89px;}.cls-16{fill:#5a3b34;}.cls-17{fill:#d55225;}</style></defs><g id="Layer_2" data-name="Layer 2"><g id="Avatar"><ellipse class="cls-1" cx="138.92" cy="640.69" rx="138.92" ry="15.83"/><path class="cls-2" d="M109.27,137.1s15.63-1.17,16.35-20H164s1.58,24.55,19.88,20l-1.66,14.1-37.39,14.89-32.47-8.71-7.92-15.76Z"/><path class="cls-3" d="M259.18,348.6l-48.77-2.13v-157s11.28-65,28.6-29.73Q253.41,258.5,259.18,348.6Z"/><path class="cls-3" d="M34.27,348.6,83,346.47v-157s-11.28-65-28.6-29.73Q40,258.5,34.27,348.6Z"/><path class="cls-4" d="M200.25,137.1H184c-5.33,13.79-20,23.71-37.3,23.71s-32-9.92-37.31-23.71H93.2c-19.65,0-51.49,20.13-38.64,21.59C60,159.3,66.68,167,72.92,186.2V359.06H220.53V186.2c6.24-19.25,12.94-26.9,18.36-27.51C251.74,157.23,219.9,137.1,200.25,137.1Z"/><line class="cls-5" x1="146.73" y1="359.06" x2="146.73" y2="160.81"/><rect class="cls-6" x="72.92" y="359.06" width="147.48" height="49.8"/><polygon class="cls-6" points="146.73 408.5 122.34 618.99 94.45 618.99 72.92 408.5 146.73 408.5"/><polygon class="cls-6" points="220.4 408.5 196.14 618.99 168.41 618.99 146.99 408.5 220.4 408.5"/><path class="cls-7" d="M48.6,347.94s-5.53,43.56,24.32,47.93v-49Z"/><path class="cls-7" d="M244.72,348s5.53,43.56-24.32,47.93v-49Z"/><path class="cls-8" d="M168.41,619v21.54h72.08s9.51-21.59-34-17.55c0,0-10.59-1.88-9.28-14.22"/><path class="cls-8" d="M122.23,619v21.54H50.15s-9.51-21.59,34-17.55c0,0,10.59-1.88,9.27-14.22"/><circle class="cls-9" cx="159.1" cy="197.3" r="3.72"/><circle class="cls-9" cx="134.74" cy="197.3" r="3.72"/><circle class="cls-9" cx="159.1" cy="225.35" r="3.72"/><circle class="cls-9" cx="134.74" cy="225.35" r="3.72"/><circle class="cls-9" cx="159.1" cy="253.39" r="3.72"/><circle class="cls-9" cx="134.74" cy="253.39" r="3.72"/><circle class="cls-9" cx="159.1" cy="281.43" r="3.72"/><circle class="cls-9" cx="134.74" cy="281.43" r="3.72"/><circle class="cls-9" cx="159.1" cy="309.47" r="3.72"/><circle class="cls-9" cx="134.74" cy="309.47" r="3.72"/><path class="cls-7" d="M94.51,47.61s-11.5-3.22-8.15,14,8.15,27.87,8.15,27.87Z"/><path class="cls-7" d="M137,0h9.66a44.43,44.43,0,0,1,44.43,44.43v35a49.26,49.26,0,0,1-49.26,49.26h0A49.26,49.26,0,0,1,92.59,79.41v-35A44.43,44.43,0,0,1,137,0Z"/><path class="cls-10" d="M100.19,59.16S101.71,82.87,124,93.1H162s22.66-21.95,22.66-33.94l6.48,1.51s3.4,15.18,1.4,30.87a64.91,64.91,0,0,1-1.22,6.72,39.64,39.64,0,0,1-1.16,5.64,32.9,32.9,0,0,1-1.95,5.13,35.78,35.78,0,0,1-2.67,4.52,30.27,30.27,0,0,1-3.45,4.06,49.52,49.52,0,0,1-5.81,7.69,41.21,41.21,0,0,1-3.68,4.5c-5.82,6-12.4,11-20.1,13.16a29.05,29.05,0,0,1-4.76.94,14.33,14.33,0,0,1-9.82-1.72c-9.81-8.66-19-16.16-31-19.61a33,33,0,0,1-3.44-2.68,39.26,39.26,0,0,1-3.11-3.08,40.77,40.77,0,0,1-2.62-4,43.18,43.18,0,0,1-3.87-8.9c-.41-1.51-.74-3.05-1-4.6a68.74,68.74,0,0,1-.7-18.62C92,78.44,92,76.14,92,74c.13-6.58.88-12.18,3-13.28C100.58,57.74,100.19,59.16,100.19,59.16Z"/><path class="cls-11" d="M131.2,55.68c.09-7.57-23.45-7.86-23.54-.28C107.57,62.24,131.11,62.52,131.2,55.68Z"/><path class="cls-11" d="M178.51,55.68c.09-7.57-23.45-7.86-23.54-.28C154.89,62.24,178.43,62.52,178.51,55.68Z"/><circle class="cls-12" cx="118.69" cy="55.26" r="3.89"/><circle class="cls-12" cx="166.74" cy="55.26" r="3.89"/><path class="cls-13" d="M106.19,55.84s10-10.05,27.7,0C133.89,55.84,118.5,38.82,106.19,55.84Z"/><path class="cls-13" d="M153.33,55.84s10-10.05,27.69,0C181,55.84,165.63,38.82,153.33,55.84Z"/><path class="cls-10" d="M133.53,82.6c-5.25,2.49-8.27,6.06-9.5,10.5H162c-1.32-4.07-4.77-7.52-9.9-10.5Z"/><path class="cls-14" d="M137.69,82.51s8,4,10.64.58c1.14-1.49-5-31.36-3-30.73"/><path class="cls-15" d="M108.64,46.27s8.33-9.13,26.4,0"/><path class="cls-15" d="M154.62,47.37s8.33-9.12,26.4,0"/><path class="cls-16" d="M162,93.1A20.56,20.56,0,0,1,154.62,104c-1.38-6.86-26.65-4.2-26.73-4.19A26.46,26.46,0,0,1,124,93.1Z"/><path class="cls-17" d="M154.62,104h0a19,19,0,0,1-10.44,3.6c-7.92.47-13.15-3.77-16.29-7.79C128,99.81,153.24,97.15,154.62,104Z"/><polygon class="cls-16" points="127.89 99.82 127.89 99.82 127.89 99.82 127.89 99.82"/><path class="cls-7" d="M190.23,49s10.72-3,7.6,13.06-7.6,26-7.6,26Z"/><polygon class="cls-11" points="124.03 93.1 125.11 95.49 161.16 95.49 161.97 93.1 124.03 93.1"/></g></g></svg>