<svg xmlns="http://www.w3.org/2000/svg" viewBox="0 0 277.84 609.42"><defs><style>.cls-1{fill:#fcc5aa;}.cls-2{fill:#dce6e0;}.cls-3{fill:#d9dceb;}.cls-4{fill:#00a881;}.cls-5{fill:none;stroke:#499086;stroke-miterlimit:10;stroke-width:0.95px;}.cls-6{fill:#017dad;}.cls-7{fill:#eed1bf;}.cls-8{fill:#44515d;}.cls-9{fill:#499086;}.cls-10{fill:#ffebc6;}.cls-11{fill:#fff;}.cls-12{fill:#524935;}.cls-13{fill:#ebaf88;}.cls-14{fill:#ffe6b4;}.cls-15{fill:#301812;}.cls-16{fill:#d55227;}</style></defs><g id="Layer_2" data-name="Layer 2"><g id="Layer_1-2" data-name="Layer 1"><path id="Vrat" class="cls-1" d="M184,133.2l-.21.53c-5.49,13.54-20,23.2-37.1,23.2-17.29,0-32-9.91-37.3-23.71h-.15a18.31,18.31,0,0,0,12.53-7.4,18,18,0,0,0,2-3.72,25.58,25.58,0,0,0,1.79-8.83H164a36.91,36.91,0,0,0,1.89,8.82c1.18,3.37,3.09,6.95,6.14,9.24C174.87,133.49,178.86,134.5,184,133.2Z"/><ellipse class="cls-2" cx="138.92" cy="593.59" rx="138.92" ry="15.83"/><path class="cls-3" d="M259.18,344.73l-48.77-2.13v-157s11.28-65,28.6-29.73Q253.41,254.61,259.18,344.73Z"/><path class="cls-3" d="M34.27,344.73,83,342.6v-157s-11.28-65-28.6-29.73Q40,254.61,34.27,344.73Z"/><path id="Pulover" class="cls-4" d="M238.89,154.79l-.41.06c-5.35.94-11.87,8.69-17.95,27.46V355.16H72.92V182.31c-6.09-18.77-12.6-26.52-18-27.46l-.41-.06c-12.85-1.45,19-21.59,38.64-21.59h16.22c5.33,13.8,20,23.71,37.3,23.71,17.08,0,31.61-9.66,37.1-23.2.08-.17.14-.34.21-.51h16.22C219.9,133.2,251.74,153.34,238.89,154.79Z"/><line id="Zadrga" class="cls-5" x1="146.73" y1="355.18" x2="146.73" y2="156.93"/><polygon id="Hlace" class="cls-6" points="220.4 354.81 220.4 393.85 197.23 563.87 168.41 571.88 146.99 393.85 146.73 393.85 122.34 571.88 122.23 571.88 93.48 563.89 72.92 393.85 72.92 354.81 220.4 354.81"/><path id="Koza" class="cls-7" d="M48.6,344.06S43.07,387.62,72.92,392V343Z"/><path id="Koza-2" data-name="Koza" class="cls-7" d="M244.72,344.12s5.53,43.56-24.32,47.94v-49Z"/><path class="cls-8" d="M240.49,593.43H168.41V571.88l28.82-10.22s0,.05,0,.08c-1.25,12.27,9.29,14.13,9.29,14.13C250,571.83,240.49,593.43,240.49,593.43Z"/><path class="cls-8" d="M122.23,571.88v21.55H50.15s-9.51-21.6,34-17.56c0,0,10.59-1.87,9.27-14.21l.08,0Z"/><circle id="Gumb" class="cls-9" cx="159.1" cy="193.43" r="3.72"/><circle id="Gumb-2" data-name="Gumb" class="cls-9" cx="134.74" cy="193.43" r="3.72"/><circle id="Gumb-3" data-name="Gumb" class="cls-9" cx="159.1" cy="221.47" r="3.72"/><circle id="Gumb-4" data-name="Gumb" class="cls-9" cx="134.74" cy="221.47" r="3.72"/><circle id="Gumb-5" data-name="Gumb" class="cls-9" cx="159.1" cy="249.51" r="3.72"/><circle id="Gumb-6" data-name="Gumb" class="cls-9" cx="134.74" cy="249.51" r="3.72"/><circle id="Gumb-7" data-name="Gumb" class="cls-9" cx="159.1" cy="277.55" r="3.72"/><circle id="Gumb-8" data-name="Gumb" class="cls-9" cx="134.74" cy="277.55" r="3.72"/><circle id="Gumb-9" data-name="Gumb" class="cls-9" cx="159.1" cy="305.59" r="3.72"/><circle id="Gumb-10" data-name="Gumb" class="cls-9" cx="134.74" cy="305.59" r="3.72"/><path id="Koza-3" data-name="Koza" class="cls-7" d="M202.41,62.06A133.55,133.55,0,0,1,195,87.63a49.25,49.25,0,0,1-97.41-1.91A155.45,155.45,0,0,1,90.94,61.6c-2.46-12.67,3.11-14.27,6.23-14.23V44.43A44.43,44.43,0,0,1,141.6,0h9.66a44.43,44.43,0,0,1,44.43,44.43v4.42C198.18,48.55,205,48.86,202.41,62.06Z"/><path id="Brki" class="cls-10" d="M156.9,86.65s18.19,4.35,15.56,23.4-24,18.57-24,18.57-25.42,1.47-26.06-18.57S135,87.56,138.11,86.65Z"/><path class="cls-11" d="M135.77,55.68c.09-7.58-23.45-7.86-23.54-.29C112.15,62.23,135.69,62.52,135.77,55.68Z"/><path class="cls-11" d="M183.09,55.68c.09-7.58-23.45-7.86-23.54-.29C159.46,62.23,183,62.52,183.09,55.68Z"/><circle class="cls-12" cx="123.27" cy="55.26" r="3.89"/><circle class="cls-12" cx="171.32" cy="55.26" r="3.89"/><path id="Oci" class="cls-13" d="M110.77,55.84s10-10.05,27.69,0C138.46,55.84,123.08,38.82,110.77,55.84Z"/><path id="Oci-2" data-name="Oci" class="cls-13" d="M157.9,55.84s10-10.05,27.7,0C185.6,55.84,170.21,38.82,157.9,55.84Z"/><path class="cls-7" d="M149.92,52.35l-.4,1.56C149.5,52.84,149.62,52.26,149.92,52.35Z"/><path id="Nos" class="cls-13" d="M149.45,85.06A19.53,19.53,0,0,1,142,83l.52-1c2.11,1.06,8,3.28,9.92.75.32-.84-.77-8-1.64-13.82-1.86-12.29-2.3-16.23-1.44-17a.75.75,0,0,1,.72-.15l-.35,1.11a.41.41,0,0,0,.44-.16c-.5,1,.81,9.68,1.77,16,1.61,10.7,2,13.92,1.42,14.69A4.65,4.65,0,0,1,149.45,85.06Z"/><g id="Obrve"><path class="cls-14" d="M139,47.55c-16.77-8.46-24.37-.65-24.69-.31l-2.12-2c.36-.41,9.27-9.82,28.11-.32Z"/></g><g id="Obrve-2" data-name="Obrve"><g id="Obrve-3" data-name="Obrve"><path id="Obrve-4" data-name="Obrve" class="cls-14" d="M185,48.65c-16.9-8.52-24.61-.39-24.68-.31l-2.14-2c.37-.4,9.28-9.82,28.12-.31Z"/></g></g><path class="cls-15" d="M166.55,93.1c-.09,0-1.53,6.58-7.35,10.9-1.38-6.86-26.65-4.19-26.74-4.18a31.51,31.51,0,0,1-3.85-6.72Z"/><path class="cls-16" d="M159.2,104h0a19.09,19.09,0,0,1-10.44,3.61c-7.93.47-13.15-3.77-16.3-7.79C132.55,99.81,157.82,97.14,159.2,104Z"/><polygon class="cls-15" points="132.46 99.82 132.46 99.82 132.46 99.82 132.46 99.82"/><polygon class="cls-11" points="128.61 93.1 129.69 95.48 165.74 95.48 166.55 93.1 128.61 93.1"/></g></g></svg>