<svg xmlns="http://www.w3.org/2000/svg" viewBox="0 0 277.84 654.53"><defs><style>.cls-1{fill:#dce6e0;}.cls-2{fill:#fbc5aa;}.cls-3{fill:#d8dcec;}.cls-4,.cls-5{fill:#00a881;}.cls-5{stroke:#489086;stroke-width:0.95px;}.cls-13,.cls-14,.cls-5{stroke-miterlimit:10;}.cls-6{fill:#007dac;}.cls-13,.cls-14,.cls-7{fill:#eed1bf;}.cls-8{fill:#44515c;}.cls-9{fill:#489086;}.cls-10{fill:#fff;}.cls-11{fill:#514835;}.cls-12{fill:#ebaf82;}.cls-13{stroke:#ebaf82;stroke-width:1.15px;}.cls-14{stroke:#ffe6b4;stroke-width:2.89px;}.cls-15{fill:#5a3b34;}.cls-16{fill:#d55225;}</style></defs><g id="Layer_2" data-name="Layer 2"><g id="Avatar"><ellipse class="cls-1" cx="138.92" cy="638.69" rx="138.92" ry="15.83"/><path class="cls-2" d="M109.27,135.1s15.63-1.17,16.35-20H164s1.58,24.55,19.88,20l-1.66,14.1-37.39,14.89-32.47-8.71-7.92-15.76Z"/><path class="cls-3" d="M259.18,346.6l-48.77-2.13v-157s11.28-65,28.6-29.73Q253.41,256.5,259.18,346.6Z"/><path class="cls-3" d="M34.27,346.6,83,344.47v-157s-11.28-65-28.6-29.73Q40,256.5,34.27,346.6Z"/><path class="cls-4" d="M200.25,135.1H184c-5.33,13.79-20,23.71-37.3,23.71s-32-9.92-37.31-23.71H93.2c-19.65,0-51.49,20.13-38.64,21.59C60,157.3,66.68,165,72.92,184.2V357.06H220.53V184.2c6.24-19.25,12.94-26.9,18.36-27.51C251.74,155.23,219.9,135.1,200.25,135.1Z"/><line class="cls-5" x1="146.73" y1="357.06" x2="146.73" y2="158.81"/><rect class="cls-6" x="72.92" y="357.06" width="147.48" height="49.8"/><polygon class="cls-6" points="146.73 406.5 122.34 616.99 94.45 616.99 72.92 406.5 146.73 406.5"/><polygon class="cls-6" points="220.4 406.5 196.14 616.99 168.41 616.99 146.99 406.5 220.4 406.5"/><path class="cls-7" d="M48.6,345.94s-5.53,43.56,24.32,47.93v-49Z"/><path class="cls-7" d="M244.72,346s5.53,43.56-24.32,47.93v-49Z"/><path class="cls-8" d="M168.41,617v21.54h72.08s9.51-21.59-34-17.55c0,0-10.59-1.88-9.28-14.22"/><path class="cls-8" d="M122.23,617v21.54H50.15s-9.51-21.59,34-17.55c0,0,10.59-1.88,9.27-14.22"/><circle class="cls-9" cx="159.1" cy="195.3" r="3.72"/><circle class="cls-9" cx="134.74" cy="195.3" r="3.72"/><circle class="cls-9" cx="159.1" cy="223.35" r="3.72"/><circle class="cls-9" cx="134.74" cy="223.35" r="3.72"/><circle class="cls-9" cx="159.1" cy="251.39" r="3.72"/><circle class="cls-9" cx="134.74" cy="251.39" r="3.72"/><circle class="cls-9" cx="159.1" cy="279.43" r="3.72"/><circle class="cls-9" cx="134.74" cy="279.43" r="3.72"/><circle class="cls-9" cx="159.1" cy="307.47" r="3.72"/><circle class="cls-9" cx="134.74" cy="307.47" r="3.72"/><path class="cls-7" d="M97.51,47.61s-11.5-3.22-8.15,14,8.15,27.87,8.15,27.87Z"/><path class="cls-7" d="M140,0h9.66a44.43,44.43,0,0,1,44.43,44.43v35a49.26,49.26,0,0,1-49.26,49.26h0A49.26,49.26,0,0,1,95.59,79.41v-35A44.43,44.43,0,0,1,140,0Z"/><path class="cls-10" d="M134.2,55.68c.09-7.57-23.45-7.86-23.54-.28C110.57,62.24,134.11,62.52,134.2,55.68Z"/><path class="cls-10" d="M181.51,55.68c.09-7.57-23.45-7.86-23.54-.28C157.89,62.24,181.43,62.52,181.51,55.68Z"/><circle class="cls-11" cx="121.69" cy="55.26" r="3.89"/><circle class="cls-11" cx="169.74" cy="55.26" r="3.89"/><path class="cls-12" d="M109.19,55.84s10-10.05,27.7,0C136.89,55.84,121.5,38.82,109.19,55.84Z"/><path class="cls-12" d="M156.33,55.84s10-10.05,27.69,0C184,55.84,168.63,38.82,156.33,55.84Z"/><path class="cls-13" d="M140.69,82.51s8,4,10.64.58c1.14-1.49-5-31.36-3-30.73"/><path class="cls-14" d="M111.64,46.27s8.33-9.13,26.4,0"/><path class="cls-14" d="M157.62,47.37s8.33-9.12,26.4,0"/><path class="cls-7" d="M193.23,49s10.72-3,7.6,13.06-7.6,26-7.6,26Z"/><path class="cls-15" d="M165,93.1A20.56,20.56,0,0,1,157.62,104c-1.38-6.86-26.65-4.2-26.73-4.19A26.46,26.46,0,0,1,127,93.1Z"/><path class="cls-16" d="M157.62,104h0a19,19,0,0,1-10.44,3.6c-7.92.47-13.15-3.77-16.29-7.79C131,99.81,156.24,97.15,157.62,104Z"/><polygon class="cls-15" points="130.89 99.82 130.89 99.82 130.89 99.82 130.89 99.82"/><polygon class="cls-10" points="127.03 93.1 128.11 95.49 164.16 95.49 164.97 93.1 127.03 93.1"/></g></g></svg>