<svg xmlns="http://www.w3.org/2000/svg" xmlns:xlink="http://www.w3.org/1999/xlink" viewBox="0 0 277.84 712.32"><defs><style>.cls-1,.cls-7{fill:none;stroke-miterlimit:10;}.cls-1{stroke:#00a881;stroke-width:5.67px;}.cls-2{clip-path:url(#clip-path);}.cls-3{fill:#fcc5aa;}.cls-4{fill:#dce6e0;}.cls-5{fill:#d9dceb;}.cls-6{fill:#00a881;}.cls-7{stroke:#499086;stroke-width:0.95px;}.cls-8{fill:#017dad;}.cls-9{fill:#eed1bf;}.cls-10{fill:#44515d;}.cls-11{fill:#499086;}.cls-12{fill:#ffebc6;}.cls-13{fill:#fff;}.cls-14{fill:#524935;}.cls-15{fill:#ebaf88;}.cls-16{fill:#ffe6b4;}.cls-17{fill:#301812;}.cls-18{fill:#d55227;}</style><clipPath id="clip-path" transform="translate(35.04)"><circle id="Krog" class="cls-1" cx="111.83" cy="111.83" r="109"/></clipPath></defs><g id="Layer_2" data-name="Layer 2"><g id="Layer_1-2" data-name="Layer 1"><g class="cls-2"><path id="Vrat" class="cls-3" d="M149,175.87l-.21.53c-5.49,13.54-20,23.2-37.1,23.2-17.29,0-32-9.91-37.3-23.71h-.15a18.31,18.31,0,0,0,12.53-7.4,18,18,0,0,0,2-3.72,25.58,25.58,0,0,0,1.79-8.83H129a36.91,36.91,0,0,0,1.89,8.82c1.18,3.37,3.09,7,6.14,9.24C139.83,176.16,143.82,177.17,149,175.87Z" transform="translate(35.04)"/><ellipse class="cls-4" cx="138.92" cy="696.49" rx="138.92" ry="15.83"/><path class="cls-5" d="M224.14,387.39l-48.77-2.12v-157s11.27-65,28.6-29.73Q218.37,297.28,224.14,387.39Z" transform="translate(35.04)"/><path class="cls-5" d="M-.78,387.39,48,385.27v-157s-11.28-65-28.61-29.73Q5,297.28-.78,387.39Z" transform="translate(35.04)"/><path id="Pulover" class="cls-6" d="M203.85,197.46l-.41.06c-5.35.94-11.87,8.69-17.95,27.46V397.83H37.88V225c-6.09-18.77-12.6-26.52-18-27.46l-.41-.06c-12.85-1.45,19-21.59,38.64-21.59H74.38c5.33,13.8,20,23.71,37.3,23.71,17.08,0,31.61-9.66,37.1-23.2.08-.17.14-.34.21-.51h16.22C184.86,175.87,216.7,196,203.85,197.46Z" transform="translate(35.04)"/><line id="Zadrga" class="cls-7" x1="146.73" y1="397.85" x2="146.73" y2="199.6"/><polygon id="Hlace" class="cls-8" points="220.4 397.85 220.4 447.66 197.23 664.56 168.41 674.78 146.99 447.66 146.73 447.66 122.34 674.78 122.23 674.78 93.48 664.59 72.92 447.66 72.92 397.85 220.4 397.85"/><path id="Koza" class="cls-9" d="M13.56,386.73S8,430.29,37.88,434.67v-49Z" transform="translate(35.04)"/><path id="Koza-2" data-name="Koza" class="cls-9" d="M209.68,386.79s5.53,43.56-24.32,47.93v-49Z" transform="translate(35.04)"/><path class="cls-10" d="M205.45,696.33H133.37V674.78l28.82-10.22s0,.05,0,.08c-1.25,12.27,9.29,14.13,9.29,14.13C215,674.73,205.45,696.33,205.45,696.33Z" transform="translate(35.04)"/><path class="cls-10" d="M87.19,674.78v21.55H15.11s-9.51-21.6,34-17.56c0,0,10.59-1.87,9.27-14.21l.08,0Z" transform="translate(35.04)"/><circle id="Gumb" class="cls-11" cx="159.1" cy="236.1" r="3.72"/><circle id="Gumb-2" data-name="Gumb" class="cls-11" cx="134.74" cy="236.1" r="3.72"/><circle id="Gumb-3" data-name="Gumb" class="cls-11" cx="159.1" cy="264.14" r="3.72"/><circle id="Gumb-4" data-name="Gumb" class="cls-11" cx="134.74" cy="264.14" r="3.72"/><circle id="Gumb-5" data-name="Gumb" class="cls-11" cx="159.1" cy="292.18" r="3.72"/><circle id="Gumb-6" data-name="Gumb" class="cls-11" cx="134.74" cy="292.18" r="3.72"/><circle id="Gumb-7" data-name="Gumb" class="cls-11" cx="159.1" cy="320.22" r="3.72"/><circle id="Gumb-8" data-name="Gumb" class="cls-11" cx="134.74" cy="320.22" r="3.72"/><circle id="Gumb-9" data-name="Gumb" class="cls-11" cx="159.1" cy="348.26" r="3.72"/><circle id="Gumb-10" data-name="Gumb" class="cls-11" cx="134.74" cy="348.26" r="3.72"/><path id="Koza-3" data-name="Koza" class="cls-9" d="M168.41,102.73A133.55,133.55,0,0,1,161,128.3a49.25,49.25,0,0,1-97.41-1.91,155.45,155.45,0,0,1-6.64-24.12C54.48,89.6,60.05,88,63.17,88V85.1A44.43,44.43,0,0,1,107.6,40.67h9.66A44.43,44.43,0,0,1,161.69,85.1v4.42C164.18,89.22,171,89.53,168.41,102.73Z" transform="translate(35.04)"/><path id="Brada" class="cls-12" d="M163.71,120.93a84.45,84.45,0,0,1-.63,11.28,62.13,62.13,0,0,1-1.21,6.71,39.35,39.35,0,0,1-1.16,5.64,32.64,32.64,0,0,1-2,5.14,35.78,35.78,0,0,1-2.67,4.52,30.91,30.91,0,0,1-3.45,4.06c-.85,1.37-1.75,2.71-2.72,4a47.51,47.51,0,0,1-3.09,3.69,40.28,40.28,0,0,1-3.68,4.5q-1.72,1.77-3.54,3.41c-4.92,4.45-10.38,8-16.56,9.76a31.32,31.32,0,0,1-4.76.94,14.39,14.39,0,0,1-9.82-1.72c-6.31-5.57-12.37-10.65-19.09-14.49a54,54,0,0,0-11.95-5.12A36,36,0,0,1,74,160.56a41.17,41.17,0,0,1-3.12-3.08,41.47,41.47,0,0,1-2.61-4,43.1,43.1,0,0,1-3.87-8.89c-.41-1.52-.74-3-1-4.61a67.93,67.93,0,0,1-.86-16.61c0-.67.09-1.34.16-2-.07-2.28-.1-4.58-.06-6.77.13-6.57.88-12.17,3-13.27,3.29-1.73,4.5-2,4.94-1.83a.32.32,0,0,1,.23.14h0a.25.25,0,0,1,0,.16s1.52,23.72,23.84,34h37.94s22.66-22,22.66-34l5.68,1.33.8.19A102.54,102.54,0,0,1,163.71,120.93Z" transform="translate(35.04)"/><path class="cls-13" d="M101.78,96.34c.09-7.57-23.45-7.86-23.55-.28C78.15,102.9,101.69,103.19,101.78,96.34Z" transform="translate(35.04)"/><path class="cls-13" d="M149.09,96.34c.09-7.57-23.45-7.86-23.54-.28C125.47,102.9,149,103.19,149.09,96.34Z" transform="translate(35.04)"/><circle class="cls-14" cx="124.32" cy="95.93" r="3.89"/><circle class="cls-14" cx="172.36" cy="95.93" r="3.89"/><path id="Oci" class="cls-15" d="M76.77,96.5s10-10,27.7,0C104.47,96.5,89.08,79.49,76.77,96.5Z" transform="translate(35.04)"/><path id="Oci-2" data-name="Oci" class="cls-15" d="M123.9,96.5s10-10,27.7,0C151.6,96.5,136.21,79.49,123.9,96.5Z" transform="translate(35.04)"/><path id="Brki" class="cls-12" d="M132.55,133.76H94.61c1.23-4.43,4.25-8,9.5-10.49h4.36c1.25.59,8.06,3.63,10.44.49a1.07,1.07,0,0,0,.12-.49h3.62C127.78,126.24,131.23,129.7,132.55,133.76Z" transform="translate(35.04)"/><path class="cls-9" d="M115.92,93l-.4,1.56C115.5,93.51,115.62,92.93,115.92,93Z" transform="translate(35.04)"/><path id="Nos" class="cls-15" d="M115.45,125.73c-3.34,0-7.2-1.93-7.44-2l.52-1c2.11,1.06,8,3.27,9.92.75.32-.85-.77-8-1.64-13.82-1.86-12.29-2.3-16.23-1.43-17a.71.71,0,0,1,.71-.15l-.34,1.1a.4.4,0,0,0,.44-.15c-.51,1,.8,9.67,1.76,16,1.62,10.7,2,13.93,1.42,14.69A4.66,4.66,0,0,1,115.45,125.73Z" transform="translate(35.04)"/><g id="Obrve"><path class="cls-16" d="M105,88.22c-16.77-8.47-24.37-.65-24.69-.31l-2.12-2c.37-.41,9.28-9.83,28.11-.32Z" transform="translate(35.04)"/></g><g id="Obrve-2" data-name="Obrve"><g id="Obrve-3" data-name="Obrve"><path id="Obrve-4" data-name="Obrve" class="cls-16" d="M151,89.32c-16.9-8.53-24.61-.4-24.68-.31l-2.13-2c.37-.4,9.28-9.82,28.11-.31Z" transform="translate(35.04)"/></g></g><path class="cls-17" d="M132.55,133.76a21.61,21.61,0,0,1-7.35,10.91c-1.38-6.86-26.65-4.2-26.73-4.18a31.5,31.5,0,0,1-3.86-6.73Z" transform="translate(35.04)"/><path class="cls-18" d="M125.2,144.67h0a19.11,19.11,0,0,1-10.44,3.61c-7.92.46-13.15-3.78-16.29-7.79C98.55,140.47,123.82,137.81,125.2,144.67Z" transform="translate(35.04)"/><polygon class="cls-17" points="133.51 140.49 133.51 140.49 133.51 140.49 133.51 140.49"/><polygon class="cls-13" points="129.65 133.76 130.73 136.15 166.78 136.15 167.59 133.76 129.65 133.76"/><path id="Lasje" class="cls-12" d="M169.7,194.46s-5.66-1.24-9.72-14c-9.94-9.12-23.68-16.13-23.68-16.13,8.47-5,15.74-16.51,19.75-23.87.15-6,.53-12.67,1.19-20.06,6.1-68.52-42.12-48.7-44.18-48.56h0c-2-.14-50.21-20-44.11,48.56.66,7.35,1,14,1.19,19.94,5.48,9.14,17.16,22.42,17.16,22.42C81.5,159,73.72,167.05,67.43,176c-4,16.94-10.94,18.45-10.94,18.45S27.72,22.54,113.1,29.41C198.47,22.55,169.7,194.46,169.7,194.46Z" transform="translate(35.04)"/></g><circle id="Krog-2" data-name="Krog" class="cls-1" cx="146.88" cy="111.83" r="109"/></g></g></svg>