<svg xmlns="http://www.w3.org/2000/svg" xmlns:xlink="http://www.w3.org/1999/xlink" viewBox="0 0 277.84 712.32"><defs><style>.cls-1,.cls-7{fill:none;stroke-miterlimit:10;}.cls-1{stroke:#00a881;stroke-width:5.67px;}.cls-2{clip-path:url(#clip-path);}.cls-3{fill:#fcc5aa;}.cls-4{fill:#dce6e0;}.cls-5{fill:#d9dceb;}.cls-6{fill:#00a881;}.cls-7{stroke:#499086;stroke-width:0.95px;}.cls-8{fill:#017dad;}.cls-9{fill:#eed1bf;}.cls-10{fill:#44515d;}.cls-11{fill:#499086;}.cls-12{fill:#ffebc6;}.cls-13{fill:#fff;}.cls-14{fill:#524935;}.cls-15{fill:#ebaf88;}.cls-16{fill:#ffe6b4;}.cls-17{fill:#301812;}.cls-18{fill:#d55227;}</style><clipPath id="clip-path" transform="translate(35.86)"><circle id="Krog" class="cls-1" cx="111.83" cy="111.83" r="109"/></clipPath></defs><g id="Layer_2" data-name="Layer 2"><g id="Layer_1-2" data-name="Layer 1"><g class="cls-2"><path id="Vrat" class="cls-3" d="M148.17,175.87l-.21.53c-5.49,13.54-20,23.2-37.1,23.2-17.29,0-32-9.91-37.3-23.71h-.15a18.31,18.31,0,0,0,12.53-7.4,18,18,0,0,0,2-3.72,25.58,25.58,0,0,0,1.79-8.83h38.38a36.91,36.91,0,0,0,1.89,8.82c1.18,3.37,3.09,7,6.14,9.24C139,176.16,143,177.17,148.17,175.87Z" transform="translate(35.86)"/><ellipse class="cls-4" cx="138.92" cy="696.49" rx="138.92" ry="15.83"/><path class="cls-5" d="M223.32,387.39l-48.77-2.12v-157s11.27-65,28.6-29.73Q217.55,297.28,223.32,387.39Z" transform="translate(35.86)"/><path class="cls-5" d="M-1.6,387.39l48.78-2.12v-157s-11.28-65-28.6-29.73Q4.18,297.28-1.6,387.39Z" transform="translate(35.86)"/><path id="Pulover" class="cls-6" d="M203,197.46l-.41.06c-5.35.94-11.87,8.69-18,27.46V397.83H37.06V225c-6.09-18.77-12.6-26.52-18-27.46l-.41-.06c-12.85-1.45,19-21.59,38.64-21.59H73.56c5.33,13.8,20,23.71,37.3,23.71,17.08,0,31.61-9.66,37.1-23.2.08-.17.14-.34.21-.51h16.22C184,175.87,215.88,196,203,197.46Z" transform="translate(35.86)"/><line id="Zadrga" class="cls-7" x1="146.73" y1="397.85" x2="146.73" y2="199.6"/><polygon id="Hlace" class="cls-8" points="220.4 397.85 220.4 447.66 197.23 664.56 168.41 674.78 146.99 447.66 146.73 447.66 122.34 674.78 122.23 674.78 93.48 664.59 72.92 447.66 72.92 397.85 220.4 397.85"/><path id="Koza" class="cls-9" d="M12.74,386.73s-5.53,43.56,24.32,47.94v-49Z" transform="translate(35.86)"/><path id="Koza-2" data-name="Koza" class="cls-9" d="M208.86,386.79s5.53,43.56-24.32,47.93v-49Z" transform="translate(35.86)"/><path class="cls-10" d="M204.63,696.33H132.55V674.78l28.82-10.22s0,.05,0,.08c-1.25,12.27,9.29,14.13,9.29,14.13C214.14,674.73,204.63,696.33,204.63,696.33Z" transform="translate(35.86)"/><path class="cls-10" d="M86.37,674.78v21.55H14.29s-9.51-21.6,34-17.56c0,0,10.59-1.87,9.27-14.21l.08,0Z" transform="translate(35.86)"/><circle id="Gumb" class="cls-11" cx="159.1" cy="236.1" r="3.72"/><circle id="Gumb-2" data-name="Gumb" class="cls-11" cx="134.74" cy="236.1" r="3.72"/><circle id="Gumb-3" data-name="Gumb" class="cls-11" cx="159.1" cy="264.14" r="3.72"/><circle id="Gumb-4" data-name="Gumb" class="cls-11" cx="134.74" cy="264.14" r="3.72"/><circle id="Gumb-5" data-name="Gumb" class="cls-11" cx="159.1" cy="292.18" r="3.72"/><circle id="Gumb-6" data-name="Gumb" class="cls-11" cx="134.74" cy="292.18" r="3.72"/><circle id="Gumb-7" data-name="Gumb" class="cls-11" cx="159.1" cy="320.22" r="3.72"/><circle id="Gumb-8" data-name="Gumb" class="cls-11" cx="134.74" cy="320.22" r="3.72"/><circle id="Gumb-9" data-name="Gumb" class="cls-11" cx="159.1" cy="348.26" r="3.72"/><circle id="Gumb-10" data-name="Gumb" class="cls-11" cx="134.74" cy="348.26" r="3.72"/><path id="Koza-3" data-name="Koza" class="cls-9" d="M167.59,102.73a133.55,133.55,0,0,1-7.42,25.57,49.25,49.25,0,0,1-97.41-1.91,155.45,155.45,0,0,1-6.64-24.12C53.66,89.6,59.23,88,62.35,88V85.1a44.43,44.43,0,0,1,44.43-44.43h9.66A44.43,44.43,0,0,1,160.87,85.1v4.42C163.36,89.22,170.15,89.53,167.59,102.73Z" transform="translate(35.86)"/><path id="Brki" class="cls-12" d="M123.35,127.31s18.19,4.36,15.56,23.41-24,18.57-24,18.57-25.42,1.47-26.06-18.57,12.57-22.49,15.66-23.41Z" transform="translate(35.86)"/><path class="cls-13" d="M101,96.34c.09-7.57-23.45-7.86-23.54-.28C77.33,102.9,100.87,103.19,101,96.34Z" transform="translate(35.86)"/><path class="cls-13" d="M148.27,96.34c.09-7.57-23.45-7.86-23.54-.28C124.65,102.9,148.19,103.19,148.27,96.34Z" transform="translate(35.86)"/><circle class="cls-14" cx="124.32" cy="95.93" r="3.89"/><circle class="cls-14" cx="172.36" cy="95.93" r="3.89"/><path id="Oci" class="cls-15" d="M76,96.5s10-10,27.7,0C103.65,96.5,88.26,79.49,76,96.5Z" transform="translate(35.86)"/><path id="Oci-2" data-name="Oci" class="cls-15" d="M123.09,96.5s10-10,27.69,0C150.78,96.5,135.4,79.49,123.09,96.5Z" transform="translate(35.86)"/><path class="cls-9" d="M115.1,93l-.4,1.56C114.68,93.51,114.8,92.93,115.1,93Z" transform="translate(35.86)"/><path id="Nos" class="cls-15" d="M114.63,125.73c-3.34,0-7.2-1.93-7.44-2l.52-1c2.11,1.06,8,3.27,9.92.75.32-.85-.77-8-1.64-13.82-1.86-12.29-2.3-16.23-1.43-17a.71.71,0,0,1,.71-.15l-.34,1.1a.4.4,0,0,0,.44-.15c-.5,1,.8,9.67,1.76,16,1.62,10.7,2,13.93,1.42,14.69A4.65,4.65,0,0,1,114.63,125.73Z" transform="translate(35.86)"/><g id="Obrve"><path class="cls-16" d="M104.15,88.22c-16.77-8.47-24.37-.65-24.69-.31l-2.12-2c.37-.41,9.28-9.83,28.11-.32Z" transform="translate(35.86)"/></g><g id="Obrve-2" data-name="Obrve"><g id="Obrve-3" data-name="Obrve"><path id="Obrve-4" data-name="Obrve" class="cls-16" d="M150.13,89.32c-16.9-8.53-24.6-.4-24.68-.31l-2.13-2c.37-.4,9.28-9.82,28.11-.31Z" transform="translate(35.86)"/></g></g><path class="cls-17" d="M131.73,133.76a21.61,21.61,0,0,1-7.35,10.91c-1.38-6.86-26.65-4.2-26.73-4.18a31.5,31.5,0,0,1-3.86-6.73Z" transform="translate(35.86)"/><path class="cls-18" d="M124.38,144.67h0a19.11,19.11,0,0,1-10.44,3.61c-7.92.46-13.15-3.78-16.29-7.79C97.73,140.47,123,137.81,124.38,144.67Z" transform="translate(35.86)"/><polygon class="cls-17" points="133.51 140.49 133.51 140.49 133.51 140.49 133.51 140.49"/><polygon class="cls-13" points="129.65 133.76 130.73 136.15 166.78 136.15 167.59 133.76 129.65 133.76"/><path id="Lasje" class="cls-12" d="M168.88,194.46s-5.66-1.24-9.72-14c-9.94-9.12-23.68-16.13-23.68-16.13,8.47-5,15.74-16.51,19.75-23.87.15-6,.53-12.67,1.19-20.06,6.1-68.52-42.12-48.7-44.18-48.56h0c-2-.14-50.21-20-44.11,48.56.66,7.35,1,14,1.19,19.94,5.48,9.14,17.16,22.42,17.16,22.42C80.69,159,72.9,167.05,66.61,176c-4,16.94-10.94,18.45-10.94,18.45s-28.76-171.92,56.61-165C197.65,22.55,168.88,194.46,168.88,194.46Z" transform="translate(35.86)"/></g><circle id="Krog-2" data-name="Krog" class="cls-1" cx="147.7" cy="111.83" r="109"/></g></g></svg>