<svg xmlns="http://www.w3.org/2000/svg" xmlns:xlink="http://www.w3.org/1999/xlink" viewBox="0 0 277.84 712.32"><defs><style>.cls-1,.cls-7{fill:none;stroke-miterlimit:10;}.cls-1{stroke:#00a881;stroke-width:5.67px;}.cls-2{clip-path:url(#clip-path);}.cls-3{fill:#fcc5aa;}.cls-4{fill:#dce6e0;}.cls-5{fill:#d9dceb;}.cls-6{fill:#00a881;}.cls-7{stroke:#499086;stroke-width:0.95px;}.cls-8{fill:#017dad;}.cls-9{fill:#eed1bf;}.cls-10{fill:#44515d;}.cls-11{fill:#499086;}.cls-12{fill:#fff;}.cls-13{fill:#524935;}.cls-14{fill:#ebaf88;}.cls-15{fill:#ffebc6;}.cls-16{fill:#ffe6b4;}.cls-17{fill:#301812;}.cls-18{fill:#d55227;}</style><clipPath id="clip-path" transform="translate(37.03)"><circle id="Krog" class="cls-1" cx="111.83" cy="111.83" r="109"/></clipPath></defs><g id="Layer_2" data-name="Layer 2"><g id="Layer_1-2" data-name="Layer 1"><g class="cls-2"><path id="Vrat" class="cls-3" d="M147,175.87l-.21.53c-5.49,13.54-20,23.2-37.1,23.2-17.29,0-32-9.91-37.3-23.71h-.15a18.31,18.31,0,0,0,12.53-7.4,18,18,0,0,0,2-3.72,25.58,25.58,0,0,0,1.79-8.83H127a36.91,36.91,0,0,0,1.89,8.82c1.18,3.37,3.09,7,6.14,9.24C137.84,176.16,141.83,177.17,147,175.87Z" transform="translate(37.03)"/><ellipse class="cls-4" cx="138.92" cy="696.49" rx="138.92" ry="15.83"/><path class="cls-5" d="M222.16,387.39l-48.77-2.12v-157s11.27-65,28.6-29.73Q216.39,297.28,222.16,387.39Z" transform="translate(37.03)"/><path class="cls-5" d="M-2.76,387.39,46,385.27v-157s-11.27-65-28.6-29.73Q3,297.28-2.76,387.39Z" transform="translate(37.03)"/><path id="Pulover" class="cls-6" d="M201.86,197.46l-.41.06c-5.35.94-11.87,8.69-17.95,27.46V397.83H35.89V225c-6.09-18.77-12.6-26.52-17.95-27.46l-.41-.06c-12.85-1.45,19-21.59,38.64-21.59H72.39c5.33,13.8,20,23.71,37.3,23.71,17.08,0,31.61-9.66,37.1-23.2.08-.17.14-.34.21-.51h16.22C182.87,175.87,214.71,196,201.86,197.46Z" transform="translate(37.03)"/><line id="Zadrga" class="cls-7" x1="146.73" y1="397.85" x2="146.73" y2="199.6"/><polygon id="Hlace" class="cls-8" points="220.4 397.85 220.4 447.66 197.23 664.56 168.41 674.78 146.99 447.66 146.73 447.66 122.34 674.78 122.23 674.78 93.48 664.59 72.92 447.66 72.92 397.85 220.4 397.85"/><path id="Koza" class="cls-9" d="M11.57,386.73s-5.52,43.56,24.32,47.94v-49Z" transform="translate(37.03)"/><path id="Koza-2" data-name="Koza" class="cls-9" d="M207.7,386.79s5.52,43.56-24.32,47.93v-49Z" transform="translate(37.03)"/><path class="cls-10" d="M203.46,696.33H131.38V674.78l28.82-10.22s0,.05,0,.08c-1.25,12.27,9.29,14.13,9.29,14.13C213,674.73,203.46,696.33,203.46,696.33Z" transform="translate(37.03)"/><path class="cls-10" d="M85.2,674.78v21.55H13.12s-9.51-21.6,34-17.56c0,0,10.59-1.87,9.27-14.21l.08,0Z" transform="translate(37.03)"/><circle id="Gumb" class="cls-11" cx="159.1" cy="236.1" r="3.72"/><circle id="Gumb-2" data-name="Gumb" class="cls-11" cx="134.74" cy="236.1" r="3.72"/><circle id="Gumb-3" data-name="Gumb" class="cls-11" cx="159.1" cy="264.14" r="3.72"/><circle id="Gumb-4" data-name="Gumb" class="cls-11" cx="134.74" cy="264.14" r="3.72"/><circle id="Gumb-5" data-name="Gumb" class="cls-11" cx="159.1" cy="292.18" r="3.72"/><circle id="Gumb-6" data-name="Gumb" class="cls-11" cx="134.74" cy="292.18" r="3.72"/><circle id="Gumb-7" data-name="Gumb" class="cls-11" cx="159.1" cy="320.22" r="3.72"/><circle id="Gumb-8" data-name="Gumb" class="cls-11" cx="134.74" cy="320.22" r="3.72"/><circle id="Gumb-9" data-name="Gumb" class="cls-11" cx="159.1" cy="348.26" r="3.72"/><circle id="Gumb-10" data-name="Gumb" class="cls-11" cx="134.74" cy="348.26" r="3.72"/><path id="Koza-3" data-name="Koza" class="cls-9" d="M166.43,102.73A133.55,133.55,0,0,1,159,128.3a49.25,49.25,0,0,1-97.41-1.91A155.45,155.45,0,0,1,55,102.27C52.5,89.6,58.07,88,61.19,88V85.1a44.43,44.43,0,0,1,44.43-44.43h9.66A44.43,44.43,0,0,1,159.71,85.1v4.42C162.2,89.22,169,89.53,166.43,102.73Z" transform="translate(37.03)"/><path class="cls-12" d="M99.79,96.34c.09-7.57-23.45-7.86-23.54-.28C76.17,102.9,99.71,103.19,99.79,96.34Z" transform="translate(37.03)"/><path class="cls-12" d="M147.11,96.34c.09-7.57-23.45-7.86-23.54-.28C123.48,102.9,147,103.19,147.11,96.34Z" transform="translate(37.03)"/><circle class="cls-13" cx="124.32" cy="95.93" r="3.89"/><circle class="cls-13" cx="172.36" cy="95.93" r="3.89"/><path id="Oci" class="cls-14" d="M74.79,96.5s10-10,27.69,0C102.48,96.5,87.1,79.49,74.79,96.5Z" transform="translate(37.03)"/><path id="Oci-2" data-name="Oci" class="cls-14" d="M121.92,96.5s10-10,27.7,0C149.62,96.5,134.23,79.49,121.92,96.5Z" transform="translate(37.03)"/><path id="Brki" class="cls-15" d="M130.57,133.76H92.63c1.23-4.43,4.25-8,9.5-10.49h4.36c1.25.59,8.06,3.63,10.44.49a1.07,1.07,0,0,0,.12-.49h3.62C125.8,126.24,129.25,129.7,130.57,133.76Z" transform="translate(37.03)"/><path class="cls-9" d="M113.94,93l-.4,1.56C113.52,93.51,113.64,92.93,113.94,93Z" transform="translate(37.03)"/><path id="Nos" class="cls-14" d="M113.47,125.73a19.72,19.72,0,0,1-7.44-2l.52-1c2.11,1.06,8,3.27,9.92.75.32-.85-.77-8-1.65-13.82-1.85-12.29-2.29-16.23-1.43-17a.73.73,0,0,1,.72-.15l-.35,1.1a.4.4,0,0,0,.44-.15c-.5,1,.81,9.67,1.77,16,1.61,10.7,2,13.93,1.42,14.69A4.67,4.67,0,0,1,113.47,125.73Z" transform="translate(37.03)"/><g id="Obrve"><path class="cls-16" d="M103,88.22c-16.77-8.47-24.37-.65-24.69-.31l-2.13-2c.37-.41,9.28-9.83,28.12-.32Z" transform="translate(37.03)"/></g><g id="Obrve-2" data-name="Obrve"><g id="Obrve-3" data-name="Obrve"><path id="Obrve-4" data-name="Obrve" class="cls-16" d="M149,89.32c-16.9-8.53-24.61-.4-24.69-.31l-2.13-2c.37-.4,9.28-9.82,28.12-.31Z" transform="translate(37.03)"/></g></g><path class="cls-17" d="M130.57,133.76c-.09,0-1.53,6.59-7.35,10.91-1.38-6.86-26.65-4.2-26.74-4.18a31.17,31.17,0,0,1-3.85-6.73Z" transform="translate(37.03)"/><path class="cls-18" d="M123.22,144.67h0a19.11,19.11,0,0,1-10.43,3.61c-7.93.46-13.15-3.78-16.3-7.79C96.57,140.47,121.84,137.81,123.22,144.67Z" transform="translate(37.03)"/><polygon class="cls-17" points="133.51 140.49 133.51 140.49 133.51 140.49 133.51 140.49"/><polygon class="cls-12" points="129.65 133.76 130.73 136.15 166.78 136.15 167.59 133.76 129.65 133.76"/><path id="Lasje" class="cls-15" d="M167.72,194.46s-5.67-1.24-9.72-14c-9.94-9.12-23.69-16.13-23.69-16.13,8.48-5,15.75-16.51,19.75-23.87.16-6,.54-12.67,1.2-20.06,6.1-68.52-42.13-48.7-44.18-48.56h0c-2-.14-50.22-20-44.11,48.56.66,7.35,1,14,1.19,19.94,5.47,9.14,17.15,22.42,17.15,22.42C79.52,159,71.74,167.05,65.45,176c-4,16.94-10.94,18.45-10.94,18.45s-28.77-171.92,56.61-165C196.49,22.55,167.72,194.46,167.72,194.46Z" transform="translate(37.03)"/></g><circle id="Krog-2" data-name="Krog" class="cls-1" cx="148.86" cy="111.83" r="109"/></g></g></svg>