<svg xmlns="http://www.w3.org/2000/svg" viewBox="0 0 211.19 624.43"><defs><style>.cls-1{fill:#eed1bf;}.cls-2{fill:#fcc5aa;}.cls-3{fill:#d9dceb;}.cls-4{fill:#0474bb;}.cls-11,.cls-5{fill:none;stroke-miterlimit:10;}.cls-5{stroke:#d9dceb;stroke-width:1.21px;}.cls-6{fill:#fff;}.cls-7{fill:#524935;}.cls-8{fill:#c9bcdd;}.cls-9{fill:#ebaf89;}.cls-10{fill:#c1c0da;}.cls-11{stroke:#231f20;stroke-width:0.63px;}.cls-12{fill:#c4463a;}.cls-13{fill:#200600;}.cls-14{fill:#d55227;}</style></defs><g id="Layer_2" data-name="Layer 2"><g id="Layer_1-2" data-name="Layer 1"><path id="Koza" class="cls-1" d="M15.41,346.3S9.52,393.48,41.3,398.22V345.15Z"/><path id="Koza-2" data-name="Koza" class="cls-1" d="M189.81,351.57s5.89,47.18-25.9,51.92V350.42Z"/><path id="Vrat" class="cls-2" d="M138.76,163.17c-5.1,13-18.42,22.34-34.07,22.34-15.37,0-28.5-9-33.8-21.68,4-1.16,12.58-5.44,13.09-20.83h35.3S122.52,167.19,138.76,163.17Z"/><path class="cls-3" d="M0,364.49l51.93-2V212.76s-12-62-30.45-28.36Q6.15,278.54,0,364.49Z"/><path class="cls-3" d="M208.42,364.49l-51.94-2V212.76s12-62,30.46-28.36Q202.27,278.54,208.42,364.49Z"/><path id="Koza-3" data-name="Koza" class="cls-1" d="M89.92,599.71,59.23,604c3.61-2.38,3.56-4.25,3.56-4.25Z"/><path id="Koza-4" data-name="Koza" class="cls-1" d="M156.64,604,126,599.71h25.92A16.68,16.68,0,0,0,156.64,604Z"/><path id="cevlje" class="cls-4" d="M89.92,599.71v20.75h-15v-5.92S41.87,626.91,27.36,624c0,0-16.55-2.27,8.86-11.59,19-7,22.83-8.41,22.83-8.41l.17,0h0Z"/><path id="cevlje-2" data-name="cevlje" class="cls-4" d="M188.51,624c-14.5,2.92-47.57-9.45-47.57-9.45v5.92H126V599.71L156.64,604h0l.17,0s3.83,1.44,22.84,8.41C205.06,621.72,188.51,624,188.51,624Z"/><polygon id="Hlace" class="cls-1" points="174.61 359.79 174.61 388.21 151.87 599.71 125.89 599.71 109.44 433.95 89.97 599.71 62.79 599.71 41.8 388.21 41.8 359.79 174.61 359.79"/><path id="Obleka" class="cls-4" d="M179.45,317.85c-2.81-21.72-18.64-44.86-16.46-66,10.06-13.46,10.34-43,10.32-47.65,5.6-16.18,11.54-22.68,16.38-23.21,11.84-1.3-17.48-19.41-35.57-19.41H139.18c-4.9,12.4-18.43,21.32-34.35,21.32s-29.44-8.92-34.35-21.32H55.55C37.45,161.54,8.13,179.65,20,181c4.78.53,10.63,6.87,16.16,22.59,0,0-.63,34.19,10.58,48.62,2.13,21.07-11,41.59-13.76,63.19L5.22,494.28s21.11,21.26,82.51,0c0,0,41.69,15.8,78.37,0,0,0,30.57,12.67,45.09,0Z"/><path class="cls-5" d="M26.21,326.56c.18-13.08,81,52.32,157.25,0"/><path id="Koza-5" data-name="Koza" class="cls-1" d="M100.05,26.6h8.2a37.7,37.7,0,0,1,37.7,37.7v50.06a41.8,41.8,0,0,1-41.8,41.8h0a41.8,41.8,0,0,1-41.8-41.8V64.3a37.7,37.7,0,0,1,37.7-37.7Z"/><path class="cls-6" d="M92.6,87c.1-8-22.93-8.35-23-.31C69.49,93.93,92.52,94.24,92.6,87Z"/><path class="cls-6" d="M138.89,87c.09-8-22.94-8.35-23-.31C115.78,93.93,138.81,94.24,138.89,87Z"/><ellipse class="cls-7" cx="80.37" cy="86.52" rx="3.81" ry="4.14"/><ellipse class="cls-7" cx="127.38" cy="86.52" rx="3.81" ry="4.14"/><path id="Oci" class="cls-8" d="M68.14,87.14s9.79-10.67,27.1,0C95.24,87.14,80.19,69.06,68.14,87.14Z"/><path id="Oci-2" data-name="Oci" class="cls-8" d="M114.25,87.14s9.79-10.67,27.1,0C141.35,87.14,126.29,69.06,114.25,87.14Z"/><g id="Nos"><path class="cls-9" d="M106.26,114.36a25.77,25.77,0,0,1-8.41-1.91l.46-1.11c2.44,1,9.25,3.13,11.48.7.31-.83-.92-7.54-1.9-12.94-2.1-11.49-2.61-15.2-1.71-16a.82.82,0,0,1,.78-.19l-.3,1.16a.39.39,0,0,0,.38-.14c-.53,1,.95,9.1,2,15,1.85,10.16,2.29,13.22,1.6,14A5.83,5.83,0,0,1,106.26,114.36Z"/></g><path id="Obrve" class="cls-10" d="M96,77.73c-16.86-9.24-24.66-.29-24.74-.2l-1.33-1.12c.35-.42,8.8-10.12,26.91-.21Z"/><path id="Obrve-2" data-name="Obrve" class="cls-10" d="M140.93,78.9c-16.86-9.24-24.67-.29-24.74-.2l-1.33-1.12c.35-.42,8.81-10.12,26.91-.2Z"/><g id="ocala"><rect class="cls-11" x="113.65" y="78.14" width="28.9" height="19.11" rx="8.59"/><rect class="cls-11" x="67.96" y="78.14" width="28.9" height="19.11" rx="8.59"/><path class="cls-11" d="M96.86,88.3S107,80,113.65,88.3"/><line class="cls-11" x1="62.36" y1="81.06" x2="67.96" y2="87.09"/><line class="cls-11" x1="145.95" y1="80.3" x2="142.54" y2="87.7"/></g><path id="Koza-6" data-name="Koza" class="cls-1" d="M145.24,79.89s10.49-3.19,7.43,13.86-7.43,27.6-7.43,27.6Z"/><path id="Koza-7" data-name="Koza" class="cls-1" d="M63.49,81.67S53,78.49,56.06,95.54s7.43,27.6,7.43,27.6Z"/><ellipse id="Uhani" class="cls-12" cx="62.36" cy="119.67" rx="3.31" ry="3.59"/><ellipse id="Uhani-2" data-name="Uhani" class="cls-12" cx="147.55" cy="119.55" rx="3.31" ry="3.59"/><path class="cls-13" d="M122.86,125.59a15.29,15.29,0,0,1-6.56,8.14c-1.24-5.12-23.8-3.13-23.88-3.12a19,19,0,0,1-3.44-5A87.28,87.28,0,0,0,122.86,125.59Z"/><path class="cls-14" d="M116.3,133.73h0a19.17,19.17,0,0,1-9.32,2.7,18.09,18.09,0,0,1-14.55-5.82C92.5,130.6,115.06,128.61,116.3,133.73Z"/><polygon class="cls-13" points="92.42 130.61 92.42 130.61 92.42 130.61 92.42 130.61"/><path id="Lasje" class="cls-10" d="M161.26,53.28H157a30.27,30.27,0,0,1-6.16,6.8c-6.81,5.5-15.41,7.19-24,5.83-2.49-.37-5.08-1-7.72-1.6q-2.36-.59-4.74-1.28l-4.81-1.39a65.25,65.25,0,0,0-6.42-1.76,64,64,0,0,0-6.81-1.12c-5.56-2.45-10.6.07-15.42,2.85a32,32,0,0,0-3.17,2.57c-2.94,3.89-7.14,6.42-8.38,11.7-.91,1.72-1.74,3.49-2.53,5.3s-1.53,3.63-2.26,5.47c-.46,1.93-.84,3.91-1.18,5.86s-.64,3.91-.92,5.8c0,0-.61-1-1.42-2.75a30,30,0,0,0-1.25-4A44.49,44.49,0,0,1,56.25,87a28.5,28.5,0,0,1-4.38-4.63,28.79,28.79,0,0,1-4.35-11.23,33.57,33.57,0,0,1-.47-6.19c1.74-16.18,11-33,26.8-38.79q3-1.27,6-2.27c.61-.2,1.22-.39,1.84-.57a20.6,20.6,0,0,1-.1-2.09,21.2,21.2,0,1,1,42.4,0c0,.71,0,1.41-.1,2.1a75.68,75.68,0,0,1,12.32,4.57,56,56,0,0,1,5.33,2.9A47.58,47.58,0,0,1,161.26,53.28Z"/></g></g></svg>