<svg xmlns="http://www.w3.org/2000/svg" viewBox="0 0 206.7 628.01"><defs><style>.cls-1{fill:#eed1bf;}.cls-2{fill:#d8dcec;}.cls-3{fill:#0073bc;}.cls-11,.cls-4{fill:none;stroke-miterlimit:10;}.cls-4{stroke:#c1c0db;stroke-width:1.06px;}.cls-5{fill:#fbc5aa;}.cls-6{fill:#fff;}.cls-7{fill:#514835;}.cls-8{fill:#cabcdc;}.cls-9{fill:#ebaf89;}.cls-10{fill:#bbb8dc;}.cls-11{stroke:#231f20;stroke-width:0.63px;}.cls-12{fill:#c4463a;}.cls-13{fill:#200600;}.cls-14{fill:#d55227;}</style></defs><g id="Layer_2" data-name="Layer 2"><g id="Avatar"><path id="Koza" class="cls-1" d="M18.87,301.39S13,344.26,44.76,348.56V300.35Z"/><path id="Koza-2" data-name="Koza" class="cls-1" d="M189.81,306.18s5.89,42.86-25.9,47.17V305.13Z"/><path class="cls-2" d="M0,317.92l51.93-1.85V187.21s-12-56.34-30.45-25.76C11.26,218.46,4.16,265.81,0,317.92Z"/><path class="cls-2" d="M206.7,317.92l-51.94-1.85V187.21s12-56.34,30.46-25.76C195.44,218.46,202.53,265.81,206.7,317.92Z"/><polygon id="Hlace" class="cls-1" points="174.61 367.83 174.61 388.86 150.76 605.66 125.89 605.57 109.44 452.19 89.97 605.57 64.76 605.66 41.8 388.86 41.8 367.83 174.61 367.83"/><path class="cls-3" d="M170.76,285.92c-2.56-20.12-16-40-14-59.65,9.19-12.46,9.44-39.83,9.42-44.14,5.11-15,10.54-21,15-21.5,10.8-1.21-16-18-32.47-18H135c-4.47,11.49-16.81,19.76-31.35,19.76s-26.87-8.27-31.35-19.76H58.7c-16.52,0-43.28,16.78-32.47,18,4.35.49,9.69,6.36,14.75,20.92,0,0-.58,31.67,9.65,45,1.95,19.51-8.32,39.31-10.87,59.32l-27,195s19.26,19.71,75.31,0c0,0,38.05,14.64,71.53,0,0,0,27.91,11.75,41.16,0Z"/><path class="cls-4" d="M39.76,289.13c.17-11.19,63.39,44.77,132,0"/><path id="Vrat" class="cls-5" d="M138.76,142.16c-5.1,11.84-18.42,20.29-34.07,20.29-15.37,0-28.5-8.17-33.8-19.69,4-1,12.58-4.95,13.09-18.93h35.3S122.52,145.81,138.76,142.16Z"/><path id="Koza-3" data-name="Koza" class="cls-1" d="M89.92,605.55l-30.69,3.86c3.61-2.17,5.93-3.86,5.93-3.86Z"/><path id="Koza-4" data-name="Koza" class="cls-1" d="M156.64,609.41,126,605.55h24.77S153,607.24,156.64,609.41Z"/><path id="cevlje" class="cls-3" d="M89.92,605.55V624.4h-15V619s-33.06,11.24-47.57,8.58c0,0-16.55-2.06,8.86-10.52,19-6.33,22.83-7.65,22.83-7.65h.18Z"/><path id="cevlje-2" data-name="cevlje" class="cls-3" d="M188.51,627.6C174,630.26,140.94,619,140.94,619v5.38H126V605.55l30.69,3.86h.18s3.83,1.32,22.84,7.65C205.06,625.54,188.51,627.6,188.51,627.6Z"/><path id="Koza-5" data-name="Koza" class="cls-1" d="M97.16,10.63h8.2a37.7,37.7,0,0,1,37.7,37.7V98.39a41.8,41.8,0,0,1-41.8,41.8h0a41.8,41.8,0,0,1-41.8-41.8V48.33a37.7,37.7,0,0,1,37.7-37.7Z"/><path class="cls-6" d="M89.71,71c.09-8-22.94-8.35-23-.3C66.6,78,89.63,78.26,89.71,71Z"/><path class="cls-6" d="M136,71c.09-8-22.93-8.35-23-.3C112.88,78,135.91,78.26,136,71Z"/><ellipse class="cls-7" cx="77.48" cy="70.55" rx="3.81" ry="4.14"/><ellipse class="cls-7" cx="124.48" cy="70.55" rx="3.81" ry="4.14"/><path id="Oci" class="cls-8" d="M65.25,71.16s9.78-10.67,27.09,0C92.34,71.16,77.29,53.09,65.25,71.16Z"/><path id="Oci-2" data-name="Oci" class="cls-8" d="M111.36,71.16s9.78-10.67,27.09,0C138.45,71.16,123.4,53.09,111.36,71.16Z"/><g id="Nos"><path class="cls-9" d="M103.37,98.39A25.77,25.77,0,0,1,95,96.47l.46-1.1c2.44,1,9.25,3.12,11.48.7.32-.83-.91-7.55-1.9-12.95-2.1-11.49-2.61-15.2-1.7-16a.81.81,0,0,1,.77-.2l-.3,1.16a.35.35,0,0,0,.38-.14c-.53,1,1,9.1,2,15,1.86,10.15,2.29,13.22,1.6,14A5.81,5.81,0,0,1,103.37,98.39Z"/></g><path id="Obrve" class="cls-10" d="M93.05,61.75c-16.86-9.24-24.66-.29-24.74-.2L67,60.43c.35-.42,8.81-10.12,26.91-.2Z"/><path id="Obrve-2" data-name="Obrve" class="cls-10" d="M138,62.93c-16.86-9.24-24.66-.3-24.74-.21L112,61.6c.35-.41,8.81-10.11,26.91-.2Z"/><g id="ocala"><rect class="cls-11" x="110.75" y="62.16" width="28.9" height="19.11" rx="8.59"/><rect class="cls-11" x="65.06" y="62.16" width="28.9" height="19.11" rx="8.59"/><path class="cls-11" d="M94,72.33s10.09-8.29,16.79,0"/><line class="cls-11" x1="59.46" y1="65.08" x2="65.06" y2="71.11"/><line class="cls-11" x1="143.05" y1="64.32" x2="139.65" y2="71.72"/></g><path id="Lasje" class="cls-10" d="M69.6,48.86c5.19-8,11.87-14.33,20.73-17.15a26.17,26.17,0,0,1,4.16-.9,23.3,23.3,0,0,1,4.26-.15,45.6,45.6,0,0,1,6,.18,48.83,48.83,0,0,1,6,1,26.42,26.42,0,0,1,5.08,1.51c14.11,4.83,19.12,21.14,21.34,35.3.31,1.85.53,3.66.68,5.43.43,1.42.83,2.82,1.21,4.22s.72,2.81,1,4.23c.64,2.84,1.15,5.7,1.58,8.64q.65,3.21,1,6.4c.24,2.12.38,4.23.45,6.35,1.71,11.78-.55,23.42,1.71,35.07,11.28-4.9,15.8-19,15.47-31.39.14-2.59.25-5.21.35-7.75.24-3.18.36-6.35.44-9.45s.16-6.4.14-9.59c-.06-9.56-.62-19-.63-27.43-.4-3.26-.91-6.51-1.56-9.73s-1.41-6.41-2.33-9.57a54,54,0,0,0-4.56-7.49,56.8,56.8,0,0,0-5.52-6.51A67.76,67.76,0,0,0,105.82.71a47,47,0,0,0-19.08.59A49.27,49.27,0,0,0,71.22,8a51.6,51.6,0,0,0-6.72,5.18,50.65,50.65,0,0,0-6,7,64.7,64.7,0,0,0-4.39,7.61c-.65,1.3-1.25,2.63-1.82,4s-1.1,2.71-1.6,4.09c-1.74,8.69-5.08,16.84-5.23,25.86Q45.14,65,45,68.26a169.54,169.54,0,0,0,2.11,32.93c.63,4.92,1.34,9.53,2.06,13.68,2.13,12.46,4.32,20.82,4.32,20.82a17.51,17.51,0,0,0,7.66.07,9.93,9.93,0,0,0,5.44-4.29c1.39-4.16,3.08-9.06,1.56-14.24-.33-2.54-.8-5-1.2-7.18-.31-2.79-.64-5.87-1-9.15-.61-6.14-1.28-12.41-1.58-18.67-.1-2.09-.15-4.18-.13-6.25,1.34-6.12.5-12.46,3.46-19.16A54.48,54.48,0,0,1,69.6,48.86Z"/><path id="Koza-6" data-name="Koza" class="cls-1" d="M142.35,63.91s10.48-3.19,7.43,13.86-7.43,27.6-7.43,27.6Z"/><path id="Koza-7" data-name="Koza" class="cls-1" d="M60.59,65.7s-10.48-3.19-7.43,13.86,7.43,27.6,7.43,27.6Z"/><ellipse id="Uhani" class="cls-12" cx="59.46" cy="103.7" rx="3.31" ry="3.59"/><ellipse id="Uhani-2" data-name="Uhani" class="cls-12" cx="144.65" cy="103.57" rx="3.31" ry="3.59"/><path class="cls-13" d="M120,109.61a15.24,15.24,0,0,1-6.56,8.15c-1.24-5.13-23.8-3.14-23.88-3.13a19,19,0,0,1-3.44-5A87.08,87.08,0,0,0,120,109.61Z"/><path class="cls-14" d="M113.4,117.76h0a19.32,19.32,0,0,1-9.33,2.69,18.06,18.06,0,0,1-14.55-5.82C89.6,114.62,112.16,112.63,113.4,117.76Z"/><polygon class="cls-13" points="89.52 114.63 89.52 114.63 89.52 114.63 89.52 114.63"/></g></g></svg>