<svg xmlns="http://www.w3.org/2000/svg" viewBox="0 0 211.19 610.29"><defs><style>.cls-1{fill:#eed1bf;}.cls-2{fill:#fcc5aa;}.cls-3{fill:#d9dceb;}.cls-4{fill:#0474bb;}.cls-5{fill:#fff;}.cls-6{fill:#524935;}.cls-7{fill:#c9bcdd;}.cls-8{fill:#ebaf89;}.cls-9{fill:#bbb7dc;}.cls-10,.cls-14{fill:none;stroke-miterlimit:10;}.cls-10{stroke:#231f20;stroke-width:0.63px;}.cls-11{fill:#c4463a;}.cls-12{fill:#200600;}.cls-13{fill:#d55227;}.cls-14{stroke:#d9dceb;stroke-width:1.21px;}</style></defs><g id="Layer_2" data-name="Layer 2"><g id="Layer_1-2" data-name="Layer 1"><path id="Koza" class="cls-1" d="M15.41,332.16S9.52,379.34,41.3,384.08V331Z"/><path id="Koza-2" data-name="Koza" class="cls-1" d="M189.81,337.43s5.89,47.18-25.9,51.92V336.28Z"/><path id="Vrat" class="cls-2" d="M138.76,149c-5.1,13-18.42,22.33-34.07,22.33-15.37,0-28.5-9-33.8-21.67,4-1.16,12.58-5.45,13.09-20.84h35.3S122.52,153.05,138.76,149Z"/><path class="cls-3" d="M0,350.35l51.93-2V198.62s-12-62-30.45-28.35Q6.15,264.4,0,350.35Z"/><path class="cls-3" d="M208.42,350.35l-51.94-2V198.62s12-62,30.46-28.35Q202.27,264.4,208.42,350.35Z"/><path id="Koza-3" data-name="Koza" class="cls-1" d="M89.92,585.58l-30.69,4.24c3.61-2.38,3.56-4.24,3.56-4.24Z"/><path id="Koza-4" data-name="Koza" class="cls-1" d="M156.64,589.82,126,585.58h25.92A16.76,16.76,0,0,0,156.64,589.82Z"/><path id="cevlje" class="cls-4" d="M89.92,585.58v20.74h-15V600.4s-33.06,12.37-47.57,9.45c0,0-16.55-2.27,8.86-11.59,19-7,22.83-8.41,22.83-8.41l.17,0h0Z"/><path id="cevlje-2" data-name="cevlje" class="cls-4" d="M188.51,609.85c-14.5,2.92-47.57-9.45-47.57-9.45v5.92H126V585.58l30.69,4.24h0l.17,0s3.83,1.44,22.84,8.41C205.06,607.58,188.51,609.85,188.51,609.85Z"/><path id="Koza-5" data-name="Koza" class="cls-1" d="M98.16,10.63h8.2a37.7,37.7,0,0,1,37.7,37.7V98.39a41.8,41.8,0,0,1-41.8,41.8h0a41.8,41.8,0,0,1-41.8-41.8V48.33a37.7,37.7,0,0,1,37.7-37.7Z"/><path class="cls-5" d="M90.71,71c.09-8-22.94-8.35-23-.3C67.6,78,90.63,78.26,90.71,71Z"/><path class="cls-5" d="M137,71c.09-8-22.93-8.35-23-.3C113.88,78,136.91,78.26,137,71Z"/><ellipse class="cls-6" cx="78.48" cy="70.55" rx="3.81" ry="4.14"/><ellipse class="cls-6" cx="125.48" cy="70.55" rx="3.81" ry="4.14"/><path id="Oci" class="cls-7" d="M66.25,71.16s9.78-10.67,27.09,0C93.34,71.16,78.29,53.09,66.25,71.16Z"/><path id="Oci-2" data-name="Oci" class="cls-7" d="M112.36,71.16s9.78-10.67,27.09,0C139.45,71.16,124.4,53.09,112.36,71.16Z"/><g id="Nos"><path class="cls-8" d="M104.37,98.39A25.77,25.77,0,0,1,96,96.47l.46-1.1c2.44,1,9.25,3.12,11.48.7.32-.83-.91-7.55-1.9-12.95-2.1-11.49-2.61-15.2-1.7-16a.81.81,0,0,1,.77-.2l-.3,1.16a.35.35,0,0,0,.38-.14c-.53,1,1,9.1,2,15,1.86,10.15,2.29,13.22,1.6,14A5.81,5.81,0,0,1,104.37,98.39Z"/></g><path id="Obrve" class="cls-9" d="M94.05,61.75c-16.86-9.24-24.66-.29-24.74-.2L68,60.43c.35-.42,8.81-10.12,26.91-.2Z"/><path id="Obrve-2" data-name="Obrve" class="cls-9" d="M139,62.93c-16.86-9.24-24.66-.3-24.74-.21L113,61.6c.35-.41,8.81-10.11,26.91-.2Z"/><g id="ocala"><rect class="cls-10" x="111.75" y="62.16" width="28.9" height="19.11" rx="8.59"/><rect class="cls-10" x="66.06" y="62.16" width="28.9" height="19.11" rx="8.59"/><path class="cls-10" d="M95,72.33s10.09-8.29,16.79,0"/><line class="cls-10" x1="60.46" y1="65.08" x2="66.06" y2="71.11"/><line class="cls-10" x1="144.05" y1="64.32" x2="140.65" y2="71.72"/></g><path id="Lasje" class="cls-9" d="M70.6,48.86c5.19-8,11.87-14.33,20.73-17.15a26.17,26.17,0,0,1,4.16-.9,23.3,23.3,0,0,1,4.26-.15,45.6,45.6,0,0,1,6,.18,48.83,48.83,0,0,1,6,1,26.42,26.42,0,0,1,5.08,1.51c14.11,4.83,19.12,21.14,21.34,35.3.31,1.85.53,3.66.68,5.43.43,1.42.83,2.82,1.21,4.22s.72,2.81,1,4.23c.64,2.84,1.15,5.7,1.58,8.64q.65,3.21,1,6.4c.24,2.12.38,4.23.45,6.35,1.71,11.78-.55,23.42,1.71,35.07,11.28-4.9,15.8-19,15.47-31.39.14-2.59.25-5.21.35-7.75.24-3.18.36-6.35.44-9.45s.16-6.4.14-9.59c-.06-9.56-.62-19-.63-27.43-.4-3.26-.91-6.51-1.56-9.73s-1.41-6.41-2.33-9.57a54,54,0,0,0-4.56-7.49,56.8,56.8,0,0,0-5.52-6.51A67.76,67.76,0,0,0,106.82.71a47,47,0,0,0-19.08.59A49.27,49.27,0,0,0,72.22,8a51.6,51.6,0,0,0-6.72,5.18,50.65,50.65,0,0,0-6,7,64.7,64.7,0,0,0-4.39,7.61c-.65,1.3-1.25,2.63-1.82,4s-1.1,2.71-1.6,4.09c-1.74,8.69-5.08,16.84-5.23,25.86Q46.14,65,46,68.26a169.54,169.54,0,0,0,2.11,32.93c.63,4.92,1.34,9.53,2.06,13.68,2.13,12.46,4.32,20.82,4.32,20.82a17.51,17.51,0,0,0,7.66.07,9.93,9.93,0,0,0,5.44-4.29c1.39-4.16,3.08-9.06,1.56-14.24-.33-2.54-.8-5-1.2-7.18-.31-2.79-.64-5.87-1-9.15-.61-6.14-1.28-12.41-1.58-18.67-.1-2.09-.15-4.18-.13-6.25,1.34-6.12.5-12.46,3.46-19.16A54.48,54.48,0,0,1,70.6,48.86Z"/><path id="Koza-6" data-name="Koza" class="cls-1" d="M143.35,63.91s10.48-3.19,7.43,13.86-7.43,27.6-7.43,27.6Z"/><path id="Koza-7" data-name="Koza" class="cls-1" d="M61.59,65.7s-10.48-3.19-7.43,13.86,7.43,27.6,7.43,27.6Z"/><ellipse id="Uhani" class="cls-11" cx="60.46" cy="112.11" rx="3.31" ry="3.59"/><ellipse id="Uhani-2" data-name="Uhani" class="cls-11" cx="145.65" cy="111.98" rx="3.31" ry="3.59"/><path class="cls-12" d="M121,109.61a15.24,15.24,0,0,1-6.56,8.15c-1.24-5.13-23.8-3.14-23.88-3.13a19,19,0,0,1-3.44-5A87.08,87.08,0,0,0,121,109.61Z"/><path class="cls-13" d="M114.4,117.76h0a19.32,19.32,0,0,1-9.33,2.69,18.06,18.06,0,0,1-14.55-5.82C90.6,114.62,113.16,112.63,114.4,117.76Z"/><polygon class="cls-12" points="90.52 114.63 90.52 114.63 90.52 114.63 90.52 114.63"/><polygon id="Hlace" class="cls-1" points="174.61 345.65 174.61 374.07 151.87 585.58 125.89 585.58 109.44 419.81 89.97 585.58 62.79 585.58 41.8 374.07 41.8 345.65 174.61 345.65"/><path id="Obleka" class="cls-4" d="M179.45,303.71c-2.81-21.72-18.64-44.86-16.46-66,10.06-13.45,10.34-43,10.32-47.64,5.6-16.19,11.54-22.68,16.38-23.22,11.84-1.3-17.48-19.41-35.57-19.41H139.18c-4.9,12.4-18.43,21.32-34.35,21.32S75.39,159.8,70.48,147.4H55.55c-18.1,0-47.42,18.11-35.58,19.41,4.78.53,10.63,6.87,16.16,22.59,0,0-.63,34.19,10.58,48.62,2.13,21.07-11,41.59-13.76,63.19L5.22,480.14s21.11,21.27,82.51,0c0,0,41.69,15.8,78.37,0,0,0,30.57,12.67,45.09,0Z"/><path class="cls-14" d="M26.21,312.42c.18-13.08,81,52.32,157.25,0"/></g></g></svg>