<svg xmlns="http://www.w3.org/2000/svg" viewBox="0 0 208.42 659.42"><defs><style>.cls-1{fill:#eed1bf;}.cls-2{fill:#fcc5aa;}.cls-3{fill:#d9dceb;}.cls-4{fill:#074368;}.cls-12,.cls-5{fill:none;stroke-miterlimit:10;}.cls-5{stroke:#c1c0da;stroke-width:1.01px;}.cls-6{fill:#c4463a;}.cls-7{fill:#fff;}.cls-8{fill:#524935;}.cls-9{fill:#c9bcdd;}.cls-10{fill:#ebaf89;}.cls-11{fill:#c1c0da;}.cls-12{stroke:#231f20;stroke-width:0.63px;}.cls-13{fill:#200600;}.cls-14{fill:#d55227;}</style></defs><g id="Layer_2" data-name="Layer 2"><g id="Layer_1-2" data-name="Layer 1"><path id="Koza" class="cls-1" d="M15.41,345.19s-5.89,46.38,25.89,51V344.06Z"/><path id="Koza-2" data-name="Koza" class="cls-1" d="M197.48,353.2s5.88,46.38-25.9,51V352.07Z"/><path id="Vrat" class="cls-2" d="M138.76,165.17c-5.1,12.81-18.42,22-34.07,22-15.37,0-28.5-8.84-33.8-21.31,4-1.14,12.58-5.35,13.09-20.48h35.3S122.52,169.12,138.76,165.17Z"/><path class="cls-3" d="M0,363.07l51.93-2V213.92s-12-61-30.45-27.88Q6.15,278.59,0,363.07Z"/><path class="cls-3" d="M208.42,363.07l-51.94-2V213.92s12-61,30.46-27.88Q202.27,278.59,208.42,363.07Z"/><path id="Koza-3" data-name="Koza" class="cls-1" d="M89.92,635.12l-30.69,4.17c3.61-2.34,5.93-4.17,5.93-4.17Z"/><path id="Koza-4" data-name="Koza" class="cls-1" d="M156.64,639.29,126,635.12h24.77S153,637,156.64,639.29Z"/><path id="cevlje" class="cls-4" d="M89.92,635.12v20.39h-15v-5.82S41.87,661.85,27.36,659c0,0-16.55-2.23,8.86-11.39,19-6.85,22.83-8.27,22.83-8.27l.17,0h0Z"/><path id="cevlje-2" data-name="cevlje" class="cls-4" d="M188.51,659c-14.5,2.87-47.57-9.29-47.57-9.29v5.82H126V635.12l30.69,4.17h0l.17,0s3.83,1.42,22.84,8.27C205.06,656.75,188.51,659,188.51,659Z"/><path class="cls-5" d="M43.14,332c.14-12.11,61.31,48.44,119,0"/><polygon id="Hlace" class="cls-4" points="182.45 358.45 179.01 389.06 151.87 635.12 125.89 635.12 109.44 431.35 89.97 635.12 62.79 635.12 34.76 390.06 30.76 358.45 182.45 358.45"/><path id="Majica" class="cls-6" d="M189.55,185.1c-4.83.58-10.78,7.47-16.38,24.68,0,4.95,2.85,36.81-7.21,51.12-2.17,22.51,13.69,74.46,16.49,97.55-56.74,46.95-147.92,1.63-151.69,0C33.5,335.69,48.69,283,46.58,260.81,35.36,245.47,36,209.12,36,209.12c-5.54-16.71-11.39-23.45-16.16-24C8,183.72,37.32,164.47,55.41,164.47H70.35q.25.69.54,1.35c5.3,12.47,18.43,21.31,33.8,21.31,15.65,0,29-9.15,34.07-22,.1-.23.19-.47.28-.7H154C172.07,164.47,201.39,183.72,189.55,185.1Z"/><path id="Koza-5" data-name="Koza" class="cls-1" d="M100.6,26.6h8.2a37.7,37.7,0,0,1,37.7,37.7v50.06a41.8,41.8,0,0,1-41.8,41.8h0a41.8,41.8,0,0,1-41.8-41.8V64.3a37.7,37.7,0,0,1,37.7-37.7Z"/><path class="cls-7" d="M93.15,87c.09-8-22.94-8.35-23-.31C70,93.93,93.07,94.24,93.15,87Z"/><path class="cls-7" d="M139.44,87c.09-8-22.94-8.35-23-.31C116.33,93.93,139.36,94.24,139.44,87Z"/><ellipse class="cls-8" cx="80.92" cy="86.52" rx="3.81" ry="4.14"/><ellipse class="cls-8" cx="127.92" cy="86.52" rx="3.81" ry="4.14"/><path id="Oci" class="cls-9" d="M68.69,87.14s9.79-10.67,27.1,0C95.79,87.14,80.73,69.06,68.69,87.14Z"/><path id="Oci-2" data-name="Oci" class="cls-9" d="M114.8,87.14s9.78-10.67,27.09,0C141.89,87.14,126.84,69.06,114.8,87.14Z"/><g id="Nos"><path class="cls-10" d="M106.81,114.36a25.86,25.86,0,0,1-8.42-1.91l.47-1.11c2.43,1,9.24,3.13,11.47.7.32-.83-.91-7.54-1.9-12.94-2.1-11.49-2.61-15.2-1.7-16a.82.82,0,0,1,.78-.19l-.3,1.16a.39.39,0,0,0,.38-.14c-.54,1,.94,9.1,2,15,1.86,10.16,2.29,13.22,1.6,14A5.8,5.8,0,0,1,106.81,114.36Z"/></g><path id="Obrve" class="cls-11" d="M96.5,77.73c-16.86-9.24-24.67-.29-24.74-.2l-1.34-1.12c.36-.42,8.81-10.12,26.91-.21Z"/><path id="Obrve-2" data-name="Obrve" class="cls-11" d="M141.48,78.9c-16.87-9.24-24.67-.29-24.74-.2l-1.34-1.12c.35-.42,8.81-10.12,26.91-.2Z"/><g id="ocala"><rect class="cls-12" x="114.19" y="78.14" width="28.9" height="19.11" rx="8.59"/><rect class="cls-12" x="68.51" y="78.14" width="28.9" height="19.11" rx="8.59"/><path class="cls-12" d="M97.4,88.3s10.1-8.28,16.79,0"/><line class="cls-12" x1="62.9" y1="81.06" x2="68.51" y2="87.09"/><line class="cls-12" x1="146.5" y1="80.3" x2="143.09" y2="87.7"/></g><path id="Koza-6" data-name="Koza" class="cls-1" d="M145.79,79.89s10.48-3.19,7.43,13.86-7.43,27.6-7.43,27.6Z"/><path id="Koza-7" data-name="Koza" class="cls-1" d="M64,81.67S53.55,78.49,56.6,95.54,64,123.14,64,123.14Z"/><ellipse id="Uhani" class="cls-6" cx="62.9" cy="119.67" rx="3.31" ry="3.59"/><ellipse id="Uhani-2" data-name="Uhani" class="cls-6" cx="148.1" cy="119.55" rx="3.31" ry="3.59"/><path class="cls-13" d="M123.4,125.59a15.23,15.23,0,0,1-6.56,8.14c-1.23-5.12-23.8-3.13-23.88-3.12a19.27,19.27,0,0,1-3.44-5A87.28,87.28,0,0,0,123.4,125.59Z"/><path class="cls-14" d="M116.84,133.73h0a19.17,19.17,0,0,1-9.32,2.7A18.1,18.1,0,0,1,93,130.61C93,130.6,115.61,128.61,116.84,133.73Z"/><polygon class="cls-13" points="92.96 130.61 92.97 130.61 92.97 130.61 92.96 130.61"/><path id="Lasje" class="cls-11" d="M161.81,53.28h-4.23a30.23,30.23,0,0,1-6.15,6.8c-6.82,5.5-15.41,7.19-24,5.83-2.49-.37-5.09-1-7.72-1.6Q117.33,63.73,115,63l-4.81-1.39c-2-.68-4.2-1.26-6.42-1.76a64.2,64.2,0,0,0-6.82-1.12c-5.55-2.45-10.6.07-15.41,2.85a31,31,0,0,0-3.18,2.57c-2.93,3.89-7.13,6.42-8.38,11.7-.91,1.72-1.74,3.49-2.52,5.3s-1.54,3.63-2.26,5.47c-.46,1.93-.85,3.91-1.18,5.86s-.64,3.91-.92,5.8c0,0-.61-1-1.42-2.75a33.24,33.24,0,0,0-1.25-4A44.49,44.49,0,0,1,56.8,87a28.08,28.08,0,0,1-4.38-4.63,28.79,28.79,0,0,1-4.35-11.23,31.92,31.92,0,0,1-.47-6.19c1.74-16.18,11-33,26.8-38.79,2-.85,4-1.61,6-2.27.62-.2,1.22-.39,1.84-.57-.06-.69-.1-1.38-.1-2.09a21.2,21.2,0,0,1,42.4,0,20.8,20.8,0,0,1-.1,2.1,75,75,0,0,1,12.32,4.57,56.13,56.13,0,0,1,5.34,2.9A47.68,47.68,0,0,1,161.81,53.28Z"/></g></g></svg>