<svg xmlns="http://www.w3.org/2000/svg" viewBox="0 0 277.84 614.55"><defs><style>.cls-1{fill:#eed1bf;}.cls-2{fill:#fcc5aa;}.cls-3{fill:#dce6e0;}.cls-4{fill:#d9dceb;}.cls-5{fill:#00a881;}.cls-17,.cls-18,.cls-6{fill:none;stroke-miterlimit:10;}.cls-6{stroke:#499086;stroke-width:0.95px;}.cls-7{fill:#017dad;}.cls-8{fill:#44515d;}.cls-9{fill:#499086;}.cls-10{fill:#ffebc6;}.cls-11{fill:#fff;}.cls-12{fill:#524935;}.cls-13{fill:#ebaf88;}.cls-14{fill:#ffe6b4;}.cls-15{fill:#301812;}.cls-16{fill:#d55227;}.cls-17,.cls-18{stroke:#231f20;}.cls-17{stroke-width:0.62px;}.cls-18{stroke-width:0.56px;}</style></defs><g id="Layer_2" data-name="Layer 2"><g id="Layer_1-2" data-name="Layer 1"><path id="Koza" class="cls-1" d="M48.6,349.51s-5.53,43.56,24.32,47.94v-49Z"/><path id="Koza-2" data-name="Koza" class="cls-1" d="M244.72,349.57s5.53,43.56-24.32,47.94v-49Z"/><path id="Vrat" class="cls-2" d="M184,138.65l-.21.53c-5.49,13.54-20,23.2-37.1,23.2-17.29,0-32-9.91-37.3-23.71h-.15a18.31,18.31,0,0,0,12.53-7.4,18,18,0,0,0,2-3.72,25.58,25.58,0,0,0,1.79-8.83H164a36.91,36.91,0,0,0,1.89,8.82c1.18,3.37,3.09,7,6.14,9.24C174.87,138.94,178.86,140,184,138.65Z"/><ellipse class="cls-3" cx="138.92" cy="598.72" rx="138.92" ry="15.83"/><path class="cls-4" d="M259.18,350.18l-48.77-2.13v-157s11.28-65,28.6-29.73Q253.41,260.06,259.18,350.18Z"/><path class="cls-4" d="M34.27,350.18,83,348.05v-157s-11.28-65-28.6-29.73Q40,260.06,34.27,350.18Z"/><path id="Pulover" class="cls-5" d="M238.89,160.24l-.41.06c-5.35.94-11.87,8.69-17.95,27.46l10.64,172.85H60.56L72.92,187.76C66.83,169,60.32,161.24,55,160.3l-.41-.06c-12.85-1.45,19-21.59,38.64-21.59h16.22c5.33,13.8,20,23.71,37.3,23.71,17.08,0,31.61-9.66,37.1-23.2.08-.17.14-.34.21-.51h16.22C219.9,138.65,251.74,158.79,238.89,160.24Z"/><line id="Zadrga" class="cls-6" x1="146.73" y1="360.63" x2="146.73" y2="162.38"/><polygon id="Hlace" class="cls-7" points="231.17 360.07 223.09 400.38 197.23 569 168.41 577.01 146.99 399.11 146.73 399.11 122.34 577.01 122.23 577.01 93.48 569.03 68.34 399.6 60.56 360.07 231.17 360.07"/><path class="cls-8" d="M240.49,598.56H168.41V577l28.82-10.22s0,.05,0,.08C196,579.14,206.51,581,206.51,581,250,577,240.49,598.56,240.49,598.56Z"/><path class="cls-8" d="M122.23,577v21.55H50.15S40.64,577,84.13,581c0,0,10.59-1.87,9.27-14.21l.08,0Z"/><circle id="Gumb" class="cls-9" cx="159.1" cy="198.88" r="3.72"/><circle id="Gumb-2" data-name="Gumb" class="cls-9" cx="134.74" cy="198.88" r="3.72"/><circle id="Gumb-3" data-name="Gumb" class="cls-9" cx="159.1" cy="226.92" r="3.72"/><circle id="Gumb-4" data-name="Gumb" class="cls-9" cx="134.74" cy="226.92" r="3.72"/><circle id="Gumb-5" data-name="Gumb" class="cls-9" cx="159.1" cy="254.96" r="3.72"/><circle id="Gumb-6" data-name="Gumb" class="cls-9" cx="134.74" cy="254.96" r="3.72"/><circle id="Gumb-7" data-name="Gumb" class="cls-9" cx="159.1" cy="283.01" r="3.72"/><circle id="Gumb-8" data-name="Gumb" class="cls-9" cx="134.74" cy="283.01" r="3.72"/><circle id="Gumb-9" data-name="Gumb" class="cls-9" cx="159.1" cy="311.05" r="3.72"/><circle id="Gumb-10" data-name="Gumb" class="cls-9" cx="134.74" cy="311.05" r="3.72"/><path id="Koza-3" data-name="Koza" class="cls-1" d="M201.62,67.57a133.55,133.55,0,0,1-7.42,25.57,49.25,49.25,0,0,1-97.41-1.91,155.45,155.45,0,0,1-6.64-24.12c-2.46-12.67,3.11-14.27,6.23-14.23V49.94A44.43,44.43,0,0,1,140.81,5.51h9.66A44.43,44.43,0,0,1,194.9,49.94v4.42C197.39,54.06,204.18,54.37,201.62,67.57Z"/><path id="Brki" class="cls-10" d="M157.38,92.16s18.19,4.35,15.56,23.4S149,134.13,149,134.13s-25.42,1.47-26.06-18.57,12.58-22.48,15.66-23.4Z"/><path class="cls-11" d="M135,61.19c.09-7.57-23.45-7.86-23.54-.28C111.36,67.75,134.9,68,135,61.19Z"/><path class="cls-11" d="M182.3,61.19c.09-7.57-23.45-7.86-23.54-.28C158.68,67.75,182.22,68,182.3,61.19Z"/><circle class="cls-12" cx="122.48" cy="60.77" r="3.89"/><circle class="cls-12" cx="170.53" cy="60.77" r="3.89"/><path id="Oci" class="cls-13" d="M110,61.35s10-10.05,27.7,0C137.68,61.35,122.29,44.33,110,61.35Z"/><path id="Oci-2" data-name="Oci" class="cls-13" d="M157.12,61.35s10-10.05,27.69,0C184.81,61.35,169.43,44.33,157.12,61.35Z"/><path class="cls-1" d="M149.13,57.86l-.4,1.56C148.71,58.35,148.83,57.77,149.13,57.86Z"/><path id="Nos" class="cls-13" d="M148.66,90.58a19.6,19.6,0,0,1-7.44-2l.52-1c2.11,1.07,8,3.28,9.92.75.32-.84-.77-8-1.64-13.82-1.86-12.28-2.3-16.23-1.43-17a.73.73,0,0,1,.71-.14l-.34,1.1a.4.4,0,0,0,.44-.15c-.5,1,.8,9.67,1.76,16,1.62,10.71,2,13.94,1.42,14.7A4.66,4.66,0,0,1,148.66,90.58Z"/><g id="obrve"><path class="cls-14" d="M138.18,53.06c-16.77-8.46-24.37-.64-24.69-.3l-2.12-2c.37-.4,9.28-9.82,28.11-.31Z"/></g><g id="Obrve-2" data-name="Obrve"><g id="Obrve-3" data-name="Obrve"><path id="Obrve-4" data-name="Obrve" class="cls-14" d="M184.16,54.17c-16.9-8.53-24.6-.4-24.68-.32l-2.13-1.94c.37-.41,9.28-9.82,28.11-.32Z"/></g></g><path class="cls-15" d="M165.76,98.61a21.67,21.67,0,0,1-7.34,10.91c-1.39-6.86-26.66-4.2-26.74-4.19a31.31,31.31,0,0,1-3.86-6.72Z"/><path class="cls-16" d="M158.42,109.52h0a19,19,0,0,1-10.44,3.6c-7.92.47-13.15-3.77-16.29-7.79C131.76,105.32,157,102.66,158.42,109.52Z"/><polygon class="cls-15" points="131.68 105.33 131.68 105.33 131.68 105.33 131.68 105.33"/><polygon class="cls-11" points="127.82 98.61 128.9 101 164.95 101 165.76 98.61 127.82 98.61"/><g id="ocala"><path class="cls-17" d="M139.48,61.91s10.32-7.8,17.16,0"/><line class="cls-17" x1="99.19" y1="55.09" x2="109.94" y2="60.77"/><line class="cls-17" x1="196.93" y1="54.87" x2="186.18" y2="61.34"/><circle class="cls-18" cx="124.71" cy="61.91" r="14.77"/><circle class="cls-18" cx="171.41" cy="61.91" r="14.77"/></g><path id="Lasje" class="cls-10" d="M97.4,67.5s-7.43-23.06,0-38,5.63-19.09,46.16-28S196,28.88,196,28.88c-2.93-9.11-16.9-7.35-16.9-7.35s4.7,5.29-8.23,4.85-13.65-10.87-42.26-7.93-24.26,45.79-24.26,45.79Z"/></g></g></svg>