<svg xmlns="http://www.w3.org/2000/svg" xmlns:xlink="http://www.w3.org/1999/xlink" viewBox="0 0 223.67 387.6"><defs><style>.cls-1,.cls-11{fill:none;stroke-miterlimit:10;}.cls-1{stroke:#cd9247;stroke-width:5.67px;}.cls-2{clip-path:url(#clip-path);}.cls-3{fill:#fbc5aa;}.cls-4{fill:#d8dcec;}.cls-5{fill:#eed1bf;}.cls-6{fill:#fff;}.cls-7{fill:#514835;}.cls-8{fill:#cabcdc;}.cls-9{fill:#ebaf89;}.cls-10{fill:#bbb8dc;}.cls-11{stroke:#231f20;stroke-width:0.63px;}.cls-12{fill:#cd9247;}.cls-13{fill:#200600;}.cls-14{fill:#d55227;}</style><clipPath id="clip-path"><circle class="cls-1" cx="111.83" cy="111.83" r="109"/></clipPath></defs><g id="Layer_2" data-name="Layer 2"><g id="Avatar"><g class="cls-2"><path id="Vrat" class="cls-3" d="M147.33,180.81c-5.1,12.81-18.42,22-34.07,22-15.37,0-28.5-8.84-33.8-21.31,4-1.14,12.58-5.35,13.09-20.48h35.3S131.09,184.76,147.33,180.81Z"/><path class="cls-4" d="M8.57,371l51.93-2V229.55s-12-61-30.45-27.87C19.83,263.37,12.73,314.6,8.57,371Z"/><path class="cls-4" d="M217,371l-51.93-2V229.55s12-61,30.45-27.87C205.73,263.37,212.83,314.6,217,371Z"/><path id="Koza" class="cls-5" d="M106.73,43h8.2a37.7,37.7,0,0,1,37.7,37.7v50.06a41.8,41.8,0,0,1-41.8,41.8h0A41.8,41.8,0,0,1,69,130.75V80.68A37.7,37.7,0,0,1,106.73,43Z"/><path class="cls-6" d="M99.28,103.35c.09-8-22.94-8.35-23-.3C76.17,110.31,99.2,110.62,99.28,103.35Z"/><path class="cls-6" d="M145.56,103.35c.09-8-22.93-8.35-23-.3C122.45,110.31,145.48,110.62,145.56,103.35Z"/><ellipse class="cls-7" cx="87.05" cy="102.91" rx="3.81" ry="4.14"/><ellipse class="cls-7" cx="134.05" cy="102.91" rx="3.81" ry="4.14"/><path id="Oci" class="cls-8" d="M74.82,103.52s9.78-10.67,27.09,0C101.91,103.52,86.86,85.44,74.82,103.52Z"/><path id="Oci-2" data-name="Oci" class="cls-8" d="M120.93,103.52s9.78-10.67,27.09,0C148,103.52,133,85.44,120.93,103.52Z"/><g id="Nos"><path class="cls-9" d="M112.94,130.74a25.86,25.86,0,0,1-8.42-1.91l.46-1.1c2.44,1,9.25,3.12,11.48.7.32-.83-.91-7.55-1.9-13-2.1-11.49-2.61-15.2-1.7-16a.83.83,0,0,1,.77-.19l-.3,1.16a.35.35,0,0,0,.38-.14c-.53,1,1,9.1,2,15,1.86,10.16,2.29,13.22,1.6,14A5.8,5.8,0,0,1,112.94,130.74Z"/></g><path id="Obrve" class="cls-10" d="M102.62,94.11c-16.86-9.24-24.66-.29-24.74-.2l-1.33-1.12c.35-.42,8.81-10.12,26.91-.2Z"/><path id="Obrve-2" data-name="Obrve" class="cls-10" d="M147.6,95.29c-16.86-9.25-24.66-.3-24.74-.21L121.53,94c.35-.41,8.81-10.12,26.91-.2Z"/><g id="ocala"><rect class="cls-11" x="120.32" y="94.52" width="28.9" height="19.11" rx="8.59"/><rect class="cls-11" x="74.63" y="94.52" width="28.9" height="19.11" rx="8.59"/><path class="cls-11" d="M103.53,104.69s10.1-8.29,16.79,0"/><line class="cls-11" x1="69.03" y1="97.44" x2="74.63" y2="103.47"/><line class="cls-11" x1="152.62" y1="96.68" x2="149.22" y2="104.08"/></g><path id="Lasje" class="cls-10" d="M79.17,81.22c5.19-8,11.87-14.33,20.73-17.15a25.11,25.11,0,0,1,4.16-.9,23.3,23.3,0,0,1,4.26-.15,43.92,43.92,0,0,1,6,.18,47,47,0,0,1,6,1,26.42,26.42,0,0,1,5.08,1.51c14.12,4.83,19.12,21.14,21.35,35.29.3,1.85.52,3.67.67,5.44.43,1.42.83,2.81,1.21,4.22s.72,2.81,1,4.23c.64,2.84,1.16,5.7,1.58,8.63.43,2.15.76,4.28,1,6.41s.38,4.23.45,6.35c1.71,11.78-.55,23.42,1.71,35.07,11.29-4.91,15.8-19,15.47-31.39.15-2.59.25-5.21.35-7.75.24-3.18.36-6.36.44-9.45s.16-6.4.14-9.59c-.06-9.56-.62-19-.63-27.43-.4-3.27-.91-6.51-1.56-9.73s-1.41-6.41-2.33-9.57a54.07,54.07,0,0,0-4.56-7.5,56.69,56.69,0,0,0-5.52-6.5A67.78,67.78,0,0,0,115.4,33.07a47.21,47.21,0,0,0-9.72-.68,46.46,46.46,0,0,0-9.37,1.27,49.24,49.24,0,0,0-15.52,6.67,52.57,52.57,0,0,0-6.72,5.19,49.5,49.5,0,0,0-6,7,65.39,65.39,0,0,0-4.39,7.6c-.65,1.31-1.25,2.64-1.82,4s-1.1,2.71-1.6,4.09C58.5,76.85,55.16,85,55,94q-.3,3.28-.44,6.59a169.54,169.54,0,0,0,2.11,32.93c.63,4.92,1.34,9.53,2.06,13.68,2.13,12.46,4.32,20.82,4.32,20.82a17.42,17.42,0,0,0,7.66.06,9.84,9.84,0,0,0,5.44-4.28c1.39-4.16,3.08-9.06,1.56-14.24-.33-2.54-.8-5-1.2-7.18-.31-2.79-.64-5.87-1-9.15-.61-6.14-1.28-12.41-1.58-18.67-.1-2.09-.15-4.18-.13-6.25,1.34-6.12.5-12.46,3.46-19.16A54.48,54.48,0,0,1,79.17,81.22Z"/><path id="Koza-2" data-name="Koza" class="cls-5" d="M151.92,96.27s10.48-3.19,7.43,13.86-7.43,27.6-7.43,27.6Z"/><path id="Koza-3" data-name="Koza" class="cls-5" d="M70.16,98.06s-10.48-3.19-7.43,13.86,7.43,27.6,7.43,27.6Z"/><ellipse id="Uhani" class="cls-12" cx="69.03" cy="136.06" rx="3.31" ry="3.59"/><ellipse id="Uhani-2" data-name="Uhani" class="cls-12" cx="154.22" cy="135.93" rx="3.31" ry="3.59"/><path class="cls-13" d="M129.53,142a15.2,15.2,0,0,1-6.56,8.14C121.73,145,99.17,147,99.09,147a19.27,19.27,0,0,1-3.44-5A87.28,87.28,0,0,0,129.53,142Z"/><path class="cls-14" d="M123,150.11h0a19.21,19.21,0,0,1-9.33,2.7A18.06,18.06,0,0,1,99.09,147C99.17,147,121.73,145,123,150.11Z"/><polygon class="cls-13" points="99.09 146.99 99.09 146.99 99.09 146.99 99.09 146.99"/><path id="Majica" class="cls-12" d="M198.12,200.74c-4.83.58-10.78,7.47-16.38,24.68,0,5,2.85,29.09-7.21,43.4-2.17,22.51,5.85,74.46,8.65,97.55-56.74,46.95-129,1.63-132.81,0,2.74-22.76,6.89-75.42,4.78-97.64-11.22-15.34-10.58-44-10.58-44-5.54-16.71-11.39-23.45-16.16-24C16.57,199.36,45.89,180.11,64,180.11H78.92q.26.69.54,1.35c5.3,12.47,18.43,21.31,33.8,21.31,15.65,0,29-9.15,34.07-22,.1-.23.19-.47.28-.7h14.94C180.64,180.11,210,199.36,198.12,200.74Z"/></g><circle class="cls-1" cx="111.83" cy="111.83" r="109"/></g></g></svg>