<svg xmlns="http://www.w3.org/2000/svg" xmlns:xlink="http://www.w3.org/1999/xlink" viewBox="0 0 277.84 775.86"><defs><style>.cls-1{fill:none;stroke:#00a881;stroke-width:5.67px;}.cls-1,.cls-16,.cls-17,.cls-7{stroke-miterlimit:10;}.cls-2{clip-path:url(#clip-path);}.cls-3{fill:#dce6e0;}.cls-4{fill:#fbc5aa;}.cls-5{fill:#d8dcec;}.cls-6,.cls-7{fill:#00a881;}.cls-7{stroke:#489086;stroke-width:0.95px;}.cls-8{fill:#007dac;}.cls-16,.cls-17,.cls-9{fill:#eed1bf;}.cls-10{fill:#44515c;}.cls-11{fill:#489086;}.cls-12{fill:#fff;}.cls-13{fill:#514835;}.cls-14{fill:#ebaf82;}.cls-15{fill:#ffebc6;}.cls-16{stroke:#ebaf82;stroke-width:1.15px;}.cls-17{stroke:#ffe6b4;stroke-width:2.89px;}.cls-18{fill:#5a3b34;}.cls-19{fill:#d55225;}</style><clipPath id="clip-path" transform="translate(34.01)"><circle class="cls-1" cx="111.83" cy="111.83" r="109"/></clipPath></defs><g id="Layer_2" data-name="Layer 2"><g id="Avatar"><g class="cls-2"><ellipse class="cls-3" cx="138.92" cy="760.03" rx="138.92" ry="15.83"/><path class="cls-4" d="M75.27,181.43s15.63-1.17,16.35-20H130s1.57,24.55,19.87,20l-1.65,14.1-37.39,14.89-32.48-8.71L70.43,186Z" transform="translate(34.01)"/><path class="cls-5" d="M225.18,392.93l-48.77-2.13v-157s11.27-65,28.6-29.73Q219.41,302.83,225.18,392.93Z" transform="translate(34.01)"/><path class="cls-5" d="M.26,392.93,49,390.8v-157s-11.27-65-28.6-29.73Q6,302.83.26,392.93Z" transform="translate(34.01)"/><path class="cls-6" d="M166.25,181.43H150c-5.32,13.79-20,23.71-37.3,23.71s-32-9.92-37.3-23.71H59.19c-19.65,0-51.49,20.14-38.63,21.59,5.41.61,12.11,8.26,18.35,27.51V403.39H186.52V230.53c6.25-19.25,12.95-26.9,18.36-27.51C217.74,201.57,185.89,181.43,166.25,181.43Z" transform="translate(34.01)"/><line class="cls-7" x1="146.73" y1="403.39" x2="146.73" y2="205.14"/><rect class="cls-8" x="72.92" y="403.39" width="147.48" height="49.8"/><polygon class="cls-8" points="146.73 452.83 122.34 738.32 94.45 738.32 72.92 452.83 146.73 452.83"/><polygon class="cls-8" points="220.4 452.83 196.14 738.32 168.41 738.32 146.99 452.83 220.4 452.83"/><path class="cls-9" d="M14.59,392.27S9.07,435.83,38.91,440.2v-49Z" transform="translate(34.01)"/><path class="cls-9" d="M210.72,392.33s5.52,43.56-24.32,47.93v-49Z" transform="translate(34.01)"/><path class="cls-10" d="M134.4,738.32v21.54h72.08s9.51-21.59-34-17.55c0,0-10.59-1.88-9.27-14.22" transform="translate(34.01)"/><path class="cls-10" d="M88.22,738.32v21.54H16.15s-9.51-21.59,34-17.55c0,0,10.6-1.88,9.28-14.22" transform="translate(34.01)"/><circle class="cls-11" cx="159.1" cy="241.63" r="3.72"/><circle class="cls-11" cx="134.74" cy="241.63" r="3.72"/><circle class="cls-11" cx="159.1" cy="269.68" r="3.72"/><circle class="cls-11" cx="134.74" cy="269.68" r="3.72"/><circle class="cls-11" cx="159.1" cy="297.72" r="3.72"/><circle class="cls-11" cx="134.74" cy="297.72" r="3.72"/><circle class="cls-11" cx="159.1" cy="325.76" r="3.72"/><circle class="cls-11" cx="134.74" cy="325.76" r="3.72"/><circle class="cls-11" cx="159.1" cy="353.8" r="3.72"/><circle class="cls-11" cx="134.74" cy="353.8" r="3.72"/><path class="cls-9" d="M62.5,94.94s-11.49-3.22-8.15,14S62.5,136.8,62.5,136.8Z" transform="translate(34.01)"/><path class="cls-9" d="M139,47.33h9.66a44.43,44.43,0,0,1,44.43,44.43v35A49.26,49.26,0,0,1,143.85,176h0a49.26,49.26,0,0,1-49.26-49.26v-35A44.43,44.43,0,0,1,139,47.33Z"/><path class="cls-12" d="M99.19,103c.09-7.57-23.45-7.86-23.54-.28C75.57,109.57,99.11,109.85,99.19,103Z" transform="translate(34.01)"/><path class="cls-12" d="M146.51,103c.09-7.57-23.45-7.86-23.55-.28C122.88,109.57,146.42,109.85,146.51,103Z" transform="translate(34.01)"/><circle class="cls-13" cx="120.69" cy="102.59" r="3.89"/><circle class="cls-13" cx="168.74" cy="102.59" r="3.89"/><path class="cls-14" d="M74.19,103.17s10-10,27.69,0C101.88,103.17,86.5,86.15,74.19,103.17Z" transform="translate(34.01)"/><path class="cls-14" d="M121.32,103.17s10-10,27.7,0C149,103.17,133.63,86.15,121.32,103.17Z" transform="translate(34.01)"/><path class="cls-15" d="M101.52,129.93c-5.25,2.49-8.27,6.06-9.49,10.5H130c-1.31-4.07-4.76-7.52-9.89-10.5Z" transform="translate(34.01)"/><path class="cls-16" d="M105.69,129.84s8,4,10.64.58c1.13-1.49-5-31.36-3-30.73" transform="translate(34.01)"/><path class="cls-17" d="M76.64,93.6s8.32-9.13,26.4,0" transform="translate(34.01)"/><path class="cls-17" d="M122.62,94.7s8.32-9.12,26.4,0" transform="translate(34.01)"/><path class="cls-18" d="M130,140.43a20.58,20.58,0,0,1-7.34,10.91c-1.39-6.86-26.65-4.2-26.74-4.19A26.59,26.59,0,0,1,92,140.43Z" transform="translate(34.01)"/><path class="cls-19" d="M122.62,151.34h0a19,19,0,0,1-10.44,3.6c-7.92.47-13.15-3.77-16.29-7.79C96,147.14,121.23,144.48,122.62,151.34Z" transform="translate(34.01)"/><polygon class="cls-18" points="129.89 147.15 129.89 147.15 129.89 147.15 129.89 147.15"/><path class="cls-9" d="M158.23,96.34s10.71-3,7.59,13.06-7.59,26-7.59,26Z" transform="translate(34.01)"/><polygon class="cls-12" points="126.03 140.43 127.11 142.82 163.16 142.82 163.97 140.43 126.03 140.43"/></g><circle class="cls-1" cx="145.84" cy="111.83" r="109"/></g></g></svg>