<svg xmlns="http://www.w3.org/2000/svg" xmlns:xlink="http://www.w3.org/1999/xlink" viewBox="0 0 277.84 767.86"><defs><style>.cls-1{fill:none;stroke:#0054a6;stroke-width:5.67px;}.cls-1,.cls-15,.cls-16,.cls-7{stroke-miterlimit:10;}.cls-2{clip-path:url(#clip-path);}.cls-3{fill:#dce6e0;}.cls-4{fill:#fbc5aa;}.cls-5{fill:#d8dcec;}.cls-6,.cls-7{fill:#0054a6;}.cls-7{stroke:#003d7b;stroke-width:0.95px;}.cls-8{fill:#007dac;}.cls-15,.cls-16,.cls-9{fill:#eed1bf;}.cls-10{fill:#44515c;}.cls-11{fill:#003d7b;}.cls-12{fill:#fff;}.cls-13{fill:#514835;}.cls-14{fill:#ebaf82;}.cls-15{stroke:#ebaf82;stroke-width:1.15px;}.cls-16{stroke:#ffe6b4;stroke-width:2.89px;}.cls-17{fill:#ffebc6;}.cls-18{fill:#5a3b34;}.cls-19{fill:#d55225;}</style><clipPath id="clip-path" transform="translate(36.01)"><circle class="cls-1" cx="111.83" cy="111.83" r="109"/></clipPath></defs><g id="Layer_2" data-name="Layer 2"><g id="Avatar"><g class="cls-2"><ellipse class="cls-3" cx="138.92" cy="752.03" rx="138.92" ry="15.83"/><path class="cls-4" d="M73.27,173.43s15.63-1.17,16.35-20H128s1.57,24.55,19.87,20l-1.65,14.1-37.39,14.89-32.48-8.71L68.43,178Z" transform="translate(36.01)"/><path class="cls-5" d="M223.18,384.93l-48.77-2.13v-157s11.27-65,28.6-29.73Q217.41,294.83,223.18,384.93Z" transform="translate(36.01)"/><path class="cls-5" d="M-1.74,384.93,47,382.8v-157s-11.27-65-28.6-29.73Q4,294.83-1.74,384.93Z" transform="translate(36.01)"/><path class="cls-6" d="M164.25,173.43H148c-5.32,13.79-20,23.71-37.3,23.71s-32-9.92-37.3-23.71H57.19c-19.65,0-51.49,20.14-38.63,21.59,5.41.61,12.11,8.26,18.35,27.51V395.39H184.52V222.53c6.25-19.25,12.95-26.9,18.36-27.51C215.74,193.57,183.89,173.43,164.25,173.43Z" transform="translate(36.01)"/><line class="cls-7" x1="146.73" y1="395.39" x2="146.73" y2="197.14"/><rect class="cls-8" x="72.92" y="395.39" width="147.48" height="49.8"/><polygon class="cls-8" points="146.73 444.83 122.34 730.32 94.45 730.32 72.92 444.83 146.73 444.83"/><polygon class="cls-8" points="220.4 444.83 196.14 730.32 168.41 730.32 146.99 444.83 220.4 444.83"/><path class="cls-9" d="M12.59,384.27S7.07,427.83,36.91,432.2v-49Z" transform="translate(36.01)"/><path class="cls-9" d="M208.72,384.33s5.52,43.56-24.32,47.93v-49Z" transform="translate(36.01)"/><path class="cls-10" d="M132.4,730.32v21.54h72.08s9.51-21.59-34-17.55c0,0-10.59-1.88-9.27-14.22" transform="translate(36.01)"/><path class="cls-10" d="M86.22,730.32v21.54H14.15s-9.51-21.59,34-17.55c0,0,10.6-1.88,9.28-14.22" transform="translate(36.01)"/><circle class="cls-11" cx="159.1" cy="233.63" r="3.72"/><circle class="cls-11" cx="134.74" cy="233.63" r="3.72"/><circle class="cls-11" cx="159.1" cy="261.68" r="3.72"/><circle class="cls-11" cx="134.74" cy="261.68" r="3.72"/><circle class="cls-11" cx="159.1" cy="289.72" r="3.72"/><circle class="cls-11" cx="134.74" cy="289.72" r="3.72"/><circle class="cls-11" cx="159.1" cy="317.76" r="3.72"/><circle class="cls-11" cx="134.74" cy="317.76" r="3.72"/><circle class="cls-11" cx="159.1" cy="345.8" r="3.72"/><circle class="cls-11" cx="134.74" cy="345.8" r="3.72"/><path class="cls-9" d="M60.5,88.94s-11.49-3.22-8.15,14S60.5,130.8,60.5,130.8Z" transform="translate(36.01)"/><path class="cls-9" d="M139,41.33h9.66a44.43,44.43,0,0,1,44.43,44.43v35A49.26,49.26,0,0,1,143.85,170h0a49.26,49.26,0,0,1-49.26-49.26v-35A44.43,44.43,0,0,1,139,41.33Z"/><path class="cls-12" d="M97.19,97c.09-7.57-23.45-7.86-23.54-.28C73.57,103.57,97.11,103.85,97.19,97Z" transform="translate(36.01)"/><path class="cls-12" d="M144.51,97c.09-7.57-23.45-7.86-23.55-.28C120.88,103.57,144.42,103.85,144.51,97Z" transform="translate(36.01)"/><circle class="cls-13" cx="120.69" cy="96.59" r="3.89"/><circle class="cls-13" cx="168.74" cy="96.59" r="3.89"/><path class="cls-14" d="M72.19,97.17s10-10,27.69,0C99.88,97.17,84.5,80.15,72.19,97.17Z" transform="translate(36.01)"/><path class="cls-14" d="M119.32,97.17s10-10,27.7,0C147,97.17,131.63,80.15,119.32,97.17Z" transform="translate(36.01)"/><path class="cls-15" d="M103.69,123.84s8,4,10.64.58c1.13-1.49-5-31.36-3-30.73" transform="translate(36.01)"/><path class="cls-16" d="M74.64,87.6s8.32-9.13,26.4,0" transform="translate(36.01)"/><path class="cls-16" d="M120.62,88.7s8.32-9.12,26.4,0" transform="translate(36.01)"/><path class="cls-9" d="M156.23,90.34s10.71-3,7.59,13.06-7.59,26-7.59,26Z" transform="translate(36.01)"/><path class="cls-17" d="M167,188.47s-5.66-1.24-9.71-14c-9.94-9.12-23.41-12.62-23.41-12.62,8.48-5,15.47-20,19.47-27.38.15-6,.53-12.66,1.19-20.06,6.11-68.52-42.12-48.7-44.17-48.56h0c-2-.14-50.22-20-44.11,48.56.65,7.35,1,14,1.19,19.94,5.47,9.14,12.43,26.5,12.43,26.5C74,157.06,71,161.06,64.69,170c-4,16.94-10.94,18.45-10.94,18.45S25,16.55,110.35,23.42C195.72,16.56,167,188.47,167,188.47Z" transform="translate(36.01)"/><path id="Brki2" class="cls-17" d="M119.38,127.83s18.2,4.36,15.57,23.41S111,169.81,111,169.81s-25.43,1.47-26.06-18.57,12.57-22.49,15.66-23.41Z" transform="translate(36.01)"/><path class="cls-18" d="M128,134.43a20.58,20.58,0,0,1-7.34,10.91c-1.39-6.86-26.65-4.2-26.74-4.19A26.59,26.59,0,0,1,90,134.43Z" transform="translate(36.01)"/><path class="cls-19" d="M120.62,145.34h0a19,19,0,0,1-10.44,3.6c-7.92.47-13.15-3.77-16.29-7.79C94,141.14,119.23,138.48,120.62,145.34Z" transform="translate(36.01)"/><polygon class="cls-18" points="129.89 141.15 129.89 141.15 129.89 141.15 129.89 141.15"/><polygon class="cls-12" points="126.03 134.43 127.11 136.82 163.16 136.82 163.97 134.43 126.03 134.43"/></g><circle class="cls-1" cx="147.84" cy="111.83" r="109"/></g></g></svg>