<svg xmlns="http://www.w3.org/2000/svg" xmlns:xlink="http://www.w3.org/1999/xlink" viewBox="0 0 277.84 770.86"><defs><style>.cls-1{fill:none;stroke:#0054a6;stroke-width:5.67px;}.cls-1,.cls-15,.cls-16,.cls-7{stroke-miterlimit:10;}.cls-2{clip-path:url(#clip-path);}.cls-3{fill:#dce6e0;}.cls-4{fill:#fbc5aa;}.cls-5{fill:#d8dcec;}.cls-6,.cls-7{fill:#0054a6;}.cls-7{stroke:#003d7b;stroke-width:0.95px;}.cls-8{fill:#007dac;}.cls-15,.cls-16,.cls-9{fill:#eed1bf;}.cls-10{fill:#44515c;}.cls-11{fill:#003d7b;}.cls-12{fill:#fff;}.cls-13{fill:#514835;}.cls-14{fill:#ebaf82;}.cls-15{stroke:#ebaf82;stroke-width:1.15px;}.cls-16{stroke:#ffe6b4;stroke-width:2.89px;}.cls-17{fill:#ffebc6;}.cls-18{fill:#5a3b34;}.cls-19{fill:#d55225;}</style><clipPath id="clip-path" transform="translate(35.01)"><circle class="cls-1" cx="111.83" cy="111.83" r="109"/></clipPath></defs><g id="Layer_2" data-name="Layer 2"><g id="Avatar"><g class="cls-2"><ellipse class="cls-3" cx="138.92" cy="755.03" rx="138.92" ry="15.83"/><path class="cls-4" d="M74.27,176.43s15.63-1.17,16.35-20H129s1.57,24.55,19.87,20l-1.65,14.1-37.39,14.89-32.48-8.71L69.43,181Z" transform="translate(35.01)"/><path class="cls-5" d="M224.18,387.93l-48.77-2.13v-157s11.27-65,28.6-29.73Q218.41,297.83,224.18,387.93Z" transform="translate(35.01)"/><path class="cls-5" d="M-.74,387.93,48,385.8v-157s-11.27-65-28.6-29.73Q5,297.83-.74,387.93Z" transform="translate(35.01)"/><path class="cls-6" d="M165.25,176.43H149c-5.32,13.79-20,23.71-37.3,23.71s-32-9.92-37.3-23.71H58.19c-19.65,0-51.49,20.14-38.63,21.59,5.41.61,12.11,8.26,18.35,27.51V398.39H185.52V225.53c6.25-19.25,12.95-26.9,18.36-27.51C216.74,196.57,184.89,176.43,165.25,176.43Z" transform="translate(35.01)"/><line class="cls-7" x1="146.73" y1="398.39" x2="146.73" y2="200.14"/><rect class="cls-8" x="72.92" y="398.39" width="147.48" height="49.8"/><polygon class="cls-8" points="146.73 447.83 122.34 733.32 94.45 733.32 72.92 447.83 146.73 447.83"/><polygon class="cls-8" points="220.4 447.83 196.14 733.32 168.41 733.32 146.99 447.83 220.4 447.83"/><path class="cls-9" d="M13.59,387.27S8.07,430.83,37.91,435.2v-49Z" transform="translate(35.01)"/><path class="cls-9" d="M209.72,387.33s5.52,43.56-24.32,47.93v-49Z" transform="translate(35.01)"/><path class="cls-10" d="M133.4,733.32v21.54h72.08s9.51-21.59-34-17.55c0,0-10.59-1.88-9.27-14.22" transform="translate(35.01)"/><path class="cls-10" d="M87.22,733.32v21.54H15.15s-9.51-21.59,34-17.55c0,0,10.6-1.88,9.28-14.22" transform="translate(35.01)"/><circle class="cls-11" cx="159.1" cy="236.63" r="3.72"/><circle class="cls-11" cx="134.74" cy="236.63" r="3.72"/><circle class="cls-11" cx="159.1" cy="264.68" r="3.72"/><circle class="cls-11" cx="134.74" cy="264.68" r="3.72"/><circle class="cls-11" cx="159.1" cy="292.72" r="3.72"/><circle class="cls-11" cx="134.74" cy="292.72" r="3.72"/><circle class="cls-11" cx="159.1" cy="320.76" r="3.72"/><circle class="cls-11" cx="134.74" cy="320.76" r="3.72"/><circle class="cls-11" cx="159.1" cy="348.8" r="3.72"/><circle class="cls-11" cx="134.74" cy="348.8" r="3.72"/><path class="cls-9" d="M61.5,90.94s-11.49-3.22-8.15,14S61.5,132.8,61.5,132.8Z" transform="translate(35.01)"/><path class="cls-9" d="M139,43.33h9.66a44.43,44.43,0,0,1,44.43,44.43v35A49.26,49.26,0,0,1,143.85,172h0a49.26,49.26,0,0,1-49.26-49.26v-35A44.43,44.43,0,0,1,139,43.33Z"/><path class="cls-12" d="M98.19,99c.09-7.57-23.45-7.86-23.54-.28C74.57,105.57,98.11,105.85,98.19,99Z" transform="translate(35.01)"/><path class="cls-12" d="M145.51,99c.09-7.57-23.45-7.86-23.55-.28C121.88,105.57,145.42,105.85,145.51,99Z" transform="translate(35.01)"/><circle class="cls-13" cx="120.69" cy="98.59" r="3.89"/><circle class="cls-13" cx="168.74" cy="98.59" r="3.89"/><path class="cls-14" d="M73.19,99.17s10-10,27.69,0C100.88,99.17,85.5,82.15,73.19,99.17Z" transform="translate(35.01)"/><path class="cls-14" d="M120.32,99.17s10-10,27.7,0C148,99.17,132.63,82.15,120.32,99.17Z" transform="translate(35.01)"/><path class="cls-15" d="M104.69,125.84s8,4,10.64.58c1.13-1.49-5-31.36-3-30.73" transform="translate(35.01)"/><path class="cls-16" d="M75.64,89.6s8.32-9.13,26.4,0" transform="translate(35.01)"/><path class="cls-16" d="M121.62,90.7s8.32-9.12,26.4,0" transform="translate(35.01)"/><path class="cls-9" d="M157.23,92.34s10.71-3,7.59,13.06-7.59,26-7.59,26Z" transform="translate(35.01)"/><path class="cls-17" d="M168,190.47s-5.66-1.24-9.71-14c-9.94-9.12-23.41-12.62-23.41-12.62,8.48-5,15.47-20,19.47-27.38.15-6,.53-12.66,1.19-20.06,6.11-68.52-42.12-48.7-44.17-48.56h0c-2-.14-50.22-20-44.11,48.56.65,7.35,1,14,1.19,19.94,5.47,9.14,12.43,26.5,12.43,26.5C75,159.06,72,163.06,65.69,172c-4,16.94-10.94,18.45-10.94,18.45S26,18.55,111.35,25.42C196.72,18.56,168,190.47,168,190.47Z" transform="translate(35.01)"/><path class="cls-18" d="M129,136.43a20.58,20.58,0,0,1-7.34,10.91c-1.39-6.86-26.65-4.2-26.74-4.19A26.59,26.59,0,0,1,91,136.43Z" transform="translate(35.01)"/><path class="cls-19" d="M121.62,147.34h0a19,19,0,0,1-10.44,3.6c-7.92.47-13.15-3.77-16.29-7.79C95,143.14,120.23,140.48,121.62,147.34Z" transform="translate(35.01)"/><polygon class="cls-18" points="129.89 143.15 129.89 143.15 129.89 143.15 129.89 143.15"/><polygon class="cls-12" points="126.03 136.43 127.11 138.82 163.16 138.82 163.97 136.43 126.03 136.43"/></g><circle class="cls-1" cx="146.84" cy="111.83" r="109"/></g></g></svg>