<svg xmlns="http://www.w3.org/2000/svg" viewBox="0 0 277.84 622.85"><defs><style>.cls-1{fill:#fcc5aa;}.cls-2{fill:#dce6e0;}.cls-3{fill:#d9dceb;}.cls-4{fill:#00a881;}.cls-17,.cls-18,.cls-5{fill:none;stroke-miterlimit:10;}.cls-5{stroke:#499086;stroke-width:0.95px;}.cls-6{fill:#017dad;}.cls-7{fill:#eed1bf;}.cls-8{fill:#44515d;}.cls-9{fill:#499086;}.cls-10{fill:#fff;}.cls-11{fill:#524935;}.cls-12{fill:#ebaf88;}.cls-13{fill:#ffebc6;}.cls-14{fill:#ffe6b4;}.cls-15{fill:#301812;}.cls-16{fill:#d55227;}.cls-17,.cls-18{stroke:#231f20;}.cls-17{stroke-width:0.62px;}.cls-18{stroke-width:0.56px;}</style></defs><g id="Layer_2" data-name="Layer 2"><g id="Layer_1-2" data-name="Layer 1"><path id="Vrat" class="cls-1" d="M184,146.63l-.21.53c-5.49,13.54-20,23.2-37.1,23.2-17.29,0-32-9.91-37.3-23.71h-.15a18.31,18.31,0,0,0,12.53-7.4,18,18,0,0,0,2-3.72,25.58,25.58,0,0,0,1.79-8.83H164a36.91,36.91,0,0,0,1.89,8.82c1.18,3.37,3.09,6.95,6.14,9.24C174.87,146.92,178.86,147.93,184,146.63Z"/><ellipse class="cls-2" cx="138.92" cy="607.02" rx="138.92" ry="15.83"/><path class="cls-3" d="M259.18,358.16,210.41,356v-157s11.28-65,28.6-29.73Q253.41,268,259.18,358.16Z"/><path class="cls-3" d="M34.27,358.16,83,356v-157s-11.28-65-28.6-29.73Q40,268,34.27,358.16Z"/><path id="Pulover" class="cls-4" d="M238.89,168.22l-.41.06c-5.35.94-11.87,8.69-17.95,27.46V368.59H72.92V195.74c-6.09-18.77-12.6-26.52-18-27.46l-.41-.06c-12.85-1.45,19-21.59,38.64-21.59h16.22c5.33,13.8,20,23.71,37.3,23.71,17.08,0,31.61-9.66,37.1-23.2.08-.17.14-.34.21-.51h16.22C219.9,146.63,251.74,166.77,238.89,168.22Z"/><line id="Zadrga" class="cls-5" x1="146.73" y1="368.61" x2="146.73" y2="170.36"/><polygon id="Hlace" class="cls-6" points="220.4 368.24 220.4 407.28 197.23 577.3 168.41 585.31 146.99 407.28 146.73 407.28 122.34 585.31 122.23 585.31 93.48 577.32 72.92 407.28 72.92 368.24 220.4 368.24"/><path id="Koza" class="cls-7" d="M48.6,357.49s-5.53,43.56,24.32,47.94v-49Z"/><path id="Koza-2" data-name="Koza" class="cls-7" d="M244.72,357.55s5.53,43.56-24.32,47.94v-49Z"/><path class="cls-8" d="M240.49,606.86H168.41V585.31l28.82-10.22s0,0,0,.08c-1.25,12.27,9.29,14.13,9.29,14.13C250,585.26,240.49,606.86,240.49,606.86Z"/><path class="cls-8" d="M122.23,585.31v21.55H50.15s-9.51-21.6,34-17.56c0,0,10.59-1.87,9.27-14.21l.08,0Z"/><circle id="Gumb" class="cls-9" cx="159.1" cy="206.86" r="3.72"/><circle id="Gumb-2" data-name="Gumb" class="cls-9" cx="134.74" cy="206.86" r="3.72"/><circle id="Gumb-3" data-name="Gumb" class="cls-9" cx="159.1" cy="234.9" r="3.72"/><circle id="Gumb-4" data-name="Gumb" class="cls-9" cx="134.74" cy="234.9" r="3.72"/><circle id="Gumb-5" data-name="Gumb" class="cls-9" cx="159.1" cy="262.94" r="3.72"/><circle id="Gumb-6" data-name="Gumb" class="cls-9" cx="134.74" cy="262.94" r="3.72"/><circle id="Gumb-7" data-name="Gumb" class="cls-9" cx="159.1" cy="290.99" r="3.72"/><circle id="Gumb-8" data-name="Gumb" class="cls-9" cx="134.74" cy="290.99" r="3.72"/><circle id="Gumb-9" data-name="Gumb" class="cls-9" cx="159.1" cy="319.03" r="3.72"/><circle id="Gumb-10" data-name="Gumb" class="cls-9" cx="134.74" cy="319.03" r="3.72"/><path id="Koza-3" data-name="Koza" class="cls-7" d="M202.41,67.57A133.55,133.55,0,0,1,195,93.14a49.25,49.25,0,0,1-97.41-1.91,155.45,155.45,0,0,1-6.64-24.12c-2.46-12.67,3.11-14.27,6.23-14.23V49.94A44.43,44.43,0,0,1,141.6,5.51h9.66a44.43,44.43,0,0,1,44.43,44.43v4.42C198.18,54.06,205,54.37,202.41,67.57Z"/><path class="cls-10" d="M135.77,61.19c.09-7.57-23.45-7.86-23.54-.28C112.15,67.75,135.69,68,135.77,61.19Z"/><path class="cls-10" d="M183.09,61.19c.09-7.57-23.45-7.86-23.54-.28C159.46,67.75,183,68,183.09,61.19Z"/><circle class="cls-11" cx="123.27" cy="60.77" r="3.89"/><circle class="cls-11" cx="171.32" cy="60.77" r="3.89"/><path id="Oci" class="cls-12" d="M110.77,61.35s10-10.05,27.69,0C138.46,61.35,123.08,44.33,110.77,61.35Z"/><path id="Oci-2" data-name="Oci" class="cls-12" d="M157.9,61.35s10-10.05,27.7,0C185.6,61.35,170.21,44.33,157.9,61.35Z"/><path id="Brki" class="cls-13" d="M166.55,98.6H128.61c1.23-4.43,4.24-8,9.5-10.49h4.36c1.25.59,8.06,3.63,10.44.49a1.07,1.07,0,0,0,.12-.49h3.62C161.78,91.08,165.23,94.54,166.55,98.6Z"/><path class="cls-7" d="M149.92,57.86l-.4,1.56C149.5,58.35,149.62,57.77,149.92,57.86Z"/><path id="Nos" class="cls-12" d="M149.45,90.58a19.47,19.47,0,0,1-7.44-2l.52-1c2.11,1.07,8,3.28,9.92.75.32-.84-.77-8-1.65-13.82-1.85-12.28-2.29-16.23-1.43-17a.75.75,0,0,1,.72-.14l-.35,1.1a.4.4,0,0,0,.44-.15c-.5,1,.81,9.67,1.76,16,1.62,10.71,2,13.94,1.43,14.7A4.67,4.67,0,0,1,149.45,90.58Z"/><g id="obrve"><path class="cls-14" d="M139,53.06c-16.77-8.46-24.37-.64-24.69-.3l-2.13-2c.37-.4,9.28-9.82,28.12-.31Z"/></g><g id="Obrve-2" data-name="Obrve"><g id="Obrve-3" data-name="Obrve"><path id="Obrve-4" data-name="Obrve" class="cls-14" d="M185,54.17c-16.9-8.53-24.61-.4-24.69-.32l-2.13-1.94c.37-.41,9.28-9.82,28.12-.32Z"/></g></g><path class="cls-15" d="M166.55,98.61c-.09,0-1.53,6.58-7.35,10.91-1.38-6.86-26.65-4.2-26.74-4.19a31,31,0,0,1-3.85-6.72Z"/><path class="cls-16" d="M159.2,109.52h0a19,19,0,0,1-10.43,3.6c-7.93.47-13.15-3.77-16.3-7.79C132.55,105.32,157.82,102.66,159.2,109.52Z"/><polygon class="cls-15" points="132.46 105.33 132.46 105.33 132.46 105.33 132.46 105.33"/><polygon class="cls-10" points="128.61 98.61 129.69 101 165.73 101 166.54 98.61 128.61 98.61"/><g id="ocala"><path class="cls-17" d="M140.26,61.91s10.32-7.8,17.16,0"/><line class="cls-17" x1="99.97" y1="55.09" x2="110.72" y2="60.77"/><line class="cls-17" x1="197.71" y1="54.87" x2="186.96" y2="61.34"/><circle class="cls-18" cx="125.49" cy="61.91" r="14.77"/><circle class="cls-18" cx="172.19" cy="61.91" r="14.77"/></g><path id="Lasje" class="cls-13" d="M98.18,67.5s-7.43-23.06,0-38,5.64-19.09,46.17-28,52.43,27.46,52.43,27.46c-2.92-9.11-16.9-7.35-16.9-7.35s4.7,5.29-8.22,4.85S158,15.51,129.4,18.45s-24.27,45.79-24.27,45.79Z"/></g></g></svg>