<svg xmlns="http://www.w3.org/2000/svg" viewBox="0 0 313.87 119"><defs><style>.cls-1{fill:#f15d2a;}.cls-2{fill:#c4572d;}.cls-3,.cls-4{fill:#d89707;}.cls-3{opacity:0.46;}.cls-5{fill:#ffffec;}.cls-6{fill:#565759;}.cls-7,.cls-8{fill:#fff;}.cls-8{opacity:0.61;}.cls-9{fill:#a4906f;}</style></defs><g id="Layer_2" data-name="Layer 2"><g id="Glavno_Besedilo" data-name="Glavno Besedilo"><path class="cls-1" d="M284.27,0H156.18c-28.45,3.79-52.86,19.23-64,27.3a34.53,34.53,0,0,1-15.47,6.25L18,41.81C11.75,44,7.4,48.64,4.54,53A41,41,0,0,0,2,57.51H313.87V49.39C312.14,24.69,284.27,0,284.27,0Z"/><path class="cls-2" d="M0,62.39V91.85H313.87V57.51H2A35.46,35.46,0,0,0,0,62.39Z"/><rect class="cls-3" y="82.63" width="313.87" height="9.21"/><path class="cls-4" d="M91.69,91.85H24.8a33.45,33.45,0,0,1,66.89,0Z"/><path class="cls-4" d="M275.67,91.85h-66.9a33.45,33.45,0,0,1,66.9,0Z"/><path class="cls-5" d="M262.75,38.56h35.51a5,5,0,0,0,4.39-7.37c-5.88-10.82-14.49-20.11-18.94-24.54a5,5,0,0,0-3.52-1.45H262.75Z"/><rect class="cls-5" x="193.44" y="5.2" width="61.52" height="33.36"/><path class="cls-5" d="M107.94,23.17c-5.08,3-9.38,5.94-12.69,8.34l-.15.11a3.82,3.82,0,0,0,2.2,6.94h10.64Z"/><path class="cls-5" d="M156.53,5.2c-16.2,2.22-31,8.34-42.74,14.66v18.7h71.85V5.2Z"/><circle class="cls-6" cx="58.24" cy="91.97" r="27.03"/><circle class="cls-7" cx="58.24" cy="91.97" r="18.71"/><path class="cls-7" d="M62.8,92a4.56,4.56,0,1,0-4.56,4.55A4.56,4.56,0,0,0,62.8,92Z"/><circle class="cls-6" cx="242.22" cy="91.97" r="27.03"/><circle class="cls-7" cx="242.22" cy="91.97" r="18.71"/><path class="cls-7" d="M246.77,92a4.55,4.55,0,1,0-4.55,4.55A4.55,4.55,0,0,0,246.77,92Z"/><path class="cls-8" d="M13.82,53v4.5c0,9.61,3.51,17.4-6.1,17.4H0V62.39A39.59,39.59,0,0,1,4.54,53Z"/><rect class="cls-4" x="139.45" y="45.66" width="16.44" height="4.58"/><rect class="cls-4" x="211.91" y="45.66" width="16.44" height="4.58"/><circle class="cls-9" cx="58.24" cy="91.97" r="11.13"/><circle class="cls-9" cx="242.22" cy="91.97" r="11.13"/></g></g></svg>