<svg xmlns="http://www.w3.org/2000/svg" viewBox="0 0 80 80"><defs><style>.cls-1{fill:#e6a454;}.cls-2{fill:#ffffec;}</style></defs><g id="Layer_2" data-name="Layer 2"><g id="Glavno_Besedilo" data-name="Glavno Besedilo"><circle class="cls-1" cx="40" cy="40" r="40"/><path class="cls-2" d="M27.49,51.17l-6.14,6.11c-1-1.36-2-2.67-2.87-4.09a23.08,23.08,0,0,1-3.31-13.77,24,24,0,0,1,17-21.36c1.11-.34,1.11-.33,1.11-1.52V9.66L53.2,21.15,33.33,32.63V27C24.79,30.74,19.91,41.81,27.49,51.17Z"/><path class="cls-2" d="M26.74,58.86l19.9-11.49V53c7.72-3.23,13.84-14.12,5.84-24.14l6.12-6.1c.95,1.35,2,2.66,2.86,4.08a23.36,23.36,0,0,1,3.32,13.77A24.12,24.12,0,0,1,47.77,62c-1.12.33-1.12.33-1.12,1.51v6.89Z"/></g></g></svg>