<svg xmlns="http://www.w3.org/2000/svg" viewBox="0 0 76.88 128.27"><defs><style>.cls-1{fill:none;stroke:#3eb871;stroke-miterlimit:10;stroke-width:3.92px;}.cls-2{fill:#fff1d0;}.cls-3{fill:#fbad18;}.cls-4{fill:#008747;}</style></defs><g id="Layer_2" data-name="Layer 2"><g id="Glavno_Besedilo" data-name="Glavno Besedilo"><path class="cls-1" d="M40.23,41.32S58.8,89.61,47.5,127.71"/><path class="cls-2" d="M38.48,38.38S56.79,18.34,71,17.65C71,17.65,50.23,36.31,38.48,38.38Z"/><path class="cls-2" d="M38.48,38.38S61.09,23.36,75,26.11C75,26.11,50.38,39.21,38.48,38.38Z"/><path class="cls-2" d="M38.48,38.38s25.57-9.11,38.4-3.08C76.88,35.3,49.83,42.06,38.48,38.38Z"/><path class="cls-2" d="M38.48,38.38s27-2.67,38,6.29C76.49,44.67,48.6,44.69,38.48,38.38Z"/><path class="cls-2" d="M38.48,38.38s26.86,3.94,35.37,15.28C73.85,53.66,46.78,47,38.48,38.38Z"/><path class="cls-2" d="M38.48,38.38S63.59,48.69,69.11,61.76C69.11,61.76,44.46,48.7,38.48,38.38Z"/><path class="cls-2" d="M38.48,38.38S60.36,54.45,62.55,68.46C62.55,68.46,41.79,49.84,38.48,38.38Z"/><path class="cls-2" d="M38.48,38.38s17.34,20.88,16.09,35C54.57,73.39,38.93,50.3,38.48,38.38Z"/><path class="cls-2" d="M38.48,38.38s11.79,24.45,7.16,37.86C45.64,76.24,36,50.05,38.48,38.38Z"/><path class="cls-2" d="M38.48,38.38S44,65,36.28,76.84C36.28,76.84,33.29,49.12,38.48,38.38Z"/><path class="cls-2" d="M38.48,38.38s-1,27.12-11.43,36.79C27.05,75.17,30.85,47.54,38.48,38.38Z"/><path class="cls-2" d="M38.48,38.38s-7.58,26.07-20,32.94C18.5,71.32,28.86,45.43,38.48,38.38Z"/><path class="cls-2" d="M38.48,38.38S24.83,61.84,11.13,65.52C11.13,65.52,27.44,42.89,38.48,38.38Z"/><path class="cls-2" d="M38.48,38.38S19.57,57.85,5.39,58.11C5.39,58.11,26.68,40.09,38.48,38.38Z"/><path class="cls-2" d="M38.48,38.38S15.42,52.7,1.6,49.53C1.6,49.53,26.61,37.19,38.48,38.38Z"/><path class="cls-2" d="M38.48,38.38S12.65,46.71,0,40.29C0,40.29,27.25,34.36,38.48,38.38Z"/><path class="cls-2" d="M38.48,38.38S11.4,40.22.68,30.94C.68,30.94,28.55,31.76,38.48,38.38Z"/><path class="cls-2" d="M38.48,38.38S11.76,33.62,3.6,22C3.6,22,30.45,29.56,38.48,38.38Z"/><path class="cls-2" d="M38.48,38.38S13.7,27.31,8.58,14.08C8.58,14.08,32.81,27.88,38.48,38.38Z"/><path class="cls-2" d="M38.48,38.38S17.11,21.65,15.34,7.58C15.34,7.58,35.52,26.83,38.48,38.38Z"/><path class="cls-2" d="M38.48,38.38S21.78,17,23.46,2.9C23.46,2.9,38.4,26.45,38.48,38.38Z"/><path class="cls-2" d="M38.48,38.38s-11-24.8-6-38.06C32.48.32,41.28,26.79,38.48,38.38Z"/><path class="cls-2" d="M38.48,38.38S33.76,11.65,41.85,0C41.85,0,44,27.81,38.48,38.38Z"/><path class="cls-2" d="M38.48,38.38S40.36,11.3,51,2C51,2,46.39,29.45,38.48,38.38Z"/><path class="cls-2" d="M38.48,38.38s8.37-25.82,21-32.32C59.46,6.06,48.31,31.63,38.48,38.38Z"/><path class="cls-2" d="M38.48,38.38s14.36-23,28.16-26.29C66.64,12.09,49.65,34.2,38.48,38.38Z"/><path class="cls-2" d="M38.48,38.38S58,19.5,72.16,19.67C72.16,19.67,50.33,37,38.48,38.38Z"/><circle class="cls-3" cx="38.48" cy="38.38" r="8.23"/><path class="cls-4" d="M50.27,123.21c-.43-1.27-8.11-31.74,25.61-43.58,0,0-2.13,44.85-25.61,43.58"/></g></g></svg>