<?xml version="1.0" encoding="utf-8"?>
<!-- Generator: Adobe Illustrator 24.0.2, SVG Export Plug-In . SVG Version: 6.00 Build 0)  -->
<svg version="1.1" id="Layer_1" xmlns="http://www.w3.org/2000/svg" xmlns:xlink="http://www.w3.org/1999/xlink" x="0px" y="0px"
	 viewBox="0 0 644.1 527.5" style="enable-background:new 0 0 644.1 527.5;" xml:space="preserve">
<style type="text/css">
	.st0{fill:#3097C3;}
	.st1{font-family:'ArialMT';}
	.st2{font-size:111.45px;}
	.st3{fill:none;stroke:#FFFFEC;stroke-miterlimit:10;}
	.st4{fill:#E6A454;}
	.st5{letter-spacing:-3;}
	.st6{fill:#FFFFEC;}
	.st7{font-size:22.12px;}
	.st8{fill:none;stroke:#E6A454;stroke-miterlimit:10;}
	.st9{fill:none;stroke:#D55225;stroke-width:4.05;stroke-miterlimit:10;}
	.st10{font-size:63px;}
	.st11{font-size:89.32px;}
	.st12{letter-spacing:-7;}
</style>
<title>Asset 1</title>
<g id="Layer_2_1_">
	<g id="Glavno_Besedilo">
		<text transform="matrix(1 0 0 1 214.79 103.23)" class="st0 st1 st2">I</text>
		<text transform="matrix(1 0 0 1 214.79 103.23)" class="st3 st1 st2">I</text>
		<text transform="matrix(1 0 0 1 240.87 103.23)" class="st4 st1 st2 st5">’</text>
		<text transform="matrix(1 0 0 1 259.59 103.23)" class="st0 st1 st2">m</text>
		<text transform="matrix(1 0 0 1 259.59 103.23)" class="st3 st1 st2">m</text>
		<text transform="matrix(1 0 0 1 0 18.52)" class="st6 st1 st7">E</text>
		<text transform="matrix(1 0 0 1 10.8 18.52)" class="st6 st1 st7">dnina (Singular)</text>
		<line class="st8" x1="258.1" y1="31.9" x2="462.1" y2="31.9"/>
		<text transform="matrix(1 0 0 1 469.6742 37.75)" class="st4 st1 st7">Apost</text>
		<text transform="matrix(1 0 0 1 523.6525 37.75)" class="st4 st1 st7">r</text>
		<text transform="matrix(1 0 0 1 529.9395 37.75)" class="st4 st1 st7">o</text>
		<text transform="matrix(1 0 0 1 540.7648 37.75)" class="st4 st1 st7">f</text>
		<path class="st0" d="M644.1,193.8c0-1.7,0-3.4-0.1-5.1c-0.3-5.4-3.4-9.2-8.5-10.6c-1.6-0.4-3.2-0.6-4.9-0.6
			c-19.8-0.1-39.7-0.1-59.5-0.1c-0.8,0.1-1.6,0.2-2.4,0.4c-0.5-0.2-1-0.3-1.5-0.4c-11.6,0-23.2-0.1-34.7-0.1
			c-0.6,0.1-1.1,0.2-1.7,0.5c-0.8-0.2-1.6-0.4-2.4-0.5c-7.7,0-15.4,0-23,0h-86.6c-19.8,0-39.6,0-59.5,0L227,177.5
			c-21.2,0-42.4,0-63.6,0c-2.9-0.1-5.8,0.7-8.1,2.4c-3.9,2.9-4.6,7.1-4.6,11.5c0,32.2,0,64.5,0.1,96.7c0,11.5,0,23,0.1,34.6
			c0.1,6.1,3.2,10.1,8.9,11.5c1.8,0.4,3.7,0.6,5.5,0.5c34.5,0.1,69,0.1,103.4,0.1c48.1,0,96.2,0,144.3,0h122.8h32.3
			c21.3,0,42.5,0,63.8-0.1c7.8,0,12-4.3,12-12.1c0.1-23.5,0.1-47,0.1-70.6C644.1,232.8,644.1,213.3,644.1,193.8z M615.6,222.1
			c-0.1-1.4,0.9-2.6,2.3-2.7c0.1,0,0.3,0,0.4,0c4.1,0,8.2,0,12.3,0.1c1.8,0,2.7,1.4,2.7,3c0,3.6,0,7.3,0,10.9c0.1,1.6-1.1,2.9-2.7,3
			c-0.2,0-0.3,0-0.4,0c-2,0-4,0-6,0l0,0c-1.8,0-3.7,0-5.5,0s-3-1-3-2.9C615.5,229.7,615.5,225.9,615.6,222.1L615.6,222.1z
			 M611.5,276.6c-0.1,2.3-1.1,3.5-3.4,3.6c-3.8,0.1-7.5,0-11.3-0.1c-1.6,0.1-3-1.1-3.1-2.7c0-0.1,0-0.3,0-0.4
			c-0.1-3.7-0.1-7.4,0-11.1c-0.1-1.4,0.9-2.7,2.3-2.8c0.2,0,0.3,0,0.5,0c3.9,0,7.8-0.1,11.7,0c2.1,0,3.1,1.1,3.2,3.3
			c0.1,1.7,0,3.4,0,5.1S611.6,274.9,611.5,276.6z M593.8,223.1c0.1-2.4,1-3.5,3.3-3.6c3.6-0.1,7.3-0.1,10.9,0
			c2.2,0.1,3.3,1.2,3.4,3.3c0.1,3.6,0.1,7.1,0,10.7c0,1.8-1.4,3.3-3.2,3.3c-0.1,0-0.2,0-0.3,0c-3.5,0.1-7.1,0.1-10.7,0
			c-2.4-0.1-3.4-1.2-3.5-3.7c-0.1-1.7,0-3.4,0-5.1l0,0C593.8,226.3,593.7,224.7,593.8,223.1L593.8,223.1z M593.8,244.1
			c0-1.9,1.2-2.8,3.1-2.8s4,0,6,0l0,0c1.8,0,3.6-0.1,5.3,0c2.1,0.1,3.2,1.1,3.3,3.1c0.1,3.6,0.1,7.1,0,10.7c0,1.9-1,3.2-3,3.2
			c-4,0.1-8,0-12.1-0.1c-1.4,0.1-2.5-1-2.6-2.3c0-0.1,0-0.2,0-0.3C593.7,251.7,593.7,247.9,593.8,244.1L593.8,244.1z M572.1,223
			c0.2-2.7,1.3-3.5,4-3.6c3.3-0.1,6.6-0.1,9.9,0c2.6,0.1,3.7,1.1,3.8,3.6c0.1,3.6,0.1,7.1,0,10.7c-0.1,2-1.3,3.1-3.3,3.1
			c-1.8,0.1-3.7,0-5.5,0l0,0c-1.7,0-3.4,0-5.1,0c-2.3-0.1-3.5-1-3.6-3.3C572,230,571.9,226.5,572.1,223z M589.8,298.5
			c-0.1,2.1-1.1,3.3-3.2,3.3c-3.7,0.1-7.4,0.1-11.1,0c-2.4-0.1-3.4-1.1-3.5-3.5c-0.1-3.5-0.1-7,0-10.5c-0.1-1.7,1.1-3.2,2.8-3.3
			c0.1,0,0.3,0,0.4,0c3.8-0.1,7.5-0.2,11.3,0c2.3,0.1,3.2,1.4,3.3,3.6c0,0.3,0,0.7,0,1v3.9h-0.1
			C589.8,294.9,589.8,296.7,589.8,298.5z M572,244.1c-0.1-1.4,0.9-2.7,2.3-2.8c0.1,0,0.2,0,0.3,0c4-0.1,8-0.1,12.1-0.1
			c1.6-0.1,2.9,1.2,3,2.8c0,0.2,0,0.3,0,0.5c0,3.4,0.1,6.9,0,10.3c0,2.3-1.2,3.4-3.4,3.5c-1,0.1-1.9,0-2.9,0h-2.9l0,0
			c-1.8,0-3.6,0-5.3,0c-2.1-0.1-3.1-0.9-3.2-3C571.9,251.5,571.9,247.8,572,244.1z M572,266.1c-0.1-1.6,1.1-3,2.7-3.1
			c0.1,0,0.3,0,0.4,0c3.3-0.1,6.6-0.3,9.9-0.1c3.7,0.2,4.9,1.6,4.9,5.4c0,2.7,0,5.4-0.1,8s-1.3,3.9-4,3.9c-1.6,0-3.3,0-4.9,0
			s-3.4,0-5.2,0c-2.4-0.1-3.6-1.2-3.7-3.5C571.9,273,571.9,269.5,572,266.1L572,266.1z M553.3,219.3c3.8-0.1,7.5-0.2,11.3,0
			c2.2,0.1,3.2,1.2,3.2,3.5c0.1,3.4,0.1,6.9,0,10.3c-0.1,2.4-1.2,3.3-3.7,3.5c-0.9,0-1.8,0.1-2.7,0.1h-2.7v-0.1h-5.5
			c-1.5,0.1-2.8-1-3-2.5c0-0.1,0-0.3,0-0.4c-0.1-3.7-0.1-7.4,0-11.1c-0.1-1.7,1.1-3.1,2.8-3.2C553.1,219.3,553.2,219.3,553.3,219.3
			L553.3,219.3z M567.9,255.2c-0.1,1.9-1.4,2.9-3.3,3s-3.7,0-5.5,0s-3.4,0-5.1,0c-2.4-0.1-3.6-0.9-3.7-3.3c-0.2-3.6-0.1-7.1,0-10.7
			c-0.1-1.6,1.1-3,2.7-3.1c0.1,0,0.3,0,0.4,0c4,0,8.1,0,12.1,0.2c1.4,0,2.4,1.1,2.4,2.5v0.1C568,247.6,568,251.4,567.9,255.2
			L567.9,255.2z M550.2,288.2c0-2.7,1-3.7,3.7-3.8c1.7-0.1,3.4,0,5.1,0l0,0c1.8,0,3.6-0.1,5.3,0c2.3,0.1,3.5,1.3,3.6,3.6
			c0.1,3.3,0.1,6.6,0,9.8c0,2.6-1.1,3.8-3.7,3.9c-3.4,0.1-6.8,0.1-10.3,0c-2.7-0.1-3.8-1.4-3.8-4.1
			C550.1,294.5,550.1,291.4,550.2,288.2L550.2,288.2z M568,277.5c0,1.7-1.4,2.5-3,2.5c-1.9,0.1-3.8,0-5.8,0s-3.7,0-5.5,0
			s-3.2-1-3.2-3c0-3.8-0.1-7.5,0-11.3c-0.1-1.4,1-2.7,2.4-2.8c0.1,0,0.2,0,0.3,0c4.2,0,8.3-0.1,12.5,0.1c1.1,0.3,1.9,1.1,2.2,2.1
			C568.1,269.3,568.1,273.4,568,277.5z M508,236.4c-1.6,0.1-3-1-3.1-2.6c0-0.1,0-0.3,0-0.4c-0.1-3.6-0.1-7.3,0-10.9
			c0-1.8,1.4-3.3,3.2-3.4c0.1,0,0.2,0,0.2,0c3.6-0.1,7.1-0.1,10.7,0c1.7-0.1,3.2,1.2,3.3,3c0,0.2,0,0.3,0,0.5
			c0.1,3.6,0.1,7.2,0,10.8c0.1,1.6-1.2,2.9-2.8,3c-0.1,0-0.1,0-0.2,0c-1.9,0.1-3.8,0-5.8,0l0,0C511.6,236.4,509.8,236.4,508,236.4
			L508,236.4z M504.8,202.8c0.1-2.5,1.3-3.8,3.8-3.9c3.4-0.1,6.7-0.1,10.1,0c2.4,0.1,3.5,1.3,3.6,3.6c0.1,2,0.1,4.1,0,6.1
			c-0.1,2.4-1.2,3.5-3.5,3.7c-1.8,0.1-3.6,0-5.3,0l0,0c-1.8,0-3.5,0.1-5.3,0c-1.7,0-3.2-1.3-3.2-3.1c0-0.1,0-0.2,0-0.3
			C504.7,206.9,504.7,204.9,504.8,202.8L504.8,202.8z M476.5,255.2c0,1.6-1.2,2.9-2.8,2.9c-0.1,0-0.2,0-0.3,0
			c-5.6,0.1-11.2,0.1-16.8,0c-1.9,0-3-1.5-3-3.3c-0.1-3.6-0.1-7.1,0.1-10.7c0.1-2.2,1.4-3.3,3.7-3.3c2.5-0.1,5.1,0,7.6,0v0.1
			c2.5,0,4.9,0,7.4,0c3,0.1,4.1,1.2,4.2,4.1C476.5,248.3,476.5,251.8,476.5,255.2L476.5,255.2z M353.8,280c-2.2-0.1-3.3-1.1-3.3-3.3
			c-0.1-3.5-0.1-7-0.1-10.5c0-2.3,1.2-3.4,3.4-3.5c3.2-0.1,6.4-0.1,9.6,0s4.2,1.3,4.3,4.5c0,2.9,0.1,5.8,0,8.6
			c-0.1,3-1.3,4.2-4.3,4.2c-1.5,0-3,0-4.5,0l0,0C357.2,280,355.5,280.1,353.8,280z M317.5,292.7c0-1.6,0-3.3,0-4.9
			c0-1.8,1.5-3.3,3.3-3.5c3.4,0,6.7,0,10.1,0.1c2.7,0.1,3.9,1.2,4,3.9c0.1,3.3,0.1,6.6,0,9.9c0,2.1-1.2,3.4-3.3,3.5
			c-3.6,0.1-7.1,0.2-10.7,0c-2.4-0.1-3.3-1.4-3.4-3.8C317.5,296.1,317.5,294.4,317.5,292.7L317.5,292.7z M274.4,288.1
			c0.1-2.5,1.2-3.7,3.7-3.7c3.3-0.1,6.6-0.1,9.9,0c2.3,0.1,3.6,1.3,3.6,3.6c0.1,3.4,0.1,6.7,0,10c-0.1,2.5-1.3,3.6-3.7,3.7
			c-3.1,0.1-6.2,0.1-9.2,0s-4.2-1.4-4.2-4.6c0-1.4,0-2.9,0-4.3l0,0C274.4,291.3,274.3,289.7,274.4,288.1L274.4,288.1z M165.1,262.6
			c6.6,0,13.3,0,19.9,0c2,0,4-0.1,5.9,0.1c1.7,0,3.1,1.4,3.1,3.1v0.1c0.1,3.7,0.1,7.4,0,11.1c-0.1,1.9-1.7,3-4.2,3
			c-4.2,0-8.4,0-12.5,0h-11.7c-3.8,0-4.9-1.1-4.9-4.9c0-2.8,0-5.5,0-8.2C160.8,263.8,162,262.6,165.1,262.6z M160.8,244.7
			c0.1-2.6,0.8-3.4,3.4-3.5c6.6-0.2,13.1-0.3,19.7-0.3c3.6,0,4.8,1.2,4.9,4.8c0,2.7,0,5.3,0,8c0,3.4-1.4,4.7-4.8,4.6
			c-1.6,0-3.1-0.1-4.7-0.1s-3,0-4.5,0v0.1c-3.1,0-6.3,0.1-9.4,0c-3.6-0.1-4.5-1-4.5-4.6C160.7,250.7,160.7,247.7,160.8,244.7
			L160.8,244.7z M193.6,255.7c-0.1-4-0.1-8.1,0-12.1c0-1.6,1.2-2.4,2.8-2.4c3.5,0,7.1-0.1,10.6-0.1c2,0,3.3,1,3.3,3.1
			c0.1,3.6,0.1,7.3,0,10.9c0,2.1-1.4,3-3.4,3.1c-1.8,0.1-3.6,0-5.3,0l0,0c-1.6,0-3.3,0-4.9,0S193.6,257.5,193.6,255.7L193.6,255.7z
			 M198.6,271.1L198.6,271.1c0-1.6,0-3.3,0-4.9c0-1.9,1-3.4,2.9-3.4c3.7-0.1,7.5-0.1,11.2,0.2c1.9,0,3.4,1.5,3.4,3.4
			c0,0.1,0,0.2,0,0.2c0,3.3,0,6.6-0.2,9.8c-0.2,2.3-1.5,3.4-3.8,3.5c-3.3,0.1-6.7,0.1-10,0c-2.3-0.1-3.4-1.4-3.5-3.7
			C198.5,274.6,198.6,272.8,198.6,271.1L198.6,271.1z M214.8,254.9c-0.1-3.5-0.1-7,0-10.5c-0.1-1.7,1.1-3.1,2.7-3.3
			c0.2,0,0.3,0,0.5,0c3.4-0.1,6.8-0.2,10.3-0.1c2-0.1,3.8,1.4,3.9,3.4c0,0.2,0,0.3,0,0.5c0.1,3.3,0.1,6.6-0.1,9.9
			c-0.1,2.3-1.3,3.2-3.6,3.4c-0.9,0-1.8,0-2.7,0h-2.5l0,0c-1.6,0-3.3,0-4.9,0C216.1,258.1,214.9,257.1,214.8,254.9L214.8,254.9z
			 M220.1,265.9c0.1-2.1,1.3-3.2,3.5-3.2c3.4-0.1,6.9,0,10.3,0c1.8,0,3,0.9,3.1,2.7c0.2,3.8,0.3,7.6,0.2,11.5c0,1.7-1.3,3-3,3
			c-0.1,0-0.1,0-0.2,0c-1.8,0.1-3.6,0-5.3,0v0.1c-1.6,0-3.1,0.1-4.7,0c-2.5-0.1-3.6-1-3.8-3.4C219.9,273,219.9,269.4,220.1,265.9
			L220.1,265.9z M236.5,254.9c-0.1-3.8-0.1-7.5,0-11.3c0-1.9,1.4-2.6,3-2.7s3.6,0,5.3,0v-0.1c1.7,0,3.4-0.1,5.1,0
			c2.2,0.1,3.5,1.2,3.6,3.4c0.1,3.5,0.1,7,0,10.5c-0.1,2.2-1,3.2-3.1,3.3c-3.6,0.1-7.1,0.1-10.7,0.1c-1.7,0.1-3.1-1.1-3.2-2.8
			C236.5,255.2,236.5,255,236.5,254.9L236.5,254.9z M247.6,222.7c0.1-2.3,1-3.4,3.2-3.4c3.6-0.1,7.1,0,10.7,0.1
			c1.7-0.1,3.1,1.1,3.2,2.8c0,0.2,0,0.3,0,0.5c0.1,3.5,0.1,7,0,10.5c0.1,1.7-1.1,3.1-2.7,3.2c-0.2,0-0.3,0-0.5,0
			c-3.6,0.1-7.1,0.1-10.7,0c-1.6,0.1-3-1.1-3.2-2.7c0-0.1,0-0.3,0-0.4c-0.1-1.8-0.2-3.7-0.3-5.5h0.4
			C247.5,226.1,247.5,224.4,247.6,222.7L247.6,222.7z M271.9,241.1c2.5,0.1,3.3,1,3.4,3.5c0.1,3.4,0.1,6.9,0,10.3
			c0,2.3-1,3.2-3.3,3.3c-1.8,0.1-3.6,0-5.3,0s-3.4,0-5.1,0c-1.6,0.2-3-0.9-3.2-2.5c0-0.2,0-0.3,0-0.5c-0.1-3.7-0.1-7.4,0-11.1
			c0-1.6,0.8-2.9,2.8-2.9C264.6,241.1,268.3,241,271.9,241.1L271.9,241.1z M241.9,266.1c-0.1-1.7,1.2-3.2,3-3.3c0.1,0,0.2,0,0.2,0
			c3.5-0.1,7-0.2,10.5,0c2.4,0.1,3.5,1.5,3.5,3.9v4.7c0,1.6,0,3.1,0,4.7c-0.1,2.7-1.6,4.2-4.3,4.1c-3,0-6-0.1-9.1-0.2
			c-2.5-0.1-3.6-1-3.7-3.4C241.9,273.1,241.8,269.6,241.9,266.1L241.9,266.1z M252.6,288c0-2.3,1-3.3,3.4-3.6
			c1.8-0.2,3.7-0.2,5.4-0.3c1.7,0.1,3.3,0.2,4.9,0.3c2.1-0.1,3.9,1.6,4,3.7v0.1c0.1,3.1,0.1,6.2,0,9.3c-0.1,2.5-1.4,4-3.9,4.2
			c-3.4,0.2-6.7,0.2-10.1,0c-2.6-0.1-3.6-1.4-3.7-4C252.5,294.5,252.5,291.2,252.6,288z M266.9,279.8c-2.5-0.1-3.5-1.4-3.6-3.9
			c-0.1-3.1-0.1-6.3,0-9.5c0.1-2.8,1.4-3.9,4.2-3.9c1.4,0,2.9,0,4.3,0l0,0c1.7,0,3.4-0.1,5.1,0c2.1,0,3.9,1.7,3.9,3.9v0.1
			c0.1,3.1,0.1,6.3,0,9.5c-0.1,2.2-1.1,3.5-3.4,3.7C274,279.9,270.4,279.9,266.9,279.8L266.9,279.8z M288.9,280
			c-2.4-0.1-3.6-1.3-3.7-3.8c-0.1-3.3-0.2-6.6,0-9.9c0.1-2.4,1.3-3.5,3.8-3.6h0.6h4.3c1.8,0,3.6-0.1,5.3,0c1.7-0.1,3.2,1.2,3.2,2.9
			v0.1c0.2,3.5,0.2,7,0.1,10.5c-0.1,2.5-1.3,3.6-3.8,3.7C295.4,280.1,292.1,280.1,288.9,280L288.9,280z M296.1,287.8
			c0.1-2.2,1.3-3.3,3.6-3.4c1.6-0.1,3.3,0,4.9,0l0,0c1.6,0,3.3,0,4.9,0c2.3,0.1,3.6,1,3.8,3.2c0.2,3.6,0.2,7.3,0.1,10.9
			c-0.1,2.1-1.6,3.2-3.6,3.2c-3.5,0.1-7,0.1-10.5,0c-1.7,0.1-3.1-1.2-3.2-2.9c0-0.1,0-0.3,0-0.4C296,294.9,295.9,291.3,296.1,287.8
			L296.1,287.8z M310.3,280c-2.1,0-3.2-1.2-3.5-3.3c0-0.3,0-0.5,0-0.8V271l0,0c0-1.7-0.1-3.4,0-5.1c0.1-2.3,1.1-3.2,3.4-3.3
			c3.4-0.1,6.7-0.1,10.1,0c2.1-0.1,3.8,1.5,3.9,3.6c0,0.1,0,0.2,0,0.3c0,3.1,0,6.1-0.2,9.2s-1,4-4.1,4.2S313.5,280.1,310.3,280z
			 M323,244.9c0.1-3.2,1.1-4.1,4.3-4.2c1.4,0,2.9,0,4.3,0c1.6,0,3.3-0.1,4.9,0c2.4,0.1,3.7,1.2,3.8,3.6c0.1,3.5,0.1,7.1,0,10.6
			c0.2,1.5-0.9,2.8-2.4,3c-0.1,0-0.2,0-0.4,0c-3.8,0.1-7.5,0.1-11.3,0c-1.8,0-3.3-1.4-3.3-3.2l0,0
			C322.9,251.5,322.9,248.2,323,244.9z M332.3,280c-2.3-0.1-3.6-1.2-3.7-3.5c-0.1-3.7,0-7.4,0-11.1c-0.1-1.2,0.7-2.3,2-2.5
			c0.1,0,0.2,0,0.2,0c2.4-0.2,4.7-0.5,7.1-0.6c1.1-0.1,2.3,0.2,3.5,0.2c3,0,4.3,1,4.4,3.8c0.2,3.3,0.2,6.6,0,9.8
			c-0.1,2.7-1.4,3.7-4.1,3.8H337C335.5,280,333.9,280,332.3,280z M345,244.6c0-2.5,1.1-3.6,3.5-3.7c3.3-0.1,6.7-0.1,10,0
			c2.6,0.1,3.6,1.1,3.7,3.6c0.1,3.3,0.1,6.7,0,10c-0.1,2.5-1.1,3.4-3.6,3.6c-1.8,0.1-3.6,0-5.3,0l0,0c-1.6,0-3.3,0.1-4.9,0
			c-2.3-0.1-3.3-1.1-3.3-3.3C345,251.4,344.9,248,345,244.6L345,244.6z M339.5,287.8c0.1-2.4,1.4-3.4,3.8-3.5c0.8,0,1.6,0,2.5,0
			s1.5,0,2.3,0v0.1c1.8,0,3.6-0.1,5.4,0c1.8-0.1,3.3,1.3,3.4,3.1c0,0.1,0,0.2,0,0.3c0.1,3.5,0.1,7,0,10.5c-0.1,2.3-1.2,3.4-3.5,3.5
			c-3.5,0.1-7,0.1-10.5,0c-1.7,0.1-3.1-1.1-3.2-2.8c0-0.1,0-0.2,0-0.3C339.4,295.1,339.4,291.4,339.5,287.8L339.5,287.8z
			 M366.7,254.8c-0.1-3.6-0.1-7.1,0.1-10.7c0.1-2.1,1.4-3.2,3.5-3.2c3.3-0.1,6.6-0.1,9.9,0c2.6,0.1,3.7,1.2,3.8,3.9
			c0.1,3.3,0,6.6,0,9.9c-0.1,2.4-1.2,3.5-3.6,3.6c-1.6,0.1-3.3,0-4.9,0l0,0c-1.7,0-3.4,0.1-5.1,0C367.9,258,366.8,257,366.7,254.8
			L366.7,254.8z M371.9,266.3c0.1-2.5,1.3-3.6,3.8-3.7c3.4-0.1,6.7-0.1,10.1,0c1.8-0.2,3.3,1.2,3.5,2.9c0,0.2,0,0.4,0,0.5
			c0.1,3.5,0.1,7,0,10.5c0,2.1-1.2,3.2-3.4,3.4c-1.9,0.1-3.7,0-5.5,0v0.1c-1.5,0-3,0-4.5,0c-2.4-0.1-3.8-1.2-3.9-3.6
			C371.8,273,371.8,269.6,371.9,266.3L371.9,266.3z M388.5,255.1c-0.1-3.8-0.1-7.5,0-11.3c-0.1-1.4,0.9-2.6,2.3-2.7
			c0.1,0,0.2,0,0.2,0c4-0.1,7.9-0.1,11.9,0c1.9,0.1,2.8,1.4,2.8,3.2s0,3.6,0,5.3l0,0c0,1.8,0,3.6,0,5.3c-0.1,2.2-0.9,3.1-3.2,3.2
			c-3.6,0.1-7.3,0-10.9,0c-1.6,0.2-3-1-3.2-2.6C388.5,255.4,388.5,255.3,388.5,255.1L388.5,255.1z M393.8,265.6c0.1-2,1.4-2.9,3.3-3
			s3.6,0,5.4,0s3.3-0.1,4.9,0c2.3,0.1,3.5,1.1,3.6,3.4c0.1,3.6,0.1,7.1,0,10.7c0,1.8-1.3,3.2-3.1,3.3c-0.1,0-0.1,0-0.2,0
			c-3.6,0.1-7.1,0.1-10.7,0c-1.7,0.1-3.1-1.2-3.2-2.8c0-0.1,0-0.2,0-0.3C393.7,273.1,393.7,269.3,393.8,265.6L393.8,265.6z
			 M413.4,258.1c-1.9,0-3.1-1-3.1-3c0-3.7-0.1-7.4,0-11.1c0-1.7,1.3-3.2,3-3.2c0.1,0,0.2,0,0.3,0c3.4-0.1,6.8-0.1,10.3,0
			c2.5,0.1,3.6,1.3,3.7,3.8c0.1,3.3,0.1,6.6,0,9.9c0,2.5-1.1,3.6-3.6,3.7c-1.7,0.1-3.4,0-5.1,0l0,0
			C416.9,258.1,415.1,258.2,413.4,258.1L413.4,258.1z M404.5,288.1c0-2.7,1.1-3.7,3.8-3.8c3.3-0.1,6.6-0.1,9.9,0
			c2.5,0.1,3.6,1.2,3.7,3.7c0.1,1.6,0,3.3,0,4.9l0,0c0,1.6,0,3.1,0,4.7c-0.1,2.8-1,4-3.8,4.1c-3.3,0.1-6.6,0.1-9.9,0
			c-2.6-0.1-3.6-1.3-3.7-4C404.4,294.5,404.4,291.3,404.5,288.1L404.5,288.1z M418.6,280c-1.6,0.1-2.9-1.1-3-2.7c0-0.1,0-0.2,0-0.3
			c-0.1-1.8,0-3.7,0-5.5l0,0c0-1.8-0.1-3.6,0-5.3c0.1-2.2,1.1-3.4,3.3-3.4c3.5-0.1,7-0.1,10.5,0c2.4,0.1,3.5,1.3,3.5,3.7
			c0,3.4,0.1,6.7,0,10.1c0,2.3-1.1,3.5-3.4,3.5C425.8,280.1,422.2,280.1,418.6,280z M432,255.1c-0.1-3.4-0.3-6.8-0.3-10.3
			c0.1-2.9,1.3-4,4.3-4.1s6.2,0,9.3,0c2.7,0.1,3.9,1.1,4,3.7c0.1,3.4,0.1,6.9,0,10.3c-0.1,2.4-1.1,3.2-3.5,3.4h-5.3
			c-1.7,0-3.4,0-5.1,0c-1.6,0.2-3.1-1-3.2-2.6C432,255.4,432,255.3,432,255.1z M437.3,265.8c0.1-2.3,1.1-3.2,3.4-3.2
			c3.1-0.1,6.2,0.1,9.3,0c4.3-0.1,8.5-0.2,12.7-0.3c3.4-0.1,6.8,0,10.2,0c1.7,0,3.1,0.9,3.2,2.6c0.3,4.2,0.4,8.5,0.3,12.7
			c-0.1,1.9-1.7,2.6-4.3,2.6l-12.3-0.1c-1,0-1.9,0-2.9,0c-5.1,0-10.3,0-15.4,0c-3.1,0-4.2-1-4.3-4.1
			C437.2,272.5,437.1,269.2,437.3,265.8L437.3,265.8z M476.5,231.8c0,3.4-1.1,4.4-4.5,4.4c-7.5,0-15,0.1-22.4,0
			c-6.7,0-6.9-0.2-6.9-7c0-2,0-4,0-6c0-3.4,1.1-4.4,4.5-4.4c4.2,0,8.4,0,12.5,0l0,0c4.3,0,8.6,0,13,0c2.5,0,3.7,1.1,3.8,3.6
			C476.5,225.7,476.5,228.8,476.5,231.8L476.5,231.8z M459,202.2c0.1-2.2,1.2-3.3,3.4-3.4c3.5-0.1,7.1-0.1,10.7,0
			c1.6-0.1,3,1.1,3.1,2.7c0,0.1,0,0.1,0,0.2c0.2,2.5,0.2,4.9,0.1,7.4c0,1.7-1.4,3.1-3.1,3.1c-0.1,0-0.2,0-0.3,0
			c-1.8,0.1-3.6,0-5.3,0v0.1c-1.7,0-3.4,0-5.1,0c-2-0.1-3.3-1.1-3.3-3.1C458.9,206.9,458.9,204.6,459,202.2z M437.3,202.4
			c0.1-2.3,1.2-3.5,3.4-3.6c3.4-0.1,6.9-0.1,10.3,0c2.2,0.1,3.4,1.2,3.5,3.5c0.2,2.2,0.2,4.4,0,6.6c-0.1,2.2-1.4,3.3-3.6,3.4
			c-1.7,0.1-3.4,0-5.1,0l0,0c-1.6,0-3.3,0.1-4.9,0c-2.3-0.1-3.4-1.2-3.5-3.4S437.2,204.6,437.3,202.4L437.3,202.4z M438.4,222.8
			c0.1,3.4,0.1,6.7,0,10.1c-0.1,2.3-1,3.2-3.3,3.4c-1.9,0.2-3.8,0-5.7,0v0.1c-1.7,0-3.4,0-5.1,0s-3.1-0.8-3.1-2.8
			c-0.1-3.6-0.3-7.1-0.2-10.6c0.1-2.9,1.3-3.9,4.2-3.9c3.1-0.1,6.2-0.1,9.3,0C437.1,219,438.3,220.1,438.4,222.8L438.4,222.8z
			 M415.6,202.5c0.1-2.4,1.2-3.6,3.6-3.6c3.4-0.1,6.7-0.1,10.1,0c2.4,0.1,3.5,1.2,3.6,3.6c0.1,2.1,0.1,4.1,0,6.2
			c-0.1,2.4-1.3,3.6-3.7,3.8c-1.7,0.1-3.4,0-5.1,0l0,0c-1.6,0-3.3,0.1-4.9,0c-1.8,0.1-3.4-1.2-3.5-3c0-0.2,0-0.3,0-0.5
			C415.5,206.8,415.5,204.6,415.6,202.5L415.6,202.5z M416.8,222.8c0.1,3.4,0.1,6.8,0,10.3c0.2,1.6-1,3.1-2.6,3.3
			c-0.2,0-0.5,0-0.7,0c-3.6,0.1-7.3,0.1-10.9,0c-2-0.1-3-1.1-3-3.1c-0.1-1.8,0-3.6,0-5.3l0,0c0-1.8,0-3.6,0-5.3
			c0.1-2.1,1.1-3.4,3.3-3.5c3.5-0.1,7.1-0.1,10.7,0C415.5,219.2,416.7,220.6,416.8,222.8L416.8,222.8z M393.9,201.8
			c0.1-2,1.3-2.9,3.2-2.9c1.6,0,3.3,0,4.9,0l0,0c1.6,0,3.3,0,4.9,0c2.8,0.1,4,1.2,4.1,4c0.1,1.9,0.1,3.8,0,5.8
			c-0.1,2.4-1.1,3.6-3.5,3.7c-3.4,0.1-6.8,0.1-10.3,0c-2.3-0.1-3.3-1-3.4-3.3C393.7,206.6,393.9,204.2,393.9,201.8L393.9,201.8z
			 M377.6,222.2c0.1-2.6,0.6-3,3.2-3.2h0.6h4.5l0,0c1.8,0,3.6,0,5.3,0s3.3,1,3.3,2.9c0.1,4,0.1,7.9-0.1,11.9
			c-0.1,1.5-1.4,2.6-2.8,2.5l0,0c-3.7,0.1-7.4,0.1-11.1,0c-1.5,0.1-2.8-0.9-2.9-2.4c0-0.1,0-0.3,0-0.4
			C377.6,229.7,377.5,225.9,377.6,222.2z M359.6,201.4c0.1-1.7,1.4-2.5,3-2.5c3.6-0.1,7.3-0.1,10.9,0c1.6-0.1,3,1.2,3.1,2.8
			c0,0.1,0,0.2,0,0.2c0.1,2.4,0.1,4.8,0,7.2c-0.1,2.2-1.4,3.2-3.4,3.3c-1.7,0.1-3.4,0-5.1,0v-0.1c-1.9,0-3.8,0-5.7,0
			c-1.4,0.1-2.6-1-2.6-2.4c0-0.1,0-0.1,0-0.2C359.5,206.9,359.5,204.2,359.6,201.4L359.6,201.4z M355.7,222.7c0-2.7,1.1-3.6,3.8-3.7
			h0.6h4.1c1.6,0,3.3,0,4.9,0c2.4,0,3.8,1,3.9,3.3c0.2,3.6,0.1,7.2-0.1,10.8c-0.1,2.1-1.4,3.1-3.4,3.1c-3.5,0.1-6.9,0.1-10.4,0
			c-2.4-0.1-3.4-1.2-3.5-3.6C355.6,229.3,355.6,226,355.7,222.7L355.7,222.7z M337.8,202.4c0.2-2.5,1.2-3.5,3.7-3.6
			c3.2-0.1,6.5-0.1,9.7,0c2.6,0.1,3.8,1.2,4,3.8c0.2,2.1,0.2,4.1,0,6.2c-0.2,2.4-1.5,3.5-3.9,3.6c-1.6,0.1-3.1,0-4.7,0s-3.2,0-4.7,0
			c-2.5-0.1-3.7-1.1-3.9-3.6C337.7,206.7,337.6,204.6,337.8,202.4L337.8,202.4z M334,222.5c0.1-2.4,1.3-3.5,3.6-3.5
			c3.3,0,6.6-0.1,9.9,0c2.5,0,3.8,1.4,3.9,3.8c0.1,3.2,0.1,6.4,0,9.7c0,2.4-1.2,3.7-3.7,3.8c-3.4,0.1-6.9,0.1-10.3,0
			c-2.3-0.1-3.3-1.2-3.4-3.5c0-0.1,0-0.3,0-0.4v-4.7l0,0C334,226,333.9,224.2,334,222.5z M316,201.9c0.1-2,1.3-3,3.4-3.1h5.1
			c1.6,0,3.3-0.1,4.9,0c2.3,0.1,3.4,0.8,3.6,3.1c0.2,2.5,0.1,5.1-0.1,7.6c0,1.5-1.3,2.7-2.8,2.6H330c-3.5,0.1-7,0.2-10.5,0.1
			c-2.4-0.1-3.4-0.9-3.6-3.3C315.9,206.6,315.9,204.2,316,201.9z M312.7,221.8c0.1-1.5,1.4-2.7,2.9-2.6c0,0,0,0,0.1,0
			c3.6-0.1,7.3-0.1,10.9,0.1c2.2,0.1,3.3,1.3,3.4,3.6c0.1,3.4,0.1,6.7,0,10.1c-0.1,2.3-1.4,3.4-3.7,3.5c-0.9,0.1-1.8,0.1-2.7,0.1
			H321v-0.1c-1.7,0-3.4,0-5.1,0c-1.9,0-3.2-1-3.3-2.9C312.5,229.5,312.5,225.6,312.7,221.8L312.7,221.8z M315.1,240.8
			c2.1,0.1,3.3,1.1,3.4,3.1c0.1,3.6,0.1,7.2,0,10.9c0.1,1.6-1.1,3-2.7,3.1c-0.1,0-0.3,0-0.4,0c-3.5,0-7,0.2-10.5,0.1
			c-2.5-0.1-3.5-1-3.6-3.5c-0.2-3.4-0.1-6.8,0-10.3c0.1-2.3,1.3-3.3,3.6-3.4c1.7-0.1,3.4,0,5.1,0l0,0
			C311.6,240.8,313.3,240.7,315.1,240.8L315.1,240.8z M294.2,202.3c0.1-2.2,1.3-3.2,3.6-3.5c0.2,0,0.4,0,0.6,0h4.7
			c1.6,0,3.1,0,4.7,0c1.7-0.2,3.2,1,3.5,2.6c0,0.1,0,0.2,0,0.4c0.2,2.6,0.1,5.2-0.1,7.8c-0.1,1.5-1.3,2.7-2.9,2.6h-0.1
			c-3.6,0.1-7.1,0.1-10.7,0c-1.8,0.1-3.3-1.2-3.4-3c0-0.1,0-0.2,0-0.4C294,206.7,294,204.5,294.2,202.3L294.2,202.3z M290.8,222.7
			c0.1-2.4,1-3.5,3.3-3.6c3.5-0.1,7-0.1,10.5,0c1.8,0,3.1,0.9,3.2,2.8c0.2,3.9,0.2,7.8,0.1,11.6c-0.1,1.9-1.5,2.8-3.4,2.9
			c-3.4,0-6.8,0.1-10.3,0c-2.4,0-3.3-1.1-3.4-3.5c-0.1-1.8,0-3.6,0-5.3l0,0C290.8,226,290.7,224.3,290.8,222.7L290.8,222.7z
			 M288.3,240.8L288.3,240.8c1.6,0,3.2-0.1,4.7,0c2.6,0.1,3.9,1.4,4,4c0.1,3.1,0.1,6.3,0,9.4c-0.1,2.7-1.3,3.9-4,3.9
			c-3.3,0.1-6.6,0.1-9.9,0c-2.4-0.1-3.5-1.2-3.5-3.6c0-3.4,0-6.7,0-10.1c0-2.4,1.1-3.5,3.5-3.6c0.9-0.1,1.8,0,2.7,0L288.3,240.8z
			 M282.6,219.2c2.5,0.1,3.8,1.4,3.8,3.9c0.1,3.2,0.1,6.4,0,9.7c-0.1,2.5-1,3.6-3.5,3.7c-3.5,0.2-7.1,0.1-10.7,0
			c-2.2-0.1-3.1-1.1-3.2-3.4c0-0.2,0-0.4,0-0.6V228c0-1.6,0-3.3,0-4.9c0.1-2.3,1.1-3.5,3.3-3.6C275.7,219.1,279.1,219.1,282.6,219.2
			L282.6,219.2z M260,202.5c0.1-2.2,1.3-3.4,3.5-3.4c3.3-0.1,6.6-0.1,9.8,0c2.6,0.1,3.5,1,3.6,3.7c0.1,2.1,0.1,4.2,0,6.4
			s-1.4,3.3-3.6,3.4c-1.8,0.1-3.5,0-5.3,0s-3.3,0-4.9,0c-1.4,0.2-2.7-0.7-2.9-2.1c0-0.2,0-0.4,0-0.5
			C260.1,207.4,259.9,204.9,260,202.5z M238.3,201.9c0-1.5,1.1-2.8,2.7-2.8c0,0,0,0,0.1,0c3.7-0.1,7.4-0.2,11.1-0.1
			c1.5-0.1,2.8,1.1,3,2.6c0.3,2.6,0.3,5.3,0.1,7.9c-0.2,2-1.7,2.9-3.6,2.9c-1.7,0.1-3.4,0-5.1,0l0,0c-1.7,0-3.4,0-5.1,0
			c-1.5,0.1-2.8-1-2.9-2.5v-0.1C238.3,207.2,238.2,204.5,238.3,201.9L238.3,201.9z M239.5,219.3c2.3,0.1,3.3,1.2,3.4,3.6
			c0.1,3.3,0.1,6.6,0,9.9c-0.1,2.6-1.2,3.6-3.7,3.7c-1.7,0.1-3.4,0-5.1,0h-5c-1.9,0-3.1-1-3.1-2.8c-0.1-3.7-0.2-7.4,0.1-11.1
			c0.1-2.5,1-3.2,3.6-3.3C232.8,219.1,236.1,219.1,239.5,219.3L239.5,219.3z M216.7,202.7c0.1-2.3,1.2-3.5,3.6-3.6
			c3.4-0.1,6.8,0,10.3,0.1c1.7-0.1,3.1,1.2,3.2,2.8c0,0.1,0,0.2,0,0.2c0.2,2.2,0.3,4.5,0.2,6.7c-0.1,2-1.8,3.6-3.8,3.6h-4.9v-0.1
			c-1.8,0-3.6,0.1-5.3,0c-1.7,0.1-3.1-1.1-3.2-2.8c0-0.2,0-0.3,0-0.5C216.6,207.1,216.6,204.9,216.7,202.7L216.7,202.7z
			 M218.2,219.2c1.6,0.1,2.8,1.5,2.8,3.1c0.1,3.7,0,7.4-0.1,11.1c-0.1,2.1-1.5,3-3.5,3c-3.5,0-7,0.1-10.5,0c-1.9,0-3-1.1-3.1-3.1
			s0-3.8,0-5.8l0,0c0-1.7,0-3.4,0-5.1s0.9-3,2.6-3.1C210.4,219.1,214.3,219.1,218.2,219.2L218.2,219.2z M194.9,202.5
			c0.1-2.1,1.1-3.2,3.1-3.3c3.6-0.1,7.2,0,10.9,0c1.5-0.1,2.8,1,3,2.5v0.1c0.2,2.6,0.2,5.2,0,7.8c-0.1,1.9-1.5,2.9-3.4,2.9
			c-1.7,0-3.4,0-5.1,0l0,0c-1.6,0-3.3,0.1-4.9,0c-2.3-0.1-3.5-1.3-3.6-3.6C194.8,206.7,194.8,204.6,194.9,202.5L194.9,202.5z
			 M182.2,223.1c0.1-2.8,1.4-4,4.1-4c2.9,0,5.9,0,8.8,0c2.6,0,3.8,0.8,4,3.4c0.3,3.5,0.3,7.1,0.1,10.6c-0.2,2.8-2.1,3.8-5,3.6
			c-2.6-0.2-5.3-0.1-8-0.2c-2.9-0.1-3.8-1-3.9-3.9c0-1.5,0-3,0-4.5h-0.2C182.2,226.4,182.1,224.7,182.2,223.1z M160.8,201.9
			c0-1.5,1.1-2.7,2.6-2.7c0.1,0,0.3,0,0.4,0c1.8,0,3.6,0,5.4,0l0,0c1.8,0,3.6,0,5.4,0c1.6-0.2,3,1,3.2,2.6c0,0.1,0,0.3,0,0.4
			c0.1,2.4,0.1,4.8,0,7.2c0,1.7-1.3,3-3,3c-0.1,0-0.2,0-0.2,0c-3.4,0.1-6.8,0.1-10.3,0c-1.7,0.2-3.2-1.1-3.4-2.8c0-0.2,0-0.3,0-0.5
			C160.7,206.7,160.7,204.3,160.8,201.9L160.8,201.9z M160.7,222.4c-0.1-1.7,1.2-3.1,2.9-3.1c0.1,0,0.2,0,0.3,0
			c3.6-0.1,7.1-0.1,10.7,0c1.7-0.1,3.2,1.3,3.3,3c0,0.1,0,0.2,0,0.3c0.1,3.6,0.1,7.1,0,10.7c0.1,1.7-1.2,3.1-2.9,3.2
			c-0.1,0-0.3,0-0.4,0c-1.8,0.1-3.6,0-5.3,0l0,0c-1.8,0-3.6,0.1-5.3,0c-1.7,0.1-3.1-1.2-3.1-2.9c0-0.1,0-0.2,0-0.3
			C160.6,229.6,160.6,226,160.7,222.4L160.7,222.4z M165.5,284.1c11.6,0,23.2,0,34.8,0c3.5,0,4.5,1,4.6,4.5c0.1,3,0.1,6,0,9
			c-0.1,2.7-1,3.7-3.8,3.8c-6.1,0.1-12.2,0-18.3,0l0,0c-5.9,0-11.8,0-17.7,0c-3.3,0-4.3-1-4.4-4.3c-0.1-2.7-0.1-5.4-0.1-8
			C160.6,285.4,161.8,284.1,165.5,284.1L165.5,284.1z M196.3,319.7c-0.1,2.7-1,3.5-3.7,3.5c-4.7,0-9.3,0-14,0l0,0
			c-4.5,0-9.1,0-13.6,0c-3.3,0-4.3-1-4.4-4.3c0-3,0-6,0-9c0-2.8,1.2-4,3.9-4c9.3,0,18.7,0,28,0c2.6,0,3.7,1,3.8,3.6
			C196.5,312.9,196.5,316.3,196.3,319.7L196.3,319.7z M220,319.9c0,2-1.1,3.2-3.1,3.3c-4.3,0.1-8.6,0.1-12.9,0c-1.6,0.1-3-1.2-3-2.8
			c0-0.1,0-0.1,0-0.2c-0.1-3.5-0.2-7.1-0.1-10.7c0.1-2.4,1.3-3.5,3.8-3.6c1,0,2.1,0,3.1,0h2.9c1.9,0,3.7,0,5.5,0
			c2.6,0.1,3.9,1.4,4,4C220.1,313.2,220.1,316.5,220,319.9L220,319.9z M217.5,301.5L217.5,301.5c-1.7-0.1-3.4-0.1-5.1-0.1
			c-1.5,0.2-2.9-0.9-3.1-2.4c0-0.2,0-0.4,0-0.6c-0.1-3.8-0.1-7.5,0-11.3c-0.1-1.5,1-2.7,2.5-2.8c0.1,0,0.3,0,0.4,0
			c3.6,0,7.1-0.1,10.7-0.1c2.5,0.1,3.5,1.1,3.7,3.5c0.2,3.1,0.2,6.3,0.1,9.4c-0.2,3.3-1.2,4.2-4.5,4.3
			C220.6,301.5,219,301.5,217.5,301.5L217.5,301.5z M243.4,320.6c-0.1,2.1-1.4,2.9-3.8,2.8h-5.5c0-0.1,0-0.2,0-0.3
			c-2.3,0-4.5,0-6.8,0c-1.5,0.1-2.8-1-2.9-2.4c0-0.1,0-0.3,0-0.4c-0.1-3.7-0.1-7.4,0-11.1c-0.1-1.7,1.2-3.2,3-3.3c0.1,0,0.2,0,0.3,0
			c4.2-0.1,8.4-0.1,12.5,0c1.7,0,3.2,1.3,3.2,3v0.1C243.6,313,243.6,316.8,243.4,320.6L243.4,320.6z M247.7,298.5
			c-0.1,2-1.3,2.9-3.3,2.9h-10.7c-1.6,0-2.7-0.8-2.8-2.4c-0.1-4-0.2-7.9-0.1-11.9c0-1.5,1.2-2.8,2.7-2.9c0.1,0,0.2,0,0.2,0
			c3.6,0,7.1,0,10.7,0.2c1.7-0.1,3.3,1.2,3.4,3c0,0.1,0,0.3,0,0.4C247.9,291.4,247.9,294.9,247.7,298.5L247.7,298.5z M374.1,319.4
			c-0.1,3-1.1,3.9-4.1,3.9c-5.2,0.1-10.4,0.1-15.6,0.1c-13.5,0-27,0-40.5,0c-20.3,0-40.6-0.1-60.9-0.2c-3.8,0-4.9-1-4.9-4.9
			c0-2.3,0-4.7,0-7c0-4.6,1-5.6,5.6-5.6H311v0.1h42.8c5.2,0,10.4,0,15.6,0c3.4,0,4.6,1.1,4.8,4.5
			C374.3,313.4,374.3,316.4,374.1,319.4z M375.7,301.4c-4,0.1-7.9,0.2-11.9,0.1c-1.8,0-2.6-1.4-2.7-3.1c-0.1-1.9,0-3.7,0-5.5H361
			c0-1.7-0.1-3.4,0-5.1c0.1-2.2,1.1-3.4,3.3-3.5c3.6-0.1,7.3,0,10.9,0.1c1.6-0.1,2.9,1.1,3,2.7v0.1c0.1,3.9,0.1,7.8,0,11.7
			c0.1,1.4-1,2.5-2.4,2.6C375.8,301.4,375.8,301.4,375.7,301.4L375.7,301.4z M397.5,320.4c-0.1,2.1-1.6,3.2-3.6,3.2
			c-4,0.1-8.1,0.1-12.1,0c-1.8,0.1-3.4-1.3-3.5-3.1c0-0.2,0-0.3,0-0.5c-0.1-3.4-0.2-6.7-0.1-10.1c0.1-2.8,1.2-3.8,4-3.9
			c1,0,1.9,0,2.9,0h2.7l0,0c2,0,4-0.1,6,0c2.3,0.1,3.6,1.1,3.7,3.3C397.7,313.1,397.7,316.8,397.5,320.4L397.5,320.4z M400.3,298.4
			c-0.1,2.2-1.3,3.4-3.6,3.4c-3.5,0.1-7,0.1-10.5,0c-2.1,0-3.2-1.3-3.3-3.4c-0.1-1.8,0-3.6,0-5.3l0,0c0-1.7,0-3.4,0-5.1
			c-0.1-1.8,1.4-3.4,3.2-3.4h0.1c3.4-0.1,6.9-0.1,10.3,0c1.9-0.2,3.5,1.2,3.7,3.1c0,0.2,0,0.3,0,0.5
			C400.4,291.5,400.4,294.9,400.3,298.4L400.3,298.4z M437,319.4c0,3.1-1.2,4.2-4.2,4.2c-4.5,0-9,0-13.5,0l0,0h-13c-3,0-4.2-1-4.3-4
			c-0.1-3.4-0.1-6.7,0-10.1c0.1-2.2,1.3-3.4,3.6-3.4c9.1,0,18.2-0.1,27.3,0c2.9,0,4.1,1.4,4.1,4.2C437,313.4,437,316.4,437,319.4z
			 M476.4,319.9c-0.1,2.8-1.3,3.8-4,3.8c-9,0-17.9,0-26.9-0.1c-3.1,0-3.9-0.9-4-3.9s-0.2-6-0.2-9c0-3.4,1.1-4.5,4.6-4.5h12.9l0,0
			c4.3,0,8.6,0,13,0c3.6,0,4.8,1.2,4.8,4.8C476.5,314,476.5,316.9,476.4,319.9L476.4,319.9z M476.4,298.1c-0.1,2.7-1.1,3.7-3.8,3.7
			c-7,0.1-14,0-21,0v-0.1h-20.1c-4.2,0-5.2-1-5.2-5.2c0-2.7,0-5.3,0-8c0-3.2,1.2-4.4,4.4-4.4c8.1,0,16.2,0.1,24.2,0.1
			c5.5,0,10.9,0.1,16.4,0.1c4.3,0,5.4,1.1,5.4,5.3C476.6,292.5,476.5,295.3,476.4,298.1z M482.9,202.6c0.1-2.4,1.3-3.6,3.8-3.7
			c1.7-0.1,3.4,0,5.1,0s3.3,0,4.9,0c2,0,3.3,1,3.5,3c0.2,2.5,0.2,4.9,0,7.4c-0.1,1.8-1.6,3.2-3.4,3.1h-0.1c-3.5,0.1-7,0.1-10.5,0
			c-1.7,0.1-3.2-1.3-3.3-3c0-0.1,0-0.1,0-0.2C482.8,206.9,482.8,204.7,482.9,202.6z M500.4,320.4c0.1,1.7-1.1,3.1-2.8,3.2
			c-0.1,0-0.2,0-0.3,0c-3.8,0.1-7.5,0.1-11.3,0c-1.9,0-3-1.4-3.1-3.4c-0.1-1.9,0-3.7,0-5.5s0-3.6,0-5.3s0.7-2.8,2.5-2.8
			c3.9,0,7.8-0.2,11.6-0.1c1.7-0.1,3.2,1.2,3.2,2.9c0,0.1,0,0.2,0,0.3C500.5,313.3,500.5,316.9,500.4,320.4z M500.4,254.6
			c0,2.3-1.1,3.4-3.2,3.5c-3.8,0.1-7.5,0.2-11.3,0.1c-2,0-3-1.4-3-3.4c0-1.6,0-3.3,0-4.9l0,0c0-1.8,0-3.6,0-5.4
			c0.1-2.4,1.1-3.6,3.5-3.7c3.5-0.1,7-0.1,10.5,0c2.4,0.1,3.5,1.3,3.5,3.7C500.5,247.9,500.5,251.3,500.4,254.6L500.4,254.6z
			 M500.5,232.9c-0.1,2.5-1.1,3.5-3.6,3.6c-3.5,0.1-7.1,0.1-10.6,0c-2.3-0.1-3.2-1.2-3.3-3.5c0-1.6,0-3.3,0-4.9l0,0
			c0-1.6,0-3.3,0-4.9c0.1-2.5,1.3-3.9,3.8-3.9c3.3-0.1,6.7-0.1,10,0c2.4,0.1,3.6,1.3,3.7,3.7C500.6,226.2,500.7,229.5,500.5,232.9
			L500.5,232.9z M522,320.2c0.1,1.7-1.3,3.2-3,3.3c-0.1,0-0.3,0-0.4,0c-3.6,0.1-7.1,0.1-10.7,0c-2.2-0.1-3.3-1.5-3.4-3.7
			c0-0.1,0-0.3,0-0.4v-4.7c0-1.7,0-3.4,0-5.1c0.1-2.4,0.8-3.3,3.2-3.4c3.5-0.2,7-0.2,10.5,0c2.5,0.1,3.9,1.4,4,3.8
			C522.2,313.3,522.1,316.8,522,320.2z M522.3,293L522.3,293c0,1.9,0.1,3.7,0,5.5c0.1,1.7-1.1,3.1-2.8,3.3c-0.1,0-0.3,0-0.4,0
			c-3.6,0.1-7.3,0.1-10.9,0c-2.5-0.1-3.6-1.5-3.6-4.8c0-3.1,0.2-6.1,0.2-9.2c0-2.2,1.2-3.2,3.1-3.3c3.7-0.1,7.4-0.1,11.1,0
			c2.3,0.1,3.2,1.4,3.3,3.7c0,0.1,0,0.3,0,0.4V293z M522.3,254.8c0,2.4-1,3.3-3.4,3.4c-0.9,0-1.8,0-2.7,0h-2.7c-1.8,0-3.6,0-5.3,0
			c-2.3-0.1-3.3-1-3.3-3.3c-0.1-3.5-0.1-7,0-10.5c0-1.9,0.9-3.2,2.9-3.2c3.8-0.1,7.7-0.1,11.5,0c2.3,0.1,3,0.9,3,3.3
			C522.3,247.9,522.3,251.4,522.3,254.8L522.3,254.8z M526.4,202.7c0.1-2.2,1.2-3.5,3.5-3.6c3.6-0.1,7.2-0.1,10.9,0
			c2.3,0,3.2,1.7,3.4,3.5c0.1,2.3,0,4.6-0.3,6.9c-0.2,2-1.6,3-3.5,3c-1.7,0.1-3.4,0-5.1,0s-3.3,0-4.9,0c-2.4-0.1-3.7-1.3-3.8-3.6
			C526.2,206.8,526.2,204.7,526.4,202.7L526.4,202.7z M529.8,236.4c-2.5-0.1-3.5-1.2-3.5-3.6c0-3.2,0-6.4,0-9.7c0-2.9,1.1-4,4-4.1
			c3.3-0.1,6.6-0.1,9.9,0c2.4,0.1,3.7,1.2,3.8,3.7c0.1,3.4,0.1,6.7,0,10.1c-0.1,2.5-1.3,3.5-3.8,3.6c-1.6,0-3.3,0-4.9,0l0,0
			C533.4,236.4,531.6,236.4,529.8,236.4L529.8,236.4z M526.3,249.4L526.3,249.4c0-1.6,0-3.1,0-4.7c0.1-2.6,1-3.6,3.6-3.7
			c3.5-0.1,7-0.1,10.5,0c2.2,0.1,3.4,1.1,3.5,3.3c0.2,3.6,0.2,7.1,0,10.7c-0.1,2.3-1.3,3.3-3.6,3.4c-3.4,0.1-6.9,0.1-10.3,0
			c-2.7-0.1-3.6-1.2-3.7-3.9C526.2,252.6,526.3,251,526.3,249.4L526.3,249.4z M544.1,320.4c0,1.9-1.6,3.4-3.6,3.4h-0.1
			c-0.9,0-1.8,0-2.7,0h-2.5c-1.8,0-3.7,0-5.5,0s-3.2-1.1-3.2-3c-0.1-3.8-0.1-7.5,0-11.3c-0.1-1.6,1.2-3,2.8-3.1c0.1,0,0.2,0,0.4,0
			c3.6-0.1,7.3-0.1,10.9,0c1.8-0.1,3.4,1.3,3.5,3.1c0,0.1,0,0.2,0,0.2C544.1,313.2,544.1,316.7,544.1,320.4L544.1,320.4z M590.1,320
			c-0.1,2.8-1.4,3.9-4.4,4c-5.3,0.1-10.5,0-15.8,0v0.1c-5.1,0-10.1,0-15.2,0c-3.5,0-4.7-1.1-4.8-4.6c-0.1-2.9-0.1-5.9-0.1-8.8
			c0-3.6,1-4.7,4.6-4.7c8.7,0,17.4-0.1,26.1-0.1c1.8,0,3.7,0,5.5,0c2.4,0.1,3.9,1.4,4,3.8C590.1,313.1,590.2,316.5,590.1,320
			L590.1,320z M593.7,287.9c0-2.5,1-3.4,3.6-3.5c1.7,0,3.4,0,5.1,0l0,0c1.8,0,3.7-0.1,5.5,0c1.9-0.1,3.4,1.4,3.5,3.3
			c0,0.1,0,0.3,0,0.4c0,3.4,0.1,6.7,0,10c-0.1,2.4-1.1,3.4-3.4,3.5c-3.6,0.2-7.3,0.2-10.9,0c-2.4-0.1-3.2-1.2-3.3-3.6
			C593.6,294.7,593.5,291.3,593.7,287.9L593.7,287.9z M611.6,319.9c0,2.4-1.2,3.7-3.6,3.8c-3.4,0.1-6.8,0.1-10.3,0
			c-2.7-0.1-3.7-1.1-3.8-3.8c0-0.1,0-0.3,0-0.4v-4.7l0,0c0-1.8-0.1-3.6,0-5.3c0.1-2.2,1-3.1,3.2-3.1c3.6-0.1,7.3-0.1,10.9,0
			c2.5,0.1,3.6,1.3,3.6,3.8C611.6,313.3,611.6,316.6,611.6,319.9L611.6,319.9z M633.8,319.5c-0.1,3.3-1.2,4.5-4.5,4.5s-6.7,0-10.1,0
			c-2.6,0-4.1-1.4-4.1-4c0-5.4,0-10.8,0-16.2l0,0c0-5.1,0-10.3,0-15.4c0-3.2,1-4.1,4.2-4.1s6.1-0.2,9.2-0.1c4.1,0,5.2,1,5.2,5.1
			c0.1,7.5,0.1,15.1,0.1,22.6C633.7,314.4,633.8,317,633.8,319.5L633.8,319.5z M633.8,275.6c-0.1,4-0.8,4.7-4.7,4.8
			c-3.5,0.1-7,0.1-10.4,0c-2.3-0.1-3.6-1.6-3.6-3.9c0-5.3,0-10.7,0-16h0.1c0-5,0-10,0-15c0-3.5,1.1-4.6,4.5-4.6c3.2-0.1,6.4,0,9.7,0
			s4.3,1.2,4.4,4.4c0.1,4.6,0.1,9.2,0.1,13.8C633.8,264.5,633.8,270.1,633.8,275.6L633.8,275.6z"/>
		<circle class="st9" cx="424.1" cy="271.4" r="15"/>
		<line class="st9" x1="424.1" y1="286.4" x2="424.1" y2="391.4"/>
		<path class="st0" d="M387.1,391.4h74c6.6,0,12,5.4,12,12v74c0,6.6-5.4,12-12,12h-74c-6.6,0-12-5.4-12-12v-74
			C375.1,396.8,380.5,391.4,387.1,391.4z"/>
		<text transform="matrix(1 0 0 1 396.91 454.63)" class="st6 st1 st10">?</text>
		<text transform="matrix(1 0 0 1 438.67 505.17)" class="st6 st1 st11 st12">’</text>
	</g>
</g>
</svg>