<svg xmlns="http://www.w3.org/2000/svg" viewBox="0 0 644.09 527.5"><defs><style>.cls-1{font-size:111.45px;letter-spacing:0em;}.cls-1,.cls-12{fill:#3097c3;}.cls-1,.cls-15,.cls-5{font-family:MyriadPro-Regular, Myriad Pro;}.cls-2,.cls-4{stroke:#ffffec;}.cls-13,.cls-2,.cls-4,.cls-7{stroke-miterlimit:10;}.cls-3,.cls-7,.cls-8{fill:#e6a454;}.cls-3{letter-spacing:-0.04em;}.cls-4{letter-spacing:0em;}.cls-5,.cls-8{font-size:22.12px;}.cls-14,.cls-15,.cls-5{fill:#ffffec;}.cls-6{letter-spacing:0em;}.cls-7{stroke:#e6a454;}.cls-14,.cls-8{font-family:Raleway-Medium, Raleway;font-weight:500;}.cls-9{letter-spacing:-0.01em;}.cls-10{letter-spacing:-0.01em;}.cls-11{letter-spacing:-0.02em;}.cls-13{fill:none;stroke:#d55225;stroke-width:4.05px;}.cls-14{font-size:63px;}.cls-15{font-size:89.32px;letter-spacing:-0.09em;}</style></defs><title>Asset 1</title><g id="Layer_2" data-name="Layer 2"><g id="Glavno_Besedilo" data-name="Glavno Besedilo"><text class="cls-1" transform="translate(214.79 103.23)"><tspan class="cls-2">I</tspan><tspan class="cls-3" x="26.08" y="0">’</tspan><tspan class="cls-4" x="44.8" y="0">m</tspan></text><text class="cls-5" transform="translate(0 18.52)"><tspan class="cls-6">E</tspan><tspan x="10.8" y="0">dnina (Singular)</tspan></text><line class="cls-7" x1="258.09" y1="31.91" x2="462.09" y2="31.91"/><text class="cls-8" transform="translate(469 37.75)">Apost<tspan class="cls-9" x="60.72" y="0">r</tspan><tspan class="cls-10" x="68.49" y="0">o</tspan><tspan class="cls-11" x="81.54" y="0">f</tspan></text><path class="cls-12" d="M644.08,193.77c0-1.71,0-3.43-.09-5.14-.35-5.4-3.36-9.19-8.52-10.55a19.62,19.62,0,0,0-4.89-.55q-29.75-.08-59.48-.06a16.56,16.56,0,0,0-2.4.36,6.3,6.3,0,0,0-1.5-.36q-17.37-.06-34.73-.06a6.37,6.37,0,0,0-1.65.46,12.4,12.4,0,0,0-2.37-.46c-7.68,0-15.36,0-23,0l-86.6,0q-29.73,0-59.45,0l-132.28.2q-31.78,0-63.58,0a13.19,13.19,0,0,0-8.14,2.36c-3.88,2.9-4.62,7.09-4.61,11.54q0,48.36.06,96.74c0,11.52,0,23.05.09,34.57.06,6.12,3.21,10.11,8.92,11.51a23.5,23.5,0,0,0,5.5.55q51.72.08,103.42.1,72.17,0,144.34,0l122.82.05h32.26c21.26,0,42.54,0,63.8-.11,7.77-.05,11.95-4.32,12-12.1.12-23.51.11-47,.12-70.55Q644.11,223.09,644.08,193.77Zm-28.51,28.35a2.52,2.52,0,0,1,2.7-2.74c4.11,0,8.22,0,12.32.06,1.85,0,2.65,1.36,2.68,3,.05,3.63,0,7.27,0,10.9a2.87,2.87,0,0,1-3.17,3c-2,0-4,0-6,0v0c-1.84,0-3.7,0-5.54,0s-3-1-3-2.93C615.53,229.66,615.52,225.89,615.57,222.12Zm-4.05,54.44c-.1,2.3-1.12,3.55-3.37,3.61-3.76.12-7.53,0-11.29-.08a2.9,2.9,0,0,1-3.05-3.17q-.1-5.55,0-11.1a2.58,2.58,0,0,1,2.85-2.8c3.9,0,7.8-.09,11.69,0,2.1,0,3.06,1.1,3.16,3.27.08,1.71,0,3.43,0,5.14S611.59,274.85,611.52,276.56Zm-17.73-53.51c.09-2.37,1-3.46,3.35-3.56,3.62-.13,7.25-.12,10.87,0,2.16.06,3.35,1.18,3.44,3.31.14,3.55.12,7.12,0,10.67a3.27,3.27,0,0,1-3.47,3.32c-3.55.09-7.11.12-10.66,0-2.4-.08-3.41-1.22-3.5-3.66-.07-1.71,0-3.42,0-5.13h0C593.78,226.34,593.73,224.69,593.79,223.05Zm0,21c0-1.89,1.22-2.8,3.08-2.82s4,0,6,0v0c1.78,0,3.56-.05,5.34,0,2.1.07,3.23,1.08,3.28,3.13.08,3.56.07,7.12,0,10.67,0,1.91-1,3.18-3,3.21-4,.06-8,0-12.06-.06a2.47,2.47,0,0,1-2.59-2.63C593.74,251.74,593.74,247.91,593.81,244.08ZM572.11,223c.16-2.67,1.26-3.53,4-3.59q4.93-.09,9.86,0c2.56.05,3.74,1.09,3.82,3.57.11,3.56.07,7.12,0,10.67-.07,2-1.26,3.06-3.33,3.15-1.85.07-3.7,0-5.55,0v0c-1.71,0-3.42,0-5.13,0-2.33-.09-3.52-1-3.63-3.32A101.56,101.56,0,0,1,572.11,223Zm17.64,75.48c-.09,2.06-1.13,3.26-3.16,3.32-3.69.11-7.4.12-11.09,0-2.36-.07-3.4-1.1-3.48-3.46-.12-3.49-.07-7,0-10.48a3.07,3.07,0,0,1,3.2-3.31c3.76-.11,7.54-.16,11.3,0,2.27.11,3.2,1.35,3.31,3.65,0,.34,0,.69,0,1v3.9h-.08C589.76,294.92,589.82,296.7,589.75,298.48ZM572,244.1a2.58,2.58,0,0,1,2.63-2.84q6-.18,12.09-.06a2.89,2.89,0,0,1,3,3.21c0,3.43.07,6.86,0,10.28-.05,2.3-1.16,3.36-3.43,3.49-1,.06-1.92,0-2.88.05H580.5v-.05c-1.78,0-3.56,0-5.34,0-2.11-.06-3.12-.91-3.18-3C571.88,251.51,571.93,247.81,572,244.1Zm0,22a2.91,2.91,0,0,1,3.07-3.15c3.29-.07,6.58-.3,9.86-.15,3.71.17,4.89,1.65,4.86,5.37,0,2.67,0,5.35-.06,8s-1.28,3.85-4,3.93c-1.64.05-3.29,0-4.93,0s-3.43.05-5.15,0c-2.37-.1-3.6-1.18-3.68-3.52C571.86,273,571.88,269.55,572,266.05Zm-18.67-46.79c3.76-.07,7.53-.17,11.28,0,2.17.08,3.16,1.23,3.23,3.48.09,3.42.1,6.85,0,10.27-.09,2.44-1.16,3.34-3.66,3.46-.89,0-1.79.05-2.67.07H558.8v-.13h-5.55a2.74,2.74,0,0,1-3-2.88c-.12-3.69-.13-7.4,0-11.09A3,3,0,0,1,553.31,219.26Zm14.55,35.93c-.06,1.94-1.4,2.91-3.28,3s-3.7,0-5.55,0-3.42,0-5.13,0c-2.43-.07-3.56-.91-3.66-3.25-.15-3.55-.06-7.12,0-10.68a2.91,2.91,0,0,1,3.09-3.14c4,0,8.07,0,12.09.16a2.46,2.46,0,0,1,2.41,2.61C568,247.65,568,251.42,567.86,255.19Zm-17.72,33c0-2.73,1-3.73,3.71-3.82,1.7-.06,3.41,0,5.12,0h0c1.78,0,3.56-.06,5.34,0,2.29.11,3.54,1.31,3.61,3.6.09,3.28.08,6.56,0,9.84,0,2.62-1.13,3.8-3.74,3.9-3.41.13-6.84.14-10.25,0-2.65-.11-3.78-1.44-3.81-4.09C550.1,294.5,550.09,291.35,550.14,288.2ZM568,277.51c-.05,1.68-1.37,2.46-3,2.52-1.92.07-3.84,0-5.75,0s-3.7,0-5.55,0-3.16-1-3.19-3c0-3.75-.06-7.52,0-11.28a2.61,2.61,0,0,1,2.68-2.81c4.16-.05,8.33-.09,12.48.14a3.18,3.18,0,0,1,2.23,2.12C568.11,269.32,568.09,273.42,568,277.51Zm-60-41.15a2.9,2.9,0,0,1-3.14-3.07c-.08-3.63-.11-7.26,0-10.89a3.29,3.29,0,0,1,3.45-3.36c3.56-.09,7.12-.09,10.68,0a3.15,3.15,0,0,1,3.31,3.44c.1,3.61.08,7.23,0,10.84a2.89,2.89,0,0,1-3,3c-1.92.09-3.84,0-5.76,0h0C511.61,236.37,509.77,236.41,507.94,236.36Zm-3.19-33.53c.09-2.54,1.28-3.84,3.79-3.93,3.35-.12,6.71-.1,10.05,0,2.36.08,3.5,1.28,3.61,3.62.08,2,.07,4.1,0,6.15-.1,2.36-1.22,3.52-3.55,3.67-1.77.12-3.56,0-5.34,0v0c-1.77,0-3.55.09-5.32,0a3.13,3.13,0,0,1-3.19-3.33C504.72,206.93,504.68,204.88,504.75,202.83Zm-28.3,52.34a2.85,2.85,0,0,1-3.1,2.91q-8.42.17-16.83,0c-1.94,0-3-1.46-3-3.3-.08-3.56-.08-7.13.09-10.68.12-2.21,1.41-3.28,3.66-3.34,2.54-.07,5.07,0,7.61,0v.05c2.46,0,4.93,0,7.4,0,3,.06,4.15,1.2,4.19,4.11C476.52,248.32,476.5,251.75,476.45,255.17ZM353.79,280c-2.2-.11-3.28-1.15-3.34-3.33-.1-3.49-.13-7-.06-10.47,0-2.25,1.16-3.43,3.42-3.5,3.21-.11,6.44-.15,9.64,0s4.24,1.26,4.29,4.48c.05,2.87.06,5.75,0,8.62-.07,3-1.26,4.16-4.3,4.23-1.5,0-3,0-4.51,0h0C357.21,280,355.49,280.09,353.79,280Zm-36.34,12.68c0-1.64,0-3.28,0-4.93a3.59,3.59,0,0,1,3.29-3.49c3.36,0,6.72,0,10.07.06,2.69.08,3.92,1.24,4,3.91.11,3.28.07,6.58,0,9.87-.05,2.07-1.16,3.43-3.26,3.51-3.56.14-7.13.21-10.68,0-2.39-.11-3.3-1.35-3.35-3.83,0-1.71,0-3.42,0-5.14Zm-43.09-4.54c.12-2.53,1.19-3.66,3.66-3.71,3.29-.08,6.57-.08,9.85,0,2.32.06,3.57,1.27,3.65,3.58.12,3.35.12,6.7,0,10-.08,2.5-1.26,3.63-3.74,3.69-3.07.07-6.16.09-9.23,0s-4.21-1.44-4.23-4.56c0-1.43,0-2.87,0-4.31h0C274.35,291.3,274.29,289.73,274.36,288.15ZM165.05,262.61c6.65,0,13.3,0,19.95,0,2,0,4-.08,5.94.09a3.11,3.11,0,0,1,3.11,3.21c.09,3.69.13,7.38,0,11.06-.07,1.92-1.7,3-4.22,3-4.18,0-8.36,0-12.54,0H165.58c-3.76,0-4.88-1.12-4.9-4.91,0-2.75,0-5.49,0-8.23C160.79,263.83,162,262.64,165.05,262.61Zm-4.3-17.92c.06-2.65.82-3.44,3.45-3.51,6.56-.16,13.13-.3,19.69-.34,3.64,0,4.82,1.22,4.86,4.8,0,2.67,0,5.34,0,8,0,3.37-1.44,4.69-4.84,4.63-1.58,0-3.15-.1-4.73-.12s-3,0-4.52,0v.15c-3.14,0-6.29.06-9.44,0-3.63-.08-4.47-1-4.49-4.57C160.73,250.72,160.68,247.7,160.75,244.69Zm32.82,11c-.13-4-.13-8.05,0-12.08,0-1.63,1.2-2.37,2.79-2.38,3.54,0,7.09-.07,10.63-.07,2,0,3.3,1,3.34,3.07.08,3.63.06,7.25,0,10.88,0,2.15-1.39,3-3.35,3.07-1.77.06-3.56,0-5.34,0v.05c-1.64,0-3.28,0-4.93,0S193.63,257.5,193.57,255.68Zm5,15.45h0c0-1.64,0-3.28,0-4.92,0-1.9,1-3.35,2.88-3.42a110.89,110.89,0,0,1,11.24.2,3.42,3.42,0,0,1,3.4,3.67c0,3.28,0,6.56-.17,9.83-.16,2.28-1.46,3.41-3.8,3.49q-5,.15-10,0c-2.28-.07-3.45-1.38-3.52-3.7C198.52,274.56,198.56,272.84,198.56,271.13Zm16.24-16.27c-.14-3.49-.06-7,0-10.47a3,3,0,0,1,3.19-3.26c3.42-.07,6.84-.2,10.25-.06a3.69,3.69,0,0,1,3.93,3.9c.11,3.28.05,6.57-.14,9.85-.12,2.31-1.26,3.24-3.57,3.36-.89.05-1.79,0-2.68,0h-2.46v0c-1.64,0-3.29,0-4.93,0C216.05,258.09,214.88,257.15,214.8,254.86Zm5.28,11c.08-2.15,1.3-3.18,3.51-3.23,3.42-.08,6.85-.05,10.27,0,1.75,0,3,.93,3.06,2.68.19,3.82.28,7.64.24,11.46A3,3,0,0,1,234,279.8c-1.77.06-3.56,0-5.33,0a.62.62,0,0,1,0,.13c-1.57,0-3.15.06-4.72,0-2.54-.12-3.64-1-3.77-3.41C219.94,273,219.94,269.41,220.08,265.85Zm16.39-11c-.09-3.77-.08-7.53,0-11.29,0-1.87,1.37-2.61,3-2.71s3.56,0,5.34,0v-.06c1.71,0,3.42-.05,5.13,0,2.22.1,3.48,1.22,3.56,3.41.12,3.48.13,7,0,10.46-.05,2.19-1,3.18-3.14,3.27-3.55.15-7.11.13-10.67.12A3,3,0,0,1,236.47,254.88Zm11.07-32.19c.07-2.32,1-3.36,3.19-3.41,3.55-.07,7.11,0,10.67.08a3,3,0,0,1,3.19,3.29c.1,3.48.09,7,0,10.46a3,3,0,0,1-3.24,3.25c-3.56.12-7.12.1-10.67,0a2.92,2.92,0,0,1-3.16-3.06c-.12-1.84-.23-3.68-.34-5.52h.35C247.53,226.11,247.48,224.4,247.54,222.69Zm24.37,18.43c2.5.09,3.31,1,3.38,3.46.1,3.43.09,6.86,0,10.28-.05,2.29-1,3.22-3.31,3.31-1.78.06-3.56,0-5.34,0s-3.43,0-5.15,0a2.87,2.87,0,0,1-3.22-3c-.13-3.7-.13-7.41,0-11.11.05-1.6.81-2.92,2.76-2.94C264.65,241.14,268.29,241,271.91,241.12Zm-30,25a3.16,3.16,0,0,1,3.21-3.33c3.49-.1,7-.17,10.48,0,2.4.1,3.47,1.45,3.55,3.9v4.74c0,1.57.05,3.15,0,4.73-.09,2.71-1.59,4.18-4.28,4.15-3,0-6-.14-9.05-.24-2.47-.09-3.59-1-3.73-3.43C241.88,273.13,241.81,269.63,241.91,266.14ZM252.58,288c0-2.29,1-3.34,3.38-3.57,1.84-.19,3.69-.23,5.38-.33,1.74.09,3.31.16,4.89.27a3.86,3.86,0,0,1,4,3.86c.13,3.08.13,6.17,0,9.25-.08,2.53-1.38,4-3.93,4.16a89,89,0,0,1-10.07.05c-2.58-.11-3.61-1.37-3.66-4C252.5,294.45,252.53,291.23,252.58,288Zm14.28-8.21c-2.45-.12-3.49-1.36-3.59-3.91-.12-3.15-.12-6.31,0-9.46.12-2.75,1.42-3.85,4.23-3.91,1.44,0,2.88,0,4.32,0v0c1.71,0,3.43-.08,5.14,0a3.89,3.89,0,0,1,3.92,3.95c.1,3.15.08,6.31,0,9.46-.06,2.21-1.13,3.53-3.37,3.68A94.94,94.94,0,0,1,266.86,279.8Zm22,.16c-2.37-.07-3.6-1.33-3.7-3.8-.14-3.28-.16-6.57,0-9.86.08-2.44,1.34-3.51,3.8-3.65l.61,0h4.32c1.78,0,3.56-.06,5.34,0a3.09,3.09,0,0,1,3.24,3.07c.16,3.49.2,7,.06,10.47-.1,2.49-1.28,3.62-3.77,3.74C295.41,280.08,292.11,280.08,288.83,280Zm7.21,7.8c.06-2.23,1.25-3.28,3.56-3.37,1.64-.06,3.29,0,4.93,0h0c1.65,0,3.29-.05,4.94,0,2.3.09,3.63,1,3.76,3.24.22,3.62.21,7.26.09,10.88-.07,2.13-1.61,3.17-3.6,3.23-3.49.12-7,.13-10.48,0a3.06,3.06,0,0,1-3.19-3.32C296,294.88,295.94,291.31,296,287.76ZM310.28,280c-2.14,0-3.19-1.17-3.45-3.32,0-.27,0-.55,0-.82V271h0c0-1.71-.08-3.43,0-5.13.14-2.29,1.08-3.21,3.37-3.26,3.36-.08,6.72-.09,10.07,0a3.75,3.75,0,0,1,3.92,3.89c0,3.07,0,6.15-.18,9.22s-1,4-4.11,4.2S313.49,280.09,310.28,280ZM323,244.92c.1-3.2,1.14-4.12,4.27-4.17,1.44,0,2.87,0,4.31,0,1.64,0,3.28-.05,4.92,0,2.44.09,3.73,1.23,3.81,3.63.11,3.54.1,7.09,0,10.63a2.71,2.71,0,0,1-2.77,3c-3.75.09-7.5.14-11.25,0a3.26,3.26,0,0,1-3.3-3.26C322.9,251.49,322.86,248.2,323,244.92ZM332.3,280c-2.32-.07-3.65-1.21-3.72-3.51-.11-3.68,0-7.37.05-11.06a2.23,2.23,0,0,1,2.19-2.49c2.36-.21,4.72-.45,7.09-.57,1.15-.07,2.32.18,3.48.17,2.95,0,4.3,1,4.44,3.8.17,3.27.18,6.57,0,9.84-.12,2.66-1.38,3.69-4.12,3.81H337C335.45,280,333.87,280,332.3,280Zm12.7-35.4c0-2.46,1.09-3.62,3.45-3.71,3.34-.13,6.7-.15,10,0,2.61.1,3.63,1.08,3.73,3.65.15,3.34.14,6.7,0,10-.07,2.46-1.1,3.43-3.58,3.58-1.78.11-3.56,0-5.34,0v0c-1.64,0-3.29.07-4.93,0-2.27-.12-3.26-1.1-3.33-3.31C345,251.42,344.94,248,345,244.58Zm-5.51,43.22c.1-2.39,1.35-3.35,3.76-3.45.82,0,1.65-.05,2.47-.05s1.51,0,2.26,0v.1c1.79,0,3.57-.08,5.35,0a3.24,3.24,0,0,1,3.4,3.39c.1,3.49.11,7,0,10.49-.06,2.26-1.21,3.39-3.51,3.46-3.49.12-7,.12-10.49,0a3,3,0,0,1-3.19-3.08C339.44,295.06,339.35,291.43,339.49,287.8Zm27.23-33.07c-.13-3.55-.08-7.12.08-10.67.09-2.09,1.38-3.18,3.51-3.22,3.29-.06,6.58-.07,9.86,0,2.62.08,3.72,1.2,3.79,3.85.08,3.28.05,6.57,0,9.85-.07,2.37-1.22,3.48-3.58,3.58-1.64.07-3.29,0-4.93,0v0c-1.71,0-3.43.07-5.13,0C367.94,258,366.8,257.05,366.72,254.73Zm5.22,11.54c.09-2.47,1.28-3.62,3.77-3.69,3.36-.09,6.72-.07,10.07,0a3.23,3.23,0,0,1,3.51,3.46q.13,5.25,0,10.48c-.05,2.08-1.22,3.22-3.39,3.37-1.85.12-3.7,0-5.55,0V280c-1.51,0-3,.05-4.52,0-2.42-.09-3.76-1.24-3.86-3.64C371.82,273,371.82,269.62,371.94,266.27Zm16.53-11.15c-.09-3.76-.06-7.52,0-11.28a2.5,2.5,0,0,1,2.56-2.68c3.95-.09,7.91-.12,11.86,0,1.89.05,2.75,1.35,2.79,3.16s0,3.56,0,5.34h0c0,1.78.05,3.56,0,5.33-.08,2.2-.94,3.12-3.16,3.18-3.62.09-7.25.05-10.88,0A2.9,2.9,0,0,1,388.47,255.12Zm5.32,10.43c.06-2,1.39-2.9,3.29-2.95s3.57,0,5.35,0,3.3-.06,4.94,0c2.28.1,3.52,1.14,3.6,3.37.14,3.56.13,7.13,0,10.7a3.19,3.19,0,0,1-3.31,3.27c-3.56.13-7.13.12-10.69,0a3,3,0,0,1-3.18-3.1C393.71,273.09,393.68,269.32,393.79,265.55Zm19.57-7.42c-1.94,0-3.12-1-3.15-3,0-3.7-.09-7.39,0-11.09a3.12,3.12,0,0,1,3.33-3.19c3.41-.1,6.84-.11,10.26,0,2.47.07,3.61,1.3,3.66,3.76.06,3.28.07,6.57,0,9.85-.05,2.54-1.14,3.61-3.65,3.71-1.71.06-3.42,0-5.13,0v0C416.92,258.14,415.14,258.17,413.36,258.13Zm-8.9,30c.05-2.67,1.11-3.73,3.79-3.78,3.29-.06,6.58-.06,9.86,0,2.53.06,3.61,1.17,3.69,3.66.06,1.65,0,3.29,0,4.94h0c0,1.57,0,3.15,0,4.72-.07,2.78-1.05,4-3.79,4.08-3.28.14-6.58.13-9.87,0-2.61-.12-3.63-1.31-3.68-4Q404.38,292.93,404.46,288.1ZM418.57,280a2.84,2.84,0,0,1-3-3c-.06-1.84,0-3.7,0-5.55h0c0-1.78-.07-3.56,0-5.34.1-2.21,1.14-3.35,3.3-3.41,3.49-.1,7-.12,10.49,0,2.35.09,3.45,1.34,3.49,3.7.05,3.36.06,6.72,0,10.08,0,2.27-1.13,3.47-3.41,3.54C425.84,280.12,422.2,280.09,418.57,280ZM432,255.13c-.14-3.42-.31-6.84-.25-10.26.06-2.93,1.3-4,4.25-4.08s6.17,0,9.25,0c2.66.06,3.85,1.08,4,3.69.15,3.42.14,6.86,0,10.27-.11,2.43-1.09,3.22-3.52,3.39h-5.34c-1.72,0-3.43.05-5.14,0A2.94,2.94,0,0,1,432,255.13Zm5.33,10.68c.1-2.25,1.13-3.18,3.42-3.24,3.08-.07,6.17.07,9.25,0,4.25-.06,8.49-.24,12.73-.31,3.41-.06,6.83,0,10.24,0,1.72,0,3.1.9,3.21,2.59.26,4.22.39,8.46.25,12.69-.06,1.86-1.71,2.63-4.25,2.6l-12.34-.1c-1,0-1.91,0-2.86,0-5.15,0-10.28,0-15.42,0-3.14,0-4.24-1-4.29-4.15C437.17,272.52,437.14,269.16,437.28,265.81Zm39.15-34c0,3.35-1.11,4.41-4.49,4.43-7.48,0-15,.07-22.43,0-6.74,0-6.86-.21-6.88-7,0-2,0-4,0-6,0-3.35,1.06-4.36,4.47-4.38,4.19,0,8.37,0,12.55,0v0c4.32,0,8.64,0,13,0,2.51,0,3.66,1.06,3.75,3.6C476.49,225.67,476.46,228.76,476.43,231.84ZM459,202.23c.14-2.24,1.21-3.28,3.39-3.35,3.55-.12,7.12-.08,10.68,0a2.92,2.92,0,0,1,3.15,2.87,64.92,64.92,0,0,1,.07,7.38,3.12,3.12,0,0,1-3.39,3.12c-1.78.05-3.56,0-5.34,0v.11c-1.71,0-3.43,0-5.14,0-2-.08-3.25-1.05-3.33-3.14A67.38,67.38,0,0,1,459,202.23Zm-21.68.2c.1-2.3,1.17-3.47,3.42-3.55,3.42-.1,6.85-.1,10.27,0,2.24.08,3.4,1.24,3.54,3.49a48,48,0,0,1,0,6.57c-.15,2.18-1.42,3.31-3.62,3.42-1.71.09-3.42,0-5.13,0v0c-1.65,0-3.3.06-4.94,0-2.27-.1-3.42-1.2-3.52-3.44S437.21,204.61,437.31,202.43Zm1.1,20.38c.09,3.35.11,6.7,0,10.05-.08,2.25-1,3.22-3.3,3.4-1.9.16-3.82,0-5.73,0v.05c-1.71,0-3.42,0-5.13,0s-3.07-.82-3.13-2.78c-.12-3.55-.32-7.11-.16-10.64.12-2.91,1.34-3.87,4.18-3.91,3.08-.05,6.17-.05,9.25,0C437.1,219,438.33,220.14,438.41,222.81Zm-22.87-20.28c.1-2.41,1.2-3.57,3.56-3.64,3.36-.1,6.72-.1,10.08,0,2.36.06,3.53,1.24,3.64,3.58.1,2.05.1,4.12,0,6.17-.09,2.43-1.25,3.6-3.73,3.75-1.71.1-3.43,0-5.15,0v0c-1.64,0-3.29.07-4.93,0a3.27,3.27,0,0,1-3.49-3.51C415.46,206.78,415.45,204.65,415.54,202.53Zm1.2,20.23c.07,3.41.07,6.84,0,10.25a3,3,0,0,1-3.35,3.33c-3.62.09-7.25.08-10.87,0-2-.05-3-1.08-3-3.11-.07-1.77,0-3.55,0-5.33h0c0-1.78-.05-3.55,0-5.33.07-2.14,1.13-3.38,3.26-3.46,3.55-.12,7.11-.12,10.66,0C415.52,219.2,416.7,220.55,416.74,222.76Zm-22.81-21c.07-2,1.25-2.91,3.22-2.88,1.62,0,3.25,0,4.88,0h0c1.64,0,3.29,0,4.94,0,2.84.08,4,1.21,4.11,4q.09,2.88,0,5.76c-.08,2.39-1.15,3.6-3.5,3.69q-5.13.19-10.28,0c-2.31-.07-3.28-1-3.43-3.26C393.72,206.65,393.85,204.19,393.93,201.74ZM377.6,222.17c.07-2.65.59-3,3.21-3.17l.61,0h4.52v0c1.78,0,3.56,0,5.34,0s3.26,1,3.31,2.93q.15,5.94-.08,11.87a2.64,2.64,0,0,1-2.86,2.45c-3.69.07-7.4.09-11.09,0a2.66,2.66,0,0,1-2.92-2.78C377.59,229.7,377.51,225.93,377.6,222.17Zm-18-20.73c.08-1.73,1.37-2.5,3-2.53,3.63-.06,7.26-.08,10.88,0a2.92,2.92,0,0,1,3.07,3c.14,2.38.11,4.78,0,7.16-.06,2.16-1.4,3.21-3.44,3.32-1.7.1-3.42,0-5.13,0v-.14c-1.91,0-3.82,0-5.73,0a2.54,2.54,0,0,1-2.64-2.61C359.5,206.9,359.48,204.16,359.61,201.44Zm-3.93,21.28c0-2.69,1.08-3.65,3.8-3.72l.62,0h4.12c1.64,0,3.28,0,4.93,0,2.36,0,3.76,1,3.86,3.33.17,3.6.06,7.22-.06,10.83-.06,2.06-1.4,3.07-3.38,3.1-3.47.05-6.94.1-10.4,0-2.44-.08-3.43-1.2-3.47-3.65Q355.61,227.66,355.68,222.72Zm-17.92-20.28c.17-2.47,1.24-3.48,3.66-3.55,3.22-.08,6.45-.09,9.67,0,2.62.07,3.77,1.16,4,3.76a42.21,42.21,0,0,1,0,6.16c-.19,2.39-1.51,3.52-3.93,3.6-1.58.05-3.15,0-4.73,0s-3.16,0-4.73,0c-2.49-.1-3.67-1.12-3.86-3.6A43.69,43.69,0,0,1,337.76,202.44ZM334,222.52c.13-2.39,1.25-3.47,3.64-3.51,3.3,0,6.59-.07,9.88,0,2.48,0,3.81,1.37,3.85,3.84q.09,4.83,0,9.68c0,2.44-1.24,3.7-3.68,3.76-3.42.09-6.85.09-10.28,0-2.29-.05-3.3-1.17-3.44-3.49,0-.13,0-.27,0-.41v-4.73h0C334,226,333.9,224.23,334,222.52Zm-18-20.6c.1-2,1.34-3,3.37-3.06h5.14c1.65,0,3.29-.05,4.93,0,2.33.08,3.43.84,3.62,3.07a53.16,53.16,0,0,1-.06,7.57,2.72,2.72,0,0,1-2.89,2.64c-3.49.11-7,.2-10.48.11-2.44-.06-3.36-.9-3.58-3.34A52.44,52.44,0,0,1,316,201.92Zm-3.34,19.84a2.74,2.74,0,0,1,2.95-2.59c3.62-.09,7.25-.12,10.86.05,2.21.11,3.31,1.32,3.39,3.63.12,3.35.1,6.71,0,10.05-.1,2.27-1.39,3.35-3.74,3.51-.89.07-1.78.05-2.67.05h-2.46v-.07c-1.71,0-3.42,0-5.13,0-1.9,0-3.21-1-3.25-2.95C312.47,229.54,312.48,225.64,312.64,221.76Zm2.41,19.05c2.07.1,3.28,1.11,3.35,3.13.14,3.61.14,7.24,0,10.87a2.9,2.9,0,0,1-3.13,3.09c-3.49,0-7,.16-10.46.06-2.53-.07-3.49-1-3.62-3.53-.16-3.41-.15-6.84,0-10.26.09-2.25,1.3-3.28,3.59-3.38,1.7-.07,3.42,0,5.13,0v0C311.63,240.8,313.34,240.74,315.05,240.81Zm-20.89-38.47c.13-2.24,1.26-3.24,3.56-3.47.2,0,.41,0,.62,0h4.73c1.58,0,3.15,0,4.73,0a3.07,3.07,0,0,1,3.48,3,51.81,51.81,0,0,1-.08,7.78,2.74,2.74,0,0,1-2.93,2.62c-3.56.06-7.13.14-10.69,0a3.21,3.21,0,0,1-3.43-3.35A58,58,0,0,1,294.16,202.34Zm-3.4,20.32c.08-2.37,1-3.49,3.32-3.57,3.48-.12,7-.09,10.46,0,1.77,0,3.14.92,3.21,2.79.16,3.88.21,7.77.1,11.64-.07,1.95-1.53,2.83-3.4,2.85-3.42,0-6.84.11-10.26,0-2.37,0-3.31-1.06-3.39-3.46-.07-1.77,0-3.55,0-5.33h0C290.75,226,290.71,224.3,290.76,222.66Zm-2.46,18.12v0c1.58,0,3.16-.06,4.73,0,2.64.12,3.91,1.35,4,4,.07,3.15.08,6.3,0,9.44-.09,2.71-1.26,3.86-4,3.93q-4.94.12-9.86,0c-2.41-.06-3.45-1.18-3.49-3.62,0-3.35,0-6.71,0-10.06,0-2.41,1.11-3.47,3.51-3.63.89-.06,1.78,0,2.67,0Zm-5.76-21.59c2.54.07,3.76,1.38,3.82,3.88.07,3.22.08,6.44,0,9.66-.08,2.51-1,3.56-3.48,3.67-3.55.16-7.12.14-10.67,0-2.24-.08-3.08-1.15-3.23-3.44,0-.21,0-.41,0-.62v-4.52c0-1.65,0-3.29,0-4.93.09-2.3,1.11-3.51,3.33-3.61C275.69,219.13,279.12,219.09,282.54,219.19ZM260,202.49c.07-2.21,1.3-3.38,3.52-3.45,3.27-.11,6.56-.14,9.83,0,2.6.1,3.48,1,3.65,3.71a46.4,46.4,0,0,1,0,6.35c-.14,2.2-1.4,3.3-3.61,3.37-1.78.06-3.55,0-5.33,0s-3.28,0-4.92,0a2.52,2.52,0,0,1-2.91-2.63C260.12,207.4,259.93,204.94,260,202.49Zm-21.67-.59a2.74,2.74,0,0,1,2.72-2.82c3.72-.12,7.44-.19,11.14-.1a2.89,2.89,0,0,1,3,2.57,46.57,46.57,0,0,1,.09,7.92c-.16,2-1.73,2.86-3.65,2.93-1.71.06-3.42,0-5.13,0v0c-1.71,0-3.42,0-5.13,0a2.71,2.71,0,0,1-2.92-2.6A65.77,65.77,0,0,1,238.34,201.9Zm1.15,17.41c2.33.12,3.34,1.22,3.42,3.56.11,3.28.14,6.58,0,9.86-.09,2.59-1.16,3.57-3.71,3.7-1.7.1-3.42,0-5.14,0H229c-1.9,0-3.08-1-3.14-2.84-.11-3.68-.16-7.39.06-11.07.15-2.49,1-3.22,3.56-3.29C232.78,219.15,236.14,219.15,239.49,219.31Zm-22.82-16.64c.08-2.34,1.23-3.54,3.59-3.57,3.42-.06,6.84,0,10.25.1a3,3,0,0,1,3.18,3.06c.17,2.24.27,4.49.24,6.72a3.75,3.75,0,0,1-3.78,3.55h-4.92v-.05c-1.78,0-3.56.07-5.33,0a3,3,0,0,1-3.22-3.23C216.61,207.05,216.6,204.86,216.67,202.67Zm1.57,16.57a3,3,0,0,1,2.79,3.07c.14,3.69,0,7.39-.1,11.08-.07,2.1-1.5,3-3.46,3-3.49,0-7,.07-10.48,0-1.87,0-3-1.14-3.05-3.13s0-3.84,0-5.75h0c0-1.72,0-3.43,0-5.15s.85-3,2.64-3.09Q212.39,219.08,218.24,219.24Zm-23.36-16.78c.09-2.14,1.07-3.21,3.15-3.26,3.62-.08,7.24,0,10.86,0a2.74,2.74,0,0,1,3,2.56,50.26,50.26,0,0,1,0,7.76c-.15,1.86-1.53,2.85-3.41,2.92-1.71,0-3.42,0-5.14,0h0c-1.64,0-3.28.07-4.92,0-2.34-.12-3.48-1.28-3.56-3.64C194.8,206.7,194.79,204.58,194.88,202.46ZM182.21,223.1c.11-2.77,1.35-4,4.07-4,2.95,0,5.89,0,8.84,0,2.65,0,3.83.78,4,3.35a66.32,66.32,0,0,1,.07,10.64c-.22,2.8-2.13,3.78-5,3.56-2.65-.21-5.33-.09-8-.19-2.91-.11-3.8-1-3.88-3.85,0-1.5,0-3,0-4.52h-.17C182.2,226.39,182.15,224.74,182.21,223.1Zm-21.42-21.16a2.67,2.67,0,0,1,3-2.71c1.78,0,3.56,0,5.35,0v0c1.78,0,3.56,0,5.35,0a2.9,2.9,0,0,1,3.21,3,69,69,0,0,1,0,7.19,3,3,0,0,1-3.23,3q-5.13.11-10.28,0a3.13,3.13,0,0,1-3.41-3.34A66.33,66.33,0,0,1,160.79,201.94Zm-.09,20.44a3,3,0,0,1,3.11-3.14c3.55-.09,7.11-.14,10.66,0a3.14,3.14,0,0,1,3.26,3.29c.08,3.55.09,7.11,0,10.66a3.06,3.06,0,0,1-3.28,3.21c-1.77.08-3.55,0-5.33,0v0c-1.78,0-3.56.07-5.33,0a3,3,0,0,1-3.13-3.13C160.6,229.63,160.6,226,160.7,222.38Zm4.77,61.73q17.39,0,34.77,0c3.49,0,4.48,1,4.6,4.52.1,3,.08,6,0,9-.06,2.72-1,3.73-3.79,3.75-6.1.07-12.21,0-18.31,0v0c-5.9,0-11.8,0-17.7,0-3.3,0-4.31-1-4.37-4.28-.06-2.68-.13-5.35-.12-8C160.57,285.36,161.77,284.12,165.47,284.11Zm30.87,35.62c-.11,2.73-1,3.49-3.72,3.5-4.67,0-9.33,0-14,0v0c-4.52,0-9.05,0-13.57,0-3.28,0-4.33-1.05-4.39-4.29q-.07-4.53,0-9c0-2.78,1.18-4,3.87-4q14-.06,28,0c2.56,0,3.68,1,3.81,3.58C196.51,312.87,196.48,316.31,196.34,319.73Zm23.7.15c0,2-1.09,3.24-3.12,3.29-4.3.11-8.62.1-12.93,0a2.92,2.92,0,0,1-3.05-3c-.12-3.55-.24-7.11-.14-10.66.07-2.42,1.34-3.48,3.77-3.61,1,0,2.06,0,3.08,0h2.88c1.85,0,3.69,0,5.54,0,2.57.07,3.91,1.37,4,3.95Q220.13,314.85,220,319.88Zm-2.51-18.41v-.06c-1.7,0-3.42,0-5.13,0a2.8,2.8,0,0,1-3.15-3c-.08-3.76-.11-7.53,0-11.29a2.66,2.66,0,0,1,2.9-2.8c3.56,0,7.12-.15,10.67-.07,2.47.06,3.54,1.1,3.66,3.52a92.68,92.68,0,0,1,.05,9.43c-.18,3.29-1.24,4.17-4.5,4.26C220.55,301.51,219,301.47,217.53,301.47Zm25.86,19.18c-.1,2.06-1.42,2.85-3.79,2.84h-5.53a2.26,2.26,0,0,1,0-.26c-2.25,0-4.51,0-6.76,0a2.67,2.67,0,0,1-2.88-2.83c-.07-3.68-.11-7.38,0-11.07A3.16,3.16,0,0,1,227.7,306c4.17-.11,8.35-.12,12.52,0a3.12,3.12,0,0,1,3.21,3.14C243.57,313,243.57,316.83,243.39,320.65Zm4.35-22.17c-.08,1.95-1.33,2.91-3.28,2.91H233.78c-1.59,0-2.74-.78-2.8-2.39-.15-4-.22-7.93-.11-11.88a2.78,2.78,0,0,1,2.94-2.85c3.55,0,7.11,0,10.66.19a3.17,3.17,0,0,1,3.37,3.37C247.88,291.38,247.88,294.94,247.74,298.48ZM374.1,319.4c-.14,3-1.1,3.85-4.12,3.9-5.21.09-10.43.12-15.64.12q-20.28,0-40.55,0-30.43-.06-60.89-.2c-3.82,0-4.86-1.05-4.9-4.89,0-2.33,0-4.66,0-7,0-4.59,1-5.58,5.55-5.59H311v.11h42.82c5.19,0,10.38,0,15.57,0,3.44,0,4.63,1.08,4.79,4.48C374.29,313.36,374.25,316.39,374.1,319.4Zm1.64-18c-4,.12-7.92.19-11.88.08-1.76,0-2.64-1.38-2.72-3.06-.1-1.85,0-3.7,0-5.55h-.06c0-1.72-.07-3.43,0-5.14.12-2.22,1.12-3.37,3.3-3.45,3.62-.11,7.26-.05,10.88.06a2.83,2.83,0,0,1,3,2.8c.12,3.9.08,7.8,0,11.7A2.49,2.49,0,0,1,375.74,301.44Zm21.78,19c-.08,2.1-1.58,3.16-3.59,3.2-4,.08-8.09.11-12.13,0a3.28,3.28,0,0,1-3.48-3.52c-.12-3.36-.16-6.72-.06-10.07.08-2.77,1.24-3.78,4-3.86,1,0,1.92,0,2.88,0h2.67v0c2,0,4-.07,6,0,2.32.11,3.59,1.09,3.71,3.32C397.68,313.15,397.66,316.79,397.52,320.41Zm2.81-22.05c-.06,2.16-1.33,3.36-3.56,3.42-3.5.09-7,.09-10.48,0-2.08,0-3.22-1.27-3.31-3.41-.07-1.78,0-3.56,0-5.34H383c0-1.71,0-3.42,0-5.14a3.31,3.31,0,0,1,3.32-3.43c3.42-.08,6.85-.09,10.27,0a3.38,3.38,0,0,1,3.66,3.6C400.41,291.51,400.42,294.94,400.33,298.36ZM437,319.43c0,3.1-1.16,4.22-4.22,4.24-4.5,0-9,0-13.51,0v0H406.29c-3,0-4.16-1-4.28-4-.14-3.35-.12-6.71,0-10.07.06-2.17,1.33-3.37,3.57-3.38,9.1,0,18.21-.06,27.32,0,2.89,0,4.11,1.35,4.13,4.19C437,313.4,437,316.42,437,319.43Zm39.39.42c-.14,2.76-1.28,3.81-4.05,3.81q-13.46,0-26.93-.09c-3.06,0-3.89-.87-4-3.92s-.2-6-.19-9c0-3.44,1.15-4.51,4.58-4.5H458.7v.05c4.32,0,8.63,0,12.95,0,3.59,0,4.78,1.22,4.79,4.84C476.45,314,476.5,316.91,476.36,319.85Zm0-21.75c-.14,2.71-1.13,3.72-3.84,3.74-7,.07-14,0-21,0v-.08H431.45c-4.16,0-5.19-1-5.23-5.24,0-2.67,0-5.34,0-8,0-3.18,1.22-4.41,4.35-4.41,8.08,0,16.16.07,24.24.12,5.47,0,10.93.09,16.39.12,4.29,0,5.4,1.1,5.39,5.31C476.58,292.49,476.53,295.3,476.39,298.1Zm6.55-95.55c.11-2.42,1.33-3.57,3.79-3.69,1.71-.08,3.43,0,5.14,0s3.28,0,4.93,0c2,0,3.32,1,3.45,3a53.32,53.32,0,0,1,0,7.37,3.25,3.25,0,0,1-3.49,3.09c-3.49.08-7,.09-10.47,0a3.16,3.16,0,0,1-3.3-3.24A57.59,57.59,0,0,1,482.94,202.55Zm17.5,117.89a3,3,0,0,1-3.07,3.22c-3.75.13-7.51.13-11.27,0-1.91-.05-3-1.39-3.1-3.4-.07-1.85,0-3.7,0-5.54s0-3.56,0-5.34.68-2.76,2.54-2.78c3.88-.05,7.76-.16,11.64-.12a3.09,3.09,0,0,1,3.24,3.27C500.53,313.33,500.52,316.89,500.44,320.44Zm0-65.81c0,2.25-1.07,3.41-3.21,3.5-3.76.15-7.53.17-11.3.12-2,0-3-1.35-3-3.35,0-1.64,0-3.29,0-4.93h0c0-1.78,0-3.57,0-5.35.08-2.41,1.12-3.64,3.47-3.72,3.49-.13,7-.14,10.48,0,2.42.1,3.49,1.28,3.55,3.66C500.55,247.92,500.54,251.28,500.46,254.63Zm.1-21.77c-.07,2.48-1.06,3.48-3.57,3.55-3.54.11-7.1.09-10.65,0-2.31-.07-3.24-1.16-3.32-3.54,0-1.64,0-3.28,0-4.92h0c0-1.65-.05-3.29,0-4.93.08-2.53,1.28-3.85,3.76-3.92q5-.15,10.05,0c2.43.07,3.62,1.28,3.7,3.74C500.63,226.16,500.66,229.51,500.56,232.86ZM522,320.2a3.17,3.17,0,0,1-3.43,3.32c-3.57.08-7.14.11-10.7,0-2.18-.1-3.26-1.47-3.37-3.66,0-.14,0-.28,0-.41v-4.74c0-1.71-.05-3.43,0-5.14.08-2.42.75-3.27,3.16-3.39,3.48-.16,7-.18,10.48-.05,2.49.09,3.92,1.43,4,3.84C522.21,313.34,522.06,316.77,522,320.2Zm.31-27.2h0c0,1.85.07,3.7,0,5.55a3.05,3.05,0,0,1-3.23,3.26c-3.63.1-7.26.11-10.88,0-2.54-.09-3.58-1.52-3.58-4.76,0-3.07.22-6.15.23-9.22,0-2.16,1.16-3.23,3.13-3.28,3.7-.1,7.41-.13,11.1,0,2.29.12,3.19,1.36,3.27,3.68,0,.13,0,.27,0,.41Zm0-38.23c0,2.39-1,3.28-3.4,3.41-.89,0-1.79,0-2.68,0h-2.67c-1.78,0-3.56,0-5.34,0-2.26-.08-3.28-1-3.33-3.27-.08-3.5-.06-7-.05-10.48,0-1.94.93-3.17,2.94-3.21,3.82-.06,7.65-.1,11.47,0,2.29.08,3,.93,3,3.26C522.32,247.92,522.33,251.35,522.27,254.77Zm4.05-52.1c.12-2.22,1.23-3.48,3.46-3.58,3.61-.15,7.24-.06,10.87,0,2.28,0,3.19,1.72,3.36,3.48a34.4,34.4,0,0,1-.3,6.94c-.21,2-1.56,3-3.53,3-1.71.05-3.43,0-5.14,0s-3.26,0-4.89,0c-2.43-.09-3.72-1.27-3.84-3.65A55,55,0,0,1,526.32,202.67Zm3.48,33.68c-2.48-.1-3.51-1.16-3.53-3.56,0-3.22,0-6.45,0-9.66,0-2.85,1.14-4,4-4.07,3.28-.08,6.57-.06,9.86,0,2.42.07,3.68,1.22,3.78,3.68.13,3.35.13,6.71,0,10.06-.11,2.53-1.27,3.49-3.83,3.58-1.64,0-3.29,0-4.93,0v0C533.36,236.36,531.57,236.43,529.8,236.35Zm-3.54,13h0c0-1.57,0-3.15,0-4.73.07-2.55,1-3.65,3.63-3.74,3.49-.11,7-.11,10.48,0,2.18.06,3.41,1.13,3.51,3.27.16,3.55.15,7.12,0,10.68-.1,2.28-1.3,3.3-3.62,3.36-3.42.07-6.86.09-10.28,0-2.66-.08-3.63-1.17-3.7-3.88C526.23,252.61,526.26,251,526.26,249.32Zm17.78,71a3.48,3.48,0,0,1-3.65,3.39c-.89,0-1.78,0-2.67,0h-2.47c-1.84,0-3.69,0-5.54,0s-3.16-1.08-3.22-3c-.12-3.76-.13-7.53,0-11.29a2.94,2.94,0,0,1,3.18-3.06c3.63-.08,7.26-.11,10.89,0a3.29,3.29,0,0,1,3.47,3.34C544.12,313.17,544.12,316.73,544,320.29Zm46-.38c-.11,2.83-1.38,3.93-4.42,4-5.25.07-10.52,0-15.78,0,0,0,0,.09,0,.13-5.07,0-10.14,0-15.21,0-3.55,0-4.68-1.08-4.82-4.63-.11-2.94-.08-5.88-.08-8.83,0-3.64,1-4.66,4.62-4.67q13-.06,26.09-.06c1.85,0,3.7,0,5.55,0,2.43.08,3.87,1.36,4,3.78C590.13,313.06,590.17,316.5,590,319.91Zm3.58-32.08c0-2.53,1-3.37,3.58-3.45,1.71-.05,3.43,0,5.14,0v0c1.84,0,3.7-.08,5.54,0a3.4,3.4,0,0,1,3.48,3.71c0,3.35.12,6.7-.05,10-.13,2.44-1.06,3.41-3.43,3.52-3.62.18-7.26.19-10.88,0-2.39-.12-3.24-1.16-3.31-3.6C593.58,294.68,593.54,291.25,593.62,287.83Zm17.91,32c0,2.43-1.24,3.72-3.63,3.77q-5.13.12-10.26,0c-2.7-.06-3.67-1.1-3.85-3.76,0-.14,0-.28,0-.41v-4.72h0c0-1.78-.07-3.56,0-5.34.11-2.18,1-3.1,3.22-3.15,3.62-.08,7.25-.08,10.87,0,2.45.07,3.61,1.3,3.64,3.75C611.58,313.31,611.57,316.59,611.53,319.87Zm22.18-.36c-.07,3.33-1.16,4.45-4.46,4.51s-6.71,0-10.07,0c-2.59,0-4.06-1.4-4.07-4,0-5.42,0-10.83,0-16.24h0c0-5.12,0-10.25,0-15.38,0-3.21,1-4.11,4.15-4.13s6.14-.16,9.21-.13c4.11.05,5.15,1,5.2,5.11.1,7.53.08,15.07.1,22.6C633.74,314.44,633.77,317,633.71,319.51Zm0-43.91c-.07,4-.82,4.71-4.7,4.8-3.48.08-6.95.12-10.42,0-2.35-.08-3.57-1.59-3.56-3.9,0-5.34,0-10.69,0-16h.08c0-5,0-10,0-15,0-3.46,1.08-4.56,4.55-4.62,3.21-.06,6.44,0,9.66,0s4.32,1.2,4.37,4.39q.13,6.88.13,13.77C633.84,264.52,633.83,270.06,633.73,275.6Z"/><circle class="cls-13" cx="424.09" cy="271.41" r="15"/><line class="cls-13" x1="424.09" y1="286.41" x2="424.09" y2="391.41"/><rect class="cls-12" x="375.09" y="391.41" width="98" height="98" rx="12"/><text class="cls-14" transform="translate(396.91 454.63)">?</text><text class="cls-15" transform="translate(438.67 505.17)">’</text><text/></g></g></svg>