<svg xmlns="http://www.w3.org/2000/svg" xmlns:xlink="http://www.w3.org/1999/xlink" viewBox="0 0 146.58 443.5"><defs><style>.cls-1,.cls-18{fill:none;}.cls-1{stroke:#e2a44f;stroke-width:1.98px;}.cls-1,.cls-14,.cls-15,.cls-18,.cls-7{stroke-miterlimit:10;}.cls-2{clip-path:url(#clip-path);}.cls-3{fill:#fbc5aa;}.cls-14,.cls-15,.cls-4{fill:#eed1bf;}.cls-5{fill:#d8dcec;}.cls-6{fill:#0054a6;}.cls-7{fill:#00a881;stroke:#003d7b;stroke-width:0.62px;}.cls-8{fill:#7bafde;}.cls-9{fill:#44515c;}.cls-10{fill:#003d7b;}.cls-11{fill:#fff;}.cls-12{fill:#514835;}.cls-13{fill:#ebae8a;}.cls-14,.cls-15{stroke:#ebae8a;}.cls-14{stroke-width:0.73px;}.cls-15{stroke-width:0.36px;}.cls-16{fill:#5a3b34;}.cls-17{fill:#d55225;}.cls-18{stroke:#231f20;stroke-width:0.39px;}.cls-19{fill:#231f20;}</style><clipPath id="clip-path" transform="translate(6.59)"><circle class="cls-1" cx="66.99" cy="66.99" r="66"/></clipPath></defs><title>Asset 28</title><g id="Layer_2" data-name="Layer 2"><g id="Glavno_Besedilo" data-name="Glavno Besedilo"><g class="cls-2"><path class="cls-3" d="M42.29,104.32s10.19-.76,10.66-13H78s1,16,13,13l-1.08,9.19-24.36,9.71L44.3,117.54l-5.16-10.27Z" transform="translate(6.59)"/><path class="cls-4" d="M130.57,241.77s3.6,28.39-15.85,31.24V241.08Z" transform="translate(6.59)"/><path class="cls-5" d="M140,242.16l-31.78-1.39V138.48s7.34-42.37,18.64-19.38Q136.23,183.44,140,242.16Z" transform="translate(6.59)"/><path class="cls-5" d="M-6.59,242.16l31.78-1.39V138.48S17.85,96.11,6.55,119.1Q-2.82,183.44-6.59,242.16Z" transform="translate(6.59)"/><path class="cls-6" d="M101.58,104.32H91c-3.47,9-13,15.45-24.31,15.45s-20.84-6.46-24.31-15.45H31.82c-12.81,0-33.56,13.12-25.18,14.07,3.53.4,7.89,5.39,12,17.93V249h96.2V136.32c4.07-12.54,8.43-17.53,12-17.93C135.14,117.44,114.39,104.32,101.58,104.32Z" transform="translate(6.59)"/><line class="cls-7" x1="73.29" y1="248.98" x2="73.29" y2="119.77"/><rect class="cls-8" x="25.19" y="248.98" width="96.12" height="32.46"/><polygon class="cls-8" points="73.3 281.43 57.4 429.46 39.23 429.46 25.19 281.43 73.3 281.43"/><polygon class="cls-8" points="121.31 281.43 105.5 429.46 87.42 429.46 73.46 281.43 121.31 281.43"/><path class="cls-9" d="M80.83,429.46v14h47s6.19-14.08-22.15-11.44c0,0-6.9-1.22-6-9.27" transform="translate(6.59)"/><path class="cls-9" d="M50.74,429.46v14h-47s-6.2-14.08,22.14-11.44c0,0,6.91-1.22,6.05-9.27" transform="translate(6.59)"/><circle class="cls-10" cx="81.35" cy="143.56" r="2.43"/><circle class="cls-10" cx="65.48" cy="143.56" r="2.43"/><circle class="cls-10" cx="81.35" cy="161.83" r="2.43"/><circle class="cls-10" cx="65.48" cy="161.83" r="2.43"/><circle class="cls-10" cx="81.35" cy="180.11" r="2.43"/><circle class="cls-10" cx="65.48" cy="180.11" r="2.43"/><circle class="cls-10" cx="81.35" cy="198.38" r="2.43"/><circle class="cls-10" cx="65.48" cy="198.38" r="2.43"/><circle class="cls-10" cx="81.35" cy="216.66" r="2.43"/><circle class="cls-10" cx="65.48" cy="216.66" r="2.43"/><path class="cls-4" d="M70.41,18.88h6.08a28,28,0,0,1,28,28v22a31,31,0,0,1-31,31h0a31,31,0,0,1-31-31v-22a28,28,0,0,1,28-28Z"/><path class="cls-11" d="M59.43,54.64c.06-4.77-14.75-5-14.81-.18C44.57,58.76,59.38,58.94,59.43,54.64Z" transform="translate(6.59)"/><path class="cls-11" d="M89.2,54.64c.06-4.77-14.75-5-14.81-.18C74.34,58.76,89.15,58.94,89.2,54.64Z" transform="translate(6.59)"/><circle class="cls-12" cx="58.16" cy="54.38" r="2.45"/><circle class="cls-12" cx="88.39" cy="54.38" r="2.45"/><path class="cls-13" d="M43.7,54.74s6.29-6.32,17.43,0C61.13,54.74,51.45,44,43.7,54.74Z" transform="translate(6.59)"/><path class="cls-13" d="M73.35,54.74s6.3-6.32,17.43,0C90.78,54.74,81.1,44,73.35,54.74Z" transform="translate(6.59)"/><path class="cls-14" d="M63.52,71.52s5,2.54,6.69.37c.72-1-3.14-19.73-1.88-19.34" transform="translate(6.59)"/><path class="cls-15" d="M45.24,48.72s5.24-5.74,16.61,0" transform="translate(6.59)"/><path class="cls-15" d="M74.17,49.41s5.24-5.74,16.61,0" transform="translate(6.59)"/><path class="cls-16" d="M78.79,81a9.23,9.23,0,0,1-4.62,4.76c-.87-3-16.77-1.83-16.82-1.82A11.3,11.3,0,0,1,54.92,81Z" transform="translate(6.59)"/><path class="cls-17" d="M74.17,85.74h0a15.63,15.63,0,0,1-6.57,1.58,14.12,14.12,0,0,1-10.25-3.4S73.3,82.75,74.17,85.74Z" transform="translate(6.59)"/><polygon class="cls-16" points="63.94 83.92 63.94 83.92 63.94 83.92 63.94 83.92"/><path class="cls-4" d="M36.36,50.45s-6.74-1.89-4.78,8.21A81.14,81.14,0,0,0,36.36,75Z" transform="translate(6.59)"/><path class="cls-4" d="M96.57,50.45s6.74-1.89,4.78,8.21A81.14,81.14,0,0,1,96.57,75Z" transform="translate(6.59)"/><path class="cls-15" d="M62.39,95.38s4.9-4.9,9.93-.24" transform="translate(6.59)"/><rect class="cls-18" x="79.09" y="48.72" width="18.58" height="11.32" rx="5.3"/><rect class="cls-18" x="49.71" y="48.72" width="18.58" height="11.32" rx="5.3"/><path class="cls-18" d="M61.7,54.74s6.5-4.91,10.8,0" transform="translate(6.59)"/><line class="cls-18" x1="42.95" y1="50.45" x2="49.71" y2="54.02"/><line class="cls-18" x1="104.44" y1="50.31" x2="97.68" y2="54.38"/><path class="cls-19" d="M67.1,75.35a11.18,11.18,0,0,0-11.92-.26c-6.5,3.75-7.51-1-7.51-1s2.42,10.18,19.09,4.29h.67c16.67,5.9,19.08-4.28,19.08-4.28s-1,4.75-7.51,1a11.15,11.15,0,0,0-11.91.27" transform="translate(6.59)"/></g><circle class="cls-1" cx="73.58" cy="66.99" r="66"/></g></g></svg>