<svg xmlns="http://www.w3.org/2000/svg" viewBox="0 0 220.32 454.43"><defs><style>.cls-1{fill:#dce6e0;}.cls-10,.cls-2,.cls-9{fill:#eed1bf;}.cls-3{fill:#fbc5aa;}.cls-4{fill:#866aa1;}.cls-5{fill:#511c74;}.cls-6{fill:#d9d29a;}.cls-7{fill:#44515c;}.cls-8{fill:#ebae8a;}.cls-10,.cls-9{stroke:#ebae8a;stroke-miterlimit:10;}.cls-9{stroke-width:0.84px;}.cls-10{stroke-width:0.42px;}.cls-11{fill:#5a3b34;}.cls-12{fill:#d55225;}.cls-13{fill:#9d4838;}.cls-14{fill:#c9b474;}.cls-15{fill:#c7522f;}</style></defs><title>Asset 14</title><g id="Layer_2" data-name="Layer 2"><g id="Glavno_Besedilo" data-name="Glavno Besedilo"><ellipse class="cls-1" cx="110.16" cy="441.87" rx="110.16" ry="12.56"/><path class="cls-2" d="M46.35,239.36S41.67,276.28,67,280V238.46Z"/><path class="cls-2" d="M175.72,239.36s4.68,36.92-20.61,40.62V238.46Z"/><path class="cls-3" d="M86.05,108.31s10.73-.79,11.22-13.7h26.35s1.08,16.85,13.64,13.7L136.12,118l-25.66,10.22-22.3-6-5.43-10.82Z"/><path class="cls-4" d="M190.19,240.89l-36.9-.43v-97.6s9.53-40.44,24.18-18.49C185.58,165.29,186.89,203.49,190.19,240.89Z"/><path class="cls-4" d="M34.5,240.89l34.41-.42V143s-9.53-40.36-24.17-18.46C36.62,165.42,37.8,203.56,34.5,240.89Z"/><path class="cls-5" d="M146.44,108H135.73c-3.52,9-13.21,15.42-24.63,15.42S90,117,86.47,108H75.76c-13,0-34,13.1-25.5,14,3.58.4,8,5.38,12.12,17.9v124.2h97.44V139.93c4.13-12.52,8.55-17.5,12.12-17.9C180.43,121.09,159.41,108,146.44,108Z"/><rect class="cls-6" x="62.89" y="264.13" width="96.78" height="23.34"/><polygon class="cls-6" points="111.33 287.46 97.21 426.4 77.03 422.44 62.89 287.46 111.33 287.46"/><polygon class="cls-6" points="159.67 287.46 143.75 422.44 122.76 426.4 111.5 287.46 159.67 287.46"/><path class="cls-7" d="M76.82,420.89c.78,7.28-5.47,8.38-5.47,8.38-25.64-2.38-20,10.35-20,10.35H75.81l21.4.07V425.38Z"/><path class="cls-7" d="M143.91,420.08c-.8,7.53,5.66,8.68,5.66,8.68,26.55-2.47,20.74,10.71,20.74,10.71H123.78l-1-14.09Z"/><path class="cls-2" d="M107.46,7.95h7a32.32,32.32,0,0,1,32.32,32.32V65.73A35.84,35.84,0,0,1,111,101.56h0A35.84,35.84,0,0,1,75.14,65.73V40.27A32.32,32.32,0,0,1,107.46,7.95Z"/><path class="cls-8" d="M84.14,52.38s7.27-7.31,20.15,0C104.29,52.38,93.09,40,84.14,52.38Z"/><path class="cls-8" d="M118.43,52.38s7.27-7.31,20.15,0C138.58,52.38,127.38,40,118.43,52.38Z"/><path class="cls-9" d="M107.05,68.82s5.83,2.94,7.74.42c.83-1.09-3.63-22.81-2.17-22.36"/><path class="cls-10" d="M85.92,42.45s6.06-6.64,19.21,0"/><path class="cls-10" d="M119.37,43.25s6.06-6.63,19.21,0"/><path class="cls-11" d="M124.72,76.52a15,15,0,0,1-5.35,7.94c-1-5-19.39-3.06-19.45-3a19.4,19.4,0,0,1-2.81-4.89Z"/><path class="cls-12" d="M119.37,84.46h0a13.93,13.93,0,0,1-7.6,2.62,13.66,13.66,0,0,1-11.85-5.67C100,81.4,118.36,79.47,119.37,84.46Z"/><polygon class="cls-11" points="99.92 81.41 99.92 81.41 99.92 81.41 99.92 81.41"/><path class="cls-2" d="M75.64,44.45s-7.79-2.18-5.52,9.49a94.5,94.5,0,0,0,5.52,18.91Z"/><path class="cls-2" d="M145.28,44.45s7.79-2.18,5.52,9.49a94.5,94.5,0,0,1-5.52,18.91Z"/><path class="cls-13" d="M79.7,50.86s-1.11-11,2.2-20.67c.23-.64.47-1.28.75-1.9a11.56,11.56,0,0,1,1-1.94,11.14,11.14,0,0,1,1.4-1.68,16.5,16.5,0,0,1,4.75-2.8,12,12,0,0,1,2.44-.64c1.15-.65,2.5.25,3.84.7a25.23,25.23,0,0,1,2.65,1.9c.86.69,1.7,1.43,2.54,2.11a6.37,6.37,0,0,0,2.7,1.93,3.67,3.67,0,0,0,2.89-.11,26.66,26.66,0,0,1,9.92-3,25.24,25.24,0,0,1,2.6-.11c6.33-.51,10.81,3.53,15.75,6.23a5.37,5.37,0,0,0,5,.12,10.91,10.91,0,0,0,2.28-1.4,10.39,10.39,0,0,0,3.89-7.25c0-.9,1.62.42,2.52.87s.81,1,1.07,1.37a28.92,28.92,0,0,0-4.67-9A34.77,34.77,0,0,0,142,11.73a34.08,34.08,0,0,0-3.83-3.46c-.77-.61-1.57-1.18-2.39-1.71a31.37,31.37,0,0,0-5.15-2.74,23.46,23.46,0,0,0-2.15-1c-.73-.31-1.46-.58-2.2-.82s-1.49-.45-2.24-.63a25.5,25.5,0,0,0-2.73-.79c-.91-.21-1.82-.36-2.73-.48a60.81,60.81,0,0,0-9.06.21c-.61.07-1.21.16-1.81.26C102.39,2.18,97,2.63,91.82,4.3c-.75.29-1.49.61-2.21,1A26.71,26.71,0,0,0,78.76,14.5c-.5.75-1,1.51-1.38,2.3a36.21,36.21,0,0,0-3,7.48c-.28.58-.53,1.17-.76,1.77-4.35,11.4.77,27.3.77,27.3"/><rect class="cls-14" x="77.88" y="142.6" width="67.24" height="28.36" rx="14.18"/><rect class="cls-15" x="116.76" y="216.01" width="28.36" height="28.36" rx="14.18"/></g></g></svg>