<svg xmlns="http://www.w3.org/2000/svg" viewBox="0 0 221.67 547.57"><defs><style>.cls-1{fill:#fbc5aa;}.cls-13,.cls-14,.cls-2{fill:#eed1bf;}.cls-3{fill:#dce6e0;}.cls-4{fill:#d8dcec;}.cls-5{fill:#0054a6;}.cls-6{fill:#00a881;stroke:#003d7b;stroke-width:0.78px;}.cls-13,.cls-14,.cls-17,.cls-6{stroke-miterlimit:10;}.cls-7{fill:#7bafde;}.cls-8{fill:#44515c;}.cls-9{fill:#003d7b;}.cls-10{fill:#fff;}.cls-11{fill:#514835;}.cls-12{fill:#ebae8a;}.cls-13,.cls-14{stroke:#ebae8a;}.cls-13{stroke-width:0.91px;}.cls-14{stroke-width:0.46px;}.cls-15{fill:#5a3b34;}.cls-16{fill:#d55225;}.cls-17{fill:none;stroke:#231f20;stroke-width:0.49px;}</style></defs><title>Asset 16</title><g id="Layer_2" data-name="Layer 2"><g id="Glavno_Besedilo" data-name="Glavno Besedilo"><path class="cls-1" d="M82.12,107.58s12.83-1,13.41-16.37H127s1.29,20.14,16.31,16.37L142,119.16,111.3,131.38l-26.65-7.15-6.5-12.94Z"/><path class="cls-2" d="M32.32,280.61s-4.53,35.75,20,39.34V279.74Z"/><path class="cls-2" d="M193.28,280.66s4.53,35.75-20,39.34V279.79Z"/><ellipse class="cls-3" cx="110.83" cy="534.94" rx="110.83" ry="12.63"/><path class="cls-4" d="M205.15,281.16l-40-1.75V150.6s9.25-53.36,23.47-24.4Q200.41,207.2,205.15,281.16Z"/><path class="cls-4" d="M20.56,281.16l40-1.75V150.6s-9.25-53.36-23.48-24.4Q25.31,207.2,20.56,281.16Z"/><path class="cls-5" d="M156.78,107.58H143.47C139.1,118.9,127.05,127,112.85,127s-26.24-8.14-30.61-19.46H68.93c-16.13,0-42.26,16.53-31.71,17.72,4.44.5,9.94,6.79,15.06,22.58V289.74H173.42V147.88c5.13-15.79,10.62-22.08,15.07-22.58C199,124.11,172.91,107.58,156.78,107.58Z"/><line class="cls-6" x1="112.85" y1="289.74" x2="112.85" y2="127.04"/><rect class="cls-7" x="52.28" y="289.74" width="121.04" height="40.87"/><polygon class="cls-7" points="112.86 330.61 92.84 517.01 69.96 517.01 52.28 330.61 112.86 330.61"/><polygon class="cls-7" points="173.32 330.61 153.41 517.01 130.65 517.01 113.07 330.61 173.32 330.61"/><path class="cls-8" d="M130.65,517v17.68H189.8s7.8-17.72-27.89-14.41c0,0-8.69-1.53-7.61-11.66"/><path class="cls-8" d="M92.75,517v17.68H33.6S25.79,517,61.48,520.28c0,0,8.7-1.53,7.61-11.66"/><circle class="cls-9" cx="123.01" cy="156.99" r="3.06"/><circle class="cls-9" cx="103.02" cy="156.99" r="3.06"/><circle class="cls-9" cx="123.01" cy="180.01" r="3.06"/><circle class="cls-9" cx="103.02" cy="180.01" r="3.06"/><circle class="cls-9" cx="123.01" cy="203.02" r="3.06"/><circle class="cls-9" cx="103.02" cy="203.02" r="3.06"/><circle class="cls-9" cx="123.01" cy="226.03" r="3.06"/><circle class="cls-9" cx="103.02" cy="226.03" r="3.06"/><circle class="cls-9" cx="123.01" cy="249.05" r="3.06"/><circle class="cls-9" cx="103.02" cy="249.05" r="3.06"/><path class="cls-2" d="M109.23,0h7.65a35.2,35.2,0,0,1,35.2,35.2V62.91a39,39,0,0,1-39,39h0a39,39,0,0,1-39-39V35.2A35.2,35.2,0,0,1,109.23,0Z"/><path class="cls-10" d="M103.7,45c.07-6-18.58-6.23-18.65-.23C85,50.22,103.63,50.45,103.7,45Z"/><path class="cls-10" d="M141.18,45c.08-6-18.57-6.23-18.65-.23C122.47,50.22,141.12,50.45,141.18,45Z"/><circle class="cls-11" cx="93.8" cy="44.69" r="3.09"/><circle class="cls-11" cx="131.86" cy="44.69" r="3.09"/><path class="cls-12" d="M83.89,45.15s7.93-8,21.94,0C105.83,45.15,93.64,31.67,83.89,45.15Z"/><path class="cls-12" d="M121.23,45.15s7.92-8,21.94,0C143.17,45.15,131,31.67,121.23,45.15Z"/><path class="cls-13" d="M108.85,66.28s6.34,3.21,8.43.46c.89-1.18-4-24.84-2.37-24.35"/><path class="cls-14" d="M85.84,37.57s6.59-7.23,20.91,0"/><path class="cls-14" d="M122.26,38.44s6.59-7.23,20.91,0"/><path class="cls-15" d="M128.08,78.2a11.61,11.61,0,0,1-5.82,6c-1.1-3.77-21.11-2.3-21.18-2.3A14.11,14.11,0,0,1,98,78.2Z"/><path class="cls-16" d="M122.26,84.19h0a19.64,19.64,0,0,1-8.27,2,17.71,17.71,0,0,1-12.91-4.28C101.15,81.89,121.16,80.42,122.26,84.19Z"/><polygon class="cls-15" points="101.08 81.89 101.08 81.89 101.08 81.89 101.08 81.89"/><path class="cls-2" d="M74.65,39.74s-8.49-2.37-6,10.34a102.26,102.26,0,0,0,6,20.59Z"/><path class="cls-2" d="M150.47,39.74s8.49-2.37,6,10.34a102.26,102.26,0,0,1-6,20.59Z"/><path class="cls-14" d="M107.43,96.33s6.17-6.17,12.5-.3"/><rect class="cls-17" x="120.16" y="37.57" width="23.4" height="14.26" rx="6.68"/><rect class="cls-17" x="83.16" y="37.57" width="23.4" height="14.26" rx="6.68"/><path class="cls-17" d="M106.56,45.15s8.18-6.18,13.6,0"/><line class="cls-17" x1="74.65" y1="39.74" x2="83.16" y2="44.24"/><line class="cls-17" x1="152.08" y1="39.57" x2="143.56" y2="44.69"/></g></g></svg>