<svg xmlns="http://www.w3.org/2000/svg" viewBox="0 0 152.97 376.48"><defs><style>.cls-1{fill:#fbc5aa;}.cls-2{fill:#dce6e0;}.cls-3{fill:#d8dcec;}.cls-4{fill:#eed1bf;}.cls-5{fill:#fff;}.cls-6{fill:#514835;}.cls-7{fill:#ebaf88;}.cls-8{fill:#231f20;}.cls-9{fill:#955903;}.cls-10{fill:#074368;}.cls-11{fill:#44515c;}.cls-12{fill:#7b2e00;}</style></defs><title>Asset 4</title><g id="Layer_2" data-name="Layer 2"><g id="Glavno_Besedilo" data-name="Glavno Besedilo"><path id="Vrat" class="cls-1" d="M101.32,81.12l-.11.29c-3,7.45-11,12.77-20.43,12.77s-17.6-5.45-20.54-13.05h-.08a10.09,10.09,0,0,0,6.9-4.08,10.38,10.38,0,0,0,1.12-2,14.08,14.08,0,0,0,1-4.87H90.29a20.19,20.19,0,0,0,1,4.86,10.61,10.61,0,0,0,3.38,5.09A7.48,7.48,0,0,0,101.32,81.12Z"/><ellipse class="cls-2" cx="76.49" cy="367.76" rx="76.49" ry="8.72"/><path class="cls-3" d="M142.7,197.58l-26.85-1.17V110s6.2-35.8,15.75-16.37Q139.52,148,142.7,197.58Z"/><path id="Koza" class="cls-4" d="M110.57,40.92A73.39,73.39,0,0,1,106.49,55a27.12,27.12,0,0,1-53.63-1A84.74,84.74,0,0,1,49.2,40.67c-1.35-7,1.71-7.86,3.43-7.84V31.21A24.46,24.46,0,0,1,77.09,6.75h5.32a24.46,24.46,0,0,1,24.46,24.46v2.44C108.24,33.48,112,33.65,110.57,40.92Z"/><path class="cls-5" d="M73.88,37.41c.06-4.18-12.91-4.33-13-.16C60.88,41,73.84,41.17,73.88,37.41Z"/><path class="cls-5" d="M99.94,37.41c0-4.18-12.91-4.33-13-.16C86.93,41,99.89,41.17,99.94,37.41Z"/><circle class="cls-6" cx="67" cy="37.18" r="2.14"/><circle class="cls-6" cx="93.46" cy="37.18" r="2.14"/><path id="Oci" class="cls-7" d="M60.12,37.49s5.5-5.53,15.25,0C75.37,37.49,66.9,28.12,60.12,37.49Z"/><path id="Oci-2" data-name="Oci" class="cls-7" d="M86.07,37.49s5.51-5.53,15.25,0C101.32,37.49,92.85,28.12,86.07,37.49Z"/><path id="Oci-3" data-name="Oci" class="cls-7" d="M73.07,65.49s5.51-5.53,15.25,0C88.32,65.49,79.85,56.12,73.07,65.49Z"/><path class="cls-4" d="M81.67,35.57l-.22.86C81.44,35.84,81.51,35.52,81.67,35.57Z"/><path id="Nos" class="cls-7" d="M81.42,53.58a10.9,10.9,0,0,1-4.1-1.12l.29-.57c1.16.59,4.4,1.81,5.46.42.17-.47-.43-4.43-.91-7.61-1-6.77-1.26-8.94-.79-9.35a.44.44,0,0,1,.4-.08l-.19.61a.23.23,0,0,0,.24-.08c-.28.56.44,5.32,1,8.8.89,5.89,1.1,7.67.78,8.09A2.54,2.54,0,0,1,81.42,53.58Z"/><g id="Obrve"><path class="cls-8" d="M75.65,32.93c-9.24-4.66-13.42-.35-13.6-.17l-1.17-1.07c.21-.23,5.11-5.41,15.48-.18Z"/></g><g id="Obrve-2" data-name="Obrve"><g id="Obrve-3" data-name="Obrve"><path id="Obrve-4" data-name="Obrve" class="cls-8" d="M101,33.54c-9.3-4.7-13.55-.22-13.59-.17L86.2,32.29c.2-.22,5.11-5.4,15.48-.17Z"/></g></g><path id="Lasje1" class="cls-8" d="M56.82,39.32S55,25.81,60.94,20.49a8,8,0,0,1,1.82-1.23,6.12,6.12,0,0,1,1.2-.43c2.22-.62,4.77-.3,7.06-.16l1.72.18C83.36,20,88.85,22,88.85,22S92,19,86.78,17.26s8.53-.22,12.13,7.3a51.32,51.32,0,0,1,4.4,14.76l3.08.83s8.19-21.22-1.55-28.52c-5.34-4-12-9-18.5-10.86-.65-.18-1.31-.33-2-.45A16.36,16.36,0,0,0,80.88,0a14.36,14.36,0,0,0-3.55.31c-.61.14-1.2.31-1.77.5s-1.14.41-1.7.65c-5.45,2.76-10.22,7.21-16.22,8.67-.58.17-1.14.36-1.69.57-2.71,1.07-4.87,2.71-5.05,6.15a15,15,0,0,0-.33,1.59,14.25,14.25,0,0,0-.13,3.26c0,.39.05.8.05,1.22C50.46,27.46,51.87,33.09,56.82,39.32Z"/><path class="cls-3" d="M18.87,197.58l26.85-1.17V110S39.51,74.19,30,93.62Q22.05,148,18.87,197.58Z"/><path id="Pulover" class="cls-9" d="M131.53,93l-.23,0c-2.94.51-6.53,4.78-9.88,15.12v95.16H40.15V108.16C36.8,97.82,33.21,93.55,30.27,93L30,93C23,92.21,40.5,81.12,51.31,81.12h8.93c2.94,7.59,11,13,20.54,13s17.4-5.32,20.43-12.77c0-.1.07-.19.11-.28h8.93C121.07,81.12,138.6,92.21,131.53,93Z"/><polygon id="Hlace" class="cls-10" points="121.35 203.33 121.35 230.76 108.59 350.18 92.72 355.81 80.93 230.76 80.79 230.76 67.36 355.81 67.3 355.81 51.47 350.19 40.15 230.76 40.15 203.33 121.35 203.33"/><path id="Koza-2" data-name="Koza" class="cls-4" d="M26.76,197.21s-3.05,24,13.39,26.4v-27Z"/><path id="Koza-3" data-name="Koza" class="cls-4" d="M134.74,197.25s3,24-13.39,26.39v-27Z"/><path class="cls-11" d="M132.41,367.67H92.72V355.81l15.87-5.63s0,0,0,0C107.9,357,113.7,358,113.7,358,137.64,355.78,132.41,367.67,132.41,367.67Z"/><path class="cls-11" d="M67.3,355.81v11.86H27.61S22.38,355.78,46.32,358c0,0,5.83-1,5.1-7.82h0Z"/><rect class="cls-12" x="49.97" y="106.75" width="27" height="27" rx="12"/><rect class="cls-12" x="95.97" y="128.75" width="15" height="57" rx="7.5"/></g></g></svg>