<svg xmlns="http://www.w3.org/2000/svg" viewBox="0 0 205.84 506.59"><defs><style>.cls-1{fill:#fbc5aa;}.cls-2{fill:#dce6e0;}.cls-3{fill:#d8dcec;}.cls-4{fill:#eed1bf;}.cls-5{fill:#fff;}.cls-6{fill:#514835;}.cls-7{fill:#ebaf88;}.cls-8{fill:#ffe6b4;}.cls-9{fill:#301812;}.cls-10{fill:#d55227;}.cls-11,.cls-12,.cls-15{fill:none;stroke-miterlimit:10;}.cls-11,.cls-12{stroke:#231f20;}.cls-11{stroke-width:0.46px;}.cls-12{stroke-width:0.42px;}.cls-13{fill:#ffebc6;}.cls-14{fill:#863d11;}.cls-15{stroke:#790002;stroke-width:0.7px;}.cls-16{fill:#008747;}.cls-17{fill:#44515c;}.cls-18{fill:#790002;}</style></defs><title>Asset 11</title><g id="Layer_2" data-name="Layer 2"><g id="Glavno_Besedilo" data-name="Glavno Besedilo"><path id="Vrat" class="cls-1" d="M136.34,109.15l-.16.39c-4.06,10-14.83,17.19-27.48,17.19-12.81,0-23.69-7.34-27.63-17.56H81a13.61,13.61,0,0,0,9.29-5.49,13.29,13.29,0,0,0,1.5-2.75,19.19,19.19,0,0,0,1.33-6.54H121.5a27.29,27.29,0,0,0,1.4,6.53,14.46,14.46,0,0,0,4.55,6.85C129.55,109.37,132.51,110.12,136.34,109.15Z"/><ellipse class="cls-2" cx="102.92" cy="494.86" rx="102.92" ry="11.73"/><path class="cls-3" d="M192,265.86l-36.13-1.57V148s8.35-48.17,21.19-22Q187.75,199.1,192,265.86Z"/><path id="Koza" class="cls-4" d="M148.79,55.06a99.68,99.68,0,0,1-5.5,19,36.49,36.49,0,0,1-72.17-1.42A116.2,116.2,0,0,1,66.2,54.72c-1.82-9.39,2.31-10.57,4.62-10.54V42A32.92,32.92,0,0,1,103.74,9.08h7.15A32.92,32.92,0,0,1,143.81,42v3.28C145.65,45.05,150.68,45.28,148.79,55.06Z"/><path class="cls-5" d="M99.42,50.33c.07-5.61-17.37-5.82-17.44-.21C81.92,55.19,99.36,55.4,99.42,50.33Z"/><path class="cls-5" d="M134.47,50.33c.07-5.61-17.37-5.82-17.44-.21C117,55.19,134.41,55.4,134.47,50.33Z"/><circle class="cls-6" cx="90.16" cy="50.02" r="2.89"/><circle class="cls-6" cx="125.75" cy="50.02" r="2.89"/><path id="Oci" class="cls-7" d="M80.9,50.45s7.41-7.44,20.51,0C101.41,50.45,90,37.84,80.9,50.45Z"/><path id="Oci-2" data-name="Oci" class="cls-7" d="M115.81,50.45s7.41-7.44,20.52,0C136.33,50.45,124.93,37.84,115.81,50.45Z"/><path class="cls-4" d="M109.9,47.87,109.6,49C109.59,48.23,109.68,47.8,109.9,47.87Z"/><path id="Nos" class="cls-7" d="M109.55,72.1A14.45,14.45,0,0,1,104,70.59l.39-.76c1.56.79,5.93,2.42,7.34.55.24-.62-.56-5.95-1.21-10.24-1.38-9.1-1.7-12-1.06-12.57a.53.53,0,0,1,.53-.11l-.26.82a.32.32,0,0,0,.33-.11c-.38.75.59,7.16,1.3,11.85,1.2,7.92,1.49,10.31,1.06,10.88A3.44,3.44,0,0,1,109.55,72.1Z"/><g id="Obrve"><path class="cls-8" d="M101.79,44.31C89.36,38,83.73,43.83,83.5,44.08l-1.58-1.44c.28-.3,6.88-7.28,20.83-.24Z"/></g><g id="Obrve-2" data-name="Obrve"><g id="Obrve-3" data-name="Obrve"><path id="Obrve-4" data-name="Obrve" class="cls-8" d="M135.85,45.13c-12.52-6.32-18.23-.29-18.28-.23L116,43.46c.27-.3,6.87-7.28,20.83-.24Z"/></g></g><path class="cls-9" d="M122.22,78.06a16.07,16.07,0,0,1-5.44,8.08C115.75,81.05,97,83,97,83a24.27,24.27,0,0,1-2.86-5Z"/><path class="cls-10" d="M116.78,86.14h0A14.12,14.12,0,0,1,109,88.81,14,14,0,0,1,97,83C97,83,115.75,81.05,116.78,86.14Z"/><polygon class="cls-9" points="96.97 83.03 96.97 83.04 96.97 83.03 96.97 83.03"/><polygon class="cls-5" points="94.11 78.06 94.91 79.82 121.62 79.82 122.22 78.06 94.11 78.06"/><g id="Ocala"><path class="cls-11" d="M102.75,50.87s7.64-5.78,12.71,0"/><line class="cls-11" x1="72.9" y1="45.82" x2="80.86" y2="50.02"/><line class="cls-11" x1="145.31" y1="45.65" x2="137.35" y2="50.44"/><circle class="cls-12" cx="91.8" cy="50.87" r="10.94"/><circle class="cls-12" cx="126.4" cy="50.87" r="10.94"/></g><path id="Lasje1" class="cls-13" d="M76.45,52.91S74,34.73,82,27.57a10.78,10.78,0,0,1,2.45-1.66,8.78,8.78,0,0,1,1.61-.57c3-.84,6.42-.41,9.5-.22l2.31.24c14.31,1.55,21.68,4.25,21.68,4.25s4.28-4.11-2.77-6.39,11.46-.29,16.31,9.83A69.2,69.2,0,0,1,139,52.91L143.16,54s11-28.56-2.09-38.38C133.88,10.27,125,3.47,116.18,1c-.88-.24-1.76-.44-2.64-.59A20.78,20.78,0,0,0,111.19.1,23.16,23.16,0,0,0,108.83,0a19.93,19.93,0,0,0-4.78.42c-.81.19-1.61.41-2.38.67s-1.54.56-2.28.88c-7.34,3.71-13.75,9.7-21.83,11.66-.78.24-1.54.49-2.27.78-3.65,1.43-6.55,3.64-6.8,8.26-.18.71-.33,1.43-.45,2.15a18.91,18.91,0,0,0-.16,4.38c0,.53.06,1.08.06,1.64C67.9,37,69.79,44.53,76.45,52.91Z"/><path class="cls-3" d="M25.39,265.86l36.13-1.57V148s-8.35-48.17-21.19-22Q29.67,199.1,25.39,265.86Z"/><path id="Pulover" class="cls-14" d="M177,125.15l-.3,0c-4,.7-8.79,6.44-13.3,20.34V273.59H54V145.53c-4.51-13.9-9.33-19.64-13.29-20.34l-.31,0c-9.52-1.08,14.07-16,28.63-16h12c3.94,10.23,14.82,17.57,27.63,17.57,12.65,0,23.42-7.16,27.48-17.19.06-.13.11-.25.16-.38h12C162.92,109.15,186.5,124.07,177,125.15Z"/><line id="Zadrga" class="cls-15" x1="108.7" y1="273.61" x2="108.7" y2="126.73"/><polygon id="Hlace" class="cls-16" points="163.29 273.61 163.29 310.51 146.12 471.2 124.77 478.77 108.9 310.51 108.71 310.51 90.64 478.77 90.56 478.77 69.26 471.23 54.02 310.51 54.02 273.61 163.29 273.61"/><path id="Koza-2" data-name="Koza" class="cls-4" d="M36,265.37s-4.09,32.27,18,35.51V264.59Z"/><path id="Koza-3" data-name="Koza" class="cls-4" d="M181.31,265.42s4.09,32.27-18,35.51v-36.3Z"/><path class="cls-17" d="M178.17,494.74h-53.4v-16l21.35-7.57s0,0,0,.06c-.92,9.09,6.89,10.47,6.89,10.47C185.21,478.74,178.17,494.74,178.17,494.74Z"/><path class="cls-17" d="M90.56,478.77v16H37.15s-7-16,25.18-13c0,0,7.84-1.39,6.87-10.53l.06,0Z"/><circle id="Gumb" class="cls-18" cx="117.87" cy="153.77" r="2.76"/><circle id="Gumb-2" data-name="Gumb" class="cls-18" cx="99.82" cy="153.77" r="2.76"/><circle id="Gumb-3" data-name="Gumb" class="cls-18" cx="117.87" cy="174.55" r="2.76"/><circle id="Gumb-4" data-name="Gumb" class="cls-18" cx="99.82" cy="174.55" r="2.76"/><circle id="Gumb-5" data-name="Gumb" class="cls-18" cx="117.87" cy="195.32" r="2.76"/><circle id="Gumb-6" data-name="Gumb" class="cls-18" cx="99.82" cy="195.32" r="2.76"/><circle id="Gumb-7" data-name="Gumb" class="cls-18" cx="117.87" cy="216.1" r="2.76"/><circle id="Gumb-8" data-name="Gumb" class="cls-18" cx="99.82" cy="216.1" r="2.76"/><circle id="Gumb-9" data-name="Gumb" class="cls-18" cx="117.87" cy="236.87" r="2.76"/><circle id="Gumb-10" data-name="Gumb" class="cls-18" cx="99.82" cy="236.87" r="2.76"/></g></g></svg>