<svg xmlns="http://www.w3.org/2000/svg" xmlns:xlink="http://www.w3.org/1999/xlink" viewBox="0 0 133.98 133.98"><defs><style>.cls-1,.cls-13,.cls-14{fill:none;}.cls-1{stroke:#e2a44f;stroke-width:1.98px;}.cls-1,.cls-10,.cls-13,.cls-14,.cls-17,.cls-9{stroke-miterlimit:10;}.cls-2{clip-path:url(#clip-path);}.cls-3{fill:#fbc5aa;}.cls-4{fill:#d8dcec;}.cls-10,.cls-5,.cls-9{fill:#eed1bf;}.cls-6{fill:#fff;}.cls-7{fill:#514835;}.cls-8{fill:#ebae8a;}.cls-9{stroke:#ebae8a;stroke-width:0.66px;}.cls-10{stroke:#e2e0df;stroke-width:1.66px;}.cls-11{fill:#5a3b34;}.cls-12{fill:#d55225;}.cls-13,.cls-14{stroke:#231f20;}.cls-13{stroke-width:0.35px;}.cls-14{stroke-width:0.33px;}.cls-15{fill:#231f20;}.cls-16{fill:#fbb040;}.cls-17{fill:#00a881;stroke:#f37443;stroke-width:0.55px;}.cls-18{fill:#007dac;}.cls-19{fill:#44515c;}.cls-20{fill:#e06a4d;}</style><clipPath id="clip-path"><circle class="cls-1" cx="66.99" cy="66.99" r="66"/></clipPath></defs><title>Asset 26</title><g id="Layer_2" data-name="Layer 2"><g id="Glavno_Besedilo" data-name="Glavno Besedilo"><g class="cls-2"><path class="cls-3" d="M44,105.81s9-.67,9.41-11.48H75.46s.9,14.12,11.44,11.48l-1,8.12L64.42,122.5l-18.69-5-4.56-9.07Z"/><path class="cls-4" d="M130.25,227.56l-28.08-1.22V136s6.49-37.43,16.47-17.12Q126.92,175.69,130.25,227.56Z"/><path class="cls-5" d="M37.18,55.45s-6.61-1.85-4.69,8.06a80.09,80.09,0,0,0,4.69,16Z"/><path class="cls-5" d="M61.65,28h5.56A25.58,25.58,0,0,1,92.79,53.62V73.76a28.36,28.36,0,0,1-28.36,28.36h0A28.36,28.36,0,0,1,36.08,73.76V53.62A25.58,25.58,0,0,1,61.65,28Z"/><path class="cls-6" d="M58.3,60.1c.05-4.36-13.5-4.53-13.55-.16C44.7,63.87,58.25,64,58.3,60.1Z"/><path class="cls-6" d="M85.54,60.1c0-4.36-13.5-4.53-13.55-.16C71.94,63.87,85.49,64,85.54,60.1Z"/><circle class="cls-7" cx="51.11" cy="59.86" r="2.24"/><circle class="cls-7" cx="78.76" cy="59.86" r="2.24"/><path class="cls-8" d="M43.91,60.19s5.76-5.78,15.94,0C59.85,60.19,51,50.4,43.91,60.19Z"/><path class="cls-8" d="M71,60.19s5.76-5.78,15.94,0C87,60.19,78.13,50.4,71,60.19Z"/><path class="cls-9" d="M62,75.54s4.61,2.33,6.13.34c.65-.86-2.88-18-1.73-17.69"/><path class="cls-10" d="M45.32,54.68s4.79-5.25,15.2,0"/><path class="cls-10" d="M71.79,55.32s4.79-5.26,15.19,0"/><path class="cls-11" d="M76,81.64a11.85,11.85,0,0,1-4.23,6.28C71,84,56.45,85.5,56.4,85.51a15.33,15.33,0,0,1-2.22-3.87Z"/><path class="cls-12" d="M71.79,87.92h0A11.09,11.09,0,0,1,56.4,85.51C56.45,85.5,71,84,71.79,87.92Z"/><polygon class="cls-11" points="56.4 85.51 56.4 85.51 56.4 85.51 56.4 85.51"/><path class="cls-5" d="M92.28,56.26s6.17-1.72,4.38,7.51a74.51,74.51,0,0,1-4.38,15Z"/><polygon class="cls-6" points="54.18 81.64 54.8 83.01 75.55 83.01 76.02 81.64 54.18 81.64"/><path class="cls-13" d="M60.89,60.51s5.94-4.48,9.87,0"/><line class="cls-13" x1="37.69" y1="56.59" x2="43.88" y2="59.86"/><line class="cls-13" x1="93.96" y1="56.46" x2="87.77" y2="60.19"/><circle class="cls-14" cx="52.38" cy="60.51" r="8.5"/><circle class="cls-14" cx="79.27" cy="60.51" r="8.5"/><path class="cls-15" d="M40.46,62.1S38.54,48,44.76,42.41a8.4,8.4,0,0,1,1.91-1.28,6.22,6.22,0,0,1,1.25-.45c2.33-.65,5-.32,7.38-.17l1.8.19C68.21,41.9,73.94,44,73.94,44s3.33-3.2-2.15-5,8.91-.22,12.67,7.64a53.39,53.39,0,0,1,4.6,15.43l3.22.87s8.57-22.19-1.62-29.82C85.08,29,78.16,23.69,71.32,21.79a20.89,20.89,0,0,0-2-.46A17.71,17.71,0,0,0,65.62,21a15.25,15.25,0,0,0-3.72.33,18.7,18.7,0,0,0-1.85.52c-.6.2-1.19.43-1.77.68-5.7,2.89-10.69,7.54-17,9.06q-.91.27-1.77.6c-2.83,1.12-5.09,2.84-5.28,6.43-.14.55-.26,1.1-.35,1.67a14.88,14.88,0,0,0-.13,3.4c0,.41.05.83.05,1.27C33.81,49.7,35.28,55.59,40.46,62.1Z"/><path class="cls-4" d="M.78,227.56l28.07-1.22V136s-6.49-37.43-16.46-17.12Q4.11,175.69.78,227.56Z"/><path class="cls-16" d="M96.33,105.81H87c-3.07,7.94-11.52,13.65-21.48,13.65S47.11,113.75,44,105.81H34.7c-11.31,0-29.64,11.6-22.24,12.43,3.12.35,7,4.76,10.57,15.84v99.5h85v-99.5c3.59-11.08,7.45-15.49,10.56-15.84C126,117.41,107.64,105.81,96.33,105.81Z"/><line class="cls-17" x1="65.51" y1="233.58" x2="65.51" y2="119.46"/><rect class="cls-18" x="23.03" y="233.58" width="84.9" height="28.67"/><polygon class="cls-18" points="65.52 262.25 51.48 392.99 35.42 392.99 23.03 262.25 65.52 262.25"/><polygon class="cls-18" points="107.92 262.25 93.96 392.99 78 392.99 65.66 262.25 107.92 262.25"/><path class="cls-5" d="M9,227.18s-3.18,25.07,14,27.59v-28.2Z"/><path class="cls-19" d="M78,393v12.4h41.48S125,393,99.93,395.28c0,0-6.1-1.07-5.34-8.18"/><path class="cls-19" d="M51.41,393v12.4H9.92S4.45,393,29.48,395.28c0,0,6.1-1.07,5.34-8.18"/><circle class="cls-20" cx="72.63" cy="140.47" r="2.14"/><circle class="cls-20" cx="58.61" cy="140.47" r="2.14"/><circle class="cls-20" cx="72.63" cy="156.61" r="2.14"/><circle class="cls-20" cx="58.61" cy="156.61" r="2.14"/><circle class="cls-20" cx="72.63" cy="172.75" r="2.14"/><circle class="cls-20" cx="58.61" cy="172.75" r="2.14"/><circle class="cls-20" cx="72.63" cy="188.89" r="2.14"/><circle class="cls-20" cx="58.61" cy="188.89" r="2.14"/><circle class="cls-20" cx="72.63" cy="205.04" r="2.14"/><circle class="cls-20" cx="58.61" cy="205.04" r="2.14"/></g><circle class="cls-1" cx="66.99" cy="66.99" r="66"/></g></g></svg>