<svg xmlns="http://www.w3.org/2000/svg" viewBox="0 0 412.02 463.09"><defs><style>.cls-1{fill:#fbc5aa;}.cls-2{fill:#d8dcec;}.cls-23,.cls-24,.cls-3,.cls-7,.cls-8{fill:#eed1bf;}.cls-4{fill:#fff;}.cls-5{fill:#514835;}.cls-6{fill:#ebae8a;}.cls-23,.cls-24,.cls-7{stroke:#ebae8a;}.cls-11,.cls-12,.cls-15,.cls-20,.cls-23,.cls-24,.cls-25,.cls-30,.cls-33,.cls-34,.cls-7,.cls-8{stroke-miterlimit:10;}.cls-7{stroke-width:0.79px;}.cls-11,.cls-12,.cls-25,.cls-33,.cls-34,.cls-8{stroke:#231f20;}.cls-8{stroke-width:1.98px;}.cls-9{fill:#5a3b34;}.cls-10{fill:#d55225;}.cls-11,.cls-12,.cls-25,.cls-30,.cls-33,.cls-34{fill:none;}.cls-11{stroke-width:0.42px;}.cls-12{stroke-width:0.39px;}.cls-13{fill:#231f20;}.cls-14{fill:#006a65;}.cls-15,.cls-20{fill:#00a881;stroke-width:0.65px;}.cls-15{stroke:#489086;}.cls-16{fill:#007dac;}.cls-17{fill:#44515c;}.cls-18{fill:#489086;}.cls-19{fill:#0054a6;}.cls-20{stroke:#003d7b;}.cls-21{fill:#7bafde;}.cls-22{fill:#003d7b;}.cls-23{stroke-width:0.77px;}.cls-24{stroke-width:0.38px;}.cls-25{stroke-width:0.41px;}.cls-26{fill:#ffebc6;}.cls-27{fill:#d89f72;}.cls-28{fill:#004e7c;}.cls-29{fill:#6a8a7f;}.cls-30{stroke:#c1c0db;stroke-width:0.63px;}.cls-31{fill:#cabcdc;}.cls-32{fill:#f5e6c1;}.cls-33{stroke-width:0.41px;}.cls-34{stroke-width:0.38px;}</style></defs><title>Asset 18</title><g id="Layer_2" data-name="Layer 2"><g id="Glavno_Besedilo" data-name="Glavno Besedilo"><path class="cls-1" d="M51.52,101.21s10.74-.79,11.23-13.7H89.11s1.08,16.86,13.66,13.7l-1.14,9.69L76,121.13l-22.31-6L48.2,104.32Z"/><path class="cls-2" d="M154.49,246.49,121,245V137.22s7.74-44.66,19.65-20.42Q150.52,184.59,154.49,246.49Z"/><path class="cls-3" d="M43.44,41.12s-7.89-2.21-5.6,9.61a95.29,95.29,0,0,0,5.6,19.15Z"/><path class="cls-3" d="M72.64,8.42h6.64a30.52,30.52,0,0,1,30.52,30.52V63A33.84,33.84,0,0,1,76,96.8h0A33.84,33.84,0,0,1,42.12,63v-24A30.52,30.52,0,0,1,72.64,8.42Z"/><path class="cls-4" d="M68.64,46.67c.06-5.21-16.11-5.4-16.17-.2C52.41,51.17,68.58,51.37,68.64,46.67Z"/><path class="cls-4" d="M101.14,46.67c.06-5.21-16.11-5.4-16.17-.2C84.91,51.17,101.08,51.37,101.14,46.67Z"/><circle class="cls-5" cx="60.05" cy="46.38" r="2.68"/><circle class="cls-5" cx="93.05" cy="46.38" r="2.68"/><path class="cls-6" d="M51.47,46.78s6.86-6.91,19,0C70.49,46.78,59.92,35.09,51.47,46.78Z"/><path class="cls-6" d="M83.84,46.78s6.87-6.91,19,0C102.86,46.78,92.29,35.09,83.84,46.78Z"/><path class="cls-7" d="M73.1,65.09s5.5,2.78,7.31.4c.78-1-3.43-21.54-2.06-21.11"/><path class="cls-8" d="M53.15,40.2s5.72-6.27,18.13,0"/><path class="cls-8" d="M84.73,41s5.72-6.27,18.13,0"/><path class="cls-9" d="M89.78,72.37a14.16,14.16,0,0,1-5,7.49c-1-4.71-18.3-2.88-18.36-2.87a18.43,18.43,0,0,1-2.65-4.62Z"/><path class="cls-10" d="M84.73,79.86h0a13.17,13.17,0,0,1-7.17,2.48A12.93,12.93,0,0,1,66.37,77C66.43,77,83.78,75.15,84.73,79.86Z"/><polygon class="cls-9" points="66.37 76.98 66.37 76.98 66.37 76.98 66.37 76.98"/><path class="cls-3" d="M109.19,42.09s7.36-2.06,5.22,9a89.23,89.23,0,0,1-5.22,17.85Z"/><polygon class="cls-4" points="63.72 72.37 64.46 74.01 89.22 74.01 89.78 72.37 63.72 72.37"/><path class="cls-11" d="M71.72,47.16s7.09-5.36,11.79,0"/><line class="cls-11" x1="44.05" y1="42.48" x2="51.43" y2="46.38"/><line class="cls-11" x1="111.19" y1="42.32" x2="103.8" y2="46.77"/><circle class="cls-12" cx="61.58" cy="47.16" r="10.14"/><circle class="cls-12" cx="93.66" cy="47.16" r="10.14"/><path class="cls-13" d="M47.35,49.05s-2.3-16.85,5.13-23.49A10.61,10.61,0,0,1,54.76,24a9.18,9.18,0,0,1,1.5-.53c2.77-.77,5.94-.38,8.8-.2l2.15.22C80.47,25,87.3,27.45,87.3,27.45s4-3.81-2.57-5.92,10.63-.27,15.12,9.11a63.68,63.68,0,0,1,5.49,18.41l3.85,1s10.22-26.48-1.94-35.58C100.59,9.52,92.34,3.22,84.18,1,83.36.73,82.55.55,81.73.4A20.06,20.06,0,0,0,79.55.09,19.86,19.86,0,0,0,77.37,0,18.64,18.64,0,0,0,72.93.4c-.75.17-1.49.38-2.21.62s-1.42.52-2.11.82c-6.8,3.44-12.75,9-20.24,10.81-.72.22-1.42.45-2.1.72C42.88,14.7,40.19,16.75,40,21a19.56,19.56,0,0,0-.42,2,17.27,17.27,0,0,0-.15,4.06c0,.5.05,1,.05,1.52C39.41,34.26,41.17,41.28,47.35,49.05Z"/><path class="cls-2" d="M0,246.49,33.5,245V137.22S25.76,92.56,13.85,116.8Q4,184.59,0,246.49Z"/><path class="cls-14" d="M114,101.21H102.87c-3.66,9.48-13.75,16.29-25.62,16.29s-22-6.81-25.63-16.29H40.48C27,101.21,5.11,115.05,13.94,116c3.72.42,8.32,5.68,12.61,18.9V253.67H127.94V134.94c4.29-13.22,8.89-18.48,12.61-18.9C149.38,115.05,127.51,101.21,114,101.21Z"/><line class="cls-15" x1="77.25" y1="253.67" x2="77.25" y2="117.5"/><rect class="cls-16" x="26.55" y="253.67" width="101.3" height="34.21"/><polygon class="cls-16" points="77.25 287.88 60.49 443.89 41.34 443.89 26.55 287.88 77.25 287.88"/><polygon class="cls-16" points="127.85 287.88 111.19 443.89 92.14 443.89 77.42 287.88 127.85 287.88"/><path class="cls-3" d="M9.85,246S6.05,276,26.55,279V245.31Z"/><path class="cls-3" d="M144.56,246.08S148.35,276,127.85,279V245.35Z"/><path class="cls-17" d="M92.14,443.89v14.8h49.51s6.53-14.83-23.34-12.06c0,0-7.28-1.29-6.37-9.77"/><path class="cls-17" d="M60.42,443.89v14.8H10.91s-6.53-14.83,23.34-12.06c0,0,7.28-1.29,6.37-9.77"/><circle class="cls-18" cx="85.74" cy="142.57" r="2.56"/><circle class="cls-18" cx="69.01" cy="142.57" r="2.56"/><circle class="cls-18" cx="85.74" cy="161.83" r="2.56"/><circle class="cls-18" cx="69.01" cy="161.83" r="2.56"/><circle class="cls-18" cx="85.74" cy="181.09" r="2.56"/><circle class="cls-18" cx="69.01" cy="181.09" r="2.56"/><circle class="cls-18" cx="85.74" cy="200.35" r="2.56"/><circle class="cls-18" cx="69.01" cy="200.35" r="2.56"/><circle class="cls-18" cx="85.74" cy="219.61" r="2.56"/><circle class="cls-18" cx="69.01" cy="219.61" r="2.56"/><path class="cls-1" d="M309.05,105.62s10.74-.8,11.23-13.71h26.36s1.08,16.86,13.66,13.71l-1.14,9.69-25.69,10.23-22.3-6-5.44-10.83Z"/><path class="cls-3" d="M267.37,250.44s-3.79,29.92,16.71,32.92V249.71Z"/><path class="cls-3" d="M402.09,250.48s3.79,29.92-16.71,32.92V249.75Z"/><path class="cls-2" d="M412,250.89l-33.5-1.46V141.62S386.26,97,398.17,121.2Q408.05,189,412,250.89Z"/><path class="cls-2" d="M257.53,250.89l33.5-1.46V141.62S283.29,97,271.38,121.2Q261.5,189,257.53,250.89Z"/><path class="cls-19" d="M371.54,105.62H360.4c-3.66,9.47-13.75,16.28-25.63,16.28s-22-6.81-25.62-16.28H298c-13.5,0-35.37,13.83-26.54,14.83,3.72.42,8.32,5.68,12.61,18.9V258.08H385.47V139.35c4.29-13.22,8.89-18.48,12.61-18.9C406.91,119.45,385,105.62,371.54,105.62Z"/><line class="cls-20" x1="334.77" y1="258.08" x2="334.77" y2="121.9"/><rect class="cls-21" x="284.08" y="258.08" width="101.3" height="34.21"/><polygon class="cls-21" points="334.78 292.29 318.02 448.29 298.87 448.29 284.08 292.29 334.78 292.29"/><polygon class="cls-21" points="385.38 292.29 368.72 448.29 349.67 448.29 334.95 292.29 385.38 292.29"/><path class="cls-17" d="M349.67,448.29v14.8h49.51s6.53-14.83-23.34-12.06c0,0-7.28-1.28-6.37-9.76"/><path class="cls-17" d="M318,448.29v14.8H268.44s-6.53-14.83,23.34-12.06c0,0,7.28-1.28,6.37-9.76"/><circle class="cls-22" cx="343.27" cy="146.97" r="2.56"/><circle class="cls-22" cx="326.54" cy="146.97" r="2.56"/><circle class="cls-22" cx="343.27" cy="166.23" r="2.56"/><circle class="cls-22" cx="326.54" cy="166.23" r="2.56"/><circle class="cls-22" cx="343.27" cy="185.49" r="2.56"/><circle class="cls-22" cx="326.54" cy="185.49" r="2.56"/><circle class="cls-22" cx="343.27" cy="204.76" r="2.56"/><circle class="cls-22" cx="326.54" cy="204.76" r="2.56"/><circle class="cls-22" cx="343.27" cy="224.02" r="2.56"/><circle class="cls-22" cx="326.54" cy="224.02" r="2.56"/><path class="cls-3" d="M331.74,15.57h6.4A29.46,29.46,0,0,1,367.6,45v23.2a32.66,32.66,0,0,1-32.66,32.66h0a32.66,32.66,0,0,1-32.66-32.66V45a29.46,29.46,0,0,1,29.46-29.46Z"/><path class="cls-4" d="M327.11,53.26c.07-5-15.54-5.21-15.6-.19C311.45,57.61,327.06,57.8,327.11,53.26Z"/><path class="cls-4" d="M358.49,53.26c.06-5-15.55-5.21-15.61-.19C342.82,57.61,358.43,57.8,358.49,53.26Z"/><circle class="cls-5" cx="318.83" cy="52.98" r="2.58"/><circle class="cls-5" cx="350.68" cy="52.98" r="2.58"/><path class="cls-6" d="M310.54,53.36s6.63-6.66,18.36,0C328.9,53.36,318.7,42.08,310.54,53.36Z"/><path class="cls-6" d="M341.79,53.36s6.63-6.66,18.36,0C360.15,53.36,350,42.08,341.79,53.36Z"/><path class="cls-23" d="M331.42,71.05s5.31,2.68,7.06.38c.75-1-3.31-20.79-2-20.37"/><path class="cls-24" d="M312.16,47s5.52-6.05,17.51,0"/><path class="cls-24" d="M342.65,47.75s5.52-6,17.5,0"/><path class="cls-9" d="M347.52,81a9.72,9.72,0,0,1-4.87,5c-.92-3.16-17.67-1.93-17.73-1.92a11.9,11.9,0,0,1-2.56-3.1Z"/><path class="cls-10" d="M342.65,86h0a16.5,16.5,0,0,1-6.93,1.66,14.88,14.88,0,0,1-10.8-3.58C325,84.11,341.73,82.88,342.65,86Z"/><polygon class="cls-9" points="324.92 84.11 324.92 84.11 324.92 84.11 324.92 84.11"/><path class="cls-3" d="M302.8,48.84s-7.11-2-5,8.65a85.83,85.83,0,0,0,5,17.23Z"/><path class="cls-3" d="M366.26,48.84s7.1-2,5,8.65a85.48,85.48,0,0,1-5,17.23Z"/><rect class="cls-25" x="340.89" y="47.02" width="19.59" height="11.93" rx="5.59"/><rect class="cls-25" x="309.93" y="47.02" width="19.59" height="11.93" rx="5.59"/><path class="cls-25" d="M329.51,53.36s6.84-5.17,11.38,0"/><line class="cls-25" x1="302.8" y1="48.84" x2="309.93" y2="52.6"/><line class="cls-25" x1="367.6" y1="48.69" x2="360.48" y2="52.98"/><path class="cls-26" d="M335.19,75.09a11.74,11.74,0,0,0-12.55-.28c-6.86,4-7.92-1.06-7.92-1.06s2.54,10.73,20.12,4.52h.7c17.58,6.21,20.12-4.52,20.12-4.52s-1.06,5-7.92,1.06a11.75,11.75,0,0,0-12.55.29"/><path class="cls-3" d="M154.59,259s-3.68,29.06,16.23,32V258.24Z"/><path class="cls-3" d="M263.85,262.2s3.69,29.05-16.22,32V261.49Z"/><path class="cls-1" d="M188.13,146.83s9-.76,9.42-13.08h22.12s.91,16.09,11.46,13.08l-1,9.25-21.55,9.76-18.71-5.71-4.56-10.33Z"/><path class="cls-2" d="M144.94,270.15l32.54-1.25V176.71S170,138.52,158.4,159.25Q148.8,217.23,144.94,270.15Z"/><path class="cls-2" d="M275.51,270.15,243,268.9V176.71s7.52-38.19,19.08-17.46Q271.66,217.23,275.51,270.15Z"/><polygon class="cls-27" points="214.83 314.29 201.27 440.58 185.76 440.58 173.79 314.29 214.83 314.29"/><polygon class="cls-27" points="251.36 314.29 237.87 440.58 222.45 440.58 210.53 314.29 251.36 314.29"/><path class="cls-28" d="M246.53,273.08a299.42,299.42,0,0,1-.85-52.82c6.3-11,6.48-35.27,6.47-39.08,3.5-13.28,7.23-18.61,10.26-19.05,7.42-1.07-11-15.92-22.29-15.92h-9.35c-3.08,10.17-11.55,17.49-21.52,17.49s-18.45-7.32-21.52-17.49h-9.36c-11.33,0-29.7,14.85-22.28,15.92,3,.43,6.65,5.63,10.12,18.53,0,0-.4,28.05,6.63,39.89a300.13,300.13,0,0,1-.87,52.54L146.85,419.18s13.22,17.44,51.68,0c0,0,26.12,13,49.1,0,0,0,19.15,10.4,28.25,0Z"/><path class="cls-27" d="M185.76,440.58s-11.47,9.05-20,8.88l35.55.25v-9.13Z"/><path class="cls-29" d="M201.28,440.58v12.78h-9.39v-3.64s-20.72,7.61-29.8,5.81c0,0-10.37-1.39,5.54-7.13,11.91-4.29,14.31-5.19,14.31-5.19"/><path class="cls-27" d="M238,440.58s11.47,9.05,20,8.88l-35.55.25v-9.13Z"/><path class="cls-29" d="M222.44,440.58v12.78h9.39v-3.64s20.72,7.61,29.8,5.81c0,0,10.37-1.39-5.54-7.13-11.91-4.29-14.31-5.19-14.31-5.19"/><path class="cls-30" d="M172,250.71c.09-7.59,38.41,30.35,74.56,0"/><path class="cls-3" d="M205.8,58.68h6.93a25,25,0,0,1,25,25v28.53A27.69,27.69,0,0,1,210,139.89h-1.5a27.69,27.69,0,0,1-27.69-27.69V83.66A25,25,0,0,1,205.8,58.68Z"/><path class="cls-4" d="M201.41,96.52c.06-5-15.61-5.24-15.67-.19C185.68,100.88,201.35,101.07,201.41,96.52Z"/><path class="cls-4" d="M232.91,96.52c.06-5-15.61-5.24-15.67-.19C217.18,100.88,232.85,101.07,232.91,96.52Z"/><circle class="cls-5" cx="193.09" cy="96.24" r="2.59"/><circle class="cls-5" cx="225.07" cy="96.24" r="2.59"/><path class="cls-31" d="M184.76,96.62s6.66-6.69,18.44,0C203.2,96.62,193,85.29,184.76,96.62Z"/><path class="cls-31" d="M216.14,96.62s6.66-6.69,18.44,0C234.58,96.62,224.34,85.29,216.14,96.62Z"/><path class="cls-7" d="M205.14,112.14s6.22,2.4,8.26.35c.88-.89-3.88-18.56-2.32-18.19"/><path class="cls-7" d="M186.4,90.25s5.54-6.08,17.57,0"/><path class="cls-7" d="M217,91s5.54-6.07,17.57,0"/><path class="cls-9" d="M221.9,121.51a9.8,9.8,0,0,1-4.89,5c-.93-3.17-17.75-1.94-17.8-1.93a11.77,11.77,0,0,1-2.57-3.11Z"/><path class="cls-10" d="M217,126.55h0a16.52,16.52,0,0,1-6.95,1.66,14.89,14.89,0,0,1-10.84-3.59S216.08,123.38,217,126.55Z"/><polygon class="cls-9" points="199.21 124.62 199.21 124.62 199.21 124.62 199.21 124.62"/><path class="cls-3" d="M237.23,92.08s7.13-2,5.06,8.69a86.42,86.42,0,0,1-5.06,17.3Z"/><path class="cls-32" d="M209.25,67.53h0Z"/><line class="cls-32" x1="209.27" y1="67.53" x2="209.27" y2="67.53"/><path class="cls-33" d="M203.23,98.83s6.86-5.19,11.42,0"/><line class="cls-33" x1="180.56" y1="95.19" x2="183.56" y2="98.07"/><line class="cls-33" x1="237.89" y1="94.07" x2="234.31" y2="98.45"/><circle class="cls-34" cx="193.39" cy="98.83" r="9.83"/><circle class="cls-34" cx="224.48" cy="98.83" r="9.83"/><path class="cls-26" d="M244.71,155.06s-3.55-.77-6.09-8.78a77.89,77.89,0,0,0-14.84-10.1c3.49-2,6.64-5.86,9.11-9.55.42-.61.81-1.22,1.18-1.82a6.05,6.05,0,0,1,1.4-2.55c1.42-1.91.11-3.88.82-5.66.06-2,.18-4,.32-6,.57-8,1.25-15.9-1.51-23.15-.23-.6-.47-1.17-.73-1.71a16.93,16.93,0,0,0-3.73-5.22,15.44,15.44,0,0,0-1.42-1.19c-3.49-3-8.09-3-12.73-2.72-1,.11-1.88.26-2.72.42-2.5.5-4.25,1.14-4.54,1.16h0c-.19,0-1.06-.31-2.38-.66a35.18,35.18,0,0,0-5.07-1,20.8,20.8,0,0,0-6.45.22,17,17,0,0,0-3.32,1,14.41,14.41,0,0,0-3.15,1.83,43.32,43.32,0,0,0-3.8,4.3l-1,2.11a26.26,26.26,0,0,0-2.14,5.74c-.19.79-.35,1.58-.47,2.38a35.51,35.51,0,0,0-.36,7.38c0,.83.11,1.67.2,2.51s-.05,1.46,0,2.18c-.18,6.84-1.49,14.72,4.2,19.46.59.8,1.19,1.59,1.79,2.35,3,3.84,5.84,7.09,5.84,7.09-1.82-1.18-4-.51-6.11,1.17a20.31,20.31,0,0,0-2.18,2,14.31,14.31,0,0,0-5.55,9.72c-.24.63-.49,1.21-.74,1.74-2.28,4.74-4.72,5.27-4.72,5.27s-.16-.93-.4-2.62c-.12-.84-.26-1.87-.48-3.05-4.31-7.37-3-15.25-.41-23.31.14-1,.26-2,.33-2.94a27,27,0,0,0,.06-3c-.08-.8-.17-1.59-.25-2.39-.43-4-.77-7.91.53-11.84.36-1,.69-2,1-2.91s.54-1.79.72-2.53.37-1.22.54-1.85.31-1.26.42-1.92a3.49,3.49,0,0,0,0-2.3c-.16-.86-.28-1.72-.36-2.57s-.12-1.7-.12-2.54a12.86,12.86,0,0,1-.23-2.8,14,14,0,0,1,.36-2.67c.21-.85.46-1.69.74-2.51s.58-1.64.92-2.44.67-1.54,1-2.29.73-1.52,1.12-2.32.66-1.81,1-2.71.8-1.8,1.25-2.67c.26-.7.54-1.36.84-2s.64-1.24,1-1.81c4.44-8.18,13.39-12.18,22.46-12.47,1,0,2,0,3,0A25.45,25.45,0,0,1,222.76,55q1.32.6,2.58,1.32c6.3,4.9,12.21,10.15,16.24,17.28a12.51,12.51,0,0,1,.17,2.62,17.55,17.55,0,0,1,.7,2.58,12.77,12.77,0,0,1,.22,2.71,14.05,14.05,0,0,1-.28,2.44c.48,6.31,1.27,12.58,1.86,18.82.08.89.16,1.79.23,2.68,1.6,7.64,4.23,15.52,1.34,24.23-.17.85-.38,1.69-.62,2.52s-.5,1.66-.79,2.47q-.07,1.29-.12,2.58a58.12,58.12,0,0,0,.21,7.7,10.83,10.83,0,0,0,1,2.36,14.68,14.68,0,0,1-.17,3.14C245,153.4,244.71,155.06,244.71,155.06Z"/></g></g></svg>