<svg xmlns="http://www.w3.org/2000/svg" viewBox="0 0 409.15 497.74"><defs><style>.cls-1{fill:#dce6e0;}.cls-2{fill:#fbc5aa;}.cls-13,.cls-14,.cls-21,.cls-22,.cls-3{fill:#eed1bf;}.cls-4{fill:#d8dcec;}.cls-5{fill:#0054a6;}.cls-6{fill:#00a881;stroke:#003d7b;stroke-width:0.69px;}.cls-13,.cls-14,.cls-17,.cls-21,.cls-22,.cls-27,.cls-31,.cls-6{stroke-miterlimit:10;}.cls-7{fill:#7bafde;}.cls-8{fill:#44515c;}.cls-9{fill:#003d7b;}.cls-10{fill:#fff;}.cls-11{fill:#514835;}.cls-12{fill:#ebae8a;}.cls-13,.cls-14,.cls-21,.cls-22{stroke:#ebae8a;}.cls-13{stroke-width:0.81px;}.cls-14{stroke-width:0.41px;}.cls-15{fill:#5a3b34;}.cls-16{fill:#d55225;}.cls-17,.cls-27,.cls-31{fill:none;}.cls-17,.cls-31{stroke:#231f20;}.cls-17{stroke-width:0.43px;}.cls-18{fill:#007dac;}.cls-19{fill:#004e7c;}.cls-20{fill:#df584f;}.cls-21{stroke-width:0.86px;}.cls-22{stroke-width:0.39px;}.cls-23{fill:#c26b9b;}.cls-24{fill:#231f20;}.cls-25{fill:#ffcf01;}.cls-26{fill:#074368;}.cls-27{stroke:#c1c0db;stroke-width:0.73px;}.cls-28{fill:#cabcdc;}.cls-29{fill:#ebaf89;}.cls-30{fill:#863d11;}.cls-31{stroke-width:0.45px;}.cls-32{fill:#c4463a;}.cls-33{fill:#200600;}.cls-34{fill:#d55227;}.cls-35{fill:#f26524;}</style></defs><title>Asset 1</title><g id="Layer_2" data-name="Layer 2"><g id="Glavno_Besedilo" data-name="Glavno Besedilo"><ellipse class="cls-1" cx="204.57" cy="484.06" rx="204.57" ry="13.68"/><path class="cls-2" d="M296.44,106s11.38-.85,11.9-14.53h28s1.15,17.87,14.47,14.53l-1.2,10.27-27.23,10.84-23.64-6.34-5.77-11.48Z"/><path class="cls-3" d="M252.26,259.49s-4,31.72,17.71,34.9V258.72Z"/><path class="cls-3" d="M395.07,259.53s4,31.72-17.71,34.9V258.76Z"/><path class="cls-4" d="M405.6,260l-35.52-1.55V144.14s8.21-47.35,20.83-21.65Q401.4,194.36,405.6,260Z"/><path class="cls-4" d="M241.83,260l35.51-1.55V144.14s-8.21-47.35-20.83-21.65Q246,194.36,241.83,260Z"/><path class="cls-5" d="M362.69,106H350.87c-3.87,10-14.57,17.26-27.16,17.26S300.43,116,296.55,106H284.74c-14.31,0-37.5,14.66-28.13,15.72,3.94.44,8.81,6,13.36,20V267.59H377.45V141.72c4.55-14,9.42-19.59,13.37-20C400.18,120.63,377,106,362.69,106Z"/><line class="cls-6" x1="323.71" y1="267.59" x2="323.71" y2="123.23"/><rect class="cls-7" x="269.97" y="267.59" width="107.39" height="36.26"/><polygon class="cls-7" points="323.71 303.85 305.95 469.23 285.65 469.23 269.97 303.85 323.71 303.85"/><polygon class="cls-7" points="377.36 303.85 359.69 469.23 339.5 469.23 323.9 303.85 377.36 303.85"/><path class="cls-8" d="M339.5,469.23v15.68H392s6.93-15.72-24.74-12.78c0,0-7.71-1.36-6.75-10.35"/><path class="cls-8" d="M305.88,469.23v15.68H253.39s-6.92-15.72,24.74-12.78c0,0,7.72-1.36,6.76-10.35"/><circle class="cls-9" cx="332.72" cy="149.81" r="2.71"/><circle class="cls-9" cx="314.98" cy="149.81" r="2.71"/><circle class="cls-9" cx="332.72" cy="170.23" r="2.71"/><circle class="cls-9" cx="314.98" cy="170.23" r="2.71"/><circle class="cls-9" cx="332.72" cy="190.64" r="2.71"/><circle class="cls-9" cx="314.98" cy="190.64" r="2.71"/><circle class="cls-9" cx="332.72" cy="211.06" r="2.71"/><circle class="cls-9" cx="314.98" cy="211.06" r="2.71"/><circle class="cls-9" cx="332.72" cy="231.48" r="2.71"/><circle class="cls-9" cx="314.98" cy="231.48" r="2.71"/><path class="cls-3" d="M320.49,10.52h6.79a31.23,31.23,0,0,1,31.23,31.23V66.34A34.62,34.62,0,0,1,323.89,101h0a34.62,34.62,0,0,1-34.62-34.62V41.75A31.23,31.23,0,0,1,320.49,10.52Z"/><path class="cls-10" d="M315.59,50.47c.07-5.33-16.48-5.53-16.55-.21C299,55.07,315.53,55.27,315.59,50.47Z"/><path class="cls-10" d="M348.85,50.47c.06-5.33-16.48-5.53-16.55-.21C332.24,55.07,348.79,55.27,348.85,50.47Z"/><circle class="cls-11" cx="306.8" cy="50.17" r="2.74"/><circle class="cls-11" cx="340.57" cy="50.17" r="2.74"/><path class="cls-12" d="M298,50.58s7-7.06,19.46,0C317.48,50.58,306.67,38.62,298,50.58Z"/><path class="cls-12" d="M331.14,50.58s7-7.06,19.47,0C350.61,50.58,339.8,38.62,331.14,50.58Z"/><path class="cls-13" d="M320.16,69.32s5.63,2.85,7.48.41c.79-1-3.51-22-2.11-21.6"/><path class="cls-14" d="M299.74,43.85s5.85-6.41,18.55,0"/><path class="cls-14" d="M332.06,44.62s5.85-6.41,18.55,0"/><path class="cls-15" d="M337.22,79.9a10.35,10.35,0,0,1-5.16,5.32c-1-3.35-18.73-2-18.8-2a12.49,12.49,0,0,1-2.7-3.28Z"/><path class="cls-16" d="M332.06,85.22h0A17.52,17.52,0,0,1,324.72,87a15.78,15.78,0,0,1-11.46-3.79C313.33,83.17,331.08,81.87,332.06,85.22Z"/><polygon class="cls-15" points="313.26 83.18 313.27 83.18 313.27 83.17 313.26 83.18"/><path class="cls-3" d="M289.81,45.78s-7.53-2.11-5.34,9.17a91.68,91.68,0,0,0,5.34,18.27Z"/><path class="cls-3" d="M357.09,45.78s7.53-2.11,5.33,9.17a91.32,91.32,0,0,1-5.33,18.27Z"/><path class="cls-14" d="M318.9,96s5.48-5.48,11.09-.27"/><rect class="cls-17" x="330.19" y="43.85" width="20.76" height="12.65" rx="5.92"/><rect class="cls-17" x="297.37" y="43.85" width="20.76" height="12.65" rx="5.92"/><path class="cls-17" d="M318.13,50.57s7.25-5.48,12.06,0"/><line class="cls-17" x1="289.81" y1="45.78" x2="297.37" y2="49.77"/><line class="cls-17" x1="358.51" y1="45.62" x2="350.96" y2="50.17"/><path class="cls-3" d="M146.54,300.16s-4.32,34.08,19,37.5V299.33Z"/><path class="cls-3" d="M263.88,301.1s4.32,34.08-19,37.5V300.27Z"/><path class="cls-2" d="M181.38,180.13s9.91-.73,10.36-12.64h24.32s1,15.55,12.6,12.64l-1,8.94-23.7,9.44L183.34,193l-5-10Z"/><path class="cls-18" d="M271.83,302.51l-34.06-.39V212s8.8-37.32,22.31-17.07C267.57,232.72,268.78,268,271.83,302.51Z"/><path class="cls-18" d="M140,302.51l31.77-.39V212.18s-8.8-37.26-22.31-17C142,232.85,143.06,268.05,140,302.51Z"/><path class="cls-19" d="M235.54,179.83h-9.4c-3.09,8.28-11.6,14.24-21.63,14.24s-18.54-6-21.63-14.24h-9.4c-11.4,0-29.86,12.09-22.4,13,3.14.37,7,5,10.64,16.52V324H247.3V209.31c3.62-11.55,7.5-16.15,10.64-16.52C265.39,191.92,246.93,179.83,235.54,179.83Z"/><rect class="cls-20" x="161.58" y="323.96" width="86.19" height="21.54"/><polygon class="cls-20" points="204.72 345.5 189.12 474.23 174.17 470.09 161.58 345.5 204.72 345.5"/><polygon class="cls-20" points="247.78 345.5 233.6 470.09 218.07 473.68 204.87 345.5 247.78 345.5"/><path class="cls-8" d="M173.86,468.23c.72,6.72-5.05,7.74-5.05,7.74-23.66-2.2-18.49,9.55-18.49,9.55h22.61l16.26-.11V473.68Z"/><path class="cls-8" d="M233.93,467.92c-.75,6.95,5.22,8,5.22,8,24.5-2.28,19.14,9.89,19.14,9.89H218.08V473.68Z"/><path class="cls-3" d="M201.15,86.49h6.49a29.84,29.84,0,0,1,29.84,29.84v23.49a33.08,33.08,0,0,1-33.08,33.08h0a33.08,33.08,0,0,1-33.08-33.08V116.33a29.84,29.84,0,0,1,29.84-29.84Z"/><path class="cls-21" d="M200.77,145.89s6,3,7.93.44c.85-1.12-3.72-23.37-2.23-22.9"/><path class="cls-22" d="M181.26,119.33s5.59-6.12,17.73,0"/><path class="cls-22" d="M212.14,120.08s5.59-6.13,17.73,0"/><path class="cls-3" d="M171.78,121.18s-7.2-2-5.1,8.76a86.75,86.75,0,0,0,5.1,17.46Z"/><path class="cls-3" d="M236.06,121.18s7.19-2,5.1,8.76a87.56,87.56,0,0,1-5.1,17.46Z"/><path class="cls-12" d="M196,155.13a40.44,40.44,0,0,0,5.27,2.14,21,21,0,0,0,5.36,1c.44,0,.88,0,1.33,0l1.31-.16a11.57,11.57,0,0,0,1.3-.28l.65-.16.62-.25a20.94,20.94,0,0,0,4.85-2.75l.28.25a11.54,11.54,0,0,1-4.37,4.17,11.29,11.29,0,0,1-6.06,1.36,15.54,15.54,0,0,1-5.92-1.54,16,16,0,0,1-4.85-3.48Z"/><path class="cls-10" d="M227.76,126.9c.06-5.27-15-5.47-15.08-.2C212.63,131.46,227.71,131.66,227.76,126.9Z"/><ellipse class="cls-11" cx="220.22" cy="126.61" rx="2.49" ry="2.71"/><path class="cls-12" d="M211.27,126.5s6.72-6.75,18.6,0C229.87,126.5,219.54,115.07,211.27,126.5Z"/><path class="cls-10" d="M197.76,126.9c.06-5.27-15-5.47-15.08-.2C182.63,131.46,197.71,131.66,197.76,126.9Z"/><ellipse class="cls-11" cx="190.22" cy="126.61" rx="2.49" ry="2.71"/><path class="cls-12" d="M181.27,126.5s6.72-6.75,18.6,0C199.87,126.5,189.54,115.07,181.27,126.5Z"/><rect class="cls-23" x="173.76" y="205.42" width="33.38" height="59.48" rx="14.47"/><rect class="cls-23" x="213.23" y="262.75" width="22.82" height="40.67" rx="9.89"/><path class="cls-24" d="M203.49,101.46s4.65,9.23,28.33,28.18c4.82,3.37.32,38-14.74,41.74l24.46,8.91s15.36-37.69-9.22-84.06a33.6,33.6,0,0,0-27.93-13.71s-31.08-1-35.35,24.93L168,121S192.61,116.17,203.49,101.46Z"/><path class="cls-24" d="M169.61,104.74S149,168.92,185,177.75"/><rect class="cls-25" x="165.56" y="118.71" width="7.55" height="2.32"/><path id="Koza" class="cls-3" d="M29.26,230.09S25,263.37,47.84,266.71V229.28Z"/><path id="Koza-2" data-name="Koza" class="cls-3" d="M154.37,233.81s4.22,33.27-18.58,36.61V233Z"/><path id="Vrat" class="cls-2" d="M117.75,106.49c-3.66,9.19-13.21,15.76-24.44,15.76-11,0-20.44-6.34-24.24-15.29,2.83-.82,9-3.84,9.39-14.69h25.32S106.1,109.33,117.75,106.49Z"/><path class="cls-4" d="M18.21,242.92l37.25-1.43v-100s-8.61-43.73-21.84-20C26.28,165.72,21.19,202.47,18.21,242.92Z"/><path class="cls-4" d="M167.72,242.92l-37.25-1.43v-100s8.61-43.73,21.84-20C159.64,165.72,164.73,202.47,167.72,242.92Z"/><path id="Koza-3" data-name="Koza" class="cls-3" d="M82.72,466.19l-22,3c2.59-1.68,4.25-3,4.25-3Z"/><path id="Koza-4" data-name="Koza" class="cls-3" d="M130.58,469.18l-22-3h17.77S128,467.5,130.58,469.18Z"/><path id="cevlje" class="cls-26" d="M82.72,466.19v14.62H72v-4.17s-23.71,8.72-34.12,6.66c0,0-11.87-1.6,6.35-8.17,13.64-4.91,16.38-5.93,16.38-5.93l.12,0h0Z"/><path id="cevlje-2" data-name="cevlje" class="cls-26" d="M153.44,483.3c-10.4,2.06-34.12-6.66-34.12-6.66v4.17H108.56V466.19l22,3h0l.12,0s2.75,1,16.38,5.93C165.31,481.7,153.44,483.3,153.44,483.3Z"/><path class="cls-27" d="M49.16,220.65c.1-8.68,44,34.76,85.37,0"/><path id="Koza-5" data-name="Koza" class="cls-3" d="M88.62,7.62H94.5a27,27,0,0,1,27,27V70.58a30,30,0,0,1-30,30h0a30,30,0,0,1-30-30V34.67A27,27,0,0,1,88.62,7.62Z"/><path class="cls-10" d="M83.28,50.93c.06-5.78-16.46-6-16.52-.22C66.7,55.92,83.22,56.14,83.28,50.93Z"/><path class="cls-10" d="M116.48,50.93c.07-5.78-16.45-6-16.52-.22C99.9,55.92,116.43,56.14,116.48,50.93Z"/><ellipse class="cls-11" cx="74.51" cy="50.61" rx="2.73" ry="2.97"/><ellipse class="cls-11" cx="108.22" cy="50.61" rx="2.73" ry="2.97"/><path id="Oci" class="cls-28" d="M65.73,51.05s7-7.66,19.44,0C85.17,51.05,74.37,38.08,65.73,51.05Z"/><path id="Oci-2" data-name="Oci" class="cls-28" d="M98.81,51.05s7-7.66,19.44,0C118.25,51.05,107.45,38.08,98.81,51.05Z"/><g id="Nos"><path class="cls-29" d="M93.08,70.58a18.51,18.51,0,0,1-6-1.37l.33-.8c1.75.73,6.63,2.25,8.23.51.23-.6-.65-5.42-1.36-9.29C92.73,51.39,92.37,48.72,93,48.12a.6.6,0,0,1,.56-.14l-.22.83a.26.26,0,0,0,.27-.1c-.38.73.68,6.53,1.46,10.76,1.33,7.29,1.64,9.49,1.15,10A4.2,4.2,0,0,1,93.08,70.58Z"/></g><path id="Obrve" class="cls-30" d="M85.68,44.3c-12.1-6.63-17.69-.21-17.75-.15l-1-.8c.25-.3,6.31-7.26,19.3-.14Z"/><path id="Obrve-2" data-name="Obrve" class="cls-30" d="M118,45.14c-12.1-6.63-17.7-.21-17.75-.14l-1-.81c.25-.3,6.32-7.26,19.31-.14Z"/><g id="ocala"><rect class="cls-31" x="98.37" y="44.59" width="20.73" height="13.71" rx="6.16"/><rect class="cls-31" x="65.6" y="44.59" width="20.73" height="13.71" rx="6.16"/><path class="cls-31" d="M86.33,51.89s7.24-6,12,0"/><line class="cls-31" x1="61.58" y1="46.69" x2="65.6" y2="51.02"/><line class="cls-31" x1="121.55" y1="46.14" x2="119.1" y2="51.45"/></g><path id="Lasje" class="cls-30" d="M68.85,35.05c3.73-5.73,8.52-10.28,14.88-12.3a18,18,0,0,1,3-.65A16.36,16.36,0,0,1,89.76,22a34.06,34.06,0,0,1,4.28.13,35,35,0,0,1,4.28.7A18.94,18.94,0,0,1,102,23.91c10.13,3.46,13.72,15.16,15.31,25.31.22,1.33.38,2.63.49,3.9.31,1,.59,2,.86,3s.52,2,.75,3c.46,2,.83,4.09,1.14,6.2.3,1.54.54,3.07.71,4.59s.27,3,.32,4.56c1.22,8.45-.4,16.8,1.22,25.15,8.1-3.51,11.34-13.62,11.1-22.51.11-1.86.18-3.74.25-5.56.17-2.28.26-4.56.32-6.78s.11-4.59.1-6.88c0-6.86-.45-13.65-.45-19.68q-.44-3.51-1.12-7t-1.67-6.86A38.58,38.58,0,0,0,128,19.05a39.5,39.5,0,0,0-3.95-4.66A48.37,48.37,0,0,0,101.27,1.62,50,50,0,0,0,94.84.51,33.44,33.44,0,0,0,81.15.94,35,35,0,0,0,70,5.72a38.55,38.55,0,0,0-4.83,3.72,37.06,37.06,0,0,0-4.32,5,48.51,48.51,0,0,0-3.14,5.46c-.47.94-.9,1.89-1.31,2.86s-.79,1.94-1.14,2.93C54,31.92,51.63,37.77,51.52,44.24c-.14,1.57-.25,3.15-.31,4.73a121.24,121.24,0,0,0,1.51,23.62c.45,3.53,1,6.84,1.48,9.82,1.53,8.94,3.1,14.93,3.1,14.93a12.48,12.48,0,0,0,5.5,0,7.15,7.15,0,0,0,3.9-3.08c1-3,2.21-6.5,1.12-10.21-.24-1.82-.58-3.6-.87-5.16-.22-2-.45-4.2-.68-6.56-.44-4.4-.92-8.9-1.14-13.39-.07-1.5-.11-3-.09-4.48,1-4.39.36-8.94,2.48-13.75A40.08,40.08,0,0,1,68.85,35.05Z"/><path id="Koza-6" data-name="Koza" class="cls-3" d="M121,45.85s7.52-2.29,5.33,9.94A105,105,0,0,1,121,75.59Z"/><path id="Koza-7" data-name="Koza" class="cls-3" d="M62.39,47.13s-7.52-2.29-5.33,9.94a105,105,0,0,0,5.33,19.8Z"/><ellipse id="Uhani" class="cls-32" cx="61.58" cy="74.39" rx="2.37" ry="2.57"/><ellipse id="Uhani-2" data-name="Uhani" class="cls-32" cx="122.7" cy="74.3" rx="2.37" ry="2.57"/><path class="cls-33" d="M105,78.63a10.94,10.94,0,0,1-4.7,5.84c-.89-3.67-17.08-2.24-17.13-2.24a13.55,13.55,0,0,1-2.47-3.6A62.41,62.41,0,0,0,105,78.63Z"/><path class="cls-34" d="M100.28,84.47h0a13.81,13.81,0,0,1-6.69,1.94,12.94,12.94,0,0,1-10.43-4.18S99.39,80.8,100.28,84.47Z"/><polygon class="cls-33" points="83.14 82.23 83.15 82.23 83.15 82.23 83.14 82.23"/><polygon id="Hlace" class="cls-26" points="143.47 239.61 143.47 259.65 127.16 466.19 108.52 466.19 96.72 320.01 82.75 466.19 63.26 466.19 48.2 259.65 48.2 239.61 143.47 239.61"/><path id="Majica" class="cls-35" d="M154.19,120.79c-3.47.42-7.73,5.36-11.75,17.71,0,3.55,2,20.86-5.17,31.13-1.56,16.14,4.19,53.41,6.2,70-40.7,33.68-92.57,1.17-95.27,0,2-16.33,4.94-54.11,3.43-70.05C43.58,158.56,44,138,44,138c-4-12-8.17-16.82-11.6-17.23C24,119.8,45,106,58,106H68.68c.12.33.25.65.39,1,3.8,9,13.22,15.29,24.24,15.29,11.23,0,20.78-6.57,24.44-15.76.07-.16.14-.33.2-.5h10.72C141.65,106,162.68,119.8,154.19,120.79Z"/></g></g></svg>