<svg xmlns="http://www.w3.org/2000/svg" xmlns:xlink="http://www.w3.org/1999/xlink" viewBox="0 0 136.3 426.99"><defs><style>.cls-1,.cls-7{fill:none;}.cls-1{stroke:#e2a44f;stroke-width:1.98px;}.cls-1,.cls-11,.cls-12,.cls-7{stroke-miterlimit:10;}.cls-2{clip-path:url(#clip-path);}.cls-11,.cls-12,.cls-3{fill:#eed1bf;}.cls-4{fill:#fbc5aa;}.cls-5{fill:#d8dcec;}.cls-6{fill:#004368;}.cls-7{stroke:#c1c0db;stroke-width:0.65px;}.cls-8{fill:#fff;}.cls-9{fill:#514835;}.cls-10{fill:#cabcdc;}.cls-11,.cls-12{stroke:#ebae8a;}.cls-11{stroke-width:0.77px;}.cls-12{stroke-width:1.12px;}.cls-13{fill:#bbb8dc;}.cls-14{fill:#c26b9b;}.cls-15{fill:#5a3b34;}.cls-16{fill:#d55225;}.cls-17{fill:#866aa1;}</style><clipPath id="clip-path"><circle class="cls-1" cx="66.99" cy="66.99" r="66"/></clipPath></defs><title>Asset 22</title><g id="Layer_2" data-name="Layer 2"><g id="Glavno_Besedilo" data-name="Glavno Besedilo"><g class="cls-2"><path class="cls-3" d="M12.19,224.93s-3.78,29.83,16.65,32.82V224.21Z"/><path class="cls-3" d="M124.34,228.26s3.78,29.83-16.65,32.82V227.54Z"/><path class="cls-4" d="M46.62,109.85s9.24-.78,9.67-13.42H79s.93,16.51,11.76,13.42l-1,9.49-22.12,10L48.44,123.5l-4.68-10.61Z"/><path class="cls-5" d="M2.29,236.43l33.39-1.28V140.52S28,101.32,16.1,122.6Q6.24,182.11,2.29,236.43Z"/><path class="cls-5" d="M136.3,236.43l-33.39-1.28V140.52s7.72-39.2,19.58-17.92Q132.35,182.11,136.3,236.43Z"/><path class="cls-3" d="M44.19,411.37s-11.78,9.29-20.57,9.1l36.49.27v-9.37Z"/><path class="cls-6" d="M60.11,411.37v13.11H50.47v-3.74s-21.26,7.81-30.59,6c0,0-10.64-1.43,5.7-7.32,12.22-4.41,14.68-5.32,14.68-5.32"/><path class="cls-3" d="M99.2,411.37s11.78,9.29,20.57,9.1l-36.49.27v-9.37Z"/><path class="cls-6" d="M83.28,411.37v13.11h9.64v-3.74s21.26,7.81,30.59,6c0,0,10.64-1.43-5.7-7.32-12.22-4.41-14.68-5.32-14.68-5.32"/><path class="cls-7" d="M30,216.47c.09-7.78,39.42,31.15,76.53,0"/><path class="cls-3" d="M65.4,20.55h5.27A24.24,24.24,0,0,1,94.92,44.79V77A26.88,26.88,0,0,1,68,103.86h0A26.88,26.88,0,0,1,41.16,77V44.79A24.24,24.24,0,0,1,65.4,20.55Z"/><path class="cls-8" d="M60.61,59.37c.06-5.18-14.75-5.37-14.8-.2C45.75,63.84,60.56,64,60.61,59.37Z"/><path class="cls-8" d="M90.38,59.37c.05-5.18-14.75-5.37-14.81-.2C75.52,63.84,90.32,64,90.38,59.37Z"/><ellipse class="cls-9" cx="52.75" cy="59.08" rx="2.45" ry="2.66"/><ellipse class="cls-9" cx="82.97" cy="59.08" rx="2.45" ry="2.66"/><path class="cls-10" d="M44.88,59.48s6.3-6.87,17.43,0C62.31,59.48,52.63,47.85,44.88,59.48Z"/><path class="cls-10" d="M74.53,59.48s6.3-6.87,17.43,0C92,59.48,82.28,47.85,74.53,59.48Z"/><path class="cls-11" d="M64.13,75.4s5.88,2.46,7.81.35c.84-.91-3.66-19-2.19-18.65"/><path class="cls-12" d="M46.43,52.94s5.23-6.23,16.6,0"/><path class="cls-12" d="M75.35,53.69s5.24-6.23,16.61,0"/><path class="cls-13" d="M47.68,45.14C51,40,55.32,35.92,61,34.11a16.64,16.64,0,0,1,2.68-.58,14.72,14.72,0,0,1,2.74-.1,27.33,27.33,0,0,1,3.83.12,29.65,29.65,0,0,1,3.83.62,16.73,16.73,0,0,1,3.27,1c9.08,3.1,12.29,13.59,13.72,22.69.2,1.19.34,2.36.44,3.5.27.91.53,1.8.78,2.71s.46,1.81.66,2.72q.62,2.73,1,5.55c.28,1.38.49,2.75.64,4.12s.24,2.72.29,4.08C96,88.1,94.55,95.58,96,103.07c7.26-3.15,10.17-12.21,10-20.18.1-1.67.17-3.35.23-5,.15-2,.23-4.09.28-6.08s.1-4.12.09-6.17c0-6.15-.4-12.23-.4-17.64q-.39-3.15-1-6.25c-.42-2.07-.92-4.13-1.5-6.15a35.31,35.31,0,0,0-2.94-4.83,34.82,34.82,0,0,0-3.55-4.18A43.4,43.4,0,0,0,71,14.18a30.2,30.2,0,0,0-6.25-.45,29.59,29.59,0,0,0-6,.83,31.36,31.36,0,0,0-10,4.29,33.21,33.21,0,0,0-4.33,3.33,32.72,32.72,0,0,0-3.87,4.48,43.3,43.3,0,0,0-2.82,4.89c-.42.84-.81,1.7-1.17,2.57s-.71,1.74-1,2.63c-1.12,5.58-3.27,10.82-3.36,16.62-.13,1.41-.23,2.82-.28,4.24a108.57,108.57,0,0,0,1.35,21.17c.41,3.17.86,6.13,1.32,8.8,1.38,8,2.78,13.39,2.78,13.39a11.22,11.22,0,0,0,4.93,0,6.34,6.34,0,0,0,3.5-2.76c.89-2.67,2-5.82,1-9.15-.21-1.63-.51-3.22-.77-4.62-.2-1.79-.41-3.77-.62-5.88-.39-3.95-.82-8-1-12q-.1-2-.09-4c.86-3.93.32-8,2.23-12.32A34.61,34.61,0,0,1,47.68,45.14Z"/><path class="cls-3" d="M94.46,54.81s6.74-2.05,4.78,8.92a93.55,93.55,0,0,1-4.78,17.74Z"/><path class="cls-3" d="M41.89,56s-6.74-2.05-4.78,8.92a93.55,93.55,0,0,0,4.78,17.74Z"/><ellipse class="cls-14" cx="41.16" cy="80.4" rx="2.13" ry="2.31"/><ellipse class="cls-14" cx="95.95" cy="80.32" rx="2.13" ry="2.31"/><path class="cls-15" d="M80.07,84.2a9.82,9.82,0,0,1-4.22,5.24c-.8-3.3-15.31-2-15.36-2a12.58,12.58,0,0,1-2.21-3.23A56,56,0,0,0,80.07,84.2Z"/><path class="cls-16" d="M75.85,89.44h0a12.36,12.36,0,0,1-6,1.73,11.63,11.63,0,0,1-9.36-3.74S75.05,86.14,75.85,89.44Z"/><polygon class="cls-15" points="60.49 87.43 60.49 87.43 60.49 87.43 60.49 87.43"/><polygon class="cls-6" points="29.16 233.47 29.16 251.43 42.66 411.37 60.14 411.37 72.66 280.34 83.24 411.37 99.95 411.37 114.57 251.43 114.57 233.47 29.16 233.47"/><path class="cls-17" d="M124.18,122c-3.11.37-6.94,4.81-10.54,15.87,0,3.18,1.84,23.67-4.63,32.87-1.4,14.48,4,49.87,5.8,64.72-36.49,30.18-84.15-3.1-85.52,3,1.76-14.64,4.31-53.45,3-67.73-7.21-9.87-6.8-33.24-6.8-33.24-3.56-10.75-7.33-15.08-10.39-15.45-7.62-.88,11.24-13.27,22.87-13.27h9.61c3.15,8.48,11.84,14.58,22.08,14.58s18.94-6.1,22.09-14.58h9.6C112.94,108.72,131.79,121.11,124.18,122Z"/></g><circle class="cls-1" cx="66.99" cy="66.99" r="66"/></g></g></svg>