<svg xmlns="http://www.w3.org/2000/svg" viewBox="0 0 215.63 528.43"><defs><style>.cls-1{fill:#dce6e0;}.cls-2{fill:#eed1bf;}.cls-3{fill:#fbc5aa;}.cls-4{fill:#d8dcec;}.cls-5{fill:#074368;}.cls-12,.cls-6{fill:none;stroke-miterlimit:10;}.cls-6{stroke:#c1c0db;stroke-width:0.77px;}.cls-7{fill:#fff;}.cls-8{fill:#514835;}.cls-9{fill:#cabcdc;}.cls-10{fill:#ebaf89;}.cls-11{fill:#863d11;}.cls-12{stroke:#231f20;stroke-width:0.48px;}.cls-13{fill:#c4463a;}.cls-14{fill:#200600;}.cls-15{fill:#d55227;}.cls-16{fill:#f26524;}</style></defs><title>Asset 12</title><g id="Layer_2" data-name="Layer 2"><g id="Glavno_Besedilo" data-name="Glavno Besedilo"><ellipse class="cls-1" cx="107.82" cy="516.14" rx="107.82" ry="12.29"/><path id="Koza" class="cls-2" d="M37,244.31s-4.49,35.33,19.72,38.88V243.45Z"/><path id="Koza-2" data-name="Koza" class="cls-2" d="M169.8,248.25s4.48,35.33-19.73,38.88V247.39Z"/><path id="Vrat" class="cls-3" d="M130.92,113.07c-3.89,9.76-14,16.73-25.95,16.73-11.71,0-21.71-6.73-25.75-16.23,3-.87,9.58-4.08,10-15.6h26.89S118.55,116.08,130.92,113.07Z"/><path class="cls-4" d="M25.22,257.93l39.56-1.52V150.2S55.64,103.77,41.58,129C33.8,176,28.39,215,25.22,257.93Z"/><path class="cls-4" d="M184,257.93l-39.55-1.52V150.2s9.14-46.43,23.19-21.23C175.4,176,180.8,215,184,257.93Z"/><path id="Koza-3" data-name="Koza" class="cls-2" d="M93.72,495l-23.38,3.18c2.75-1.78,4.52-3.18,4.52-3.18Z"/><path id="Koza-4" data-name="Koza" class="cls-2" d="M144.54,498.17,121.16,495H140S141.79,496.39,144.54,498.17Z"/><path id="cevlje" class="cls-5" d="M93.72,495v15.53H82.3v-4.43s-25.18,9.26-36.23,7.08c0,0-12.61-1.7,6.74-8.68,14.48-5.22,17.39-6.3,17.39-6.3h.14Z"/><path id="cevlje-2" data-name="cevlje" class="cls-5" d="M168.81,513.17c-11,2.18-36.23-7.08-36.23-7.08v4.43H121.16V495l23.38,3.18h.13s2.92,1.08,17.4,6.3C181.42,511.47,168.81,513.17,168.81,513.17Z"/><path class="cls-6" d="M58.08,234.29c.11-9.22,46.7,36.9,90.65,0"/><path id="Koza-5" data-name="Koza" class="cls-2" d="M100,8.1h6.24a28.71,28.71,0,0,1,28.71,28.71V74.94a31.84,31.84,0,0,1-31.84,31.84h0A31.84,31.84,0,0,1,71.27,74.94V36.81A28.71,28.71,0,0,1,100,8.1Z"/><path class="cls-7" d="M94.31,54.07c.07-6.13-17.47-6.36-17.54-.23C76.71,59.38,94.25,59.61,94.31,54.07Z"/><path class="cls-7" d="M129.57,54.07c.07-6.13-17.47-6.36-17.54-.23C112,59.38,129.51,59.61,129.57,54.07Z"/><ellipse class="cls-8" cx="85" cy="53.74" rx="2.9" ry="3.15"/><ellipse class="cls-8" cx="120.8" cy="53.74" rx="2.9" ry="3.15"/><path id="Oci" class="cls-9" d="M75.68,54.2s7.46-8.13,20.64,0C96.32,54.2,84.85,40.43,75.68,54.2Z"/><path id="Oci-2" data-name="Oci" class="cls-9" d="M110.8,54.2s7.46-8.13,20.64,0C131.44,54.2,120,40.43,110.8,54.2Z"/><g id="Nos"><path class="cls-10" d="M104.72,74.94a19.4,19.4,0,0,1-6.41-1.46l.35-.84c1.86.78,7,2.38,8.74.53.24-.63-.69-5.75-1.45-9.86-1.6-8.75-2-11.58-1.29-12.22a.63.63,0,0,1,.59-.15l-.23.89a.28.28,0,0,0,.29-.11c-.41.77.72,6.93,1.54,11.43,1.42,7.73,1.75,10.07,1.22,10.64A4.39,4.39,0,0,1,104.72,74.94Z"/></g><path id="Obrve" class="cls-11" d="M96.86,47C84,40,78.07,46.81,78,46.88L77,46c.27-.32,6.71-7.71,20.5-.15Z"/><path id="Obrve-2" data-name="Obrve" class="cls-11" d="M131.12,47.93c-12.84-7-18.78-.22-18.84-.15l-1-.86c.27-.31,6.71-7.7,20.5-.15Z"/><g id="ocala"><rect class="cls-12" x="110.34" y="47.35" width="22.01" height="14.56" rx="6.54"/><rect class="cls-12" x="75.54" y="47.35" width="22.01" height="14.56" rx="6.54"/><path class="cls-12" d="M97.55,55.09s7.69-6.31,12.79,0"/><line class="cls-12" x1="71.27" y1="49.57" x2="75.54" y2="54.17"/><line class="cls-12" x1="134.95" y1="48.99" x2="132.35" y2="54.63"/></g><path id="Lasje" class="cls-11" d="M79,37.22c4-6.09,9-10.92,15.79-13.07A20.34,20.34,0,0,1,98,23.47a17.5,17.5,0,0,1,3.24-.12,34.54,34.54,0,0,1,4.54.14,37.65,37.65,0,0,1,4.54.74,20.61,20.61,0,0,1,3.87,1.15c10.75,3.68,14.56,16.1,16.26,26.88.23,1.41.4,2.8.51,4.15.33,1.07.64,2.14.92,3.21s.55,2.14.79,3.22c.49,2.16.89,4.34,1.21,6.58.33,1.63.58,3.26.75,4.87s.29,3.23.35,4.84c1.3,9-.42,17.84,1.3,26.71,8.59-3.73,12-14.47,11.78-23.9.11-2,.2-4,.27-5.91.18-2.42.27-4.84.33-7.19s.13-4.88.11-7.31c0-7.28-.47-14.49-.48-20.89q-.45-3.73-1.19-7.42c-.49-2.45-1.07-4.88-1.77-7.28a41.18,41.18,0,0,0-3.48-5.71,41.83,41.83,0,0,0-4.2-5,51.28,51.28,0,0,0-24.2-13.55A52.27,52.27,0,0,0,106.59.54,35.7,35.7,0,0,0,92.05,1,37.55,37.55,0,0,0,80.23,6.08,40.52,40.52,0,0,0,75.11,10a39.63,39.63,0,0,0-4.59,5.31,52.17,52.17,0,0,0-3.34,5.8c-.49,1-1,2-1.39,3s-.83,2.07-1.21,3.12c-1.33,6.61-3.87,12.82-4,19.7-.16,1.66-.27,3.34-.34,5a128.3,128.3,0,0,0,1.61,25.08c.48,3.75,1,7.26,1.56,10.43,1.63,9.49,3.3,15.85,3.3,15.85a13.1,13.1,0,0,0,5.83.05,7.55,7.55,0,0,0,4.15-3.26c1.05-3.17,2.34-6.9,1.18-10.85-.25-1.93-.61-3.81-.91-5.47-.24-2.12-.49-4.47-.73-7-.47-4.67-1-9.45-1.2-14.22-.08-1.59-.12-3.18-.11-4.76,1-4.66.39-9.49,2.64-14.59A41.9,41.9,0,0,1,79,37.22Z"/><path id="Koza-6" data-name="Koza" class="cls-2" d="M134.41,48.68s8-2.43,5.66,10.56a112,112,0,0,1-5.66,21Z"/><path id="Koza-7" data-name="Koza" class="cls-2" d="M72.13,50s-8-2.43-5.66,10.56a112,112,0,0,0,5.66,21Z"/><ellipse id="Uhani" class="cls-13" cx="71.27" cy="78.99" rx="2.52" ry="2.73"/><ellipse id="Uhani-2" data-name="Uhani" class="cls-13" cx="136.17" cy="78.89" rx="2.52" ry="2.73"/><path class="cls-14" d="M117.36,83.49a11.63,11.63,0,0,1-5,6.2c-.94-3.9-18.13-2.38-18.19-2.38a14.67,14.67,0,0,1-2.62-3.82A66.43,66.43,0,0,0,117.36,83.49Z"/><path class="cls-15" d="M112.36,89.69h0a14.75,14.75,0,0,1-7.1,2.06,13.77,13.77,0,0,1-11.09-4.44C94.23,87.31,111.42,85.79,112.36,89.69Z"/><polygon class="cls-14" points="94.17 87.31 94.17 87.31 94.17 87.31 94.17 87.31"/><polygon id="Hlace" class="cls-5" points="158.22 254.41 158.22 275.69 140.9 494.99 121.11 494.99 108.58 339.78 93.75 494.99 73.05 494.99 57.06 275.69 57.06 254.41 158.22 254.41"/><path id="Majica" class="cls-16" d="M169.6,128.26c-3.67.44-8.21,5.69-12.47,18.79,0,3.77,2.17,22.16-5.49,33.06-1.66,17.14,4.45,56.71,6.58,74.3-43.21,35.76-98.28,1.24-101.16,0C59.15,237.08,62.31,197,60.7,180c-8.54-11.68-8.05-33.49-8.05-33.49-4.22-12.73-8.68-17.86-12.31-18.29-9-1.06,13.31-15.72,27.09-15.72H78.81c.13.35.27.69.41,1,4,9.5,14,16.23,25.75,16.23,11.92,0,22.06-7,25.95-16.73l.21-.53h11.38C156.29,112.54,178.62,127.2,169.6,128.26Z"/></g></g></svg>