<svg xmlns="http://www.w3.org/2000/svg" viewBox="0 0 161.16 394.95"><defs><style>.cls-1{fill:#dce6e0;}.cls-2{fill:#eed1bf;}.cls-3{fill:#fbc5aa;}.cls-4{fill:#d8dcec;}.cls-5{fill:#074368;}.cls-12,.cls-6{fill:none;stroke-miterlimit:10;}.cls-6{stroke:#c1c0db;stroke-width:0.58px;}.cls-7{fill:#fff;}.cls-8{fill:#514835;}.cls-9{fill:#cabcdc;}.cls-10{fill:#ebaf89;}.cls-11{fill:#863d11;}.cls-12{stroke:#231f20;stroke-width:0.36px;}.cls-13{fill:#c4463a;}.cls-14{fill:#200600;}.cls-15{fill:#d55227;}.cls-16{fill:#e5bb5b;}</style></defs><title>Asset 6</title><g id="Layer_2" data-name="Layer 2"><g id="Glavno_Besedilo" data-name="Glavno Besedilo"><ellipse class="cls-1" cx="80.58" cy="385.77" rx="80.58" ry="9.18"/><path id="Koza" class="cls-2" d="M27.62,182.62s-3.35,26.4,14.74,29V182Z"/><path id="Koza-2" data-name="Koza" class="cls-2" d="M126.9,185.57s3.35,26.4-14.74,29.05v-29.7Z"/><path id="Vrat" class="cls-3" d="M97.84,84.54C94.94,91.83,87.36,97,78.45,97c-8.75,0-16.23-5-19.24-12.13,2.25-.65,7.16-3,7.45-11.66H86.75S88.6,86.79,97.84,84.54Z"/><path class="cls-4" d="M18.85,192.8l29.56-1.14V112.29S41.58,77.58,31.08,96.42C25.26,131.54,21.22,160.7,18.85,192.8Z"/><path class="cls-4" d="M137.49,192.8l-29.56-1.14V112.29s6.83-34.71,17.34-15.87C131.09,131.54,135.12,160.7,137.49,192.8Z"/><path id="Koza-3" data-name="Koza" class="cls-2" d="M70,370l-17.47,2.37C54.62,371,56,370,56,370Z"/><path id="Koza-4" data-name="Koza" class="cls-2" d="M108,372.34,90.55,370h14.1S106,371,108,372.34Z"/><path id="cevlje" class="cls-5" d="M70,370v11.61H61.51v-3.32s-18.82,6.92-27.08,5.29c0,0-9.42-1.27,5-6.48,10.82-3.9,13-4.71,13-4.71h.1Z"/><path id="cevlje-2" data-name="cevlje" class="cls-5" d="M126.16,383.55c-8.25,1.63-27.08-5.29-27.08-5.29v3.32H90.55V370L108,372.34h.1s2.18.81,13,4.71C135.59,382.28,126.16,383.55,126.16,383.55Z"/><path class="cls-6" d="M43.41,175.13c.08-6.89,34.9,27.58,67.75,0"/><path id="Koza-5" data-name="Koza" class="cls-2" d="M74.73,6.08h4.67a21.46,21.46,0,0,1,21.46,21.46V56A23.79,23.79,0,0,1,77.06,79.83h0A23.79,23.79,0,0,1,53.27,56V27.54A21.46,21.46,0,0,1,74.73,6.08Z"/><path class="cls-7" d="M70.49,40.44c.05-4.58-13.06-4.75-13.11-.17C57.33,44.41,70.44,44.58,70.49,40.44Z"/><path class="cls-7" d="M96.84,40.44c0-4.58-13.06-4.75-13.11-.17C83.68,44.41,96.79,44.58,96.84,40.44Z"/><ellipse class="cls-8" cx="63.52" cy="40.19" rx="2.17" ry="2.35"/><ellipse class="cls-8" cx="90.28" cy="40.19" rx="2.17" ry="2.35"/><path id="Oci" class="cls-9" d="M56.56,40.54s5.57-6.08,15.43,0C72,40.54,63.42,30.25,56.56,40.54Z"/><path id="Oci-2" data-name="Oci" class="cls-9" d="M82.81,40.54s5.57-6.08,15.42,0C98.23,40.54,89.66,30.25,82.81,40.54Z"/><g id="Nos"><path class="cls-10" d="M78.26,56A14.73,14.73,0,0,1,73.47,55l.26-.63c1.39.58,5.27,1.78,6.54.4.18-.47-.52-4.3-1.08-7.37-1.2-6.54-1.49-8.66-1-9.14a.47.47,0,0,1,.44-.11l-.17.66a.19.19,0,0,0,.21-.08c-.3.58.54,5.18,1.16,8.54,1,5.79,1.3,7.53.91,8A3.31,3.31,0,0,1,78.26,56Z"/></g><path id="Obrve" class="cls-11" d="M72.39,35.18c-9.6-5.26-14-.16-14.08-.11l-.76-.64c.2-.24,5-5.76,15.32-.11Z"/><path id="Obrve-2" data-name="Obrve" class="cls-11" d="M98,35.85c-9.6-5.26-14-.17-14.09-.11l-.76-.64c.2-.24,5-5.76,15.32-.12Z"/><g id="ocala"><rect class="cls-12" x="82.46" y="35.42" width="16.45" height="10.88" rx="4.89"/><rect class="cls-12" x="56.46" y="35.42" width="16.45" height="10.88" rx="4.89"/><path class="cls-12" d="M72.91,41.2s5.74-4.71,9.55,0"/><line class="cls-12" x1="53.27" y1="37.08" x2="56.46" y2="40.51"/><line class="cls-12" x1="100.85" y1="36.65" x2="98.91" y2="40.86"/></g><path id="Lasje" class="cls-11" d="M58.33,28c2.33-8,13.33-12,20.33-8,11,7,11,20,12.63,30.89a45.19,45.19,0,0,0,1,5c.41,2.31.78,4.61,1.14,6.88s.69,4.51,1,6.7.82,4.49,1.34,6.77A28.27,28.27,0,0,0,99.66,83c.62-2.5,1.39-5.06,2.22-7.66a45.79,45.79,0,0,0,3.82-6.61,45,45,0,0,0,2.61-7,48.86,48.86,0,0,0,1.89-7.51,42.13,42.13,0,0,0,2.28-7.87C115.66,23,97.66-1,73.66,0c-15,0-25,13-27.22,27.67a32.42,32.42,0,0,0-1.15,7.44,50.26,50.26,0,0,0-.11,13.16c.21,3.13.57,6.25,1.06,9.33.36,2.8.76,5.43,1.17,7.79,1.21,7.1,2.46,11.85,2.46,11.85a9.89,9.89,0,0,0,4.36,0,5.66,5.66,0,0,0,3.1-2.44c.79-2.36,1.75-5.16.89-8.1-.38-7.16-2.72-14.88-2.85-22.63a33.45,33.45,0,0,1,.39-5.81,27.12,27.12,0,0,1,1.57-5.76A33.94,33.94,0,0,1,58.33,28Z"/><path id="Koza-6" data-name="Koza" class="cls-2" d="M100.45,36.41s6-1.81,4.23,7.89A83.28,83.28,0,0,1,100.45,60Z"/><path id="Koza-7" data-name="Koza" class="cls-2" d="M53.91,37.43s-6-1.81-4.23,7.89A83.58,83.58,0,0,0,53.91,61Z"/><ellipse id="Uhani" class="cls-13" cx="53.27" cy="59.06" rx="1.88" ry="2.04"/><ellipse id="Uhani-2" data-name="Uhani" class="cls-13" cx="101.77" cy="58.99" rx="1.88" ry="2.04"/><path class="cls-14" d="M87.71,62.43A8.67,8.67,0,0,1,84,67.06c-.7-2.91-13.55-1.78-13.59-1.77a11,11,0,0,1-2-2.86A49.82,49.82,0,0,0,87.71,62.43Z"/><path class="cls-15" d="M84,67.06h0a11,11,0,0,1-5.31,1.54,10.3,10.3,0,0,1-8.28-3.31S83.27,64.15,84,67.06Z"/><polygon class="cls-14" points="70.38 65.28 70.38 65.28 70.38 65.28 70.38 65.28"/><polygon id="Hlace" class="cls-5" points="118.25 190.17 118.25 206.07 105.31 369.97 90.52 369.97 81.15 253.97 70.07 369.97 54.6 369.97 42.65 206.07 42.65 190.17 118.25 190.17"/><path id="Majica" class="cls-16" d="M126.76,95.88c-2.75.33-6.14,4.26-9.33,14.05,0,2.82,1.62,16.56-4.1,24.71-1.24,12.81,3.33,42.38,4.92,55.53-32.3,26.72-73.46.93-75.6,0,1.56-13,3.92-42.94,2.72-55.58-6.39-8.74-6-25-6-25-3.16-9.52-6.49-13.35-9.2-13.68-6.74-.78,10-11.74,20.25-11.74h8.5c.1.26.2.52.31.77C62.22,92,69.7,97,78.45,97c8.91,0,16.49-5.21,19.39-12.5.06-.13.11-.27.16-.4h8.51C116.81,84.14,133.5,95.1,126.76,95.88Z"/></g></g></svg>