<svg xmlns="http://www.w3.org/2000/svg" xmlns:xlink="http://www.w3.org/1999/xlink" viewBox="0 0 134.82 427.08"><defs><style>.cls-1,.cls-17,.cls-18,.cls-8{fill:none;}.cls-1{stroke:#e2a44f;stroke-width:1.98px;}.cls-1,.cls-12,.cls-13,.cls-17,.cls-18,.cls-8{stroke-miterlimit:10;}.cls-2{clip-path:url(#clip-path);}.cls-12,.cls-13,.cls-3{fill:#eed1bf;}.cls-4{fill:#fbc5aa;}.cls-5{fill:#d8dcec;}.cls-6{fill:#007dac;}.cls-7{fill:#e27d58;}.cls-8{stroke:#c1c0db;stroke-width:0.64px;}.cls-9{fill:#fff;}.cls-10{fill:#514835;}.cls-11{fill:#cabcdc;}.cls-12,.cls-13{stroke:#ebae8a;}.cls-12{stroke-width:0.79px;}.cls-13{stroke-width:0.39px;}.cls-14{fill:#5a3b34;}.cls-15{fill:#d55225;}.cls-16{fill:#f5e6c1;}.cls-17,.cls-18{stroke:#231f20;}.cls-17{stroke-width:0.42px;}.cls-18{stroke-width:0.38px;}.cls-19{fill:#d2bab7;}</style><clipPath id="clip-path"><circle class="cls-1" cx="66.99" cy="66.99" r="66"/></clipPath></defs><title>Asset 20</title><g id="Layer_2" data-name="Layer 2"><g id="Glavno_Besedilo" data-name="Glavno Besedilo"><g class="cls-2"><path class="cls-3" d="M12.08,227.87S8.35,257.28,28.5,260.23V227.16Z"/><path class="cls-3" d="M122.65,231.15s3.73,29.41-16.42,32.36V230.44Z"/><path class="cls-4" d="M46,114.41s9.12-.77,9.54-13.24H77.94s.92,16.28,11.59,13.24l-1,9.36-21.8,9.87-18.94-5.78L43.2,117.41Z"/><path class="cls-5" d="M2.32,239.21l32.92-1.27V144.65S27.63,106,15.93,127Q6.21,185.65,2.32,239.21Z"/><path class="cls-5" d="M134.45,239.21l-32.93-1.27V144.65S109.13,106,120.83,127Q130.55,185.65,134.45,239.21Z"/><polygon class="cls-3" points="73.04 283.88 59.32 411.68 43.63 411.68 31.51 283.88 73.04 283.88"/><polygon class="cls-3" points="110 283.88 96.35 411.68 80.75 411.68 68.69 283.88 110 283.88"/><path class="cls-6" d="M105.12,219.54a205.66,205.66,0,0,1-.86-44c6.38-9.2,6.56-29.4,6.54-32.59,3.55-11.06,7.32-15.5,10.39-15.87,7.5-.89-11.08-13.28-22.55-13.28H89.17c-3.11,8.49-11.68,14.59-21.78,14.59s-18.66-6.1-21.77-14.59H36.15c-11.47,0-30.06,12.39-22.56,13.28,3,.36,6.74,4.7,10.25,15.45,0,0-.4,23.38,6.71,33.25a205.41,205.41,0,0,1-.89,43.79L4.24,341.31s13.38,14.55,52.31,0c0,0,26.43,10.81,49.68,0,0,0,19.38,8.67,28.59,0Z"/><path class="cls-3" d="M43.63,411.68s-11.61,9.16-20.28,9l36,.26v-9.24Z"/><path class="cls-7" d="M59.33,411.68v12.93H49.82v-3.69s-21,7.7-30.15,5.88c0,0-10.5-1.41,5.61-7.21,12-4.35,14.48-5.25,14.48-5.25"/><path class="cls-3" d="M96.44,411.68s11.61,9.16,20.27,9l-36,.26v-9.24Z"/><path class="cls-7" d="M80.74,411.68v12.93h9.51v-3.69s21,7.7,30.15,5.88c0,0,10.5-1.41-5.61-7.21-12.05-4.35-14.48-5.25-14.48-5.25"/><path class="cls-8" d="M29.67,219.53c.09-7.68,38.87,30.71,75.45,0"/><path class="cls-3" d="M63.91,25.2h7A25.28,25.28,0,0,1,96.2,50.48V79.35a28,28,0,0,1-28,28H66.65a28,28,0,0,1-28-28V50.48A25.28,25.28,0,0,1,63.91,25.2Z"/><path class="cls-9" d="M59.46,63.49c.06-5.1-15.8-5.3-15.86-.19C43.55,67.91,59.4,68.1,59.46,63.49Z"/><path class="cls-9" d="M91.34,63.49c.06-5.1-15.8-5.3-15.86-.19C75.42,67.91,91.28,68.1,91.34,63.49Z"/><circle class="cls-10" cx="51.04" cy="63.21" r="2.62"/><circle class="cls-10" cx="83.41" cy="63.21" r="2.62"/><path class="cls-11" d="M42.62,63.6s6.73-6.77,18.65,0C61.27,63.6,50.91,52.13,42.62,63.6Z"/><path class="cls-11" d="M74.37,63.6s6.74-6.77,18.66,0C93,63.6,82.66,52.13,74.37,63.6Z"/><path class="cls-12" d="M63.23,79.3s6.3,2.43,8.36.35c.9-.89-3.92-18.77-2.35-18.4"/><path class="cls-13" d="M44.27,57.15s5.6-6.15,17.78,0"/><path class="cls-13" d="M75.24,57.89s5.61-6.14,17.79,0"/><path class="cls-14" d="M80.19,88.79a9.84,9.84,0,0,1-5,5.09c-.93-3.2-17.95-2-18-1.95a12,12,0,0,1-2.6-3.14Z"/><path class="cls-15" d="M75.24,93.88h0a16.78,16.78,0,0,1-7,1.69,15.11,15.11,0,0,1-11-3.64C57.29,91.92,74.31,90.68,75.24,93.88Z"/><polygon class="cls-14" points="57.23 91.93 57.23 91.93 57.23 91.93 57.23 91.93"/><path class="cls-3" d="M95.71,59s7.22-2,5.12,8.79A87.1,87.1,0,0,1,95.71,85.3Z"/><path class="cls-16" d="M67.4,34.16h0Z"/><line class="cls-16" x1="67.41" y1="34.16" x2="67.41" y2="34.16"/><path class="cls-17" d="M61.3,65.83s7-5.25,11.56,0"/><line class="cls-17" x1="38.36" y1="62.15" x2="41.4" y2="65.06"/><line class="cls-17" x1="96.38" y1="61.01" x2="92.76" y2="65.45"/><circle class="cls-18" cx="51.35" cy="65.83" r="9.95"/><circle class="cls-18" cx="82.81" cy="65.83" r="9.95"/><path class="cls-19" d="M103.28,122.73s-3.59-.78-6.16-8.88a79.17,79.17,0,0,0-15-10.23c5.37-3.14,10-10.46,12.52-15.13.1-3.8.34-8,.76-12.72C99.25,32.33,68.67,44.9,67.37,45h0c-1.27-.09-31.84-12.68-28,30.78.41,4.66.65,8.86.75,12.64C43.63,94.21,51,102.63,51,102.63c-3.68-2.39-8.61,2.73-12.6,8.41-2.54,10.74-6.93,11.69-6.93,11.69S13.27,13.75,67.39,18.1C121.52,13.75,103.28,122.73,103.28,122.73Z"/></g><circle class="cls-1" cx="66.99" cy="66.99" r="66"/></g></g></svg>