<svg xmlns="http://www.w3.org/2000/svg" xmlns:xlink="http://www.w3.org/1999/xlink" viewBox="0 0 134.99 134.99"><defs><style>.cls-1,.cls-16{fill:none;}.cls-1{stroke:#e2a44f;stroke-width:1.98px;}.cls-1,.cls-10,.cls-16,.cls-9{stroke-miterlimit:10;}.cls-2{clip-path:url(#clip-path);}.cls-10,.cls-3,.cls-9{fill:#eed1bf;}.cls-4{fill:#fbc5aa;}.cls-5{fill:#d8dcec;}.cls-6{fill:#fff;}.cls-7{fill:#514835;}.cls-8{fill:#cabcdc;}.cls-10,.cls-9{stroke:#ebae8a;}.cls-9{stroke-width:0.81px;}.cls-10{stroke-width:1.2px;}.cls-11{fill:#5a3b34;}.cls-12{fill:#d55225;}.cls-13{fill:#c7c8ca;}.cls-14{fill:#d1bbae;}.cls-15{fill:#f69679;}.cls-16{stroke:#c1c0db;stroke-width:0.65px;}</style><clipPath id="clip-path"><circle class="cls-1" cx="66.99" cy="66.99" r="66"/></clipPath></defs><title>Asset 23</title><g id="Layer_2" data-name="Layer 2"><g id="Glavno_Besedilo" data-name="Glavno Besedilo"><g class="cls-2"><path class="cls-3" d="M10.87,223.1s-3.77,29.73,16.6,32.72V222.37Z"/><path class="cls-3" d="M122.68,226.42s3.77,29.73-16.6,32.72V225.69Z"/><path class="cls-4" d="M45.19,108.36s9.22-.78,9.64-13.38H77.47s.92,16.46,11.72,13.38l-1,9.46-22,10L47,122l-4.67-10.58Z"/><path class="cls-5" d="M1,234.56l33.29-1.28V138.94s-7.7-39.08-19.53-17.87Q4.94,180.4,1,234.56Z"/><path class="cls-5" d="M134.61,234.56l-33.3-1.28V138.94s7.7-39.08,19.53-17.87Q130.67,180.4,134.61,234.56Z"/><path class="cls-3" d="M64.83,25.56h5.08A23.37,23.37,0,0,1,93.28,48.92v30.2A25.91,25.91,0,0,1,67.37,105h0A25.91,25.91,0,0,1,41.47,79.12V48.92A23.37,23.37,0,0,1,64.83,25.56Z"/><path class="cls-6" d="M59.68,62.54c.06-4.17-15.27-4.33-15.34-.16C44.29,66.15,59.63,66.31,59.68,62.54Z"/><path class="cls-6" d="M90.5,62.54c.06-4.17-15.27-4.33-15.33-.16C75.11,66.15,90.45,66.31,90.5,62.54Z"/><circle class="cls-7" cx="51.54" cy="62.31" r="2.54"/><circle class="cls-7" cx="82.84" cy="62.31" r="2.54"/><path class="cls-8" d="M43.39,62.69s6.52-6.55,18,0C61.43,62.69,51.41,51.6,43.39,62.69Z"/><path class="cls-8" d="M74.1,62.69s6.51-6.55,18,0C92.14,62.69,82.12,51.6,74.1,62.69Z"/><path class="cls-9" d="M63.33,80.14s6.09,2.65,8.09.38c.86-1-3.8-20.51-2.28-20.1"/><path class="cls-10" d="M45,56.45s5.42-6,17.2,0"/><path class="cls-10" d="M74.94,57.17s5.43-6,17.2,0"/><path class="cls-11" d="M78.93,87.09a10.12,10.12,0,0,1-4.36,5.4c-.82-3.4-15.79-2.08-15.85-2.07a12.9,12.9,0,0,1-2.28-3.33A58,58,0,0,0,78.93,87.09Z"/><path class="cls-12" d="M74.57,92.49h0a12.72,12.72,0,0,1-6.19,1.79,12,12,0,0,1-9.66-3.86C58.78,90.41,73.75,89.09,74.57,92.49Z"/><polygon class="cls-11" points="58.73 90.42 58.73 90.42 58.73 90.42 58.73 90.42"/><path class="cls-3" d="M93.12,58.21s7-2,4.95,8.5a84.78,84.78,0,0,1-4.95,16.93Z"/><path class="cls-13" d="M38.75,73c.16-1.58.38-3.18.66-4.78A30.89,30.89,0,0,1,43.06,56a21.58,21.58,0,0,1,2.33-3.41c1.53-1.07,2.72-3.47,4.42-4a16.49,16.49,0,0,1,2.81-1.17,19,19,0,0,1,2.91-.65,58.4,58.4,0,0,1,7.31.23,19,19,0,0,1,6.66,1.86c1,.31,2.1.63,3.15.91a26.84,26.84,0,0,1,3.89-.58,25.65,25.65,0,0,1,3.92,0,10.62,10.62,0,0,1,2,0,11,11,0,0,1,1.91.41c2.88.68,4.07,3.08,6.27,4.49.43.52.83,1.07,1.22,1.64s.75,1.17,1.09,1.77a30,30,0,0,1,1.74,3.78,29.32,29.32,0,0,1,1.17,3.83c.35.75,1.06.75,1.76,1.13,0-.83.09-1.66.18-2.48s.21-1.65.34-2.46c5-5,10.38-11,9.88-19a12.39,12.39,0,0,0-.46-2.14,11.94,11.94,0,0,0-.9-2.11,22.85,22.85,0,0,0-1.2-2,46.66,46.66,0,0,0-8.2-8.76,19.89,19.89,0,0,1-1-2.3,16,16,0,0,0-.94-1.55,14,14,0,0,0-1.1-1.41,12.85,12.85,0,0,0-1.74-1.64,22.26,22.26,0,0,0-8-3.09c-.72-.14-1.45-.25-2.18-.32-5.83-1-11.76,2-17.83,1.19-.67-.14-1.34-.3-2-.48s-1.32-.36-2-.55a16.11,16.11,0,0,0-18,2.7,18.9,18.9,0,0,0-1.57,1.53,20,20,0,0,0-4.39,7.67c-.4.64-.81,1.28-1.23,1.93-.39.32-.78.63-1.18.93a46,46,0,0,1-5,3.42,9.48,9.48,0,0,0-1.36,1.91,16.42,16.42,0,0,0-1,2.21c-.25.7-.48,1.42-.67,2.14-1.57,5.79-1.32,12.06,3.36,16.45l1.57,1.51c2.64,2.47,5.38,4.86,5.73,8.47q.45,1.59.9,3.12A19.66,19.66,0,0,0,38.75,73Z"/><path class="cls-3" d="M41.6,59.33s-7-1.95-5,8.51a85.06,85.06,0,0,0,5,16.93Z"/><circle class="cls-14" cx="40.35" cy="82.57" r="2.2"/><circle class="cls-14" cx="94.62" cy="81.44" r="2.2"/><polygon class="cls-3" points="72.51 279.73 58.63 408.96 42.77 408.96 30.51 279.73 72.51 279.73"/><polygon class="cls-3" points="109.89 279.73 96.09 408.96 80.31 408.96 68.12 279.73 109.89 279.73"/><path class="cls-15" d="M105,214.67a208.38,208.38,0,0,1-.87-44.53c6.45-9.3,6.63-29.72,6.62-32.94,3.59-11.19,7.4-15.69,10.5-16,7.59-.91-11.21-13.43-22.8-13.43H88.82c-3.14,8.58-11.81,14.74-22,14.74s-18.88-6.16-22-14.74H35.2c-11.59,0-30.39,12.52-22.8,13.43,3.06.36,6.81,4.74,10.36,15.61,0,0-.41,23.65,6.78,33.63a208,208,0,0,1-.89,44.28L3,337.81s13.52,14.7,52.89,0c0,0,26.72,10.92,50.24,0,0,0,19.59,8.76,28.91,0Z"/><path class="cls-3" d="M42.77,409S31,418.22,22.27,418l36.38.26V409Z"/><path class="cls-15" d="M58.65,409V422H49v-3.72s-21.19,7.79-30.49,5.95c0,0-10.61-1.43,5.68-7.3,12.18-4.39,14.64-5.31,14.64-5.31"/><path class="cls-3" d="M96.18,409s11.74,9.26,20.5,9.08l-36.38.26V409Z"/><path class="cls-15" d="M80.3,409V422h9.61v-3.72s21.2,7.79,30.5,5.95c0,0,10.61-1.43-5.68-7.3-12.19-4.39-14.64-5.31-14.64-5.31"/><path class="cls-16" d="M28.65,214.66c.09-7.76,39.31,31.06,76.3,0"/></g><circle class="cls-1" cx="66.99" cy="66.99" r="66"/></g></g></svg>