<svg xmlns="http://www.w3.org/2000/svg" viewBox="0 0 215.63 474.43"><defs><style>.cls-1{fill:#dce6e0;}.cls-2{fill:#eed1bf;}.cls-3{fill:#fbc5aa;}.cls-4{fill:#d8dcec;}.cls-5{fill:#074368;}.cls-12,.cls-6{fill:none;stroke-miterlimit:10;}.cls-6{stroke:#c1c0db;stroke-width:0.77px;}.cls-7{fill:#fff;}.cls-8{fill:#514835;}.cls-9{fill:#cabcdc;}.cls-10{fill:#ebaf89;}.cls-11{fill:#bbb8dc;}.cls-12{stroke:#231f20;stroke-width:0.48px;}.cls-13{fill:#c4463a;}.cls-14{fill:#200600;}.cls-15{fill:#d55227;}.cls-16{fill:#866aa1;}</style></defs><title>Asset 13</title><g id="Layer_2" data-name="Layer 2"><g id="Glavno_Besedilo" data-name="Glavno Besedilo"><ellipse class="cls-1" cx="107.82" cy="462.14" rx="107.82" ry="12.29"/><path id="Koza" class="cls-2" d="M40.08,249.41s-4.47,35.21,19.66,38.75V248.55Z"/><path id="Koza-2" data-name="Koza" class="cls-2" d="M172.5,253.34s4.47,35.21-19.66,38.75V252.48Z"/><path id="Vrat" class="cls-3" d="M133.74,112.72c-3.87,9.73-14,16.67-25.86,16.67-11.68,0-21.64-6.71-25.67-16.18,3-.86,9.55-4.06,9.94-15.55H119S121.41,115.72,133.74,112.72Z"/><path class="cls-4" d="M28.38,263l39.43-1.51V149.73s-9.11-46.29-23.12-21.17Q33.05,198.83,28.38,263Z"/><path class="cls-4" d="M186.63,263l-39.43-1.51V149.73s9.11-46.29,23.12-21.17Q182,198.83,186.63,263Z"/><path id="Koza-3" data-name="Koza" class="cls-2" d="M96.66,444.73l-23.3,3.16c2.74-1.77,4.5-3.16,4.5-3.16Z"/><path id="Koza-4" data-name="Koza" class="cls-2" d="M147.32,447.89,124,444.73h18.81S144.59,446.12,147.32,447.89Z"/><path id="cevlje" class="cls-5" d="M96.66,444.73v15.48H85.28v-4.42s-25.1,9.23-36.12,7.06c0,0-12.57-1.7,6.73-8.65,14.43-5.2,17.33-6.28,17.33-6.28l.13,0h0Z"/><path id="cevlje-2" data-name="cevlje" class="cls-5" d="M171.52,462.85c-11,2.17-36.12-7.06-36.12-7.06v4.42H124V444.73l23.3,3.16h0l.13,0s2.91,1.08,17.34,6.28C184.09,461.15,171.52,462.85,171.52,462.85Z"/><path class="cls-6" d="M61.14,239.42c.11-9.2,46.55,36.78,90.36,0"/><path id="Koza-5" data-name="Koza" class="cls-2" d="M102.91,8.07h6.22a28.62,28.62,0,0,1,28.62,28.62v38A31.74,31.74,0,0,1,106,106.44h0A31.74,31.74,0,0,1,74.29,74.71v-38A28.62,28.62,0,0,1,102.91,8.07Z"/><path class="cls-7" d="M97.26,53.9c.06-6.11-17.42-6.34-17.49-.23C79.71,59.19,97.19,59.42,97.26,53.9Z"/><path class="cls-7" d="M132.4,53.9c.07-6.11-17.42-6.34-17.49-.23C114.85,59.19,132.34,59.42,132.4,53.9Z"/><ellipse class="cls-8" cx="87.97" cy="53.57" rx="2.89" ry="3.14"/><ellipse class="cls-8" cx="123.66" cy="53.57" rx="2.89" ry="3.14"/><path id="Oci" class="cls-9" d="M78.68,54s7.43-8.1,20.58,0C99.26,54,87.83,40.31,78.68,54Z"/><path id="Oci-2" data-name="Oci" class="cls-9" d="M113.69,54s7.43-8.1,20.58,0C134.27,54,122.84,40.31,113.69,54Z"/><g id="Nos"><path class="cls-10" d="M107.63,74.7a19.4,19.4,0,0,1-6.39-1.45l.35-.84c1.85.77,7,2.38,8.71.53.24-.63-.69-5.73-1.44-9.83-1.6-8.72-2-11.54-1.29-12.18a.63.63,0,0,1,.59-.15l-.23.88a.28.28,0,0,0,.29-.1c-.41.77.71,6.91,1.53,11.39,1.41,7.71,1.74,10,1.22,10.61A4.4,4.4,0,0,1,107.63,74.7Z"/></g><path id="Obrve" class="cls-11" d="M99.8,46.89c-12.81-7-18.73-.22-18.79-.16l-1-.84c.27-.32,6.69-7.69,20.43-.16Z"/><path id="Obrve-2" data-name="Obrve" class="cls-11" d="M134,47.78c-12.81-7-18.73-.22-18.79-.15l-1-.85c.27-.32,6.69-7.69,20.43-.16Z"/><g id="ocala"><rect class="cls-12" x="113.23" y="47.2" width="21.94" height="14.51" rx="6.52"/><rect class="cls-12" x="78.54" y="47.2" width="21.94" height="14.51" rx="6.52"/><path class="cls-12" d="M100.48,54.92s7.67-6.29,12.75,0"/><line class="cls-12" x1="74.29" y1="49.42" x2="78.54" y2="54"/><line class="cls-12" x1="137.76" y1="48.84" x2="135.17" y2="54.46"/></g><path id="Lasje" class="cls-11" d="M82,37.1c3.94-6.07,9-10.88,15.74-13a18.17,18.17,0,0,1,3.16-.68,17.36,17.36,0,0,1,3.23-.12,32.56,32.56,0,0,1,4.52.14,33.41,33.41,0,0,1,4.53.74A19.57,19.57,0,0,1,117,25.3c10.72,3.67,14.52,16.05,16.21,26.8.23,1.4.39,2.79.51,4.13.32,1.07.63,2.13.92,3.2s.54,2.14.79,3.21c.48,2.16.87,4.33,1.2,6.56q.48,2.44.75,4.86c.18,1.61.29,3.22.34,4.83,1.3,8.94-.42,17.78,1.3,26.62,8.57-3.72,12-14.42,11.74-23.83.11-2,.2-4,.27-5.89.18-2.41.28-4.82.33-7.17s.13-4.86.11-7.28c0-7.27-.47-14.45-.48-20.83-.3-2.48-.69-4.95-1.18-7.39s-1.08-4.87-1.77-7.26a41.56,41.56,0,0,0-3.46-5.7,42.48,42.48,0,0,0-4.2-4.93A51.14,51.14,0,0,0,116.29,1.71a51.66,51.66,0,0,0-6.8-1.17A35.51,35.51,0,0,0,102.12,0,35.09,35.09,0,0,0,95,1,37.19,37.19,0,0,0,83.22,6.06,39.44,39.44,0,0,0,78.11,10a39.39,39.39,0,0,0-4.57,5.3,50.18,50.18,0,0,0-3.33,5.77q-.73,1.49-1.38,3c-.44,1-.84,2.05-1.21,3.1-1.33,6.6-3.86,12.79-4,19.64-.15,1.66-.26,3.33-.33,5a128.3,128.3,0,0,0,1.6,25c.48,3.74,1,7.24,1.56,10.39C68.1,96.68,69.76,103,69.76,103a13.18,13.18,0,0,0,5.81,0,7.5,7.5,0,0,0,4.13-3.26C80.76,96.67,82,93,80.89,89c-.25-1.93-.61-3.8-.91-5.45-.24-2.11-.49-4.46-.73-7-.47-4.66-1-9.42-1.2-14.18-.08-1.58-.12-3.17-.1-4.74,1-4.64.38-9.46,2.62-14.55A41.88,41.88,0,0,1,82,37.1Z"/><path id="Koza-6" data-name="Koza" class="cls-2" d="M137.22,48.53s8-2.42,5.65,10.52a111.07,111.07,0,0,1-5.65,21Z"/><path id="Koza-7" data-name="Koza" class="cls-2" d="M75.15,49.88s-8-2.42-5.65,10.53a110.8,110.8,0,0,0,5.65,21Z"/><ellipse id="Uhani" class="cls-13" cx="74.29" cy="78.74" rx="2.51" ry="2.72"/><ellipse id="Uhani-2" data-name="Uhani" class="cls-13" cx="138.98" cy="78.64" rx="2.51" ry="2.72"/><path class="cls-14" d="M120.23,83.23a11.61,11.61,0,0,1-5,6.18C114.31,85.52,97.17,87,97.11,87a14.64,14.64,0,0,1-2.61-3.81A66.22,66.22,0,0,0,120.23,83.23Z"/><path class="cls-15" d="M115.25,89.41h0a14.63,14.63,0,0,1-7.08,2,13.74,13.74,0,0,1-11-4.42C97.17,87,114.31,85.52,115.25,89.41Z"/><polygon class="cls-14" points="97.11 87.04 97.11 87.04 97.11 87.04 97.11 87.04"/><polygon id="Hlace" class="cls-5" points="160.97 259.48 160.97 280.69 143.7 444.73 123.97 444.73 111.48 314.83 96.7 444.73 76.06 444.73 60.12 280.69 60.12 259.48 160.97 259.48"/><path id="Majica" class="cls-16" d="M172.31,127.85c-3.67.44-8.19,5.67-12.44,18.74,0,3.76,2.17,27.95-5.47,38.82-1.65,17.09,4.44,56.53,6.57,74.07-43.09,35.64-98,1.23-100.85,0,2.08-17.29,5.23-57.27,3.63-74.14-8.52-11.65-8-39.25-8-39.25-4.21-12.69-8.65-17.81-12.27-18.24-9-1,13.27-15.66,27-15.66H81.8c.13.35.27.69.41,1,4,9.47,14,16.18,25.67,16.18,11.88,0,22-6.94,25.86-16.67.08-.18.15-.36.22-.53H145.3C159,112.19,181.3,126.8,172.31,127.85Z"/></g></g></svg>