<svg xmlns="http://www.w3.org/2000/svg" viewBox="0 0 221.67 467.43"><defs><style>.cls-1{fill:#dce6e0;}.cls-10,.cls-2,.cls-9{fill:#eed1bf;}.cls-3{fill:#fbc5aa;}.cls-4{fill:#007dac;}.cls-5{fill:#004e7c;}.cls-6{fill:#df584f;}.cls-7{fill:#44515c;}.cls-8{fill:#ebae8a;}.cls-10,.cls-9{stroke:#ebae8a;stroke-miterlimit:10;}.cls-9{stroke-width:0.87px;}.cls-10{stroke-width:0.44px;}.cls-11{fill:#c26b9b;}.cls-12{fill:#231f20;}.cls-13{fill:#ffcf01;}</style></defs><title>Asset 15</title><g id="Layer_2" data-name="Layer 2"><g id="Glavno_Besedilo" data-name="Glavno Besedilo"><ellipse class="cls-1" cx="110.83" cy="454.79" rx="110.83" ry="12.63"/><path class="cls-2" d="M51.16,245.31s-4.87,38.41,21.45,42.27V244.37Z"/><path class="cls-2" d="M183.42,246.36s4.87,38.41-21.45,42.27v-43.2Z"/><path class="cls-3" d="M90.44,110s11.16-.83,11.67-14.26h27.41s1.13,17.53,14.2,14.26l-1.19,10.07-26.7,10.63-23.19-6.22L87,113.25Z"/><path class="cls-4" d="M192.38,248,154,247.52V146s9.91-42.07,25.15-19.24C187.58,169.3,188.94,209.05,192.38,248Z"/><path class="cls-4" d="M43.81,248l35.8-.44V146.14s-9.91-42-25.15-19.2C46,169.44,47.25,209.12,43.81,248Z"/><path class="cls-5" d="M151.48,109.69h-10.6c-3.48,9.33-13.08,16-24.38,16s-20.9-6.71-24.37-16H81.52c-12.84,0-33.64,13.62-25.24,14.61,3.54.41,7.91,5.59,12,18.62V272.14h96.46V142.92c4.08-13,8.45-18.21,12-18.62C185.12,123.31,164.32,109.69,151.48,109.69Z"/><rect class="cls-6" x="68.12" y="272.14" width="97.15" height="24.28"/><polygon class="cls-6" points="116.74 296.42 99.15 441.5 82.3 436.84 68.12 296.42 116.74 296.42"/><polygon class="cls-6" points="165.27 296.42 149.28 436.84 131.78 440.88 116.91 296.42 165.27 296.42"/><path class="cls-7" d="M82,434.74c.81,7.57-5.69,8.72-5.69,8.72C49.6,441,55.43,454.23,55.43,454.23H80.91l18.33-.13V440.88Z"/><path class="cls-7" d="M149.66,434.39c-.84,7.84,5.89,9,5.89,9,27.61-2.57,21.57,11.14,21.57,11.14H131.79V440.88Z"/><path class="cls-2" d="M112.71,5.61H120a33.63,33.63,0,0,1,33.63,33.63V65.72A37.29,37.29,0,0,1,116.37,103h0A37.29,37.29,0,0,1,79.08,65.72V39.24A33.63,33.63,0,0,1,112.71,5.61Z"/><path class="cls-8" d="M88.45,51.83s7.57-7.61,21,0C109.41,51.83,97.76,39,88.45,51.83Z"/><path class="cls-8" d="M124.12,51.83s7.57-7.61,21,0C145.09,51.83,133.44,39,124.12,51.83Z"/><path class="cls-9" d="M112.29,68.93s6.06,3.07,8,.45c.86-1.14-3.77-23.74-2.26-23.27"/><path class="cls-10" d="M90.3,41.5s6.3-6.91,20,0"/><path class="cls-10" d="M125.11,42.34s6.3-6.91,20,0"/><path class="cls-2" d="M79.61,43.58s-8.11-2.27-5.75,9.88a97.81,97.81,0,0,0,5.75,19.67Z"/><path class="cls-2" d="M152.06,43.58s8.11-2.27,5.75,9.88a97.81,97.81,0,0,1-5.75,19.67Z"/><path class="cls-8" d="M130.23,86.24a46,46,0,0,0-5.94-2.42,22.45,22.45,0,0,0-6-1.11,13.59,13.59,0,0,0-3,.18,14.06,14.06,0,0,0-2.9.75,23.14,23.14,0,0,0-5.45,3.13l-.31-.27a12.7,12.7,0,0,1,4.9-4.74,13.11,13.11,0,0,1,6.84-1.52A17.08,17.08,0,0,1,125,82a17.82,17.82,0,0,1,5.46,3.94Z"/><rect class="cls-11" x="81.84" y="138.53" width="37.63" height="67.04" rx="16.31"/><rect class="cls-11" x="126.33" y="203.14" width="25.73" height="45.84" rx="11.15"/><path class="cls-12" d="M115.35,21.36s5.24,10.4,31.93,31.75c5.44,3.81.36,42.84-16.61,47.05l27.57,10s17.31-42.48-10.39-94.74A37.86,37.86,0,0,0,116.37,0s-35-1.13-39.85,28.09L75.35,43.41S103.08,37.94,115.35,21.36Z"/><path class="cls-12" d="M77.17,25.05S53.89,97.38,94.46,107.34"/><rect class="cls-13" x="72.6" y="40.8" width="8.51" height="2.61"/></g></g></svg>