<svg xmlns="http://www.w3.org/2000/svg" viewBox="0 0 161.16 394.92"><defs><style>.cls-1{fill:#dce6e0;}.cls-2{fill:#eed1bf;}.cls-3{fill:#fbc5aa;}.cls-4{fill:#d8dcec;}.cls-5{fill:#074368;}.cls-12,.cls-6{fill:none;stroke-miterlimit:10;}.cls-6{stroke:#c1c0db;stroke-width:0.58px;}.cls-7{fill:#fff;}.cls-8{fill:#514835;}.cls-9{fill:#cabcdc;}.cls-10{fill:#ebaf89;}.cls-11{fill:#863d11;}.cls-12{stroke:#231f20;stroke-width:0.36px;}.cls-13{fill:#c4463a;}.cls-14{fill:#200600;}.cls-15{fill:#d55227;}.cls-16{fill:#00ac65;}</style></defs><title>Asset 2</title><g id="Layer_2" data-name="Layer 2"><g id="Glavno_Besedilo" data-name="Glavno Besedilo"><ellipse class="cls-1" cx="80.58" cy="385.74" rx="80.58" ry="9.18"/><path id="Koza" class="cls-2" d="M27.62,182.59s-3.35,26.4,14.74,29V182Z"/><path id="Koza-2" data-name="Koza" class="cls-2" d="M132.4,185.54s3.35,26.4-14.74,29.05v-29.7Z"/><path id="Vrat" class="cls-3" d="M97.84,84.51C94.94,91.8,87.36,97,78.45,97c-8.75,0-16.23-5-19.24-12.13,2.25-.65,7.16-3,7.45-11.66H86.75S88.6,86.76,97.84,84.51Z"/><path class="cls-4" d="M18.85,192.77l29.56-1.14V112.26S41.58,77.55,31.08,96.39C25.26,131.51,21.22,160.67,18.85,192.77Z"/><path class="cls-4" d="M137.49,192.77l-29.56-1.14V112.26s6.83-34.71,17.34-15.87C131.09,131.51,135.12,160.67,137.49,192.77Z"/><path id="Koza-3" data-name="Koza" class="cls-2" d="M70,369.94l-17.47,2.37c2-1.33,3.38-2.37,3.38-2.37Z"/><path id="Koza-4" data-name="Koza" class="cls-2" d="M108,372.31l-17.47-2.37h14.1S106,371,108,372.31Z"/><path id="cevlje" class="cls-5" d="M70,369.94v11.61H61.51v-3.32s-18.82,6.92-27.08,5.29c0,0-9.42-1.27,5-6.48,10.82-3.9,13-4.71,13-4.71h.1Z"/><path id="cevlje-2" data-name="cevlje" class="cls-5" d="M126.16,383.52c-8.25,1.63-27.08-5.29-27.08-5.29v3.32H90.55V369.94L108,372.31h.1s2.18.81,13,4.71C135.59,382.25,126.16,383.52,126.16,383.52Z"/><path class="cls-6" d="M43.41,175.1c.08-6.89,34.9,27.57,67.75,0"/><path id="Koza-5" data-name="Koza" class="cls-2" d="M74.73,6h4.67a21.46,21.46,0,0,1,21.46,21.46V56A23.79,23.79,0,0,1,77.06,79.8h0A23.79,23.79,0,0,1,53.27,56V27.51A21.46,21.46,0,0,1,74.73,6Z"/><path class="cls-7" d="M70.49,40.41c.05-4.58-13.06-4.75-13.11-.17C57.33,44.38,70.44,44.55,70.49,40.41Z"/><path class="cls-7" d="M96.84,40.41c0-4.58-13.06-4.75-13.11-.17C83.68,44.38,96.79,44.55,96.84,40.41Z"/><ellipse class="cls-8" cx="63.52" cy="40.16" rx="2.17" ry="2.35"/><ellipse class="cls-8" cx="90.28" cy="40.16" rx="2.17" ry="2.35"/><path id="Oci" class="cls-9" d="M56.56,40.51s5.57-6.08,15.43,0C72,40.51,63.42,30.22,56.56,40.51Z"/><path id="Oci-2" data-name="Oci" class="cls-9" d="M82.81,40.51s5.57-6.08,15.42,0C98.23,40.51,89.66,30.22,82.81,40.51Z"/><g id="Nos"><path class="cls-10" d="M78.26,56a14.73,14.73,0,0,1-4.79-1.09l.26-.63c1.39.58,5.27,1.78,6.54.4.18-.48-.52-4.3-1.08-7.37-1.2-6.54-1.49-8.66-1-9.14a.47.47,0,0,1,.44-.11l-.17.66a.19.19,0,0,0,.21-.08c-.3.58.54,5.18,1.16,8.54,1,5.79,1.3,7.53.91,8A3.31,3.31,0,0,1,78.26,56Z"/></g><path id="Obrve" class="cls-11" d="M72.39,35.15c-9.6-5.26-14-.16-14.08-.11l-.76-.64c.2-.24,5-5.76,15.32-.11Z"/><path id="Obrve-2" data-name="Obrve" class="cls-11" d="M98,35.82c-9.6-5.26-14-.17-14.09-.11l-.76-.64c.2-.24,5-5.76,15.32-.12Z"/><g id="ocala"><rect class="cls-12" x="82.46" y="35.39" width="16.45" height="10.88" rx="4.89"/><rect class="cls-12" x="56.46" y="35.39" width="16.45" height="10.88" rx="4.89"/><path class="cls-12" d="M72.91,41.17s5.74-4.71,9.55,0"/><line class="cls-12" x1="53.27" y1="37.05" x2="56.46" y2="40.48"/><line class="cls-12" x1="100.85" y1="36.62" x2="98.91" y2="40.83"/></g><path id="Lasje" class="cls-11" d="M59,27.82c3-4.55,6.76-8.16,11.8-9.77a14.94,14.94,0,0,1,2.37-.51,14,14,0,0,1,2.42-.09,25.61,25.61,0,0,1,3.39.11,26.45,26.45,0,0,1,3.4.55,14.43,14.43,0,0,1,2.89.86c8,2.75,10.89,12,12.15,20.09.18,1,.3,2.09.39,3.1.24.8.47,1.6.68,2.4s.42,1.6.6,2.4c.36,1.62.65,3.25.9,4.92.24,1.22.43,2.44.56,3.64s.22,2.42.26,3.62c1,6.71-.32,13.34,1,20,6.42-2.79,9-10.81,8.8-17.86.09-1.48.15-3,.21-4.42.13-1.81.2-3.61.24-5.37s.1-3.65.09-5.46c0-5.45-.36-10.84-.36-15.62-.23-1.86-.52-3.71-.89-5.54s-.81-3.65-1.33-5.44A29.75,29.75,0,0,0,106,15.12a32.17,32.17,0,0,0-3.15-3.7A38.49,38.49,0,0,0,79.66.41,25.93,25.93,0,0,0,74.13,0,26.93,26.93,0,0,0,68.8.74,27.92,27.92,0,0,0,60,4.54a29.46,29.46,0,0,0-3.82,3,28.56,28.56,0,0,0-3.43,4,38.88,38.88,0,0,0-2.5,4.33c-.37.74-.71,1.5-1,2.27s-.62,1.54-.91,2.33c-1,4.94-2.89,9.58-3,14.72-.12,1.24-.2,2.49-.25,3.75a95.54,95.54,0,0,0,1.2,18.74c.36,2.8.76,5.43,1.17,7.79,1.21,7.1,2.46,11.85,2.46,11.85a9.89,9.89,0,0,0,4.36,0,5.66,5.66,0,0,0,3.1-2.44c.79-2.36,1.75-5.16.89-8.1-.19-1.45-.46-2.86-.69-4.09-.18-1.59-.36-3.34-.54-5.21-.35-3.5-.73-7.07-.9-10.63C56,45.62,56,44.43,56,43.25c.76-3.48.29-7.09,2-10.91A31.48,31.48,0,0,1,59,27.82Z"/><path id="Koza-6" data-name="Koza" class="cls-2" d="M100.45,36.38s6-1.81,4.23,7.89A83.28,83.28,0,0,1,100.45,60Z"/><path id="Koza-7" data-name="Koza" class="cls-2" d="M53.91,37.4s-6-1.81-4.23,7.89A83.58,83.58,0,0,0,53.91,61Z"/><ellipse id="Uhani" class="cls-13" cx="53.27" cy="59.03" rx="1.88" ry="2.04"/><ellipse id="Uhani-2" data-name="Uhani" class="cls-13" cx="101.77" cy="58.96" rx="1.88" ry="2.04"/><path class="cls-14" d="M87.71,62.4A8.67,8.67,0,0,1,84,67c-.7-2.91-13.55-1.78-13.59-1.77a11,11,0,0,1-2-2.86A49.82,49.82,0,0,0,87.71,62.4Z"/><path class="cls-15" d="M84,67h0a11,11,0,0,1-5.31,1.54,10.3,10.3,0,0,1-8.28-3.31S83.27,64.12,84,67Z"/><polygon class="cls-14" points="70.38 65.25 70.38 65.25 70.38 65.25 70.38 65.25"/><polygon id="Hlace" class="cls-5" points="128.66 190 122.66 215 105.31 369.94 90.52 369.94 81.15 253.94 70.07 369.94 54.6 369.94 37.66 219 32.66 190 128.66 190"/><path id="Majica" class="cls-16" d="M126.76,95.85c-2.75.33-6.14,4.26-9.33,14.05,0,2.82,1.62,16.56-4.1,24.71-1.24,12.81,13.73,42.25,15.33,55.39-32.3,26.73-93.86.93-96,0,1.56-13,13.91-42.8,12.71-55.45-6.39-8.73-6-25-6-25-3.16-9.52-6.49-13.35-9.2-13.68-6.74-.78,10-11.74,20.25-11.74h8.5c.1.26.2.52.31.77C62.22,92,69.7,97,78.45,97c8.91,0,16.49-5.21,19.39-12.5.06-.13.11-.27.16-.4h8.51C116.81,84.11,133.5,95.07,126.76,95.85Z"/></g></g></svg>