<svg xmlns="http://www.w3.org/2000/svg" viewBox="0 0 156.4 72.52"><defs><style>.cls-1{fill:#333132;}</style></defs><g id="Layer_2" data-name="Layer 2"><g id="Glavno_Besedilo" data-name="Glavno Besedilo"><path class="cls-1" d="M120.12,0c12,3.6,23.84,8.32,36.28,6.58-8.78,7-17.55,13.8-20.65,25.37-3.32.42-6.58.43-9.54,1.29-5.76,1.67-9,6.29-10.9,12a45.28,45.28,0,0,0-1.76,8.28c-.22,1.67-.82,2.15-2.37,2.18-8.12.19-15.43,2.44-20.91,8.36-2.25,2.44-3.83,5.57-5.76,8.44-10-13.28-21.83-19.69-36.75-14a46.53,46.53,0,0,0-2.15-5.09,53.75,53.75,0,0,0-4.84-7.65c-4.39-5.38-10.46-6.79-16.62-4.2-.71.3-1.4.64-2.34,1.07-1.31-5.47-3.06-10.62-7-14.78-4.16-4.39-9-5.59-14.81-5.06.87-.69,1.27-1.06,1.72-1.35C10.29,16,18.89,10.6,27.42,5.11c1.47-.94,2.25-.83,3.56.85C38.75,15.9,47,25.31,57.4,32.23c5.22,3.47,9.72,4.92,14.46,4.58l-3.58-16a13,13,0,0,1,2.08,1.51c2.4,2.75,4.93,3.07,8,2.25,4.62-1.24,4.69-1,5.13-6.27A15.75,15.75,0,0,1,84.26,14c2.45,6.24,4.89,12.49,7.52,19.22C105.38,25.86,116.45,16.61,120.12,0Z"/></g></g></svg>