<svg xmlns="http://www.w3.org/2000/svg" xmlns:xlink="http://www.w3.org/1999/xlink" viewBox="0 0 100.16 257.03"><defs><style>.cls-1{fill:none;}.cls-2{fill:#f6871f;}.cls-3{clip-path:url(#clip-path);}.cls-4{fill:#d7771a;}.cls-5{fill:#009764;}</style><clipPath id="clip-path"><path class="cls-1" d="M30.16,81.22H62.71a4.61,4.61,0,0,1,4.59,5L51,252.87c-.54,5.54-8.62,5.54-9.17,0L25.58,86.27A4.6,4.6,0,0,1,30.16,81.22Z"/></clipPath></defs><g id="Layer_2" data-name="Layer 2"><g id="Glavno_Besedilo" data-name="Glavno Besedilo"><path class="cls-2" d="M30.16,81.22H62.71a4.61,4.61,0,0,1,4.59,5L51,252.87c-.54,5.54-8.62,5.54-9.17,0L25.58,86.27A4.6,4.6,0,0,1,30.16,81.22Z"/><g class="cls-3"><polygon class="cls-4" points="37.13 101.17 79.37 99.49 79.37 103.59 37.13 101.17"/><polygon class="cls-4" points="41.87 135.22 84.12 133.55 84.12 137.64 41.87 135.22"/><polygon class="cls-4" points="41.04 176.17 83.28 174.49 83.28 178.59 41.04 176.17"/><polygon class="cls-4" points="45.78 210.22 88.03 208.55 88.03 212.64 45.78 210.22"/><polygon class="cls-4" points="48.18 157.03 6.13 161.42 5.86 157.33 48.18 157.03"/><polygon class="cls-4" points="49.29 195.75 7.24 200.13 6.98 196.04 49.29 195.75"/><polygon class="cls-4" points="50.45 121.52 8.18 121.66 8.32 117.57 50.45 121.52"/></g><path class="cls-5" d="M46.54,81.34c.23-16.29,17.54-19.08,28.71-26.9A45.58,45.58,0,0,0,91.44,33.79c1.12-1.68,5.58-1.12,7.26-3.35,3.35-5,.56-11.17-4.47-13.4-5-2.52-9.77-1.82-14.45-.42-4.53,2.09-9.56,3.77-14.58,3.21-7.82-.56-4.47-10.61-7.82-15.08C53.47-.83,44.54-1.39,39.52,2.52c-6.14,3.91-2.24,14-10.05,16.75-6.7,2.23-16.38,0-22.75,2.23a9.31,9.31,0,0,0-4.06,2.65c-3.9,4.61-3.34,11.31.57,15.78a19.36,19.36,0,0,0,8.12,5.18c3.6,2.07,8.63,1,11.42,3.75,2.79,3.91-1.68,10,3.35,11.72C35.61,63.93,40.63,71.75,41,81.28"/></g></g></svg>