<svg xmlns="http://www.w3.org/2000/svg" viewBox="0 0 135.72 141.04"><defs><style>.cls-1{fill:#00a04f;}.cls-2{fill:#00a657;}.cls-3{fill:#28b67a;}.cls-4{fill:#00ac65;}</style></defs><g id="Layer_2" data-name="Layer 2"><g id="Glavno_Besedilo" data-name="Glavno Besedilo"><path class="cls-1" d="M0,0S53,55.94,31.54,141h25S67.28,70.52,0,0Z"/><path class="cls-2" d="M13.09,0s53,55.94,31.54,141h25S80.37,70.52,13.09,0Z"/><path class="cls-1" d="M26.19,0s53,55.94,31.54,141h25S93.46,70.52,26.19,0Z"/><path class="cls-3" d="M39.28,0s53,55.94,31.54,141h25S106.56,70.52,39.28,0Z"/><path class="cls-4" d="M52.37,0s53,55.94,31.54,141h25S119.65,70.52,52.37,0Z"/><path class="cls-2" d="M65.47,0s53,55.94,31.54,141h25S132.74,70.52,65.47,0Z"/><path class="cls-1" d="M78.56,0s53,55.94,31.54,141h25S145.84,70.52,78.56,0Z"/></g></g></svg>