<svg xmlns="http://www.w3.org/2000/svg" xmlns:xlink="http://www.w3.org/1999/xlink" viewBox="0 0 302.07 141.42"><defs><style>.cls-1{fill:none;}.cls-2,.cls-3{fill:#ebb6d4;}.cls-3{stroke:#df83b6;stroke-miterlimit:10;stroke-width:0.7px;}.cls-4{clip-path:url(#clip-path);}.cls-5{fill:#e292be;}</style><clipPath id="clip-path" transform="translate(41.19 18.5)"><path class="cls-1" d="M223.13,38.93c.34-2.47-.63-3.68-2.6-4.17a6.59,6.59,0,0,1-4.77-4.66C212,19.61,204,13.33,194.4,9c-19-8.61-38.68-11.38-59.26-6.71S93.81,10,72.58,10c-6.78,0-14.08,1-20.22,3.69-7.13,3.1-12,1.86-16.86-3.32a13.61,13.61,0,0,0-3.64-2.71,24.59,24.59,0,0,0-4.53-1.15l1.8,6.23a96.29,96.29,0,0,0-9.6-1.34c-3.09-.13-4.58,1.7-3.46,4,2.32,4.83,4.75,9.62,7.48,14.23,1.36,2.3,1.91,4.4.29,6.48C19.25,42,13.28,45.72,5.67,46c-4.74.18-5.1.21-5.46,5C.08,52.63.14,54.27,0,55.9c-.24,3.3,1.61,4.64,4.47,5.73A55.73,55.73,0,0,1,16.1,67.15c7.32,4.94,15.19,7.84,24,7.74a64.31,64.31,0,0,1,24,4.32c3.52,1.36,8.42,1.51,10.35,4,2.13,2.76,1.69,7.58,2.12,11.53.69,6.3-.29,12.13-5.23,16.75a20.38,20.38,0,0,0-3.27,4.12c-1.54,2.46-.85,3.61,2.07,3.8,5.67.36,7.62-1.14,10.63-8.3,3.06,1.13,4-.5,4.08-3.26.1-2.46.26-4.92.58-7.36a41.7,41.7,0,0,1,1.25-4.86,12.39,12.39,0,0,1,3.14,12.65c-1,3.56-2.79,6.89-4.29,10.3-.61,1.38-1.74,2.73.4,3.8,2.46,1.24,7.77.14,9.47-2,1.44-1.79,1.13-5.08,4.59-5.23.32,0,.82-1.62.81-2.49,0-2.33-.21-4.67-.38-7-.4-5.59-1.36-11.21-1.13-16.77.35-8.55,3.82-11.37,12.37-9.82,10.75,1.94,21.48.81,32.22,1,7,.11,13.7-.76,19.86-4.62,2.92-1.83,4.86-.59,6.05,2.85a17.75,17.75,0,0,0,2.28,5c4.09,5.28,4.75,10.07,1.36,15.87a101.91,101.91,0,0,1-6.37,8.81c-2.05,2.77-4.14,5.52-6.21,8.29l.49,1.28c3.36-.39,7.32.18,9.9-1.44s3.77-5.44,5.58-8.3c3.83,2.58,3.7,2.52,5.49-1.4,3.07-6.75,6.33-13.4,9.51-20.1,11.31,5.37,15.19,16.45,10.12,26.83-1.25,2.57-2.2,5.28-3.67,8.83a56.6,56.6,0,0,0,6.74-.4c3-.58,6.86-.43,6.55-5.29a1.31,1.31,0,0,1,.7-1c4.07-.7,3-3.86,2.36-6a23.53,23.53,0,0,1,.39-14.47c1.07-3.37.93-6.72-1.65-9.56-1.33-1.48-2.72-2.92-3.94-4.48-1.75-2.25-2.65-4.72-1.16-7.49,5.3-9.82,7.22-20.46,7.56-31.46.07-2.28.95-3.41,2.85-3.43.09,2.07-.21,4,.36,5.69C219.08,44.11,222.27,45.35,223.13,38.93Z"/></clipPath></defs><g id="Layer_2" data-name="Layer 2"><g id="Glavno_Besedilo" data-name="Glavno Besedilo"><path class="cls-2" d="M223.13,38.93c.34-2.47-.63-3.68-2.6-4.17a6.59,6.59,0,0,1-4.77-4.66C212,19.61,204,13.33,194.4,9c-19-8.61-38.68-11.38-59.26-6.71S93.81,10,72.58,10c-6.78,0-14.08,1-20.22,3.69-7.13,3.1-12,1.86-16.86-3.32a13.61,13.61,0,0,0-3.64-2.71,24.59,24.59,0,0,0-4.53-1.15l1.8,6.23a96.29,96.29,0,0,0-9.6-1.34c-3.09-.13-4.58,1.7-3.46,4,2.32,4.83,4.75,9.62,7.48,14.23,1.36,2.3,1.91,4.4.29,6.48C19.25,42,13.28,45.72,5.67,46c-4.74.18-5.1.21-5.46,5C.08,52.63.14,54.27,0,55.9c-.24,3.3,1.61,4.64,4.47,5.73A55.73,55.73,0,0,1,16.1,67.15c7.32,4.94,15.19,7.84,24,7.74a64.31,64.31,0,0,1,24,4.32c3.52,1.36,8.42,1.51,10.35,4,2.13,2.76,1.69,7.58,2.12,11.53.69,6.3-.29,12.13-5.23,16.75a20.38,20.38,0,0,0-3.27,4.12c-1.54,2.46-.85,3.61,2.07,3.8,5.67.36,7.62-1.14,10.63-8.3,3.06,1.13,4-.5,4.08-3.26.1-2.46.26-4.92.58-7.36a41.7,41.7,0,0,1,1.25-4.86,12.39,12.39,0,0,1,3.14,12.65c-1,3.56-2.79,6.89-4.29,10.3-.61,1.38-1.74,2.73.4,3.8,2.46,1.24,7.77.14,9.47-2,1.44-1.79,1.13-5.08,4.59-5.23.32,0,.82-1.62.81-2.49,0-2.33-.21-4.67-.38-7-.4-5.59-1.36-11.21-1.13-16.77.35-8.55,3.82-11.37,12.37-9.82,10.75,1.94,21.48.81,32.22,1,7,.11,13.7-.76,19.86-4.62,2.92-1.83,4.86-.59,6.05,2.85a17.75,17.75,0,0,0,2.28,5c4.09,5.28,4.75,10.07,1.36,15.87a101.91,101.91,0,0,1-6.37,8.81c-2.05,2.77-4.14,5.52-6.21,8.29l.49,1.28c3.36-.39,7.32.18,9.9-1.44s3.77-5.44,5.58-8.3c3.83,2.58,3.7,2.52,5.49-1.4,3.07-6.75,6.33-13.4,9.51-20.1,11.31,5.37,15.19,16.45,10.12,26.83-1.25,2.57-2.2,5.28-3.67,8.83a56.6,56.6,0,0,0,6.74-.4c3-.58,6.86-.43,6.55-5.29a1.31,1.31,0,0,1,.7-1c4.07-.7,3-3.86,2.36-6a23.53,23.53,0,0,1,.39-14.47c1.07-3.37.93-6.72-1.65-9.56-1.33-1.48-2.72-2.92-3.94-4.48-1.75-2.25-2.65-4.72-1.16-7.49,5.3-9.82,7.22-20.46,7.56-31.46.07-2.28.95-3.41,2.85-3.43.09,2.07-.21,4,.36,5.69C219.08,44.11,222.27,45.35,223.13,38.93Z" transform="translate(41.19 18.5)"/><path class="cls-3" d="M31.68,35.77S37,46,45.4,36.64" transform="translate(41.19 18.5)"/><g class="cls-4"><path class="cls-5" d="M63.5,1c-.82,5.62,17.42,12.29,16.18,23.91-.45,4.15-3,5.44-2.11,8.08,2.56,7.55,27.81,9.64,33.75.35C114.56,28.29,110,23,113.78,19c4.3-4.62,11.45.95,19.34-3.87,6.34-3.88,5.87-10,11.25-10.9,4.33-.69,6.12,3.07,10.89,2.46s9.86-5.34,9.5-8.08C163.26-12.9,65.36-11.66,63.5,1Z" transform="translate(41.19 18.5)"/><path class="cls-5" d="M84.71,69.81c-.82,5.62,17.43,12.29,16.18,23.91-.45,4.15-3,5.44-2.11,8.08,2.56,7.55,27.81,9.64,33.75.36,3.24-5.08-1.32-10.37,2.46-14.42,4.31-4.62,11.46,1,19.34-3.87,6.34-3.87,5.88-10,11.25-10.9,4.33-.69,6.12,3.07,10.9,2.47s9.85-5.34,9.49-8.09C184.48,55.89,86.57,57.13,84.71,69.81Z" transform="translate(41.19 18.5)"/><path class="cls-5" d="M184.77-8.65c-4.44,3.55,4.34,20.88-4.51,28.51-3.16,2.73-5.91,1.93-7.06,4.47-3.28,7.27,13.74,26,24.42,23.3,5.84-1.49,6.12-8.47,11.64-8.85,6.3-.43,7.72,8.51,16.77,10.38,7.28,1.5,11.15-3.32,15.66-.28,3.64,2.44,2.38,6.42,6.28,9.23s10.85,2.83,12.46.58C267.16,49.29,194.78-16.64,184.77-8.65Z" transform="translate(41.19 18.5)"/><path class="cls-5" d="M-37.76,80.49c5.27,2.13,16-14,27-10.07,3.93,1.41,4.59,4.2,7.36,4,8-.72,15.93-24.76,8.31-32.72C.78,37.31-5.43,40.49-8.48,35.87c-3.47-5.28,3.63-10.91.81-19.71C-9.94,9.08-16,8.08-15.61,2.66c.35-4.37,4.43-5.23,5-10s-2.86-10.83-5.61-11.13C-27.75-19.74-49.65,75.7-37.76,80.49Z" transform="translate(41.19 18.5)"/></g></g></g></svg>