<svg xmlns="http://www.w3.org/2000/svg" viewBox="0 0 82.21 191.14"><defs><style>.cls-1{fill:#a39f9a;}.cls-2{fill:#c0bdba;}</style></defs><g id="Layer_2" data-name="Layer 2"><g id="Glavno_Besedilo" data-name="Glavno Besedilo"><path class="cls-1" d="M45.28,191.08c-17.16-1.74-25.73-41.72-28.62-55.2-5.5-25.66,0-27-5.61-54.83C5,51.07-3,44.8,1.17,30.2A45.75,45.75,0,0,1,15.48,8.56a42.14,42.14,0,0,0-4,9.31c-4.19,14.61,3.82,20.87,9.89,50.86,5.62,27.78.1,29.16,5.61,54.83C29.85,137,38.42,177,55.58,178.75c4,.41,8.14-1.34,11.87-4.26C62.4,183.37,53.72,191.93,45.28,191.08Z"/><path class="cls-2" d="M55.58,178.75C38.42,177,29.85,137,27,123.56c-5.51-25.67,0-27-5.61-54.83-6.07-30-14.08-36.25-9.89-50.86a42.14,42.14,0,0,1,4-9.31C21.35,3.61,28.37.31,35.62,0,57-.84,75.93,24.72,80.9,46.78,88.16,78.91,62.48,88.67,68.17,130c2.13,15.52,7.39,26,1.55,39.91a44.32,44.32,0,0,1-2.27,4.59C63.72,177.41,59.62,179.16,55.58,178.75Z"/></g></g></svg>