<svg xmlns="http://www.w3.org/2000/svg" viewBox="0 0 90.66 152.03"><defs><style>.cls-1{fill:#3b3a3e;stroke:#704b43;stroke-width:6.15px;}.cls-1,.cls-4,.cls-5{stroke-miterlimit:10;}.cls-2{fill:#009055;}.cls-3{fill:#007445;}.cls-4,.cls-5{fill:none;stroke:#49a579;}.cls-4{stroke-width:3.69px;}.cls-5{stroke-width:3.35px;}</style></defs><g id="Layer_2" data-name="Layer 2"><g id="Glavno_Besedilo" data-name="Glavno Besedilo"><line class="cls-1" x1="49.02" y1="152.03" x2="49.02" y2="65.27"/><path class="cls-2" d="M90.66,41c0-12.08-10.14-21.88-22.66-21.88a24,24,0,0,0-3.31.23C63.38,8.44,53.8,0,42.19,0,29.67,0,19.52,9.8,19.52,21.89A20.8,20.8,0,0,0,20.16,27C8.82,28.24,0,37.51,0,48.78A21.86,21.86,0,0,0,13.31,68.72,31.07,31.07,0,0,0,19.15,81a17.49,17.49,0,0,0-2.92,9.68c0,9.94,8.34,18,18.64,18a18.57,18.57,0,0,0,18-13.12,19.09,19.09,0,0,0,9.26,2.38c10.3,0,18.65-8.06,18.65-18A17.49,17.49,0,0,0,77.2,69.37a30.75,30.75,0,0,0,.92-7.47c0-.45,0-.89,0-1.33A21.82,21.82,0,0,0,90.66,41Z"/><path class="cls-3" d="M8,32.08a1.16,1.16,0,0,1,0-.18l-.29.23Z"/><path class="cls-3" d="M67.7,19.09a24,24,0,0,0-3.3.23C63.08,8.44,53.51,0,41.89,0A22.47,22.47,0,0,0,30.23,3.29c.51,0,.81-.11,1.32-.11,12.42,0,22.66,9,24.06,20.66a25.88,25.88,0,0,1,3.54-.25c13.38,0,24.23,10.48,24.23,23.4a22.68,22.68,0,0,1-3.84,12.64A21.73,21.73,0,0,0,90.37,41C90.37,28.89,80.22,19.09,67.7,19.09Z"/><path class="cls-3" d="M77.83,61.9h0a24.12,24.12,0,0,1-7.89,6c0,.48,0,1,0,1.42a32.93,32.93,0,0,1-1,8,18.74,18.74,0,0,1,2.56,17.9A17.88,17.88,0,0,0,80.43,79.9,17.49,17.49,0,0,0,76.9,69.37,30.76,30.76,0,0,0,77.83,61.9Z"/><path class="cls-4" d="M20.5,29.82s-28,6.6-10,35.45"/><path class="cls-5" d="M32.68,5.39s-12.44,6.07-9.4,21.26"/></g></g></svg>