<svg xmlns="http://www.w3.org/2000/svg" xmlns:xlink="http://www.w3.org/1999/xlink" viewBox="0 0 282.58 781.47"><defs><style>.cls-1,.cls-16,.cls-17{fill:none;}.cls-1{stroke:#065;stroke-width:6.37px;}.cls-1,.cls-16,.cls-17,.cls-8{stroke-miterlimit:10;}.cls-2{clip-path:url(#clip-path);}.cls-3{fill:#dce6e0;}.cls-4{fill:#eed1bf;}.cls-5{fill:#fbc5aa;}.cls-6{fill:#d8dcec;}.cls-7{fill:#065;}.cls-8{fill:#00a881;stroke:#489086;stroke-width:0.97px;}.cls-9{fill:#7c343c;}.cls-10{fill:#44515c;}.cls-11{fill:#489086;}.cls-12{fill:#fff;}.cls-13{fill:#514835;}.cls-14{fill:#ebaf88;}.cls-15{fill:#c1c0db;}.cls-16,.cls-17{stroke:#231f20;}.cls-16{stroke-width:0.63px;}.cls-17{stroke-width:0.57px;}.cls-18{fill:#301812;}.cls-19{fill:#d55227;}</style><clipPath id="clip-path" transform="translate(36.35)"><circle class="cls-1" cx="112.19" cy="112.19" r="109"/></clipPath></defs><title>Asset 13</title><g id="Layer_2" data-name="Layer 2"><g id="Glavno_Besedilo" data-name="Glavno Besedilo"><g class="cls-2"><ellipse class="cls-3" cx="141.29" cy="765.37" rx="141.29" ry="16.1"/><path class="cls-4" d="M13.08,391.34s-5.62,44.3,24.73,48.75V390.26Z" transform="translate(36.35)"/><path class="cls-4" d="M212.55,391.4s5.62,44.3-24.74,48.75V390.32Z" transform="translate(36.35)"/><path class="cls-5" d="M74.79,176.91s15.89-1.19,16.62-20.3h39s1.6,25,20.21,20.3L149,191.25,111,206.4l-33-8.86-8-16Z" transform="translate(36.35)"/><path class="cls-6" d="M227.25,392l-49.6-2.17V230.22s11.46-66.13,29.09-30.24Q221.38,300.36,227.25,392Z" transform="translate(36.35)"/><path class="cls-6" d="M-1.5,392l49.6-2.17V230.22S36.64,164.09,19,200Q4.37,300.36-1.5,392Z" transform="translate(36.35)"/><path class="cls-7" d="M167.31,176.91h-16.5c-5.41,14-20.35,24.11-37.93,24.11s-32.53-10.09-37.94-24.11H58.44c-20,0-52.37,20.48-39.3,22,5.51.62,12.32,8.41,18.67,28L25.53,403.1l87.35-.45h87.58l-12.52-175.8c6.35-19.58,13.16-27.37,18.67-28C219.68,197.39,187.3,176.91,167.31,176.91Z" transform="translate(36.35)"/><line class="cls-8" x1="149.23" y1="402.65" x2="149.23" y2="201.02"/><rect class="cls-9" x="61.88" y="402.65" width="174.93" height="50.65"/><polygon class="cls-9" points="149.23 452.94 124.42 743.29 96.06 743.29 61.88 452.94 149.23 452.94"/><polygon class="cls-9" points="236.81 452.94 199.49 743.29 171.28 743.29 149.49 452.94 236.81 452.94"/><path class="cls-10" d="M134.93,743.29V765.2h73.3s9.68-22-34.55-17.85c0,0-10.77-1.91-9.43-14.46" transform="translate(36.35)"/><path class="cls-10" d="M88,743.29V765.2H14.66s-9.68-22,34.55-17.85c0,0,10.78-1.91,9.44-14.46" transform="translate(36.35)"/><circle class="cls-11" cx="161.81" cy="238.14" r="3.79"/><circle class="cls-11" cx="137.03" cy="238.14" r="3.79"/><circle class="cls-11" cx="161.81" cy="266.66" r="3.79"/><circle class="cls-11" cx="137.03" cy="266.66" r="3.79"/><circle class="cls-11" cx="161.81" cy="295.18" r="3.79"/><circle class="cls-11" cx="137.03" cy="295.18" r="3.79"/><circle class="cls-11" cx="161.81" cy="323.7" r="3.79"/><circle class="cls-11" cx="137.03" cy="323.7" r="3.79"/><circle class="cls-11" cx="161.81" cy="352.22" r="3.79"/><circle class="cls-11" cx="137.03" cy="352.22" r="3.79"/><path id="Koza" class="cls-4" d="M167.87,103.65a135.66,135.66,0,0,1-7.54,26,50.09,50.09,0,0,1-99.07-1.94,158.2,158.2,0,0,1-6.76-24.53C52,90.29,57.67,88.67,60.84,88.71v-3A45.19,45.19,0,0,1,106,40.53h9.82A45.19,45.19,0,0,1,161,85.72v4.49C163.57,89.91,170.48,90.22,167.87,103.65Z" transform="translate(36.35)"/><path class="cls-12" d="M100.1,97.16c.1-7.71-23.85-8-23.94-.3C76.07,103.82,100,104.11,100.1,97.16Z" transform="translate(36.35)"/><path class="cls-12" d="M148.22,97.16c.1-7.71-23.84-8-23.94-.3C124.2,103.82,148.14,104.11,148.22,97.16Z" transform="translate(36.35)"/><circle class="cls-13" cx="123.74" cy="96.73" r="3.96"/><circle class="cls-13" cx="172.6" cy="96.73" r="3.96"/><path id="Oci" class="cls-14" d="M74.67,97.32s10.17-10.22,28.17,0C102.84,97.32,87.19,80,74.67,97.32Z" transform="translate(36.35)"/><path id="Oci-2" data-name="Oci" class="cls-14" d="M122.61,97.32s10.17-10.22,28.17,0C150.78,97.32,135.13,80,122.61,97.32Z" transform="translate(36.35)"/><path class="cls-4" d="M114.49,93.77l-.41,1.59C114.06,94.27,114.18,93.68,114.49,93.77Z" transform="translate(36.35)"/><path id="Nos" class="cls-14" d="M114,127a20,20,0,0,1-7.57-2.08l.53-1c2.15,1.09,8.14,3.34,10.09.77.33-.86-.78-8.18-1.67-14.06-1.89-12.49-2.34-16.5-1.46-17.26a.75.75,0,0,1,.73-.14l-.35,1.12a.41.41,0,0,0,.45-.16c-.51,1,.82,9.84,1.79,16.27,1.65,10.88,2,14.16,1.45,14.94A4.76,4.76,0,0,1,114,127Z" transform="translate(36.35)"/><g id="Obrve"><path class="cls-15" d="M103.35,88.89c-17-8.61-24.78-.66-25.11-.32l-2.16-2c.38-.41,9.44-10,28.59-.32Z" transform="translate(36.35)"/></g><g id="Obrve-2" data-name="Obrve"><g id="Obrve-3" data-name="Obrve"><path id="Obrve-4" data-name="Obrve" class="cls-15" d="M150.12,90c-17.19-8.67-25-.4-25.11-.32l-2.16-2c.37-.41,9.43-10,28.59-.32Z" transform="translate(36.35)"/></g></g><g id="Ocala"><path class="cls-16" d="M104.67,97.89s10.49-7.93,17.45,0" transform="translate(36.35)"/><line class="cls-16" x1="100.04" y1="90.95" x2="110.98" y2="96.73"/><line class="cls-16" x1="199.45" y1="90.73" x2="188.51" y2="97.31"/><circle class="cls-17" cx="126" cy="97.89" r="15.02"/><circle class="cls-17" cx="173.49" cy="97.89" r="15.02"/></g><path id="Lasje1" class="cls-15" d="M68.57,100.69s-3.39-25,7.61-34.78a14.9,14.9,0,0,1,3.37-2.28,11.23,11.23,0,0,1,2.22-.78c4.11-1.16,8.8-.57,13-.31l3.18.33c19.63,2.14,29.76,5.83,29.76,5.83s5.88-5.64-3.81-8.77,15.74-.39,22.39,13.5a94.82,94.82,0,0,1,8.13,27.26l5.69,1.54S175.27,63,157.28,49.54c-9.87-7.38-22.08-16.71-34.17-20.07a36.18,36.18,0,0,0-3.62-.81,27.63,27.63,0,0,0-3.23-.47,29.14,29.14,0,0,0-3.23-.11,26.89,26.89,0,0,0-6.57.57,31.51,31.51,0,0,0-3.27.92c-1.07.36-2.11.76-3.13,1.21-10.08,5.09-18.88,13.31-30,16C69,47.11,68,47.46,67,47.85c-5,2-9,5-9.33,11.35A26.63,26.63,0,0,0,57,62.15a25.68,25.68,0,0,0-.23,6c0,.74.09,1.49.08,2.26C56.83,78.78,59.43,89.18,68.57,100.69Z" transform="translate(36.35)"/><path id="Brki2" class="cls-15" d="M121.69,128.44s18.5,4.42,15.83,23.8-24.36,18.88-24.36,18.88-25.86,1.5-26.5-18.88,12.78-22.88,15.92-23.8Z" transform="translate(36.35)"/><path class="cls-18" d="M131.4,135.21a21.91,21.91,0,0,1-7.47,11.09c-1.41-7-27.11-4.26-27.2-4.25a32.67,32.67,0,0,1-3.92-6.84Z" transform="translate(36.35)"/><path class="cls-19" d="M123.93,146.3h0A19.32,19.32,0,0,1,113.31,150c-8.06.48-13.38-3.84-16.58-7.92C96.82,142,122.52,139.33,123.93,146.3Z" transform="translate(36.35)"/><polygon class="cls-18" points="133.09 142.05 133.09 142.05 133.09 142.05 133.09 142.05"/><polygon class="cls-12" points="129.16 135.21 130.26 137.64 166.93 137.64 167.75 135.21 129.16 135.21"/></g><circle class="cls-1" cx="148.54" cy="112.19" r="109"/></g></g></svg>