<svg xmlns="http://www.w3.org/2000/svg" viewBox="0 0 104 104"><defs><style>.cls-1{fill:#3097c3;}.cls-2{fill:#ffffec;}</style></defs><g id="Layer_2" data-name="Layer 2"><g id="Glavno_Besedilo" data-name="Glavno Besedilo"><circle class="cls-1" cx="52" cy="52" r="52"/><path class="cls-2" d="M65.66,50.28q0,16.26,0,32.53a1.63,1.63,0,0,1-1,1.78,1.72,1.72,0,0,1-1.76-.43L47.81,72.44c-2-1.58-4.07-3.19-6.14-4.75a2,2,0,0,0-1.17-.38c-6.22,0-12.44,0-18.66,0-1.65,0-2.12-.47-2.12-2.14V35.29c0-1.69.45-2.14,2.1-2.14,6.2,0,12.39,0,18.59,0a2.33,2.33,0,0,0,1.3-.44Q52.33,24.5,62.9,16.27a1.74,1.74,0,0,1,1.89-.38,1.62,1.62,0,0,1,.87,1.71Q65.65,33.93,65.66,50.28Z"/><path class="cls-2" d="M71.94,68c0-1.32,0-2.59,0-3.85,0-.19.4-.45.66-.53a13.77,13.77,0,0,0,8.73-7,13.94,13.94,0,0,0-8.62-20c-.63-.17-.85-.42-.82-1.07,0-1.11,0-2.22,0-3.34a18.09,18.09,0,0,1,0,35.73Z"/><path class="cls-2" d="M72,61.75c0-1.52,0-3,0-4.4,0-.19.23-.42.41-.57a7.35,7.35,0,0,0,0-11.77,1,1,0,0,1-.39-.6c0-1.41,0-2.83,0-4.25,3.37.44,7.07,5.21,7.53,9.63A11.61,11.61,0,0,1,72,61.75Z"/></g></g></svg>