<svg xmlns="http://www.w3.org/2000/svg" viewBox="0 0 109.67 109.67"><defs><style>.cls-1{fill:none;stroke:#3097c3;stroke-miterlimit:10;stroke-width:5.67px;}.cls-2{fill:#3097c3;}</style></defs><g id="Layer_2" data-name="Layer 2"><g id="Glavno_Besedilo" data-name="Glavno Besedilo"><circle class="cls-1" cx="54.83" cy="54.83" r="52"/><path class="cls-2" d="M68.49,53.12q0,16.26,0,32.52a1.64,1.64,0,0,1-1,1.78A1.71,1.71,0,0,1,65.75,87q-7.55-5.88-15.1-11.72c-2-1.59-4.08-3.2-6.14-4.76a2.15,2.15,0,0,0-1.18-.38c-6.22,0-12.44,0-18.66,0-1.65,0-2.11-.47-2.11-2.14V38.12c0-1.68.44-2.13,2.1-2.13q9.29,0,18.59,0a2.37,2.37,0,0,0,1.3-.45q10.61-8.18,21.19-16.41a1.72,1.72,0,0,1,1.89-.38,1.62,1.62,0,0,1,.87,1.71Q68.48,36.77,68.49,53.12Z"/><path class="cls-2" d="M74.77,70.85c0-1.33,0-2.59,0-3.86,0-.18.39-.45.65-.52a14,14,0,0,0,.12-26.95c-.63-.17-.86-.42-.82-1.07,0-1.11,0-2.22,0-3.33a18.09,18.09,0,0,1,0,35.73Z"/><path class="cls-2" d="M74.78,64.59c0-1.53,0-3,0-4.4,0-.2.24-.43.42-.58a7.35,7.35,0,0,0,0-11.77,1,1,0,0,1-.39-.59c0-1.42,0-2.83,0-4.25,3.36.44,7.06,5.21,7.52,9.63A11.61,11.61,0,0,1,74.78,64.59Z"/></g></g></svg>