<svg xmlns="http://www.w3.org/2000/svg" viewBox="0 0 225.54 716.79"><defs><style>.cls-1,.cls-7,.cls-8{fill:#eed1bf;}.cls-2{fill:#fbc5aa;}.cls-3{fill:#d8dcec;}.cls-4{fill:#fff;}.cls-5{fill:#514835;}.cls-6{fill:#cabcdc;}.cls-7,.cls-8{stroke:#ebc35c;}.cls-12,.cls-13,.cls-7,.cls-8{stroke-miterlimit:10;}.cls-7{stroke-width:1.37px;}.cls-8{stroke-width:2.03px;}.cls-9{fill:#5a3b34;}.cls-10{fill:#d55225;}.cls-11{fill:#c1c0db;}.cls-12,.cls-13,.cls-16{fill:none;}.cls-12,.cls-13{stroke:#231f20;}.cls-12{stroke-width:0.68px;}.cls-13{stroke-width:0.62px;}.cls-14{fill:#d1bbae;}.cls-15{fill:#e6a454;}.cls-17{fill:#007dac;}</style></defs><g id="Layer_2" data-name="Layer 2"><g id="Jenny"><path class="cls-1" d="M16.67,350.28s-6.37,50.19,28,55.24V349.06Z"/><path class="cls-1" d="M205.4,355.89s6.37,50.19-28,55.23V354.66Z"/><path class="cls-2" d="M74.61,156.61S90.16,155.3,90.88,134h38.2s1.57,27.79,19.79,22.59l-1.65,16L110,189.44l-32.33-9.87-7.88-17.84Z"/><path class="cls-3" d="M0,369.63l56.2-2.15V208.23s-13-66-33-30.17Q6.65,278.2,0,369.63Z"/><path class="cls-3" d="M225.54,369.63l-56.2-2.15V208.23s13-66,33-30.17Q218.88,278.2,225.54,369.63Z"/><path class="cls-1" d="M107.76,16.83h8.58a39.44,39.44,0,0,1,39.44,39.44v51A43.73,43.73,0,0,1,112,151h0a43.73,43.73,0,0,1-43.73-43.73v-51a39.44,39.44,0,0,1,39.44-39.44Z"/><path class="cls-4" d="M99.06,79.26c.1-7-25.78-7.31-25.89-.26C73.08,85.36,99,85.63,99.06,79.26Z"/><path class="cls-4" d="M151.09,79.26c.1-7-25.78-7.31-25.88-.26C125.11,85.36,151,85.63,151.09,79.26Z"/><circle class="cls-5" cx="85.31" cy="78.87" r="4.28"/><circle class="cls-5" cx="138.15" cy="78.87" r="4.28"/><path class="cls-6" d="M71.57,79.51s11-11.05,30.45,0C102,79.51,85.1,60.79,71.57,79.51Z"/><path class="cls-6" d="M123.4,79.51s11-11.05,30.45,0C153.85,79.51,136.93,60.79,123.4,79.51Z"/><path class="cls-7" d="M105.22,109s10.27,4.47,13.65.65C120.33,108,112.46,75,115,75.68"/><path class="cls-8" d="M74.26,69s9.16-10,29,0"/><path class="cls-8" d="M124.82,70.19s9.16-10,29,0"/><path class="cls-9" d="M131.55,120.7a17.14,17.14,0,0,1-7.35,9.13c-1.39-5.74-26.67-3.51-26.75-3.5a21.53,21.53,0,0,1-3.86-5.63A97.64,97.64,0,0,0,131.55,120.7Z"/><path class="cls-10" d="M124.2,129.83h0a21.53,21.53,0,0,1-10.44,3,20.21,20.21,0,0,1-16.3-6.51C97.53,126.32,122.81,124.09,124.2,129.83Z"/><polygon class="cls-9" points="97.45 126.32 97.45 126.32 97.45 126.32 97.45 126.32"/><path class="cls-1" d="M155.5,72s11.79-3.3,8.36,14.35-8.36,28.58-8.36,28.58Z"/><path class="cls-11" d="M63.72,97c.29-2.65.65-5.36,1.12-8.06A52.36,52.36,0,0,1,71,68.22a37.75,37.75,0,0,1,3.94-5.76c2.58-1.8,4.58-5.86,7.46-6.76a26.62,26.62,0,0,1,4.74-2,32.24,32.24,0,0,1,4.92-1.11A101.77,101.77,0,0,1,104.4,53a31.92,31.92,0,0,1,11.24,3.15c1.77.52,3.53,1.05,5.31,1.52a46.81,46.81,0,0,1,6.58-1,41.68,41.68,0,0,1,6.61,0,18.69,18.69,0,0,1,3.44.08,18.09,18.09,0,0,1,3.22.7c4.87,1.14,6.87,5.2,10.59,7.58.72.88,1.41,1.81,2.06,2.77s1.26,2,1.83,3a48.26,48.26,0,0,1,2.95,6.37,51.17,51.17,0,0,1,2,6.47c.6,1.27,1.79,1.27,3,1.9.05-1.4.16-2.8.31-4.19s.35-2.77.57-4.15c8.39-8.45,17.53-18.6,16.67-32a19.51,19.51,0,0,0-2.3-7.17,36.46,36.46,0,0,0-2-3.36c-3.69-5.5-8.87-10.48-13.83-14.79A31,31,0,0,1,161,16a24.68,24.68,0,0,0-1.59-2.62A25.37,25.37,0,0,0,157.52,11a24.84,24.84,0,0,0-2.94-2.77A37.75,37.75,0,0,0,141.14,3c-1.21-.24-2.44-.42-3.68-.55-9.83-1.69-19.85,3.39-30.09,2-1.14-.25-2.26-.52-3.38-.81s-2.23-.61-3.34-.94A27.19,27.19,0,0,0,70.28,7.3a32.39,32.39,0,0,0-2.65,2.59,33.91,33.91,0,0,0-7.42,12.93c-.67,1.09-1.37,2.18-2.06,3.27-.66.53-1.33,1.06-2,1.57a77.33,77.33,0,0,1-8.46,5.78,16.81,16.81,0,0,0-2.3,3.21,28.06,28.06,0,0,0-1.65,3.73c-.42,1.19-.8,2.4-1.13,3.62C40,53.78,40.38,64.36,48.28,71.76c.88.88,1.77,1.72,2.66,2.55,4.45,4.18,9.08,8.21,9.67,14.31q.77,2.67,1.52,5.26C63,95.85,63.72,97,63.72,97Z"/><path class="cls-1" d="M68.55,73.85s-11.79-3.3-8.36,14.35,8.36,28.58,8.36,28.58Z"/><path class="cls-12" d="M101.65,79.8s11.35-8.58,18.87,0"/><line class="cls-12" x1="64.21" y1="73.78" x2="69.17" y2="78.54"/><line class="cls-12" x1="158.92" y1="71.93" x2="153.01" y2="79.17"/><circle class="cls-13" cx="85.41" cy="79.8" r="16.24"/><circle class="cls-13" cx="136.76" cy="79.8" r="16.24"/><circle class="cls-14" cx="66.43" cy="113.06" r="3.72"/><circle class="cls-14" cx="158.04" cy="111.17" r="3.72"/><path class="cls-1" d="M66.54,690.5s-17.22,15.63-32,15.32l61.4.45V690.5Z"/><path class="cls-15" d="M95.94,690.5v22.07H79.72v-6.29s-35.78,13.14-51.48,10c0,0-17.91-2.41,9.58-12.32,20.57-7.42,24.71-9,24.71-9"/><path class="cls-1" d="M162.94,690.5s18.54,15.63,33.32,15.32l-61.4.45V690.5Z"/><path class="cls-15" d="M134.86,690.5v22.07h16.22v-6.29s35.78,13.14,51.48,10c0,0,17.91-2.41-9.58-12.32-20.58-7.42-24.72-9-24.72-9"/><path class="cls-16" d="M46.69,336l.06-.49A3.28,3.28,0,0,0,46.69,336Z"/><polygon class="cls-17" points="43.82 364.64 43.82 394.87 66.54 690.5 95.95 690.5 117.03 443.53 134.82 690.5 162.94 690.5 187.54 394.87 187.54 364.64 43.82 364.64"/><path class="cls-15" d="M202.9,178.19c-5.22.62-11.66,8.2-17.72,27.09,0,5.43,3.08,40.42-7.8,56.13-2.35,24.72,6.73,85.16,9.76,110.51-61.4,51.55-141.62-5.29-143.92,5.05,3-25,7.25-91.26,5-115.65-12.14-16.85-11.45-56.76-11.45-56.76-6-18.36-12.32-25.76-17.49-26.37-12.81-1.52,18.92-22.66,38.5-22.66H73.91c5.31,14.47,19.94,24.88,37.16,24.88s31.87-10.41,37.18-24.88h16.16C184,155.53,215.72,176.67,202.9,178.19Z"/></g></g></svg>