<svg xmlns="http://www.w3.org/2000/svg" xmlns:xlink="http://www.w3.org/1999/xlink" viewBox="0 0 223.67 691.48"><defs><style>.cls-1,.cls-14,.cls-15,.cls-18{fill:none;}.cls-1{stroke:#e6a454;stroke-width:5.67px;}.cls-1,.cls-10,.cls-14,.cls-15,.cls-9{stroke-miterlimit:10;}.cls-2{clip-path:url(#clip-path);}.cls-10,.cls-3,.cls-9{fill:#eed1bf;}.cls-4{fill:#fbc5aa;}.cls-5{fill:#d8dcec;}.cls-6{fill:#fff;}.cls-7{fill:#514835;}.cls-8{fill:#cabcdc;}.cls-10,.cls-9{stroke:#ebc35c;}.cls-9{stroke-width:1.28px;}.cls-10{stroke-width:1.89px;}.cls-11{fill:#5a3b34;}.cls-12{fill:#d55225;}.cls-13{fill:#643a00;}.cls-14,.cls-15{stroke:#231f20;}.cls-14{stroke-width:0.63px;}.cls-15{stroke-width:0.58px;}.cls-16{fill:#d1bbae;}.cls-17{fill:#e6a454;}.cls-19{fill:#007dac;}</style><clipPath id="clip-path"><circle class="cls-1" cx="111.83" cy="111.83" r="109"/></clipPath></defs><title>Asset 2</title><g id="Layer_2" data-name="Layer 2"><g id="Jenny"><g class="cls-2"><path class="cls-3" d="M24.33,349.58S18.39,396.4,50.47,401.1V348.44Z"/><path class="cls-3" d="M200.39,354.8s5.94,46.82-26.15,51.53V353.66Z"/><path class="cls-4" d="M78.37,168.91s14.51-1.23,15.18-21.08h35.64s1.46,25.92,18.46,21.08l-1.54,14.89-34.72,15.73-30.16-9.2-7.35-16.65Z"/><path class="cls-5" d="M8.77,367.63l52.43-2V217.06s-12.12-61.54-30.75-28.14Q15,282.34,8.77,367.63Z"/><path class="cls-5" d="M219.17,367.63l-52.43-2V217.06s12.12-61.54,30.75-28.14Q213,282.34,219.17,367.63Z"/><path class="cls-3" d="M109.29,38.51h8a36.79,36.79,0,0,1,36.79,36.79v47.55a40.79,40.79,0,0,1-40.79,40.79h0A40.79,40.79,0,0,1,72.5,122.86V75.31a36.79,36.79,0,0,1,36.79-36.79Z"/><path class="cls-6" d="M101.18,96.75c.1-6.57-24.05-6.82-24.15-.25C77,102.44,101.1,102.69,101.18,96.75Z"/><path class="cls-6" d="M149.72,96.75c.1-6.57-24-6.82-24.15-.25C125.49,102.44,149.64,102.69,149.72,96.75Z"/><circle class="cls-7" cx="88.36" cy="96.39" r="4"/><circle class="cls-7" cx="137.65" cy="96.39" r="4"/><path class="cls-8" d="M75.53,97S85.79,86.67,104,97C104,97,88.16,79.52,75.53,97Z"/><path class="cls-8" d="M123.88,97s10.26-10.31,28.42,0C152.3,97,136.51,79.52,123.88,97Z"/><path class="cls-9" d="M106.92,124.47s9.59,4.17,12.74.6c1.36-1.54-6-32.31-3.58-31.66"/><path class="cls-10" d="M78.05,87.16s8.54-9.36,27.08,0"/><path class="cls-10" d="M125.22,88.29s8.54-9.36,27.08,0"/><path class="cls-11" d="M131.49,135.41a15.9,15.9,0,0,1-6.86,8.51c-1.29-5.36-24.87-3.27-24.95-3.27a19.8,19.8,0,0,1-3.6-5.24A91.21,91.21,0,0,0,131.49,135.41Z"/><path class="cls-12" d="M124.63,143.92h0a20,20,0,0,1-9.74,2.81,18.83,18.83,0,0,1-15.21-6.08C99.76,140.65,123.34,138.56,124.63,143.92Z"/><polygon class="cls-11" points="99.68 140.65 99.68 140.65 99.68 140.65 99.68 140.65"/><path class="cls-3" d="M153.84,89.93s11-3.07,7.79,13.39S153.84,130,153.84,130Z"/><path class="cls-13" d="M68.22,113.28c.26-2.48.6-5,1-7.51A48.86,48.86,0,0,1,75,86.45a34.36,34.36,0,0,1,3.67-5.37c2.41-1.68,4.28-5.47,7-6.31a25.92,25.92,0,0,1,4.42-1.84,30.28,30.28,0,0,1,4.59-1,94.34,94.34,0,0,1,11.51.36,29.76,29.76,0,0,1,10.49,2.94c1.65.49,3.3,1,4.95,1.42a45.23,45.23,0,0,1,6.14-.91,39.71,39.71,0,0,1,6.17,0,17.85,17.85,0,0,1,3.2.08,17.5,17.5,0,0,1,3,.65c4.54,1.07,6.41,4.85,9.88,7.07.67.82,1.31,1.69,1.92,2.59s1.18,1.83,1.71,2.78a46.35,46.35,0,0,1,2.75,6,48.69,48.69,0,0,1,1.84,6c.56,1.19,1.66,1.19,2.77,1.78,0-1.31.15-2.61.29-3.91s.32-2.59.53-3.87C169.64,87,178.16,77.51,177.36,65a17.54,17.54,0,0,0-.72-3.36,18.41,18.41,0,0,0-1.42-3.33,36.13,36.13,0,0,0-1.89-3.13c-3.44-5.13-8.28-9.78-12.9-13.8a29,29,0,0,1-1.5-3.61,24.22,24.22,0,0,0-1.49-2.45,24.94,24.94,0,0,0-1.72-2.23A23.19,23.19,0,0,0,153,30.48a35,35,0,0,0-12.53-4.85c-1.13-.22-2.28-.39-3.43-.52-9.18-1.57-18.53,3.17-28.08,1.89-1.06-.23-2.11-.49-3.15-.76s-2.08-.57-3.11-.87a25.38,25.38,0,0,0-28.34,4.25A31.34,31.34,0,0,0,71.86,32,31.68,31.68,0,0,0,64.94,44.1c-.62,1-1.27,2-1.92,3q-.93.75-1.86,1.47A73.53,73.53,0,0,1,53.27,54a15,15,0,0,0-2.15,3,26.17,26.17,0,0,0-1.54,3.48c-.4,1.11-.75,2.23-1.06,3.38-2.46,9.12-2.08,19,5.29,25.89.82.82,1.65,1.61,2.48,2.39,4.15,3.89,8.47,7.65,9,13.34q.71,2.49,1.41,4.91A31.45,31.45,0,0,0,68.22,113.28Z"/><path class="cls-3" d="M72.72,91.7s-11-3.07-7.79,13.39,7.79,26.66,7.79,26.66Z"/><path class="cls-14" d="M103.6,97.25s10.58-8,17.6,0"/><line class="cls-14" x1="68.67" y1="91.64" x2="73.3" y2="96.08"/><line class="cls-14" x1="157.02" y1="89.91" x2="151.51" y2="96.67"/><circle class="cls-15" cx="88.45" cy="97.25" r="15.15"/><circle class="cls-15" cx="136.36" cy="97.25" r="15.15"/><circle class="cls-16" cx="70.74" cy="128.28" r="3.47"/><circle class="cls-16" cx="156.2" cy="126.51" r="3.47"/><path class="cls-3" d="M70.85,667S54.78,681.53,41,681.25l57.28.41V667Z"/><path class="cls-17" d="M98.27,667v20.59H83.14v-5.87s-33.38,12.26-48,9.37c0,0-16.7-2.25,8.94-11.5,19.19-6.91,23.06-8.35,23.06-8.35"/><path class="cls-3" d="M160.78,667s17.28,14.58,31.08,14.3l-57.28.41V667Z"/><path class="cls-17" d="M134.58,667v20.59h15.13v-5.87s33.38,12.26,48,9.37c0,0,16.71-2.25-8.94-11.5-19.19-6.91-23-8.35-23-8.35"/><path class="cls-18" d="M52.33,336.2c0-.15,0-.3.05-.46A3.24,3.24,0,0,0,52.33,336.2Z"/><polygon class="cls-19" points="49.66 362.97 49.66 391.17 70.84 666.95 98.28 666.95 117.94 436.56 134.54 666.95 160.78 666.95 183.72 391.17 183.72 362.97 49.66 362.97"/><path class="cls-17" d="M198.05,189c-4.87.59-10.88,7.66-16.53,25.28,0,5.07,2.88,37.7-7.28,52.36-2.19,23.06,6.28,79.44,9.11,103.09-57.28,48.08-132.11-4.94-134.26,4.71,2.76-23.32,6.77-85.13,4.64-107.89-11.33-15.72-10.68-52.95-10.68-52.95-5.59-17.12-11.5-24-16.32-24.6-12-1.41,17.65-21.14,35.91-21.14H77.72c5,13.51,18.6,23.22,34.67,23.22s29.73-9.71,34.68-23.22h15.08C180.41,167.89,210,187.62,198.05,189Z"/></g><circle class="cls-1" cx="111.83" cy="111.83" r="109"/></g></g></svg>