<svg xmlns="http://www.w3.org/2000/svg" viewBox="0 0 277.84 686.58"><defs><style>.cls-1{fill:#dce6e0;}.cls-2,.cls-8,.cls-9{fill:#eed1bf;}.cls-3{fill:#fbc5aa;}.cls-4{fill:#d8dcec;}.cls-5{fill:#fff;}.cls-6{fill:#514835;}.cls-7{fill:#cabcdc;}.cls-8,.cls-9{stroke:#ebc35c;}.cls-13,.cls-14,.cls-8,.cls-9{stroke-miterlimit:10;}.cls-8{stroke-width:1.28px;}.cls-9{stroke-width:1.89px;}.cls-10{fill:#5a3b34;}.cls-11{fill:#d55225;}.cls-12{fill:#643a00;}.cls-13,.cls-14,.cls-17{fill:none;}.cls-13,.cls-14{stroke:#231f20;}.cls-13{stroke-width:0.63px;}.cls-14{stroke-width:0.58px;}.cls-15{fill:#d1bbae;}.cls-16{fill:#e6a454;}.cls-18{fill:#007dac;}</style></defs><title>Asset 3</title><g id="Layer_2" data-name="Layer 2"><g id="Layer_1-2" data-name="Layer 1"><ellipse class="cls-1" cx="138.92" cy="670.75" rx="138.92" ry="15.83"/></g><g id="Jenny"><path class="cls-2" d="M47.24,326.77s-5.94,46.82,26.15,51.52V325.62Z"/><path class="cls-2" d="M223.3,332s5.94,46.82-26.14,51.53V330.85Z"/><path class="cls-3" d="M101.29,146.1s14.51-1.23,15.18-21.08h35.64s1.46,25.92,18.46,21.08L169,161l-34.72,15.73-30.16-9.2L96.8,150.87Z"/><path class="cls-4" d="M31.69,344.82l52.43-2V194.25S72,132.71,53.37,166.11Q37.91,259.53,31.69,344.82Z"/><path class="cls-4" d="M242.09,344.82l-52.43-2V194.25s12.12-61.54,30.75-28.14Q235.88,259.53,242.09,344.82Z"/><path class="cls-2" d="M132.21,15.7h8A36.79,36.79,0,0,1,177,52.5V100a40.79,40.79,0,0,1-40.79,40.79h0A40.79,40.79,0,0,1,95.42,100V52.5A36.79,36.79,0,0,1,132.21,15.7Z"/><path class="cls-5" d="M124.1,73.94c.1-6.57-24-6.82-24.15-.25C99.87,79.63,124,79.88,124.1,73.94Z"/><path class="cls-5" d="M172.64,73.94c.1-6.57-24-6.82-24.15-.25C148.41,79.63,172.56,79.88,172.64,73.94Z"/><circle class="cls-6" cx="111.28" cy="73.58" r="4"/><circle class="cls-6" cx="160.57" cy="73.58" r="4"/><path class="cls-7" d="M98.45,74.17s10.26-10.31,28.41,0C126.86,74.17,111.08,56.71,98.45,74.17Z"/><path class="cls-7" d="M146.8,74.17s10.26-10.31,28.42,0C175.22,74.17,159.43,56.71,146.8,74.17Z"/><path class="cls-8" d="M129.84,101.66s9.59,4.17,12.74.6c1.36-1.54-6-32.31-3.58-31.66"/><path class="cls-9" d="M101,64.35s8.54-9.36,27.08,0"/><path class="cls-9" d="M148.14,65.48s8.53-9.36,27.08,0"/><path class="cls-10" d="M154.41,112.6a16,16,0,0,1-6.86,8.51c-1.29-5.36-24.87-3.28-25-3.27a20,20,0,0,1-3.6-5.24A91.41,91.41,0,0,0,154.41,112.6Z"/><path class="cls-11" d="M147.55,121.11h0a20,20,0,0,1-9.74,2.81,18.83,18.83,0,0,1-15.21-6.08C122.68,117.83,146.26,115.75,147.55,121.11Z"/><polygon class="cls-10" points="122.6 117.84 122.6 117.84 122.6 117.84 122.6 117.84"/><path class="cls-2" d="M176.76,67.12s11-3.08,7.79,13.39-7.79,26.66-7.79,26.66Z"/><path class="cls-12" d="M91.14,90.47c.26-2.48.6-5,1-7.52a48.86,48.86,0,0,1,5.75-19.31,33.9,33.9,0,0,1,3.67-5.37c2.41-1.68,4.28-5.47,7-6.31A25.92,25.92,0,0,1,113,50.12a30.28,30.28,0,0,1,4.59-1,94.4,94.4,0,0,1,11.51.36,29.82,29.82,0,0,1,10.49,2.94c1.65.49,3.3,1,5,1.42a43.49,43.49,0,0,1,6.14-.91,39.71,39.71,0,0,1,6.17,0A16.17,16.17,0,0,1,160,53a17.5,17.5,0,0,1,3,.65c4.54,1.07,6.41,4.85,9.88,7.07.67.82,1.31,1.69,1.92,2.58s1.17,1.84,1.71,2.79a45.73,45.73,0,0,1,2.75,6,48.69,48.69,0,0,1,1.84,6c.55,1.19,1.66,1.19,2.77,1.78.05-1.31.15-2.62.29-3.91s.32-2.59.53-3.87c7.83-7.89,16.35-17.35,15.55-29.89a18.41,18.41,0,0,0-2.14-6.69,36.13,36.13,0,0,0-1.89-3.13c-3.44-5.14-8.28-9.78-12.91-13.8a30.48,30.48,0,0,1-1.49-3.61,25.71,25.71,0,0,0-3.21-4.68,23.14,23.14,0,0,0-2.75-2.58,35.26,35.26,0,0,0-12.53-4.86c-1.14-.21-2.28-.38-3.43-.51C150.75.73,141.4,5.47,131.85,4.19c-1.06-.23-2.11-.49-3.15-.76s-2.08-.57-3.11-.87A25.36,25.36,0,0,0,97.25,6.81a31.81,31.81,0,0,0-9.39,14.48c-.63,1-1.27,2-1.92,3.05l-1.86,1.47a72.67,72.67,0,0,1-7.9,5.38,15.33,15.33,0,0,0-2.14,3,24.94,24.94,0,0,0-1.54,3.48c-.4,1.11-.75,2.23-1.06,3.37-2.46,9.13-2.08,19,5.29,25.9.82.82,1.65,1.6,2.48,2.38,4.15,3.9,8.47,7.66,9,13.35q.7,2.49,1.41,4.91A31.45,31.45,0,0,0,91.14,90.47Z"/><path class="cls-2" d="M95.64,68.89s-11-3.07-7.8,13.39,7.8,26.66,7.8,26.66Z"/><path class="cls-13" d="M126.52,74.44s10.58-8,17.6,0"/><line class="cls-13" x1="91.59" y1="68.83" x2="96.22" y2="73.27"/><line class="cls-13" x1="179.94" y1="67.1" x2="174.43" y2="73.86"/><circle class="cls-14" cx="111.37" cy="74.44" r="15.15"/><circle class="cls-14" cx="159.27" cy="74.44" r="15.15"/><circle class="cls-15" cx="93.66" cy="105.47" r="3.47"/><circle class="cls-15" cx="179.12" cy="103.7" r="3.47"/><path class="cls-2" d="M93.76,644.14S77.7,658.72,63.91,658.43l57.28.42V644.14Z"/><path class="cls-16" d="M121.19,644.14v20.59H106.06v-5.87s-33.38,12.26-48,9.37c0,0-16.7-2.25,8.94-11.5C86.16,649.82,90,648.38,90,648.38"/><path class="cls-2" d="M183.69,644.14s17.29,14.58,31.09,14.29l-57.29.42V644.14Z"/><path class="cls-16" d="M157.49,644.14v20.59h15.14v-5.87s33.38,12.26,48,9.37c0,0,16.71-2.25-8.94-11.5-19.19-6.91-23.05-8.35-23.05-8.35"/><path class="cls-17" d="M75.25,313.39c0-.15,0-.3,0-.46A3.24,3.24,0,0,0,75.25,313.39Z"/><polygon class="cls-18" points="72.57 340.16 72.57 368.36 93.76 644.14 121.2 644.14 140.86 413.75 157.46 644.14 183.69 644.14 206.64 368.36 206.64 340.16 72.57 340.16"/><path class="cls-16" d="M221,166.22c-4.87.59-10.88,7.65-16.53,25.28,0,5.07,2.88,37.7-7.28,52.36C195,266.92,203.44,323.3,206.27,347,149,395,74.16,342,72,351.66c2.76-23.32,6.77-85.14,4.64-107.89-11.33-15.72-10.68-53-10.68-53-5.6-17.12-11.5-24-16.32-24.6-11.95-1.41,17.65-21.14,35.91-21.14h15.08c5,13.51,18.6,23.22,34.67,23.22S165,158.59,170,145.08h15.09C203.33,145.08,232.93,164.81,221,166.22Z"/></g></g></svg>