<svg xmlns="http://www.w3.org/2000/svg" viewBox="0 0 277.84 623.24"><defs><style>.cls-1{fill:#eed1bf;}.cls-2{fill:#fcc5aa;}.cls-3{fill:#dce6e0;}.cls-4{fill:#d9dceb;}.cls-5{fill:#fff;}.cls-6{fill:#ffebc6;}.cls-7{fill:#524935;}.cls-8{fill:#ebaf88;}.cls-9{fill:#ffe6b4;}.cls-10{fill:#301812;}.cls-11{fill:#d55227;}.cls-12{fill:#00a881;}.cls-13{fill:none;stroke:#499086;stroke-miterlimit:10;stroke-width:0.95px;}.cls-14{fill:#017dad;}.cls-15{fill:#44515d;}.cls-16{fill:#499086;}</style></defs><g id="Layer_2" data-name="Layer 2"><g id="Layer_1-2" data-name="Layer 1"><path id="Koza" class="cls-1" d="M48.6,358.2s-5.53,43.55,24.32,47.93v-49Z"/><path id="Koza-2" data-name="Koza" class="cls-1" d="M244.72,358.25s5.53,43.56-24.32,47.94v-49Z"/><path id="Vrat" class="cls-2" d="M184,147.33l-.21.53c-5.49,13.54-20,23.2-37.1,23.2-17.29,0-32-9.91-37.3-23.71h-.15A18.31,18.31,0,0,0,121.8,140a18,18,0,0,0,2-3.72,25.58,25.58,0,0,0,1.79-8.83H164a36.91,36.91,0,0,0,1.89,8.82c1.18,3.37,3.09,6.95,6.14,9.24C174.87,147.62,178.86,148.63,184,147.33Z"/><ellipse class="cls-3" cx="138.92" cy="607.4" rx="138.92" ry="15.83"/><path class="cls-4" d="M259.18,358.86l-48.77-2.13v-157s11.28-65,28.6-29.73Q253.41,268.74,259.18,358.86Z"/><path id="Koza-3" data-name="Koza" class="cls-1" d="M200.83,74.32a133.55,133.55,0,0,1-7.42,25.57A49.25,49.25,0,0,1,96,98a155.45,155.45,0,0,1-6.64-24.12c-2.46-12.67,3.11-14.27,6.23-14.23V56.69A44.43,44.43,0,0,1,140,12.26h9.66a44.43,44.43,0,0,1,44.43,44.43v4.42C196.6,60.81,203.39,61.12,200.83,74.32Z"/><path class="cls-5" d="M134.2,67.94c.09-7.58-23.45-7.86-23.54-.29C110.57,74.5,134.11,74.78,134.2,67.94Z"/><path id="Brada" class="cls-6" d="M196.13,92.52a84.45,84.45,0,0,1-.63,11.28,62.13,62.13,0,0,1-1.21,6.71,39.35,39.35,0,0,1-1.16,5.64,32.64,32.64,0,0,1-1.95,5.14,35.78,35.78,0,0,1-2.67,4.52,30.91,30.91,0,0,1-3.45,4.06c-.85,1.37-1.75,2.71-2.72,4a47.51,47.51,0,0,1-3.09,3.69,40.28,40.28,0,0,1-3.68,4.5q-1.73,1.77-3.54,3.41c-4.92,4.45-10.38,8-16.56,9.76a31.32,31.32,0,0,1-4.76.94,14.39,14.39,0,0,1-9.82-1.72c-6.31-5.57-12.37-10.65-19.09-14.49a54,54,0,0,0-12-5.12,36,36,0,0,1-3.44-2.68,41.17,41.17,0,0,1-3.12-3.08,41.47,41.47,0,0,1-2.61-4,43.1,43.1,0,0,1-3.87-8.89c-.41-1.52-.74-3-1-4.61A67.93,67.93,0,0,1,94.93,95c0-.67.09-1.34.16-2C95,90.69,95,88.39,95,86.2c.13-6.57.88-12.17,3-13.27,3.29-1.73,4.5-2,4.94-1.83a.32.32,0,0,1,.23.14h0a.25.25,0,0,1,0,.16s1.52,23.72,23.84,34H165s22.66-22,22.66-33.95l5.68,1.33.8.19A102.54,102.54,0,0,1,196.13,92.52Z"/><path class="cls-5" d="M181.51,67.94c.09-7.58-23.45-7.86-23.54-.29C157.89,74.5,181.43,74.78,181.51,67.94Z"/><circle class="cls-7" cx="121.69" cy="67.52" r="3.89"/><circle class="cls-7" cx="169.74" cy="67.52" r="3.89"/><path id="Oci" class="cls-8" d="M109.19,68.1s10-10,27.7,0C136.89,68.1,121.5,51.08,109.19,68.1Z"/><path id="Oci-2" data-name="Oci" class="cls-8" d="M156.33,68.1s10-10,27.69,0C184,68.1,168.63,51.08,156.33,68.1Z"/><path id="Brki" class="cls-6" d="M165,105.35H127c1.23-4.43,4.25-8,9.5-10.49h4.36c1.25.59,8.06,3.63,10.44.49a1.07,1.07,0,0,0,.12-.49h3.62C160.2,97.83,163.65,101.29,165,105.35Z"/><path class="cls-1" d="M148.34,64.61l-.4,1.56C147.92,65.1,148,64.52,148.34,64.61Z"/><path id="Nos" class="cls-8" d="M147.87,97.32a19.66,19.66,0,0,1-7.44-2l.52-1c2.11,1.07,8,3.28,9.92.75.32-.84-.77-8-1.64-13.82-1.86-12.28-2.3-16.23-1.43-17a.73.73,0,0,1,.71-.14l-.34,1.1a.4.4,0,0,0,.44-.15c-.5,1,.8,9.67,1.76,16,1.62,10.7,2,13.93,1.42,14.69A4.65,4.65,0,0,1,147.87,97.32Z"/><g id="Obrve"><path class="cls-9" d="M137.39,59.81c-16.77-8.46-24.37-.64-24.69-.31l-2.12-2c.37-.4,9.28-9.82,28.11-.31Z"/></g><g id="Obrve-2" data-name="Obrve"><g id="Obrve-3" data-name="Obrve"><path id="Obrve-4" data-name="Obrve" class="cls-9" d="M183.37,60.92c-16.9-8.53-24.6-.4-24.68-.32l-2.13-1.94c.37-.41,9.28-9.83,28.11-.32Z"/></g></g><path class="cls-10" d="M165,105.36a21.69,21.69,0,0,1-7.35,10.91c-1.38-6.87-26.65-4.2-26.73-4.19a31.85,31.85,0,0,1-3.86-6.72Z"/><path class="cls-11" d="M157.62,116.27h0a19,19,0,0,1-10.44,3.6c-7.92.47-13.15-3.77-16.29-7.79C131,112.07,156.24,109.4,157.62,116.27Z"/><polygon class="cls-10" points="130.89 112.08 130.89 112.08 130.89 112.08 130.89 112.08"/><polygon class="cls-5" points="127.03 105.36 128.11 107.75 164.16 107.75 164.97 105.36 127.03 105.36"/><path id="Lasje" class="cls-6" d="M103.19,71.42s-3.33-24.54,7.49-34.2A14.38,14.38,0,0,1,114,35a10.85,10.85,0,0,1,2.18-.77c4-1.14,8.65-.56,12.82-.3l3.12.32c19.3,2.1,29.26,5.74,29.26,5.74s5.78-5.55-3.75-8.63,15.48-.38,22,13.27a93.13,93.13,0,0,1,8,26.81l5.6,1.51s14.88-38.55-2.82-51.8c-9.7-7.27-21.71-16.44-33.59-19.74a35.63,35.63,0,0,0-3.56-.8,29,29,0,0,0-3.18-.46A30.72,30.72,0,0,0,146.9,0a27,27,0,0,0-6.45.56c-1.1.25-2.17.56-3.22.91s-2.07.75-3.07,1.18c-9.91,5-18.57,13.09-29.47,15.75-1,.31-2.08.66-3.06,1-4.93,1.94-8.85,4.92-9.18,11.16-.25,1-.45,1.92-.61,2.9a25.38,25.38,0,0,0-.22,5.9c0,.73.08,1.46.08,2.22C91.65,49.88,94.2,60.1,103.19,71.42Z"/><path class="cls-4" d="M34.27,358.86,83,356.73v-157s-11.28-65-28.6-29.73Q40,268.74,34.27,358.86Z"/><path id="Pulover" class="cls-12" d="M238.89,168.92l-.41.06c-5.35.94-11.87,8.69-17.95,27.46l10.64,172.85H60.56L72.92,196.44c-6.09-18.77-12.6-26.52-18-27.46l-.41-.06c-12.85-1.45,19-21.59,38.64-21.59h16.22c5.33,13.8,20,23.71,37.3,23.71,17.08,0,31.61-9.66,37.1-23.2.08-.17.14-.34.21-.51h16.22C219.9,147.33,251.74,167.47,238.89,168.92Z"/><line id="Zadrga" class="cls-13" x1="146.73" y1="369.32" x2="146.73" y2="171.06"/><polygon id="Hlace" class="cls-14" points="231.17 368.75 223.09 409.06 197.23 577.69 168.41 585.69 146.99 407.79 146.73 407.79 122.34 585.69 122.23 585.69 93.48 577.71 68.34 408.28 60.56 368.75 231.17 368.75"/><path class="cls-15" d="M240.49,607.24H168.41V585.69l28.82-10.22s0,0,0,.08c-1.25,12.27,9.29,14.13,9.29,14.13C250,585.64,240.49,607.24,240.49,607.24Z"/><path class="cls-15" d="M122.23,585.69v21.55H50.15s-9.51-21.6,34-17.56c0,0,10.59-1.87,9.27-14.21l.08,0Z"/><circle id="Gumb" class="cls-16" cx="159.1" cy="207.56" r="3.72"/><circle id="Gumb-2" data-name="Gumb" class="cls-16" cx="134.74" cy="207.56" r="3.72"/><circle id="Gumb-3" data-name="Gumb" class="cls-16" cx="159.1" cy="235.6" r="3.72"/><circle id="Gumb-4" data-name="Gumb" class="cls-16" cx="134.74" cy="235.6" r="3.72"/><circle id="Gumb-5" data-name="Gumb" class="cls-16" cx="159.1" cy="263.64" r="3.72"/><circle id="Gumb-6" data-name="Gumb" class="cls-16" cx="134.74" cy="263.64" r="3.72"/><circle id="Gumb-7" data-name="Gumb" class="cls-16" cx="159.1" cy="291.69" r="3.72"/><circle id="Gumb-8" data-name="Gumb" class="cls-16" cx="134.74" cy="291.69" r="3.72"/><circle id="Gumb-9" data-name="Gumb" class="cls-16" cx="159.1" cy="319.73" r="3.72"/><circle id="Gumb-10" data-name="Gumb" class="cls-16" cx="134.74" cy="319.73" r="3.72"/></g></g></svg>