<svg xmlns="http://www.w3.org/2000/svg" viewBox="0 0 277.84 621.34"><defs><style>.cls-1{fill:#eed1bf;}.cls-2{fill:#fcc5aa;}.cls-3{fill:#dce6e0;}.cls-4{fill:#d9dceb;}.cls-5{fill:#00a881;}.cls-6{fill:none;stroke:#499086;stroke-miterlimit:10;stroke-width:0.95px;}.cls-7{fill:#017dad;}.cls-8{fill:#44515d;}.cls-9{fill:#499086;}.cls-10{fill:#fff;}.cls-11{fill:#524935;}.cls-12{fill:#ebaf88;}.cls-13{fill:#ffe6b4;}.cls-14{fill:#ffebc6;}.cls-15{fill:#301812;}.cls-16{fill:#d55227;}</style></defs><g id="Layer_2" data-name="Layer 2"><g id="Layer_1-2" data-name="Layer 1"><path id="Koza" class="cls-1" d="M48.6,356.3s-5.53,43.56,24.32,47.94v-49Z"/><path id="Koza-2" data-name="Koza" class="cls-1" d="M244.72,356.36s5.53,43.56-24.32,47.94v-49Z"/><path id="Vrat" class="cls-2" d="M184,145.44l-.21.53c-5.49,13.54-20,23.2-37.1,23.2-17.29,0-32-9.91-37.3-23.71h-.15a18.31,18.31,0,0,0,12.53-7.4,18,18,0,0,0,2-3.72,25.58,25.58,0,0,0,1.79-8.83H164a36.91,36.91,0,0,0,1.89,8.82c1.18,3.37,3.09,6.95,6.14,9.24C174.87,145.73,178.86,146.74,184,145.44Z"/><ellipse class="cls-3" cx="138.92" cy="605.51" rx="138.92" ry="15.83"/><path class="cls-4" d="M259.18,357l-48.77-2.13v-157s11.28-65,28.6-29.73Q253.41,266.85,259.18,357Z"/><path class="cls-4" d="M34.27,357,83,354.84v-157s-11.28-65-28.6-29.73Q40,266.85,34.27,357Z"/><path id="Pulover" class="cls-5" d="M238.89,167l-.41.06c-5.35.94-11.87,8.69-17.95,27.46L231.17,367.4H60.56L72.92,194.55c-6.09-18.77-12.6-26.52-18-27.46l-.41-.06c-12.85-1.45,19-21.59,38.64-21.59h16.22c5.33,13.8,20,23.71,37.3,23.71,17.08,0,31.61-9.66,37.1-23.2.08-.17.14-.34.21-.51h16.22C219.9,145.44,251.74,165.58,238.89,167Z"/><line id="Zadrga" class="cls-6" x1="146.73" y1="367.42" x2="146.73" y2="169.17"/><polygon id="Hlace" class="cls-7" points="231.17 366.86 223.09 407.17 197.23 575.79 168.41 583.8 146.99 405.89 146.73 405.89 122.34 583.8 122.23 583.8 93.48 575.82 68.34 406.39 60.56 366.86 231.17 366.86"/><path class="cls-8" d="M240.49,605.35H168.41V583.8l28.82-10.22s0,0,0,.08c-1.25,12.27,9.29,14.13,9.29,14.13C250,583.75,240.49,605.35,240.49,605.35Z"/><path class="cls-8" d="M122.23,583.8v21.55H50.15s-9.51-21.6,34-17.56c0,0,10.59-1.87,9.27-14.21l.08,0Z"/><circle id="Gumb" class="cls-9" cx="159.1" cy="205.67" r="3.72"/><circle id="Gumb-2" data-name="Gumb" class="cls-9" cx="134.74" cy="205.67" r="3.72"/><circle id="Gumb-3" data-name="Gumb" class="cls-9" cx="159.1" cy="233.71" r="3.72"/><circle id="Gumb-4" data-name="Gumb" class="cls-9" cx="134.74" cy="233.71" r="3.72"/><circle id="Gumb-5" data-name="Gumb" class="cls-9" cx="159.1" cy="261.75" r="3.72"/><circle id="Gumb-6" data-name="Gumb" class="cls-9" cx="134.74" cy="261.75" r="3.72"/><circle id="Gumb-7" data-name="Gumb" class="cls-9" cx="159.1" cy="289.79" r="3.72"/><circle id="Gumb-8" data-name="Gumb" class="cls-9" cx="134.74" cy="289.79" r="3.72"/><circle id="Gumb-9" data-name="Gumb" class="cls-9" cx="159.1" cy="317.83" r="3.72"/><circle id="Gumb-10" data-name="Gumb" class="cls-9" cx="134.74" cy="317.83" r="3.72"/><path id="Koza-3" data-name="Koza" class="cls-1" d="M202.41,74.32A133.55,133.55,0,0,1,195,99.89,49.25,49.25,0,0,1,97.58,98a155.45,155.45,0,0,1-6.64-24.12c-2.46-12.67,3.11-14.27,6.23-14.23V56.69A44.43,44.43,0,0,1,141.6,12.26h9.66a44.43,44.43,0,0,1,44.43,44.43v4.42C198.18,60.81,205,61.12,202.41,74.32Z"/><path class="cls-10" d="M135.77,67.94c.09-7.58-23.45-7.86-23.54-.29C112.15,74.5,135.69,74.78,135.77,67.94Z"/><path class="cls-10" d="M183.09,67.94c.09-7.58-23.45-7.86-23.54-.29C159.46,74.5,183,74.78,183.09,67.94Z"/><circle class="cls-11" cx="123.27" cy="67.52" r="3.89"/><circle class="cls-11" cx="171.32" cy="67.52" r="3.89"/><path id="Oci" class="cls-12" d="M110.77,68.1s10-10,27.69,0C138.46,68.1,123.08,51.08,110.77,68.1Z"/><path id="Oci-2" data-name="Oci" class="cls-12" d="M157.9,68.1s10-10,27.7,0C185.6,68.1,170.21,51.08,157.9,68.1Z"/><path class="cls-1" d="M149.92,64.61l-.4,1.56C149.5,65.1,149.62,64.52,149.92,64.61Z"/><path id="Nos" class="cls-12" d="M149.45,97.32a19.53,19.53,0,0,1-7.44-2l.52-1c2.11,1.07,8,3.28,9.92.75.32-.84-.77-8-1.64-13.82-1.86-12.28-2.3-16.23-1.44-17a.75.75,0,0,1,.72-.14l-.35,1.1a.39.39,0,0,0,.44-.15c-.5,1,.81,9.67,1.77,16,1.61,10.7,2,13.93,1.42,14.69A4.65,4.65,0,0,1,149.45,97.32Z"/><g id="Obrve"><path class="cls-13" d="M139,59.81c-16.77-8.46-24.37-.64-24.69-.31l-2.12-2c.36-.4,9.27-9.82,28.11-.31Z"/></g><g id="Obrve-2" data-name="Obrve"><g id="Obrve-3" data-name="Obrve"><path id="Obrve-4" data-name="Obrve" class="cls-13" d="M185,60.92c-16.9-8.53-24.61-.4-24.68-.32l-2.14-1.94c.37-.41,9.28-9.83,28.12-.32Z"/></g></g><path id="Lasje" class="cls-14" d="M104.77,71.42s-3.34-24.54,7.48-34.2A14.66,14.66,0,0,1,115.57,35a11,11,0,0,1,2.17-.77c4-1.14,8.66-.56,12.82-.3l3.12.32C153,36.33,163,40,163,40s5.78-5.55-3.75-8.63,15.48-.38,22,13.27a93.13,93.13,0,0,1,8,26.81l5.6,1.51s14.87-38.55-2.82-51.8c-9.7-7.27-21.71-16.44-33.59-19.74a35.19,35.19,0,0,0-3.57-.8,28.48,28.48,0,0,0-3.17-.46A30.72,30.72,0,0,0,148.48,0,27.08,27.08,0,0,0,142,.58a33,33,0,0,0-3.21.91c-1.05.35-2.07.75-3.08,1.18-9.91,5-18.56,13.09-29.46,15.75-1,.31-2.08.66-3.07,1C98.28,21.4,94.36,24.38,94,30.62a28.73,28.73,0,0,0-.61,2.9,24.85,24.85,0,0,0-.22,5.9c0,.73.08,1.46.08,2.22C93.22,49.88,95.78,60.1,104.77,71.42Z"/><path id="Brki" class="cls-14" d="M157,98.7s18.19,4.35,15.56,23.4-23.95,18.57-23.95,18.57-25.42,1.47-26.06-18.57,12.57-22.49,15.66-23.4Z"/><path class="cls-15" d="M166.55,105.36c-.09,0-1.53,6.58-7.35,10.91-1.38-6.87-26.65-4.2-26.74-4.19a31.51,31.51,0,0,1-3.85-6.72Z"/><path class="cls-16" d="M159.2,116.27h0a19.09,19.09,0,0,1-10.44,3.6c-7.93.47-13.15-3.77-16.3-7.79C132.55,112.07,157.82,109.4,159.2,116.27Z"/><polygon class="cls-15" points="132.46 112.08 132.46 112.08 132.46 112.08 132.46 112.08"/><polygon class="cls-10" points="128.61 105.36 129.69 107.75 165.74 107.75 166.55 105.36 128.61 105.36"/></g></g></svg>