<svg xmlns="http://www.w3.org/2000/svg" xmlns:xlink="http://www.w3.org/1999/xlink" viewBox="0 0 223.67 388.1"><defs><style>.cls-1,.cls-12{fill:none;stroke-miterlimit:10;}.cls-1{stroke:#0073bc;stroke-width:5.67px;}.cls-2{clip-path:url(#clip-path);}.cls-3{fill:#fbc5aa;}.cls-4{fill:#d8dcec;}.cls-5{fill:#0073bc;}.cls-6{fill:#eed1bf;}.cls-7{fill:#fff;}.cls-8{fill:#514835;}.cls-9{fill:#cabcdc;}.cls-10{fill:#ebaf89;}.cls-11{fill:#c1c0db;}.cls-12{stroke:#231f20;stroke-width:0.63px;}.cls-13{fill:#c4463a;}.cls-14{fill:#200600;}.cls-15{fill:#d55227;}</style><clipPath id="clip-path"><circle class="cls-1" cx="111.83" cy="111.83" r="109"/></clipPath></defs><g id="Layer_2" data-name="Layer 2"><g id="Avatar"><g class="cls-2"><path id="Vrat" class="cls-3" d="M147.83,181.31c-5.1,12.81-18.42,22-34.07,22-15.37,0-28.5-8.84-33.8-21.31,4-1.14,12.58-5.35,13.09-20.48h35.3S131.59,185.26,147.83,181.31Z"/><path class="cls-4" d="M9.07,371.49l51.93-2V230.05s-12-61-30.45-27.87C20.33,263.87,13.23,315.1,9.07,371.49Z"/><path class="cls-4" d="M217.49,371.49l-51.93-2V230.05s12-61,30.45-27.87C206.23,263.87,213.33,315.1,217.49,371.49Z"/><path id="Majica" class="cls-5" d="M198.62,201.24c-4.83.58-10.78,7.47-16.38,24.68,0,5,2.85,29.09-7.21,43.4-2.17,22.51,5.85,74.46,8.65,97.55-56.74,46.95-129,1.63-132.81,0,2.74-22.76,6.89-75.42,4.78-97.64-11.22-15.34-10.58-44-10.58-44-5.54-16.71-11.39-23.45-16.16-24-11.84-1.38,17.48-20.63,35.57-20.63H79.42q.26.69.54,1.35c5.3,12.47,18.43,21.31,33.8,21.31,15.65,0,29-9.15,34.07-22,.1-.23.19-.47.28-.7h14.94C181.14,180.61,210.46,199.86,198.62,201.24Z"/><path id="Koza" class="cls-6" d="M107.54,45.94h8.2a37.7,37.7,0,0,1,37.7,37.7V133.7a41.8,41.8,0,0,1-41.8,41.8h0a41.8,41.8,0,0,1-41.8-41.8V83.64a37.7,37.7,0,0,1,37.7-37.7Z"/><path class="cls-7" d="M100.09,106.3c.09-8-22.94-8.35-23-.3C77,113.27,100,113.57,100.09,106.3Z"/><path class="cls-7" d="M146.38,106.3c.09-8-22.94-8.35-23-.3C123.27,113.27,146.3,113.57,146.38,106.3Z"/><ellipse class="cls-8" cx="87.86" cy="105.86" rx="3.81" ry="4.14"/><ellipse class="cls-8" cx="134.86" cy="105.86" rx="3.81" ry="4.14"/><path id="Oci" class="cls-9" d="M75.63,106.47s9.78-10.67,27.1,0C102.73,106.47,87.67,88.4,75.63,106.47Z"/><path id="Oci-2" data-name="Oci" class="cls-9" d="M121.74,106.47s9.78-10.67,27.09,0C148.83,106.47,133.78,88.4,121.74,106.47Z"/><g id="Nos"><path class="cls-10" d="M113.75,133.7a25.86,25.86,0,0,1-8.42-1.91l.47-1.11c2.43,1,9.24,3.13,11.47.7.32-.83-.91-7.55-1.9-12.95-2.1-11.49-2.61-15.2-1.7-16a.82.82,0,0,1,.78-.2l-.3,1.16a.36.36,0,0,0,.38-.13c-.54,1,.94,9.09,2,15,1.86,10.15,2.29,13.22,1.6,14A5.81,5.81,0,0,1,113.75,133.7Z"/></g><path id="Obrve" class="cls-11" d="M103.44,97.07c-16.87-9.24-24.67-.3-24.74-.21l-1.34-1.12c.36-.41,8.81-10.12,26.91-.2Z"/><path id="Obrve-2" data-name="Obrve" class="cls-11" d="M148.42,98.24C131.55,89,123.75,98,123.68,98l-1.34-1.12c.35-.42,8.81-10.12,26.91-.2Z"/><g id="ocala"><rect class="cls-12" x="121.13" y="97.48" width="28.9" height="19.11" rx="8.59"/><rect class="cls-12" x="75.45" y="97.48" width="28.9" height="19.11" rx="8.59"/><path class="cls-12" d="M104.34,107.64s10.1-8.28,16.79,0"/><line class="cls-12" x1="69.84" y1="100.4" x2="75.45" y2="106.43"/><line class="cls-12" x1="153.44" y1="99.64" x2="150.03" y2="107.03"/></g><path id="Koza-2" data-name="Koza" class="cls-6" d="M152.73,99.22s10.48-3.18,7.43,13.86-7.43,27.6-7.43,27.6Z"/><path id="Koza-3" data-name="Koza" class="cls-6" d="M71,101s-10.48-3.19-7.43,13.86S71,142.47,71,142.47Z"/><ellipse id="Uhani" class="cls-13" cx="69.84" cy="139.01" rx="3.31" ry="3.59"/><ellipse id="Uhani-2" data-name="Uhani" class="cls-13" cx="155.04" cy="138.88" rx="3.31" ry="3.59"/><path class="cls-14" d="M130.34,144.92a15.24,15.24,0,0,1-6.56,8.15c-1.23-5.12-23.8-3.13-23.88-3.13a19.27,19.27,0,0,1-3.44-5A86.89,86.89,0,0,0,130.34,144.92Z"/><path class="cls-15" d="M123.78,153.07h0a19.28,19.28,0,0,1-9.32,2.69,18.07,18.07,0,0,1-14.56-5.82C100,149.94,122.55,148,123.78,153.07Z"/><polygon class="cls-14" points="99.9 149.94 99.91 149.94 99.91 149.94 99.9 149.94"/><path id="Lasje2" class="cls-11" d="M168.75,72.62h-4.23a30.23,30.23,0,0,1-6.15,6.8c-6.82,5.49-15.41,7.18-24,5.83-2.49-.38-5.09-1-7.72-1.6-1.58-.39-3.16-.83-4.74-1.28L117.09,81c-2-.67-4.2-1.26-6.42-1.75a61.75,61.75,0,0,0-6.82-1.12c-5.55-2.46-10.6.07-15.41,2.85a29.73,29.73,0,0,0-3.18,2.57c-2.93,3.89-7.13,6.41-8.38,11.7-.91,1.71-1.74,3.49-2.52,5.29s-1.54,3.64-2.26,5.47c-.46,1.94-.85,3.91-1.18,5.87s-.64,3.91-.92,5.8c0,0-.61-1-1.42-2.75a33.24,33.24,0,0,0-1.25-4,45.59,45.59,0,0,1-3.59-4.6,28.48,28.48,0,0,1-4.38-4.63A28.77,28.77,0,0,1,55,90.44a31.82,31.82,0,0,1-.47-6.18c1.74-16.18,11-33,26.8-38.79,2-.85,4-1.61,6-2.27.62-.21,1.22-.39,1.84-.58-.06-.68-.1-1.37-.1-2.08a21.2,21.2,0,0,1,42.4,0,20.6,20.6,0,0,1-.1,2.09,76.86,76.86,0,0,1,12.32,4.57c1.83.88,3.62,1.85,5.34,2.9A47.71,47.71,0,0,1,168.75,72.62Z"/></g><circle class="cls-1" cx="111.83" cy="111.83" r="109"/></g></g></svg>