<svg xmlns="http://www.w3.org/2000/svg" xmlns:xlink="http://www.w3.org/1999/xlink" viewBox="0 0 277.84 766.86"><defs><style>.cls-1{fill:none;stroke:#00a881;stroke-width:5.67px;}.cls-1,.cls-10,.cls-11,.cls-16{stroke-miterlimit:10;}.cls-2{clip-path:url(#clip-path);}.cls-3{fill:#dce6e0;}.cls-4{fill:#fbc5aa;}.cls-5{fill:#d8dcec;}.cls-10,.cls-11,.cls-6{fill:#eed1bf;}.cls-7{fill:#fff;}.cls-8{fill:#514835;}.cls-9{fill:#ebaf82;}.cls-10{stroke:#ebaf82;stroke-width:1.15px;}.cls-11{stroke:#ffe6b4;stroke-width:2.89px;}.cls-12{fill:#5a3b34;}.cls-13{fill:#d55225;}.cls-14{fill:#ffebc6;}.cls-15,.cls-16{fill:#00a881;}.cls-16{stroke:#489086;stroke-width:0.95px;}.cls-17{fill:#007dac;}.cls-18{fill:#44515c;}.cls-19{fill:#489086;}</style><clipPath id="clip-path" transform="translate(35.01)"><circle class="cls-1" cx="111.83" cy="111.83" r="109"/></clipPath></defs><g id="Layer_2" data-name="Layer 2"><g id="Avatar"><g class="cls-2"><ellipse class="cls-3" cx="138.92" cy="751.03" rx="138.92" ry="15.83"/><path class="cls-4" d="M74.27,172.43s15.63-1.17,16.35-20H129s1.57,24.55,19.87,20l-1.65,14.1-37.39,14.89-32.48-8.71L69.43,177Z" transform="translate(35.01)"/><path class="cls-5" d="M224.18,383.93l-48.77-2.13v-157s11.27-65,28.6-29.73Q218.41,293.83,224.18,383.93Z" transform="translate(35.01)"/><path class="cls-6" d="M62.5,84.94s-11.49-3.22-8.15,14S62.5,126.8,62.5,126.8Z" transform="translate(35.01)"/><path class="cls-6" d="M140,37.33h9.66a44.43,44.43,0,0,1,44.43,44.43v35A49.26,49.26,0,0,1,144.85,166h0a49.26,49.26,0,0,1-49.26-49.26v-35A44.43,44.43,0,0,1,140,37.33Z"/><path class="cls-7" d="M99.19,93c.09-7.57-23.45-7.86-23.54-.28C75.57,99.57,99.11,99.85,99.19,93Z" transform="translate(35.01)"/><path class="cls-7" d="M146.51,93c.09-7.57-23.45-7.86-23.55-.28C122.88,99.57,146.42,99.85,146.51,93Z" transform="translate(35.01)"/><circle class="cls-8" cx="121.69" cy="92.59" r="3.89"/><circle class="cls-8" cx="169.74" cy="92.59" r="3.89"/><path class="cls-9" d="M74.19,93.17s10-10,27.69,0C101.88,93.17,86.5,76.15,74.19,93.17Z" transform="translate(35.01)"/><path class="cls-9" d="M121.32,93.17s10-10,27.7,0C149,93.17,133.63,76.15,121.32,93.17Z" transform="translate(35.01)"/><path class="cls-10" d="M105.69,119.84s8,4,10.64.58c1.13-1.49-5-31.36-3-30.73" transform="translate(35.01)"/><path class="cls-11" d="M76.64,83.6s8.32-9.13,26.4,0" transform="translate(35.01)"/><path class="cls-11" d="M122.62,84.7s8.32-9.12,26.4,0" transform="translate(35.01)"/><path class="cls-12" d="M130,130.43a20.58,20.58,0,0,1-7.34,10.91c-1.39-6.86-26.65-4.2-26.74-4.19A26.59,26.59,0,0,1,92,130.43Z" transform="translate(35.01)"/><path class="cls-13" d="M122.62,141.34h0a19,19,0,0,1-10.44,3.6c-7.92.47-13.15-3.77-16.29-7.79C96,137.14,121.23,134.48,122.62,141.34Z" transform="translate(35.01)"/><polygon class="cls-12" points="130.89 137.15 130.89 137.15 130.89 137.15 130.89 137.15"/><path class="cls-6" d="M158.23,86.34s10.71-3,7.59,13.06-7.59,26-7.59,26Z" transform="translate(35.01)"/><polygon class="cls-7" points="127.03 130.43 128.11 132.82 164.16 132.82 164.97 130.43 127.03 130.43"/><path class="cls-14" d="M68.19,96.49S64.85,72,75.67,62.29A14.38,14.38,0,0,1,79,60.05a11.75,11.75,0,0,1,2.18-.77c4-1.13,8.66-.56,12.82-.3,1.07.11,2.11.21,3.12.33C116.41,61.4,126.36,65,126.36,65s5.78-5.55-3.74-8.63,15.48-.38,22,13.28a93.41,93.41,0,0,1,8,26.8l5.6,1.51s14.87-38.55-2.82-51.8c-9.7-7.26-21.71-16.44-33.6-19.73-1.18-.33-2.37-.6-3.56-.81a31,31,0,0,0-3.17-.46,30.72,30.72,0,0,0-3.18-.11,26.53,26.53,0,0,0-6.46.57c-1.1.25-2.17.55-3.22.9s-2.07.75-3.07,1.19c-9.91,5-18.56,13.08-29.46,15.74-1,.31-2.08.66-3.07,1-4.93,1.94-8.84,4.93-9.17,11.16a28.73,28.73,0,0,0-.61,2.9,25.45,25.45,0,0,0-.23,5.91c0,.72.09,1.45.08,2.21C56.64,75,59.2,85.17,68.19,96.49Z" transform="translate(35.01)"/><path class="cls-5" d="M-.74,383.93,48,381.8v-157s-11.27-65-28.6-29.73Q5,293.83-.74,383.93Z" transform="translate(35.01)"/><path class="cls-15" d="M165.25,172.43H149c-5.32,13.79-20,23.71-37.3,23.71s-32-9.92-37.3-23.71H58.19c-19.65,0-51.49,20.14-38.63,21.59,5.41.61,12.11,8.26,18.35,27.51V394.39H185.52V221.53c6.25-19.25,12.95-26.9,18.36-27.51C216.74,192.57,184.89,172.43,165.25,172.43Z" transform="translate(35.01)"/><line class="cls-16" x1="146.73" y1="394.39" x2="146.73" y2="196.14"/><rect class="cls-17" x="72.92" y="394.39" width="147.48" height="49.8"/><polygon class="cls-17" points="146.73 443.83 122.34 729.32 94.45 729.32 72.92 443.83 146.73 443.83"/><polygon class="cls-17" points="220.4 443.83 196.14 729.32 168.41 729.32 146.99 443.83 220.4 443.83"/><path class="cls-6" d="M13.59,383.27S8.07,426.83,37.91,431.2v-49Z" transform="translate(35.01)"/><path class="cls-6" d="M209.72,383.33s5.52,43.56-24.32,47.93v-49Z" transform="translate(35.01)"/><path class="cls-18" d="M133.4,729.32v21.54h72.08s9.51-21.59-34-17.55c0,0-10.59-1.88-9.27-14.22" transform="translate(35.01)"/><path class="cls-18" d="M87.22,729.32v21.54H15.15s-9.51-21.59,34-17.55c0,0,10.6-1.88,9.28-14.22" transform="translate(35.01)"/><circle class="cls-19" cx="159.1" cy="232.63" r="3.72"/><circle class="cls-19" cx="134.74" cy="232.63" r="3.72"/><circle class="cls-19" cx="159.1" cy="260.68" r="3.72"/><circle class="cls-19" cx="134.74" cy="260.68" r="3.72"/><circle class="cls-19" cx="159.1" cy="288.72" r="3.72"/><circle class="cls-19" cx="134.74" cy="288.72" r="3.72"/><circle class="cls-19" cx="159.1" cy="316.76" r="3.72"/><circle class="cls-19" cx="134.74" cy="316.76" r="3.72"/><circle class="cls-19" cx="159.1" cy="344.8" r="3.72"/><circle class="cls-19" cx="134.74" cy="344.8" r="3.72"/></g><circle class="cls-1" cx="146.84" cy="111.83" r="109"/></g></g></svg>