<svg xmlns="http://www.w3.org/2000/svg" viewBox="0 0 208.42 676.04"><defs><style>.cls-1{fill:#eed1bf;}.cls-2{fill:#d8dcec;}.cls-3{fill:#0073bc;}.cls-4{fill:none;stroke:#c1c0db;stroke-miterlimit:10;stroke-width:1.01px;}.cls-5{fill:#fbc5aa;}.cls-6{fill:#fff;}.cls-7{fill:#514835;}.cls-8{fill:#cabcdc;}.cls-9{fill:#ebaf89;}.cls-10{fill:#c1c0db;}.cls-11{fill:#200600;}.cls-12{fill:#d55227;}.cls-13{fill:#c4463a;}</style></defs><g id="Layer_2" data-name="Layer 2"><g id="Avatar"><path id="Koza" class="cls-1" d="M15.41,322.63S9.52,369,41.3,373.68V321.51Z"/><path id="Koza-2" data-name="Koza" class="cls-1" d="M189.81,327.81s5.89,46.38-25.9,51V326.68Z"/><path class="cls-2" d="M0,340.52l51.93-2V199.09s-12-61-30.45-27.88C11.26,232.9,4.16,284.13,0,340.52Z"/><path class="cls-2" d="M208.42,340.52l-51.94-2V199.09s12-61,30.46-27.88C197.16,232.9,204.26,284.13,208.42,340.52Z"/><polygon id="Hlace" class="cls-1" points="174.61 335.9 174.61 363.84 150.76 651.87 125.89 651.75 109.44 447.98 89.97 651.75 64.76 651.87 41.8 363.84 41.8 335.9 174.61 335.9"/><path class="cls-3" d="M158,305.89a306.86,306.86,0,0,1-1.24-64.54c9.19-13.48,9.44-43.09,9.42-47.76,5.11-16.22,10.54-22.73,15-23.26,10.8-1.31-16-19.46-32.47-19.46H135c-4.47,12.43-16.81,21.37-31.35,21.37s-26.87-8.94-31.35-21.37H58.7c-16.52,0-43.28,18.15-32.47,19.46,4.35.52,9.69,6.88,14.75,22.64,0,0-.58,34.27,9.65,48.74a306.83,306.83,0,0,1-1.27,64.18l-36.6,178.5s19.26,21.32,75.31,0c0,0,38.05,15.84,71.53,0,0,0,27.91,12.71,41.16,0Z"/><path class="cls-4" d="M48.26,309.37c.15-12.11,53.3,48.44,111,0"/><path id="Vrat" class="cls-5" d="M138.76,150.34c-5.1,12.81-18.42,22-34.07,22-15.37,0-28.5-8.84-33.8-21.31,4-1.14,12.58-5.35,13.09-20.48h35.3S122.52,154.29,138.76,150.34Z"/><path id="Koza-3" data-name="Koza" class="cls-1" d="M89.92,651.75l-30.69,4.17c3.61-2.34,5.93-4.17,5.93-4.17Z"/><path id="Koza-4" data-name="Koza" class="cls-1" d="M156.64,655.92,126,651.75h24.77S153,653.58,156.64,655.92Z"/><path id="cevlje" class="cls-3" d="M89.92,651.75v20.39h-15v-5.82s-33.06,12.16-47.57,9.29c0,0-16.55-2.23,8.86-11.39,19-6.85,22.83-8.27,22.83-8.27l.17,0h0Z"/><path id="cevlje-2" data-name="cevlje" class="cls-3" d="M188.51,675.61c-14.5,2.87-47.57-9.29-47.57-9.29v5.82H126V651.75l30.69,4.17h0l.17,0s3.83,1.42,22.84,8.27C205.06,673.38,188.51,675.61,188.51,675.61Z"/><path id="Koza-5" data-name="Koza" class="cls-1" d="M98.31,14h8.2a37.7,37.7,0,0,1,37.7,37.7v50.06a41.8,41.8,0,0,1-41.8,41.8h0a41.8,41.8,0,0,1-41.8-41.8V51.67A37.7,37.7,0,0,1,98.31,14Z"/><path class="cls-6" d="M90.86,74.34c.09-8-22.94-8.36-23-.31C67.75,81.3,90.78,81.6,90.86,74.34Z"/><path class="cls-6" d="M137.14,74.34c.09-8-22.93-8.36-23-.31C114,81.3,137.06,81.6,137.14,74.34Z"/><ellipse class="cls-7" cx="78.63" cy="73.89" rx="3.81" ry="4.14"/><ellipse class="cls-7" cx="125.63" cy="73.89" rx="3.81" ry="4.14"/><path id="Oci" class="cls-8" d="M66.4,74.5s9.78-10.67,27.09,0C93.49,74.5,78.44,56.43,66.4,74.5Z"/><path id="Oci-2" data-name="Oci" class="cls-8" d="M112.51,74.5s9.78-10.67,27.09,0C139.6,74.5,124.55,56.43,112.51,74.5Z"/><g id="Nos"><path class="cls-9" d="M104.52,101.73a25.86,25.86,0,0,1-8.42-1.91l.46-1.11c2.44,1,9.25,3.13,11.48.7.32-.83-.91-7.55-1.9-13-2.1-11.49-2.61-15.2-1.7-16a.78.78,0,0,1,.77-.19l-.3,1.16a.37.37,0,0,0,.38-.14c-.53,1,.95,9.09,2,15,1.86,10.15,2.29,13.22,1.6,14A5.81,5.81,0,0,1,104.52,101.73Z"/></g><path id="Obrve" class="cls-10" d="M94.2,65.1c-16.86-9.24-24.66-.3-24.74-.21l-1.33-1.12c.35-.41,8.81-10.12,26.91-.2Z"/><path id="Obrve-2" data-name="Obrve" class="cls-10" d="M139.18,66.27c-16.86-9.24-24.66-.29-24.74-.2L113.11,65c.35-.42,8.81-10.12,26.91-.2Z"/><path class="cls-11" d="M121.11,113a15.23,15.23,0,0,1-6.56,8.14C113.31,116,90.75,118,90.67,118a19.14,19.14,0,0,1-3.44-5A87.28,87.28,0,0,0,121.11,113Z"/><path class="cls-12" d="M114.55,121.1h0a19.32,19.32,0,0,1-9.33,2.69A18.09,18.09,0,0,1,90.67,118C90.75,118,113.31,116,114.55,121.1Z"/><polygon class="cls-11" points="90.67 117.97 90.67 117.97 90.67 117.97 90.67 117.97"/><path id="Lasje3" class="cls-10" d="M156.24,165.24s-5.39-1.23-9.25-14c-9.45-9.12-22.52-16.13-22.52-16.13,8.06-5,14.52-16.65,18.33-24,.14-6,1-12.52,1.59-19.91,5.8-68.52-40.06-48.71-42-48.56h0c-1.77-.1-46.8-19.69-41.94,48.56.52,7.36,1.79,13.9,1.94,19.86,5.21,9.14,15.5,22.5,15.5,22.5C72.36,129.75,65,137.84,59,146.79c-3.82,17-10.4,18.45-10.4,18.45S21.22-6.67,102.41.2C183.59-6.67,156.24,165.24,156.24,165.24Z"/><path id="Koza-6" data-name="Koza" class="cls-1" d="M143.5,67.25s10.48-3.18,7.43,13.86-7.43,27.6-7.43,27.6Z"/><path id="Koza-7" data-name="Koza" class="cls-1" d="M62.49,69.73S52,66.54,55.06,83.59s7.43,27.6,7.43,27.6Z"/><ellipse id="Uhani" class="cls-13" cx="60.61" cy="107.04" rx="3.31" ry="3.59"/><ellipse id="Uhani-2" data-name="Uhani" class="cls-13" cx="145.8" cy="106.91" rx="3.31" ry="3.59"/></g></g></svg>