<svg xmlns="http://www.w3.org/2000/svg" xmlns:xlink="http://www.w3.org/1999/xlink" viewBox="0 0 223.67 671.77"><defs><style>.cls-1,.cls-14,.cls-7{fill:none;stroke-miterlimit:10;}.cls-1{stroke:#c54639;stroke-width:5.67px;}.cls-2{clip-path:url(#clip-path);}.cls-3{fill:#eed1bf;}.cls-4{fill:#fcc5aa;}.cls-5{fill:#d9dceb;}.cls-6{fill:#074368;}.cls-7{stroke:#c1c0da;stroke-width:1.01px;}.cls-8{fill:#c4463a;}.cls-9{fill:#fff;}.cls-10{fill:#524935;}.cls-11{fill:#c9bcdd;}.cls-12{fill:#ebaf89;}.cls-13{fill:#c1c0da;}.cls-14{stroke:#231f20;stroke-width:0.63px;}.cls-15{fill:#200600;}.cls-16{fill:#d55227;}</style><clipPath id="clip-path"><circle id="Krog" class="cls-1" cx="111.83" cy="111.83" r="109"/></clipPath></defs><g id="Layer_2" data-name="Layer 2"><g id="Layer_1-2" data-name="Layer 1"><g class="cls-2"><path id="Koza" class="cls-3" d="M24.59,357.54s-5.88,46.38,25.9,51V356.41Z"/><path id="Koza-2" data-name="Koza" class="cls-3" d="M199,362.72s5.88,46.38-25.9,51V361.59Z"/><path id="Vrat" class="cls-4" d="M148,177.53c-5.1,12.81-18.42,22-34.07,22-15.37,0-28.5-8.84-33.8-21.32,4-1.13,12.58-5.35,13.09-20.48h35.3S131.71,181.48,148,177.53Z"/><path class="cls-5" d="M9.19,375.42l51.93-2V226.27s-12-61-30.45-27.88Q15.34,290.94,9.19,375.42Z"/><path class="cls-5" d="M217.61,375.42l-51.94-2V226.27s12-61,30.46-27.88Q211.46,290.94,217.61,375.42Z"/><path id="Koza-3" data-name="Koza" class="cls-3" d="M99.11,647.48l-30.69,4.17c3.61-2.35,5.93-4.17,5.93-4.17Z"/><path id="Koza-4" data-name="Koza" class="cls-3" d="M165.83,651.65l-30.69-4.17h24.77S162.23,649.3,165.83,651.65Z"/><path id="cevlje" class="cls-6" d="M99.11,647.48v20.38h-15v-5.81s-33.06,12.15-47.57,9.29c0,0-16.55-2.23,8.86-11.4,19-6.84,22.83-8.27,22.83-8.27h.18Z"/><path id="cevlje-2" data-name="cevlje" class="cls-6" d="M197.7,671.34c-14.5,2.86-47.57-9.29-47.57-9.29v5.81h-15V647.48l30.69,4.17H166s3.83,1.43,22.84,8.27C214.25,669.11,197.7,671.34,197.7,671.34Z"/><path class="cls-7" d="M52.33,344.39c.14-12.11,61.31,48.44,119,0"/><polygon id="Hlace" class="cls-6" points="183.8 370.81 183.8 398.75 161.06 647.48 135.08 647.48 118.63 443.7 99.16 647.48 71.98 647.48 50.99 398.75 50.99 370.81 183.8 370.81"/><path id="Majica" class="cls-8" d="M198.74,197.45c-4.83.59-10.78,7.47-16.38,24.68,0,5,2.85,36.81-7.21,51.12C173,295.76,181,347.72,183.8,370.8c-56.74,46.95-129,1.63-132.81,0,2.74-22.75,6.89-75.42,4.78-97.63-11.22-15.35-10.58-51.69-10.58-51.69C39.65,204.76,33.8,198,29,197.45c-11.84-1.38,17.48-20.63,35.57-20.63H79.54q.25.7.54,1.35c5.3,12.48,18.43,21.32,33.8,21.32,15.65,0,29-9.15,34.07-22,.1-.23.19-.48.28-.71h14.94C181.26,176.82,210.58,196.07,198.74,197.45Z"/><path id="Koza-5" data-name="Koza" class="cls-3" d="M107.92,41.18h8.2a37.7,37.7,0,0,1,37.7,37.7v50.06a41.8,41.8,0,0,1-41.8,41.8h0a41.8,41.8,0,0,1-41.8-41.8V78.88a37.7,37.7,0,0,1,37.7-37.7Z"/><path class="cls-9" d="M100.47,101.55c.09-8-22.93-8.35-23-.31C77.36,108.51,100.39,108.82,100.47,101.55Z"/><path class="cls-9" d="M146.76,101.55c.09-8-22.94-8.35-23-.31C123.65,108.51,146.68,108.82,146.76,101.55Z"/><ellipse class="cls-10" cx="88.24" cy="101.1" rx="3.81" ry="4.14"/><ellipse class="cls-10" cx="135.25" cy="101.1" rx="3.81" ry="4.14"/><path id="Oci" class="cls-11" d="M76,101.72s9.79-10.67,27.1,0C103.11,101.72,88.06,83.64,76,101.72Z"/><path id="Oci-2" data-name="Oci" class="cls-11" d="M122.12,101.72s9.79-10.67,27.1,0C149.22,101.72,134.16,83.64,122.12,101.72Z"/><g id="Nos"><path class="cls-12" d="M114.13,128.94a25.7,25.7,0,0,1-8.41-1.91l.46-1.11c2.44,1,9.25,3.13,11.47.7.32-.83-.91-7.54-1.89-12.94-2.1-11.49-2.61-15.2-1.71-16.05a.85.85,0,0,1,.78-.19l-.3,1.16a.39.39,0,0,0,.38-.14c-.53,1,.94,9.1,2,15,1.86,10.16,2.3,13.22,1.61,14A5.83,5.83,0,0,1,114.13,128.94Z"/></g><path id="Obrve" class="cls-13" d="M103.82,92.31C87,83.07,79.16,92,79.08,92.11L77.75,91c.35-.42,8.8-10.12,26.91-.2Z"/><path id="Obrve-2" data-name="Obrve" class="cls-13" d="M148.8,93.48c-16.87-9.24-24.67-.29-24.74-.2l-1.33-1.12c.35-.42,8.81-10.12,26.91-.2Z"/><g id="ocala"><rect class="cls-14" x="121.52" y="92.72" width="28.9" height="19.11" rx="8.59"/><rect class="cls-14" x="75.83" y="92.72" width="28.9" height="19.11" rx="8.59"/><path class="cls-14" d="M104.73,102.88s10.09-8.28,16.79,0"/><line class="cls-14" x1="70.23" y1="95.64" x2="75.83" y2="101.67"/><line class="cls-14" x1="153.82" y1="94.88" x2="150.41" y2="102.28"/></g><path id="Koza-6" data-name="Koza" class="cls-3" d="M153.11,94.47s10.48-3.19,7.43,13.86-7.43,27.6-7.43,27.6Z"/><path id="Koza-7" data-name="Koza" class="cls-3" d="M71.36,96.25s-10.49-3.18-7.44,13.87,7.44,27.6,7.44,27.6Z"/><ellipse id="Uhani" class="cls-8" cx="70.23" cy="134.25" rx="3.31" ry="3.59"/><ellipse id="Uhani-2" data-name="Uhani" class="cls-8" cx="155.42" cy="134.13" rx="3.31" ry="3.59"/><path class="cls-15" d="M130.73,140.17a15.29,15.29,0,0,1-6.56,8.14c-1.24-5.12-23.81-3.13-23.88-3.12a19,19,0,0,1-3.44-5A87.28,87.28,0,0,0,130.73,140.17Z"/><path class="cls-16" d="M124.17,148.31h0a19.17,19.17,0,0,1-9.32,2.7,18,18,0,0,1-14.55-5.82C100.36,145.18,122.93,143.19,124.17,148.31Z"/><polygon class="cls-15" points="100.29 145.19 100.29 145.19 100.29 145.19 100.29 145.19"/><path id="Lasje" class="cls-13" d="M169.13,67.86H164.9a30,30,0,0,1-6.15,6.8c-6.81,5.5-15.41,7.19-24,5.83-2.49-.37-5.08-.95-7.72-1.6q-2.35-.58-4.74-1.28l-4.81-1.39a65.25,65.25,0,0,0-6.42-1.76,63.79,63.79,0,0,0-6.82-1.12c-5.55-2.45-10.59.07-15.41,2.85a33.34,33.34,0,0,0-3.18,2.57c-2.93,3.89-7.13,6.42-8.37,11.7-.91,1.72-1.74,3.49-2.53,5.3s-1.53,3.64-2.26,5.47c-.46,1.93-.85,3.91-1.18,5.86s-.64,3.91-.92,5.8c0,0-.61-1-1.42-2.75a30,30,0,0,0-1.25-4,45.46,45.46,0,0,1-3.59-4.59,29,29,0,0,1-4.38-4.64,28.79,28.79,0,0,1-4.35-11.23,33.57,33.57,0,0,1-.47-6.19c1.74-16.18,11-33,26.8-38.79q3-1.27,6-2.27c.61-.2,1.22-.39,1.84-.57a20.6,20.6,0,0,1-.1-2.09,21.2,21.2,0,1,1,42.4,0c0,.71,0,1.41-.1,2.1a75.68,75.68,0,0,1,12.32,4.57,56,56,0,0,1,5.33,2.9A47.58,47.58,0,0,1,169.13,67.86Z"/></g><circle id="Krog-2" data-name="Krog" class="cls-1" cx="111.83" cy="111.83" r="109"/></g></g></svg>