<svg xmlns="http://www.w3.org/2000/svg" xmlns:xlink="http://www.w3.org/1999/xlink" viewBox="0 0 223.67 668.46"><defs><style>.cls-1,.cls-14,.cls-7{fill:none;stroke-miterlimit:10;}.cls-1{stroke:#c54639;stroke-width:5.67px;}.cls-2{clip-path:url(#clip-path);}.cls-3{fill:#eed1bf;}.cls-4{fill:#fcc5aa;}.cls-5{fill:#d9dceb;}.cls-6{fill:#074368;}.cls-7{stroke:#c1c0da;stroke-width:1.01px;}.cls-8{fill:#c4463a;}.cls-9{fill:#fff;}.cls-10{fill:#524935;}.cls-11{fill:#c9bcdd;}.cls-12{fill:#ebaf89;}.cls-13{fill:#c1c0da;}.cls-14{stroke:#231f20;stroke-width:0.63px;}.cls-15{fill:#200600;}.cls-16{fill:#d55227;}</style><clipPath id="clip-path"><circle id="Krog" class="cls-1" cx="111.83" cy="111.83" r="109"/></clipPath></defs><g id="Layer_2" data-name="Layer 2"><g id="Layer_1-2" data-name="Layer 1"><g class="cls-2"><path id="Koza" class="cls-3" d="M24.59,354.23s-5.88,46.38,25.9,51V353.1Z"/><path id="Koza-2" data-name="Koza" class="cls-3" d="M199,359.41s5.88,46.38-25.9,51V358.28Z"/><path id="Vrat" class="cls-4" d="M148,174.21c-5.1,12.81-18.42,22-34.07,22-15.37,0-28.5-8.84-33.8-21.31,4-1.14,12.58-5.35,13.09-20.48h35.3S131.71,178.16,148,174.21Z"/><path class="cls-5" d="M9.19,372.11l51.93-2V223s-12-61-30.45-27.88Q15.34,287.63,9.19,372.11Z"/><path class="cls-5" d="M217.61,372.11l-51.94-2V223s12-61,30.46-27.88Q211.46,287.63,217.61,372.11Z"/><path id="Koza-3" data-name="Koza" class="cls-3" d="M99.11,644.16l-30.69,4.17c3.61-2.34,5.93-4.17,5.93-4.17Z"/><path id="Koza-4" data-name="Koza" class="cls-3" d="M165.83,648.33l-30.69-4.17h24.77S162.23,646,165.83,648.33Z"/><path id="cevlje" class="cls-6" d="M99.11,644.16v20.39h-15v-5.82S51.06,670.89,36.55,668c0,0-16.55-2.23,8.86-11.39,19-6.85,22.83-8.27,22.83-8.27l.17,0h0Z"/><path id="cevlje-2" data-name="cevlje" class="cls-6" d="M197.7,668c-14.5,2.87-47.57-9.29-47.57-9.29v5.82h-15V644.16l30.69,4.17h0l.17,0s3.83,1.42,22.84,8.27C214.25,665.79,197.7,668,197.7,668Z"/><path class="cls-7" d="M52.33,341.07c.14-12.11,61.31,48.45,119,0"/><polygon id="Hlace" class="cls-6" points="183.8 367.49 183.8 395.43 161.06 644.16 135.08 644.16 118.63 440.39 99.16 644.16 71.98 644.16 50.99 395.43 50.99 367.49 183.8 367.49"/><path id="Majica" class="cls-8" d="M198.74,194.14c-4.83.58-10.78,7.47-16.38,24.68,0,5,2.85,36.81-7.21,51.12C173,292.45,181,344.4,183.8,367.49c-56.74,46.95-129,1.63-132.81,0,2.74-22.76,6.89-75.42,4.78-97.64-11.22-15.34-10.58-51.69-10.58-51.69-5.54-16.71-11.39-23.45-16.16-24-11.84-1.38,17.48-20.63,35.57-20.63H79.54q.25.69.54,1.35c5.3,12.47,18.43,21.31,33.8,21.31,15.65,0,29-9.15,34.07-22,.1-.23.19-.47.28-.7h14.94C181.26,173.51,210.58,192.76,198.74,194.14Z"/><path id="Koza-5" data-name="Koza" class="cls-3" d="M107.43,37.1h8.2a37.7,37.7,0,0,1,37.7,37.7v50.06a41.8,41.8,0,0,1-41.8,41.8h0a41.8,41.8,0,0,1-41.8-41.8V74.79a37.7,37.7,0,0,1,37.7-37.7Z"/><path class="cls-9" d="M100,97.46c.09-8-22.94-8.35-23-.3C76.87,104.42,99.9,104.73,100,97.46Z"/><path class="cls-9" d="M146.27,97.46c.09-8-22.94-8.35-23-.3C123.16,104.42,146.19,104.73,146.27,97.46Z"/><ellipse class="cls-10" cx="87.75" cy="97.02" rx="3.81" ry="4.14"/><ellipse class="cls-10" cx="134.75" cy="97.02" rx="3.81" ry="4.14"/><path id="Oci" class="cls-11" d="M75.52,97.63s9.79-10.67,27.1,0C102.62,97.63,87.56,79.55,75.52,97.63Z"/><path id="Oci-2" data-name="Oci" class="cls-11" d="M121.63,97.63s9.78-10.67,27.09,0C148.72,97.63,133.67,79.55,121.63,97.63Z"/><g id="Nos"><path class="cls-12" d="M113.64,124.85a25.7,25.7,0,0,1-8.41-1.91l.46-1.1c2.43,1,9.24,3.12,11.47.7.32-.83-.91-7.55-1.9-13-2.1-11.49-2.61-15.2-1.7-16a.84.84,0,0,1,.78-.19l-.3,1.16a.37.37,0,0,0,.38-.14c-.54,1,.94,9.1,2,15,1.86,10.16,2.3,13.22,1.61,14A5.83,5.83,0,0,1,113.64,124.85Z"/></g><path id="Obrve" class="cls-13" d="M103.33,88.22C86.47,79,78.66,87.93,78.59,88L77.26,86.9c.35-.42,8.8-10.12,26.9-.2Z"/><path id="Obrve-2" data-name="Obrve" class="cls-13" d="M148.31,89.4c-16.87-9.25-24.67-.3-24.74-.21l-1.33-1.12c.35-.41,8.8-10.12,26.9-.2Z"/><g id="ocala"><rect class="cls-14" x="121.02" y="88.63" width="28.9" height="19.11" rx="8.59"/><rect class="cls-14" x="75.34" y="88.63" width="28.9" height="19.11" rx="8.59"/><path class="cls-14" d="M104.23,98.8s10.1-8.29,16.79,0"/><line class="cls-14" x1="69.73" y1="91.55" x2="75.34" y2="97.58"/><line class="cls-14" x1="153.33" y1="90.79" x2="149.92" y2="98.19"/></g><path id="Koza-6" data-name="Koza" class="cls-3" d="M152.62,90.38s10.48-3.19,7.43,13.86-7.43,27.6-7.43,27.6Z"/><path id="Koza-7" data-name="Koza" class="cls-3" d="M70.14,91.22S59.66,88,62.71,105.08s7.43,27.6,7.43,27.6Z"/><ellipse id="Uhani" class="cls-8" cx="69.73" cy="130.16" rx="3.31" ry="3.59"/><ellipse id="Uhani-2" data-name="Uhani" class="cls-8" cx="154.93" cy="130.04" rx="3.31" ry="3.59"/><path class="cls-15" d="M130.23,136.08a15.23,15.23,0,0,1-6.56,8.14c-1.23-5.12-23.8-3.13-23.87-3.12a19.17,19.17,0,0,1-3.45-5A87.28,87.28,0,0,0,130.23,136.08Z"/><path class="cls-16" d="M123.67,144.22h0a19.17,19.17,0,0,1-9.32,2.7A18,18,0,0,1,99.8,141.1C99.87,141.09,122.44,139.1,123.67,144.22Z"/><polygon class="cls-15" points="99.8 141.1 99.8 141.1 99.8 141.1 99.8 141.1"/><path id="Lasje" class="cls-13" d="M68.29,107.05c.25-2.32.58-4.69,1-7a45.4,45.4,0,0,1,5.45-18.13,32.74,32.74,0,0,1,3.48-5.05c2.28-1.57,4.05-5.12,6.59-5.92A24.61,24.61,0,0,1,89,69.18a27.06,27.06,0,0,1,4.36-1,92.67,92.67,0,0,1,10.9.33,28.71,28.71,0,0,1,10,2.76c1.56.46,3.12.93,4.69,1.34a40.69,40.69,0,0,1,5.81-.85,38.09,38.09,0,0,1,5.85,0,16.11,16.11,0,0,1,3,.08,16.78,16.78,0,0,1,2.85.61c4.31,1,6.08,4.56,9.36,6.64.64.77,1.25,1.58,1.82,2.42s1.12,1.72,1.62,2.62a42.79,42.79,0,0,1,2.61,5.58,44.77,44.77,0,0,1,1.75,5.67c.52,1.11,1.57,1.11,2.62,1.66.05-1.22.14-2.45.27-3.67s.31-2.43.51-3.63c7.42-7.4,15.49-16.29,14.74-28.06a17.74,17.74,0,0,0-.68-3.15,17.3,17.3,0,0,0-1.35-3.13c-.54-1-1.14-2-1.79-2.94-3.26-4.82-7.85-9.18-12.23-12.95a26.17,26.17,0,0,1-1.42-3.39,23.17,23.17,0,0,0-1.41-2.3,22.18,22.18,0,0,0-1.64-2.09,21.29,21.29,0,0,0-2.6-2.42,33.47,33.47,0,0,0-11.88-4.56c-1.07-.21-2.16-.37-3.25-.48-8.69-1.48-17.56,3-26.61,1.77-1-.22-2-.46-3-.71s-2-.54-3-.82a24.2,24.2,0,0,0-26.85,4,28,28,0,0,0-2.35,2.27,29.6,29.6,0,0,0-6.55,11.32c-.6,1-1.21,1.91-1.83,2.87L61.6,46.35a68.53,68.53,0,0,1-7.48,5.06,14.24,14.24,0,0,0-2,2.81,22.54,22.54,0,0,0-1.46,3.27c-.38,1-.71,2.1-1,3.17-2.34,8.56-2,17.83,5,24.31.77.77,1.56,1.5,2.35,2.23,3.93,3.66,8,7.19,8.55,12.53.45,1.56.9,3.1,1.35,4.61A29.1,29.1,0,0,0,68.29,107.05Z"/></g><circle id="Krog-2" data-name="Krog" class="cls-1" cx="111.83" cy="111.83" r="109"/></g></g></svg>