<svg xmlns="http://www.w3.org/2000/svg" xmlns:xlink="http://www.w3.org/1999/xlink" viewBox="0 0 223.67 664.28"><defs><style>.cls-1,.cls-16,.cls-7{fill:none;stroke-miterlimit:10;}.cls-1{stroke:#c54639;stroke-width:5.67px;}.cls-2{clip-path:url(#clip-path);}.cls-3{fill:#eed1bf;}.cls-4{fill:#fcc5aa;}.cls-5{fill:#d9dceb;}.cls-6{fill:#074368;}.cls-7{stroke:#c1c0da;stroke-width:1.01px;}.cls-8{fill:#c4463a;}.cls-9{fill:#fff;}.cls-10{fill:#524935;}.cls-11{fill:#c9bcdd;}.cls-12{fill:#ebaf89;}.cls-13{fill:#c1c0da;}.cls-14{fill:#200600;}.cls-15{fill:#d55227;}.cls-16{stroke:#231f20;stroke-width:0.63px;}</style><clipPath id="clip-path"><circle id="Krog" class="cls-1" cx="111.83" cy="111.83" r="109"/></clipPath></defs><g id="Layer_2" data-name="Layer 2"><g id="Layer_1-2" data-name="Layer 1"><g class="cls-2"><path id="Koza" class="cls-3" d="M22.41,350.05s-5.88,46.38,25.9,51V348.92Z"/><path id="Koza-2" data-name="Koza" class="cls-3" d="M196.82,355.23s5.88,46.38-25.9,51V354.1Z"/><path id="Vrat" class="cls-4" d="M145.77,170c-5.1,12.81-18.42,22-34.07,22-15.37,0-28.5-8.84-33.8-21.31,3.95-1.14,12.58-5.35,13.09-20.48h35.3S129.53,174,145.77,170Z"/><path class="cls-5" d="M7,367.93l51.93-2V218.78s-12-61-30.46-27.88Q13.15,283.45,7,367.93Z"/><path class="cls-5" d="M215.42,367.93l-51.93-2V218.78s12-61,30.46-27.88Q209.27,283.45,215.42,367.93Z"/><path id="Koza-3" data-name="Koza" class="cls-3" d="M96.93,640l-30.69,4.17c3.61-2.34,5.93-4.17,5.93-4.17Z"/><path id="Koza-4" data-name="Koza" class="cls-3" d="M163.65,644.15,133,640h24.77S160.05,641.81,163.65,644.15Z"/><path id="cevlje" class="cls-6" d="M96.93,640v20.39h-15v-5.82s-33.06,12.16-47.57,9.29c0,0-16.55-2.23,8.86-11.39,19-6.85,22.83-8.27,22.83-8.27l.17,0h0Z"/><path id="cevlje-2" data-name="cevlje" class="cls-6" d="M195.52,663.84C181,666.71,148,654.55,148,654.55v5.82H133V640l30.69,4.17h0l.17,0s3.83,1.42,22.84,8.27C212.07,661.61,195.52,663.84,195.52,663.84Z"/><path class="cls-7" d="M50.15,336.89c.14-12.1,61.31,48.45,119,0"/><polygon id="Hlace" class="cls-6" points="181.62 363.31 181.62 391.25 158.88 639.98 132.9 639.98 116.45 436.21 96.98 639.98 69.8 639.98 48.81 391.25 48.81 363.31 181.62 363.31"/><path id="Majica" class="cls-8" d="M196.56,190c-4.83.58-10.78,7.47-16.38,24.68,0,5,2.85,36.81-7.21,51.12-2.17,22.51,5.85,74.46,8.65,97.55-56.74,46.95-129,1.63-132.81,0,2.74-22.76,6.89-75.42,4.78-97.64C42.37,250.33,43,214,43,214c-5.54-16.71-11.39-23.45-16.16-24C15,188.58,44.33,169.33,62.42,169.33H77.36q.26.69.54,1.35C83.2,183.15,96.33,192,111.7,192c15.65,0,29-9.15,34.07-22,.1-.23.19-.47.28-.7H161C179.08,169.33,208.4,188.58,196.56,190Z"/><path id="Koza-5" data-name="Koza" class="cls-3" d="M105.55,35.46h8.2a37.7,37.7,0,0,1,37.7,37.7v50.06a41.8,41.8,0,0,1-41.8,41.8h0a41.8,41.8,0,0,1-41.8-41.8V73.16a37.7,37.7,0,0,1,37.7-37.7Z"/><path class="cls-9" d="M98.1,95.83c.09-8-22.93-8.35-23-.31C75,102.79,98,103.1,98.1,95.83Z"/><path class="cls-9" d="M144.39,95.83c.09-8-22.94-8.35-23-.31C121.28,102.79,144.31,103.1,144.39,95.83Z"/><ellipse class="cls-10" cx="85.87" cy="95.38" rx="3.81" ry="4.14"/><ellipse class="cls-10" cx="132.88" cy="95.38" rx="3.81" ry="4.14"/><path id="Oci" class="cls-11" d="M73.64,96s9.79-10.67,27.1,0C100.74,96,85.69,77.92,73.64,96Z"/><path id="Oci-2" data-name="Oci" class="cls-11" d="M119.75,96s9.79-10.67,27.1,0C146.85,96,131.79,77.92,119.75,96Z"/><g id="Nos"><path class="cls-12" d="M111.76,123.22a25.7,25.7,0,0,1-8.41-1.91l.46-1.11c2.44,1,9.25,3.13,11.47.7.32-.83-.91-7.54-1.89-12.94-2.1-11.49-2.61-15.2-1.71-16a.85.85,0,0,1,.78-.19l-.3,1.16a.39.39,0,0,0,.38-.14c-.53,1,.94,9.1,2,15,1.86,10.16,2.3,13.22,1.61,14A5.83,5.83,0,0,1,111.76,123.22Z"/></g><path id="Obrve" class="cls-13" d="M101.45,86.59c-16.86-9.24-24.66-.29-24.74-.2l-1.33-1.12c.35-.42,8.8-10.12,26.91-.2Z"/><path id="Obrve-2" data-name="Obrve" class="cls-13" d="M146.43,87.76c-16.87-9.24-24.67-.29-24.74-.2l-1.33-1.12c.35-.42,8.81-10.12,26.91-.2Z"/><path class="cls-14" d="M128.36,134.45a15.29,15.29,0,0,1-6.56,8.14c-1.24-5.12-23.81-3.13-23.88-3.12a19,19,0,0,1-3.44-5A87.28,87.28,0,0,0,128.36,134.45Z"/><path class="cls-15" d="M121.8,142.59h0a19.17,19.17,0,0,1-9.32,2.7,18,18,0,0,1-14.55-5.82C98,139.46,120.56,137.47,121.8,142.59Z"/><polygon class="cls-14" points="97.92 139.47 97.92 139.47 97.92 139.47 97.92 139.47"/><path id="Lasje" class="cls-13" d="M163.48,186.74s-5.39-1.24-9.24-14c-9.45-9.12-22.53-16.13-22.53-16.13,8.06-5,14.52-16.65,18.33-24,.15-6,1-12.53,1.59-19.92,5.8-68.52-40.06-48.7-42-48.56h0c-1.77-.09-46.8-19.69-41.95,48.56.52,7.36,1.8,13.9,1.94,19.87C74.82,141.66,85.12,155,85.12,155c-5.51-3.77-12.91,4.31-18.89,13.27-3.82,16.94-10.41,18.45-10.41,18.45s-27.36-171.92,53.84-165C190.84,14.83,163.48,186.74,163.48,186.74Z"/><path id="Koza-6" data-name="Koza" class="cls-3" d="M150.74,88.75s10.48-3.19,7.43,13.86-7.43,27.6-7.43,27.6Z"/><path id="Koza-7" data-name="Koza" class="cls-3" d="M69.73,91.22S59.25,88,62.3,105.08s7.43,27.6,7.43,27.6Z"/><ellipse id="Uhani" class="cls-8" cx="67.86" cy="128.53" rx="3.31" ry="3.59"/><ellipse id="Uhani-2" data-name="Uhani" class="cls-8" cx="153.05" cy="128.41" rx="3.31" ry="3.59"/><g id="ocala"><rect class="cls-16" x="119.15" y="87" width="28.9" height="19.11" rx="8.59"/><rect class="cls-16" x="73.46" y="87" width="28.9" height="19.11" rx="8.59"/><path class="cls-16" d="M102.36,97.16s10.09-8.28,16.79,0"/><line class="cls-16" x1="67.86" y1="89.92" x2="73.46" y2="95.95"/><line class="cls-16" x1="151.45" y1="89.16" x2="148.04" y2="96.56"/></g></g><circle id="Krog-2" data-name="Krog" class="cls-1" cx="111.83" cy="111.83" r="109"/></g></g></svg>