<svg xmlns="http://www.w3.org/2000/svg" xmlns:xlink="http://www.w3.org/1999/xlink" viewBox="0 0 223.67 671.92"><defs><style>.cls-1,.cls-13,.cls-7{fill:none;stroke-miterlimit:10;}.cls-1{stroke:#c54639;stroke-width:5.67px;}.cls-2{clip-path:url(#clip-path);}.cls-3{fill:#eed1bf;}.cls-4{fill:#fcc5aa;}.cls-5{fill:#d9dceb;}.cls-6{fill:#074368;}.cls-7{stroke:#c1c0da;stroke-width:1.01px;}.cls-8{fill:#fff;}.cls-9{fill:#524935;}.cls-10{fill:#c9bcdd;}.cls-11{fill:#ebaf89;}.cls-12{fill:#bbb7dc;}.cls-13{stroke:#231f20;stroke-width:0.63px;}.cls-14{fill:#c4463a;}.cls-15{fill:#200600;}.cls-16{fill:#d55227;}</style><clipPath id="clip-path"><circle id="Krog" class="cls-1" cx="111.83" cy="111.83" r="109"/></clipPath></defs><g id="Layer_2" data-name="Layer 2"><g id="Layer_1-2" data-name="Layer 1"><g class="cls-2"><path id="Koza" class="cls-3" d="M25,357.69s-5.88,46.38,25.9,51V356.56Z"/><path id="Koza-2" data-name="Koza" class="cls-3" d="M199.39,362.86s5.88,46.38-25.9,51V361.73Z"/><path id="Vrat" class="cls-4" d="M148.34,177.67c-5.1,12.81-18.42,22-34.07,22-15.37,0-28.5-8.84-33.8-21.31,4-1.14,12.58-5.35,13.09-20.48h35.3S132.1,181.62,148.34,177.67Z"/><path class="cls-5" d="M9.58,375.57l51.93-2V226.41s-12-61-30.45-27.87Q15.73,291.08,9.58,375.57Z"/><path class="cls-5" d="M218,375.57l-51.94-2V226.41s12-61,30.46-27.87Q211.85,291.08,218,375.57Z"/><path id="Koza-3" data-name="Koza" class="cls-3" d="M99.5,647.62l-30.69,4.17c3.61-2.34,5.93-4.17,5.93-4.17Z"/><path id="Koza-4" data-name="Koza" class="cls-3" d="M166.22,651.79l-30.69-4.17H160.3S162.62,649.45,166.22,651.79Z"/><path id="cevlje" class="cls-6" d="M99.5,647.62V668h-15v-5.82s-33.06,12.16-47.57,9.29c0,0-16.55-2.23,8.86-11.39,19-6.85,22.83-8.27,22.83-8.27l.17,0h0Z"/><path id="cevlje-2" data-name="cevlje" class="cls-6" d="M198.09,671.48c-14.5,2.87-47.57-9.29-47.57-9.29V668h-15V647.62l30.69,4.17h0l.17,0s3.83,1.42,22.84,8.27C214.64,669.25,198.09,671.48,198.09,671.48Z"/><path class="cls-7" d="M52.72,344.53c.14-12.11,61.31,48.44,119,0"/><path id="Koza-5" data-name="Koza" class="cls-3" d="M107.74,39.84h8.2a37.7,37.7,0,0,1,37.7,37.7V127.6a41.8,41.8,0,0,1-41.8,41.8h0A41.8,41.8,0,0,1,70,127.6V77.54a37.7,37.7,0,0,1,37.7-37.7Z"/><path class="cls-8" d="M100.29,100.21c.09-8-22.94-8.35-23-.31C77.18,107.17,100.21,107.47,100.29,100.21Z"/><path class="cls-8" d="M146.57,100.21c.09-8-22.94-8.35-23-.31C123.46,107.17,146.49,107.47,146.57,100.21Z"/><ellipse class="cls-9" cx="88.06" cy="99.76" rx="3.81" ry="4.14"/><ellipse class="cls-9" cx="135.06" cy="99.76" rx="3.81" ry="4.14"/><path id="Oci" class="cls-10" d="M75.83,100.38s9.78-10.68,27.09,0C102.92,100.38,87.87,82.3,75.83,100.38Z"/><path id="Oci-2" data-name="Oci" class="cls-10" d="M121.93,100.38s9.79-10.68,27.1,0C149,100.38,134,82.3,121.93,100.38Z"/><g id="Nos"><path class="cls-11" d="M114,127.6a25.86,25.86,0,0,1-8.42-1.91l.46-1.11c2.44,1,9.25,3.13,11.48.7.32-.83-.91-7.55-1.9-12.94-2.1-11.49-2.61-15.21-1.71-16a.8.8,0,0,1,.78-.19l-.3,1.16a.38.38,0,0,0,.38-.14c-.53,1,1,9.1,2,15,1.85,10.15,2.29,13.22,1.6,14A5.81,5.81,0,0,1,114,127.6Z"/></g><path id="Obrve" class="cls-12" d="M103.63,91c-16.86-9.24-24.66-.3-24.74-.2l-1.33-1.12c.35-.42,8.81-10.12,26.91-.21Z"/><path id="Obrve-2" data-name="Obrve" class="cls-12" d="M148.61,92.14c-16.86-9.24-24.66-.29-24.74-.2l-1.33-1.12c.35-.42,8.81-10.12,26.91-.2Z"/><g id="ocala"><rect class="cls-13" x="121.33" y="91.38" width="28.9" height="19.11" rx="8.59"/><rect class="cls-13" x="75.64" y="91.38" width="28.9" height="19.11" rx="8.59"/><path class="cls-13" d="M104.54,101.54s10.09-8.28,16.79,0"/><line class="cls-13" x1="70.04" y1="94.3" x2="75.64" y2="100.33"/><line class="cls-13" x1="153.63" y1="93.54" x2="150.22" y2="100.94"/></g><path id="Lasje" class="cls-12" d="M80.18,78.08c5.19-8,11.87-14.33,20.73-17.15a25.11,25.11,0,0,1,4.16-.9,23.3,23.3,0,0,1,4.26-.16,43.93,43.93,0,0,1,6,.19,47,47,0,0,1,6,1,26.42,26.42,0,0,1,5.08,1.51c14.11,4.83,19.12,21.14,21.34,35.29.31,1.85.53,3.67.68,5.44.43,1.41.83,2.81,1.21,4.22s.72,2.81,1,4.23c.63,2.84,1.15,5.7,1.58,8.63q.65,3.23,1,6.4t.45,6.36c1.7,11.78-.55,23.42,1.7,35.06,11.29-4.9,15.81-19,15.48-31.38.14-2.59.25-5.21.35-7.75.23-3.19.36-6.36.44-9.45s.16-6.4.14-9.59c-.06-9.57-.62-19-.63-27.43q-.6-4.91-1.56-9.74c-.64-3.21-1.42-6.41-2.33-9.56a54.07,54.07,0,0,0-4.56-7.5,56.69,56.69,0,0,0-5.52-6.5A67.51,67.51,0,0,0,116.4,29.93a46.4,46.4,0,0,0-9.71-.69,47.1,47.1,0,0,0-9.37,1.28A48.92,48.92,0,0,0,81.8,37.19a52.57,52.57,0,0,0-6.72,5.19,50.23,50.23,0,0,0-6,7A66.78,66.78,0,0,0,64.67,57c-.65,1.31-1.26,2.64-1.82,4s-1.1,2.71-1.6,4.09C59.51,73.71,56.17,81.86,56,90.89c-.21,2.19-.35,4.38-.44,6.58a169.44,169.44,0,0,0,2.11,32.93c.63,4.92,1.34,9.53,2.06,13.69,2.13,12.46,4.32,20.81,4.32,20.81a17.34,17.34,0,0,0,7.66.07,9.85,9.85,0,0,0,5.44-4.29c1.39-4.15,3.08-9.05,1.56-14.23-.33-2.54-.8-5-1.2-7.19-.31-2.78-.64-5.86-1-9.15C76,124,75.29,117.71,75,111.44c-.1-2.09-.15-4.18-.13-6.24,1.33-6.12.5-12.46,3.46-19.17A54.31,54.31,0,0,1,80.18,78.08Z"/><path id="Koza-6" data-name="Koza" class="cls-3" d="M152.93,93.13s10.48-3.19,7.43,13.86-7.43,27.6-7.43,27.6Z"/><path id="Koza-7" data-name="Koza" class="cls-3" d="M71.17,94.91s-10.48-3.18-7.43,13.86,7.43,27.6,7.43,27.6Z"/><ellipse id="Uhani" class="cls-14" cx="70.04" cy="132.91" rx="3.31" ry="3.59"/><ellipse id="Uhani-2" data-name="Uhani" class="cls-14" cx="155.23" cy="132.79" rx="3.31" ry="3.59"/><path class="cls-15" d="M130.54,138.83A15.29,15.29,0,0,1,124,147c-1.24-5.12-23.8-3.13-23.88-3.12a19.14,19.14,0,0,1-3.44-5A87.28,87.28,0,0,0,130.54,138.83Z"/><path class="cls-16" d="M124,147h0a19.14,19.14,0,0,1-9.32,2.69,18.06,18.06,0,0,1-14.55-5.81C100.18,143.84,122.74,141.85,124,147Z"/><polygon class="cls-15" points="100.1 143.85 100.1 143.85 100.1 143.85 100.1 143.85"/><polygon id="Hlace" class="cls-6" points="184.19 370.95 184.19 398.89 161.45 647.62 135.47 647.62 119.02 443.85 99.55 647.62 72.37 647.62 51.38 398.89 51.38 370.95 184.19 370.95"/><path id="Majica" class="cls-14" d="M199.13,197.6c-4.83.58-10.78,7.47-16.38,24.68,0,4.95,2.85,36.81-7.21,51.12-2.17,22.51,5.85,74.46,8.65,97.55-56.74,46.95-129,1.63-132.81,0,2.74-22.76,6.89-75.42,4.78-97.64C44.94,258,45.58,221.62,45.58,221.62c-5.54-16.71-11.39-23.45-16.16-24C17.58,196.22,46.9,177,65,177H79.93q.25.69.54,1.35c5.3,12.47,18.43,21.31,33.8,21.31,15.65,0,29-9.15,34.07-22,.1-.23.19-.47.28-.7h14.94C181.65,177,211,196.22,199.13,197.6Z"/></g><circle id="Krog-2" data-name="Krog" class="cls-1" cx="111.83" cy="111.83" r="109"/></g></g></svg>