<svg xmlns="http://www.w3.org/2000/svg" xmlns:xlink="http://www.w3.org/1999/xlink" viewBox="0 0 277.84 714.94"><defs><style>.cls-1,.cls-15{fill:none;stroke-miterlimit:10;}.cls-1{stroke:#00a881;stroke-width:5.67px;}.cls-2{clip-path:url(#clip-path);}.cls-3{fill:#fcc5aa;}.cls-4{fill:#dce6e0;}.cls-5{fill:#d9dceb;}.cls-6{fill:#eed1bf;}.cls-7{fill:#fff;}.cls-8{fill:#ffebc6;}.cls-9{fill:#524935;}.cls-10{fill:#ebaf88;}.cls-11{fill:#ffe6b4;}.cls-12{fill:#301812;}.cls-13{fill:#d55227;}.cls-14{fill:#00a881;}.cls-15{stroke:#499086;stroke-width:0.95px;}.cls-16{fill:#017dad;}.cls-17{fill:#44515d;}.cls-18{fill:#499086;}</style><clipPath id="clip-path" transform="translate(34.17)"><circle id="Krog" class="cls-1" cx="111.83" cy="111.83" r="109"/></clipPath></defs><g id="Layer_2" data-name="Layer 2"><g id="Layer_1-2" data-name="Layer 1"><g class="cls-2"><path id="Vrat" class="cls-3" d="M149.86,178.49l-.21.53c-5.49,13.54-20,23.2-37.1,23.2-17.29,0-32-9.91-37.3-23.71H75.1a18.31,18.31,0,0,0,12.53-7.4,18,18,0,0,0,2-3.72,25.58,25.58,0,0,0,1.79-8.83h38.38a36.91,36.91,0,0,0,1.89,8.82c1.18,3.37,3.09,7,6.14,9.24C140.7,178.78,144.69,179.79,149.86,178.49Z" transform="translate(34.17)"/><ellipse class="cls-4" cx="138.92" cy="699.11" rx="138.92" ry="15.83"/><path class="cls-5" d="M225,390l-48.77-2.13v-157s11.27-65,28.6-29.73Q219.25,299.9,225,390Z" transform="translate(34.17)"/><path id="Koza" class="cls-6" d="M166.66,105.48a133.55,133.55,0,0,1-7.42,25.57,49.25,49.25,0,0,1-97.41-1.91A155.45,155.45,0,0,1,55.19,105c-2.46-12.67,3.11-14.27,6.23-14.23V87.85a44.43,44.43,0,0,1,44.43-44.43h9.66a44.43,44.43,0,0,1,44.43,44.43v4.42C162.43,92,169.22,92.28,166.66,105.48Z" transform="translate(34.17)"/><path class="cls-7" d="M100,99.1c.09-7.58-23.45-7.87-23.54-.29C76.41,105.65,100,105.94,100,99.1Z" transform="translate(34.17)"/><path id="Brada" class="cls-8" d="M162,123.68a84.45,84.45,0,0,1-.63,11.28,62.13,62.13,0,0,1-1.21,6.71,39.35,39.35,0,0,1-1.16,5.64,32.64,32.64,0,0,1-2,5.14,35.78,35.78,0,0,1-2.67,4.52,30.91,30.91,0,0,1-3.45,4.06c-.85,1.37-1.75,2.71-2.72,4a47.51,47.51,0,0,1-3.09,3.69,40.28,40.28,0,0,1-3.68,4.5q-1.72,1.77-3.54,3.41c-4.92,4.45-10.38,8-16.56,9.76a31.32,31.32,0,0,1-4.76.94,14.39,14.39,0,0,1-9.82-1.72C100.41,180,94.35,175,87.63,171.11A54,54,0,0,0,75.68,166a36,36,0,0,1-3.44-2.68,41.17,41.17,0,0,1-3.12-3.08,41.47,41.47,0,0,1-2.61-4,43.1,43.1,0,0,1-3.87-8.89c-.41-1.52-.74-3-1-4.61a67.93,67.93,0,0,1-.86-16.61c0-.67.09-1.34.16-2-.07-2.28-.1-4.58-.06-6.77.13-6.57.88-12.17,3-13.27,3.29-1.73,4.5-2,4.94-1.83a.32.32,0,0,1,.23.14h0a.25.25,0,0,1,0,.16s1.52,23.72,23.84,34H130.8s22.66-22,22.66-34l5.68,1.33.8.19A102.54,102.54,0,0,1,162,123.68Z" transform="translate(34.17)"/><path class="cls-7" d="M147.35,99.1c.09-7.58-23.45-7.87-23.55-.29C123.72,105.65,147.26,105.94,147.35,99.1Z" transform="translate(34.17)"/><circle class="cls-9" cx="121.69" cy="98.68" r="3.89"/><circle class="cls-9" cx="169.74" cy="98.68" r="3.89"/><path id="Oci" class="cls-10" d="M75,99.26s10-10.05,27.69,0C102.72,99.26,87.34,82.24,75,99.26Z" transform="translate(34.17)"/><path id="Oci-2" data-name="Oci" class="cls-10" d="M122.16,99.26s10-10.05,27.7,0C149.86,99.26,134.47,82.24,122.16,99.26Z" transform="translate(34.17)"/><path id="Brki" class="cls-8" d="M130.8,136.51H92.86c1.23-4.43,4.25-8,9.5-10.49h4.36c1.25.59,8.06,3.63,10.44.49a1.07,1.07,0,0,0,.12-.49h3.62C126,129,129.48,132.45,130.8,136.51Z" transform="translate(34.17)"/><path class="cls-6" d="M114.17,95.77l-.4,1.56C113.75,96.26,113.87,95.68,114.17,95.77Z" transform="translate(34.17)"/><path id="Nos" class="cls-10" d="M113.71,128.48a19.53,19.53,0,0,1-7.44-2l.52-1c2.11,1.06,8,3.28,9.92.75.32-.85-.77-8-1.65-13.82-1.86-12.29-2.29-16.23-1.43-17a.75.75,0,0,1,.72-.15L114,96.33a.42.42,0,0,0,.44-.16c-.5,1,.81,9.68,1.76,16,1.62,10.7,2,13.92,1.43,14.69A4.67,4.67,0,0,1,113.71,128.48Z" transform="translate(34.17)"/><g id="Obrve"><path class="cls-11" d="M103.23,91c-16.77-8.46-24.38-.65-24.69-.31l-2.13-2c.37-.41,9.28-9.82,28.12-.32Z" transform="translate(34.17)"/></g><g id="Obrve-2" data-name="Obrve"><g id="Obrve-3" data-name="Obrve"><path id="Obrve-4" data-name="Obrve" class="cls-11" d="M149.21,92.07c-16.9-8.52-24.61-.39-24.69-.31l-2.13-2c.37-.4,9.28-9.82,28.12-.31Z" transform="translate(34.17)"/></g></g><path class="cls-12" d="M130.8,136.52a21.58,21.58,0,0,1-7.34,10.9c-1.39-6.86-26.65-4.19-26.74-4.18a31.51,31.51,0,0,1-3.85-6.72Z" transform="translate(34.17)"/><path class="cls-13" d="M123.46,147.42h0A19.11,19.11,0,0,1,113,151c-7.92.47-13.15-3.77-16.29-7.79C96.81,143.23,122.07,140.56,123.46,147.42Z" transform="translate(34.17)"/><polygon class="cls-12" points="130.89 143.24 130.89 143.24 130.89 143.24 130.89 143.24"/><polygon class="cls-7" points="127.03 136.52 128.11 138.9 164.16 138.9 164.97 136.52 127.03 136.52"/><path id="Lasje" class="cls-8" d="M69,102.57S65.69,78,76.51,68.37a15,15,0,0,1,3.31-2.24A11.75,11.75,0,0,1,82,65.36c4-1.13,8.66-.55,12.82-.29l3.12.32c19.31,2.1,29.26,5.73,29.26,5.73s5.78-5.54-3.74-8.62,15.48-.39,22,13.27a93.5,93.5,0,0,1,8,26.8l5.6,1.52s14.87-38.55-2.82-51.81c-9.7-7.26-21.71-16.43-33.6-19.73a34.42,34.42,0,0,0-3.56-.8,26.32,26.32,0,0,0-3.17-.46,30.73,30.73,0,0,0-3.18-.12,26.53,26.53,0,0,0-6.46.57,31.27,31.27,0,0,0-3.22.91c-1,.35-2.07.75-3.07,1.18-9.91,5-18.56,13.09-29.46,15.74-1,.32-2.08.66-3.07,1-4.93,1.93-8.84,4.92-9.17,11.15a29.32,29.32,0,0,0-.61,2.9,25.45,25.45,0,0,0-.23,5.91c0,.73.09,1.46.08,2.22C57.48,81,60,91.26,69,102.57Z" transform="translate(34.17)"/><path class="cls-5" d="M.1,390l48.77-2.13v-157s-11.27-65-28.6-29.73Q5.87,299.9.1,390Z" transform="translate(34.17)"/><path id="Pulover" class="cls-14" d="M204.72,200.08l-.41.06c-5.35.94-11.87,8.69-17.95,27.46V400.45H38.75V227.6c-6.09-18.77-12.6-26.52-17.95-27.46l-.41-.06c-12.85-1.45,19-21.59,38.64-21.59H75.25c5.33,13.8,20,23.71,37.3,23.71,17.08,0,31.61-9.66,37.1-23.2.08-.17.14-.34.21-.51h16.22C185.73,178.49,217.57,198.63,204.72,200.08Z" transform="translate(34.17)"/><line id="Zadrga" class="cls-15" x1="146.73" y1="400.47" x2="146.73" y2="202.22"/><polygon id="Hlace" class="cls-16" points="220.4 400.47 220.4 450.28 197.23 667.18 168.41 677.4 146.99 450.28 146.73 450.28 122.34 677.4 122.23 677.4 93.48 667.21 72.92 450.28 72.92 400.47 220.4 400.47"/><path id="Koza-2" data-name="Koza" class="cls-6" d="M14.43,389.35s-5.52,43.56,24.32,47.94v-49Z" transform="translate(34.17)"/><path id="Koza-3" data-name="Koza" class="cls-6" d="M210.56,389.41s5.53,43.56-24.32,47.94v-49Z" transform="translate(34.17)"/><path class="cls-17" d="M206.32,699H134.24V677.4l28.82-10.22s0,.05,0,.08c-1.25,12.27,9.29,14.13,9.29,14.13C215.83,677.35,206.32,699,206.32,699Z" transform="translate(34.17)"/><path class="cls-17" d="M88.06,677.4V699H16s-9.51-21.6,34-17.56c0,0,10.59-1.87,9.27-14.21l.08,0Z" transform="translate(34.17)"/><circle id="Gumb" class="cls-18" cx="159.1" cy="238.72" r="3.72"/><circle id="Gumb-2" data-name="Gumb" class="cls-18" cx="134.74" cy="238.72" r="3.72"/><circle id="Gumb-3" data-name="Gumb" class="cls-18" cx="159.1" cy="266.76" r="3.72"/><circle id="Gumb-4" data-name="Gumb" class="cls-18" cx="134.74" cy="266.76" r="3.72"/><circle id="Gumb-5" data-name="Gumb" class="cls-18" cx="159.1" cy="294.8" r="3.72"/><circle id="Gumb-6" data-name="Gumb" class="cls-18" cx="134.74" cy="294.8" r="3.72"/><circle id="Gumb-7" data-name="Gumb" class="cls-18" cx="159.1" cy="322.84" r="3.72"/><circle id="Gumb-8" data-name="Gumb" class="cls-18" cx="134.74" cy="322.84" r="3.72"/><circle id="Gumb-9" data-name="Gumb" class="cls-18" cx="159.1" cy="350.89" r="3.72"/><circle id="Gumb-10" data-name="Gumb" class="cls-18" cx="134.74" cy="350.89" r="3.72"/></g><circle id="Krog-2" data-name="Krog" class="cls-1" cx="146" cy="111.83" r="109"/></g></g></svg>