<svg xmlns="http://www.w3.org/2000/svg" xmlns:xlink="http://www.w3.org/1999/xlink" viewBox="0 0 277.84 709.23"><defs><style>.cls-1,.cls-7{fill:none;stroke-miterlimit:10;}.cls-1{stroke:#00a881;stroke-width:5.67px;}.cls-2{clip-path:url(#clip-path);}.cls-3{fill:#fcc5aa;}.cls-4{fill:#dce6e0;}.cls-5{fill:#d9dceb;}.cls-6{fill:#00a881;}.cls-7{stroke:#499086;stroke-width:0.95px;}.cls-8{fill:#017dad;}.cls-9{fill:#eed1bf;}.cls-10{fill:#44515d;}.cls-11{fill:#499086;}.cls-12{fill:#fff;}.cls-13{fill:#524935;}.cls-14{fill:#ebaf88;}.cls-15{fill:#ffe6b4;}.cls-16{fill:#ffebc6;}.cls-17{fill:#301812;}.cls-18{fill:#d55227;}</style><clipPath id="clip-path" transform="translate(37.76)"><circle id="Krog" class="cls-1" cx="111.83" cy="111.83" r="109"/></clipPath></defs><g id="Layer_2" data-name="Layer 2"><g id="Layer_1-2" data-name="Layer 1"><g class="cls-2"><path id="Vrat" class="cls-3" d="M146.28,172.77l-.21.53c-5.49,13.54-20,23.2-37.1,23.2-17.29,0-32-9.91-37.3-23.71h-.15a18.31,18.31,0,0,0,12.53-7.4,18,18,0,0,0,2-3.72,25.58,25.58,0,0,0,1.79-8.83h38.38a36.91,36.91,0,0,0,1.89,8.82c1.18,3.37,3.09,7,6.14,9.24C137.12,173.06,141.11,174.07,146.28,172.77Z" transform="translate(37.76)"/><ellipse class="cls-4" cx="138.92" cy="693.4" rx="138.92" ry="15.83"/><path class="cls-5" d="M221.43,384.3l-48.77-2.13v-157s11.27-65,28.6-29.74Q215.66,294.2,221.43,384.3Z" transform="translate(37.76)"/><path class="cls-5" d="M-3.49,384.3l48.77-2.13v-157s-11.27-65-28.6-29.74Q2.28,294.2-3.49,384.3Z" transform="translate(37.76)"/><path id="Pulover" class="cls-6" d="M201.14,194.36l-.41.06c-5.35.94-11.87,8.69-17.95,27.46V394.73H35.17V221.88c-6.09-18.77-12.6-26.52-18-27.46l-.41-.06c-12.85-1.45,19-21.59,38.64-21.59H71.67c5.33,13.8,20,23.71,37.3,23.71,17.08,0,31.61-9.66,37.1-23.2.08-.17.14-.34.21-.51H162.5C182.15,172.77,214,192.91,201.14,194.36Z" transform="translate(37.76)"/><line id="Zadrga" class="cls-7" x1="146.73" y1="394.76" x2="146.73" y2="196.51"/><polygon id="Hlace" class="cls-8" points="220.4 394.75 220.4 444.56 197.23 661.47 168.41 671.68 146.99 444.56 146.73 444.56 122.34 671.68 122.23 671.68 93.48 661.5 72.92 444.56 72.92 394.75 220.4 394.75"/><path id="Koza" class="cls-9" d="M10.84,383.64S5.32,427.2,35.17,431.57v-49Z" transform="translate(37.76)"/><path id="Koza-2" data-name="Koza" class="cls-9" d="M207,383.7s5.53,43.56-24.32,47.93v-49Z" transform="translate(37.76)"/><path class="cls-10" d="M202.74,693.23H130.66V671.68l28.82-10.22s0,0,0,.08c-1.25,12.27,9.29,14.13,9.29,14.13C212.25,671.63,202.74,693.23,202.74,693.23Z" transform="translate(37.76)"/><path class="cls-10" d="M84.48,671.68v21.55H12.4s-9.51-21.6,34-17.56c0,0,10.59-1.87,9.27-14.21l.08,0Z" transform="translate(37.76)"/><circle id="Gumb" class="cls-11" cx="159.1" cy="233" r="3.72"/><circle id="Gumb-2" data-name="Gumb" class="cls-11" cx="134.74" cy="233" r="3.72"/><circle id="Gumb-3" data-name="Gumb" class="cls-11" cx="159.1" cy="261.05" r="3.72"/><circle id="Gumb-4" data-name="Gumb" class="cls-11" cx="134.74" cy="261.05" r="3.72"/><circle id="Gumb-5" data-name="Gumb" class="cls-11" cx="159.1" cy="289.09" r="3.72"/><circle id="Gumb-6" data-name="Gumb" class="cls-11" cx="134.74" cy="289.09" r="3.72"/><circle id="Gumb-7" data-name="Gumb" class="cls-11" cx="159.1" cy="317.13" r="3.72"/><circle id="Gumb-8" data-name="Gumb" class="cls-11" cx="134.74" cy="317.13" r="3.72"/><circle id="Gumb-9" data-name="Gumb" class="cls-11" cx="159.1" cy="345.17" r="3.72"/><circle id="Gumb-10" data-name="Gumb" class="cls-11" cx="134.74" cy="345.17" r="3.72"/><path id="Koza-3" data-name="Koza" class="cls-9" d="M164.73,105.48a133.55,133.55,0,0,1-7.42,25.57,49.25,49.25,0,0,1-97.41-1.91A155.45,155.45,0,0,1,53.26,105c-2.46-12.67,3.11-14.27,6.23-14.23V87.85a44.43,44.43,0,0,1,44.43-44.43h9.66A44.43,44.43,0,0,1,158,87.85v4.42C160.5,92,167.29,92.28,164.73,105.48Z" transform="translate(37.76)"/><path class="cls-12" d="M98.09,99.1c.09-7.58-23.45-7.87-23.54-.29C74.47,105.65,98,105.94,98.09,99.1Z" transform="translate(37.76)"/><path class="cls-12" d="M145.41,99.1c.09-7.58-23.45-7.87-23.54-.29C121.78,105.65,145.32,105.94,145.41,99.1Z" transform="translate(37.76)"/><circle class="cls-13" cx="123.35" cy="98.68" r="3.89"/><circle class="cls-13" cx="171.39" cy="98.68" r="3.89"/><path id="Oci" class="cls-14" d="M73.09,99.26s10-10.05,27.69,0C100.78,99.26,85.4,82.24,73.09,99.26Z" transform="translate(37.76)"/><path id="Oci-2" data-name="Oci" class="cls-14" d="M120.22,99.26s10-10.05,27.7,0C147.92,99.26,132.53,82.24,120.22,99.26Z" transform="translate(37.76)"/><path class="cls-9" d="M112.24,95.77l-.4,1.56C111.82,96.26,111.94,95.68,112.24,95.77Z" transform="translate(37.76)"/><path id="Nos" class="cls-14" d="M111.77,128.48a19.53,19.53,0,0,1-7.44-2l.52-1c2.11,1.06,8,3.28,9.92.75.32-.85-.77-8-1.64-13.82-1.86-12.29-2.3-16.23-1.44-17a.75.75,0,0,1,.72-.15l-.35,1.11a.41.41,0,0,0,.44-.16c-.5,1,.81,9.68,1.77,16,1.61,10.7,2,13.92,1.42,14.69A4.65,4.65,0,0,1,111.77,128.48Z" transform="translate(37.76)"/><g id="Obrve"><path class="cls-15" d="M101.29,91c-16.77-8.46-24.37-.65-24.69-.31l-2.12-2c.36-.41,9.27-9.82,28.11-.32Z" transform="translate(37.76)"/></g><g id="Obrve-2" data-name="Obrve"><g id="Obrve-3" data-name="Obrve"><path id="Obrve-4" data-name="Obrve" class="cls-15" d="M147.27,92.07c-16.9-8.52-24.61-.39-24.68-.31l-2.14-2c.37-.4,9.28-9.82,28.12-.31Z" transform="translate(37.76)"/></g></g><path id="Lasje" class="cls-16" d="M67.09,102.57S63.75,78,74.57,68.37a15.35,15.35,0,0,1,3.32-2.24,11.4,11.4,0,0,1,2.17-.77c4-1.13,8.66-.55,12.82-.29l3.12.32c19.31,2.1,29.27,5.73,29.27,5.73s5.78-5.54-3.75-8.62,15.48-.39,22,13.27a93.12,93.12,0,0,1,8,26.8l5.6,1.52S172,65.54,154.31,52.28c-9.7-7.26-21.71-16.43-33.59-19.73a35.19,35.19,0,0,0-3.57-.8,26.32,26.32,0,0,0-3.17-.46,30.73,30.73,0,0,0-3.18-.12,26.58,26.58,0,0,0-6.46.57,30.39,30.39,0,0,0-3.21.91c-1,.35-2.07.75-3.08,1.18-9.91,5-18.56,13.09-29.46,15.74-1,.32-2.08.66-3.07,1-4.92,1.93-8.84,4.92-9.17,11.15a29.32,29.32,0,0,0-.61,2.9,24.91,24.91,0,0,0-.22,5.91c0,.73.08,1.46.08,2.22C55.54,81,58.1,91.26,67.09,102.57Z" transform="translate(37.76)"/><path id="Brki" class="cls-16" d="M119.32,129.85s18.19,4.36,15.56,23.41-23.95,18.56-23.95,18.56-25.42,1.48-26.06-18.56,12.57-22.49,15.66-23.41Z" transform="translate(37.76)"/><path class="cls-17" d="M128.87,136.52c-.09,0-1.53,6.58-7.35,10.9-1.38-6.86-26.65-4.19-26.74-4.18a31.51,31.51,0,0,1-3.85-6.72Z" transform="translate(37.76)"/><path class="cls-18" d="M121.52,147.42h0A19.11,19.11,0,0,1,111.08,151c-7.93.47-13.15-3.77-16.3-7.79C94.87,143.23,120.14,140.56,121.52,147.42Z" transform="translate(37.76)"/><polygon class="cls-17" points="132.54 143.24 132.54 143.24 132.54 143.24 132.54 143.24"/><polygon class="cls-12" points="128.68 136.52 129.76 138.9 165.81 138.9 166.62 136.52 128.68 136.52"/></g><circle id="Krog-2" data-name="Krog" class="cls-1" cx="149.59" cy="111.83" r="109"/></g></g></svg>