<svg xmlns="http://www.w3.org/2000/svg" xmlns:xlink="http://www.w3.org/1999/xlink" viewBox="0 0 277.84 719.02"><defs><style>.cls-1,.cls-15{fill:none;stroke-miterlimit:10;}.cls-1{stroke:#00a881;stroke-width:5.67px;}.cls-2{clip-path:url(#clip-path);}.cls-3{fill:#fcc5aa;}.cls-4{fill:#dce6e0;}.cls-5{fill:#d9dceb;}.cls-6{fill:#eed1bf;}.cls-7{fill:#fff;}.cls-8{fill:#524935;}.cls-9{fill:#ebaf88;}.cls-10{fill:#ffebc6;}.cls-11{fill:#ffe6b4;}.cls-12{fill:#301812;}.cls-13{fill:#d55227;}.cls-14{fill:#00a881;}.cls-15{stroke:#499086;stroke-width:0.95px;}.cls-16{fill:#017dad;}.cls-17{fill:#44515d;}.cls-18{fill:#499086;}</style><clipPath id="clip-path" transform="translate(33.95)"><circle id="Krog" class="cls-1" cx="111.83" cy="111.83" r="109"/></clipPath></defs><g id="Layer_2" data-name="Layer 2"><g id="Layer_1-2" data-name="Layer 1"><g class="cls-2"><path id="Vrat" class="cls-3" d="M150.08,182.57l-.21.53c-5.49,13.54-20,23.2-37.1,23.2-17.29,0-32-9.91-37.3-23.71h-.15a18.31,18.31,0,0,0,12.53-7.4,18,18,0,0,0,2-3.72,25.58,25.58,0,0,0,1.79-8.83h38.38a36.91,36.91,0,0,0,1.89,8.82c1.18,3.37,3.09,6.95,6.14,9.24C140.92,182.86,144.91,183.87,150.08,182.57Z" transform="translate(33.95)"/><ellipse class="cls-4" cx="138.92" cy="703.19" rx="138.92" ry="15.83"/><path class="cls-5" d="M225.24,394.1,176.47,392V235s11.27-65,28.6-29.73Q219.47,304,225.24,394.1Z" transform="translate(33.95)"/><path id="Koza" class="cls-6" d="M166.88,109.56a133.55,133.55,0,0,1-7.42,25.57,49.25,49.25,0,0,1-97.41-1.91,155.45,155.45,0,0,1-6.64-24.12C53,96.43,58.52,94.83,61.64,94.87V91.93A44.43,44.43,0,0,1,106.07,47.5h9.66a44.43,44.43,0,0,1,44.43,44.43v4.42C162.65,96.05,169.44,96.36,166.88,109.56Z" transform="translate(33.95)"/><path class="cls-7" d="M100.25,103.18c.09-7.58-23.45-7.87-23.54-.29C76.63,109.73,100.17,110,100.25,103.18Z" transform="translate(33.95)"/><path class="cls-7" d="M147.57,103.18c.09-7.58-23.45-7.87-23.55-.29C123.94,109.73,147.48,110,147.57,103.18Z" transform="translate(33.95)"/><circle class="cls-8" cx="121.69" cy="102.76" r="3.89"/><circle class="cls-8" cx="169.74" cy="102.76" r="3.89"/><path id="Oci" class="cls-9" d="M75.25,103.34s10-10,27.69,0C102.94,103.34,87.56,86.32,75.25,103.34Z" transform="translate(33.95)"/><path id="Oci-2" data-name="Oci" class="cls-9" d="M122.38,103.34s10-10,27.7,0C150.08,103.34,134.69,86.32,122.38,103.34Z" transform="translate(33.95)"/><path id="Brki" class="cls-10" d="M131,140.59H93.08c1.23-4.43,4.25-8,9.5-10.49h4.36c1.25.59,8.06,3.63,10.44.49a1.07,1.07,0,0,0,.12-.49h3.62C126.25,133.07,129.7,136.53,131,140.59Z" transform="translate(33.95)"/><path class="cls-6" d="M114.39,99.85l-.4,1.56C114,100.34,114.09,99.76,114.39,99.85Z" transform="translate(33.95)"/><path id="Nos" class="cls-9" d="M113.93,132.56a19.53,19.53,0,0,1-7.44-2l.52-1c2.11,1.06,8,3.28,9.92.75.32-.85-.77-8-1.65-13.82-1.85-12.29-2.29-16.23-1.43-17a.75.75,0,0,1,.72-.15l-.35,1.11a.42.42,0,0,0,.44-.16c-.5,1,.81,9.68,1.76,16,1.62,10.7,2,13.92,1.43,14.69A4.67,4.67,0,0,1,113.93,132.56Z" transform="translate(33.95)"/><g id="Obrve"><path class="cls-11" d="M103.45,95.05c-16.77-8.46-24.38-.65-24.69-.31l-2.13-1.95c.37-.41,9.28-9.82,28.12-.32Z" transform="translate(33.95)"/></g><g id="Obrve-2" data-name="Obrve"><g id="Obrve-3" data-name="Obrve"><path id="Obrve-4" data-name="Obrve" class="cls-11" d="M149.43,96.15c-16.9-8.52-24.61-.39-24.69-.31l-2.13-2c.37-.4,9.28-9.82,28.12-.31Z" transform="translate(33.95)"/></g></g><path class="cls-12" d="M131,140.6a21.58,21.58,0,0,1-7.34,10.9c-1.39-6.86-26.65-4.19-26.74-4.18a31.51,31.51,0,0,1-3.85-6.72Z" transform="translate(33.95)"/><path class="cls-13" d="M123.68,151.5h0a19,19,0,0,1-10.44,3.61c-7.92.47-13.15-3.77-16.29-7.79C97,147.31,122.29,144.64,123.68,151.5Z" transform="translate(33.95)"/><polygon class="cls-12" points="130.89 147.32 130.89 147.32 130.89 147.32 130.89 147.32"/><polygon class="cls-7" points="127.03 140.6 128.11 142.98 164.16 142.98 164.97 140.6 127.03 140.6"/><path id="Lasje" class="cls-10" d="M69.25,106.65s-3.34-24.53,7.48-34.2A15,15,0,0,1,80,70.21a11.75,11.75,0,0,1,2.18-.77c4-1.13,8.66-.55,12.82-.29l3.12.32c19.31,2.1,29.26,5.73,29.26,5.73s5.78-5.54-3.74-8.62,15.48-.39,22,13.27a93.5,93.5,0,0,1,8,26.8l5.6,1.52s14.87-38.55-2.82-51.81c-9.7-7.26-21.71-16.43-33.6-19.73a34.42,34.42,0,0,0-3.56-.8,26.32,26.32,0,0,0-3.17-.46,30.73,30.73,0,0,0-3.18-.12,26.53,26.53,0,0,0-6.46.57,31.27,31.27,0,0,0-3.22.91c-1,.35-2.07.75-3.07,1.18C90.3,42.92,81.65,51,70.75,53.65c-1,.32-2.08.66-3.07,1.05-4.93,1.93-8.84,4.92-9.17,11.15a29.32,29.32,0,0,0-.61,2.9,25.45,25.45,0,0,0-.23,5.91c0,.73.09,1.46.08,2.22C57.7,85.11,60.26,95.34,69.25,106.65Z" transform="translate(33.95)"/><path class="cls-5" d="M.32,394.1,49.09,392V235s-11.27-65-28.6-29.73Q6.09,304,.32,394.1Z" transform="translate(33.95)"/><path id="Pulover" class="cls-14" d="M204.94,204.16l-.41.06c-5.35.94-11.87,8.69-17.95,27.46V404.53H39V231.68c-6.09-18.77-12.6-26.52-17.95-27.46l-.41-.06c-12.85-1.45,19-21.59,38.64-21.59H75.47c5.33,13.8,20,23.71,37.3,23.71,17.08,0,31.61-9.66,37.1-23.2.08-.17.14-.34.21-.51H166.3C186,182.57,217.79,202.71,204.94,204.16Z" transform="translate(33.95)"/><line id="Zadrga" class="cls-15" x1="146.73" y1="404.55" x2="146.73" y2="206.3"/><polygon id="Hlace" class="cls-16" points="220.4 404.55 220.4 454.36 197.23 671.26 168.41 681.48 146.99 454.36 146.73 454.36 122.34 681.48 122.23 681.48 93.48 671.29 72.92 454.36 72.92 404.55 220.4 404.55"/><path id="Koza-2" data-name="Koza" class="cls-6" d="M14.65,393.43S9.13,437,39,441.37v-49Z" transform="translate(33.95)"/><path id="Koza-3" data-name="Koza" class="cls-6" d="M210.78,393.49s5.53,43.56-24.32,47.94v-49Z" transform="translate(33.95)"/><path class="cls-17" d="M206.54,703H134.46V681.48l28.82-10.22s0,0,0,.08c-1.25,12.27,9.29,14.13,9.29,14.13C216.05,681.43,206.54,703,206.54,703Z" transform="translate(33.95)"/><path class="cls-17" d="M88.28,681.48V703H16.2s-9.51-21.6,34-17.56c0,0,10.59-1.87,9.27-14.21l.08,0Z" transform="translate(33.95)"/><circle id="Gumb" class="cls-18" cx="159.1" cy="242.8" r="3.72"/><circle id="Gumb-2" data-name="Gumb" class="cls-18" cx="134.74" cy="242.8" r="3.72"/><circle id="Gumb-3" data-name="Gumb" class="cls-18" cx="159.1" cy="270.84" r="3.72"/><circle id="Gumb-4" data-name="Gumb" class="cls-18" cx="134.74" cy="270.84" r="3.72"/><circle id="Gumb-5" data-name="Gumb" class="cls-18" cx="159.1" cy="298.88" r="3.72"/><circle id="Gumb-6" data-name="Gumb" class="cls-18" cx="134.74" cy="298.88" r="3.72"/><circle id="Gumb-7" data-name="Gumb" class="cls-18" cx="159.1" cy="326.92" r="3.72"/><circle id="Gumb-8" data-name="Gumb" class="cls-18" cx="134.74" cy="326.92" r="3.72"/><circle id="Gumb-9" data-name="Gumb" class="cls-18" cx="159.1" cy="354.97" r="3.72"/><circle id="Gumb-10" data-name="Gumb" class="cls-18" cx="134.74" cy="354.97" r="3.72"/></g><circle id="Krog-2" data-name="Krog" class="cls-1" cx="145.78" cy="111.83" r="109"/></g></g></svg>