<svg xmlns="http://www.w3.org/2000/svg" xmlns:xlink="http://www.w3.org/1999/xlink" viewBox="0 0 277.84 713.31"><defs><style>.cls-1,.cls-7{fill:none;stroke-miterlimit:10;}.cls-1{stroke:#00a881;stroke-width:5.67px;}.cls-2{clip-path:url(#clip-path);}.cls-3{fill:#fcc5aa;}.cls-4{fill:#dce6e0;}.cls-5{fill:#d9dceb;}.cls-6{fill:#00a881;}.cls-7{stroke:#499086;stroke-width:0.95px;}.cls-8{fill:#017dad;}.cls-9{fill:#eed1bf;}.cls-10{fill:#44515d;}.cls-11{fill:#499086;}.cls-12{fill:#fff;}.cls-13{fill:#524935;}.cls-14{fill:#ebaf88;}.cls-15{fill:#ffe6b4;}.cls-16{fill:#ffebc6;}.cls-17{fill:#301812;}.cls-18{fill:#d55227;}</style><clipPath id="clip-path" transform="translate(34.07)"><circle id="Krog" class="cls-1" cx="111.83" cy="111.83" r="109"/></clipPath></defs><g id="Layer_2" data-name="Layer 2"><g id="Layer_1-2" data-name="Layer 1"><g class="cls-2"><path id="Vrat" class="cls-3" d="M150,176.85l-.21.53c-5.49,13.54-20,23.2-37.1,23.2-17.29,0-32-9.91-37.3-23.71H75.2a18.31,18.31,0,0,0,12.53-7.4,18,18,0,0,0,2-3.72,25.58,25.58,0,0,0,1.79-8.83h38.38a36.91,36.91,0,0,0,1.89,8.82c1.18,3.37,3.09,6.95,6.14,9.24C140.8,177.14,144.79,178.15,150,176.85Z" transform="translate(34.07)"/><ellipse class="cls-4" cx="138.92" cy="697.48" rx="138.92" ry="15.83"/><path class="cls-5" d="M225.11,388.38l-48.77-2.13V229.3s11.27-65,28.6-29.74Q219.34,298.27,225.11,388.38Z" transform="translate(34.07)"/><path class="cls-5" d="M.19,388.38,49,386.25V229.3s-11.28-65-28.61-29.74Q6,298.27.19,388.38Z" transform="translate(34.07)"/><path id="Pulover" class="cls-6" d="M204.82,198.44l-.41.06c-5.35.94-11.87,8.69-17.95,27.46V398.81H38.85V226c-6.09-18.77-12.6-26.52-18-27.46l-.41-.06c-12.85-1.45,19-21.59,38.64-21.59H75.35c5.33,13.8,20,23.71,37.3,23.71,17.08,0,31.61-9.66,37.1-23.2.08-.17.14-.34.21-.51h16.22C185.83,176.85,217.67,197,204.82,198.44Z" transform="translate(34.07)"/><line id="Zadrga" class="cls-7" x1="146.73" y1="398.84" x2="146.73" y2="200.59"/><polygon id="Hlace" class="cls-8" points="220.4 398.83 220.4 448.64 197.23 665.54 168.41 675.76 146.99 448.64 146.73 448.64 122.34 675.76 122.23 675.76 93.48 665.58 72.92 448.64 72.92 398.83 220.4 398.83"/><path id="Koza" class="cls-9" d="M14.53,387.72S9,431.28,38.85,435.65v-49Z" transform="translate(34.07)"/><path id="Koza-2" data-name="Koza" class="cls-9" d="M210.65,387.78s5.53,43.56-24.32,47.93v-49Z" transform="translate(34.07)"/><path class="cls-10" d="M206.42,697.31H134.34V675.76l28.82-10.22s0,.05,0,.08c-1.25,12.27,9.29,14.13,9.29,14.13C215.93,675.71,206.42,697.31,206.42,697.31Z" transform="translate(34.07)"/><path class="cls-10" d="M88.16,675.76v21.55H16.08s-9.51-21.6,34-17.56c0,0,10.59-1.87,9.27-14.21l.08,0Z" transform="translate(34.07)"/><circle id="Gumb" class="cls-11" cx="159.1" cy="237.08" r="3.72"/><circle id="Gumb-2" data-name="Gumb" class="cls-11" cx="134.74" cy="237.08" r="3.72"/><circle id="Gumb-3" data-name="Gumb" class="cls-11" cx="159.1" cy="265.13" r="3.72"/><circle id="Gumb-4" data-name="Gumb" class="cls-11" cx="134.74" cy="265.13" r="3.72"/><circle id="Gumb-5" data-name="Gumb" class="cls-11" cx="159.1" cy="293.17" r="3.72"/><circle id="Gumb-6" data-name="Gumb" class="cls-11" cx="134.74" cy="293.17" r="3.72"/><circle id="Gumb-7" data-name="Gumb" class="cls-11" cx="159.1" cy="321.21" r="3.72"/><circle id="Gumb-8" data-name="Gumb" class="cls-11" cx="134.74" cy="321.21" r="3.72"/><circle id="Gumb-9" data-name="Gumb" class="cls-11" cx="159.1" cy="349.25" r="3.72"/><circle id="Gumb-10" data-name="Gumb" class="cls-11" cx="134.74" cy="349.25" r="3.72"/><path id="Koza-3" data-name="Koza" class="cls-9" d="M168.41,109.56A133.55,133.55,0,0,1,161,135.13a49.25,49.25,0,0,1-97.41-1.91,155.45,155.45,0,0,1-6.64-24.12c-2.46-12.67,3.11-14.27,6.23-14.23V91.93A44.43,44.43,0,0,1,107.6,47.5h9.66a44.43,44.43,0,0,1,44.43,44.43v4.42C164.18,96.05,171,96.36,168.41,109.56Z" transform="translate(34.07)"/><path class="cls-12" d="M101.78,103.18c.09-7.58-23.45-7.87-23.55-.29C78.15,109.73,101.69,110,101.78,103.18Z" transform="translate(34.07)"/><path class="cls-12" d="M149.09,103.18c.09-7.58-23.45-7.87-23.54-.29C125.47,109.73,149,110,149.09,103.18Z" transform="translate(34.07)"/><circle class="cls-13" cx="123.35" cy="102.76" r="3.89"/><circle class="cls-13" cx="171.39" cy="102.76" r="3.89"/><path id="Oci" class="cls-14" d="M76.77,103.34s10-10,27.7,0C104.47,103.34,89.08,86.32,76.77,103.34Z" transform="translate(34.07)"/><path id="Oci-2" data-name="Oci" class="cls-14" d="M123.9,103.34s10-10,27.7,0C151.6,103.34,136.21,86.32,123.9,103.34Z" transform="translate(34.07)"/><path class="cls-9" d="M115.92,99.85l-.4,1.56C115.5,100.34,115.62,99.76,115.92,99.85Z" transform="translate(34.07)"/><path id="Nos" class="cls-14" d="M115.45,132.56a19.66,19.66,0,0,1-7.44-2l.52-1c2.11,1.06,8,3.28,9.92.75.32-.85-.77-8-1.64-13.82-1.86-12.29-2.3-16.23-1.43-17a.74.74,0,0,1,.71-.15l-.34,1.11a.42.42,0,0,0,.44-.16c-.51,1,.8,9.68,1.76,16,1.62,10.7,2,13.92,1.42,14.69A4.65,4.65,0,0,1,115.45,132.56Z" transform="translate(34.07)"/><g id="Obrve"><path class="cls-15" d="M105,95.05c-16.77-8.46-24.37-.65-24.69-.31l-2.12-1.95c.37-.41,9.28-9.82,28.11-.32Z" transform="translate(34.07)"/></g><g id="Obrve-2" data-name="Obrve"><g id="Obrve-3" data-name="Obrve"><path id="Obrve-4" data-name="Obrve" class="cls-15" d="M151,96.15c-16.9-8.52-24.61-.39-24.68-.31l-2.13-2c.37-.4,9.28-9.82,28.11-.31Z" transform="translate(34.07)"/></g></g><path id="Lasje" class="cls-16" d="M70.77,106.65s-3.33-24.53,7.49-34.2a15,15,0,0,1,3.31-2.24,11.5,11.5,0,0,1,2.18-.77c4-1.13,8.65-.55,12.82-.29l3.12.32C119,71.57,129,75.2,129,75.2s5.78-5.54-3.75-8.62,15.48-.39,22,13.27a93.12,93.12,0,0,1,8,26.8l5.6,1.52S175.69,69.62,158,56.36c-9.7-7.26-21.71-16.43-33.59-19.73a35.63,35.63,0,0,0-3.56-.8,26.77,26.77,0,0,0-3.18-.46,30.73,30.73,0,0,0-3.18-.12,26.45,26.45,0,0,0-6.45.57,31.27,31.27,0,0,0-3.22.91c-1,.35-2.07.75-3.07,1.18-9.91,5-18.57,13.09-29.47,15.74-1,.32-2.08.66-3.06,1.05-4.93,1.93-8.85,4.92-9.18,11.15-.25,1-.45,1.93-.61,2.9a25.45,25.45,0,0,0-.22,5.91c0,.73.08,1.46.08,2.22C59.22,85.11,61.78,95.34,70.77,106.65Z" transform="translate(34.07)"/><path class="cls-17" d="M132.55,140.6a21.64,21.64,0,0,1-7.35,10.9c-1.38-6.86-26.65-4.19-26.73-4.18a31.85,31.85,0,0,1-3.86-6.72Z" transform="translate(34.07)"/><path class="cls-18" d="M125.2,151.5h0a19,19,0,0,1-10.44,3.61c-7.92.47-13.15-3.77-16.29-7.79C98.55,147.31,123.82,144.64,125.2,151.5Z" transform="translate(34.07)"/><polygon class="cls-17" points="132.54 147.32 132.54 147.32 132.54 147.32 132.54 147.32"/><polygon class="cls-12" points="128.68 140.6 129.76 142.98 165.81 142.98 166.62 140.6 128.68 140.6"/></g><circle id="Krog-2" data-name="Krog" class="cls-1" cx="145.91" cy="111.83" r="109"/></g></g></svg>