<svg xmlns="http://www.w3.org/2000/svg" viewBox="0 0 211.19 623.37"><defs><style>.cls-1{fill:#eed1bf;}.cls-2{fill:#fcc5aa;}.cls-3{fill:#d9dceb;}.cls-4{fill:#0474bb;}.cls-5{fill:none;stroke:#d9dceb;stroke-miterlimit:10;stroke-width:1.08px;}.cls-6{fill:#fff;}.cls-7{fill:#524935;}.cls-8{fill:#c9bcdd;}.cls-9{fill:#ebaf89;}.cls-10{fill:#c1c0da;}.cls-11{fill:#c4463a;}.cls-12{fill:#200600;}.cls-13{fill:#d55227;}</style></defs><g id="Layer_2" data-name="Layer 2"><g id="Layer_1-2" data-name="Layer 1"><path id="Koza" class="cls-1" d="M15.41,345.24S9.52,392.42,41.3,397.16V344.09Z"/><path id="Koza-2" data-name="Koza" class="cls-1" d="M189.81,350.5s5.89,47.19-25.9,51.93V349.35Z"/><path id="Vrat" class="cls-2" d="M138.76,162.11c-5.1,13-18.42,22.34-34.07,22.34-15.37,0-28.5-9-33.8-21.68,4-1.16,12.58-5.44,13.09-20.83h35.3S122.52,166.13,138.76,162.11Z"/><path class="cls-3" d="M0,363.43l51.93-2V211.7s-12-62-30.45-28.36Q6.15,277.48,0,363.43Z"/><path class="cls-3" d="M208.42,363.43l-51.94-2V211.7s12-62,30.46-28.36Q202.27,277.48,208.42,363.43Z"/><path id="Koza-3" data-name="Koza" class="cls-1" d="M89.92,598.65l-30.69,4.24c3.61-2.38,3.56-4.24,3.56-4.24Z"/><path id="Koza-4" data-name="Koza" class="cls-1" d="M156.64,602.89,126,598.65h25.92A16.76,16.76,0,0,0,156.64,602.89Z"/><path id="cevlje" class="cls-4" d="M89.92,598.65v20.74h-15v-5.92s-33.06,12.37-47.57,9.45c0,0-16.55-2.27,8.86-11.58,19-7,22.83-8.42,22.83-8.42l.17,0h0Z"/><path id="cevlje-2" data-name="cevlje" class="cls-4" d="M188.51,622.92c-14.5,2.92-47.57-9.45-47.57-9.45v5.92H126V598.65l30.69,4.24h0l.17,0s3.83,1.45,22.84,8.42C205.06,620.65,188.51,622.92,188.51,622.92Z"/><polygon id="Hlace" class="cls-1" points="174.61 358.73 174.61 387.15 151.87 598.65 125.89 598.65 109.44 432.88 89.97 598.65 62.79 598.65 41.8 387.15 41.8 358.73 174.61 358.73"/><path id="Obleka" class="cls-4" d="M164.34,315.88c-2.81-21.71-3.53-43.2-1.35-64.38,10.06-13.46,10.34-43,10.32-47.65,5.6-16.19,11.54-22.68,16.38-23.21,11.84-1.31-17.48-19.42-35.57-19.42H139.18c-4.9,12.41-18.43,21.32-34.35,21.32s-29.44-8.91-34.35-21.32H55.55c-18.1,0-47.42,18.11-35.58,19.42,4.78.52,10.63,6.86,16.16,22.58,0,0-.63,34.19,10.58,48.63a279.61,279.61,0,0,1-1.39,64L5.22,494s21.11,21.27,82.51,0c0,0,41.69,15.8,78.37,0,0,0,30.57,12.68,45.09,0Z"/><path class="cls-5" d="M41.65,325.49c.15-13.07,65.1,52.33,126.36,0"/><path id="Koza-5" data-name="Koza" class="cls-1" d="M98,26.6h8.2a37.7,37.7,0,0,1,37.7,37.7v50.06a41.8,41.8,0,0,1-41.8,41.8h0a41.8,41.8,0,0,1-41.8-41.8V64.3A37.7,37.7,0,0,1,98,26.6Z"/><path class="cls-6" d="M90.56,87c.09-8-22.94-8.35-23-.31C67.45,93.93,90.48,94.24,90.56,87Z"/><path class="cls-6" d="M136.84,87c.09-8-22.94-8.35-23-.31C113.73,93.93,136.76,94.24,136.84,87Z"/><ellipse class="cls-7" cx="78.33" cy="86.52" rx="3.81" ry="4.14"/><ellipse class="cls-7" cx="125.33" cy="86.52" rx="3.81" ry="4.14"/><path id="Oci" class="cls-8" d="M66.1,87.14s9.78-10.67,27.09,0C93.19,87.14,78.14,69.06,66.1,87.14Z"/><path id="Oci-2" data-name="Oci" class="cls-8" d="M112.2,87.14s9.79-10.67,27.1,0C139.3,87.14,124.25,69.06,112.2,87.14Z"/><g id="Nos"><path class="cls-9" d="M104.22,114.36a25.86,25.86,0,0,1-8.42-1.91l.46-1.11c2.44,1,9.25,3.13,11.48.7.32-.83-.91-7.54-1.9-12.94-2.1-11.49-2.61-15.2-1.71-16a.83.83,0,0,1,.78-.19l-.3,1.16a.37.37,0,0,0,.38-.14c-.53,1,1,9.1,2,15,1.85,10.16,2.29,13.22,1.6,14A5.8,5.8,0,0,1,104.22,114.36Z"/></g><path id="Obrve" class="cls-10" d="M93.9,77.73c-16.86-9.24-24.66-.29-24.74-.2l-1.33-1.12c.35-.42,8.81-10.12,26.91-.21Z"/><path id="Obrve-2" data-name="Obrve" class="cls-10" d="M138.88,78.9c-16.86-9.24-24.66-.29-24.74-.2l-1.33-1.12c.35-.42,8.81-10.12,26.91-.2Z"/><path id="Koza-6" data-name="Koza" class="cls-1" d="M143.2,79.89s10.48-3.19,7.43,13.86-7.43,27.6-7.43,27.6Z"/><path id="Koza-7" data-name="Koza" class="cls-1" d="M61.44,81.67S51,78.49,54,95.54s7.43,27.6,7.43,27.6Z"/><ellipse id="Uhani" class="cls-11" cx="60.31" cy="119.67" rx="3.31" ry="3.59"/><ellipse id="Uhani-2" data-name="Uhani" class="cls-11" cx="145.5" cy="119.55" rx="3.31" ry="3.59"/><path class="cls-12" d="M120.81,125.59a15.29,15.29,0,0,1-6.56,8.14c-1.24-5.12-23.8-3.13-23.88-3.12a19,19,0,0,1-3.44-5A87.28,87.28,0,0,0,120.81,125.59Z"/><path class="cls-13" d="M114.25,133.73h0a19.14,19.14,0,0,1-9.32,2.7,18.09,18.09,0,0,1-14.55-5.82C90.45,130.6,113,128.61,114.25,133.73Z"/><polygon class="cls-12" points="90.37 130.61 90.37 130.61 90.37 130.61 90.37 130.61"/><path id="Lasje" class="cls-10" d="M159.21,53.28H155a30.47,30.47,0,0,1-6.15,6.8c-6.82,5.5-15.42,7.19-24,5.83-2.48-.37-5.08-1-7.72-1.6q-2.35-.59-4.74-1.28l-4.81-1.39a65.25,65.25,0,0,0-6.42-1.76,63.6,63.6,0,0,0-6.81-1.12c-5.56-2.45-10.6.07-15.42,2.85a32,32,0,0,0-3.17,2.57c-2.94,3.89-7.14,6.42-8.38,11.7-.91,1.72-1.74,3.49-2.52,5.3s-1.54,3.63-2.26,5.47c-.47,1.93-.85,3.91-1.19,5.86s-.64,3.91-.91,5.8A29.9,29.9,0,0,1,59,95.56a30,30,0,0,0-1.25-4A45.91,45.91,0,0,1,54.2,87a28,28,0,0,1-4.37-4.63,28.65,28.65,0,0,1-4.36-11.23A33.57,33.57,0,0,1,45,64.92c1.74-16.18,11-33,26.8-38.79q3-1.27,6-2.27c.61-.2,1.22-.39,1.84-.57a20.6,20.6,0,0,1-.1-2.09,21.2,21.2,0,1,1,42.4,0c0,.71,0,1.41-.1,2.1a75.33,75.33,0,0,1,12.32,4.57,56,56,0,0,1,5.33,2.9A47.58,47.58,0,0,1,159.21,53.28Z"/></g></g></svg>