<svg xmlns="http://www.w3.org/2000/svg" viewBox="0 0 277.84 678.09"><defs><style>.cls-1{fill:#eed1bf;}.cls-2{fill:#fcc5aa;}.cls-3{fill:#dce6e0;}.cls-4{fill:#d9dceb;}.cls-5{fill:#00a881;}.cls-6{fill:none;stroke:#499086;stroke-miterlimit:10;stroke-width:0.95px;}.cls-7{fill:#017dad;}.cls-8{fill:#44515d;}.cls-9{fill:#499086;}.cls-10{fill:#ffebc6;}.cls-11{fill:#fff;}.cls-12{fill:#524935;}.cls-13{fill:#ebaf88;}.cls-14{fill:#ffe6b4;}.cls-15{fill:#301812;}.cls-16{fill:#d55227;}</style></defs><g id="Layer_2" data-name="Layer 2"><g id="Layer_1-2" data-name="Layer 1"><path id="Koza" class="cls-1" d="M48.6,352.5s-5.53,43.55,24.32,47.93v-49Z"/><path id="Koza-2" data-name="Koza" class="cls-1" d="M244.72,352.55s5.53,43.56-24.32,47.94v-49Z"/><path id="Vrat" class="cls-2" d="M184,141.63l-.21.53c-5.49,13.54-20,23.2-37.1,23.2-17.29,0-32-9.91-37.3-23.71h-.15a18.31,18.31,0,0,0,12.53-7.4,18,18,0,0,0,2-3.72,25.58,25.58,0,0,0,1.79-8.83H164a36.91,36.91,0,0,0,1.89,8.82c1.18,3.37,3.09,6.95,6.14,9.24C174.87,141.92,178.86,142.93,184,141.63Z"/><ellipse class="cls-3" cx="138.92" cy="662.25" rx="138.92" ry="15.83"/><path class="cls-4" d="M259.18,353.16,210.41,351v-157s11.28-65,28.6-29.73Q253.41,263,259.18,353.16Z"/><path class="cls-4" d="M34.27,353.16,83,351v-157s-11.28-65-28.6-29.73Q40,263,34.27,353.16Z"/><path id="Pulover" class="cls-5" d="M238.89,163.22l-.41.06c-5.35.94-11.87,8.69-17.95,27.46l10.64,172.85H60.56L72.92,190.74c-6.09-18.77-12.6-26.52-18-27.46l-.41-.06c-12.85-1.45,19-21.59,38.64-21.59h16.22c5.33,13.8,20,23.71,37.3,23.71,17.08,0,31.61-9.66,37.1-23.2.08-.17.14-.34.21-.51h16.22C219.9,141.63,251.74,161.77,238.89,163.22Z"/><line id="Zadrga" class="cls-6" x1="146.73" y1="363.62" x2="146.73" y2="165.36"/><polygon id="Hlace" class="cls-7" points="231.17 363.59 223.09 415.05 197.23 630.32 168.41 640.54 146.99 413.42 146.73 413.42 122.34 640.54 122.23 640.54 93.48 630.35 68.34 414.05 60.56 363.59 231.17 363.59"/><path class="cls-8" d="M240.49,662.09H168.41V640.54l28.82-10.22s0,0,0,.08c-1.25,12.27,9.29,14.13,9.29,14.13C250,640.49,240.49,662.09,240.49,662.09Z"/><path class="cls-8" d="M122.23,640.54v21.55H50.15s-9.51-21.6,34-17.56c0,0,10.59-1.87,9.27-14.21l.08,0Z"/><circle id="Gumb" class="cls-9" cx="159.1" cy="201.86" r="3.72"/><circle id="Gumb-2" data-name="Gumb" class="cls-9" cx="134.74" cy="201.86" r="3.72"/><circle id="Gumb-3" data-name="Gumb" class="cls-9" cx="159.1" cy="229.9" r="3.72"/><circle id="Gumb-4" data-name="Gumb" class="cls-9" cx="134.74" cy="229.9" r="3.72"/><circle id="Gumb-5" data-name="Gumb" class="cls-9" cx="159.1" cy="257.94" r="3.72"/><circle id="Gumb-6" data-name="Gumb" class="cls-9" cx="134.74" cy="257.94" r="3.72"/><circle id="Gumb-7" data-name="Gumb" class="cls-9" cx="159.1" cy="285.99" r="3.72"/><circle id="Gumb-8" data-name="Gumb" class="cls-9" cx="134.74" cy="285.99" r="3.72"/><circle id="Gumb-9" data-name="Gumb" class="cls-9" cx="159.1" cy="314.03" r="3.72"/><circle id="Gumb-10" data-name="Gumb" class="cls-9" cx="134.74" cy="314.03" r="3.72"/><path id="Koza-3" data-name="Koza" class="cls-1" d="M199.49,67.57a133.55,133.55,0,0,1-7.42,25.57,49.25,49.25,0,0,1-97.41-1.91A155.45,155.45,0,0,1,88,67.11c-2.46-12.67,3.11-14.27,6.23-14.23V49.94A44.43,44.43,0,0,1,138.68,5.51h9.66a44.43,44.43,0,0,1,44.43,44.43v4.42C195.26,54.06,202.05,54.37,199.49,67.57Z"/><path id="Brada" class="cls-10" d="M194.79,85.77a84.45,84.45,0,0,1-.63,11.28,62.13,62.13,0,0,1-1.21,6.71,39.35,39.35,0,0,1-1.16,5.64,32.64,32.64,0,0,1-1.95,5.14,35.78,35.78,0,0,1-2.67,4.52,30.91,30.91,0,0,1-3.45,4.06c-.85,1.37-1.75,2.71-2.72,4a47.51,47.51,0,0,1-3.09,3.69,40.28,40.28,0,0,1-3.68,4.5q-1.72,1.77-3.54,3.41c-4.92,4.45-10.38,8-16.56,9.76a31.32,31.32,0,0,1-4.76.94,14.39,14.39,0,0,1-9.82-1.72c-6.31-5.57-12.37-10.65-19.09-14.49a54,54,0,0,0-11.95-5.12,36,36,0,0,1-3.44-2.68,41.17,41.17,0,0,1-3.12-3.08,41.47,41.47,0,0,1-2.61-4,43.1,43.1,0,0,1-3.87-8.89c-.41-1.52-.74-3-1-4.61a67.93,67.93,0,0,1-.86-16.61c0-.67.09-1.34.16-2-.07-2.28-.1-4.58-.06-6.77.13-6.57.88-12.17,3-13.27,3.29-1.73,4.5-2,4.94-1.83a.32.32,0,0,1,.23.14h0a.25.25,0,0,1,0,.16s1.52,23.72,23.84,34h37.94s22.66-22,22.66-33.95L192,66l.8.19A102.54,102.54,0,0,1,194.79,85.77Z"/><path class="cls-11" d="M132.86,61.19c.09-7.57-23.45-7.86-23.54-.28C109.23,67.75,132.78,68,132.86,61.19Z"/><path class="cls-11" d="M180.17,61.19c.1-7.57-23.44-7.86-23.54-.28C156.55,67.75,180.09,68,180.17,61.19Z"/><circle class="cls-12" cx="120.36" cy="60.77" r="3.89"/><circle class="cls-12" cx="168.4" cy="60.77" r="3.89"/><path id="Oci" class="cls-13" d="M107.85,61.35s10-10.05,27.7,0C135.55,61.35,120.16,44.33,107.85,61.35Z"/><path id="Oci-2" data-name="Oci" class="cls-13" d="M155,61.35s10-10.05,27.69,0C182.68,61.35,167.3,44.33,155,61.35Z"/><path id="Brki" class="cls-10" d="M163.63,98.6H125.69c1.23-4.43,4.24-8,9.5-10.49h4.36c1.25.59,8.06,3.63,10.44.49a1.07,1.07,0,0,0,.12-.49h3.62C158.86,91.08,162.31,94.54,163.63,98.6Z"/><path class="cls-1" d="M147,57.86l-.4,1.56C146.58,58.35,146.7,57.77,147,57.86Z"/><path id="Nos" class="cls-13" d="M146.54,90.58a19.61,19.61,0,0,1-7.45-2l.53-1c2.1,1.07,8,3.28,9.91.75.32-.84-.76-8-1.64-13.82-1.86-12.28-2.3-16.23-1.43-17a.73.73,0,0,1,.71-.14l-.34,1.1a.4.4,0,0,0,.44-.15c-.5,1,.81,9.67,1.76,16,1.62,10.71,2,13.94,1.42,14.7A4.64,4.64,0,0,1,146.54,90.58Z"/><g id="obrve"><path class="cls-14" d="M136.06,53.06c-16.77-8.46-24.38-.64-24.69-.3l-2.13-2c.37-.4,9.28-9.82,28.12-.31Z"/></g><g id="Obrve-2" data-name="Obrve"><g id="Obrve-3" data-name="Obrve"><path id="Obrve-4" data-name="Obrve" class="cls-14" d="M182,54.17c-16.89-8.53-24.6-.4-24.68-.32l-2.13-1.94c.37-.41,9.28-9.82,28.12-.32Z"/></g></g><path class="cls-15" d="M163.63,98.61a21.59,21.59,0,0,1-7.34,10.91c-1.39-6.86-26.66-4.2-26.74-4.19a31.84,31.84,0,0,1-3.86-6.72Z"/><path class="cls-16" d="M156.29,109.52h0a19,19,0,0,1-10.44,3.6c-7.92.47-13.15-3.77-16.29-7.79C129.63,105.32,154.9,102.66,156.29,109.52Z"/><polygon class="cls-15" points="129.55 105.33 129.55 105.33 129.55 105.33 129.55 105.33"/><polygon class="cls-11" points="125.69 98.61 126.77 101 162.82 101 163.63 98.61 125.69 98.61"/><path id="Lasje" class="cls-10" d="M95.27,67.5s-7.43-23.06,0-38,5.64-19.09,46.16-28,52.44,27.46,52.44,27.46C191,19.77,177,21.53,177,21.53s4.7,5.29-8.22,4.85-13.66-10.87-42.27-7.93-24.26,45.79-24.26,45.79Z"/></g></g></svg>