<svg xmlns="http://www.w3.org/2000/svg" viewBox="0 0 277.84 678.09"><defs><style>.cls-1{fill:#eed1bf;}.cls-2{fill:#fcc5aa;}.cls-3{fill:#dce6e0;}.cls-4{fill:#d9dceb;}.cls-5{fill:#00a881;}.cls-6{fill:none;stroke:#499086;stroke-miterlimit:10;stroke-width:0.95px;}.cls-7{fill:#017dad;}.cls-8{fill:#44515d;}.cls-9{fill:#499086;}.cls-10{fill:#ffebc6;}.cls-11{fill:#fff;}.cls-12{fill:#524935;}.cls-13{fill:#ebaf88;}.cls-14{fill:#ffe6b4;}.cls-15{fill:#301812;}.cls-16{fill:#d55227;}</style></defs><g id="Layer_2" data-name="Layer 2"><g id="Layer_1-2" data-name="Layer 1"><path id="Koza" class="cls-1" d="M48.6,352.5s-5.53,43.55,24.32,47.93v-49Z"/><path id="Koza-2" data-name="Koza" class="cls-1" d="M244.72,352.55s5.53,43.56-24.32,47.94v-49Z"/><path id="Vrat" class="cls-2" d="M184,141.63l-.21.53c-5.49,13.54-20,23.2-37.1,23.2-17.29,0-32-9.91-37.3-23.71h-.15a18.31,18.31,0,0,0,12.53-7.4,18,18,0,0,0,2-3.72,25.58,25.58,0,0,0,1.79-8.83H164a36.91,36.91,0,0,0,1.89,8.82c1.18,3.37,3.09,6.95,6.14,9.24C174.87,141.92,178.86,142.93,184,141.63Z"/><ellipse class="cls-3" cx="138.92" cy="662.25" rx="138.92" ry="15.83"/><path class="cls-4" d="M259.18,353.16,210.41,351v-157s11.28-65,28.6-29.73Q253.41,263,259.18,353.16Z"/><path class="cls-4" d="M34.27,353.16,83,351v-157s-11.28-65-28.6-29.73Q40,263,34.27,353.16Z"/><path id="Pulover" class="cls-5" d="M238.89,163.22l-.41.06c-5.35.94-11.87,8.69-17.95,27.46l10.64,172.85H60.56L72.92,190.74c-6.09-18.77-12.6-26.52-18-27.46l-.41-.06c-12.85-1.45,19-21.59,38.64-21.59h16.22c5.33,13.8,20,23.71,37.3,23.71,17.08,0,31.61-9.66,37.1-23.2.08-.17.14-.34.21-.51h16.22C219.9,141.63,251.74,161.77,238.89,163.22Z"/><line id="Zadrga" class="cls-6" x1="146.73" y1="363.62" x2="146.73" y2="165.36"/><polygon id="Hlace" class="cls-7" points="231.17 363.59 223.09 415.05 197.23 630.32 168.41 640.54 146.99 413.42 146.73 413.42 122.34 640.54 122.23 640.54 93.48 630.35 68.34 414.05 60.56 363.59 231.17 363.59"/><path class="cls-8" d="M240.49,662.09H168.41V640.54l28.82-10.22s0,0,0,.08c-1.25,12.27,9.29,14.13,9.29,14.13C250,640.49,240.49,662.09,240.49,662.09Z"/><path class="cls-8" d="M122.23,640.54v21.55H50.15s-9.51-21.6,34-17.56c0,0,10.59-1.87,9.27-14.21l.08,0Z"/><circle id="Gumb" class="cls-9" cx="159.1" cy="201.86" r="3.72"/><circle id="Gumb-2" data-name="Gumb" class="cls-9" cx="134.74" cy="201.86" r="3.72"/><circle id="Gumb-3" data-name="Gumb" class="cls-9" cx="159.1" cy="229.9" r="3.72"/><circle id="Gumb-4" data-name="Gumb" class="cls-9" cx="134.74" cy="229.9" r="3.72"/><circle id="Gumb-5" data-name="Gumb" class="cls-9" cx="159.1" cy="257.94" r="3.72"/><circle id="Gumb-6" data-name="Gumb" class="cls-9" cx="134.74" cy="257.94" r="3.72"/><circle id="Gumb-7" data-name="Gumb" class="cls-9" cx="159.1" cy="285.99" r="3.72"/><circle id="Gumb-8" data-name="Gumb" class="cls-9" cx="134.74" cy="285.99" r="3.72"/><circle id="Gumb-9" data-name="Gumb" class="cls-9" cx="159.1" cy="314.03" r="3.72"/><circle id="Gumb-10" data-name="Gumb" class="cls-9" cx="134.74" cy="314.03" r="3.72"/><path id="Koza-3" data-name="Koza" class="cls-1" d="M202.48,67.57a133.55,133.55,0,0,1-7.42,25.57,49.25,49.25,0,0,1-97.41-1.91A155.45,155.45,0,0,1,91,67.11c-2.46-12.67,3.11-14.27,6.23-14.23V49.94A44.43,44.43,0,0,1,141.67,5.51h9.66a44.43,44.43,0,0,1,44.43,44.43v4.42C198.25,54.06,205,54.37,202.48,67.57Z"/><path id="Brki" class="cls-10" d="M158.24,92.16s18.19,4.35,15.56,23.4-24,18.57-24,18.57-25.42,1.47-26.06-18.57,12.57-22.48,15.66-23.4Z"/><path class="cls-11" d="M135.85,61.19c.09-7.57-23.45-7.86-23.54-.28C112.22,67.75,135.76,68,135.85,61.19Z"/><path class="cls-11" d="M183.16,61.19c.09-7.57-23.45-7.86-23.54-.28C159.54,67.75,183.08,68,183.16,61.19Z"/><circle class="cls-12" cx="123.34" cy="60.77" r="3.89"/><circle class="cls-12" cx="171.39" cy="60.77" r="3.89"/><path id="Oci" class="cls-13" d="M110.84,61.35s10-10.05,27.7,0C138.54,61.35,123.15,44.33,110.84,61.35Z"/><path id="Oci-2" data-name="Oci" class="cls-13" d="M158,61.35s10-10.05,27.69,0C185.67,61.35,170.29,44.33,158,61.35Z"/><path class="cls-1" d="M150,57.86l-.4,1.56C149.57,58.35,149.69,57.77,150,57.86Z"/><path id="Nos" class="cls-13" d="M149.52,90.58a19.6,19.6,0,0,1-7.44-2l.52-1c2.11,1.07,8,3.28,9.92.75.32-.84-.77-8-1.64-13.82-1.86-12.28-2.3-16.23-1.43-17a.73.73,0,0,1,.71-.14l-.34,1.1a.4.4,0,0,0,.44-.15c-.5,1,.8,9.67,1.76,16,1.62,10.71,2,13.94,1.42,14.7A4.66,4.66,0,0,1,149.52,90.58Z"/><g id="obrve"><path class="cls-14" d="M139,53.06c-16.77-8.46-24.37-.64-24.69-.3l-2.12-2c.37-.4,9.28-9.82,28.11-.31Z"/></g><g id="Obrve-2" data-name="Obrve"><g id="Obrve-3" data-name="Obrve"><path id="Obrve-4" data-name="Obrve" class="cls-14" d="M185,54.17c-16.9-8.53-24.6-.4-24.68-.32l-2.13-1.94c.37-.41,9.28-9.82,28.11-.32Z"/></g></g><path class="cls-15" d="M166.62,98.61a21.65,21.65,0,0,1-7.35,10.91c-1.38-6.86-26.65-4.2-26.73-4.19a31.31,31.31,0,0,1-3.86-6.72Z"/><path class="cls-16" d="M159.27,109.52h0a19,19,0,0,1-10.44,3.6c-7.92.47-13.15-3.77-16.29-7.79C132.62,105.32,157.89,102.66,159.27,109.52Z"/><polygon class="cls-15" points="132.54 105.33 132.54 105.33 132.54 105.33 132.54 105.33"/><polygon class="cls-11" points="128.68 98.61 129.76 101 165.81 101 166.62 98.61 128.68 98.61"/><path id="Lasje" class="cls-10" d="M98.25,67.5s-7.42-23.06,0-38,5.64-19.09,46.17-28,52.44,27.46,52.44,27.46c-2.93-9.11-16.9-7.35-16.9-7.35s4.7,5.29-8.23,4.85-13.65-10.87-42.26-7.93-24.26,45.79-24.26,45.79Z"/></g></g></svg>