<svg xmlns="http://www.w3.org/2000/svg" viewBox="0 0 277.84 623.51"><defs><style>.cls-1{fill:#fcc5aa;}.cls-2{fill:#dce6e0;}.cls-3{fill:#d9dceb;}.cls-4{fill:#00a881;}.cls-16,.cls-17,.cls-5{fill:none;stroke-miterlimit:10;}.cls-5{stroke:#499086;stroke-width:0.95px;}.cls-6{fill:#017dad;}.cls-7{fill:#eed1bf;}.cls-8{fill:#44515d;}.cls-9{fill:#499086;}.cls-10{fill:#fff;}.cls-11{fill:#524935;}.cls-12{fill:#ebaf88;}.cls-13{fill:#ffe6b4;}.cls-14{fill:#301812;}.cls-15{fill:#d55227;}.cls-16,.cls-17{stroke:#231f20;}.cls-16{stroke-width:0.62px;}.cls-17{stroke-width:0.56px;}.cls-18{fill:#ffebc6;}</style></defs><g id="Layer_2" data-name="Layer 2"><g id="Layer_1-2" data-name="Layer 1"><path id="Vrat" class="cls-1" d="M184,147.29l-.21.53c-5.49,13.54-20,23.2-37.1,23.2-17.29,0-32-9.91-37.3-23.71h-.15a18.31,18.31,0,0,0,12.53-7.4,18,18,0,0,0,2-3.72,25.58,25.58,0,0,0,1.79-8.83H164a36.91,36.91,0,0,0,1.89,8.82c1.18,3.37,3.09,6.95,6.14,9.24C174.87,147.58,178.86,148.59,184,147.29Z"/><ellipse class="cls-2" cx="138.92" cy="607.68" rx="138.92" ry="15.83"/><path class="cls-3" d="M259.18,358.81l-48.77-2.12v-157s11.28-65,28.6-29.73Q253.41,268.7,259.18,358.81Z"/><path class="cls-3" d="M34.27,358.81,83,356.69v-157s-11.28-65-28.6-29.73Q40,268.7,34.27,358.81Z"/><path id="Pulover" class="cls-4" d="M238.89,168.88l-.41.06c-5.35.94-11.87,8.69-17.95,27.46V369.25H72.92V196.4c-6.09-18.77-12.6-26.52-18-27.46l-.41-.06c-12.85-1.45,19-21.59,38.64-21.59h16.22c5.33,13.8,20,23.71,37.3,23.71,17.08,0,31.61-9.66,37.1-23.2.08-.17.14-.34.21-.51h16.22C219.9,147.29,251.74,167.43,238.89,168.88Z"/><line id="Zadrga" class="cls-5" x1="146.73" y1="369.27" x2="146.73" y2="171.02"/><polygon id="Hlace" class="cls-6" points="220.4 368.89 220.4 407.94 197.23 577.95 168.41 585.97 146.99 407.94 146.73 407.94 122.34 585.97 122.23 585.97 93.48 577.98 72.92 407.94 72.92 368.89 220.4 368.89"/><path id="Koza" class="cls-7" d="M48.6,358.15s-5.53,43.56,24.32,47.94v-49Z"/><path id="Koza-2" data-name="Koza" class="cls-7" d="M244.72,358.21s5.53,43.56-24.32,47.94v-49Z"/><path class="cls-8" d="M240.49,607.51H168.41V586l28.82-10.22s0,0,0,.08C196,588.09,206.51,590,206.51,590,250,585.91,240.49,607.51,240.49,607.51Z"/><path class="cls-8" d="M122.23,586v21.55H50.15s-9.51-21.6,34-17.56c0,0,10.59-1.87,9.27-14.21l.08,0Z"/><circle id="Gumb" class="cls-9" cx="159.1" cy="207.52" r="3.72"/><circle id="Gumb-2" data-name="Gumb" class="cls-9" cx="134.74" cy="207.52" r="3.72"/><circle id="Gumb-3" data-name="Gumb" class="cls-9" cx="159.1" cy="235.56" r="3.72"/><circle id="Gumb-4" data-name="Gumb" class="cls-9" cx="134.74" cy="235.56" r="3.72"/><circle id="Gumb-5" data-name="Gumb" class="cls-9" cx="159.1" cy="263.6" r="3.72"/><circle id="Gumb-6" data-name="Gumb" class="cls-9" cx="134.74" cy="263.6" r="3.72"/><circle id="Gumb-7" data-name="Gumb" class="cls-9" cx="159.1" cy="291.64" r="3.72"/><circle id="Gumb-8" data-name="Gumb" class="cls-9" cx="134.74" cy="291.64" r="3.72"/><circle id="Gumb-9" data-name="Gumb" class="cls-9" cx="159.1" cy="319.68" r="3.72"/><circle id="Gumb-10" data-name="Gumb" class="cls-9" cx="134.74" cy="319.68" r="3.72"/><path id="Koza-3" data-name="Koza" class="cls-7" d="M202,73.51a133.55,133.55,0,0,1-7.42,25.57,49.25,49.25,0,0,1-97.41-1.91,155.45,155.45,0,0,1-6.64-24.12c-2.46-12.67,3.11-14.27,6.23-14.23V55.88a44.43,44.43,0,0,1,44.43-44.43h9.66a44.43,44.43,0,0,1,44.43,44.43V60.3C197.81,60,204.6,60.31,202,73.51Z"/><path class="cls-10" d="M135.4,67.13c.1-7.57-23.45-7.86-23.54-.29C111.78,73.69,135.32,74,135.4,67.13Z"/><path class="cls-10" d="M182.72,67.13c.09-7.57-23.45-7.86-23.54-.29C159.09,73.69,182.64,74,182.72,67.13Z"/><circle class="cls-11" cx="122.9" cy="66.71" r="3.89"/><circle class="cls-11" cx="170.95" cy="66.71" r="3.89"/><path id="Oci" class="cls-12" d="M110.4,67.29s10-10.05,27.7,0C138.1,67.29,122.71,50.27,110.4,67.29Z"/><path id="Oci-2" data-name="Oci" class="cls-12" d="M157.53,67.29s10-10.05,27.7,0C185.23,67.29,169.84,50.27,157.53,67.29Z"/><path class="cls-7" d="M149.55,63.8l-.4,1.56C149.13,64.29,149.25,63.71,149.55,63.8Z"/><path id="Nos" class="cls-12" d="M149.08,96.52a19.6,19.6,0,0,1-7.44-2l.52-1c2.11,1.07,8,3.28,9.92.75.32-.84-.77-8-1.64-13.82-1.86-12.28-2.3-16.23-1.44-17a.75.75,0,0,1,.72-.14l-.34,1.1a.38.38,0,0,0,.43-.15c-.5,1,.81,9.67,1.77,16,1.62,10.7,2,13.93,1.42,14.69A4.66,4.66,0,0,1,149.08,96.52Z"/><g id="Obrve"><path class="cls-13" d="M138.6,59c-16.77-8.46-24.37-.64-24.69-.31l-2.12-1.95c.37-.4,9.27-9.82,28.11-.31Z"/></g><g id="Obrve-2" data-name="Obrve"><g id="Obrve-3" data-name="Obrve"><path id="Obrve-4" data-name="Obrve" class="cls-13" d="M184.58,60.11c-16.9-8.53-24.61-.4-24.68-.32l-2.13-1.94c.36-.41,9.27-9.82,28.11-.32Z"/></g></g><path class="cls-14" d="M166.18,104.55c-.09,0-1.53,6.58-7.35,10.91-1.38-6.86-26.65-4.2-26.74-4.19a31.51,31.51,0,0,1-3.85-6.72Z"/><path class="cls-15" d="M158.83,115.46h0a19.06,19.06,0,0,1-10.44,3.6c-7.92.47-13.15-3.77-16.3-7.79C132.18,111.26,157.45,108.6,158.83,115.46Z"/><polygon class="cls-14" points="132.09 111.27 132.1 111.27 132.09 111.27 132.09 111.27"/><polygon class="cls-10" points="128.24 104.55 129.32 106.94 165.37 106.94 166.18 104.55 128.24 104.55"/><g id="Ocala"><path class="cls-16" d="M139.89,67.85s10.32-7.8,17.16,0"/><line class="cls-16" x1="99.6" y1="61.03" x2="110.35" y2="66.71"/><line class="cls-16" x1="197.34" y1="60.81" x2="186.59" y2="67.28"/><circle class="cls-17" cx="125.12" cy="67.85" r="14.77"/><circle class="cls-17" cx="171.82" cy="67.85" r="14.77"/></g><path id="Lasje" class="cls-18" d="M203.33,165.24s-5.67-1.23-9.72-14c-9.94-9.12-23.69-16.13-23.69-16.13,8.48-5,15.75-16.51,19.75-23.88.16-6,.54-12.66,1.2-20,6.1-68.52-42.12-48.71-44.18-48.56h0c-2-.14-50.22-20-44.11,48.56.66,7.35,1,14,1.19,19.94,5.48,9.13,17.16,22.42,17.16,22.42-5.8-3.78-13.58,4.31-19.87,13.26-4,17-10.94,18.45-10.94,18.45S61.35-6.67,146.73.2C232.1-6.67,203.33,165.24,203.33,165.24Z"/></g></g></svg>