<svg xmlns="http://www.w3.org/2000/svg" xmlns:xlink="http://www.w3.org/1999/xlink" viewBox="0 0 277.84 766.86"><defs><style>.cls-1,.cls-20,.cls-21{fill:none;}.cls-1{stroke:#912c46;stroke-width:5.67px;}.cls-1,.cls-16,.cls-17,.cls-20,.cls-21,.cls-7{stroke-miterlimit:10;}.cls-2{clip-path:url(#clip-path);}.cls-3{fill:#dce6e0;}.cls-4{fill:#fbc5aa;}.cls-5{fill:#d8dcec;}.cls-6,.cls-7{fill:#912c46;}.cls-7{stroke:#78121c;stroke-width:0.95px;}.cls-8{fill:#007dac;}.cls-16,.cls-17,.cls-9{fill:#eed1bf;}.cls-10{fill:#44515c;}.cls-11{fill:#78121c;}.cls-12{fill:#fff;}.cls-13{fill:#514835;}.cls-14{fill:#ebaf82;}.cls-15{fill:#ffebc6;}.cls-16{stroke:#ebaf82;stroke-width:1.15px;}.cls-17{stroke:#ffe6b4;stroke-width:2.89px;}.cls-18{fill:#5a3b34;}.cls-19{fill:#d55225;}.cls-20,.cls-21{stroke:#231f20;}.cls-20{stroke-width:0.62px;}.cls-21{stroke-width:0.56px;}</style><clipPath id="clip-path" transform="translate(35.01)"><circle class="cls-1" cx="111.83" cy="111.83" r="109"/></clipPath></defs><g id="Layer_2" data-name="Layer 2"><g id="Avatar"><g class="cls-2"><ellipse class="cls-3" cx="138.92" cy="751.03" rx="138.92" ry="15.83"/><path class="cls-4" d="M74.27,172.43s15.63-1.17,16.35-20H129s1.57,24.55,19.87,20l-1.65,14.1-37.39,14.89-32.48-8.71L69.43,177Z" transform="translate(35.01)"/><path class="cls-5" d="M224.18,383.93l-48.77-2.13v-157s11.27-65,28.6-29.73Q218.41,293.83,224.18,383.93Z" transform="translate(35.01)"/><path class="cls-5" d="M-.74,383.93,48,381.8v-157s-11.27-65-28.6-29.73Q5,293.83-.74,383.93Z" transform="translate(35.01)"/><path class="cls-6" d="M165.25,172.43H149c-5.32,13.79-20,23.71-37.3,23.71s-32-9.92-37.3-23.71H58.19c-19.65,0-51.49,20.14-38.63,21.59,5.41.61,12.11,8.26,18.35,27.51V394.39H185.52V221.53c6.25-19.25,12.95-26.9,18.36-27.51C216.74,192.57,184.89,172.43,165.25,172.43Z" transform="translate(35.01)"/><line class="cls-7" x1="146.73" y1="394.39" x2="146.73" y2="196.14"/><rect class="cls-8" x="72.92" y="394.39" width="147.48" height="49.8"/><polygon class="cls-8" points="146.73 443.83 122.34 729.32 94.45 729.32 72.92 443.83 146.73 443.83"/><polygon class="cls-8" points="220.4 443.83 196.14 729.32 168.41 729.32 146.99 443.83 220.4 443.83"/><path class="cls-9" d="M13.59,383.27S8.07,426.83,37.91,431.2v-49Z" transform="translate(35.01)"/><path class="cls-9" d="M209.72,383.33s5.52,43.56-24.32,47.93v-49Z" transform="translate(35.01)"/><path class="cls-10" d="M133.4,729.32v21.54h72.08s9.51-21.59-34-17.55c0,0-10.59-1.88-9.27-14.22" transform="translate(35.01)"/><path class="cls-10" d="M87.22,729.32v21.54H15.15s-9.51-21.59,34-17.55c0,0,10.6-1.88,9.28-14.22" transform="translate(35.01)"/><circle class="cls-11" cx="159.1" cy="232.63" r="3.72"/><circle class="cls-11" cx="134.74" cy="232.63" r="3.72"/><circle class="cls-11" cx="159.1" cy="260.68" r="3.72"/><circle class="cls-11" cx="134.74" cy="260.68" r="3.72"/><circle class="cls-11" cx="159.1" cy="288.72" r="3.72"/><circle class="cls-11" cx="134.74" cy="288.72" r="3.72"/><circle class="cls-11" cx="159.1" cy="316.76" r="3.72"/><circle class="cls-11" cx="134.74" cy="316.76" r="3.72"/><circle class="cls-11" cx="159.1" cy="344.8" r="3.72"/><circle class="cls-11" cx="134.74" cy="344.8" r="3.72"/><path class="cls-9" d="M61.5,85.94s-11.49-3.22-8.15,14S61.5,127.8,61.5,127.8Z" transform="translate(35.01)"/><path class="cls-9" d="M139,38.33h9.66a44.43,44.43,0,0,1,44.43,44.43v35A49.26,49.26,0,0,1,143.85,167h0a49.26,49.26,0,0,1-49.26-49.26v-35A44.43,44.43,0,0,1,139,38.33Z"/><path class="cls-12" d="M98.19,94c.09-7.57-23.45-7.86-23.54-.28C74.57,100.57,98.11,100.85,98.19,94Z" transform="translate(35.01)"/><path class="cls-12" d="M145.51,94c.09-7.57-23.45-7.86-23.55-.28C121.88,100.57,145.42,100.85,145.51,94Z" transform="translate(35.01)"/><circle class="cls-13" cx="120.69" cy="93.59" r="3.89"/><circle class="cls-13" cx="168.74" cy="93.59" r="3.89"/><path class="cls-14" d="M73.19,94.17s10-10,27.69,0C100.88,94.17,85.5,77.15,73.19,94.17Z" transform="translate(35.01)"/><path class="cls-14" d="M120.32,94.17s10-10,27.7,0C148,94.17,132.63,77.15,120.32,94.17Z" transform="translate(35.01)"/><path class="cls-15" d="M100.52,120.93c-5.25,2.49-8.27,6.06-9.49,10.5H129c-1.31-4.07-4.76-7.52-9.89-10.5Z" transform="translate(35.01)"/><path class="cls-16" d="M104.69,120.84s8,4,10.64.58c1.13-1.49-5-31.36-3-30.73" transform="translate(35.01)"/><path class="cls-17" d="M75.64,84.6s8.32-9.13,26.4,0" transform="translate(35.01)"/><path class="cls-17" d="M121.62,85.7s8.32-9.12,26.4,0" transform="translate(35.01)"/><path class="cls-18" d="M129,131.43a20.58,20.58,0,0,1-7.34,10.91c-1.39-6.86-26.65-4.2-26.74-4.19A26.59,26.59,0,0,1,91,131.43Z" transform="translate(35.01)"/><path class="cls-19" d="M121.62,142.34h0a19,19,0,0,1-10.44,3.6c-7.92.47-13.15-3.77-16.29-7.79C95,138.14,120.23,135.48,121.62,142.34Z" transform="translate(35.01)"/><polygon class="cls-18" points="129.89 138.15 129.89 138.15 129.89 138.15 129.89 138.15"/><path class="cls-9" d="M157.23,87.34s10.71-3,7.59,13.06-7.59,26-7.59,26Z" transform="translate(35.01)"/><polygon class="cls-12" points="126.03 131.43 127.11 133.82 163.16 133.82 163.97 131.43 126.03 131.43"/><path class="cls-20" d="M102.68,94.73s10.32-7.8,17.16,0" transform="translate(35.01)"/><line class="cls-20" x1="97.4" y1="87.91" x2="108.15" y2="93.59"/><line class="cls-20" x1="195.14" y1="87.69" x2="184.39" y2="94.16"/><circle class="cls-21" cx="122.92" cy="94.73" r="14.77"/><circle class="cls-21" cx="169.62" cy="94.73" r="14.77"/></g><circle class="cls-1" cx="146.84" cy="111.83" r="109"/></g></g></svg>