<svg xmlns="http://www.w3.org/2000/svg" viewBox="0 0 277.84 666.79"><defs><style>.cls-1{fill:#dce6e0;}.cls-2{fill:#007dac;}.cls-10,.cls-11,.cls-3{fill:#eed1bf;}.cls-4{fill:#fbc5aa;}.cls-5{fill:#d8dcec;}.cls-6{fill:#fff;}.cls-7{fill:#514835;}.cls-8{fill:#ebaf82;}.cls-9{fill:#ffebc6;}.cls-10{stroke:#ebaf82;stroke-width:1.15px;}.cls-10,.cls-11,.cls-14,.cls-15,.cls-17{stroke-miterlimit:10;}.cls-11{stroke:#ffe6b4;stroke-width:2.89px;}.cls-12{fill:#5a3b34;}.cls-13{fill:#d55225;}.cls-14,.cls-15{fill:none;stroke:#231f20;}.cls-14{stroke-width:0.62px;}.cls-15{stroke-width:0.56px;}.cls-16,.cls-17{fill:#00a881;}.cls-17{stroke:#489086;stroke-width:0.95px;}.cls-18{fill:#44515c;}.cls-19{fill:#489086;}</style></defs><g id="Layer_2" data-name="Layer 2"><g id="Avatar"><ellipse class="cls-1" cx="138.92" cy="650.95" rx="138.92" ry="15.83"/><polygon class="cls-2" points="146.73 418.76 122.34 629.24 94.45 629.24 60.84 418.76 146.73 418.76"/><polygon class="cls-2" points="232.84 418.76 196.14 629.24 168.41 629.24 146.99 418.76 232.84 418.76"/><path class="cls-3" d="M48.6,358.2s-5.53,43.55,24.32,47.93v-49Z"/><path class="cls-3" d="M244.72,358.25s5.53,43.56-24.32,47.94v-49Z"/><path class="cls-4" d="M109.27,147.35s15.63-1.16,16.35-19.95H164s1.58,24.54,19.88,19.95l-1.66,14.11-37.39,14.89-32.47-8.71-7.92-15.76Z"/><path class="cls-5" d="M259.18,358.86l-48.77-2.13v-157s11.28-65,28.6-29.73Q253.41,268.74,259.18,358.86Z"/><path class="cls-3" d="M97.51,59.87s-11.5-3.22-8.15,14,8.15,27.87,8.15,27.87Z"/><path class="cls-3" d="M140,12.26h9.66a44.43,44.43,0,0,1,44.43,44.43v35a49.26,49.26,0,0,1-49.26,49.26h0A49.26,49.26,0,0,1,95.59,91.67v-35A44.43,44.43,0,0,1,140,12.26Z"/><path class="cls-6" d="M134.2,67.94c.09-7.58-23.45-7.86-23.54-.29C110.57,74.5,134.11,74.78,134.2,67.94Z"/><path class="cls-6" d="M181.51,67.94c.09-7.58-23.45-7.86-23.54-.29C157.89,74.5,181.43,74.78,181.51,67.94Z"/><circle class="cls-7" cx="121.69" cy="67.52" r="3.89"/><circle class="cls-7" cx="169.74" cy="67.52" r="3.89"/><path class="cls-8" d="M109.19,68.1s10-10,27.7,0C136.89,68.1,121.5,51.08,109.19,68.1Z"/><path class="cls-8" d="M156.33,68.1s10-10,27.69,0C184,68.1,168.63,51.08,156.33,68.1Z"/><path class="cls-9" d="M136.53,94.86c-5.25,2.49-8.27,6.06-9.5,10.5H165c-1.32-4.07-4.77-7.52-9.9-10.5Z"/><path class="cls-10" d="M140.69,94.77s8,4,10.64.58c1.14-1.49-5-31.36-3-30.73"/><path class="cls-11" d="M111.64,58.52s8.33-9.12,26.4,0"/><path class="cls-11" d="M157.62,59.63s8.33-9.12,26.4,0"/><path class="cls-12" d="M165,105.36a20.6,20.6,0,0,1-7.35,10.91c-1.38-6.87-26.65-4.2-26.73-4.19a26.46,26.46,0,0,1-3.86-6.72Z"/><path class="cls-13" d="M157.62,116.27h0a19,19,0,0,1-10.44,3.6c-7.92.47-13.15-3.77-16.29-7.79C131,112.07,156.24,109.4,157.62,116.27Z"/><polygon class="cls-12" points="130.89 112.08 130.89 112.08 130.89 112.08 130.89 112.08"/><path class="cls-3" d="M193.23,61.27s10.72-3,7.6,13-7.6,26-7.6,26Z"/><polygon class="cls-6" points="127.03 105.36 128.11 107.75 164.16 107.75 164.97 105.36 127.03 105.36"/><path class="cls-14" d="M138.69,68.66s10.31-7.8,17.16,0"/><line class="cls-14" x1="98.4" y1="61.84" x2="109.15" y2="67.52"/><line class="cls-14" x1="196.14" y1="61.62" x2="185.39" y2="68.09"/><circle class="cls-15" cx="123.92" cy="68.66" r="14.77"/><circle class="cls-15" cx="170.62" cy="68.66" r="14.77"/><path class="cls-9" d="M103.19,71.42s-3.33-24.54,7.49-34.2A14.38,14.38,0,0,1,114,35a10.85,10.85,0,0,1,2.18-.77c4-1.14,8.65-.56,12.82-.3l3.12.32c19.3,2.1,29.26,5.74,29.26,5.74s5.78-5.55-3.75-8.63,15.48-.38,22,13.27a93.13,93.13,0,0,1,8,26.81l5.6,1.51s14.88-38.55-2.82-51.8c-9.7-7.27-21.71-16.44-33.59-19.74a35.63,35.63,0,0,0-3.56-.8,29,29,0,0,0-3.18-.46A30.72,30.72,0,0,0,146.9,0a27,27,0,0,0-6.45.56c-1.1.25-2.17.56-3.22.91s-2.07.75-3.07,1.18c-9.91,5-18.57,13.09-29.47,15.75-1,.31-2.08.66-3.06,1-4.93,1.94-8.85,4.92-9.18,11.16-.25,1-.45,1.92-.61,2.9a25.38,25.38,0,0,0-.22,5.9c0,.73.08,1.46.08,2.22C91.65,49.88,94.2,60.1,103.19,71.42Z"/><path class="cls-5" d="M34.27,358.86,83,356.73v-157s-11.28-65-28.6-29.73Q40,268.74,34.27,358.86Z"/><path class="cls-16" d="M200.25,147.35H184c-5.33,13.8-20,23.71-37.3,23.71s-32-9.91-37.31-23.71H93.2c-19.65,0-51.49,20.14-38.64,21.59,5.42.61,12.12,8.27,18.36,27.52L60.84,369.32h174L220.53,196.46c6.24-19.25,12.94-26.91,18.36-27.52C251.74,167.49,219.9,147.35,200.25,147.35Z"/><line class="cls-17" x1="146.73" y1="369.32" x2="146.73" y2="171.06"/><path class="cls-18" d="M168.41,629.24v21.55h72.08s9.51-21.59-34-17.55c0,0-10.59-1.88-9.28-14.22"/><path class="cls-18" d="M122.23,629.24v21.55H50.15s-9.51-21.59,34-17.55c0,0,10.59-1.88,9.27-14.22"/><circle class="cls-19" cx="159.1" cy="207.56" r="3.72"/><circle class="cls-19" cx="134.74" cy="207.56" r="3.72"/><circle class="cls-19" cx="159.1" cy="235.6" r="3.72"/><circle class="cls-19" cx="134.74" cy="235.6" r="3.72"/><circle class="cls-19" cx="159.1" cy="263.64" r="3.72"/><circle class="cls-19" cx="134.74" cy="263.64" r="3.72"/><circle class="cls-19" cx="159.1" cy="291.69" r="3.72"/><circle class="cls-19" cx="134.74" cy="291.69" r="3.72"/><circle class="cls-19" cx="159.1" cy="319.73" r="3.72"/><circle class="cls-19" cx="134.74" cy="319.73" r="3.72"/><polygon class="cls-2" points="232.84 418.76 60.84 418.76 60.84 369.76 234.84 369.76 232.84 418.76"/></g></g></svg>