<svg xmlns="http://www.w3.org/2000/svg" viewBox="0 0 277.84 683.11"><defs><style>.cls-1{fill:#fcc5aa;}.cls-2{fill:#dce6e0;}.cls-3{fill:#d9dceb;}.cls-4{fill:#00a881;}.cls-17,.cls-18,.cls-5{fill:none;stroke-miterlimit:10;}.cls-5{stroke:#499086;stroke-width:0.95px;}.cls-6{fill:#017dad;}.cls-7{fill:#eed1bf;}.cls-8{fill:#44515d;}.cls-9{fill:#499086;}.cls-10{fill:#ffebc6;}.cls-11{fill:#fff;}.cls-12{fill:#524935;}.cls-13{fill:#ebaf88;}.cls-14{fill:#ffe6b4;}.cls-15{fill:#301812;}.cls-16{fill:#d55227;}.cls-17,.cls-18{stroke:#231f20;}.cls-17{stroke-width:0.62px;}.cls-18{stroke-width:0.56px;}</style></defs><g id="Layer_2" data-name="Layer 2"><g id="Layer_1-2" data-name="Layer 1"><path id="Vrat" class="cls-1" d="M184,146.65l-.21.53c-5.49,13.54-20,23.2-37.1,23.2-17.29,0-32-9.91-37.3-23.71h-.15a18.31,18.31,0,0,0,12.53-7.4,18,18,0,0,0,2-3.72,25.58,25.58,0,0,0,1.79-8.83H164a36.91,36.91,0,0,0,1.89,8.82c1.18,3.37,3.09,7,6.14,9.24C174.87,146.94,178.86,148,184,146.65Z"/><ellipse class="cls-2" cx="138.92" cy="667.28" rx="138.92" ry="15.83"/><path class="cls-3" d="M259.18,358.18l-48.77-2.13v-157s11.28-65,28.6-29.73Q253.41,268.08,259.18,358.18Z"/><path class="cls-3" d="M34.27,358.18,83,356.05v-157s-11.28-65-28.6-29.73Q40,268.08,34.27,358.18Z"/><path id="Pulover" class="cls-4" d="M238.89,168.24l-.41.06c-5.35.94-11.87,8.69-17.95,27.46V368.61H72.92V195.76C66.83,177,60.32,169.24,55,168.3l-.41-.06c-12.85-1.45,19-21.59,38.64-21.59h16.22c5.33,13.8,20,23.71,37.3,23.71,17.08,0,31.61-9.66,37.1-23.2.08-.17.14-.34.21-.51h16.22C219.9,146.65,251.74,166.79,238.89,168.24Z"/><line id="Zadrga" class="cls-5" x1="146.73" y1="368.64" x2="146.73" y2="170.39"/><polygon id="Hlace" class="cls-6" points="220.4 368.63 220.4 418.44 197.23 635.34 168.41 645.56 146.99 418.44 146.73 418.44 122.34 645.56 122.23 645.56 93.48 635.37 72.92 418.44 72.92 368.63 220.4 368.63"/><path id="Koza" class="cls-7" d="M48.6,357.52s-5.53,43.56,24.32,47.93v-49Z"/><path id="Koza-2" data-name="Koza" class="cls-7" d="M244.72,357.58s5.53,43.56-24.32,47.93v-49Z"/><path class="cls-8" d="M240.49,667.11H168.41V645.56l28.82-10.22s0,0,0,.08c-1.25,12.27,9.29,14.13,9.29,14.13C250,645.51,240.49,667.11,240.49,667.11Z"/><path class="cls-8" d="M122.23,645.56v21.55H50.15s-9.51-21.6,34-17.56c0,0,10.59-1.87,9.27-14.21l.08,0Z"/><circle id="Gumb" class="cls-9" cx="159.1" cy="206.88" r="3.72"/><circle id="Gumb-2" data-name="Gumb" class="cls-9" cx="134.74" cy="206.88" r="3.72"/><circle id="Gumb-3" data-name="Gumb" class="cls-9" cx="159.1" cy="234.93" r="3.72"/><circle id="Gumb-4" data-name="Gumb" class="cls-9" cx="134.74" cy="234.93" r="3.72"/><circle id="Gumb-5" data-name="Gumb" class="cls-9" cx="159.1" cy="262.97" r="3.72"/><circle id="Gumb-6" data-name="Gumb" class="cls-9" cx="134.74" cy="262.97" r="3.72"/><circle id="Gumb-7" data-name="Gumb" class="cls-9" cx="159.1" cy="291.01" r="3.72"/><circle id="Gumb-8" data-name="Gumb" class="cls-9" cx="134.74" cy="291.01" r="3.72"/><circle id="Gumb-9" data-name="Gumb" class="cls-9" cx="159.1" cy="319.05" r="3.72"/><circle id="Gumb-10" data-name="Gumb" class="cls-9" cx="134.74" cy="319.05" r="3.72"/><path id="Koza-3" data-name="Koza" class="cls-7" d="M203.45,73.51A133.55,133.55,0,0,1,196,99.08a49.25,49.25,0,0,1-97.41-1.91A155.45,155.45,0,0,1,92,73.05c-2.46-12.67,3.11-14.27,6.23-14.23V55.88a44.43,44.43,0,0,1,44.43-44.43h9.66a44.43,44.43,0,0,1,44.43,44.43V60.3C199.22,60,206,60.31,203.45,73.51Z"/><path id="Brada" class="cls-10" d="M198.75,91.71a84.45,84.45,0,0,1-.63,11.28,62.13,62.13,0,0,1-1.21,6.71,39.35,39.35,0,0,1-1.16,5.64,32.64,32.64,0,0,1-1.95,5.14,35.78,35.78,0,0,1-2.67,4.52,30.91,30.91,0,0,1-3.45,4.06c-.85,1.37-1.75,2.71-2.72,4a47.51,47.51,0,0,1-3.09,3.69,40.28,40.28,0,0,1-3.68,4.5q-1.73,1.77-3.54,3.41c-4.92,4.45-10.38,8-16.56,9.76a31.32,31.32,0,0,1-4.76.94,14.39,14.39,0,0,1-9.82-1.72c-6.31-5.57-12.37-10.65-19.09-14.49a54,54,0,0,0-12-5.12,36,36,0,0,1-3.44-2.68,41.17,41.17,0,0,1-3.12-3.08,41.47,41.47,0,0,1-2.61-4,43.1,43.1,0,0,1-3.87-8.89c-.41-1.52-.74-3-1-4.61a67.93,67.93,0,0,1-.86-16.61c0-.67.09-1.34.16-2-.07-2.28-.1-4.58-.06-6.77.13-6.57.88-12.17,3-13.27,3.29-1.73,4.5-2,4.94-1.83a.32.32,0,0,1,.23.14h0a.25.25,0,0,1,0,.16s1.52,23.72,23.84,34h37.94s22.66-22,22.66-33.95l5.68,1.33.8.19A102.54,102.54,0,0,1,198.75,91.71Z"/><path class="cls-11" d="M136.82,67.13c.09-7.57-23.45-7.86-23.54-.29C113.19,73.69,136.73,74,136.82,67.13Z"/><path class="cls-11" d="M184.13,67.13c.09-7.57-23.45-7.86-23.54-.29C160.51,73.69,184.05,74,184.13,67.13Z"/><circle class="cls-12" cx="124.32" cy="66.71" r="3.89"/><circle class="cls-12" cx="172.36" cy="66.71" r="3.89"/><path id="Oci" class="cls-13" d="M111.81,67.29s10-10.05,27.7,0C139.51,67.29,124.12,50.27,111.81,67.29Z"/><path id="Oci-2" data-name="Oci" class="cls-13" d="M159,67.29s10-10.05,27.69,0C186.64,67.29,171.26,50.27,159,67.29Z"/><path id="Brki" class="cls-10" d="M167.59,104.54H129.65c1.23-4.43,4.25-8,9.5-10.49h4.36c1.25.59,8.06,3.63,10.44.49a1.07,1.07,0,0,0,.12-.49h3.62C162.82,97,166.27,100.48,167.59,104.54Z"/><path class="cls-7" d="M151,63.8l-.4,1.56C150.54,64.29,150.66,63.71,151,63.8Z"/><path id="Nos" class="cls-13" d="M150.5,96.52a19.61,19.61,0,0,1-7.45-2l.53-1c2.1,1.07,8,3.28,9.91.75.32-.84-.77-8-1.64-13.82-1.86-12.28-2.3-16.23-1.43-17a.73.73,0,0,1,.71-.14l-.34,1.1a.4.4,0,0,0,.44-.15c-.5,1,.81,9.67,1.76,16,1.62,10.7,2,13.93,1.42,14.69A4.64,4.64,0,0,1,150.5,96.52Z"/><g id="Obrve"><path class="cls-14" d="M140,59c-16.77-8.46-24.37-.64-24.68-.31l-2.13-1.95c.37-.4,9.28-9.82,28.11-.31Z"/></g><g id="Obrve-2" data-name="Obrve"><g id="Obrve-3" data-name="Obrve"><path id="Obrve-4" data-name="Obrve" class="cls-14" d="M186,60.11c-16.9-8.53-24.6-.4-24.68-.32l-2.13-1.94c.37-.41,9.28-9.82,28.11-.32Z"/></g></g><path class="cls-15" d="M167.59,104.55a21.63,21.63,0,0,1-7.34,10.91c-1.39-6.86-26.66-4.2-26.74-4.19a31.85,31.85,0,0,1-3.86-6.72Z"/><path class="cls-16" d="M160.25,115.46h0a19,19,0,0,1-10.44,3.6c-7.92.47-13.15-3.77-16.29-7.79C133.59,111.26,158.86,108.6,160.25,115.46Z"/><polygon class="cls-15" points="133.51 111.27 133.51 111.27 133.51 111.27 133.51 111.27"/><polygon class="cls-11" points="129.65 104.55 130.73 106.94 166.78 106.94 167.59 104.55 129.65 104.55"/><g id="Ocala"><path class="cls-17" d="M141.31,67.85s10.32-7.8,17.16,0"/><line class="cls-17" x1="101.02" y1="61.03" x2="111.77" y2="66.71"/><line class="cls-17" x1="198.76" y1="60.81" x2="188.01" y2="67.28"/><circle class="cls-18" cx="126.54" cy="67.85" r="14.77"/><circle class="cls-18" cx="173.24" cy="67.85" r="14.77"/></g><path id="Lasje" class="cls-10" d="M204.74,165.24s-5.66-1.23-9.72-14c-9.93-9.12-23.68-16.13-23.68-16.13,8.47-5,15.74-16.51,19.75-23.88.15-6,.53-12.66,1.19-20,6.1-68.52-42.12-48.71-44.17-48.56,0,0,0,0,0,0h0c-2-.14-50.22-20-44.11,48.56.65,7.35,1,14,1.18,19.94,5.48,9.13,17.16,22.42,17.16,22.42-5.79-3.78-13.57,4.31-19.87,13.26-4,17-10.93,18.45-10.93,18.45S62.77-6.67,148.14.2C233.51-6.67,204.74,165.24,204.74,165.24Z"/></g></g></svg>