<svg xmlns="http://www.w3.org/2000/svg" viewBox="0 0 224.92 667.11"><defs><style>.cls-1{fill:#fcc5aa;}.cls-2{fill:#d9dceb;}.cls-3{fill:#00a881;}.cls-16,.cls-17,.cls-4{fill:none;stroke-miterlimit:10;}.cls-4{stroke:#499086;stroke-width:0.95px;}.cls-5{fill:#017dad;}.cls-6{fill:#eed1bf;}.cls-7{fill:#44515d;}.cls-8{fill:#499086;}.cls-9{fill:#fff;}.cls-10{fill:#524935;}.cls-11{fill:#ebaf88;}.cls-12{fill:#ffebc6;}.cls-13{fill:#ffe6b4;}.cls-14{fill:#301812;}.cls-15{fill:#d55227;}.cls-16,.cls-17{stroke:#231f20;}.cls-16{stroke-width:0.62px;}.cls-17{stroke-width:0.56px;}</style></defs><g id="Layer_2" data-name="Layer 2"><g id="Layer_1-2" data-name="Layer 1"><path id="Vrat" class="cls-1" d="M149.77,146.65l-.21.53c-5.49,13.54-20,23.2-37.1,23.2-17.29,0-32-9.91-37.3-23.71H75a18.31,18.31,0,0,0,12.53-7.4,18,18,0,0,0,2-3.72,25.58,25.58,0,0,0,1.79-8.83h38.38a36.91,36.91,0,0,0,1.89,8.82c1.18,3.37,3.09,7,6.14,9.24C140.61,146.94,144.6,148,149.77,146.65Z"/><path class="cls-2" d="M224.92,358.18l-48.77-2.13v-157s11.27-65,28.6-29.73Q219.15,268.08,224.92,358.18Z"/><path class="cls-2" d="M0,358.18l48.77-2.13v-157s-11.27-65-28.6-29.73Q5.77,268.08,0,358.18Z"/><path id="Pulover" class="cls-3" d="M204.63,168.24l-.41.06c-5.35.94-11.87,8.69-17.95,27.46V368.61H38.66V195.76C32.57,177,26.06,169.24,20.71,168.3l-.41-.06c-12.85-1.45,19-21.59,38.64-21.59H75.16c5.33,13.8,20,23.71,37.3,23.71,17.08,0,31.61-9.66,37.1-23.2.08-.17.14-.34.21-.51H166C185.64,146.65,217.48,166.79,204.63,168.24Z"/><line id="Zadrga" class="cls-4" x1="112.46" y1="368.64" x2="112.46" y2="170.39"/><polygon id="Hlace" class="cls-5" points="186.13 368.63 186.13 418.44 162.97 635.34 134.15 645.56 112.72 418.44 112.47 418.44 88.08 645.56 87.97 645.56 59.22 635.37 38.66 418.44 38.66 368.63 186.13 368.63"/><path id="Koza" class="cls-6" d="M210.46,357.58s5.53,43.56-24.32,47.93v-49Z"/><path class="cls-7" d="M206.23,667.11H134.15V645.56L163,635.34s0,0,0,.08c-1.25,12.27,9.29,14.13,9.29,14.13C215.74,645.51,206.23,667.11,206.23,667.11Z"/><path class="cls-7" d="M88,645.56v21.55H15.89s-9.51-21.6,34-17.56c0,0,10.59-1.87,9.27-14.21l.08,0Z"/><circle id="Gumb" class="cls-8" cx="124.83" cy="206.88" r="3.72"/><circle id="Gumb-2" data-name="Gumb" class="cls-8" cx="100.47" cy="206.88" r="3.72"/><circle id="Gumb-3" data-name="Gumb" class="cls-8" cx="124.83" cy="234.93" r="3.72"/><circle id="Gumb-4" data-name="Gumb" class="cls-8" cx="100.47" cy="234.93" r="3.72"/><circle id="Gumb-5" data-name="Gumb" class="cls-8" cx="124.83" cy="262.97" r="3.72"/><circle id="Gumb-6" data-name="Gumb" class="cls-8" cx="100.47" cy="262.97" r="3.72"/><circle id="Gumb-7" data-name="Gumb" class="cls-8" cx="124.83" cy="291.01" r="3.72"/><circle id="Gumb-8" data-name="Gumb" class="cls-8" cx="100.47" cy="291.01" r="3.72"/><circle id="Gumb-9" data-name="Gumb" class="cls-8" cx="124.83" cy="319.05" r="3.72"/><circle id="Gumb-10" data-name="Gumb" class="cls-8" cx="100.47" cy="319.05" r="3.72"/><path id="Koza-2" data-name="Koza" class="cls-6" d="M169.19,73.51a133.55,133.55,0,0,1-7.42,25.57,49.25,49.25,0,0,1-97.41-1.91,155.45,155.45,0,0,1-6.64-24.12C55.26,60.38,60.83,58.78,64,58.82V55.88a44.43,44.43,0,0,1,44.43-44.43H118a44.43,44.43,0,0,1,44.43,44.43V60.3C165,60,171.75,60.31,169.19,73.51Z"/><path class="cls-9" d="M102.55,67.13c.09-7.57-23.45-7.86-23.54-.29C78.93,73.69,102.47,74,102.55,67.13Z"/><path class="cls-9" d="M149.87,67.13c.09-7.57-23.45-7.86-23.54-.29C126.24,73.69,149.78,74,149.87,67.13Z"/><circle class="cls-10" cx="90.05" cy="66.71" r="3.89"/><circle class="cls-10" cx="138.1" cy="66.71" r="3.89"/><path id="Oci" class="cls-11" d="M77.55,67.29s10-10.05,27.69,0C105.24,67.29,89.86,50.27,77.55,67.29Z"/><path id="Oci-2" data-name="Oci" class="cls-11" d="M124.68,67.29s10-10.05,27.7,0C152.38,67.29,137,50.27,124.68,67.29Z"/><path id="Brki" class="cls-12" d="M133.33,104.54H95.39c1.23-4.43,4.25-8,9.5-10.49h4.36c1.25.59,8.06,3.63,10.44.49a1.07,1.07,0,0,0,.12-.49h3.62C128.56,97,132,100.48,133.33,104.54Z"/><path class="cls-6" d="M116.7,63.8l-.4,1.56C116.28,64.29,116.4,63.71,116.7,63.8Z"/><path id="Nos" class="cls-11" d="M116.23,96.52a19.47,19.47,0,0,1-7.44-2l.52-1c2.11,1.07,8,3.28,9.92.75.32-.84-.77-8-1.64-13.82-1.86-12.28-2.3-16.23-1.44-17a.75.75,0,0,1,.72-.14l-.35,1.1a.39.39,0,0,0,.44-.15c-.5,1,.81,9.67,1.77,16,1.61,10.7,2,13.93,1.42,14.69A4.66,4.66,0,0,1,116.23,96.52Z"/><g id="Obrve"><path class="cls-13" d="M105.75,59c-16.77-8.46-24.37-.64-24.69-.31l-2.13-1.95c.37-.4,9.28-9.82,28.12-.31Z"/></g><g id="Obrve-2" data-name="Obrve"><g id="Obrve-3" data-name="Obrve"><path id="Obrve-4" data-name="Obrve" class="cls-13" d="M151.73,60.11c-16.9-8.53-24.61-.4-24.68-.32l-2.14-1.94c.37-.41,9.28-9.82,28.12-.32Z"/></g></g><path class="cls-14" d="M133.33,104.55c-.09,0-1.53,6.58-7.35,10.91-1.38-6.86-26.65-4.2-26.74-4.19a31.51,31.51,0,0,1-3.85-6.72Z"/><path class="cls-15" d="M126,115.46h0a19,19,0,0,1-10.43,3.6c-7.93.47-13.15-3.77-16.3-7.79C99.33,111.26,124.6,108.6,126,115.46Z"/><polygon class="cls-14" points="99.24 111.27 99.24 111.27 99.24 111.27 99.24 111.27"/><polygon class="cls-9" points="95.39 104.55 96.47 106.94 132.51 106.94 133.33 104.55 95.39 104.55"/><g id="Ocala"><path class="cls-16" d="M107,67.85s10.32-7.8,17.16,0"/><line class="cls-16" x1="66.75" y1="61.03" x2="77.5" y2="66.71"/><line class="cls-16" x1="164.49" y1="60.81" x2="153.74" y2="67.28"/><circle class="cls-17" cx="92.27" cy="67.85" r="14.77"/><circle class="cls-17" cx="138.97" cy="67.85" r="14.77"/></g><path id="Lasje" class="cls-12" d="M170.48,165.24s-5.67-1.23-9.72-14c-9.94-9.12-23.69-16.13-23.69-16.13,8.48-5,15.75-16.51,19.75-23.88.16-6,.54-12.66,1.2-20,6.1-68.52-42.13-48.71-44.18-48.56,0,0,0,0,0,0h0c-2-.14-50.22-20-44.11,48.56.66,7.35,1,14,1.19,19.94,5.47,9.13,17.16,22.42,17.16,22.42-5.8-3.78-13.58,4.31-19.87,13.26-4,17-10.94,18.45-10.94,18.45S28.5-6.67,113.88.2C199.25-6.67,170.48,165.24,170.48,165.24Z"/></g></g></svg>