<svg xmlns="http://www.w3.org/2000/svg" viewBox="0 0 277.84 746.63"><defs><style>.cls-1{fill:#dce6e0;}.cls-2{fill:#fbc5aa;}.cls-3{fill:#d8dcec;}.cls-4,.cls-5{fill:#00a881;}.cls-5{stroke:#489086;stroke-width:0.95px;}.cls-14,.cls-15,.cls-18,.cls-19,.cls-5{stroke-miterlimit:10;}.cls-6{fill:#007dac;}.cls-14,.cls-15,.cls-7{fill:#eed1bf;}.cls-8{fill:#44515c;}.cls-9{fill:#489086;}.cls-10{fill:#fff;}.cls-11{fill:#514835;}.cls-12{fill:#ebaf82;}.cls-13{fill:#ffebc6;}.cls-14{stroke:#ebaf82;stroke-width:1.15px;}.cls-15{stroke:#ffe6b4;stroke-width:2.89px;}.cls-16{fill:#5a3b34;}.cls-17{fill:#d55225;}.cls-18,.cls-19{fill:none;stroke:#231f20;}.cls-18{stroke-width:0.62px;}.cls-19{stroke-width:0.56px;}</style></defs><g id="Layer_2" data-name="Layer 2"><g id="Avatar"><ellipse class="cls-1" cx="138.92" cy="730.8" rx="138.92" ry="15.83"/><path class="cls-2" d="M109.27,152.2s15.63-1.16,16.35-19.95H164s1.58,24.54,19.88,19.95l-1.66,14.11L144.83,181.2l-32.47-8.71-7.92-15.77Z"/><path class="cls-3" d="M259.18,363.71l-48.77-2.13v-157s11.28-65,28.6-29.73Q253.41,273.59,259.18,363.71Z"/><path class="cls-3" d="M34.27,363.71,83,361.58v-157s-11.28-65-28.6-29.73Q40,273.59,34.27,363.71Z"/><path class="cls-4" d="M200.25,152.2H184c-5.33,13.8-20,23.71-37.3,23.71s-32-9.91-37.31-23.71H93.2c-19.65,0-51.49,20.14-38.64,21.59,5.42.61,12.12,8.27,18.36,27.52V374.16H220.53V201.31c6.24-19.25,12.94-26.91,18.36-27.52C251.74,172.34,219.9,152.2,200.25,152.2Z"/><line class="cls-5" x1="146.73" y1="374.16" x2="146.73" y2="175.91"/><rect class="cls-6" x="72.92" y="374.16" width="147.48" height="49.8"/><polygon class="cls-6" points="146.73 423.61 122.34 709.09 94.45 709.09 72.92 423.61 146.73 423.61"/><polygon class="cls-6" points="220.4 423.61 196.14 709.09 168.41 709.09 146.99 423.61 220.4 423.61"/><path class="cls-7" d="M48.6,363S43.07,406.6,72.92,411V362Z"/><path class="cls-7" d="M244.72,363.1s5.53,43.56-24.32,47.94V362Z"/><path class="cls-8" d="M168.41,709.09v21.55h72.08s9.51-21.6-34-17.56c0,0-10.59-1.87-9.28-14.21"/><path class="cls-8" d="M122.23,709.09v21.55H50.15s-9.51-21.6,34-17.56c0,0,10.59-1.87,9.27-14.21"/><circle class="cls-9" cx="159.1" cy="212.41" r="3.72"/><circle class="cls-9" cx="134.74" cy="212.41" r="3.72"/><circle class="cls-9" cx="159.1" cy="240.45" r="3.72"/><circle class="cls-9" cx="134.74" cy="240.45" r="3.72"/><circle class="cls-9" cx="159.1" cy="268.49" r="3.72"/><circle class="cls-9" cx="134.74" cy="268.49" r="3.72"/><circle class="cls-9" cx="159.1" cy="296.53" r="3.72"/><circle class="cls-9" cx="134.74" cy="296.53" r="3.72"/><circle class="cls-9" cx="159.1" cy="324.58" r="3.72"/><circle class="cls-9" cx="134.74" cy="324.58" r="3.72"/><path class="cls-7" d="M96.51,65.72s-11.5-3.22-8.15,14,8.15,27.87,8.15,27.87Z"/><path class="cls-7" d="M139,18.11h9.66a44.43,44.43,0,0,1,44.43,44.43v35a49.26,49.26,0,0,1-49.26,49.26h0A49.26,49.26,0,0,1,94.59,97.52v-35A44.43,44.43,0,0,1,139,18.11Z"/><path class="cls-10" d="M133.2,73.79c.09-7.58-23.45-7.86-23.54-.29C109.57,80.34,133.11,80.63,133.2,73.79Z"/><path class="cls-10" d="M180.51,73.79c.09-7.58-23.45-7.86-23.54-.29C156.89,80.34,180.43,80.63,180.51,73.79Z"/><circle class="cls-11" cx="120.69" cy="73.37" r="3.89"/><circle class="cls-11" cx="168.74" cy="73.37" r="3.89"/><path class="cls-12" d="M108.19,74s10-10.05,27.7,0C135.89,74,120.5,56.93,108.19,74Z"/><path class="cls-12" d="M155.33,74s10-10.05,27.69,0C183,74,167.63,56.93,155.33,74Z"/><path class="cls-13" d="M135.53,100.71c-5.25,2.49-8.27,6.06-9.5,10.5H164c-1.32-4.07-4.77-7.52-9.9-10.5Z"/><path class="cls-14" d="M139.69,100.61s8,4.06,10.64.59c1.14-1.5-5-31.36-3-30.73"/><path class="cls-15" d="M110.64,64.37s8.33-9.12,26.4,0"/><path class="cls-15" d="M156.62,65.48s8.33-9.12,26.4,0"/><path class="cls-16" d="M164,111.21a20.55,20.55,0,0,1-7.35,10.9c-1.38-6.86-26.65-4.19-26.73-4.18a26.46,26.46,0,0,1-3.86-6.72Z"/><path class="cls-17" d="M156.62,122.11h0a19,19,0,0,1-10.44,3.61c-7.92.47-13.15-3.77-16.29-7.79C130,117.92,155.24,115.25,156.62,122.11Z"/><polygon class="cls-16" points="129.89 117.93 129.89 117.93 129.89 117.93 129.89 117.93"/><path class="cls-7" d="M192.23,67.12s10.72-3,7.6,13-7.6,26-7.6,26Z"/><polygon class="cls-10" points="126.03 111.21 127.11 113.59 163.16 113.59 163.97 111.21 126.03 111.21"/><path class="cls-18" d="M137.69,74.51s10.31-7.8,17.16,0"/><line class="cls-18" x1="97.4" y1="67.69" x2="108.15" y2="73.37"/><line class="cls-18" x1="195.14" y1="67.47" x2="184.39" y2="73.94"/><circle class="cls-19" cx="122.92" cy="74.51" r="14.77"/><circle class="cls-19" cx="169.62" cy="74.51" r="14.77"/><path class="cls-13" d="M203,165.24s-5.67-1.23-9.72-14c-9.94-9.12-23.4-12.62-23.4-12.62,8.47-5,15.46-20,19.46-27.39.16-6,.54-12.66,1.2-20,6.1-68.52-42.12-48.71-44.18-48.56h0c-2-.14-50.22-20-44.11,48.56.66,7.35,1,14,1.19,19.94,5.48,9.13,12.44,26.5,12.44,26.5-5.79-3.78-8.86.23-15.15,9.18-4,17-10.94,18.45-10.94,18.45S61-6.67,146.36.2C231.73-6.67,203,165.24,203,165.24Z"/></g></g></svg>