<svg xmlns="http://www.w3.org/2000/svg" viewBox="0 0 180.58 523.1"><defs><style>.cls-1{fill:#fbc5aa;}.cls-2{fill:#d8dcec;}.cls-3{fill:#0054a6;}.cls-4{fill:#00a881;stroke:#003d7b;stroke-width:0.76px;}.cls-12,.cls-13,.cls-16,.cls-4{stroke-miterlimit:10;}.cls-5{fill:#7bafde;}.cls-12,.cls-13,.cls-6{fill:#eed1bf;}.cls-7{fill:#44515c;}.cls-8{fill:#003d7b;}.cls-9{fill:#fff;}.cls-10{fill:#514835;}.cls-11{fill:#ebae8a;}.cls-12,.cls-13{stroke:#ebae8a;}.cls-12{stroke-width:0.89px;}.cls-13{stroke-width:0.45px;}.cls-14{fill:#5a3b34;}.cls-15{fill:#d55225;}.cls-16{fill:none;stroke:#231f20;stroke-width:0.48px;}.cls-17{fill:#ffebc6;}</style></defs><g id="Layer_2" data-name="Layer 2"><g id="Layer_9" data-name="Layer 9"><path class="cls-1" d="M60.22,105.25s12.55-.93,13.13-16h30.82s1.26,19.71,16,16l-1.33,11.33-30,12-26.07-7-6.36-12.66Z"/><path class="cls-2" d="M180.58,275.07l-39.15-1.71v-126s9-52.2,23-23.87Q176,202.72,180.58,275.07Z"/><path class="cls-2" d="M0,275.07l39.16-1.71v-126s-9-52.2-23-23.87Q4.64,202.72,0,275.07Z"/><path class="cls-3" d="M133.27,105.25h-13c-4.27,11.08-16.06,19-29.95,19s-25.67-8-29.95-19h-13c-15.78,0-41.35,16.17-31,17.34,4.35.49,9.72,6.63,14.74,22.09V283.46H149.55V144.68c5-15.46,10.39-21.6,14.74-22.09C174.61,121.42,149,105.25,133.27,105.25Z"/><line class="cls-4" x1="90.29" y1="283.46" x2="90.29" y2="124.29"/><rect class="cls-5" x="31.04" y="283.46" width="118.41" height="39.99"/><polygon class="cls-5" points="90.3 323.45 70.71 505.8 48.33 505.8 31.03 323.45 90.3 323.45"/><polygon class="cls-5" points="149.45 323.45 129.97 505.8 107.7 505.8 90.5 323.45 149.45 323.45"/><path class="cls-6" d="M11.51,274.53S7.07,309.51,31,313V273.68Z"/><path class="cls-6" d="M169,274.58s4.43,35-19.53,38.49V273.73Z"/><path class="cls-7" d="M107.7,505.8v17.3h57.87s7.64-17.34-27.28-14.09c0,0-8.5-1.51-7.44-11.42"/><path class="cls-7" d="M70.63,505.8v17.3H12.76S5.12,505.76,40,509c0,0,8.5-1.51,7.44-11.42"/><circle class="cls-8" cx="100.22" cy="153.59" r="2.99"/><circle class="cls-8" cx="80.67" cy="153.59" r="2.99"/><circle class="cls-8" cx="100.22" cy="176.11" r="2.99"/><circle class="cls-8" cx="80.67" cy="176.11" r="2.99"/><circle class="cls-8" cx="100.22" cy="198.62" r="2.99"/><circle class="cls-8" cx="80.67" cy="198.62" r="2.99"/><circle class="cls-8" cx="100.22" cy="221.13" r="2.99"/><circle class="cls-8" cx="80.67" cy="221.13" r="2.99"/><circle class="cls-8" cx="100.22" cy="243.65" r="2.99"/><circle class="cls-8" cx="80.67" cy="243.65" r="2.99"/><path class="cls-6" d="M86.74,0h7.49a34.43,34.43,0,0,1,34.43,34.43V61.55A38.18,38.18,0,0,1,90.49,99.73h0A38.18,38.18,0,0,1,52.31,61.55V34.43A34.43,34.43,0,0,1,86.74,0Z"/><path class="cls-9" d="M81.34,44.05c.07-5.87-18.17-6.09-18.25-.22C63,49.13,81.27,49.35,81.34,44.05Z"/><path class="cls-9" d="M118,44.05c.07-5.87-18.17-6.09-18.25-.22C99.7,49.13,117.94,49.35,118,44.05Z"/><circle class="cls-10" cx="71.65" cy="43.73" r="3.02"/><circle class="cls-10" cx="108.89" cy="43.73" r="3.02"/><path class="cls-11" d="M62,44.17s7.75-7.78,21.47,0C83.43,44.17,71.5,31,62,44.17Z"/><path class="cls-11" d="M98.49,44.17s7.75-7.78,21.47,0C120,44.17,108,31,98.49,44.17Z"/><path class="cls-12" d="M86.37,64.84s6.21,3.14,8.25.45c.88-1.15-3.87-24.3-2.32-23.82"/><path class="cls-13" d="M63.86,36.75s6.45-7.07,20.46,0"/><path class="cls-13" d="M99.5,37.61s6.45-7.07,20.46,0"/><path class="cls-14" d="M105.19,76.5a11.39,11.39,0,0,1-5.69,5.87c-1.08-3.69-20.66-2.26-20.73-2.25a13.61,13.61,0,0,1-3-3.62Z"/><path class="cls-15" d="M99.5,82.37h0a19.32,19.32,0,0,1-8.09,1.94,17.36,17.36,0,0,1-12.63-4.19C78.84,80.11,98.42,78.68,99.5,82.37Z"/><polygon class="cls-14" points="78.77 80.12 78.78 80.12 78.78 80.12 78.77 80.12"/><path class="cls-6" d="M52.91,38.88S44.61,36.56,47,49a100,100,0,0,0,5.88,20.14Z"/><path class="cls-6" d="M127.09,38.88S135.4,36.56,133,49a100.33,100.33,0,0,1-5.89,20.14Z"/><path class="cls-13" d="M85,94.24s6-6,12.22-.29"/><rect class="cls-16" x="97.44" y="36.75" width="22.89" height="13.95" rx="6.53"/><rect class="cls-16" x="61.25" y="36.75" width="22.89" height="13.95" rx="6.53"/><path class="cls-16" d="M84.14,44.17s8-6.05,13.3,0"/><line class="cls-16" x1="52.91" y1="38.88" x2="61.25" y2="43.28"/><line class="cls-16" x1="128.67" y1="38.71" x2="120.33" y2="43.73"/><path class="cls-17" d="M90.78,69.57a13.75,13.75,0,0,0-14.68-.33c-8,4.62-9.25-1.24-9.25-1.24s3,12.54,23.52,5.28h.82C111.73,80.54,114.7,68,114.7,68s-1.24,5.85-9.25,1.23a13.74,13.74,0,0,0-14.67.33"/></g></g></svg>