<svg xmlns="http://www.w3.org/2000/svg" viewBox="0 0 170.01 524.25"><defs><style>.cls-1,.cls-10,.cls-9{fill:#eed1bf;}.cls-2{fill:#fbc5aa;}.cls-3{fill:#d8dcec;}.cls-4{fill:#004368;}.cls-11,.cls-5{fill:none;}.cls-5{stroke:#c1c0db;stroke-width:0.83px;}.cls-10,.cls-11,.cls-5,.cls-9{stroke-miterlimit:10;}.cls-6{fill:#fff;}.cls-7{fill:#514835;}.cls-8{fill:#cabcdc;}.cls-10,.cls-9{stroke:#ebae8a;}.cls-9{stroke-width:0.98px;}.cls-10{stroke-width:1.42px;}.cls-11{stroke:#231f20;stroke-width:0.51px;}.cls-12{fill:#bbb8dc;}.cls-13{fill:#c26b9b;}.cls-14{fill:#5a3b34;}.cls-15{fill:#d55225;}.cls-16{fill:#866aa1;}</style></defs><g id="Layer_2" data-name="Layer 2"><g id="Layer_9" data-name="Layer 9"><path class="cls-1" d="M12.57,267.94s-4.8,37.83,21.12,41.63V267Z"/><path class="cls-1" d="M154.83,272.16s4.8,37.83-21.12,41.63V271.24Z"/><path class="cls-2" d="M56.24,122s11.73-1,12.26-17H97.3s1.18,20.94,14.92,17L111,134l-28,12.71-24.37-7.43-5.94-13.45Z"/><path class="cls-3" d="M0,282.52l42.36-1.63v-120s-9.79-49.72-24.84-22.73Q5,213.6,0,282.52Z"/><path class="cls-3" d="M170,282.52l-42.36-1.63v-120s9.79-49.72,24.84-22.73Q165,213.6,170,282.52Z"/><path class="cls-1" d="M53.15,504.43S38.21,516.22,27.07,516l46.29.34V504.43Z"/><path class="cls-4" d="M73.36,504.43v16.64H61.13v-4.75s-27,9.92-38.81,7.58c0,0-13.5-1.82,7.23-9.29,15.5-5.59,18.62-6.75,18.62-6.75"/><path class="cls-1" d="M122.94,504.43S137.88,516.22,149,516l-46.29.34V504.43Z"/><path class="cls-4" d="M102.74,504.43v16.64H115v-4.75s27,9.92,38.8,7.58c0,0,13.51-1.82-7.22-9.29-15.51-5.59-18.63-6.75-18.63-6.75"/><path class="cls-5" d="M35.19,257.2c.12-9.87,50,39.52,97.08,0"/><path class="cls-1" d="M80.07,8.67h6.69A30.75,30.75,0,0,1,117.5,39.42V80.26a34.09,34.09,0,0,1-34.09,34.09h0A34.09,34.09,0,0,1,49.32,80.26V39.42A30.75,30.75,0,0,1,80.07,8.67Z"/><path class="cls-6" d="M74,57.91c.07-6.57-18.71-6.81-18.78-.25C55.14,63.59,73.92,63.84,74,57.91Z"/><path class="cls-6" d="M111.75,57.91C111.82,51.34,93,51.1,93,57.66,92.9,63.59,111.68,63.84,111.75,57.91Z"/><ellipse class="cls-7" cx="64.02" cy="57.55" rx="3.11" ry="3.37"/><ellipse class="cls-7" cx="102.35" cy="57.55" rx="3.11" ry="3.37"/><path class="cls-8" d="M54,58.05s8-8.71,22.1,0C76.14,58.05,63.86,43.3,54,58.05Z"/><path class="cls-8" d="M91.65,58.05s8-8.71,22.1,0C113.75,58.05,101.47,43.3,91.65,58.05Z"/><path class="cls-9" d="M78.46,78.24s7.46,3.12,9.91.45c1-1.15-4.65-24.14-2.79-23.66"/><path class="cls-10" d="M56,49.75s6.64-7.9,21.06,0"/><path class="cls-10" d="M92.69,50.71s6.64-7.91,21.06,0"/><rect class="cls-11" x="91.15" y="50.71" width="23.57" height="15.59" rx="7.01"/><rect class="cls-11" x="53.89" y="50.71" width="23.57" height="15.59" rx="7.01"/><path class="cls-11" d="M77.46,59s8.23-6.76,13.69,0"/><line class="cls-11" x1="49.32" y1="53.09" x2="53.89" y2="58.01"/><line class="cls-11" x1="117.5" y1="52.47" x2="114.73" y2="58.5"/><path class="cls-12" d="M57.59,39.86c4.24-6.52,9.68-11.69,16.91-14a21.17,21.17,0,0,1,3.39-.74A19.15,19.15,0,0,1,81.36,25a35.93,35.93,0,0,1,4.86.15,38.59,38.59,0,0,1,4.87.79,21.87,21.87,0,0,1,4.15,1.23c11.51,3.94,15.59,17.24,17.41,28.79.25,1.51.42,3,.55,4.44.35,1.15.68,2.29,1,3.44s.59,2.29.85,3.45c.52,2.31.94,4.65,1.29,7q.53,2.63.81,5.22c.19,1.73.31,3.46.37,5.19,1.39,9.6-.46,19.1,1.39,28.6,9.2-4,12.89-15.5,12.62-25.6.12-2.12.21-4.25.29-6.32.19-2.6.29-5.19.35-7.71s.13-5.22.12-7.83c-.05-7.8-.51-15.52-.52-22.37-.32-2.67-.74-5.31-1.27-7.94s-1.15-5.23-1.9-7.8a44.51,44.51,0,0,0-3.72-6.12,46.09,46.09,0,0,0-4.5-5.3A54.94,54.94,0,0,0,94.44,1.84,56.25,56.25,0,0,0,87.14.58,38.15,38.15,0,0,0,79.21,0a38.83,38.83,0,0,0-7.64,1A40.19,40.19,0,0,0,58.91,6.51a43,43,0,0,0-5.48,4.22,41.22,41.22,0,0,0-4.92,5.69,54.65,54.65,0,0,0-3.57,6.2c-.53,1.07-1,2.16-1.49,3.26s-.9,2.21-1.3,3.33C40.73,36.3,38,43,37.88,50.31c-.17,1.78-.28,3.57-.36,5.37a138.68,138.68,0,0,0,1.72,26.86c.52,4,1.1,7.77,1.68,11.16,1.74,10.17,3.53,17,3.53,17a14.21,14.21,0,0,0,6.25.06,8,8,0,0,0,4.43-3.5c1.14-3.39,2.52-7.39,1.28-11.61-.27-2.08-.66-4.09-1-5.86-.26-2.27-.52-4.79-.78-7.47-.5-5-1-10.12-1.29-15.23-.08-1.7-.13-3.4-.11-5.09,1.09-5,.41-10.17,2.82-15.63A44.33,44.33,0,0,1,57.59,39.86Z"/><path class="cls-1" d="M116.93,52.13s8.55-2.6,6.06,11.31A119.47,119.47,0,0,1,116.93,86Z"/><path class="cls-1" d="M50.24,53.59S41.69,51,44.18,64.9a119.47,119.47,0,0,0,6.06,22.51Z"/><ellipse class="cls-13" cx="49.32" cy="84.59" rx="2.7" ry="2.93"/><ellipse class="cls-13" cx="118.81" cy="84.48" rx="2.7" ry="2.93"/><path class="cls-14" d="M98.67,89.41a12.44,12.44,0,0,1-5.35,6.64c-1-4.18-19.42-2.55-19.48-2.54A15.77,15.77,0,0,1,71,89.41,71.12,71.12,0,0,0,98.67,89.41Z"/><path class="cls-15" d="M93.32,96.05h0a15.56,15.56,0,0,1-7.6,2.2,14.73,14.73,0,0,1-11.87-4.74C73.9,93.5,92.31,91.87,93.32,96.05Z"/><polygon class="cls-14" points="73.84 93.5 73.84 93.5 73.84 93.5 73.84 93.5"/><polygon class="cls-4" points="34.1 278.76 34.1 301.55 51.22 504.43 73.39 504.43 89.28 338.22 102.69 504.43 123.89 504.43 142.43 301.55 142.43 278.76 34.1 278.76"/><path class="cls-16" d="M154.62,137.35c-3.94.47-8.79,6.1-13.36,20.13,0,4,2.33,30-5.88,41.7-1.77,18.36,5.08,63.26,7.36,82.1C96.46,319.56,36,277.34,34.25,285c2.24-18.57,5.47-67.8,3.75-85.92-9.15-12.52-8.63-42.17-8.63-42.17-4.52-13.63-9.29-19.13-13.18-19.59-9.66-1.12,14.26-16.83,29-16.83H57.39c4,10.76,15,18.49,28,18.49s24-7.73,28-18.49h12.19C140.36,120.52,164.28,136.23,154.62,137.35Z"/></g></g></svg>