<svg xmlns="http://www.w3.org/2000/svg" viewBox="0 0 170.49 550.75"><defs><style>.cls-1,.cls-10,.cls-9{fill:#eed1bf;}.cls-2{fill:#fbc5aa;}.cls-3{fill:#d8dcec;}.cls-4{fill:#065;}.cls-14,.cls-5{fill:none;}.cls-5{stroke:#c1c0db;stroke-width:0.83px;}.cls-10,.cls-14,.cls-5,.cls-9{stroke-miterlimit:10;}.cls-6{fill:#fff;}.cls-7{fill:#514835;}.cls-8{fill:#cabcdc;}.cls-10,.cls-9{stroke:#ebae8a;}.cls-9{stroke-width:1.13px;}.cls-10{stroke-width:0.55px;}.cls-11{fill:#5a3b34;}.cls-12{fill:#d55225;}.cls-13{fill:#231f20;}.cls-14{stroke:#231f20;stroke-width:0.57px;}.cls-15{fill:#c26b9b;}</style></defs><g id="Layer_2" data-name="Layer 2"><g id="Layer_9" data-name="Layer 9"><path class="cls-1" d="M12.57,294.43s-4.8,37.84,21.12,41.64V293.51Z"/><path class="cls-1" d="M154.83,298.66s4.8,37.83-21.12,41.63V297.74Z"/><path class="cls-2" d="M56.24,148.45s11.73-1,12.26-17H97.3s1.18,20.94,14.92,17l-1.25,12-28,12.71-24.37-7.44L52.61,152.3Z"/><path class="cls-3" d="M0,309l42.36-1.63v-120s-9.79-49.72-24.84-22.74Q5,240.11,0,309Z"/><path class="cls-3" d="M170,309l-42.36-1.63v-120s9.79-49.72,24.84-22.74Q165,240.11,170,309Z"/><polygon class="cls-1" points="91 366.49 73.34 530.93 53.15 530.93 37.56 366.49 91 366.49"/><polygon class="cls-1" points="138.56 366.49 120.99 530.93 100.92 530.93 85.41 366.49 138.56 366.49"/><path class="cls-4" d="M132.27,283.71a264.33,264.33,0,0,1-1.1-56.65c8.21-11.84,8.43-37.83,8.42-41.93,4.56-14.24,9.41-19.95,13.36-20.42,9.66-1.15-14.26-17.08-29-17.08H111.75c-4,10.91-15,18.76-28,18.76s-24-7.85-28-18.76H43.53c-14.76,0-38.68,15.93-29,17.08,3.89.46,8.67,6,13.18,19.87,0,0-.52,30.09,8.63,42.79a264.72,264.72,0,0,1-1.13,56.34L2.48,440.39s17.21,18.72,67.3,0c0,0,34,13.91,63.93,0,0,0,24.93,11.16,36.78,0Z"/><path class="cls-1" d="M53.15,530.93s-14.94,11.78-26.08,11.55l46.29.34V530.93Z"/><path class="cls-4" d="M73.36,530.93v16.63H61.13v-4.74s-27,9.91-38.81,7.57c0,0-13.5-1.82,7.23-9.29,15.5-5.58,18.62-6.75,18.62-6.75"/><path class="cls-1" d="M121.11,530.93s14.94,11.78,26.08,11.55l-46.28.34V530.93Z"/><path class="cls-4" d="M100.91,530.93v16.63h12.23v-4.74s27,9.91,38.8,7.57c0,0,13.5-1.82-7.22-9.29-15.51-5.58-18.63-6.75-18.63-6.75"/><path class="cls-5" d="M35.19,283.7c.12-9.88,50,39.51,97.08,0"/><path class="cls-1" d="M81.74,26.11h7.38a33.94,33.94,0,0,1,33.94,33.94v45.43a37.63,37.63,0,0,1-37.63,37.63h0a37.63,37.63,0,0,1-37.63-37.63V60.05A33.94,33.94,0,0,1,81.74,26.11Z"/><path class="cls-6" d="M76.53,80.63C76.62,73.36,54,73.09,54,80.35,53.87,86.92,76.45,87.19,76.53,80.63Z"/><path class="cls-6" d="M119.06,80.63c.08-7.27-22.5-7.54-22.58-.28C96.4,86.92,119,87.19,119.06,80.63Z"/><circle class="cls-7" cx="65.24" cy="80.23" r="3.74"/><circle class="cls-7" cx="108.18" cy="80.23" r="3.74"/><path class="cls-8" d="M52.55,80.78s9.59-9.64,26.56,0C79.11,80.78,64.35,64.46,52.55,80.78Z"/><path class="cls-8" d="M94.9,80.78s9.59-9.64,26.56,0C121.46,80.78,106.7,64.46,94.9,80.78Z"/><path class="cls-9" d="M79.45,103.14s9,3.46,11.91.5c1.27-1.27-5.58-26.73-3.35-26.2"/><path class="cls-10" d="M52.45,71.6s8-8.75,25.33,0"/><path class="cls-10" d="M96.56,72.66s8-8.75,25.32,0"/><path class="cls-11" d="M100.82,116.64a13.6,13.6,0,0,1-6,7.26c-1.12-4.57-21.65-2.79-21.72-2.78A17.09,17.09,0,0,1,70,116.64C80.83,119,91.13,119.15,100.82,116.64Z"/><path class="cls-12" d="M94.85,123.9h0a17.81,17.81,0,0,1-8.48,2.4,16.6,16.6,0,0,1-13.24-5.18C73.2,121.11,93.73,119.33,94.85,123.9Z"/><polygon class="cls-11" points="73.13 121.11 73.13 121.11 73.13 121.11 73.13 121.11"/><path class="cls-1" d="M122.42,74.23s9.44-2.88,6.69,12.52a131.64,131.64,0,0,1-6.69,24.93Z"/><path class="cls-13" d="M45.18,95.42c.27-1.83.56-3.72.89-5.62s.7-3.83,1.15-5.7c.71-1.78,1.43-3.56,2.19-5.31s1.57-3.47,2.45-5.14c1.21-5.13,5.29-7.58,8.14-11.36a31.43,31.43,0,0,1,3.07-2.49c4.68-2.7,9.58-5.15,15-2.77a60.32,60.32,0,0,1,6.61,1.09c2.17.48,4.26,1.06,6.24,1.7l4.66,1.36c1.54.44,3.08.86,4.6,1.24,2.56.64,5.08,1.19,7.5,1.56,8.34,1.31,16.68-.33,23.3-5.67a29.55,29.55,0,0,0,6-6.59H141a46.2,46.2,0,0,0-19.11-21.86,57.55,57.55,0,0,0-5.19-2.81,74.77,74.77,0,0,0-17.61-5.77q-3-.6-6.12-1a71.1,71.1,0,0,0-31,2.83c-2,.64-3.94,1.38-5.84,2.2C40.83,31,31.86,47.31,30.17,63a31.65,31.65,0,0,0,.46,6,28,28,0,0,0,4.22,10.9,27.7,27.7,0,0,0,4.25,4.5,45.49,45.49,0,0,0,3.49,4.46,31.44,31.44,0,0,1,1.22,3.88A29.08,29.08,0,0,0,45.18,95.42Z"/><circle class="cls-13" cx="84.29" cy="20.58" r="20.58"/><path class="cls-1" d="M48.81,75.85S39.37,73,42.12,88.36a132.58,132.58,0,0,0,6.69,24.93Z"/><rect class="cls-14" x="93.96" y="72.15" width="26.02" height="17.26" rx="7.75"/><rect class="cls-14" x="52.81" y="72.15" width="26.02" height="17.26" rx="7.75"/><path class="cls-14" d="M78.84,81.33s9.09-7.48,15.12,0"/><line class="cls-14" x1="47.77" y1="74.79" x2="52.81" y2="80.23"/><line class="cls-14" x1="123.05" y1="74.1" x2="119.98" y2="80.78"/><ellipse class="cls-15" cx="45.21" cy="107.78" rx="2.96" ry="3.21"/><ellipse class="cls-15" cx="125.38" cy="105.55" rx="2.96" ry="3.21"/></g></g></svg>