<svg xmlns="http://www.w3.org/2000/svg" viewBox="0 0 60.83 60.83"><defs><style>.cls-1{fill:#ffffec;stroke:#e6a454;stroke-miterlimit:10;stroke-width:2.83px;}.cls-2{fill:#e6a454;}</style></defs><g id="Layer_2" data-name="Layer 2"><g id="Glavno_Besedilo" data-name="Glavno Besedilo"><circle class="cls-1" cx="30.42" cy="30.42" r="29"/><path class="cls-2" d="M30.05,42.21a22.36,22.36,0,0,1-15.37-6A22,22,0,0,1,11.09,32a1.76,1.76,0,0,1,0-2.13,22.5,22.5,0,0,1,6.28-6.32,21.69,21.69,0,0,1,9.71-3.69A22.33,22.33,0,0,1,46.75,27a20.54,20.54,0,0,1,2.35,3,1.65,1.65,0,0,1,0,2,22.76,22.76,0,0,1-8.77,7.84A22,22,0,0,1,30.05,42.21Zm0-3.16a20.2,20.2,0,0,0,3.3-.25,19.61,19.61,0,0,0,9.91-4.87,20.35,20.35,0,0,0,2.5-2.75.35.35,0,0,0,0-.51c-.25-.3-.47-.61-.73-.9a19.16,19.16,0,0,0-16.37-6.92A18.87,18.87,0,0,0,16.78,28a17.37,17.37,0,0,0-2.29,2.55c-.3.41-.31.42,0,.8.56.65,1.1,1.33,1.72,1.93A19.22,19.22,0,0,0,30.05,39.05Z"/><path class="cls-2" d="M31.41,23.79a4.2,4.2,0,0,0,1.5,6.84,4.32,4.32,0,0,0,2.28.2,5.13,5.13,0,0,0,2.13-1,9.4,9.4,0,0,1-.14,2.72,7.2,7.2,0,0,1-2.76,4.19,7.29,7.29,0,0,1-10.59-9.62A7.13,7.13,0,0,1,31.41,23.79Z"/></g></g></svg>