<svg xmlns="http://www.w3.org/2000/svg" viewBox="0 0 757.47 463"><defs><style>.cls-1{fill:#c2c4c6;}.cls-13,.cls-2{fill:#fff;}.cls-3{fill:#59a173;}.cls-4{fill:#ffebc6;}.cls-5{fill:#ffddb3;}.cls-6{fill:#faab54;}.cls-7{fill:#bdd7a9;}.cls-8{fill:#6cbe45;}.cls-9{fill:#a7a9ac;}.cls-10,.cls-13{font-size:13.77px;}.cls-10,.cls-18,.cls-53{fill:#0068ac;}.cls-10,.cls-13,.cls-18{font-family:Raleway-Bold, Raleway;font-weight:700;}.cls-11{letter-spacing:-0.03em;}.cls-12{letter-spacing:0em;}.cls-14{letter-spacing:-0.01em;}.cls-15{letter-spacing:0em;}.cls-16{letter-spacing:0em;}.cls-17{letter-spacing:-0.03em;}.cls-18{font-size:12.45px;}.cls-19{letter-spacing:-0.01em;}.cls-20{letter-spacing:-0.01em;}.cls-21{letter-spacing:-0.01em;}.cls-22{letter-spacing:-0.03em;}.cls-23{letter-spacing:0em;}.cls-24{letter-spacing:0em;}.cls-25{fill:#79bcb7;}.cls-26{fill:#fbad18;}.cls-27{fill:#007e3c;}.cls-28{fill:#4db9d2;}.cls-29{letter-spacing:-0.01em;}.cls-30{letter-spacing:0em;}.cls-31{letter-spacing:-0.03em;}.cls-32{fill:#c94726;}.cls-33{fill:#f0b89e;}.cls-34{fill:#00416b;}.cls-35{fill:#febe10;}.cls-36{letter-spacing:-0.01em;}.cls-37{letter-spacing:0em;}.cls-38{letter-spacing:0em;}.cls-39{fill:#40b1e5;}.cls-40{letter-spacing:-0.01em;}.cls-41{letter-spacing:-0.03em;}.cls-42{fill:#007bc1;}.cls-43{letter-spacing:0em;}.cls-44{letter-spacing:-0.01em;}.cls-45{letter-spacing:-0.01em;}.cls-46{letter-spacing:-0.03em;}.cls-47{fill:#9f856f;}.cls-48{fill:#00696a;}.cls-49{letter-spacing:-0.01em;}.cls-50{letter-spacing:-0.01em;}.cls-51{fill:#ffcf62;}.cls-52{fill:#e29957;}.cls-54{fill:#d55225;}.cls-55{fill:none;stroke:#d55225;stroke-miterlimit:10;stroke-width:5.67px;}</style></defs><title>city 08</title><g id="Layer_2" data-name="Layer 2"><g id="Glavno_Besedilo" data-name="Glavno Besedilo"><rect class="cls-1" x="9.97" y="6.34" width="747.5" height="456.66"/><rect class="cls-2" width="747.5" height="456.66"/><rect class="cls-1" x="22.27" y="18.84" width="692.4" height="421.36"/><path class="cls-2" d="M714.67,51.32V30.75L608.86,109.44V18.84H592.35V121.72L465.74,215.89V18.84H449.21V122.2H22.27v16.53h108.3V325.26H22.27v16.53h108.3v98.46h14.69V341.79h156v98.46h16.51V341.79h131.5v98.46h16.53V341.79H592.35v98.46h16.51V341.79H714.67V325.26H608.86V130ZM145.25,325.26V138.73h156V325.26Zm172.47,0V138.73h131.5V325.26Zm148,0V236.48l126.61-94.17v183Z"/><rect class="cls-3" x="145.25" y="341.18" width="155.96" height="98.41"/><rect class="cls-3" x="317.72" y="218.83" width="131.49" height="106.43"/><path class="cls-2" d="M476.68,19.09h81.1V85l-58.59,43.58a14.1,14.1,0,0,1-22.51-11.31Z"/><path class="cls-2" d="M507.06,77.77h50.72V119l-22.4,16.66a17.74,17.74,0,0,1-28.32-14.23Z"/><polygon class="cls-2" points="511.94 214.68 586.39 159.3 586.39 266.88 511.94 266.88 511.94 214.68"/><polygon class="cls-4" points="586.39 159.3 586.39 169.22 511.94 224.59 511.94 214.67 586.39 159.3"/><polygon class="cls-5" points="586.39 169.21 586.39 179.13 511.94 234.49 511.94 224.57 586.39 169.21"/><polygon class="cls-2" points="708.61 19.09 708.61 29.23 615.36 96.22 615.36 19.09 708.61 19.09"/><polygon class="cls-3" points="608.86 130.09 714.66 51.4 714.66 325.34 608.86 325.34 608.86 130.09"/><rect class="cls-2" x="61.45" y="74.01" width="313.17" height="48.2"/><rect class="cls-6" x="61.45" y="114.54" width="313.17" height="7.68"/><rect class="cls-2" x="557.78" y="18.84" width="22.28" height="100.12"/><rect class="cls-7" x="476.68" y="78.33" width="103.38" height="18.87"/><rect class="cls-8" x="476.68" y="97.2" width="103.38" height="7.58"/><polygon class="cls-9" points="474.31 144.18 511.94 144.18 511.94 174.77 474.31 202.76 474.31 144.18"/><rect class="cls-9" x="22.27" y="59.99" width="426.96" height="4.52"/><text class="cls-10" transform="translate(485.21 59.99)">Supermar<tspan class="cls-11" x="65.33" y="0">k</tspan><tspan class="cls-12" x="72.64" y="0">e</tspan><tspan x="80.84" y="0">t</tspan></text><text class="cls-10" transform="translate(626.98 41.84)">Bank</text><text class="cls-13" transform="translate(661.98 169.21)"><tspan class="cls-14">P</tspan><tspan x="8.51" y="0">ark</tspan></text><text class="cls-13" transform="translate(379.19 294.25)"><tspan class="cls-15">M</tspan><tspan x="11.85" y="0">ar</tspan><tspan class="cls-11" x="25.08" y="0">k</tspan><tspan class="cls-12" x="32.4" y="0">e</tspan><tspan class="cls-16" x="40.59" y="0">t</tspan><tspan x="0.33" y="16.53">squa</tspan><tspan class="cls-17" x="32.33" y="16.53">r</tspan><tspan x="37.3" y="16.53">e</tspan></text><text class="cls-18" transform="translate(74.9 98.41) scale(1.11 1)"><tspan class="cls-19">R</tspan><tspan x="8.19" y="0">ai</tspan><tspan class="cls-20" x="18.52" y="0">l</tspan><tspan class="cls-21" x="22.33" y="0">wa</tspan><tspan class="cls-22" x="39.6" y="0">y</tspan><tspan class="cls-23" x="46.11" y="0" xml:space="preserve"> st</tspan><tspan class="cls-24" x="60.07" y="0">a</tspan><tspan class="cls-23" x="67.16" y="0">tion </tspan></text><rect class="cls-2" x="145.25" y="138.73" width="132.87" height="47.29"/><rect class="cls-25" x="144.59" y="138.87" width="133.39" height="7.53"/><polygon class="cls-6" points="374.62 114.54 329 74.01 317.72 74.01 364.88 114.54 374.62 114.54"/><polygon class="cls-6" points="354.82 114.54 309.2 74.01 297.92 74.01 345.08 114.54 354.82 114.54"/><polygon class="cls-6" points="335.02 114.54 289.4 74.01 278.13 74.01 325.28 114.54 335.02 114.54"/><polygon class="cls-6" points="315.22 114.54 269.6 74.01 258.33 74.01 305.49 114.54 315.22 114.54"/><polygon class="cls-6" points="295.42 114.54 249.8 74.01 238.53 74.01 285.69 114.54 295.42 114.54"/><polygon class="cls-25" points="202.15 186.75 156.52 146.22 145.25 146.22 192.41 186.75 202.15 186.75"/><polygon class="cls-26" points="615.36 96.22 708.61 29.23 708.61 19.09 615.36 85.27 615.36 96.22"/><circle class="cls-27" cx="691.39" cy="111.03" r="12.62"/><circle class="cls-27" cx="634.29" cy="165.55" r="12.62"/><circle class="cls-27" cx="489.31" cy="247.87" r="6.82"/><circle class="cls-27" cx="328.78" cy="228.72" r="6.82"/><circle class="cls-27" cx="284.95" cy="426" r="6.82"/><circle class="cls-27" cx="284.95" cy="365.46" r="10.16"/><rect class="cls-2" x="608.86" y="193.97" width="87.7" height="69.48"/><rect class="cls-28" x="608.86" y="193.97" width="10.23" height="69.48"/><text class="cls-10" transform="translate(626.98 218.83)">Lib<tspan class="cls-29" x="20.29" y="0">r</tspan><tspan class="cls-30" x="25.52" y="0">ar</tspan><tspan class="cls-31" x="38.76" y="0">y</tspan></text><text class="cls-10" transform="translate(518.95 248.76)">Museum</text><rect class="cls-2" x="608.86" y="278.95" width="105.81" height="46.38"/><rect class="cls-2" x="465.74" y="278.95" width="106.12" height="46.38"/><rect class="cls-32" x="465.74" y="278.95" width="106.12" height="9.13"/><path class="cls-33" d="M465.74,288.08v37.25H571.86C519.71,324.86,478.48,316.62,465.74,288.08Z"/><rect class="cls-34" x="609.08" y="278.95" width="105.81" height="6.89"/><rect class="cls-34" x="609.08" y="318.38" width="105.81" height="6.89"/><rect class="cls-35" x="609.08" y="285.84" width="105.81" height="4.3"/><text class="cls-10" transform="translate(619.08 307.06)"><tspan class="cls-36">P</tspan><tspan x="8.46" y="0">oli</tspan><tspan class="cls-14" x="24.68" y="0">c</tspan><tspan class="cls-37" x="32.38" y="0">e st</tspan><tspan class="cls-38" x="56.07" y="0">a</tspan><tspan x="63.92" y="0">tion</tspan></text><rect class="cls-2" x="608.86" y="343.8" width="105.81" height="83.21"/><rect class="cls-32" x="608.86" y="341.74" width="105.81" height="8.57"/><rect class="cls-39" x="608.86" y="349.99" width="105.81" height="8.57"/><path class="cls-39" d="M608.86,358.56l.22,61.56V427H714.89C665.12,424.18,626,406.61,608.86,358.56Z"/><text class="cls-10" transform="translate(635.44 381.96)"><tspan class="cls-40">H</tspan><tspan x="10.17" y="0">ospita</tspan><tspan class="cls-41" x="50.8" y="0">l</tspan></text><rect class="cls-5" x="511.94" y="255.71" width="74.44" height="11.17"/><text class="cls-10" transform="translate(508.62 307.06)">Cinema</text><rect class="cls-2" x="317.72" y="138.73" width="131.49" height="46.38"/><rect class="cls-42" x="317.72" y="138.73" width="131.49" height="9.13"/><path class="cls-42" d="M317.72,147.86v37.25H423.84C371.69,184.64,330.46,176.4,317.72,147.86Z"/><text class="cls-10" transform="translate(360.6 166.84)">Gas st<tspan class="cls-12" x="40.18" y="0">a</tspan><tspan x="48.03" y="0">tion</tspan></text><rect class="cls-2" x="465.74" y="341.74" width="126.61" height="46.38"/><rect class="cls-32" x="465.74" y="341.74" width="126.61" height="9.13"/><path class="cls-32" d="M465.74,350.87v37.25H567.91C517.71,387.65,478,379.41,465.74,350.87Z"/><rect class="cls-2" x="529.04" y="388.12" width="63.3" height="46.38"/><path class="cls-32" d="M566.3,388.12H529V434.5C529.51,411.71,537.75,393.69,566.3,388.12Z"/><text class="cls-10" transform="translate(508.62 369.84)">Fi<tspan class="cls-17" x="11.42" y="0">r</tspan><tspan x="16.39" y="0">e st</tspan><tspan class="cls-12" x="40.08" y="0">a</tspan><tspan x="47.93" y="0">tion</tspan></text><text class="cls-10" transform="translate(187.14 166.84)">Bus st<tspan class="cls-43" x="40.16" y="0">a</tspan><tspan class="cls-16" x="48.01" y="0">tion</tspan></text><rect class="cls-2" x="145.25" y="210.14" width="132.87" height="47.29"/><text class="cls-10" transform="translate(187.14 238.25)"><tspan class="cls-44">P</tspan><tspan x="8.46" y="0">ost </tspan><tspan class="cls-45" x="32.24" y="0">o</tspan><tspan x="40.48" y="0">ffi</tspan><tspan class="cls-15" x="51.93" y="0">c</tspan><tspan x="59.63" y="0">e</tspan></text><polygon class="cls-2" points="70.76 257.43 70.76 267.79 108.73 267.79 108.73 300.33 32.45 300.33 32.45 168.94 108.73 168.94 108.73 201.47 70.76 201.47 70.76 210.13 125.47 210.13 125.47 257.43 70.76 257.43"/><text class="cls-10" transform="translate(48.25 238.25)">Schoo<tspan class="cls-46" x="41.22" y="0">l</tspan></text><rect class="cls-2" x="326.37" y="350.87" width="116.25" height="68.31"/><rect class="cls-47" x="326.37" y="347.46" width="116.25" height="10.6"/><text class="cls-10" transform="translate(358.26 390.77)">Galler<tspan class="cls-11" x="40.2" y="0">y</tspan></text><rect class="cls-2" x="145.25" y="277.97" width="132.87" height="47.29"/><rect class="cls-2" x="169.2" y="353.58" width="71.99" height="65.6"/><rect class="cls-48" x="169.2" y="353.58" width="71.99" height="13.51"/><rect class="cls-2" x="240.33" y="374.42" width="26.65" height="44.76"/><text class="cls-10" transform="translate(187.14 306.08)">Ba<tspan class="cls-31" x="17.27" y="0">k</tspan><tspan x="24.59" y="0">er</tspan><tspan class="cls-31" x="38.17" y="0">y</tspan></text><text class="cls-10" transform="translate(181.97 396.8)">Ji<tspan class="cls-49" x="10.27" y="0">m</tspan><tspan class="cls-50" x="22.95" y="0">’</tspan><tspan x="26.05" y="0">s house</tspan></text><rect class="cls-2" x="328.78" y="278.32" width="25.61" height="36.44"/><rect class="cls-26" x="349.65" y="278.32" width="4.73" height="36.44"/><rect class="cls-2" x="413.71" y="234.49" width="25.61" height="36.44" transform="translate(853.03 505.42) rotate(180)"/><rect class="cls-26" x="413.71" y="234.49" width="4.73" height="36.44" transform="translate(832.16 505.42) rotate(180)"/><rect class="cls-2" x="329.21" y="234.49" width="25.61" height="36.44"/><rect class="cls-26" x="350.08" y="234.49" width="4.73" height="36.44"/><rect class="cls-26" x="339.22" y="234.49" width="4.73" height="36.44"/><rect class="cls-26" x="425.58" y="234.49" width="4.73" height="36.44"/><rect class="cls-26" x="339.22" y="278.32" width="4.73" height="36.44"/><rect class="cls-35" x="145.25" y="210.14" width="13.09" height="47.29"/><rect class="cls-35" x="271.58" y="210.14" width="6.55" height="47.29"/><rect class="cls-51" x="158.34" y="210.14" width="13.09" height="47.29"/><path class="cls-52" d="M145.25,281.75v44.11H270.91C209.16,325.3,160.33,315.54,145.25,281.75Z"/><rect class="cls-53" x="32.45" y="168.94" width="76.28" height="7.32"/><rect class="cls-53" x="32.45" y="292.88" width="76.28" height="7.32"/><rect class="cls-26" x="32.45" y="175.77" width="76.28" height="7.32"/><rect class="cls-26" x="97.6" y="230.38" width="48.42" height="7.32" transform="translate(355.85 112.23) rotate(90)"/><circle class="cls-54" cx="134" cy="332" r="11"/><circle class="cls-54" cx="454" cy="129" r="11"/><polyline class="cls-55" points="134 330 134 129 449 129"/></g></g></svg>