<svg xmlns="http://www.w3.org/2000/svg" viewBox="0 0 836 511"><defs><style>.cls-1{fill:#c2c4c6;}.cls-13,.cls-2{fill:#fff;}.cls-3{fill:#59a173;}.cls-4{fill:#ffebc6;}.cls-5{fill:#ffddb3;}.cls-6{fill:#faab54;}.cls-7{fill:#6cbe45;}.cls-8{fill:#bdd7a9;}.cls-9{fill:#a7a9ac;}.cls-10,.cls-13{font-size:15.2px;}.cls-10,.cls-19,.cls-50{fill:#0068ac;}.cls-10,.cls-13,.cls-19{font-family:Raleway-Bold, Raleway;font-weight:700;}.cls-11{letter-spacing:-0.03em;}.cls-12{letter-spacing:0em;}.cls-14{letter-spacing:-0.01em;}.cls-15{letter-spacing:0em;}.cls-16{letter-spacing:-0.03em;}.cls-17{letter-spacing:0em;}.cls-18{letter-spacing:-0.03em;}.cls-19{font-size:13.74px;}.cls-20{letter-spacing:-0.01em;}.cls-21{letter-spacing:-0.01em;}.cls-22{letter-spacing:-0.01em;}.cls-23{letter-spacing:-0.03em;}.cls-24{letter-spacing:0em;}.cls-25{fill:#79bcb7;}.cls-26{fill:#fbad18;}.cls-27{fill:#007e3c;}.cls-28{fill:#4db9d2;}.cls-29{letter-spacing:-0.01em;}.cls-30{fill:#c94726;}.cls-31{fill:#f0b89e;}.cls-32{fill:#00416b;}.cls-33{fill:#febe10;}.cls-34{letter-spacing:-0.01em;}.cls-35{letter-spacing:0em;}.cls-36{letter-spacing:0em;}.cls-37{fill:#40b1e5;}.cls-38{letter-spacing:-0.03em;}.cls-39{fill:#007bc1;}.cls-40{letter-spacing:0em;}.cls-41{letter-spacing:-0.01em;}.cls-42{letter-spacing:-0.03em;}.cls-43{fill:#9f856f;}.cls-44{fill:#00696a;}.cls-45{letter-spacing:0em;}.cls-46{letter-spacing:-0.01em;}.cls-47{letter-spacing:-0.01em;}.cls-48{fill:#ffcf62;}.cls-49{fill:#e29957;}</style></defs><title>city 01</title><g id="Layer_2" data-name="Layer 2"><g id="Glavno_Besedilo" data-name="Glavno Besedilo"><rect class="cls-1" x="11" y="7" width="825" height="504"/><rect class="cls-2" width="825" height="504"/><rect class="cls-1" x="24.57" y="20.79" width="764.18" height="465.04"/><path class="cls-2" d="M788.76,56.64V33.94L672,120.79v-100H653.76V134.34L514,238.27V20.79H495.78V134.87H24.57v18.24H144.1V359H24.57v18.24H144.1V485.89h16.21V377.22H332.44V485.89h18.22V377.22H495.78V485.89H514V377.22H653.76V485.89H672V377.22H788.76V359H672V143.5ZM160.31,359V153.11H332.44V359Zm190.35,0V153.11H495.78V359ZM514,359V261L653.76,157.06V359Z"/><rect class="cls-3" x="160.31" y="376.55" width="172.13" height="108.61"/><rect class="cls-3" x="350.66" y="241.52" width="145.13" height="117.47"/><path class="cls-2" d="M526.1,21.07h89.5V93.8l-64.66,48.1a15.56,15.56,0,0,1-24.84-12.48Z"/><path class="cls-2" d="M559.62,85.83h56v45.49l-24.72,18.39A19.58,19.58,0,0,1,559.62,134Z"/><polygon class="cls-2" points="565.02 236.93 647.18 175.82 647.18 294.55 565.02 294.55 565.02 236.93"/><polygon class="cls-4" points="647.18 175.82 647.18 186.76 565.02 247.87 565.02 236.93 647.18 175.82"/><polygon class="cls-5" points="647.18 186.75 647.18 197.69 565.02 258.8 565.02 247.86 647.18 186.75"/><polygon class="cls-2" points="782.07 21.07 782.07 32.26 679.15 106.19 679.15 21.07 782.07 21.07"/><polygon class="cls-3" points="671.98 143.58 788.76 56.73 788.76 359.06 671.98 359.06 671.98 143.58"/><rect class="cls-2" x="67.82" y="81.68" width="345.64" height="53.2"/><rect class="cls-6" x="67.82" y="126.41" width="345.64" height="8.47"/><rect class="cls-2" x="615.61" y="20.79" width="24.59" height="110.49"/><rect class="cls-7" x="526.1" y="21.07" width="114.09" height="8.44"/><rect class="cls-8" x="526.1" y="86.45" width="114.09" height="20.83"/><rect class="cls-7" x="526.1" y="107.28" width="114.09" height="8.37"/><polygon class="cls-9" points="523.48 159.13 565.02 159.13 565.02 192.88 523.48 223.78 523.48 159.13"/><rect class="cls-9" x="24.57" y="36.16" width="471.22" height="4.99"/><rect class="cls-9" x="24.57" y="46.18" width="471.22" height="4.99"/><rect class="cls-9" x="24.57" y="56.19" width="471.22" height="4.99"/><rect class="cls-9" x="24.57" y="66.21" width="471.22" height="4.99"/><text class="cls-10" transform="translate(535.51 66.21)">Supermar<tspan class="cls-11" x="72.1" y="0">k</tspan><tspan class="cls-12" x="80.17" y="0">e</tspan><tspan x="89.22" y="0">t</tspan></text><text class="cls-10" transform="translate(691.98 46.18)">Bank</text><text class="cls-13" transform="translate(730.61 186.75)"><tspan class="cls-14">P</tspan><tspan x="9.39" y="0">ark</tspan></text><text class="cls-13" transform="translate(418.5 324.76)"><tspan class="cls-15">M</tspan><tspan x="13.07" y="0">ar</tspan><tspan class="cls-16" x="27.68" y="0">k</tspan><tspan class="cls-12" x="35.75" y="0">e</tspan><tspan class="cls-17" x="44.8" y="0">t</tspan><tspan x="0.36" y="18.24">squa</tspan><tspan class="cls-18" x="35.68" y="18.24">r</tspan><tspan x="41.17" y="18.24">e</tspan></text><text class="cls-19" transform="translate(82.67 108.61) scale(1.11 1)"><tspan class="cls-20">R</tspan><tspan x="9.04" y="0">ai</tspan><tspan class="cls-21" x="20.44" y="0">l</tspan><tspan class="cls-22" x="24.64" y="0">wa</tspan><tspan class="cls-23" x="43.7" y="0">y</tspan><tspan x="50.89" y="0" xml:space="preserve"> st</tspan><tspan class="cls-24" x="66.29" y="0">a</tspan><tspan x="74.13" y="0">tion </tspan></text><rect class="cls-2" x="160.31" y="153.11" width="146.65" height="52.2"/><rect class="cls-25" x="159.58" y="153.27" width="147.22" height="8.31"/><polygon class="cls-6" points="413.45 126.41 363.1 81.68 350.66 81.68 402.71 126.41 413.45 126.41"/><polygon class="cls-6" points="391.6 126.41 341.25 81.68 328.81 81.68 380.86 126.41 391.6 126.41"/><polygon class="cls-6" points="369.75 126.41 319.4 81.68 306.96 81.68 359.01 126.41 369.75 126.41"/><polygon class="cls-6" points="347.9 126.41 297.55 81.68 285.11 81.68 337.15 126.41 347.9 126.41"/><polygon class="cls-6" points="326.05 126.41 275.7 81.68 263.26 81.68 315.3 126.41 326.05 126.41"/><polygon class="cls-25" points="223.1 206.11 172.75 161.38 160.31 161.38 212.36 206.11 223.1 206.11"/><polygon class="cls-26" points="679.15 106.19 782.07 32.26 782.07 21.07 679.15 94.11 679.15 106.19"/><circle class="cls-27" cx="763.07" cy="122.55" r="13.93"/><circle class="cls-27" cx="700.05" cy="182.71" r="13.93"/><circle class="cls-27" cx="540.04" cy="273.57" r="7.53"/><circle class="cls-27" cx="362.87" cy="252.43" r="7.53"/><circle class="cls-27" cx="314.49" cy="470.17" r="7.53"/><circle class="cls-27" cx="314.49" cy="403.35" r="11.21"/><rect class="cls-2" x="671.98" y="214.08" width="96.79" height="76.69"/><rect class="cls-28" x="671.98" y="214.08" width="11.29" height="76.69"/><text class="cls-10" transform="translate(691.98 241.52)">Lib<tspan class="cls-29" x="22.39" y="0">r</tspan><tspan x="28.17" y="0">ar</tspan><tspan class="cls-11" x="42.78" y="0">y</tspan></text><text class="cls-10" transform="translate(572.75 274.54)">Museum</text><rect class="cls-2" x="671.98" y="307.87" width="116.78" height="51.19"/><rect class="cls-2" x="514.02" y="307.87" width="117.12" height="51.19"/><rect class="cls-30" x="514.02" y="307.87" width="117.12" height="10.08"/><path class="cls-31" d="M514,318v41.11H631.14C573.59,358.54,528.08,349.45,514,318Z"/><rect class="cls-32" x="672.22" y="307.87" width="116.78" height="7.6"/><rect class="cls-32" x="672.22" y="351.38" width="116.78" height="7.6"/><rect class="cls-33" x="672.22" y="315.47" width="116.78" height="4.75"/><text class="cls-10" transform="translate(683.26 338.89)"><tspan class="cls-34">P</tspan><tspan x="9.33" y="0">oli</tspan><tspan class="cls-35" x="27.24" y="0">c</tspan><tspan x="35.74" y="0">e st</tspan><tspan class="cls-36" x="61.88" y="0">a</tspan><tspan class="cls-17" x="70.55" y="0">tion</tspan></text><rect class="cls-2" x="671.98" y="379.44" width="116.78" height="91.84"/><rect class="cls-30" x="671.98" y="377.16" width="116.78" height="9.46"/><rect class="cls-37" x="671.98" y="386.28" width="116.78" height="9.46"/><path class="cls-37" d="M672,395.74l.24,67.94v7.6H789C734.07,468.16,690.89,448.76,672,395.74Z"/><text class="cls-10" transform="translate(701.31 421.56)"><tspan class="cls-29">H</tspan><tspan x="11.22" y="0">ospita</tspan><tspan class="cls-38" x="56.06" y="0">l</tspan></text><rect class="cls-5" x="565.02" y="282.22" width="82.16" height="12.33"/><text class="cls-10" transform="translate(561.35 338.89)">Cinema</text><rect class="cls-2" x="350.66" y="153.11" width="145.13" height="51.19"/><rect class="cls-39" x="350.66" y="153.11" width="145.13" height="10.08"/><path class="cls-39" d="M350.66,163.19V204.3H467.78C410.23,203.78,364.71,194.69,350.66,163.19Z"/><text class="cls-10" transform="translate(397.99 184.13)">Gas st<tspan class="cls-12" x="44.34" y="0">a</tspan><tspan x="53.01" y="0">tion</tspan></text><rect class="cls-2" x="514.02" y="377.16" width="139.73" height="51.19"/><rect class="cls-30" x="514.02" y="377.16" width="139.73" height="10.08"/><path class="cls-30" d="M514,387.24v41.11H626.79C571.38,427.84,527.56,418.74,514,387.24Z"/><rect class="cls-2" x="583.89" y="428.36" width="69.87" height="51.19"/><path class="cls-30" d="M625,428.36H583.89v51.19C584.41,454.4,593.5,434.5,625,428.36Z"/><text class="cls-10" transform="translate(561.35 408.19)">Fi<tspan class="cls-18" x="12.6" y="0">r</tspan><tspan x="18.09" y="0">e st</tspan><tspan class="cls-12" x="44.24" y="0">a</tspan><tspan x="52.9" y="0">tion</tspan></text><text class="cls-10" transform="translate(206.54 184.13)">Bus st<tspan class="cls-12" x="44.33" y="0">a</tspan><tspan class="cls-40" x="52.99" y="0">tion</tspan></text><rect class="cls-2" x="160.31" y="231.92" width="146.65" height="52.2"/><text class="cls-10" transform="translate(206.54 262.95)"><tspan class="cls-34">P</tspan><tspan x="9.33" y="0">ost </tspan><tspan class="cls-41" x="35.59" y="0">o</tspan><tspan x="44.68" y="0">ffi</tspan><tspan class="cls-15" x="57.31" y="0">c</tspan><tspan x="65.81" y="0">e</tspan></text><polygon class="cls-2" points="78.09 284.11 78.09 295.55 120.01 295.55 120.01 331.46 35.82 331.46 35.82 186.45 120.01 186.45 120.01 222.36 78.09 222.36 78.09 231.92 138.48 231.92 138.48 284.11 78.09 284.11"/><text class="cls-10" transform="translate(53.25 262.95)">Schoo<tspan class="cls-42" x="45.5" y="0">l</tspan></text><rect class="cls-2" x="360.21" y="387.24" width="128.3" height="75.39"/><rect class="cls-43" x="360.21" y="383.49" width="128.3" height="11.7"/><text class="cls-10" transform="translate(395.4 431.28)">Galler<tspan class="cls-16" x="44.37" y="0">y</tspan></text><rect class="cls-2" x="160.31" y="306.78" width="146.65" height="52.2"/><rect class="cls-2" x="186.74" y="390.23" width="79.46" height="72.4"/><rect class="cls-44" x="186.74" y="390.23" width="79.46" height="14.91"/><rect class="cls-2" x="265.24" y="413.23" width="29.41" height="49.4"/><text class="cls-10" transform="translate(206.54 337.81)">Ba<tspan class="cls-16" x="19.06" y="0">k</tspan><tspan class="cls-45" x="27.13" y="0">er</tspan><tspan class="cls-16" x="42.12" y="0">y</tspan></text><text class="cls-10" transform="translate(200.84 437.93)">Ji<tspan class="cls-46" x="11.34" y="0">m</tspan><tspan class="cls-47" x="25.33" y="0">’</tspan><tspan x="28.75" y="0">s house</tspan></text><rect class="cls-2" x="362.87" y="307.17" width="28.26" height="40.22"/><rect class="cls-26" x="385.9" y="307.17" width="5.23" height="40.22"/><rect class="cls-2" x="456.6" y="258.8" width="28.26" height="40.22" transform="translate(941.47 557.82) rotate(180)"/><rect class="cls-26" x="456.6" y="258.8" width="5.23" height="40.22" transform="translate(918.43 557.82) rotate(180)"/><rect class="cls-2" x="363.34" y="258.8" width="28.26" height="40.22"/><rect class="cls-26" x="386.38" y="258.8" width="5.23" height="40.22"/><rect class="cls-26" x="374.38" y="258.8" width="5.23" height="40.22"/><rect class="cls-26" x="469.7" y="258.8" width="5.23" height="40.22"/><rect class="cls-26" x="374.38" y="307.17" width="5.23" height="40.22"/><rect class="cls-33" x="160.31" y="231.92" width="14.45" height="52.2"/><rect class="cls-33" x="299.73" y="231.92" width="7.22" height="52.2"/><rect class="cls-48" x="174.76" y="231.92" width="14.45" height="52.2"/><path class="cls-49" d="M160.31,311v48.68H299C230.85,359,177,348.26,160.31,311Z"/><rect class="cls-30" x="583.89" y="469.47" width="69.87" height="10.08"/><rect class="cls-50" x="35.82" y="186.45" width="84.19" height="8.08"/><rect class="cls-50" x="35.82" y="323.24" width="84.19" height="8.08"/><rect class="cls-26" x="35.82" y="193.99" width="84.19" height="8.08"/><rect class="cls-26" x="107.71" y="254.26" width="53.44" height="8.08" transform="translate(392.74 123.87) rotate(90)"/></g></g></svg>