<svg xmlns="http://www.w3.org/2000/svg" viewBox="0 0 211.19 611.81"><defs><style>.cls-1{fill:#eed1bf;}.cls-2{fill:#fcc5aa;}.cls-3{fill:#d9dceb;}.cls-4{fill:#0474bb;}.cls-11,.cls-5{fill:none;stroke-miterlimit:10;}.cls-5{stroke:#d9dceb;stroke-width:1.08px;}.cls-6{fill:#fff;}.cls-7{fill:#524935;}.cls-8{fill:#c9bcdd;}.cls-9{fill:#ebaf89;}.cls-10{fill:#c1c0da;}.cls-11{stroke:#231f20;stroke-width:0.63px;}.cls-12{fill:#c4463a;}.cls-13{fill:#200600;}.cls-14{fill:#d55227;}</style></defs><g id="Layer_2" data-name="Layer 2"><g id="Layer_1-2" data-name="Layer 1"><path id="Koza" class="cls-1" d="M15.41,333.68S9.52,380.86,41.3,385.6V332.53Z"/><path id="Koza-2" data-name="Koza" class="cls-1" d="M189.81,338.94s5.89,47.19-25.9,51.93V337.79Z"/><path id="Vrat" class="cls-2" d="M138.76,150.55c-5.1,13-18.42,22.34-34.07,22.34-15.37,0-28.5-9-33.8-21.68,4-1.16,12.58-5.44,13.09-20.83h35.3S122.52,154.57,138.76,150.55Z"/><path class="cls-3" d="M0,351.87l51.93-2V200.13s-12-62-30.45-28.35Q6.15,265.92,0,351.87Z"/><path class="cls-3" d="M208.42,351.87l-51.94-2V200.13s12-62,30.46-28.35Q202.27,265.92,208.42,351.87Z"/><path id="Koza-3" data-name="Koza" class="cls-1" d="M89.92,587.09l-30.69,4.24c3.61-2.38,3.56-4.24,3.56-4.24Z"/><path id="Koza-4" data-name="Koza" class="cls-1" d="M156.64,591.33,126,587.09h25.92A16.76,16.76,0,0,0,156.64,591.33Z"/><path id="cevlje" class="cls-4" d="M89.92,587.09v20.74h-15v-5.92s-33.06,12.37-47.57,9.45c0,0-16.55-2.27,8.86-11.58,19-7,22.83-8.42,22.83-8.42l.17,0h0Z"/><path id="cevlje-2" data-name="cevlje" class="cls-4" d="M188.51,611.36c-14.5,2.92-47.57-9.45-47.57-9.45v5.92H126V587.09l30.69,4.24h0l.17,0s3.83,1.45,22.84,8.42C205.06,609.09,188.51,611.36,188.51,611.36Z"/><polygon id="Hlace" class="cls-1" points="174.61 347.17 174.61 375.59 151.87 587.09 125.89 587.09 109.44 421.32 89.97 587.09 62.79 587.09 41.8 375.59 41.8 347.17 174.61 347.17"/><path id="Obleka" class="cls-4" d="M164.34,304.32c-2.81-21.71-3.53-43.2-1.35-64.38,10.06-13.46,10.34-43,10.32-47.65,5.6-16.19,11.54-22.68,16.38-23.21,11.84-1.31-17.48-19.42-35.57-19.42H139.18c-4.9,12.41-18.43,21.32-34.35,21.32s-29.44-8.91-34.35-21.32H55.55c-18.1,0-47.42,18.11-35.58,19.42,4.78.52,10.63,6.86,16.16,22.58,0,0-.63,34.19,10.58,48.63a279.61,279.61,0,0,1-1.39,64L5.22,482.4s21.11,21.27,82.51,0c0,0,41.69,15.8,78.37,0,0,0,30.57,12.68,45.09,0Z"/><path class="cls-5" d="M41.65,313.93c.15-13.07,65.1,52.33,126.36,0"/><path id="Koza-5" data-name="Koza" class="cls-1" d="M99.21,15h8.2a37.7,37.7,0,0,1,37.7,37.7v50.06a41.8,41.8,0,0,1-41.8,41.8h0a41.8,41.8,0,0,1-41.8-41.8V52.67A37.7,37.7,0,0,1,99.21,15Z"/><path class="cls-6" d="M91.76,75.33c.09-8-22.94-8.35-23-.3C68.65,82.3,91.68,82.6,91.76,75.33Z"/><path class="cls-6" d="M138,75.33c.09-8-22.93-8.35-23-.3C114.93,82.3,138,82.6,138,75.33Z"/><ellipse class="cls-7" cx="79.53" cy="74.89" rx="3.81" ry="4.14"/><ellipse class="cls-7" cx="126.53" cy="74.89" rx="3.81" ry="4.14"/><path id="Oci" class="cls-8" d="M67.3,75.5s9.78-10.67,27.09,0C94.39,75.5,79.34,57.43,67.3,75.5Z"/><path id="Oci-2" data-name="Oci" class="cls-8" d="M113.41,75.5s9.78-10.67,27.09,0C140.5,75.5,125.45,57.43,113.41,75.5Z"/><g id="Nos"><path class="cls-9" d="M105.42,102.73A25.5,25.5,0,0,1,97,100.81l.46-1.1c2.44,1,9.25,3.13,11.48.7.32-.83-.91-7.55-1.9-13-2.1-11.49-2.61-15.2-1.7-16a.81.81,0,0,1,.77-.2l-.3,1.16a.35.35,0,0,0,.38-.14c-.53,1,1,9.1,2,15,1.86,10.15,2.29,13.22,1.6,14A5.81,5.81,0,0,1,105.42,102.73Z"/></g><path id="Obrve" class="cls-10" d="M95.1,66.09c-16.86-9.23-24.66-.29-24.74-.2L69,64.77c.35-.42,8.81-10.12,26.91-.2Z"/><path id="Obrve-2" data-name="Obrve" class="cls-10" d="M140.08,67.27c-16.86-9.24-24.66-.3-24.74-.2L114,66c.35-.42,8.81-10.12,26.91-.21Z"/><g id="ocala"><rect class="cls-11" x="112.8" y="66.51" width="28.9" height="19.11" rx="8.59"/><rect class="cls-11" x="67.11" y="66.51" width="28.9" height="19.11" rx="8.59"/><path class="cls-11" d="M96,76.67s10.09-8.29,16.79,0"/><line class="cls-11" x1="61.51" y1="69.43" x2="67.11" y2="75.46"/><line class="cls-11" x1="145.1" y1="68.66" x2="141.7" y2="76.06"/></g><path id="Koza-6" data-name="Koza" class="cls-1" d="M144.4,68.25s10.48-3.18,7.43,13.86-7.43,27.6-7.43,27.6Z"/><path id="Koza-7" data-name="Koza" class="cls-1" d="M61.91,69.1S51.43,65.91,54.48,83s7.43,27.6,7.43,27.6Z"/><ellipse id="Uhani" class="cls-12" cx="61.51" cy="108.04" rx="3.31" ry="3.59"/><ellipse id="Uhani-2" data-name="Uhani" class="cls-12" cx="146.7" cy="107.91" rx="3.31" ry="3.59"/><path class="cls-13" d="M122,114a15.24,15.24,0,0,1-6.56,8.15C114.21,117,91.65,119,91.57,119a19,19,0,0,1-3.44-5A87.08,87.08,0,0,0,122,114Z"/><path class="cls-14" d="M115.45,122.1h0a19.32,19.32,0,0,1-9.33,2.69A18.06,18.06,0,0,1,91.57,119C91.65,119,114.21,117,115.45,122.1Z"/><polygon class="cls-13" points="91.57 118.97 91.57 118.97 91.57 118.97 91.57 118.97"/><path id="Lasje" class="cls-10" d="M60.07,84.93c.25-2.33.57-4.69,1-7.06A45.6,45.6,0,0,1,66.5,59.74a32.65,32.65,0,0,1,3.48-5c2.28-1.58,4.06-5.13,6.6-5.93a25.1,25.1,0,0,1,4.19-1.72,29.53,29.53,0,0,1,4.35-1A92.8,92.8,0,0,1,96,46.42,28.28,28.28,0,0,1,106,49.18c1.56.46,3.13.92,4.69,1.34a42.1,42.1,0,0,1,5.82-.86,38.08,38.08,0,0,1,5.85,0,17,17,0,0,1,3,.07,15.89,15.89,0,0,1,2.85.62c4.3,1,6.08,4.55,9.36,6.63.63.77,1.24,1.58,1.82,2.43S140.51,61.13,141,62a42.91,42.91,0,0,1,2.61,5.59,44.56,44.56,0,0,1,1.74,5.66c.53,1.11,1.58,1.11,2.63,1.67,0-1.23.14-2.46.27-3.67s.31-2.43.51-3.64c7.41-7.4,15.49-16.28,14.74-28.06a16.93,16.93,0,0,0-.69-3.15,16.54,16.54,0,0,0-1.35-3.12,31.94,31.94,0,0,0-1.78-2.94c-3.27-4.82-7.85-9.18-12.24-13A27.91,27.91,0,0,1,146,14a25,25,0,0,0-1.4-2.29A24.1,24.1,0,0,0,143,9.62a22.11,22.11,0,0,0-2.6-2.42,33.73,33.73,0,0,0-11.88-4.56c-1.08-.2-2.16-.36-3.25-.48-8.7-1.47-17.56,3-26.61,1.77-1-.21-2-.45-3-.71s-2-.54-3-.82a24.22,24.22,0,0,0-26.85,4A29.63,29.63,0,0,0,57,20c-.59,1-1.21,1.9-1.82,2.86l-1.77,1.38a69.3,69.3,0,0,1-7.47,5.05,14.06,14.06,0,0,0-2,2.82,24.79,24.79,0,0,0-1.46,3.26c-.37,1-.71,2.1-1,3.17-2.33,8.56-2,17.83,5,24.31.78.77,1.56,1.51,2.36,2.24,3.93,3.66,8,7.18,8.55,12.53.45,1.55.89,3.09,1.34,4.6C59.47,83.94,60.07,84.93,60.07,84.93Z"/></g></g></svg>