<svg xmlns="http://www.w3.org/2000/svg" viewBox="0 0 206.7 635.04"><defs><style>.cls-1{fill:#eed1bf;}.cls-2{fill:#d8dcec;}.cls-3{fill:#0073bc;}.cls-14,.cls-4{fill:none;stroke-miterlimit:10;}.cls-4{stroke:#c1c0db;stroke-width:0.97px;}.cls-5{fill:#fbc5aa;}.cls-6{fill:#fff;}.cls-7{fill:#514835;}.cls-8{fill:#cabcdc;}.cls-9{fill:#ebaf89;}.cls-10{fill:#c1c0db;}.cls-11{fill:#200600;}.cls-12{fill:#d55227;}.cls-13{fill:#c4463a;}.cls-14{stroke:#231f20;stroke-width:0.63px;}</style></defs><g id="Layer_2" data-name="Layer 2"><g id="Avatar"><path id="Koza" class="cls-1" d="M18.87,308.43S13,351.29,44.76,355.6V307.38Z"/><path id="Koza-2" data-name="Koza" class="cls-1" d="M189.81,313.21s5.89,42.87-25.9,47.17V312.17Z"/><path class="cls-2" d="M0,325l51.93-1.84V194.24s-12-56.34-30.45-25.76C11.26,225.5,4.16,272.84,0,325Z"/><path class="cls-2" d="M206.7,325l-51.94-1.84V194.24s12-56.34,30.46-25.76C195.44,225.5,202.53,272.84,206.7,325Z"/><polygon id="Hlace" class="cls-1" points="174.61 374.87 174.61 395.9 150.76 612.7 125.89 612.61 109.44 459.23 89.97 612.61 64.76 612.7 41.8 395.9 41.8 374.87 174.61 374.87"/><path class="cls-3" d="M158,293a262.18,262.18,0,0,1-1.24-59.64c9.19-12.47,9.44-39.83,9.42-44.14,5.11-15,10.54-21,15-21.51,10.8-1.21-16-18-32.47-18H135c-4.47,11.49-16.81,19.75-31.35,19.75s-26.87-8.26-31.35-19.75H58.7c-16.52,0-43.28,16.77-32.47,18,4.35.49,9.69,6.36,14.75,20.93,0,0-.58,31.67,9.65,45A262.26,262.26,0,0,1,49.36,293l-36.6,195s19.26,19.7,75.31,0c0,0,38.05,14.64,71.53,0,0,0,27.91,11.74,41.16,0Z"/><path class="cls-4" d="M48.26,296.16c.15-11.19,53.3,44.77,111,0"/><path id="Vrat" class="cls-5" d="M138.76,149.19c-5.1,11.84-18.42,20.3-34.07,20.3-15.37,0-28.5-8.17-33.8-19.7,4-1,12.58-4.94,13.09-18.92h35.3S122.52,152.84,138.76,149.19Z"/><path id="Koza-3" data-name="Koza" class="cls-1" d="M89.92,612.59l-30.69,3.85c3.61-2.16,5.93-3.85,5.93-3.85Z"/><path id="Koza-4" data-name="Koza" class="cls-1" d="M156.64,616.44,126,612.59h24.77S153,614.28,156.64,616.44Z"/><path id="cevlje" class="cls-3" d="M89.92,612.59v18.84h-15v-5.38s-33.06,11.24-47.57,8.59c0,0-16.55-2.06,8.86-10.53,19-6.33,22.83-7.64,22.83-7.64l.17,0h0Z"/><path id="cevlje-2" data-name="cevlje" class="cls-3" d="M188.51,634.64c-14.5,2.65-47.57-8.59-47.57-8.59v5.38H126V612.59l30.69,3.85h0l.17,0s3.83,1.31,22.84,7.64C205.06,632.58,188.51,634.64,188.51,634.64Z"/><path id="Koza-5" data-name="Koza" class="cls-1" d="M98.31,14h8.2a37.7,37.7,0,0,1,37.7,37.7v50.06a41.8,41.8,0,0,1-41.8,41.8h0a41.8,41.8,0,0,1-41.8-41.8V51.67A37.7,37.7,0,0,1,98.31,14Z"/><path class="cls-6" d="M90.86,74.34c.09-8-22.94-8.36-23-.31C67.75,81.3,90.78,81.6,90.86,74.34Z"/><path class="cls-6" d="M137.14,74.34c.09-8-22.93-8.36-23-.31C114,81.3,137.06,81.6,137.14,74.34Z"/><ellipse class="cls-7" cx="78.63" cy="73.89" rx="3.81" ry="4.14"/><ellipse class="cls-7" cx="125.63" cy="73.89" rx="3.81" ry="4.14"/><path id="Oci" class="cls-8" d="M66.4,74.5s9.78-10.67,27.09,0C93.49,74.5,78.44,56.43,66.4,74.5Z"/><path id="Oci-2" data-name="Oci" class="cls-8" d="M112.51,74.5s9.78-10.67,27.09,0C139.6,74.5,124.55,56.43,112.51,74.5Z"/><g id="Nos"><path class="cls-9" d="M104.52,101.73a25.86,25.86,0,0,1-8.42-1.91l.46-1.11c2.44,1,9.25,3.13,11.48.7.32-.83-.91-7.55-1.9-13-2.1-11.49-2.61-15.2-1.7-16a.78.78,0,0,1,.77-.19l-.3,1.16a.37.37,0,0,0,.38-.14c-.53,1,.95,9.09,2,15,1.86,10.15,2.29,13.22,1.6,14A5.81,5.81,0,0,1,104.52,101.73Z"/></g><path id="Obrve" class="cls-10" d="M94.2,65.1c-16.86-9.24-24.66-.3-24.74-.21l-1.33-1.12c.35-.41,8.81-10.12,26.91-.2Z"/><path id="Obrve-2" data-name="Obrve" class="cls-10" d="M139.18,66.27c-16.86-9.24-24.66-.29-24.74-.2L113.11,65c.35-.42,8.81-10.12,26.91-.2Z"/><path class="cls-11" d="M121.11,113a15.23,15.23,0,0,1-6.56,8.14C113.31,116,90.75,118,90.67,118a19.14,19.14,0,0,1-3.44-5A87.28,87.28,0,0,0,121.11,113Z"/><path class="cls-12" d="M114.55,121.1h0a19.32,19.32,0,0,1-9.33,2.69A18.09,18.09,0,0,1,90.67,118C90.75,118,113.31,116,114.55,121.1Z"/><polygon class="cls-11" points="90.67 117.97 90.67 117.97 90.67 117.97 90.67 117.97"/><path id="Lasje3" class="cls-10" d="M156.24,165.24s-5.39-1.23-9.25-14c-9.45-9.12-22.52-16.13-22.52-16.13,8.06-5,14.52-16.65,18.33-24,.14-6,1-12.52,1.59-19.91,5.8-68.52-40.06-48.71-42-48.56h0c-1.77-.1-46.8-19.69-41.94,48.56.52,7.36,1.79,13.9,1.94,19.86,5.21,9.14,15.5,22.5,15.5,22.5C72.36,129.75,65,137.84,59,146.79c-3.82,17-10.4,18.45-10.4,18.45S21.22-6.67,102.41.2C183.59-6.67,156.24,165.24,156.24,165.24Z"/><path id="Koza-6" data-name="Koza" class="cls-1" d="M143.5,67.25s10.48-3.18,7.43,13.86-7.43,27.6-7.43,27.6Z"/><path id="Koza-7" data-name="Koza" class="cls-1" d="M62.49,69.73S52,66.54,55.06,83.59s7.43,27.6,7.43,27.6Z"/><ellipse id="Uhani" class="cls-13" cx="60.61" cy="107.04" rx="3.31" ry="3.59"/><ellipse id="Uhani-2" data-name="Uhani" class="cls-13" cx="145.8" cy="106.91" rx="3.31" ry="3.59"/><g id="ocala"><rect class="cls-14" x="111.9" y="65.51" width="28.9" height="19.11" rx="8.59"/><rect class="cls-14" x="66.21" y="65.51" width="28.9" height="19.11" rx="8.59"/><path class="cls-14" d="M95.11,75.67s10.09-8.28,16.79,0"/><line class="cls-14" x1="60.61" y1="68.43" x2="66.21" y2="74.46"/><line class="cls-14" x1="144.2" y1="67.67" x2="140.8" y2="75.06"/></g></g></g></svg>