<svg xmlns="http://www.w3.org/2000/svg" viewBox="0 0 211.19 613.17"><defs><style>.cls-1{fill:#eed1bf;}.cls-2{fill:#fcc5aa;}.cls-3{fill:#d9dceb;}.cls-4{fill:#0474bb;}.cls-14,.cls-5{fill:none;stroke-miterlimit:10;}.cls-5{stroke:#d9dceb;stroke-width:1.08px;}.cls-6{fill:#fff;}.cls-7{fill:#524935;}.cls-8{fill:#c9bcdd;}.cls-9{fill:#ebaf89;}.cls-10{fill:#c1c0da;}.cls-11{fill:#200600;}.cls-12{fill:#d55227;}.cls-13{fill:#c4463a;}.cls-14{stroke:#231f20;stroke-width:0.63px;}</style></defs><g id="Layer_2" data-name="Layer 2"><g id="Layer_1-2" data-name="Layer 1"><path id="Koza" class="cls-1" d="M15.41,335S9.52,382.22,41.3,387V333.89Z"/><path id="Koza-2" data-name="Koza" class="cls-1" d="M189.81,340.3s5.89,47.19-25.9,51.93V339.16Z"/><path id="Vrat" class="cls-2" d="M138.76,151.91c-5.1,13-18.42,22.34-34.07,22.34-15.37,0-28.5-9-33.8-21.68,4-1.16,12.58-5.44,13.09-20.83h35.3S122.52,155.93,138.76,151.91Z"/><path class="cls-3" d="M0,353.23l51.93-2V201.5s-12-62-30.45-28.36Q6.15,267.28,0,353.23Z"/><path class="cls-3" d="M208.42,353.23l-51.94-2V201.5s12-62,30.46-28.36Q202.27,267.28,208.42,353.23Z"/><path id="Koza-3" data-name="Koza" class="cls-1" d="M89.92,588.45l-30.69,4.24c3.61-2.38,3.56-4.24,3.56-4.24Z"/><path id="Koza-4" data-name="Koza" class="cls-1" d="M156.64,592.69,126,588.45h25.92A16.76,16.76,0,0,0,156.64,592.69Z"/><path id="cevlje" class="cls-4" d="M89.92,588.45v20.74h-15v-5.92s-33.06,12.37-47.57,9.45c0,0-16.55-2.27,8.86-11.58,19-7,22.83-8.42,22.83-8.42l.17,0h0Z"/><path id="cevlje-2" data-name="cevlje" class="cls-4" d="M188.51,612.72c-14.5,2.92-47.57-9.45-47.57-9.45v5.92H126V588.45l30.69,4.24h0l.17,0s3.83,1.45,22.84,8.42C205.06,610.45,188.51,612.72,188.51,612.72Z"/><polygon id="Hlace" class="cls-1" points="174.61 348.53 174.61 376.95 151.87 588.45 125.89 588.45 109.44 422.69 89.97 588.45 62.79 588.45 41.8 376.95 41.8 348.53 174.61 348.53"/><path id="Obleka" class="cls-4" d="M164.34,305.68c-2.81-21.71-3.53-43.2-1.35-64.38,10.06-13.46,10.34-43,10.32-47.65,5.6-16.18,11.54-22.68,16.38-23.21,11.84-1.31-17.48-19.42-35.57-19.42H139.18c-4.9,12.41-18.43,21.32-34.35,21.32S75.39,163.43,70.48,151H55.55C37.45,151,8.13,169.13,20,170.44,24.75,171,30.6,177.3,36.13,193c0,0-.63,34.19,10.58,48.63a279.61,279.61,0,0,1-1.39,64L5.22,483.76s21.11,21.27,82.51,0c0,0,41.69,15.8,78.37,0,0,0,30.57,12.68,45.09,0Z"/><path class="cls-5" d="M41.65,315.29c.15-13.07,65.1,52.33,126.36,0"/><path id="Koza-5" data-name="Koza" class="cls-1" d="M100.36,14h8.2a37.7,37.7,0,0,1,37.7,37.7v50.06a41.8,41.8,0,0,1-41.8,41.8h0a41.8,41.8,0,0,1-41.8-41.8V51.67A37.7,37.7,0,0,1,100.36,14Z"/><path class="cls-6" d="M92.91,74.34C93,66.29,70,66,69.88,74,69.8,81.3,92.82,81.6,92.91,74.34Z"/><path class="cls-6" d="M139.19,74.34c.09-8-22.94-8.36-23-.31C116.08,81.3,139.11,81.6,139.19,74.34Z"/><ellipse class="cls-7" cx="80.68" cy="73.89" rx="3.81" ry="4.14"/><ellipse class="cls-7" cx="127.68" cy="73.89" rx="3.81" ry="4.14"/><path id="Oci" class="cls-8" d="M68.45,74.5s9.78-10.67,27.09,0C95.54,74.5,80.49,56.43,68.45,74.5Z"/><path id="Oci-2" data-name="Oci" class="cls-8" d="M114.55,74.5s9.79-10.67,27.1,0C141.65,74.5,126.6,56.43,114.55,74.5Z"/><g id="Nos"><path class="cls-9" d="M106.57,101.73a25.86,25.86,0,0,1-8.42-1.91l.46-1.11c2.44,1,9.25,3.13,11.48.7.31-.83-.91-7.55-1.9-13-2.1-11.49-2.61-15.2-1.71-16a.8.8,0,0,1,.78-.19l-.3,1.16a.38.38,0,0,0,.38-.14c-.53,1,1,9.09,2,15,1.85,10.15,2.29,13.22,1.6,14A5.81,5.81,0,0,1,106.57,101.73Z"/></g><path id="Obrve" class="cls-10" d="M96.25,65.1c-16.86-9.24-24.66-.3-24.74-.21l-1.33-1.12c.35-.41,8.81-10.12,26.91-.2Z"/><path id="Obrve-2" data-name="Obrve" class="cls-10" d="M141.23,66.27c-16.86-9.24-24.66-.29-24.74-.2L115.16,65c.35-.42,8.81-10.12,26.91-.2Z"/><path class="cls-11" d="M123.16,113a15.29,15.29,0,0,1-6.56,8.14C115.36,116,92.8,118,92.72,118a19.14,19.14,0,0,1-3.44-5A87.28,87.28,0,0,0,123.16,113Z"/><path class="cls-12" d="M116.6,121.1h0a19.25,19.25,0,0,1-9.32,2.69A18.09,18.09,0,0,1,92.72,118C92.8,118,115.36,116,116.6,121.1Z"/><polygon class="cls-11" points="92.72 117.97 92.72 117.97 92.72 117.97 92.72 117.97"/><path id="Lasje" class="cls-10" d="M158.28,165.24s-5.38-1.23-9.24-14c-9.45-9.12-22.52-16.13-22.52-16.13,8-5,14.52-16.65,18.32-24,.15-6,1-12.52,1.59-19.91,5.81-68.52-40.05-48.71-42-48.56h0c-1.77-.1-46.8-19.69-41.95,48.56.53,7.36,1.8,13.9,2,19.86,5.2,9.14,15.5,22.5,15.5,22.5C74.41,129.75,67,137.84,61,146.79c-3.82,17-10.41,18.45-10.41,18.45S23.27-6.67,104.46.2C185.64-6.67,158.28,165.24,158.28,165.24Z"/><path id="Koza-6" data-name="Koza" class="cls-1" d="M145.54,67.25S156,64.07,153,81.11s-7.44,27.6-7.44,27.6Z"/><path id="Koza-7" data-name="Koza" class="cls-1" d="M64.53,69.73S54.05,66.54,57.1,83.59s7.43,27.6,7.43,27.6Z"/><ellipse id="Uhani" class="cls-13" cx="62.66" cy="107.04" rx="3.31" ry="3.59"/><ellipse id="Uhani-2" data-name="Uhani" class="cls-13" cx="147.85" cy="106.91" rx="3.31" ry="3.59"/><g id="ocala"><rect class="cls-14" x="113.95" y="65.51" width="28.9" height="19.11" rx="8.59"/><rect class="cls-14" x="68.26" y="65.51" width="28.9" height="19.11" rx="8.59"/><path class="cls-14" d="M97.16,75.67s10.09-8.28,16.79,0"/><line class="cls-14" x1="62.66" y1="68.43" x2="68.26" y2="74.46"/><line class="cls-14" x1="146.25" y1="67.67" x2="142.84" y2="75.06"/></g></g></g></svg>