<svg xmlns="http://www.w3.org/2000/svg" viewBox="0 0 277.84 725.53"><defs><style>.cls-1{fill:#dce6e0;}.cls-13,.cls-14,.cls-2{fill:#eed1bf;}.cls-3{fill:#fbc5aa;}.cls-4{fill:#d8dcec;}.cls-5,.cls-6{fill:#00a881;}.cls-6{stroke:#489086;stroke-width:0.95px;}.cls-13,.cls-14,.cls-15,.cls-16,.cls-6{stroke-miterlimit:10;}.cls-7{fill:#007dac;}.cls-8{fill:#44515c;}.cls-9{fill:#489086;}.cls-10{fill:#fff;}.cls-11{fill:#514835;}.cls-12{fill:#ebaf82;}.cls-13{stroke:#ebaf82;stroke-width:1.15px;}.cls-14{stroke:#ffe6b4;stroke-width:2.89px;}.cls-15,.cls-16{fill:none;stroke:#231f20;}.cls-15{stroke-width:0.62px;}.cls-16{stroke-width:0.56px;}.cls-17{fill:#ffebc6;}.cls-18{fill:#5a3b34;}.cls-19{fill:#d55225;}</style></defs><g id="Layer_2" data-name="Layer 2"><g id="Avatar"><ellipse class="cls-1" cx="138.92" cy="709.69" rx="138.92" ry="15.83"/><path class="cls-2" d="M48.6,341.94s-5.53,43.56,24.32,47.93v-49Z"/><path class="cls-2" d="M244.72,342s5.53,43.56-24.32,47.93v-49Z"/><path class="cls-3" d="M109.27,131.1s15.63-1.17,16.35-20H164s1.58,24.55,19.88,20l-1.66,14.1-37.39,14.89-32.47-8.71-7.92-15.76Z"/><path class="cls-4" d="M259.18,342.6l-48.77-2.13v-157s11.28-65,28.6-29.73Q253.41,252.5,259.18,342.6Z"/><path class="cls-4" d="M34.27,342.6,83,340.47v-157s-11.28-65-28.6-29.73Q40,252.5,34.27,342.6Z"/><path class="cls-5" d="M200.25,131.1H184c-5.33,13.79-20,23.71-37.3,23.71s-32-9.92-37.31-23.71H93.2c-19.65,0-51.49,20.13-38.64,21.59C60,153.3,66.68,161,72.92,180.2L60.84,353.5l85.89-.44h86.11L220.53,180.2c6.24-19.25,12.94-26.9,18.36-27.51C251.74,151.23,219.9,131.1,200.25,131.1Z"/><line class="cls-6" x1="146.73" y1="353.06" x2="146.73" y2="154.81"/><rect class="cls-7" x="60.84" y="353.06" width="172" height="49.8"/><polygon class="cls-7" points="146.73 402.5 122.34 687.99 94.45 687.99 60.84 402.5 146.73 402.5"/><polygon class="cls-7" points="232.84 402.5 196.14 687.99 168.41 687.99 146.99 402.5 232.84 402.5"/><path class="cls-8" d="M168.41,688v21.54h72.08s9.51-21.59-34-17.55c0,0-10.59-1.88-9.28-14.22"/><path class="cls-8" d="M122.23,688v21.54H50.15s-9.51-21.59,34-17.55c0,0,10.59-1.88,9.27-14.22"/><circle class="cls-9" cx="159.1" cy="191.3" r="3.72"/><circle class="cls-9" cx="134.74" cy="191.3" r="3.72"/><circle class="cls-9" cx="159.1" cy="219.35" r="3.72"/><circle class="cls-9" cx="134.74" cy="219.35" r="3.72"/><circle class="cls-9" cx="159.1" cy="247.39" r="3.72"/><circle class="cls-9" cx="134.74" cy="247.39" r="3.72"/><circle class="cls-9" cx="159.1" cy="275.43" r="3.72"/><circle class="cls-9" cx="134.74" cy="275.43" r="3.72"/><circle class="cls-9" cx="159.1" cy="303.47" r="3.72"/><circle class="cls-9" cx="134.74" cy="303.47" r="3.72"/><path class="cls-2" d="M97.51,47.61s-11.5-3.22-8.15,14,8.15,27.87,8.15,27.87Z"/><path class="cls-2" d="M140,0h9.66a44.43,44.43,0,0,1,44.43,44.43v35a49.26,49.26,0,0,1-49.26,49.26h0A49.26,49.26,0,0,1,95.59,79.41v-35A44.43,44.43,0,0,1,140,0Z"/><path class="cls-10" d="M134.2,55.68c.09-7.57-23.45-7.86-23.54-.28C110.57,62.24,134.11,62.52,134.2,55.68Z"/><path class="cls-10" d="M181.51,55.68c.09-7.57-23.45-7.86-23.54-.28C157.89,62.24,181.43,62.52,181.51,55.68Z"/><circle class="cls-11" cx="121.69" cy="55.26" r="3.89"/><circle class="cls-11" cx="169.74" cy="55.26" r="3.89"/><path class="cls-12" d="M109.19,55.84s10-10.05,27.7,0C136.89,55.84,121.5,38.82,109.19,55.84Z"/><path class="cls-12" d="M156.33,55.84s10-10.05,27.69,0C184,55.84,168.63,38.82,156.33,55.84Z"/><path class="cls-13" d="M140.69,82.51s8,4,10.64.58c1.14-1.49-5-31.36-3-30.73"/><path class="cls-14" d="M111.64,46.27s8.33-9.13,26.4,0"/><path class="cls-14" d="M157.62,47.37s8.33-9.12,26.4,0"/><path class="cls-2" d="M193.23,49s10.72-3,7.6,13.06-7.6,26-7.6,26Z"/><path class="cls-15" d="M138.69,56.4s10.31-7.8,17.16,0"/><line class="cls-15" x1="98.4" y1="49.58" x2="109.15" y2="55.26"/><line class="cls-15" x1="196.14" y1="49.36" x2="185.39" y2="55.83"/><circle class="cls-16" cx="123.92" cy="56.4" r="14.77"/><circle class="cls-16" cx="170.62" cy="56.4" r="14.77"/><path id="Brki2" class="cls-17" d="M156.39,86.5s18.2,4.36,15.57,23.41-24,18.57-24,18.57-25.42,1.47-26.06-18.57,12.58-22.49,15.67-23.41Z"/><path class="cls-18" d="M165,93.1A20.56,20.56,0,0,1,157.62,104c-1.38-6.86-26.65-4.2-26.73-4.19A26.46,26.46,0,0,1,127,93.1Z"/><path class="cls-19" d="M157.62,104h0a19,19,0,0,1-10.44,3.6c-7.92.47-13.15-3.77-16.29-7.79C131,99.81,156.24,97.15,157.62,104Z"/><polygon class="cls-18" points="130.89 99.82 130.89 99.82 130.89 99.82 130.89 99.82"/><polygon class="cls-10" points="127.03 93.1 128.11 95.49 164.16 95.49 164.97 93.1 127.03 93.1"/></g></g></svg>