<svg xmlns="http://www.w3.org/2000/svg" viewBox="0 0 277.84 729.53"><defs><style>.cls-1{fill:#dce6e0;}.cls-14,.cls-15,.cls-2{fill:#eed1bf;}.cls-3{fill:#fbc5aa;}.cls-4{fill:#d8dcec;}.cls-5,.cls-6{fill:#00a881;}.cls-6{stroke:#489086;stroke-width:0.95px;}.cls-14,.cls-15,.cls-18,.cls-19,.cls-6{stroke-miterlimit:10;}.cls-7{fill:#007dac;}.cls-8{fill:#44515c;}.cls-9{fill:#489086;}.cls-10{fill:#fff;}.cls-11{fill:#514835;}.cls-12{fill:#ebaf82;}.cls-13{fill:#ffebc6;}.cls-14{stroke:#ebaf82;stroke-width:1.15px;}.cls-15{stroke:#ffe6b4;stroke-width:2.89px;}.cls-16{fill:#5a3b34;}.cls-17{fill:#d55225;}.cls-18,.cls-19{fill:none;stroke:#231f20;}.cls-18{stroke-width:0.62px;}.cls-19{stroke-width:0.56px;}</style></defs><g id="Layer_2" data-name="Layer 2"><g id="Avatar"><ellipse class="cls-1" cx="138.92" cy="713.69" rx="138.92" ry="15.83"/><path class="cls-2" d="M48.6,345.94s-5.53,43.56,24.32,47.93v-49Z"/><path class="cls-2" d="M244.72,346s5.53,43.56-24.32,47.93v-49Z"/><path class="cls-3" d="M109.27,135.1s15.63-1.17,16.35-20H164s1.58,24.55,19.88,20l-1.66,14.1-37.39,14.89-32.47-8.71-7.92-15.76Z"/><path class="cls-4" d="M259.18,346.6l-48.77-2.13v-157s11.28-65,28.6-29.73Q253.41,256.5,259.18,346.6Z"/><path class="cls-4" d="M34.27,346.6,83,344.47v-157s-11.28-65-28.6-29.73Q40,256.5,34.27,346.6Z"/><path class="cls-5" d="M200.25,135.1H184c-5.33,13.79-20,23.71-37.3,23.71s-32-9.92-37.31-23.71H93.2c-19.65,0-51.49,20.13-38.64,21.59C60,157.3,66.68,165,72.92,184.2L60.84,357.5l85.89-.44h86.11L220.53,184.2c6.24-19.25,12.94-26.9,18.36-27.51C251.74,155.23,219.9,135.1,200.25,135.1Z"/><line class="cls-6" x1="146.73" y1="357.06" x2="146.73" y2="158.81"/><rect class="cls-7" x="60.84" y="357.06" width="172" height="49.8"/><polygon class="cls-7" points="146.73 406.5 122.34 691.99 94.45 691.99 60.84 406.5 146.73 406.5"/><polygon class="cls-7" points="232.84 406.5 196.14 691.99 168.41 691.99 146.99 406.5 232.84 406.5"/><path class="cls-8" d="M168.41,692v21.54h72.08s9.51-21.59-34-17.55c0,0-10.59-1.88-9.28-14.22"/><path class="cls-8" d="M122.23,692v21.54H50.15s-9.51-21.59,34-17.55c0,0,10.59-1.88,9.27-14.22"/><circle class="cls-9" cx="159.1" cy="195.3" r="3.72"/><circle class="cls-9" cx="134.74" cy="195.3" r="3.72"/><circle class="cls-9" cx="159.1" cy="223.35" r="3.72"/><circle class="cls-9" cx="134.74" cy="223.35" r="3.72"/><circle class="cls-9" cx="159.1" cy="251.39" r="3.72"/><circle class="cls-9" cx="134.74" cy="251.39" r="3.72"/><circle class="cls-9" cx="159.1" cy="279.43" r="3.72"/><circle class="cls-9" cx="134.74" cy="279.43" r="3.72"/><circle class="cls-9" cx="159.1" cy="307.47" r="3.72"/><circle class="cls-9" cx="134.74" cy="307.47" r="3.72"/><path class="cls-2" d="M98.51,47.61s-11.5-3.22-8.15,14,8.15,27.87,8.15,27.87Z"/><path class="cls-2" d="M141,0h9.66a44.43,44.43,0,0,1,44.43,44.43v35a49.26,49.26,0,0,1-49.26,49.26h0A49.26,49.26,0,0,1,96.59,79.41v-35A44.43,44.43,0,0,1,141,0Z"/><path class="cls-10" d="M135.2,55.68c.09-7.57-23.45-7.86-23.54-.28C111.57,62.24,135.11,62.52,135.2,55.68Z"/><path class="cls-10" d="M182.51,55.68c.09-7.57-23.45-7.86-23.54-.28C158.89,62.24,182.43,62.52,182.51,55.68Z"/><circle class="cls-11" cx="122.69" cy="55.26" r="3.89"/><circle class="cls-11" cx="170.74" cy="55.26" r="3.89"/><path class="cls-12" d="M110.19,55.84s10-10.05,27.7,0C137.89,55.84,122.5,38.82,110.19,55.84Z"/><path class="cls-12" d="M157.33,55.84s10-10.05,27.69,0C185,55.84,169.63,38.82,157.33,55.84Z"/><path class="cls-13" d="M137.53,82.6c-5.25,2.49-8.27,6.06-9.5,10.5H166c-1.32-4.07-4.77-7.52-9.9-10.5Z"/><path class="cls-14" d="M141.69,82.51s8,4,10.64.58c1.14-1.49-5-31.36-3-30.73"/><path class="cls-15" d="M112.64,46.27s8.33-9.13,26.4,0"/><path class="cls-15" d="M158.62,47.37s8.33-9.12,26.4,0"/><path class="cls-16" d="M166,93.1A20.56,20.56,0,0,1,158.62,104c-1.38-6.86-26.65-4.2-26.73-4.19A26.46,26.46,0,0,1,128,93.1Z"/><path class="cls-17" d="M158.62,104h0a19,19,0,0,1-10.44,3.6c-7.92.47-13.15-3.77-16.29-7.79C132,99.81,157.24,97.15,158.62,104Z"/><polygon class="cls-16" points="131.89 99.82 131.89 99.82 131.89 99.82 131.89 99.82"/><path class="cls-2" d="M194.23,49s10.72-3,7.6,13.06-7.6,26-7.6,26Z"/><polygon class="cls-10" points="128.03 93.1 129.11 95.49 165.16 95.49 165.97 93.1 128.03 93.1"/><path class="cls-18" d="M139.69,56.4s10.31-7.8,17.16,0"/><line class="cls-18" x1="99.4" y1="49.58" x2="110.15" y2="55.26"/><line class="cls-18" x1="197.14" y1="49.36" x2="186.39" y2="55.83"/><circle class="cls-19" cx="124.92" cy="56.4" r="14.77"/><circle class="cls-19" cx="171.62" cy="56.4" r="14.77"/></g></g></svg>