<svg xmlns="http://www.w3.org/2000/svg" viewBox="0 0 208.42 657.19"><defs><style>.cls-1{fill:#eed1bf;}.cls-2{fill:#fcc5aa;}.cls-3{fill:#d9dceb;}.cls-4{fill:#074368;}.cls-5{fill:none;stroke:#c1c0da;stroke-miterlimit:10;stroke-width:1.01px;}.cls-6{fill:#c4463a;}.cls-7{fill:#fff;}.cls-8{fill:#524935;}.cls-9{fill:#c9bcdd;}.cls-10{fill:#ebaf89;}.cls-11{fill:#c1c0da;}.cls-12{fill:#200600;}.cls-13{fill:#d55227;}</style></defs><g id="Layer_2" data-name="Layer 2"><g id="Layer_1-2" data-name="Layer 1"><path id="Koza" class="cls-1" d="M15.41,343S9.52,389.34,41.3,394V341.83Z"/><path id="Koza-2" data-name="Koza" class="cls-1" d="M189.81,348.14s5.89,46.38-25.9,51V347Z"/><path id="Vrat" class="cls-2" d="M138.76,162.94c-5.1,12.81-18.42,22-34.07,22-15.37,0-28.5-8.84-33.8-21.31,4-1.14,12.58-5.35,13.09-20.48h35.3S122.52,166.89,138.76,162.94Z"/><path class="cls-3" d="M0,360.84l51.93-2V211.69s-12-61-30.45-27.88Q6.15,276.36,0,360.84Z"/><path class="cls-3" d="M208.42,360.84l-51.94-2V211.69s12-61,30.46-27.88Q202.27,276.36,208.42,360.84Z"/><path id="Koza-3" data-name="Koza" class="cls-1" d="M89.92,632.89l-30.69,4.17c3.61-2.34,5.93-4.17,5.93-4.17Z"/><path id="Koza-4" data-name="Koza" class="cls-1" d="M156.64,637.06,126,632.89h24.77S153,634.72,156.64,637.06Z"/><path id="cevlje" class="cls-4" d="M89.92,632.89v20.39h-15v-5.82s-33.06,12.16-47.57,9.29c0,0-16.55-2.23,8.86-11.39,19-6.85,22.83-8.27,22.83-8.27l.17,0h0Z"/><path id="cevlje-2" data-name="cevlje" class="cls-4" d="M188.51,656.75c-14.5,2.87-47.57-9.29-47.57-9.29v5.82H126V632.89l30.69,4.17h0l.17,0s3.83,1.42,22.84,8.27C205.06,654.52,188.51,656.75,188.51,656.75Z"/><path class="cls-5" d="M43.14,329.81c.14-12.11,61.31,48.44,119,0"/><polygon id="Hlace" class="cls-4" points="174.61 356.22 174.61 384.16 151.87 632.89 125.89 632.89 109.44 429.12 89.97 632.89 62.79 632.89 41.8 384.16 41.8 356.22 174.61 356.22"/><path id="Majica" class="cls-6" d="M189.55,182.87c-4.83.58-10.78,7.47-16.38,24.68,0,4.95,2.85,36.81-7.21,51.12-2.17,22.51,5.85,74.46,8.65,97.55-56.74,46.95-129,1.63-132.81,0,2.74-22.76,6.89-75.42,4.78-97.64C35.36,243.24,36,206.89,36,206.89c-5.54-16.71-11.39-23.45-16.16-24C8,181.49,37.32,162.24,55.41,162.24H70.35q.25.69.54,1.35c5.3,12.47,18.43,21.31,33.8,21.31,15.65,0,29-9.15,34.07-22,.1-.23.19-.47.28-.7H154C172.07,162.24,201.39,181.49,189.55,182.87Z"/><path id="Koza-5" data-name="Koza" class="cls-1" d="M98.74,26.6h8.2a37.7,37.7,0,0,1,37.7,37.7v50.06a41.8,41.8,0,0,1-41.8,41.8h0A41.8,41.8,0,0,1,61,114.36V64.3A37.7,37.7,0,0,1,98.74,26.6Z"/><path class="cls-7" d="M91.29,87c.09-8-22.94-8.35-23-.31C68.18,93.93,91.21,94.24,91.29,87Z"/><path class="cls-7" d="M137.57,87c.09-8-22.94-8.35-23-.31C114.46,93.93,137.49,94.24,137.57,87Z"/><ellipse class="cls-8" cx="79.06" cy="86.52" rx="3.81" ry="4.14"/><ellipse class="cls-8" cx="126.06" cy="86.52" rx="3.81" ry="4.14"/><path id="Oci" class="cls-9" d="M66.83,87.14s9.78-10.67,27.09,0C93.92,87.14,78.87,69.06,66.83,87.14Z"/><path id="Oci-2" data-name="Oci" class="cls-9" d="M112.93,87.14s9.79-10.67,27.1,0C140,87.14,125,69.06,112.93,87.14Z"/><g id="Nos"><path class="cls-10" d="M105,114.36a25.86,25.86,0,0,1-8.42-1.91l.46-1.11c2.44,1,9.25,3.13,11.48.7.32-.83-.91-7.54-1.9-12.94-2.1-11.49-2.61-15.2-1.71-16a.83.83,0,0,1,.78-.19l-.3,1.16a.38.38,0,0,0,.38-.14c-.53,1,1,9.1,2,15,1.85,10.16,2.29,13.22,1.6,14A5.8,5.8,0,0,1,105,114.36Z"/></g><path id="Obrve" class="cls-11" d="M94.63,77.73c-16.86-9.24-24.66-.29-24.74-.2l-1.33-1.12c.35-.42,8.81-10.12,26.91-.21Z"/><path id="Obrve-2" data-name="Obrve" class="cls-11" d="M139.61,78.9c-16.86-9.24-24.66-.29-24.74-.2l-1.33-1.12c.35-.42,8.81-10.12,26.91-.2Z"/><path id="Koza-6" data-name="Koza" class="cls-1" d="M143.93,79.89s10.48-3.19,7.43,13.86-7.43,27.6-7.43,27.6Z"/><path id="Koza-7" data-name="Koza" class="cls-1" d="M62.17,81.67s-10.48-3.18-7.43,13.87,7.43,27.6,7.43,27.6Z"/><ellipse id="Uhani" class="cls-6" cx="61.04" cy="119.67" rx="3.31" ry="3.59"/><ellipse id="Uhani-2" data-name="Uhani" class="cls-6" cx="146.23" cy="119.55" rx="3.31" ry="3.59"/><path class="cls-12" d="M121.54,125.59a15.29,15.29,0,0,1-6.56,8.14c-1.24-5.12-23.8-3.13-23.88-3.12a19,19,0,0,1-3.44-5A87.28,87.28,0,0,0,121.54,125.59Z"/><path class="cls-13" d="M115,133.73h0a19.14,19.14,0,0,1-9.32,2.7,18.09,18.09,0,0,1-14.55-5.82C91.18,130.6,113.74,128.61,115,133.73Z"/><polygon class="cls-12" points="91.1 130.61 91.1 130.61 91.1 130.61 91.1 130.61"/><path id="Lasje" class="cls-11" d="M159.94,53.28h-4.22a30.27,30.27,0,0,1-6.16,6.8c-6.81,5.5-15.41,7.19-24,5.83-2.48-.37-5.08-1-7.72-1.6q-2.35-.59-4.74-1.28l-4.81-1.39a65.25,65.25,0,0,0-6.42-1.76,63.6,63.6,0,0,0-6.81-1.12c-5.56-2.45-10.6.07-15.42,2.85a32,32,0,0,0-3.17,2.57c-2.94,3.89-7.14,6.42-8.38,11.7-.91,1.72-1.74,3.49-2.52,5.3S64,84.81,63.3,86.65c-.47,1.93-.85,3.91-1.19,5.86s-.64,3.91-.92,5.8c0,0-.61-1-1.42-2.75a30,30,0,0,0-1.25-4A45.91,45.91,0,0,1,54.93,87a28,28,0,0,1-4.37-4.63A28.65,28.65,0,0,1,46.2,71.11a33.57,33.57,0,0,1-.47-6.19c1.74-16.18,11-33,26.8-38.79q3-1.27,6-2.27c.61-.2,1.22-.39,1.84-.57a20.6,20.6,0,0,1-.1-2.09,21.2,21.2,0,1,1,42.4,0c0,.71,0,1.41-.1,2.1a75.68,75.68,0,0,1,12.32,4.57,56,56,0,0,1,5.33,2.9A47.58,47.58,0,0,1,159.94,53.28Z"/></g></g></svg>