<svg xmlns="http://www.w3.org/2000/svg" viewBox="0 0 208.42 646.33"><defs><style>.cls-1{fill:#eed1bf;}.cls-2{fill:#fcc5aa;}.cls-3{fill:#d9dceb;}.cls-4{fill:#074368;}.cls-5{fill:none;stroke:#c1c0da;stroke-miterlimit:10;stroke-width:1.01px;}.cls-6{fill:#c4463a;}.cls-7{fill:#fff;}.cls-8{fill:#524935;}.cls-9{fill:#c9bcdd;}.cls-10{fill:#ebaf89;}.cls-11{fill:#c1c0da;}.cls-12{fill:#200600;}.cls-13{fill:#d55227;}</style></defs><g id="Layer_2" data-name="Layer 2"><g id="Layer_1-2" data-name="Layer 1"><path id="Koza" class="cls-1" d="M15.41,332.1s-5.89,46.38,25.89,51V331Z"/><path id="Koza-2" data-name="Koza" class="cls-1" d="M189.81,337.28s5.89,46.38-25.9,51V336.15Z"/><path id="Vrat" class="cls-2" d="M138.76,152.09c-5.1,12.81-18.42,22-34.07,22-15.37,0-28.5-8.84-33.8-21.31,4-1.14,12.58-5.35,13.09-20.48h35.3S122.52,156,138.76,152.09Z"/><path class="cls-3" d="M0,350l51.93-2V200.83s-12-61-30.45-27.87Q6.15,265.5,0,350Z"/><path class="cls-3" d="M208.42,350l-51.94-2V200.83s12-61,30.46-27.87Q202.27,265.5,208.42,350Z"/><path id="Koza-3" data-name="Koza" class="cls-1" d="M89.92,622l-30.69,4.17c3.61-2.34,5.93-4.17,5.93-4.17Z"/><path id="Koza-4" data-name="Koza" class="cls-1" d="M156.64,626.21,126,622h24.77S153,623.87,156.64,626.21Z"/><path id="cevlje" class="cls-4" d="M89.92,622v20.39h-15v-5.82s-33.06,12.16-47.57,9.29c0,0-16.55-2.23,8.86-11.39,19-6.85,22.83-8.27,22.83-8.27l.17,0h0Z"/><path id="cevlje-2" data-name="cevlje" class="cls-4" d="M188.51,645.9c-14.5,2.87-47.57-9.29-47.57-9.29v5.82H126V622l30.69,4.17h0l.17,0s3.83,1.42,22.84,8.27C205.06,643.67,188.51,645.9,188.51,645.9Z"/><path class="cls-5" d="M43.14,319c.14-12.11,61.31,48.44,119,0"/><polygon id="Hlace" class="cls-4" points="174.61 345.37 174.61 373.31 151.87 622.04 125.89 622.04 109.44 418.27 89.97 622.04 62.79 622.04 41.8 373.31 41.8 345.37 174.61 345.37"/><path id="Majica" class="cls-6" d="M189.55,172c-4.83.58-10.78,7.47-16.38,24.68,0,5,2.85,36.81-7.21,51.12-2.17,22.51,5.85,74.46,8.65,97.55-56.74,46.95-129,1.63-132.81,0,2.74-22.76,6.89-75.42,4.78-97.64C35.36,232.39,36,196,36,196c-5.54-16.71-11.39-23.45-16.16-24C8,170.64,37.32,151.39,55.41,151.39H70.35q.25.69.54,1.35c5.3,12.47,18.43,21.31,33.8,21.31,15.65,0,29-9.15,34.07-22,.1-.23.19-.47.28-.7H154C172.07,151.39,201.39,170.64,189.55,172Z"/><path id="Koza-5" data-name="Koza" class="cls-1" d="M98.24,15h8.2a37.7,37.7,0,0,1,37.7,37.7v50.06a41.8,41.8,0,0,1-41.8,41.8h0a41.8,41.8,0,0,1-41.8-41.8V52.67A37.7,37.7,0,0,1,98.24,15Z"/><path class="cls-7" d="M90.79,75.33c.09-8-22.93-8.35-23-.3C67.68,82.3,90.71,82.6,90.79,75.33Z"/><path class="cls-7" d="M137.08,75.33c.09-8-22.94-8.35-23-.3C114,82.3,137,82.6,137.08,75.33Z"/><ellipse class="cls-8" cx="78.56" cy="74.89" rx="3.81" ry="4.14"/><ellipse class="cls-8" cx="125.57" cy="74.89" rx="3.81" ry="4.14"/><path id="Oci" class="cls-9" d="M66.33,75.5s9.79-10.67,27.1,0C93.43,75.5,78.38,57.43,66.33,75.5Z"/><path id="Oci-2" data-name="Oci" class="cls-9" d="M112.44,75.5s9.79-10.67,27.1,0C139.54,75.5,124.48,57.43,112.44,75.5Z"/><g id="Nos"><path class="cls-10" d="M104.45,102.73A25.41,25.41,0,0,1,96,100.81l.46-1.1c2.44,1,9.25,3.13,11.47.7.32-.83-.91-7.55-1.89-13-2.1-11.49-2.61-15.2-1.71-16a.83.83,0,0,1,.78-.2l-.3,1.16a.37.37,0,0,0,.38-.14c-.53,1,1,9.1,2,15,1.85,10.15,2.29,13.22,1.6,14A5.83,5.83,0,0,1,104.45,102.73Z"/></g><path id="Obrve" class="cls-11" d="M94.14,66.09c-16.86-9.23-24.66-.29-24.74-.2l-1.33-1.12c.35-.42,8.8-10.12,26.91-.2Z"/><path id="Obrve-2" data-name="Obrve" class="cls-11" d="M139.12,67.27c-16.86-9.24-24.67-.3-24.74-.2L113.05,66c.35-.42,8.81-10.12,26.91-.21Z"/><path id="Koza-6" data-name="Koza" class="cls-1" d="M143.43,68.25s10.49-3.18,7.43,13.86-7.43,27.6-7.43,27.6Z"/><path id="Koza-7" data-name="Koza" class="cls-1" d="M61,69.1S50.47,65.91,53.52,83,61,110.56,61,110.56Z"/><ellipse id="Uhani" class="cls-6" cx="60.55" cy="108.04" rx="3.31" ry="3.59"/><ellipse id="Uhani-2" data-name="Uhani" class="cls-6" cx="145.74" cy="107.91" rx="3.31" ry="3.59"/><path class="cls-12" d="M121.05,114a15.3,15.3,0,0,1-6.56,8.15C113.25,117,90.69,119,90.61,119a19,19,0,0,1-3.44-5A87.09,87.09,0,0,0,121.05,114Z"/><path class="cls-13" d="M114.49,122.1h0a19.28,19.28,0,0,1-9.32,2.69A18,18,0,0,1,90.61,119C90.69,119,113.25,117,114.49,122.1Z"/><polygon class="cls-12" points="90.61 118.97 90.61 118.97 90.61 118.97 90.61 118.97"/><path id="Lasje" class="cls-11" d="M59.1,84.93c.26-2.33.58-4.69,1-7.06a45.6,45.6,0,0,1,5.45-18.13,32.65,32.65,0,0,1,3.48-5c2.28-1.58,4-5.13,6.59-5.93a25.45,25.45,0,0,1,4.19-1.72,30,30,0,0,1,4.36-1,92.87,92.87,0,0,1,10.91.34A28.28,28.28,0,0,1,105,49.18c1.56.46,3.12.92,4.69,1.34a42.1,42.1,0,0,1,5.82-.86,38.08,38.08,0,0,1,5.85,0,16.92,16.92,0,0,1,3,.07,15.7,15.7,0,0,1,2.85.62c4.31,1,6.08,4.55,9.37,6.63.63.77,1.24,1.58,1.82,2.43s1.11,1.72,1.62,2.61a41.58,41.58,0,0,1,2.6,5.59,44.64,44.64,0,0,1,1.75,5.66c.52,1.11,1.57,1.11,2.63,1.67,0-1.23.13-2.46.27-3.67s.3-2.43.5-3.64c7.42-7.4,15.5-16.28,14.74-28.06a16.9,16.9,0,0,0-.68-3.15,17.22,17.22,0,0,0-1.35-3.12,30,30,0,0,0-1.79-2.94c-3.26-4.82-7.84-9.18-12.23-13A26.4,26.4,0,0,1,145.08,14a23,23,0,0,0-1.41-2.29A22.22,22.22,0,0,0,142,9.62a22.11,22.11,0,0,0-2.6-2.42,33.78,33.78,0,0,0-11.89-4.56c-1.07-.2-2.15-.36-3.25-.48-8.69-1.47-17.55,3-26.61,1.77-1-.21-2-.45-3-.71s-2-.54-2.95-.82a24.24,24.24,0,0,0-26.86,4,31.48,31.48,0,0,0-2.35,2.27A29.69,29.69,0,0,0,56,20l-1.82,2.86-1.77,1.38a68.46,68.46,0,0,1-7.48,5.05,14,14,0,0,0-2,2.82,22.41,22.41,0,0,0-1.46,3.26c-.38,1-.71,2.1-1,3.17-2.34,8.56-2,17.83,5,24.31.77.77,1.56,1.51,2.35,2.24,3.93,3.66,8,7.18,8.55,12.53.45,1.55.9,3.09,1.35,4.6A30.36,30.36,0,0,0,59.1,84.93Z"/></g></g></svg>