<svg xmlns="http://www.w3.org/2000/svg" viewBox="0 0 277.84 677.94"><defs><style>.cls-1{fill:#eed1bf;}.cls-2{fill:#fcc5aa;}.cls-3{fill:#dce6e0;}.cls-4{fill:#d9dceb;}.cls-5{fill:#00a881;}.cls-14,.cls-15,.cls-6{fill:none;stroke-miterlimit:10;}.cls-6{stroke:#499086;stroke-width:0.95px;}.cls-7{fill:#017dad;}.cls-8{fill:#44515d;}.cls-9{fill:#499086;}.cls-10{fill:#fff;}.cls-11{fill:#524935;}.cls-12{fill:#ebaf88;}.cls-13{fill:#ffe6b4;}.cls-14,.cls-15{stroke:#231f20;}.cls-14{stroke-width:0.62px;}.cls-15{stroke-width:0.56px;}.cls-16{fill:#ffebc6;}.cls-17{fill:#301812;}.cls-18{fill:#d55227;}</style></defs><g id="Layer_2" data-name="Layer 2"><g id="Layer_1-2" data-name="Layer 1"><path id="Koza" class="cls-1" d="M48.6,352.35s-5.53,43.56,24.32,47.93v-49Z"/><path id="Koza-2" data-name="Koza" class="cls-1" d="M244.72,352.41s5.53,43.56-24.32,47.93v-49Z"/><path id="Vrat" class="cls-2" d="M184,141.49l-.21.53c-5.49,13.54-20,23.2-37.1,23.2-17.29,0-32-9.91-37.3-23.71h-.15a18.31,18.31,0,0,0,12.53-7.4,18,18,0,0,0,2-3.72,25.58,25.58,0,0,0,1.79-8.83H164a36.91,36.91,0,0,0,1.89,8.82c1.18,3.37,3.09,7,6.14,9.24C174.87,141.78,178.86,142.79,184,141.49Z"/><ellipse class="cls-3" cx="138.92" cy="662.11" rx="138.92" ry="15.83"/><path class="cls-4" d="M259.18,353l-48.77-2.12v-157s11.28-65,28.6-29.73Q253.41,262.9,259.18,353Z"/><path class="cls-4" d="M34.27,353,83,350.89v-157s-11.28-65-28.6-29.73Q40,262.9,34.27,353Z"/><path id="Pulover" class="cls-5" d="M238.89,163.08l-.41.06c-5.35.94-11.87,8.69-17.95,27.46l10.64,172.85H60.56L72.92,190.6c-6.09-18.77-12.6-26.52-18-27.46l-.41-.06c-12.85-1.45,19-21.59,38.64-21.59h16.22c5.33,13.8,20,23.71,37.3,23.71,17.08,0,31.61-9.66,37.1-23.2.08-.17.14-.34.21-.51h16.22C219.9,141.49,251.74,161.63,238.89,163.08Z"/><line id="Zadrga" class="cls-6" x1="146.73" y1="363.47" x2="146.73" y2="165.22"/><polygon id="Hlace" class="cls-7" points="231.17 363.44 223.09 414.91 197.23 630.18 168.41 640.4 146.99 413.28 146.73 413.28 122.34 640.4 122.23 640.4 93.48 630.21 68.34 413.91 60.56 363.44 231.17 363.44"/><path class="cls-8" d="M240.49,662H168.41V640.4l28.82-10.22s0,.05,0,.08c-1.25,12.27,9.29,14.13,9.29,14.13C250,640.35,240.49,662,240.49,662Z"/><path class="cls-8" d="M122.23,640.4V662H50.15s-9.51-21.6,34-17.56c0,0,10.59-1.87,9.27-14.21l.08,0Z"/><circle id="Gumb" class="cls-9" cx="159.1" cy="201.72" r="3.72"/><circle id="Gumb-2" data-name="Gumb" class="cls-9" cx="134.74" cy="201.72" r="3.72"/><circle id="Gumb-3" data-name="Gumb" class="cls-9" cx="159.1" cy="229.76" r="3.72"/><circle id="Gumb-4" data-name="Gumb" class="cls-9" cx="134.74" cy="229.76" r="3.72"/><circle id="Gumb-5" data-name="Gumb" class="cls-9" cx="159.1" cy="257.8" r="3.72"/><circle id="Gumb-6" data-name="Gumb" class="cls-9" cx="134.74" cy="257.8" r="3.72"/><circle id="Gumb-7" data-name="Gumb" class="cls-9" cx="159.1" cy="285.84" r="3.72"/><circle id="Gumb-8" data-name="Gumb" class="cls-9" cx="134.74" cy="285.84" r="3.72"/><circle id="Gumb-9" data-name="Gumb" class="cls-9" cx="159.1" cy="313.88" r="3.72"/><circle id="Gumb-10" data-name="Gumb" class="cls-9" cx="134.74" cy="313.88" r="3.72"/><path id="Koza-3" data-name="Koza" class="cls-1" d="M201.62,74.32a133.55,133.55,0,0,1-7.42,25.57A49.25,49.25,0,0,1,96.79,98a155.45,155.45,0,0,1-6.64-24.12c-2.46-12.67,3.11-14.27,6.23-14.23V56.69a44.43,44.43,0,0,1,44.43-44.43h9.66A44.43,44.43,0,0,1,194.9,56.69v4.42C197.39,60.81,204.18,61.12,201.62,74.32Z"/><path class="cls-10" d="M135,67.94c.09-7.58-23.45-7.86-23.54-.29C111.36,74.5,134.9,74.78,135,67.94Z"/><path class="cls-10" d="M182.3,67.94c.09-7.58-23.45-7.86-23.54-.29C158.68,74.5,182.22,74.78,182.3,67.94Z"/><circle class="cls-11" cx="122.49" cy="67.52" r="3.89"/><circle class="cls-11" cx="170.53" cy="67.52" r="3.89"/><path id="Oci" class="cls-12" d="M110,68.1s10-10,27.7,0C137.68,68.1,122.29,51.08,110,68.1Z"/><path id="Oci-2" data-name="Oci" class="cls-12" d="M157.12,68.1s10-10,27.69,0C184.81,68.1,169.43,51.08,157.12,68.1Z"/><path class="cls-1" d="M149.13,64.61l-.4,1.56C148.71,65.1,148.83,64.52,149.13,64.61Z"/><path id="Nos" class="cls-12" d="M148.67,97.32a19.67,19.67,0,0,1-7.45-2l.53-1c2.1,1.07,8,3.28,9.91.75.32-.84-.77-8-1.64-13.82-1.86-12.28-2.3-16.23-1.43-17a.73.73,0,0,1,.71-.14l-.34,1.1a.4.4,0,0,0,.44-.15c-.5,1,.81,9.67,1.76,16,1.62,10.7,2,13.93,1.42,14.69A4.63,4.63,0,0,1,148.67,97.32Z"/><g id="Obrve"><path class="cls-13" d="M138.18,59.81c-16.77-8.46-24.37-.64-24.68-.31l-2.13-2c.37-.4,9.28-9.82,28.11-.31Z"/></g><g id="Obrve-2" data-name="Obrve"><g id="Obrve-3" data-name="Obrve"><path id="Obrve-4" data-name="Obrve" class="cls-13" d="M184.16,60.92c-16.9-8.53-24.6-.4-24.68-.32l-2.13-1.94c.37-.41,9.28-9.83,28.11-.32Z"/></g></g><g id="Ocala"><path class="cls-14" d="M139.48,68.66s10.32-7.8,17.16,0"/><line class="cls-14" x1="99.19" y1="61.84" x2="109.94" y2="67.52"/><line class="cls-14" x1="196.93" y1="61.62" x2="186.18" y2="68.09"/><circle class="cls-15" cx="124.71" cy="68.66" r="14.77"/><circle class="cls-15" cx="171.41" cy="68.66" r="14.77"/></g><path id="Lasje" class="cls-16" d="M104,71.42s-3.34-24.54,7.48-34.2A14.38,14.38,0,0,1,114.78,35a10.85,10.85,0,0,1,2.18-.77c4-1.14,8.66-.56,12.82-.3l3.12.32c19.31,2.1,29.26,5.74,29.26,5.74s5.78-5.55-3.75-8.63,15.48-.38,22,13.27a93.13,93.13,0,0,1,8,26.81l5.6,1.51s14.88-38.55-2.82-51.8c-9.7-7.27-21.71-16.44-33.59-19.74a35,35,0,0,0-3.56-.8,29,29,0,0,0-3.18-.46A30.72,30.72,0,0,0,147.69,0a27,27,0,0,0-6.45.56c-1.1.25-2.17.56-3.22.91S136,2.24,135,2.67c-9.91,5-18.57,13.09-29.47,15.75-1,.31-2.07.66-3.06,1-4.93,1.94-8.85,4.92-9.18,11.16-.25,1-.45,1.92-.61,2.9a25.38,25.38,0,0,0-.22,5.9c0,.73.09,1.46.08,2.22C92.44,49.88,95,60.1,104,71.42Z"/><path id="Brki" class="cls-16" d="M156.21,98.7s18.2,4.35,15.57,23.4-24,18.57-24,18.57-25.42,1.47-26-18.57,12.57-22.49,15.66-23.4Z"/><path class="cls-17" d="M165.76,105.36a21.63,21.63,0,0,1-7.34,10.91c-1.39-6.87-26.66-4.2-26.74-4.19a31.85,31.85,0,0,1-3.86-6.72Z"/><path class="cls-18" d="M158.42,116.27h0a19,19,0,0,1-10.44,3.6c-7.92.47-13.15-3.77-16.29-7.79C131.76,112.07,157,109.4,158.42,116.27Z"/><polygon class="cls-17" points="131.68 112.08 131.68 112.08 131.68 112.08 131.68 112.08"/><polygon class="cls-10" points="127.82 105.36 128.9 107.75 164.95 107.75 165.76 105.36 127.82 105.36"/></g></g></svg>