<svg xmlns="http://www.w3.org/2000/svg" viewBox="0 0 277.84 671.52"><defs><style>.cls-1{fill:#eed1bf;}.cls-2{fill:#fcc5aa;}.cls-3{fill:#dce6e0;}.cls-4{fill:#d9dceb;}.cls-5{fill:#fff;}.cls-6{fill:#524935;}.cls-7{fill:#ebaf88;}.cls-8{fill:#ffebc6;}.cls-9{fill:#ffe6b4;}.cls-10{fill:#301812;}.cls-11{fill:#d55227;}.cls-12{fill:#00a881;}.cls-13{fill:none;stroke:#499086;stroke-miterlimit:10;stroke-width:0.95px;}.cls-14{fill:#017dad;}.cls-15{fill:#44515d;}.cls-16{fill:#499086;}</style></defs><g id="Layer_2" data-name="Layer 2"><g id="Layer_1-2" data-name="Layer 1"><path id="Koza" class="cls-1" d="M48.6,345.93s-5.53,43.56,24.32,47.94v-49Z"/><path id="Koza-2" data-name="Koza" class="cls-1" d="M244.72,346s5.53,43.56-24.32,47.94v-49Z"/><path id="Vrat" class="cls-2" d="M184,135.07l-.21.53c-5.49,13.54-20,23.2-37.1,23.2-17.29,0-32-9.91-37.3-23.71h-.15a18.31,18.31,0,0,0,12.53-7.4,18,18,0,0,0,2-3.72,25.58,25.58,0,0,0,1.79-8.83H164a36.91,36.91,0,0,0,1.89,8.82c1.18,3.37,3.09,7,6.14,9.24C174.87,135.36,178.86,136.37,184,135.07Z"/><ellipse class="cls-3" cx="138.92" cy="655.69" rx="138.92" ry="15.83"/><path class="cls-4" d="M259.18,346.6l-48.77-2.13v-157s11.28-65,28.6-29.73Q253.41,256.48,259.18,346.6Z"/><path id="Koza-3" data-name="Koza" class="cls-1" d="M200.83,62.06a133.55,133.55,0,0,1-7.42,25.57A49.25,49.25,0,0,1,96,85.72,155.45,155.45,0,0,1,89.36,61.6c-2.46-12.67,3.11-14.27,6.23-14.23V44.43A44.43,44.43,0,0,1,140,0h9.66a44.43,44.43,0,0,1,44.43,44.43v4.42C196.6,48.55,203.39,48.86,200.83,62.06Z"/><path class="cls-5" d="M134.2,55.68c.09-7.58-23.45-7.86-23.54-.29C110.57,62.23,134.11,62.52,134.2,55.68Z"/><path class="cls-5" d="M181.51,55.68c.09-7.58-23.45-7.86-23.54-.29C157.89,62.23,181.43,62.52,181.51,55.68Z"/><circle class="cls-6" cx="121.69" cy="55.26" r="3.89"/><circle class="cls-6" cx="169.74" cy="55.26" r="3.89"/><path id="Oci" class="cls-7" d="M109.19,55.84s10-10.05,27.7,0C136.89,55.84,121.5,38.82,109.19,55.84Z"/><path id="Oci-2" data-name="Oci" class="cls-7" d="M156.33,55.84s10-10.05,27.69,0C184,55.84,168.63,38.82,156.33,55.84Z"/><path id="Brki" class="cls-8" d="M165,93.09H127c1.23-4.43,4.25-8,9.5-10.49h4.36c1.25.59,8.06,3.63,10.44.49a1.07,1.07,0,0,0,.12-.49h3.62C160.2,85.57,163.65,89,165,93.09Z"/><path class="cls-1" d="M148.34,52.35l-.4,1.56C147.92,52.84,148,52.26,148.34,52.35Z"/><path id="Nos" class="cls-7" d="M147.87,85.06a19.66,19.66,0,0,1-7.44-2l.52-1c2.11,1.06,8,3.28,9.92.75.32-.84-.77-8-1.64-13.82-1.86-12.29-2.3-16.23-1.43-17a.74.74,0,0,1,.71-.15l-.34,1.11a.42.42,0,0,0,.44-.16c-.5,1,.8,9.68,1.76,16,1.62,10.7,2,13.92,1.42,14.69A4.65,4.65,0,0,1,147.87,85.06Z"/><g id="Obrve"><path class="cls-9" d="M137.39,47.55c-16.77-8.46-24.37-.65-24.69-.31l-2.12-2c.37-.41,9.28-9.82,28.11-.32Z"/></g><g id="Obrve-2" data-name="Obrve"><g id="Obrve-3" data-name="Obrve"><path id="Obrve-4" data-name="Obrve" class="cls-9" d="M183.37,48.65c-16.9-8.52-24.6-.39-24.68-.31l-2.13-2c.37-.4,9.28-9.82,28.11-.31Z"/></g></g><path class="cls-10" d="M165,93.1a21.64,21.64,0,0,1-7.35,10.9c-1.38-6.86-26.65-4.19-26.73-4.18A31.85,31.85,0,0,1,127,93.1Z"/><path class="cls-11" d="M157.62,104h0a19,19,0,0,1-10.44,3.61c-7.92.47-13.15-3.77-16.29-7.79C131,99.81,156.24,97.14,157.62,104Z"/><polygon class="cls-10" points="130.89 99.82 130.89 99.82 130.89 99.82 130.89 99.82"/><polygon class="cls-5" points="127.03 93.1 128.11 95.48 164.16 95.48 164.97 93.1 127.03 93.1"/><path class="cls-4" d="M34.27,346.6,83,344.47v-157s-11.28-65-28.6-29.73Q40,256.48,34.27,346.6Z"/><path id="Pulover" class="cls-12" d="M238.89,156.66l-.41.06c-5.35.94-11.87,8.69-17.95,27.46L231.17,357H60.56L72.92,184.18c-6.09-18.77-12.6-26.52-18-27.46l-.41-.06c-12.85-1.45,19-21.59,38.64-21.59h16.22c5.33,13.8,20,23.71,37.3,23.71,17.08,0,31.61-9.66,37.1-23.2.08-.17.14-.34.21-.51h16.22C219.9,135.07,251.74,155.21,238.89,156.66Z"/><line id="Zadrga" class="cls-13" x1="146.73" y1="357.05" x2="146.73" y2="158.8"/><polygon id="Hlace" class="cls-14" points="231.17 357.03 223.09 408.49 197.23 623.76 168.41 633.98 146.99 406.86 146.73 406.86 122.34 633.98 122.23 633.98 93.48 623.79 68.34 407.49 60.56 357.03 231.17 357.03"/><path class="cls-15" d="M240.49,655.53H168.41V634l28.82-10.22s0,0,0,.08C196,636.11,206.51,638,206.51,638,250,633.93,240.49,655.53,240.49,655.53Z"/><path class="cls-15" d="M122.23,634v21.55H50.15s-9.51-21.6,34-17.56c0,0,10.59-1.87,9.27-14.21l.08,0Z"/><circle id="Gumb" class="cls-16" cx="159.1" cy="195.3" r="3.72"/><circle id="Gumb-2" data-name="Gumb" class="cls-16" cx="134.74" cy="195.3" r="3.72"/><circle id="Gumb-3" data-name="Gumb" class="cls-16" cx="159.1" cy="223.34" r="3.72"/><circle id="Gumb-4" data-name="Gumb" class="cls-16" cx="134.74" cy="223.34" r="3.72"/><circle id="Gumb-5" data-name="Gumb" class="cls-16" cx="159.1" cy="251.38" r="3.72"/><circle id="Gumb-6" data-name="Gumb" class="cls-16" cx="134.74" cy="251.38" r="3.72"/><circle id="Gumb-7" data-name="Gumb" class="cls-16" cx="159.1" cy="279.42" r="3.72"/><circle id="Gumb-8" data-name="Gumb" class="cls-16" cx="134.74" cy="279.42" r="3.72"/><circle id="Gumb-9" data-name="Gumb" class="cls-16" cx="159.1" cy="307.47" r="3.72"/><circle id="Gumb-10" data-name="Gumb" class="cls-16" cx="134.74" cy="307.47" r="3.72"/></g></g></svg>