<svg xmlns="http://www.w3.org/2000/svg" viewBox="0 0 277.84 608.78"><defs><style>.cls-1{fill:#fcc5aa;}.cls-2{fill:#dce6e0;}.cls-3{fill:#d9dceb;}.cls-4{fill:#eed1bf;}.cls-5{fill:#fff;}.cls-6{fill:#524935;}.cls-7{fill:#ebaf88;}.cls-8{fill:#ffebc6;}.cls-9{fill:#ffe6b4;}.cls-10{fill:#301812;}.cls-11{fill:#d55227;}.cls-12,.cls-13,.cls-15{fill:none;stroke-miterlimit:10;}.cls-12,.cls-13{stroke:#231f20;}.cls-12{stroke-width:0.62px;}.cls-13{stroke-width:0.56px;}.cls-14{fill:#00a881;}.cls-15{stroke:#499086;stroke-width:0.95px;}.cls-16{fill:#017dad;}.cls-17{fill:#44515d;}.cls-18{fill:#499086;}</style></defs><g id="Layer_2" data-name="Layer 2"><g id="Layer_1-2" data-name="Layer 1"><path id="Vrat" class="cls-1" d="M184,132.56l-.21.53c-5.49,13.54-20,23.2-37.1,23.2-17.29,0-32-9.91-37.3-23.71h-.15a18.31,18.31,0,0,0,12.53-7.4,18,18,0,0,0,2-3.72,25.58,25.58,0,0,0,1.79-8.83H164a36.91,36.91,0,0,0,1.89,8.82c1.18,3.37,3.09,7,6.14,9.24C174.87,132.85,178.86,133.86,184,132.56Z"/><ellipse class="cls-2" cx="138.92" cy="592.95" rx="138.92" ry="15.83"/><path class="cls-3" d="M259.18,344.09,210.41,342V185s11.28-65,28.6-29.73Q253.41,254,259.18,344.09Z"/><path id="Koza" class="cls-4" d="M200.83,62.06a133.55,133.55,0,0,1-7.42,25.57A49.25,49.25,0,0,1,96,85.72,155.45,155.45,0,0,1,89.36,61.6c-2.46-12.67,3.11-14.27,6.23-14.23V44.43A44.43,44.43,0,0,1,140,0h9.66a44.43,44.43,0,0,1,44.43,44.43v4.42C196.6,48.55,203.39,48.86,200.83,62.06Z"/><path class="cls-5" d="M134.2,55.68c.09-7.58-23.45-7.86-23.54-.29C110.57,62.23,134.11,62.52,134.2,55.68Z"/><path class="cls-5" d="M181.51,55.68c.09-7.58-23.45-7.86-23.54-.29C157.89,62.23,181.43,62.52,181.51,55.68Z"/><circle class="cls-6" cx="121.69" cy="55.26" r="3.89"/><circle class="cls-6" cx="169.74" cy="55.26" r="3.89"/><path id="Oci" class="cls-7" d="M109.19,55.84s10-10.05,27.7,0C136.89,55.84,121.5,38.82,109.19,55.84Z"/><path id="Oci-2" data-name="Oci" class="cls-7" d="M156.33,55.84s10-10.05,27.69,0C184,55.84,168.63,38.82,156.33,55.84Z"/><path id="Brki" class="cls-8" d="M165,93.09H127c1.23-4.43,4.25-8,9.5-10.49h4.36c1.25.59,8.06,3.63,10.44.49a1.07,1.07,0,0,0,.12-.49h3.62C160.2,85.57,163.65,89,165,93.09Z"/><path class="cls-4" d="M148.34,52.35l-.4,1.56C147.92,52.84,148,52.26,148.34,52.35Z"/><path id="Nos" class="cls-7" d="M147.87,85.06a19.66,19.66,0,0,1-7.44-2l.52-1c2.11,1.06,8,3.28,9.92.75.32-.84-.77-8-1.64-13.82-1.86-12.29-2.3-16.23-1.43-17a.74.74,0,0,1,.71-.15l-.34,1.11a.42.42,0,0,0,.44-.16c-.5,1,.8,9.68,1.76,16,1.62,10.7,2,13.92,1.42,14.69A4.65,4.65,0,0,1,147.87,85.06Z"/><g id="Obrve"><path class="cls-9" d="M137.39,47.55c-16.77-8.46-24.37-.65-24.69-.31l-2.12-2c.37-.41,9.28-9.82,28.11-.32Z"/></g><g id="Obrve-2" data-name="Obrve"><g id="Obrve-3" data-name="Obrve"><path id="Obrve-4" data-name="Obrve" class="cls-9" d="M183.37,48.65c-16.9-8.52-24.6-.39-24.68-.31l-2.13-2c.37-.4,9.28-9.82,28.11-.31Z"/></g></g><path class="cls-10" d="M165,93.1a21.64,21.64,0,0,1-7.35,10.9c-1.38-6.86-26.65-4.19-26.73-4.18A31.85,31.85,0,0,1,127,93.1Z"/><path class="cls-11" d="M157.62,104h0a19,19,0,0,1-10.44,3.61c-7.92.47-13.15-3.77-16.29-7.79C131,99.81,156.24,97.14,157.62,104Z"/><polygon class="cls-10" points="130.89 99.82 130.89 99.82 130.89 99.82 130.89 99.82"/><polygon class="cls-5" points="127.03 93.1 128.11 95.48 164.16 95.48 164.97 93.1 127.03 93.1"/><g id="Ocala"><path class="cls-12" d="M138.69,56.4s10.31-7.8,17.16,0"/><line class="cls-12" x1="98.4" y1="49.58" x2="109.15" y2="55.26"/><line class="cls-12" x1="196.14" y1="49.36" x2="185.39" y2="55.83"/><circle class="cls-13" cx="123.92" cy="56.4" r="14.77"/><circle class="cls-13" cx="170.62" cy="56.4" r="14.77"/></g><path class="cls-3" d="M34.27,344.09,83,342V185s-11.28-65-28.6-29.73Q40,254,34.27,344.09Z"/><path id="Pulover" class="cls-14" d="M238.89,154.15l-.41.06c-5.35.94-11.87,8.69-17.95,27.46V354.52H72.92V181.67c-6.09-18.77-12.6-26.52-18-27.46l-.41-.06c-12.85-1.45,19-21.59,38.64-21.59h16.22c5.33,13.8,20,23.71,37.3,23.71,17.08,0,31.61-9.66,37.1-23.2.08-.17.14-.34.21-.51h16.22C219.9,132.56,251.74,152.7,238.89,154.15Z"/><line id="Zadrga" class="cls-15" x1="146.73" y1="354.54" x2="146.73" y2="156.29"/><polygon id="Hlace" class="cls-16" points="220.4 354.17 220.4 393.21 197.23 563.23 168.41 571.24 146.99 393.21 146.73 393.21 122.34 571.24 122.23 571.24 93.48 563.25 72.92 393.21 72.92 354.17 220.4 354.17"/><path id="Koza-2" data-name="Koza" class="cls-4" d="M48.6,343.42S43.07,387,72.92,391.36v-49Z"/><path id="Koza-3" data-name="Koza" class="cls-4" d="M244.72,343.48s5.53,43.56-24.32,47.94v-49Z"/><path class="cls-17" d="M240.49,592.79H168.41V571.24L197.23,561s0,.05,0,.08c-1.25,12.27,9.29,14.13,9.29,14.13C250,571.19,240.49,592.79,240.49,592.79Z"/><path class="cls-17" d="M122.23,571.24v21.55H50.15s-9.51-21.6,34-17.56c0,0,10.59-1.87,9.27-14.21l.08,0Z"/><circle id="Gumb" class="cls-18" cx="159.1" cy="192.79" r="3.72"/><circle id="Gumb-2" data-name="Gumb" class="cls-18" cx="134.74" cy="192.79" r="3.72"/><circle id="Gumb-3" data-name="Gumb" class="cls-18" cx="159.1" cy="220.83" r="3.72"/><circle id="Gumb-4" data-name="Gumb" class="cls-18" cx="134.74" cy="220.83" r="3.72"/><circle id="Gumb-5" data-name="Gumb" class="cls-18" cx="159.1" cy="248.87" r="3.72"/><circle id="Gumb-6" data-name="Gumb" class="cls-18" cx="134.74" cy="248.87" r="3.72"/><circle id="Gumb-7" data-name="Gumb" class="cls-18" cx="159.1" cy="276.92" r="3.72"/><circle id="Gumb-8" data-name="Gumb" class="cls-18" cx="134.74" cy="276.92" r="3.72"/><circle id="Gumb-9" data-name="Gumb" class="cls-18" cx="159.1" cy="304.96" r="3.72"/><circle id="Gumb-10" data-name="Gumb" class="cls-18" cx="134.74" cy="304.96" r="3.72"/></g></g></svg>