<svg xmlns="http://www.w3.org/2000/svg" viewBox="0 0 208.42 677.04"><defs><style>.cls-1{fill:#eed1bf;}.cls-2{fill:#fbc5aa;}.cls-3{fill:#d8dcec;}.cls-4{fill:#074368;}.cls-12,.cls-5{fill:none;stroke-miterlimit:10;}.cls-5{stroke:#c1c0db;stroke-width:1.01px;}.cls-6{fill:#c4463a;}.cls-7{fill:#fff;}.cls-8{fill:#514835;}.cls-9{fill:#cabcdc;}.cls-10{fill:#ebaf89;}.cls-11{fill:#c1c0db;}.cls-12{stroke:#231f20;stroke-width:0.63px;}.cls-13{fill:#200600;}.cls-14{fill:#d55227;}</style></defs><g id="Layer_2" data-name="Layer 2"><g id="Avatar"><path id="Koza" class="cls-1" d="M15.41,323.63S9.52,370,41.3,374.67V322.5Z"/><path id="Koza-2" data-name="Koza" class="cls-1" d="M189.81,328.81s5.89,46.38-25.9,51V327.68Z"/><path id="Vrat" class="cls-2" d="M138.76,151.34c-5.1,12.81-18.42,22-34.07,22-15.37,0-28.5-8.84-33.8-21.31,4-1.14,12.58-5.35,13.09-20.48h35.3S122.52,155.29,138.76,151.34Z"/><path class="cls-3" d="M0,341.51l51.93-2V200.08s-12-61-30.45-27.87C11.26,233.9,4.16,285.13,0,341.51Z"/><path class="cls-3" d="M208.42,341.51l-51.94-2V200.08s12-61,30.46-27.87C197.16,233.9,204.26,285.13,208.42,341.51Z"/><path id="Koza-3" data-name="Koza" class="cls-1" d="M89.92,652.74l-30.69,4.17c3.61-2.34,5.93-4.17,5.93-4.17Z"/><path id="Koza-4" data-name="Koza" class="cls-1" d="M156.64,656.91,126,652.74h24.77S153,654.57,156.64,656.91Z"/><path id="cevlje" class="cls-4" d="M89.92,652.74v20.39h-15v-5.82s-33.06,12.16-47.57,9.29c0,0-16.55-2.23,8.86-11.39,19-6.85,22.83-8.27,22.83-8.27l.17,0h0Z"/><path id="cevlje-2" data-name="cevlje" class="cls-4" d="M188.51,676.6c-14.5,2.87-47.57-9.29-47.57-9.29v5.82H126V652.74l30.69,4.17h0l.17,0s3.83,1.42,22.84,8.27C205.06,674.37,188.51,676.6,188.51,676.6Z"/><path class="cls-5" d="M43.14,310.47c.14-12.1,61.31,48.45,119,0"/><polygon id="Hlace" class="cls-4" points="174.61 336.89 174.61 364.83 151.87 652.74 125.89 652.74 109.44 448.97 89.97 652.74 62.79 652.74 41.8 364.83 41.8 336.89 174.61 336.89"/><path id="Majica" class="cls-6" d="M189.55,171.27c-4.83.58-10.78,7.47-16.38,24.68,0,5,2.85,29.08-7.21,43.39-2.17,22.51,5.85,74.46,8.65,97.55-56.74,46.95-129,1.63-132.81,0,2.74-22.76,6.89-75.42,4.78-97.64-11.22-15.34-10.58-44-10.58-44-5.54-16.71-11.39-23.45-16.16-24C8,169.89,37.32,150.64,55.41,150.64H70.35q.25.69.54,1.35c5.3,12.47,18.43,21.31,33.8,21.31,15.65,0,29-9.15,34.07-22,.1-.23.19-.47.28-.7H154C172.07,150.64,201.39,169.89,189.55,171.27Z"/><path id="Koza-5" data-name="Koza" class="cls-1" d="M98.16,15h8.2a37.7,37.7,0,0,1,37.7,37.7v50.06a41.8,41.8,0,0,1-41.8,41.8h0a41.8,41.8,0,0,1-41.8-41.8V52.67A37.7,37.7,0,0,1,98.16,15Z"/><path class="cls-7" d="M90.71,75.33c.09-8-22.94-8.35-23-.3C67.6,82.3,90.63,82.6,90.71,75.33Z"/><path class="cls-7" d="M137,75.33c.09-8-22.93-8.35-23-.3C113.88,82.3,136.91,82.6,137,75.33Z"/><ellipse class="cls-8" cx="78.48" cy="74.89" rx="3.81" ry="4.14"/><ellipse class="cls-8" cx="125.48" cy="74.89" rx="3.81" ry="4.14"/><path id="Oci" class="cls-9" d="M66.25,75.5s9.78-10.67,27.09,0C93.34,75.5,78.29,57.43,66.25,75.5Z"/><path id="Oci-2" data-name="Oci" class="cls-9" d="M112.36,75.5s9.78-10.67,27.09,0C139.45,75.5,124.4,57.43,112.36,75.5Z"/><g id="Nos"><path class="cls-10" d="M104.37,102.73A25.5,25.5,0,0,1,96,100.81l.46-1.1c2.44,1,9.25,3.13,11.48.7.32-.83-.91-7.55-1.9-13-2.1-11.49-2.61-15.2-1.7-16a.81.81,0,0,1,.77-.2l-.3,1.16a.35.35,0,0,0,.38-.14c-.53,1,1,9.1,2,15,1.86,10.15,2.29,13.22,1.6,14A5.81,5.81,0,0,1,104.37,102.73Z"/></g><path id="Obrve" class="cls-11" d="M94.05,66.09c-16.86-9.23-24.66-.29-24.74-.2L68,64.77c.35-.42,8.81-10.12,26.91-.2Z"/><path id="Obrve-2" data-name="Obrve" class="cls-11" d="M139,67.27c-16.86-9.24-24.66-.3-24.74-.2L113,66c.35-.42,8.81-10.12,26.91-.21Z"/><g id="ocala"><rect class="cls-12" x="111.75" y="66.51" width="28.9" height="19.11" rx="8.59"/><rect class="cls-12" x="66.06" y="66.51" width="28.9" height="19.11" rx="8.59"/><path class="cls-12" d="M95,76.67s10.09-8.29,16.79,0"/><line class="cls-12" x1="60.46" y1="69.43" x2="66.06" y2="75.46"/><line class="cls-12" x1="144.05" y1="68.66" x2="140.65" y2="76.06"/></g><path id="Koza-6" data-name="Koza" class="cls-1" d="M143.35,68.25s10.48-3.18,7.43,13.86-7.43,27.6-7.43,27.6Z"/><path id="Koza-7" data-name="Koza" class="cls-1" d="M60.86,69.1S50.38,65.91,53.43,83s7.43,27.6,7.43,27.6Z"/><ellipse id="Uhani" class="cls-6" cx="60.46" cy="108.04" rx="3.31" ry="3.59"/><ellipse id="Uhani-2" data-name="Uhani" class="cls-6" cx="145.65" cy="107.91" rx="3.31" ry="3.59"/><path class="cls-13" d="M121,114a15.24,15.24,0,0,1-6.56,8.15C113.16,117,90.6,119,90.52,119a19,19,0,0,1-3.44-5A87.08,87.08,0,0,0,121,114Z"/><path class="cls-14" d="M114.4,122.1h0a19.32,19.32,0,0,1-9.33,2.69A18.06,18.06,0,0,1,90.52,119C90.6,119,113.16,117,114.4,122.1Z"/><polygon class="cls-13" points="90.52 118.97 90.52 118.97 90.52 118.97 90.52 118.97"/><path id="Lasje1" class="cls-11" d="M59,84.93c.25-2.33.57-4.69,1-7.06a45.6,45.6,0,0,1,5.45-18.13,32.65,32.65,0,0,1,3.48-5c2.28-1.58,4.06-5.13,6.6-5.93a25.1,25.1,0,0,1,4.19-1.72,29.53,29.53,0,0,1,4.35-1A92.8,92.8,0,0,1,95,46.42a28.28,28.28,0,0,1,9.94,2.76c1.56.46,3.13.92,4.69,1.34a42.1,42.1,0,0,1,5.82-.86,38.08,38.08,0,0,1,5.85,0,17,17,0,0,1,3,.07,15.89,15.89,0,0,1,2.85.62c4.3,1,6.07,4.55,9.36,6.63.63.77,1.24,1.58,1.82,2.43S139.46,61.13,140,62a42.91,42.91,0,0,1,2.61,5.59,44.56,44.56,0,0,1,1.74,5.66c.53,1.11,1.58,1.11,2.63,1.67,0-1.23.14-2.46.27-3.67s.31-2.43.51-3.64c7.41-7.4,15.49-16.28,14.74-28.06a16.93,16.93,0,0,0-.69-3.15,16.54,16.54,0,0,0-1.35-3.12,31.94,31.94,0,0,0-1.78-2.94c-3.27-4.82-7.85-9.18-12.24-13A27.91,27.91,0,0,1,145,14a25,25,0,0,0-1.4-2.29A24.1,24.1,0,0,0,142,9.62a22.11,22.11,0,0,0-2.6-2.42,33.73,33.73,0,0,0-11.88-4.56c-1.08-.2-2.16-.36-3.25-.48-8.7-1.47-17.56,3-26.61,1.77-1-.21-2-.45-3-.71s-2-.54-3-.82a24.22,24.22,0,0,0-26.85,4A29.63,29.63,0,0,0,55.91,20c-.59,1-1.21,1.9-1.82,2.86l-1.77,1.38a69.3,69.3,0,0,1-7.47,5.05,13.68,13.68,0,0,0-2,2.82,24.79,24.79,0,0,0-1.46,3.26c-.37,1-.71,2.1-1,3.17-2.33,8.56-2,17.83,5,24.31.78.77,1.56,1.51,2.36,2.24,3.93,3.66,8,7.18,8.55,12.53.45,1.55.89,3.09,1.34,4.6C58.42,83.94,59,84.93,59,84.93Z"/></g></g></svg>