<svg xmlns="http://www.w3.org/2000/svg" viewBox="0 0 208.42 642.79"><defs><style>.cls-1{fill:#eed1bf;}.cls-2{fill:#fcc5aa;}.cls-3{fill:#d9dceb;}.cls-4{fill:#074368;}.cls-14,.cls-5{fill:none;stroke-miterlimit:10;}.cls-5{stroke:#c1c0da;stroke-width:1.01px;}.cls-6{fill:#c4463a;}.cls-7{fill:#fff;}.cls-8{fill:#524935;}.cls-9{fill:#c9bcdd;}.cls-10{fill:#ebaf89;}.cls-11{fill:#c1c0da;}.cls-12{fill:#200600;}.cls-13{fill:#d55227;}.cls-14{stroke:#231f20;stroke-width:0.63px;}</style></defs><g id="Layer_2" data-name="Layer 2"><g id="Layer_1-2" data-name="Layer 1"><path id="Koza" class="cls-1" d="M15.41,328.56s-5.89,46.38,25.89,51V327.43Z"/><path id="Koza-2" data-name="Koza" class="cls-1" d="M189.81,333.74s5.89,46.38-25.9,51V332.61Z"/><path id="Vrat" class="cls-2" d="M138.76,148.54c-5.1,12.81-18.42,22-34.07,22-15.37,0-28.5-8.84-33.8-21.31,4-1.14,12.58-5.35,13.09-20.48h35.3S122.52,152.49,138.76,148.54Z"/><path class="cls-3" d="M0,346.44l51.93-2V197.28s-12-61-30.45-27.87Q6.15,261.95,0,346.44Z"/><path class="cls-3" d="M208.42,346.44l-51.94-2V197.28s12-61,30.46-27.87Q202.27,261.95,208.42,346.44Z"/><path id="Koza-3" data-name="Koza" class="cls-1" d="M89.92,618.49l-30.69,4.17c3.61-2.34,5.93-4.17,5.93-4.17Z"/><path id="Koza-4" data-name="Koza" class="cls-1" d="M156.64,622.66,126,618.49h24.77S153,620.32,156.64,622.66Z"/><path id="cevlje" class="cls-4" d="M89.92,618.49v20.39h-15v-5.82s-33.06,12.16-47.57,9.29c0,0-16.55-2.23,8.86-11.39,19-6.85,22.83-8.27,22.83-8.27l.17,0h0Z"/><path id="cevlje-2" data-name="cevlje" class="cls-4" d="M188.51,642.35c-14.5,2.87-47.57-9.29-47.57-9.29v5.82H126V618.49l30.69,4.17h0l.17,0s3.83,1.42,22.84,8.27C205.06,640.12,188.51,642.35,188.51,642.35Z"/><path class="cls-5" d="M43.14,315.4c.14-12.11,61.31,48.44,119,0"/><polygon id="Hlace" class="cls-4" points="174.61 341.82 174.61 369.76 151.87 618.49 125.89 618.49 109.44 414.72 89.97 618.49 62.79 618.49 41.8 369.76 41.8 341.82 174.61 341.82"/><path id="Majica" class="cls-6" d="M189.55,168.47c-4.83.58-10.78,7.47-16.38,24.68,0,4.95,2.85,36.81-7.21,51.12-2.17,22.51,5.85,74.46,8.65,97.55-56.74,46.95-129,1.63-132.81,0,2.74-22.76,6.89-75.42,4.78-97.64C35.36,228.84,36,192.49,36,192.49c-5.54-16.71-11.39-23.45-16.16-24C8,167.09,37.32,147.84,55.41,147.84H70.35q.25.69.54,1.35c5.3,12.47,18.43,21.31,33.8,21.31,15.65,0,29-9.15,34.07-22,.1-.23.19-.47.28-.7H154C172.07,147.84,201.39,167.09,189.55,168.47Z"/><path id="Koza-5" data-name="Koza" class="cls-1" d="M98.55,14h8.2a37.7,37.7,0,0,1,37.7,37.7v50.06a41.8,41.8,0,0,1-41.8,41.8h0a41.8,41.8,0,0,1-41.8-41.8V51.67A37.7,37.7,0,0,1,98.55,14Z"/><path class="cls-7" d="M91.1,74.34c.09-8-22.94-8.36-23-.31C68,81.3,91,81.6,91.1,74.34Z"/><path class="cls-7" d="M137.39,74.34c.09-8-22.94-8.36-23-.31C114.27,81.3,137.3,81.6,137.39,74.34Z"/><ellipse class="cls-8" cx="78.87" cy="73.89" rx="3.81" ry="4.14"/><ellipse class="cls-8" cx="125.87" cy="73.89" rx="3.81" ry="4.14"/><path id="Oci" class="cls-9" d="M66.64,74.5s9.78-10.67,27.09,0C93.73,74.5,78.68,56.43,66.64,74.5Z"/><path id="Oci-2" data-name="Oci" class="cls-9" d="M112.75,74.5s9.78-10.67,27.09,0C139.84,74.5,124.79,56.43,112.75,74.5Z"/><g id="Nos"><path class="cls-10" d="M104.76,101.73a25.86,25.86,0,0,1-8.42-1.91l.46-1.11c2.44,1,9.25,3.13,11.48.7.32-.83-.91-7.55-1.9-13-2.1-11.49-2.61-15.2-1.7-16a.78.78,0,0,1,.77-.19l-.3,1.16a.37.37,0,0,0,.38-.14c-.53,1,1,9.09,2,15,1.86,10.15,2.29,13.22,1.6,14A5.81,5.81,0,0,1,104.76,101.73Z"/></g><path id="Obrve" class="cls-11" d="M94.44,65.1c-16.86-9.24-24.66-.3-24.74-.21l-1.33-1.12c.35-.41,8.81-10.12,26.91-.2Z"/><path id="Obrve-2" data-name="Obrve" class="cls-11" d="M139.42,66.27c-16.86-9.24-24.66-.29-24.74-.2L113.35,65c.35-.42,8.81-10.12,26.91-.2Z"/><path class="cls-12" d="M121.35,113a15.23,15.23,0,0,1-6.56,8.14C113.55,116,91,118,90.91,118a19.45,19.45,0,0,1-3.44-5A87.28,87.28,0,0,0,121.35,113Z"/><path class="cls-13" d="M114.79,121.1h0a19.32,19.32,0,0,1-9.33,2.69A18.09,18.09,0,0,1,90.91,118C91,118,113.55,116,114.79,121.1Z"/><polygon class="cls-12" points="90.91 117.97 90.91 117.97 90.91 117.97 90.91 117.97"/><path id="Lasje" class="cls-11" d="M156.48,165.24s-5.39-1.23-9.25-14c-9.45-9.12-22.52-16.13-22.52-16.13,8.06-5,14.52-16.65,18.33-24,.14-6,1-12.52,1.59-19.91,5.8-68.52-40.06-48.71-42-48.56h0c-1.76-.1-46.79-19.69-41.94,48.56.52,7.36,1.79,13.9,1.94,19.86,5.21,9.14,15.5,22.5,15.5,22.5-5.51-3.78-12.91,4.31-18.89,13.26-3.82,17-10.4,18.45-10.4,18.45S21.46-6.67,102.65.2C183.84-6.67,156.48,165.24,156.48,165.24Z"/><path id="Koza-6" data-name="Koza" class="cls-1" d="M143.74,67.25s10.48-3.18,7.43,13.86-7.43,27.6-7.43,27.6Z"/><path id="Koza-7" data-name="Koza" class="cls-1" d="M62.73,69.73S52.24,66.54,55.3,83.59s7.43,27.6,7.43,27.6Z"/><ellipse id="Uhani" class="cls-6" cx="60.85" cy="107.04" rx="3.31" ry="3.59"/><ellipse id="Uhani-2" data-name="Uhani" class="cls-6" cx="146.05" cy="106.91" rx="3.31" ry="3.59"/><g id="ocala"><rect class="cls-14" x="112.14" y="65.51" width="28.9" height="19.11" rx="8.59"/><rect class="cls-14" x="66.45" y="65.51" width="28.9" height="19.11" rx="8.59"/><path class="cls-14" d="M95.35,75.67s10.1-8.28,16.79,0"/><line class="cls-14" x1="60.85" y1="68.43" x2="66.45" y2="74.46"/><line class="cls-14" x1="144.44" y1="67.67" x2="141.04" y2="75.06"/></g></g></g></svg>