<svg xmlns="http://www.w3.org/2000/svg" viewBox="0 0 277.84 747.63"><defs><style>.cls-1{fill:#dce6e0;}.cls-14,.cls-15,.cls-2{fill:#eed1bf;}.cls-3{fill:#fbc5aa;}.cls-4{fill:#d8dcec;}.cls-5,.cls-6{fill:#00a881;}.cls-6{stroke:#489086;stroke-width:0.95px;}.cls-14,.cls-15,.cls-6{stroke-miterlimit:10;}.cls-7{fill:#007dac;}.cls-8{fill:#44515c;}.cls-9{fill:#489086;}.cls-10{fill:#fff;}.cls-11{fill:#514835;}.cls-12{fill:#ebaf82;}.cls-13{fill:#ffebc6;}.cls-14{stroke:#ebaf82;stroke-width:1.15px;}.cls-15{stroke:#ffe6b4;stroke-width:2.89px;}.cls-16{fill:#5a3b34;}.cls-17{fill:#d55225;}</style></defs><g id="Layer_2" data-name="Layer 2"><g id="Avatar"><ellipse class="cls-1" cx="138.92" cy="731.8" rx="138.92" ry="15.83"/><path class="cls-2" d="M48.6,364S43.07,407.6,72.92,412V363Z"/><path class="cls-2" d="M244.72,364.1s5.53,43.56-24.32,47.94V363Z"/><path class="cls-3" d="M109.27,153.2s15.63-1.16,16.35-19.95H164s1.58,24.54,19.88,19.95l-1.66,14.11L144.83,182.2l-32.47-8.71-7.92-15.77Z"/><path class="cls-4" d="M259.18,364.71l-48.77-2.13v-157s11.28-65,28.6-29.73Q253.41,274.59,259.18,364.71Z"/><path class="cls-4" d="M34.27,364.71,83,362.58v-157s-11.28-65-28.6-29.73Q40,274.59,34.27,364.71Z"/><path class="cls-5" d="M200.25,153.2H184c-5.33,13.8-20,23.71-37.3,23.71s-32-9.91-37.31-23.71H93.2c-19.65,0-51.49,20.14-38.64,21.59,5.42.61,12.12,8.27,18.36,27.52L60.84,375.61l85.89-.45h86.11L220.53,202.31c6.24-19.25,12.94-26.91,18.36-27.52C251.74,173.34,219.9,153.2,200.25,153.2Z"/><line class="cls-6" x1="146.73" y1="375.16" x2="146.73" y2="176.91"/><rect class="cls-7" x="60.84" y="375.16" width="172" height="49.8"/><polygon class="cls-7" points="146.73 424.61 122.34 710.09 94.45 710.09 60.84 424.61 146.73 424.61"/><polygon class="cls-7" points="232.84 424.61 196.14 710.09 168.41 710.09 146.99 424.61 232.84 424.61"/><path class="cls-8" d="M168.41,710.09v21.55h72.08s9.51-21.6-34-17.56c0,0-10.59-1.87-9.28-14.21"/><path class="cls-8" d="M122.23,710.09v21.55H50.15s-9.51-21.6,34-17.56c0,0,10.59-1.87,9.27-14.21"/><circle class="cls-9" cx="159.1" cy="213.41" r="3.72"/><circle class="cls-9" cx="134.74" cy="213.41" r="3.72"/><circle class="cls-9" cx="159.1" cy="241.45" r="3.72"/><circle class="cls-9" cx="134.74" cy="241.45" r="3.72"/><circle class="cls-9" cx="159.1" cy="269.49" r="3.72"/><circle class="cls-9" cx="134.74" cy="269.49" r="3.72"/><circle class="cls-9" cx="159.1" cy="297.53" r="3.72"/><circle class="cls-9" cx="134.74" cy="297.53" r="3.72"/><circle class="cls-9" cx="159.1" cy="325.58" r="3.72"/><circle class="cls-9" cx="134.74" cy="325.58" r="3.72"/><path class="cls-2" d="M98.51,65.72s-11.5-3.22-8.15,14,8.15,27.87,8.15,27.87Z"/><path class="cls-2" d="M141,18.11h9.66a44.43,44.43,0,0,1,44.43,44.43v35a49.26,49.26,0,0,1-49.26,49.26h0A49.26,49.26,0,0,1,96.59,97.52v-35A44.43,44.43,0,0,1,141,18.11Z"/><path class="cls-10" d="M135.2,73.79c.09-7.58-23.45-7.86-23.54-.29C111.57,80.34,135.11,80.63,135.2,73.79Z"/><path class="cls-10" d="M182.51,73.79c.09-7.58-23.45-7.86-23.54-.29C158.89,80.34,182.43,80.63,182.51,73.79Z"/><circle class="cls-11" cx="122.69" cy="73.37" r="3.89"/><circle class="cls-11" cx="170.74" cy="73.37" r="3.89"/><path class="cls-12" d="M110.19,74s10-10.05,27.7,0C137.89,74,122.5,56.93,110.19,74Z"/><path class="cls-12" d="M157.33,74s10-10.05,27.69,0C185,74,169.63,56.93,157.33,74Z"/><path class="cls-13" d="M137.53,100.71c-5.25,2.49-8.27,6.06-9.5,10.5H166c-1.32-4.07-4.77-7.52-9.9-10.5Z"/><path class="cls-14" d="M141.69,100.61s8,4.06,10.64.59c1.14-1.5-5-31.36-3-30.73"/><path class="cls-15" d="M112.64,64.37s8.33-9.12,26.4,0"/><path class="cls-15" d="M158.62,65.48s8.33-9.12,26.4,0"/><path class="cls-16" d="M166,111.21a20.55,20.55,0,0,1-7.35,10.9c-1.38-6.86-26.65-4.19-26.73-4.18a26.46,26.46,0,0,1-3.86-6.72Z"/><path class="cls-17" d="M158.62,122.11h0a19,19,0,0,1-10.44,3.61c-7.92.47-13.15-3.77-16.29-7.79C132,117.92,157.24,115.25,158.62,122.11Z"/><polygon class="cls-16" points="131.89 117.93 131.89 117.93 131.89 117.93 131.89 117.93"/><path class="cls-2" d="M194.23,67.12s10.72-3,7.6,13-7.6,26-7.6,26Z"/><polygon class="cls-10" points="128.03 111.21 129.11 113.59 165.16 113.59 165.97 111.21 128.03 111.21"/><path class="cls-13" d="M205,165.24s-5.67-1.23-9.72-14c-9.94-9.12-23.4-12.62-23.4-12.62,8.47-5,15.46-20,19.46-27.39.16-6,.54-12.66,1.2-20,6.1-68.52-42.12-48.71-44.18-48.56h0c-2-.14-50.22-20-44.11,48.56.66,7.35,1,14,1.19,19.94,5.48,9.13,12.44,26.5,12.44,26.5-5.79-3.78-8.86.23-15.15,9.18-4,17-10.94,18.45-10.94,18.45S63-6.67,148.36.2C233.73-6.67,205,165.24,205,165.24Z"/></g></g></svg>