<svg xmlns="http://www.w3.org/2000/svg" viewBox="0 0 92.17 76.52"><defs><style>.cls-1{fill:#009899;}.cls-2{fill:#85bde1;}.cls-3{fill:#7d7b6c;}.cls-4{fill:#75a194;}.cls-5{fill:#bbd7ed;}.cls-6{fill:#ebb6d4;}.cls-7{fill:none;}</style></defs><title>bag</title><g id="Layer_2" data-name="Layer 2"><g id="Glavno_Besedilo" data-name="Glavno Besedilo"><path class="cls-1" d="M86.06,30.49C85.14,26.47,80,26,80,26H19.08s-5.19.42-6.11,4.44l-6.11,42s.42,3.77,5.36,4h74.6c4.94-.25,5.36-4,5.36-4Z"/><path class="cls-2" d="M19.08,26s-5.19.42-6.11,4.44l-2.6,17.89H88.66l-2.6-17.89C85.14,26.47,80,26,80,26Z"/><path class="cls-3" d="M62.61,26C59.19-1.95,48.79,0,47.24,0c-1.08,0-12-2-15.37,26h4.46S36,3.58,47.24,2.12C58.51,3.58,58.15,26,58.15,26Z"/><path class="cls-4" d="M79.2,30.49c-.92-4-6.11-4.44-6.11-4.44H12.22S7,26.47,6.11,30.49L0,72.5s.42,3.77,5.36,4H80c4.94-.25,5.36-4,5.36-4Z"/><path class="cls-5" d="M12.22,26S7,26.47,6.11,30.49L3.51,48.37H81.8L79.2,30.49c-.92-4-6.11-4.44-6.11-4.44Z"/><path class="cls-6" d="M22.7,52.6a3.26,3.26,0,0,1-3.26,3.26h0a3.26,3.26,0,0,1-3.26-3.26V50a3.26,3.26,0,0,1,3.26-3.26h0A3.26,3.26,0,0,1,22.7,50Z"/><path class="cls-6" d="M69.14,52.6a3.26,3.26,0,0,1-3.26,3.26h0a3.26,3.26,0,0,1-3.26-3.26V50a3.26,3.26,0,0,1,3.26-3.26h0A3.26,3.26,0,0,1,69.14,50Z"/><path class="cls-7" d="M73.09,26"/></g></g></svg>