<svg xmlns="http://www.w3.org/2000/svg" viewBox="0 0 129.53 36.23"><defs><style>.cls-1{fill:#c1c0db;}.cls-2{fill:#8988b8;}.cls-3{fill:#4e2c3d;}.cls-4{fill:#4a6aa3;}</style></defs><title>fish</title><g id="Layer_2" data-name="Layer 2"><g id="Glavno_Besedilo" data-name="Glavno Besedilo"><ellipse class="cls-1" cx="64.76" cy="18.11" rx="64.76" ry="18.11"/><path class="cls-2" d="M125.54,13.59S111.1-12,23.32,14.92L21,13.85l-1.55-.73c-.8-.31-1.58-.64-2.35-1s-1.53-.71-2.28-1.09C10.67,9.94,8,5.94,4,5.94c10.67,4,13.33,18.67,2.67,25.33,4-1.33,8-4,11.92-4.09q1.07-.24,2.17-.45c4.37-.81,9-1.18,12.57-.26C33.32,26.48,122.88,34,125.54,13.59Z"/><ellipse class="cls-3" cx="112.58" cy="8.89" rx="1.88" ry="1.25"/><path class="cls-4" d="M31.31,12.56a20,20,0,0,1,7.06.59,13.21,13.21,0,0,1,3.33,1.35,7.12,7.12,0,0,1,2.59,2.45A10.09,10.09,0,0,0,41.42,15a19,19,0,0,0-3.25-1.14c-1.11-.31-2.25-.54-3.39-.75S32.48,12.72,31.31,12.56Z"/><path class="cls-4" d="M40.12,10.37a20,20,0,0,1,7.06.59A13.21,13.21,0,0,1,50.5,12.3a7.12,7.12,0,0,1,2.59,2.45,10.09,10.09,0,0,0-2.86-1.93A19,19,0,0,0,47,11.68c-1.11-.31-2.25-.54-3.39-.75S41.29,10.53,40.12,10.37Z"/><path class="cls-4" d="M48.92,8.18A20,20,0,0,1,56,8.76a13.22,13.22,0,0,1,3.33,1.35,7.12,7.12,0,0,1,2.59,2.45A10.09,10.09,0,0,0,59,10.63a19,19,0,0,0-3.25-1.14c-1.11-.31-2.25-.54-3.39-.75S50.09,8.34,48.92,8.18Z"/><path class="cls-4" d="M57.73,6a20,20,0,0,1,7.06.59,13.22,13.22,0,0,1,3.33,1.35,7.12,7.12,0,0,1,2.59,2.45,10.09,10.09,0,0,0-2.86-1.93A19,19,0,0,0,64.59,7.3c-1.11-.31-2.25-.54-3.39-.75S58.9,6.15,57.73,6Z"/><path class="cls-4" d="M67.7,4.51a20,20,0,0,1,7.06.59,13.21,13.21,0,0,1,3.33,1.35,7.12,7.12,0,0,1,2.59,2.45A10.09,10.09,0,0,0,77.81,7a19,19,0,0,0-3.25-1.14c-1.11-.31-2.25-.54-3.39-.75S68.87,4.67,67.7,4.51Z"/><path class="cls-4" d="M77.26,3.26a20,20,0,0,1,7.06.59A13.22,13.22,0,0,1,87.65,5.2a7.12,7.12,0,0,1,2.59,2.45,10.09,10.09,0,0,0-2.86-1.93,19,19,0,0,0-3.25-1.14C83,4.26,81.87,4,80.73,3.82S78.43,3.42,77.26,3.26Z"/><path class="cls-4" d="M87.48,2.81a20,20,0,0,1,7.06.59,13.21,13.21,0,0,1,3.33,1.35,7.12,7.12,0,0,1,2.59,2.45,10.09,10.09,0,0,0-2.86-1.93,19,19,0,0,0-3.25-1.14c-1.11-.31-2.25-.54-3.39-.75S88.65,3,87.48,2.81Z"/></g></g></svg>