<svg xmlns="http://www.w3.org/2000/svg" viewBox="0 0 92.55 75.68"><defs><style>.cls-1{fill:#f99e4b;}.cls-2{fill:#eecdb5;}.cls-3{fill:#935226;}.cls-4{fill:#59b485;}.cls-5{fill:#b9dac5;}.cls-6{fill:#ee202e;}.cls-7{fill:#ab8105;}.cls-8{fill:#f6871f;}.cls-9{fill:#f2ccae;}</style></defs><title>hamburger</title><g id="Layer_2" data-name="Layer 2"><g id="Glavno_Besedilo" data-name="Glavno Besedilo"><path class="cls-1" d="M91.53,54.89A28.8,28.8,0,0,1,63.86,75.68H28.69A28.8,28.8,0,0,1,1,54.89,307.15,307.15,0,0,0,91.53,54.89Z"/><ellipse class="cls-2" cx="46.28" cy="54.25" rx="45.25" ry="4.73"/><path class="cls-3" d="M82.76,47.15v4.26c0,2.1-16.33,3.8-36.48,3.8S9.79,53.51,9.79,51.41V47.15c0-2.1,16.33-3.8,36.49-3.8S82.76,45,82.76,47.15Z"/><path class="cls-4" d="M1,47.45s3.8-6.08,11.61-1.78,15.62.12,15.62.12,6.94-3,12.15,1.82,12.15-.94,12.15-.94,5.9-2.47,10.24.15,12.85,0,12.85,0,6.6-4,12.15,0c0,0,2.92,1.89,4.76,0C85.37,46.14,46.88,27.16,1,47.45Z"/><path class="cls-5" d="M1,45.72s3.8-6.08,11.61-1.78,15.62.12,15.62.12,6.94-3,12.15,1.82,12.15-.94,12.15-.94,5.9-2.47,10.24.15,12.85,0,12.85,0,6.6-4,12.15,0c0,0,2.92,1.89,4.76,0C85.37,44.41,46.88,25.43,1,45.72Z"/><path class="cls-6" d="M82.76,34.24v4.26c0,2.1-16.33,3.8-36.48,3.8S9.79,40.6,9.79,38.51V34.24c0-2.1,16.33-3.8,36.49-3.8S82.76,32.15,82.76,34.24Z"/><path class="cls-7" d="M82.76,28.31v4.26c0,2.1-16.33,3.8-36.48,3.8S9.79,34.67,9.79,32.57V28.31c0-2.1,16.33-3.8,36.49-3.8S82.76,26.21,82.76,28.31Z"/><path class="cls-1" d="M92.55,27.71C62.35,35.38,31.46,35,0,27.71A28.78,28.78,0,0,1,28.69,1.19H63.86A28.78,28.78,0,0,1,92.55,27.71Z"/><ellipse class="cls-8" cx="46.28" cy="2.51" rx="23.99" ry="2.51"/><ellipse class="cls-9" cx="4.98" cy="21.29" rx="2.57" ry="0.93" transform="matrix(0.61, -0.79, 0.79, 0.61, -14.89, 12.16)"/><ellipse class="cls-9" cx="14.77" cy="20.13" rx="2.46" ry="0.89" transform="translate(-10.18 19.45) rotate(-52.17)"/><ellipse class="cls-9" cx="13.05" cy="12.01" rx="2.57" ry="0.93" transform="translate(-3.44 18.54) rotate(-64.23)"/><ellipse class="cls-9" cx="21.36" cy="24.61" rx="2.46" ry="0.89" transform="translate(-7.26 40.2) rotate(-77.63)"/><ellipse class="cls-9" cx="23.39" cy="15.11" rx="0.89" ry="2.46"/><ellipse class="cls-9" cx="31.9" cy="21.05" rx="2.46" ry="0.89" transform="translate(-4.29 33.34) rotate(-52.17)"/><ellipse class="cls-9" cx="30.17" cy="12.93" rx="2.57" ry="0.93" transform="translate(5.41 34.48) rotate(-64.23)"/><ellipse class="cls-9" cx="38.48" cy="25.54" rx="2.46" ry="0.89" transform="translate(5.29 57.65) rotate(-77.63)"/><ellipse class="cls-9" cx="40.52" cy="16.04" rx="0.89" ry="2.46"/><ellipse class="cls-9" cx="48.8" cy="20.29" rx="2.46" ry="0.89" transform="translate(2.85 46.39) rotate(-52.17)"/><ellipse class="cls-9" cx="47.07" cy="12.17" rx="2.57" ry="0.93" transform="translate(15.65 49.27) rotate(-64.23)"/><ellipse class="cls-9" cx="55.38" cy="24.77" rx="2.46" ry="0.89" transform="translate(19.32 73.55) rotate(-77.63)"/><ellipse class="cls-9" cx="57.41" cy="15.27" rx="0.89" ry="2.46"/><ellipse class="cls-9" cx="66.35" cy="20.25" rx="2.46" ry="0.89" transform="translate(21.25 72.96) rotate(-66.42)"/><ellipse class="cls-9" cx="62.67" cy="12.81" rx="2.57" ry="0.93" transform="translate(37.61 71.66) rotate(-78.48)"/><ellipse class="cls-9" cx="73.83" cy="22.97" rx="0.89" ry="2.46" transform="translate(-0.71 2.43) rotate(-1.88)"/><ellipse class="cls-9" cx="73.46" cy="13.27" rx="0.89" ry="2.46" transform="translate(-1.01 18.49) rotate(-14.25)"/><ellipse class="cls-9" cx="80.63" cy="25.3" rx="2.46" ry="0.89" transform="translate(53.38 105.28) rotate(-88.6)"/><ellipse class="cls-9" cx="68.06" cy="10.97" rx="0.93" ry="2.57" transform="translate(-0.85 12.78) rotate(-10.66)"/><ellipse class="cls-9" cx="85.55" cy="17.47" rx="0.89" ry="2.46" transform="translate(0.31 36.39) rotate(-24.06)"/><ellipse class="cls-9" cx="76.62" cy="9.03" rx="0.89" ry="2.46" transform="translate(9.61 47.27) rotate(-36.43)"/><ellipse class="cls-9" cx="21.23" cy="7.59" rx="2.57" ry="0.93" transform="translate(0.85 17.23) rotate(-45)"/></g></g></svg>