<svg xmlns="http://www.w3.org/2000/svg" viewBox="0 0 120.5 40.43"><defs><style>.cls-1{fill:#c1c0db;}.cls-2{fill:#76618e;}.cls-3{fill:#fcdcdb;}.cls-4{fill:#e8b3b1;}.cls-5{fill:#c73355;}</style></defs><title>meat</title><g id="Layer_2" data-name="Layer 2"><g id="Glavno_Besedilo" data-name="Glavno Besedilo"><ellipse class="cls-1" cx="60.25" cy="24.21" rx="60.25" ry="16.23"/><path class="cls-2" d="M23.75,27.24c.37-.56,27.13-5.38,22.65-11.44s14.13-11.21,24.67-9S103.58,16,91.7,22.31s-35.43,2.92-40.59,7.4C51.11,29.71,14.56,41.15,23.75,27.24Z"/><path class="cls-3" d="M21.62,25.85c.37-.56,27.13-5.38,22.65-11.44S58.4,3.2,68.94,5.44s32.52,9.19,20.63,15.47S54.14,23.83,49,28.31C49,28.31,12.43,39.75,21.62,25.85Z"/><path class="cls-3" d="M20.15,29.87v-5S85,17.87,93,12.25v5.17"/><path class="cls-4" d="M21.62,20.94C22,20.38,48.76,15.56,44.27,9.5S58.4-1.71,68.94.53,101.45,9.73,89.57,16,54.14,18.92,49,23.41C49,23.41,12.43,34.84,21.62,20.94Z"/><path class="cls-5" d="M26.2,20c.32-.49,23.58-4.68,19.68-9.94S58.16.34,67.32,2.29s28.25,8,17.93,13.44S54.46,18.27,50,22.16C50,22.16,18.21,32.1,26.2,20Z"/><path class="cls-4" d="M45.56,7.4S69.4,6.84,77,18.31C77,18.31,77,5.79,45.56,7.4Z"/></g></g></svg>