<svg xmlns="http://www.w3.org/2000/svg" viewBox="0 0 84.83 84.83"><defs><style>.cls-1{fill:#ffffec;stroke:#00a881;stroke-miterlimit:10;stroke-width:2.83px;}.cls-2{fill:#00a881;}</style></defs><g id="Layer_2" data-name="Layer 2"><g id="Glavno_Besedilo" data-name="Glavno Besedilo"><circle class="cls-1" cx="42.42" cy="42.42" r="41"/><path class="cls-2" d="M24.12,15.42a6.27,6.27,0,0,1,3.67,2.18c2.29,2.35,4.64,4.65,7,7s2.18,4.62,0,6.84l-3.43,3.43c-.26.25-.44.43-.22.86A39.54,39.54,0,0,0,49.62,53.88l3.72-3.79c2.24-2.25,4.69-2.24,6.94,0s4.52,4.55,6.81,6.8a7.37,7.37,0,0,1,2.22,3.22v1.59a9.31,9.31,0,0,1-.94,1.8,16.11,16.11,0,0,1-4.58,3.95,18.72,18.72,0,0,1-5.3,1.73H57.37c-1.38-.2-2.79-.31-4.15-.6a40.25,40.25,0,0,1-15.36-7.17A76.45,76.45,0,0,1,23.06,47,34,34,0,0,1,16.6,35.49c-.47-1.57-.72-3.2-1.07-4.8V27a25.6,25.6,0,0,1,1-4.13c1.39-3.4,3.31-6.38,7.14-7.48Z"/></g></g></svg>