<svg xmlns="http://www.w3.org/2000/svg" viewBox="0 0 82 82"><defs><style>.cls-1{fill:#00a881;}.cls-2{fill:#ffffec;}</style></defs><g id="Layer_2" data-name="Layer 2"><g id="Glavno_Besedilo" data-name="Glavno Besedilo"><circle class="cls-1" cx="41" cy="41" r="41"/><path class="cls-2" d="M22.7,14a6.32,6.32,0,0,1,3.67,2.18c2.29,2.36,4.64,4.65,7,7s2.19,4.62,0,6.83c-1.13,1.15-2.28,2.29-3.43,3.43-.25.25-.44.44-.22.87A39.63,39.63,0,0,0,48.2,52.47c1.2-1.23,2.46-2.52,3.73-3.8,2.23-2.25,4.69-2.24,6.93,0s4.52,4.55,6.81,6.8a7.49,7.49,0,0,1,2.22,3.22V60.3A9.55,9.55,0,0,1,67,62.1a16.38,16.38,0,0,1-4.58,3.95,18.89,18.89,0,0,1-5.31,1.73H56c-1.39-.19-2.79-.31-4.16-.59A40.34,40.34,0,0,1,36.44,60a76.69,76.69,0,0,1-14.8-14.44,34.15,34.15,0,0,1-6.46-11.5c-.47-1.57-.72-3.2-1.07-4.8V25.62a25.49,25.49,0,0,1,1-4.14c1.39-3.39,3.3-6.38,7.13-7.48Z"/></g></g></svg>