<svg xmlns="http://www.w3.org/2000/svg" viewBox="0 0 123.81 123.81"><defs><style>.cls-1{fill:#fdba61;}.cls-2{fill:#ffebc6;}.cls-3{fill:#fdc57a;stroke:#fdba61;stroke-miterlimit:10;stroke-width:0.58px;}.cls-4{fill:#ffe4b3;}.cls-5{fill:#d64a28;}.cls-6{fill:#13795f;}</style></defs><title>pizza</title><g id="Layer_2" data-name="Layer 2"><g id="Glavno_Besedilo" data-name="Glavno Besedilo"><circle class="cls-1" cx="61.9" cy="61.9" r="61.9"/><circle class="cls-2" cx="61.9" cy="61.9" r="56.73"/><line class="cls-3" x1="61.9" y1="3.8" x2="61.9" y2="120.01"/><line class="cls-3" x1="102.99" y1="20.82" x2="20.82" y2="102.99"/><line class="cls-3" x1="120.01" y1="61.9" x2="3.8" y2="61.9"/><line class="cls-3" x1="102.99" y1="102.99" x2="20.82" y2="20.82"/><path class="cls-4" d="M60,6.81a17.21,17.21,0,0,0-6.35,19.26c3.64,12.81-.21,17.34-.21,17.34s4.06,17,8.43,18.49V5.17Z"/><path class="cls-4" d="M99.54,21.62a17.21,17.21,0,0,0-18.11,9.13C74.94,42.39,69,42.87,69,42.87s-9.18,14.92-7.12,19L102,21.79Z"/><path class="cls-4" d="M117,60a17.21,17.21,0,0,0-19.26-6.35c-12.81,3.64-17.34-.21-17.34-.21s-17,4.06-18.49,8.43h56.73Z"/><path class="cls-4" d="M102.18,99.54a17.21,17.21,0,0,0-9.13-18.11C81.42,74.94,80.94,69,80.94,69S66,59.84,61.9,61.9L102,102Z"/><path class="cls-4" d="M63.78,117a17.21,17.21,0,0,0,6.35-19.26c-3.64-12.81.21-17.34.21-17.34s-4.06-17-8.43-18.49v56.73Z"/><path class="cls-4" d="M24.27,102.18a17.21,17.21,0,0,0,18.11-9.13c6.48-11.63,12.41-12.11,12.41-12.11S64,66,61.9,61.9L21.79,102Z"/><path class="cls-4" d="M6.81,63.78a17.21,17.21,0,0,0,19.26,6.35c12.81-3.64,17.34.21,17.34.21s17-4.06,18.49-8.43H5.17Z"/><path class="cls-4" d="M21.62,24.27a17.21,17.21,0,0,0,9.13,18.11c11.63,6.48,12.11,12.41,12.11,12.41S57.79,64,61.9,61.9L21.79,21.79Z"/><circle class="cls-5" cx="86.26" cy="25.87" r="5.06"/><circle class="cls-5" cx="34.56" cy="22.6" r="5.06"/><circle class="cls-5" cx="34.56" cy="50.23" r="5.06"/><circle class="cls-5" cx="100.78" cy="76.15" r="5.06"/><circle class="cls-5" cx="42.68" cy="103.63" r="5.06"/><circle class="cls-5" cx="16.9" cy="76.15" r="5.06"/><circle class="cls-5" cx="74.32" cy="89.15" r="5.06"/><circle class="cls-5" cx="93.64" cy="53.64" r="5.06"/><rect class="cls-6" x="66.67" y="19.18" width="7.79" height="3.28" rx="1.64" ry="1.64" transform="translate(25.52 -37.36) rotate(35.81)"/><rect class="cls-6" x="48.35" y="31.9" width="7.79" height="3.28" rx="1.64" ry="1.64" transform="translate(-9.53 27.37) rotate(-27)"/><rect class="cls-6" x="98.13" y="35.89" width="7.79" height="3.28" rx="1.64" ry="1.64" transform="translate(7.53 -16.22) rotate(9.44)"/><rect class="cls-6" x="77.92" y="66.04" width="7.79" height="3.28" rx="1.64" ry="1.64" transform="translate(-20.59 39.63) rotate(-24.28)"/><rect class="cls-6" x="70.82" y="101.35" width="7.79" height="3.28" rx="1.64" ry="1.64" transform="translate(88.53 -23.49) rotate(42.19)"/><rect class="cls-6" x="51.66" y="82.46" width="7.79" height="3.28" rx="1.64" ry="1.64" transform="translate(156.33 85.68) rotate(124.35)"/><rect class="cls-6" x="32.71" y="72.62" width="7.79" height="3.28" rx="1.64" ry="1.64" transform="matrix(-0.06, 1, -1, -0.06, 113.01, 42.38)"/><rect class="cls-6" x="10.78" y="47.91" width="7.79" height="3.28" rx="1.64" ry="1.64" transform="translate(62.77 68.43) rotate(127.93)"/></g></g></svg>