<svg xmlns="http://www.w3.org/2000/svg" viewBox="0 0 94.24 66.71"><defs><style>.cls-1{fill:#dfd5c8;}.cls-2{fill:#b29f82;}.cls-3{fill:none;}.cls-4{fill:#f1eedb;}.cls-5{fill:#523d33;}.cls-6{fill:#74584b;}.cls-7{fill:#d9d6d3;}</style></defs><title>rice</title><g id="Layer_2" data-name="Layer 2"><g id="Glavno_Besedilo" data-name="Glavno Besedilo"><path class="cls-1" d="M94.24,20.95a1.51,1.51,0,0,1,0,.21c-.22,1.54-2.8,3-7.13,4.2h0c-8.33,2.34-23.11,3.91-40,3.91C31.68,29.28,18,28,9.4,25.94,3.54,24.56.06,22.85,0,21v0c0,1,3.46,1.86,9.27,2.57,8.59,1.07,22.34,1.76,37.85,1.76,16.49,0,31-.78,39.43-2C91.4,22.63,94.22,21.82,94.24,20.95Z"/><path class="cls-2" d="M94.24,20.95a1.51,1.51,0,0,1,0,.21c-.22,1.54-2.8,3-7.13,4.2h0c-8.33,2.34-23.11,3.91-40,3.91C31.68,29.28,18,28,9.4,25.94,3.54,24.56.06,22.85,0,21v0c0-4.63,21.09-8.36,47.12-8.36S94.24,16.31,94.24,20.95Z"/><path class="cls-3" d="M94.21,21.19c0,.08-.14.35-.32.77"/><path class="cls-4" d="M76.78,28.84a7.66,7.66,0,0,1,4.1-.3c.44-.06.89-.13,1.35-.22,3.69-.71,7.81-2.44,6.9-6.8a7.21,7.21,0,0,0-.69-1.77A5.41,5.41,0,0,0,86.56,18,2.3,2.3,0,0,1,86,16.71a4.77,4.77,0,0,0-1.1-1.23,8,8,0,0,0-2.58-1.14c-.91-.36-1.83-.66-2.73-.93-4.09-2.57-10.81-1.22-12.68-6.23l-1.34-.91c-.45-.3-.9-.58-1.36-.86A10.39,10.39,0,0,0,63.07,4C59.39.1,53.47.09,48.7,0L47.52.13a5.39,5.39,0,0,0-2.42.66l-1.57.39c-3.68.95-7.41,2.07-11.19,2.68q-.86.14-1.72.24c-3.47,1.36-7.5,4.05-12.19,5.06-.47.12-.95.25-1.42.4a13.12,13.12,0,0,0-6.58,4.21A10.56,10.56,0,0,0,9.22,15a13,13,0,0,0-1,1.59c-.17.31-.33.64-.48,1-.35.44-.69.89-1,1.34-.85,1-2.57,2-3.38,3a1.7,1.7,0,0,0-.44,1,11,11,0,0,0,1.19,1,12.33,12.33,0,0,0,1.27.83A32,32,0,0,0,16.75,28l1.66.16c7.38.15,14.1,2.84,21.47,1.78l1.63-.06,4.22-.16,1.44,0c6.83,0,14.89,0,21.25.11.52.09,1,.18,1.55.23a9.91,9.91,0,0,0,6.15-1Z"/><path class="cls-5" d="M94.22,21.16C94,24.59,90.48,66.71,45.93,66.71c-9.55,0-17.12-1.94-23.11-5C72.3,67.11,91.24,28.07,93.89,22a1.8,1.8,0,0,0,.32-.77Z"/><path class="cls-6" d="M93.89,22C91.24,28.07,72.3,67.11,22.82,61.69.29,50.12,0,22.45,0,21c.06,1.86,3.54,3.57,9.4,4.95,8.6,2,22.29,3.34,37.72,3.34,16.85,0,31.64-1.56,40-3.91h0C90.66,24.36,93,23.2,93.89,22Z"/><ellipse class="cls-7" cx="19.36" cy="12.59" rx="1.74" ry="0.47" transform="translate(-3.41 16.44) rotate(-42.62)"/><ellipse class="cls-7" cx="36.98" cy="8.86" rx="1.74" ry="0.47" transform="translate(3.76 27.38) rotate(-42.62)"/><ellipse class="cls-7" cx="39.21" cy="16.32" rx="1.74" ry="0.47" transform="translate(-2.08 6.36) rotate(-9.03)"/><ellipse class="cls-7" cx="23.47" cy="20.45" rx="0.47" ry="1.74" transform="translate(-3.93 35.24) rotate(-69.42)"/><ellipse class="cls-7" cx="52.82" cy="10.82" rx="1.74" ry="0.47" transform="translate(13.23 47.43) rotate(-54.34)"/><ellipse class="cls-7" cx="64.39" cy="8.31" rx="0.47" ry="1.74" transform="translate(8.61 41.52) rotate(-38.12)"/><ellipse class="cls-7" cx="61.82" cy="16.81" rx="1.74" ry="0.47" transform="translate(-1.27 5.66) rotate(-5.19)"/><ellipse class="cls-7" cx="74.88" cy="13.77" rx="0.47" ry="1.74" transform="translate(41.64 82.26) rotate(-74.53)"/><ellipse class="cls-7" cx="76.01" cy="22.82" rx="1.74" ry="0.47" transform="translate(-2.94 30.91) rotate(-22.56)"/><ellipse class="cls-7" cx="51.13" cy="2.54" rx="1.74" ry="0.47" transform="translate(-0.02 4.64) rotate(-5.19)"/></g></g></svg>