<svg xmlns="http://www.w3.org/2000/svg" viewBox="0 0 108.4 74.56"><defs><style>.cls-1{fill:none;}.cls-2{fill:#dfd5c8;}.cls-3{fill:#b29f82;}.cls-4{fill:#59b485;}.cls-5{fill:#00a04f;}.cls-6{fill:#a2cda9;}.cls-7{fill:#523d33;}.cls-8{fill:#74584b;}.cls-9{fill:#5aa563;}.cls-10{fill:#008747;}</style></defs><title>salad</title><g id="Layer_2" data-name="Layer 2"><g id="Glavno_Besedilo" data-name="Glavno Besedilo"><path class="cls-1" d="M108.37,22.2c0,.1-.16.4-.37.89"/><path class="cls-2" d="M108.4,21.92a1.73,1.73,0,0,1,0,.24c-.25,1.78-3.23,3.44-8.21,4.83h0c-9.58,2.7-26.59,4.49-46,4.49-17.76,0-33.5-1.5-43.39-3.84C4.07,26.08.06,24.11,0,22v-.05c0,1.11,4,2.14,10.66,3,9.88,1.23,25.7,2,43.54,2,19,0,35.68-.9,45.36-2.26C105.13,23.86,108.38,22.93,108.4,21.92Z"/><path class="cls-3" d="M108.4,21.92a1.73,1.73,0,0,1,0,.24c-.25,1.78-3.23,3.44-8.21,4.83h0c-9.58,2.7-26.59,4.49-46,4.49-17.76,0-33.5-1.5-43.39-3.84C4.07,26.08.06,24.11,0,22v-.05c0-5.33,24.26-9.61,54.2-9.61S108.4,16.59,108.4,21.92Z"/><path class="cls-4" d="M11.37,27.27s-4.12-14.58,13.78-16S45.62,1.36,45.62,1.36s12.62-5,18.16,4.25,21.12,8,21.12,8,8.11,4.2,5.54,9.48S11.37,27.27,11.37,27.27Z"/><path class="cls-5" d="M7.28,26.35s-7.53-3.84-.87-8.87S8.63,10,8.63,10,14.81.78,23.89,7.44,30,22.84,43.5,21.93s17.37-4.06,17.37-4.06L71,16S45.72,36.9,24.37,32,7.28,26.35,7.28,26.35Z"/><path class="cls-6" d="M42.14,29.94s19.27-9.73,21.5-15.71S65.32,6,65.32,6,71,1.23,73.95,8.44s11.33,3.35,11.33,3.35,8.76-6.57,13,2.83,7.34,4.89,7.34,4.89S111,26.73,95.07,28.4a166.54,166.54,0,0,0-25.5,4.38l-34-1Z"/><path class="cls-7" d="M108.38,22.17c-.24,3.94-4.3,52.39-55.54,52.39-11,0-19.69-2.23-26.59-5.77C83.16,75,104.95,30.12,108,23.09a2.08,2.08,0,0,0,.37-.89A.08.08,0,0,0,108.38,22.17Z"/><path class="cls-8" d="M108,23.09c-3,7-24.83,51.94-81.75,45.7C.34,55.48,0,23.65,0,22c.06,2.14,4.07,4.1,10.81,5.69C20.7,30,36.44,31.51,54.2,31.51c19.38,0,36.39-1.8,46-4.49h0C104.27,25.85,107,24.52,108,23.09Z"/><path class="cls-9" d="M68.8,7a12.83,12.83,0,0,1,.79,5.44,14.08,14.08,0,0,1-1.41,5.42,13.62,13.62,0,0,1-3.41,4.44,14.32,14.32,0,0,1-2.25,1.63A19.93,19.93,0,0,1,60,25.08c.67-.64,1.4-1.15,2.05-1.76a23.37,23.37,0,0,0,1.85-1.87,17.51,17.51,0,0,0,2.87-4.25,18.32,18.32,0,0,0,1.61-4.89A25.77,25.77,0,0,0,68.8,7Z"/><path class="cls-10" d="M50.95,2.66a12.83,12.83,0,0,1-2.11,5.07,14.08,14.08,0,0,1-4,3.93,13.62,13.62,0,0,1-5.21,2.06,14.32,14.32,0,0,1-2.76.24,19.93,19.93,0,0,1-2.73-.3c.9-.2,1.79-.27,2.66-.46a23.37,23.37,0,0,0,2.55-.66A17.51,17.51,0,0,0,44,10.37,18.32,18.32,0,0,0,47.89,7,25.77,25.77,0,0,0,50.95,2.66Z"/><path class="cls-10" d="M58.18,3a12.83,12.83,0,0,1-.65,5.46,14.08,14.08,0,0,1-2.77,4.86,13.62,13.62,0,0,1-4.45,3.4,14.32,14.32,0,0,1-2.59,1,19.93,19.93,0,0,1-2.71.45c.81-.44,1.65-.74,2.44-1.16a23.36,23.36,0,0,0,2.27-1.33,17.51,17.51,0,0,0,3.88-3.36A18.32,18.32,0,0,0,56.41,8,25.77,25.77,0,0,0,58.18,3Z"/><path class="cls-9" d="M91.73,13.22a21.34,21.34,0,0,1-4.38,5.64A24.35,24.35,0,0,1,81.41,23c-.56.24-1.1.52-1.67.73L78,24.28c-.58.19-1.19.26-1.78.4l-.89.18c-.3,0-.61,0-.91.07a17.3,17.3,0,0,1-7.11-.81,33.91,33.91,0,0,0,6.9-.64,26.1,26.1,0,0,0,6.39-2.2,36.62,36.62,0,0,0,5.82-3.54A55.52,55.52,0,0,0,91.73,13.22Z"/></g></g></svg>