<svg xmlns="http://www.w3.org/2000/svg" viewBox="0 0 129.88 28.57"><defs><style>.cls-1{fill:#f99e4b;}.cls-2{fill:#eecdb5;}.cls-3{fill:#d27d8d;}.cls-4{fill:#59b485;}.cls-5{fill:#b9dac5;}.cls-6{fill:#ee202e;}.cls-7{fill:#ab8105;}.cls-8{fill:#e5e0be;}</style></defs><title>sandwich</title><g id="Layer_2" data-name="Layer 2"><g id="Glavno_Besedilo" data-name="Glavno Besedilo"><path class="cls-1" d="M128.24,18.63a14.4,14.4,0,0,1-13.7,9.94H13.92A14.39,14.39,0,0,1,.23,18.63Z"/><ellipse class="cls-2" cx="64.34" cy="18.63" rx="63.91" ry="2.16"/><path class="cls-3" d="M116.34,17v1.46c0,.72-22.58,1.3-50.44,1.3s-50.45-.58-50.45-1.3V17c0-.72,22.58-1.3,50.45-1.3S116.34,16.28,116.34,17Z"/><path class="cls-4" d="M3.34,17.1S8.6,15,19.39,16.49a92.64,92.64,0,0,0,21.6,0s9.6-1,16.8.62,16.8-.32,16.8-.32,8.16-.84,14.16.05,17.76,0,17.76,0,9.12-1.37,16.8,0a20.59,20.59,0,0,0,6.58,0C119.94,16.66,66.73,10.17,3.34,17.1Z"/><path class="cls-5" d="M3.34,16.51s5.26-2.08,16.05-.61a92.64,92.64,0,0,0,21.6,0s9.6-1,16.8.62,16.8-.32,16.8-.32,8.16-.84,14.16.05,17.76,0,17.76,0,9.12-1.37,16.8,0a20.59,20.59,0,0,0,6.58,0C119.94,16.06,66.73,9.58,3.34,16.51Z"/><path class="cls-6" d="M116.34,12.59V14c0,.72-22.58,1.3-50.44,1.3S15.45,14.76,15.45,14V12.59c0-.72,22.58-1.3,50.45-1.3S116.34,11.88,116.34,12.59Z"/><path class="cls-7" d="M116.34,10.56V12c0,.72-22.58,1.3-50.44,1.3S15.45,12.74,15.45,12V10.56c0-.72,22.58-1.3,50.45-1.3S116.34,9.85,116.34,10.56Z"/><path class="cls-1" d="M128.47,10.94H0A14.41,14.41,0,0,1,13.92.27H114.54A14.42,14.42,0,0,1,128.47,10.94Z"/><path class="cls-8" d="M11.19,6.17a5.44,5.44,0,0,1,1.69-3.34,8.94,8.94,0,0,1,3.24-2A14.19,14.19,0,0,1,17.93.27c.62-.11,1.24-.2,1.86-.25S21,0,21.65,0s1.23.13,1.84.25c-.61.16-1.2.27-1.8.37S20.52.91,19.93,1a25.4,25.4,0,0,0-3.36,1,12.06,12.06,0,0,0-3,1.58A8.12,8.12,0,0,0,11.19,6.17Z"/><path class="cls-8" d="M20.57,6.17a5.44,5.44,0,0,1,1.69-3.34,8.94,8.94,0,0,1,3.24-2A14.2,14.2,0,0,1,27.31.27c.62-.11,1.24-.2,1.86-.25S30.41,0,31,0s1.23.13,1.84.25c-.61.16-1.2.27-1.8.37S29.89.91,29.31,1a25.4,25.4,0,0,0-3.36,1,12.06,12.06,0,0,0-3,1.58A8.12,8.12,0,0,0,20.57,6.17Z"/><path class="cls-8" d="M29.94,6.17a5.44,5.44,0,0,1,1.69-3.34,8.94,8.94,0,0,1,3.24-2A14.19,14.19,0,0,1,36.69.27c.62-.11,1.24-.2,1.86-.25s1.24,0,1.86,0,1.23.13,1.84.25c-.61.16-1.2.27-1.8.37S39.27.91,38.69,1a25.41,25.41,0,0,0-3.36,1,12.07,12.07,0,0,0-3,1.58A8.12,8.12,0,0,0,29.94,6.17Z"/><path class="cls-8" d="M39.32,6.17A5.44,5.44,0,0,1,41,2.82a8.94,8.94,0,0,1,3.24-2A14.19,14.19,0,0,1,46.06.27C46.68.16,47.3.07,47.92,0s1.24,0,1.86,0S51,.15,51.62.27c-.61.16-1.2.27-1.8.37S48.65.91,48.06,1A25.4,25.4,0,0,0,44.7,2a12.06,12.06,0,0,0-3,1.58A8.12,8.12,0,0,0,39.32,6.17Z"/><path class="cls-8" d="M48.7,6.17a5.44,5.44,0,0,1,1.69-3.34,8.94,8.94,0,0,1,3.24-2A14.2,14.2,0,0,1,55.44.27C56.06.16,56.68.07,57.3,0s1.24,0,1.86,0S60.39.15,61,.27c-.61.16-1.2.27-1.8.37S58,.91,57.44,1a25.4,25.4,0,0,0-3.36,1,12.06,12.06,0,0,0-3,1.58A8.12,8.12,0,0,0,48.7,6.17Z"/><path class="cls-8" d="M58.07,6.17a5.44,5.44,0,0,1,1.69-3.34A8.94,8.94,0,0,1,63,.8,14.19,14.19,0,0,1,64.82.27c.62-.11,1.24-.2,1.86-.25s1.24,0,1.86,0,1.23.13,1.84.25c-.61.16-1.2.27-1.8.37S67.4.91,66.82,1a25.41,25.41,0,0,0-3.36,1,12.07,12.07,0,0,0-3,1.58A8.12,8.12,0,0,0,58.07,6.17Z"/><path class="cls-8" d="M67.45,6.17a5.44,5.44,0,0,1,1.69-3.34,8.94,8.94,0,0,1,3.24-2A14.19,14.19,0,0,1,74.2.27c.62-.11,1.24-.2,1.86-.25s1.24,0,1.86,0,1.23.13,1.84.25c-.61.16-1.2.27-1.8.37S76.78.91,76.2,1a25.4,25.4,0,0,0-3.36,1,12.06,12.06,0,0,0-3,1.58A8.12,8.12,0,0,0,67.45,6.17Z"/><path class="cls-8" d="M76.83,6.17a5.44,5.44,0,0,1,1.69-3.34,8.94,8.94,0,0,1,3.24-2A14.2,14.2,0,0,1,83.57.27c.62-.11,1.24-.2,1.86-.25s1.24,0,1.86,0,1.23.13,1.84.25c-.61.16-1.2.27-1.8.37S86.16.91,85.57,1a25.41,25.41,0,0,0-3.36,1,12.06,12.06,0,0,0-3,1.58A8.12,8.12,0,0,0,76.83,6.17Z"/><path class="cls-8" d="M86.21,6.17a5.44,5.44,0,0,1,1.69-3.34,8.94,8.94,0,0,1,3.24-2A14.19,14.19,0,0,1,93,.27c.62-.11,1.24-.2,1.86-.25s1.24,0,1.86,0,1.23.13,1.84.25c-.61.16-1.2.27-1.8.37S95.53.91,94.95,1a25.41,25.41,0,0,0-3.36,1,12.07,12.07,0,0,0-3,1.58A8.12,8.12,0,0,0,86.21,6.17Z"/><path class="cls-8" d="M95.58,6.17a5.44,5.44,0,0,1,1.69-3.34,8.94,8.94,0,0,1,3.24-2,14.19,14.19,0,0,1,1.82-.53c.62-.11,1.24-.2,1.86-.25s1.24,0,1.86,0,1.23.13,1.84.25c-.61.16-1.2.27-1.8.37s-1.17.26-1.76.36A25.4,25.4,0,0,0,101,2a12.06,12.06,0,0,0-3,1.58A8.12,8.12,0,0,0,95.58,6.17Z"/></g></g></svg>