<svg xmlns="http://www.w3.org/2000/svg" viewBox="0 0 110.4 48.1"><defs><style>.cls-1{fill:#c1c0db;}.cls-2{fill:#8c3c1f;}.cls-3{fill:#7e2706;}</style></defs><title>sausage</title><g id="Layer_2" data-name="Layer 2"><g id="Glavno_Besedilo" data-name="Glavno Besedilo"><ellipse class="cls-1" cx="55.2" cy="33.24" rx="55.2" ry="14.87"/><path class="cls-2" d="M83.16,3.85c-2.27,37.78-65,29.7-71.89,26.1a4.19,4.19,0,0,1,2.29-3.1,4,4,0,0,1,2.14-.6c8.31.46,55.35.35,58.46-18.06C74.93,3.68,79,.81,82.72,3.51A2,2,0,0,1,83.16,3.85Z"/><path class="cls-3" d="M16.25,34.85A7.51,7.51,0,0,1,12.19,33a4,4,0,0,1-.91-3.05c6.9,3.6,69.62,11.68,71.89-26.1C90.3,13,75.09,45.65,16.25,34.85Z"/><path class="cls-2" d="M78.83,2.57,78.08,0a1.24,1.24,0,0,0,1.78,0,.91.91,0,0,0,1.41,0s.31,1.77,1.48,1.28l-1.1,1.61Z"/><path class="cls-2" d="M93.53,10c-2.27,37.78-65,29.7-71.89,26.1A4.19,4.19,0,0,1,23.93,33a4,4,0,0,1,2.14-.6c8.31.46,55.35.35,58.46-18.06.77-4.51,4.85-7.38,8.56-4.68A2,2,0,0,1,93.53,10Z"/><path class="cls-3" d="M26.62,40.95a7.51,7.51,0,0,1-4.06-1.84A4,4,0,0,1,21.65,36c6.9,3.6,69.62,11.68,71.89-26.1C100.67,19.13,85.46,51.75,26.62,40.95Z"/><path class="cls-2" d="M89.2,8.67,88.45,6.1a1.24,1.24,0,0,0,1.78,0,.91.91,0,0,0,1.41,0S92,7.87,93.12,7.38L92,9Z"/></g></g></svg>