<svg xmlns="http://www.w3.org/2000/svg" viewBox="0 0 132.35 76"><defs><style>.cls-1{fill:#ecd2ab;}.cls-2{fill:#f2dfc3;}.cls-3{fill:#dfd5c8;}.cls-4{fill:#b29f82;}.cls-5{fill:#d5cf9e;}.cls-6{fill:none;}.cls-7{fill:#c27514;}</style></defs><title>soup</title><g id="Layer_2" data-name="Layer 2"><g id="Glavno_Besedilo" data-name="Glavno Besedilo"><path class="cls-1" d="M132.32,12c-.3,4.82-5.26,64-67.81,64-13.42,0-24-2.72-32.46-7,69.49,7.62,96.09-47.21,99.81-55.79a2.53,2.53,0,0,0,.45-1.08A.1.1,0,0,0,132.32,12Z"/><path class="cls-2" d="M131.86,13.16C128.14,21.74,101.54,76.57,32,69,.41,52.71,0,13.84,0,11.8c.08,2.61,5,5,13.2,6.95,12.07,2.85,31.3,4.69,53,4.69,23.67,0,44.43-2.19,56.13-5.49h0C127.31,16.53,130.67,14.9,131.86,13.16Z"/><path class="cls-3" d="M132.35,11.74a2.12,2.12,0,0,1,0,.3c-.31,2.17-3.94,4.2-10,5.9h0c-11.7,3.29-32.46,5.49-56.13,5.49-21.68,0-40.91-1.83-53-4.69C5,16.81.08,14.41,0,11.8v-.06c0,1.36,4.85,2.61,13,3.62,12.06,1.5,31.38,2.47,53.16,2.47,23.16,0,43.57-1.1,55.38-2.76C128.36,14.1,132.32,13,132.35,11.74Z"/><path class="cls-4" d="M132.35,11.74a2.12,2.12,0,0,1,0,.3c-.31,2.17-3.94,4.2-10,5.9h0c-11.7,3.29-32.46,5.49-56.13,5.49-21.68,0-40.91-1.83-53-4.69C5,16.81.08,14.41,0,11.8v-.06C0,5.23,29.62,0,66.17,0S132.35,5.23,132.35,11.74Z"/><path class="cls-5" d="M122.59,17a1.87,1.87,0,0,1-.28,1h0c-11.7,3.29-32.46,5.49-56.13,5.49-21.68,0-40.91-1.83-53-4.69A2.53,2.53,0,0,1,12.27,17a2.36,2.36,0,0,1,.75-1.6c4.3-4.65,27-8.17,54.41-8.17,26.81,0,49.16,3.38,54.13,7.88A2.67,2.67,0,0,1,122.59,17Z"/><path class="cls-6" d="M132.31,12.07c-.05.12-.19.49-.45,1.08"/><ellipse class="cls-7" cx="32.77" cy="14.34" rx="4.87" ry="1.32"/><ellipse class="cls-7" cx="108.47" cy="15.66" rx="4.87" ry="1.32"/><ellipse class="cls-7" cx="88.77" cy="11.72" rx="4.87" ry="1.32"/></g></g></svg>