<svg xmlns="http://www.w3.org/2000/svg" viewBox="0 0 141.22 52.94"><defs><style>.cls-1{fill:#aa9678;}.cls-2{fill:#8b7460;}.cls-3,.cls-4,.cls-5{fill:none;stroke-miterlimit:10;}.cls-3{stroke:#daccbf;}.cls-3,.cls-4{stroke-width:1.17px;}.cls-4{stroke:#cbbda9;}.cls-5{stroke:#f2dfc3;stroke-width:1.49px;}.cls-6{fill:#d73828;}.cls-7{fill:#e6aa67;}</style></defs><title>spaghetti</title><g id="Layer_2" data-name="Layer 2"><g id="Glavno_Besedilo" data-name="Glavno Besedilo"><ellipse class="cls-1" cx="70.61" cy="33.19" rx="70.61" ry="19.75"/><ellipse class="cls-2" cx="71.2" cy="32.08" rx="49.25" ry="13.77"/><path class="cls-3" d="M57.42,24.78l-4.2,0H51.47c-8.11,0-15.57-.07-21.79.49-7.63.7-15.73,1.44-16.09,4-.4,2.81,8.84,7.85,17.8,8.19,4,.15,7.75-.62,12-1.5,2.61-.53,3.68-.89,11-2.77,5.79-1.49,8.69-2.24,9.16-2.31,4.13-.67,6.85-.13,22.58,3.59,9,2.12,11.56,2.77,14,1,2.82-2.07,4.32-6.67,2.87-9-2.39-3.84-12.5-.86-16.08.2-11,3.26-10.82,7.11-18.56,9.39-13.51,4-27.5-3.84-36.36-8.79C28.06,25,23.53,22,23.74,21.58s7.06,2.87,15.55,6.53C54.7,34.75,71.62,42,74.64,37.76c2.17-3.08-4.88-9.28-2.3-14,2.25-4.1,10.77-5.2,17-2.2,9.33,4.48,9.7,16.19,15.31,16.18,3.92,0,7.89-5.74,6.89-8-1.3-2.94-12.17-2.38-20.67,2-6.31,3.25-7.82,6.79-11.29,6-4.4-1-4.37-7.28-10.72-9.79-2-.79-3.69-.79-7.08-.8-4.51,0-8.92,0-12.63,2.4C43.51,33.27,44,39.65,40.58,40c-3,.27-3.4-4.45-7.85-6.19-6.69-2.62-12.3,5.46-17.8,2.8C11.69,35,9.1,30,10.34,27c2.95-7.12,26.76-1.46,40.19-4.59a51.66,51.66,0,0,1,10.6-1.53c.5,0,2.64-.06,5.45,0,3.27.05,3.36.15,4.62.14,2.36,0,8.8-.11,13-4.4,1.23-1.25,1.09-1.66,1.91-2,2.59-1.08,5.4,2.34,11.67,6.59,4.75,3.22,8,5.45,9.38,4.4,1.89-1.47.21-9.52-3.06-10.39C99.91,14.07,97.55,26,88.23,29c-7.56,2.42-9.88-4.18-20.48-4.4-12.69-.26-15.49,9.08-29.85,8.79-5.06-.1-13.46-1.44-14.35-5.39-.69-3.06,3.2-7.2,7.08-9.19,7-3.58,10.48,1.53,23.35-.4,2.23-.33,2.28-.51,10.79-2.08,5.4-1,8.1-1.5,9.69-1.71a48.84,48.84,0,0,1,20.67,2c0-.21-13.69-7.38-29.85-4.6-5.47.94-8.3,2.52-15.31,2.6a106.5,106.5,0,0,1-14.35-.8c-5.52-.77-9.31-1.85-10.53,0a3.35,3.35,0,0,0,.19,3.6c3.26,3.92,16.56-8.88,31.58-7.19,7.38.83,13,4.92,16.65,8.19"/><path class="cls-4" d="M73.5,20.65l-4.2,0H67.56c-8.11,0-15.57-.07-21.79.49-7.63.7-15.73,1.44-16.09,4-.4,2.81,8.84,7.85,17.8,8.19,4,.15,7.75-.62,12-1.5,2.61-.53,3.68-.89,11-2.77,5.79-1.49,8.69-2.24,9.16-2.31,4.13-.67,6.85-.13,22.58,3.59,9,2.12,11.56,2.77,14,1,2.82-2.07,4.32-6.67,2.87-9-2.39-3.84-12.5-.86-16.08.2-11,3.26-10.82,7.11-18.56,9.39C70.9,35.81,56.91,28,48,23c-3.9-2.18-8.43-5.18-8.23-5.59S46.88,20.33,55.37,24c15.41,6.64,32.34,13.94,35.36,9.65,2.17-3.08-4.88-9.28-2.3-14,2.25-4.1,10.77-5.2,17-2.2,9.33,4.48,9.7,16.19,15.31,16.18,3.92,0,7.89-5.74,6.89-8-1.3-2.94-12.17-2.38-20.67,2-6.31,3.25-7.82,6.79-11.29,6-4.4-1-4.37-7.28-10.72-9.79-2-.79-3.69-.79-7.08-.8-4.51,0-8.92,0-12.63,2.4-5.67,3.7-5.16,10.08-8.61,10.39-3,.27-3.4-4.45-7.85-6.19C42.13,27,36.52,35.1,31,32.44c-3.25-1.57-5.84-6.58-4.59-9.59,2.95-7.12,26.76-1.46,40.19-4.59a51.66,51.66,0,0,1,10.6-1.53c.5,0,2.64-.06,5.45,0,3.27.05,3.36.15,4.62.14,2.36,0,8.8-.11,13-4.4,1.23-1.25,1.09-1.66,1.91-2,2.59-1.08,5.4,2.34,11.67,6.59,4.75,3.22,8,5.45,9.38,4.4,1.89-1.47.21-9.52-3.06-10.39-4.21-1.12-6.56,10.8-15.88,13.78-7.56,2.42-9.88-4.18-20.48-4.4C71.15,20.19,68.34,29.53,54,29.24c-5.06-.1-13.46-1.44-14.35-5.39-.69-3.06,3.2-7.2,7.08-9.19,7-3.58,10.48,1.53,23.35-.4,2.23-.33,2.28-.51,10.79-2.08,5.4-1,8.1-1.5,9.69-1.71a48.84,48.84,0,0,1,20.67,2c0-.21-13.69-7.38-29.85-4.6-5.47.94-8.3,2.52-15.31,2.6a106.5,106.5,0,0,1-14.35-.8c-5.52-.77-9.31-1.85-10.53,0a3.35,3.35,0,0,0,.19,3.6c3.26,3.92,16.56-8.88,31.58-7.19,7.38.83,13,4.92,16.65,8.19"/><path class="cls-5" d="M63.58,21.81l-5.32-.06H56.06c-10.26,0-19.72-.09-27.59.63-9.66.88-19.91,1.82-20.37,5-.51,3.56,11.2,9.94,22.53,10.37,5,.19,9.81-.79,15.24-1.9,3.31-.68,4.66-1.13,13.88-3.51,7.33-1.89,11-2.83,11.59-2.93,5.23-.85,8.67-.17,28.59,4.54,11.36,2.69,14.64,3.5,17.69,1.26,3.57-2.62,5.46-8.44,3.63-11.38-3-4.87-15.83-1.08-20.35.25-14,4.13-13.7,9-23.5,11.89-17.1,5-34.82-4.87-46-11.13-4.94-2.76-10.68-6.55-10.42-7.08S29.88,21.4,40.63,26c19.51,8.41,40.94,17.64,44.76,12.22,2.75-3.9-6.18-11.75-2.91-17.71C85.33,15.36,96.12,14,104,17.77c11.81,5.67,12.28,20.5,19.38,20.49,5,0,10-7.27,8.72-10.12-1.65-3.72-15.4-3-26.17,2.53-8,4.11-9.9,8.6-14.3,7.59C86.12,37,86.15,29,78.12,25.86c-2.52-1-4.67-1-9-1-5.71,0-11.29,0-16,3C46,32.56,46.63,40.64,42.26,41c-3.76.34-4.3-5.63-9.93-7.84-8.47-3.32-15.57,6.91-22.53,3.54C5.68,34.75,2.4,28.4,4,24.59c3.73-9,33.88-1.85,50.88-5.82a65.41,65.41,0,0,1,13.42-1.93c.63,0,3.34-.07,6.9,0,4.14.06,4.25.2,5.85.18,3,0,11.14-.13,16.48-5.56,1.55-1.58,1.38-2.1,2.42-2.53,3.28-1.36,6.84,3,14.78,8.35,6,4.08,10.16,6.89,11.87,5.56,2.39-1.86.27-12.05-3.88-13.15-5.33-1.41-8.3,13.68-20.11,17.45C93,30.18,90.08,21.83,76.67,21.56c-16.06-.33-19.61,11.5-37.8,11.13-6.4-.13-17-1.82-18.17-6.83-.88-3.87,4.05-9.11,9-11.64,8.82-4.53,13.26,1.93,29.56-.51,2.83-.42,2.89-.65,13.66-2.64,6.83-1.26,10.25-1.9,12.27-2.17a61.83,61.83,0,0,1,26.17,2.53c.06-.26-17.33-9.34-37.8-5.82C66.59,6.82,63,8.81,54.13,8.91A134.84,134.84,0,0,1,36,7.9c-7-1-11.79-2.34-13.33,0a4.24,4.24,0,0,0,.24,4.55c4.13,5,21-11.24,40-9.11,9.34,1,16.52,6.23,21.08,10.37"/><path class="cls-3" d="M85,24.78l4.2,0H90.9c8.11,0,15.57-.07,21.79.49,7.63.7,15.73,1.44,16.09,4,.4,2.81-8.84,7.85-17.8,8.19-4,.15-7.75-.62-12-1.5-2.61-.53-3.68-.89-11-2.77-5.79-1.49-8.69-2.24-9.16-2.31-4.13-.67-6.85-.13-22.58,3.59-9,2.12-11.56,2.77-14,1-2.82-2.07-4.32-6.67-2.87-9,2.39-3.84,12.5-.86,16.08.2C66.52,29.83,66.3,33.69,74,36c13.51,4,27.5-3.84,36.36-8.79,3.9-2.18,8.43-5.18,8.23-5.59s-7.06,2.87-15.55,6.53C87.67,34.75,70.75,42,67.73,37.76c-2.17-3.08,4.88-9.28,2.3-14-2.25-4.1-10.77-5.2-17-2.2-9.33,4.48-9.7,16.19-15.31,16.18-3.92,0-7.89-5.74-6.89-8,1.3-2.94,12.17-2.38,20.67,2,6.31,3.25,7.82,6.79,11.29,6,4.4-1,4.37-7.28,10.72-9.79,2-.79,3.69-.79,7.08-.8,4.51,0,8.92,0,12.63,2.4,5.67,3.7,5.16,10.08,8.61,10.39,3,.27,3.4-4.45,7.85-6.19,6.69-2.62,12.3,5.46,17.8,2.8C130.68,35,133.27,30,132,27c-2.95-7.12-26.76-1.46-40.19-4.59a51.66,51.66,0,0,0-10.6-1.53c-.5,0-2.64-.06-5.45,0-3.27.05-3.36.15-4.62.14-2.36,0-8.8-.11-13-4.4-1.23-1.25-1.09-1.66-1.91-2-2.59-1.08-5.4,2.34-11.67,6.59-4.75,3.22-8,5.45-9.38,4.4-1.89-1.47-.21-9.52,3.06-10.39C42.46,14.07,44.82,26,54.14,29c7.56,2.42,9.88-4.18,20.48-4.4,12.69-.26,15.49,9.08,29.85,8.79,5.06-.1,13.46-1.44,14.35-5.39.69-3.06-3.2-7.2-7.08-9.19-7-3.58-10.48,1.53-23.35-.4-2.23-.33-2.28-.51-10.79-2.08-5.4-1-8.1-1.5-9.69-1.71a48.84,48.84,0,0,0-20.67,2c0-.21,13.69-7.38,29.85-4.6,5.47.94,8.3,2.52,15.31,2.6a106.5,106.5,0,0,0,14.35-.8c5.52-.77,9.31-1.85,10.53,0a3.35,3.35,0,0,1-.19,3.6c-3.26,3.92-16.56-8.88-31.58-7.19-7.38.83-13,4.92-16.65,8.19"/><path class="cls-4" d="M68.87,20.65l4.2,0h1.74c8.11,0,15.57-.07,21.79.49,7.63.7,15.73,1.44,16.09,4,.4,2.81-8.84,7.85-17.8,8.19-4,.15-7.75-.62-12-1.5-2.61-.53-3.68-.89-11-2.77-5.79-1.49-8.69-2.24-9.16-2.31-4.13-.67-6.85-.13-22.58,3.59-9,2.12-11.56,2.77-14,1-2.82-2.07-4.32-6.67-2.87-9,2.39-3.84,12.5-.86,16.08.2,11,3.26,10.82,7.11,18.56,9.39,13.51,4,27.5-3.84,36.36-8.79,3.9-2.18,8.43-5.18,8.23-5.59S95.49,20.33,87,24c-15.41,6.64-32.34,13.94-35.36,9.65-2.17-3.08,4.88-9.28,2.3-14-2.25-4.1-10.77-5.2-17-2.2-9.33,4.48-9.7,16.19-15.31,16.18-3.92,0-7.89-5.74-6.89-8,1.3-2.94,12.17-2.38,20.67,2,6.31,3.25,7.82,6.79,11.29,6,4.4-1,4.37-7.28,10.72-9.79,2-.79,3.69-.79,7.08-.8,4.51,0,8.92,0,12.63,2.4,5.67,3.7,5.16,10.08,8.61,10.39,3,.27,3.4-4.45,7.85-6.19,6.69-2.62,12.3,5.46,17.8,2.8,3.25-1.57,5.84-6.58,4.59-9.59-2.95-7.12-26.76-1.46-40.19-4.59a51.66,51.66,0,0,0-10.6-1.53c-.5,0-2.64-.06-5.45,0-3.27.05-3.36.15-4.62.14-2.36,0-8.8-.11-13-4.4-1.23-1.25-1.09-1.66-1.91-2-2.59-1.08-5.4,2.34-11.67,6.59-4.75,3.22-8,5.45-9.38,4.4-1.89-1.47-.21-9.52,3.06-10.39,4.21-1.12,6.56,10.8,15.88,13.78,7.56,2.42,9.88-4.18,20.48-4.4,12.69-.26,15.49,9.08,29.85,8.79,5.06-.1,13.46-1.44,14.35-5.39.69-3.06-3.2-7.2-7.08-9.19-7-3.58-10.48,1.53-23.35-.4-2.23-.33-2.28-.51-10.79-2.08-5.4-1-8.1-1.5-9.69-1.71a48.84,48.84,0,0,0-20.67,2c0-.21,13.69-7.38,29.85-4.6,5.47.94,8.3,2.52,15.31,2.6a106.5,106.5,0,0,0,14.35-.8c5.52-.77,9.31-1.85,10.53,0a3.35,3.35,0,0,1-.19,3.6c-3.26,3.92-16.56-8.88-31.58-7.19-7.38.83-13,4.92-16.65,8.19"/><path class="cls-5" d="M78.79,21.81l5.32-.06h2.21c10.26,0,19.72-.09,27.59.63,9.66.88,19.91,1.82,20.37,5,.51,3.56-11.2,9.94-22.53,10.37-5,.19-9.81-.79-15.24-1.9-3.31-.68-4.66-1.13-13.88-3.51-7.33-1.89-11-2.83-11.59-2.93-5.23-.85-8.67-.17-28.59,4.54-11.36,2.69-14.64,3.5-17.69,1.26-3.57-2.62-5.46-8.44-3.63-11.38,3-4.87,15.83-1.08,20.35.25,14,4.13,13.7,9,23.5,11.89,17.1,5,34.82-4.87,46-11.13,4.94-2.76,10.68-6.55,10.42-7.08S112.49,21.4,101.74,26C82.23,34.44,60.8,43.67,57,38.25c-2.75-3.9,6.18-11.75,2.91-17.71C57,15.36,46.25,14,38.33,17.77,26.52,23.43,26,38.27,18.94,38.25c-5,0-10-7.27-8.72-10.12,1.65-3.72,15.4-3,26.17,2.53,8,4.11,9.9,8.6,14.3,7.59C56.25,37,56.22,29,64.25,25.86c2.52-1,4.67-1,9-1,5.71,0,11.29,0,16,3,7.18,4.68,6.53,12.76,10.9,13.15,3.76.34,4.3-5.63,9.93-7.84,8.47-3.32,15.57,6.91,22.53,3.54,4.11-2,7.39-8.33,5.81-12.14-3.73-9-33.88-1.85-50.88-5.82a65.41,65.41,0,0,0-13.42-1.93c-.63,0-3.34-.07-6.9,0-4.14.06-4.25.2-5.85.18-3,0-11.14-.13-16.48-5.56-1.55-1.58-1.38-2.1-2.42-2.53-3.28-1.36-6.84,3-14.78,8.35-6,4.08-10.16,6.89-11.87,5.56C13.4,21,15.52,10.77,19.67,9.67,25,8.26,28,23.35,39.78,27.12c9.57,3.06,12.51-5.29,25.93-5.56,16.06-.33,19.61,11.5,37.8,11.13,6.4-.13,17-1.82,18.17-6.83.88-3.87-4.05-9.11-9-11.64-8.82-4.53-13.26,1.93-29.56-.51-2.83-.42-2.89-.65-13.66-2.64-6.83-1.26-10.25-1.9-12.27-2.17a61.83,61.83,0,0,0-26.17,2.53C31,11.18,48.38,2.1,68.85,5.62c6.92,1.19,10.5,3.19,19.38,3.29a134.84,134.84,0,0,0,18.17-1c7-1,11.79-2.34,13.33,0a4.24,4.24,0,0,1-.24,4.55c-4.13,5-21-11.24-40-9.11C70.17,4.4,63,9.57,58.44,13.72"/><path class="cls-6" d="M69.83,1s-28.17.62-21.26,4.94,0,8.24,0,8.24,1.28,9.06,22.08,4.16,18.84,2.37,18.84,2.37,18.4-3.14,10.84-8.22-5-9.31-5-9.31S81.28-2.12,69.83,1Z"/><ellipse class="cls-7" cx="58.72" cy="6.66" rx="0.63" ry="2.58" transform="translate(40.3 62.81) rotate(-78.3)"/><ellipse class="cls-7" cx="71.2" cy="4.6" rx="2.58" ry="0.63" transform="translate(4.31 29.42) rotate(-24.06)"/><ellipse class="cls-7" cx="87.21" cy="3.15" rx="0.63" ry="2.58" transform="translate(78.95 90.03) rotate(-86.64)"/><ellipse class="cls-7" cx="79.99" cy="6.66" rx="2.58" ry="0.63"/><ellipse class="cls-7" cx="67.54" cy="8.88" rx="2.58" ry="0.63"/><ellipse class="cls-7" cx="57.57" cy="12.23" rx="2.58" ry="0.63" transform="translate(-1.28 13.11) rotate(-12.85)"/><ellipse class="cls-7" cx="90.86" cy="9.91" rx="0.63" ry="2.58" transform="translate(75.65 100.03) rotate(-86.64)"/><ellipse class="cls-7" cx="75.23" cy="12.68" rx="2.58" ry="0.63" transform="translate(-1.04 10.97) rotate(-8.28)"/></g></g></svg>