<svg xmlns="http://www.w3.org/2000/svg" xmlns:xlink="http://www.w3.org/1999/xlink" viewBox="0 0 277.84 776.86"><defs><style>.cls-1{fill:none;stroke:#0054a6;stroke-width:5.67px;}.cls-1,.cls-11,.cls-12,.cls-16{stroke-miterlimit:10;}.cls-2{clip-path:url(#clip-path);}.cls-3{fill:#dce6e0;}.cls-4{fill:#fbc5aa;}.cls-5{fill:#d8dcec;}.cls-11,.cls-12,.cls-6{fill:#eed1bf;}.cls-7{fill:#ffebc6;}.cls-8{fill:#fff;}.cls-9{fill:#514835;}.cls-10{fill:#ebaf82;}.cls-11{stroke:#ebaf82;stroke-width:1.15px;}.cls-12{stroke:#ffe6b4;stroke-width:2.89px;}.cls-13{fill:#5a3b34;}.cls-14{fill:#d55225;}.cls-15,.cls-16{fill:#0054a6;}.cls-16{stroke:#003d7b;stroke-width:0.95px;}.cls-17{fill:#007dac;}.cls-18{fill:#44515c;}.cls-19{fill:#003d7b;}</style><clipPath id="clip-path" transform="translate(34.01)"><circle class="cls-1" cx="111.83" cy="111.83" r="109"/></clipPath></defs><g id="Layer_2" data-name="Layer 2"><g id="Avatar"><g class="cls-2"><ellipse class="cls-3" cx="138.92" cy="761.03" rx="138.92" ry="15.83"/><path class="cls-4" d="M75.27,182.43s15.63-1.17,16.35-20H130s1.57,24.55,19.87,20l-1.65,14.1-37.39,14.89-32.48-8.71L70.43,187Z" transform="translate(34.01)"/><path class="cls-5" d="M225.18,393.93l-48.77-2.13v-157s11.27-65,28.6-29.73Q219.41,303.83,225.18,393.93Z" transform="translate(34.01)"/><path class="cls-6" d="M63.5,94.94s-11.49-3.22-8.15,14S63.5,136.8,63.5,136.8Z" transform="translate(34.01)"/><path class="cls-6" d="M140,47.33h9.66a44.43,44.43,0,0,1,44.43,44.43v35A49.26,49.26,0,0,1,144.85,176h0a49.26,49.26,0,0,1-49.26-49.26v-35A44.43,44.43,0,0,1,140,47.33Z"/><path class="cls-7" d="M69.19,106.49S70.7,130.21,93,140.43H131s22.67-22,22.67-33.94L160.1,108s3.4,15.19,1.4,30.87a64.39,64.39,0,0,1-1.21,6.72,40.77,40.77,0,0,1-1.17,5.64,31.89,31.89,0,0,1-1.94,5.13,35.84,35.84,0,0,1-2.68,4.52,30.27,30.27,0,0,1-3.45,4.06,47.5,47.5,0,0,1-2.72,4q-1.46,1.94-3.08,3.7a41.21,41.21,0,0,1-3.68,4.5c-5.82,6-12.4,11-20.11,13.16a28.93,28.93,0,0,1-4.75.94,14.31,14.31,0,0,1-9.82-1.72c-9.81-8.65-19-16.16-31-19.61a32.92,32.92,0,0,1-3.43-2.68,37.74,37.74,0,0,1-3.12-3.08,42.6,42.6,0,0,1-2.61-4,43.21,43.21,0,0,1-3.88-8.9c-.4-1.51-.74-3-1-4.6A68.33,68.33,0,0,1,61.09,128c-.08-2.27-.1-4.57-.06-6.76.12-6.58.87-12.18,3-13.28C69.57,105.07,69.19,106.49,69.19,106.49Z" transform="translate(34.01)"/><path class="cls-8" d="M100.19,103c.09-7.57-23.45-7.86-23.54-.28C76.57,109.57,100.11,109.85,100.19,103Z" transform="translate(34.01)"/><path class="cls-8" d="M147.51,103c.09-7.57-23.45-7.86-23.55-.28C123.88,109.57,147.42,109.85,147.51,103Z" transform="translate(34.01)"/><circle class="cls-9" cx="121.69" cy="102.59" r="3.89"/><circle class="cls-9" cx="169.74" cy="102.59" r="3.89"/><path class="cls-10" d="M75.19,103.17s10-10,27.69,0C102.88,103.17,87.5,86.15,75.19,103.17Z" transform="translate(34.01)"/><path class="cls-10" d="M122.32,103.17s10-10,27.7,0C150,103.17,134.63,86.15,122.32,103.17Z" transform="translate(34.01)"/><path class="cls-7" d="M102.52,129.93c-5.25,2.49-8.27,6.06-9.49,10.5H131c-1.31-4.07-4.76-7.52-9.89-10.5Z" transform="translate(34.01)"/><path class="cls-11" d="M106.69,129.84s8,4,10.64.58c1.13-1.49-5-31.36-3-30.73" transform="translate(34.01)"/><path class="cls-12" d="M77.64,93.6s8.32-9.13,26.4,0" transform="translate(34.01)"/><path class="cls-12" d="M123.62,94.7s8.32-9.12,26.4,0" transform="translate(34.01)"/><path class="cls-13" d="M131,140.43a20.58,20.58,0,0,1-7.34,10.91c-1.39-6.86-26.65-4.2-26.74-4.19A26.59,26.59,0,0,1,93,140.43Z" transform="translate(34.01)"/><path class="cls-14" d="M123.62,151.34h0a19,19,0,0,1-10.44,3.6c-7.92.47-13.15-3.77-16.29-7.79C97,147.14,122.23,144.48,123.62,151.34Z" transform="translate(34.01)"/><polygon class="cls-13" points="130.89 147.15 130.89 147.15 130.89 147.15 130.89 147.15"/><path class="cls-6" d="M159.23,96.34s10.71-3,7.59,13.06-7.59,26-7.59,26Z" transform="translate(34.01)"/><polygon class="cls-8" points="127.03 140.43 128.11 142.82 164.16 142.82 164.97 140.43 127.03 140.43"/><path class="cls-7" d="M69.19,106.49S65.85,82,76.67,72.29A14.38,14.38,0,0,1,80,70.05a11.75,11.75,0,0,1,2.18-.77c4-1.13,8.66-.56,12.82-.3,1.07.11,2.11.21,3.12.33C117.41,71.4,127.36,75,127.36,75s5.78-5.55-3.74-8.63,15.48-.38,22,13.28a93.41,93.41,0,0,1,8,26.8l5.6,1.51s14.87-38.55-2.82-51.8c-9.7-7.26-21.71-16.44-33.6-19.73-1.18-.33-2.37-.6-3.56-.81a31,31,0,0,0-3.17-.46,30.72,30.72,0,0,0-3.18-.11,26.53,26.53,0,0,0-6.46.57c-1.1.25-2.17.55-3.22.9s-2.07.75-3.07,1.19c-9.91,5-18.56,13.08-29.46,15.74-1,.31-2.08.66-3.07,1-4.93,1.94-8.84,4.93-9.17,11.16a28.73,28.73,0,0,0-.61,2.9,25.45,25.45,0,0,0-.23,5.91c0,.72.09,1.45.08,2.21C57.64,85,60.2,95.17,69.19,106.49Z" transform="translate(34.01)"/><path class="cls-5" d="M.26,393.93,49,391.8v-157s-11.27-65-28.6-29.73Q6,303.83.26,393.93Z" transform="translate(34.01)"/><path class="cls-15" d="M166.25,182.43H150c-5.32,13.79-20,23.71-37.3,23.71s-32-9.92-37.3-23.71H59.19c-19.65,0-51.49,20.14-38.63,21.59,5.41.61,12.11,8.26,18.35,27.51V404.39H186.52V231.53c6.25-19.25,12.95-26.9,18.36-27.51C217.74,202.57,185.89,182.43,166.25,182.43Z" transform="translate(34.01)"/><line class="cls-16" x1="146.73" y1="404.39" x2="146.73" y2="206.14"/><rect class="cls-17" x="72.92" y="404.39" width="147.48" height="49.8"/><polygon class="cls-17" points="146.73 453.83 122.34 739.32 94.45 739.32 72.92 453.83 146.73 453.83"/><polygon class="cls-17" points="220.4 453.83 196.14 739.32 168.41 739.32 146.99 453.83 220.4 453.83"/><path class="cls-6" d="M14.59,393.27S9.07,436.83,38.91,441.2v-49Z" transform="translate(34.01)"/><path class="cls-6" d="M210.72,393.33s5.52,43.56-24.32,47.93v-49Z" transform="translate(34.01)"/><path class="cls-18" d="M134.4,739.32v21.54h72.08s9.51-21.59-34-17.55c0,0-10.59-1.88-9.27-14.22" transform="translate(34.01)"/><path class="cls-18" d="M88.22,739.32v21.54H16.15s-9.51-21.59,34-17.55c0,0,10.6-1.88,9.28-14.22" transform="translate(34.01)"/><circle class="cls-19" cx="159.1" cy="242.63" r="3.72"/><circle class="cls-19" cx="134.74" cy="242.63" r="3.72"/><circle class="cls-19" cx="159.1" cy="270.68" r="3.72"/><circle class="cls-19" cx="134.74" cy="270.68" r="3.72"/><circle class="cls-19" cx="159.1" cy="298.72" r="3.72"/><circle class="cls-19" cx="134.74" cy="298.72" r="3.72"/><circle class="cls-19" cx="159.1" cy="326.76" r="3.72"/><circle class="cls-19" cx="134.74" cy="326.76" r="3.72"/><circle class="cls-19" cx="159.1" cy="354.8" r="3.72"/><circle class="cls-19" cx="134.74" cy="354.8" r="3.72"/></g><circle class="cls-1" cx="145.84" cy="111.83" r="109"/></g></g></svg>