<svg xmlns="http://www.w3.org/2000/svg" xmlns:xlink="http://www.w3.org/1999/xlink" viewBox="0 0 277.84 762.86"><defs><style>.cls-1{fill:none;stroke:#0054a6;stroke-width:5.67px;}.cls-1,.cls-7{stroke-miterlimit:10;}.cls-2{clip-path:url(#clip-path);}.cls-3{fill:#dce6e0;}.cls-4{fill:#fbc5aa;}.cls-5{fill:#d8dcec;}.cls-6,.cls-7{fill:#0054a6;}.cls-7{stroke:#003d7b;stroke-width:0.95px;}.cls-8{fill:#007dac;}.cls-9{fill:#eed1bf;}.cls-10{fill:#44515c;}.cls-11{fill:#003d7b;}.cls-12{fill:#fff;}.cls-13{fill:#514835;}.cls-14{fill:#ebaf88;}.cls-15{fill:#ffe6b4;}.cls-16{fill:#ffebc6;}.cls-17{fill:#301812;}.cls-18{fill:#d55227;}</style><clipPath id="clip-path" transform="translate(35.01)"><circle class="cls-1" cx="111.83" cy="111.83" r="109"/></clipPath></defs><g id="Layer_2" data-name="Layer 2"><g id="Avatar"><g class="cls-2"><ellipse class="cls-3" cx="138.92" cy="747.03" rx="138.92" ry="15.83"/><path class="cls-4" d="M74.27,168.43s15.63-1.17,16.35-20H129s1.57,24.55,19.87,20l-1.65,14.1-37.39,14.89-32.48-8.71L69.43,173Z" transform="translate(35.01)"/><path class="cls-5" d="M224.18,379.93l-48.77-2.13v-157s11.27-65,28.6-29.73Q218.41,289.83,224.18,379.93Z" transform="translate(35.01)"/><path class="cls-5" d="M-.74,379.93,48,377.8v-157s-11.27-65-28.6-29.73Q5,289.83-.74,379.93Z" transform="translate(35.01)"/><path class="cls-6" d="M165.25,168.43H149c-5.32,13.79-20,23.71-37.3,23.71s-32-9.92-37.3-23.71H58.19c-19.65,0-51.49,20.14-38.63,21.59,5.41.61,12.11,8.26,18.35,27.51V390.39H185.52V217.53c6.25-19.25,12.95-26.9,18.36-27.51C216.74,188.57,184.89,168.43,165.25,168.43Z" transform="translate(35.01)"/><line class="cls-7" x1="146.73" y1="390.39" x2="146.73" y2="192.14"/><rect class="cls-8" x="72.92" y="390.39" width="147.48" height="49.8"/><polygon class="cls-8" points="146.73 439.83 122.34 725.32 94.45 725.32 72.92 439.83 146.73 439.83"/><polygon class="cls-8" points="220.4 439.83 196.14 725.32 168.41 725.32 146.99 439.83 220.4 439.83"/><path class="cls-9" d="M13.59,379.27S8.07,422.83,37.91,427.2v-49Z" transform="translate(35.01)"/><path class="cls-9" d="M209.72,379.33s5.52,43.56-24.32,47.93v-49Z" transform="translate(35.01)"/><path class="cls-10" d="M133.4,725.32v21.54h72.08s9.51-21.59-34-17.55c0,0-10.59-1.88-9.27-14.22" transform="translate(35.01)"/><path class="cls-10" d="M87.22,725.32v21.54H15.15s-9.51-21.59,34-17.55c0,0,10.6-1.88,9.28-14.22" transform="translate(35.01)"/><circle class="cls-11" cx="159.1" cy="228.63" r="3.72"/><circle class="cls-11" cx="134.74" cy="228.63" r="3.72"/><circle class="cls-11" cx="159.1" cy="256.68" r="3.72"/><circle class="cls-11" cx="134.74" cy="256.68" r="3.72"/><circle class="cls-11" cx="159.1" cy="284.72" r="3.72"/><circle class="cls-11" cx="134.74" cy="284.72" r="3.72"/><circle class="cls-11" cx="159.1" cy="312.76" r="3.72"/><circle class="cls-11" cx="134.74" cy="312.76" r="3.72"/><circle class="cls-11" cx="159.1" cy="340.8" r="3.72"/><circle class="cls-11" cx="134.74" cy="340.8" r="3.72"/><path id="Koza" class="cls-9" d="M164.79,99.39A133.55,133.55,0,0,1,157.37,125,49.25,49.25,0,0,1,60,123.05a155.45,155.45,0,0,1-6.64-24.12c-2.46-12.67,3.11-14.27,6.23-14.23V81.76A44.43,44.43,0,0,1,104,37.33h9.66a44.43,44.43,0,0,1,44.43,44.43v4.42C160.56,85.88,167.35,86.19,164.79,99.39Z" transform="translate(35.01)"/><path class="cls-12" d="M98.16,93c.09-7.57-23.45-7.86-23.54-.28C74.54,99.57,98.08,99.85,98.16,93Z" transform="translate(35.01)"/><path class="cls-12" d="M145.47,93c.1-7.57-23.44-7.86-23.54-.28C121.85,99.57,145.39,99.85,145.47,93Z" transform="translate(35.01)"/><circle class="cls-13" cx="120.66" cy="92.59" r="3.89"/><circle class="cls-13" cx="168.71" cy="92.59" r="3.89"/><path id="Oci" class="cls-14" d="M73.15,93.17s10-10,27.7,0C100.85,93.17,85.46,76.15,73.15,93.17Z" transform="translate(35.01)"/><path id="Oci-2" data-name="Oci" class="cls-14" d="M120.29,93.17s10-10,27.69,0C148,93.17,132.6,76.15,120.29,93.17Z" transform="translate(35.01)"/><path class="cls-9" d="M112.3,89.68l-.4,1.56C111.88,90.17,112,89.59,112.3,89.68Z" transform="translate(35.01)"/><path id="Nos" class="cls-14" d="M111.84,122.4a19.47,19.47,0,0,1-7.44-2.05l.52-1c2.1,1.07,8,3.28,9.91.75.32-.84-.76-8-1.64-13.82-1.86-12.28-2.3-16.22-1.43-17a.73.73,0,0,1,.71-.14l-.34,1.1a.4.4,0,0,0,.44-.15c-.5,1,.81,9.67,1.76,16,1.62,10.7,2,13.93,1.42,14.69A4.64,4.64,0,0,1,111.84,122.4Z" transform="translate(35.01)"/><g id="Obrve"><path class="cls-15" d="M101.36,84.88c-16.77-8.46-24.38-.64-24.69-.3l-2.13-2c.37-.4,9.28-9.82,28.12-.31Z" transform="translate(35.01)"/></g><g id="Obrve-2" data-name="Obrve"><g id="Obrve-3" data-name="Obrve"><path id="Obrve-4" data-name="Obrve" class="cls-15" d="M147.33,86c-16.89-8.53-24.6-.4-24.68-.32l-2.13-1.94c.37-.41,9.28-9.82,28.12-.32Z" transform="translate(35.01)"/></g></g><path id="Lasje1" class="cls-16" d="M67.16,96.49S63.82,72,74.64,62.29A14.38,14.38,0,0,1,78,60.05a11.75,11.75,0,0,1,2.18-.77c4-1.13,8.66-.56,12.82-.3,1.07.11,2.11.21,3.12.33C115.38,61.4,125.33,65,125.33,65s5.78-5.55-3.74-8.63,15.47-.38,22,13.28a93,93,0,0,1,8,26.8l5.6,1.51s14.88-38.55-2.81-51.8c-9.7-7.26-21.71-16.44-33.6-19.73-1.19-.33-2.37-.6-3.56-.81a31.44,31.44,0,0,0-3.17-.46,30.72,30.72,0,0,0-3.18-.11,26.53,26.53,0,0,0-6.46.57c-1.1.25-2.17.55-3.22.9s-2.07.75-3.07,1.19c-9.91,5-18.56,13.08-29.46,15.74-1,.31-2.08.66-3.07,1-4.93,1.94-8.84,4.93-9.18,11.16-.24,1-.45,1.92-.6,2.9a25.45,25.45,0,0,0-.23,5.91c0,.72.09,1.45.08,2.21C55.61,75,58.16,85.17,67.16,96.49Z" transform="translate(35.01)"/><path id="Brki2" class="cls-16" d="M119.38,123.77s18.2,4.35,15.57,23.4S111,165.74,111,165.74s-25.43,1.47-26.06-18.57,12.57-22.49,15.66-23.4Z" transform="translate(35.01)"/><path class="cls-17" d="M128.93,130.43a21.59,21.59,0,0,1-7.34,10.91c-1.39-6.86-26.65-4.2-26.74-4.19A31.84,31.84,0,0,1,91,130.43Z" transform="translate(35.01)"/><path class="cls-18" d="M121.59,141.34h0a19,19,0,0,1-10.44,3.6c-7.92.47-13.15-3.77-16.29-7.79C94.94,137.14,120.2,134.48,121.59,141.34Z" transform="translate(35.01)"/><polygon class="cls-17" points="129.85 137.15 129.86 137.15 129.86 137.15 129.85 137.15"/><polygon class="cls-12" points="126 130.43 127.08 132.82 163.13 132.82 163.94 130.43 126 130.43"/></g><circle class="cls-1" cx="146.84" cy="111.83" r="109"/></g></g></svg>