<svg xmlns="http://www.w3.org/2000/svg" viewBox="0 0 157.13 76.76"><defs><style>.cls-1{fill:#c28710;}.cls-2{fill:#009899;}.cls-3{fill:#85bde1;}.cls-4{fill:#7d7b6c;}.cls-5{fill:#75a194;}.cls-6{fill:#bbd7ed;}.cls-7{fill:#ebb6d4;}</style></defs><title>Asset 23</title><g id="Layer_2" data-name="Layer 2"><g id="Glavno_Besedilo" data-name="Glavno Besedilo"><path class="cls-1" d="M157.05,60.58l-3.68-3.67a1.19,1.19,0,0,0-.86-.36H120.92a15.15,15.15,0,1,0,0,10.1h4.31a1.19,1.19,0,0,0,.86-.35L128.43,64a.5.5,0,0,1,.71,0l2.31,2.31a1.23,1.23,0,0,0,.86.35h3a1.21,1.21,0,0,0,.86-.35L138.52,64a.5.5,0,0,1,.71,0l1.82,1.8a1.2,1.2,0,0,0,1.71,0l1.82-1.8a.5.5,0,0,1,.71,0l2.33,2.31a1.17,1.17,0,0,0,.85.35h3a1.19,1.19,0,0,0,.86-.35L156,62.62a.3.3,0,0,0-.22-.51H124.24v-1h32.6A.31.31,0,0,0,157.05,60.58Zm-58.59,4a3,3,0,1,1,3-3A3,3,0,0,1,98.46,64.63Z"/><path class="cls-2" d="M86.06,30.49c-.92-4-6.11-4.44-6.11-4.44H19.08s-5.19.42-6.11,4.44l-6.11,42s.42,3.77,5.36,4H86.81c4.94-.25,5.36-4,5.36-4Z"/><path class="cls-3" d="M19.08,26.05s-5.19.42-6.11,4.44l-2.6,17.88H88.66l-2.6-17.88c-.92-4-6.11-4.44-6.11-4.44Z"/><path class="cls-4" d="M62.61,26.05C59.19-1.95,48.79,0,47.24,0c-1.08,0-12-2-15.37,26h4.46S36,3.58,47.24,2.12C58.51,3.58,58.15,26.05,58.15,26.05Z"/><path class="cls-5" d="M79.2,30.49c-.92-4-6.11-4.44-6.11-4.44H12.22S7,26.47,6.11,30.49L0,72.5s.42,3.77,5.36,4H80c4.94-.25,5.36-4,5.36-4Z"/><path class="cls-6" d="M12.22,26.05S7,26.47,6.11,30.49L3.51,48.37H81.8L79.2,30.49c-.92-4-6.11-4.44-6.11-4.44Z"/><path class="cls-7" d="M22.7,52.6a3.26,3.26,0,0,1-3.26,3.26h0a3.26,3.26,0,0,1-3.27-3.26V50a3.26,3.26,0,0,1,3.27-3.26h0A3.26,3.26,0,0,1,22.7,50Z"/><path class="cls-7" d="M69.14,52.6a3.26,3.26,0,0,1-3.26,3.26h0a3.26,3.26,0,0,1-3.27-3.26V50a3.26,3.26,0,0,1,3.27-3.26h0A3.26,3.26,0,0,1,69.14,50Z"/></g></g></svg>