<svg xmlns="http://www.w3.org/2000/svg" viewBox="0 0 297.13 88.84"><defs><style>.cls-1{fill:#009899;}.cls-2{fill:#85bde1;}.cls-3{fill:#7d7b6c;}.cls-4{fill:#75a194;}.cls-5{fill:#bbd7ed;}.cls-6{fill:#ebb6d4;}.cls-7{fill:#95715f;}.cls-8{fill:#826353;}.cls-9{fill:#a58678;}</style></defs><title>Asset 26</title><g id="Layer_2" data-name="Layer 2"><g id="Glavno_Besedilo" data-name="Glavno Besedilo"><path class="cls-1" d="M58,57.81c-.62-2.71-4.12-3-4.12-3h-41s-3.5.28-4.12,3L4.62,86.13s.29,2.54,3.61,2.71H58.52c3.33-.17,3.61-2.71,3.61-2.71Z"/><path class="cls-2" d="M12.86,54.82s-3.5.28-4.12,3L7,69.87H59.77L58,57.81c-.62-2.71-4.12-3-4.12-3Z"/><path class="cls-3" d="M42.21,54.82C39.9,35.94,32.89,37.28,31.84,37.28c-.73,0-8-1.34-10.36,17.54h3s-.24-15.15,7.35-16.13c7.6,1,7.36,16.13,7.36,16.13Z"/><path class="cls-4" d="M53.39,57.81c-.62-2.71-4.12-3-4.12-3h-41s-3.5.28-4.12,3L0,86.13s.28,2.54,3.61,2.71H53.9c3.33-.17,3.61-2.71,3.61-2.71Z"/><path class="cls-5" d="M8.24,54.82s-3.5.28-4.12,3L2.37,69.87H55.14L53.39,57.81c-.62-2.71-4.12-3-4.12-3Z"/><path class="cls-6" d="M15.3,72.71a2.19,2.19,0,0,1-2.2,2.2h0a2.2,2.2,0,0,1-2.2-2.2V71a2.21,2.21,0,0,1,2.2-2.21h0A2.2,2.2,0,0,1,15.3,71Z"/><path class="cls-6" d="M46.61,72.71a2.2,2.2,0,0,1-2.2,2.2h0a2.19,2.19,0,0,1-2.2-2.2V71a2.2,2.2,0,0,1,2.2-2.21h0A2.21,2.21,0,0,1,46.61,71Z"/><rect class="cls-7" x="175.43" y="8.93" width="112.73" height="5.97"/><rect class="cls-7" x="166.46" width="130.67" height="9.13"/><rect class="cls-8" x="169.59" y="8.93" width="7.73" height="79.74"/><rect class="cls-8" x="286.28" y="8.93" width="7.73" height="79.74"/><rect class="cls-8" x="177.32" y="8.93" width="108.96" height="1.91"/><rect class="cls-9" x="166.46" width="130.67" height="3.41"/></g></g></svg>