<svg xmlns="http://www.w3.org/2000/svg" viewBox="0 0 224.71 61.69"><defs><style>.cls-1{fill:#c28710;}.cls-2{fill:none;stroke:#4e2c3d;stroke-miterlimit:10;stroke-width:1.17px;}.cls-3{fill:#009899;}.cls-4{fill:#85bde1;}.cls-5{fill:#7d7b6c;}.cls-6{fill:#75a194;}.cls-7{fill:#bbd7ed;}.cls-8{fill:#ebb6d4;}</style></defs><title>Asset 8</title><g id="Layer_2" data-name="Layer 2"><g id="Glavno_Besedilo" data-name="Glavno Besedilo"><path class="cls-1" d="M130.45,49.09l-2.65-2.65a.88.88,0,0,0-.62-.26H104.36a10.94,10.94,0,1,0,0,7.3h3.12a.85.85,0,0,0,.62-.26l1.68-1.67a.36.36,0,0,1,.51,0L112,53.22a.87.87,0,0,0,.62.26h2.19a.88.88,0,0,0,.63-.26l1.67-1.67a.36.36,0,0,1,.51,0l1.31,1.31a.88.88,0,0,0,1.24,0l1.31-1.31a.37.37,0,0,1,.52,0l1.68,1.67a.82.82,0,0,0,.61.26h2.19a.85.85,0,0,0,.62-.26l2.66-2.65a.22.22,0,0,0-.16-.37H106.76v-.73H130.3A.22.22,0,0,0,130.45,49.09ZM88.14,52a2.19,2.19,0,1,1,2.19-2.19A2.18,2.18,0,0,1,88.14,52Z"/><circle class="cls-2" cx="168.7" cy="48.21" r="10.79"/><circle class="cls-2" cx="197.87" cy="48.21" r="10.79"/><path class="cls-2" d="M179.5,48.21s2.62-5,7.58,0"/><path class="cls-2" d="M208.67,48.21l9.76-5.53a3.82,3.82,0,0,1,5.7,3.32h0"/><path class="cls-2" d="M157.91,48.21l-9.77-5.53A3.81,3.81,0,0,0,142.45,46h0"/><path class="cls-3" d="M69.38,24.58C68.64,21.34,64.45,21,64.45,21H15.38s-4.18.34-4.92,3.58L5.53,58.45s.34,3,4.32,3.24H70c4-.2,4.32-3.24,4.32-3.24Z"/><path class="cls-4" d="M15.38,21s-4.18.34-4.92,3.58L8.36,39H71.48l-2.1-14.42C68.64,21.34,64.45,21,64.45,21Z"/><path class="cls-5" d="M50.48,21C47.72-1.57,39.34,0,38.08,0c-.87,0-9.63-1.59-12.39,21h3.6S29,2.88,38.08,1.71C47.17,2.88,46.88,21,46.88,21Z"/><path class="cls-6" d="M63.85,24.58C63.11,21.34,58.93,21,58.93,21H9.85s-4.18.34-4.92,3.58L0,58.45s.34,3,4.32,3.24H64.46c4-.2,4.32-3.24,4.32-3.24Z"/><path class="cls-7" d="M9.85,21s-4.18.34-4.92,3.58L2.83,39H66l-2.1-14.42C63.11,21.34,58.93,21,58.93,21Z"/><path class="cls-8" d="M18.3,42.4A2.63,2.63,0,0,1,15.67,45h0A2.63,2.63,0,0,1,13,42.4V40.29a2.63,2.63,0,0,1,2.63-2.63h0a2.63,2.63,0,0,1,2.63,2.63Z"/><path class="cls-8" d="M55.74,42.4A2.63,2.63,0,0,1,53.11,45h0a2.62,2.62,0,0,1-2.63-2.63V40.29a2.62,2.62,0,0,1,2.63-2.63h0a2.63,2.63,0,0,1,2.63,2.63Z"/></g></g></svg>