<svg xmlns="http://www.w3.org/2000/svg" viewBox="0 0 139.89 52.82"><defs><style>.cls-1{fill:none;stroke:#4e2c3d;stroke-miterlimit:10;stroke-width:0.98px;}.cls-2{fill:#009899;}.cls-3{fill:#85bde1;}.cls-4{fill:#7d7b6c;}.cls-5{fill:#75a194;}.cls-6{fill:#bbd7ed;}.cls-7{fill:#ebb6d4;}</style></defs><title>Asset 7</title><g id="Layer_2" data-name="Layer 2"><g id="Glavno_Besedilo" data-name="Glavno Besedilo"><circle class="cls-1" cx="93.06" cy="43.31" r="9.03"/><circle class="cls-1" cx="117.45" cy="43.31" r="9.03"/><path class="cls-1" d="M102.09,43.31s2.19-4.15,6.34,0"/><path class="cls-1" d="M126.48,43.31l8.16-4.62a3.19,3.19,0,0,1,4.77,2.78h0"/><path class="cls-1" d="M84,43.31l-8.16-4.62a3.19,3.19,0,0,0-4.76,2.78h0"/><path class="cls-2" d="M58,20.55c-.62-2.71-4.12-3-4.12-3h-41s-3.5.28-4.12,3L4.62,48.87s.29,2.54,3.61,2.71H58.52c3.33-.17,3.61-2.71,3.61-2.71Z"/><path class="cls-3" d="M12.86,17.56s-3.5.28-4.12,3L7,32.61H59.77L58,20.55c-.62-2.71-4.12-3-4.12-3Z"/><path class="cls-4" d="M42.21,17.56C39.9-1.31,32.89,0,31.84,0c-.73,0-8-1.33-10.36,17.54h3S24.25,2.41,31.84,1.43c7.6,1,7.36,16.13,7.36,16.13Z"/><path class="cls-5" d="M53.39,20.55c-.62-2.71-4.12-3-4.12-3h-41s-3.5.28-4.12,3L0,48.87s.28,2.54,3.61,2.71H53.9c3.33-.17,3.61-2.71,3.61-2.71Z"/><path class="cls-6" d="M8.24,17.56s-3.5.28-4.12,3L2.37,32.61H55.14L53.39,20.55c-.62-2.71-4.12-3-4.12-3Z"/><path class="cls-7" d="M15.3,35.45a2.19,2.19,0,0,1-2.2,2.2h0a2.2,2.2,0,0,1-2.2-2.2V33.69a2.2,2.2,0,0,1,2.2-2.2h0a2.19,2.19,0,0,1,2.2,2.2Z"/><path class="cls-7" d="M46.61,35.45a2.2,2.2,0,0,1-2.2,2.2h0a2.19,2.19,0,0,1-2.2-2.2V33.69a2.19,2.19,0,0,1,2.2-2.2h0a2.2,2.2,0,0,1,2.2,2.2Z"/></g></g></svg>