<svg xmlns="http://www.w3.org/2000/svg" viewBox="0 0 109.13 53.45"><defs><style>.cls-1{fill:#72c6a7;}.cls-2{fill:#04856f;}.cls-3{fill:#7b3500;}.cls-4{fill:#846026;}.cls-5{fill:#59411a;}.cls-6{fill:#009899;}.cls-7{fill:#85bde1;}.cls-8{fill:#7d7b6c;}.cls-9{fill:#75a194;}.cls-10{fill:#bbd7ed;}.cls-11{fill:#ebb6d4;}</style></defs><title>Asset 10</title><g id="Layer_2" data-name="Layer 2"><g id="Glavno_Besedilo" data-name="Glavno Besedilo"><rect class="cls-1" x="70.91" y="13.66" width="32.62" height="17.23" transform="translate(-1.38 6.35) rotate(-4.14)"/><path class="cls-2" d="M73.15,28.23l-.71-9.82a1.85,1.85,0,0,0,1.71-2l25.17-1.82a1.85,1.85,0,0,0,2,1.71l.71,9.82a1.85,1.85,0,0,0-1.71,2L75.13,29.94A1.85,1.85,0,0,0,73.15,28.23Z"/><rect class="cls-1" x="75.37" y="16.19" width="32.62" height="17.23" transform="translate(4.93 -13.85) rotate(8.88)"/><path class="cls-2" d="M76.63,27.44l1.52-9.73a1.84,1.84,0,0,0,2.11-1.54l24.94,3.9a1.84,1.84,0,0,0,1.54,2.11l-1.52,9.73a1.84,1.84,0,0,0-2.11,1.54l-24.94-3.9A1.85,1.85,0,0,0,76.63,27.44Z"/><rect class="cls-1" x="73.79" y="19" width="32.62" height="17.23"/><path class="cls-2" d="M75.64,32.55V22.7a1.84,1.84,0,0,0,1.84-1.85h25.24a1.85,1.85,0,0,0,1.85,1.85v9.85a1.84,1.84,0,0,0-1.85,1.84H77.48A1.84,1.84,0,0,0,75.64,32.55Z"/><rect class="cls-3" x="70.33" y="23.8" width="38.8" height="29.41" rx="2.77"/><path class="cls-4" d="M86.62,53.45V44.51A3.48,3.48,0,0,1,90.1,41h0a3.48,3.48,0,0,1,3.49,3.48v8.94Z"/><circle class="cls-5" cx="90.1" cy="44.75" r="2.27"/><path class="cls-6" d="M58,20.55c-.62-2.71-4.12-3-4.12-3h-41s-3.5.28-4.12,3L4.62,48.87s.29,2.54,3.61,2.71H58.52c3.33-.17,3.61-2.71,3.61-2.71Z"/><path class="cls-7" d="M12.86,17.56s-3.5.28-4.12,3L7,32.61H59.77L58,20.55c-.62-2.71-4.12-3-4.12-3Z"/><path class="cls-8" d="M42.21,17.56C39.9-1.31,32.89,0,31.84,0c-.73,0-8-1.33-10.36,17.54h3S24.25,2.41,31.84,1.43c7.6,1,7.36,16.13,7.36,16.13Z"/><path class="cls-9" d="M53.39,20.55c-.62-2.71-4.12-3-4.12-3h-41s-3.5.28-4.12,3L0,48.87s.28,2.54,3.61,2.71H53.9c3.33-.17,3.61-2.71,3.61-2.71Z"/><path class="cls-10" d="M8.24,17.56s-3.5.28-4.12,3L2.37,32.61H55.14L53.39,20.55c-.62-2.71-4.12-3-4.12-3Z"/><path class="cls-11" d="M15.3,35.45a2.19,2.19,0,0,1-2.2,2.2h0a2.2,2.2,0,0,1-2.2-2.2V33.69a2.2,2.2,0,0,1,2.2-2.2h0a2.19,2.19,0,0,1,2.2,2.2Z"/><path class="cls-11" d="M46.61,35.45a2.2,2.2,0,0,1-2.2,2.2h0a2.19,2.19,0,0,1-2.2-2.2V33.69a2.19,2.19,0,0,1,2.2-2.2h0a2.2,2.2,0,0,1,2.2,2.2Z"/></g></g></svg>