<svg xmlns="http://www.w3.org/2000/svg" viewBox="0 0 187.91 83.3"><defs><style>.cls-1{fill:#95715f;}.cls-2{fill:#826353;}.cls-3{fill:#a58678;}.cls-4{fill:#009899;}.cls-5{fill:#85bde1;}.cls-6{fill:#7d7b6c;}.cls-7{fill:#75a194;}.cls-8{fill:#bbd7ed;}.cls-9{fill:#ebb6d4;}</style></defs><title>Asset 5</title><g id="Layer_2" data-name="Layer 2"><g id="Glavno_Besedilo" data-name="Glavno Besedilo"><rect class="cls-1" x="75.93" y="8.22" width="103.73" height="5.49"/><rect class="cls-1" x="67.68" width="120.23" height="8.4"/><rect class="cls-2" x="70.56" y="8.22" width="7.11" height="73.37"/><rect class="cls-2" x="177.92" y="8.22" width="7.11" height="73.37"/><rect class="cls-2" x="77.67" y="8.22" width="100.25" height="1.76"/><rect class="cls-3" x="67.68" width="120.23" height="3.14"/><path class="cls-4" d="M58,52.27c-.62-2.71-4.12-3-4.12-3h-41s-3.5.28-4.12,3L4.62,80.59s.29,2.54,3.61,2.71H58.52c3.33-.17,3.61-2.71,3.61-2.71Z"/><path class="cls-5" d="M12.86,49.28s-3.5.28-4.12,3L7,64.32H59.77L58,52.27c-.62-2.71-4.12-3-4.12-3Z"/><path class="cls-6" d="M42.21,49.28C39.9,30.4,32.89,31.74,31.84,31.74c-.73,0-8-1.34-10.36,17.54h3s-.24-15.15,7.35-16.14c7.6,1,7.36,16.14,7.36,16.14Z"/><path class="cls-7" d="M53.39,52.27c-.62-2.71-4.12-3-4.12-3h-41s-3.5.28-4.12,3L0,80.59s.28,2.54,3.61,2.71H53.9c3.33-.17,3.61-2.71,3.61-2.71Z"/><path class="cls-8" d="M8.24,49.28s-3.5.28-4.12,3l-1.75,12H55.14l-1.75-12c-.62-2.71-4.12-3-4.12-3Z"/><path class="cls-9" d="M15.3,67.17a2.19,2.19,0,0,1-2.2,2.2h0a2.2,2.2,0,0,1-2.2-2.2V65.4a2.21,2.21,0,0,1,2.2-2.2h0a2.2,2.2,0,0,1,2.2,2.2Z"/><path class="cls-9" d="M46.61,67.17a2.2,2.2,0,0,1-2.2,2.2h0a2.19,2.19,0,0,1-2.2-2.2V65.4a2.2,2.2,0,0,1,2.2-2.2h0a2.21,2.21,0,0,1,2.2,2.2Z"/></g></g></svg>