<svg xmlns="http://www.w3.org/2000/svg" viewBox="0 0 239.88 83.06"><defs><style>.cls-1{fill:#72c6a7;}.cls-2{fill:#04856f;}.cls-3{fill:#7b3500;}.cls-4{fill:#846026;}.cls-5{fill:#59411a;}.cls-6{fill:#95715f;}.cls-7{fill:#826353;}.cls-8{fill:#a58678;}.cls-9{fill:#cfb98f;}.cls-10{fill:#b79c62;}.cls-11{fill:#c4ac78;}.cls-12{fill:#9b7d32;}</style></defs><title>Asset 3</title><g id="Layer_2" data-name="Layer 2"><g id="Glavno_Besedilo" data-name="Glavno Besedilo"><rect class="cls-1" x="76.88" y="41.38" width="32.62" height="17.23" transform="translate(-3.36 6.85) rotate(-4.14)"/><path class="cls-2" d="M79.12,56l-.71-9.83a1.84,1.84,0,0,0,1.71-2l25.17-1.82a1.85,1.85,0,0,0,2,1.71l.71,9.82a1.84,1.84,0,0,0-1.71,2L81.1,57.66A1.85,1.85,0,0,0,79.12,56Z"/><rect class="cls-1" x="81.34" y="43.91" width="32.62" height="17.23" transform="translate(9.28 -14.44) rotate(8.88)"/><path class="cls-2" d="M82.6,55.16l1.52-9.73a1.84,1.84,0,0,0,2.11-1.54l24.94,3.9a1.85,1.85,0,0,0,1.54,2.11l-1.52,9.73a1.84,1.84,0,0,0-2.11,1.54l-24.94-3.9A1.84,1.84,0,0,0,82.6,55.16Z"/><rect class="cls-1" x="79.76" y="46.72" width="32.62" height="17.23"/><path class="cls-2" d="M81.61,60.26V50.41a1.84,1.84,0,0,0,1.84-1.84h25.24a1.84,1.84,0,0,0,1.85,1.84v9.85a1.85,1.85,0,0,0-1.85,1.85H83.45A1.84,1.84,0,0,0,81.61,60.26Z"/><rect class="cls-3" x="76.3" y="51.52" width="38.8" height="29.41" rx="2.77"/><path class="cls-4" d="M92.59,81.17V72.23a3.48,3.48,0,0,1,3.48-3.49h0a3.49,3.49,0,0,1,3.49,3.49v8.94Z"/><circle class="cls-5" cx="96.07" cy="72.47" r="2.27"/><rect class="cls-6" x="127.9" y="8.22" width="103.73" height="5.49"/><rect class="cls-6" x="119.65" width="120.23" height="8.4"/><rect class="cls-7" x="122.53" y="8.22" width="7.11" height="73.37"/><rect class="cls-7" x="229.89" y="8.22" width="7.11" height="73.37"/><rect class="cls-7" x="129.64" y="8.22" width="100.25" height="1.76"/><rect class="cls-8" x="119.65" width="120.23" height="3.14"/><rect class="cls-9" y="47.59" width="55.53" height="35.47"/><polygon class="cls-10" points="55.53 83.06 69.1 74.01 69.1 41.87 55.53 47.59 55.53 83.06"/><polygon class="cls-11" points="0 47.59 55.53 47.59 69.1 41.87 15.74 41.87 0 47.59"/><polygon class="cls-12" points="25.92 47.59 25.92 67.74 30.65 67.74 30.65 47.51 25.92 47.59"/></g></g></svg>