<svg xmlns="http://www.w3.org/2000/svg" viewBox="0 0 225.66 41.49"><defs><style>.cls-1{fill:#c28710;}.cls-2{fill:none;stroke:#4e2c3d;stroke-miterlimit:10;stroke-width:1.32px;}.cls-3{fill:#72c6a7;}.cls-4{fill:#04856f;}.cls-5{fill:#7b3500;}.cls-6{fill:#846026;}.cls-7{fill:#59411a;}</style></defs><title>Asset 25</title><g id="Layer_2" data-name="Layer 2"><g id="Glavno_Besedilo" data-name="Glavno Besedilo"><path class="cls-1" d="M167.58,27.26,164.36,24a1.07,1.07,0,0,0-.76-.32H135.86a13.3,13.3,0,1,0,0,8.88h3.79a1,1,0,0,0,.75-.32l2-2a.45.45,0,0,1,.63,0l2,2a1.07,1.07,0,0,0,.76.32h2.66a1.07,1.07,0,0,0,.76-.32l2-2a.44.44,0,0,1,.62,0l1.6,1.59a1.05,1.05,0,0,0,1.5,0l1.6-1.59a.44.44,0,0,1,.62,0l2,2a1,1,0,0,0,.75.32h2.67a1,1,0,0,0,.75-.32l3.23-3.22a.27.27,0,0,0-.2-.46H138.77v-.88H167.4A.27.27,0,0,0,167.58,27.26Zm-51.44,3.56a2.67,2.67,0,1,1,2.66-2.66A2.66,2.66,0,0,1,116.14,30.82Z"/><circle class="cls-2" cx="30.32" cy="28.64" r="12.19"/><circle class="cls-2" cx="63.27" cy="28.64" r="12.19"/><path class="cls-2" d="M42.51,28.64s3-5.61,8.57,0"/><path class="cls-2" d="M75.47,28.64l11-6.25a4.31,4.31,0,0,1,6.43,3.76h0"/><path class="cls-2" d="M18.13,28.64l-11-6.25A4.32,4.32,0,0,0,.66,26.15h0"/><rect class="cls-3" x="187.44" y="1.15" width="32.62" height="17.23" transform="translate(-0.17 14.72) rotate(-4.14)"/><path class="cls-4" d="M189.68,15.73,189,5.9a1.84,1.84,0,0,0,1.71-2l25.17-1.82a1.85,1.85,0,0,0,2,1.71l.71,9.82a1.84,1.84,0,0,0-1.71,2l-25.17,1.82A1.85,1.85,0,0,0,189.68,15.73Z"/><rect class="cls-3" x="191.9" y="3.69" width="32.62" height="17.23" transform="translate(4.39 -31.99) rotate(8.88)"/><path class="cls-4" d="M193.16,14.94l1.52-9.73a1.84,1.84,0,0,0,2.11-1.54l24.94,3.89a1.84,1.84,0,0,0,1.53,2.11l-1.52,9.73a1.85,1.85,0,0,0-2.1,1.54L194.7,17.05A1.84,1.84,0,0,0,193.16,14.94Z"/><rect class="cls-3" x="190.32" y="6.5" width="32.62" height="17.23"/><path class="cls-4" d="M192.17,20V10.19A1.84,1.84,0,0,0,194,8.35h25.24a1.84,1.84,0,0,0,1.85,1.84V20a1.85,1.85,0,0,0-1.85,1.85H194A1.84,1.84,0,0,0,192.17,20Z"/><rect class="cls-5" x="186.86" y="11.3" width="38.8" height="29.41" rx="2.77"/><path class="cls-6" d="M203.15,41V32a3.48,3.48,0,0,1,3.48-3.49h0A3.49,3.49,0,0,1,210.12,32V41Z"/><circle class="cls-7" cx="206.63" cy="32.25" r="2.27"/></g></g></svg>