<svg xmlns="http://www.w3.org/2000/svg" viewBox="0 0 116.09 96.98"><defs><style>.cls-1{fill:none;stroke:#4e2c3d;stroke-miterlimit:10;stroke-width:1.37px;}.cls-2{fill:#009899;}.cls-3{fill:#85bde1;}.cls-4{fill:#75a194;}.cls-5{fill:#bbd7ed;}.cls-6{fill:#ebb6d4;}</style></defs><title>Asset 22</title><g id="Layer_2" data-name="Layer 2"><g id="Glavno_Besedilo" data-name="Glavno Besedilo"><circle class="cls-1" cx="39.45" cy="32.7" r="12.63"/><circle class="cls-1" cx="70.46" cy="18.45" r="12.63"/><path class="cls-1" d="M50.92,27.43s.37-6.56,8.07-3.71"/><path class="cls-1" d="M81.93,13.18,89.61,2.54a4.47,4.47,0,0,1,7.68.74h0"/><path class="cls-1" d="M28,38,14.9,36.86a4.47,4.47,0,0,0-4.44,6.32h0"/><path class="cls-2" d="M108.4,39c-1.16-5.06-7.7-5.58-7.7-5.58H24s-6.54.52-7.7,5.58L8.64,91.92s.53,4.75,6.75,5.06h94c6.22-.31,6.75-5.06,6.75-5.06Z"/><path class="cls-3" d="M24,33.42s-6.54.52-7.7,5.58L13.06,61.53h98.61L108.4,39c-1.16-5.06-7.7-5.58-7.7-5.58Z"/><path class="cls-4" d="M99.76,39c-1.16-5.06-7.7-5.58-7.7-5.58H15.39S8.86,33.94,7.7,39L0,91.92S.53,96.67,6.75,97h94c6.22-.31,6.74-5.06,6.74-5.06Z"/><path class="cls-5" d="M15.39,33.42S8.86,33.94,7.7,39L4.42,61.53H103L99.76,39c-1.16-5.06-7.7-5.58-7.7-5.58Z"/><path class="cls-6" d="M28.59,66.85A4.11,4.11,0,0,1,24.48,71h0a4.11,4.11,0,0,1-4.11-4.11v-3.3a4.11,4.11,0,0,1,4.11-4.11h0a4.11,4.11,0,0,1,4.11,4.11Z"/><path class="cls-6" d="M87.08,66.85A4.11,4.11,0,0,1,83,71h0a4.11,4.11,0,0,1-4.11-4.11v-3.3A4.11,4.11,0,0,1,83,59.44h0a4.11,4.11,0,0,1,4.11,4.11Z"/></g></g></svg>