<svg xmlns="http://www.w3.org/2000/svg" viewBox="0 0 69.1 58.47"><defs><style>.cls-1{fill:#c4ac78;}.cls-2{fill:none;stroke:#4e2c3d;stroke-miterlimit:10;stroke-width:0.82px;}.cls-3{fill:#cfb98f;}.cls-4{fill:#b79c62;}.cls-5{fill:#9b7d32;}</style></defs><title>Asset 4</title><g id="Layer_2" data-name="Layer 2"><g id="Glavno_Besedilo" data-name="Glavno Besedilo"><polygon class="cls-1" points="0 23 55.53 23 69.1 17.28 15.74 17.28 0 23"/><circle class="cls-2" cx="21.62" cy="23.39" r="7.59"/><circle class="cls-2" cx="39.11" cy="12.66" r="7.59"/><path class="cls-2" d="M28.09,19.42s-.25-3.94,4.55-2.79"/><path class="cls-2" d="M45.58,8.7,49.4,1.79A2.69,2.69,0,0,1,54,1.69h0"/><path class="cls-2" d="M15.15,27.35l-7.88.28a2.69,2.69,0,0,0-2.2,4.09h0"/><rect class="cls-3" y="23" width="55.53" height="35.47"/><polygon class="cls-4" points="55.53 58.47 69.1 49.42 69.1 17.28 55.53 23 55.53 58.47"/><polygon class="cls-5" points="25.92 23 25.92 43.15 30.65 43.15 30.65 22.92 25.92 23"/></g></g></svg>