<svg xmlns="http://www.w3.org/2000/svg" viewBox="0 0 102.98 47.54"><defs><style>.cls-1{fill:#c28710;}</style></defs><title>Asset 17</title><g id="Layer_2" data-name="Layer 2"><g id="Glavno_Besedilo" data-name="Glavno Besedilo"><path class="cls-1" d="M102.85,22.16l-5.77-5.77a2,2,0,0,0-1.35-.56H46.17a23.75,23.75,0,1,0,0,15.86H53a1.9,1.9,0,0,0,1.35-.56L58,27.5a.79.79,0,0,1,1.12,0l3.63,3.63a1.9,1.9,0,0,0,1.35.56h4.76a1.93,1.93,0,0,0,1.35-.56l3.62-3.63a.79.79,0,0,1,1.12,0l2.86,2.84a1.88,1.88,0,0,0,2.68,0l2.85-2.84a.79.79,0,0,1,1.12,0l3.64,3.63a1.86,1.86,0,0,0,1.34.56h4.76a1.9,1.9,0,0,0,1.35-.56l5.77-5.77a.48.48,0,0,0-.35-.81H51.38V23h51.14A.48.48,0,0,0,102.85,22.16ZM10.93,28.5a4.75,4.75,0,1,1,4.77-4.74A4.74,4.74,0,0,1,10.93,28.5Z"/></g></g></svg>