<svg xmlns="http://www.w3.org/2000/svg" viewBox="0 0 135.58 64.53"><defs><style>.cls-1{fill:#c28710;}.cls-2{fill:none;stroke:#4e2c3d;stroke-miterlimit:10;stroke-width:1.32px;}</style></defs><title>Asset 24</title><g id="Layer_2" data-name="Layer 2"><g id="Glavno_Besedilo" data-name="Glavno Besedilo"><path class="cls-1" d="M65.56,48.36l-3.68-3.68a1.23,1.23,0,0,0-.86-.36H29.43a15.14,15.14,0,1,0,0,10.11h4.32a1.18,1.18,0,0,0,.86-.36l2.32-2.31a.5.5,0,0,1,.71,0L40,54.07a1.2,1.2,0,0,0,.86.36h3a1.18,1.18,0,0,0,.86-.36L47,51.76a.5.5,0,0,1,.71,0l1.82,1.81a1.2,1.2,0,0,0,1.71,0l1.82-1.81a.5.5,0,0,1,.71,0l2.33,2.31a1.14,1.14,0,0,0,.85.36h3a1.16,1.16,0,0,0,.86-.36l3.68-3.67a.31.31,0,0,0-.22-.52H32.75v-1h32.6A.3.3,0,0,0,65.56,48.36ZM7,52.4a3,3,0,1,1,3-3A3,3,0,0,1,7,52.4Z"/><circle class="cls-2" cx="72.3" cy="12.85" r="12.19"/><circle class="cls-2" cx="105.26" cy="12.85" r="12.19"/><path class="cls-2" d="M84.5,12.85s3-5.6,8.56,0"/><path class="cls-2" d="M117.45,12.85l11-6.24a4.31,4.31,0,0,1,6.44,3.75h0"/><path class="cls-2" d="M60.11,12.85l-11-6.24a4.31,4.31,0,0,0-6.44,3.75h0"/></g></g></svg>