<svg xmlns="http://www.w3.org/2000/svg" viewBox="0 0 120.23 81.58"><defs><style>.cls-1{fill:#c28710;}.cls-2{fill:#95715f;}.cls-3{fill:#826353;}.cls-4{fill:#a58678;}</style></defs><title>Asset 12</title><g id="Layer_2" data-name="Layer 2"><g id="Glavno_Besedilo" data-name="Glavno Besedilo"><path class="cls-1" d="M80.4,71.77l-2.22-2.22a.73.73,0,0,0-.52-.22H58.58a9.15,9.15,0,1,0,0,6.1h2.6a.72.72,0,0,0,.52-.21l1.4-1.4a.3.3,0,0,1,.43,0l1.4,1.4a.73.73,0,0,0,.52.21h1.83a.72.72,0,0,0,.52-.21l1.4-1.4a.3.3,0,0,1,.43,0l1.1,1.09a.72.72,0,0,0,1,0l1.1-1.09a.3.3,0,0,1,.43,0l1.4,1.4a.71.71,0,0,0,.51.21h1.84a.73.73,0,0,0,.52-.21L79.79,73a.18.18,0,0,0-.14-.31H60.58v-.61H80.27A.18.18,0,0,0,80.4,71.77ZM45,74.21a1.83,1.83,0,1,1,1.83-1.83A1.83,1.83,0,0,1,45,74.21Z"/><rect class="cls-2" x="8.25" y="8.22" width="103.73" height="5.49"/><rect class="cls-2" width="120.23" height="8.4"/><rect class="cls-3" x="2.88" y="8.22" width="7.11" height="73.37"/><rect class="cls-3" x="110.24" y="8.22" width="7.11" height="73.37"/><rect class="cls-3" x="9.99" y="8.22" width="100.25" height="1.76"/><rect class="cls-4" width="120.23" height="3.14"/></g></g></svg>