<svg xmlns="http://www.w3.org/2000/svg" viewBox="0 0 96.8 102.17"><defs><style>.cls-1{fill:#72c6a7;}.cls-2{fill:#04856f;}.cls-3{fill:#7b3500;}.cls-4{fill:#846026;}.cls-5{fill:#59411a;}</style></defs><title>Asset 18</title><g id="Layer_2" data-name="Layer 2"><g id="Glavno_Besedilo" data-name="Glavno Besedilo"><rect class="cls-1" x="1.44" y="2.88" width="81.39" height="43" transform="translate(-1.65 3.1) rotate(-4.14)"/><path class="cls-2" d="M7,39.24,5.26,14.73A4.6,4.6,0,0,0,9.52,9.8l62.8-4.54a4.6,4.6,0,0,0,4.93,4.26L79,34A4.61,4.61,0,0,0,74.76,39L12,43.5A4.6,4.6,0,0,0,7,39.24Z"/><rect class="cls-1" x="12.57" y="9.21" width="81.39" height="43" transform="translate(5.38 -7.85) rotate(8.88)"/><path class="cls-2" d="M15.71,37.27,19.51,13a4.61,4.61,0,0,0,5.26-3.84L87,18.87a4.62,4.62,0,0,0,3.84,5.27L87,48.41a4.61,4.61,0,0,0-5.26,3.85L19.56,42.54A4.62,4.62,0,0,0,15.71,37.27Z"/><rect class="cls-1" x="8.62" y="16.22" width="81.39" height="43"/><path class="cls-2" d="M13.23,50V25.43a4.61,4.61,0,0,0,4.61-4.61h63a4.6,4.6,0,0,0,4.61,4.61V50a4.6,4.6,0,0,0-4.61,4.61h-63A4.61,4.61,0,0,0,13.23,50Z"/><rect class="cls-3" y="28.19" width="96.8" height="73.38" rx="6.91"/><path class="cls-4" d="M40.62,102.17V79.86a8.7,8.7,0,0,1,8.7-8.7h0A8.69,8.69,0,0,1,58,79.86v22.31Z"/><circle class="cls-5" cx="49.32" cy="80.46" r="5.66"/></g></g></svg>