<svg xmlns="http://www.w3.org/2000/svg" viewBox="0 0 120.23 81.58"><defs><style>.cls-1{fill:#72c6a7;}.cls-2{fill:#04856f;}.cls-3{fill:#7b3500;}.cls-4{fill:#846026;}.cls-5{fill:#59411a;}.cls-6{fill:#95715f;}.cls-7{fill:#826353;}.cls-8{fill:#a58678;}</style></defs><title>Asset 6</title><g id="Layer_2" data-name="Layer 2"><g id="Glavno_Besedilo" data-name="Glavno Besedilo"><rect class="cls-1" x="41.23" y="41.38" width="32.62" height="17.23" transform="translate(-3.46 4.28) rotate(-4.14)"/><path class="cls-2" d="M43.47,56l-.71-9.83a1.84,1.84,0,0,0,1.71-2l25.17-1.82a1.85,1.85,0,0,0,2,1.71l.71,9.82a1.84,1.84,0,0,0-1.7,2L45.44,57.66A1.83,1.83,0,0,0,43.47,56Z"/><rect class="cls-1" x="45.69" y="43.91" width="32.62" height="17.23" transform="translate(8.85 -8.94) rotate(8.88)"/><path class="cls-2" d="M47,55.16l1.52-9.73a1.84,1.84,0,0,0,2.11-1.54l24.93,3.9a1.86,1.86,0,0,0,1.54,2.11l-1.52,9.73a1.85,1.85,0,0,0-2.11,1.54l-24.93-3.9A1.84,1.84,0,0,0,47,55.16Z"/><rect class="cls-1" x="44.11" y="46.72" width="32.62" height="17.23"/><path class="cls-2" d="M46,60.26V50.41a1.84,1.84,0,0,0,1.85-1.84H73a1.84,1.84,0,0,0,1.84,1.84v9.85A1.84,1.84,0,0,0,73,62.11H47.8A1.85,1.85,0,0,0,46,60.26Z"/><rect class="cls-3" x="40.65" y="51.52" width="38.8" height="29.41" rx="2.77"/><path class="cls-4" d="M56.93,81.17V72.23a3.49,3.49,0,0,1,3.49-3.49h0a3.48,3.48,0,0,1,3.48,3.49v8.94Z"/><circle class="cls-5" cx="60.42" cy="72.47" r="2.27"/><rect class="cls-6" x="8.25" y="8.22" width="103.73" height="5.49"/><rect class="cls-6" width="120.23" height="8.4"/><rect class="cls-7" x="2.88" y="8.22" width="7.11" height="73.37"/><rect class="cls-7" x="110.24" y="8.22" width="7.11" height="73.37"/><rect class="cls-7" x="9.99" y="8.22" width="100.25" height="1.76"/><rect class="cls-8" width="120.23" height="3.14"/></g></g></svg>