<svg xmlns="http://www.w3.org/2000/svg" viewBox="0 0 277.84 678.07"><defs><style>.cls-1{fill:#fcc5aa;}.cls-2{fill:#dce6e0;}.cls-3{fill:#d9dceb;}.cls-4{fill:#00a881;}.cls-14,.cls-15,.cls-5{fill:none;stroke-miterlimit:10;}.cls-5{stroke:#499086;stroke-width:0.95px;}.cls-6{fill:#017dad;}.cls-7{fill:#eed1bf;}.cls-8{fill:#44515d;}.cls-9{fill:#499086;}.cls-10{fill:#fff;}.cls-11{fill:#524935;}.cls-12{fill:#ebaf88;}.cls-13{fill:#ffe6b4;}.cls-14,.cls-15{stroke:#231f20;}.cls-14{stroke-width:0.62px;}.cls-15{stroke-width:0.56px;}.cls-16{fill:#ffebc6;}.cls-17{fill:#301812;}.cls-18{fill:#d55227;}</style></defs><g id="Layer_2" data-name="Layer 2"><g id="Layer_1-2" data-name="Layer 1"><path id="Vrat" class="cls-1" d="M184,141.62l-.21.53c-5.49,13.54-20,23.2-37.1,23.2-17.29,0-32-9.91-37.3-23.71h-.15a18.31,18.31,0,0,0,12.53-7.4,18,18,0,0,0,2-3.72,25.58,25.58,0,0,0,1.79-8.83H164a36.91,36.91,0,0,0,1.89,8.82c1.18,3.37,3.09,7,6.14,9.24C174.87,141.91,178.86,142.92,184,141.62Z"/><ellipse class="cls-2" cx="138.92" cy="662.24" rx="138.92" ry="15.83"/><path class="cls-3" d="M259.18,353.14,210.41,351v-157s11.28-65,28.6-29.73Q253.41,263,259.18,353.14Z"/><path class="cls-3" d="M34.27,353.14,83,351v-157s-11.28-65-28.6-29.73Q40,263,34.27,353.14Z"/><path id="Pulover" class="cls-4" d="M238.89,163.21l-.41.06c-5.35.94-11.87,8.69-17.95,27.46V363.58H72.92V190.73c-6.09-18.77-12.6-26.52-18-27.46l-.41-.06c-12.85-1.45,19-21.59,38.64-21.59h16.22c5.33,13.8,20,23.71,37.3,23.71,17.08,0,31.61-9.66,37.1-23.2.08-.17.14-.34.21-.51h16.22C219.9,141.62,251.74,161.76,238.89,163.21Z"/><line id="Zadrga" class="cls-5" x1="146.73" y1="363.6" x2="146.73" y2="165.35"/><polygon id="Hlace" class="cls-6" points="220.4 363.6 220.4 413.41 197.23 630.31 168.41 640.53 146.99 413.41 146.73 413.41 122.34 640.53 122.23 640.53 93.48 630.34 72.92 413.41 72.92 363.6 220.4 363.6"/><path id="Koza" class="cls-7" d="M48.6,352.48S43.07,396,72.92,400.42v-49Z"/><path id="Koza-2" data-name="Koza" class="cls-7" d="M244.72,352.54s5.53,43.56-24.32,47.93v-49Z"/><path class="cls-8" d="M240.49,662.08H168.41V640.53l28.82-10.22s0,.05,0,.08c-1.25,12.27,9.29,14.13,9.29,14.13C250,640.48,240.49,662.08,240.49,662.08Z"/><path class="cls-8" d="M122.23,640.53v21.55H50.15s-9.51-21.6,34-17.56c0,0,10.59-1.87,9.27-14.21l.08,0Z"/><circle id="Gumb" class="cls-9" cx="159.1" cy="201.85" r="3.72"/><circle id="Gumb-2" data-name="Gumb" class="cls-9" cx="134.74" cy="201.85" r="3.72"/><circle id="Gumb-3" data-name="Gumb" class="cls-9" cx="159.1" cy="229.89" r="3.72"/><circle id="Gumb-4" data-name="Gumb" class="cls-9" cx="134.74" cy="229.89" r="3.72"/><circle id="Gumb-5" data-name="Gumb" class="cls-9" cx="159.1" cy="257.93" r="3.72"/><circle id="Gumb-6" data-name="Gumb" class="cls-9" cx="134.74" cy="257.93" r="3.72"/><circle id="Gumb-7" data-name="Gumb" class="cls-9" cx="159.1" cy="285.97" r="3.72"/><circle id="Gumb-8" data-name="Gumb" class="cls-9" cx="134.74" cy="285.97" r="3.72"/><circle id="Gumb-9" data-name="Gumb" class="cls-9" cx="159.1" cy="314.01" r="3.72"/><circle id="Gumb-10" data-name="Gumb" class="cls-9" cx="134.74" cy="314.01" r="3.72"/><path id="Koza-3" data-name="Koza" class="cls-7" d="M202.48,74.32a133.55,133.55,0,0,1-7.42,25.57A49.25,49.25,0,0,1,97.65,98,155.45,155.45,0,0,1,91,73.86c-2.46-12.67,3.11-14.27,6.23-14.23V56.69a44.43,44.43,0,0,1,44.43-44.43h9.66a44.43,44.43,0,0,1,44.43,44.43v4.42C198.25,60.81,205,61.12,202.48,74.32Z"/><path class="cls-10" d="M135.85,67.94c.09-7.58-23.45-7.86-23.54-.29C112.22,74.5,135.76,74.78,135.85,67.94Z"/><path class="cls-10" d="M183.16,67.94c.09-7.58-23.45-7.86-23.54-.29C159.54,74.5,183.08,74.78,183.16,67.94Z"/><circle class="cls-11" cx="123.35" cy="67.52" r="3.89"/><circle class="cls-11" cx="171.39" cy="67.52" r="3.89"/><path id="Oci" class="cls-12" d="M110.84,68.1s10-10,27.7,0C138.54,68.1,123.15,51.08,110.84,68.1Z"/><path id="Oci-2" data-name="Oci" class="cls-12" d="M158,68.1s10-10,27.69,0C185.67,68.1,170.29,51.08,158,68.1Z"/><path class="cls-7" d="M150,64.61l-.4,1.56C149.57,65.1,149.69,64.52,150,64.61Z"/><path id="Nos" class="cls-12" d="M149.53,97.32a19.67,19.67,0,0,1-7.45-2l.53-1c2.1,1.07,8,3.28,9.91.75.32-.84-.77-8-1.64-13.82-1.86-12.28-2.3-16.23-1.43-17a.73.73,0,0,1,.71-.14l-.34,1.1a.4.4,0,0,0,.44-.15c-.5,1,.81,9.67,1.76,16,1.62,10.7,2,13.93,1.42,14.69A4.63,4.63,0,0,1,149.53,97.32Z"/><g id="Obrve"><path class="cls-13" d="M139,59.81c-16.77-8.46-24.37-.64-24.68-.31l-2.13-2c.37-.4,9.28-9.82,28.11-.31Z"/></g><g id="Obrve-2" data-name="Obrve"><g id="Obrve-3" data-name="Obrve"><path id="Obrve-4" data-name="Obrve" class="cls-13" d="M185,60.92c-16.9-8.53-24.6-.4-24.68-.32l-2.13-1.94c.37-.41,9.28-9.83,28.11-.32Z"/></g></g><g id="Ocala"><path class="cls-14" d="M140.34,68.66s10.32-7.8,17.16,0"/><line class="cls-14" x1="100.05" y1="61.84" x2="110.8" y2="67.52"/><line class="cls-14" x1="197.79" y1="61.62" x2="187.04" y2="68.09"/><circle class="cls-15" cx="125.57" cy="68.66" r="14.77"/><circle class="cls-15" cx="172.27" cy="68.66" r="14.77"/></g><path id="Lasje" class="cls-16" d="M104.85,71.42s-3.34-24.54,7.48-34.2A14.38,14.38,0,0,1,115.64,35a10.85,10.85,0,0,1,2.18-.77c4-1.14,8.66-.56,12.82-.3l3.12.32C153.07,36.33,163,40,163,40s5.78-5.55-3.75-8.63,15.48-.38,22,13.27a93.13,93.13,0,0,1,8,26.81l5.6,1.51s14.88-38.55-2.82-51.8c-9.7-7.27-21.71-16.44-33.59-19.74a35,35,0,0,0-3.56-.8,29,29,0,0,0-3.18-.46A30.72,30.72,0,0,0,148.55,0a27,27,0,0,0-6.45.56c-1.1.25-2.17.56-3.22.91s-2.07.75-3.07,1.18c-9.91,5-18.57,13.09-29.47,15.75-1,.31-2.07.66-3.06,1-4.93,1.94-8.85,4.92-9.18,11.16-.25,1-.45,1.92-.61,2.9a25.38,25.38,0,0,0-.22,5.9c0,.73.09,1.46.08,2.22C93.3,49.88,95.85,60.1,104.85,71.42Z"/><path class="cls-17" d="M166.62,105.36a21.71,21.71,0,0,1-7.34,10.91c-1.39-6.87-26.66-4.2-26.74-4.19a31.85,31.85,0,0,1-3.86-6.72Z"/><path class="cls-18" d="M159.28,116.27h0a19,19,0,0,1-10.44,3.6c-7.92.47-13.15-3.77-16.29-7.79C132.62,112.07,157.89,109.4,159.28,116.27Z"/><polygon class="cls-17" points="132.54 112.08 132.54 112.08 132.54 112.08 132.54 112.08"/><polygon class="cls-10" points="128.68 105.36 129.76 107.75 165.81 107.75 166.62 105.36 128.68 105.36"/></g></g></svg>