<svg xmlns="http://www.w3.org/2000/svg" viewBox="0 0 101.37 85.31"><defs><style>.cls-1{fill:#643a00;}</style></defs><g id="Layer_2" data-name="Layer 2"><g id="Glavno_Besedilo" data-name="Glavno Besedilo"><path id="Brada" class="cls-1" d="M101.37,21.45a84.45,84.45,0,0,1-.63,11.28,62.13,62.13,0,0,1-1.21,6.71,39.35,39.35,0,0,1-1.16,5.64,32.64,32.64,0,0,1-2,5.14,35.78,35.78,0,0,1-2.67,4.52A30.91,30.91,0,0,1,90.3,58.8c-.85,1.37-1.75,2.71-2.72,4a47.51,47.51,0,0,1-3.09,3.69A40.28,40.28,0,0,1,80.81,71q-1.73,1.77-3.54,3.41c-4.92,4.45-10.38,8-16.56,9.76a31.32,31.32,0,0,1-4.76.94,14.39,14.39,0,0,1-9.82-1.72C39.82,77.8,33.76,72.72,27,68.88a54,54,0,0,0-11.95-5.12,36,36,0,0,1-3.44-2.68A41.17,41.17,0,0,1,8.53,58a41.47,41.47,0,0,1-2.61-4,43.1,43.1,0,0,1-3.87-8.89c-.41-1.52-.74-3-1-4.61A67.93,67.93,0,0,1,.17,23.9c0-.67.09-1.34.16-2-.07-2.28-.1-4.58-.06-6.77C.4,8.56,1.15,3,3.24,1.86,6.53.13,7.74-.09,8.18,0a.32.32,0,0,1,.23.14h0a.25.25,0,0,1,0,.16S10,24.06,32.27,34.29H70.21S92.87,12.34,92.87.34l5.68,1.33.8.19A102.54,102.54,0,0,1,101.37,21.45Z"/></g></g></svg>