<svg xmlns="http://www.w3.org/2000/svg" viewBox="0 0 119.96 277.57"><defs><style>.cls-1{fill:#d8dcec;}.cls-2{fill:#912c46;}.cls-3{fill:#00a881;stroke:#78121c;stroke-miterlimit:10;stroke-width:0.51px;}.cls-4{fill:#d2bab7;}.cls-5{fill:#44515c;}.cls-6{fill:#78121c;}</style></defs><g id="Layer_2" data-name="Layer 2"><g id="Glavno_Besedilo" data-name="Glavno Besedilo"><path class="cls-1" d="M120,112.81l-26-1.14V28S100-6.72,109.2,12.1Q116.88,64.75,120,112.81Z"/><path class="cls-1" d="M0,112.81l26-1.14V28S20-6.72,10.76,12.1Q3.08,64.75,0,112.81Z"/><path class="cls-2" d="M88.53,0H79.88C77,7.36,69.2,12.65,60,12.65S42.92,7.36,40.08,0H31.43C21,0,4,10.74,10.83,11.51c2.88.33,6.46,4.41,9.79,14.68v92.19H99.34V26.19c3.33-10.27,6.91-14.35,9.79-14.68C116,10.74,99,0,88.53,0Z"/><line class="cls-3" x1="59.98" y1="118.38" x2="59.98" y2="12.65"/><rect class="cls-4" x="20.62" y="118.38" width="78.66" height="26.56"/><polygon class="cls-4" points="59.98 144.94 46.97 266.08 32.1 266.08 20.61 144.94 59.98 144.94"/><polygon class="cls-4" points="99.28 144.94 86.34 266.08 71.55 266.08 60.12 144.94 99.28 144.94"/><path class="cls-5" d="M71.54,266.08v11.49H110s5.07-11.51-18.12-9.36c0,0-5.65-1-5-7.58"/><path class="cls-5" d="M46.92,266.08v11.49H8.47S3.4,266.06,26.6,268.21c0,0,5.64-1,4.94-7.58"/><circle class="cls-6" cx="66.58" cy="32.11" r="1.99"/><circle class="cls-6" cx="53.59" cy="32.11" r="1.99"/><circle class="cls-6" cx="66.58" cy="47.07" r="1.99"/><circle class="cls-6" cx="53.59" cy="47.07" r="1.99"/><circle class="cls-6" cx="66.58" cy="62.02" r="1.99"/><circle class="cls-6" cx="53.59" cy="62.02" r="1.99"/><circle class="cls-6" cx="66.58" cy="76.98" r="1.99"/><circle class="cls-6" cx="53.59" cy="76.98" r="1.99"/><circle class="cls-6" cx="66.58" cy="91.93" r="1.99"/><circle class="cls-6" cx="53.59" cy="91.93" r="1.99"/></g></g></svg>