<svg xmlns="http://www.w3.org/2000/svg" viewBox="0 0 277.84 627.38"><defs><style>.cls-1{fill:#eed1bf;}.cls-2{fill:#fcc5aa;}.cls-3{fill:#dce6e0;}.cls-4{fill:#d9dceb;}.cls-5{fill:#00a881;}.cls-17,.cls-18,.cls-6{fill:none;stroke-miterlimit:10;}.cls-6{stroke:#499086;stroke-width:0.95px;}.cls-7{fill:#017dad;}.cls-8{fill:#44515d;}.cls-9{fill:#499086;}.cls-10{fill:#fff;}.cls-11{fill:#524935;}.cls-12{fill:#ebaf88;}.cls-13{fill:#ffebc6;}.cls-14{fill:#ffe6b4;}.cls-15{fill:#301812;}.cls-16{fill:#d55227;}.cls-17,.cls-18{stroke:#231f20;}.cls-17{stroke-width:0.62px;}.cls-18{stroke-width:0.56px;}</style></defs><g id="Layer_2" data-name="Layer 2"><g id="Layer_1-2" data-name="Layer 1"><path id="Koza" class="cls-1" d="M48.6,362.34s-5.53,43.56,24.32,47.93v-49Z"/><path id="Koza-2" data-name="Koza" class="cls-1" d="M244.72,362.4s5.53,43.56-24.32,47.93v-49Z"/><path id="Vrat" class="cls-2" d="M184,151.48l-.21.53c-5.49,13.54-20,23.2-37.1,23.2-17.29,0-32-9.91-37.3-23.71h-.15a18.31,18.31,0,0,0,12.53-7.4,18,18,0,0,0,2-3.72,25.58,25.58,0,0,0,1.79-8.83H164a36.91,36.91,0,0,0,1.89,8.82c1.18,3.37,3.09,6.95,6.14,9.24C174.87,151.77,178.86,152.78,184,151.48Z"/><ellipse class="cls-3" cx="138.92" cy="611.55" rx="138.92" ry="15.83"/><path class="cls-4" d="M259.18,363l-48.77-2.13v-157s11.28-65,28.6-29.74Q253.41,272.9,259.18,363Z"/><path class="cls-4" d="M34.27,363,83,360.87v-157s-11.28-65-28.6-29.74Q40,272.9,34.27,363Z"/><path id="Pulover" class="cls-5" d="M238.89,173.06l-.41.06c-5.35.94-11.87,8.69-17.95,27.46l10.64,172.85H60.56L72.92,200.58c-6.09-18.77-12.6-26.52-18-27.46l-.41-.06c-12.85-1.45,19-21.59,38.64-21.59h16.22c5.33,13.8,20,23.71,37.3,23.71,17.08,0,31.61-9.66,37.1-23.2.08-.17.14-.34.21-.51h16.22C219.9,151.47,251.74,171.61,238.89,173.06Z"/><line id="Zadrga" class="cls-6" x1="146.73" y1="373.46" x2="146.73" y2="175.21"/><polygon id="Hlace" class="cls-7" points="231.17 372.9 223.09 413.21 197.23 581.83 168.41 589.84 146.99 411.93 146.73 411.93 122.34 589.84 122.23 589.84 93.48 581.85 68.34 412.42 60.56 372.9 231.17 372.9"/><path class="cls-8" d="M240.49,611.39H168.41V589.84l28.82-10.22s0,0,0,.08c-1.25,12.27,9.29,14.13,9.29,14.13C250,589.79,240.49,611.39,240.49,611.39Z"/><path class="cls-8" d="M122.23,589.84v21.55H50.15s-9.51-21.6,34-17.56c0,0,10.59-1.87,9.27-14.21l.08,0Z"/><circle id="Gumb" class="cls-9" cx="159.1" cy="211.7" r="3.72"/><circle id="Gumb-2" data-name="Gumb" class="cls-9" cx="134.74" cy="211.7" r="3.72"/><circle id="Gumb-3" data-name="Gumb" class="cls-9" cx="159.1" cy="239.75" r="3.72"/><circle id="Gumb-4" data-name="Gumb" class="cls-9" cx="134.74" cy="239.75" r="3.72"/><circle id="Gumb-5" data-name="Gumb" class="cls-9" cx="159.1" cy="267.79" r="3.72"/><circle id="Gumb-6" data-name="Gumb" class="cls-9" cx="134.74" cy="267.79" r="3.72"/><circle id="Gumb-7" data-name="Gumb" class="cls-9" cx="159.1" cy="295.83" r="3.72"/><circle id="Gumb-8" data-name="Gumb" class="cls-9" cx="134.74" cy="295.83" r="3.72"/><circle id="Gumb-9" data-name="Gumb" class="cls-9" cx="159.1" cy="323.87" r="3.72"/><circle id="Gumb-10" data-name="Gumb" class="cls-9" cx="134.74" cy="323.87" r="3.72"/><path id="Koza-3" data-name="Koza" class="cls-1" d="M201.08,73.51a133.55,133.55,0,0,1-7.42,25.57,49.25,49.25,0,0,1-97.41-1.91,155.45,155.45,0,0,1-6.64-24.12c-2.46-12.67,3.11-14.27,6.23-14.23V55.88a44.43,44.43,0,0,1,44.43-44.43h9.66a44.43,44.43,0,0,1,44.43,44.43V60.3C196.85,60,203.64,60.31,201.08,73.51Z"/><path class="cls-10" d="M134.45,67.13c.09-7.57-23.45-7.86-23.54-.29C110.82,73.69,134.37,74,134.45,67.13Z"/><path class="cls-10" d="M181.76,67.13c.1-7.57-23.44-7.86-23.54-.29C158.14,73.69,181.68,74,181.76,67.13Z"/><circle class="cls-11" cx="121.95" cy="66.71" r="3.89"/><circle class="cls-11" cx="169.99" cy="66.71" r="3.89"/><path id="Oci" class="cls-12" d="M109.44,67.29s10-10.05,27.7,0C137.14,67.29,121.75,50.27,109.44,67.29Z"/><path id="Oci-2" data-name="Oci" class="cls-12" d="M156.58,67.29s10-10.05,27.69,0C184.27,67.29,168.89,50.27,156.58,67.29Z"/><path id="Brki" class="cls-13" d="M165.22,104.54H127.28c1.23-4.43,4.25-8,9.5-10.49h4.36c1.25.59,8.06,3.63,10.44.49a1.07,1.07,0,0,0,.12-.49h3.62C160.45,97,163.9,100.48,165.22,104.54Z"/><path class="cls-1" d="M148.59,63.8l-.4,1.56C148.17,64.29,148.29,63.71,148.59,63.8Z"/><path id="Nos" class="cls-12" d="M148.13,96.52a19.61,19.61,0,0,1-7.45-2l.53-1c2.11,1.07,8,3.28,9.91.75.32-.84-.76-8-1.64-13.82-1.86-12.28-2.3-16.23-1.43-17a.73.73,0,0,1,.71-.14l-.34,1.1a.4.4,0,0,0,.44-.15c-.5,1,.81,9.67,1.76,16,1.62,10.7,2,13.93,1.42,14.69A4.64,4.64,0,0,1,148.13,96.52Z"/><g id="Obrve"><path class="cls-14" d="M137.65,59c-16.77-8.46-24.38-.64-24.69-.31l-2.13-1.95c.37-.4,9.28-9.82,28.12-.31Z"/></g><g id="Obrve-2" data-name="Obrve"><g id="Obrve-3" data-name="Obrve"><path id="Obrve-4" data-name="Obrve" class="cls-14" d="M183.62,60.11c-16.89-8.53-24.6-.4-24.68-.32l-2.13-1.94c.37-.41,9.28-9.82,28.12-.32Z"/></g></g><path class="cls-15" d="M165.22,104.55a21.63,21.63,0,0,1-7.34,10.91c-1.39-6.86-26.66-4.2-26.74-4.19a32.4,32.4,0,0,1-3.86-6.72Z"/><path class="cls-16" d="M157.88,115.46h0a19,19,0,0,1-10.44,3.6c-7.92.47-13.15-3.77-16.29-7.79C131.22,111.26,156.49,108.6,157.88,115.46Z"/><polygon class="cls-15" points="131.14 111.27 131.14 111.27 131.14 111.27 131.14 111.27"/><polygon class="cls-10" points="127.28 104.55 128.36 106.94 164.41 106.94 165.22 104.55 127.28 104.55"/><g id="Ocala"><path class="cls-17" d="M138.94,67.85s10.32-7.8,17.16,0"/><line class="cls-17" x1="98.65" y1="61.03" x2="109.4" y2="66.71"/><line class="cls-17" x1="196.39" y1="60.81" x2="185.64" y2="67.28"/><circle class="cls-18" cx="124.17" cy="67.85" r="14.77"/><circle class="cls-18" cx="170.87" cy="67.85" r="14.77"/></g><path id="Lasje" class="cls-13" d="M202.37,165.24s-5.66-1.23-9.71-14C182.72,142.11,169,135.1,169,135.1c8.47-5,15.75-16.51,19.75-23.88.15-6,.53-12.66,1.19-20,6.11-68.52-42.12-48.71-44.17-48.56,0,0,0,0,0,0h0c-2-.14-50.22-20-44.11,48.56.65,7.35,1,14,1.19,19.94,5.47,9.13,17.15,22.42,17.15,22.42-5.79-3.78-13.57,4.31-19.86,13.26-4,17-10.94,18.45-10.94,18.45S60.4-6.67,145.77.2C231.14-6.67,202.37,165.24,202.37,165.24Z"/></g></g></svg>