<svg xmlns="http://www.w3.org/2000/svg" xmlns:xlink="http://www.w3.org/1999/xlink" viewBox="0 0 139.76 426.5"><defs><style>.cls-1,.cls-19{fill:none;}.cls-1{stroke:#e2a44f;stroke-width:1.98px;}.cls-1,.cls-15,.cls-16,.cls-19,.cls-6{stroke-miterlimit:10;}.cls-2{clip-path:url(#clip-path);}.cls-3{fill:#fbc5aa;}.cls-4{fill:#d8dcec;}.cls-5{fill:#006a65;}.cls-6{fill:#00a881;stroke:#223b1e;stroke-width:0.59px;}.cls-7{fill:#6a8a7f;}.cls-15,.cls-16,.cls-8{fill:#eed1bf;}.cls-9{fill:#44515c;}.cls-10{fill:#223b1e;}.cls-11{fill:#ffebc6;}.cls-12{fill:#fff;}.cls-13{fill:#514835;}.cls-14{fill:#ebae8a;}.cls-15{stroke:#ebae8a;stroke-width:0.72px;}.cls-16{stroke:#ffe6b4;stroke-width:1.8px;}.cls-17{fill:#5a3b34;}.cls-18{fill:#d55225;}.cls-19{stroke:#fff;stroke-width:0.36px;}</style><clipPath id="clip-path" transform="translate(2.56)"><circle class="cls-1" cx="66.99" cy="66.99" r="66"/></clipPath></defs><title>Asset 19</title><g id="Layer_2" data-name="Layer 2"><g id="Glavno_Besedilo" data-name="Glavno Besedilo"><g class="cls-2"><path class="cls-3" d="M44.05,103.12s9.71-.72,10.16-12.4H78.06s1,15.25,12.35,12.4l-1,8.76-23.23,9.26L46,115.72l-4.92-9.79Z" transform="translate(2.56)"/><path class="cls-4" d="M137.2,234.54l-30.3-1.32V135.69s7-40.4,17.77-18.48Q133.61,178.55,137.2,234.54Z" transform="translate(2.56)"/><path class="cls-4" d="M-2.56,234.54l30.31-1.32V135.69s-7-40.4-17.77-18.48Q1,178.55-2.56,234.54Z" transform="translate(2.56)"/><path class="cls-5" d="M100.58,103.12H90.5c-3.31,8.57-12.43,14.73-23.18,14.73s-19.87-6.16-23.18-14.73H34.06c-12.21,0-32,12.51-24,13.41,3.36.38,7.52,5.14,11.4,17.1V241h91.72V133.63c3.88-12,8-16.72,11.41-17.1C132.58,115.63,112.79,103.12,100.58,103.12Z" transform="translate(2.56)"/><line class="cls-6" x1="69.88" y1="241.04" x2="69.88" y2="117.85"/><rect class="cls-7" x="24.02" y="241.04" width="91.64" height="30.95"/><polygon class="cls-7" points="69.88 271.98 54.73 413.11 37.4 413.11 24.02 271.98 69.88 271.98"/><polygon class="cls-7" points="115.66 271.98 100.58 413.11 83.35 413.11 70.04 271.98 115.66 271.98"/><path class="cls-8" d="M6.35,234.13s-3.43,27.06,15.11,29.78V233.47Z" transform="translate(2.56)"/><path class="cls-8" d="M128.22,234.16s3.43,27.07-15.12,29.79V233.5Z" transform="translate(2.56)"/><path class="cls-9" d="M80.8,413.11V426.5h44.78s5.91-13.42-21.11-10.91c0,0-6.58-1.16-5.76-8.83" transform="translate(2.56)"/><path class="cls-9" d="M52.1,413.11V426.5H7.32s-5.91-13.42,21.11-10.91c0,0,6.58-1.16,5.76-8.83" transform="translate(2.56)"/><circle class="cls-10" cx="77.57" cy="140.53" r="2.31"/><circle class="cls-10" cx="62.43" cy="140.53" r="2.31"/><circle class="cls-10" cx="77.57" cy="157.95" r="2.31"/><circle class="cls-10" cx="62.43" cy="157.95" r="2.31"/><circle class="cls-10" cx="77.57" cy="175.38" r="2.31"/><circle class="cls-10" cx="62.43" cy="175.38" r="2.31"/><circle class="cls-10" cx="77.57" cy="192.8" r="2.31"/><circle class="cls-10" cx="62.43" cy="192.8" r="2.31"/><circle class="cls-10" cx="77.57" cy="210.22" r="2.31"/><circle class="cls-10" cx="62.43" cy="210.22" r="2.31"/><path class="cls-8" d="M65.68,20h6A27.75,27.75,0,0,1,99.47,47.76V69.62A30.77,30.77,0,0,1,68.7,100.39h0A30.77,30.77,0,0,1,37.93,69.62V47.76A27.75,27.75,0,0,1,65.68,20Z"/><path class="cls-11" d="M40.13,57S41.07,71.78,55,78.17H78.71S92.87,64.46,92.87,57l4,.95a63.36,63.36,0,0,1,.87,19.28,40.68,40.68,0,0,1-.76,4.2,24.09,24.09,0,0,1-.73,3.52,20.59,20.59,0,0,1-1.21,3.21,22.73,22.73,0,0,1-1.67,2.82,19,19,0,0,1-2.16,2.54A28,28,0,0,1,89.56,96c-.6.8-1.25,1.57-1.92,2.31a26.28,26.28,0,0,1-2.3,2.81c-3.64,3.74-7.75,6.87-12.56,8.22a19.76,19.76,0,0,1-3,.59,9,9,0,0,1-6.14-1.08c-6.12-5.4-11.89-10.09-19.39-12.25a20.46,20.46,0,0,1-2.14-1.67,25.21,25.21,0,0,1-2-1.92,27,27,0,0,1-4.06-8c-.25-.94-.46-1.91-.63-2.87a43,43,0,0,1-.44-11.63C35,69,35,67.57,35,66.2c.07-4.11.55-7.6,1.85-8.29C40.37,56.08,40.13,57,40.13,57Z" transform="translate(2.56)"/><path class="cls-12" d="M59.49,54.79c.06-4.73-14.65-4.91-14.7-.18C44.73,58.89,59.44,59.07,59.49,54.79Z" transform="translate(2.56)"/><path class="cls-12" d="M89.05,54.79c0-4.73-14.65-4.91-14.71-.18C74.29,58.89,89,59.07,89.05,54.79Z" transform="translate(2.56)"/><circle class="cls-13" cx="54.24" cy="54.53" r="2.43"/><circle class="cls-13" cx="84.25" cy="54.53" r="2.43"/><path class="cls-14" d="M43.87,54.89s6.25-6.28,17.3,0C61.17,54.89,51.56,44.26,43.87,54.89Z" transform="translate(2.56)"/><path class="cls-14" d="M73.31,54.89s6.25-6.28,17.31,0C90.62,54.89,81,44.26,73.31,54.89Z" transform="translate(2.56)"/><path class="cls-11" d="M61,71.61A10.15,10.15,0,0,0,55,78.16H78.71c-.82-2.53-3-4.69-6.18-6.55Z" transform="translate(2.56)"/><path class="cls-15" d="M63.55,71.55s5,2.53,6.64.36c.71-.93-3.11-19.58-1.86-19.19" transform="translate(2.56)"/><path class="cls-16" d="M45.4,48.91s5.2-5.7,16.49,0" transform="translate(2.56)"/><path class="cls-16" d="M74.13,49.6s5.19-5.7,16.49,0" transform="translate(2.56)"/><path class="cls-17" d="M78.71,78.17A12.85,12.85,0,0,1,74.13,85c-.87-4.29-16.65-2.62-16.71-2.61a16.7,16.7,0,0,1-2.4-4.2Z" transform="translate(2.56)"/><path class="cls-18" d="M74.13,85h0a12,12,0,0,1-16.7-2.61C57.48,82.36,73.26,80.69,74.13,85Z" transform="translate(2.56)"/><polygon class="cls-17" points="59.98 82.36 59.98 82.36 59.98 82.36 59.98 82.36"/><path class="cls-8" d="M35.86,50.63s-6.69-1.88-4.75,8.15A80.54,80.54,0,0,0,35.86,75Z" transform="translate(2.56)"/><path class="cls-8" d="M96.37,50.63s6.69-1.88,4.74,8.15A81,81,0,0,1,96.37,75Z" transform="translate(2.56)"/><polygon class="cls-12" points="57.57 78.17 58.24 79.66 80.76 79.66 81.27 78.17 57.57 78.17"/><path class="cls-19" d="M43,33.34S56.91,18,80.23,26.62" transform="translate(2.56)"/><path class="cls-19" d="M43,33.23s15-14.26,37.67-3.92" transform="translate(2.56)"/><path class="cls-19" d="M42.64,33.54s12.69-16.4,36.62-9.64" transform="translate(2.56)"/></g><circle class="cls-1" cx="69.55" cy="66.99" r="66"/></g></g></svg>