<svg xmlns="http://www.w3.org/2000/svg" xmlns:xlink="http://www.w3.org/1999/xlink" viewBox="0 0 133.98 422.08"><defs><style>.cls-1,.cls-8{fill:none;}.cls-1{stroke:#e2a44f;stroke-width:1.98px;}.cls-1,.cls-12,.cls-13,.cls-8{stroke-miterlimit:10;}.cls-2{clip-path:url(#clip-path);}.cls-12,.cls-13,.cls-3{fill:#eed1bf;}.cls-4{fill:#fbc5aa;}.cls-5{fill:#d8dcec;}.cls-6{fill:#d55227;}.cls-7{fill:#e27d58;}.cls-8{stroke:#c1c0db;stroke-width:0.64px;}.cls-9{fill:#fff;}.cls-10{fill:#514835;}.cls-11{fill:#cabcdc;}.cls-12,.cls-13{stroke:#ebae8a;}.cls-12{stroke-width:0.79px;}.cls-13{stroke-width:0.39px;}.cls-14{fill:#5a3b34;}.cls-15{fill:#d55225;}.cls-16{fill:#f5e6c1;}.cls-17{fill:#7b2e00;}</style><clipPath id="clip-path"><circle class="cls-1" cx="66.99" cy="66.99" r="66"/></clipPath></defs><title>Asset 21</title><g id="Layer_2" data-name="Layer 2"><g id="Glavno_Besedilo" data-name="Glavno Besedilo"><g class="cls-2"><path class="cls-3" d="M10.63,222.87S6.9,252.28,27.05,255.23V222.16Z"/><path class="cls-3" d="M121.2,226.15s3.73,29.41-16.42,32.36V225.44Z"/><path class="cls-4" d="M44.57,109.41s9.12-.77,9.53-13.24H76.49s.91,16.28,11.59,13.24l-1,9.36-21.8,9.87-18.94-5.78-4.62-10.45Z"/><path class="cls-5" d="M.86,234.21l32.93-1.27V139.65S26.18,101,14.48,122Q4.76,180.65.86,234.21Z"/><path class="cls-5" d="M133,234.21l-32.93-1.27V139.65S107.68,101,119.38,122Q129.1,180.65,133,234.21Z"/><polygon class="cls-3" points="71.59 278.88 57.86 406.68 42.17 406.68 30.06 278.88 71.59 278.88"/><polygon class="cls-3" points="108.55 278.88 94.9 406.68 79.3 406.68 67.24 278.88 108.55 278.88"/><path class="cls-6" d="M103.67,214.54a205.66,205.66,0,0,1-.86-44c6.38-9.2,6.55-29.4,6.54-32.59,3.55-11.06,7.32-15.5,10.39-15.87,7.5-.89-11.09-13.28-22.56-13.28H87.71c-3.1,8.49-11.68,14.59-21.77,14.59s-18.67-6.1-21.78-14.59H34.69c-11.47,0-30,12.39-22.55,13.28,3,.36,6.74,4.7,10.25,15.45,0,0-.41,23.38,6.7,33.25a206.05,206.05,0,0,1-.88,43.79L2.79,336.31s13.38,14.55,52.31,0c0,0,26.43,10.81,49.68,0,0,0,19.38,8.67,28.59,0Z"/><path class="cls-3" d="M42.17,406.68s-11.61,9.16-20.27,9l36,.26v-9.24Z"/><path class="cls-7" d="M57.88,406.68v12.93H48.37v-3.69s-21,7.7-30.16,5.88c0,0-10.49-1.41,5.62-7.21,12.05-4.35,14.47-5.25,14.47-5.25"/><path class="cls-3" d="M95,406.68s11.61,9.16,20.27,9l-36,.26v-9.24Z"/><path class="cls-7" d="M79.29,406.68v12.93h9.5v-3.69s21,7.7,30.16,5.88c0,0,10.49-1.41-5.61-7.21-12-4.35-14.48-5.25-14.48-5.25"/><path class="cls-8" d="M28.21,214.53c.09-7.68,38.87,30.71,75.45,0"/><path class="cls-3" d="M62.45,20.2h7A25.28,25.28,0,0,1,94.74,45.48V74.35a28,28,0,0,1-28,28H65.2a28,28,0,0,1-28-28V45.48A25.28,25.28,0,0,1,62.45,20.2Z"/><path class="cls-9" d="M58,58.49c.06-5.1-15.8-5.3-15.86-.19C42.09,62.91,58,63.1,58,58.49Z"/><path class="cls-9" d="M89.88,58.49c.06-5.1-15.79-5.3-15.86-.19C74,62.91,89.83,63.1,89.88,58.49Z"/><circle class="cls-10" cx="49.59" cy="58.21" r="2.62"/><circle class="cls-10" cx="81.95" cy="58.21" r="2.62"/><path class="cls-11" d="M41.16,58.6s6.74-6.77,18.66,0C59.82,58.6,49.46,47.13,41.16,58.6Z"/><path class="cls-11" d="M72.92,58.6s6.73-6.77,18.65,0C91.57,58.6,81.21,47.13,72.92,58.6Z"/><path class="cls-12" d="M61.78,74.3s6.29,2.43,8.36.35c.9-.89-3.92-18.77-2.35-18.4"/><path class="cls-13" d="M42.81,52.15s5.61-6.15,17.79,0"/><path class="cls-13" d="M73.79,52.89s5.61-6.14,17.78,0"/><path class="cls-14" d="M78.74,83.79a9.89,9.89,0,0,1-4.95,5.09c-.93-3.2-18-2-18-1.95a12,12,0,0,1-2.6-3.14Z"/><path class="cls-15" d="M73.79,88.88h0a16.79,16.79,0,0,1-7,1.69,15.1,15.1,0,0,1-11-3.64C55.84,86.92,72.86,85.68,73.79,88.88Z"/><polygon class="cls-14" points="55.78 86.93 55.78 86.93 55.78 86.93 55.78 86.93"/><path class="cls-3" d="M94.26,54s7.22-2,5.11,8.79A87.56,87.56,0,0,1,94.26,80.3Z"/><path class="cls-16" d="M66,29.16h0Z"/><line class="cls-16" x1="65.96" y1="29.16" x2="65.96" y2="29.16"/><path class="cls-17" d="M101.82,143.25s-3.59-.78-6.16-8.88a78.92,78.92,0,0,0-15-10.23C86,121,71.59,104.26,74.13,99.59c3.27,1.18,25.22-11.81,16.4-31C72.32,29,67.22,39.9,65.92,40h0c-1.27-.09-31.84-12.68-28,30.78.42,4.66,4.18,15.93,4.28,19.71,3.47,5.79,15.49,32.81,15.49,32.81C54.05,120.9,41,125.88,37,131.56c-2.55,10.74-6.94,11.69-6.94,11.69S11.82,8.75,65.94,13.1C120.06,8.75,101.82,143.25,101.82,143.25Z"/></g><circle class="cls-1" cx="66.99" cy="66.99" r="66"/></g></g></svg>