<svg xmlns="http://www.w3.org/2000/svg" viewBox="0 0 191.84 511.49"><defs><style>.cls-1{fill:#dce6e0;}.cls-2{fill:#eed1bf;}.cls-3{fill:#fbc5aa;}.cls-4{fill:#d8dcec;}.cls-5{fill:#065;}.cls-6{fill:#00a881;stroke:#489086;stroke-width:0.66px;}.cls-14,.cls-15,.cls-6{stroke-miterlimit:10;}.cls-7{fill:#7c343c;}.cls-8{fill:#44515c;}.cls-9{fill:#489086;}.cls-10{fill:#fff;}.cls-11{fill:#514835;}.cls-12{fill:#ebaf88;}.cls-13{fill:#c1c0db;}.cls-14,.cls-15{fill:none;stroke:#231f20;}.cls-14{stroke-width:0.43px;}.cls-15{stroke-width:0.39px;}.cls-16{fill:#301812;}.cls-17{fill:#d55227;}</style></defs><title>Asset 9</title><g id="Layer_2" data-name="Layer 2"><g id="Jenny"><ellipse class="cls-1" cx="95.92" cy="500.56" rx="95.92" ry="10.93"/><path class="cls-2" d="M33.56,246.63s-3.82,30.08,16.79,33.1V245.9Z"/><path class="cls-2" d="M169,246.67s3.81,30.08-16.8,33.1V245.94Z"/><path class="cls-3" d="M75.45,101.05s10.79-.8,11.29-13.78h26.5s1.09,17,13.72,13.78l-1.14,9.74L100,121.08l-22.42-6-5.47-10.89Z"/><path class="cls-4" d="M179,247.09l-33.68-1.47V137.25s7.79-44.9,19.75-20.53Q175,184.87,179,247.09Z"/><path class="cls-4" d="M23.66,247.09l33.68-1.47V137.25s-7.79-44.9-19.75-20.53Q27.65,184.87,23.66,247.09Z"/><path class="cls-5" d="M138.27,101.05h-11.2c-3.68,9.53-13.82,16.37-25.76,16.37s-22.08-6.84-25.76-16.37H64.35C50.78,101.05,28.8,115,37.67,116c3.74.42,8.37,5.71,12.68,19L42,254.62l59.3-.31h59.46L152.27,135c4.31-13.29,8.93-18.58,12.67-19C173.82,115,151.83,101.05,138.27,101.05Z"/><line class="cls-6" x1="101.31" y1="254.31" x2="101.31" y2="117.42"/><rect class="cls-7" x="42.01" y="254.31" width="118.76" height="34.39"/><polygon class="cls-7" points="101.31 288.45 84.47 485.57 65.22 485.57 42.01 288.45 101.31 288.45"/><polygon class="cls-7" points="160.77 288.45 135.43 485.57 116.28 485.57 101.49 288.45 160.77 288.45"/><path class="cls-8" d="M116.28,485.57v14.88h49.77s6.56-14.91-23.46-12.13c0,0-7.32-1.29-6.41-9.81"/><path class="cls-8" d="M84.4,485.57v14.88H34.63s-6.57-14.91,23.46-12.13c0,0,7.31-1.29,6.4-9.81"/><circle class="cls-9" cx="109.85" cy="142.62" r="2.57"/><circle class="cls-9" cx="93.03" cy="142.62" r="2.57"/><circle class="cls-9" cx="109.85" cy="161.99" r="2.57"/><circle class="cls-9" cx="93.03" cy="161.99" r="2.57"/><circle class="cls-9" cx="109.85" cy="181.35" r="2.57"/><circle class="cls-9" cx="93.03" cy="181.35" r="2.57"/><circle class="cls-9" cx="109.85" cy="200.71" r="2.57"/><circle class="cls-9" cx="93.03" cy="200.71" r="2.57"/><circle class="cls-9" cx="109.85" cy="220.07" r="2.57"/><circle class="cls-9" cx="93.03" cy="220.07" r="2.57"/><path id="Koza" class="cls-2" d="M138.65,51.32A92.15,92.15,0,0,1,133.52,69a34,34,0,0,1-67.26-1.32A107.29,107.29,0,0,1,61.68,51c-1.7-8.75,2.15-9.85,4.3-9.83v-2A30.67,30.67,0,0,1,96.66,8.47h6.67A30.68,30.68,0,0,1,134,39.14V42.2C135.73,42,140.41,42.2,138.65,51.32Z"/><path class="cls-10" d="M92.64,46.91c.06-5.23-16.19-5.43-16.26-.2C76.33,51.44,92.58,51.63,92.64,46.91Z"/><path class="cls-10" d="M125.31,46.91c.06-5.23-16.19-5.43-16.26-.2C109,51.44,125.25,51.63,125.31,46.91Z"/><circle class="cls-11" cx="84" cy="46.62" r="2.69"/><circle class="cls-11" cx="117.18" cy="46.62" r="2.69"/><path id="Oci" class="cls-12" d="M75.37,47s6.91-6.94,19.13,0C94.5,47,83.87,35.27,75.37,47Z"/><path id="Oci-2" data-name="Oci" class="cls-12" d="M107.92,47s6.9-6.94,19.12,0C127,47,116.42,35.27,107.92,47Z"/><path class="cls-2" d="M102.4,44.61l-.27,1.08C102.11,45,102.2,44.55,102.4,44.61Z"/><path id="Nos" class="cls-12" d="M102.08,67.2a13.65,13.65,0,0,1-5.14-1.41l.36-.71c1.46.73,5.53,2.26,6.85.52.22-.59-.53-5.56-1.13-9.55-1.29-8.48-1.59-11.2-1-11.71a.49.49,0,0,1,.49-.1l-.24.76a.29.29,0,0,0,.31-.11c-.35.7.55,6.68,1.21,11,1.12,7.39,1.39,9.62,1,10.15A3.24,3.24,0,0,1,102.08,67.2Z"/><g id="Obrve"><path class="cls-13" d="M94.84,41.3c-11.57-5.85-16.82-.45-17-.22l-1.47-1.34c.25-.28,6.41-6.78,19.41-.22Z"/></g><g id="Obrve-2" data-name="Obrve"><g id="Obrve-3" data-name="Obrve"><path id="Obrve-4" data-name="Obrve" class="cls-13" d="M126.59,42.06c-11.67-5.89-17-.27-17-.22l-1.47-1.34c.25-.28,6.4-6.78,19.41-.22Z"/></g></g><g id="Ocala"><path class="cls-14" d="M95.74,47.41s7.12-5.39,11.85,0"/><line class="cls-14" x1="67.92" y1="42.7" x2="75.34" y2="46.62"/><line class="cls-14" x1="135.41" y1="42.55" x2="127.98" y2="47.01"/><circle class="cls-15" cx="85.54" cy="47.41" r="10.2"/><circle class="cls-15" cx="117.78" cy="47.41" r="10.2"/></g><path id="Lasje1" class="cls-13" d="M71.23,49.31S68.93,32.37,76.4,25.7a10.3,10.3,0,0,1,2.28-1.55,8,8,0,0,1,1.51-.53c2.79-.78,6-.39,8.85-.21l2.16.23c13.33,1.44,20.2,3.95,20.2,3.95s4-3.82-2.59-5.95S119.5,21.37,124,30.8a64.35,64.35,0,0,1,5.51,18.51l3.87,1s10.27-26.62-2-35.77c-6.69-5-15-11.35-23.19-13.63A24.13,24.13,0,0,0,105.8.41a18.35,18.35,0,0,0-2.19-.32,20.31,20.31,0,0,0-2.2-.08A18.81,18.81,0,0,0,97,.4Q95.81.67,94.73,1c-.72.24-1.43.52-2.12.82-6.84,3.46-12.82,9-20.34,10.87-.73.21-1.44.45-2.12.72-3.4,1.33-6.11,3.4-6.34,7.7-.17.66-.31,1.33-.42,2a17.45,17.45,0,0,0-.15,4.08c0,.5.06,1,0,1.53C63.26,34.44,65,41.5,71.23,49.31Z"/><path id="Brki2" class="cls-13" d="M107.29,68.15s12.57,3,10.75,16.16S101.5,97.13,101.5,97.13s-17.55,1-18-12.82,8.68-15.53,10.81-16.16Z"/><path class="cls-16" d="M113.89,72.75a15,15,0,0,1-5.08,7.53c-1-4.74-18.4-2.9-18.46-2.89a21.75,21.75,0,0,1-2.66-4.64Z"/><path class="cls-17" d="M108.81,80.28h0a13.29,13.29,0,0,1-7.21,2.49,13,13,0,0,1-11.25-5.38C90.41,77.38,107.86,75.54,108.81,80.28Z"/><polygon class="cls-16" points="90.35 77.39 90.35 77.39 90.35 77.39 90.35 77.39"/><polygon class="cls-10" points="87.69 72.75 88.44 74.39 113.33 74.39 113.89 72.75 87.69 72.75"/></g></g></svg>