<svg xmlns="http://www.w3.org/2000/svg" xmlns:xlink="http://www.w3.org/1999/xlink" viewBox="0 0 277.84 715.07"><defs><style>.cls-1,.cls-19,.cls-20,.cls-7{fill:none;stroke-miterlimit:10;}.cls-1{stroke:#00a881;stroke-width:5.67px;}.cls-2{clip-path:url(#clip-path);}.cls-3{fill:#fcc5aa;}.cls-4{fill:#dce6e0;}.cls-5{fill:#d9dceb;}.cls-6{fill:#00a881;}.cls-7{stroke:#499086;stroke-width:0.95px;}.cls-8{fill:#017dad;}.cls-9{fill:#eed1bf;}.cls-10{fill:#44515d;}.cls-11{fill:#499086;}.cls-12{fill:#ffebc6;}.cls-13{fill:#fff;}.cls-14{fill:#524935;}.cls-15{fill:#ebaf88;}.cls-16{fill:#ffe6b4;}.cls-17{fill:#301812;}.cls-18{fill:#d55227;}.cls-19,.cls-20{stroke:#231f20;}.cls-19{stroke-width:0.62px;}.cls-20{stroke-width:0.56px;}</style><clipPath id="clip-path" transform="translate(35.9)"><circle id="Krog" class="cls-1" cx="111.83" cy="111.83" r="109"/></clipPath></defs><g id="Layer_2" data-name="Layer 2"><g id="Layer_1-2" data-name="Layer 1"><g class="cls-2"><path id="Vrat" class="cls-3" d="M148.13,178.62l-.21.53c-5.49,13.54-20,23.2-37.1,23.2-17.29,0-32-9.91-37.3-23.71h-.15a18.31,18.31,0,0,0,12.53-7.4,18,18,0,0,0,2-3.72,25.58,25.58,0,0,0,1.79-8.83H128.1a36.91,36.91,0,0,0,1.89,8.82c1.18,3.37,3.09,7,6.14,9.24C139,178.91,143,179.92,148.13,178.62Z" transform="translate(35.9)"/><ellipse class="cls-4" cx="138.92" cy="699.24" rx="138.92" ry="15.83"/><path class="cls-5" d="M223.29,390.15,174.52,388v-157s11.27-65,28.6-29.73Q217.51,300,223.29,390.15Z" transform="translate(35.9)"/><path class="cls-5" d="M-1.63,390.15,47.14,388v-157s-11.27-65-28.6-29.73Q4.14,300-1.63,390.15Z" transform="translate(35.9)"/><path id="Pulover" class="cls-6" d="M203,200.21l-.41.06c-5.35.94-11.87,8.69-18,27.46V400.58H37V227.73c-6.09-18.77-12.6-26.52-18-27.46l-.41-.06c-12.85-1.45,19-21.59,38.64-21.59H73.52c5.33,13.8,20,23.71,37.3,23.71,17.08,0,31.61-9.66,37.1-23.2.08-.17.14-.34.21-.51h16.22C184,178.62,215.84,198.76,203,200.21Z" transform="translate(35.9)"/><line id="Zadrga" class="cls-7" x1="146.73" y1="400.6" x2="146.73" y2="202.35"/><polygon id="Hlace" class="cls-8" points="220.4 400.6 220.4 450.41 197.23 667.31 168.41 677.53 146.99 450.41 146.73 450.41 122.34 677.53 122.23 677.53 93.48 667.34 72.92 450.41 72.92 400.6 220.4 400.6"/><path id="Koza" class="cls-9" d="M12.7,389.48S7.18,433,37,437.42v-49Z" transform="translate(35.9)"/><path id="Koza-2" data-name="Koza" class="cls-9" d="M208.83,389.54s5.52,43.56-24.32,47.94v-49Z" transform="translate(35.9)"/><path class="cls-10" d="M204.59,699.08H132.51V677.53l28.82-10.22s0,.05,0,.08c-1.25,12.27,9.29,14.13,9.29,14.13C214.1,677.48,204.59,699.08,204.59,699.08Z" transform="translate(35.9)"/><path class="cls-10" d="M86.33,677.53v21.55H14.25s-9.51-21.6,34-17.56c0,0,10.59-1.87,9.27-14.21l.08,0Z" transform="translate(35.9)"/><circle id="Gumb" class="cls-11" cx="159.1" cy="238.85" r="3.72"/><circle id="Gumb-2" data-name="Gumb" class="cls-11" cx="134.74" cy="238.85" r="3.72"/><circle id="Gumb-3" data-name="Gumb" class="cls-11" cx="159.1" cy="266.89" r="3.72"/><circle id="Gumb-4" data-name="Gumb" class="cls-11" cx="134.74" cy="266.89" r="3.72"/><circle id="Gumb-5" data-name="Gumb" class="cls-11" cx="159.1" cy="294.93" r="3.72"/><circle id="Gumb-6" data-name="Gumb" class="cls-11" cx="134.74" cy="294.93" r="3.72"/><circle id="Gumb-7" data-name="Gumb" class="cls-11" cx="159.1" cy="322.97" r="3.72"/><circle id="Gumb-8" data-name="Gumb" class="cls-11" cx="134.74" cy="322.97" r="3.72"/><circle id="Gumb-9" data-name="Gumb" class="cls-11" cx="159.1" cy="351.02" r="3.72"/><circle id="Gumb-10" data-name="Gumb" class="cls-11" cx="134.74" cy="351.02" r="3.72"/><path id="Koza-3" data-name="Koza" class="cls-9" d="M167.56,105.48a133.55,133.55,0,0,1-7.42,25.57,49.25,49.25,0,0,1-97.41-1.91A155.45,155.45,0,0,1,56.09,105c-2.46-12.67,3.11-14.27,6.23-14.23V87.85a44.43,44.43,0,0,1,44.43-44.43h9.66a44.43,44.43,0,0,1,44.43,44.43v4.42C163.33,92,170.12,92.28,167.56,105.48Z" transform="translate(35.9)"/><path id="Brada" class="cls-12" d="M162.86,123.68a84.45,84.45,0,0,1-.63,11.28,62.13,62.13,0,0,1-1.21,6.71,39.35,39.35,0,0,1-1.16,5.64,32.64,32.64,0,0,1-2,5.14,35.78,35.78,0,0,1-2.67,4.52,30.91,30.91,0,0,1-3.45,4.06c-.85,1.37-1.75,2.71-2.72,4a47.51,47.51,0,0,1-3.09,3.69,40.28,40.28,0,0,1-3.68,4.5q-1.73,1.77-3.54,3.41c-4.92,4.45-10.38,8-16.56,9.76a31.32,31.32,0,0,1-4.76.94,14.39,14.39,0,0,1-9.82-1.72C101.31,180,95.25,175,88.53,171.11a54,54,0,0,0-12-5.12,36,36,0,0,1-3.44-2.68A41.17,41.17,0,0,1,70,160.23a41.47,41.47,0,0,1-2.61-4,43.1,43.1,0,0,1-3.87-8.89c-.41-1.52-.74-3-1-4.61a67.93,67.93,0,0,1-.86-16.61c0-.67.09-1.34.16-2-.07-2.28-.1-4.58-.06-6.77.13-6.57.88-12.17,3-13.27,3.29-1.73,4.5-2,4.94-1.83a.32.32,0,0,1,.23.14h0a.25.25,0,0,1,0,.16s1.52,23.72,23.84,34H131.7s22.66-22,22.66-34L160,103.9l.8.19A102.54,102.54,0,0,1,162.86,123.68Z" transform="translate(35.9)"/><path class="cls-13" d="M100.92,99.1c.09-7.58-23.45-7.87-23.54-.29C77.3,105.65,100.84,105.94,100.92,99.1Z" transform="translate(35.9)"/><path class="cls-13" d="M148.24,99.1c.09-7.58-23.45-7.87-23.54-.29C124.61,105.65,148.15,105.94,148.24,99.1Z" transform="translate(35.9)"/><circle class="cls-14" cx="124.32" cy="98.68" r="3.89"/><circle class="cls-14" cx="172.36" cy="98.68" r="3.89"/><path id="Oci" class="cls-15" d="M75.92,99.26s10-10.05,27.69,0C103.61,99.26,88.23,82.24,75.92,99.26Z" transform="translate(35.9)"/><path id="Oci-2" data-name="Oci" class="cls-15" d="M123.05,99.26s10-10.05,27.7,0C150.75,99.26,135.36,82.24,123.05,99.26Z" transform="translate(35.9)"/><path id="Brki" class="cls-12" d="M131.7,136.51H93.76c1.23-4.43,4.25-8,9.5-10.49h4.36c1.25.59,8.06,3.63,10.44.49a1.07,1.07,0,0,0,.12-.49h3.62C126.93,129,130.38,132.45,131.7,136.51Z" transform="translate(35.9)"/><path class="cls-9" d="M115.07,95.77l-.4,1.56C114.65,96.26,114.77,95.68,115.07,95.77Z" transform="translate(35.9)"/><path id="Nos" class="cls-15" d="M114.6,128.48a19.53,19.53,0,0,1-7.44-2l.52-1c2.11,1.06,8,3.28,9.92.75.32-.85-.77-8-1.65-13.82-1.85-12.29-2.29-16.23-1.43-17a.75.75,0,0,1,.72-.15l-.35,1.11a.42.42,0,0,0,.44-.16c-.5,1,.81,9.68,1.76,16,1.62,10.7,2,13.92,1.43,14.69A4.67,4.67,0,0,1,114.6,128.48Z" transform="translate(35.9)"/><g id="Obrve"><path class="cls-16" d="M104.12,91c-16.77-8.46-24.38-.65-24.69-.31l-2.13-2c.37-.41,9.28-9.82,28.12-.32Z" transform="translate(35.9)"/></g><g id="Obrve-2" data-name="Obrve"><g id="Obrve-3" data-name="Obrve"><path id="Obrve-4" data-name="Obrve" class="cls-16" d="M150.1,92.07c-16.9-8.52-24.61-.39-24.69-.31l-2.13-2c.37-.4,9.28-9.82,28.12-.31Z" transform="translate(35.9)"/></g></g><path class="cls-17" d="M131.69,136.52a21.58,21.58,0,0,1-7.34,10.9c-1.39-6.86-26.65-4.19-26.74-4.18a31.51,31.51,0,0,1-3.85-6.72Z" transform="translate(35.9)"/><path class="cls-18" d="M124.35,147.42h0A19.11,19.11,0,0,1,113.91,151c-7.93.47-13.15-3.77-16.3-7.79C97.7,143.23,123,140.56,124.35,147.42Z" transform="translate(35.9)"/><polygon class="cls-17" points="133.51 143.24 133.51 143.24 133.51 143.24 133.51 143.24"/><polygon class="cls-13" points="129.65 136.52 130.73 138.9 166.78 138.9 167.59 136.52 129.65 136.52"/><g id="Ocala"><path class="cls-19" d="M105.41,99.82s10.32-7.8,17.16,0" transform="translate(35.9)"/><line class="cls-19" x1="101.02" y1="93" x2="111.77" y2="98.68"/><line class="cls-19" x1="198.76" y1="92.78" x2="188.01" y2="99.25"/><circle class="cls-20" cx="126.54" cy="99.82" r="14.77"/><circle class="cls-20" cx="173.24" cy="99.82" r="14.77"/></g><path id="Lasje" class="cls-12" d="M168.85,197.21s-5.67-1.23-9.72-14c-9.94-9.12-23.69-16.12-23.69-16.12,8.48-5,15.75-16.52,19.75-23.88.15-6,.53-12.66,1.2-20.06,6.1-68.52-42.13-48.7-44.18-48.55,0,0,0,0,0,0h0c-2-.14-50.22-20-44.11,48.55.65,7.35,1,14,1.19,19.94,5.47,9.14,17.15,22.43,17.15,22.43-5.79-3.78-13.57,4.31-19.86,13.26-4,17-10.94,18.45-10.94,18.45s-28.77-171.92,56.61-165C197.62,25.3,168.85,197.21,168.85,197.21Z" transform="translate(35.9)"/></g><circle id="Krog-2" data-name="Krog" class="cls-1" cx="147.73" cy="111.83" r="109"/></g></g></svg>