<svg xmlns="http://www.w3.org/2000/svg" xmlns:xlink="http://www.w3.org/1999/xlink" viewBox="0 0 277.84 715.07"><defs><style>.cls-1,.cls-19,.cls-20,.cls-7{fill:none;stroke-miterlimit:10;}.cls-1{stroke:#00a881;stroke-width:5.67px;}.cls-2{clip-path:url(#clip-path);}.cls-3{fill:#fcc5aa;}.cls-4{fill:#dce6e0;}.cls-5{fill:#d9dceb;}.cls-6{fill:#00a881;}.cls-7{stroke:#499086;stroke-width:0.95px;}.cls-8{fill:#017dad;}.cls-9{fill:#eed1bf;}.cls-10{fill:#44515d;}.cls-11{fill:#499086;}.cls-12{fill:#fff;}.cls-13{fill:#524935;}.cls-14{fill:#ebaf88;}.cls-15{fill:#ffebc6;}.cls-16{fill:#ffe6b4;}.cls-17{fill:#301812;}.cls-18{fill:#d55227;}.cls-19,.cls-20{stroke:#231f20;}.cls-19{stroke-width:0.62px;}.cls-20{stroke-width:0.56px;}</style><clipPath id="clip-path" transform="translate(36.3)"><circle id="Krog" class="cls-1" cx="111.83" cy="111.83" r="109"/></clipPath></defs><g id="Layer_2" data-name="Layer 2"><g id="Layer_1-2" data-name="Layer 1"><g class="cls-2"><path id="Vrat" class="cls-3" d="M147.73,178.62l-.21.53c-5.49,13.54-20,23.2-37.1,23.2-17.29,0-32-9.91-37.3-23.71H73a18.31,18.31,0,0,0,12.53-7.4,18,18,0,0,0,2-3.72,25.58,25.58,0,0,0,1.79-8.83H127.7a36.91,36.91,0,0,0,1.89,8.82c1.18,3.37,3.09,7,6.14,9.24C138.57,178.91,142.56,179.92,147.73,178.62Z" transform="translate(36.3)"/><ellipse class="cls-4" cx="138.92" cy="699.24" rx="138.92" ry="15.83"/><path class="cls-5" d="M222.88,390.15,174.11,388v-157s11.27-65,28.6-29.73Q217.11,300,222.88,390.15Z" transform="translate(36.3)"/><path class="cls-5" d="M-2,390.15,46.73,388v-157s-11.27-65-28.6-29.73Q3.73,300-2,390.15Z" transform="translate(36.3)"/><path id="Pulover" class="cls-6" d="M202.59,200.21l-.41.06c-5.35.94-11.87,8.69-18,27.46V400.58H36.62V227.73C30.53,209,24,201.21,18.67,200.27l-.41-.06c-12.85-1.45,19-21.59,38.64-21.59H73.12c5.33,13.8,20,23.71,37.3,23.71,17.08,0,31.61-9.66,37.1-23.2.08-.17.14-.34.21-.51H164C183.6,178.62,215.44,198.76,202.59,200.21Z" transform="translate(36.3)"/><line id="Zadrga" class="cls-7" x1="146.73" y1="400.6" x2="146.73" y2="202.35"/><polygon id="Hlace" class="cls-8" points="220.4 400.6 220.4 450.41 197.23 667.31 168.41 677.53 146.99 450.41 146.73 450.41 122.34 677.53 122.23 677.53 93.48 667.34 72.92 450.41 72.92 400.6 220.4 400.6"/><path id="Koza" class="cls-9" d="M12.29,389.48S6.77,433,36.62,437.42v-49Z" transform="translate(36.3)"/><path id="Koza-2" data-name="Koza" class="cls-9" d="M208.42,389.54S214,433.1,184.1,437.48v-49Z" transform="translate(36.3)"/><path class="cls-10" d="M204.19,699.08H132.11V677.53l28.82-10.22s0,.05,0,.08c-1.25,12.27,9.29,14.13,9.29,14.13C213.7,677.48,204.19,699.08,204.19,699.08Z" transform="translate(36.3)"/><path class="cls-10" d="M85.93,677.53v21.55H13.85s-9.51-21.6,34-17.56c0,0,10.59-1.87,9.27-14.21l.08,0Z" transform="translate(36.3)"/><circle id="Gumb" class="cls-11" cx="159.1" cy="238.85" r="3.72"/><circle id="Gumb-2" data-name="Gumb" class="cls-11" cx="134.74" cy="238.85" r="3.72"/><circle id="Gumb-3" data-name="Gumb" class="cls-11" cx="159.1" cy="266.89" r="3.72"/><circle id="Gumb-4" data-name="Gumb" class="cls-11" cx="134.74" cy="266.89" r="3.72"/><circle id="Gumb-5" data-name="Gumb" class="cls-11" cx="159.1" cy="294.93" r="3.72"/><circle id="Gumb-6" data-name="Gumb" class="cls-11" cx="134.74" cy="294.93" r="3.72"/><circle id="Gumb-7" data-name="Gumb" class="cls-11" cx="159.1" cy="322.97" r="3.72"/><circle id="Gumb-8" data-name="Gumb" class="cls-11" cx="134.74" cy="322.97" r="3.72"/><circle id="Gumb-9" data-name="Gumb" class="cls-11" cx="159.1" cy="351.02" r="3.72"/><circle id="Gumb-10" data-name="Gumb" class="cls-11" cx="134.74" cy="351.02" r="3.72"/><path id="Koza-3" data-name="Koza" class="cls-9" d="M167.15,105.48a133.55,133.55,0,0,1-7.42,25.57,49.25,49.25,0,0,1-97.41-1.91A155.45,155.45,0,0,1,55.68,105c-2.46-12.67,3.11-14.27,6.23-14.23V87.85a44.43,44.43,0,0,1,44.43-44.43H116a44.43,44.43,0,0,1,44.43,44.43v4.42C162.92,92,169.71,92.28,167.15,105.48Z" transform="translate(36.3)"/><path class="cls-12" d="M100.51,99.1c.09-7.58-23.45-7.87-23.54-.29C76.89,105.65,100.43,105.94,100.51,99.1Z" transform="translate(36.3)"/><path class="cls-12" d="M147.83,99.1c.09-7.58-23.45-7.87-23.54-.29C124.2,105.65,147.74,105.94,147.83,99.1Z" transform="translate(36.3)"/><circle class="cls-13" cx="124.32" cy="98.68" r="3.89"/><circle class="cls-13" cx="172.36" cy="98.68" r="3.89"/><path id="Oci" class="cls-14" d="M75.51,99.26s10-10.05,27.7,0C103.21,99.26,87.82,82.24,75.51,99.26Z" transform="translate(36.3)"/><path id="Oci-2" data-name="Oci" class="cls-14" d="M122.64,99.26s10-10.05,27.7,0C150.34,99.26,135,82.24,122.64,99.26Z" transform="translate(36.3)"/><path id="Brki" class="cls-15" d="M131.29,136.51H93.35c1.23-4.43,4.25-8,9.5-10.49h4.36c1.25.59,8.06,3.63,10.44.49a1.07,1.07,0,0,0,.12-.49h3.62C126.52,129,130,132.45,131.29,136.51Z" transform="translate(36.3)"/><path class="cls-9" d="M114.66,95.77l-.4,1.56C114.24,96.26,114.36,95.68,114.66,95.77Z" transform="translate(36.3)"/><path id="Nos" class="cls-14" d="M114.19,128.48a19.53,19.53,0,0,1-7.44-2l.52-1c2.11,1.06,8,3.28,9.92.75.32-.85-.77-8-1.64-13.82-1.86-12.29-2.3-16.23-1.44-17a.76.76,0,0,1,.72-.15l-.35,1.11a.41.41,0,0,0,.44-.16c-.5,1,.81,9.68,1.77,16,1.61,10.7,2,13.92,1.42,14.69A4.65,4.65,0,0,1,114.19,128.48Z" transform="translate(36.3)"/><g id="Obrve"><path class="cls-16" d="M103.71,91c-16.77-8.46-24.37-.65-24.69-.31l-2.12-2c.36-.41,9.27-9.82,28.11-.32Z" transform="translate(36.3)"/></g><g id="Obrve-2" data-name="Obrve"><g id="Obrve-3" data-name="Obrve"><path id="Obrve-4" data-name="Obrve" class="cls-16" d="M149.69,92.07c-16.9-8.52-24.61-.39-24.68-.31l-2.14-2c.37-.4,9.28-9.82,28.12-.31Z" transform="translate(36.3)"/></g></g><path class="cls-17" d="M131.29,136.52c-.09,0-1.53,6.58-7.35,10.9-1.38-6.86-26.65-4.19-26.74-4.18a31.51,31.51,0,0,1-3.85-6.72Z" transform="translate(36.3)"/><path class="cls-18" d="M123.94,147.42h0A19.17,19.17,0,0,1,113.5,151c-7.93.47-13.15-3.77-16.3-7.79C97.29,143.23,122.56,140.56,123.94,147.42Z" transform="translate(36.3)"/><polygon class="cls-17" points="133.51 143.24 133.51 143.24 133.51 143.24 133.51 143.24"/><polygon class="cls-12" points="129.65 136.52 130.73 138.9 166.78 138.9 167.59 136.52 129.65 136.52"/><g id="Ocala"><path class="cls-19" d="M105,99.82s10.32-7.8,17.16,0" transform="translate(36.3)"/><line class="cls-19" x1="101.02" y1="93" x2="111.77" y2="98.68"/><line class="cls-19" x1="198.76" y1="92.78" x2="188.01" y2="99.25"/><circle class="cls-20" cx="126.54" cy="99.82" r="14.77"/><circle class="cls-20" cx="173.24" cy="99.82" r="14.77"/></g><path id="Lasje" class="cls-15" d="M168.44,197.21s-5.67-1.23-9.72-14c-9.94-9.12-23.69-16.12-23.69-16.12,8.48-5,15.75-16.52,19.75-23.88.16-6,.54-12.66,1.2-20.06,6.1-68.52-42.13-48.7-44.18-48.55h0c-2-.14-50.22-20-44.11,48.55.66,7.35,1,14,1.19,19.94C74.36,152.21,86,165.5,86,165.5c-5.8-3.78-13.58,4.31-19.87,13.26-4,17-10.94,18.45-10.94,18.45s-28.77-171.92,56.61-165C197.21,25.3,168.44,197.21,168.44,197.21Z" transform="translate(36.3)"/></g><circle id="Krog-2" data-name="Krog" class="cls-1" cx="148.14" cy="111.83" r="109"/></g></g></svg>