<svg xmlns="http://www.w3.org/2000/svg" xmlns:xlink="http://www.w3.org/1999/xlink" viewBox="0 0 277.84 712.32"><defs><style>.cls-1,.cls-18,.cls-19,.cls-7{fill:none;stroke-miterlimit:10;}.cls-1{stroke:#00a881;stroke-width:5.67px;}.cls-2{clip-path:url(#clip-path);}.cls-3{fill:#fcc5aa;}.cls-4{fill:#dce6e0;}.cls-5{fill:#d9dceb;}.cls-6{fill:#00a881;}.cls-7{stroke:#499086;stroke-width:0.95px;}.cls-8{fill:#017dad;}.cls-9{fill:#eed1bf;}.cls-10{fill:#44515d;}.cls-11{fill:#499086;}.cls-12{fill:#fff;}.cls-13{fill:#524935;}.cls-14{fill:#ebaf88;}.cls-15{fill:#ffe6b4;}.cls-16{fill:#301812;}.cls-17{fill:#d55227;}.cls-18,.cls-19{stroke:#231f20;}.cls-18{stroke-width:0.62px;}.cls-19{stroke-width:0.56px;}.cls-20{fill:#ffebc6;}</style><clipPath id="clip-path" transform="translate(36.3)"><circle id="Krog" class="cls-1" cx="111.83" cy="111.83" r="109"/></clipPath></defs><g id="Layer_2" data-name="Layer 2"><g id="Layer_1-2" data-name="Layer 1"><g class="cls-2"><path id="Vrat" class="cls-3" d="M147.73,175.87l-.21.53c-5.49,13.54-20,23.2-37.1,23.2-17.29,0-32-9.91-37.3-23.71H73a18.31,18.31,0,0,0,12.53-7.4,18,18,0,0,0,2-3.72,25.58,25.58,0,0,0,1.79-8.83H127.7a36.91,36.91,0,0,0,1.89,8.82c1.18,3.37,3.09,7,6.14,9.24C138.57,176.16,142.56,177.17,147.73,175.87Z" transform="translate(36.3)"/><ellipse class="cls-4" cx="138.92" cy="696.49" rx="138.92" ry="15.83"/><path class="cls-5" d="M222.88,387.39l-48.77-2.12v-157s11.27-65,28.6-29.73Q217.11,297.28,222.88,387.39Z" transform="translate(36.3)"/><path class="cls-5" d="M-2,387.39l48.77-2.12v-157s-11.27-65-28.6-29.73Q3.73,297.28-2,387.39Z" transform="translate(36.3)"/><path id="Pulover" class="cls-6" d="M202.59,197.46l-.41.06c-5.35.94-11.87,8.69-18,27.46V397.83H36.62V225c-6.09-18.77-12.6-26.52-17.95-27.46l-.41-.06c-12.85-1.45,19-21.59,38.64-21.59H73.12c5.33,13.8,20,23.71,37.3,23.71,17.08,0,31.61-9.66,37.1-23.2.08-.17.14-.34.21-.51H164C183.6,175.87,215.44,196,202.59,197.46Z" transform="translate(36.3)"/><line id="Zadrga" class="cls-7" x1="146.73" y1="397.85" x2="146.73" y2="199.6"/><polygon id="Hlace" class="cls-8" points="220.4 397.85 220.4 447.66 197.23 664.56 168.41 674.78 146.99 447.66 146.73 447.66 122.34 674.78 122.23 674.78 93.48 664.59 72.92 447.66 72.92 397.85 220.4 397.85"/><path id="Koza" class="cls-9" d="M12.29,386.73s-5.52,43.56,24.33,47.94v-49Z" transform="translate(36.3)"/><path id="Koza-2" data-name="Koza" class="cls-9" d="M208.42,386.79s5.53,43.56-24.32,47.93v-49Z" transform="translate(36.3)"/><path class="cls-10" d="M204.19,696.33H132.11V674.78l28.82-10.22s0,.05,0,.08c-1.25,12.27,9.29,14.13,9.29,14.13C213.7,674.73,204.19,696.33,204.19,696.33Z" transform="translate(36.3)"/><path class="cls-10" d="M85.93,674.78v21.55H13.85s-9.51-21.6,34-17.56c0,0,10.59-1.87,9.27-14.21l.08,0Z" transform="translate(36.3)"/><circle id="Gumb" class="cls-11" cx="159.1" cy="236.1" r="3.72"/><circle id="Gumb-2" data-name="Gumb" class="cls-11" cx="134.74" cy="236.1" r="3.72"/><circle id="Gumb-3" data-name="Gumb" class="cls-11" cx="159.1" cy="264.14" r="3.72"/><circle id="Gumb-4" data-name="Gumb" class="cls-11" cx="134.74" cy="264.14" r="3.72"/><circle id="Gumb-5" data-name="Gumb" class="cls-11" cx="159.1" cy="292.18" r="3.72"/><circle id="Gumb-6" data-name="Gumb" class="cls-11" cx="134.74" cy="292.18" r="3.72"/><circle id="Gumb-7" data-name="Gumb" class="cls-11" cx="159.1" cy="320.22" r="3.72"/><circle id="Gumb-8" data-name="Gumb" class="cls-11" cx="134.74" cy="320.22" r="3.72"/><circle id="Gumb-9" data-name="Gumb" class="cls-11" cx="159.1" cy="348.26" r="3.72"/><circle id="Gumb-10" data-name="Gumb" class="cls-11" cx="134.74" cy="348.26" r="3.72"/><path id="Koza-3" data-name="Koza" class="cls-9" d="M167.15,102.73a133.55,133.55,0,0,1-7.42,25.57,49.25,49.25,0,0,1-97.41-1.91,155.45,155.45,0,0,1-6.64-24.12C53.22,89.6,58.79,88,61.91,88V85.1a44.43,44.43,0,0,1,44.43-44.43H116A44.43,44.43,0,0,1,160.43,85.1v4.42C162.92,89.22,169.71,89.53,167.15,102.73Z" transform="translate(36.3)"/><path class="cls-12" d="M100.51,96.34c.09-7.57-23.45-7.86-23.54-.28C76.89,102.9,100.43,103.19,100.51,96.34Z" transform="translate(36.3)"/><path class="cls-12" d="M147.83,96.34c.09-7.57-23.45-7.86-23.54-.28C124.2,102.9,147.74,103.19,147.83,96.34Z" transform="translate(36.3)"/><circle class="cls-13" cx="124.32" cy="95.93" r="3.89"/><circle class="cls-13" cx="172.36" cy="95.93" r="3.89"/><path id="Oci" class="cls-14" d="M75.51,96.5s10-10,27.7,0C103.21,96.5,87.82,79.49,75.51,96.5Z" transform="translate(36.3)"/><path id="Oci-2" data-name="Oci" class="cls-14" d="M122.64,96.5s10-10,27.7,0C150.34,96.5,135,79.49,122.64,96.5Z" transform="translate(36.3)"/><path class="cls-9" d="M114.66,93l-.4,1.56C114.24,93.51,114.36,92.93,114.66,93Z" transform="translate(36.3)"/><path id="Nos" class="cls-14" d="M114.19,125.73a19.72,19.72,0,0,1-7.44-2l.52-1c2.11,1.06,8,3.27,9.92.75.32-.85-.77-8-1.64-13.82-1.86-12.29-2.3-16.23-1.44-17a.73.73,0,0,1,.72-.15l-.35,1.1a.39.39,0,0,0,.44-.15c-.5,1,.81,9.67,1.77,16,1.61,10.7,2,13.93,1.42,14.69A4.66,4.66,0,0,1,114.19,125.73Z" transform="translate(36.3)"/><g id="Obrve"><path class="cls-15" d="M103.71,88.22c-16.77-8.47-24.37-.65-24.69-.31L76.9,86c.36-.41,9.27-9.83,28.11-.32Z" transform="translate(36.3)"/></g><g id="Obrve-2" data-name="Obrve"><g id="Obrve-3" data-name="Obrve"><path id="Obrve-4" data-name="Obrve" class="cls-15" d="M149.69,89.32c-16.9-8.53-24.61-.4-24.68-.31l-2.14-2c.37-.4,9.28-9.82,28.12-.31Z" transform="translate(36.3)"/></g></g><path class="cls-16" d="M131.29,133.76c-.09,0-1.53,6.59-7.35,10.91-1.38-6.86-26.65-4.2-26.74-4.18a31.17,31.17,0,0,1-3.85-6.73Z" transform="translate(36.3)"/><path class="cls-17" d="M123.94,144.67h0a19.17,19.17,0,0,1-10.44,3.61c-7.93.46-13.15-3.78-16.3-7.79C97.29,140.47,122.56,137.81,123.94,144.67Z" transform="translate(36.3)"/><polygon class="cls-16" points="133.51 140.49 133.51 140.49 133.51 140.49 133.51 140.49"/><polygon class="cls-12" points="129.65 133.76 130.73 136.15 166.78 136.15 167.59 133.76 129.65 133.76"/><g id="Ocala"><path class="cls-18" d="M105,97.07s10.32-7.8,17.16,0" transform="translate(36.3)"/><line class="cls-18" x1="101.02" y1="90.25" x2="111.77" y2="95.92"/><line class="cls-18" x1="198.76" y1="90.02" x2="188.01" y2="96.49"/><circle class="cls-19" cx="126.54" cy="97.07" r="14.77"/><circle class="cls-19" cx="173.24" cy="97.07" r="14.77"/></g><path id="Lasje" class="cls-20" d="M168.44,194.46s-5.67-1.24-9.72-14c-9.94-9.12-23.69-16.13-23.69-16.13,8.48-5,15.75-16.51,19.75-23.87.16-6,.54-12.67,1.2-20.06,6.1-68.52-42.13-48.7-44.18-48.56h0c-2-.14-50.22-20-44.11,48.56.66,7.35,1,14,1.19,19.94C74.36,149.46,86,162.74,86,162.74,80.24,159,72.46,167.05,66.17,176c-4,16.94-10.94,18.45-10.94,18.45s-28.77-171.92,56.61-165C197.21,22.55,168.44,194.46,168.44,194.46Z" transform="translate(36.3)"/></g><circle id="Krog-2" data-name="Krog" class="cls-1" cx="148.14" cy="111.83" r="109"/></g></g></svg>