<svg xmlns="http://www.w3.org/2000/svg" viewBox="0 0 659.71 461.79"><defs><style>.cls-1{fill:#9fccc5;}.cls-2{fill:#77ba85;}.cls-3{fill:#4fbfa5;}.cls-4,.cls-6{fill:#f2f3f3;}.cls-11,.cls-13,.cls-18,.cls-25,.cls-27,.cls-30,.cls-4{fill-rule:evenodd;}.cls-5{fill:#c5c7c9;}.cls-11,.cls-7{fill:#dbdcdd;}.cls-8{fill:#caccce;}.cls-9{fill:#b1b3b5;}.cls-10{fill:#e2e3e4;}.cls-12{fill:#cfd0d2;}.cls-13,.cls-15{fill:#fff;}.cls-14,.cls-27{fill:#e6e7e8;}.cls-16{fill:#eeefef;}.cls-17{fill:#c4c5c7;}.cls-18{fill:#dfe0e1;}.cls-19{fill:#d7d8da;}.cls-20,.cls-25{fill:none;stroke-miterlimit:10;}.cls-20{stroke:#f9b498;stroke-width:4.18px;}.cls-21{fill:#cccecf;}.cls-22{fill:#d9dbdc;}.cls-23{fill:#d9f0fc;}.cls-24{opacity:0.5;}.cls-25{stroke:#4d4d4a;stroke-width:4.01px;}.cls-26{fill:#4d4d4a;}.cls-28{fill:#f1f1f2;}.cls-29{fill:#e8e8e9;}.cls-30{fill:#04856f;}.cls-31{fill:#cecac5;}.cls-32{fill:#85837d;}.cls-33{fill:#a39f9a;}.cls-34{fill:#065;}.cls-35{fill:#ffffec;}</style></defs><title>bathroom 02</title><g id="Layer_2" data-name="Layer 2"><g id="Glavno_Besedilo" data-name="Glavno Besedilo"><rect id="_Rectangle_" data-name="&lt;Rectangle&gt;" class="cls-1" width="659.71" height="390.51"/><path class="cls-2" d="M642.13,54.73h17v-3h-17V0h-1.61V51.77H617.19V0h-1.61V51.77H592.25V0h-1.61V51.77H567.3V0h-1.61V51.77H542.36V0h-1.61V51.77H517.42V0h-1.61V51.77H492.47V0h-1.61V51.77H467.53V0h-1.61V51.77H442.59V0H441V51.77H417.64V0H416V51.77H392.7V0h-1.61V51.77H367.75V0h-1.61V51.77H342.81V0H341.2V51.77H317.87V0h-1.61V51.77H292.92V0h-1.61V51.77H268V0h-1.61V51.77H243V0h-1.61V51.77H218.09V0h-1.61V51.77H193.15V0h-1.61V51.77H168.21V0H166.6V51.77H143.26V0h-1.61V51.77H118.32V0h-1.61V51.77H93.38V0H91.77V51.77H68.43V0H66.82V51.77H43.49V0H41.88V51.77H18.55V0H16.94V51.77H1v3h16V99.11H1v3h16v44.38H1v3h16v44.38H1v3h16v44.37H1v3h16v44.38H1v3h16v44.38H1v3h16v51.77h1.61V338.74H41.88v51.77h1.61V338.74H66.82v51.77h1.61V338.74H91.77v51.77h1.61V338.74h23.33v51.77h1.61V338.74h23.33v51.77h1.61V338.74H166.6v51.77h1.61V338.74h23.33v51.77h1.61V338.74h23.33v51.77h1.61V338.74h23.34v51.77H243V338.74h23.33v51.77H268V338.74h23.33v51.77h1.61V338.74h23.34v51.77h1.61V338.74H341.2v51.77h1.61V338.74h23.33v51.77h1.61V338.74h23.33v51.77h1.61V338.74H416v51.77h1.61V338.74H441v51.77h1.61V338.74h23.33v51.77h1.61V338.74h23.33v51.77h1.61V338.74h23.34v51.77h1.61V338.74h23.33v51.77h1.61V338.74h23.33v51.77h1.61V338.74h23.33v51.77h1.61V338.74h23.33v51.77h1.61V338.74h23.33v51.77h1.61V338.74h17v-3h-17V291.4h17v-3h-17V244.07h17v-3h-17V196.74h17v-3h-17V149.4h17v-3h-17V102.06h17v-3h-17ZM41.88,335.78H18.55V291.4H41.88Zm0-47.34H18.55V244.07H41.88Zm0-47.34H18.55V196.74H41.88Zm0-47.33H18.55V149.4H41.88Zm0-47.34H18.55V102.06H41.88Zm0-47.33H18.55V54.73H41.88ZM66.82,335.78H43.49V291.4H66.82Zm0-47.34H43.49V244.07H66.82Zm0-47.34H43.49V196.74H66.82Zm0-47.33H43.49V149.4H66.82Zm0-47.34H43.49V102.06H66.82Zm0-47.33H43.49V54.73H66.82ZM91.77,335.78H68.43V291.4H91.77Zm0-47.34H68.43V244.07H91.77Zm0-47.34H68.43V196.74H91.77Zm0-47.33H68.43V149.4H91.77Zm0-47.34H68.43V102.06H91.77Zm0-47.33H68.43V54.73H91.77Zm24.94,236.67H93.38V291.4h23.33Zm0-47.34H93.38V244.07h23.33Zm0-47.34H93.38V196.74h23.33Zm0-47.33H93.38V149.4h23.33Zm0-47.34H93.38V102.06h23.33Zm0-47.33H93.38V54.73h23.33Zm24.94,236.67H118.32V291.4h23.33Zm0-47.34H118.32V244.07h23.33Zm0-47.34H118.32V196.74h23.33Zm0-47.33H118.32V149.4h23.33Zm0-47.34H118.32V102.06h23.33Zm0-47.33H118.32V54.73h23.33ZM166.6,335.78H143.26V291.4H166.6Zm0-47.34H143.26V244.07H166.6Zm0-47.34H143.26V196.74H166.6Zm0-47.33H143.26V149.4H166.6Zm0-47.34H143.26V102.06H166.6Zm0-47.33H143.26V54.73H166.6Zm24.94,236.67H168.21V291.4h23.33Zm0-47.34H168.21V244.07h23.33Zm0-47.34H168.21V196.74h23.33Zm0-47.33H168.21V149.4h23.33Zm0-47.34H168.21V102.06h23.33Zm0-47.33H168.21V54.73h23.33Zm24.94,236.67H193.15V291.4h23.33Zm0-47.34H193.15V244.07h23.33Zm0-47.34H193.15V196.74h23.33Zm0-47.33H193.15V149.4h23.33Zm0-47.34H193.15V102.06h23.33Zm0-47.33H193.15V54.73h23.33Zm24.95,236.67H218.09V291.4h23.34Zm0-47.34H218.09V244.07h23.34Zm0-47.34H218.09V196.74h23.34Zm0-47.33H218.09V149.4h23.34Zm0-47.34H218.09V102.06h23.34Zm0-47.33H218.09V54.73h23.34Zm24.94,236.67H243V291.4h23.33Zm0-47.34H243V244.07h23.33Zm0-47.34H243V196.74h23.33Zm0-47.33H243V149.4h23.33Zm0-47.34H243V102.06h23.33Zm0-47.33H243V54.73h23.33Zm24.94,236.67H268V291.4h23.33Zm0-47.34H268V244.07h23.33Zm0-47.34H268V196.74h23.33Zm0-47.33H268V149.4h23.33Zm0-47.34H268V102.06h23.33Zm0-47.33H268V54.73h23.33Zm24.95,236.67H292.92V291.4h23.34Zm0-47.34H292.92V244.07h23.34Zm0-47.34H292.92V196.74h23.34Zm0-47.33H292.92V149.4h23.34Zm0-47.34H292.92V102.06h23.34Zm0-47.33H292.92V54.73h23.34ZM341.2,335.78H317.87V291.4H341.2Zm0-47.34H317.87V244.07H341.2Zm0-47.34H317.87V196.74H341.2Zm0-47.33H317.87V149.4H341.2Zm0-47.34H317.87V102.06H341.2Zm0-47.33H317.87V54.73H341.2Zm24.94,236.67H342.81V291.4h23.33Zm0-47.34H342.81V244.07h23.33Zm0-47.34H342.81V196.74h23.33Zm0-47.33H342.81V149.4h23.33Zm0-47.34H342.81V102.06h23.33Zm0-47.33H342.81V54.73h23.33Zm24.94,236.67H367.75V291.4h23.33Zm0-47.34H367.75V244.07h23.33Zm0-47.34H367.75V196.74h23.33Zm0-47.33H367.75V149.4h23.33Zm0-47.34H367.75V102.06h23.33Zm0-47.33H367.75V54.73h23.33ZM416,335.78H392.7V291.4H416Zm0-47.34H392.7V244.07H416Zm0-47.34H392.7V196.74H416Zm0-47.33H392.7V149.4H416Zm0-47.34H392.7V102.06H416Zm0-47.33H392.7V54.73H416ZM441,335.78H417.64V291.4H441Zm0-47.34H417.64V244.07H441Zm0-47.34H417.64V196.74H441Zm0-47.33H417.64V149.4H441Zm0-47.34H417.64V102.06H441Zm0-47.33H417.64V54.73H441Zm24.94,236.67H442.59V291.4h23.33Zm0-47.34H442.59V244.07h23.33Zm0-47.34H442.59V196.74h23.33Zm0-47.33H442.59V149.4h23.33Zm0-47.34H442.59V102.06h23.33Zm0-47.33H442.59V54.73h23.33Zm24.94,236.67H467.53V291.4h23.33Zm0-47.34H467.53V244.07h23.33Zm0-47.34H467.53V196.74h23.33Zm0-47.33H467.53V149.4h23.33Zm0-47.34H467.53V102.06h23.33Zm0-47.33H467.53V54.73h23.33Zm24.94,236.67H492.47V291.4h23.34Zm0-47.34H492.47V244.07h23.34Zm0-47.34H492.47V196.74h23.34Zm0-47.33H492.47V149.4h23.34Zm0-47.34H492.47V102.06h23.34Zm0-47.33H492.47V54.73h23.34Zm24.94,236.67H517.42V291.4h23.33Zm0-47.34H517.42V244.07h23.33Zm0-47.34H517.42V196.74h23.33Zm0-47.33H517.42V149.4h23.33Zm0-47.34H517.42V102.06h23.33Zm0-47.33H517.42V54.73h23.33Zm24.94,236.67H542.36V291.4h23.33Zm0-47.34H542.36V244.07h23.33Zm0-47.34H542.36V196.74h23.33Zm0-47.33H542.36V149.4h23.33Zm0-47.34H542.36V102.06h23.33Zm0-47.33H542.36V54.73h23.33Zm24.94,236.67H567.3V291.4h23.33Zm0-47.34H567.3V244.07h23.33Zm0-47.34H567.3V196.74h23.33Zm0-47.33H567.3V149.4h23.33Zm0-47.34H567.3V102.06h23.33Zm0-47.33H567.3V54.73h23.33Zm24.94,236.67H592.25V291.4h23.33Zm0-47.34H592.25V244.07h23.33Zm0-47.34H592.25V196.74h23.33Zm0-47.33H592.25V149.4h23.33Zm0-47.34H592.25V102.06h23.33Zm0-47.33H592.25V54.73h23.33Zm24.94,236.67H617.19V291.4h23.33Zm0-47.34H617.19V244.07h23.33Zm0-47.34H617.19V196.74h23.33Zm0-47.33H617.19V149.4h23.33Zm0-47.34H617.19V102.06h23.33Zm0-47.33H617.19V54.73h23.33Z"/><rect id="_Rectangle_2" data-name="&lt;Rectangle&gt;" class="cls-3" y="389.67" width="659.71" height="72.12"/><g id="_Group_" data-name="&lt;Group&gt;"><path id="_Path_" data-name="&lt;Path&gt;" class="cls-4" d="M49.54,398.54h22c-6.05-6.54,0-33.23,6.78-33.23s28.81-6.72,28.81-26.86H46.72Z"/><rect id="_Rectangle_3" data-name="&lt;Rectangle&gt;" class="cls-5" x="18.03" y="336.31" width="89.14" height="2.14"/><rect id="_Rectangle_4" data-name="&lt;Rectangle&gt;" class="cls-6" x="19.04" y="273.32" width="34.19" height="62.99"/><rect id="_Rectangle_5" data-name="&lt;Rectangle&gt;" class="cls-7" x="19.04" y="271.87" width="34.19" height="1.45"/><path id="_Rectangle_6" data-name="&lt;Rectangle&gt;" class="cls-6" d="M24.91,265.18H47.37A5.87,5.87,0,0,1,53.23,271v.82a0,0,0,0,1,0,0H19a0,0,0,0,1,0,0V271A5.87,5.87,0,0,1,24.91,265.18Z"/><path id="_Rectangle_7" data-name="&lt;Rectangle&gt;" class="cls-6" d="M53.23,332.54h55.23a1.65,1.65,0,0,1,1.65,1.65v.46a1.65,1.65,0,0,1-1.65,1.65H53.23a0,0,0,0,1,0,0v-3.76a0,0,0,0,1,0,0Z"/><path id="_Rectangle_8" data-name="&lt;Rectangle&gt;" class="cls-6" d="M53.23,329.19h53a2,2,0,0,1,2,2v.28a0,0,0,0,1,0,0h-55a0,0,0,0,1,0,0v-2.24A0,0,0,0,1,53.23,329.19Z"/><rect id="_Rectangle_9" data-name="&lt;Rectangle&gt;" class="cls-5" x="53.23" y="331.42" width="55" height="1.12"/><g id="_Group_2" data-name="&lt;Group&gt;"><circle id="_Path_2" data-name="&lt;Path&gt;" class="cls-8" cx="35.88" cy="288.75" r="5.25"/><circle id="_Path_3" data-name="&lt;Path&gt;" class="cls-9" cx="35.88" cy="288.75" r="3.07"/><circle id="_Path_4" data-name="&lt;Path&gt;" class="cls-10" cx="35.88" cy="288.75" r="2.22"/><path id="_Rectangle_10" data-name="&lt;Rectangle&gt;" class="cls-10" d="M34.82,288.75h2.12a0,0,0,0,1,0,0v6.77a.71.71,0,0,1-.71.71h-.71a.71.71,0,0,1-.71-.71v-6.77A0,0,0,0,1,34.82,288.75Z"/></g><path id="_Path_5" data-name="&lt;Path&gt;" class="cls-11" d="M18,338.45c0,30.53,12.21,60.09,12.21,60.09h23V338.45Z"/></g><g id="_Group_3" data-name="&lt;Group&gt;"><rect id="_Rectangle_11" data-name="&lt;Rectangle&gt;" class="cls-12" x="127.27" y="246.03" width="30.69" height="13.66"/><path id="_Path_6" data-name="&lt;Path&gt;" class="cls-13" d="M150.24,265H128.07c-2.9,0-5.25-5.43-5.25-12.14s2.35-12.14,5.25-12.14h22.18c-2.9,0-5.25,5.43-5.25,12.14S147.34,265,150.24,265Z"/><ellipse id="_Path_7" data-name="&lt;Path&gt;" class="cls-14" cx="150.24" cy="252.86" rx="5.25" ry="12.14"/><ellipse id="_Path_8" data-name="&lt;Path&gt;" class="cls-5" cx="150.24" cy="252.86" rx="2.15" ry="4.97"/><rect id="_Rectangle_12" data-name="&lt;Rectangle&gt;" class="cls-15" x="122.82" y="252.86" width="22.18" height="24.96"/><path id="_Rectangle_13" data-name="&lt;Rectangle&gt;" class="cls-16" d="M152.65,248.65H158a0,0,0,0,1,0,0v8.43a0,0,0,0,1,0,0h-5.31a3.7,3.7,0,0,1-3.7-3.7v-1A3.7,3.7,0,0,1,152.65,248.65Z"/><ellipse id="_Path_9" data-name="&lt;Path&gt;" class="cls-5" cx="150.54" cy="252.86" rx="0.51" ry="1.45"/><rect id="_Rectangle_14" data-name="&lt;Rectangle&gt;" class="cls-16" x="157.96" y="246.03" width="0.95" height="13.66"/></g><g id="_Group_4" data-name="&lt;Group&gt;"><g id="_Group_5" data-name="&lt;Group&gt;"><g id="_Group_6" data-name="&lt;Group&gt;"><path id="_Rectangle_15" data-name="&lt;Rectangle&gt;" class="cls-17" d="M226.35,265H237a0,0,0,0,1,0,0v29a5.31,5.31,0,0,1-5.31,5.31h0a5.31,5.31,0,0,1-5.31-5.31V265A0,0,0,0,1,226.35,265Z"/><g id="_Group_7" data-name="&lt;Group&gt;"><path id="_Path_10" data-name="&lt;Path&gt;" class="cls-18" d="M280.05,249.93a8.49,8.49,0,0,1-2.54,6.11l-.09.09c-13.51,12.65-32.15,17.42-44.7,17.42s-31.19-4.77-44.7-17.42l-.09-.09a8.13,8.13,0,0,1-1.85-2.71,8.76,8.76,0,0,1-.69-3.41,8,8,0,0,1,7.67-8.23h79.32a7.38,7.38,0,0,1,5.42,2.41A8.51,8.51,0,0,1,280.05,249.93Z"/><path id="_Path_11" data-name="&lt;Path&gt;" class="cls-4" d="M280.05,249.93a8.49,8.49,0,0,1-2.54,6.11,243.67,243.67,0,0,1-89.57,0,8.13,8.13,0,0,1-1.85-2.71,8.76,8.76,0,0,1-.69-3.41,8,8,0,0,1,7.67-8.23h79.32a7.38,7.38,0,0,1,5.42,2.41A8.51,8.51,0,0,1,280.05,249.93Z"/></g><path id="_Rectangle_16" data-name="&lt;Rectangle&gt;" class="cls-19" d="M223.63,282.28h15.92a0,0,0,0,1,0,0v14.34a8,8,0,0,1-8,8h0a8,8,0,0,1-8-8V282.28A0,0,0,0,1,223.63,282.28Z"/></g><path id="_Path_12" data-name="&lt;Path&gt;" class="cls-20" d="M247.77,221.13"/><g id="_Group_8" data-name="&lt;Group&gt;"><path id="_Path_13" data-name="&lt;Path&gt;" class="cls-21" d="M232.6,241.7h-3.41V215.4a10.14,10.14,0,0,1,20.28,0v5.73h-3.41V215.4a6.73,6.73,0,0,0-13.46,0Z"/></g><rect id="_Rectangle_17" data-name="&lt;Rectangle&gt;" class="cls-22" x="245.41" y="219.73" width="4.93" height="3.61"/><g id="_Group_9" data-name="&lt;Group&gt;"><path id="_Path_14" data-name="&lt;Path&gt;" class="cls-14" d="M229.62,237.83v-4.35a1.07,1.07,0,1,0-1.36,0v4.35a1.07,1.07,0,1,0,1.36,0Z"/><path id="_Path_15" data-name="&lt;Path&gt;" class="cls-14" d="M226.76,236.33h4.35a1.07,1.07,0,1,0,0-1.36h-4.35a1.07,1.07,0,1,0,0,1.36Z"/></g><circle id="_Path_16" data-name="&lt;Path&gt;" class="cls-16" cx="228.94" cy="235.65" r="1.71"/><circle id="_Path_17" data-name="&lt;Path&gt;" class="cls-22" cx="228.94" cy="235.65" r="1.71"/><circle id="_Path_18" data-name="&lt;Path&gt;" class="cls-21" cx="228.94" cy="235.65" r="0.68"/></g></g><g id="_Group_10" data-name="&lt;Group&gt;"><path id="_Compound_Path_" data-name="&lt;Compound Path&gt;" class="cls-13" d="M193.5,98.9v98.75h76.31V98.9Zm68.28,90.91H201.53V106.74h60.25Z"/><rect id="_Path_19" data-name="&lt;Path&gt;" class="cls-23" x="201.53" y="106.74" width="60.25" height="83.07"/><g id="_Group_11" data-name="&lt;Group&gt;" class="cls-24"><polygon id="_Path_20" data-name="&lt;Path&gt;" class="cls-13" points="261.78 106.74 261.78 119.74 218.86 189.81 201.53 189.81 201.53 179.66 246.19 106.74 261.78 106.74"/><polygon id="_Path_21" data-name="&lt;Path&gt;" class="cls-13" points="240.23 106.74 201.53 169.93 201.53 162.67 235.79 106.74 240.23 106.74"/></g></g><g id="_Group_12" data-name="&lt;Group&gt;"><g id="_Group_13" data-name="&lt;Group&gt;"><path id="_Path_22" data-name="&lt;Path&gt;" class="cls-25" d="M482.12,326V237.58A14.12,14.12,0,0,0,468,223.47h0a14.12,14.12,0,0,0-12.73,8l-5.37,11.22"/><rect id="_Rectangle_18" data-name="&lt;Rectangle&gt;" class="cls-26" x="429.46" y="241.59" width="36.82" height="6.28" transform="translate(135 -158.5) rotate(23.54)"/></g><g id="_Group_14" data-name="&lt;Group&gt;"><g id="_Group_15" data-name="&lt;Group&gt;"><path id="_Path_23" data-name="&lt;Path&gt;" class="cls-4" d="M494.49,329.57s-1.36,5.37-4.1,13.13c-7.14,20.23-23.65,56.72-49.86,56.72h-118c-26.21,0-42.72-36.49-49.86-56.72-2.74-7.76-4.1-13.13-4.1-13.13Z"/><path id="_Path_24" data-name="&lt;Path&gt;" class="cls-27" d="M494.49,329.57s-1.36,5.37-4.1,13.13H272.68c-2.74-7.76-4.1-13.13-4.1-13.13Z"/><path id="_Path_25" data-name="&lt;Path&gt;" class="cls-4" d="M493.87,334.76H269.2a5.86,5.86,0,0,1-5.86-5.86h0A5.86,5.86,0,0,1,269.2,323H493.87a5.86,5.86,0,0,1,5.86,5.86h0A5.86,5.86,0,0,1,493.87,334.76Z"/></g></g></g><g id="_Group_16" data-name="&lt;Group&gt;"><rect id="_Rectangle_19" data-name="&lt;Rectangle&gt;" class="cls-26" x="294" y="135.1" width="3.77" height="14.24"/><rect id="_Rectangle_20" data-name="&lt;Rectangle&gt;" class="cls-26" x="297.76" y="140.16" width="81.89" height="4.12"/><rect id="_Rectangle_21" data-name="&lt;Rectangle&gt;" class="cls-26" x="377.77" y="135.1" width="3.77" height="14.24"/><g id="_Group_17" data-name="&lt;Group&gt;"><rect id="_Rectangle_22" data-name="&lt;Rectangle&gt;" class="cls-28" x="307.22" y="137.74" width="62.98" height="80.59" rx="2.54" ry="2.54"/><rect id="_Rectangle_23" data-name="&lt;Rectangle&gt;" class="cls-29" x="307.22" y="190.89" width="62.98" height="8.34"/></g></g><polygon id="_Path_26" data-name="&lt;Path&gt;" class="cls-30" points="330.75 410.4 260.91 410.4 191.08 410.4 163.49 442.47 260.91 442.47 358.33 442.47 330.75 410.4"/><rect class="cls-6" x="522.85" y="261.89" width="127.78" height="127.78"/><rect class="cls-31" x="522.85" y="261.89" width="127.78" height="10.95"/><circle class="cls-26" cx="586.74" cy="325.78" r="36.47"/><circle class="cls-32" cx="586.74" cy="325.78" r="28.2"/><rect class="cls-6" x="610.23" y="323.49" width="20.03" height="9.66"/><rect class="cls-33" x="526.09" y="265.44" width="12.63" height="3.85" rx="1.92" ry="1.92"/><rect class="cls-33" x="544.94" y="265.44" width="12.63" height="3.85" rx="1.92" ry="1.92"/><rect class="cls-33" x="563.79" y="265.44" width="12.63" height="3.85" rx="1.92" ry="1.92"/><circle class="cls-34" cx="473.71" cy="204.65" r="23"/><path class="cls-35" d="M479.75,203.89q0,7.19,0,14.39a.73.73,0,0,1-.44.79.76.76,0,0,1-.78-.19l-6.68-5.18c-.9-.7-1.8-1.41-2.72-2.1a.92.92,0,0,0-.52-.17h-8.26c-.73,0-.93-.21-.93-.95q0-6.6,0-13.21c0-.75.2-.94.93-.95h8.22a1,1,0,0,0,.57-.2q4.7-3.62,9.37-7.26a.77.77,0,0,1,.84-.17.72.72,0,0,1,.38.76Q479.74,196.67,479.75,203.89Z"/><path class="cls-35" d="M482.53,211.74c0-.58,0-1.14,0-1.7,0-.08.18-.2.29-.23a6.18,6.18,0,0,0,.05-11.92c-.28-.08-.38-.19-.36-.48,0-.49,0-1,0-1.47a8,8,0,0,1,0,15.8Z"/><path class="cls-35" d="M482.53,209c0-.68,0-1.31,0-1.95,0-.09.11-.19.19-.25a3.25,3.25,0,0,0,0-5.21.43.43,0,0,1-.17-.26c0-.63,0-1.25,0-1.88,1.49.19,3.12,2.3,3.33,4.26A5.14,5.14,0,0,1,482.53,209Z"/><circle class="cls-34" cx="38.71" cy="251.65" r="23"/><path class="cls-35" d="M44.75,250.89q0,7.19,0,14.39a.73.73,0,0,1-.44.79.76.76,0,0,1-.78-.19l-6.68-5.18c-.9-.7-1.8-1.41-2.72-2.1a.92.92,0,0,0-.52-.17H25.36c-.73,0-.93-.21-.93-.95q0-6.6,0-13.21c0-.75.2-.94.93-.95h8.22a1,1,0,0,0,.57-.2q4.7-3.62,9.37-7.26a.77.77,0,0,1,.84-.17.72.72,0,0,1,.38.76Q44.74,243.67,44.75,250.89Z"/><path class="cls-35" d="M47.53,258.74c0-.58,0-1.14,0-1.7,0-.08.18-.2.29-.23a6.18,6.18,0,0,0,.05-11.92c-.28-.08-.38-.19-.36-.48,0-.49,0-1,0-1.47a8,8,0,0,1,0,15.8Z"/><path class="cls-35" d="M47.53,256c0-.68,0-1.31,0-1.95,0-.09.11-.19.19-.25a3.25,3.25,0,0,0,0-5.21.43.43,0,0,1-.17-.26c0-.63,0-1.25,0-1.88,1.49.19,3.12,2.3,3.33,4.26A5.14,5.14,0,0,1,47.53,256Z"/><circle class="cls-34" cx="610.71" cy="254.65" r="23"/><path class="cls-35" d="M616.75,253.89q0,7.19,0,14.39a.73.73,0,0,1-.44.79.76.76,0,0,1-.78-.19l-6.68-5.18c-.9-.7-1.8-1.41-2.72-2.1a.92.92,0,0,0-.52-.17h-8.26c-.73,0-.93-.21-.93-.95q0-6.6,0-13.21c0-.75.2-.94.93-.95h8.22a1,1,0,0,0,.57-.2q4.7-3.62,9.37-7.26a.77.77,0,0,1,.84-.17.72.72,0,0,1,.38.76Q616.74,246.67,616.75,253.89Z"/><path class="cls-35" d="M619.53,261.74c0-.58,0-1.14,0-1.7,0-.08.18-.2.29-.23a6.18,6.18,0,0,0,.05-11.92c-.28-.08-.38-.19-.36-.48,0-.49,0-1,0-1.47a8,8,0,0,1,0,15.8Z"/><path class="cls-35" d="M619.53,259c0-.68,0-1.31,0-1.95,0-.09.11-.19.19-.25a3.25,3.25,0,0,0,0-5.21.43.43,0,0,1-.17-.26c0-.63,0-1.25,0-1.88,1.49.19,3.12,2.3,3.33,4.26A5.14,5.14,0,0,1,619.53,259Z"/><circle class="cls-34" cx="201.71" cy="223.65" r="23"/><path class="cls-35" d="M207.75,222.89q0,7.19,0,14.39a.73.73,0,0,1-.44.79.76.76,0,0,1-.78-.19l-6.68-5.18c-.9-.7-1.8-1.41-2.72-2.1a.92.92,0,0,0-.52-.17h-8.26c-.73,0-.93-.21-.93-.95q0-6.6,0-13.21c0-.75.2-.94.93-.95h8.22a1,1,0,0,0,.57-.2q4.7-3.62,9.37-7.26a.77.77,0,0,1,.84-.17.72.72,0,0,1,.38.76Q207.74,215.67,207.75,222.89Z"/><path class="cls-35" d="M210.53,230.74c0-.58,0-1.14,0-1.7,0-.08.18-.2.29-.23a6.18,6.18,0,0,0,.05-11.92c-.28-.08-.38-.19-.36-.48,0-.49,0-1,0-1.47a8,8,0,0,1,0,15.8Z"/><path class="cls-35" d="M210.53,228c0-.68,0-1.31,0-1.95,0-.09.11-.19.19-.25a3.25,3.25,0,0,0,0-5.21.43.43,0,0,1-.17-.26c0-.63,0-1.25,0-1.88,1.49.19,3.12,2.3,3.33,4.26A5.14,5.14,0,0,1,210.53,228Z"/><circle class="cls-34" cx="347.71" cy="121.65" r="23"/><path class="cls-35" d="M353.75,120.89q0,7.19,0,14.39a.73.73,0,0,1-.44.79.76.76,0,0,1-.78-.19l-6.68-5.18c-.9-.7-1.8-1.41-2.72-2.1a.92.92,0,0,0-.52-.17h-8.26c-.73,0-.93-.21-.93-.95q0-6.6,0-13.21c0-.75.2-.94.93-.95h8.22a1,1,0,0,0,.57-.2q4.7-3.62,9.37-7.26a.77.77,0,0,1,.84-.17.72.72,0,0,1,.38.76Q353.74,113.67,353.75,120.89Z"/><path class="cls-35" d="M356.53,128.74c0-.58,0-1.14,0-1.7,0-.08.18-.2.29-.23a6.18,6.18,0,0,0,.05-11.92c-.28-.08-.38-.19-.36-.48,0-.49,0-1,0-1.47a8,8,0,0,1,0,15.8Z"/><path class="cls-35" d="M356.53,126c0-.68,0-1.31,0-1.95,0-.09.11-.19.19-.25a3.25,3.25,0,0,0,0-5.21.43.43,0,0,1-.17-.26c0-.63,0-1.25,0-1.88,1.49.19,3.12,2.3,3.33,4.26A5.14,5.14,0,0,1,356.53,126Z"/></g></g></svg>