<svg xmlns="http://www.w3.org/2000/svg" xmlns:xlink="http://www.w3.org/1999/xlink" viewBox="0 0 662.71 463.89"><defs><style>.cls-1,.cls-10,.cls-12,.cls-25{fill:none;}.cls-2{fill:#e08b54;}.cls-3{fill:#bb8a67;}.cls-4{fill:#623d16;}.cls-5{fill:#9f6138;}.cls-6{fill:#ecb690;}.cls-7{fill:#edefeb;}.cls-8{fill:#87451e;}.cls-9{fill:#f9eed3;}.cls-10{stroke:#87451e;stroke-width:1.61px;}.cls-10,.cls-12,.cls-25{stroke-miterlimit:10;}.cls-11{fill:#fff;}.cls-12{stroke:#808184;stroke-width:2.57px;}.cls-13{fill:#fecf08;}.cls-14{fill:#c17629;}.cls-15{fill:#543010;}.cls-16{fill:#8a5322;}.cls-17{fill:#221f1f;}.cls-18{fill:#bcbec0;}.cls-19{fill:#e2cf91;}.cls-20{fill:#fffef9;}.cls-21{fill:#7bafde;}.cls-22{clip-path:url(#clip-path);}.cls-23{fill:#eff9fe;}.cls-24{clip-path:url(#clip-path-2);}.cls-25{stroke:#c2a02e;stroke-width:0.67px;}.cls-26{fill:#4fbfa5;}.cls-27{fill:#f15d2c;}.cls-28{clip-path:url(#clip-path-3);}.cls-29{clip-path:url(#clip-path-4);}.cls-30{fill:#065;}.cls-31,.cls-32{fill:#ffffec;}.cls-32{font-size:27.32px;font-family:Raleway-Bold, Raleway;font-weight:700;}</style><clipPath id="clip-path"><path class="cls-1" d="M485.35,196.49c-1.38.17-3.07,2.14-4.67,7,0,1.41.81,10.5-2.06,14.58-.62,6.43,1.78,22.14,2.57,28.73-16.19,13.39-37.34-1.38-37.95,1.31.78-6.5,1.91-23.72,1.31-30.06-3.2-4.38-3-14.75-3-14.75-1.58-4.77-3.25-6.7-4.61-6.86-3.38-.39,5-5.89,10.15-5.89h4.26a10.66,10.66,0,0,0,19.61,0h4.26C480.36,190.6,488.73,196.1,485.35,196.49Z"/></clipPath><clipPath id="clip-path-2"><path class="cls-1" d="M505.1,191.74l-6.69,48.11s4,6.61,15.82,0c0,0,8,4.91,15,0,0,0,5.87,3.94,8.65,0l-7.81-48.11Z"/></clipPath><clipPath id="clip-path-3"><path class="cls-1" d="M465.36,303.29v24.53H449.54a3.34,3.34,0,0,1-3.33-3.34v-2a3.33,3.33,0,0,1,3.33-3.34h6.73V303.29Z"/></clipPath><clipPath id="clip-path-4"><path class="cls-1" d="M476.38,313.72v24.53H460.57a3.33,3.33,0,0,1-3.34-3.33v-2.05a3.33,3.33,0,0,1,3.34-3.33h6.72V313.72Z"/></clipPath></defs><title>Asset 7</title><g id="Layer_2" data-name="Layer 2"><g id="Glavno_Besedilo" data-name="Glavno Besedilo"><rect class="cls-2" width="662.71" height="365.73"/><rect class="cls-3" y="365.73" width="662.71" height="98.17"/><polygon class="cls-4" points="344.56 390.29 662.71 390.29 662.71 431.78 312.73 431.78 344.56 390.29"/><rect class="cls-5" x="408.88" y="365.22" width="191.64" height="14.57"/><rect class="cls-5" x="48.58" y="240.26" width="217.65" height="47.27"/><rect class="cls-5" x="22.65" y="338.01" width="269.5" height="52.28"/><rect class="cls-6" x="29.33" y="304.99" width="256.14" height="24.28"/><path class="cls-2" d="M31.49,296.26H283.31a2.16,2.16,0,0,1,2.16,2.16V305a0,0,0,0,1,0,0H29.33a0,0,0,0,1,0,0v-6.57A2.16,2.16,0,0,1,31.49,296.26Z"/><rect class="cls-7" x="29.33" y="287.53" width="256.14" height="8.73" rx="3.3"/><rect class="cls-8" x="17.51" y="390.29" width="279.77" height="8.73"/><rect class="cls-8" x="17.51" y="329.27" width="279.77" height="8.73"/><rect class="cls-8" x="48.58" y="240.26" width="217.65" height="8.22"/><rect class="cls-8" x="245.61" y="222.27" width="20.61" height="65.25"/><rect class="cls-8" x="48.57" y="222.27" width="20.61" height="65.25"/><path class="cls-9" d="M74.59,256.7h65a8.13,8.13,0,0,1,8.13,8.13v22.69a0,0,0,0,1,0,0H66.46a0,0,0,0,1,0,0V264.83A8.13,8.13,0,0,1,74.59,256.7Z"/><path class="cls-9" d="M175.19,256.7h65a8.13,8.13,0,0,1,8.13,8.13v22.69a0,0,0,0,1,0,0H167.05a0,0,0,0,1,0,0V264.83A8.13,8.13,0,0,1,175.19,256.7Z"/><rect class="cls-5" x="312.73" y="297.99" width="51.72" height="69.24"/><rect class="cls-8" x="310.32" y="367.23" width="56.53" height="4.63"/><rect class="cls-8" x="310.32" y="291.75" width="56.53" height="6.24"/><line class="cls-10" x1="312.73" y1="332.61" x2="364.45" y2="332.61"/><rect class="cls-11" x="351.47" y="341.57" width="3.43" height="16.7"/><rect class="cls-11" x="351.47" y="306.95" width="3.43" height="16.7"/><rect class="cls-11" x="324.88" y="288.02" width="27.41" height="3.73"/><line class="cls-12" x1="338.59" y1="288.02" x2="338.59" y2="258.84"/><polygon class="cls-13" points="350.02 241.44 338.59 241.44 327.16 241.44 318.36 269.31 338.59 269.31 358.81 269.31 350.02 241.44"/><rect class="cls-14" x="408.88" y="148.07" width="191.64" height="222.52"/><rect class="cls-4" x="414.36" y="154.72" width="180.69" height="209.21"/><polygon class="cls-15" points="555.54 197.92 555.54 204.54 555.54 225.52 566.6 225.52 570.78 210.1 574.84 225.52 585.19 225.52 586.03 204.54 583.1 190.96 555.54 197.92"/><polygon class="cls-14" points="600.52 148.07 621.9 148.07 621.9 363.94 595.05 363.94 595.05 148.07 600.52 148.07"/><path class="cls-15" d="M513.72,201.18,507,249.3s4.05,6.6,15.82,0c0,0,8,4.9,15,0,0,0,5.86,3.93,8.65,0L533.61,191Z"/><rect class="cls-16" x="413.9" y="154.72" width="93.46" height="209.21"/><path class="cls-4" d="M495.34,200.29c-1.55.19-3.47,2.41-5.28,8,0,1.59.92,11.87-2.32,16.48-.7,7.26,2,25,2.91,32.45-18.3,15.14-42.2-1.55-42.89,1.48.89-7.34,2.16-26.8,1.48-34-3.61-4.95-3.41-16.67-3.41-16.67-1.78-5.38-3.67-7.56-5.21-7.74-3.82-.44,5.64-6.65,11.47-6.65h4.82a12,12,0,0,0,22.15,0h4.81C489.71,193.64,499.16,199.85,495.34,200.29Z"/><rect class="cls-17" x="414.93" y="370.59" width="10.91" height="3.2"/><rect class="cls-17" x="581.48" y="370.59" width="10.91" height="3.2"/><rect class="cls-18" x="414.36" y="184.41" width="180.69" height="0.95"/><path class="cls-19" d="M449.44,191.11l11.7-3.46,11.69,3.46-2.24,3.16a18.16,18.16,0,0,0-19.47-.6Z"/><path class="cls-20" d="M464.34,183.78a.27.27,0,0,1-.08.53h0a2.9,2.9,0,0,0-2.9,2.9c0,.11,0,.22,0,.33a.27.27,0,0,1-.52.14,2.82,2.82,0,0,1-.21-1.09,2.92,2.92,0,0,1,3.71-2.81Z"/><path class="cls-19" d="M505.65,191.11l11.7-3.46,11.7,3.46-2.24,3.16a18.16,18.16,0,0,0-19.47-.6Z"/><path class="cls-20" d="M520.56,183.78a.27.27,0,0,1-.09.53h0a2.9,2.9,0,0,0-2.9,2.9c0,.11,0,.22,0,.33a.27.27,0,0,1-.52.14,3,3,0,0,1-.21-1.09,2.93,2.93,0,0,1,2.93-2.92A3,3,0,0,1,520.56,183.78Z"/><path class="cls-19" d="M550.57,191.11l15.24-3.46,15.24,3.46-2.92,3.16a29.61,29.61,0,0,0-25.37-.6Z"/><path class="cls-20" d="M569,183.78a.27.27,0,0,1-.09.53h0a2.9,2.9,0,0,0-2.9,2.9c0,.11,0,.22,0,.33a.27.27,0,0,1-.52.14,2.82,2.82,0,0,1-.21-1.09,2.92,2.92,0,0,1,2.92-2.92A3,3,0,0,1,569,183.78Z"/><path class="cls-21" d="M485.35,196.18c-1.38.16-3.07,2.13-4.67,7,0,1.41.81,10.5-2.06,14.59-.62,6.42,1.78,22.13,2.57,28.72-16.19,13.4-37.34-1.38-37.95,1.31.78-6.49,1.91-23.72,1.31-30.06-3.2-4.38-3-14.75-3-14.75-1.58-4.77-3.25-6.69-4.61-6.85-3.38-.4,5-5.89,10.15-5.89h4.26a10.66,10.66,0,0,0,19.61,0h4.26C480.36,190.29,488.73,195.78,485.35,196.18Z"/><g class="cls-22"><rect class="cls-23" x="427.26" y="202.44" width="71.15" height="5.62"/><rect class="cls-23" x="427.26" y="210.66" width="71.15" height="5.62"/><rect class="cls-23" x="427.26" y="218.77" width="71.15" height="5.62"/><rect class="cls-23" x="427.26" y="226.87" width="71.15" height="5.62"/><rect class="cls-23" x="427.26" y="234.97" width="71.15" height="5.62"/><rect class="cls-23" x="427.26" y="243.08" width="71.15" height="5.62"/></g><path class="cls-13" d="M505.1,191.74l-6.69,48.11s4,6.61,15.82,0c0,0,8,4.91,15,0,0,0,5.87,3.94,8.65,0l-7.81-48.11Z"/><g class="cls-24"><path class="cls-25" d="M494.87,193.4s23.45,21.46,46.58-1.66"/><path class="cls-25" d="M494.87,200.79s23.45,21.47,46.58-1.66"/><path class="cls-25" d="M494.87,208.18s23.45,21.47,46.58-1.66"/><path class="cls-25" d="M494.87,215.58s23.45,21.46,46.58-1.66"/></g><polygon class="cls-26" points="550.57 190.96 550.57 197.59 550.57 218.56 561.62 218.56 565.81 203.14 569.87 218.56 580.21 218.56 581.05 197.59 581.05 190.96 550.57 190.96"/><circle class="cls-17" cx="612.39" cy="256" r="6.4"/><path class="cls-27" d="M465.36,303.29v24.53H449.54a3.34,3.34,0,0,1-3.33-3.34v-2a3.33,3.33,0,0,1,3.33-3.34h6.73V303.29Z"/><g class="cls-28"><rect class="cls-20" x="453.68" y="306.6" width="14.94" height="1.03"/><rect class="cls-20" x="453.68" y="308.5" width="14.94" height="1.03"/><rect class="cls-20" x="453.68" y="310.39" width="14.94" height="1.03"/><rect class="cls-20" x="453.68" y="312.29" width="14.94" height="1.03"/></g><path class="cls-27" d="M476.38,313.72v24.53H460.57a3.33,3.33,0,0,1-3.34-3.33v-2.05a3.33,3.33,0,0,1,3.34-3.33h6.72V313.72Z"/><g class="cls-29"><rect class="cls-20" x="464.7" y="317.03" width="14.94" height="1.03"/><rect class="cls-20" x="464.7" y="318.93" width="14.94" height="1.03"/><rect class="cls-20" x="464.7" y="320.83" width="14.94" height="1.03"/><rect class="cls-20" x="464.7" y="322.73" width="14.94" height="1.03"/></g><rect class="cls-13" x="52.93" y="105.68" width="208.34" height="84.6"/><rect class="cls-27" x="52.93" y="168.6" width="208.34" height="3.97"/><rect class="cls-27" x="32.6" y="146.08" width="86.58" height="3.97" transform="translate(223.96 72.18) rotate(90)"/><circle class="cls-30" cx="52.71" cy="386.73" r="23"/><path class="cls-31" d="M58.75,386v14.39a.74.74,0,0,1-.44.79.79.79,0,0,1-.78-.19l-6.68-5.18c-.9-.7-1.8-1.42-2.71-2.11a1,1,0,0,0-.52-.16H39.37c-.74,0-.94-.21-.94-.95V379.34c0-.74.2-.94.93-.94h8.22a1,1,0,0,0,.58-.2q4.7-3.62,9.37-7.26a.77.77,0,0,1,.84-.17.72.72,0,0,1,.38.76Z"/><path class="cls-31" d="M61.53,393.82c0-.59,0-1.15,0-1.71,0-.08.18-.2.29-.23a6.1,6.1,0,0,0,3.86-3.08A6.16,6.16,0,0,0,61.88,380c-.28-.07-.38-.18-.36-.47,0-.49,0-1,0-1.48a8,8,0,0,1,0,15.81Z"/><path class="cls-31" d="M61.53,391.05c0-.68,0-1.31,0-1.95,0-.08.1-.19.18-.25a3.25,3.25,0,0,0,0-5.21.4.4,0,0,1-.17-.26c0-.63,0-1.25,0-1.88,1.49.19,3.12,2.3,3.33,4.26A5.15,5.15,0,0,1,61.53,391.05Z"/><circle class="cls-30" cx="580.71" cy="127.73" r="23"/><path class="cls-31" d="M586.75,127v14.39a.74.74,0,0,1-.44.79.79.79,0,0,1-.78-.19l-6.68-5.18c-.9-.7-1.8-1.42-2.71-2.11a1,1,0,0,0-.52-.16h-8.25c-.74,0-.94-.21-.94-.95V120.34c0-.74.2-.94.93-.94h8.22a1,1,0,0,0,.58-.2q4.7-3.61,9.37-7.26a.77.77,0,0,1,.84-.17.72.72,0,0,1,.38.76Z"/><path class="cls-31" d="M589.53,134.82c0-.59,0-1.15,0-1.71,0-.08.18-.2.29-.23a6.1,6.1,0,0,0,3.86-3.08,6.16,6.16,0,0,0-3.81-8.84c-.28-.07-.38-.18-.36-.47,0-.49,0-1,0-1.48a8,8,0,0,1,0,15.81Z"/><path class="cls-31" d="M589.53,132.05c0-.68,0-1.31,0-2,0-.08.1-.19.18-.25a3.25,3.25,0,0,0,0-5.21.4.4,0,0,1-.17-.26c0-.63,0-1.25,0-1.88,1.49.19,3.12,2.3,3.33,4.26A5.15,5.15,0,0,1,589.53,132.05Z"/><circle class="cls-30" cx="338.71" cy="219.73" r="23"/><path class="cls-31" d="M344.75,219v14.39a.74.74,0,0,1-.44.79.79.79,0,0,1-.78-.19l-6.68-5.18c-.9-.7-1.8-1.42-2.71-2.11a1,1,0,0,0-.52-.16h-8.25c-.74,0-.94-.21-.94-.95V212.34c0-.74.2-.94.93-.94h8.22a1,1,0,0,0,.58-.2q4.69-3.62,9.37-7.26a.77.77,0,0,1,.84-.17.72.72,0,0,1,.38.76Z"/><path class="cls-31" d="M347.53,226.82c0-.59,0-1.15,0-1.71,0-.08.18-.2.29-.23a6.1,6.1,0,0,0,3.86-3.08,6.16,6.16,0,0,0-3.81-8.84c-.28-.07-.38-.18-.36-.47,0-.49,0-1,0-1.48a8,8,0,0,1,0,15.81Z"/><path class="cls-31" d="M347.53,224.05c0-.68,0-1.31,0-2,0-.08.1-.19.18-.25a3.25,3.25,0,0,0,0-5.21.4.4,0,0,1-.17-.26c0-.63,0-1.25,0-1.88,1.49.19,3.12,2.3,3.33,4.26A5.15,5.15,0,0,1,347.53,224.05Z"/><circle class="cls-30" cx="377.71" cy="333.73" r="23"/><path class="cls-31" d="M383.75,333v14.39a.74.74,0,0,1-.44.79.79.79,0,0,1-.78-.19l-6.68-5.18c-.9-.7-1.8-1.42-2.71-2.11a1,1,0,0,0-.52-.16h-8.25c-.74,0-.94-.21-.94-.95V326.34c0-.74.2-.94.93-.94h8.22a1,1,0,0,0,.58-.2q4.69-3.62,9.37-7.26a.77.77,0,0,1,.84-.17.72.72,0,0,1,.38.76Z"/><path class="cls-31" d="M386.53,340.82c0-.59,0-1.15,0-1.71,0-.08.18-.2.29-.23a6.1,6.1,0,0,0,3.86-3.08,6.16,6.16,0,0,0-3.81-8.84c-.28-.07-.38-.18-.36-.47,0-.49,0-1,0-1.48a8,8,0,0,1,0,15.81Z"/><path class="cls-31" d="M386.53,338.05c0-.68,0-1.31,0-1.95,0-.08.1-.19.18-.25a3.25,3.25,0,0,0,0-5.21.4.4,0,0,1-.17-.26c0-.63,0-1.25,0-1.88,1.49.19,3.12,2.3,3.33,4.26A5.15,5.15,0,0,1,386.53,338.05Z"/><circle class="cls-30" cx="96.71" cy="247.73" r="23"/><path class="cls-31" d="M102.75,247v14.39a.74.74,0,0,1-.44.79.79.79,0,0,1-.78-.19l-6.68-5.18c-.9-.7-1.8-1.42-2.71-2.11a1,1,0,0,0-.52-.16H83.37c-.74,0-.94-.21-.94-.95V240.34c0-.74.2-.94.93-.94h8.22a1,1,0,0,0,.58-.2q4.7-3.62,9.37-7.26a.77.77,0,0,1,.84-.17.72.72,0,0,1,.38.76Z"/><path class="cls-31" d="M105.53,254.82c0-.59,0-1.15,0-1.71,0-.08.18-.2.29-.23a6.1,6.1,0,0,0,3.86-3.08,6.16,6.16,0,0,0-3.81-8.84c-.28-.07-.38-.18-.36-.47,0-.49,0-1,0-1.48a8,8,0,0,1,0,15.81Z"/><path class="cls-31" d="M105.53,252.05c0-.68,0-1.31,0-2,0-.08.1-.19.18-.25a3.25,3.25,0,0,0,0-5.21.4.4,0,0,1-.17-.26c0-.63,0-1.25,0-1.88,1.49.19,3.12,2.3,3.33,4.26A5.15,5.15,0,0,1,105.53,252.05Z"/><circle class="cls-30" cx="51.33" cy="385.81" r="26.38"/><text class="cls-32" transform="translate(42.29 391.77)">1.</text><circle class="cls-30" cx="96.33" cy="246.81" r="26.38"/><text class="cls-32" transform="translate(87.29 252.77)">2.</text><circle class="cls-30" cx="377.33" cy="333.81" r="26.38"/><text class="cls-32" transform="translate(368.29 339.77)">3.</text><circle class="cls-30" cx="338.33" cy="219.81" r="26.38"/><text class="cls-32" transform="translate(329.29 225.77)">4.</text><circle class="cls-30" cx="580.33" cy="129.81" r="26.38"/><text class="cls-32" transform="translate(571.29 135.77)">5.</text></g></g></svg>