<svg xmlns="http://www.w3.org/2000/svg" xmlns:xlink="http://www.w3.org/1999/xlink" viewBox="0 0 654.37 424.92"><defs><style>.cls-1{isolation:isolate;}.cls-2{fill:#f9eed3;}.cls-3{fill:#e2cf91;}.cls-4{fill:#cf2027;}.cls-4,.cls-5,.cls-7{fill-rule:evenodd;}.cls-5,.cls-6{fill:#b52025;}.cls-7,.cls-9{fill:#826353;}.cls-8{fill:#95715f;}.cls-10{fill:#6f5447;}.cls-11{fill:#a58678;}.cls-12{fill:#8a5322;}.cls-13{fill:#623d16;}.cls-14{fill:#c17629;}.cls-15{fill:#af4325;}.cls-16{fill:#fff;}.cls-17{fill:#f9a11e;}.cls-18{fill:#00a9b6;}.cls-19{fill:#9a1c1f;}.cls-20{fill:#5f4727;}.cls-21{fill:#f8de70;}.cls-22{fill:#f9f5dc;}.cls-23{fill:#75452e;}.cls-24{fill:#f15d2c;}.cls-25{fill:#fffef9;}.cls-26{fill:#d55227;}.cls-27{fill:#f1f1f1;}.cls-28,.cls-29,.cls-30,.cls-32{opacity:0.05;}.cls-28,.cls-29,.cls-30,.cls-32,.cls-33{mix-blend-mode:multiply;}.cls-28{fill:url(#Fade_to_Black_2);}.cls-29{fill:url(#Fade_to_Black_2-2);}.cls-30{fill:url(#Fade_to_Black_2-3);}.cls-31{opacity:0.6;fill:url(#linear-gradient);}.cls-32{fill:url(#Fade_to_Black_2-4);}.cls-33{opacity:0.1;fill:url(#Fade_to_Black_2-5);}.cls-34{fill:#a5d6b5;}.cls-35{fill:#065;}.cls-36,.cls-37,.cls-38,.cls-39{fill:#ffffec;}.cls-37{font-size:27.32px;}.cls-37,.cls-38,.cls-39{font-family:Raleway-Bold, Raleway;font-weight:700;}.cls-38,.cls-39{font-size:13.54px;}.cls-39{letter-spacing:-0.07em;}.cls-40{letter-spacing:0em;}</style><linearGradient id="Fade_to_Black_2" x1="-488.27" y1="-1316.48" x2="-488.27" y2="-1333.19" gradientTransform="translate(1861.66 -261.47) rotate(-90)" gradientUnits="userSpaceOnUse"><stop offset="0" stop-color="#221f1f"/><stop offset="0.05" stop-color="#221f1f" stop-opacity="0.88"/><stop offset="0.32" stop-color="#221f1f" stop-opacity="0.39"/><stop offset="0.63" stop-color="#221f1f" stop-opacity="0.09"/><stop offset="1" stop-color="#221f1f" stop-opacity="0"/></linearGradient><linearGradient id="Fade_to_Black_2-2" x1="-407.63" y1="-1322.92" x2="-401.49" y2="-1322.92" xlink:href="#Fade_to_Black_2"/><linearGradient id="Fade_to_Black_2-3" x1="-393.55" y1="-1316.23" x2="-393.55" y2="-1333.69" xlink:href="#Fade_to_Black_2"/><linearGradient id="linear-gradient" x1="-470.38" y1="-1325.99" x2="-445.65" y2="-1301.26" gradientTransform="translate(1861.66 -261.47) rotate(-90)" gradientUnits="userSpaceOnUse"><stop offset="0" stop-color="#fff"/><stop offset="0.06" stop-color="#fff" stop-opacity="0.86"/><stop offset="0.16" stop-color="#fff" stop-opacity="0.66"/><stop offset="0.26" stop-color="#fff" stop-opacity="0.48"/><stop offset="0.37" stop-color="#fff" stop-opacity="0.33"/><stop offset="0.48" stop-color="#fff" stop-opacity="0.21"/><stop offset="0.59" stop-color="#fff" stop-opacity="0.12"/><stop offset="0.71" stop-color="#fff" stop-opacity="0.05"/><stop offset="0.84" stop-color="#fff" stop-opacity="0.01"/><stop offset="1" stop-color="#fff" stop-opacity="0"/></linearGradient><linearGradient id="Fade_to_Black_2-4" x1="-421.67" y1="-1277.27" x2="-446.4" y2="-1302" xlink:href="#Fade_to_Black_2"/><linearGradient id="Fade_to_Black_2-5" x1="-462.65" y1="-1318.25" x2="-445.65" y2="-1301.26" xlink:href="#Fade_to_Black_2"/></defs><title>Asset 11</title><g class="cls-1"><g id="Layer_2" data-name="Layer 2"><g id="Glavno_Besedilo" data-name="Glavno Besedilo"><rect class="cls-2" width="654.37" height="335"/><rect class="cls-3" y="335" width="654.37" height="89.92"/><path class="cls-4" d="M273.76,295.87H209.89v13.29h69V301a5.13,5.13,0,0,0-5.11-5.11"/><path class="cls-5" d="M222.91,295.87h-13L200.3,231a2.84,2.84,0,0,1,2.86-3.35h6.46a3.85,3.85,0,0,1,3.67,3.2Z"/><rect class="cls-6" x="209.89" y="309.16" width="68.98" height="2.97"/><polygon class="cls-7" points="209.9 312.13 219.87 312.13 210.11 364.94 207.05 364.94 209.9 312.13"/><polygon class="cls-7" points="278.87 312.13 268.89 312.13 278.65 364.94 281.71 364.94 278.87 312.13"/><path class="cls-4" d="M360.49,295.87h63.87v13.29h-69V301a5.13,5.13,0,0,1,5.11-5.11"/><path class="cls-5" d="M411.34,295.87h13L434,231a2.83,2.83,0,0,0-2.86-3.35h-6.46a3.85,3.85,0,0,0-3.67,3.2Z"/><rect class="cls-6" x="355.38" y="309.16" width="68.98" height="2.97"/><polygon class="cls-7" points="424.36 312.13 414.38 312.13 424.14 364.94 427.2 364.94 424.36 312.13"/><polygon class="cls-7" points="355.38 312.13 365.36 312.13 355.6 364.94 352.54 364.94 355.38 312.13"/><rect class="cls-8" x="249.18" y="270.52" width="133.36" height="7.06"/><rect class="cls-8" x="238.57" y="259.96" width="154.58" height="10.8"/><rect class="cls-9" x="242.27" y="270.52" width="9.14" height="94.33"/><rect class="cls-9" x="380.3" y="270.52" width="9.14" height="94.33"/><rect class="cls-10" x="242.27" y="270.52" width="9.14" height="2.26"/><rect class="cls-10" x="380.3" y="270.52" width="9.14" height="2.26"/><rect class="cls-9" x="251.41" y="270.52" width="128.9" height="2.26"/><rect class="cls-11" x="238.57" y="259.96" width="154.58" height="4.03"/><rect class="cls-12" x="34.21" y="325.61" width="125.24" height="42.95"/><rect class="cls-13" x="34.21" y="91.46" width="125.24" height="42.28"/><path class="cls-14" d="M30.3,87.55V372.48H163.36V87.55Zm3.91,281V325.61H159.45v42.95Zm0-89.14H159.45V321.7H34.21Zm125.24-4.71H34.21V232.43H159.45Zm0-47H34.21V185.44H159.45Zm0-47H34.21V138.45H159.45Zm0-47H34.21V91.46H159.45Z"/><rect class="cls-13" x="34.21" y="138.45" width="125.24" height="42.28"/><rect class="cls-13" x="34.21" y="185.44" width="125.24" height="42.28"/><rect class="cls-13" x="34.21" y="232.43" width="125.24" height="42.28"/><rect class="cls-12" x="34.21" y="279.42" width="125.24" height="42.28"/><rect class="cls-15" x="50.06" y="237.73" width="9.21" height="36.67"/><rect class="cls-16" x="98.68" y="249.37" width="9.21" height="25.34"/><rect class="cls-17" x="59.27" y="243" width="4.38" height="31.71"/><rect class="cls-18" x="63.65" y="241.82" width="4.38" height="32.89"/><rect class="cls-19" x="68.03" y="243" width="4.38" height="31.71"/><rect class="cls-16" x="72.4" y="244.89" width="4.38" height="29.82"/><rect class="cls-19" x="76.78" y="244.89" width="4.38" height="29.82"/><rect class="cls-17" x="81.16" y="240.4" width="4.38" height="34.31"/><rect class="cls-18" x="85.54" y="244.89" width="4.38" height="29.82"/><rect class="cls-20" x="89.92" y="244.89" width="4.38" height="29.82"/><rect class="cls-19" x="94.3" y="243" width="4.38" height="31.71"/><rect class="cls-19" x="39.95" y="243.32" width="4.38" height="31.71" transform="translate(99.34 2.9) rotate(21.82)"/><rect class="cls-18" x="34.21" y="193.88" width="2.63" height="33.84"/><rect class="cls-18" x="36.84" y="193.88" width="2.63" height="33.84"/><rect class="cls-18" x="39.47" y="193.88" width="2.63" height="33.84"/><rect class="cls-19" x="42.1" y="193.88" width="2.63" height="33.84"/><rect class="cls-17" x="44.73" y="193.88" width="2.63" height="33.84"/><rect class="cls-18" x="47.37" y="193.88" width="2.63" height="33.84"/><rect class="cls-18" x="50" y="193.88" width="2.63" height="33.84"/><rect class="cls-16" x="52.63" y="193.88" width="2.63" height="33.84"/><rect class="cls-16" x="55.26" y="193.88" width="2.63" height="33.84"/><rect class="cls-17" x="57.89" y="193.88" width="2.63" height="33.84"/><rect class="cls-18" x="60.52" y="193.88" width="2.63" height="33.84"/><rect class="cls-19" x="63.15" y="193.88" width="2.63" height="33.84"/><rect class="cls-19" x="65.79" y="193.88" width="2.63" height="33.84"/><rect class="cls-18" x="68.42" y="193.88" width="2.63" height="33.84"/><rect class="cls-18" x="71.05" y="193.88" width="2.63" height="33.84"/><rect class="cls-17" x="73.68" y="193.88" width="2.63" height="33.84"/><rect class="cls-18" x="76.31" y="193.88" width="2.63" height="33.84"/><rect class="cls-18" x="78.94" y="193.88" width="2.63" height="33.84"/><rect class="cls-19" x="81.57" y="193.88" width="2.63" height="33.84"/><rect class="cls-18" x="84.21" y="193.88" width="2.63" height="33.84"/><rect class="cls-16" x="86.84" y="193.88" width="2.63" height="33.84"/><rect class="cls-16" x="92.38" y="193.88" width="2.63" height="33.84" transform="translate(-59.81 38.61) rotate(-17.75)"/><rect class="cls-21" x="49.52" y="154.01" width="22.02" height="26.72"/><rect class="cls-22" x="53.94" y="157.65" width="13.16" height="19.45"/><rect class="cls-23" x="88.15" y="107.02" width="22.02" height="26.72"/><rect class="cls-22" x="92.58" y="110.66" width="13.16" height="19.45"/><rect class="cls-16" x="78.94" y="285.9" width="36.3" height="3.2"/><rect class="cls-16" x="78.94" y="328.8" width="36.3" height="3.2"/><rect class="cls-24" x="296.18" y="86.85" width="39.36" height="107.01"/><rect class="cls-24" x="343.18" y="86.85" width="39.36" height="107.01"/><rect class="cls-25" x="348.77" y="93.45" width="14.09" height="38.31"/><rect class="cls-25" x="315.86" y="150.65" width="14.09" height="38.31"/><rect class="cls-24" x="247.07" y="86.85" width="39.36" height="107.01"/><rect class="cls-25" x="251.41" y="119.3" width="14.09" height="38.31"/><rect class="cls-12" x="484.61" y="86.85" width="149.22" height="197.18"/><rect class="cls-13" x="488.55" y="92.05" width="141.35" height="186.78"/><path class="cls-26" d="M525.15,112.93s82-22.88,82,67.44-82,67.44-82,67.44-13.29-20.42-13.29-67.44S525.15,112.93,525.15,112.93Z"/><path class="cls-26" d="M527.58,112.34,525.89,248a90.12,90.12,0,0,0,17.76,2.34l-1.25-139.9A93.48,93.48,0,0,0,527.58,112.34Zm-15.72,68a194.26,194.26,0,0,0,4,41.27L517,134.46C514.25,145.3,511.86,160.44,511.86,180.37Zm84.19,46.09L595.22,133a49,49,0,0,0-9.62-10.48l-.66,116.21A49.1,49.1,0,0,0,596.05,226.46ZM574.6,244.94l1.6-128.4a62.93,62.93,0,0,0-22-5.87l1.24,139.27A63.19,63.19,0,0,0,574.6,244.94Zm32.52-64.57a107.94,107.94,0,0,0-3.38-28.31l.22,55.78A108.77,108.77,0,0,0,607.12,180.37Z"/><path class="cls-27" d="M585.9,226.8a3.75,3.75,0,0,1-.6,2.34c-.09.09-35.38-1.24-35.51-1.24-5.59,0-4.23,5.26-12.74,5.26-6.08,0-9.31-2.41-9.31-6.36s3.23-6.37,9.31-6.37c8.51,0,7.15,5.26,12.74,5.26.13,0,35.42-1.32,35.51-1.23A3.71,3.71,0,0,1,585.9,226.8Z"/><path class="cls-28" d="M536.83,221.05c5.49,0,8.35,2.57,8.35,5.75s-2.86,5.75-8.35,5.75c-5.94,0-8.36-2.58-8.36-5.75S530.89,221.05,536.83,221.05Z"/><path class="cls-27" d="M535.46,146.65c-9,0-14.6-3.3-14.6-5.15,0-1.3.66-1.48,1.75-1.48s13,.91,27.18.91c10.19,0,35.42-1.33,35.51-1.24a4.88,4.88,0,0,1,0,4.69c-.06.05-27.77-.48-29.22-.48C550.71,143.9,548.82,146.65,535.46,146.65Z"/><path class="cls-29" d="M556.57,140.82c-2.59.07-4.93.11-6.78.11-14.22,0-26.09-.91-27.18-.91-.86,0-1.46.11-1.67.82a1.11,1.11,0,0,1,0,.17c1.24,3.07,7.45,5.15,15.81,5.15C546.25,146.16,555,143.16,556.57,140.82Z"/><path class="cls-27" d="M536.26,127.39c-6.24,0-8.89.23-8.89.23v1l11.29.09a.67.67,0,0,1,0,1.34l-11.29.09v1.08l11.9.09a.72.72,0,0,1,0,1.43l-11.9.09V134l11.29.09a.67.67,0,0,1,0,1.34l-11.29.09v1.05s2.65.23,8.89.23c8.51,0,7.94-3.58,13.53-3.58.13,0,35.42,1.33,35.51,1.24a4.88,4.88,0,0,0,0-4.69c-.09-.09-35.38,1.24-35.51,1.24C544.2,131,544.77,127.39,536.26,127.39Z"/><path class="cls-30" d="M537.77,127.92c-6.36,0-8.68.09-9.46.76l10.35.08a.67.67,0,0,1,0,1.34l-10.69.08c0,.32.08.68.1,1.1l11.2.08a.72.72,0,0,1,0,1.43l-11.2.08c0,.42-.07.78-.1,1.1l10.69.08a.67.67,0,0,1,0,1.34l-10.35.08c.78.67,3.1.76,9.46.76,3.53,0,7.66-1.84,7.66-4.15S541.3,127.92,537.77,127.92Z"/><circle class="cls-27" cx="560.03" cy="184.55" r="34.45" transform="translate(249.19 685.62) rotate(-76.43)"/><path class="cls-16" d="M560,161a23.51,23.51,0,1,1-23.5,23.51A23.51,23.51,0,0,1,560,161Z"/><path class="cls-31" d="M536.42,208.16a34.45,34.45,0,0,1-.37-48.34l-.37.37a34.45,34.45,0,1,0,48.71,48.72l.37-.38A34.45,34.45,0,0,1,536.42,208.16Z"/><path class="cls-32" d="M583.64,160.94a34.45,34.45,0,0,1,.37,48.34l.38-.37a34.45,34.45,0,0,0-48.71-48.72l-.37.38A34.43,34.43,0,0,1,583.64,160.94Z"/><path class="cls-33" d="M544.16,200.42a23.49,23.49,0,0,1-.37-32.86l-.38.37a23.51,23.51,0,1,0,33.25,33.24l.36-.38A23.49,23.49,0,0,1,544.16,200.42Z"/><path class="cls-34" d="M577.35,204.7c-.42.42-.29.88.27,1l3.88,1c.57.15.9-.19.75-.75l-1-3.88c-.15-.57-.61-.69-1-.28Zm-34.91,1c.57-.15.69-.61.28-1l-2.84-2.84a.56.56,0,0,0-1,.28l-1,3.88c-.15.56.19.9.76.75Zm15,6.23,2,3.48a.57.57,0,0,0,1.07,0l2-3.48c.29-.5.06-.92-.53-.92h-4C557.44,211,557.2,211.46,557.49,212Zm-24-25.4v-4c0-.58-.41-.82-.92-.53l-3.48,2a.56.56,0,0,0,0,1.06l3.48,2C533.13,187.38,533.54,187.14,533.54,186.56Zm53-4v4c0,.58.41.82.92.53l3.47-2a.56.56,0,0,0,0-1.06l-3.47-2C586.94,181.72,586.53,182,586.53,182.54ZM542.72,164.4c.41-.42.29-.88-.28-1l-3.87-1c-.57-.15-.91.19-.76.75l1,3.88a.56.56,0,0,0,1,.27Zm16.78-10.74-2,3.47c-.29.51,0,.93.54.93h4c.58,0,.82-.42.53-.93l-2-3.47A.56.56,0,0,0,559.5,153.66Zm18.12,9.71c-.56.15-.69.61-.27,1l2.84,2.83c.41.42.87.29,1-.27l1-3.88c.15-.56-.19-.9-.75-.75Z"/><circle class="cls-35" cx="317.26" cy="242.78" r="22.52"/><path class="cls-36" d="M323.17,242q0,7,0,14.09a.71.71,0,0,1-.44.77.75.75,0,0,1-.76-.18c-2.17-1.7-4.36-3.39-6.54-5.08-.88-.69-1.76-1.38-2.66-2.06a.88.88,0,0,0-.5-.16h-8.09c-.71,0-.91-.2-.91-.93V235.54c0-.73.19-.93.91-.93,2.68,0,5.36,0,8.05,0a1,1,0,0,0,.56-.19c3.07-2.36,6.12-4.73,9.18-7.11a.74.74,0,0,1,.82-.16.7.7,0,0,1,.38.74Q323.17,234.95,323.17,242Z"/><path class="cls-36" d="M325.89,249.71c0-.57,0-1.12,0-1.67,0-.08.17-.19.28-.23a5.94,5.94,0,0,0,3.78-3,6,6,0,0,0-3.73-8.65c-.27-.07-.37-.18-.35-.46,0-.48,0-1,0-1.44a7.83,7.83,0,0,1,0,15.47Z"/><path class="cls-36" d="M325.9,247c0-.66,0-1.28,0-1.91,0-.08.1-.18.18-.24a3.19,3.19,0,0,0,0-5.1.43.43,0,0,1-.17-.26c0-.61,0-1.23,0-1.84,1.45.19,3.06,2.25,3.25,4.17A5,5,0,0,1,325.9,247Z"/><circle class="cls-35" cx="115.53" cy="71.41" r="22.52"/><path class="cls-36" d="M121.45,70.66c0,4.7,0,9.39,0,14.09a.72.72,0,0,1-.43.77.73.73,0,0,1-.76-.19l-6.54-5.07-2.66-2.06a.93.93,0,0,0-.51-.16h-8.08c-.72,0-.92-.2-.92-.93V64.17c0-.73.19-.93.91-.93h8.05a1,1,0,0,0,.56-.19q4.61-3.54,9.18-7.11a.75.75,0,0,1,.82-.16c.32.14.38.41.38.74C121.44,61.22,121.45,65.94,121.45,70.66Z"/><path class="cls-36" d="M124.17,78.34c0-.57,0-1.12,0-1.67,0-.08.17-.19.29-.23a6,6,0,0,0,3.78-3,6,6,0,0,0-3.73-8.65c-.28-.07-.38-.18-.36-.46,0-.48,0-1,0-1.44a7.83,7.83,0,0,1,0,15.47Z"/><path class="cls-36" d="M124.17,75.63c0-.66,0-1.28,0-1.91,0-.08.1-.18.18-.25a3.17,3.17,0,0,0,0-5.09.46.46,0,0,1-.16-.26c0-.61,0-1.23,0-1.84,1.46.19,3.06,2.25,3.26,4.17A5,5,0,0,1,124.17,75.63Z"/><circle class="cls-35" cx="200.73" cy="215.36" r="22.52"/><path class="cls-36" d="M206.64,214.61V228.7c0,.35-.08.64-.43.77a.75.75,0,0,1-.76-.18l-6.54-5.08c-.88-.69-1.76-1.38-2.66-2.06a.88.88,0,0,0-.51-.16h-8.08c-.71,0-.91-.2-.91-.93V208.12c0-.73.19-.93.91-.93,2.68,0,5.36,0,8.05,0a1,1,0,0,0,.56-.19l9.18-7.11a.74.74,0,0,1,.82-.16.7.7,0,0,1,.37.74Z"/><path class="cls-36" d="M209.36,222.29c0-.57,0-1.12,0-1.67,0-.08.17-.19.28-.22a6.06,6.06,0,0,0,.05-11.68c-.27-.07-.37-.18-.36-.46,0-.48,0-1,0-1.44a7.83,7.83,0,0,1,0,15.47Z"/><path class="cls-36" d="M209.36,219.58c0-.66,0-1.28,0-1.91a.47.47,0,0,1,.19-.24,3.19,3.19,0,0,0,0-5.1.4.4,0,0,1-.17-.26c0-.61,0-1.23,0-1.84,1.46.19,3.06,2.26,3.26,4.17A5,5,0,0,1,209.36,219.58Z"/><circle class="cls-35" cx="595.37" cy="125.26" r="11.75"/><path class="cls-36" d="M598.45,124.88v7.35a.36.36,0,0,1-.22.4.38.38,0,0,1-.4-.1l-3.41-2.65c-.46-.35-.92-.72-1.39-1.07a.48.48,0,0,0-.26-.09h-4.22c-.37,0-.48-.11-.48-.48v-6.75c0-.38.1-.48.48-.48h4.2a.51.51,0,0,0,.29-.1l4.79-3.71a.41.41,0,0,1,.43-.09.38.38,0,0,1,.19.39Z"/><path class="cls-36" d="M599.87,128.88c0-.3,0-.58,0-.87,0,0,.09-.1.15-.12a3.11,3.11,0,0,0,2-1.57,3.15,3.15,0,0,0-2-4.52c-.14,0-.19-.09-.18-.24s0-.5,0-.75a4.08,4.08,0,0,1,0,8.07Z"/><path class="cls-36" d="M599.87,127.47c0-.35,0-.67,0-1,0,0,0-.09.09-.13a1.66,1.66,0,0,0,0-2.66.18.18,0,0,1-.08-.13c0-.32,0-.64,0-1a2.56,2.56,0,0,1,1.7,2.18A2.63,2.63,0,0,1,599.87,127.47Z"/><circle class="cls-35" cx="517.03" cy="187.94" r="11.75"/><path class="cls-36" d="M520.11,187.55v7.35a.37.37,0,0,1-.22.4.38.38,0,0,1-.4-.1l-3.41-2.64-1.39-1.08a.47.47,0,0,0-.26-.08h-4.22c-.37,0-.48-.1-.48-.48v-6.75c0-.38.1-.48.48-.48h4.2a.51.51,0,0,0,.29-.1l4.79-3.71a.4.4,0,0,1,.43-.08.36.36,0,0,1,.19.38Z"/><path class="cls-36" d="M521.53,191.56c0-.3,0-.59,0-.88,0,0,.09-.1.15-.11a3.16,3.16,0,0,0,0-6.09.2.2,0,0,1-.18-.25c0-.25,0-.5,0-.75a4.09,4.09,0,0,1,0,8.08Z"/><path class="cls-36" d="M521.53,190.14c0-.34,0-.67,0-1a.2.2,0,0,1,.09-.13,1.66,1.66,0,0,0,0-2.66.23.23,0,0,1-.08-.14c0-.32,0-.64,0-1a2.56,2.56,0,0,1,1.7,2.18A2.63,2.63,0,0,1,521.53,190.14Z"/><circle class="cls-35" cx="510.17" cy="144.85" r="11.75"/><path class="cls-36" d="M513.26,144.46v7.35c0,.19,0,.33-.23.4a.38.38,0,0,1-.39-.09l-3.42-2.65-1.38-1.08a.5.5,0,0,0-.27-.08h-4.21c-.38,0-.48-.1-.48-.48v-6.75c0-.38.1-.48.47-.48h4.2a.54.54,0,0,0,.3-.1l4.79-3.71a.37.37,0,0,1,.42-.09c.17.07.2.22.2.39Z"/><path class="cls-36" d="M514.68,148.47c0-.3,0-.59,0-.87,0,0,.09-.1.15-.12a3.11,3.11,0,0,0,2-1.58,3.15,3.15,0,0,0-1.95-4.51c-.14,0-.19-.1-.19-.24s0-.5,0-.76a4.09,4.09,0,0,1,0,8.08Z"/><path class="cls-36" d="M514.68,147.05v-1c0-.05.06-.1.1-.13a1.66,1.66,0,0,0,0-2.66.22.22,0,0,1-.09-.13c0-.32,0-.64,0-1a2.58,2.58,0,0,1,1.7,2.18A2.62,2.62,0,0,1,514.68,147.05Z"/><circle class="cls-35" cx="593.41" cy="232.98" r="11.75"/><path class="cls-36" d="M596.49,232.59c0,2.45,0,4.91,0,7.36a.38.38,0,0,1-.23.4.4.4,0,0,1-.4-.1l-3.41-2.65c-.46-.36-.92-.72-1.39-1.07a.41.41,0,0,0-.26-.09h-4.22c-.37,0-.48-.11-.48-.49v-6.74c0-.38.1-.49.48-.49h4.2a.51.51,0,0,0,.29-.1l4.79-3.71a.41.41,0,0,1,.43-.09.38.38,0,0,1,.2.39Q596.49,228.9,596.49,232.59Z"/><path class="cls-36" d="M597.91,236.6c0-.3,0-.58,0-.87,0,0,.09-.1.15-.12a3.11,3.11,0,0,0,2-1.57,3.15,3.15,0,0,0-1.94-4.52c-.15,0-.2-.09-.19-.24s0-.5,0-.75a4.08,4.08,0,0,1,0,8.07Z"/><path class="cls-36" d="M597.92,235.19c0-.35,0-.67,0-1,0,0,.05-.09.1-.13a1.66,1.66,0,0,0,0-2.66.22.22,0,0,1-.09-.13c0-.32,0-.64,0-1a2.57,2.57,0,0,1,1.7,2.17A2.63,2.63,0,0,1,597.92,235.19Z"/><circle class="cls-35" cx="116.6" cy="69.99" r="26.38"/><text class="cls-37" transform="translate(107.56 75.95)">1.</text><circle class="cls-35" cx="196.6" cy="210.99" r="26.38"/><text class="cls-37" transform="translate(187.56 216.95)">2.</text><circle class="cls-35" cx="317.6" cy="242.99" r="26.38"/><text class="cls-37" transform="translate(308.56 248.95)">3.</text><circle class="cls-35" cx="510.6" cy="144.99" r="13.08"/><text class="cls-38" transform="translate(506.12 147.95)">4.</text><circle class="cls-35" cx="516.6" cy="187.99" r="13.08"/><text class="cls-38" transform="translate(512.12 190.95)">5.</text><circle class="cls-35" cx="596.6" cy="124.99" r="13.08"/><text class="cls-38" transform="translate(592.12 127.95)">6.</text><circle class="cls-35" cx="593.6" cy="233.99" r="13.08"/><text class="cls-39" transform="translate(589.12 236.95)">7<tspan class="cls-40" x="6.64" y="0">.</tspan></text></g></g></g></svg>