<svg xmlns="http://www.w3.org/2000/svg" xmlns:xlink="http://www.w3.org/1999/xlink" viewBox="0 0 668.23 433.92"><defs><style>.cls-1{isolation:isolate;}.cls-2{fill:#f9eed3;}.cls-3{fill:#e2cf91;}.cls-36,.cls-4{fill:none;stroke:#5a3b34;stroke-miterlimit:10;}.cls-4{stroke-width:0.96px;}.cls-5{fill:#cf2027;}.cls-5,.cls-6,.cls-8{fill-rule:evenodd;}.cls-6,.cls-7{fill:#b52025;}.cls-10,.cls-8{fill:#826353;}.cls-9{fill:#95715f;}.cls-11{fill:#6f5447;}.cls-12{fill:#a58678;}.cls-13{fill:#8a5322;}.cls-14{fill:#623d16;}.cls-15{fill:#c17629;}.cls-16{fill:#af4325;}.cls-17{fill:#fff;}.cls-18{fill:#f9a11e;}.cls-19{fill:#00a9b6;}.cls-20{fill:#9a1c1f;}.cls-21{fill:#5f4727;}.cls-22{fill:#f8de70;}.cls-23{fill:#f9f5dc;}.cls-24{fill:#75452e;}.cls-25{fill:#f15d2c;}.cls-26{fill:#fffef9;}.cls-27{fill:#d55227;}.cls-28{fill:#f1f1f1;}.cls-29,.cls-30,.cls-31,.cls-33{opacity:0.05;}.cls-29,.cls-30,.cls-31,.cls-33,.cls-34{mix-blend-mode:multiply;}.cls-29{fill:url(#Fade_to_Black_2);}.cls-30{fill:url(#Fade_to_Black_2-2);}.cls-31{fill:url(#Fade_to_Black_2-3);}.cls-32{opacity:0.6;fill:url(#linear-gradient);}.cls-33{fill:url(#Fade_to_Black_2-4);}.cls-34{opacity:0.1;fill:url(#Fade_to_Black_2-5);}.cls-35{fill:#a5d6b5;}.cls-36{stroke-width:1.34px;}</style><linearGradient id="Fade_to_Black_2" x1="7203.92" y1="6366.07" x2="7203.92" y2="6349" gradientTransform="translate(-5809.34 7435.53) rotate(-90)" gradientUnits="userSpaceOnUse"><stop offset="0" stop-color="#221f1f"/><stop offset="0.05" stop-color="#221f1f" stop-opacity="0.88"/><stop offset="0.32" stop-color="#221f1f" stop-opacity="0.39"/><stop offset="0.63" stop-color="#221f1f" stop-opacity="0.09"/><stop offset="1" stop-color="#221f1f" stop-opacity="0"/></linearGradient><linearGradient id="Fade_to_Black_2-2" x1="7286.27" y1="6359.5" x2="7292.54" y2="6359.5" xlink:href="#Fade_to_Black_2"/><linearGradient id="Fade_to_Black_2-3" x1="7300.65" y1="6366.32" x2="7300.65" y2="6348.49" xlink:href="#Fade_to_Black_2"/><linearGradient id="linear-gradient" x1="7222.19" y1="6356.36" x2="7247.45" y2="6381.61" gradientTransform="translate(-5809.34 7435.53) rotate(-90)" gradientUnits="userSpaceOnUse"><stop offset="0" stop-color="#fff"/><stop offset="0.06" stop-color="#fff" stop-opacity="0.86"/><stop offset="0.16" stop-color="#fff" stop-opacity="0.66"/><stop offset="0.26" stop-color="#fff" stop-opacity="0.48"/><stop offset="0.37" stop-color="#fff" stop-opacity="0.33"/><stop offset="0.48" stop-color="#fff" stop-opacity="0.21"/><stop offset="0.59" stop-color="#fff" stop-opacity="0.12"/><stop offset="0.71" stop-color="#fff" stop-opacity="0.05"/><stop offset="0.84" stop-color="#fff" stop-opacity="0.01"/><stop offset="1" stop-color="#fff" stop-opacity="0"/></linearGradient><linearGradient id="Fade_to_Black_2-4" x1="7271.94" y1="6406.11" x2="7246.69" y2="6380.85" xlink:href="#Fade_to_Black_2"/><linearGradient id="Fade_to_Black_2-5" x1="7230.09" y1="6364.26" x2="7247.45" y2="6381.61" xlink:href="#Fade_to_Black_2"/></defs><title>Asset 5</title><g class="cls-1"><g id="Layer_2" data-name="Layer 2"><g id="Glavno_Besedilo" data-name="Glavno Besedilo"><rect class="cls-2" width="668.23" height="342.1"/><rect class="cls-3" y="342.1" width="668.23" height="91.82"/><circle class="cls-4" cx="205.82" cy="363.55" r="8.84"/><circle class="cls-4" cx="229.65" cy="361.94" r="8.84"/><path class="cls-4" d="M214.64,363s1.87-4.2,6.19-.42"/><path class="cls-4" d="M238.47,361.35l7.67-5.06a3.13,3.13,0,0,1,4.84,2.4h0"/><path class="cls-4" d="M197,364.15l-8.29-4a3.13,3.13,0,0,0-4.47,3h0"/><path class="cls-5" d="M247.56,302.13H182.34v13.58h70.44v-8.35a5.25,5.25,0,0,0-5.22-5.23"/><path class="cls-6" d="M195.63,302.13H182.34l-9.79-66.21a2.89,2.89,0,0,1,2.91-3.43h6.6a3.94,3.94,0,0,1,3.75,3.27Z"/><rect class="cls-7" x="182.34" y="315.71" width="70.44" height="3.03"/><polygon class="cls-8" points="182.34 318.75 192.53 318.75 182.56 372.67 179.43 372.67 182.34 318.75"/><polygon class="cls-8" points="252.77 318.75 242.58 318.75 252.56 372.67 255.68 372.67 252.77 318.75"/><path class="cls-5" d="M368.13,302.13h65.21v13.58H362.9v-8.35a5.25,5.25,0,0,1,5.23-5.23"/><path class="cls-6" d="M420.06,302.13h13.28l9.8-66.21a2.89,2.89,0,0,0-2.92-3.43h-6.59a3.93,3.93,0,0,0-3.75,3.27Z"/><rect class="cls-7" x="362.9" y="315.71" width="70.44" height="3.03"/><polygon class="cls-8" points="433.35 318.75 423.15 318.75 433.13 372.67 436.25 372.67 433.35 318.75"/><polygon class="cls-8" points="362.91 318.75 373.1 318.75 363.13 372.67 360 372.67 362.91 318.75"/><rect class="cls-9" x="254.45" y="276.25" width="136.19" height="7.21"/><rect class="cls-9" x="243.62" y="265.46" width="157.85" height="11.03"/><rect class="cls-10" x="247.4" y="276.25" width="9.34" height="96.32"/><rect class="cls-10" x="388.36" y="276.25" width="9.34" height="96.32"/><rect class="cls-11" x="247.4" y="276.25" width="9.34" height="2.31"/><rect class="cls-11" x="388.36" y="276.25" width="9.34" height="2.31"/><rect class="cls-10" x="256.73" y="276.25" width="131.63" height="2.31"/><rect class="cls-12" x="243.62" y="265.46" width="157.85" height="4.12"/><rect class="cls-13" x="34.93" y="332.51" width="127.89" height="43.86"/><rect class="cls-14" x="34.93" y="93.4" width="127.89" height="43.17"/><path class="cls-15" d="M30.94,89.4v291H166.82V89.4Zm4,287V332.51H162.82v43.86Zm0-91H162.82v43.17H34.93Zm127.89-4.81H34.93V237.35H162.82Zm0-48H34.93V189.37H162.82Zm0-48H34.93V141.38H162.82Zm0-48H34.93V93.4H162.82Z"/><rect class="cls-14" x="34.93" y="141.38" width="127.89" height="43.17"/><rect class="cls-14" x="34.93" y="189.37" width="127.89" height="43.17"/><rect class="cls-14" x="34.93" y="237.35" width="127.89" height="43.17"/><rect class="cls-13" x="34.93" y="285.34" width="127.89" height="43.17"/><rect class="cls-16" x="51.12" y="242.77" width="9.4" height="37.45"/><rect class="cls-17" x="100.77" y="254.65" width="9.4" height="25.88"/><rect class="cls-18" x="60.52" y="248.15" width="4.47" height="32.38"/><rect class="cls-19" x="64.99" y="246.94" width="4.47" height="33.59"/><rect class="cls-20" x="69.47" y="248.15" width="4.47" height="32.38"/><rect class="cls-17" x="73.94" y="250.08" width="4.47" height="30.45"/><rect class="cls-20" x="78.41" y="250.08" width="4.47" height="30.45"/><rect class="cls-18" x="82.88" y="245.5" width="4.47" height="35.03"/><rect class="cls-19" x="87.36" y="250.08" width="4.47" height="30.45"/><rect class="cls-21" x="91.83" y="250.08" width="4.47" height="30.45"/><rect class="cls-20" x="96.3" y="248.15" width="4.47" height="32.38"/><rect class="cls-20" x="40.79" y="248.48" width="4.47" height="32.38" transform="translate(101.45 2.97) rotate(21.82)"/><rect class="cls-19" x="34.93" y="197.99" width="2.69" height="34.55"/><rect class="cls-19" x="37.62" y="197.99" width="2.69" height="34.55"/><rect class="cls-19" x="40.31" y="197.99" width="2.69" height="34.55"/><rect class="cls-20" x="43" y="197.99" width="2.69" height="34.55"/><rect class="cls-18" x="45.68" y="197.99" width="2.69" height="34.55"/><rect class="cls-19" x="48.37" y="197.99" width="2.69" height="34.55"/><rect class="cls-19" x="51.06" y="197.99" width="2.69" height="34.55"/><rect class="cls-17" x="53.74" y="197.99" width="2.69" height="34.55"/><rect class="cls-17" x="56.43" y="197.99" width="2.69" height="34.55"/><rect class="cls-18" x="59.12" y="197.99" width="2.69" height="34.55"/><rect class="cls-19" x="61.81" y="197.99" width="2.69" height="34.55"/><rect class="cls-20" x="64.49" y="197.99" width="2.69" height="34.55"/><rect class="cls-20" x="67.18" y="197.99" width="2.69" height="34.55"/><rect class="cls-19" x="69.87" y="197.99" width="2.69" height="34.55"/><rect class="cls-19" x="72.55" y="197.99" width="2.69" height="34.55"/><rect class="cls-18" x="75.24" y="197.99" width="2.69" height="34.55"/><rect class="cls-19" x="77.93" y="197.99" width="2.69" height="34.55"/><rect class="cls-19" x="80.61" y="197.99" width="2.69" height="34.55"/><rect class="cls-20" x="83.3" y="197.99" width="2.69" height="34.55"/><rect class="cls-19" x="85.99" y="197.99" width="2.69" height="34.55"/><rect class="cls-17" x="88.68" y="197.99" width="2.69" height="34.55"/><rect class="cls-17" x="94.34" y="197.99" width="2.69" height="34.55" transform="translate(-61.08 39.43) rotate(-17.75)"/><rect class="cls-22" x="50.56" y="157.27" width="22.48" height="27.29"/><rect class="cls-23" x="55.09" y="160.98" width="13.44" height="19.86"/><rect class="cls-24" x="90.02" y="109.29" width="22.48" height="27.29"/><rect class="cls-23" x="94.54" y="113" width="13.44" height="19.86"/><rect class="cls-17" x="80.61" y="291.95" width="37.07" height="3.27"/><rect class="cls-17" x="80.61" y="335.76" width="37.07" height="3.27"/><rect class="cls-25" x="302.45" y="88.69" width="40.19" height="109.28"/><rect class="cls-25" x="350.45" y="88.69" width="40.19" height="109.28"/><rect class="cls-26" x="356.16" y="95.43" width="14.39" height="39.12"/><rect class="cls-26" x="322.55" y="153.85" width="14.39" height="39.12"/><rect class="cls-25" x="252.3" y="88.69" width="40.19" height="109.28"/><rect class="cls-26" x="256.73" y="121.83" width="14.39" height="39.12"/><rect class="cls-13" x="494.88" y="88.69" width="152.38" height="201.36"/><rect class="cls-14" x="498.9" y="94" width="144.34" height="190.73"/><path class="cls-27" d="M536.27,115.32S620,92,620,184.19s-83.71,68.87-83.71,68.87-13.56-20.86-13.56-68.87S536.27,115.32,536.27,115.32Z"/><path class="cls-27" d="M538.76,114.72,537,253.25a92.33,92.33,0,0,0,18.13,2.39l-1.27-142.86A94.94,94.94,0,0,0,538.76,114.72Zm-16,69.47a198.39,198.39,0,0,0,4.13,42.15l1.11-89C525.14,148.38,522.71,163.84,522.71,184.19Zm86,47.07-.85-95.43A50,50,0,0,0,598,125.12l-.68,118.67A50,50,0,0,0,608.67,231.26Zm-21.9,18.87L588.41,119a64.31,64.31,0,0,0-22.48-6l1.26,142.22A64.49,64.49,0,0,0,586.77,250.13ZM620,184.19a110.45,110.45,0,0,0-3.45-28.91l.22,57A111.18,111.18,0,0,0,620,184.19Z"/><path class="cls-28" d="M598.3,231.6a3.72,3.72,0,0,1-.6,2.39c-.1.09-36.13-1.26-36.26-1.26-5.71,0-4.32,5.37-13,5.37-6.21,0-9.52-2.46-9.52-6.5s3.31-6.5,9.52-6.5c8.69,0,7.3,5.37,13,5.37.13,0,36.16-1.35,36.26-1.26A3.74,3.74,0,0,1,598.3,231.6Z"/><path class="cls-29" d="M548.2,225.73c5.61,0,8.53,2.63,8.53,5.87s-2.92,5.87-8.53,5.87c-6.06,0-8.54-2.63-8.54-5.87S542.14,225.73,548.2,225.73Z"/><path class="cls-28" d="M546.8,149.76c-9.22,0-14.9-3.37-14.9-5.26,0-1.33.67-1.52,1.78-1.52s13.24.94,27.76.94c10.4,0,36.16-1.36,36.26-1.27a5.08,5.08,0,0,1,0,4.79c-.06.05-28.36-.49-29.84-.49C562.37,147,560.45,149.76,546.8,149.76Z"/><path class="cls-30" d="M568.36,143.8c-2.65.07-5,.12-6.92.12-14.52,0-26.65-.94-27.76-.94-.88,0-1.49.12-1.7.84a1.1,1.1,0,0,0,0,.18c1.26,3.13,7.6,5.25,16.14,5.25C557.82,149.25,566.75,146.19,568.36,143.8Z"/><path class="cls-28" d="M547.62,130.09c-6.37,0-9.08.23-9.08.23v1.08l11.53.09a.68.68,0,0,1,.64.68.69.69,0,0,1-.64.69l-11.53.09v1.1l12.16.09a.73.73,0,0,1,.64.73.72.72,0,0,1-.64.73l-12.16.09v1.11l11.53.09a.69.69,0,0,1,0,1.37l-11.53.09v1.07s2.71.24,9.08.24c8.69,0,8.11-3.66,13.82-3.66.13,0,36.16,1.36,36.26,1.26a5.06,5.06,0,0,0,0-4.78c-.1-.09-36.13,1.26-36.26,1.26C555.73,133.74,556.31,130.09,547.62,130.09Z"/><path class="cls-31" d="M549.16,130.63c-6.49,0-8.86.09-9.66.77l10.57.09a.68.68,0,0,1,.64.68.69.69,0,0,1-.64.69l-10.92.08c0,.33.08.7.11,1.12l11.44.08a.73.73,0,0,1,.64.73.72.72,0,0,1-.64.73l-11.44.09c0,.42-.08.79-.11,1.11l10.92.09a.69.69,0,0,1,0,1.37l-10.57.08c.8.69,3.17.78,9.66.78,3.61,0,7.82-1.88,7.82-4.25S552.77,130.63,549.16,130.63Z"/><circle class="cls-28" cx="571.9" cy="188.46" r="35.18" transform="translate(254.47 700.14) rotate(-76.43)"/><path class="cls-17" d="M571.9,164.45a24,24,0,1,1-24,24A24,24,0,0,1,571.9,164.45Z"/><path class="cls-32" d="M547.78,212.57a35.17,35.17,0,0,1-.37-49.36l-.39.37a35.18,35.18,0,0,0,49.75,49.75l.38-.38A35.19,35.19,0,0,1,547.78,212.57Z"/><path class="cls-33" d="M596,164.35a35.17,35.17,0,0,1,.37,49.36l.39-.38A35.18,35.18,0,0,0,547,163.58l-.38.39A35.18,35.18,0,0,1,596,164.35Z"/><path class="cls-34" d="M555.68,204.67a24,24,0,0,1-.37-33.56l-.39.37a24,24,0,0,0,34,34l.38-.38A24,24,0,0,1,555.68,204.67Z"/><path class="cls-35" d="M589.58,209c-.43.42-.3.89.28,1.05l4,1.06c.57.15.92-.19.76-.77l-1.06-4c-.15-.58-.62-.7-1-.28Zm-35.65,1.05c.58-.16.71-.63.28-1.05l-2.89-2.9c-.43-.42-.9-.3-1.05.28l-1.06,4c-.16.58.19.92.76.77Zm15.37,6.36,2.05,3.55a.58.58,0,0,0,1.09,0l2-3.55c.3-.51,0-.94-.55-.94h-4.09C569.25,215.51,569,215.94,569.3,216.45Zm-24.46-25.94v-4.1c0-.6-.42-.84-.94-.54l-3.55,2a.58.58,0,0,0,0,1.09l3.55,2.05C544.42,191.35,544.84,191.1,544.84,190.51Zm54.11-4.1v4.1c0,.59.42.84.94.54l3.55-2.05a.58.58,0,0,0,0-1.09l-3.55-2C599.37,185.57,599,185.81,599,186.41Zm-44.74-18.53a.57.57,0,0,0-.28-1l-4-1.06c-.57-.16-.92.19-.76.77l1.06,4a.57.57,0,0,0,1,.28Zm17.14-11-2.05,3.55c-.3.52,0,.94.55.94h4.09c.6,0,.85-.42.55-.94l-2-3.55A.58.58,0,0,0,571.35,156.91Zm18.51,9.92a.57.57,0,0,0-.28,1l2.89,2.9c.43.42.9.29,1-.28l1.06-4c.16-.58-.19-.93-.76-.77Z"/><circle class="cls-36" cx="301.09" cy="251.87" r="12.39"/><circle class="cls-36" cx="334.49" cy="249.62" r="12.39"/><path class="cls-36" d="M313.45,251s2.62-5.88,8.68-.59"/><path class="cls-36" d="M346.85,248.78l10.75-7.08a4.39,4.39,0,0,1,6.79,3.36h0"/><path class="cls-36" d="M288.73,252.71l-11.61-5.57a4.38,4.38,0,0,0-6.27,4.24h0"/></g></g></g></svg>