<svg xmlns="http://www.w3.org/2000/svg" xmlns:xlink="http://www.w3.org/1999/xlink" viewBox="0 0 668.23 433.92"><defs><style>.cls-1{isolation:isolate;}.cls-2{fill:#f9eed3;}.cls-3{fill:#e2cf91;}.cls-4{fill:#cf2027;}.cls-4,.cls-5,.cls-7{fill-rule:evenodd;}.cls-5,.cls-6{fill:#b52025;}.cls-7,.cls-9{fill:#826353;}.cls-8{fill:#95715f;}.cls-10{fill:#6f5447;}.cls-11{fill:#a58678;}.cls-12{fill:#8a5322;}.cls-13{fill:#623d16;}.cls-14{fill:#c17629;}.cls-15{fill:#af4325;}.cls-16{fill:#fff;}.cls-17{fill:#f9a11e;}.cls-18{fill:#00a9b6;}.cls-19{fill:#9a1c1f;}.cls-20{fill:#5f4727;}.cls-21{fill:#f8de70;}.cls-22{fill:#f9f5dc;}.cls-23{fill:#75452e;}.cls-24{fill:#f15d2c;}.cls-25{fill:#fffef9;}.cls-26{fill:#d55227;}.cls-27{fill:#f1f1f1;}.cls-28,.cls-29,.cls-30,.cls-32{opacity:0.05;}.cls-28,.cls-29,.cls-30,.cls-32,.cls-33{mix-blend-mode:multiply;}.cls-28{fill:url(#Fade_to_Black_2);}.cls-29{fill:url(#Fade_to_Black_2-2);}.cls-30{fill:url(#Fade_to_Black_2-3);}.cls-31{opacity:0.6;fill:url(#linear-gradient);}.cls-32{fill:url(#Fade_to_Black_2-4);}.cls-33{opacity:0.1;fill:url(#Fade_to_Black_2-5);}.cls-34{fill:#a5d6b5;}.cls-35{fill:#065;}.cls-36{fill:#ffffec;}</style><linearGradient id="Fade_to_Black_2" x1="544.92" y1="115.07" x2="544.92" y2="98" gradientTransform="translate(441.66 776.53) rotate(-90)" gradientUnits="userSpaceOnUse"><stop offset="0" stop-color="#221f1f"/><stop offset="0.05" stop-color="#221f1f" stop-opacity="0.88"/><stop offset="0.32" stop-color="#221f1f" stop-opacity="0.39"/><stop offset="0.63" stop-color="#221f1f" stop-opacity="0.09"/><stop offset="1" stop-color="#221f1f" stop-opacity="0"/></linearGradient><linearGradient id="Fade_to_Black_2-2" x1="627.27" y1="108.5" x2="633.54" y2="108.5" xlink:href="#Fade_to_Black_2"/><linearGradient id="Fade_to_Black_2-3" x1="641.65" y1="115.32" x2="641.65" y2="97.49" xlink:href="#Fade_to_Black_2"/><linearGradient id="linear-gradient" x1="563.19" y1="105.36" x2="588.45" y2="130.61" gradientTransform="translate(441.66 776.53) rotate(-90)" gradientUnits="userSpaceOnUse"><stop offset="0" stop-color="#fff"/><stop offset="0.06" stop-color="#fff" stop-opacity="0.86"/><stop offset="0.16" stop-color="#fff" stop-opacity="0.66"/><stop offset="0.26" stop-color="#fff" stop-opacity="0.48"/><stop offset="0.37" stop-color="#fff" stop-opacity="0.33"/><stop offset="0.48" stop-color="#fff" stop-opacity="0.21"/><stop offset="0.59" stop-color="#fff" stop-opacity="0.12"/><stop offset="0.71" stop-color="#fff" stop-opacity="0.05"/><stop offset="0.84" stop-color="#fff" stop-opacity="0.01"/><stop offset="1" stop-color="#fff" stop-opacity="0"/></linearGradient><linearGradient id="Fade_to_Black_2-4" x1="612.94" y1="155.11" x2="587.69" y2="129.85" xlink:href="#Fade_to_Black_2"/><linearGradient id="Fade_to_Black_2-5" x1="571.09" y1="113.26" x2="588.45" y2="130.61" xlink:href="#Fade_to_Black_2"/></defs><title>dining room 02</title><g class="cls-1"><g id="Layer_2" data-name="Layer 2"><g id="Glavno_Besedilo" data-name="Glavno Besedilo"><rect id="_Rectangle_" data-name="&lt;Rectangle&gt;" class="cls-2" width="668.23" height="342.1"/><rect id="_Rectangle_2" data-name="&lt;Rectangle&gt;" class="cls-3" y="342.1" width="668.23" height="91.82"/><g id="_Group_" data-name="&lt;Group&gt;"><path id="_Path_" data-name="&lt;Path&gt;" class="cls-4" d="M279.56,302.13H214.34v13.58h70.44v-8.35a5.24,5.24,0,0,0-5.22-5.22"/><path id="_Path_2" data-name="&lt;Path&gt;" class="cls-5" d="M227.63,302.13H214.34l-9.79-66.22a2.89,2.89,0,0,1,2.92-3.43h6.6a3.94,3.94,0,0,1,3.75,3.27Z"/><rect id="_Path_3" data-name="&lt;Path&gt;" class="cls-6" x="214.34" y="315.71" width="70.44" height="3.03"/><polygon id="_Path_4" data-name="&lt;Path&gt;" class="cls-7" points="214.34 318.75 224.53 318.75 214.56 372.67 211.43 372.67 214.34 318.75"/><polygon id="_Path_5" data-name="&lt;Path&gt;" class="cls-7" points="284.77 318.75 274.58 318.75 284.56 372.67 287.68 372.67 284.77 318.75"/><path id="_Path_6" data-name="&lt;Path&gt;" class="cls-4" d="M368.13,302.13h65.22v13.58H362.9v-8.35a5.24,5.24,0,0,1,5.22-5.22"/><path id="_Path_7" data-name="&lt;Path&gt;" class="cls-5" d="M420.06,302.13h13.29l9.79-66.22a2.89,2.89,0,0,0-2.92-3.43h-6.6a3.94,3.94,0,0,0-3.75,3.27Z"/><rect id="_Path_8" data-name="&lt;Path&gt;" class="cls-6" x="362.9" y="315.71" width="70.44" height="3.03"/><polygon id="_Path_9" data-name="&lt;Path&gt;" class="cls-7" points="433.35 318.75 423.15 318.75 433.13 372.67 436.25 372.67 433.35 318.75"/><polygon id="_Path_10" data-name="&lt;Path&gt;" class="cls-7" points="362.91 318.75 373.1 318.75 363.13 372.67 360 372.67 362.91 318.75"/><rect id="_Path_11" data-name="&lt;Path&gt;" class="cls-8" x="254.45" y="276.25" width="136.19" height="7.21"/><rect id="_Path_12" data-name="&lt;Path&gt;" class="cls-8" x="243.62" y="265.46" width="157.85" height="11.03"/><rect id="_Path_13" data-name="&lt;Path&gt;" class="cls-9" x="247.4" y="276.25" width="9.34" height="96.32"/><rect id="_Path_14" data-name="&lt;Path&gt;" class="cls-9" x="388.36" y="276.25" width="9.34" height="96.32"/><rect id="_Path_15" data-name="&lt;Path&gt;" class="cls-10" x="247.4" y="276.25" width="9.34" height="2.31"/><rect id="_Path_16" data-name="&lt;Path&gt;" class="cls-10" x="388.36" y="276.25" width="9.34" height="2.31"/><rect id="_Path_17" data-name="&lt;Path&gt;" class="cls-9" x="256.73" y="276.25" width="131.63" height="2.31"/><rect id="_Path_18" data-name="&lt;Path&gt;" class="cls-11" x="243.62" y="265.46" width="157.85" height="4.12"/></g><g id="_Group_2" data-name="&lt;Group&gt;"><rect id="_Path_19" data-name="&lt;Path&gt;" class="cls-12" x="34.93" y="332.51" width="127.89" height="43.86"/><rect id="_Path_20" data-name="&lt;Path&gt;" class="cls-13" x="34.93" y="93.4" width="127.89" height="43.17"/><path id="_Compound_Path_" data-name="&lt;Compound Path&gt;" class="cls-14" d="M30.94,89.4v291H166.82V89.4Zm4,287V332.51H162.82v43.86Zm0-91H162.82v43.17H34.93Zm127.89-4.81H34.93V237.35H162.82Zm0-48H34.93V189.37H162.82Zm0-48H34.93V141.38H162.82Zm0-48H34.93V93.4H162.82Z"/><rect id="_Path_21" data-name="&lt;Path&gt;" class="cls-13" x="34.93" y="141.38" width="127.89" height="43.17"/><rect id="_Path_22" data-name="&lt;Path&gt;" class="cls-13" x="34.93" y="189.37" width="127.89" height="43.17"/><rect id="_Path_23" data-name="&lt;Path&gt;" class="cls-13" x="34.93" y="237.35" width="127.89" height="43.17"/><rect id="_Path_24" data-name="&lt;Path&gt;" class="cls-12" x="34.93" y="285.34" width="127.89" height="43.17"/></g><g id="_Group_3" data-name="&lt;Group&gt;"><g id="_Group_4" data-name="&lt;Group&gt;"><rect id="_Rectangle_3" data-name="&lt;Rectangle&gt;" class="cls-15" x="51.12" y="242.77" width="9.4" height="37.45"/></g><g id="_Group_5" data-name="&lt;Group&gt;"><rect id="_Rectangle_4" data-name="&lt;Rectangle&gt;" class="cls-16" x="100.77" y="254.65" width="9.4" height="25.88"/></g><g id="_Group_6" data-name="&lt;Group&gt;"><rect id="_Rectangle_5" data-name="&lt;Rectangle&gt;" class="cls-17" x="60.52" y="248.15" width="4.47" height="32.38"/></g><g id="_Group_7" data-name="&lt;Group&gt;"><rect id="_Rectangle_6" data-name="&lt;Rectangle&gt;" class="cls-18" x="64.99" y="246.94" width="4.47" height="33.59"/></g><g id="_Group_8" data-name="&lt;Group&gt;"><rect id="_Rectangle_7" data-name="&lt;Rectangle&gt;" class="cls-19" x="69.47" y="248.15" width="4.47" height="32.38"/></g><g id="_Group_9" data-name="&lt;Group&gt;"><rect id="_Rectangle_8" data-name="&lt;Rectangle&gt;" class="cls-16" x="73.94" y="250.08" width="4.47" height="30.45"/></g><g id="_Group_10" data-name="&lt;Group&gt;"><rect id="_Rectangle_9" data-name="&lt;Rectangle&gt;" class="cls-19" x="78.41" y="250.08" width="4.47" height="30.45"/></g><g id="_Group_11" data-name="&lt;Group&gt;"><rect id="_Rectangle_10" data-name="&lt;Rectangle&gt;" class="cls-17" x="82.88" y="245.5" width="4.47" height="35.03"/></g><g id="_Group_12" data-name="&lt;Group&gt;"><rect id="_Rectangle_11" data-name="&lt;Rectangle&gt;" class="cls-18" x="87.36" y="250.08" width="4.47" height="30.45"/></g><g id="_Group_13" data-name="&lt;Group&gt;"><rect id="_Rectangle_12" data-name="&lt;Rectangle&gt;" class="cls-20" x="91.83" y="250.08" width="4.47" height="30.45"/></g><g id="_Group_14" data-name="&lt;Group&gt;"><rect id="_Rectangle_13" data-name="&lt;Rectangle&gt;" class="cls-19" x="96.3" y="248.15" width="4.47" height="32.38"/></g><g id="_Group_15" data-name="&lt;Group&gt;"><rect id="_Rectangle_14" data-name="&lt;Rectangle&gt;" class="cls-19" x="40.79" y="248.48" width="4.47" height="32.38" transform="translate(101.45 2.97) rotate(21.82)"/></g></g><rect id="_Rectangle_15" data-name="&lt;Rectangle&gt;" class="cls-18" x="34.93" y="197.99" width="2.69" height="34.55"/><rect id="_Rectangle_16" data-name="&lt;Rectangle&gt;" class="cls-18" x="37.62" y="197.99" width="2.69" height="34.55"/><rect id="_Rectangle_17" data-name="&lt;Rectangle&gt;" class="cls-18" x="40.31" y="197.99" width="2.69" height="34.55"/><rect id="_Rectangle_18" data-name="&lt;Rectangle&gt;" class="cls-19" x="43" y="197.99" width="2.69" height="34.55"/><rect id="_Rectangle_19" data-name="&lt;Rectangle&gt;" class="cls-17" x="45.68" y="197.99" width="2.69" height="34.55"/><rect id="_Rectangle_20" data-name="&lt;Rectangle&gt;" class="cls-18" x="48.37" y="197.99" width="2.69" height="34.55"/><rect id="_Rectangle_21" data-name="&lt;Rectangle&gt;" class="cls-18" x="51.06" y="197.99" width="2.69" height="34.55"/><rect id="_Rectangle_22" data-name="&lt;Rectangle&gt;" class="cls-16" x="53.74" y="197.99" width="2.69" height="34.55"/><rect id="_Rectangle_23" data-name="&lt;Rectangle&gt;" class="cls-16" x="56.43" y="197.99" width="2.69" height="34.55"/><rect id="_Rectangle_24" data-name="&lt;Rectangle&gt;" class="cls-17" x="59.12" y="197.99" width="2.69" height="34.55"/><rect id="_Rectangle_25" data-name="&lt;Rectangle&gt;" class="cls-18" x="61.81" y="197.99" width="2.69" height="34.55"/><rect id="_Rectangle_26" data-name="&lt;Rectangle&gt;" class="cls-19" x="64.49" y="197.99" width="2.69" height="34.55"/><rect id="_Rectangle_27" data-name="&lt;Rectangle&gt;" class="cls-19" x="67.18" y="197.99" width="2.69" height="34.55"/><rect id="_Rectangle_28" data-name="&lt;Rectangle&gt;" class="cls-18" x="69.87" y="197.99" width="2.69" height="34.55"/><rect id="_Rectangle_29" data-name="&lt;Rectangle&gt;" class="cls-18" x="72.55" y="197.99" width="2.69" height="34.55"/><rect id="_Rectangle_30" data-name="&lt;Rectangle&gt;" class="cls-17" x="75.24" y="197.99" width="2.69" height="34.55"/><rect id="_Rectangle_31" data-name="&lt;Rectangle&gt;" class="cls-18" x="77.93" y="197.99" width="2.69" height="34.55"/><rect id="_Rectangle_32" data-name="&lt;Rectangle&gt;" class="cls-18" x="80.61" y="197.99" width="2.69" height="34.55"/><rect id="_Rectangle_33" data-name="&lt;Rectangle&gt;" class="cls-19" x="83.3" y="197.99" width="2.69" height="34.55"/><rect id="_Rectangle_34" data-name="&lt;Rectangle&gt;" class="cls-18" x="85.99" y="197.99" width="2.69" height="34.55"/><rect id="_Rectangle_35" data-name="&lt;Rectangle&gt;" class="cls-16" x="88.68" y="197.99" width="2.69" height="34.55"/><rect id="_Rectangle_36" data-name="&lt;Rectangle&gt;" class="cls-16" x="94.34" y="197.99" width="2.69" height="34.55" transform="translate(-61.08 39.43) rotate(-17.75)"/><g id="_Group_16" data-name="&lt;Group&gt;"><rect id="_Rectangle_37" data-name="&lt;Rectangle&gt;" class="cls-21" x="50.56" y="157.27" width="22.48" height="27.29"/><rect id="_Rectangle_38" data-name="&lt;Rectangle&gt;" class="cls-22" x="55.09" y="160.98" width="13.44" height="19.86"/></g><g id="_Group_17" data-name="&lt;Group&gt;"><rect id="_Rectangle_39" data-name="&lt;Rectangle&gt;" class="cls-23" x="90.02" y="109.29" width="22.48" height="27.29"/><rect id="_Rectangle_40" data-name="&lt;Rectangle&gt;" class="cls-22" x="94.54" y="113" width="13.44" height="19.86"/></g><rect class="cls-16" x="80.61" y="291.95" width="37.07" height="3.27"/><rect class="cls-16" x="80.61" y="335.76" width="37.07" height="3.27"/><rect class="cls-24" x="302.45" y="88.69" width="40.19" height="109.28"/><rect class="cls-24" x="350.45" y="88.69" width="40.19" height="109.28"/><rect class="cls-25" x="356.16" y="95.43" width="14.39" height="39.12"/><rect class="cls-25" x="322.55" y="153.85" width="14.39" height="39.12"/><rect class="cls-24" x="252.3" y="88.69" width="40.19" height="109.28"/><rect class="cls-25" x="256.73" y="121.83" width="14.39" height="39.12"/><rect class="cls-12" x="494.88" y="88.69" width="152.38" height="201.36"/><rect class="cls-13" x="498.9" y="94" width="144.34" height="190.73"/><path class="cls-26" d="M536.27,115.32S620,92,620,184.19s-83.71,68.87-83.71,68.87-13.56-20.85-13.56-68.87S536.27,115.32,536.27,115.32Z"/><path class="cls-26" d="M538.76,114.72,537,253.25a92.31,92.31,0,0,0,18.13,2.39l-1.27-142.86A94.71,94.71,0,0,0,538.76,114.72Zm-16,69.46a198.52,198.52,0,0,0,4.13,42.15l1.11-89C525.14,148.38,522.71,163.84,522.71,184.19Zm86,47.07-.85-95.43A49.94,49.94,0,0,0,598,125.12l-.68,118.67A50.1,50.1,0,0,0,608.67,231.26Zm-21.9,18.87L588.41,119a64.25,64.25,0,0,0-22.48-6l1.27,142.22A64.54,64.54,0,0,0,586.77,250.13ZM620,184.19a110.12,110.12,0,0,0-3.45-28.91l.23,57A111.3,111.3,0,0,0,620,184.19Z"/><path class="cls-27" d="M598.3,231.6a3.74,3.74,0,0,1-.61,2.39c-.09.09-36.13-1.26-36.26-1.26-5.71,0-4.32,5.37-13,5.37-6.21,0-9.52-2.46-9.52-6.5s3.3-6.5,9.52-6.5c8.69,0,7.3,5.37,13,5.37.13,0,36.16-1.35,36.26-1.26A3.74,3.74,0,0,1,598.3,231.6Z"/><path class="cls-28" d="M548.2,225.73c5.61,0,8.53,2.63,8.53,5.87s-2.92,5.87-8.53,5.87c-6.06,0-8.53-2.63-8.53-5.87S542.14,225.73,548.2,225.73Z"/><path class="cls-27" d="M546.8,149.76c-9.22,0-14.91-3.37-14.91-5.25,0-1.33.67-1.52,1.78-1.52s13.24.93,27.76.93c10.4,0,36.16-1.35,36.26-1.26a5,5,0,0,1,0,4.78c-.06.06-28.35-.48-29.83-.48C562.37,147,560.45,149.76,546.8,149.76Z"/><path class="cls-29" d="M568.36,143.8c-2.65.07-5,.12-6.92.12-14.52,0-26.65-.93-27.76-.93-.88,0-1.49.12-1.7.84,0,.06,0,.11,0,.17,1.26,3.13,7.6,5.26,16.14,5.26C557.82,149.25,566.75,146.19,568.36,143.8Z"/><path class="cls-27" d="M547.62,130.09c-6.37,0-9.08.24-9.08.24v1.07l11.54.09a.69.69,0,0,1,0,1.37l-11.54.09v1.11l12.16.09a.74.74,0,0,1,0,1.46l-12.16.09v1.11l11.54.09a.69.69,0,0,1,0,1.37l-11.54.09v1.07s2.71.24,9.08.24c8.69,0,8.11-3.66,13.82-3.66.13,0,36.16,1.35,36.26,1.26a5,5,0,0,0,0-4.78c-.09-.09-36.13,1.26-36.26,1.26C555.73,133.74,556.31,130.09,547.62,130.09Z"/><path class="cls-30" d="M549.16,130.63c-6.5,0-8.87.09-9.67.77l10.57.08a.69.69,0,0,1,0,1.37l-10.92.09c0,.32.08.69.11,1.12l11.44.08a.74.74,0,0,1,0,1.46l-11.44.08c0,.42-.08.79-.11,1.12l10.92.09a.69.69,0,0,1,0,1.37l-10.57.08c.8.69,3.17.77,9.67.77,3.6,0,7.82-1.88,7.82-4.24S552.77,130.63,549.16,130.63Z"/><circle class="cls-27" cx="571.9" cy="188.46" r="35.18"/><circle class="cls-16" cx="571.9" cy="188.46" r="24"/><path class="cls-31" d="M547.78,212.57a35.18,35.18,0,0,1-.38-49.36l-.39.38a35.18,35.18,0,0,0,49.75,49.75l.38-.39A35.18,35.18,0,0,1,547.78,212.57Z"/><path class="cls-32" d="M596,164.35a35.18,35.18,0,0,1,.38,49.36l.39-.38A35.18,35.18,0,1,0,547,163.58l-.38.39A35.18,35.18,0,0,1,596,164.35Z"/><path class="cls-33" d="M555.68,204.67a24,24,0,0,1-.38-33.56l-.39.38a24,24,0,0,0,33.95,33.95l.38-.39A24,24,0,0,1,555.68,204.67Z"/><path class="cls-34" d="M589.58,209a.57.57,0,0,0,.28,1l4,1.06c.58.15.92-.19.77-.77l-1.06-4a.57.57,0,0,0-1-.28Zm-35.64,1a.57.57,0,0,0,.28-1l-2.9-2.9a.57.57,0,0,0-1,.28l-1.06,4c-.15.58.19.92.77.77Zm15.37,6.37,2,3.55a.57.57,0,0,0,1.09,0l2-3.55c.3-.52.05-.94-.54-.94h-4.1C569.25,215.51,569,215.94,569.3,216.45Zm-24.46-25.95v-4.1c0-.6-.42-.84-.94-.54l-3.55,2a.57.57,0,0,0,0,1.09l3.55,2C544.42,191.35,544.84,191.1,544.84,190.51Zm54.11-4.1v4.1c0,.6.42.84.94.54l3.55-2a.57.57,0,0,0,0-1.09l-3.55-2C599.37,185.57,598.95,185.81,598.95,186.41Zm-44.74-18.53a.57.57,0,0,0-.28-1l-4-1.06c-.58-.15-.92.19-.77.77l1.06,4a.57.57,0,0,0,1,.28Zm17.14-11-2,3.55c-.3.52-.06.94.54.94h4.1c.6,0,.84-.42.54-.94l-2-3.55A.57.57,0,0,0,571.35,156.91Zm18.51,9.92a.57.57,0,0,0-.28,1l2.9,2.9a.57.57,0,0,0,1-.28l1.06-4c.15-.58-.19-.92-.77-.77Z"/><circle class="cls-35" cx="323.98" cy="247.92" r="23"/><path class="cls-36" d="M330,247.16q0,7.19,0,14.39a.73.73,0,0,1-.44.79.76.76,0,0,1-.78-.19L322.12,257c-.9-.7-1.8-1.41-2.72-2.1a.92.92,0,0,0-.52-.17h-8.26c-.73,0-.93-.21-.93-.95q0-6.6,0-13.21c0-.75.2-.94.93-.95h8.22a1,1,0,0,0,.57-.2q4.7-3.62,9.37-7.26a.77.77,0,0,1,.84-.17.72.72,0,0,1,.38.76Q330,239.93,330,247.16Z"/><path class="cls-36" d="M332.8,255c0-.58,0-1.14,0-1.7,0-.08.18-.2.29-.23a6.18,6.18,0,0,0,.05-11.92c-.28-.08-.38-.19-.36-.48,0-.49,0-1,0-1.47a8,8,0,0,1,0,15.8Z"/><path class="cls-36" d="M332.8,252.23c0-.68,0-1.31,0-1.95,0-.09.11-.19.19-.25a3.25,3.25,0,0,0,0-5.21.43.43,0,0,1-.17-.26c0-.63,0-1.25,0-1.88,1.49.19,3.12,2.3,3.33,4.26A5.14,5.14,0,0,1,332.8,252.23Z"/><circle class="cls-35" cx="117.98" cy="72.92" r="23"/><path class="cls-36" d="M124,72.16q0,7.19,0,14.39a.73.73,0,0,1-.44.79.76.76,0,0,1-.78-.19L116.12,82c-.9-.7-1.8-1.41-2.72-2.1a.92.92,0,0,0-.52-.17h-8.26c-.73,0-.93-.21-.93-.95q0-6.6,0-13.21c0-.75.2-.94.93-.95h8.22a1,1,0,0,0,.57-.2q4.7-3.62,9.37-7.26a.77.77,0,0,1,.84-.17.72.72,0,0,1,.38.76Q124,64.93,124,72.16Z"/><path class="cls-36" d="M126.8,80c0-.58,0-1.14,0-1.7,0-.08.18-.2.29-.23a6.18,6.18,0,0,0,.05-11.92c-.28-.08-.38-.19-.36-.48,0-.49,0-1,0-1.47a8,8,0,0,1,0,15.8Z"/><path class="cls-36" d="M126.8,77.23c0-.68,0-1.31,0-1.95,0-.09.11-.19.19-.25a3.25,3.25,0,0,0,0-5.21.43.43,0,0,1-.17-.26c0-.63,0-1.25,0-1.88,1.49.19,3.12,2.3,3.33,4.26A5.14,5.14,0,0,1,126.8,77.23Z"/><circle class="cls-35" cx="204.98" cy="219.92" r="23"/><path class="cls-36" d="M211,219.16q0,7.19,0,14.39a.73.73,0,0,1-.44.79.76.76,0,0,1-.78-.19L203.12,229c-.9-.7-1.8-1.41-2.72-2.1a.92.92,0,0,0-.52-.17h-8.26c-.73,0-.93-.21-.93-.95q0-6.6,0-13.21c0-.75.2-.94.93-.95h8.22a1,1,0,0,0,.57-.2q4.7-3.62,9.37-7.26a.77.77,0,0,1,.84-.17.72.72,0,0,1,.38.76Q211,211.93,211,219.16Z"/><path class="cls-36" d="M213.8,227c0-.58,0-1.14,0-1.7,0-.08.18-.2.29-.23a6.18,6.18,0,0,0,.05-11.92c-.28-.08-.38-.19-.36-.48,0-.49,0-1,0-1.47a8,8,0,0,1,0,15.8Z"/><path class="cls-36" d="M213.8,224.23c0-.68,0-1.31,0-1.95,0-.09.11-.19.19-.25a3.25,3.25,0,0,0,0-5.21.43.43,0,0,1-.17-.26c0-.63,0-1.25,0-1.88,1.49.19,3.12,2.3,3.33,4.26A5.14,5.14,0,0,1,213.8,224.23Z"/><circle class="cls-35" cx="607.98" cy="127.92" r="12"/><path class="cls-36" d="M611.13,127.52q0,3.75,0,7.51a.38.38,0,0,1-.23.41.4.4,0,0,1-.4-.1l-3.49-2.7-1.42-1.1a.48.48,0,0,0-.27-.09H601c-.38,0-.49-.11-.49-.49q0-3.45,0-6.89c0-.39.1-.49.48-.49h4.29a.53.53,0,0,0,.3-.1l4.89-3.79a.4.4,0,0,1,.44-.09.37.37,0,0,1,.2.39Q611.13,123.75,611.13,127.52Z"/><path class="cls-36" d="M612.58,131.61c0-.3,0-.6,0-.89,0,0,.09-.1.15-.12a3.22,3.22,0,0,0,0-6.22c-.15,0-.2-.1-.19-.25s0-.51,0-.77a4.17,4.17,0,0,1,0,8.24Z"/><path class="cls-36" d="M612.58,130.17c0-.35,0-.68,0-1,0,0,.06-.1.1-.13a1.7,1.7,0,0,0,0-2.72.23.23,0,0,1-.09-.14c0-.33,0-.65,0-1a2.62,2.62,0,0,1,1.74,2.22A2.68,2.68,0,0,1,612.58,130.17Z"/><circle class="cls-35" cx="527.98" cy="191.92" r="12"/><path class="cls-36" d="M531.13,191.52q0,3.75,0,7.51a.38.38,0,0,1-.23.41.4.4,0,0,1-.4-.1l-3.49-2.7-1.42-1.1a.48.48,0,0,0-.27-.09H521c-.38,0-.49-.11-.49-.49q0-3.45,0-6.89c0-.39.1-.49.48-.49h4.29a.53.53,0,0,0,.3-.1l4.89-3.79a.4.4,0,0,1,.44-.09.37.37,0,0,1,.2.39Q531.13,187.75,531.13,191.52Z"/><path class="cls-36" d="M532.58,195.61c0-.3,0-.6,0-.89,0,0,.09-.1.15-.12a3.22,3.22,0,0,0,0-6.22c-.15,0-.2-.1-.19-.25s0-.51,0-.77a4.17,4.17,0,0,1,0,8.24Z"/><path class="cls-36" d="M532.58,194.17c0-.35,0-.68,0-1,0,0,.06-.1.1-.13a1.7,1.7,0,0,0,0-2.72.23.23,0,0,1-.09-.14c0-.33,0-.65,0-1a2.62,2.62,0,0,1,1.74,2.22A2.68,2.68,0,0,1,532.58,194.17Z"/><circle class="cls-35" cx="520.98" cy="147.92" r="12"/><path class="cls-36" d="M524.13,147.52q0,3.75,0,7.51a.38.38,0,0,1-.23.41.4.4,0,0,1-.4-.1l-3.49-2.7-1.42-1.1a.48.48,0,0,0-.27-.09H514c-.38,0-.49-.11-.49-.49q0-3.45,0-6.89c0-.39.1-.49.48-.49h4.29a.53.53,0,0,0,.3-.1l4.89-3.79a.4.4,0,0,1,.44-.09.37.37,0,0,1,.2.39Q524.13,143.75,524.13,147.52Z"/><path class="cls-36" d="M525.58,151.61c0-.3,0-.6,0-.89,0,0,.09-.1.15-.12a3.22,3.22,0,0,0,0-6.22c-.15,0-.2-.1-.19-.25s0-.51,0-.77a4.17,4.17,0,0,1,0,8.24Z"/><path class="cls-36" d="M525.58,150.17c0-.35,0-.68,0-1,0,0,.06-.1.1-.13a1.7,1.7,0,0,0,0-2.72.23.23,0,0,1-.09-.14c0-.33,0-.65,0-1a2.62,2.62,0,0,1,1.74,2.22A2.68,2.68,0,0,1,525.58,150.17Z"/><circle class="cls-35" cx="605.98" cy="237.92" r="12"/><path class="cls-36" d="M609.13,237.52q0,3.75,0,7.51a.38.38,0,0,1-.23.41.4.4,0,0,1-.4-.1l-3.49-2.7-1.42-1.1a.48.48,0,0,0-.27-.09H599c-.38,0-.49-.11-.49-.49q0-3.45,0-6.89c0-.39.1-.49.48-.49h4.29a.53.53,0,0,0,.3-.1l4.89-3.79a.4.4,0,0,1,.44-.09.37.37,0,0,1,.2.39Q609.13,233.75,609.13,237.52Z"/><path class="cls-36" d="M610.58,241.61c0-.3,0-.6,0-.89,0,0,.09-.1.15-.12a3.22,3.22,0,0,0,0-6.22c-.15,0-.2-.1-.19-.25s0-.51,0-.77a4.17,4.17,0,0,1,0,8.24Z"/><path class="cls-36" d="M610.58,240.17c0-.35,0-.68,0-1,0,0,.06-.1.1-.13a1.7,1.7,0,0,0,0-2.72.23.23,0,0,1-.09-.14c0-.33,0-.65,0-1a2.62,2.62,0,0,1,1.74,2.22A2.68,2.68,0,0,1,610.58,240.17Z"/></g></g></g></svg>