<svg xmlns="http://www.w3.org/2000/svg" viewBox="0 0 684.17 328.76"><defs><style>.cls-1{fill:#009848;}.cls-2{fill:#006834;}.cls-3{fill:#9f6138;}.cls-4{fill:#87451e;}.cls-5{fill:#623d16;}.cls-6{fill:#e2cf91;}.cls-7{fill:#3eb871;}.cls-8{fill:#4d4d4a;}.cls-12,.cls-15,.cls-9{fill:none;stroke-miterlimit:10;}.cls-9{stroke:#ffffec;stroke-width:0.87px;}.cls-10{fill:#bcbec0;}.cls-11{fill:#fff;opacity:0.32;}.cls-12{stroke:#a6a8ab;stroke-width:1.94px;}.cls-13{fill:#85bde1;}.cls-14{fill:#a0cae7;}.cls-15{stroke:#3eb871;stroke-width:1.06px;}.cls-16{fill:#ffd64b;}.cls-17{fill:#fffded;}.cls-18{fill:#008747;}.cls-19{fill:#065;}.cls-20,.cls-21{fill:#ffffec;}.cls-21{font-size:27.32px;font-family:Raleway-Bold, Raleway;font-weight:700;}</style></defs><title>Asset 12</title><g id="Layer_2" data-name="Layer 2"><g id="Glavno_Besedilo" data-name="Glavno Besedilo"><rect class="cls-1" y="204.82" width="675.17" height="108.35"/><ellipse class="cls-2" cx="550.61" cy="267.5" rx="114.57" ry="19.34"/><path class="cls-3" d="M7,62H7a7,7,0,0,1,7,7v135.8a0,0,0,0,1,0,0H0a0,0,0,0,1,0,0V69a7,7,0,0,1,7-7Z"/><path class="cls-4" d="M14.07,67.25C8.74,60.33,6.21,197.13,0,204.82H14.07Z"/><path class="cls-3" d="M21.1,62h0a7,7,0,0,1,7,7v135.8a0,0,0,0,1,0,0H14.07a0,0,0,0,1,0,0V69a7,7,0,0,1,7-7Z"/><path class="cls-4" d="M28.13,67.25c-5.33-6.92-7.85,129.88-14.06,137.57H28.13Z"/><path class="cls-3" d="M35.17,62h0a7,7,0,0,1,7,7v135.8a0,0,0,0,1,0,0H28.13a0,0,0,0,1,0,0V69a7,7,0,0,1,7-7Z"/><path class="cls-4" d="M42.2,67.25c-5.33-6.92-7.86,129.88-14.07,137.57H42.2Z"/><path class="cls-3" d="M49.23,62h0a7,7,0,0,1,7,7v135.8a0,0,0,0,1,0,0H42.2a0,0,0,0,1,0,0V69A7,7,0,0,1,49.23,62Z"/><path class="cls-4" d="M56.26,67.25c-5.32-6.92-7.85,129.88-14.06,137.57H56.26Z"/><path class="cls-3" d="M63.3,62h0a7,7,0,0,1,7,7v135.8a0,0,0,0,1,0,0H56.26a0,0,0,0,1,0,0V69a7,7,0,0,1,7-7Z"/><path class="cls-4" d="M70.33,67.25C65,60.33,62.48,197.13,56.26,204.82H70.33Z"/><path class="cls-3" d="M77.36,62h0a7,7,0,0,1,7,7v135.8a0,0,0,0,1,0,0H70.33a0,0,0,0,1,0,0V69a7,7,0,0,1,7-7Z"/><path class="cls-4" d="M84.4,67.25c-5.33-6.92-7.86,129.88-14.07,137.57H84.4Z"/><path class="cls-3" d="M91.43,62h0a7,7,0,0,1,7,7v135.8a0,0,0,0,1,0,0H84.4a0,0,0,0,1,0,0V69a7,7,0,0,1,7-7Z"/><path class="cls-4" d="M98.46,67.25c-5.33-6.92-7.85,129.88-14.06,137.57H98.46Z"/><path class="cls-3" d="M105.5,62h0a7,7,0,0,1,7,7v135.8a0,0,0,0,1,0,0H98.46a0,0,0,0,1,0,0V69a7,7,0,0,1,7-7Z"/><path class="cls-4" d="M112.53,67.25c-5.33-6.92-7.86,129.88-14.07,137.57h14.07Z"/><path class="cls-3" d="M119.56,62h0a7,7,0,0,1,7,7v135.8a0,0,0,0,1,0,0H112.53a0,0,0,0,1,0,0V69a7,7,0,0,1,7-7Z"/><path class="cls-4" d="M126.59,67.25c-5.32-6.92-7.85,129.88-14.06,137.57h14.06Z"/><path class="cls-3" d="M133.63,62h0a7,7,0,0,1,7,7v135.8a0,0,0,0,1,0,0H126.59a0,0,0,0,1,0,0V69a7,7,0,0,1,7-7Z"/><path class="cls-4" d="M140.66,67.25c-5.33-6.92-7.85,129.88-14.07,137.57h14.07Z"/><path class="cls-3" d="M147.69,62h0a7,7,0,0,1,7,7v135.8a0,0,0,0,1,0,0H140.66a0,0,0,0,1,0,0V69A7,7,0,0,1,147.69,62Z"/><path class="cls-4" d="M154.73,67.25c-5.33-6.92-7.86,129.88-14.07,137.57h14.07Z"/><path class="cls-3" d="M161.76,62h0a7,7,0,0,1,7,7v135.8a0,0,0,0,1,0,0H154.73a0,0,0,0,1,0,0V69a7,7,0,0,1,7-7Z"/><path class="cls-4" d="M168.79,67.25c-5.33-6.92-7.85,129.88-14.06,137.57h14.06Z"/><path class="cls-3" d="M175.83,62h0a7,7,0,0,1,7,7v135.8a0,0,0,0,1,0,0H168.79a0,0,0,0,1,0,0V69a7,7,0,0,1,7-7Z"/><path class="cls-4" d="M182.86,67.25c-5.33-6.92-7.85,129.88-14.07,137.57h14.07Z"/><path class="cls-3" d="M189.89,62h0a7,7,0,0,1,7,7v135.8a0,0,0,0,1,0,0H182.86a0,0,0,0,1,0,0V69a7,7,0,0,1,7-7Z"/><path class="cls-4" d="M196.92,67.25c-5.32-6.92-7.85,129.88-14.06,137.57h14.07Z"/><path class="cls-3" d="M204,62h0a7,7,0,0,1,7,7v135.8a0,0,0,0,1,0,0H196.93a0,0,0,0,1,0,0V69a7,7,0,0,1,7-7Z"/><path class="cls-4" d="M211,67.25c-5.33-6.92-7.85,129.88-14.06,137.57H211Z"/><path class="cls-3" d="M218,62h0a7,7,0,0,1,7,7v135.8a0,0,0,0,1,0,0H211a0,0,0,0,1,0,0V69a7,7,0,0,1,7-7Z"/><path class="cls-4" d="M225.06,67.25c-5.33-6.92-7.86,129.88-14.07,137.57h14.07Z"/><path class="cls-3" d="M232.09,62h0a7,7,0,0,1,7,7v135.8a0,0,0,0,1,0,0H225.06a0,0,0,0,1,0,0V69a7,7,0,0,1,7-7Z"/><path class="cls-4" d="M239.12,67.25c-5.32-6.92-7.85,129.88-14.06,137.57h14.06Z"/><path class="cls-3" d="M246.16,62h0a7,7,0,0,1,7,7v135.8a0,0,0,0,1,0,0H239.12a0,0,0,0,1,0,0V69a7,7,0,0,1,7-7Z"/><path class="cls-4" d="M253.19,67.25c-5.33-6.92-7.85,129.88-14.07,137.57h14.07Z"/><path class="cls-3" d="M260.22,62h0a7,7,0,0,1,7,7v135.8a0,0,0,0,1,0,0H253.19a0,0,0,0,1,0,0V69a7,7,0,0,1,7-7Z"/><path class="cls-4" d="M267.26,67.25c-5.33-6.92-7.86,129.88-14.07,137.57h14.07Z"/><path class="cls-3" d="M274.29,62h0a7,7,0,0,1,7,7v135.8a0,0,0,0,1,0,0H267.26a0,0,0,0,1,0,0V69a7,7,0,0,1,7-7Z"/><path class="cls-4" d="M281.32,67.25c-5.33-6.92-7.85,129.88-14.06,137.57h14.06Z"/><path class="cls-3" d="M288.35,62h0a7,7,0,0,1,7,7v135.8a0,0,0,0,1,0,0H281.32a0,0,0,0,1,0,0V69a7,7,0,0,1,7-7Z"/><path class="cls-4" d="M295.39,67.25c-5.33-6.92-7.86,129.88-14.07,137.57h14.07Z"/><path class="cls-3" d="M302.42,62h0a7,7,0,0,1,7,7v135.8a0,0,0,0,1,0,0H295.39a0,0,0,0,1,0,0V69a7,7,0,0,1,7-7Z"/><path class="cls-4" d="M309.45,67.25c-5.32-6.92-7.85,129.88-14.06,137.57h14.06Z"/><path class="cls-3" d="M316.49,62h0a7,7,0,0,1,7,7v135.8a0,0,0,0,1,0,0H309.45a0,0,0,0,1,0,0V69a7,7,0,0,1,7-7Z"/><path class="cls-4" d="M323.52,67.25c-5.33-6.92-7.85,129.88-14.07,137.57h14.07Z"/><path class="cls-3" d="M330.55,62h0a7,7,0,0,1,7,7v135.8a0,0,0,0,1,0,0H323.52a0,0,0,0,1,0,0V69a7,7,0,0,1,7-7Z"/><path class="cls-4" d="M337.59,67.25c-5.33-6.92-7.86,129.88-14.07,137.57h14.07Z"/><path class="cls-3" d="M344.62,62h0a7,7,0,0,1,7,7v135.8a0,0,0,0,1,0,0H337.59a0,0,0,0,1,0,0V69a7,7,0,0,1,7-7Z"/><path class="cls-4" d="M351.65,67.25c-5.33-6.92-7.85,129.88-14.06,137.57h14.06Z"/><path class="cls-3" d="M358.68,62h0a7,7,0,0,1,7,7v135.8a0,0,0,0,1,0,0H351.65a0,0,0,0,1,0,0V69a7,7,0,0,1,7-7Z"/><path class="cls-4" d="M365.72,67.25c-5.33-6.92-7.86,129.88-14.07,137.57h14.07Z"/><path class="cls-3" d="M372.75,62h0a7,7,0,0,1,7,7v135.8a0,0,0,0,1,0,0H365.72a0,0,0,0,1,0,0V69a7,7,0,0,1,7-7Z"/><path class="cls-4" d="M379.78,67.25c-5.32-6.92-7.85,129.88-14.06,137.57h14.06Z"/><path class="cls-3" d="M386.82,62h0a7,7,0,0,1,7,7v135.8a0,0,0,0,1,0,0H379.78a0,0,0,0,1,0,0V69a7,7,0,0,1,7-7Z"/><path class="cls-4" d="M393.85,67.25c-5.33-6.92-7.85,129.88-14.07,137.57h14.07Z"/><path class="cls-3" d="M400.88,62h0a7,7,0,0,1,7,7v135.8a0,0,0,0,1,0,0H393.85a0,0,0,0,1,0,0V69a7,7,0,0,1,7-7Z"/><path class="cls-4" d="M407.92,67.25c-5.33-6.92-7.86,129.88-14.07,137.57h14.07Z"/><path class="cls-3" d="M414.95,62h0a7,7,0,0,1,7,7v135.8a0,0,0,0,1,0,0H407.92a0,0,0,0,1,0,0V69a7,7,0,0,1,7-7Z"/><path class="cls-4" d="M422,67.25c-5.33-6.92-7.85,129.88-14.06,137.57H422Z"/><path class="cls-3" d="M429,62h0a7,7,0,0,1,7,7v135.8a0,0,0,0,1,0,0H422a0,0,0,0,1,0,0V69a7,7,0,0,1,7-7Z"/><path class="cls-4" d="M436.05,67.25c-5.33-6.92-7.86,129.88-14.07,137.57h14.07Z"/><path class="cls-3" d="M443.08,62h0a7,7,0,0,1,7,7v135.8a0,0,0,0,1,0,0H436a0,0,0,0,1,0,0V69a7,7,0,0,1,7-7Z"/><path class="cls-4" d="M450.11,67.25c-5.32-6.92-7.85,129.88-14.06,137.57h14.06Z"/><path class="cls-3" d="M457.15,62h0a7,7,0,0,1,7,7v135.8a0,0,0,0,1,0,0H450.11a0,0,0,0,1,0,0V69a7,7,0,0,1,7-7Z"/><path class="cls-4" d="M464.18,67.25c-5.33-6.92-7.85,129.88-14.07,137.57h14.07Z"/><path class="cls-3" d="M471.21,62h0a7,7,0,0,1,7,7v135.8a0,0,0,0,1,0,0H464.18a0,0,0,0,1,0,0V69a7,7,0,0,1,7-7Z"/><path class="cls-4" d="M478.25,67.25c-5.33-6.92-7.86,129.88-14.07,137.57h14.07Z"/><path class="cls-3" d="M485.28,62h0a7,7,0,0,1,7,7v135.8a0,0,0,0,1,0,0H478.25a0,0,0,0,1,0,0V69a7,7,0,0,1,7-7Z"/><path class="cls-4" d="M492.31,67.25c-5.33-6.92-7.85,129.88-14.06,137.57h14.06Z"/><path class="cls-3" d="M499.35,62h0a7,7,0,0,1,7,7v135.8a0,0,0,0,1,0,0H492.31a0,0,0,0,1,0,0V69a7,7,0,0,1,7-7Z"/><path class="cls-4" d="M506.38,67.25c-5.33-6.92-7.86,129.88-14.07,137.57h14.07Z"/><path class="cls-3" d="M513.41,62h0a7,7,0,0,1,7,7v135.8a0,0,0,0,1,0,0H506.38a0,0,0,0,1,0,0V69a7,7,0,0,1,7-7Z"/><path class="cls-4" d="M520.44,67.25c-5.32-6.92-7.85,129.88-14.06,137.57h14.06Z"/><path class="cls-3" d="M527.48,62h0a7,7,0,0,1,7,7v135.8a0,0,0,0,1,0,0H520.44a0,0,0,0,1,0,0V69a7,7,0,0,1,7-7Z"/><path class="cls-4" d="M534.51,67.25c-5.33-6.92-7.85,129.88-14.07,137.57h14.07Z"/><path class="cls-3" d="M541.54,62h0a7,7,0,0,1,7,7v135.8a0,0,0,0,1,0,0H534.51a0,0,0,0,1,0,0V69a7,7,0,0,1,7-7Z"/><path class="cls-4" d="M548.58,67.25c-5.33-6.92-7.86,129.88-14.07,137.57h14.07Z"/><path class="cls-3" d="M555.61,62h0a7,7,0,0,1,7,7v135.8a0,0,0,0,1,0,0H548.58a0,0,0,0,1,0,0V69a7,7,0,0,1,7-7Z"/><path class="cls-4" d="M562.64,67.25c-5.33-6.92-7.85,129.88-14.06,137.57h14.06Z"/><path class="cls-3" d="M569.68,62h0a7,7,0,0,1,7,7v135.8a0,0,0,0,1,0,0H562.64a0,0,0,0,1,0,0V69a7,7,0,0,1,7-7Z"/><path class="cls-4" d="M576.71,67.25c-5.33-6.92-7.85,129.88-14.07,137.57h14.07Z"/><path class="cls-3" d="M583.74,62h0a7,7,0,0,1,7,7v135.8a0,0,0,0,1,0,0H576.71a0,0,0,0,1,0,0V69a7,7,0,0,1,7-7Z"/><path class="cls-4" d="M590.77,67.25c-5.32-6.92-7.85,129.88-14.06,137.57h14.07Z"/><path class="cls-3" d="M597.81,62h0a7,7,0,0,1,7,7v135.8a0,0,0,0,1,0,0H590.78a0,0,0,0,1,0,0V69a7,7,0,0,1,7-7Z"/><path class="cls-4" d="M604.84,67.25c-5.33-6.92-7.85,129.88-14.06,137.57h14.06Z"/><path class="cls-3" d="M611.87,62h0a7,7,0,0,1,7,7v135.8a0,0,0,0,1,0,0H604.84a0,0,0,0,1,0,0V69a7,7,0,0,1,7-7Z"/><path class="cls-4" d="M618.91,67.25c-5.33-6.92-7.86,129.88-14.07,137.57h14.07Z"/><path class="cls-3" d="M625.94,62h0a7,7,0,0,1,7,7v135.8a0,0,0,0,1,0,0H618.91a0,0,0,0,1,0,0V69a7,7,0,0,1,7-7Z"/><path class="cls-4" d="M633,67.25c-5.32-6.92-7.85,129.88-14.06,137.57H633Z"/><path class="cls-3" d="M640,62h0a7,7,0,0,1,7,7v135.8a0,0,0,0,1,0,0H633a0,0,0,0,1,0,0V69a7,7,0,0,1,7-7Z"/><path class="cls-4" d="M647,67.25c-5.33-6.92-7.85,129.88-14.07,137.57H647Z"/><path class="cls-3" d="M654.07,62h0a7,7,0,0,1,7,7v135.8a0,0,0,0,1,0,0H647a0,0,0,0,1,0,0V69a7,7,0,0,1,7-7Z"/><path class="cls-4" d="M661.11,67.25c-5.33-6.92-7.86,129.88-14.07,137.57h14.07Z"/><path class="cls-3" d="M668.14,62h0a7,7,0,0,1,7,7v135.8a0,0,0,0,1,0,0H661.11a0,0,0,0,1,0,0V69a7,7,0,0,1,7-7Z"/><path class="cls-4" d="M675.17,67.25c-5.33-6.92-7.85,129.88-14.06,137.57h14.06Z"/><rect class="cls-5" x="38.36" y="214.77" width="204.89" height="59.72"/><rect class="cls-3" x="49.04" y="224.36" width="179.67" height="3.16"/><rect class="cls-3" x="49.04" y="234.19" width="179.67" height="3.16"/><rect class="cls-3" x="49.04" y="247.74" width="179.67" height="3.16"/><rect class="cls-3" x="49.04" y="261.29" width="179.67" height="3.16"/><rect class="cls-6" x="38.36" y="274.49" width="204.89" height="16.67"/><path class="cls-7" d="M220.59,264.94s-4.54-40.15,32.47-50.27"/><path class="cls-2" d="M192.35,212.38s37.3,15.53,28.18,52.8"/><path class="cls-2" d="M221.61,249.12s-4.54-40.15,32.47-50.28"/><path class="cls-7" d="M193.46,196.32s37.3,15.53,28.18,52.8"/><path class="cls-7" d="M60.68,248.87s-4.54-40.15,32.47-50.28"/><path class="cls-2" d="M32.43,196.3s37.3,15.53,28.18,52.8"/><path class="cls-2" d="M61.69,233s-4.53-40.15,32.47-50.28"/><path class="cls-7" d="M33.54,180.24s37.3,15.53,28.18,52.8"/><ellipse class="cls-2" cx="307.71" cy="286.84" rx="29.37" ry="5.26"/><ellipse class="cls-8" cx="303.66" cy="230.31" rx="29.37" ry="5.26"/><circle class="cls-9" cx="301.29" cy="229.95" r="8.06"/><circle class="cls-9" cx="314.55" cy="212.66" r="8.06"/><path class="cls-9" d="M306.2,223.55s-1.75-3.81,3.44-4.49"/><path class="cls-9" d="M319.45,206.26l1.16-8.3a2.86,2.86,0,0,1,4.56-1.87h0"/><path class="cls-9" d="M296.39,236.35l-7.71,3.27a2.85,2.85,0,0,0-.62,4.89h0"/><polygon class="cls-10" points="326 285.17 283.8 285.17 274.29 230.31 333.04 230.31 326 285.17"/><ellipse class="cls-10" cx="304.9" cy="285.17" rx="21.1" ry="3.59"/><path class="cls-11" d="M276.15,231.51s15.75,50.94,43.44,53.39"/><path class="cls-12" d="M274.29,230.31s6.61,30.75,30.61,30.75S333,230.31,333,230.31"/><ellipse class="cls-13" cx="545.06" cy="267.59" rx="109.01" ry="16.28"/><ellipse class="cls-14" cx="504.49" cy="267.59" rx="68.44" ry="10.22"/><ellipse class="cls-14" cx="611.87" cy="267.59" rx="26.29" ry="3.93"/><path class="cls-15" d="M646.71,196.45s5,13.1,2,23.44"/><path class="cls-16" d="M646.85,196.45l-2.72-5.93a2.28,2.28,0,0,1,.76-2.82,2.92,2.92,0,0,1,3.78.05,2.26,2.26,0,0,1,.66,2.61Z"/><path class="cls-16" d="M646.85,196.45l2.27-6.12a2.27,2.27,0,0,1,2.53-1.45,2.93,2.93,0,0,1,2.65,2.7,2.26,2.26,0,0,1-1.39,2.31Z"/><path class="cls-16" d="M646.85,196.45l5.93-2.72a2.28,2.28,0,0,1,2.82.76,2.92,2.92,0,0,1,0,3.78,2.24,2.24,0,0,1-2.61.65Z"/><path class="cls-16" d="M646.85,196.45l6.12,2.27a2.29,2.29,0,0,1,1.46,2.53,2.93,2.93,0,0,1-2.71,2.64,2.27,2.27,0,0,1-2.31-1.38Z"/><path class="cls-16" d="M646.85,196.45l2.73,5.93a2.28,2.28,0,0,1-.76,2.82,2.93,2.93,0,0,1-3.79,0,2.28,2.28,0,0,1-.65-2.62Z"/><path class="cls-16" d="M646.85,196.45l-2.26,6.12a2.29,2.29,0,0,1-2.54,1.46,2.94,2.94,0,0,1-2.64-2.71A2.26,2.26,0,0,1,640.8,199Z"/><path class="cls-16" d="M646.85,196.45l-5.92,2.72a2.28,2.28,0,0,1-2.83-.76,2.93,2.93,0,0,1,0-3.78,2.27,2.27,0,0,1,2.61-.65Z"/><path class="cls-16" d="M646.85,196.45l-6.11-2.26a2.29,2.29,0,0,1-1.46-2.54A2.92,2.92,0,0,1,642,189a2.25,2.25,0,0,1,2.31,1.38Z"/><circle class="cls-17" cx="647" cy="196.31" r="2.5"/><path class="cls-18" d="M649.7,218.73c-.12-.34-2.2-8.61,6.95-11.83,0,0-.58,12.17-6.95,11.83"/><path class="cls-15" d="M274,271.76s5,13.1,2,23.44"/><path class="cls-16" d="M274.1,271.76l-2.72-5.93a2.28,2.28,0,0,1,.76-2.82,2.92,2.92,0,0,1,3.78.05,2.26,2.26,0,0,1,.66,2.61Z"/><path class="cls-16" d="M274.1,271.76l2.27-6.12a2.27,2.27,0,0,1,2.53-1.45,2.93,2.93,0,0,1,2.65,2.7,2.28,2.28,0,0,1-1.39,2.31Z"/><path class="cls-16" d="M274.1,271.76,280,269a2.28,2.28,0,0,1,2.82.76,2.92,2.92,0,0,1,0,3.78,2.24,2.24,0,0,1-2.61.65Z"/><path class="cls-16" d="M274.1,271.76l6.12,2.27a2.29,2.29,0,0,1,1.46,2.53A2.93,2.93,0,0,1,279,279.2a2.27,2.27,0,0,1-2.31-1.38Z"/><path class="cls-16" d="M274.1,271.76l2.73,5.93a2.28,2.28,0,0,1-.76,2.82,2.93,2.93,0,0,1-3.79,0,2.27,2.27,0,0,1-.65-2.61Z"/><path class="cls-16" d="M274.1,271.76l-2.26,6.12a2.3,2.3,0,0,1-2.54,1.46,2.93,2.93,0,0,1-2.64-2.71,2.26,2.26,0,0,1,1.39-2.31Z"/><path class="cls-16" d="M274.1,271.76l-5.93,2.73a2.27,2.27,0,0,1-2.82-.77,2.93,2.93,0,0,1,0-3.78,2.27,2.27,0,0,1,2.61-.65Z"/><path class="cls-16" d="M274.1,271.76,268,269.5a2.29,2.29,0,0,1-1.45-2.54,2.92,2.92,0,0,1,2.7-2.64,2.25,2.25,0,0,1,2.31,1.38Z"/><circle class="cls-17" cx="274.25" cy="271.62" r="2.5"/><path class="cls-18" d="M277,294c-.12-.34-2.2-8.61,6.95-11.83,0,0-.58,12.17-6.95,11.83"/><circle class="cls-19" cx="33.46" cy="26.8" r="24.5"/><path class="cls-20" d="M39.9,26V41.32a.78.78,0,0,1-.47.84.8.8,0,0,1-.82-.21l-7.12-5.52c-1-.74-1.92-1.5-2.89-2.24a1,1,0,0,0-.55-.18h-8.8c-.78,0-1-.22-1-1V18.93c0-.8.21-1,1-1,2.92,0,5.83,0,8.75,0a1.08,1.08,0,0,0,.62-.21L38.6,10a.81.81,0,0,1,.89-.18c.35.15.41.46.41.81Z"/><path class="cls-20" d="M42.86,34.34c0-.62,0-1.21,0-1.81,0-.09.19-.21.31-.25A6.5,6.5,0,0,0,47.3,29a6.57,6.57,0,0,0-4.06-9.41c-.3-.08-.41-.2-.39-.51,0-.52,0-1,0-1.57a8.52,8.52,0,0,1,0,16.83Z"/><path class="cls-20" d="M42.86,31.4c0-.72,0-1.4,0-2.08,0-.09.11-.2.2-.27a3.46,3.46,0,0,0,0-5.54.49.49,0,0,1-.18-.28c0-.67,0-1.34,0-2,1.58.21,3.33,2.46,3.54,4.54A5.47,5.47,0,0,1,42.86,31.4Z"/><circle class="cls-19" cx="145.31" cy="298.42" r="24.5"/><path class="cls-20" d="M151.74,297.61v15.33a.76.76,0,0,1-.47.83.79.79,0,0,1-.82-.2l-7.12-5.52c-1-.75-1.92-1.5-2.89-2.24a1,1,0,0,0-.55-.18H131.1c-.78,0-1-.22-1-1V290.55c0-.8.21-1,1-1h8.76a1,1,0,0,0,.61-.21l10-7.73a.81.81,0,0,1,.89-.18c.35.15.41.45.41.8Z"/><path class="cls-20" d="M154.7,306c0-.62,0-1.22,0-1.81,0-.09.18-.21.31-.25a6.58,6.58,0,0,0,.05-12.69c-.3-.09-.4-.2-.39-.51,0-.52,0-1,0-1.57a8.52,8.52,0,0,1,0,16.83Z"/><path class="cls-20" d="M154.7,303c0-.72,0-1.4,0-2.08,0-.09.12-.2.2-.27a3.45,3.45,0,0,0,0-5.54.49.49,0,0,1-.18-.28c0-.67,0-1.34,0-2,1.59.21,3.33,2.46,3.55,4.54A5.48,5.48,0,0,1,154.7,303Z"/><circle class="cls-19" cx="318.93" cy="302.68" r="24.5"/><path class="cls-20" d="M325.36,301.87q0,7.67,0,15.33a.77.77,0,0,1-.47.83.81.81,0,0,1-.83-.2L317,312.31c-1-.75-1.92-1.5-2.9-2.24a1,1,0,0,0-.55-.18h-8.79c-.78,0-1-.22-1-1V294.81c0-.8.21-1,1-1h8.76a1,1,0,0,0,.61-.21q5-3.85,10-7.73a.82.82,0,0,1,.9-.18.76.76,0,0,1,.41.8Q325.36,294.18,325.36,301.87Z"/><path class="cls-20" d="M328.32,310.22c0-.62,0-1.22,0-1.81,0-.09.19-.21.31-.25a6.45,6.45,0,0,0,4.11-3.28,6.56,6.56,0,0,0-4.06-9.41c-.3-.08-.4-.2-.39-.51,0-.52,0-1,0-1.57a8.52,8.52,0,0,1,0,16.83Z"/><path class="cls-20" d="M328.33,307.28c0-.72,0-1.4,0-2.08,0-.09.11-.2.19-.27a3.45,3.45,0,0,0,0-5.54.49.49,0,0,1-.18-.28c0-.67,0-1.34,0-2,1.59.21,3.33,2.46,3.55,4.54A5.49,5.49,0,0,1,328.33,307.28Z"/><circle class="cls-19" cx="564.98" cy="301.62" r="24.5"/><path class="cls-20" d="M571.42,300.81c0,5.1,0,10.21,0,15.32a.78.78,0,0,1-.47.84.83.83,0,0,1-.83-.2L563,311.25c-1-.75-1.92-1.51-2.89-2.24a1,1,0,0,0-.56-.18h-8.79c-.78,0-1-.22-1-1V293.74c0-.79.21-1,1-1h8.75a1.18,1.18,0,0,0,.61-.21q5-3.86,10-7.74a.83.83,0,0,1,.89-.18.78.78,0,0,1,.41.81C571.41,290.54,571.42,295.67,571.42,300.81Z"/><path class="cls-20" d="M574.38,309.16c0-.62,0-1.22,0-1.82,0-.09.19-.21.31-.24a6.58,6.58,0,0,0,.06-12.7c-.3-.08-.41-.2-.39-.5,0-.53,0-1,0-1.57a8.52,8.52,0,0,1,0,16.83Z"/><path class="cls-20" d="M574.38,306.21c0-.72,0-1.4,0-2.07,0-.1.11-.2.2-.27a3.47,3.47,0,0,0,0-5.55.42.42,0,0,1-.18-.28c0-.67,0-1.33,0-2,1.58.2,3.33,2.45,3.54,4.54A5.46,5.46,0,0,1,574.38,306.21Z"/><circle class="cls-19" cx="657.75" cy="188.64" r="24.5"/><path class="cls-20" d="M664.18,187.83q0,7.66,0,15.32c0,.39-.09.7-.47.84a.81.81,0,0,1-.83-.2l-7.11-5.52c-1-.75-1.92-1.5-2.9-2.24a1,1,0,0,0-.55-.18h-8.79c-.78,0-1-.22-1-1q0-7,0-14.07c0-.8.2-1,1-1h8.76a1,1,0,0,0,.61-.21c3.34-2.57,6.66-5.15,10-7.73a.81.81,0,0,1,.89-.18.76.76,0,0,1,.41.8Q664.18,180.14,664.18,187.83Z"/><path class="cls-20" d="M667.15,196.18c0-.62,0-1.22,0-1.81,0-.09.19-.21.31-.25a6.48,6.48,0,0,0,4.11-3.28,6.56,6.56,0,0,0-4.06-9.41c-.29-.09-.4-.2-.38-.51,0-.52,0-1,0-1.57a8.52,8.52,0,0,1,0,16.83Z"/><path class="cls-20" d="M667.15,193.24c0-.72,0-1.4,0-2.08,0-.09.11-.2.2-.27a3.46,3.46,0,0,0,0-5.54.51.51,0,0,1-.19-.28c0-.67,0-1.34,0-2,1.58.21,3.33,2.46,3.54,4.54A5.49,5.49,0,0,1,667.15,193.24Z"/><circle class="cls-19" cx="33.79" cy="26.38" r="26.38"/><text class="cls-21" transform="translate(24.75 32.34)">1.</text><circle class="cls-19" cx="143.79" cy="297.38" r="26.38"/><text class="cls-21" transform="translate(134.75 303.34)">2.</text><circle class="cls-19" cx="317.79" cy="300.38" r="26.38"/><text class="cls-21" transform="translate(308.75 306.34)">3.</text><circle class="cls-19" cx="565.79" cy="302.38" r="26.38"/><text class="cls-21" transform="translate(556.75 308.34)">4.</text><circle class="cls-19" cx="657.79" cy="187.38" r="26.38"/><text class="cls-21" transform="translate(648.75 193.34)">5.</text></g></g></svg>