<svg xmlns="http://www.w3.org/2000/svg" viewBox="0 0 675.17 274.22"><defs><style>.cls-1{fill:#009848;}.cls-2{fill:#006834;}.cls-3{fill:#9f6138;}.cls-4{fill:#87451e;}.cls-5{fill:#623d16;}.cls-6{fill:#e2cf91;}.cls-7{fill:#3eb871;}.cls-8{fill:#4d4d4a;}.cls-12,.cls-15,.cls-19,.cls-9{fill:none;stroke-miterlimit:10;}.cls-9{stroke:#ffffec;stroke-width:0.87px;}.cls-10{fill:#bcbec0;}.cls-11{fill:#fff;opacity:0.32;}.cls-12{stroke:#a6a8ab;stroke-width:1.94px;}.cls-13{fill:#85bde1;}.cls-14{fill:#a0cae7;}.cls-15{stroke:#3eb871;stroke-width:1.06px;}.cls-16{fill:#ffd64b;}.cls-17{fill:#fffded;}.cls-18{fill:#008747;}.cls-19{stroke:#5a3b34;stroke-width:1.34px;}</style></defs><title>Asset 6</title><g id="Layer_2" data-name="Layer 2"><g id="Glavno_Besedilo" data-name="Glavno Besedilo"><rect class="cls-1" y="165.88" width="675.17" height="108.35"/><ellipse class="cls-2" cx="550.61" cy="228.56" rx="114.57" ry="19.34"/><path class="cls-3" d="M7,23H7a7,7,0,0,1,7,7v135.8a0,0,0,0,1,0,0H0a0,0,0,0,1,0,0V30.08a7,7,0,0,1,7-7Z"/><path class="cls-4" d="M14.07,28.3C8.74,21.39,6.21,158.18,0,165.88H14.07Z"/><path class="cls-3" d="M21.1,23h0a7,7,0,0,1,7,7v135.8a0,0,0,0,1,0,0H14.07a0,0,0,0,1,0,0V30.08A7,7,0,0,1,21.1,23Z"/><path class="cls-4" d="M28.13,28.3c-5.33-6.91-7.85,129.88-14.06,137.58H28.13Z"/><path class="cls-3" d="M35.17,23h0a7,7,0,0,1,7,7v135.8a0,0,0,0,1,0,0H28.13a0,0,0,0,1,0,0V30.08a7,7,0,0,1,7-7Z"/><path class="cls-4" d="M42.2,28.3c-5.33-6.91-7.86,129.88-14.07,137.58H42.2Z"/><path class="cls-3" d="M49.23,23h0a7,7,0,0,1,7,7v135.8a0,0,0,0,1,0,0H42.2a0,0,0,0,1,0,0V30.08a7,7,0,0,1,7-7Z"/><path class="cls-4" d="M56.26,28.3c-5.32-6.91-7.85,129.88-14.06,137.58H56.26Z"/><path class="cls-3" d="M63.3,23h0a7,7,0,0,1,7,7v135.8a0,0,0,0,1,0,0H56.26a0,0,0,0,1,0,0V30.08a7,7,0,0,1,7-7Z"/><path class="cls-4" d="M70.33,28.3C65,21.39,62.48,158.18,56.26,165.88H70.33Z"/><path class="cls-3" d="M77.36,23h0a7,7,0,0,1,7,7v135.8a0,0,0,0,1,0,0H70.33a0,0,0,0,1,0,0V30.08a7,7,0,0,1,7-7Z"/><path class="cls-4" d="M84.4,28.3c-5.33-6.91-7.86,129.88-14.07,137.58H84.4Z"/><path class="cls-3" d="M91.43,23h0a7,7,0,0,1,7,7v135.8a0,0,0,0,1,0,0H84.4a0,0,0,0,1,0,0V30.08a7,7,0,0,1,7-7Z"/><path class="cls-4" d="M98.46,28.3c-5.33-6.91-7.85,129.88-14.06,137.58H98.46Z"/><path class="cls-3" d="M105.5,23h0a7,7,0,0,1,7,7v135.8a0,0,0,0,1,0,0H98.46a0,0,0,0,1,0,0V30.08a7,7,0,0,1,7-7Z"/><path class="cls-4" d="M112.53,28.3c-5.33-6.91-7.86,129.88-14.07,137.58h14.07Z"/><path class="cls-3" d="M119.56,23h0a7,7,0,0,1,7,7v135.8a0,0,0,0,1,0,0H112.53a0,0,0,0,1,0,0V30.08a7,7,0,0,1,7-7Z"/><path class="cls-4" d="M126.59,28.3c-5.32-6.91-7.85,129.88-14.06,137.58h14.06Z"/><path class="cls-3" d="M133.63,23h0a7,7,0,0,1,7,7v135.8a0,0,0,0,1,0,0H126.59a0,0,0,0,1,0,0V30.08a7,7,0,0,1,7-7Z"/><path class="cls-4" d="M140.66,28.3c-5.33-6.91-7.85,129.88-14.07,137.58h14.07Z"/><path class="cls-3" d="M147.69,23h0a7,7,0,0,1,7,7v135.8a0,0,0,0,1,0,0H140.66a0,0,0,0,1,0,0V30.08a7,7,0,0,1,7-7Z"/><path class="cls-4" d="M154.73,28.3c-5.33-6.91-7.86,129.88-14.07,137.58h14.07Z"/><path class="cls-3" d="M161.76,23h0a7,7,0,0,1,7,7v135.8a0,0,0,0,1,0,0H154.73a0,0,0,0,1,0,0V30.08a7,7,0,0,1,7-7Z"/><path class="cls-4" d="M168.79,28.3c-5.33-6.91-7.85,129.88-14.06,137.58h14.06Z"/><path class="cls-3" d="M175.83,23h0a7,7,0,0,1,7,7v135.8a0,0,0,0,1,0,0H168.79a0,0,0,0,1,0,0V30.08a7,7,0,0,1,7-7Z"/><path class="cls-4" d="M182.86,28.3c-5.33-6.91-7.85,129.88-14.07,137.58h14.07Z"/><path class="cls-3" d="M189.89,23h0a7,7,0,0,1,7,7v135.8a0,0,0,0,1,0,0H182.86a0,0,0,0,1,0,0V30.08a7,7,0,0,1,7-7Z"/><path class="cls-4" d="M196.92,28.3c-5.32-6.91-7.85,129.88-14.06,137.58h14.07Z"/><path class="cls-3" d="M204,23h0a7,7,0,0,1,7,7v135.8a0,0,0,0,1,0,0H196.93a0,0,0,0,1,0,0V30.08a7,7,0,0,1,7-7Z"/><path class="cls-4" d="M211,28.3c-5.33-6.91-7.85,129.88-14.06,137.58H211Z"/><path class="cls-3" d="M218,23h0a7,7,0,0,1,7,7v135.8a0,0,0,0,1,0,0H211a0,0,0,0,1,0,0V30.08a7,7,0,0,1,7-7Z"/><path class="cls-4" d="M225.06,28.3c-5.33-6.91-7.86,129.88-14.07,137.58h14.07Z"/><path class="cls-3" d="M232.09,23h0a7,7,0,0,1,7,7v135.8a0,0,0,0,1,0,0H225.06a0,0,0,0,1,0,0V30.08a7,7,0,0,1,7-7Z"/><path class="cls-4" d="M239.12,28.3c-5.32-6.91-7.85,129.88-14.06,137.58h14.06Z"/><path class="cls-3" d="M246.16,23h0a7,7,0,0,1,7,7v135.8a0,0,0,0,1,0,0H239.12a0,0,0,0,1,0,0V30.08A7,7,0,0,1,246.16,23Z"/><path class="cls-4" d="M253.19,28.3c-5.33-6.91-7.85,129.88-14.07,137.58h14.07Z"/><path class="cls-3" d="M260.22,23h0a7,7,0,0,1,7,7v135.8a0,0,0,0,1,0,0H253.19a0,0,0,0,1,0,0V30.08a7,7,0,0,1,7-7Z"/><path class="cls-4" d="M267.26,28.3c-5.33-6.91-7.86,129.88-14.07,137.58h14.07Z"/><path class="cls-3" d="M274.29,23h0a7,7,0,0,1,7,7v135.8a0,0,0,0,1,0,0H267.26a0,0,0,0,1,0,0V30.08a7,7,0,0,1,7-7Z"/><path class="cls-4" d="M281.32,28.3c-5.33-6.91-7.85,129.88-14.06,137.58h14.06Z"/><path class="cls-3" d="M288.35,23h0a7,7,0,0,1,7,7v135.8a0,0,0,0,1,0,0H281.32a0,0,0,0,1,0,0V30.08a7,7,0,0,1,7-7Z"/><path class="cls-4" d="M295.39,28.3c-5.33-6.91-7.86,129.88-14.07,137.58h14.07Z"/><path class="cls-3" d="M302.42,23h0a7,7,0,0,1,7,7v135.8a0,0,0,0,1,0,0H295.39a0,0,0,0,1,0,0V30.08a7,7,0,0,1,7-7Z"/><path class="cls-4" d="M309.45,28.3c-5.32-6.91-7.85,129.88-14.06,137.58h14.06Z"/><path class="cls-3" d="M316.49,23h0a7,7,0,0,1,7,7v135.8a0,0,0,0,1,0,0H309.45a0,0,0,0,1,0,0V30.08a7,7,0,0,1,7-7Z"/><path class="cls-4" d="M323.52,28.3c-5.33-6.91-7.85,129.88-14.07,137.58h14.07Z"/><path class="cls-3" d="M330.55,23h0a7,7,0,0,1,7,7v135.8a0,0,0,0,1,0,0H323.52a0,0,0,0,1,0,0V30.08a7,7,0,0,1,7-7Z"/><path class="cls-4" d="M337.59,28.3c-5.33-6.91-7.86,129.88-14.07,137.58h14.07Z"/><path class="cls-3" d="M344.62,23h0a7,7,0,0,1,7,7v135.8a0,0,0,0,1,0,0H337.59a0,0,0,0,1,0,0V30.08a7,7,0,0,1,7-7Z"/><path class="cls-4" d="M351.65,28.3c-5.33-6.91-7.85,129.88-14.06,137.58h14.06Z"/><path class="cls-3" d="M358.68,23h0a7,7,0,0,1,7,7v135.8a0,0,0,0,1,0,0H351.65a0,0,0,0,1,0,0V30.08a7,7,0,0,1,7-7Z"/><path class="cls-4" d="M365.72,28.3c-5.33-6.91-7.86,129.88-14.07,137.58h14.07Z"/><path class="cls-3" d="M372.75,23h0a7,7,0,0,1,7,7v135.8a0,0,0,0,1,0,0H365.72a0,0,0,0,1,0,0V30.08a7,7,0,0,1,7-7Z"/><path class="cls-4" d="M379.78,28.3c-5.32-6.91-7.85,129.88-14.06,137.58h14.06Z"/><path class="cls-3" d="M386.82,23h0a7,7,0,0,1,7,7v135.8a0,0,0,0,1,0,0H379.78a0,0,0,0,1,0,0V30.08a7,7,0,0,1,7-7Z"/><path class="cls-4" d="M393.85,28.3c-5.33-6.91-7.85,129.88-14.07,137.58h14.07Z"/><path class="cls-3" d="M400.88,23h0a7,7,0,0,1,7,7v135.8a0,0,0,0,1,0,0H393.85a0,0,0,0,1,0,0V30.08A7,7,0,0,1,400.88,23Z"/><path class="cls-4" d="M407.92,28.3c-5.33-6.91-7.86,129.88-14.07,137.58h14.07Z"/><path class="cls-3" d="M414.95,23h0a7,7,0,0,1,7,7v135.8a0,0,0,0,1,0,0H407.92a0,0,0,0,1,0,0V30.08a7,7,0,0,1,7-7Z"/><path class="cls-4" d="M422,28.3c-5.33-6.91-7.85,129.88-14.06,137.58H422Z"/><path class="cls-3" d="M429,23h0a7,7,0,0,1,7,7v135.8a0,0,0,0,1,0,0H422a0,0,0,0,1,0,0V30.08a7,7,0,0,1,7-7Z"/><path class="cls-4" d="M436.05,28.3c-5.33-6.91-7.86,129.88-14.07,137.58h14.07Z"/><path class="cls-3" d="M443.08,23h0a7,7,0,0,1,7,7v135.8a0,0,0,0,1,0,0H436a0,0,0,0,1,0,0V30.08a7,7,0,0,1,7-7Z"/><path class="cls-4" d="M450.11,28.3c-5.32-6.91-7.85,129.88-14.06,137.58h14.06Z"/><path class="cls-3" d="M457.15,23h0a7,7,0,0,1,7,7v135.8a0,0,0,0,1,0,0H450.11a0,0,0,0,1,0,0V30.08a7,7,0,0,1,7-7Z"/><path class="cls-4" d="M464.18,28.3c-5.33-6.91-7.85,129.88-14.07,137.58h14.07Z"/><path class="cls-3" d="M471.21,23h0a7,7,0,0,1,7,7v135.8a0,0,0,0,1,0,0H464.18a0,0,0,0,1,0,0V30.08a7,7,0,0,1,7-7Z"/><path class="cls-4" d="M478.25,28.3c-5.33-6.91-7.86,129.88-14.07,137.58h14.07Z"/><path class="cls-3" d="M485.28,23h0a7,7,0,0,1,7,7v135.8a0,0,0,0,1,0,0H478.25a0,0,0,0,1,0,0V30.08a7,7,0,0,1,7-7Z"/><path class="cls-4" d="M492.31,28.3c-5.33-6.91-7.85,129.88-14.06,137.58h14.06Z"/><path class="cls-3" d="M499.35,23h0a7,7,0,0,1,7,7v135.8a0,0,0,0,1,0,0H492.31a0,0,0,0,1,0,0V30.08a7,7,0,0,1,7-7Z"/><path class="cls-4" d="M506.38,28.3c-5.33-6.91-7.86,129.88-14.07,137.58h14.07Z"/><path class="cls-3" d="M513.41,23h0a7,7,0,0,1,7,7v135.8a0,0,0,0,1,0,0H506.38a0,0,0,0,1,0,0V30.08a7,7,0,0,1,7-7Z"/><path class="cls-4" d="M520.44,28.3c-5.32-6.91-7.85,129.88-14.06,137.58h14.06Z"/><path class="cls-3" d="M527.48,23h0a7,7,0,0,1,7,7v135.8a0,0,0,0,1,0,0H520.44a0,0,0,0,1,0,0V30.08a7,7,0,0,1,7-7Z"/><path class="cls-4" d="M534.51,28.3c-5.33-6.91-7.85,129.88-14.07,137.58h14.07Z"/><path class="cls-3" d="M541.54,23h0a7,7,0,0,1,7,7v135.8a0,0,0,0,1,0,0H534.51a0,0,0,0,1,0,0V30.08A7,7,0,0,1,541.54,23Z"/><path class="cls-4" d="M548.58,28.3c-5.33-6.91-7.86,129.88-14.07,137.58h14.07Z"/><path class="cls-3" d="M555.61,23h0a7,7,0,0,1,7,7v135.8a0,0,0,0,1,0,0H548.58a0,0,0,0,1,0,0V30.08a7,7,0,0,1,7-7Z"/><path class="cls-4" d="M562.64,28.3c-5.33-6.91-7.85,129.88-14.06,137.58h14.06Z"/><path class="cls-3" d="M569.68,23h0a7,7,0,0,1,7,7v135.8a0,0,0,0,1,0,0H562.64a0,0,0,0,1,0,0V30.08a7,7,0,0,1,7-7Z"/><path class="cls-4" d="M576.71,28.3c-5.33-6.91-7.85,129.88-14.07,137.58h14.07Z"/><path class="cls-3" d="M583.74,23h0a7,7,0,0,1,7,7v135.8a0,0,0,0,1,0,0H576.71a0,0,0,0,1,0,0V30.08a7,7,0,0,1,7-7Z"/><path class="cls-4" d="M590.77,28.3c-5.32-6.91-7.85,129.88-14.06,137.58h14.07Z"/><path class="cls-3" d="M597.81,23h0a7,7,0,0,1,7,7v135.8a0,0,0,0,1,0,0H590.78a0,0,0,0,1,0,0V30.08a7,7,0,0,1,7-7Z"/><path class="cls-4" d="M604.84,28.3c-5.33-6.91-7.85,129.88-14.06,137.58h14.06Z"/><path class="cls-3" d="M611.87,23h0a7,7,0,0,1,7,7v135.8a0,0,0,0,1,0,0H604.84a0,0,0,0,1,0,0V30.08a7,7,0,0,1,7-7Z"/><path class="cls-4" d="M618.91,28.3c-5.33-6.91-7.86,129.88-14.07,137.58h14.07Z"/><path class="cls-3" d="M625.94,23h0a7,7,0,0,1,7,7v135.8a0,0,0,0,1,0,0H618.91a0,0,0,0,1,0,0V30.08a7,7,0,0,1,7-7Z"/><path class="cls-4" d="M633,28.3c-5.32-6.91-7.85,129.88-14.06,137.58H633Z"/><path class="cls-3" d="M640,23h0a7,7,0,0,1,7,7v135.8a0,0,0,0,1,0,0H633a0,0,0,0,1,0,0V30.08A7,7,0,0,1,640,23Z"/><path class="cls-4" d="M647,28.3c-5.33-6.91-7.85,129.88-14.07,137.58H647Z"/><path class="cls-3" d="M654.07,23h0a7,7,0,0,1,7,7v135.8a0,0,0,0,1,0,0H647a0,0,0,0,1,0,0V30.08a7,7,0,0,1,7-7Z"/><path class="cls-4" d="M661.11,28.3c-5.33-6.91-7.86,129.88-14.07,137.58h14.07Z"/><path class="cls-3" d="M668.14,23h0a7,7,0,0,1,7,7v135.8a0,0,0,0,1,0,0H661.11a0,0,0,0,1,0,0V30.08a7,7,0,0,1,7-7Z"/><path class="cls-4" d="M675.17,28.3c-5.33-6.91-7.85,129.88-14.06,137.58h14.06Z"/><rect class="cls-5" x="38.36" y="175.82" width="204.89" height="59.72"/><rect class="cls-3" x="49.04" y="185.42" width="179.67" height="3.16"/><rect class="cls-3" x="49.04" y="195.24" width="179.67" height="3.16"/><rect class="cls-3" x="49.04" y="208.8" width="179.67" height="3.16"/><rect class="cls-3" x="49.04" y="222.35" width="179.67" height="3.16"/><rect class="cls-6" x="38.36" y="235.54" width="204.89" height="16.67"/><path class="cls-7" d="M220.59,226s-4.54-40.15,32.47-50.28"/><path class="cls-2" d="M192.35,173.43s37.3,15.53,28.18,52.8"/><path class="cls-2" d="M221.61,210.17S217.07,170,254.08,159.9"/><path class="cls-7" d="M193.46,157.37s37.3,15.53,28.18,52.8"/><path class="cls-7" d="M60.68,209.92s-4.54-40.15,32.47-50.27"/><path class="cls-2" d="M32.43,157.35s37.3,15.53,28.18,52.8"/><path class="cls-2" d="M61.69,194.09s-4.53-40.15,32.47-50.27"/><path class="cls-7" d="M33.54,141.29s37.3,15.53,28.18,52.8"/><ellipse class="cls-2" cx="307.71" cy="247.9" rx="29.37" ry="5.26"/><ellipse class="cls-8" cx="303.66" cy="191.36" rx="29.37" ry="5.26"/><circle class="cls-9" cx="301.29" cy="191" r="8.06"/><circle class="cls-9" cx="314.55" cy="173.71" r="8.06"/><path class="cls-9" d="M306.2,184.61s-1.75-3.81,3.44-4.5"/><path class="cls-9" d="M319.45,167.32l1.16-8.3a2.85,2.85,0,0,1,4.56-1.87h0"/><path class="cls-9" d="M296.39,197.4l-7.71,3.28a2.84,2.84,0,0,0-.62,4.88h0"/><polygon class="cls-10" points="326 246.22 283.8 246.22 274.29 191.36 333.04 191.36 326 246.22"/><ellipse class="cls-10" cx="304.9" cy="246.23" rx="21.1" ry="3.59"/><path class="cls-11" d="M276.15,192.56S291.9,243.5,319.59,246"/><path class="cls-12" d="M274.29,191.36s6.61,30.75,30.61,30.75S333,191.36,333,191.36"/><ellipse class="cls-13" cx="545.06" cy="228.64" rx="109.01" ry="16.28"/><ellipse class="cls-14" cx="504.49" cy="228.64" rx="68.44" ry="10.22"/><ellipse class="cls-14" cx="611.87" cy="228.64" rx="26.29" ry="3.93"/><path class="cls-15" d="M646.71,157.5s5,13.11,2,23.45"/><path class="cls-16" d="M646.85,157.51l-2.72-5.93a2.28,2.28,0,0,1,.76-2.82,2.92,2.92,0,0,1,3.78,0,2.26,2.26,0,0,1,.66,2.61Z"/><path class="cls-16" d="M646.85,157.51l2.27-6.12a2.28,2.28,0,0,1,2.53-1.46,2.94,2.94,0,0,1,2.65,2.71,2.26,2.26,0,0,1-1.39,2.31Z"/><path class="cls-16" d="M646.85,157.51l5.93-2.73a2.28,2.28,0,0,1,2.82.76,2.92,2.92,0,0,1,0,3.78A2.26,2.26,0,0,1,653,160Z"/><path class="cls-16" d="M646.85,157.51l6.12,2.26a2.29,2.29,0,0,1,1.46,2.53,2.94,2.94,0,0,1-2.71,2.65,2.26,2.26,0,0,1-2.31-1.39Z"/><path class="cls-16" d="M646.85,157.51l2.73,5.92a2.29,2.29,0,0,1-.76,2.83,3,3,0,0,1-3.79,0,2.27,2.27,0,0,1-.65-2.61Z"/><path class="cls-16" d="M646.85,157.51l-2.26,6.11a2.28,2.28,0,0,1-2.54,1.46,2.93,2.93,0,0,1-2.64-2.7,2.25,2.25,0,0,1,1.39-2.31Z"/><path class="cls-16" d="M646.85,157.51l-5.92,2.72a2.29,2.29,0,0,1-2.83-.76,2.93,2.93,0,0,1,0-3.78,2.26,2.26,0,0,1,2.61-.66Z"/><path class="cls-16" d="M646.85,157.51l-6.11-2.27a2.28,2.28,0,0,1-1.46-2.53,2.93,2.93,0,0,1,2.7-2.65,2.25,2.25,0,0,1,2.31,1.39Z"/><circle class="cls-17" cx="647" cy="157.36" r="2.5"/><path class="cls-18" d="M649.7,179.78c-.12-.34-2.2-8.61,6.95-11.82,0,0-.58,12.17-6.95,11.82"/><path class="cls-15" d="M274,232.81s5,13.11,2,23.45"/><path class="cls-16" d="M274.1,232.82l-2.72-5.93a2.28,2.28,0,0,1,.76-2.82,2.92,2.92,0,0,1,3.78,0,2.26,2.26,0,0,1,.66,2.61Z"/><path class="cls-16" d="M274.1,232.82l2.27-6.12a2.29,2.29,0,0,1,2.53-1.46,2.94,2.94,0,0,1,2.65,2.71,2.29,2.29,0,0,1-1.39,2.31Z"/><path class="cls-16" d="M274.1,232.82l5.93-2.73a2.28,2.28,0,0,1,2.82.76,2.93,2.93,0,0,1,0,3.79,2.27,2.27,0,0,1-2.61.65Z"/><path class="cls-16" d="M274.1,232.82l6.12,2.26a2.29,2.29,0,0,1,1.46,2.54,2.94,2.94,0,0,1-2.71,2.64,2.26,2.26,0,0,1-2.31-1.39Z"/><path class="cls-16" d="M274.1,232.82l2.73,5.92a2.29,2.29,0,0,1-.76,2.83,3,3,0,0,1-3.79,0,2.27,2.27,0,0,1-.65-2.61Z"/><path class="cls-16" d="M274.1,232.82l-2.26,6.11a2.29,2.29,0,0,1-2.54,1.46,2.92,2.92,0,0,1-2.64-2.7,2.25,2.25,0,0,1,1.39-2.31Z"/><path class="cls-16" d="M274.1,232.82l-5.93,2.72a2.28,2.28,0,0,1-2.82-.76,2.93,2.93,0,0,1,0-3.78,2.26,2.26,0,0,1,2.61-.66Z"/><path class="cls-16" d="M274.1,232.82,268,230.55a2.28,2.28,0,0,1-1.45-2.53,2.93,2.93,0,0,1,2.7-2.65,2.25,2.25,0,0,1,2.31,1.39Z"/><circle class="cls-17" cx="274.25" cy="232.67" r="2.5"/><path class="cls-18" d="M277,255.09c-.12-.34-2.2-8.61,6.95-11.82,0,0-.58,12.17-6.95,11.82"/><circle class="cls-19" cx="46.28" cy="15.31" r="12.39"/><circle class="cls-19" cx="79.68" cy="13.06" r="12.39"/><path class="cls-19" d="M58.64,14.48s2.62-5.88,8.68-.59"/><path class="cls-19" d="M92,12.22,102.8,5.14a4.38,4.38,0,0,1,6.78,3.36h0"/><path class="cls-19" d="M33.92,16.15,22.31,10.57A4.39,4.39,0,0,0,16,14.82h0"/></g></g></svg>