<svg xmlns="http://www.w3.org/2000/svg" viewBox="0 0 702.17 305"><defs><style>.cls-1{fill:#009848;}.cls-2{fill:#006834;}.cls-3{fill:#9f6138;}.cls-4{fill:#87451e;}.cls-5{fill:#623d16;}.cls-6{fill:#e2cf91;}.cls-7{fill:#3eb871;}.cls-8{fill:#bcbec0;}.cls-9{fill:#4d4d4a;}.cls-10{fill:#fff;opacity:0.32;}.cls-11,.cls-15{fill:none;stroke-miterlimit:10;}.cls-11{stroke:#a6a8ab;stroke-width:1.94px;}.cls-12{fill:#e08b54;}.cls-13{fill:#85bde1;}.cls-14{fill:#a0cae7;}.cls-15{stroke:#3eb871;stroke-width:1.06px;}.cls-16{fill:#ffd64b;}.cls-17{fill:#fffded;}.cls-18{fill:#008747;}.cls-19{fill:#065;}.cls-20{fill:#ffffec;}</style></defs><title>garden 02</title><g id="Layer_2" data-name="Layer 2"><g id="Glavno_Besedilo" data-name="Glavno Besedilo"><rect id="_Rectangle_" data-name="&lt;Rectangle&gt;" class="cls-1" y="183.52" width="675.17" height="108.35"/><ellipse class="cls-2" cx="550.61" cy="246.2" rx="114.57" ry="19.34"/><path class="cls-3" d="M7,40.68H7a7,7,0,0,1,7,7v135.8a0,0,0,0,1,0,0H0a0,0,0,0,1,0,0V47.72a7,7,0,0,1,7-7Z"/><path class="cls-4" d="M14.07,45.94C8.74,39,6.21,175.83,0,183.52H14.07Z"/><path class="cls-3" d="M21.1,40.68h0a7,7,0,0,1,7,7v135.8a0,0,0,0,1,0,0H14.07a0,0,0,0,1,0,0V47.72a7,7,0,0,1,7-7Z"/><path class="cls-4" d="M28.13,45.94C22.8,39,20.28,175.83,14.07,183.52H28.13Z"/><path class="cls-3" d="M35.17,40.68h0a7,7,0,0,1,7,7v135.8a0,0,0,0,1,0,0H28.13a0,0,0,0,1,0,0V47.72a7,7,0,0,1,7-7Z"/><path class="cls-4" d="M42.2,45.94C36.87,39,34.34,175.83,28.13,183.52H42.2Z"/><path class="cls-3" d="M49.23,40.68h0a7,7,0,0,1,7,7v135.8a0,0,0,0,1,0,0H42.2a0,0,0,0,1,0,0V47.72a7,7,0,0,1,7-7Z"/><path class="cls-4" d="M56.26,45.94C50.94,39,48.41,175.83,42.2,183.52H56.26Z"/><path class="cls-3" d="M63.3,40.68h0a7,7,0,0,1,7,7v135.8a0,0,0,0,1,0,0H56.26a0,0,0,0,1,0,0V47.72a7,7,0,0,1,7-7Z"/><path class="cls-4" d="M70.33,45.94C65,39,62.48,175.83,56.26,183.52H70.33Z"/><path class="cls-3" d="M77.36,40.68h0a7,7,0,0,1,7,7v135.8a0,0,0,0,1,0,0H70.33a0,0,0,0,1,0,0V47.72a7,7,0,0,1,7-7Z"/><path class="cls-4" d="M84.4,45.94C79.07,39,76.54,175.83,70.33,183.52H84.4Z"/><path class="cls-3" d="M91.43,40.68h0a7,7,0,0,1,7,7v135.8a0,0,0,0,1,0,0H84.4a0,0,0,0,1,0,0V47.72a7,7,0,0,1,7-7Z"/><path class="cls-4" d="M98.46,45.94C93.13,39,90.61,175.83,84.4,183.52H98.46Z"/><path class="cls-3" d="M105.5,40.68h0a7,7,0,0,1,7,7v135.8a0,0,0,0,1,0,0H98.46a0,0,0,0,1,0,0V47.72a7,7,0,0,1,7-7Z"/><path class="cls-4" d="M112.53,45.94C107.2,39,104.67,175.83,98.46,183.52h14.07Z"/><path class="cls-3" d="M119.56,40.68h0a7,7,0,0,1,7,7v135.8a0,0,0,0,1,0,0H112.53a0,0,0,0,1,0,0V47.72a7,7,0,0,1,7-7Z"/><path class="cls-4" d="M126.59,45.94c-5.33-6.91-7.85,129.88-14.07,137.57h14.07Z"/><path class="cls-3" d="M133.63,40.68h0a7,7,0,0,1,7,7v135.8a0,0,0,0,1,0,0H126.59a0,0,0,0,1,0,0V47.72a7,7,0,0,1,7-7Z"/><path class="cls-4" d="M140.66,45.94c-5.33-6.91-7.85,129.88-14.07,137.57h14.07Z"/><path class="cls-3" d="M147.69,40.68h0a7,7,0,0,1,7,7v135.8a0,0,0,0,1,0,0H140.66a0,0,0,0,1,0,0V47.72a7,7,0,0,1,7-7Z"/><path class="cls-4" d="M154.73,45.94c-5.33-6.91-7.85,129.88-14.07,137.57h14.07Z"/><path class="cls-3" d="M161.76,40.68h0a7,7,0,0,1,7,7v135.8a0,0,0,0,1,0,0H154.73a0,0,0,0,1,0,0V47.72a7,7,0,0,1,7-7Z"/><path class="cls-4" d="M168.79,45.94c-5.33-6.91-7.85,129.88-14.07,137.57h14.07Z"/><path class="cls-3" d="M175.83,40.68h0a7,7,0,0,1,7,7v135.8a0,0,0,0,1,0,0H168.79a0,0,0,0,1,0,0V47.72a7,7,0,0,1,7-7Z"/><path class="cls-4" d="M182.86,45.94C177.53,39,175,175.83,168.79,183.52h14.07Z"/><path class="cls-3" d="M189.89,40.68h0a7,7,0,0,1,7,7v135.8a0,0,0,0,1,0,0H182.86a0,0,0,0,1,0,0V47.72a7,7,0,0,1,7-7Z"/><path class="cls-4" d="M196.92,45.94c-5.33-6.91-7.85,129.88-14.07,137.57h14.07Z"/><path class="cls-3" d="M204,40.68h0a7,7,0,0,1,7,7v135.8a0,0,0,0,1,0,0H196.93a0,0,0,0,1,0,0V47.72a7,7,0,0,1,7-7Z"/><path class="cls-4" d="M211,45.94c-5.33-6.91-7.85,129.88-14.07,137.57H211Z"/><path class="cls-3" d="M218,40.68h0a7,7,0,0,1,7,7v135.8a0,0,0,0,1,0,0H211a0,0,0,0,1,0,0V47.72a7,7,0,0,1,7-7Z"/><path class="cls-4" d="M225.06,45.94C219.73,39,217.2,175.83,211,183.52h14.07Z"/><path class="cls-3" d="M232.09,40.68h0a7,7,0,0,1,7,7v135.8a0,0,0,0,1,0,0H225.06a0,0,0,0,1,0,0V47.72a7,7,0,0,1,7-7Z"/><path class="cls-4" d="M239.12,45.94c-5.33-6.91-7.85,129.88-14.07,137.57h14.07Z"/><path class="cls-3" d="M246.16,40.68h0a7,7,0,0,1,7,7v135.8a0,0,0,0,1,0,0H239.12a0,0,0,0,1,0,0V47.72a7,7,0,0,1,7-7Z"/><path class="cls-4" d="M253.19,45.94c-5.33-6.91-7.85,129.88-14.07,137.57h14.07Z"/><path class="cls-3" d="M260.22,40.68h0a7,7,0,0,1,7,7v135.8a0,0,0,0,1,0,0H253.19a0,0,0,0,1,0,0V47.72a7,7,0,0,1,7-7Z"/><path class="cls-4" d="M267.26,45.94c-5.33-6.91-7.85,129.88-14.07,137.57h14.07Z"/><path class="cls-3" d="M274.29,40.68h0a7,7,0,0,1,7,7v135.8a0,0,0,0,1,0,0H267.26a0,0,0,0,1,0,0V47.72A7,7,0,0,1,274.29,40.68Z"/><path class="cls-4" d="M281.32,45.94C276,39,273.47,175.83,267.26,183.52h14.07Z"/><path class="cls-3" d="M288.35,40.68h0a7,7,0,0,1,7,7v135.8a0,0,0,0,1,0,0H281.32a0,0,0,0,1,0,0V47.72a7,7,0,0,1,7-7Z"/><path class="cls-4" d="M295.39,45.94c-5.33-6.91-7.85,129.88-14.07,137.57h14.07Z"/><path class="cls-3" d="M302.42,40.68h0a7,7,0,0,1,7,7v135.8a0,0,0,0,1,0,0H295.39a0,0,0,0,1,0,0V47.72a7,7,0,0,1,7-7Z"/><path class="cls-4" d="M309.45,45.94c-5.33-6.91-7.85,129.88-14.07,137.57h14.07Z"/><path class="cls-3" d="M316.49,40.68h0a7,7,0,0,1,7,7v135.8a0,0,0,0,1,0,0H309.45a0,0,0,0,1,0,0V47.72a7,7,0,0,1,7-7Z"/><path class="cls-4" d="M323.52,45.94c-5.33-6.91-7.85,129.88-14.07,137.57h14.07Z"/><path class="cls-3" d="M330.55,40.68h0a7,7,0,0,1,7,7v135.8a0,0,0,0,1,0,0H323.52a0,0,0,0,1,0,0V47.72a7,7,0,0,1,7-7Z"/><path class="cls-4" d="M337.59,45.94c-5.33-6.91-7.85,129.88-14.07,137.57h14.07Z"/><path class="cls-3" d="M344.62,40.68h0a7,7,0,0,1,7,7v135.8a0,0,0,0,1,0,0H337.59a0,0,0,0,1,0,0V47.72a7,7,0,0,1,7-7Z"/><path class="cls-4" d="M351.65,45.94c-5.33-6.91-7.85,129.88-14.07,137.57h14.07Z"/><path class="cls-3" d="M358.68,40.68h0a7,7,0,0,1,7,7v135.8a0,0,0,0,1,0,0H351.65a0,0,0,0,1,0,0V47.72a7,7,0,0,1,7-7Z"/><path class="cls-4" d="M365.72,45.94c-5.33-6.91-7.85,129.88-14.07,137.57h14.07Z"/><path class="cls-3" d="M372.75,40.68h0a7,7,0,0,1,7,7v135.8a0,0,0,0,1,0,0H365.72a0,0,0,0,1,0,0V47.72a7,7,0,0,1,7-7Z"/><path class="cls-4" d="M379.78,45.94c-5.33-6.91-7.85,129.88-14.07,137.57h14.07Z"/><path class="cls-3" d="M386.82,40.68h0a7,7,0,0,1,7,7v135.8a0,0,0,0,1,0,0H379.78a0,0,0,0,1,0,0V47.72a7,7,0,0,1,7-7Z"/><path class="cls-4" d="M393.85,45.94C388.52,39,386,175.83,379.78,183.52h14.07Z"/><path class="cls-3" d="M400.88,40.68h0a7,7,0,0,1,7,7v135.8a0,0,0,0,1,0,0H393.85a0,0,0,0,1,0,0V47.72a7,7,0,0,1,7-7Z"/><path class="cls-4" d="M407.92,45.94c-5.33-6.91-7.85,129.88-14.07,137.57h14.07Z"/><path class="cls-3" d="M414.95,40.68h0a7,7,0,0,1,7,7v135.8a0,0,0,0,1,0,0H407.92a0,0,0,0,1,0,0V47.72a7,7,0,0,1,7-7Z"/><path class="cls-4" d="M422,45.94c-5.33-6.91-7.85,129.88-14.07,137.57H422Z"/><path class="cls-3" d="M429,40.68h0a7,7,0,0,1,7,7v135.8a0,0,0,0,1,0,0H422a0,0,0,0,1,0,0V47.72a7,7,0,0,1,7-7Z"/><path class="cls-4" d="M436,45.94C430.72,39,428.19,175.83,422,183.52H436Z"/><path class="cls-3" d="M443.08,40.68h0a7,7,0,0,1,7,7v135.8a0,0,0,0,1,0,0H436a0,0,0,0,1,0,0V47.72a7,7,0,0,1,7-7Z"/><path class="cls-4" d="M450.11,45.94C444.79,39,442.26,175.83,436,183.52h14.07Z"/><path class="cls-3" d="M457.15,40.68h0a7,7,0,0,1,7,7v135.8a0,0,0,0,1,0,0H450.11a0,0,0,0,1,0,0V47.72a7,7,0,0,1,7-7Z"/><path class="cls-4" d="M464.18,45.94c-5.33-6.91-7.85,129.88-14.07,137.57h14.07Z"/><path class="cls-3" d="M471.21,40.68h0a7,7,0,0,1,7,7v135.8a0,0,0,0,1,0,0H464.18a0,0,0,0,1,0,0V47.72a7,7,0,0,1,7-7Z"/><path class="cls-4" d="M478.25,45.94c-5.33-6.91-7.85,129.88-14.07,137.57h14.07Z"/><path class="cls-3" d="M485.28,40.68h0a7,7,0,0,1,7,7v135.8a0,0,0,0,1,0,0H478.25a0,0,0,0,1,0,0V47.72a7,7,0,0,1,7-7Z"/><path class="cls-4" d="M492.31,45.94C487,39,484.46,175.83,478.25,183.52h14.07Z"/><path class="cls-3" d="M499.35,40.68h0a7,7,0,0,1,7,7v135.8a0,0,0,0,1,0,0H492.31a0,0,0,0,1,0,0V47.72a7,7,0,0,1,7-7Z"/><path class="cls-4" d="M506.38,45.94c-5.33-6.91-7.85,129.88-14.07,137.57h14.07Z"/><path class="cls-3" d="M513.41,40.68h0a7,7,0,0,1,7,7v135.8a0,0,0,0,1,0,0H506.38a0,0,0,0,1,0,0V47.72a7,7,0,0,1,7-7Z"/><path class="cls-4" d="M520.44,45.94c-5.33-6.91-7.85,129.88-14.07,137.57h14.07Z"/><path class="cls-3" d="M527.48,40.68h0a7,7,0,0,1,7,7v135.8a0,0,0,0,1,0,0H520.44a0,0,0,0,1,0,0V47.72a7,7,0,0,1,7-7Z"/><path class="cls-4" d="M534.51,45.94c-5.33-6.91-7.85,129.88-14.07,137.57h14.07Z"/><path class="cls-3" d="M541.54,40.68h0a7,7,0,0,1,7,7v135.8a0,0,0,0,1,0,0H534.51a0,0,0,0,1,0,0V47.72a7,7,0,0,1,7-7Z"/><path class="cls-4" d="M548.58,45.94c-5.33-6.91-7.85,129.88-14.07,137.57h14.07Z"/><path class="cls-3" d="M555.61,40.68h0a7,7,0,0,1,7,7v135.8a0,0,0,0,1,0,0H548.58a0,0,0,0,1,0,0V47.72a7,7,0,0,1,7-7Z"/><path class="cls-4" d="M562.64,45.94c-5.33-6.91-7.85,129.88-14.07,137.57h14.07Z"/><path class="cls-3" d="M569.68,40.68h0a7,7,0,0,1,7,7v135.8a0,0,0,0,1,0,0H562.64a0,0,0,0,1,0,0V47.72a7,7,0,0,1,7-7Z"/><path class="cls-4" d="M576.71,45.94c-5.33-6.91-7.85,129.88-14.07,137.57h14.07Z"/><path class="cls-3" d="M583.74,40.68h0a7,7,0,0,1,7,7v135.8a0,0,0,0,1,0,0H576.71a0,0,0,0,1,0,0V47.72a7,7,0,0,1,7-7Z"/><path class="cls-4" d="M590.77,45.94c-5.33-6.91-7.85,129.88-14.07,137.57h14.07Z"/><path class="cls-3" d="M597.81,40.68h0a7,7,0,0,1,7,7v135.8a0,0,0,0,1,0,0H590.78a0,0,0,0,1,0,0V47.72a7,7,0,0,1,7-7Z"/><path class="cls-4" d="M604.84,45.94C599.51,39,597,175.83,590.78,183.52h14.07Z"/><path class="cls-3" d="M611.87,40.68h0a7,7,0,0,1,7,7v135.8a0,0,0,0,1,0,0H604.84a0,0,0,0,1,0,0V47.72a7,7,0,0,1,7-7Z"/><path class="cls-4" d="M618.91,45.94c-5.33-6.91-7.85,129.88-14.07,137.57h14.07Z"/><path class="cls-3" d="M625.94,40.68h0a7,7,0,0,1,7,7v135.8a0,0,0,0,1,0,0H618.91a0,0,0,0,1,0,0V47.72a7,7,0,0,1,7-7Z"/><path class="cls-4" d="M633,45.94c-5.33-6.91-7.85,129.88-14.07,137.57H633Z"/><path class="cls-3" d="M640,40.68h0a7,7,0,0,1,7,7v135.8a0,0,0,0,1,0,0H633a0,0,0,0,1,0,0V47.72a7,7,0,0,1,7-7Z"/><path class="cls-4" d="M647,45.94C641.71,39,639.19,175.83,633,183.52H647Z"/><path class="cls-3" d="M654.07,40.68h0a7,7,0,0,1,7,7v135.8a0,0,0,0,1,0,0H647a0,0,0,0,1,0,0V47.72a7,7,0,0,1,7-7Z"/><path class="cls-4" d="M661.11,45.94C655.78,39,653.25,175.83,647,183.52h14.07Z"/><path class="cls-3" d="M668.14,40.68h0a7,7,0,0,1,7,7v135.8a0,0,0,0,1,0,0H661.11a0,0,0,0,1,0,0V47.72a7,7,0,0,1,7-7Z"/><path class="cls-4" d="M675.17,45.94c-5.33-6.91-7.85,129.88-14.07,137.57h14.07Z"/><rect class="cls-5" x="38.36" y="193.47" width="204.89" height="59.72"/><rect class="cls-3" x="49.04" y="203.06" width="179.67" height="3.16"/><rect class="cls-3" x="49.04" y="212.89" width="179.67" height="3.16"/><rect class="cls-3" x="49.04" y="226.44" width="179.67" height="3.16"/><rect class="cls-3" x="49.04" y="239.99" width="179.67" height="3.16"/><rect class="cls-6" x="38.36" y="253.19" width="204.89" height="16.67"/><path class="cls-7" d="M220.59,243.64s-4.54-40.15,32.47-50.28"/><path class="cls-2" d="M192.35,191.07s37.3,15.53,28.18,52.8"/><path class="cls-2" d="M221.61,227.81s-4.54-40.15,32.47-50.28"/><path class="cls-7" d="M193.46,175s37.3,15.53,28.18,52.8"/><path class="cls-7" d="M60.68,227.56s-4.54-40.15,32.47-50.28"/><path class="cls-2" d="M32.43,175s37.3,15.53,28.18,52.8"/><path class="cls-2" d="M61.69,211.74s-4.54-40.15,32.47-50.28"/><path class="cls-7" d="M33.54,158.94s37.3,15.53,28.18,52.8"/><ellipse class="cls-2" cx="307.71" cy="265.54" rx="29.37" ry="5.26"/><polygon class="cls-8" points="326 263.87 283.8 263.87 274.29 209 333.04 209 326 263.87"/><ellipse class="cls-9" cx="303.66" cy="209" rx="29.37" ry="5.26"/><ellipse class="cls-8" cx="304.9" cy="263.87" rx="21.1" ry="3.59"/><path class="cls-10" d="M276.15,210.21s15.76,50.94,43.44,53.39"/><path class="cls-11" d="M274.29,209s6.61,30.75,30.61,30.75S333,209,333,209"/><path class="cls-12" d="M436,225.29v17.86s119.52,33.25,218-1.58V225.29Z"/><ellipse class="cls-13" cx="545.06" cy="225.29" rx="109.01" ry="16.28"/><ellipse class="cls-14" cx="504.49" cy="225.29" rx="68.44" ry="10.22"/><ellipse class="cls-14" cx="611.87" cy="225.29" rx="26.29" ry="3.93"/><path class="cls-15" d="M646.71,175.14s5,13.11,2,23.45"/><path class="cls-16" d="M646.85,175.15l-2.72-5.93a2.28,2.28,0,0,1,.76-2.82,2.93,2.93,0,0,1,3.78,0,2.26,2.26,0,0,1,.65,2.61Z"/><path class="cls-16" d="M646.85,175.15l2.27-6.12a2.28,2.28,0,0,1,2.53-1.46,2.93,2.93,0,0,1,2.64,2.71,2.26,2.26,0,0,1-1.38,2.31Z"/><path class="cls-16" d="M646.85,175.15l5.93-2.72a2.28,2.28,0,0,1,2.82.76,2.93,2.93,0,0,1,0,3.78,2.26,2.26,0,0,1-2.61.65Z"/><path class="cls-16" d="M646.85,175.15l6.12,2.27a2.28,2.28,0,0,1,1.46,2.53,2.93,2.93,0,0,1-2.71,2.64,2.26,2.26,0,0,1-2.31-1.38Z"/><path class="cls-16" d="M646.85,175.15l2.72,5.93a2.28,2.28,0,0,1-.76,2.82,2.93,2.93,0,0,1-3.78,0,2.26,2.26,0,0,1-.65-2.61Z"/><path class="cls-16" d="M646.85,175.15l-2.27,6.12a2.28,2.28,0,0,1-2.53,1.46,2.93,2.93,0,0,1-2.64-2.71,2.26,2.26,0,0,1,1.38-2.31Z"/><path class="cls-16" d="M646.85,175.15l-5.93,2.72a2.28,2.28,0,0,1-2.82-.76,2.93,2.93,0,0,1,0-3.78,2.26,2.26,0,0,1,2.61-.65Z"/><path class="cls-16" d="M646.85,175.15l-6.12-2.27a2.28,2.28,0,0,1-1.46-2.53,2.93,2.93,0,0,1,2.71-2.64,2.26,2.26,0,0,1,2.31,1.38Z"/><circle class="cls-17" cx="647" cy="175" r="2.5"/><path class="cls-18" d="M649.7,197.43c-.12-.34-2.2-8.61,7-11.83,0,0-.58,12.17-7,11.83"/><path class="cls-15" d="M274,250.45s5,13.11,2,23.45"/><path class="cls-16" d="M274.1,250.46l-2.72-5.93a2.28,2.28,0,0,1,.76-2.82,2.93,2.93,0,0,1,3.78,0,2.26,2.26,0,0,1,.65,2.61Z"/><path class="cls-16" d="M274.1,250.46l2.27-6.12a2.28,2.28,0,0,1,2.53-1.46,2.93,2.93,0,0,1,2.64,2.71,2.26,2.26,0,0,1-1.38,2.31Z"/><path class="cls-16" d="M274.1,250.46l5.93-2.72a2.28,2.28,0,0,1,2.82.76,2.93,2.93,0,0,1,0,3.78,2.26,2.26,0,0,1-2.61.65Z"/><path class="cls-16" d="M274.1,250.46l6.12,2.27a2.28,2.28,0,0,1,1.46,2.53A2.93,2.93,0,0,1,279,257.9a2.26,2.26,0,0,1-2.31-1.38Z"/><path class="cls-16" d="M274.1,250.46l2.72,5.93a2.28,2.28,0,0,1-.76,2.82,2.93,2.93,0,0,1-3.78,0,2.26,2.26,0,0,1-.65-2.61Z"/><path class="cls-16" d="M274.1,250.46l-2.27,6.12A2.28,2.28,0,0,1,269.3,258a2.93,2.93,0,0,1-2.64-2.71A2.26,2.26,0,0,1,268,253Z"/><path class="cls-16" d="M274.1,250.46l-5.93,2.72a2.28,2.28,0,0,1-2.82-.76,2.93,2.93,0,0,1,0-3.78A2.26,2.26,0,0,1,268,248Z"/><path class="cls-16" d="M274.1,250.46,268,248.19a2.28,2.28,0,0,1-1.46-2.53,2.93,2.93,0,0,1,2.71-2.64,2.26,2.26,0,0,1,2.31,1.38Z"/><circle class="cls-17" cx="274.25" cy="250.31" r="2.5"/><path class="cls-18" d="M276.95,272.74c-.12-.34-2.2-8.61,7-11.83,0,0-.58,12.17-7,11.83"/><circle class="cls-19" cx="35.17" cy="23" r="23"/><path class="cls-20" d="M41.21,22.24q0,7.19,0,14.39a.73.73,0,0,1-.44.79.76.76,0,0,1-.78-.19L33.32,32c-.9-.7-1.8-1.41-2.72-2.1a.92.92,0,0,0-.52-.17H21.83c-.73,0-.93-.21-.93-.95q0-6.6,0-13.21c0-.75.2-.94.93-.95H30a1,1,0,0,0,.57-.2Q35.32,10.84,40,7.2A.77.77,0,0,1,40.83,7a.72.72,0,0,1,.38.76Q41.21,15,41.21,22.24Z"/><path class="cls-20" d="M44,30.08c0-.58,0-1.14,0-1.7,0-.08.18-.2.29-.23a6.18,6.18,0,0,0,.05-11.92c-.28-.08-.38-.19-.36-.48,0-.49,0-1,0-1.47a8,8,0,0,1,0,15.8Z"/><path class="cls-20" d="M44,27.31c0-.68,0-1.31,0-1.95,0-.09.11-.19.19-.25a3.25,3.25,0,0,0,0-5.21.43.43,0,0,1-.17-.26c0-.63,0-1.25,0-1.88,1.49.19,3.12,2.3,3.33,4.26A5.14,5.14,0,0,1,44,27.31Z"/><circle class="cls-19" cx="140.17" cy="278" r="23"/><path class="cls-20" d="M146.21,277.24q0,7.19,0,14.39a.73.73,0,0,1-.44.79.76.76,0,0,1-.78-.19L138.32,287c-.9-.7-1.8-1.41-2.72-2.1a.92.92,0,0,0-.52-.17h-8.26c-.73,0-.93-.21-.93-.95q0-6.6,0-13.21c0-.75.2-.94.93-.95H135a1,1,0,0,0,.57-.2q4.7-3.62,9.37-7.26a.77.77,0,0,1,.84-.17.72.72,0,0,1,.38.76Q146.21,270,146.21,277.24Z"/><path class="cls-20" d="M149,285.08c0-.58,0-1.14,0-1.7,0-.08.18-.2.29-.23a6.18,6.18,0,0,0,.05-11.92c-.28-.08-.38-.19-.36-.48,0-.49,0-1,0-1.47a8,8,0,0,1,0,15.8Z"/><path class="cls-20" d="M149,282.31c0-.68,0-1.31,0-1.95,0-.09.11-.19.19-.25a3.25,3.25,0,0,0,0-5.21.43.43,0,0,1-.17-.26c0-.63,0-1.25,0-1.88,1.49.19,3.12,2.3,3.33,4.26A5.14,5.14,0,0,1,149,282.31Z"/><circle class="cls-19" cx="303.17" cy="282" r="23"/><path class="cls-20" d="M309.21,281.24q0,7.19,0,14.39a.73.73,0,0,1-.44.79.76.76,0,0,1-.78-.19L301.32,291c-.9-.7-1.8-1.41-2.72-2.1a.92.92,0,0,0-.52-.17h-8.26c-.73,0-.93-.21-.93-.95q0-6.6,0-13.21c0-.75.2-.94.93-.95H298a1,1,0,0,0,.57-.2q4.7-3.62,9.37-7.26a.77.77,0,0,1,.84-.17.72.72,0,0,1,.38.76Q309.21,274,309.21,281.24Z"/><path class="cls-20" d="M312,289.08c0-.58,0-1.14,0-1.7,0-.08.18-.2.29-.23a6.18,6.18,0,0,0,.05-11.92c-.28-.08-.38-.19-.36-.48,0-.49,0-1,0-1.47a8,8,0,0,1,0,15.8Z"/><path class="cls-20" d="M312,286.31c0-.68,0-1.31,0-1.95,0-.09.11-.19.19-.25a3.25,3.25,0,0,0,0-5.21.43.43,0,0,1-.17-.26c0-.63,0-1.25,0-1.88,1.49.19,3.12,2.3,3.33,4.26A5.14,5.14,0,0,1,312,286.31Z"/><circle class="cls-19" cx="534.17" cy="281" r="23"/><path class="cls-20" d="M540.21,280.24q0,7.19,0,14.39a.73.73,0,0,1-.44.79.76.76,0,0,1-.78-.19L532.32,290c-.9-.7-1.8-1.41-2.72-2.1a.92.92,0,0,0-.52-.17h-8.26c-.73,0-.93-.21-.93-.95q0-6.6,0-13.21c0-.75.2-.94.93-.95H529a1,1,0,0,0,.57-.2q4.7-3.62,9.37-7.26a.77.77,0,0,1,.84-.17.72.72,0,0,1,.38.76Q540.21,273,540.21,280.24Z"/><path class="cls-20" d="M543,288.08c0-.58,0-1.14,0-1.7,0-.08.18-.2.29-.23a6.18,6.18,0,0,0,.05-11.92c-.28-.08-.38-.19-.36-.48,0-.49,0-1,0-1.47a8,8,0,0,1,0,15.8Z"/><path class="cls-20" d="M543,285.31c0-.68,0-1.31,0-1.95,0-.09.11-.19.19-.25a3.25,3.25,0,0,0,0-5.21.43.43,0,0,1-.17-.26c0-.63,0-1.25,0-1.88,1.49.19,3.12,2.3,3.33,4.26A5.14,5.14,0,0,1,543,285.31Z"/><circle class="cls-19" cx="679.17" cy="179" r="23"/><path class="cls-20" d="M685.21,178.24q0,7.19,0,14.39a.73.73,0,0,1-.44.79.76.76,0,0,1-.78-.19L677.32,188c-.9-.7-1.8-1.41-2.72-2.1a.92.92,0,0,0-.52-.17h-8.26c-.73,0-.93-.21-.93-.95q0-6.6,0-13.21c0-.75.2-.94.93-.95H674a1,1,0,0,0,.57-.2q4.7-3.62,9.37-7.26a.77.77,0,0,1,.84-.17.72.72,0,0,1,.38.76Q685.21,171,685.21,178.24Z"/><path class="cls-20" d="M688,186.08c0-.58,0-1.14,0-1.7,0-.08.18-.2.29-.23a6.18,6.18,0,0,0,.05-11.92c-.28-.08-.38-.19-.36-.48,0-.49,0-1,0-1.47a8,8,0,0,1,0,15.8Z"/><path class="cls-20" d="M688,183.31c0-.68,0-1.31,0-1.95,0-.09.11-.19.19-.25a3.25,3.25,0,0,0,0-5.21.43.43,0,0,1-.17-.26c0-.63,0-1.25,0-1.88,1.49.19,3.12,2.3,3.33,4.26A5.14,5.14,0,0,1,688,183.31Z"/></g></g></svg>