<svg xmlns="http://www.w3.org/2000/svg" viewBox="0 0 675.17 251.18"><defs><style>.cls-1{fill:#009848;}.cls-2{fill:#006834;}.cls-3{fill:#9f6138;}.cls-4{fill:#87451e;}.cls-5{fill:#623d16;}.cls-6{fill:#e2cf91;}.cls-7{fill:#3eb871;}.cls-8{fill:#bcbec0;}.cls-9{fill:#4d4d4a;}.cls-10{fill:#fff;opacity:0.32;}.cls-11,.cls-15{fill:none;stroke-miterlimit:10;}.cls-11{stroke:#a6a8ab;stroke-width:1.94px;}.cls-12{fill:#e08b54;}.cls-13{fill:#85bde1;}.cls-14{fill:#a0cae7;}.cls-15{stroke:#3eb871;stroke-width:1.06px;}.cls-16{fill:#ffd64b;}.cls-17{fill:#fffded;}.cls-18{fill:#008747;}</style></defs><title>garden 01</title><g id="Layer_2" data-name="Layer 2"><g id="Glavno_Besedilo" data-name="Glavno Besedilo"><rect id="_Rectangle_" data-name="&lt;Rectangle&gt;" class="cls-1" y="142.83" width="675.17" height="108.35"/><ellipse class="cls-2" cx="550.61" cy="205.52" rx="114.57" ry="19.34"/><path class="cls-3" d="M7,0H7a7,7,0,0,1,7,7v135.8a0,0,0,0,1,0,0H0a0,0,0,0,1,0,0V7A7,7,0,0,1,7,0Z"/><path class="cls-4" d="M14.07,5.26C8.74-1.65,6.21,135.14,0,142.83H14.07Z"/><path class="cls-3" d="M21.1,0h0a7,7,0,0,1,7,7v135.8a0,0,0,0,1,0,0H14.07a0,0,0,0,1,0,0V7a7,7,0,0,1,7-7Z"/><path class="cls-4" d="M28.13,5.26C22.8-1.65,20.28,135.14,14.07,142.83H28.13Z"/><path class="cls-3" d="M35.17,0h0a7,7,0,0,1,7,7v135.8a0,0,0,0,1,0,0H28.13a0,0,0,0,1,0,0V7a7,7,0,0,1,7-7Z"/><path class="cls-4" d="M42.2,5.26c-5.33-6.91-7.85,129.88-14.07,137.57H42.2Z"/><path class="cls-3" d="M49.23,0h0a7,7,0,0,1,7,7v135.8a0,0,0,0,1,0,0H42.2a0,0,0,0,1,0,0V7a7,7,0,0,1,7-7Z"/><path class="cls-4" d="M56.26,5.26C50.94-1.65,48.41,135.14,42.2,142.83H56.26Z"/><path class="cls-3" d="M63.3,0h0a7,7,0,0,1,7,7v135.8a0,0,0,0,1,0,0H56.26a0,0,0,0,1,0,0V7a7,7,0,0,1,7-7Z"/><path class="cls-4" d="M70.33,5.26C65-1.65,62.48,135.14,56.26,142.83H70.33Z"/><path class="cls-3" d="M77.36,0h0a7,7,0,0,1,7,7v135.8a0,0,0,0,1,0,0H70.33a0,0,0,0,1,0,0V7a7,7,0,0,1,7-7Z"/><path class="cls-4" d="M84.4,5.26c-5.33-6.91-7.85,129.88-14.07,137.57H84.4Z"/><path class="cls-3" d="M91.43,0h0a7,7,0,0,1,7,7v135.8a0,0,0,0,1,0,0H84.4a0,0,0,0,1,0,0V7a7,7,0,0,1,7-7Z"/><path class="cls-4" d="M98.46,5.26C93.13-1.65,90.61,135.14,84.4,142.83H98.46Z"/><path class="cls-3" d="M105.5,0h0a7,7,0,0,1,7,7v135.8a0,0,0,0,1,0,0H98.46a0,0,0,0,1,0,0V7a7,7,0,0,1,7-7Z"/><path class="cls-4" d="M112.53,5.26c-5.33-6.91-7.85,129.88-14.07,137.57h14.07Z"/><path class="cls-3" d="M119.56,0h0a7,7,0,0,1,7,7v135.8a0,0,0,0,1,0,0H112.53a0,0,0,0,1,0,0V7a7,7,0,0,1,7-7Z"/><path class="cls-4" d="M126.59,5.26c-5.33-6.91-7.85,129.88-14.07,137.57h14.07Z"/><path class="cls-3" d="M133.63,0h0a7,7,0,0,1,7,7v135.8a0,0,0,0,1,0,0H126.59a0,0,0,0,1,0,0V7a7,7,0,0,1,7-7Z"/><path class="cls-4" d="M140.66,5.26c-5.33-6.91-7.85,129.88-14.07,137.57h14.07Z"/><path class="cls-3" d="M147.69,0h0a7,7,0,0,1,7,7v135.8a0,0,0,0,1,0,0H140.66a0,0,0,0,1,0,0V7a7,7,0,0,1,7-7Z"/><path class="cls-4" d="M154.73,5.26c-5.33-6.91-7.85,129.88-14.07,137.57h14.07Z"/><path class="cls-3" d="M161.76,0h0a7,7,0,0,1,7,7v135.8a0,0,0,0,1,0,0H154.73a0,0,0,0,1,0,0V7a7,7,0,0,1,7-7Z"/><path class="cls-4" d="M168.79,5.26c-5.33-6.91-7.85,129.88-14.07,137.57h14.07Z"/><path class="cls-3" d="M175.83,0h0a7,7,0,0,1,7,7v135.8a0,0,0,0,1,0,0H168.79a0,0,0,0,1,0,0V7a7,7,0,0,1,7-7Z"/><path class="cls-4" d="M182.86,5.26c-5.33-6.91-7.85,129.88-14.07,137.57h14.07Z"/><path class="cls-3" d="M189.89,0h0a7,7,0,0,1,7,7v135.8a0,0,0,0,1,0,0H182.86a0,0,0,0,1,0,0V7a7,7,0,0,1,7-7Z"/><path class="cls-4" d="M196.92,5.26c-5.33-6.91-7.85,129.88-14.07,137.57h14.07Z"/><path class="cls-3" d="M204,0h0a7,7,0,0,1,7,7v135.8a0,0,0,0,1,0,0H196.93a0,0,0,0,1,0,0V7a7,7,0,0,1,7-7Z"/><path class="cls-4" d="M211,5.26c-5.33-6.91-7.85,129.88-14.07,137.57H211Z"/><path class="cls-3" d="M218,0h0a7,7,0,0,1,7,7v135.8a0,0,0,0,1,0,0H211a0,0,0,0,1,0,0V7a7,7,0,0,1,7-7Z"/><path class="cls-4" d="M225.06,5.26C219.73-1.65,217.2,135.14,211,142.83h14.07Z"/><path class="cls-3" d="M232.09,0h0a7,7,0,0,1,7,7v135.8a0,0,0,0,1,0,0H225.06a0,0,0,0,1,0,0V7a7,7,0,0,1,7-7Z"/><path class="cls-4" d="M239.12,5.26c-5.33-6.91-7.85,129.88-14.07,137.57h14.07Z"/><path class="cls-3" d="M246.16,0h0a7,7,0,0,1,7,7v135.8a0,0,0,0,1,0,0H239.12a0,0,0,0,1,0,0V7a7,7,0,0,1,7-7Z"/><path class="cls-4" d="M253.19,5.26c-5.33-6.91-7.85,129.88-14.07,137.57h14.07Z"/><path class="cls-3" d="M260.22,0h0a7,7,0,0,1,7,7v135.8a0,0,0,0,1,0,0H253.19a0,0,0,0,1,0,0V7a7,7,0,0,1,7-7Z"/><path class="cls-4" d="M267.26,5.26c-5.33-6.91-7.85,129.88-14.07,137.57h14.07Z"/><path class="cls-3" d="M274.29,0h0a7,7,0,0,1,7,7v135.8a0,0,0,0,1,0,0H267.26a0,0,0,0,1,0,0V7a7,7,0,0,1,7-7Z"/><path class="cls-4" d="M281.32,5.26c-5.33-6.91-7.85,129.88-14.07,137.57h14.07Z"/><path class="cls-3" d="M288.35,0h0a7,7,0,0,1,7,7v135.8a0,0,0,0,1,0,0H281.32a0,0,0,0,1,0,0V7a7,7,0,0,1,7-7Z"/><path class="cls-4" d="M295.39,5.26c-5.33-6.91-7.85,129.88-14.07,137.57h14.07Z"/><path class="cls-3" d="M302.42,0h0a7,7,0,0,1,7,7v135.8a0,0,0,0,1,0,0H295.39a0,0,0,0,1,0,0V7a7,7,0,0,1,7-7Z"/><path class="cls-4" d="M309.45,5.26c-5.33-6.91-7.85,129.88-14.07,137.57h14.07Z"/><path class="cls-3" d="M316.49,0h0a7,7,0,0,1,7,7v135.8a0,0,0,0,1,0,0H309.45a0,0,0,0,1,0,0V7a7,7,0,0,1,7-7Z"/><path class="cls-4" d="M323.52,5.26c-5.33-6.91-7.85,129.88-14.07,137.57h14.07Z"/><path class="cls-3" d="M330.55,0h0a7,7,0,0,1,7,7v135.8a0,0,0,0,1,0,0H323.52a0,0,0,0,1,0,0V7a7,7,0,0,1,7-7Z"/><path class="cls-4" d="M337.59,5.26c-5.33-6.91-7.85,129.88-14.07,137.57h14.07Z"/><path class="cls-3" d="M344.62,0h0a7,7,0,0,1,7,7v135.8a0,0,0,0,1,0,0H337.59a0,0,0,0,1,0,0V7a7,7,0,0,1,7-7Z"/><path class="cls-4" d="M351.65,5.26c-5.33-6.91-7.85,129.88-14.07,137.57h14.07Z"/><path class="cls-3" d="M358.68,0h0a7,7,0,0,1,7,7v135.8a0,0,0,0,1,0,0H351.65a0,0,0,0,1,0,0V7a7,7,0,0,1,7-7Z"/><path class="cls-4" d="M365.72,5.26c-5.33-6.91-7.85,129.88-14.07,137.57h14.07Z"/><path class="cls-3" d="M372.75,0h0a7,7,0,0,1,7,7v135.8a0,0,0,0,1,0,0H365.72a0,0,0,0,1,0,0V7a7,7,0,0,1,7-7Z"/><path class="cls-4" d="M379.78,5.26c-5.33-6.91-7.85,129.88-14.07,137.57h14.07Z"/><path class="cls-3" d="M386.82,0h0a7,7,0,0,1,7,7v135.8a0,0,0,0,1,0,0H379.78a0,0,0,0,1,0,0V7a7,7,0,0,1,7-7Z"/><path class="cls-4" d="M393.85,5.26c-5.33-6.91-7.85,129.88-14.07,137.57h14.07Z"/><path class="cls-3" d="M400.88,0h0a7,7,0,0,1,7,7v135.8a0,0,0,0,1,0,0H393.85a0,0,0,0,1,0,0V7a7,7,0,0,1,7-7Z"/><path class="cls-4" d="M407.92,5.26c-5.33-6.91-7.85,129.88-14.07,137.57h14.07Z"/><path class="cls-3" d="M414.95,0h0a7,7,0,0,1,7,7v135.8a0,0,0,0,1,0,0H407.92a0,0,0,0,1,0,0V7a7,7,0,0,1,7-7Z"/><path class="cls-4" d="M422,5.26c-5.33-6.91-7.85,129.88-14.07,137.57H422Z"/><path class="cls-3" d="M429,0h0a7,7,0,0,1,7,7v135.8a0,0,0,0,1,0,0H422a0,0,0,0,1,0,0V7a7,7,0,0,1,7-7Z"/><path class="cls-4" d="M436,5.26c-5.33-6.91-7.85,129.88-14.07,137.57H436Z"/><path class="cls-3" d="M443.08,0h0a7,7,0,0,1,7,7v135.8a0,0,0,0,1,0,0H436a0,0,0,0,1,0,0V7a7,7,0,0,1,7-7Z"/><path class="cls-4" d="M450.11,5.26c-5.33-6.91-7.85,129.88-14.07,137.57h14.07Z"/><path class="cls-3" d="M457.15,0h0a7,7,0,0,1,7,7v135.8a0,0,0,0,1,0,0H450.11a0,0,0,0,1,0,0V7a7,7,0,0,1,7-7Z"/><path class="cls-4" d="M464.18,5.26c-5.33-6.91-7.85,129.88-14.07,137.57h14.07Z"/><path class="cls-3" d="M471.21,0h0a7,7,0,0,1,7,7v135.8a0,0,0,0,1,0,0H464.18a0,0,0,0,1,0,0V7a7,7,0,0,1,7-7Z"/><path class="cls-4" d="M478.25,5.26c-5.33-6.91-7.85,129.88-14.07,137.57h14.07Z"/><path class="cls-3" d="M485.28,0h0a7,7,0,0,1,7,7v135.8a0,0,0,0,1,0,0H478.25a0,0,0,0,1,0,0V7a7,7,0,0,1,7-7Z"/><path class="cls-4" d="M492.31,5.26c-5.33-6.91-7.85,129.88-14.07,137.57h14.07Z"/><path class="cls-3" d="M499.35,0h0a7,7,0,0,1,7,7v135.8a0,0,0,0,1,0,0H492.31a0,0,0,0,1,0,0V7a7,7,0,0,1,7-7Z"/><path class="cls-4" d="M506.38,5.26c-5.33-6.91-7.85,129.88-14.07,137.57h14.07Z"/><path class="cls-3" d="M513.41,0h0a7,7,0,0,1,7,7v135.8a0,0,0,0,1,0,0H506.38a0,0,0,0,1,0,0V7a7,7,0,0,1,7-7Z"/><path class="cls-4" d="M520.44,5.26c-5.33-6.91-7.85,129.88-14.07,137.57h14.07Z"/><path class="cls-3" d="M527.48,0h0a7,7,0,0,1,7,7v135.8a0,0,0,0,1,0,0H520.44a0,0,0,0,1,0,0V7a7,7,0,0,1,7-7Z"/><path class="cls-4" d="M534.51,5.26c-5.33-6.91-7.85,129.88-14.07,137.57h14.07Z"/><path class="cls-3" d="M541.54,0h0a7,7,0,0,1,7,7v135.8a0,0,0,0,1,0,0H534.51a0,0,0,0,1,0,0V7a7,7,0,0,1,7-7Z"/><path class="cls-4" d="M548.58,5.26c-5.33-6.91-7.85,129.88-14.07,137.57h14.07Z"/><path class="cls-3" d="M555.61,0h0a7,7,0,0,1,7,7v135.8a0,0,0,0,1,0,0H548.58a0,0,0,0,1,0,0V7a7,7,0,0,1,7-7Z"/><path class="cls-4" d="M562.64,5.26c-5.33-6.91-7.85,129.88-14.07,137.57h14.07Z"/><path class="cls-3" d="M569.68,0h0a7,7,0,0,1,7,7v135.8a0,0,0,0,1,0,0H562.64a0,0,0,0,1,0,0V7a7,7,0,0,1,7-7Z"/><path class="cls-4" d="M576.71,5.26c-5.33-6.91-7.85,129.88-14.07,137.57h14.07Z"/><path class="cls-3" d="M583.74,0h0a7,7,0,0,1,7,7v135.8a0,0,0,0,1,0,0H576.71a0,0,0,0,1,0,0V7a7,7,0,0,1,7-7Z"/><path class="cls-4" d="M590.77,5.26c-5.33-6.91-7.85,129.88-14.07,137.57h14.07Z"/><path class="cls-3" d="M597.81,0h0a7,7,0,0,1,7,7v135.8a0,0,0,0,1,0,0H590.78a0,0,0,0,1,0,0V7a7,7,0,0,1,7-7Z"/><path class="cls-4" d="M604.84,5.26c-5.33-6.91-7.85,129.88-14.07,137.57h14.07Z"/><path class="cls-3" d="M611.87,0h0a7,7,0,0,1,7,7v135.8a0,0,0,0,1,0,0H604.84a0,0,0,0,1,0,0V7a7,7,0,0,1,7-7Z"/><path class="cls-4" d="M618.91,5.26c-5.33-6.91-7.85,129.88-14.07,137.57h14.07Z"/><path class="cls-3" d="M625.94,0h0a7,7,0,0,1,7,7v135.8a0,0,0,0,1,0,0H618.91a0,0,0,0,1,0,0V7a7,7,0,0,1,7-7Z"/><path class="cls-4" d="M633,5.26c-5.33-6.91-7.85,129.88-14.07,137.57H633Z"/><path class="cls-3" d="M640,0h0a7,7,0,0,1,7,7v135.8a0,0,0,0,1,0,0H633a0,0,0,0,1,0,0V7a7,7,0,0,1,7-7Z"/><path class="cls-4" d="M647,5.26c-5.33-6.91-7.85,129.88-14.07,137.57H647Z"/><path class="cls-3" d="M654.07,0h0a7,7,0,0,1,7,7v135.8a0,0,0,0,1,0,0H647a0,0,0,0,1,0,0V7a7,7,0,0,1,7-7Z"/><path class="cls-4" d="M661.11,5.26c-5.33-6.91-7.85,129.88-14.07,137.57h14.07Z"/><path class="cls-3" d="M668.14,0h0a7,7,0,0,1,7,7v135.8a0,0,0,0,1,0,0H661.11a0,0,0,0,1,0,0V7a7,7,0,0,1,7-7Z"/><path class="cls-4" d="M675.17,5.26c-5.33-6.91-7.85,129.88-14.07,137.57h14.07Z"/><rect class="cls-5" x="38.36" y="152.78" width="204.89" height="59.72"/><rect class="cls-3" x="49.04" y="162.37" width="179.67" height="3.16"/><rect class="cls-3" x="49.04" y="172.2" width="179.67" height="3.16"/><rect class="cls-3" x="49.04" y="185.75" width="179.67" height="3.16"/><rect class="cls-3" x="49.04" y="199.3" width="179.67" height="3.16"/><rect class="cls-6" x="38.36" y="212.5" width="204.89" height="16.67"/><path class="cls-7" d="M220.59,203s-4.54-40.15,32.47-50.28"/><path class="cls-2" d="M192.35,150.39s37.3,15.53,28.18,52.8"/><path class="cls-2" d="M221.61,187.13s-4.54-40.15,32.47-50.28"/><path class="cls-7" d="M193.46,134.33s37.3,15.53,28.18,52.8"/><path class="cls-7" d="M60.68,186.88s-4.54-40.15,32.47-50.28"/><path class="cls-2" d="M32.43,134.31s37.3,15.53,28.18,52.8"/><path class="cls-2" d="M61.69,171.05s-4.54-40.15,32.47-50.28"/><path class="cls-7" d="M33.54,118.25s37.3,15.53,28.18,52.8"/><ellipse class="cls-2" cx="307.71" cy="224.86" rx="29.37" ry="5.26"/><polygon class="cls-8" points="326 223.18 283.8 223.18 274.29 168.32 333.04 168.32 326 223.18"/><ellipse class="cls-9" cx="303.66" cy="168.32" rx="29.37" ry="5.26"/><ellipse class="cls-8" cx="304.9" cy="223.18" rx="21.1" ry="3.59"/><path class="cls-10" d="M276.15,169.52s15.76,50.94,43.44,53.39"/><path class="cls-11" d="M274.29,168.32s6.61,30.75,30.61,30.75S333,168.32,333,168.32"/><path class="cls-12" d="M436,184.6v17.86s119.52,33.25,218-1.58V184.6Z"/><ellipse class="cls-13" cx="545.06" cy="184.6" rx="109.01" ry="16.28"/><ellipse class="cls-14" cx="504.49" cy="184.6" rx="68.44" ry="10.22"/><ellipse class="cls-14" cx="611.87" cy="184.6" rx="26.29" ry="3.93"/><path class="cls-15" d="M646.71,134.46s5,13.11,2,23.45"/><path class="cls-16" d="M646.85,134.46l-2.72-5.93a2.28,2.28,0,0,1,.76-2.82,2.93,2.93,0,0,1,3.78,0,2.26,2.26,0,0,1,.65,2.61Z"/><path class="cls-16" d="M646.85,134.46l2.27-6.12a2.28,2.28,0,0,1,2.53-1.46,2.93,2.93,0,0,1,2.64,2.71,2.26,2.26,0,0,1-1.38,2.31Z"/><path class="cls-16" d="M646.85,134.46l5.93-2.72a2.28,2.28,0,0,1,2.82.76,2.93,2.93,0,0,1,0,3.78,2.26,2.26,0,0,1-2.61.65Z"/><path class="cls-16" d="M646.85,134.46l6.12,2.27a2.28,2.28,0,0,1,1.46,2.53,2.93,2.93,0,0,1-2.71,2.64,2.26,2.26,0,0,1-2.31-1.38Z"/><path class="cls-16" d="M646.85,134.46l2.72,5.93a2.28,2.28,0,0,1-.76,2.82,2.93,2.93,0,0,1-3.78,0,2.26,2.26,0,0,1-.65-2.61Z"/><path class="cls-16" d="M646.85,134.46l-2.27,6.12a2.28,2.28,0,0,1-2.53,1.46,2.93,2.93,0,0,1-2.64-2.71A2.26,2.26,0,0,1,640.8,137Z"/><path class="cls-16" d="M646.85,134.46l-5.93,2.72a2.28,2.28,0,0,1-2.82-.76,2.93,2.93,0,0,1,0-3.78,2.26,2.26,0,0,1,2.61-.65Z"/><path class="cls-16" d="M646.85,134.46l-6.12-2.27a2.28,2.28,0,0,1-1.46-2.53A2.93,2.93,0,0,1,642,127a2.26,2.26,0,0,1,2.31,1.38Z"/><circle class="cls-17" cx="647" cy="134.32" r="2.5"/><path class="cls-18" d="M649.7,156.74c-.12-.34-2.2-8.61,7-11.83,0,0-.58,12.17-7,11.83"/><path class="cls-15" d="M274,209.77s5,13.11,2,23.45"/><path class="cls-16" d="M274.1,209.77l-2.72-5.93a2.28,2.28,0,0,1,.76-2.82,2.93,2.93,0,0,1,3.78,0,2.26,2.26,0,0,1,.65,2.61Z"/><path class="cls-16" d="M274.1,209.77l2.27-6.12a2.28,2.28,0,0,1,2.53-1.46,2.93,2.93,0,0,1,2.64,2.71,2.26,2.26,0,0,1-1.38,2.31Z"/><path class="cls-16" d="M274.1,209.77l5.93-2.72a2.28,2.28,0,0,1,2.82.76,2.93,2.93,0,0,1,0,3.78,2.26,2.26,0,0,1-2.61.65Z"/><path class="cls-16" d="M274.1,209.77l6.12,2.27a2.28,2.28,0,0,1,1.46,2.53,2.93,2.93,0,0,1-2.71,2.64,2.26,2.26,0,0,1-2.31-1.38Z"/><path class="cls-16" d="M274.1,209.77l2.72,5.93a2.28,2.28,0,0,1-.76,2.82,2.93,2.93,0,0,1-3.78,0,2.26,2.26,0,0,1-.65-2.61Z"/><path class="cls-16" d="M274.1,209.77l-2.27,6.12a2.28,2.28,0,0,1-2.53,1.46,2.93,2.93,0,0,1-2.64-2.71,2.26,2.26,0,0,1,1.38-2.31Z"/><path class="cls-16" d="M274.1,209.77l-5.93,2.72a2.28,2.28,0,0,1-2.82-.76,2.93,2.93,0,0,1,0-3.78,2.26,2.26,0,0,1,2.61-.65Z"/><path class="cls-16" d="M274.1,209.77,268,207.51a2.28,2.28,0,0,1-1.46-2.53,2.93,2.93,0,0,1,2.71-2.64,2.26,2.26,0,0,1,2.31,1.38Z"/><circle class="cls-17" cx="274.25" cy="209.63" r="2.5"/><path class="cls-18" d="M276.95,232.05c-.12-.34-2.2-8.61,7-11.83,0,0-.58,12.17-7,11.83"/></g></g></svg>