<svg xmlns="http://www.w3.org/2000/svg" viewBox="0 0 655.98 459.18"><defs><style>.cls-1{fill:#a0cae7;}.cls-2{fill:#0097dc;}.cls-3{fill:#4a3144;}.cls-4{fill:#85bde1;}.cls-5{fill:#f1f1f2;}.cls-6{opacity:0.7;}.cls-7{fill:#fff;}.cls-8{fill:#97bebc;}.cls-9{fill:#dfdfdf;}.cls-10{fill:#919fa0;}.cls-11{fill:#7fa7ca;}.cls-12{fill:#1c2834;}.cls-13{fill:#e5e6e6;}.cls-14{fill:#e5e5e4;}.cls-15{fill:#9ab8d5;}.cls-16{fill:#929497;}.cls-17{fill:#df6b50;}.cls-18{fill:#424143;}.cls-19{fill:#bba4a0;}.cls-20{fill:#d9dbdc;}.cls-21{fill:#cccecf;}.cls-22{fill:#065;}.cls-23{fill:#ffffec;}</style></defs><title>kitchen 02</title><g id="Layer_2" data-name="Layer 2"><g id="Glavno_Besedilo" data-name="Glavno Besedilo"><rect id="_Rectangle_" data-name="&lt;Rectangle&gt;" class="cls-1" width="655.98" height="362.02"/><rect id="_Rectangle_2" data-name="&lt;Rectangle&gt;" class="cls-2" y="362.02" width="655.98" height="97.17"/><rect class="cls-3" x="395.37" y="274.91" width="121.8" height="121.8"/><rect class="cls-3" x="273.57" y="274.91" width="121.8" height="121.8"/><path class="cls-4" d="M615,74.84V229.91h6.2a10.2,10.2,0,0,0,2.91-7.15V77.65A10.24,10.24,0,0,0,613.9,67.4h-2.09A10.2,10.2,0,0,1,615,74.84Z"/><path class="cls-4" d="M624.15,388.36V243.24a10.2,10.2,0,0,0-2.91-7.15H615V398.53A10.24,10.24,0,0,0,624.15,388.36Z"/><path class="cls-5" d="M517.16,77.65V222.76a10.2,10.2,0,0,0,2.91,7.15h95V74.84a10.2,10.2,0,0,0-3.22-7.44H527.41A10.24,10.24,0,0,0,517.16,77.65Z"/><path class="cls-5" d="M517.16,243.24V388.36a10.24,10.24,0,0,0,10.24,10.24h86.5a10.27,10.27,0,0,0,1.13-.07V236.09h-95A10.21,10.21,0,0,0,517.16,243.24Z"/><path class="cls-4" d="M527.41,233h86.5a10.2,10.2,0,0,0,7.33-3.09H520.08A10.2,10.2,0,0,0,527.41,233Z"/><path class="cls-4" d="M613.9,233h-86.5a10.21,10.21,0,0,0-7.33,3.09H621.23A10.21,10.21,0,0,0,613.9,233Z"/><g class="cls-6"><path class="cls-7" d="M527.8,222.19V85a13,13,0,0,1,8.08-12H535a11.8,11.8,0,0,0-11.79,11.79V222.19Z"/></g><g class="cls-6"><path class="cls-7" d="M523.36,243.24a13,13,0,0,0-.14,1.8V389.15h4.58V245.26a14.31,14.31,0,0,1,.14-2Z"/></g><path class="cls-8" d="M576.24,220.59a2.76,2.76,0,0,0-2.51-3.95H534.47a2.77,2.77,0,0,0-2.77,2.77,2.8,2.8,0,0,0,2.77,2.77h39.26A2.77,2.77,0,0,0,576.24,220.59Z"/><path class="cls-8" d="M537.51,251.06a2.76,2.76,0,0,0-3.95,2.51v39.26a2.77,2.77,0,0,0,2.77,2.77,2.8,2.8,0,0,0,2.77-2.77V253.56A2.77,2.77,0,0,0,537.51,251.06Z"/><path class="cls-9" d="M577.93,218.24a2.77,2.77,0,0,0-2.77-2.77H535.9a2.77,2.77,0,0,0-2.77,2.77,2.75,2.75,0,0,0,.27,1.17h44.27A2.74,2.74,0,0,0,577.93,218.24Z"/><path class="cls-10" d="M577.66,219.41H533.39a2.77,2.77,0,0,0,2.5,1.6h39.26A2.77,2.77,0,0,0,577.66,219.41Z"/><path class="cls-9" d="M535.16,249.22a2.77,2.77,0,0,0-2.77,2.77v39.26a2.76,2.76,0,0,0,3.95,2.5V249.49A2.75,2.75,0,0,0,535.16,249.22Z"/><path class="cls-10" d="M536.33,249.49v44.27a2.77,2.77,0,0,0,1.6-2.5V252A2.77,2.77,0,0,0,536.33,249.49Z"/><rect class="cls-11" x="407.9" y="297.97" width="43.94" height="85.81"/><rect class="cls-11" x="462.53" y="297.97" width="43.94" height="85.81"/><circle class="cls-7" cx="451.84" cy="284.82" r="2.49"/><circle class="cls-7" cx="462.53" cy="284.82" r="2.49"/><path class="cls-1" d="M407.9,298s10.39,85.81,43.94,85.81"/><path class="cls-1" d="M462.53,298s10.39,85.81,43.94,85.81"/><rect class="cls-12" x="281.2" y="282.33" width="106.53" height="106.94"/><path class="cls-13" d="M372.79,307.85c-1.59,5.19-4.93,10.08-10.18,12h4.83a13.05,13.05,0,0,0,9.64-12Z"/><path class="cls-7" d="M372.79,307.85H351a13.05,13.05,0,0,0,9.64,12h2C367.87,317.93,371.2,313,372.79,307.85Z"/><path class="cls-13" d="M372.79,295.85c-1.59,5.19-4.93,10.08-10.18,12h4.83a13.05,13.05,0,0,0,9.64-12Z"/><path class="cls-7" d="M372.79,295.85H351a13.05,13.05,0,0,0,9.64,12h2C367.87,305.93,371.2,301,372.79,295.85Z"/><circle class="cls-7" cx="303.22" cy="367.04" r="13.59"/><path class="cls-14" d="M303.22,376a9,9,0,1,1,9-9A9,9,0,0,1,303.22,376Zm0-16.76A7.8,7.8,0,1,0,311,367,7.81,7.81,0,0,0,303.22,359.24Z"/><rect class="cls-15" x="375.74" y="313.89" width="14.53" height="1.15" transform="translate(697.47 -68.54) rotate(90)"/><rect class="cls-15" x="285.09" y="319.85" width="98.5" height="1.89"/><rect class="cls-15" x="278.4" y="313.89" width="14.53" height="1.15" transform="translate(600.13 28.8) rotate(90)"/><rect class="cls-15" x="281.57" y="313.89" width="14.53" height="1.15" transform="translate(603.3 25.63) rotate(90)"/><rect class="cls-15" x="284.74" y="313.89" width="14.53" height="1.15" transform="translate(606.47 22.46) rotate(90)"/><rect class="cls-15" x="287.91" y="313.89" width="14.53" height="1.15" transform="translate(609.65 19.29) rotate(90)"/><rect class="cls-15" x="291.09" y="313.89" width="14.53" height="1.15" transform="translate(612.82 16.11) rotate(90)"/><rect class="cls-15" x="294.26" y="313.89" width="14.53" height="1.15" transform="translate(615.99 12.94) rotate(90)"/><rect class="cls-15" x="297.43" y="313.89" width="14.53" height="1.15" transform="translate(619.16 9.77) rotate(90)"/><rect class="cls-15" x="300.6" y="313.89" width="14.53" height="1.15" transform="translate(622.33 6.6) rotate(90)"/><rect class="cls-15" x="303.77" y="313.89" width="14.53" height="1.15" transform="translate(625.51 3.43) rotate(90)"/><rect class="cls-15" x="306.95" y="313.89" width="14.53" height="1.15" transform="translate(628.68 0.25) rotate(90)"/><rect class="cls-15" x="310.12" y="313.89" width="14.53" height="1.15" transform="translate(631.85 -2.92) rotate(90)"/><rect class="cls-15" x="313.29" y="313.89" width="14.53" height="1.15" transform="translate(635.02 -6.09) rotate(90)"/><rect class="cls-15" x="316.46" y="313.89" width="14.53" height="1.15" transform="translate(638.2 -9.26) rotate(90)"/><rect class="cls-15" x="319.63" y="313.89" width="14.53" height="1.15" transform="translate(641.37 -12.44) rotate(90)"/><rect class="cls-15" x="322.81" y="313.89" width="14.53" height="1.15" transform="translate(644.54 -15.61) rotate(90)"/><rect class="cls-15" x="325.98" y="313.89" width="14.53" height="1.15" transform="translate(647.71 -18.78) rotate(90)"/><rect class="cls-15" x="329.15" y="313.89" width="14.53" height="1.15" transform="translate(650.88 -21.95) rotate(90)"/><rect class="cls-15" x="332.32" y="313.89" width="14.53" height="1.15" transform="translate(654.06 -25.12) rotate(90)"/><rect class="cls-15" x="335.5" y="313.89" width="14.53" height="1.15" transform="translate(657.23 -28.3) rotate(90)"/><rect class="cls-15" x="338.67" y="313.89" width="14.53" height="1.15" transform="translate(660.4 -31.47) rotate(90)"/><rect class="cls-15" x="341.84" y="313.89" width="14.53" height="1.15" transform="translate(663.57 -34.64) rotate(90)"/><rect class="cls-15" x="345.01" y="313.89" width="14.53" height="1.15" transform="translate(666.74 -37.81) rotate(90)"/><rect class="cls-15" x="348.18" y="313.89" width="14.53" height="1.15" transform="translate(669.92 -40.98) rotate(90)"/><rect class="cls-15" x="351.36" y="313.89" width="14.53" height="1.15" transform="translate(673.09 -44.16) rotate(90)"/><rect class="cls-15" x="354.53" y="313.89" width="14.53" height="1.15" transform="translate(676.26 -47.33) rotate(90)"/><rect class="cls-15" x="357.7" y="313.89" width="14.53" height="1.15" transform="translate(679.43 -50.5) rotate(90)"/><rect class="cls-15" x="360.87" y="313.89" width="14.53" height="1.15" transform="translate(682.6 -53.67) rotate(90)"/><rect class="cls-15" x="364.04" y="313.89" width="14.53" height="1.15" transform="translate(685.78 -56.84) rotate(90)"/><rect class="cls-15" x="367.22" y="313.89" width="14.53" height="1.15" transform="translate(688.95 -60.02) rotate(90)"/><rect class="cls-15" x="370.39" y="313.89" width="14.53" height="1.15" transform="translate(692.12 -63.19) rotate(90)"/><rect class="cls-15" x="373.56" y="313.89" width="14.53" height="1.15" transform="translate(695.29 -66.36) rotate(90)"/><rect class="cls-15" x="375.74" y="374.67" width="14.53" height="1.15" transform="translate(758.26 -7.76) rotate(90)"/><rect class="cls-15" x="285.09" y="380.63" width="98.5" height="1.89"/><rect class="cls-15" x="278.4" y="374.67" width="14.53" height="1.15" transform="translate(660.91 89.58) rotate(90)"/><rect class="cls-15" x="281.57" y="374.67" width="14.53" height="1.15" transform="translate(664.08 86.41) rotate(90)"/><rect class="cls-15" x="284.74" y="374.67" width="14.53" height="1.15" transform="translate(667.26 83.24) rotate(90)"/><rect class="cls-15" x="287.91" y="374.67" width="14.53" height="1.15" transform="translate(670.43 80.07) rotate(90)"/><rect class="cls-15" x="291.09" y="374.67" width="14.53" height="1.15" transform="translate(673.6 76.9) rotate(90)"/><rect class="cls-15" x="294.26" y="374.67" width="14.53" height="1.15" transform="translate(676.77 73.72) rotate(90)"/><rect class="cls-15" x="297.43" y="374.67" width="14.53" height="1.15" transform="translate(679.95 70.55) rotate(90)"/><rect class="cls-15" x="300.6" y="374.67" width="14.53" height="1.15" transform="translate(683.12 67.38) rotate(90)"/><rect class="cls-15" x="303.77" y="374.67" width="14.53" height="1.15" transform="translate(686.29 64.21) rotate(90)"/><rect class="cls-15" x="306.95" y="374.67" width="14.53" height="1.15" transform="translate(689.46 61.04) rotate(90)"/><rect class="cls-15" x="310.12" y="374.67" width="14.53" height="1.15" transform="translate(692.63 57.86) rotate(90)"/><rect class="cls-15" x="313.29" y="374.67" width="14.53" height="1.15" transform="translate(695.81 54.69) rotate(90)"/><rect class="cls-15" x="316.46" y="374.67" width="14.53" height="1.15" transform="translate(698.98 51.52) rotate(90)"/><rect class="cls-15" x="319.63" y="374.67" width="14.53" height="1.15" transform="translate(702.15 48.35) rotate(90)"/><rect class="cls-15" x="322.81" y="374.67" width="14.53" height="1.15" transform="translate(705.32 45.18) rotate(90)"/><rect class="cls-15" x="325.98" y="374.67" width="14.53" height="1.15" transform="translate(708.49 42) rotate(90)"/><rect class="cls-15" x="329.15" y="374.67" width="14.53" height="1.15" transform="translate(711.67 38.83) rotate(90)"/><rect class="cls-15" x="332.32" y="374.67" width="14.53" height="1.15" transform="translate(714.84 35.66) rotate(90)"/><rect class="cls-15" x="335.5" y="374.67" width="14.53" height="1.15" transform="translate(718.01 32.49) rotate(90)"/><rect class="cls-15" x="338.67" y="374.67" width="14.53" height="1.15" transform="translate(721.18 29.31) rotate(90)"/><rect class="cls-15" x="341.84" y="374.67" width="14.53" height="1.15" transform="translate(724.35 26.14) rotate(90)"/><rect class="cls-15" x="345.01" y="374.67" width="14.53" height="1.15" transform="translate(727.53 22.97) rotate(90)"/><rect class="cls-15" x="348.18" y="374.67" width="14.53" height="1.15" transform="translate(730.7 19.8) rotate(90)"/><rect class="cls-15" x="351.36" y="374.67" width="14.53" height="1.15" transform="translate(733.87 16.63) rotate(90)"/><rect class="cls-15" x="354.53" y="374.67" width="14.53" height="1.15" transform="translate(737.04 13.45) rotate(90)"/><rect class="cls-15" x="357.7" y="374.67" width="14.53" height="1.15" transform="translate(740.22 10.28) rotate(90)"/><rect class="cls-15" x="360.87" y="374.67" width="14.53" height="1.15" transform="translate(743.39 7.11) rotate(90)"/><rect class="cls-15" x="364.04" y="374.67" width="14.53" height="1.15" transform="translate(746.56 3.94) rotate(90)"/><rect class="cls-15" x="367.22" y="374.67" width="14.53" height="1.15" transform="translate(749.73 0.77) rotate(90)"/><rect class="cls-15" x="370.39" y="374.67" width="14.53" height="1.15" transform="translate(752.9 -2.41) rotate(90)"/><rect class="cls-15" x="373.56" y="374.67" width="14.53" height="1.15" transform="translate(756.08 -5.58) rotate(90)"/><rect class="cls-5" x="150.14" y="274.91" width="123.43" height="120.79"/><rect class="cls-3" x="48.19" y="274.91" width="101.95" height="120.79"/><rect class="cls-12" x="48.19" y="304.67" width="101.95" height="0.76"/><rect class="cls-12" x="48.19" y="335.69" width="101.95" height="0.76"/><rect class="cls-12" x="48.19" y="366.71" width="101.95" height="0.77"/><path class="cls-7" d="M75.46,291.92a1.69,1.69,0,0,0,1.79,1.56h25.6a1.57,1.57,0,1,0,0-3.12H77.25A1.69,1.69,0,0,0,75.46,291.92Z"/><path class="cls-7" d="M75.46,320.37a1.69,1.69,0,0,0,1.79,1.56h25.6a1.57,1.57,0,1,0,0-3.12H77.25A1.69,1.69,0,0,0,75.46,320.37Z"/><path class="cls-7" d="M75.46,351.93a1.69,1.69,0,0,0,1.79,1.56h25.6a1.57,1.57,0,1,0,0-3.12H77.25A1.69,1.69,0,0,0,75.46,351.93Z"/><path class="cls-7" d="M75.46,381.79a1.69,1.69,0,0,0,1.79,1.56h25.6a1.57,1.57,0,1,0,0-3.12H77.25A1.68,1.68,0,0,0,75.46,381.79Z"/><polygon class="cls-1" points="251.37 377.57 251.37 295.49 173.76 295.49 245.54 377.57 251.37 377.57"/><polygon class="cls-11" points="173.76 295.49 169.28 295.49 169.28 377.57 245.54 377.57 173.76 295.49"/><rect class="cls-16" x="251.37" y="295.49" width="2.36" height="82.09"/><rect class="cls-16" x="169.28" y="377.57" width="84.45" height="2.36"/><circle class="cls-17" cx="169.5" cy="286.45" r="4.59"/><circle class="cls-7" cx="169.5" cy="286.45" r="3.28"/><path class="cls-18" d="M171.41,286.45a1.91,1.91,0,0,0-1.06-1.71c-.21-.54-.51-.88-.85-.88s-.64.34-.85.88a1.9,1.9,0,0,0,0,3.41c.21.54.51.88.85.88s.64-.34.85-.88A1.91,1.91,0,0,0,171.41,286.45Z"/><circle class="cls-17" cx="190.68" cy="286.45" r="4.59"/><circle class="cls-7" cx="190.68" cy="286.45" r="3.28"/><path class="cls-18" d="M192.59,286.45a1.91,1.91,0,0,0-1.06-1.71c-.21-.54-.51-.88-.85-.88s-.64.34-.85.88a1.9,1.9,0,0,0,0,3.41c.21.54.51.88.85.88s.64-.34.85-.88A1.91,1.91,0,0,0,192.59,286.45Z"/><circle class="cls-17" cx="211.86" cy="286.45" r="4.59"/><circle class="cls-7" cx="211.85" cy="286.45" r="3.28"/><path class="cls-18" d="M213.77,286.45a1.91,1.91,0,0,0-1.06-1.71c-.21-.54-.51-.88-.85-.88s-.64.34-.85.88a1.9,1.9,0,0,0,0,3.41c.21.54.51.88.85.88s.64-.34.85-.88A1.91,1.91,0,0,0,213.77,286.45Z"/><circle class="cls-17" cx="233.03" cy="286.45" r="4.59"/><circle class="cls-7" cx="233.03" cy="286.45" r="3.28"/><path class="cls-18" d="M234.95,286.45a1.91,1.91,0,0,0-1.06-1.71c-.21-.54-.51-.88-.85-.88s-.64.34-.85.88a1.9,1.9,0,0,0,0,3.41c.21.54.51.88.85.88s.64-.34.85-.88A1.91,1.91,0,0,0,234.95,286.45Z"/><circle class="cls-17" cx="254.21" cy="286.45" r="4.59"/><circle class="cls-7" cx="254.21" cy="286.45" r="3.28"/><path class="cls-18" d="M256.12,286.45a1.91,1.91,0,0,0-1.06-1.71c-.21-.54-.51-.88-.85-.88s-.64.34-.85.88a1.9,1.9,0,0,0,0,3.41c.21.54.51.88.85.88s.64-.34.85-.88A1.91,1.91,0,0,0,256.12,286.45Z"/><path class="cls-2" d="M46.8,265.68H517.16a0,0,0,0,1,0,0v9.23a0,0,0,0,1,0,0H46.8a4.61,4.61,0,0,1-4.61-4.61v0a4.61,4.61,0,0,1,4.61-4.61Z"/><path class="cls-4" d="M505,135.53h12.14v-1.15H505V114.31H503.9v20.07H487.28V114.31h-1.15v20.07H469.5V114.31h-1.15v20.07H451.73V114.31h-1.15v20.07H434V114.31h-1.15v20.07H416.18V114.31H415v20.07H398.41V114.31h-1.15v20.07H380.63V114.31h-1.15v20.07H362.86V114.31h-1.15v20.07H345.09V114.31h-1.15v20.07H327.31V114.31h-1.15v20.07H309.54V114.31h-1.15v20.07H291.76V114.31h-1.15v20.07H274V114.31h-1.15v20.07H256.22V114.31h-1.15v20.07H238.44V114.31H237.3v20.07H220.67V114.31h-1.15v20.07H202.89V114.31h-1.15v20.07H185.12V114.31H184v20.07H167.35V114.31H166.2v20.07H149.57V114.31h-1.15v20.07H131.8V114.31h-1.15v20.07H114V114.31h-1.15v20.07H96.25V114.31H95.1v20.07H78.48V114.31H77.33v20.07H60.7V114.31H59.55v20.07H48.19v1.15H59.55v17.2H48.19v1.15H59.55v17.2H48.19v1.15H59.55v17.2H48.19v1.15H59.55v17.2H48.19v1.15H59.55v17.2H48.19v1.15H59.55v17.2H48.19v1.15H59.55v20.07H60.7V245.61H77.33v20.07h1.15V245.61H95.1v20.07h1.15V245.61h16.63v20.07H114V245.61h16.63v20.07h1.15V245.61h16.63v20.07h1.15V245.61H166.2v20.07h1.15V245.61H184v20.07h1.15V245.61h16.63v20.07h1.15V245.61h16.63v20.07h1.15V245.61H237.3v20.07h1.15V245.61h16.63v20.07h1.15V245.61h16.63v20.07H274V245.61h16.63v20.07h1.15V245.61h16.63v20.07h1.15V245.61h16.63v20.07h1.15V245.61h16.63v20.07h1.15V245.61h16.63v20.07h1.15V245.61h16.63v20.07h1.15V245.61h16.63v20.07h1.15V245.61H415v20.07h1.15V245.61h16.63v20.07H434V245.61h16.63v20.07h1.15V245.61h16.63v20.07h1.15V245.61h16.63v20.07h1.15V245.61H503.9v20.07H505V245.61h12.14v-1.15H505v-17.2h12.14v-1.15H505v-17.2h12.14v-1.15H505v-17.2h12.14v-1.15H505v-17.2h12.14v-1.15H505v-17.2h12.14v-1.15H505ZM77.33,244.46H60.7v-17.2H77.33Zm0-18.35H60.7v-17.2H77.33Zm0-18.35H60.7v-17.2H77.33Zm0-18.35H60.7v-17.2H77.33Zm0-18.35H60.7v-17.2H77.33Zm0-18.35H60.7v-17.2H77.33ZM95.1,244.46H78.48v-17.2H95.1Zm0-18.35H78.48v-17.2H95.1Zm0-18.35H78.48v-17.2H95.1Zm0-18.35H78.48v-17.2H95.1Zm0-18.35H78.48v-17.2H95.1Zm0-18.35H78.48v-17.2H95.1Zm17.77,91.74H96.25v-17.2h16.63Zm0-18.35H96.25v-17.2h16.63Zm0-18.35H96.25v-17.2h16.63Zm0-18.35H96.25v-17.2h16.63Zm0-18.35H96.25v-17.2h16.63Zm0-18.35H96.25v-17.2h16.63Zm17.77,91.74H114v-17.2h16.63Zm0-18.35H114v-17.2h16.63Zm0-18.35H114v-17.2h16.63Zm0-18.35H114v-17.2h16.63Zm0-18.35H114v-17.2h16.63Zm0-18.35H114v-17.2h16.63Zm17.77,91.74H131.8v-17.2h16.63Zm0-18.35H131.8v-17.2h16.63Zm0-18.35H131.8v-17.2h16.63Zm0-18.35H131.8v-17.2h16.63Zm0-18.35H131.8v-17.2h16.63Zm0-18.35H131.8v-17.2h16.63Zm17.77,91.74H149.57v-17.2H166.2Zm0-18.35H149.57v-17.2H166.2Zm0-18.35H149.57v-17.2H166.2Zm0-18.35H149.57v-17.2H166.2Zm0-18.35H149.57v-17.2H166.2Zm0-18.35H149.57v-17.2H166.2ZM184,244.46H167.35v-17.2H184Zm0-18.35H167.35v-17.2H184Zm0-18.35H167.35v-17.2H184Zm0-18.35H167.35v-17.2H184Zm0-18.35H167.35v-17.2H184Zm0-18.35H167.35v-17.2H184Zm17.77,91.74H185.12v-17.2h16.63Zm0-18.35H185.12v-17.2h16.63Zm0-18.35H185.12v-17.2h16.63Zm0-18.35H185.12v-17.2h16.63Zm0-18.35H185.12v-17.2h16.63Zm0-18.35H185.12v-17.2h16.63Zm17.78,91.74H202.89v-17.2h16.63Zm0-18.35H202.89v-17.2h16.63Zm0-18.35H202.89v-17.2h16.63Zm0-18.35H202.89v-17.2h16.63Zm0-18.35H202.89v-17.2h16.63Zm0-18.35H202.89v-17.2h16.63Zm17.77,91.74H220.67v-17.2H237.3Zm0-18.35H220.67v-17.2H237.3Zm0-18.35H220.67v-17.2H237.3Zm0-18.35H220.67v-17.2H237.3Zm0-18.35H220.67v-17.2H237.3Zm0-18.35H220.67v-17.2H237.3Zm17.77,91.74H238.44v-17.2h16.63Zm0-18.35H238.44v-17.2h16.63Zm0-18.35H238.44v-17.2h16.63Zm0-18.35H238.44v-17.2h16.63Zm0-18.35H238.44v-17.2h16.63Zm0-18.35H238.44v-17.2h16.63Zm17.78,91.74H256.22v-17.2h16.63Zm0-18.35H256.22v-17.2h16.63Zm0-18.35H256.22v-17.2h16.63Zm0-18.35H256.22v-17.2h16.63Zm0-18.35H256.22v-17.2h16.63Zm0-18.35H256.22v-17.2h16.63Zm17.77,91.74H274v-17.2h16.63Zm0-18.35H274v-17.2h16.63Zm0-18.35H274v-17.2h16.63Zm0-18.35H274v-17.2h16.63Zm0-18.35H274v-17.2h16.63Zm0-18.35H274v-17.2h16.63Zm17.77,91.74H291.76v-17.2h16.63Zm0-18.35H291.76v-17.2h16.63Zm0-18.35H291.76v-17.2h16.63Zm0-18.35H291.76v-17.2h16.63Zm0-18.35H291.76v-17.2h16.63Zm0-18.35H291.76v-17.2h16.63Zm17.77,91.74H309.54v-17.2h16.63Zm0-18.35H309.54v-17.2h16.63Zm0-18.35H309.54v-17.2h16.63Zm0-18.35H309.54v-17.2h16.63Zm0-18.35H309.54v-17.2h16.63Zm0-18.35H309.54v-17.2h16.63Zm17.77,91.74H327.31v-17.2h16.63Zm0-18.35H327.31v-17.2h16.63Zm0-18.35H327.31v-17.2h16.63Zm0-18.35H327.31v-17.2h16.63Zm0-18.35H327.31v-17.2h16.63Zm0-18.35H327.31v-17.2h16.63Zm17.77,91.74H345.09v-17.2h16.63Zm0-18.35H345.09v-17.2h16.63Zm0-18.35H345.09v-17.2h16.63Zm0-18.35H345.09v-17.2h16.63Zm0-18.35H345.09v-17.2h16.63Zm0-18.35H345.09v-17.2h16.63Zm17.77,91.74H362.86v-17.2h16.63Zm0-18.35H362.86v-17.2h16.63Zm0-18.35H362.86v-17.2h16.63Zm0-18.35H362.86v-17.2h16.63Zm0-18.35H362.86v-17.2h16.63Zm0-18.35H362.86v-17.2h16.63Zm17.77,91.74H380.63v-17.2h16.63Zm0-18.35H380.63v-17.2h16.63Zm0-18.35H380.63v-17.2h16.63Zm0-18.35H380.63v-17.2h16.63Zm0-18.35H380.63v-17.2h16.63Zm0-18.35H380.63v-17.2h16.63ZM415,244.46H398.41v-17.2H415Zm0-18.35H398.41v-17.2H415Zm0-18.35H398.41v-17.2H415Zm0-18.35H398.41v-17.2H415Zm0-18.35H398.41v-17.2H415Zm0-18.35H398.41v-17.2H415Zm17.77,91.74H416.18v-17.2h16.63Zm0-18.35H416.18v-17.2h16.63Zm0-18.35H416.18v-17.2h16.63Zm0-18.35H416.18v-17.2h16.63Zm0-18.35H416.18v-17.2h16.63Zm0-18.35H416.18v-17.2h16.63Zm17.77,91.74H434v-17.2h16.63Zm0-18.35H434v-17.2h16.63Zm0-18.35H434v-17.2h16.63Zm0-18.35H434v-17.2h16.63Zm0-18.35H434v-17.2h16.63Zm0-18.35H434v-17.2h16.63Zm17.77,91.74H451.73v-17.2h16.63Zm0-18.35H451.73v-17.2h16.63Zm0-18.35H451.73v-17.2h16.63Zm0-18.35H451.73v-17.2h16.63Zm0-18.35H451.73v-17.2h16.63Zm0-18.35H451.73v-17.2h16.63Zm17.77,91.74H469.5v-17.2h16.63Zm0-18.35H469.5v-17.2h16.63Zm0-18.35H469.5v-17.2h16.63Zm0-18.35H469.5v-17.2h16.63Zm0-18.35H469.5v-17.2h16.63Zm0-18.35H469.5v-17.2h16.63Zm17.77,91.74H487.28v-17.2H503.9Zm0-18.35H487.28v-17.2H503.9Zm0-18.35H487.28v-17.2H503.9Zm0-18.35H487.28v-17.2H503.9Zm0-18.35H487.28v-17.2H503.9Zm0-18.35H487.28v-17.2H503.9Z"/><g id="_Group_" data-name="&lt;Group&gt;"><path id="_Path_" data-name="&lt;Path&gt;" class="cls-19" d="M407.35,265.68h-5.28V224.95a15.7,15.7,0,0,1,31.41,0v8.87H428.2v-8.87a10.42,10.42,0,0,0-20.84,0Z"/></g><rect id="_Rectangle_3" data-name="&lt;Rectangle&gt;" class="cls-20" x="427.19" y="231.65" width="7.63" height="5.59"/><g id="_Group_2" data-name="&lt;Group&gt;"><path id="_Path_2" data-name="&lt;Path&gt;" class="cls-5" d="M402.73,259.68v-6.74a1.66,1.66,0,1,0-2.11,0v6.74a1.66,1.66,0,1,0,2.11,0Z"/><path id="_Path_3" data-name="&lt;Path&gt;" class="cls-5" d="M398.31,257.36H405a1.66,1.66,0,1,0,0-2.11h-6.74a1.66,1.66,0,1,0,0,2.11Z"/></g><circle id="_Path_4" data-name="&lt;Path&gt;" class="cls-20" cx="401.68" cy="256.31" r="2.64"/><circle id="_Path_5" data-name="&lt;Path&gt;" class="cls-21" cx="401.68" cy="256.31" r="1.05"/><rect class="cls-3" x="43.74" y="46.69" width="121.8" height="121.8"/><rect class="cls-11" x="56.28" y="69.76" width="43.94" height="85.81"/><rect class="cls-11" x="110.9" y="69.76" width="43.94" height="85.81"/><path class="cls-1" d="M56.28,69.76s10.39,85.81,43.94,85.81"/><path class="cls-1" d="M110.9,69.76s10.39,85.81,43.94,85.81"/><rect class="cls-3" x="165.53" y="46.69" width="121.8" height="121.8"/><rect class="cls-11" x="178.07" y="69.76" width="43.94" height="85.81"/><rect class="cls-11" x="232.7" y="69.76" width="43.94" height="85.81"/><path class="cls-1" d="M178.07,69.76s10.39,85.81,43.94,85.81"/><path class="cls-1" d="M232.7,69.76s10.39,85.81,43.94,85.81"/><circle class="cls-7" cx="100.21" cy="163.03" r="2.49"/><circle class="cls-7" cx="110.02" cy="163.03" r="2.49"/><circle class="cls-7" cx="222.65" cy="163.03" r="2.49"/><circle class="cls-7" cx="232.46" cy="163.03" r="2.49"/><circle class="cls-22" cx="576.98" cy="67.47" r="23"/><path class="cls-23" d="M583,66.71q0,7.19,0,14.39a.73.73,0,0,1-.44.79.76.76,0,0,1-.78-.19l-6.68-5.18c-.9-.7-1.8-1.41-2.72-2.1a.92.92,0,0,0-.52-.17h-8.26c-.73,0-.93-.21-.93-.95q0-6.6,0-13.21c0-.75.2-.94.93-.95h8.22a1,1,0,0,0,.57-.2q4.7-3.62,9.37-7.26a.77.77,0,0,1,.84-.17.72.72,0,0,1,.38.76Q583,59.48,583,66.71Z"/><path class="cls-23" d="M585.8,74.55c0-.58,0-1.14,0-1.7,0-.08.18-.2.29-.23a6.18,6.18,0,0,0,.05-11.92c-.28-.08-.38-.19-.36-.48,0-.49,0-1,0-1.47a8,8,0,0,1,0,15.8Z"/><path class="cls-23" d="M585.8,71.78c0-.68,0-1.31,0-1.95,0-.09.11-.19.19-.25a3.25,3.25,0,0,0,0-5.21.43.43,0,0,1-.17-.26c0-.63,0-1.25,0-1.88,1.49.19,3.12,2.3,3.33,4.26A5.14,5.14,0,0,1,585.8,71.78Z"/><circle class="cls-22" cx="330.98" cy="405.47" r="23"/><path class="cls-23" d="M337,404.71q0,7.19,0,14.39a.73.73,0,0,1-.44.79.76.76,0,0,1-.78-.19l-6.68-5.18c-.9-.7-1.8-1.41-2.72-2.1a.92.92,0,0,0-.52-.17h-8.26c-.73,0-.93-.21-.93-.95q0-6.6,0-13.21c0-.75.2-.94.93-.95h8.22a1,1,0,0,0,.57-.2q4.7-3.62,9.37-7.26a.77.77,0,0,1,.84-.17.72.72,0,0,1,.38.76Q337,397.48,337,404.71Z"/><path class="cls-23" d="M339.8,412.55c0-.58,0-1.14,0-1.7,0-.08.18-.2.29-.23a6.18,6.18,0,0,0,.05-11.92c-.28-.08-.38-.19-.36-.48,0-.49,0-1,0-1.47a8,8,0,0,1,0,15.8Z"/><path class="cls-23" d="M339.8,409.78c0-.68,0-1.31,0-1.95,0-.09.11-.19.19-.25a3.25,3.25,0,0,0,0-5.21.43.43,0,0,1-.17-.26c0-.63,0-1.25,0-1.88,1.49.19,3.12,2.3,3.33,4.26A5.14,5.14,0,0,1,339.8,409.78Z"/><circle class="cls-22" cx="211.98" cy="409.47" r="23"/><path class="cls-23" d="M218,408.71q0,7.19,0,14.39a.73.73,0,0,1-.44.79.76.76,0,0,1-.78-.19l-6.68-5.18c-.9-.7-1.8-1.41-2.72-2.1a.92.92,0,0,0-.52-.17h-8.26c-.73,0-.93-.21-.93-.95q0-6.6,0-13.21c0-.75.2-.94.93-.95h8.22a1,1,0,0,0,.57-.2q4.7-3.62,9.37-7.26a.77.77,0,0,1,.84-.17.72.72,0,0,1,.38.76Q218,401.48,218,408.71Z"/><path class="cls-23" d="M220.8,416.55c0-.58,0-1.14,0-1.7,0-.08.18-.2.29-.23a6.18,6.18,0,0,0,.05-11.92c-.28-.08-.38-.19-.36-.48,0-.49,0-1,0-1.47a8,8,0,0,1,0,15.8Z"/><path class="cls-23" d="M220.8,413.78c0-.68,0-1.31,0-1.95,0-.09.11-.19.19-.25a3.25,3.25,0,0,0,0-5.21.43.43,0,0,1-.17-.26c0-.63,0-1.25,0-1.88,1.49.19,3.12,2.3,3.33,4.26A5.14,5.14,0,0,1,220.8,413.78Z"/><circle class="cls-22" cx="382.98" cy="249.47" r="23"/><path class="cls-23" d="M389,248.71q0,7.19,0,14.39a.73.73,0,0,1-.44.79.76.76,0,0,1-.78-.19l-6.68-5.18c-.9-.7-1.8-1.41-2.72-2.1a.92.92,0,0,0-.52-.17h-8.26c-.73,0-.93-.21-.93-.95q0-6.6,0-13.21c0-.75.2-.94.93-.95h8.22a1,1,0,0,0,.57-.2q4.7-3.62,9.37-7.26a.77.77,0,0,1,.84-.17.72.72,0,0,1,.38.76Q389,241.48,389,248.71Z"/><path class="cls-23" d="M391.8,256.55c0-.58,0-1.14,0-1.7,0-.08.18-.2.29-.23a6.18,6.18,0,0,0,.05-11.92c-.28-.08-.38-.19-.36-.48,0-.49,0-1,0-1.47a8,8,0,0,1,0,15.8Z"/><path class="cls-23" d="M391.8,253.78c0-.68,0-1.31,0-1.95,0-.09.11-.19.19-.25a3.25,3.25,0,0,0,0-5.21.43.43,0,0,1-.17-.26c0-.63,0-1.25,0-1.88,1.49.19,3.12,2.3,3.33,4.26A5.14,5.14,0,0,1,391.8,253.78Z"/></g></g></svg>