<svg xmlns="http://www.w3.org/2000/svg" viewBox="0 0 659 460.7"><defs><style>.cls-1{fill:#f7adc3;}.cls-2{fill:#9f6138;}.cls-15,.cls-3{fill:#8b2537;}.cls-4{fill:#1c0b0f;opacity:0.4;}.cls-5{fill:#721328;}.cls-6{fill:#9a8578;}.cls-12,.cls-7{fill:#8c3c1f;}.cls-8{fill:#ffebc6;}.cls-9{fill:#ecd7b1;}.cls-10{fill:#0e916f;}.cls-11{fill:#006834;}.cls-12,.cls-13,.cls-15,.cls-16{fill-rule:evenodd;}.cls-13,.cls-18{fill:#1c2834;}.cls-14{fill:#e08b54;}.cls-16,.cls-17{fill:#521220;}.cls-19{fill:#fffef9;}.cls-20{fill:#fac8c9;}.cls-21{fill:#fff;}.cls-22,.cls-24{fill:none;stroke-miterlimit:10;}.cls-22{stroke:#808184;stroke-width:5.06px;}.cls-23{fill:#fecf08;}.cls-24{stroke:#ffffec;stroke-width:0.82px;}</style></defs><title>Asset 3</title><g id="Layer_2" data-name="Layer 2"><g id="Glavno_Besedilo" data-name="Glavno Besedilo"><rect class="cls-1" x="0.85" width="658.15" height="363.21"/><rect class="cls-2" y="363.21" width="658.15" height="97.49"/><path class="cls-3" d="M521.24,361c0,5.09-3.87,9.26-8.35,9.26H243.45c-4.48,0-8.14-4.17-8.14-9.26V263.86c0-5.09,3.66-9.25,8.14-9.25H512.89c4.48,0,8.35,4.16,8.35,9.25Z"/><path class="cls-4" d="M521.24,367.17c0,1.71-3.87,3.11-8.35,3.11H243.45c-4.48,0-8.14-1.4-8.14-3.11V334.52c0-1.71,3.66.13,8.15.13,0,0,14.94-2.83,20-3.24a385.77,385.77,0,0,1,45.24,0c6.13.47,18.31,2.83,24.46,2.78,5.33-.05,16.49-2.33,22-2.78,10.06-.82,30.28-.66,40.35,0,7.05.47,21.07,2.79,28.13,2.78,6.85,0,20.46-2.32,27.31-2.78a348.45,348.45,0,0,1,36.28,0c6.45.47,25.78,3.71,25.78,3.71,4.48,0,8.25-2.31,8.25-.6Z"/><rect class="cls-5" x="229.76" y="343.91" width="296.57" height="37.94"/><path class="cls-5" d="M542.23,381.84h-33V275.89s27.18-6.62,33,0C558.73,294.62,542.23,381.84,542.23,381.84Z"/><path class="cls-5" d="M251.5,381.84H218.59s-16.56-87.22-.05-105.95c5.83-6.62,33,0,33,0Z"/><path class="cls-5" d="M329.92,334.19c-.95-6.55-1.45-13.11-1.81-19.66s-.5-13.11-.5-19.67.16-13.11.49-19.66.86-13.11,1.82-19.66c1,6.55,1.47,13.1,1.82,19.66s.5,13.11.5,19.66-.16,13.11-.5,19.67S330.88,327.64,329.92,334.19Z"/><path class="cls-5" d="M425.7,335.58c-1-6.56-1.46-13.11-1.82-19.67s-.49-13.1-.5-19.66.16-13.11.5-19.66.85-13.11,1.82-19.67c1,6.56,1.46,13.11,1.82,19.67s.49,13.11.49,19.66-.16,13.11-.5,19.66S426.65,329,425.7,335.58Z"/><path class="cls-6" d="M623.45,299.8c0,1.11-14.91,2-33.31,2s-33.31-.89-33.31-2,14.91-2,33.31-2S623.45,298.69,623.45,299.8Z"/><path class="cls-7" d="M625.3,378.61c0,2.72-15.32,4.93-34.23,4.93s-34.24-2.21-34.24-4.93,15.33-4.94,34.24-4.94S625.3,375.88,625.3,378.61Z"/><path class="cls-8" d="M592.69,319.54c7.63-5.32,20.82-8.33,23.82-6.94a36,36,0,0,1,5.58,3.78l1.36-16.27H556.83l1.79,18.66C566.25,320.3,586.53,323.83,592.69,319.54Z"/><path class="cls-9" d="M584.59,341.75c2.31,7.17,15,1.15,17.58-1.39s12.05-13.14,15.5-12.81c.93.09,2.15.31,3.44.57l1-11.74a36,36,0,0,0-5.58-3.78c-3-1.39-16.19,1.62-23.82,6.94-6.16,4.29-26.44.76-34.07-.77l1.69,17.69C567.36,336.19,582.81,336.23,584.59,341.75Z"/><path class="cls-8" d="M604.72,361.87c-5.79,6.94-22,8.56-25.22,6.48-3.08-2-5.55-13.4-17.56-14.88l2.29,23.9h.11c-.06.05-.11.1-.11.16,0,1.1,7.51,2,25.91,2s26.84-.9,26.84-2c0-.06-.05-.11-.11-.16H617l1.69-20.19C614.38,357,608.23,357.66,604.72,361.87Z"/><path class="cls-8" d="M617.67,327.55c-3.45-.33-12.95,10.26-15.5,12.81s-15.27,8.56-17.58,1.39c-1.78-5.52-17.23-5.56-24.28-5.29l1.63,17c12,1.48,14.48,12.9,17.56,14.88,3.24,2.08,19.43.46,25.22-6.48,3.51-4.21,9.66-4.84,13.95-4.69l2.44-29.06C619.82,327.86,618.6,327.64,617.67,327.55Z"/><path class="cls-10" d="M603.39,299.8s-6-53.23,43.05-66.65"/><path class="cls-11" d="M565.94,230.11s49.46,20.59,37.36,70"/><path class="cls-11" d="M604.74,278.81s-6-53.22,43-66.65"/><path class="cls-10" d="M567.42,208.81s49.45,20.59,37.35,70"/><polygon class="cls-12" points="138.52 375.11 94.92 375.11 51.33 375.11 34.1 395.13 94.92 395.13 155.74 395.13 138.52 375.11"/><polygon class="cls-12" points="469.92 401.95 384.1 401.95 298.29 401.95 264.39 421.97 384.1 421.97 503.81 421.97 469.92 401.95"/><polygon class="cls-13" points="459.71 375.11 383.06 375.11 306.42 375.11 276.14 395.13 383.06 395.13 489.99 395.13 459.71 375.11"/><rect class="cls-14" x="123.85" y="367.8" width="4.63" height="18.7" transform="translate(-118.02 63.25) rotate(-19.38)"/><rect class="cls-14" x="63.22" y="367.8" width="4.63" height="18.7" transform="translate(169.5 8.74) rotate(25.62)"/><path class="cls-15" d="M112.54,347.44H77.11a13.6,13.6,0,0,1-13.45-11.61L54,270.2A13.6,13.6,0,0,1,67.4,254.61H122a13.6,13.6,0,0,1,13.46,15.55L126,335.79A13.6,13.6,0,0,1,112.54,347.44Z"/><path class="cls-5" d="M46.55,360.58h96.74a0,0,0,0,1,0,0v0a10.62,10.62,0,0,1-10.62,10.62H57.17a10.62,10.62,0,0,1-10.62-10.62v0a0,0,0,0,1,0,0Z"/><path class="cls-16" d="M76.89,338.67h35.43c6.74,0,12.47,1.36,13.46,3.2l9.7,18c1.22,2.26-5.15,4.28-13.45,4.28H67.4c-8.28,0-14.64-2-13.46-4.27l9.49-18C64.4,340,70.13,338.67,76.89,338.67Z"/><path class="cls-5" d="M132.78,313.37h0a10.51,10.51,0,0,1,10.51,10.51v40.31a0,0,0,0,1,0,0H123.16a0,0,0,0,1,0,0V323A9.62,9.62,0,0,1,132.78,313.37Z"/><path class="cls-5" d="M46.55,313.37H66.69a0,0,0,0,1,0,0v40.31a10.51,10.51,0,0,1-10.51,10.51h0a9.62,9.62,0,0,1-9.62-9.62V313.37A0,0,0,0,1,46.55,313.37Z" transform="translate(113.24 677.56) rotate(-180)"/><circle class="cls-17" cx="71.32" cy="271.16" r="3"/><circle class="cls-17" cx="118.84" cy="271.16" r="3"/><circle class="cls-17" cx="112.24" cy="283.54" r="3"/><circle class="cls-17" cx="95.08" cy="270.75" r="3"/><circle class="cls-17" cx="78.45" cy="283.54" r="3"/><rect class="cls-18" x="282.85" y="402.79" width="13.42" height="13.42"/><rect class="cls-18" x="465.92" y="402.79" width="13.42" height="13.42"/><rect class="cls-19" x="53.8" y="101.04" width="552.88" height="58.98"/><rect class="cls-20" x="69.75" y="112.86" width="25.93" height="35.34"/><rect class="cls-20" x="137.79" y="119.34" width="25.93" height="22.38"/><rect class="cls-21" x="167.74" y="359.99" width="27.41" height="3.73"/><line class="cls-22" x1="181.45" y1="359.99" x2="181.45" y2="246.7"/><polygon class="cls-23" points="197.32 212.99 181.45 212.99 165.57 212.99 153.35 251.7 181.45 251.7 209.54 251.7 197.32 212.99"/><circle class="cls-24" cx="364.38" cy="408.35" r="7.63"/><circle class="cls-24" cx="385" cy="408.35" r="7.63"/><path class="cls-24" d="M372,408.35s1.85-3.51,5.36,0"/><path class="cls-24" d="M392.63,408.35l6.91-3.91a2.7,2.7,0,0,1,4,2.35h0"/><path class="cls-24" d="M356.75,408.35l-6.91-3.91a2.69,2.69,0,0,0-4,2.35h0"/><circle class="cls-24" cx="86.38" cy="333.35" r="7.63"/><circle class="cls-24" cx="107" cy="333.35" r="7.63"/><path class="cls-24" d="M94,333.35s1.85-3.51,5.36,0"/><path class="cls-24" d="M114.63,333.35l6.91-3.91a2.7,2.7,0,0,1,4,2.35h0"/><path class="cls-24" d="M78.75,333.35l-6.91-3.91a2.69,2.69,0,0,0-4,2.35h0"/><rect class="cls-18" x="276.14" y="395.13" width="213.85" height="7.66"/></g></g></svg>