<svg xmlns="http://www.w3.org/2000/svg" xmlns:xlink="http://www.w3.org/1999/xlink" viewBox="0 0 277.84 765.86"><defs><style>.cls-1,.cls-16,.cls-17{fill:none;}.cls-1{stroke:#912c46;stroke-width:5.67px;}.cls-1,.cls-16,.cls-17,.cls-7{stroke-miterlimit:10;}.cls-2{clip-path:url(#clip-path);}.cls-3{fill:#dce6e0;}.cls-4{fill:#fbc5aa;}.cls-5{fill:#d8dcec;}.cls-6,.cls-7{fill:#912c46;}.cls-7{stroke:#78121c;stroke-width:0.95px;}.cls-8{fill:#007dac;}.cls-9{fill:#eed1bf;}.cls-10{fill:#44515c;}.cls-11{fill:#78121c;}.cls-12{fill:#fff;}.cls-13{fill:#514835;}.cls-14{fill:#ebaf88;}.cls-15{fill:#ffe6b4;}.cls-16,.cls-17{stroke:#231f20;}.cls-16{stroke-width:0.62px;}.cls-17{stroke-width:0.56px;}.cls-18{fill:#ffebc6;}.cls-19{fill:#301812;}.cls-20{fill:#d55227;}</style><clipPath id="clip-path" transform="translate(34.01)"><circle class="cls-1" cx="111.83" cy="111.83" r="109"/></clipPath></defs><g id="Layer_2" data-name="Layer 2"><g id="Avatar"><g class="cls-2"><ellipse class="cls-3" cx="138.92" cy="750.03" rx="138.92" ry="15.83"/><path class="cls-4" d="M75.27,171.43s15.63-1.17,16.35-20H130s1.57,24.55,19.87,20l-1.65,14.1-37.39,14.89-32.48-8.71L70.43,176Z" transform="translate(34.01)"/><path class="cls-5" d="M225.18,382.93l-48.77-2.13v-157s11.27-65,28.6-29.73Q219.41,292.83,225.18,382.93Z" transform="translate(34.01)"/><path class="cls-5" d="M.26,382.93,49,380.8v-157s-11.27-65-28.6-29.73Q6,292.83.26,382.93Z" transform="translate(34.01)"/><path class="cls-6" d="M166.25,171.43H150c-5.32,13.79-20,23.71-37.3,23.71s-32-9.92-37.3-23.71H59.19c-19.65,0-51.49,20.14-38.63,21.59,5.41.61,12.11,8.26,18.35,27.51V393.39H186.52V220.53c6.25-19.25,12.95-26.9,18.36-27.51C217.74,191.57,185.89,171.43,166.25,171.43Z" transform="translate(34.01)"/><line class="cls-7" x1="146.73" y1="393.39" x2="146.73" y2="195.14"/><rect class="cls-8" x="72.92" y="393.39" width="147.48" height="49.8"/><polygon class="cls-8" points="146.73 442.83 122.34 728.32 94.45 728.32 72.92 442.83 146.73 442.83"/><polygon class="cls-8" points="220.4 442.83 196.14 728.32 168.41 728.32 146.99 442.83 220.4 442.83"/><path class="cls-9" d="M14.59,382.27S9.07,425.83,38.91,430.2v-49Z" transform="translate(34.01)"/><path class="cls-9" d="M210.72,382.33s5.52,43.56-24.32,47.93v-49Z" transform="translate(34.01)"/><path class="cls-10" d="M134.4,728.32v21.54h72.08s9.51-21.59-34-17.55c0,0-10.59-1.88-9.27-14.22" transform="translate(34.01)"/><path class="cls-10" d="M88.22,728.32v21.54H16.15s-9.51-21.59,34-17.55c0,0,10.6-1.88,9.28-14.22" transform="translate(34.01)"/><circle class="cls-11" cx="159.1" cy="231.63" r="3.72"/><circle class="cls-11" cx="134.74" cy="231.63" r="3.72"/><circle class="cls-11" cx="159.1" cy="259.68" r="3.72"/><circle class="cls-11" cx="134.74" cy="259.68" r="3.72"/><circle class="cls-11" cx="159.1" cy="287.72" r="3.72"/><circle class="cls-11" cx="134.74" cy="287.72" r="3.72"/><circle class="cls-11" cx="159.1" cy="315.76" r="3.72"/><circle class="cls-11" cx="134.74" cy="315.76" r="3.72"/><circle class="cls-11" cx="159.1" cy="343.8" r="3.72"/><circle class="cls-11" cx="134.74" cy="343.8" r="3.72"/><path id="Koza" class="cls-9" d="M165.79,102.39A133.55,133.55,0,0,1,158.37,128,49.25,49.25,0,0,1,61,126.05a155.45,155.45,0,0,1-6.64-24.12c-2.46-12.67,3.11-14.27,6.23-14.23V84.76A44.43,44.43,0,0,1,105,40.33h9.66a44.43,44.43,0,0,1,44.43,44.43v4.42C161.56,88.88,168.35,89.19,165.79,102.39Z" transform="translate(34.01)"/><path class="cls-12" d="M99.16,96c.09-7.57-23.45-7.86-23.54-.28C75.54,102.57,99.08,102.85,99.16,96Z" transform="translate(34.01)"/><path class="cls-12" d="M146.47,96c.1-7.57-23.44-7.86-23.54-.28C122.85,102.57,146.39,102.85,146.47,96Z" transform="translate(34.01)"/><circle class="cls-13" cx="120.66" cy="95.59" r="3.89"/><circle class="cls-13" cx="168.71" cy="95.59" r="3.89"/><path id="Oci" class="cls-14" d="M74.15,96.17s10-10,27.7,0C101.85,96.17,86.46,79.15,74.15,96.17Z" transform="translate(34.01)"/><path id="Oci-2" data-name="Oci" class="cls-14" d="M121.29,96.17s10-10,27.69,0C149,96.17,133.6,79.15,121.29,96.17Z" transform="translate(34.01)"/><path class="cls-9" d="M113.3,92.68l-.4,1.56C112.88,93.17,113,92.59,113.3,92.68Z" transform="translate(34.01)"/><path id="Nos" class="cls-14" d="M112.84,125.4a19.47,19.47,0,0,1-7.44-2.05l.52-1c2.1,1.07,8,3.28,9.91.75.32-.84-.76-8-1.64-13.82-1.86-12.28-2.3-16.22-1.43-17a.73.73,0,0,1,.71-.14l-.34,1.1a.4.4,0,0,0,.44-.15c-.5,1,.81,9.67,1.76,16,1.62,10.7,2,13.93,1.42,14.69A4.64,4.64,0,0,1,112.84,125.4Z" transform="translate(34.01)"/><g id="Obrve"><path class="cls-15" d="M102.36,87.88c-16.77-8.46-24.38-.64-24.69-.3l-2.13-2c.37-.4,9.28-9.82,28.12-.31Z" transform="translate(34.01)"/></g><g id="Obrve-2" data-name="Obrve"><g id="Obrve-3" data-name="Obrve"><path id="Obrve-4" data-name="Obrve" class="cls-15" d="M148.33,89c-16.89-8.53-24.6-.4-24.68-.32l-2.13-1.94c.37-.41,9.28-9.82,28.12-.32Z" transform="translate(34.01)"/></g></g><g id="Ocala"><path class="cls-16" d="M103.65,96.73s10.32-7.8,17.16,0" transform="translate(34.01)"/><line class="cls-16" x1="97.36" y1="89.91" x2="108.12" y2="95.59"/><line class="cls-16" x1="195.11" y1="89.69" x2="184.36" y2="96.16"/><circle class="cls-17" cx="122.89" cy="96.73" r="14.77"/><circle class="cls-17" cx="169.59" cy="96.73" r="14.77"/></g><path id="Lasje1" class="cls-18" d="M68.16,99.49S64.82,75,75.64,65.29A14.38,14.38,0,0,1,79,63.05a11.75,11.75,0,0,1,2.18-.77c4-1.13,8.66-.56,12.82-.3,1.07.11,2.11.21,3.12.33C116.38,64.4,126.33,68,126.33,68s5.78-5.55-3.74-8.63,15.47-.38,22,13.28a93,93,0,0,1,8,26.8l5.6,1.51s14.88-38.55-2.81-51.8c-9.7-7.26-21.71-16.44-33.6-19.73-1.19-.33-2.37-.6-3.56-.81a31.44,31.44,0,0,0-3.17-.46,30.72,30.72,0,0,0-3.18-.11,26.53,26.53,0,0,0-6.46.57c-1.1.25-2.17.55-3.22.9s-2.07.75-3.07,1.19c-9.91,5-18.56,13.08-29.46,15.74-1,.31-2.08.66-3.07,1-4.93,1.94-8.84,4.93-9.18,11.16-.24,1-.45,1.92-.6,2.9a25.45,25.45,0,0,0-.23,5.91c0,.72.09,1.45.08,2.21C56.61,78,59.16,88.17,68.16,99.49Z" transform="translate(34.01)"/><path id="Brki2" class="cls-18" d="M120.38,126.77s18.2,4.35,15.57,23.4S112,168.74,112,168.74s-25.43,1.47-26.06-18.57,12.57-22.49,15.66-23.4Z" transform="translate(34.01)"/><path class="cls-19" d="M129.93,133.43a21.59,21.59,0,0,1-7.34,10.91c-1.39-6.86-26.65-4.2-26.74-4.19A31.84,31.84,0,0,1,92,133.43Z" transform="translate(34.01)"/><path class="cls-20" d="M122.59,144.34h0a19,19,0,0,1-10.44,3.6c-7.92.47-13.15-3.77-16.29-7.79C95.94,140.14,121.2,137.48,122.59,144.34Z" transform="translate(34.01)"/><polygon class="cls-19" points="129.85 140.15 129.86 140.15 129.86 140.15 129.85 140.15"/><polygon class="cls-12" points="126 133.43 127.08 135.82 163.13 135.82 163.94 133.43 126 133.43"/></g><circle class="cls-1" cx="145.84" cy="111.83" r="109"/></g></g></svg>