<svg xmlns="http://www.w3.org/2000/svg" xmlns:xlink="http://www.w3.org/1999/xlink" viewBox="0 0 277.84 769.86"><defs><style>.cls-1,.cls-14,.cls-15{fill:none;}.cls-1{stroke:#912c46;stroke-width:5.67px;}.cls-1,.cls-10,.cls-11,.cls-14,.cls-15,.cls-18{stroke-miterlimit:10;}.cls-2{clip-path:url(#clip-path);}.cls-3{fill:#dce6e0;}.cls-4{fill:#fbc5aa;}.cls-5{fill:#d8dcec;}.cls-10,.cls-11,.cls-6{fill:#eed1bf;}.cls-7{fill:#fff;}.cls-8{fill:#514835;}.cls-9{fill:#ebaf82;}.cls-10{stroke:#ebaf82;stroke-width:1.15px;}.cls-11{stroke:#ffe6b4;stroke-width:2.89px;}.cls-12{fill:#5a3b34;}.cls-13{fill:#d55225;}.cls-14,.cls-15{stroke:#231f20;}.cls-14{stroke-width:0.62px;}.cls-15{stroke-width:0.56px;}.cls-16{fill:#ffebc6;}.cls-17,.cls-18{fill:#912c46;}.cls-18{stroke:#78121c;stroke-width:0.95px;}.cls-19{fill:#007dac;}.cls-20{fill:#44515c;}.cls-21{fill:#78121c;}</style><clipPath id="clip-path" transform="translate(33.01)"><circle class="cls-1" cx="111.83" cy="111.83" r="109"/></clipPath></defs><g id="Layer_2" data-name="Layer 2"><g id="Avatar"><g class="cls-2"><ellipse class="cls-3" cx="138.92" cy="754.03" rx="138.92" ry="15.83"/><path class="cls-4" d="M76.27,175.43s15.63-1.17,16.35-20H131s1.57,24.55,19.87,20l-1.65,14.1-37.39,14.89-32.48-8.71L71.43,180Z" transform="translate(33.01)"/><path class="cls-5" d="M226.18,386.93l-48.77-2.13v-157s11.27-65,28.6-29.73Q220.41,296.83,226.18,386.93Z" transform="translate(33.01)"/><path class="cls-6" d="M64.5,87.94s-11.49-3.22-8.15,14S64.5,129.8,64.5,129.8Z" transform="translate(33.01)"/><path class="cls-6" d="M140,40.33h9.66a44.43,44.43,0,0,1,44.43,44.43v35A49.26,49.26,0,0,1,144.85,169h0a49.26,49.26,0,0,1-49.26-49.26v-35A44.43,44.43,0,0,1,140,40.33Z"/><path class="cls-7" d="M101.19,96c.09-7.57-23.45-7.86-23.54-.28C77.57,102.57,101.11,102.85,101.19,96Z" transform="translate(33.01)"/><path class="cls-7" d="M148.51,96c.09-7.57-23.45-7.86-23.55-.28C124.88,102.57,148.42,102.85,148.51,96Z" transform="translate(33.01)"/><circle class="cls-8" cx="121.69" cy="95.59" r="3.89"/><circle class="cls-8" cx="169.74" cy="95.59" r="3.89"/><path class="cls-9" d="M76.19,96.17s10-10,27.69,0C103.88,96.17,88.5,79.15,76.19,96.17Z" transform="translate(33.01)"/><path class="cls-9" d="M123.32,96.17s10-10,27.7,0C151,96.17,135.63,79.15,123.32,96.17Z" transform="translate(33.01)"/><path class="cls-10" d="M107.69,122.84s8,4,10.64.58c1.13-1.49-5-31.36-3-30.73" transform="translate(33.01)"/><path class="cls-11" d="M78.64,86.6s8.32-9.13,26.4,0" transform="translate(33.01)"/><path class="cls-11" d="M124.62,87.7s8.32-9.12,26.4,0" transform="translate(33.01)"/><path class="cls-12" d="M132,133.43a20.58,20.58,0,0,1-7.34,10.91c-1.39-6.86-26.65-4.2-26.74-4.19A26.59,26.59,0,0,1,94,133.43Z" transform="translate(33.01)"/><path class="cls-13" d="M124.62,144.34h0a19,19,0,0,1-10.44,3.6c-7.92.47-13.15-3.77-16.29-7.79C98,140.14,123.23,137.48,124.62,144.34Z" transform="translate(33.01)"/><polygon class="cls-12" points="130.89 140.15 130.89 140.15 130.89 140.15 130.89 140.15"/><path class="cls-6" d="M160.23,89.34s10.71-3,7.59,13.06-7.59,26-7.59,26Z" transform="translate(33.01)"/><polygon class="cls-7" points="127.03 133.43 128.11 135.82 164.16 135.82 164.97 133.43 127.03 133.43"/><path class="cls-14" d="M105.68,96.73s10.32-7.8,17.16,0" transform="translate(33.01)"/><line class="cls-14" x1="98.4" y1="89.91" x2="109.15" y2="95.59"/><line class="cls-14" x1="196.14" y1="89.69" x2="185.39" y2="96.16"/><circle class="cls-15" cx="123.92" cy="96.73" r="14.77"/><circle class="cls-15" cx="170.62" cy="96.73" r="14.77"/><path class="cls-16" d="M70.19,99.49S66.85,75,77.67,65.29A14.38,14.38,0,0,1,81,63.05a11.75,11.75,0,0,1,2.18-.77c4-1.13,8.66-.56,12.82-.3,1.07.11,2.11.21,3.12.33C118.41,64.4,128.36,68,128.36,68s5.78-5.55-3.74-8.63,15.48-.38,22,13.28a93.41,93.41,0,0,1,8,26.8l5.6,1.51s14.87-38.55-2.82-51.8c-9.7-7.26-21.71-16.44-33.6-19.73-1.18-.33-2.37-.6-3.56-.81a31,31,0,0,0-3.17-.46,30.72,30.72,0,0,0-3.18-.11,26.53,26.53,0,0,0-6.46.57c-1.1.25-2.17.55-3.22.9s-2.07.75-3.07,1.19c-9.91,5-18.56,13.08-29.46,15.74-1,.31-2.08.66-3.07,1-4.93,1.94-8.84,4.93-9.17,11.16a28.73,28.73,0,0,0-.61,2.9,25.45,25.45,0,0,0-.23,5.91c0,.72.09,1.45.08,2.21C58.64,78,61.2,88.17,70.19,99.49Z" transform="translate(33.01)"/><path class="cls-5" d="M1.26,386.93,50,384.8v-157s-11.27-65-28.6-29.73Q7,296.83,1.26,386.93Z" transform="translate(33.01)"/><path class="cls-17" d="M167.25,175.43H151c-5.32,13.79-20,23.71-37.3,23.71s-32-9.92-37.3-23.71H60.19c-19.65,0-51.49,20.14-38.63,21.59,5.41.61,12.11,8.26,18.35,27.51V397.39H187.52V224.53c6.25-19.25,12.95-26.9,18.36-27.51C218.74,195.57,186.89,175.43,167.25,175.43Z" transform="translate(33.01)"/><line class="cls-18" x1="146.73" y1="397.39" x2="146.73" y2="199.14"/><rect class="cls-19" x="72.92" y="397.39" width="147.48" height="49.8"/><polygon class="cls-19" points="146.73 446.83 122.34 732.32 94.45 732.32 72.92 446.83 146.73 446.83"/><polygon class="cls-19" points="220.4 446.83 196.14 732.32 168.41 732.32 146.99 446.83 220.4 446.83"/><path class="cls-6" d="M15.59,386.27s-5.52,43.56,24.32,47.93v-49Z" transform="translate(33.01)"/><path class="cls-6" d="M211.72,386.33s5.52,43.56-24.32,47.93v-49Z" transform="translate(33.01)"/><path class="cls-20" d="M135.4,732.32v21.54h72.08s9.51-21.59-34-17.55c0,0-10.59-1.88-9.27-14.22" transform="translate(33.01)"/><path class="cls-20" d="M89.22,732.32v21.54H17.15s-9.51-21.59,34-17.55c0,0,10.6-1.88,9.28-14.22" transform="translate(33.01)"/><circle class="cls-21" cx="159.1" cy="235.63" r="3.72"/><circle class="cls-21" cx="134.74" cy="235.63" r="3.72"/><circle class="cls-21" cx="159.1" cy="263.68" r="3.72"/><circle class="cls-21" cx="134.74" cy="263.68" r="3.72"/><circle class="cls-21" cx="159.1" cy="291.72" r="3.72"/><circle class="cls-21" cx="134.74" cy="291.72" r="3.72"/><circle class="cls-21" cx="159.1" cy="319.76" r="3.72"/><circle class="cls-21" cx="134.74" cy="319.76" r="3.72"/><circle class="cls-21" cx="159.1" cy="347.8" r="3.72"/><circle class="cls-21" cx="134.74" cy="347.8" r="3.72"/></g><circle class="cls-1" cx="144.84" cy="111.83" r="109"/></g></g></svg>