<svg xmlns="http://www.w3.org/2000/svg" viewBox="0 0 277.84 678.22"><defs><style>.cls-1{fill:#fcc5aa;}.cls-2{fill:#dce6e0;}.cls-3{fill:#d9dceb;}.cls-4{fill:#00a881;}.cls-17,.cls-18,.cls-5{fill:none;stroke-miterlimit:10;}.cls-5{stroke:#499086;stroke-width:0.95px;}.cls-6{fill:#017dad;}.cls-7{fill:#eed1bf;}.cls-8{fill:#44515d;}.cls-9{fill:#499086;}.cls-10{fill:#ffebc6;}.cls-11{fill:#fff;}.cls-12{fill:#524935;}.cls-13{fill:#ebaf88;}.cls-14{fill:#ffe6b4;}.cls-15{fill:#301812;}.cls-16{fill:#d55227;}.cls-17,.cls-18{stroke:#231f20;}.cls-17{stroke-width:0.62px;}.cls-18{stroke-width:0.56px;}</style></defs><g id="Layer_2" data-name="Layer 2"><g id="Layer_1-2" data-name="Layer 1"><path id="Vrat" class="cls-1" d="M184,141.76l-.21.53c-5.49,13.54-20,23.2-37.1,23.2-17.29,0-32-9.91-37.3-23.71h-.15a18.31,18.31,0,0,0,12.53-7.4,18,18,0,0,0,2-3.72,25.58,25.58,0,0,0,1.79-8.83H164a36.91,36.91,0,0,0,1.89,8.82c1.18,3.37,3.09,6.95,6.14,9.24C174.87,142.05,178.86,143.06,184,141.76Z"/><ellipse class="cls-2" cx="138.92" cy="662.38" rx="138.92" ry="15.83"/><path class="cls-3" d="M259.18,353.29l-48.77-2.13v-157s11.28-65,28.6-29.73Q253.41,263.17,259.18,353.29Z"/><path class="cls-3" d="M34.27,353.29,83,351.16v-157s-11.28-65-28.6-29.73Q40,263.17,34.27,353.29Z"/><path id="Pulover" class="cls-4" d="M238.89,163.35l-.41.06c-5.35.94-11.87,8.69-17.95,27.46V363.72H72.92V190.87c-6.09-18.77-12.6-26.52-18-27.46l-.41-.06c-12.85-1.45,19-21.59,38.64-21.59h16.22c5.33,13.8,20,23.71,37.3,23.71,17.08,0,31.61-9.66,37.1-23.2.08-.17.14-.34.21-.51h16.22C219.9,141.76,251.74,161.9,238.89,163.35Z"/><line id="Zadrga" class="cls-5" x1="146.73" y1="363.75" x2="146.73" y2="165.49"/><polygon id="Hlace" class="cls-6" points="220.4 363.74 220.4 413.55 197.23 630.45 168.41 640.67 146.99 413.55 146.73 413.55 122.34 640.67 122.23 640.67 93.48 630.48 72.92 413.55 72.92 363.74 220.4 363.74"/><path id="Koza" class="cls-7" d="M48.6,352.63s-5.53,43.55,24.32,47.93v-49Z"/><path id="Koza-2" data-name="Koza" class="cls-7" d="M244.72,352.69s5.53,43.55-24.32,47.93v-49Z"/><path class="cls-8" d="M240.49,662.22H168.41V640.67l28.82-10.22s0,0,0,.08c-1.25,12.27,9.29,14.13,9.29,14.13C250,640.62,240.49,662.22,240.49,662.22Z"/><path class="cls-8" d="M122.23,640.67v21.55H50.15s-9.51-21.6,34-17.56c0,0,10.59-1.87,9.27-14.21l.08,0Z"/><circle id="Gumb" class="cls-9" cx="159.1" cy="201.99" r="3.72"/><circle id="Gumb-2" data-name="Gumb" class="cls-9" cx="134.74" cy="201.99" r="3.72"/><circle id="Gumb-3" data-name="Gumb" class="cls-9" cx="159.1" cy="230.03" r="3.72"/><circle id="Gumb-4" data-name="Gumb" class="cls-9" cx="134.74" cy="230.03" r="3.72"/><circle id="Gumb-5" data-name="Gumb" class="cls-9" cx="159.1" cy="258.08" r="3.72"/><circle id="Gumb-6" data-name="Gumb" class="cls-9" cx="134.74" cy="258.08" r="3.72"/><circle id="Gumb-7" data-name="Gumb" class="cls-9" cx="159.1" cy="286.12" r="3.72"/><circle id="Gumb-8" data-name="Gumb" class="cls-9" cx="134.74" cy="286.12" r="3.72"/><circle id="Gumb-9" data-name="Gumb" class="cls-9" cx="159.1" cy="314.16" r="3.72"/><circle id="Gumb-10" data-name="Gumb" class="cls-9" cx="134.74" cy="314.16" r="3.72"/><path id="Koza-3" data-name="Koza" class="cls-7" d="M198.93,67.57a133.55,133.55,0,0,1-7.42,25.57A49.25,49.25,0,0,1,94.1,91.23a155.45,155.45,0,0,1-6.64-24.12C85,54.44,90.57,52.84,93.69,52.88V49.94A44.43,44.43,0,0,1,138.12,5.51h9.66a44.43,44.43,0,0,1,44.43,44.43v4.42C194.7,54.06,201.49,54.37,198.93,67.57Z"/><path id="Brki" class="cls-10" d="M154.68,92.16s18.2,4.35,15.57,23.4-23.95,18.57-23.95,18.57-25.43,1.47-26.06-18.57,12.57-22.48,15.66-23.4Z"/><path class="cls-11" d="M132.29,61.19c.09-7.57-23.45-7.86-23.54-.28C108.67,67.75,132.21,68,132.29,61.19Z"/><path class="cls-11" d="M179.61,61.19c.09-7.57-23.45-7.86-23.54-.28C156,67.75,179.52,68,179.61,61.19Z"/><circle class="cls-12" cx="119.79" cy="60.77" r="3.89"/><circle class="cls-12" cx="167.84" cy="60.77" r="3.89"/><path id="Oci" class="cls-13" d="M107.29,61.35s10-10.05,27.69,0C135,61.35,119.6,44.33,107.29,61.35Z"/><path id="Oci-2" data-name="Oci" class="cls-13" d="M154.42,61.35s10-10.05,27.7,0C182.12,61.35,166.73,44.33,154.42,61.35Z"/><path class="cls-7" d="M146.44,57.86l-.4,1.56C146,58.35,146.14,57.77,146.44,57.86Z"/><path id="Nos" class="cls-13" d="M146,90.58a19.47,19.47,0,0,1-7.44-2l.52-1c2.11,1.07,8,3.28,9.92.75.32-.84-.77-8-1.65-13.82-1.85-12.28-2.29-16.23-1.43-17a.75.75,0,0,1,.72-.14l-.35,1.1a.4.4,0,0,0,.44-.15c-.5,1,.81,9.67,1.77,16,1.61,10.71,2,13.94,1.42,14.7A4.66,4.66,0,0,1,146,90.58Z"/><g id="obrve"><path class="cls-14" d="M135.49,53.06c-16.77-8.46-24.37-.64-24.69-.3l-2.12-2c.36-.4,9.27-9.82,28.11-.31Z"/></g><g id="Obrve-2" data-name="Obrve"><g id="Obrve-3" data-name="Obrve"><path id="Obrve-4" data-name="Obrve" class="cls-14" d="M181.47,54.17c-16.9-8.53-24.61-.4-24.68-.32l-2.14-1.94c.37-.41,9.28-9.82,28.12-.32Z"/></g></g><path class="cls-15" d="M163.07,98.61c-.09,0-1.53,6.58-7.35,10.91-1.38-6.86-26.65-4.2-26.74-4.19a31,31,0,0,1-3.85-6.72Z"/><path class="cls-16" d="M155.72,109.52h0a19.09,19.09,0,0,1-10.44,3.6c-7.93.47-13.15-3.77-16.3-7.79C129.07,105.32,154.34,102.66,155.72,109.52Z"/><polygon class="cls-15" points="128.98 105.33 128.99 105.33 128.98 105.33 128.98 105.33"/><polygon class="cls-11" points="125.13 98.61 126.21 101 162.25 101 163.07 98.61 125.13 98.61"/><g id="ocala"><path class="cls-17" d="M136.78,61.91s10.32-7.8,17.16,0"/><line class="cls-17" x1="96.49" y1="55.09" x2="107.24" y2="60.77"/><line class="cls-17" x1="194.23" y1="54.87" x2="183.48" y2="61.34"/><circle class="cls-18" cx="122.01" cy="61.91" r="14.77"/><circle class="cls-18" cx="168.71" cy="61.91" r="14.77"/></g><path id="Lasje" class="cls-10" d="M94.7,67.5s-7.43-23.06,0-38,5.64-19.09,46.17-28S193.3,28.88,193.3,28.88c-2.92-9.11-16.9-7.35-16.9-7.35s4.7,5.29-8.22,4.85-13.66-10.87-42.26-7.93-24.27,45.79-24.27,45.79Z"/></g></g></svg>