<svg xmlns="http://www.w3.org/2000/svg" viewBox="0 0 277.84 755.63"><defs><style>.cls-1{fill:#dce6e0;}.cls-14,.cls-15,.cls-2{fill:#eed1bf;}.cls-3{fill:#fbc5aa;}.cls-4{fill:#d8dcec;}.cls-5,.cls-6{fill:#00a881;}.cls-6{stroke:#489086;stroke-width:0.95px;}.cls-14,.cls-15,.cls-18,.cls-19,.cls-6{stroke-miterlimit:10;}.cls-7{fill:#007dac;}.cls-8{fill:#44515c;}.cls-9{fill:#489086;}.cls-10{fill:#ffebc6;}.cls-11{fill:#fff;}.cls-12{fill:#514835;}.cls-13{fill:#ebaf82;}.cls-14{stroke:#ebaf82;stroke-width:1.15px;}.cls-15{stroke:#ffe6b4;stroke-width:2.89px;}.cls-16{fill:#5a3b34;}.cls-17{fill:#d55225;}.cls-18,.cls-19{fill:none;stroke:#231f20;}.cls-18{stroke-width:0.62px;}.cls-19{stroke-width:0.56px;}</style></defs><g id="Layer_2" data-name="Layer 2"><g id="Avatar"><ellipse class="cls-1" cx="138.92" cy="739.8" rx="138.92" ry="15.83"/><path class="cls-2" d="M48.6,372S43.07,415.6,72.92,420V371Z"/><path class="cls-2" d="M244.72,372.1s5.53,43.56-24.32,47.94V371Z"/><path class="cls-3" d="M109.27,161.2s15.63-1.16,16.35-19.95H164s1.58,24.54,19.88,19.95l-1.66,14.11L144.83,190.2l-32.47-8.71-7.92-15.77Z"/><path class="cls-4" d="M259.18,372.71l-48.77-2.13v-157s11.28-65,28.6-29.73Q253.41,282.59,259.18,372.71Z"/><path class="cls-4" d="M34.27,372.71,83,370.58v-157s-11.28-65-28.6-29.73Q40,282.59,34.27,372.71Z"/><path class="cls-5" d="M200.25,161.2H184c-5.33,13.8-20,23.71-37.3,23.71s-32-9.91-37.31-23.71H93.2c-19.65,0-51.49,20.14-38.64,21.59,5.42.61,12.12,8.27,18.36,27.52L60.84,383.61l85.89-.45h86.11L220.53,210.31c6.24-19.25,12.94-26.91,18.36-27.52C251.74,181.34,219.9,161.2,200.25,161.2Z"/><line class="cls-6" x1="146.73" y1="383.16" x2="146.73" y2="184.91"/><rect class="cls-7" x="60.84" y="383.16" width="172" height="49.8"/><polygon class="cls-7" points="146.73 432.61 122.34 718.09 94.45 718.09 60.84 432.61 146.73 432.61"/><polygon class="cls-7" points="232.84 432.61 196.14 718.09 168.41 718.09 146.99 432.61 232.84 432.61"/><path class="cls-8" d="M168.41,718.09v21.55h72.08s9.51-21.6-34-17.56c0,0-10.59-1.87-9.28-14.21"/><path class="cls-8" d="M122.23,718.09v21.55H50.15s-9.51-21.6,34-17.56c0,0,10.59-1.87,9.27-14.21"/><circle class="cls-9" cx="159.1" cy="221.41" r="3.72"/><circle class="cls-9" cx="134.74" cy="221.41" r="3.72"/><circle class="cls-9" cx="159.1" cy="249.45" r="3.72"/><circle class="cls-9" cx="134.74" cy="249.45" r="3.72"/><circle class="cls-9" cx="159.1" cy="277.49" r="3.72"/><circle class="cls-9" cx="134.74" cy="277.49" r="3.72"/><circle class="cls-9" cx="159.1" cy="305.53" r="3.72"/><circle class="cls-9" cx="134.74" cy="305.53" r="3.72"/><circle class="cls-9" cx="159.1" cy="333.58" r="3.72"/><circle class="cls-9" cx="134.74" cy="333.58" r="3.72"/><path class="cls-2" d="M96.51,65.72s-11.5-3.22-8.15,14,8.15,27.87,8.15,27.87Z"/><path class="cls-2" d="M139,18.11h9.66a44.43,44.43,0,0,1,44.43,44.43v35a49.26,49.26,0,0,1-49.26,49.26h0A49.26,49.26,0,0,1,94.59,97.52v-35A44.43,44.43,0,0,1,139,18.11Z"/><path class="cls-10" d="M102.19,77.27S103.71,101,126,111.21H164s22.66-21.95,22.66-33.94l6.48,1.51s3.4,15.18,1.4,30.87a64.72,64.72,0,0,1-1.22,6.71,39.35,39.35,0,0,1-1.16,5.64,32.64,32.64,0,0,1-1.95,5.14,35.78,35.78,0,0,1-2.67,4.52,30.91,30.91,0,0,1-3.45,4.06c-.84,1.37-1.75,2.71-2.72,4a47.51,47.51,0,0,1-3.09,3.69,40.28,40.28,0,0,1-3.68,4.5c-5.82,6-12.4,11-20.1,13.17a31.32,31.32,0,0,1-4.76.94,14.39,14.39,0,0,1-9.82-1.72c-9.81-8.66-19-16.16-31-19.61a36,36,0,0,1-3.44-2.68,41,41,0,0,1-3.11-3.08,39.75,39.75,0,0,1-2.62-4A42.87,42.87,0,0,1,95.81,122c-.41-1.52-.74-3.05-1-4.61a68.65,68.65,0,0,1-.7-18.61C94,96.54,94,94.24,94,92.05c.13-6.57.88-12.17,3-13.27C102.58,75.85,102.19,77.27,102.19,77.27Z"/><path class="cls-11" d="M133.2,73.79c.09-7.58-23.45-7.86-23.54-.29C109.57,80.34,133.11,80.63,133.2,73.79Z"/><path class="cls-11" d="M180.51,73.79c.09-7.58-23.45-7.86-23.54-.29C156.89,80.34,180.43,80.63,180.51,73.79Z"/><circle class="cls-12" cx="120.69" cy="73.37" r="3.89"/><circle class="cls-12" cx="168.74" cy="73.37" r="3.89"/><path class="cls-13" d="M108.19,74s10-10.05,27.7,0C135.89,74,120.5,56.93,108.19,74Z"/><path class="cls-13" d="M155.33,74s10-10.05,27.69,0C183,74,167.63,56.93,155.33,74Z"/><path class="cls-10" d="M135.53,100.71c-5.25,2.49-8.27,6.06-9.5,10.5H164c-1.32-4.07-4.77-7.52-9.9-10.5Z"/><path class="cls-14" d="M139.69,100.61s8,4.06,10.64.59c1.14-1.5-5-31.36-3-30.73"/><path class="cls-15" d="M110.64,64.37s8.33-9.12,26.4,0"/><path class="cls-15" d="M156.62,65.48s8.33-9.12,26.4,0"/><path class="cls-16" d="M164,111.21a20.55,20.55,0,0,1-7.35,10.9c-1.38-6.86-26.65-4.19-26.73-4.18a26.46,26.46,0,0,1-3.86-6.72Z"/><path class="cls-17" d="M156.62,122.11h0a19,19,0,0,1-10.44,3.61c-7.92.47-13.15-3.77-16.29-7.79C130,117.92,155.24,115.25,156.62,122.11Z"/><polygon class="cls-16" points="129.89 117.93 129.89 117.93 129.89 117.93 129.89 117.93"/><path class="cls-2" d="M192.23,67.12s10.72-3,7.6,13-7.6,26-7.6,26Z"/><polygon class="cls-11" points="126.03 111.21 127.11 113.59 163.16 113.59 163.97 111.21 126.03 111.21"/><path class="cls-18" d="M137.69,74.51s10.31-7.8,17.16,0"/><line class="cls-18" x1="97.4" y1="67.69" x2="108.15" y2="73.37"/><line class="cls-18" x1="195.14" y1="67.47" x2="184.39" y2="73.94"/><circle class="cls-19" cx="122.92" cy="74.51" r="14.77"/><circle class="cls-19" cx="169.62" cy="74.51" r="14.77"/><path class="cls-10" d="M203,165.24s-5.67-1.23-9.72-14c-9.94-9.12-23.69-16.13-23.69-16.13,8.48-5,15.75-16.51,19.75-23.88.16-6,.54-12.66,1.2-20,6.1-68.52-42.12-48.71-44.18-48.56h0c-2-.14-50.22-20-44.11,48.56.66,7.35,1,14,1.19,19.94,5.48,9.13,17.16,22.42,17.16,22.42-5.8-3.78-13.58,4.31-19.87,13.26-4,17-10.94,18.45-10.94,18.45S61-6.67,146.36.2C231.73-6.67,203,165.24,203,165.24Z"/></g></g></svg>