<svg xmlns="http://www.w3.org/2000/svg" viewBox="0 0 277.84 743.63"><defs><style>.cls-1{fill:#dce6e0;}.cls-13,.cls-14,.cls-2{fill:#eed1bf;}.cls-3{fill:#fbc5aa;}.cls-4{fill:#d8dcec;}.cls-5,.cls-6{fill:#00a881;}.cls-6{stroke:#489086;stroke-width:0.95px;}.cls-13,.cls-14,.cls-15,.cls-16,.cls-6{stroke-miterlimit:10;}.cls-7{fill:#007dac;}.cls-8{fill:#44515c;}.cls-9{fill:#489086;}.cls-10{fill:#fff;}.cls-11{fill:#514835;}.cls-12{fill:#ebaf82;}.cls-13{stroke:#ebaf82;stroke-width:1.15px;}.cls-14{stroke:#ffe6b4;stroke-width:2.89px;}.cls-15,.cls-16{fill:none;stroke:#231f20;}.cls-15{stroke-width:0.62px;}.cls-16{stroke-width:0.56px;}.cls-17{fill:#ffebc6;}.cls-18{fill:#5a3b34;}.cls-19{fill:#d55225;}</style></defs><g id="Layer_2" data-name="Layer 2"><g id="Avatar"><ellipse class="cls-1" cx="138.92" cy="727.8" rx="138.92" ry="15.83"/><path class="cls-2" d="M48.6,360S43.07,403.6,72.92,408V359Z"/><path class="cls-2" d="M244.72,360.1s5.53,43.56-24.32,47.94V359Z"/><path class="cls-3" d="M109.27,149.2s15.63-1.16,16.35-19.95H164s1.58,24.54,19.88,19.95l-1.66,14.11L144.83,178.2l-32.47-8.71-7.92-15.77Z"/><path class="cls-4" d="M259.18,360.71l-48.77-2.13v-157s11.28-65,28.6-29.73Q253.41,270.59,259.18,360.71Z"/><path class="cls-4" d="M34.27,360.71,83,358.58v-157s-11.28-65-28.6-29.73Q40,270.59,34.27,360.71Z"/><path class="cls-5" d="M200.25,149.2H184c-5.33,13.8-20,23.71-37.3,23.71s-32-9.91-37.31-23.71H93.2c-19.65,0-51.49,20.14-38.64,21.59,5.42.61,12.12,8.27,18.36,27.52L60.84,371.61l85.89-.45h86.11L220.53,198.31c6.24-19.25,12.94-26.91,18.36-27.52C251.74,169.34,219.9,149.2,200.25,149.2Z"/><line class="cls-6" x1="146.73" y1="371.16" x2="146.73" y2="172.91"/><rect class="cls-7" x="60.84" y="371.16" width="172" height="49.8"/><polygon class="cls-7" points="146.73 420.61 122.34 706.09 94.45 706.09 60.84 420.61 146.73 420.61"/><polygon class="cls-7" points="232.84 420.61 196.14 706.09 168.41 706.09 146.99 420.61 232.84 420.61"/><path class="cls-8" d="M168.41,706.09v21.55h72.08s9.51-21.6-34-17.56c0,0-10.59-1.87-9.28-14.21"/><path class="cls-8" d="M122.23,706.09v21.55H50.15s-9.51-21.6,34-17.56c0,0,10.59-1.87,9.27-14.21"/><circle class="cls-9" cx="159.1" cy="209.41" r="3.72"/><circle class="cls-9" cx="134.74" cy="209.41" r="3.72"/><circle class="cls-9" cx="159.1" cy="237.45" r="3.72"/><circle class="cls-9" cx="134.74" cy="237.45" r="3.72"/><circle class="cls-9" cx="159.1" cy="265.49" r="3.72"/><circle class="cls-9" cx="134.74" cy="265.49" r="3.72"/><circle class="cls-9" cx="159.1" cy="293.53" r="3.72"/><circle class="cls-9" cx="134.74" cy="293.53" r="3.72"/><circle class="cls-9" cx="159.1" cy="321.58" r="3.72"/><circle class="cls-9" cx="134.74" cy="321.58" r="3.72"/><path class="cls-2" d="M97.51,65.72s-11.5-3.22-8.15,14,8.15,27.87,8.15,27.87Z"/><path class="cls-2" d="M140,18.11h9.66a44.43,44.43,0,0,1,44.43,44.43v35a49.26,49.26,0,0,1-49.26,49.26h0A49.26,49.26,0,0,1,95.59,97.52v-35A44.43,44.43,0,0,1,140,18.11Z"/><path class="cls-10" d="M134.2,73.79c.09-7.58-23.45-7.86-23.54-.29C110.57,80.34,134.11,80.63,134.2,73.79Z"/><path class="cls-10" d="M181.51,73.79c.09-7.58-23.45-7.86-23.54-.29C157.89,80.34,181.43,80.63,181.51,73.79Z"/><circle class="cls-11" cx="121.69" cy="73.37" r="3.89"/><circle class="cls-11" cx="169.74" cy="73.37" r="3.89"/><path class="cls-12" d="M109.19,74s10-10.05,27.7,0C136.89,74,121.5,56.93,109.19,74Z"/><path class="cls-12" d="M156.33,74s10-10.05,27.69,0C184,74,168.63,56.93,156.33,74Z"/><path class="cls-13" d="M140.69,100.61s8,4.06,10.64.59c1.14-1.5-5-31.36-3-30.73"/><path class="cls-14" d="M111.64,64.37s8.33-9.12,26.4,0"/><path class="cls-14" d="M157.62,65.48s8.33-9.12,26.4,0"/><path class="cls-2" d="M193.23,67.12s10.72-3,7.6,13-7.6,26-7.6,26Z"/><path class="cls-15" d="M138.69,74.51s10.31-7.8,17.16,0"/><line class="cls-15" x1="98.4" y1="67.69" x2="109.15" y2="73.37"/><line class="cls-15" x1="196.14" y1="67.47" x2="185.39" y2="73.94"/><circle class="cls-16" cx="123.92" cy="74.51" r="14.77"/><circle class="cls-16" cx="170.62" cy="74.51" r="14.77"/><path class="cls-17" d="M204,165.24s-5.67-1.23-9.72-14c-9.94-9.12-23.4-12.62-23.4-12.62,8.47-5,15.46-20,19.46-27.39.16-6,.54-12.66,1.2-20,6.1-68.52-42.12-48.71-44.18-48.56h0c-2-.14-50.22-20-44.11,48.56.66,7.35,1,14,1.19,19.94,5.48,9.13,12.44,26.5,12.44,26.5-5.79-3.78-8.86.23-15.15,9.18-4,17-10.94,18.45-10.94,18.45S62-6.67,147.36.2C232.73-6.67,204,165.24,204,165.24Z"/><path id="Brki2" class="cls-17" d="M156.39,104.61S174.59,109,172,128s-24,18.57-24,18.57-25.42,1.47-26.06-18.57,12.58-22.49,15.67-23.4Z"/><path class="cls-18" d="M165,111.21a20.55,20.55,0,0,1-7.35,10.9c-1.38-6.86-26.65-4.19-26.73-4.18a26.46,26.46,0,0,1-3.86-6.72Z"/><path class="cls-19" d="M157.62,122.11h0a19,19,0,0,1-10.44,3.61c-7.92.47-13.15-3.77-16.29-7.79C131,117.92,156.24,115.25,157.62,122.11Z"/><polygon class="cls-18" points="130.89 117.93 130.89 117.93 130.89 117.93 130.89 117.93"/><polygon class="cls-10" points="127.03 111.21 128.11 113.59 164.16 113.59 164.97 111.21 127.03 111.21"/></g></g></svg>