<svg xmlns="http://www.w3.org/2000/svg" xmlns:xlink="http://www.w3.org/1999/xlink" viewBox="0 0 439.1 465.3"><defs><style>.cls-1{fill:none;}.cls-2{fill:#c27514;}.cls-3{fill:#643a00;}.cls-4{fill:#562d00;}.cls-5{fill:#8a5213;}.cls-6{fill:#cabcdc;}.cls-7{fill:#231f20;}.cls-8{fill:#bcbec0;}.cls-9{fill:#e2cf91;}.cls-10{fill:#fffef9;}.cls-11{fill:#fffabe;}.cls-12{fill:#ebe2a3;}.cls-13{clip-path:url(#clip-path);}.cls-14{fill:#f15d2a;}.cls-15{clip-path:url(#clip-path-2);}.cls-16{fill:#d55225;}.cls-17{fill:#0054a6;}.cls-18{fill:#e6a454;}.cls-19,.cls-21{fill:#ffffec;}.cls-20{fill:#58469f;}.cls-21{font-size:18px;font-family:Raleway-Bold, Raleway;font-weight:700;}</style><clipPath id="clip-path"><path class="cls-1" d="M157.63,99.17c-2.84.34-6.34,4.39-9.64,14.52,0,2.91,1.68,21.65-4.24,30.07-1.28,13.24,3.66,45.62,5.31,59.21-33.38,27.61-77-2.84-78.24,2.71,1.61-13.39,3.95-48.9,2.7-62-6.6-9-6.22-30.41-6.22-30.41-3.26-9.83-6.7-13.8-9.51-14.13C50.82,98.36,68.07,87,78.72,87H87.5c2.88,7.76,10.84,13.33,20.2,13.33S125,94.79,127.91,87h8.79C147.34,87,164.59,98.36,157.63,99.17Z"/></clipPath><clipPath id="clip-path-2"><path class="cls-1" d="M252.69,185.72A233.51,233.51,0,0,1,252,144.5c4.92-8.62,5.06-27.53,5-30.51,2.74-10.36,5.64-14.52,8-14.86,5.79-.84-8.55-12.43-17.39-12.43h-7.3c-2.4,7.94-9,13.65-16.79,13.65s-14.4-5.71-16.79-13.65h-7.3c-8.85,0-23.18,11.6-17.39,12.43,2.33.34,5.2,4.4,7.9,14.46,0,0-.31,21.89,5.17,31.13a233.77,233.77,0,0,1-.68,41l-19.6,114s10.32,13.62,40.34,0c0,0,20.38,10.12,38.32,0,0,0,14.95,8.12,22,0Z"/></clipPath></defs><title>clothes 02</title><g id="Layer_2" data-name="Layer 2"><g id="Glavno_Besedilo" data-name="Glavno Besedilo"><rect class="cls-2" width="395.04" height="458.7"/><rect class="cls-3" x="11.28" y="13.72" width="372.47" height="431.26"/><path class="cls-4" d="M281.93,199a233.51,233.51,0,0,1-.66-41.22c4.92-8.62,5.06-27.53,5-30.51,2.74-10.36,5.64-14.52,8-14.86,5.79-.84-8.55-12.43-17.39-12.43h-7.3c-2.4,7.94-9,13.65-16.79,13.65S238.44,107.9,236,100h-7.3c-8.85,0-23.18,11.6-17.39,12.43,2.33.34,5.2,4.4,7.9,14.46,0,0-.31,21.89,5.17,31.13a233.77,233.77,0,0,1-.68,41l-19.6,114s10.32,13.62,40.34,0c0,0,20.38,10.12,38.32,0,0,0,14.95,8.12,22,0Z"/><polygon class="cls-4" points="305.99 99.96 305.99 113.62 315.92 235.22 328.78 235.22 338 135.6 345.78 235.22 358.07 235.22 368.83 113.62 368.83 99.96 305.99 99.96"/><rect class="cls-5" x="10.33" y="13.72" width="192.66" height="431.26"/><path class="cls-3" d="M178.22,107.65c-3.21.38-7.17,5-10.89,16.4,0,3.29,1.9,24.46-4.79,34-1.44,15,4.14,51.55,6,66.9-37.71,31.2-87-3.21-88.4,3.06,1.82-15.13,4.46-55.24,3.06-70-7.46-10.2-7-34.36-7-34.36-3.68-11.11-7.57-15.59-10.74-16C57.55,106.73,77,93.93,89.07,93.93H99c3.26,8.76,12.24,15.07,22.82,15.07s19.57-6.3,22.83-15.07h9.93C166.6,93.93,186.09,106.73,178.22,107.65Z"/><path class="cls-6" d="M114.76,425.85V445H103v-7.65s-26,9.57-37.46,7.31c0,0-13-1.76,7-9,15-5.4,20.26-12.34,20.26-12.34"/><path class="cls-6" d="M118.66,425.85V445h11.81v-7.65s26,9.57,37.46,7.31c0,0,13-1.76-7-9-15-5.4-21.29-11.68-21.29-11.68"/><rect class="cls-7" x="12.47" y="458.7" width="22.49" height="6.6"/><rect class="cls-7" x="355.78" y="458.7" width="22.49" height="6.6"/><rect class="cls-8" x="11.28" y="74.9" width="372.47" height="1.96"/><path class="cls-9" d="M83.6,88.72l24.11-7.14,24.11,7.14-4.62,6.51A37.42,37.42,0,0,0,87.07,94Z"/><path class="cls-3" d="M193.17,216l-30.55-1.17V128.21s7.06-35.86,17.92-16.4Q189.55,166.25,193.17,216Z"/><path class="cls-10" d="M114.32,73.61a.56.56,0,0,1-.17,1.1h0a6,6,0,0,0-6,6,6.05,6.05,0,0,0,0,.68.56.56,0,0,1-1.08.29,6,6,0,0,1,7.23-8Z"/><path class="cls-9" d="M199.48,88.72l24.11-7.14,24.11,7.14-4.62,6.51A37.42,37.42,0,0,0,203,94Z"/><path class="cls-10" d="M230.2,73.61a.56.56,0,0,1-.17,1.1h0a6,6,0,0,0-6,6,6.05,6.05,0,0,0,0,.68.56.56,0,0,1-1.08.29,6,6,0,0,1,7.23-8Z"/><path class="cls-9" d="M292.06,88.72l31.42-7.14,31.42,7.14-6,6.51S325.06,81.43,296.59,94Z"/><path class="cls-10" d="M330.09,73.61a.56.56,0,0,1-.17,1.1h0a6,6,0,0,0-6,6,6.05,6.05,0,0,0,0,.68.56.56,0,0,1-1.08.29,6,6,0,0,1,7.23-8Z"/><path class="cls-11" d="M46.11,203.86l30.55-1.17V116.12S69.6,80.26,58.75,99.72Q49.73,154.16,46.11,203.86Z"/><path class="cls-11" d="M168.72,203.86l-30.55-1.17V116.12s7.06-35.86,17.92-16.4Q165.11,154.16,168.72,203.86Z"/><path class="cls-12" d="M157.63,99.17c-2.84.34-6.34,4.39-9.64,14.52,0,2.91,1.68,21.65-4.24,30.07-1.28,13.24,3.66,45.62,5.31,59.21-33.38,27.61-77-2.84-78.24,2.71,1.61-13.39,3.95-48.9,2.7-62-6.6-9-6.22-30.41-6.22-30.41-3.26-9.83-6.7-13.8-9.51-14.13C50.82,98.36,68.07,87,78.72,87H87.5c2.88,7.76,10.84,13.33,20.2,13.33S125,94.79,127.91,87h8.79C147.34,87,164.59,98.36,157.63,99.17Z"/><g class="cls-13"><polygon class="cls-9" points="148.52 189.28 151.83 184.45 151.67 190.3 157.19 188.34 153.62 192.98 159.24 194.64 153.62 196.29 157.19 200.94 151.67 198.97 151.83 204.83 148.52 200 145.21 204.83 145.37 198.97 139.85 200.94 143.43 196.29 137.81 194.64 143.43 192.98 139.85 188.34 145.37 190.3 145.21 184.45 148.52 189.28"/><polygon class="cls-9" points="145.59 157.99 148.9 153.16 148.74 159.01 154.26 157.05 150.68 161.69 156.3 163.35 150.68 165 154.26 169.65 148.74 167.68 148.9 173.54 145.59 168.7 142.28 173.54 142.44 167.68 136.92 169.65 140.49 165 134.87 163.35 140.49 161.69 136.92 157.05 142.44 159.01 142.28 153.16 145.59 157.99"/><polygon class="cls-9" points="69.97 183.09 73.28 178.25 73.12 184.11 78.64 182.15 75.06 186.79 80.69 188.44 75.06 190.1 78.64 194.74 73.12 192.78 73.28 198.63 69.97 193.8 66.66 198.63 66.82 192.78 61.3 194.74 64.88 190.1 59.26 188.44 64.88 186.79 61.3 182.15 66.82 184.11 66.66 178.25 69.97 183.09"/><polygon class="cls-9" points="93.59 168.18 96.9 163.35 96.74 169.2 102.26 167.24 98.68 171.88 104.3 173.54 98.68 175.19 102.26 179.84 96.74 177.87 96.9 183.73 93.59 178.9 90.28 183.73 90.44 177.87 84.92 179.84 88.49 175.19 82.87 173.54 88.49 171.88 84.92 167.24 90.44 169.2 90.28 163.35 93.59 168.18"/><polygon class="cls-9" points="78.27 139.82 81.58 134.99 81.42 140.85 86.94 138.88 83.36 143.53 88.98 145.18 83.36 146.84 86.94 151.48 81.42 149.51 81.58 155.37 78.27 150.54 74.96 155.37 75.12 149.51 69.6 151.48 73.17 146.84 67.55 145.18 73.17 143.53 69.6 138.88 75.12 140.85 74.96 134.99 78.27 139.82"/><polygon class="cls-9" points="98.84 205.99 102.16 201.16 101.99 207.01 107.51 205.05 103.94 209.69 109.56 211.35 103.94 213 107.51 217.65 101.99 215.68 102.16 221.54 98.84 216.71 95.53 221.54 95.69 215.68 90.17 217.65 93.75 213 88.13 211.35 93.75 209.69 90.17 205.05 95.69 207.01 95.53 201.16 98.84 205.99"/><polygon class="cls-9" points="69.97 113.18 73.28 108.35 73.12 114.2 78.64 112.24 75.06 116.88 80.69 118.54 75.06 120.19 78.64 124.84 73.12 122.87 73.28 128.73 69.97 123.9 66.66 128.73 66.82 122.87 61.3 124.84 64.88 120.19 59.26 118.54 64.88 116.88 61.3 112.24 66.82 114.2 66.66 108.35 69.97 113.18"/><polygon class="cls-9" points="93.59 92.8 96.9 87.97 96.74 93.82 102.26 91.86 98.68 96.5 104.3 98.16 98.68 99.81 102.26 104.46 96.74 102.49 96.9 108.35 93.59 103.52 90.28 108.35 90.44 102.49 84.92 104.46 88.49 99.81 82.87 98.16 88.49 96.5 84.92 91.86 90.44 93.82 90.28 87.97 93.59 92.8"/><polygon class="cls-9" points="121.82 89.22 125.13 84.38 124.97 90.24 130.49 88.27 126.92 92.92 132.54 94.57 126.92 96.23 130.49 100.87 124.97 98.91 125.13 104.76 121.82 99.93 118.51 104.76 118.67 98.91 113.15 100.87 116.73 96.23 111.11 94.57 116.73 92.92 113.15 88.27 118.67 90.24 118.51 84.38 121.82 89.22"/><polygon class="cls-9" points="141.38 117.57 144.69 112.74 144.53 118.59 150.05 116.63 146.47 121.27 152.09 122.93 146.47 124.58 150.05 129.23 144.53 127.26 144.69 133.12 141.38 128.29 138.07 133.12 138.23 127.26 132.71 129.23 136.28 124.58 130.66 122.93 136.28 121.27 132.71 116.63 138.23 118.59 138.07 112.74 141.38 117.57"/><polygon class="cls-9" points="114.76 123.37 118.08 118.54 117.91 124.4 123.43 122.43 119.86 127.08 125.48 128.73 119.86 130.39 123.43 135.03 117.91 133.06 118.08 138.92 114.76 134.09 111.45 138.92 111.61 133.06 106.1 135.03 109.67 130.39 104.05 128.73 109.67 127.08 106.1 122.43 111.61 124.4 111.45 118.54 114.76 123.37"/></g><path class="cls-11" d="M107.71,100.36l7,114.36s-4.07-106.1,7.09-119.29"/><polygon class="cls-11" points="93.59 95.43 104.02 100.07 114.76 215.95 93.59 95.43"/><path class="cls-14" d="M252.69,185.72A233.51,233.51,0,0,1,252,144.5c4.92-8.62,5.06-27.53,5-30.51,2.74-10.36,5.64-14.52,8-14.86,5.79-.84-8.55-12.43-17.39-12.43h-7.3c-2.4,7.94-9,13.65-16.79,13.65s-14.4-5.71-16.79-13.65h-7.3c-8.85,0-23.18,11.6-17.39,12.43,2.33.34,5.2,4.4,7.9,14.46,0,0-.31,21.89,5.17,31.13a233.77,233.77,0,0,1-.68,41l-19.6,114s10.32,13.62,40.34,0c0,0,20.38,10.12,38.32,0,0,0,14.95,8.12,22,0Z"/><g class="cls-15"><ellipse class="cls-16" cx="197.78" cy="146.12" rx="22.88" ry="7.33"/><ellipse class="cls-16" cx="241.46" cy="168.29" rx="22.88" ry="7.33"/><ellipse class="cls-16" cx="195.7" cy="188.91" rx="22.88" ry="7.33"/><ellipse class="cls-16" cx="257.95" cy="121.44" rx="22.88" ry="7.33"/><ellipse class="cls-16" cx="252.8" cy="219.07" rx="7.33" ry="22.88" transform="translate(-71.37 301.58) rotate(-55.19)"/><ellipse class="cls-16" cx="253.88" cy="264.79" rx="22.88" ry="7.33" transform="translate(-73.54 99.38) rotate(-19.4)"/><ellipse class="cls-16" cx="187.06" cy="229.26" rx="22.88" ry="7.33" transform="translate(-65.54 75.16) rotate(-19.4)"/></g><polygon class="cls-17" points="292.06 88.41 292.06 102.07 301.99 223.67 314.85 223.67 324.06 124.05 331.85 223.67 344.14 223.67 354.9 102.07 354.9 88.41 292.06 88.41"/><polygon class="cls-2" points="395.04 0 439.1 0 439.1 444.98 383.76 444.98 383.76 0 395.04 0"/><circle class="cls-7" cx="419.22" cy="222.49" r="13.2"/><circle class="cls-18" cx="110.46" cy="241.58" r="18.17"/><path class="cls-19" d="M115.23,241q0,5.68,0,11.37a.57.57,0,0,1-.35.62.6.6,0,0,1-.61-.15L109,248.72c-.71-.55-1.42-1.12-2.15-1.66a.73.73,0,0,0-.41-.13H99.92c-.58,0-.74-.16-.74-.75q0-5.22,0-10.44c0-.59.15-.75.73-.75h6.5a.8.8,0,0,0,.45-.16l7.41-5.74a.6.6,0,0,1,.66-.13.57.57,0,0,1,.3.6Q115.23,235.26,115.23,241Z"/><path class="cls-19" d="M117.43,247.17c0-.46,0-.9,0-1.35,0-.07.14-.16.23-.18a4.88,4.88,0,0,0,0-9.42c-.22-.06-.3-.15-.29-.38,0-.39,0-.77,0-1.16a6.32,6.32,0,0,1,0,12.49Z"/><path class="cls-19" d="M117.43,245c0-.53,0-1,0-1.54,0-.07.08-.15.15-.2a2.57,2.57,0,0,0,0-4.11.34.34,0,0,1-.13-.21c0-.49,0-1,0-1.49,1.18.15,2.47,1.82,2.63,3.37A4.06,4.06,0,0,1,117.43,245Z"/><circle class="cls-18" cx="230.18" cy="332.43" r="18.17"/><path class="cls-19" d="M235,331.83q0,5.68,0,11.37a.57.57,0,0,1-.35.62.6.6,0,0,1-.61-.15l-5.28-4.09c-.71-.55-1.42-1.12-2.15-1.66a.73.73,0,0,0-.41-.13h-6.52c-.58,0-.74-.16-.74-.75q0-5.22,0-10.44c0-.59.15-.75.73-.75h6.5a.8.8,0,0,0,.45-.16l7.41-5.74a.6.6,0,0,1,.66-.13.57.57,0,0,1,.3.6Q234.95,326.12,235,331.83Z"/><path class="cls-19" d="M237.15,338c0-.46,0-.9,0-1.35,0-.07.14-.16.23-.18a4.88,4.88,0,0,0,0-9.42c-.22-.06-.3-.15-.29-.38,0-.39,0-.77,0-1.16a6.32,6.32,0,0,1,0,12.49Z"/><path class="cls-19" d="M237.15,335.84c0-.53,0-1,0-1.54,0-.07.08-.15.15-.2a2.57,2.57,0,0,0,0-4.11.34.34,0,0,1-.13-.21c0-.49,0-1,0-1.49,1.18.15,2.47,1.82,2.63,3.37A4.06,4.06,0,0,1,237.15,335.84Z"/><circle class="cls-18" cx="330.66" cy="253.33" r="18.17"/><path class="cls-19" d="M335.43,252.73q0,5.68,0,11.37a.57.57,0,0,1-.35.62.6.6,0,0,1-.61-.15l-5.28-4.09c-.71-.55-1.42-1.12-2.15-1.66a.73.73,0,0,0-.41-.13h-6.52c-.58,0-.74-.16-.74-.75q0-5.22,0-10.44c0-.59.15-.75.73-.75h6.5a.8.8,0,0,0,.45-.16l7.41-5.74a.6.6,0,0,1,.66-.13.57.57,0,0,1,.3.6Q335.43,247,335.43,252.73Z"/><path class="cls-19" d="M337.62,258.93c0-.46,0-.9,0-1.35,0-.07.14-.16.23-.18a4.88,4.88,0,0,0,0-9.42c-.22-.06-.3-.15-.29-.38,0-.39,0-.77,0-1.16a6.32,6.32,0,0,1,0,12.49Z"/><path class="cls-19" d="M337.63,256.74c0-.53,0-1,0-1.54,0-.07.08-.15.15-.2a2.57,2.57,0,0,0,0-4.11.34.34,0,0,1-.13-.21c0-.49,0-1,0-1.49,1.18.15,2.47,1.82,2.63,3.37A4.06,4.06,0,0,1,337.63,256.74Z"/><circle class="cls-18" cx="117.94" cy="396.57" r="18.17"/><path class="cls-19" d="M122.71,396q0,5.68,0,11.37a.57.57,0,0,1-.35.62.6.6,0,0,1-.61-.15l-5.28-4.09c-.71-.55-1.42-1.12-2.15-1.66a.73.73,0,0,0-.41-.13H107.4c-.58,0-.74-.16-.74-.75q0-5.22,0-10.44c0-.59.15-.75.73-.75h6.5a.8.8,0,0,0,.45-.16l7.41-5.74a.6.6,0,0,1,.66-.13.57.57,0,0,1,.3.6Q122.71,390.26,122.71,396Z"/><path class="cls-19" d="M124.91,402.16c0-.46,0-.9,0-1.35,0-.07.14-.16.23-.18a4.88,4.88,0,0,0,0-9.42c-.22-.06-.3-.15-.29-.38,0-.39,0-.77,0-1.16a6.32,6.32,0,0,1,0,12.49Z"/><path class="cls-19" d="M124.91,400c0-.53,0-1,0-1.54,0-.07.08-.15.15-.2a2.57,2.57,0,0,0,0-4.11.34.34,0,0,1-.13-.21c0-.49,0-1,0-1.49,1.18.15,2.47,1.82,2.63,3.37A4.06,4.06,0,0,1,124.91,400Z"/><circle class="cls-20" cx="109.96" cy="276.08" r="17.38"/><text class="cls-21" transform="translate(104 280)">1.</text><circle class="cls-20" cx="330.96" cy="289.08" r="17.38"/><text class="cls-21" transform="translate(325 293)">2.</text><circle class="cls-20" cx="230.96" cy="368.08" r="17.38"/><text class="cls-21" transform="translate(225 372)">3.</text><circle class="cls-20" cx="116.96" cy="359.08" r="17.38"/><text class="cls-21" transform="translate(111 363)">4.</text></g></g></svg>