<svg xmlns="http://www.w3.org/2000/svg" xmlns:xlink="http://www.w3.org/1999/xlink" viewBox="0 0 450 476.85"><defs><style>.cls-1,.cls-15{fill:none;}.cls-2{fill:#c27514;}.cls-3{fill:#643a00;}.cls-4{fill:#562d00;}.cls-5{fill:#8a5213;}.cls-6{fill:#231f20;}.cls-7{fill:#bcbec0;}.cls-8{fill:#e2cf91;}.cls-9{fill:#fffef9;}.cls-10{fill:#7bafde;}.cls-11{clip-path:url(#clip-path);}.cls-12{fill:#eff9fe;}.cls-13{fill:#ffcf01;}.cls-14{clip-path:url(#clip-path-2);}.cls-15{stroke:#c4a006;stroke-miterlimit:10;stroke-width:1.42px;}.cls-16{fill:#4fbfa5;}.cls-17{fill:#f15d2a;}.cls-18{clip-path:url(#clip-path-3);}.cls-19{clip-path:url(#clip-path-4);}.cls-20{fill:#e6a454;}.cls-21,.cls-23{fill:#ffffec;}.cls-22{fill:#58469f;}.cls-23{font-size:18px;font-family:Raleway-Bold, Raleway;font-weight:700;}</style><clipPath id="clip-path"><path class="cls-1" d="M161.54,102.3c-2.91.34-6.5,4.5-9.88,14.88,0,3,1.72,22.19-4.35,30.82-1.31,13.57,3.75,46.76,5.44,60.68-34.21,28.3-78.9-2.91-80.18,2.77,1.65-13.72,4-50.11,2.77-63.5C68.58,138.69,69,116.78,69,116.78c-3.34-10.08-6.87-14.14-9.74-14.48-7.14-.83,10.54-12.44,21.44-12.44h9c3,7.95,11.11,13.67,20.7,13.67s17.76-5.72,20.71-13.67h9C151,89.86,168.68,101.47,161.54,102.3Z"/></clipPath><clipPath id="clip-path-2"><path class="cls-1" d="M203.26,92.25,189.14,193.9s8.55,14,33.41,0c0,0,16.88,10.37,31.74,0,0,0,12.38,8.32,18.26,0L256,92.25Z"/></clipPath><clipPath id="clip-path-3"><path class="cls-1" d="M119.3,327.9v51.82H85.89a7.05,7.05,0,0,1-7-7v-4.31a7.05,7.05,0,0,1,7-7h14.2V327.9Z"/></clipPath><clipPath id="clip-path-4"><path class="cls-1" d="M142.59,350v51.82H109.18a7.05,7.05,0,0,1-7-7v-4.31a7.05,7.05,0,0,1,7-7h14.2V350Z"/></clipPath></defs><title>clothes 04</title><g id="Layer_2" data-name="Layer 2"><g id="Glavno_Besedilo" data-name="Glavno Besedilo"><rect class="cls-2" width="404.85" height="470.09"/><rect class="cls-3" x="11.56" y="14.06" width="381.72" height="441.97"/><polygon class="cls-4" points="309.82 105.3 309.82 119.3 309.82 163.61 333.18 163.61 342.02 131.04 350.6 163.61 372.45 163.61 374.22 119.3 368.03 90.6 309.82 105.3"/><polygon class="cls-2" points="404.85 0 450 0 450 456.03 393.28 456.03 393.28 0 404.85 0"/><path class="cls-4" d="M221.47,112.2,207.34,213.85s8.55,14,33.41,0c0,0,16.88,10.37,31.74,0,0,0,12.38,8.32,18.26,0L263.48,90.6Z"/><rect class="cls-5" x="10.59" y="14.06" width="197.44" height="441.97"/><path class="cls-3" d="M182.65,110.32c-3.29.39-7.34,5.09-11.16,16.81,0,3.37,1.94,25.07-4.91,34.82-1.48,15.33,4.24,52.83,6.15,68.56-38.65,32-89.14-3.28-90.59,3.13C84,218.13,86.7,177,85.26,161.89c-7.64-10.45-7.21-35.21-7.21-35.21-3.77-11.39-7.76-16-11-16.36C59,109.38,79,96.26,91.28,96.26h10.18c3.34,9,12.55,15.44,23.39,15.44s20.06-6.46,23.4-15.44h10.18C170.74,96.26,190.71,109.38,182.65,110.32Z"/><rect class="cls-6" x="12.78" y="470.09" width="23.05" height="6.76"/><rect class="cls-6" x="364.61" y="470.09" width="23.05" height="6.76"/><rect class="cls-7" x="11.56" y="76.76" width="381.72" height="2"/><path class="cls-8" d="M85.67,90.92l24.71-7.31,24.71,7.31-4.73,6.68s-18.73-14.15-41.12-1.27Z"/><path class="cls-9" d="M117.16,75.43a.58.58,0,0,1-.18,1.13h0a6.13,6.13,0,0,0-6.13,6.13,6.2,6.2,0,0,0,0,.7.58.58,0,0,1-1.1.3,6.18,6.18,0,0,1,7.41-8.25Z"/><path class="cls-8" d="M204.43,90.92l24.71-7.31,24.71,7.31-4.73,6.68S230.38,83.45,208,96.33Z"/><path class="cls-9" d="M235.91,75.43a.58.58,0,0,1-.18,1.13h0a6.13,6.13,0,0,0-6.13,6.13,6.2,6.2,0,0,0,0,.7.58.58,0,0,1-1.1.3,6.18,6.18,0,0,1,7.41-8.25Z"/><path class="cls-8" d="M299.31,90.92l32.2-7.31,32.2,7.31-6.17,6.68s-24.41-14.15-53.59-1.27Z"/><path class="cls-9" d="M338.29,75.43a.58.58,0,0,1-.18,1.13h0a6.13,6.13,0,0,0-6.13,6.13,6.2,6.2,0,0,0,0,.7.58.58,0,0,1-1.1.3,6.18,6.18,0,0,1,7.41-8.25Z"/><path class="cls-10" d="M161.54,101.63c-2.91.34-6.5,4.5-9.88,14.88,0,3,1.72,22.19-4.35,30.82-1.31,13.57,3.75,46.76,5.44,60.68-34.21,28.3-78.9-2.91-80.18,2.77,1.65-13.72,4-50.11,2.77-63.5C68.58,138,69,116.11,69,116.11,65.63,106,62.1,102,59.22,101.63c-7.14-.83,10.54-12.44,21.44-12.44h9c3,7.95,11.11,13.67,20.7,13.67s17.76-5.72,20.71-13.67h9C151,89.19,168.68,100.8,161.54,101.63Z"/><g class="cls-11"><rect class="cls-12" x="38.83" y="114.86" width="150.31" height="11.87"/><rect class="cls-12" x="38.83" y="132.23" width="150.31" height="11.87"/><rect class="cls-12" x="38.83" y="149.35" width="150.31" height="11.87"/><rect class="cls-12" x="38.83" y="166.47" width="150.31" height="11.87"/><rect class="cls-12" x="38.83" y="183.59" width="150.31" height="11.87"/><rect class="cls-12" x="38.83" y="200.71" width="150.31" height="11.87"/></g><path class="cls-13" d="M203.26,92.25,189.14,193.9s8.55,14,33.41,0c0,0,16.88,10.37,31.74,0,0,0,12.38,8.32,18.26,0L256,92.25Z"/><g class="cls-14"><path class="cls-15" d="M181.65,95.76s49.54,45.35,98.4-3.51"/><path class="cls-15" d="M181.65,111.38s49.54,45.35,98.4-3.51"/><path class="cls-15" d="M181.65,127s49.54,45.35,98.4-3.51"/><path class="cls-15" d="M181.65,142.61S231.19,188,280,139.1"/></g><polygon class="cls-16" points="299.31 90.6 299.31 104.6 299.31 148.91 322.67 148.91 331.51 116.34 340.08 148.91 361.94 148.91 363.71 104.6 363.71 90.6 299.31 90.6"/><circle class="cls-6" cx="429.91" cy="228.01" r="13.53"/><path class="cls-17" d="M119.3,327.9v51.82H85.89a7.05,7.05,0,0,1-7-7v-4.31a7.05,7.05,0,0,1,7-7h14.2V327.9Z"/><g class="cls-18"><rect class="cls-9" x="94.63" y="334.9" width="31.57" height="2.17"/><rect class="cls-9" x="94.63" y="338.91" width="31.57" height="2.17"/><rect class="cls-9" x="94.63" y="342.92" width="31.57" height="2.17"/><rect class="cls-9" x="94.63" y="346.92" width="31.57" height="2.17"/></g><path class="cls-17" d="M142.59,350v51.82H109.18a7.05,7.05,0,0,1-7-7v-4.31a7.05,7.05,0,0,1,7-7h14.2V350Z"/><g class="cls-19"><rect class="cls-9" x="117.92" y="356.95" width="31.57" height="2.17"/><rect class="cls-9" x="117.92" y="360.95" width="31.57" height="2.17"/><rect class="cls-9" x="117.92" y="364.96" width="31.57" height="2.17"/><rect class="cls-9" x="117.92" y="368.97" width="31.57" height="2.17"/></g><circle class="cls-20" cx="115.12" cy="243.93" r="18.17"/><path class="cls-21" d="M119.89,243.33q0,5.68,0,11.37a.57.57,0,0,1-.35.62.6.6,0,0,1-.61-.15l-5.28-4.09c-.71-.55-1.42-1.12-2.15-1.66a.73.73,0,0,0-.41-.13h-6.52c-.58,0-.74-.16-.74-.75q0-5.22,0-10.44c0-.59.15-.75.73-.75h6.5a.8.8,0,0,0,.45-.16l7.41-5.74a.6.6,0,0,1,.66-.13.57.57,0,0,1,.3.6Q119.89,237.62,119.89,243.33Z"/><path class="cls-21" d="M122.09,249.52c0-.46,0-.9,0-1.35,0-.07.14-.16.23-.18a4.88,4.88,0,0,0,0-9.42c-.22-.06-.3-.15-.29-.38,0-.39,0-.77,0-1.16a6.32,6.32,0,0,1,0,12.49Z"/><path class="cls-21" d="M122.09,247.33c0-.53,0-1,0-1.54,0-.07.08-.15.15-.2a2.57,2.57,0,0,0,0-4.11.34.34,0,0,1-.13-.21c0-.49,0-1,0-1.49,1.18.15,2.47,1.82,2.63,3.37A4.06,4.06,0,0,1,122.09,247.33Z"/><circle class="cls-20" cx="165.84" cy="382.78" r="18.17"/><path class="cls-21" d="M170.61,382.18q0,5.68,0,11.37a.57.57,0,0,1-.35.62.6.6,0,0,1-.61-.15l-5.28-4.09c-.71-.55-1.42-1.12-2.15-1.66a.73.73,0,0,0-.41-.13H155.3c-.58,0-.74-.16-.74-.75q0-5.22,0-10.44c0-.59.15-.75.73-.75h6.5a.8.8,0,0,0,.45-.16l7.41-5.74a.6.6,0,0,1,.66-.13.57.57,0,0,1,.3.6Q170.61,376.47,170.61,382.18Z"/><path class="cls-21" d="M172.81,388.38c0-.46,0-.9,0-1.35,0-.07.14-.16.23-.18a4.88,4.88,0,0,0,0-9.42c-.22-.06-.3-.15-.29-.38,0-.39,0-.77,0-1.16a6.32,6.32,0,0,1,0,12.49Z"/><path class="cls-21" d="M172.81,386.19c0-.53,0-1,0-1.54,0-.07.08-.15.15-.2a2.57,2.57,0,0,0,0-4.11.34.34,0,0,1-.13-.21c0-.49,0-1,0-1.49,1.18.15,2.47,1.82,2.63,3.37A4.06,4.06,0,0,1,172.81,386.19Z"/><circle class="cls-20" cx="229.32" cy="223.68" r="18.17"/><path class="cls-21" d="M234.09,223.08q0,5.68,0,11.37a.57.57,0,0,1-.35.62.6.6,0,0,1-.61-.15l-5.28-4.09c-.71-.55-1.42-1.12-2.15-1.66a.73.73,0,0,0-.41-.13h-6.52c-.58,0-.74-.16-.74-.75q0-5.22,0-10.44c0-.59.15-.75.73-.75h6.5a.8.8,0,0,0,.45-.16l7.41-5.74a.6.6,0,0,1,.66-.13.57.57,0,0,1,.3.6Q234.09,217.37,234.09,223.08Z"/><path class="cls-21" d="M236.29,229.28c0-.46,0-.9,0-1.35,0-.07.14-.16.23-.18a4.88,4.88,0,0,0,0-9.42c-.22-.06-.3-.15-.29-.38,0-.39,0-.77,0-1.16a6.32,6.32,0,0,1,0,12.49Z"/><path class="cls-21" d="M236.29,227.09c0-.53,0-1,0-1.54,0-.07.08-.15.15-.2a2.57,2.57,0,0,0,0-4.11.34.34,0,0,1-.13-.21c0-.49,0-1,0-1.49,1.18.15,2.47,1.82,2.63,3.37A4.06,4.06,0,0,1,236.29,227.09Z"/><circle class="cls-20" cx="338.6" cy="184.92" r="18.17"/><path class="cls-21" d="M343.38,184.32q0,5.68,0,11.37a.57.57,0,0,1-.35.62.6.6,0,0,1-.61-.15l-5.28-4.09c-.71-.55-1.42-1.12-2.15-1.66a.73.73,0,0,0-.41-.13h-6.52c-.58,0-.74-.16-.74-.75q0-5.22,0-10.44c0-.59.15-.75.73-.75h6.5a.8.8,0,0,0,.45-.16l7.41-5.74a.6.6,0,0,1,.66-.13.57.57,0,0,1,.3.6Q343.37,178.61,343.38,184.32Z"/><path class="cls-21" d="M345.57,190.51c0-.46,0-.9,0-1.35,0-.07.14-.16.23-.18a4.88,4.88,0,0,0,0-9.42c-.22-.06-.3-.15-.29-.38,0-.39,0-.77,0-1.16a6.32,6.32,0,0,1,0,12.49Z"/><path class="cls-21" d="M345.57,188.33c0-.53,0-1,0-1.54,0-.07.08-.15.15-.2a2.57,2.57,0,0,0,0-4.11.34.34,0,0,1-.13-.21c0-.49,0-1,0-1.49,1.18.15,2.47,1.82,2.63,3.37A4.06,4.06,0,0,1,345.57,188.33Z"/><circle class="cls-22" cx="114.62" cy="278.43" r="17.38"/><text class="cls-23" transform="translate(108.67 282.35)">1.</text><circle class="cls-22" cx="229.62" cy="259.43" r="17.38"/><text class="cls-23" transform="translate(223.67 263.35)">2.</text><circle class="cls-22" cx="166.62" cy="418.43" r="17.38"/><text class="cls-23" transform="translate(160.67 422.35)">3.</text><circle class="cls-22" cx="337.62" cy="222.43" r="17.38"/><text class="cls-23" transform="translate(331.67 226.35)">4.</text></g></g></svg>