<svg xmlns="http://www.w3.org/2000/svg" xmlns:xlink="http://www.w3.org/1999/xlink" viewBox="0 0 468.54 496.5"><defs><style>.cls-1{fill:#562d00;}.cls-2{fill:none;}.cls-3{fill:#c27514;}.cls-4{fill:#643a00;}.cls-5{fill:#8a5213;}.cls-6{clip-path:url(#clip-path);}.cls-24,.cls-7{fill:#0054a6;}.cls-8{fill:#231f20;}.cls-9{fill:#bcbec0;}.cls-10{fill:#e2cf91;}.cls-11{fill:#fffef9;}.cls-12{fill:#fdc581;}.cls-13{fill:#a2a2c9;}.cls-14{clip-path:url(#clip-path-2);}.cls-15,.cls-16{fill:#00a881;stroke-width:0.48px;}.cls-15{stroke:#f37443;}.cls-15,.cls-16,.cls-24{stroke-miterlimit:10;}.cls-16{stroke:#489086;}.cls-17{fill:#e06a4d;}.cls-18{fill:#fff;}.cls-19{fill:#d8dcec;}.cls-20{fill:#00b262;}.cls-21{clip-path:url(#clip-path-3);}.cls-22{fill:#00793a;}.cls-23{fill:#7bafde;}.cls-24{stroke:#7bafde;stroke-width:0.52px;}.cls-25{fill:#e6a454;}.cls-26,.cls-28{fill:#ffffec;}.cls-27{fill:#58469f;}.cls-28{font-size:18px;font-family:Raleway-Bold, Raleway;font-weight:700;}</style><clipPath id="clip-path"><path class="cls-1" d="M362.8,106.66h-8.85C351,114.19,343,119.6,333.58,119.6s-17.45-5.41-20.36-12.94h-8.85c-10.72,0-28.1,11-21.09,11.78,3,.33,6.61,4.51,10,15V227.8h80.56V133.46c3.41-10.5,7.06-14.68,10-15C390.9,117.65,373.52,106.66,362.8,106.66Z"/></clipPath><clipPath id="clip-path-2"><polyline class="cls-2" points="89.25 114.47 96.55 216.21 82.1 231.34 72.27 216.73 77.77 114.47"/></clipPath><clipPath id="clip-path-3"><path class="cls-2" d="M344,92.91h-8.85c-2.91,7.53-10.92,12.94-20.36,12.94s-17.45-5.41-20.36-12.94h-8.85c-10.72,0-28.1,11-21.09,11.78,3,.33,6.61,4.51,10,15V214h80.56V119.71c3.41-10.5,7.06-14.68,10-15C372.11,103.9,354.73,92.91,344,92.91Z"/></clipPath></defs><title>clothes 10</title><g id="Layer_2" data-name="Layer 2"><g id="Glavno_Besedilo" data-name="Glavno Besedilo"><rect class="cls-3" width="421.53" height="489.46"/><rect class="cls-4" x="12.04" y="14.64" width="397.45" height="460.18"/><rect class="cls-5" x="11.03" y="14.64" width="205.57" height="460.18"/><polygon class="cls-4" points="82.93 95.46 102.58 96.51 102.58 114.47 82.93 114.47 82.93 95.46"/><polyline class="cls-4" points="97.59 114.47 104.9 216.21 90.44 231.34 80.62 216.73 86.11 114.47"/><path class="cls-1" d="M242.23,206.16l-24.51-1.07V126.22s5.67-32.67,14.37-14.94Q239.33,160.88,242.23,206.16Z"/><path class="cls-1" d="M129.21,206.16l24.51-1.07V126.22S148,93.54,139.34,111.28Q132.11,160.88,129.21,206.16Z"/><path class="cls-1" d="M212.62,99.88h-8.15c-2.68,6.93-10.05,11.91-18.75,11.91s-16.07-5-18.75-11.91h-8.15c-9.87,0-25.88,10.12-19.41,10.85,2.72.31,6.09,4.15,9.22,13.83v86.86h74.18V124.55c3.14-9.67,6.5-13.52,9.22-13.83C238.49,110,222.49,99.88,212.62,99.88Z"/><line class="cls-1" x1="185.72" y1="211.41" x2="185.72" y2="111.79"/><path class="cls-1" d="M148.63,211.41"/><rect class="cls-1" x="148.63" y="211.41" width="74.11" height="25.03"/><polygon class="cls-1" points="185.72 236.44 173.46 350.57 159.45 350.57 148.63 236.44 185.72 236.44"/><polygon class="cls-1" points="222.74 236.44 210.55 350.57 196.62 350.57 185.85 236.44 222.74 236.44"/><circle class="cls-1" cx="191.93" cy="130.13" r="1.87" transform="translate(10.81 274.93) rotate(-72.78)"/><circle class="cls-1" cx="179.69" cy="130.13" r="1.87" transform="translate(2.19 263.24) rotate(-72.78)"/><circle class="cls-1" cx="191.93" cy="144.22" r="1.87" transform="translate(-2.65 284.85) rotate(-72.78)"/><circle class="cls-1" cx="179.69" cy="144.22" r="1.87" transform="translate(-11.27 273.15) rotate(-72.78)"/><circle class="cls-1" cx="191.93" cy="158.31" r="1.87" transform="translate(-16.11 294.76) rotate(-72.78)"/><circle class="cls-1" cx="179.69" cy="158.31" r="1.87" transform="translate(-24.73 283.07) rotate(-72.78)"/><circle class="cls-1" cx="191.93" cy="172.4" r="1.87" transform="translate(-29.57 304.68) rotate(-72.78)"/><circle class="cls-1" cx="179.69" cy="172.4" r="1.87" transform="translate(-38.19 292.99) rotate(-72.78)"/><circle class="cls-1" cx="191.93" cy="186.5" r="1.87" transform="translate(-43.03 314.6) rotate(-72.78)"/><circle class="cls-1" cx="179.69" cy="186.5" r="1.87" transform="translate(-51.64 302.91) rotate(-72.78)"/><path class="cls-1" d="M202.1,104.06C186.34,118.6,185.69,139,185.69,139c0-17.77-14.63-33-14.63-33C180.79,114.13,191.11,114,202.1,104.06Z"/><path class="cls-1" d="M395,222.1l-26.62-1.16V135.27S374.49,99.79,384,119Q391.81,172.91,395,222.1Z"/><path class="cls-1" d="M272.21,222.1l26.62-1.16V135.27S292.67,99.79,283.21,119Q275.36,172.91,272.21,222.1Z"/><path class="cls-1" d="M362.8,106.66h-8.85C351,114.19,343,119.6,333.58,119.6s-17.45-5.41-20.36-12.94h-8.85c-10.72,0-28.1,11-21.09,11.78,3,.33,6.61,4.51,10,15V227.8h80.56V133.46c3.41-10.5,7.06-14.68,10-15C390.9,117.65,373.52,106.66,362.8,106.66Z"/><path class="cls-1" d="M362.8,106.66h-8.85C351,114.19,343,119.6,333.58,119.6s-17.45-5.41-20.36-12.94h-8.85c-10.72,0-28.1,11-21.09,11.78,3,.33,6.61,4.51,10,15V227.8h80.56V133.46c3.41-10.5,7.06-14.68,10-15C390.9,117.65,373.52,106.66,362.8,106.66Z"/><g class="cls-6"><rect class="cls-1" x="270.78" y="136.85" width="122.75" height="21.91"/><rect class="cls-1" x="270.78" y="167.23" width="122.75" height="21.91"/></g><polygon class="cls-7" points="274.88 214.04 274.88 231.44 287.53 386.33 303.91 386.33 315.65 259.44 325.56 386.33 341.22 386.33 354.92 231.44 354.92 214.04 274.88 214.04"/><polygon class="cls-3" points="421.53 0 468.54 0 468.54 474.82 409.49 474.82 409.49 0 421.53 0"/><rect class="cls-8" x="13.3" y="489.46" width="24" height="7.04"/><rect class="cls-8" x="379.63" y="489.46" width="24" height="7.04"/><rect class="cls-9" x="12.04" y="79.92" width="397.45" height="2.09"/><path class="cls-10" d="M58.34,94.67l25.73-7.61,25.73,7.61-4.93,7s-19.5-14.73-42.82-1.32Z"/><path class="cls-11" d="M91.13,78.54a.6.6,0,0,1-.19,1.18h0a6.38,6.38,0,0,0-6.38,6.38,6.46,6.46,0,0,0,0,.72.6.6,0,0,1-1.15.31,6.44,6.44,0,0,1,7.71-8.59Z"/><path class="cls-10" d="M280,94.67l33.53-7.61,33.53,7.61-6.42,7s-25.41-14.73-55.8-1.32Z"/><path class="cls-11" d="M320.62,78.54a.6.6,0,0,1-.19,1.18h0A6.38,6.38,0,0,0,314,86.1a6.46,6.46,0,0,0,0,.72.6.6,0,0,1-1.15.31,6.44,6.44,0,0,1,7.71-8.59Z"/><circle class="cls-8" cx="447.62" cy="237.41" r="14.09"/><path class="cls-10" d="M152.5,94.67l25.73-7.61L204,94.67l-4.93,7s-19.5-14.73-42.82-1.32Z"/><path class="cls-11" d="M185.29,78.54a.6.6,0,0,1-.19,1.18h0a6.38,6.38,0,0,0-6.38,6.38,6.46,6.46,0,0,0,0,.72.6.6,0,0,1-1.15.31,6.44,6.44,0,0,1,7.71-8.59Z"/><polygon class="cls-12" points="74.58 95.46 94.24 96.51 94.24 114.47 74.58 114.47 74.58 95.46"/><polyline class="cls-13" points="89.25 114.47 96.55 216.21 82.1 231.34 72.27 216.73 77.77 114.47"/><g class="cls-14"><rect class="cls-12" x="66.83" y="122.82" width="38.87" height="2.87"/><rect class="cls-12" x="66.83" y="136.65" width="38.87" height="2.87"/><rect class="cls-12" x="66.83" y="150.47" width="38.87" height="2.87"/><rect class="cls-12" x="66.83" y="164.3" width="38.87" height="2.87"/><rect class="cls-12" x="66.83" y="178.12" width="38.87" height="2.87"/><rect class="cls-12" x="66.83" y="191.95" width="38.87" height="2.87"/><rect class="cls-12" x="66.83" y="205.77" width="38.87" height="2.87"/></g><path class="cls-8" d="M233.63,200.62l-24.51-1.07V120.68s5.67-32.67,14.37-14.94Q230.72,155.34,233.63,200.62Z"/><path class="cls-8" d="M120.6,200.62l24.51-1.07V120.68S139.45,88,130.74,105.74Q123.5,155.34,120.6,200.62Z"/><path class="cls-8" d="M204,94.34h-8.15c-2.68,6.93-10.05,11.91-18.75,11.91s-16.07-5-18.75-11.91h-8.15c-9.87,0-25.88,10.12-19.41,10.85,2.72.31,6.09,4.15,9.22,13.83v86.86H214.2V119c3.14-9.67,6.5-13.52,9.22-13.83C229.89,104.46,213.89,94.34,204,94.34Z"/><line class="cls-15" x1="177.11" y1="205.88" x2="177.11" y2="106.25"/><path class="cls-16" d="M140,205.88"/><rect class="cls-8" x="140.03" y="205.88" width="74.11" height="25.03"/><polygon class="cls-8" points="177.12 230.9 164.86 345.04 150.85 345.04 140.03 230.9 177.12 230.9"/><polygon class="cls-8" points="214.14 230.9 201.95 345.04 188.01 345.04 177.25 230.9 214.14 230.9"/><circle class="cls-17" cx="183.33" cy="124.59" r="1.87" transform="matrix(0.3, -0.96, 0.96, 0.3, 10.04, 262.81)"/><circle class="cls-17" cx="171.09" cy="124.59" r="1.87" transform="translate(1.43 251.12) rotate(-72.78)"/><circle class="cls-17" cx="183.33" cy="138.68" r="1.87" transform="matrix(0.3, -0.96, 0.96, 0.3, -3.42, 272.73)"/><circle class="cls-17" cx="171.09" cy="138.68" r="1.87" transform="translate(-12.03 261.04) rotate(-72.78)"/><circle class="cls-17" cx="183.33" cy="152.77" r="1.87" transform="matrix(0.3, -0.96, 0.96, 0.3, -16.88, 282.65)"/><circle class="cls-17" cx="171.09" cy="152.77" r="1.87" transform="translate(-25.49 270.96) rotate(-72.78)"/><circle class="cls-17" cx="183.33" cy="166.87" r="1.87" transform="translate(-30.34 292.57) rotate(-72.78)"/><circle class="cls-17" cx="171.09" cy="166.87" r="1.87" transform="translate(-38.95 280.88) rotate(-72.78)"/><circle class="cls-17" cx="183.33" cy="180.96" r="1.87" transform="translate(-43.8 302.49) rotate(-72.78)"/><circle class="cls-17" cx="171.09" cy="180.96" r="1.87" transform="translate(-52.41 290.79) rotate(-72.78)"/><path class="cls-18" d="M193.5,98.52c-15.76,14.54-16.42,34.94-16.42,34.94,0-17.77-14.63-33-14.63-33C172.19,108.59,182.5,108.49,193.5,98.52Z"/><path class="cls-19" d="M376.17,208.34l-26.62-1.16V121.51s6.15-35.49,15.61-16.23Q373,159.16,376.17,208.34Z"/><path class="cls-19" d="M253.42,208.34,280,207.18V121.51S273.88,86,264.43,105.29Q256.57,159.16,253.42,208.34Z"/><path class="cls-20" d="M344,92.91h-8.85c-2.91,7.53-10.92,12.94-20.36,12.94s-17.45-5.41-20.36-12.94h-8.85c-10.72,0-28.1,11-21.09,11.78,3,.33,6.61,4.51,10,15V214h80.56V119.71c3.41-10.5,7.06-14.68,10-15C372.11,103.9,354.73,92.91,344,92.91Z"/><g class="cls-21"><rect class="cls-22" x="251.99" y="123.09" width="122.75" height="21.91"/><rect class="cls-18" x="251.99" y="153.48" width="122.75" height="21.91"/></g><polygon class="cls-23" points="354.92 222.09 298.82 222.09 274.88 222.09 274.88 214.04 354.92 214.04 354.92 222.09"/><rect class="cls-23" x="312.63" y="219.75" width="4.34" height="10.54"/><path class="cls-24" d="M329.27,222.1s9.3,42.29,24.47,22.63"/><path class="cls-24" d="M296.4,222.1s-4.52,43.72-19.87,29.61"/><circle class="cls-25" cx="58.12" cy="252.58" r="18.17"/><path class="cls-26" d="M62.89,252q0,5.68,0,11.37a.57.57,0,0,1-.35.62.6.6,0,0,1-.61-.15l-5.28-4.09c-.71-.55-1.42-1.12-2.15-1.66a.73.73,0,0,0-.41-.13H47.58c-.58,0-.74-.16-.74-.75q0-5.22,0-10.44c0-.59.15-.75.73-.75h6.5a.8.8,0,0,0,.45-.16l7.41-5.74a.6.6,0,0,1,.66-.13.57.57,0,0,1,.3.6Q62.89,246.26,62.89,252Z"/><path class="cls-26" d="M65.09,258.17c0-.46,0-.9,0-1.35,0-.07.14-.16.23-.18a4.88,4.88,0,0,0,0-9.42c-.22-.06-.3-.15-.29-.38,0-.39,0-.77,0-1.16a6.32,6.32,0,0,1,0,12.49Z"/><path class="cls-26" d="M65.09,256c0-.53,0-1,0-1.54,0-.07.08-.15.15-.2a2.57,2.57,0,0,0,0-4.11.34.34,0,0,1-.13-.21c0-.49,0-1,0-1.49,1.18.15,2.47,1.82,2.63,3.37A4.06,4.06,0,0,1,65.09,256Z"/><circle class="cls-25" cx="297.84" cy="52.43" r="18.17"/><path class="cls-26" d="M302.61,51.83q0,5.68,0,11.37a.57.57,0,0,1-.35.62.6.6,0,0,1-.61-.15l-5.28-4.09c-.71-.55-1.42-1.12-2.15-1.66a.73.73,0,0,0-.41-.13H287.3c-.58,0-.74-.16-.74-.75q0-5.22,0-10.44c0-.59.15-.75.73-.75h6.5a.8.8,0,0,0,.45-.16l7.41-5.74a.6.6,0,0,1,.66-.13.57.57,0,0,1,.3.6Q302.61,46.12,302.61,51.83Z"/><path class="cls-26" d="M304.81,58c0-.46,0-.9,0-1.35,0-.07.14-.16.23-.18a4.88,4.88,0,0,0,0-9.42c-.22-.06-.3-.15-.29-.38,0-.39,0-.77,0-1.16a6.32,6.32,0,0,1,0,12.49Z"/><path class="cls-26" d="M304.81,55.84c0-.53,0-1,0-1.54,0-.07.08-.15.15-.2A2.57,2.57,0,0,0,305,50a.34.34,0,0,1-.13-.21c0-.49,0-1,0-1.49,1.18.15,2.47,1.82,2.63,3.37A4.06,4.06,0,0,1,304.81,55.84Z"/><circle class="cls-25" cx="162.32" cy="386.33" r="18.17"/><path class="cls-26" d="M167.09,385.73q0,5.68,0,11.37a.57.57,0,0,1-.35.62.6.6,0,0,1-.61-.15l-5.28-4.09c-.71-.55-1.42-1.12-2.15-1.66a.73.73,0,0,0-.41-.13h-6.52c-.58,0-.74-.16-.74-.75q0-5.22,0-10.44c0-.59.15-.75.73-.75h6.5a.8.8,0,0,0,.45-.16l7.41-5.74a.6.6,0,0,1,.66-.13.57.57,0,0,1,.3.6Q167.09,380,167.09,385.73Z"/><path class="cls-26" d="M169.29,391.93c0-.46,0-.9,0-1.35,0-.07.14-.16.23-.18a4.88,4.88,0,0,0,0-9.42c-.22-.06-.3-.15-.29-.38,0-.39,0-.77,0-1.16a6.32,6.32,0,0,1,0,12.49Z"/><path class="cls-26" d="M169.29,389.74c0-.53,0-1,0-1.54,0-.07.08-.15.15-.2a2.57,2.57,0,0,0,0-4.11.34.34,0,0,1-.13-.21c0-.49,0-1,0-1.49,1.18.15,2.47,1.82,2.63,3.37A4.06,4.06,0,0,1,169.29,389.74Z"/><circle class="cls-25" cx="288.1" cy="416.07" r="18.17"/><path class="cls-26" d="M292.88,415.47q0,5.68,0,11.37a.57.57,0,0,1-.35.62.6.6,0,0,1-.61-.15l-5.28-4.09c-.71-.55-1.42-1.12-2.15-1.66a.73.73,0,0,0-.41-.13h-6.52c-.58,0-.74-.16-.74-.75q0-5.22,0-10.44c0-.59.15-.75.73-.75h6.5a.8.8,0,0,0,.45-.16l7.41-5.74a.6.6,0,0,1,.66-.13.57.57,0,0,1,.3.6Q292.87,409.76,292.88,415.47Z"/><path class="cls-26" d="M295.07,421.66c0-.46,0-.9,0-1.35,0-.07.14-.16.23-.18a4.88,4.88,0,0,0,0-9.42c-.22-.06-.3-.15-.29-.38,0-.39,0-.77,0-1.16a6.32,6.32,0,0,1,0,12.49Z"/><path class="cls-26" d="M295.07,419.48c0-.53,0-1,0-1.54,0-.07.08-.15.15-.2a2.57,2.57,0,0,0,0-4.11.34.34,0,0,1-.13-.21c0-.49,0-1,0-1.49,1.18.15,2.47,1.82,2.63,3.37A4.06,4.06,0,0,1,295.07,419.48Z"/><circle class="cls-27" cx="59.62" cy="289.08" r="17.38"/><text class="cls-28" transform="translate(53.67 293)">1.</text><circle class="cls-27" cx="198.62" cy="385.08" r="17.38"/><text class="cls-28" transform="translate(192.67 389)">2.</text><circle class="cls-27" cx="336.62" cy="52.08" r="17.38"/><text class="cls-28" transform="translate(330.67 56)">3.</text><circle class="cls-27" cx="324.12" cy="416.58" r="17.38"/><text class="cls-28" transform="translate(318.17 420.5)">4.</text></g></g></svg>