<svg xmlns="http://www.w3.org/2000/svg" xmlns:xlink="http://www.w3.org/1999/xlink" viewBox="0 0 1076.54 496.5"><defs><style>.cls-1{fill:#562d00;}.cls-2,.cls-50{fill:none;}.cls-3{fill:#c27514;}.cls-4{fill:#643a00;}.cls-5{fill:#8a5213;}.cls-6{clip-path:url(#clip-path);}.cls-7{fill:#231f20;}.cls-8{fill:#bcbec0;}.cls-9{fill:#e2cf91;}.cls-10{fill:#fffef9;}.cls-11{fill:#fdc581;}.cls-12{fill:#a2a2c9;}.cls-13{clip-path:url(#clip-path-2);}.cls-14,.cls-15{fill:#00a881;stroke-width:0.48px;}.cls-14{stroke:#f37443;}.cls-14,.cls-15,.cls-24,.cls-31,.cls-32,.cls-33,.cls-36,.cls-41,.cls-42,.cls-50{stroke-miterlimit:10;}.cls-15{stroke:#489086;}.cls-16{fill:#e06a4d;}.cls-17{fill:#fff;}.cls-18{fill:#d8dcec;}.cls-19{fill:#00b262;}.cls-20{clip-path:url(#clip-path-3);}.cls-21{fill:#00793a;}.cls-22,.cls-24{fill:#0054a6;}.cls-23{fill:#7bafde;}.cls-24{stroke:#7bafde;stroke-width:0.52px;}.cls-25{fill:#58469f;}.cls-26{font-size:18px;fill:#ffffec;font-family:Raleway-Bold, Raleway;font-weight:700;}.cls-27{letter-spacing:-0.02em;}.cls-28{letter-spacing:-0.07em;}.cls-29{fill:#666e9c;}.cls-30,.cls-31,.cls-32,.cls-33,.cls-41,.cls-42{fill:#c3ba69;}.cls-31,.cls-32,.cls-33,.cls-41,.cls-42{stroke:#c3ba69;}.cls-31{stroke-width:0.39px;}.cls-32,.cls-36{stroke-width:0.5px;}.cls-33{stroke-width:0.42px;}.cls-34{fill:#c1c0db;}.cls-35,.cls-36{fill:#ffddb3;}.cls-36{stroke:#e1835b;}.cls-37{fill:#d53d96;}.cls-38{fill:#cc6ca2;}.cls-39{fill:#f8b1b2;}.cls-40{fill:#d9d29a;}.cls-41{stroke-width:0.45px;}.cls-42{stroke-width:0.5px;}.cls-43{fill:#cd4f62;}.cls-44{fill:#f5908a;}.cls-45{fill:#eed1bf;}.cls-46{clip-path:url(#clip-path-4);}.cls-47{fill:#eff9fe;}.cls-48{fill:#ffcf01;}.cls-49{clip-path:url(#clip-path-5);}.cls-50{stroke:#c4a006;stroke-width:1.42px;}.cls-51{fill:#4fbfa5;}.cls-52{fill:#f15d2a;}.cls-53{clip-path:url(#clip-path-6);}.cls-54{clip-path:url(#clip-path-7);}.cls-55{fill:#cabcdc;}.cls-56{fill:#fffabe;}.cls-57{fill:#ebe2a3;}.cls-58{clip-path:url(#clip-path-8);}.cls-59{clip-path:url(#clip-path-9);}.cls-60{fill:#d55225;}</style><clipPath id="clip-path"><path class="cls-1" d="M309.8,106.66h-8.85C298,114.19,290,119.6,280.58,119.6s-17.45-5.41-20.36-12.94h-8.85c-10.72,0-28.1,11-21.09,11.78,3,.33,6.61,4.51,10,15V227.8h80.56V133.46c3.41-10.5,7.06-14.68,10-15C337.9,117.65,320.52,106.66,309.8,106.66Z"/></clipPath><clipPath id="clip-path-2"><polyline class="cls-2" points="54.25 114.47 61.55 216.21 47.1 231.34 37.27 216.73 42.77 114.47"/></clipPath><clipPath id="clip-path-3"><path class="cls-2" d="M291,92.91h-8.85c-2.91,7.53-10.92,12.94-20.36,12.94s-17.45-5.41-20.36-12.94h-8.85c-10.72,0-28.1,11-21.09,11.78,3,.33,6.61,4.51,10,15V214h80.56V119.71c3.41-10.5,7.06-14.68,10-15C319.11,103.9,301.73,92.91,291,92.91Z"/></clipPath><clipPath id="clip-path-4"><path class="cls-2" d="M783.54,105.95c-2.91.34-6.5,4.5-9.88,14.88,0,3,1.72,22.19-4.35,30.82-1.31,13.57,3.75,46.76,5.44,60.68-34.21,28.3-78.9-2.91-80.18,2.77,1.65-13.72,4-50.11,2.77-63.5-6.76-9.25-6.38-31.16-6.38-31.16-3.34-10.08-6.87-14.14-9.74-14.48-7.14-.83,10.54-12.44,21.44-12.44h9c3,7.95,11.11,13.67,20.7,13.67s17.76-5.72,20.71-13.67h9C773,93.51,790.68,105.12,783.54,105.95Z"/></clipPath><clipPath id="clip-path-5"><path class="cls-2" d="M814.26,95.9,800.14,197.55s8.55,14,33.41,0c0,0,16.88,10.37,31.74,0,0,0,12.38,8.32,18.26,0L867,95.9Z"/></clipPath><clipPath id="clip-path-6"><path class="cls-2" d="M951.3,396.55v51.82H917.89a7.05,7.05,0,0,1-7-7V437a7.05,7.05,0,0,1,7-7h14.2V396.55Z"/></clipPath><clipPath id="clip-path-7"><path class="cls-2" d="M974.59,418.6v51.82H941.18a7.05,7.05,0,0,1-7-7v-4.31a7.05,7.05,0,0,1,7-7h14.2V418.6Z"/></clipPath><clipPath id="clip-path-8"><path class="cls-2" d="M825.29,329.17c-2.84.34-6.34,4.39-9.64,14.52,0,2.91,1.68,21.65-4.24,30.07-1.28,13.24,3.66,45.62,5.31,59.21-33.38,27.61-77-2.84-78.24,2.71,1.61-13.39,3.95-48.9,2.7-62-6.6-9-6.22-30.41-6.22-30.41-3.26-9.83-6.7-13.8-9.51-14.13-7-.81,10.28-12.14,20.93-12.14h8.79c2.88,7.76,10.84,13.33,20.2,13.33s17.32-5.58,20.21-13.33h8.79C815,317,832.25,328.36,825.29,329.17Z"/></clipPath><clipPath id="clip-path-9"><path class="cls-2" d="M959.36,186.72a233.51,233.51,0,0,1-.66-41.22c4.92-8.62,5.06-27.53,5-30.51,2.74-10.36,5.64-14.52,8-14.86,5.79-.84-8.55-12.43-17.39-12.43h-7.3c-2.4,7.94-9,13.65-16.79,13.65s-14.4-5.71-16.79-13.65h-7.3c-8.85,0-23.18,11.6-17.39,12.43,2.33.34,5.2,4.4,7.9,14.46,0,0-.31,21.89,5.17,31.13a233.77,233.77,0,0,1-.68,41l-19.6,114s10.32,13.62,40.34,0c0,0,20.38,10.12,38.32,0,0,0,14.95,8.12,22,0Z"/></clipPath></defs><title>clothes 12</title><g id="Layer_2" data-name="Layer 2"><g id="Glavno_Besedilo" data-name="Glavno Besedilo"><rect class="cls-3" width="1061" height="489.46"/><rect class="cls-4" x="30.31" y="14.64" width="1000.39" height="460.18"/><rect class="cls-5" x="11.03" y="14.64" width="205.57" height="460.18"/><path class="cls-1" d="M190.23,206.16l-24.51-1.07V126.22s5.67-32.67,14.37-14.94Q187.33,160.88,190.23,206.16Z"/><path class="cls-1" d="M77.21,206.16l24.51-1.07V126.22S96,93.54,87.34,111.28Q80.11,160.88,77.21,206.16Z"/><path class="cls-1" d="M160.62,99.88h-8.15c-2.68,6.93-10.05,11.91-18.75,11.91s-16.07-5-18.75-11.91h-8.15c-9.87,0-25.88,10.12-19.41,10.85,2.72.31,6.09,4.15,9.22,13.83v86.86h74.18V124.55c3.14-9.67,6.5-13.52,9.22-13.83C186.49,110,170.49,99.88,160.62,99.88Z"/><line class="cls-1" x1="133.72" y1="211.41" x2="133.72" y2="111.79"/><path class="cls-1" d="M96.63,211.41"/><rect class="cls-1" x="96.63" y="211.41" width="74.11" height="25.03"/><polygon class="cls-1" points="133.72 236.44 121.46 350.57 107.45 350.57 96.63 236.44 133.72 236.44"/><polygon class="cls-1" points="170.74 236.44 158.55 350.57 144.62 350.57 133.85 236.44 170.74 236.44"/><circle class="cls-1" cx="139.93" cy="130.13" r="1.87" transform="translate(-25.79 225.26) rotate(-72.78)"/><circle class="cls-1" cx="127.69" cy="130.13" r="1.87" transform="translate(-34.41 213.57) rotate(-72.78)"/><circle class="cls-1" cx="139.93" cy="144.22" r="1.87" transform="translate(-39.25 235.18) rotate(-72.78)"/><circle class="cls-1" cx="127.69" cy="144.22" r="1.87" transform="translate(-47.87 223.49) rotate(-72.78)"/><circle class="cls-1" cx="139.93" cy="158.31" r="1.87" transform="translate(-52.71 245.1) rotate(-72.78)"/><circle class="cls-1" cx="127.69" cy="158.31" r="1.87" transform="translate(-61.33 233.4) rotate(-72.78)"/><circle class="cls-1" cx="139.93" cy="172.4" r="1.87" transform="translate(-66.17 255.02) rotate(-72.78)"/><circle class="cls-1" cx="127.69" cy="172.4" r="1.87" transform="translate(-74.79 243.32) rotate(-72.78)"/><circle class="cls-1" cx="139.93" cy="186.5" r="1.87" transform="translate(-79.63 264.93) rotate(-72.78)"/><circle class="cls-1" cx="127.69" cy="186.5" r="1.87" transform="translate(-88.25 253.24) rotate(-72.78)"/><path class="cls-1" d="M150.1,104.06C134.34,118.6,133.69,139,133.69,139c0-17.77-14.63-33-14.63-33C128.79,114.13,139.11,114,150.1,104.06Z"/><path class="cls-1" d="M342,222.1l-26.62-1.16V135.27S321.49,99.79,331,119Q338.81,172.91,342,222.1Z"/><path class="cls-1" d="M219.21,222.1l26.62-1.16V135.27S239.67,99.79,230.21,119Q222.36,172.91,219.21,222.1Z"/><path class="cls-1" d="M309.8,106.66h-8.85C298,114.19,290,119.6,280.58,119.6s-17.45-5.41-20.36-12.94h-8.85c-10.72,0-28.1,11-21.09,11.78,3,.33,6.61,4.51,10,15V227.8h80.56V133.46c3.41-10.5,7.06-14.68,10-15C337.9,117.65,320.52,106.66,309.8,106.66Z"/><path class="cls-1" d="M309.8,106.66h-8.85C298,114.19,290,119.6,280.58,119.6s-17.45-5.41-20.36-12.94h-8.85c-10.72,0-28.1,11-21.09,11.78,3,.33,6.61,4.51,10,15V227.8h80.56V133.46c3.41-10.5,7.06-14.68,10-15C337.9,117.65,320.52,106.66,309.8,106.66Z"/><g class="cls-6"><rect class="cls-1" x="217.78" y="136.85" width="122.75" height="21.91"/><rect class="cls-1" x="217.78" y="167.23" width="122.75" height="21.91"/></g><polygon class="cls-3" points="1029.53 0 1076.54 0 1076.54 474.82 1017.49 474.82 1017.49 0 1029.53 0"/><rect class="cls-7" x="13.3" y="489.46" width="24" height="7.04"/><rect class="cls-7" x="379.63" y="489.46" width="24" height="7.04"/><rect class="cls-7" x="757.63" y="489.46" width="24" height="7.04"/><rect class="cls-7" x="1005.63" y="489.46" width="24" height="7.04"/><rect class="cls-8" x="12.31" y="77.92" width="1000.39" height="2.09"/><rect class="cls-8" x="13.31" y="307.92" width="1000.39" height="2.09"/><path class="cls-9" d="M227,94.67l33.53-7.61,33.53,7.61-6.42,7s-25.41-14.73-55.8-1.32Z"/><path class="cls-10" d="M267.62,78.54a.6.6,0,0,1-.19,1.18h0A6.38,6.38,0,0,0,261,86.1a6.46,6.46,0,0,0,0,.72.6.6,0,0,1-1.15.31,6.44,6.44,0,0,1,7.71-8.59Z"/><circle class="cls-7" cx="1046.62" cy="237.41" r="14.09"/><path class="cls-9" d="M100.5,94.67l25.73-7.61L152,94.67l-4.93,7s-19.5-14.73-42.82-1.32Z"/><path class="cls-10" d="M133.29,78.54a.6.6,0,0,1-.19,1.18h0a6.38,6.38,0,0,0-6.38,6.38,6.46,6.46,0,0,0,0,.72.6.6,0,0,1-1.15.31,6.44,6.44,0,0,1,7.71-8.59Z"/><polygon class="cls-4" points="47.93 95.46 67.58 96.51 67.58 114.47 47.93 114.47 47.93 95.46"/><polyline class="cls-4" points="62.59 114.47 69.9 216.21 55.45 231.34 45.62 216.73 51.12 114.47"/><path class="cls-9" d="M23.34,94.67l25.73-7.61L74.8,94.67l-4.93,7s-19.5-14.73-42.82-1.32Z"/><path class="cls-10" d="M56.13,78.54a.6.6,0,0,1-.19,1.18h0a6.38,6.38,0,0,0-6.38,6.38,6.46,6.46,0,0,0,0,.72.6.6,0,0,1-1.15.31,6.44,6.44,0,0,1,7.71-8.59Z"/><polygon class="cls-11" points="39.58 95.46 59.24 96.51 59.24 114.47 39.58 114.47 39.58 95.46"/><polyline class="cls-12" points="54.25 114.47 61.55 216.21 47.1 231.34 37.27 216.73 42.77 114.47"/><g class="cls-13"><rect class="cls-11" x="31.83" y="122.82" width="38.87" height="2.87"/><rect class="cls-11" x="31.83" y="136.65" width="38.87" height="2.87"/><rect class="cls-11" x="31.83" y="150.47" width="38.87" height="2.87"/><rect class="cls-11" x="31.83" y="164.3" width="38.87" height="2.87"/><rect class="cls-11" x="31.83" y="178.12" width="38.87" height="2.87"/><rect class="cls-11" x="31.83" y="191.95" width="38.87" height="2.87"/><rect class="cls-11" x="31.83" y="205.77" width="38.87" height="2.87"/></g><path class="cls-7" d="M181.63,200.62l-24.51-1.07V120.68s5.67-32.67,14.37-14.94Q178.72,155.34,181.63,200.62Z"/><path class="cls-7" d="M68.6,200.62l24.51-1.07V120.68S87.45,88,78.74,105.74Q71.5,155.34,68.6,200.62Z"/><path class="cls-7" d="M152,94.34h-8.15c-2.68,6.93-10.05,11.91-18.75,11.91s-16.07-5-18.75-11.91H98.22c-9.87,0-25.88,10.12-19.41,10.85,2.72.31,6.09,4.15,9.22,13.83v86.86H162.2V119c3.14-9.67,6.5-13.52,9.22-13.83C177.89,104.46,161.89,94.34,152,94.34Z"/><line class="cls-14" x1="125.11" y1="205.88" x2="125.11" y2="106.25"/><path class="cls-15" d="M88,205.88"/><rect class="cls-7" x="88.03" y="205.88" width="74.11" height="25.03"/><polygon class="cls-7" points="125.12 230.9 112.86 345.04 98.85 345.04 88.03 230.9 125.12 230.9"/><polygon class="cls-7" points="162.14 230.9 149.95 345.04 136.01 345.04 125.25 230.9 162.14 230.9"/><circle class="cls-16" cx="131.33" cy="124.59" r="1.87" transform="translate(-26.56 213.14) rotate(-72.78)"/><circle class="cls-16" cx="119.09" cy="124.59" r="1.87" transform="translate(-35.18 201.45) rotate(-72.78)"/><circle class="cls-16" cx="131.33" cy="138.68" r="1.87" transform="translate(-40.02 223.06) rotate(-72.78)"/><circle class="cls-16" cx="119.09" cy="138.68" r="1.87" transform="translate(-48.64 211.37) rotate(-72.78)"/><circle class="cls-16" cx="131.33" cy="152.77" r="1.87" transform="translate(-53.48 232.98) rotate(-72.78)"/><circle class="cls-16" cx="119.09" cy="152.77" r="1.87" transform="translate(-62.1 221.29) rotate(-72.78)"/><circle class="cls-16" cx="131.33" cy="166.87" r="1.87" transform="translate(-66.94 242.9) rotate(-72.78)"/><circle class="cls-16" cx="119.09" cy="166.87" r="1.87" transform="translate(-75.56 231.21) rotate(-72.78)"/><circle class="cls-16" cx="131.33" cy="180.96" r="1.87" transform="translate(-80.4 252.82) rotate(-72.78)"/><circle class="cls-16" cx="119.09" cy="180.96" r="1.87" transform="translate(-89.01 241.13) rotate(-72.78)"/><path class="cls-17" d="M141.5,98.52c-15.76,14.54-16.42,34.94-16.42,34.94,0-17.77-14.63-33-14.63-33C120.19,108.59,130.5,108.49,141.5,98.52Z"/><path class="cls-18" d="M323.17,208.34l-26.62-1.16V121.51s6.15-35.49,15.61-16.23Q320,159.16,323.17,208.34Z"/><path class="cls-18" d="M200.42,208.34,227,207.18V121.51S220.88,86,211.43,105.29Q203.57,159.16,200.42,208.34Z"/><path class="cls-19" d="M291,92.91h-8.85c-2.91,7.53-10.92,12.94-20.36,12.94s-17.45-5.41-20.36-12.94h-8.85c-10.72,0-28.1,11-21.09,11.78,3,.33,6.61,4.51,10,15V214h80.56V119.71c3.41-10.5,7.06-14.68,10-15C319.11,103.9,301.73,92.91,291,92.91Z"/><g class="cls-20"><rect class="cls-21" x="198.99" y="123.09" width="122.75" height="21.91"/><rect class="cls-17" x="198.99" y="153.48" width="122.75" height="21.91"/></g><polygon class="cls-22" points="221.88 214.04 221.88 231.44 234.53 386.33 250.91 386.33 262.65 259.44 272.56 386.33 288.22 386.33 301.92 231.44 301.92 214.04 221.88 214.04"/><polygon class="cls-23" points="301.92 222.09 245.82 222.09 221.88 222.09 221.88 214.04 301.92 214.04 301.92 222.09"/><rect class="cls-23" x="259.63" y="219.75" width="4.34" height="10.54"/><path class="cls-24" d="M276.27,222.1s9.3,42.29,24.47,22.63"/><path class="cls-24" d="M243.4,222.1s-4.52,43.72-19.87,29.61"/><circle class="cls-25" cx="53.62" cy="56.08" r="17.38"/><text class="cls-26" transform="translate(47.67 60)">1.</text><circle class="cls-25" cx="162.62" cy="61.08" r="17.38"/><text class="cls-26" transform="translate(156.67 65)">2.</text><circle class="cls-25" cx="267.62" cy="56.08" r="17.38"/><text class="cls-26" transform="translate(261.67 60)">3.</text><circle class="cls-25" cx="207.62" cy="425.08" r="17.38"/><text class="cls-26" transform="translate(201.67 429)">5.</text><circle class="cls-25" cx="396.62" cy="56.08" r="17.38"/><text class="cls-26" transform="translate(390.67 60)">6.</text><circle class="cls-25" cx="503.62" cy="56.08" r="17.38"/><text class="cls-26" transform="translate(493.67 60)">10.</text><circle class="cls-25" cx="614.62" cy="56.08" r="17.38"/><text class="cls-26" transform="translate(604.67 60)">12.</text><circle class="cls-25" cx="662.62" cy="281.08" r="17.38"/><text class="cls-26" transform="translate(652.67 285)">13.</text><circle class="cls-25" cx="735.62" cy="56.08" r="17.38"/><text class="cls-26" transform="translate(725.67 60)">14.</text><circle class="cls-25" cx="840.62" cy="56.08" r="17.38"/><text class="cls-26" transform="translate(830.67 60)">16.</text><circle class="cls-25" cx="933.62" cy="56.08" r="17.38"/><text class="cls-26" transform="translate(923.67 60)"><tspan class="cls-27">1</tspan><tspan class="cls-28" x="8.57" y="0">7</tspan><tspan x="17.39" y="0">.</tspan></text><circle class="cls-25" cx="933.62" cy="374.08" r="17.38"/><text class="cls-26" transform="translate(923.67 378)">18.</text><circle class="cls-25" cx="775.62" cy="281.08" r="17.38"/><text class="cls-26" transform="translate(765.67 285)">15.</text><circle class="cls-25" cx="396.62" cy="270.08" r="17.38"/><text class="cls-26" transform="translate(390.67 274)"><tspan class="cls-28">7</tspan><tspan x="8.82" y="0">.</tspan></text><circle class="cls-25" cx="396.62" cy="386.08" r="17.38"/><text class="cls-26" transform="translate(390.67 390)">8.</text><circle class="cls-25" cx="520.62" cy="286.08" r="17.38"/><text class="cls-26" transform="translate(514.67 290)">9.</text><circle class="cls-25" cx="578.62" cy="286.08" r="17.38"/><text class="cls-26" transform="translate(568.67 290)">11.</text><circle class="cls-25" cx="432.62" cy="434.08" r="17.38"/><text class="cls-26" transform="translate(422.67 438)">12.</text><circle class="cls-25" cx="81.12" cy="396.58" r="17.38"/><text class="cls-26" transform="translate(75.17 400.5)">4.</text><path class="cls-1" d="M440.53,98.81h-8.45c-2.77,4.3-10.42,7.4-19.42,7.4s-16.65-3.09-19.42-7.4h-8.45c-10.23,0-26.8,6.29-20.11,6.74,2.82.19,6.3,2.58,9.56,8.59V215.28h76.84V114.14c3.25-6,6.74-8.4,9.56-8.59C467.34,105.1,450.76,98.81,440.53,98.81Z"/><path class="cls-1" d="M473.12,197.15l-25.84-1V122.93s6-30.33,15.15-13.87Q470.06,155.11,473.12,197.15Z"/><path class="cls-1" d="M351.27,197.15l25.84-1V122.93s-6-30.33-15.15-13.87Q354.33,155.11,351.27,197.15Z"/><line class="cls-1" x1="412.67" y1="106.21" x2="412.67" y2="215.28"/><circle class="cls-1" cx="421.08" cy="145.12" r="2.65"/><circle class="cls-1" cx="421.08" cy="170.31" r="2.65"/><circle class="cls-1" cx="421.08" cy="199.7" r="2.65"/><path class="cls-1" d="M386.08,98.81h7.17s4.44,4.81,18,7.17C411.29,106,401.17,108.19,386.08,98.81Z"/><path class="cls-1" d="M439.24,98.81h-7.17s-4.44,4.81-18,7.17C414,106,424.15,108.19,439.24,98.81Z"/><path class="cls-9" d="M373.69,94.44l24.54-7.26,24.54,7.26-4.7,6.63a38.09,38.09,0,0,0-40.84-1.26Z"/><path class="cls-10" d="M405,79.06a.57.57,0,0,1-.18,1.12h0a6.09,6.09,0,0,0-6.08,6.08,6.16,6.16,0,0,0,0,.69.57.57,0,0,1-1.1.29A6.14,6.14,0,0,1,405,79.06Z"/><path class="cls-29" d="M426.09,92.45h-8.45c-2.77,4.3-10.42,7.4-19.42,7.4s-16.65-3.09-19.42-7.4h-8.45c-10.23,0-26.8,6.29-20.11,6.74,2.82.19,6.3,2.58,9.56,8.59V208.92h76.84V107.77c3.25-6,6.74-8.4,9.56-8.59C452.9,98.73,436.32,92.45,426.09,92.45Z"/><path class="cls-30" d="M458.68,190.78l-25.84-1V116.57s6-30.33,15.15-13.87Q455.62,148.74,458.68,190.78Z"/><path class="cls-30" d="M336.83,190.78l25.84-1V116.57s-6-30.33-15.15-13.87Q339.89,148.74,336.83,190.78Z"/><line class="cls-31" x1="398.23" y1="99.85" x2="398.23" y2="208.92"/><circle class="cls-32" cx="406.64" cy="138.75" r="2.65"/><circle class="cls-32" cx="406.64" cy="163.95" r="2.65"/><circle class="cls-32" cx="406.64" cy="193.34" r="2.65"/><path class="cls-33" d="M371.64,92.45h7.17s4.44,4.81,18,7.17C396.85,99.62,386.74,101.83,371.64,92.45Z"/><path class="cls-33" d="M424.8,92.45h-7.17s-4.44,4.81-18,7.17C399.59,99.62,409.71,101.83,424.8,92.45Z"/><path class="cls-1" d="M541.24,119.74a21.36,21.36,0,0,1,.22,21.15c.1.83.22,1.66.35,2.51.28,1.83.61,3.72,1,5.72,2.33,13.35,8.3,26.29,6.31,39.72,0,2.49-7,3.48-11,6.27-1.59.95-3.18,2-4.74,3.11-6.21,4.54-11.72,10.79-13,20.25.53-3.81-6.65-15.51-26.81-29.14q-2-1.36-4.18-2.75c1.54-15.66,5.52-30.09,5.49-45.5q.16-1.31.31-2.8a21,21,0,0,1-2.23-9.55,20.73,20.73,0,0,1,2.7-10.4,83.73,83.73,0,0,0-5.08-25.23,14.33,14.33,0,0,1,3.46-.48h7.43c2.44,8.08,9.17,13.89,17.09,13.89s14.65-5.81,17.09-13.89h7.43A20.57,20.57,0,0,1,551.54,95C551.28,95.21,543.45,102.44,541.24,119.74Z"/><path class="cls-9" d="M484.13,92.94l24.54-7.26,24.54,7.26-4.7,6.63a38.09,38.09,0,0,0-40.84-1.26Z"/><path class="cls-10" d="M515.4,77.56a.57.57,0,0,1-.18,1.12h0a6.09,6.09,0,0,0-6.08,6.08,6.16,6.16,0,0,0,0,.69.57.57,0,0,1-1.1.29,6.14,6.14,0,0,1,7.36-8.19Z"/><path class="cls-34" d="M530.29,119.74a21.36,21.36,0,0,1,.22,21.15c.1.83.22,1.66.35,2.51.28,1.83.61,3.72,1,5.72,2.33,13.35,8.3,26.29,6.31,39.72,0,2.49-7,3.48-11,6.27-1.59.95-3.18,2-4.74,3.11-6.21,4.54-11.72,10.79-13,20.25.53-3.81-6.65-15.51-26.81-29.14q-2-1.36-4.18-2.75c1.54-15.66,5.52-30.09,5.49-45.5q.16-1.31.31-2.8a21,21,0,0,1-2.23-9.55,20.73,20.73,0,0,1,2.7-10.4,83.73,83.73,0,0,0-5.08-25.23,14.33,14.33,0,0,1,3.46-.48h7.43c2.44,8.08,9.17,13.89,17.09,13.89s14.65-5.81,17.09-13.89h7.43A20.57,20.57,0,0,1,540.59,95C540.34,95.21,532.5,102.44,530.29,119.74Z"/><path class="cls-35" d="M172.36,474.48c-9.17,0-18.34,0-27.51,0-1.56,0-1.94-.46-2-2-.26-4.83,1-9.34,2.64-13.78.42-1.17.31-1.76-.79-2.34a5,5,0,0,1-2.09-1.74,3.32,3.32,0,0,1-.24-.9c.31-.07.65-.26.91-.19a2.71,2.71,0,0,1,1.36.7c2,2.64,5.13,3,8,3.46a16.33,16.33,0,0,0,9.44-1c2.47-1.08,3.46-3.49,5.13-5.28.33-.35-.09-.87-.15-1.31a2.87,2.87,0,0,1,1.32-2.87,2.16,2.16,0,0,1,2.87.36,35.5,35.5,0,0,1,3.36,3.3c4.08,4.83,9.45,7.95,14.59,11.44,5,3.39,10.51,4,16.14,4.59a8.18,8.18,0,0,1,4.34,1.66c1.13.9,1.15,1.67-.09,2.63a15.87,15.87,0,0,1-9.9,3.16c-9.11.06-18.21,0-27.32,0Z"/><line class="cls-36" x1="178.19" y1="454.57" x2="174.3" y2="458.37"/><line class="cls-36" x1="180.31" y1="456.47" x2="176.42" y2="460.28"/><line class="cls-36" x1="183.05" y1="458.37" x2="179.17" y2="462.18"/><line class="cls-36" x1="186.03" y1="460.28" x2="182.14" y2="464.08"/><path class="cls-35" d="M243.38,474.48c-9.17,0-18.34,0-27.51,0-1.56,0-1.94-.46-2-2-.26-4.83,1-9.34,2.64-13.78.42-1.17.31-1.76-.79-2.34a5,5,0,0,1-2.09-1.74,3.32,3.32,0,0,1-.24-.9c.31-.07.65-.26.91-.19a2.71,2.71,0,0,1,1.36.7c2,2.64,5.13,3,8,3.46a16.33,16.33,0,0,0,9.44-1c2.47-1.08,3.46-3.49,5.13-5.28.33-.35-.09-.87-.15-1.31a2.87,2.87,0,0,1,1.32-2.87,2.16,2.16,0,0,1,2.87.36,35.5,35.5,0,0,1,3.36,3.3c4.08,4.83,9.45,7.95,14.59,11.44,5,3.39,10.51,4,16.14,4.59a8.18,8.18,0,0,1,4.34,1.66c1.13.9,1.15,1.67-.09,2.63a15.87,15.87,0,0,1-9.9,3.16c-9.11.06-18.21,0-27.32,0Z"/><line class="cls-36" x1="248.69" y1="453.85" x2="244.81" y2="457.66"/><line class="cls-36" x1="250.82" y1="455.76" x2="246.93" y2="459.56"/><line class="cls-36" x1="253.56" y1="457.66" x2="249.67" y2="461.46"/><line class="cls-36" x1="256.54" y1="459.56" x2="252.65" y2="463.37"/><ellipse class="cls-37" cx="443.37" cy="300.64" rx="41.89" ry="6.08"/><path class="cls-38" d="M443.37,260.37h0c-15.74,0-28.5,9.15-28.5,20.44v20.44a267.07,267.07,0,0,0,57,0V280.8C471.87,269.52,459.11,260.37,443.37,260.37Z"/><path class="cls-39" d="M414.87,285.92v8.47a192,192,0,0,0,57,0v-8.47A192,192,0,0,1,414.87,285.92Z"/><path class="cls-7" d="M70.3,421.59v51.23h-33a7,7,0,0,1-7-7v-4.27a7,7,0,0,1,7-7h14v-33Z"/><path class="cls-7" d="M110.14,421.59v51.23h-33a7,7,0,0,1-7-7v-4.27a7,7,0,0,1,7-7h14v-33Z"/><path class="cls-9" d="M589.81,93.86l24.43-7.23,24.43,7.23-4.68,6.6a37.92,37.92,0,0,0-40.66-1.26Z"/><path class="cls-10" d="M620.94,78.55a.57.57,0,0,1-.18,1.12h0a6.06,6.06,0,0,0-6.06,6.06,6.13,6.13,0,0,0,0,.69.57.57,0,0,1-1.09.29,6.11,6.11,0,0,1,7.32-8.15Z"/><path class="cls-4" d="M655.88,100h-8.41c-2.76,5.94-10.37,10.21-19.33,10.21S611.57,106,608.81,100h-8.41c-10.18,0-26.68,8.67-20,9.3,2.81.26,6.28,3.56,9.51,11.85V260.73h76.49V121.18c3.24-8.29,6.71-11.59,9.51-11.85C682.57,108.71,666.06,100,655.88,100Z"/><path class="cls-4" d="M690.31,200.48l-25.73-1v-72.9s5.95-30.2,15.09-13.81Q687.26,158.62,690.31,200.48Z"/><path class="cls-4" d="M566,200.48l25.73-1v-72.9s-5.95-30.2-15.09-13.81Q569,158.62,566,200.48Z"/><line class="cls-4" x1="628.14" y1="110.25" x2="628.14" y2="260.73"/><circle class="cls-4" cx="636.51" cy="146.13" r="2.64"/><circle class="cls-4" cx="636.51" cy="184.28" r="2.64"/><circle class="cls-4" cx="636.51" cy="227.21" r="2.64"/><path class="cls-4" d="M601.67,100h7.14s4.42,6.85,18,10.21C626.77,110.25,616.7,113.38,601.67,100Z"/><path class="cls-4" d="M654.59,100h-7.14s-4.42,6.85-18,10.21C629.5,110.25,639.57,113.38,654.59,100Z"/><path class="cls-40" d="M642,91.88h-8.41c-2.76,5.94-10.37,10.21-19.33,10.21s-16.57-4.27-19.33-10.21H586.5c-10.18,0-26.68,8.67-20,9.3,2.81.26,6.28,3.56,9.51,11.85V252.57h76.49V113c3.24-8.29,6.71-11.59,9.51-11.85C668.66,100.55,652.16,91.88,642,91.88Z"/><path class="cls-30" d="M676.4,192.32l-25.73-1v-72.9s5.95-30.2,15.09-13.81Q673.36,150.47,676.4,192.32Z"/><path class="cls-30" d="M552.08,192.32l25.73-1v-72.9s-5.95-30.2-15.09-13.81Q555.13,150.47,552.08,192.32Z"/><line class="cls-41" x1="614.24" y1="102.09" x2="614.24" y2="252.57"/><circle class="cls-42" cx="622.61" cy="137.98" r="2.64"/><circle class="cls-42" cx="622.61" cy="176.12" r="2.64"/><circle class="cls-42" cx="622.61" cy="219.05" r="2.64"/><path class="cls-42" d="M587.77,91.88h7.14s4.42,6.85,18,10.21C612.87,102.09,602.8,105.23,587.77,91.88Z"/><path class="cls-42" d="M640.69,91.88h-7.14s-4.42,6.85-18,10.21C615.59,102.09,625.67,105.23,640.69,91.88Z"/><path class="cls-9" d="M486.52,314.36,516,308l34.19,6.36-6.1,6.6s-24.13-14-53-1.26Z"/><rect class="cls-16" x="492.98" y="318.92" width="50.73" height="89.43"/><rect class="cls-43" x="501.15" y="320.96" width="34.42" height="81.44"/><rect class="cls-44" x="506.33" y="318.92" width="24.03" height="89.43"/><rect class="cls-45" x="492.99" y="408.35" width="1.93" height="15.11"/><rect class="cls-45" x="498.19" y="408.35" width="1.93" height="15.11"/><rect class="cls-45" x="503.39" y="408.35" width="1.93" height="15.11"/><rect class="cls-45" x="508.59" y="408.35" width="1.93" height="15.11"/><rect class="cls-45" x="513.8" y="408.35" width="1.93" height="15.11"/><rect class="cls-45" x="519" y="408.35" width="1.93" height="15.11"/><rect class="cls-45" x="524.2" y="408.35" width="1.93" height="15.11"/><rect class="cls-45" x="529.4" y="408.35" width="1.93" height="15.11"/><rect class="cls-45" x="534.6" y="408.35" width="1.93" height="15.11"/><rect class="cls-45" x="539.8" y="408.35" width="1.93" height="15.11"/><path class="cls-7" d="M565.24,357.08l-2.39-15.26h-.22v23c-19.79-6.26-11-27.93-8.84-32.52V320.55h14.53V340l1.67,10.6A5.71,5.71,0,0,1,565.24,357.08Z"/><path class="cls-7" d="M586.39,357.08l2.39-15.26H589v23c19.79-6.26,11-27.93,8.84-32.52V320.55H583.31V340l-1.67,10.6A5.71,5.71,0,0,0,586.39,357.08Z"/><path class="cls-9" d="M551.22,320.86l24.43-7.23,24.43,7.23-4.68,6.6a37.92,37.92,0,0,0-40.66-1.26Z"/><path class="cls-10" d="M582.35,305.55a.57.57,0,0,1-.18,1.12h0a6.06,6.06,0,0,0-6.06,6.06,6.13,6.13,0,0,0,0,.69.57.57,0,0,1-1.09.29,6.11,6.11,0,0,1,7.32-8.15Z"/><path class="cls-4" d="M804.65,114c-3.29.39-7.34,5.09-11.16,16.81,0,3.37,1.94,25.07-4.91,34.82-1.48,15.33,4.24,52.83,6.15,68.56-38.65,32-89.14-3.28-90.59,3.13,1.87-15.51,4.57-56.62,3.13-71.75-7.64-10.45-7.21-35.21-7.21-35.21-3.77-11.39-7.76-16-11-16.36C681,113,701,99.91,713.28,99.91h10.18c3.34,9,12.55,15.44,23.39,15.44s20.06-6.46,23.4-15.44h10.18C792.74,99.91,812.71,113,804.65,114Z"/><path class="cls-9" d="M707.67,94.57l24.71-7.31,24.71,7.31-4.73,6.68S733.63,87.1,711.23,100Z"/><path class="cls-10" d="M739.16,79.08a.58.58,0,0,1-.18,1.13h0a6.13,6.13,0,0,0-6.13,6.13,6.2,6.2,0,0,0,0,.7.58.58,0,0,1-1.1.3,6.18,6.18,0,0,1,7.41-8.25Z"/><path class="cls-23" d="M783.54,105.28c-2.91.34-6.5,4.5-9.88,14.88,0,3,1.72,22.19-4.35,30.82-1.31,13.57,3.75,46.76,5.44,60.68-34.21,28.3-78.9-2.91-80.18,2.77,1.65-13.72,4-50.11,2.77-63.5-6.76-9.25-6.38-31.16-6.38-31.16-3.34-10.08-6.87-14.14-9.74-14.48-7.14-.83,10.54-12.44,21.44-12.44h9c3,7.95,11.11,13.67,20.7,13.67s17.76-5.72,20.71-13.67h9C773,92.84,790.68,104.45,783.54,105.28Z"/><g class="cls-46"><rect class="cls-47" x="660.83" y="118.51" width="150.31" height="11.87"/><rect class="cls-47" x="660.83" y="135.88" width="150.31" height="11.87"/><rect class="cls-47" x="660.83" y="153" width="150.31" height="11.87"/><rect class="cls-47" x="660.83" y="170.12" width="150.31" height="11.87"/><rect class="cls-47" x="660.83" y="187.24" width="150.31" height="11.87"/><rect class="cls-47" x="660.83" y="204.36" width="150.31" height="11.87"/></g><path class="cls-1" d="M832.47,115.85,818.34,217.5s8.55,14,33.41,0c0,0,16.88,10.37,31.74,0,0,0,12.38,8.32,18.26,0L874.48,94.25Z"/><path class="cls-9" d="M815.43,94.57l24.71-7.31,24.71,7.31-4.73,6.68S841.38,87.1,819,100Z"/><path class="cls-10" d="M846.91,79.08a.58.58,0,0,1-.18,1.13h0a6.13,6.13,0,0,0-6.13,6.13,6.2,6.2,0,0,0,0,.7.58.58,0,0,1-1.1.3,6.18,6.18,0,0,1,7.41-8.25Z"/><path class="cls-48" d="M814.26,95.9,800.14,197.55s8.55,14,33.41,0c0,0,16.88,10.37,31.74,0,0,0,12.38,8.32,18.26,0L867,95.9Z"/><g class="cls-49"><path class="cls-50" d="M792.65,99.41s49.54,45.35,98.4-3.51"/><path class="cls-50" d="M792.65,115s49.54,45.35,98.4-3.51"/><path class="cls-50" d="M792.65,130.64S842.19,176,891,127.14"/><path class="cls-50" d="M792.65,146.26s49.54,45.35,98.4-3.51"/></g><polygon class="cls-1" points="421.82 330.95 421.82 344.95 421.82 389.26 445.18 389.26 454.02 356.69 462.6 389.26 484.45 389.26 486.22 344.95 480.03 316.25 421.82 330.95"/><path class="cls-9" d="M411.31,316.57l32.2-7.31,32.2,7.31-6.17,6.68S445.13,309.1,415.95,322Z"/><path class="cls-10" d="M450.29,301.08a.58.58,0,0,1-.18,1.13h0a6.13,6.13,0,0,0-6.13,6.13,6.2,6.2,0,0,0,0,.7.58.58,0,0,1-1.1.3,6.18,6.18,0,0,1,7.41-8.25Z"/><polygon class="cls-51" points="411.31 316.25 411.31 330.25 411.31 374.56 434.67 374.56 443.51 341.99 452.08 374.56 473.94 374.56 475.71 330.25 475.71 316.25 411.31 316.25"/><path class="cls-52" d="M951.3,396.55v51.82H917.89a7.05,7.05,0,0,1-7-7V437a7.05,7.05,0,0,1,7-7h14.2V396.55Z"/><g class="cls-53"><rect class="cls-10" x="926.63" y="403.55" width="31.57" height="2.17"/><rect class="cls-10" x="926.63" y="407.56" width="31.57" height="2.17"/><rect class="cls-10" x="926.63" y="411.57" width="31.57" height="2.17"/><rect class="cls-10" x="926.63" y="415.57" width="31.57" height="2.17"/></g><path class="cls-52" d="M974.59,418.6v51.82H941.18a7.05,7.05,0,0,1-7-7v-4.31a7.05,7.05,0,0,1,7-7h14.2V418.6Z"/><g class="cls-54"><rect class="cls-10" x="949.92" y="425.6" width="31.57" height="2.17"/><rect class="cls-10" x="949.92" y="429.6" width="31.57" height="2.17"/><rect class="cls-10" x="949.92" y="433.61" width="31.57" height="2.17"/><rect class="cls-10" x="949.92" y="437.62" width="31.57" height="2.17"/></g><path class="cls-55" d="M433.43,455.85V475H421.62v-7.65s-26,9.57-37.46,7.31c0,0-13-1.76,7-9,15-5.4,20.26-12.34,20.26-12.34"/><path class="cls-55" d="M437.32,455.85V475h11.81v-7.65s26,9.57,37.46,7.31c0,0,13-1.76-7-9-15-5.4-21.29-11.68-21.29-11.68"/><path class="cls-4" d="M845.89,337.65c-3.21.38-7.17,5-10.89,16.4,0,3.29,1.9,24.46-4.79,34-1.44,15,4.14,51.55,6,66.9-37.71,31.2-87-3.21-88.4,3.06,1.82-15.13,4.46-55.24,3.06-70-7.46-10.2-7-34.36-7-34.36-3.68-11.11-7.57-15.59-10.74-16-7.87-.92,11.62-13.72,23.64-13.72h9.93c3.26,8.76,12.24,15.07,22.82,15.07s19.57-6.3,22.83-15.07h9.93C834.27,323.93,853.76,336.73,845.89,337.65Z"/><path class="cls-4" d="M860.83,446l-30.55-1.17V358.21s7.06-35.86,17.92-16.4Q857.21,396.25,860.83,446Z"/><path class="cls-9" d="M751.26,318.72l24.11-7.14,24.11,7.14-4.62,6.51A37.42,37.42,0,0,0,754.73,324Z"/><path class="cls-10" d="M782,303.61a.56.56,0,0,1-.17,1.1h0a6,6,0,0,0-6,6,6.05,6.05,0,0,0,0,.68.56.56,0,0,1-1.08.29,6,6,0,0,1,7.23-8Z"/><path class="cls-56" d="M713.78,433.86l30.55-1.17V346.12s-7.06-35.86-17.92-16.4Q717.39,384.16,713.78,433.86Z"/><path class="cls-56" d="M836.39,433.86l-30.55-1.17V346.12s7.06-35.86,17.92-16.4Q832.77,384.16,836.39,433.86Z"/><path class="cls-57" d="M825.29,329.17c-2.84.34-6.34,4.39-9.64,14.52,0,2.91,1.68,21.65-4.24,30.07-1.28,13.24,3.66,45.62,5.31,59.21-33.38,27.61-77-2.84-78.24,2.71,1.61-13.39,3.95-48.9,2.7-62-6.6-9-6.22-30.41-6.22-30.41-3.26-9.83-6.7-13.8-9.51-14.13-7-.81,10.28-12.14,20.93-12.14h8.79c2.88,7.76,10.84,13.33,20.2,13.33s17.32-5.58,20.21-13.33h8.79C815,317,832.25,328.36,825.29,329.17Z"/><g class="cls-58"><polygon class="cls-9" points="816.18 419.28 819.5 414.45 819.33 420.3 824.85 418.34 821.28 422.98 826.9 424.64 821.28 426.29 824.85 430.94 819.33 428.97 819.5 434.83 816.18 430 812.87 434.83 813.03 428.97 807.51 430.94 811.09 426.29 805.47 424.64 811.09 422.98 807.51 418.34 813.03 420.3 812.87 414.45 816.18 419.28"/><polygon class="cls-9" points="813.25 387.99 816.56 383.16 816.4 389.01 821.92 387.05 818.35 391.69 823.97 393.35 818.35 395 821.92 399.64 816.4 397.68 816.56 403.54 813.25 398.7 809.94 403.54 810.1 397.68 804.58 399.64 808.15 395 802.53 393.35 808.15 391.69 804.58 387.05 810.1 389.01 809.94 383.16 813.25 387.99"/><polygon class="cls-9" points="737.63 413.09 740.94 408.25 740.78 414.11 746.3 412.15 742.73 416.79 748.35 418.44 742.73 420.1 746.3 424.74 740.78 422.78 740.94 428.63 737.63 423.8 734.32 428.63 734.48 422.78 728.96 424.74 732.54 420.1 726.92 418.44 732.54 416.79 728.96 412.15 734.48 414.11 734.32 408.25 737.63 413.09"/><polygon class="cls-9" points="761.25 398.18 764.56 393.35 764.4 399.2 769.92 397.24 766.35 401.88 771.97 403.54 766.35 405.19 769.92 409.84 764.4 407.87 764.56 413.73 761.25 408.89 757.94 413.73 758.1 407.87 752.58 409.84 756.15 405.19 750.53 403.54 756.15 401.88 752.58 397.24 758.1 399.2 757.94 393.35 761.25 398.18"/><polygon class="cls-9" points="745.93 369.82 749.24 364.99 749.08 370.85 754.6 368.88 751.03 373.52 756.65 375.18 751.03 376.84 754.6 381.48 749.08 379.51 749.24 385.37 745.93 380.54 742.62 385.37 742.78 379.51 737.26 381.48 740.84 376.84 735.22 375.18 740.84 373.52 737.26 368.88 742.78 370.85 742.62 364.99 745.93 369.82"/><polygon class="cls-9" points="766.51 435.99 769.82 431.16 769.66 437.01 775.17 435.05 771.6 439.69 777.22 441.35 771.6 443 775.17 447.64 769.66 445.68 769.82 451.54 766.51 446.7 763.2 451.54 763.36 445.68 757.84 447.64 761.41 443 755.79 441.35 761.41 439.69 757.84 435.05 763.36 437.01 763.2 431.16 766.51 435.99"/><polygon class="cls-9" points="737.63 343.18 740.94 338.35 740.78 344.2 746.3 342.24 742.73 346.88 748.35 348.54 742.73 350.19 746.3 354.84 740.78 352.87 740.94 358.73 737.63 353.9 734.32 358.73 734.48 352.87 728.96 354.84 732.54 350.19 726.92 348.54 732.54 346.88 728.96 342.24 734.48 344.2 734.32 338.35 737.63 343.18"/><polygon class="cls-9" points="761.25 322.8 764.56 317.97 764.4 323.82 769.92 321.86 766.35 326.5 771.97 328.16 766.35 329.81 769.92 334.46 764.4 332.49 764.56 338.35 761.25 333.51 757.94 338.35 758.1 332.49 752.58 334.46 756.15 329.81 750.53 328.16 756.15 326.5 752.58 321.86 758.1 323.82 757.94 317.97 761.25 322.8"/><polygon class="cls-9" points="789.49 319.21 792.8 314.38 792.63 320.24 798.15 318.27 794.58 322.92 800.2 324.57 794.58 326.23 798.15 330.87 792.63 328.91 792.8 334.76 789.49 329.93 786.17 334.76 786.34 328.91 780.82 330.87 784.39 326.23 778.77 324.57 784.39 322.92 780.82 318.27 786.34 320.24 786.17 314.38 789.49 319.21"/><polygon class="cls-9" points="809.04 347.57 812.35 342.74 812.19 348.6 817.71 346.63 814.14 351.27 819.76 352.93 814.14 354.58 817.71 359.23 812.19 357.26 812.35 363.12 809.04 358.29 805.73 363.12 805.89 357.26 800.37 359.23 803.95 354.58 798.33 352.93 803.95 351.27 800.37 346.63 805.89 348.6 805.73 342.74 809.04 347.57"/><polygon class="cls-9" points="782.43 353.37 785.74 348.54 785.58 354.4 791.1 352.43 787.52 357.07 793.14 358.73 787.52 360.39 791.1 365.03 785.58 363.06 785.74 368.92 782.43 364.09 779.12 368.92 779.28 363.06 773.76 365.03 777.33 360.39 771.71 358.73 777.33 357.07 773.76 352.43 779.28 354.4 779.12 348.54 782.43 353.37"/></g><path class="cls-56" d="M775.37,330.36l7,114.36s-4.07-106.1,7.09-119.29"/><polygon class="cls-56" points="761.25 325.43 771.68 330.07 782.43 445.95 761.25 325.43"/><path class="cls-1" d="M981.6,187a233.51,233.51,0,0,1-.66-41.22c4.92-8.62,5.06-27.53,5-30.51,2.74-10.36,5.64-14.52,8-14.86C999.78,99.6,985.44,88,976.6,88h-7.3c-2.4,7.94-9,13.65-16.79,13.65S938.11,95.94,935.71,88h-7.3c-8.85,0-23.18,11.6-17.39,12.43,2.33.34,5.2,4.4,7.9,14.46,0,0-.31,21.89,5.17,31.13a233.77,233.77,0,0,1-.68,41L903.8,301s10.32,13.62,40.34,0c0,0,20.38,10.12,38.32,0,0,0,14.95,8.12,22,0Z"/><path class="cls-9" d="M906.14,89.72l24.11-7.14,24.11,7.14-4.62,6.51A37.42,37.42,0,0,0,909.61,95Z"/><path class="cls-10" d="M936.86,74.61a.56.56,0,0,1-.17,1.1h0a6,6,0,0,0-6,6,6.05,6.05,0,0,0,0,.68.56.56,0,0,1-1.08.29,6,6,0,0,1,7.23-8Z"/><path class="cls-52" d="M959.36,186.72a233.51,233.51,0,0,1-.66-41.22c4.92-8.62,5.06-27.53,5-30.51,2.74-10.36,5.64-14.52,8-14.86,5.79-.84-8.55-12.43-17.39-12.43h-7.3c-2.4,7.94-9,13.65-16.79,13.65s-14.4-5.71-16.79-13.65h-7.3c-8.85,0-23.18,11.6-17.39,12.43,2.33.34,5.2,4.4,7.9,14.46,0,0-.31,21.89,5.17,31.13a233.77,233.77,0,0,1-.68,41l-19.6,114s10.32,13.62,40.34,0c0,0,20.38,10.12,38.32,0,0,0,14.95,8.12,22,0Z"/><g class="cls-59"><ellipse class="cls-60" cx="904.44" cy="147.12" rx="22.88" ry="7.33"/><ellipse class="cls-60" cx="948.12" cy="169.29" rx="22.88" ry="7.33"/><ellipse class="cls-60" cx="902.36" cy="189.91" rx="22.88" ry="7.33"/><ellipse class="cls-60" cx="964.61" cy="122.44" rx="22.88" ry="7.33"/><ellipse class="cls-60" cx="959.46" cy="220.07" rx="7.33" ry="22.88" transform="translate(231.09 882.23) rotate(-55.19)"/><ellipse class="cls-60" cx="960.54" cy="265.79" rx="22.88" ry="7.33" transform="translate(-33.75 334.18) rotate(-19.4)"/><ellipse class="cls-60" cx="893.73" cy="230.26" rx="22.88" ry="7.33" transform="translate(-25.74 309.97) rotate(-19.4)"/></g><polygon class="cls-1" points="646.65 328.96 646.65 342.62 656.59 464.22 669.45 464.22 678.66 364.6 686.44 464.22 698.74 464.22 709.49 342.62 709.49 328.96 646.65 328.96"/><path class="cls-9" d="M632.72,317.72l31.42-7.14,31.42,7.14-6,6.51s-23.82-13.81-52.29-1.24Z"/><path class="cls-10" d="M670.75,302.61a.56.56,0,0,1-.17,1.1h0a6,6,0,0,0-6,6,6.05,6.05,0,0,0,0,.68.56.56,0,0,1-1.08.29,6,6,0,0,1,7.23-8Z"/><polygon class="cls-22" points="632.72 317.41 632.72 331.07 642.65 452.67 655.51 452.67 664.73 353.05 672.51 452.67 684.8 452.67 695.56 331.07 695.56 317.41 632.72 317.41"/></g></g></svg>