<svg xmlns="http://www.w3.org/2000/svg" viewBox="0 0 444.89 471.43"><defs><style>.cls-1{fill:#c27514;}.cls-2{fill:#643a00;}.cls-3{fill:#8a5213;}.cls-4{fill:#231f20;}.cls-5{fill:#bcbec0;}.cls-6{fill:#e2cf91;}.cls-7{fill:#fffef9;}.cls-8{fill:#d9d29a;}.cls-10,.cls-11,.cls-9{fill:#c3ba69;}.cls-10,.cls-11{stroke:#c3ba69;stroke-miterlimit:10;}.cls-10{stroke-width:0.45px;}.cls-11{stroke-width:0.5px;}.cls-12{fill:#e06a4d;}.cls-13{fill:#cd4f62;}.cls-14{fill:#f5908a;}.cls-15{fill:#eed1bf;}.cls-16{fill:#e6a454;}.cls-17,.cls-19{fill:#ffffec;}.cls-18{fill:#58469f;}.cls-19{font-size:18px;font-family:Raleway-Bold, Raleway;font-weight:700;}</style></defs><title>clothes 06</title><g id="Layer_2" data-name="Layer 2"><g id="Glavno_Besedilo" data-name="Glavno Besedilo"><rect class="cls-1" width="400.25" height="464.75"/><rect class="cls-2" x="11.43" y="13.9" width="377.38" height="436.95"/><polygon class="cls-1" points="400.25 0 444.89 0 444.89 450.85 388.82 450.85 388.82 0 400.25 0"/><rect class="cls-3" x="10.47" y="13.9" width="195.2" height="436.95"/><rect class="cls-4" x="12.63" y="464.75" width="22.79" height="6.69"/><rect class="cls-4" x="360.47" y="464.75" width="22.79" height="6.69"/><rect class="cls-5" x="11.43" y="75.89" width="377.38" height="1.98"/><path class="cls-6" d="M84.7,89.89l24.43-7.23,24.43,7.23-4.68,6.6a37.92,37.92,0,0,0-40.66-1.26Z"/><path class="cls-7" d="M115.83,74.58a.57.57,0,0,1-.18,1.12h0a6.06,6.06,0,0,0-6.06,6.06,6.13,6.13,0,0,0,0,.69.57.57,0,0,1-1.09.29,6.11,6.11,0,0,1,7.32-8.15Z"/><path class="cls-6" d="M295.91,89.89l31.83-7.23,31.83,7.23-6.1,6.6s-24.13-14-53-1.26Z"/><path class="cls-7" d="M334.44,74.58a.57.57,0,0,1-.18,1.12h0a6.06,6.06,0,0,0-6.06,6.06,6.13,6.13,0,0,0,0,.69.57.57,0,0,1-1.09.29,6.11,6.11,0,0,1,7.32-8.15Z"/><circle class="cls-4" cx="425.02" cy="225.42" r="13.37"/><path class="cls-4" d="M92.19,399.62v51.23h-33a7,7,0,0,1-7-7v-4.27a7,7,0,0,1,7-7h14v-33Z"/><path class="cls-4" d="M135,399.62v51.23H102a7,7,0,0,1-7-7v-4.27a7,7,0,0,1,7-7h14v-33Z"/><path class="cls-2" d="M150.77,96.07h-8.41C139.6,102,132,106.27,123,106.27S106.46,102,103.7,96.07H95.29c-10.18,0-26.68,8.67-20,9.3,2.81.26,6.28,3.56,9.51,11.85V256.75h76.49V117.21c3.24-8.29,6.71-11.59,9.51-11.85C177.45,104.74,161,96.07,150.77,96.07Z"/><path class="cls-2" d="M185.19,196.5l-25.73-1v-72.9s5.95-30.2,15.09-13.81Q182.15,154.65,185.19,196.5Z"/><path class="cls-2" d="M60.87,196.5l25.73-1v-72.9s-5.95-30.2-15.09-13.81Q63.91,154.65,60.87,196.5Z"/><line class="cls-2" x1="123.03" y1="106.27" x2="123.03" y2="256.75"/><circle class="cls-2" cx="131.4" cy="142.16" r="2.64"/><circle class="cls-2" cx="131.4" cy="180.3" r="2.64"/><circle class="cls-2" cx="131.4" cy="223.24" r="2.64"/><path class="cls-2" d="M96.56,96.07h7.14s4.42,6.85,18,10.21C121.66,106.27,111.59,109.41,96.56,96.07Z"/><path class="cls-2" d="M149.48,96.07h-7.14s-4.42,6.85-18,10.21C124.38,106.27,134.46,109.41,149.48,96.07Z"/><path class="cls-8" d="M136.87,87.91h-8.41c-2.76,5.94-10.37,10.21-19.33,10.21S92.56,93.85,89.8,87.91H81.39c-10.18,0-26.68,8.67-20,9.3,2.81.26,6.28,3.56,9.51,11.85V248.6h76.49V109.05c3.24-8.29,6.71-11.59,9.51-11.85C163.55,96.58,147,87.91,136.87,87.91Z"/><path class="cls-9" d="M171.29,188.35l-25.73-1v-72.9s5.95-30.2,15.09-13.81Q168.24,146.5,171.29,188.35Z"/><path class="cls-9" d="M47,188.35l25.73-1v-72.9s-5.95-30.2-15.09-13.81Q50,146.5,47,188.35Z"/><line class="cls-10" x1="109.13" y1="98.12" x2="109.13" y2="248.6"/><circle class="cls-11" cx="117.5" cy="134.01" r="2.64"/><circle class="cls-11" cx="117.5" cy="172.15" r="2.64"/><circle class="cls-11" cx="117.5" cy="215.08" r="2.64"/><path class="cls-11" d="M82.66,87.91H89.8s4.42,6.85,18,10.21C107.76,98.12,97.68,101.26,82.66,87.91Z"/><path class="cls-11" d="M135.58,87.91h-7.14s-4.42,6.85-18,10.21C110.48,98.12,120.55,101.26,135.58,87.91Z"/><path class="cls-4" d="M216.12,126.11l-2.39-15.26h-.22v23c-19.79-6.26-11-27.93-8.84-32.52V89.57h14.53V109l1.67,10.6A5.71,5.71,0,0,1,216.12,126.11Z"/><path class="cls-4" d="M237.28,126.11l2.39-15.26h.22v23c19.79-6.26,11-27.93,8.84-32.52V89.57H234.19V109l-1.67,10.6A5.71,5.71,0,0,0,237.28,126.11Z"/><rect class="cls-12" x="302.37" y="94.45" width="50.73" height="89.43"/><rect class="cls-13" x="310.53" y="96.49" width="34.42" height="81.44"/><rect class="cls-14" x="315.72" y="94.45" width="24.03" height="89.43"/><rect class="cls-15" x="302.38" y="183.88" width="1.93" height="15.11"/><rect class="cls-15" x="307.58" y="183.88" width="1.93" height="15.11"/><rect class="cls-15" x="312.78" y="183.88" width="1.93" height="15.11"/><rect class="cls-15" x="317.98" y="183.88" width="1.93" height="15.11"/><rect class="cls-15" x="323.18" y="183.88" width="1.93" height="15.11"/><rect class="cls-15" x="328.38" y="183.88" width="1.93" height="15.11"/><rect class="cls-15" x="333.58" y="183.88" width="1.93" height="15.11"/><rect class="cls-15" x="338.79" y="183.88" width="1.93" height="15.11"/><rect class="cls-15" x="343.99" y="183.88" width="1.93" height="15.11"/><rect class="cls-15" x="349.19" y="183.88" width="1.93" height="15.11"/><path class="cls-6" d="M202.11,89.89l24.43-7.23L251,89.89l-4.68,6.6a37.92,37.92,0,0,0-40.66-1.26Z"/><path class="cls-7" d="M233.23,74.58a.57.57,0,0,1-.18,1.12h0A6.06,6.06,0,0,0,227,81.75a6.13,6.13,0,0,0,0,.69.57.57,0,0,1-1.09.29,6.11,6.11,0,0,1,7.32-8.15Z"/><circle class="cls-16" cx="159.01" cy="395.6" r="18.17"/><path class="cls-17" d="M163.78,395q0,5.68,0,11.37a.57.57,0,0,1-.35.62.6.6,0,0,1-.61-.15l-5.28-4.09c-.71-.55-1.42-1.12-2.15-1.66A.73.73,0,0,0,155,401h-6.52c-.58,0-.74-.16-.74-.75q0-5.22,0-10.44c0-.59.15-.75.73-.75H155a.8.8,0,0,0,.45-.16l7.41-5.74a.6.6,0,0,1,.66-.13.57.57,0,0,1,.3.6Q163.78,389.29,163.78,395Z"/><path class="cls-17" d="M166,401.2c0-.46,0-.9,0-1.35,0-.07.14-.16.23-.18a4.88,4.88,0,0,0,0-9.42c-.22-.06-.3-.15-.29-.38,0-.39,0-.77,0-1.16a6.32,6.32,0,0,1,0,12.49Z"/><path class="cls-17" d="M166,399c0-.53,0-1,0-1.54,0-.07.08-.15.15-.2a2.57,2.57,0,0,0,0-4.11A.34.34,0,0,1,166,393c0-.49,0-1,0-1.49,1.18.15,2.47,1.82,2.63,3.37A4.06,4.06,0,0,1,166,399Z"/><circle class="cls-16" cx="226.73" cy="165.46" r="18.17"/><path class="cls-17" d="M231.5,164.86q0,5.68,0,11.37a.57.57,0,0,1-.35.62.6.6,0,0,1-.61-.15l-5.28-4.09c-.71-.55-1.42-1.12-2.15-1.66a.73.73,0,0,0-.41-.13h-6.52c-.58,0-.74-.16-.74-.75q0-5.22,0-10.44c0-.59.15-.75.73-.75h6.5a.8.8,0,0,0,.45-.16l7.41-5.74a.6.6,0,0,1,.66-.13.57.57,0,0,1,.3.6Q231.5,159.15,231.5,164.86Z"/><path class="cls-17" d="M233.7,171.06c0-.46,0-.9,0-1.35,0-.07.14-.16.23-.18a4.88,4.88,0,0,0,0-9.42c-.22-.06-.3-.15-.29-.38,0-.39,0-.77,0-1.16a6.32,6.32,0,0,1,0,12.49Z"/><path class="cls-17" d="M233.7,168.87c0-.53,0-1,0-1.54,0-.07.08-.15.15-.2a2.57,2.57,0,0,0,0-4.11.34.34,0,0,1-.13-.21c0-.49,0-1,0-1.49,1.18.15,2.47,1.82,2.63,3.37A4.06,4.06,0,0,1,233.7,168.87Z"/><circle class="cls-16" cx="86.21" cy="277.36" r="18.17"/><path class="cls-17" d="M91,276.76q0,5.68,0,11.37a.57.57,0,0,1-.35.62.6.6,0,0,1-.61-.15l-5.28-4.09c-.71-.55-1.42-1.12-2.15-1.66a.73.73,0,0,0-.41-.13H75.67c-.58,0-.74-.16-.74-.75q0-5.22,0-10.44c0-.59.15-.75.73-.75h6.5a.8.8,0,0,0,.45-.16L90,264.88a.6.6,0,0,1,.66-.13.57.57,0,0,1,.3.6Q91,271.05,91,276.76Z"/><path class="cls-17" d="M93.17,283c0-.46,0-.9,0-1.35,0-.07.14-.16.23-.18a4.88,4.88,0,0,0,0-9.42c-.22-.06-.3-.15-.29-.38,0-.39,0-.77,0-1.16a6.32,6.32,0,0,1,0,12.49Z"/><path class="cls-17" d="M93.18,280.77c0-.53,0-1,0-1.54,0-.07.08-.15.15-.2a2.57,2.57,0,0,0,0-4.11.34.34,0,0,1-.13-.21c0-.49,0-1,0-1.49,1.18.15,2.47,1.82,2.63,3.37A4.06,4.06,0,0,1,93.18,280.77Z"/><circle class="cls-16" cx="338.49" cy="226.6" r="18.17"/><path class="cls-17" d="M343.26,226q0,5.68,0,11.37a.57.57,0,0,1-.35.62.6.6,0,0,1-.61-.15L337,233.74c-.71-.55-1.42-1.12-2.15-1.66a.73.73,0,0,0-.41-.13H328c-.58,0-.74-.16-.74-.75q0-5.22,0-10.44c0-.59.15-.75.73-.75h6.5a.8.8,0,0,0,.45-.16l7.41-5.74A.6.6,0,0,1,343,214a.57.57,0,0,1,.3.6Q343.26,220.29,343.26,226Z"/><path class="cls-17" d="M345.46,232.19c0-.46,0-.9,0-1.35,0-.07.14-.16.23-.18a4.88,4.88,0,0,0,0-9.42c-.22-.06-.3-.15-.29-.38,0-.39,0-.77,0-1.16a6.32,6.32,0,0,1,0,12.49Z"/><path class="cls-17" d="M345.46,230c0-.53,0-1,0-1.54,0-.07.08-.15.15-.2a2.57,2.57,0,0,0,0-4.11.34.34,0,0,1-.13-.21c0-.49,0-1,0-1.49,1.18.15,2.47,1.82,2.63,3.37A4.06,4.06,0,0,1,345.46,230Z"/><circle class="cls-18" cx="194.51" cy="395.1" r="17.38"/><text class="cls-19" transform="translate(188.55 399.03)">1.</text><circle class="cls-18" cx="86.51" cy="313.1" r="17.38"/><text class="cls-19" transform="translate(80.55 317.03)">2.</text><circle class="cls-18" cx="225.51" cy="199.1" r="17.38"/><text class="cls-19" transform="translate(219.55 203.03)">3.</text><circle class="cls-18" cx="337.51" cy="264.1" r="17.38"/><text class="cls-19" transform="translate(331.55 268.03)">4.</text></g></g></svg>