<svg xmlns="http://www.w3.org/2000/svg" xmlns:xlink="http://www.w3.org/1999/xlink" viewBox="0 0 351.89 372.88"><defs><style>.cls-1{fill:none;}.cls-2{fill:#c27514;}.cls-3{fill:#643a00;}.cls-4{fill:#562d00;}.cls-5{fill:#8a5213;}.cls-6{fill:#cabcdc;}.cls-7{fill:#231f20;}.cls-8{fill:#bcbec0;}.cls-9{fill:#e2cf91;}.cls-10{fill:#fffef9;}.cls-11{fill:#fffabe;}.cls-12{fill:#ebe2a3;}.cls-13{clip-path:url(#clip-path);}.cls-14{fill:#f15d2a;}.cls-15{clip-path:url(#clip-path-2);}.cls-16{fill:#d55225;}.cls-17{fill:#0054a6;}</style><clipPath id="clip-path"><path class="cls-1" d="M126.32,79.47c-2.28.27-5.08,3.52-7.72,11.63,0,2.33,1.34,17.35-3.4,24.1-1,10.61,2.93,36.56,4.25,47.45-26.75,22.13-61.7-2.27-62.7,2.17,1.29-10.73,3.16-39.18,2.17-49.66-5.29-7.23-5-24.37-5-24.37-2.61-7.88-5.37-11.06-7.62-11.32-5.58-.65,8.24-9.73,16.77-9.73h7C72.43,76,78.81,80.43,86.31,80.43S100.2,76,102.51,69.74h7C118.08,69.74,131.9,78.82,126.32,79.47Z"/></clipPath><clipPath id="clip-path-2"><path class="cls-1" d="M202.51,148.83a187.13,187.13,0,0,1-.53-33c3.94-6.9,4.05-22.06,4-24.45,2.19-8.3,4.52-11.64,6.42-11.91,4.64-.67-6.85-10-13.94-10h-5.85c-1.92,6.36-7.22,10.94-13.46,10.94s-11.54-4.58-13.46-10.94h-5.85c-7.09,0-18.58,9.29-13.94,10,1.87.27,4.16,3.52,6.33,11.59,0,0-.25,17.54,4.14,24.95a187.34,187.34,0,0,1-.54,32.86L140.16,240.2s8.27,10.91,32.33,0c0,0,16.33,8.11,30.71,0,0,0,12,6.5,17.67,0Z"/></clipPath></defs><title>clothes 01</title><g id="Layer_2" data-name="Layer 2"><g id="Glavno_Besedilo" data-name="Glavno Besedilo"><rect class="cls-2" width="316.58" height="367.59"/><rect class="cls-3" x="9.04" y="10.99" width="298.49" height="345.61"/><path class="cls-4" d="M225.94,159.46a187.13,187.13,0,0,1-.53-33c3.94-6.9,4.05-22.06,4-24.45,2.19-8.3,4.52-11.64,6.42-11.91,4.64-.67-6.85-10-13.94-10h-5.85C214.16,86.47,208.86,91,202.62,91s-11.54-4.58-13.46-10.94h-5.85c-7.09,0-18.58,9.29-13.94,10,1.87.27,4.16,3.52,6.33,11.59,0,0-.25,17.54,4.14,24.95a187.34,187.34,0,0,1-.54,32.86L163.6,250.83s8.27,10.91,32.33,0c0,0,16.33,8.11,30.71,0,0,0,12,6.5,17.67,0Z"/><polygon class="cls-4" points="245.22 80.11 245.22 91.05 253.18 188.5 263.48 188.5 270.87 108.67 277.1 188.5 286.96 188.5 295.58 91.05 295.58 80.11 245.22 80.11"/><rect class="cls-5" x="8.28" y="10.99" width="154.39" height="345.61"/><path class="cls-3" d="M142.83,86.27c-2.57.3-5.74,4-8.72,13.14,0,2.64,1.52,19.6-3.84,27.23-1.16,12,3.31,41.31,4.81,53.61-30.22,25-69.71-2.57-70.84,2.45,1.46-12.13,3.57-44.27,2.45-56.1C60.7,118.42,61,99.06,61,99.06c-3-8.9-6.07-12.49-8.61-12.79-6.31-.73,9.31-11,18.95-11h8c2.61,7,9.81,12.07,18.29,12.07s15.69-5,18.3-12.07h8C133.51,75.27,149.13,85.53,142.83,86.27Z"/><path class="cls-6" d="M92,341.27V356.6H82.51v-6.13s-20.86,7.67-30,5.86c0,0-10.44-1.41,5.59-7.19,12-4.32,16.23-9.89,16.23-9.89"/><path class="cls-6" d="M95.09,341.27V356.6h9.46v-6.13s20.86,7.67,30,5.86c0,0,10.44-1.41-5.59-7.19-12-4.32-17.06-9.36-17.06-9.36"/><rect class="cls-7" x="9.99" y="367.59" width="18.02" height="5.29"/><rect class="cls-7" x="285.11" y="367.59" width="18.02" height="5.29"/><rect class="cls-8" x="9.04" y="60.03" width="298.49" height="1.57"/><path class="cls-9" d="M67,71.1l19.32-5.72,19.32,5.72-3.7,5.22a30,30,0,0,0-32.16-1Z"/><path class="cls-3" d="M154.8,173.06l-24.48-.94V102.74S136,74,144.68,89.6Q151.9,133.23,154.8,173.06Z"/><path class="cls-10" d="M91.62,59a.45.45,0,0,1-.14.88h0a4.79,4.79,0,0,0-4.79,4.79,4.85,4.85,0,0,0,0,.54.45.45,0,0,1-.86.23A4.84,4.84,0,0,1,91.62,59Z"/><path class="cls-9" d="M159.86,71.1l19.32-5.72L198.5,71.1l-3.7,5.22a30,30,0,0,0-32.16-1Z"/><path class="cls-10" d="M184.48,59a.45.45,0,0,1-.14.88h0a4.79,4.79,0,0,0-4.79,4.79,4.85,4.85,0,0,0,0,.54.45.45,0,0,1-.86.23A4.84,4.84,0,0,1,184.48,59Z"/><path class="cls-9" d="M234.05,71.1l25.18-5.72,25.18,5.72-4.82,5.22a48.92,48.92,0,0,0-41.91-1Z"/><path class="cls-10" d="M264.53,59a.45.45,0,0,1-.14.88h0a4.79,4.79,0,0,0-4.79,4.79,4.85,4.85,0,0,0,0,.54.45.45,0,0,1-.86.23A4.84,4.84,0,0,1,264.53,59Z"/><path class="cls-11" d="M37,163.37l24.48-.94V93.05S55.78,64.32,47.08,79.91Q39.85,123.54,37,163.37Z"/><path class="cls-11" d="M135.21,163.37l-24.48-.94V93.05s5.66-28.74,14.36-13.14Q132.31,123.54,135.21,163.37Z"/><path class="cls-12" d="M126.32,79.47c-2.28.27-5.08,3.52-7.72,11.63,0,2.33,1.34,17.35-3.4,24.1-1,10.61,2.93,36.56,4.25,47.45-26.75,22.13-61.7-2.27-62.7,2.17,1.29-10.73,3.16-39.18,2.17-49.66-5.29-7.23-5-24.37-5-24.37-2.61-7.88-5.37-11.06-7.62-11.32-5.58-.65,8.24-9.73,16.77-9.73h7C72.43,76,78.81,80.43,86.31,80.43S100.2,76,102.51,69.74h7C118.08,69.74,131.9,78.82,126.32,79.47Z"/><g class="cls-13"><polygon class="cls-9" points="119.02 151.69 121.68 147.81 121.55 152.51 125.97 150.93 123.11 154.65 127.61 155.98 123.11 157.31 125.97 161.03 121.55 159.45 121.68 164.15 119.02 160.27 116.37 164.15 116.5 159.45 112.08 161.03 114.94 157.31 110.44 155.98 114.94 154.65 112.08 150.93 116.5 152.51 116.37 147.81 119.02 151.69"/><polygon class="cls-9" points="116.67 126.61 119.33 122.74 119.2 127.43 123.62 125.86 120.76 129.58 125.26 130.9 120.76 132.23 123.62 135.95 119.2 134.38 119.33 139.07 116.67 135.2 114.02 139.07 114.15 134.38 109.72 135.95 112.59 132.23 108.08 130.9 112.59 129.58 109.72 125.86 114.15 127.43 114.02 122.74 116.67 126.61"/><polygon class="cls-9" points="56.07 146.72 58.73 142.85 58.6 147.54 63.02 145.97 60.16 149.69 64.66 151.02 60.16 152.34 63.02 156.06 58.6 154.49 58.73 159.18 56.07 155.31 53.42 159.18 53.55 154.49 49.13 156.06 51.99 152.34 47.49 151.02 51.99 149.69 49.13 145.97 53.55 147.54 53.42 142.85 56.07 146.72"/><polygon class="cls-9" points="75 134.78 77.65 130.9 77.52 135.6 81.95 134.02 79.08 137.74 83.59 139.07 79.08 140.4 81.95 144.12 77.52 142.54 77.65 147.24 75 143.36 72.35 147.24 72.48 142.54 68.05 144.12 70.92 140.4 66.41 139.07 70.92 137.74 68.05 134.02 72.48 135.6 72.35 130.9 75 134.78"/><polygon class="cls-9" points="62.72 112.05 65.38 108.18 65.25 112.87 69.67 111.3 66.81 115.02 71.31 116.35 66.81 117.67 69.67 121.39 65.25 119.82 65.38 124.51 62.72 120.64 60.07 124.51 60.2 119.82 55.78 121.39 58.64 117.67 54.14 116.35 58.64 115.02 55.78 111.3 60.2 112.87 60.07 108.18 62.72 112.05"/><polygon class="cls-9" points="79.21 165.08 81.87 161.2 81.74 165.9 86.16 164.32 83.3 168.04 87.8 169.37 83.3 170.7 86.16 174.42 81.74 172.84 81.87 177.54 79.21 173.66 76.56 177.54 76.69 172.84 72.27 174.42 75.13 170.7 70.63 169.37 75.13 168.04 72.27 164.32 76.69 165.9 76.56 161.2 79.21 165.08"/><polygon class="cls-9" points="56.07 90.7 58.73 86.83 58.6 91.52 63.02 89.95 60.16 93.67 64.66 95 60.16 96.32 63.02 100.04 58.6 98.47 58.73 103.16 56.07 99.29 53.42 103.16 53.55 98.47 49.13 100.04 51.99 96.32 47.49 95 51.99 93.67 49.13 89.95 53.55 91.52 53.42 86.83 56.07 90.7"/><polygon class="cls-9" points="75 74.37 77.65 70.5 77.52 75.19 81.95 73.61 79.08 77.33 83.59 78.66 79.08 79.99 81.95 83.71 77.52 82.14 77.65 86.83 75 82.96 72.35 86.83 72.48 82.14 68.05 83.71 70.92 79.99 66.41 78.66 70.92 77.33 68.05 73.61 72.48 75.19 72.35 70.5 75 74.37"/><polygon class="cls-9" points="97.63 71.5 100.28 67.62 100.15 72.31 104.57 70.74 101.71 74.46 106.21 75.79 101.71 77.12 104.57 80.84 100.15 79.26 100.28 83.96 97.63 80.08 94.97 83.96 95.1 79.26 90.68 80.84 93.54 77.12 89.04 75.79 93.54 74.46 90.68 70.74 95.1 72.31 94.97 67.62 97.63 71.5"/><polygon class="cls-9" points="113.3 94.22 115.95 90.35 115.82 95.04 120.25 93.47 117.38 97.19 121.89 98.51 117.38 99.84 120.25 103.56 115.82 101.99 115.95 106.68 113.3 102.81 110.65 106.68 110.78 101.99 106.35 103.56 109.22 99.84 104.71 98.51 109.22 97.19 106.35 93.47 110.78 95.04 110.65 90.35 113.3 94.22"/><polygon class="cls-9" points="91.97 98.87 94.62 95 94.49 99.69 98.92 98.11 96.05 101.84 100.56 103.16 96.05 104.49 98.92 108.21 94.49 106.64 94.62 111.33 91.97 107.46 89.32 111.33 89.45 106.64 85.02 108.21 87.89 104.49 83.38 103.16 87.89 101.84 85.02 98.11 89.45 99.69 89.32 95 91.97 98.87"/></g><path class="cls-11" d="M86.31,80.43l5.63,91.64s-3.26-85,5.68-95.6"/><polygon class="cls-11" points="75 76.47 83.36 80.19 91.97 173.06 75 76.47"/><path class="cls-14" d="M202.51,148.83a187.13,187.13,0,0,1-.53-33c3.94-6.9,4.05-22.06,4-24.45,2.19-8.3,4.52-11.64,6.42-11.91,4.64-.67-6.85-10-13.94-10h-5.85c-1.92,6.36-7.22,10.94-13.46,10.94s-11.54-4.58-13.46-10.94h-5.85c-7.09,0-18.58,9.29-13.94,10,1.87.27,4.16,3.52,6.33,11.59,0,0-.25,17.54,4.14,24.95a187.34,187.34,0,0,1-.54,32.86L140.16,240.2s8.27,10.91,32.33,0c0,0,16.33,8.11,30.71,0,0,0,12,6.5,17.67,0Z"/><g class="cls-15"><ellipse class="cls-16" cx="158.5" cy="117.1" rx="18.34" ry="5.88"/><ellipse class="cls-16" cx="193.5" cy="134.86" rx="18.34" ry="5.88"/><ellipse class="cls-16" cx="156.83" cy="151.39" rx="18.34" ry="5.88"/><ellipse class="cls-16" cx="206.72" cy="97.32" rx="18.34" ry="5.88"/><ellipse class="cls-16" cx="202.59" cy="175.56" rx="5.88" ry="18.34" transform="translate(-57.2 241.68) rotate(-55.19)"/><ellipse class="cls-16" cx="203.46" cy="212.2" rx="18.34" ry="5.88" transform="translate(-58.94 79.64) rotate(-19.4)"/><ellipse class="cls-16" cx="149.91" cy="183.73" rx="18.34" ry="5.88" transform="translate(-52.52 60.23) rotate(-19.4)"/></g><polygon class="cls-17" points="234.05 70.85 234.05 81.8 242.01 179.25 252.32 179.25 259.7 99.41 265.94 179.25 275.79 179.25 284.41 81.8 284.41 70.85 234.05 70.85"/><polygon class="cls-2" points="316.58 0 351.89 0 351.89 356.6 307.54 356.6 307.54 0 316.58 0"/><circle class="cls-7" cx="335.95" cy="178.3" r="10.58"/></g></g></svg>