<svg xmlns="http://www.w3.org/2000/svg" viewBox="0 0 446.89 473.55"><defs><style>.cls-1{fill:#c27514;}.cls-2{fill:#643a00;}.cls-3{fill:#8a5213;}.cls-4{fill:#562d00;}.cls-5{fill:#231f20;}.cls-6{fill:#bcbec0;}.cls-7{fill:#e2cf91;}.cls-8{fill:#fffef9;}.cls-9{fill:#666e9c;}.cls-10,.cls-11,.cls-12,.cls-13{fill:#c3ba69;}.cls-11,.cls-12,.cls-13{stroke:#c3ba69;}.cls-11,.cls-12,.cls-13,.cls-16{stroke-miterlimit:10;}.cls-11{stroke-width:0.39px;}.cls-12,.cls-16{stroke-width:0.5px;}.cls-13{stroke-width:0.42px;}.cls-14{fill:#c1c0db;}.cls-15,.cls-16{fill:#ffddb3;}.cls-16{stroke:#e1835b;}.cls-17{fill:#d53d96;}.cls-18{fill:#cc6ca2;}.cls-19{fill:#f8b1b2;}.cls-20{fill:#e6a454;}.cls-21,.cls-23{fill:#ffffec;}.cls-22{fill:#58469f;}.cls-23{font-size:18px;font-family:Raleway-Bold, Raleway;font-weight:700;}</style></defs><title>clothes 08</title><g id="Layer_2" data-name="Layer 2"><g id="Glavno_Besedilo" data-name="Glavno Besedilo"><rect class="cls-1" width="402.05" height="466.83"/><rect class="cls-2" x="11.48" y="13.96" width="379.08" height="438.91"/><polygon class="cls-1" points="402.05 0 446.89 0 446.89 452.87 390.56 452.87 390.56 0 402.05 0"/><rect class="cls-3" x="10.52" y="13.96" width="196.07" height="438.91"/><path class="cls-2" d="M151.92,94.67h-8.45c-2.77,4.3-10.42,7.4-19.42,7.4s-16.65-3.09-19.42-7.4H96.19c-10.23,0-26.8,6.29-20.11,6.74,2.82.19,6.3,2.58,9.56,8.59V211.14h76.84V110c3.25-6,6.74-8.4,9.56-8.59C178.72,101,162.15,94.67,151.92,94.67Z"/><path class="cls-2" d="M184.51,193l-25.84-1V118.79s6-30.33,15.15-13.87Q181.45,151,184.51,193Z"/><path class="cls-2" d="M62.66,193l25.84-1V118.79s-6-30.33-15.15-13.87Q65.72,151,62.66,193Z"/><line class="cls-2" x1="124.06" y1="102.07" x2="124.06" y2="211.14"/><circle class="cls-2" cx="132.46" cy="140.97" r="2.65"/><circle class="cls-2" cx="132.46" cy="166.17" r="2.65"/><circle class="cls-2" cx="132.46" cy="195.56" r="2.65"/><path class="cls-2" d="M97.47,94.67h7.17s4.44,4.81,18,7.17C122.68,101.84,112.56,104,97.47,94.67Z"/><path class="cls-2" d="M150.63,94.67h-7.17s-4.44,4.81-18,7.17C125.42,101.84,135.53,104,150.63,94.67Z"/><path class="cls-4" d="M260.13,117.09a21.36,21.36,0,0,1,.22,21.15c.1.83.22,1.66.35,2.51.28,1.83.61,3.72,1,5.72C264,159.82,270,172.76,268,186.2c0,2.49-7,3.48-11,6.27-1.59.95-3.18,2-4.74,3.11-6.21,4.54-11.72,10.79-13,20.25.53-3.81-6.65-15.51-26.81-29.14q-2-1.36-4.18-2.75c1.54-15.66,5.52-30.09,5.49-45.5q.16-1.31.31-2.8a21,21,0,0,1-2.23-9.55,20.73,20.73,0,0,1,2.7-10.4,83.73,83.73,0,0,0-5.08-25.23,14.33,14.33,0,0,1,3.46-.48h7.43c2.44,8.08,9.17,13.89,17.09,13.89S252.09,98.06,254.53,90H262a20.57,20.57,0,0,1,8.46,2.35C270.17,92.56,262.33,99.8,260.13,117.09Z"/><rect class="cls-5" x="12.69" y="466.83" width="22.89" height="6.72"/><rect class="cls-5" x="362.09" y="466.83" width="22.89" height="6.72"/><rect class="cls-6" x="11.48" y="76.23" width="379.08" height="1.99"/><path class="cls-7" d="M297.24,90.29l32-7.26,32,7.26-6.13,6.63s-24.24-14.05-53.22-1.26Z"/><path class="cls-8" d="M335.95,74.91a.57.57,0,0,1-.18,1.12h0a6.09,6.09,0,0,0-6.08,6.08,6.16,6.16,0,0,0,0,.69.57.57,0,0,1-1.1.29,6.14,6.14,0,0,1,7.36-8.19Z"/><circle class="cls-5" cx="426.94" cy="226.44" r="13.43"/><path class="cls-7" d="M85.08,90.29,109.62,83l24.54,7.26-4.7,6.63a38.09,38.09,0,0,0-40.84-1.26Z"/><path class="cls-8" d="M116.35,74.91a.57.57,0,0,1-.18,1.12h0A6.09,6.09,0,0,0,110,82.12a6.16,6.16,0,0,0,0,.69.57.57,0,0,1-1.1.29,6.14,6.14,0,0,1,7.36-8.19Z"/><path class="cls-9" d="M137.48,88.3H129c-2.77,4.3-10.42,7.4-19.42,7.4S93,92.61,90.2,88.3H81.76C71.53,88.3,55,94.59,61.65,95c2.82.19,6.3,2.58,9.56,8.59V204.77H148V103.63c3.25-6,6.74-8.4,9.56-8.59C164.29,94.59,147.71,88.3,137.48,88.3Z"/><path class="cls-10" d="M170.07,186.64l-25.84-1V112.42s6-30.33,15.15-13.87Q167,144.6,170.07,186.64Z"/><path class="cls-10" d="M48.22,186.64l25.84-1V112.42s-6-30.33-15.15-13.87Q51.28,144.6,48.22,186.64Z"/><line class="cls-11" x1="109.62" y1="95.7" x2="109.62" y2="204.77"/><circle class="cls-12" cx="118.03" cy="134.61" r="2.65"/><circle class="cls-12" cx="118.03" cy="159.8" r="2.65"/><circle class="cls-12" cx="118.03" cy="189.19" r="2.65"/><path class="cls-13" d="M83,88.3H90.2s4.44,4.81,18,7.17C108.24,95.48,98.12,97.68,83,88.3Z"/><path class="cls-13" d="M136.19,88.3H129s-4.44,4.81-18,7.17C111,95.48,121.1,97.68,136.19,88.3Z"/><path class="cls-7" d="M203,90.29,227.55,83l24.54,7.26-4.7,6.63a38.09,38.09,0,0,0-40.84-1.26Z"/><path class="cls-8" d="M234.28,74.91a.57.57,0,0,1-.18,1.12h0A6.09,6.09,0,0,0,228,82.12a6.16,6.16,0,0,0,0,.69.57.57,0,0,1-1.1.29,6.14,6.14,0,0,1,7.36-8.19Z"/><path class="cls-14" d="M249.18,117.09a21.36,21.36,0,0,1,.22,21.15c.1.83.22,1.66.35,2.51.28,1.83.61,3.72,1,5.72,2.33,13.35,8.3,26.29,6.31,39.72,0,2.49-7,3.48-11,6.27-1.59.95-3.18,2-4.74,3.11-6.21,4.54-11.72,10.79-13,20.25.53-3.81-6.65-15.51-26.81-29.14q-2-1.36-4.18-2.75c1.54-15.66,5.52-30.09,5.49-45.5q.16-1.31.31-2.8a21,21,0,0,1-2.23-9.55,20.73,20.73,0,0,1,2.7-10.4,83.73,83.73,0,0,0-5.08-25.23A14.33,14.33,0,0,1,202,90h7.43c2.44,8.08,9.17,13.89,17.09,13.89S241.14,98.06,243.58,90H251a20.57,20.57,0,0,1,8.46,2.35C259.22,92.56,251.39,99.8,249.18,117.09Z"/><path class="cls-15" d="M78.24,452.84c-9.17,0-18.34,0-27.51,0-1.56,0-1.94-.46-2-2-.26-4.83,1-9.34,2.64-13.78.42-1.17.31-1.76-.79-2.34A5,5,0,0,1,48.46,433a3.32,3.32,0,0,1-.24-.9c.31-.07.65-.26.91-.19a2.71,2.71,0,0,1,1.36.7c2,2.64,5.13,3,8,3.46a16.33,16.33,0,0,0,9.44-1c2.47-1.08,3.46-3.49,5.13-5.28.33-.35-.09-.87-.15-1.31a2.87,2.87,0,0,1,1.32-2.87,2.16,2.16,0,0,1,2.87.36,35.5,35.5,0,0,1,3.36,3.3c4.08,4.83,9.45,7.95,14.59,11.44,5,3.39,10.51,4,16.14,4.59a8.18,8.18,0,0,1,4.34,1.66c1.13.9,1.15,1.67-.09,2.63a15.87,15.87,0,0,1-9.9,3.16c-9.11.06-18.21,0-27.32,0Z"/><line class="cls-16" x1="84.07" y1="432.93" x2="80.19" y2="436.73"/><line class="cls-16" x1="86.19" y1="434.83" x2="82.31" y2="438.63"/><line class="cls-16" x1="88.94" y1="436.73" x2="85.05" y2="440.54"/><line class="cls-16" x1="91.92" y1="438.63" x2="88.03" y2="442.44"/><path class="cls-15" d="M149.26,452.84c-9.17,0-18.34,0-27.51,0-1.56,0-1.94-.46-2-2-.26-4.83,1-9.34,2.64-13.78.42-1.17.31-1.76-.79-2.34a5,5,0,0,1-2.09-1.74,3.32,3.32,0,0,1-.24-.9c.31-.07.65-.26.91-.19a2.71,2.71,0,0,1,1.36.7c2,2.64,5.13,3,8,3.46a16.33,16.33,0,0,0,9.44-1c2.47-1.08,3.46-3.49,5.13-5.28.33-.35-.09-.87-.15-1.31a2.87,2.87,0,0,1,1.32-2.87,2.16,2.16,0,0,1,2.87.36,35.5,35.5,0,0,1,3.36,3.3c4.08,4.83,9.45,7.95,14.59,11.44,5,3.39,10.51,4,16.14,4.59a8.18,8.18,0,0,1,4.34,1.66c1.13.9,1.15,1.67-.09,2.63a15.87,15.87,0,0,1-9.9,3.16c-9.11.06-18.21,0-27.32,0Z"/><line class="cls-16" x1="154.58" y1="432.21" x2="150.69" y2="436.01"/><line class="cls-16" x1="156.7" y1="434.11" x2="152.82" y2="437.92"/><line class="cls-16" x1="159.45" y1="436.01" x2="155.56" y2="439.82"/><line class="cls-16" x1="162.42" y1="437.92" x2="158.54" y2="441.72"/><ellipse class="cls-17" cx="332.25" cy="72.99" rx="41.89" ry="6.08"/><path class="cls-18" d="M332.25,32.72h0c-15.74,0-28.5,9.15-28.5,20.44V73.59a267.07,267.07,0,0,0,57,0V53.16C360.75,41.87,348,32.72,332.25,32.72Z"/><path class="cls-19" d="M303.75,58.27v8.47a192,192,0,0,0,57,0V58.27A192,192,0,0,1,303.75,58.27Z"/><circle class="cls-20" cx="233.01" cy="247.93" r="18.17"/><path class="cls-21" d="M237.78,247.33q0,5.68,0,11.37a.57.57,0,0,1-.35.62.6.6,0,0,1-.61-.15l-5.28-4.09c-.71-.55-1.42-1.12-2.15-1.66a.73.73,0,0,0-.41-.13h-6.52c-.58,0-.74-.16-.74-.75q0-5.22,0-10.44c0-.59.15-.75.73-.75H229a.8.8,0,0,0,.45-.16l7.41-5.74a.6.6,0,0,1,.66-.13.57.57,0,0,1,.3.6Q237.78,241.62,237.78,247.33Z"/><path class="cls-21" d="M240,253.53c0-.46,0-.9,0-1.35,0-.07.14-.16.23-.18a4.88,4.88,0,0,0,0-9.42c-.22-.06-.3-.15-.29-.38,0-.39,0-.77,0-1.16a6.32,6.32,0,0,1,0,12.49Z"/><path class="cls-21" d="M240,251.34c0-.53,0-1,0-1.54,0-.07.08-.15.15-.2a2.57,2.57,0,0,0,0-4.11.34.34,0,0,1-.13-.21c0-.49,0-1,0-1.49,1.18.15,2.47,1.82,2.63,3.37A4.06,4.06,0,0,1,240,251.34Z"/><circle class="cls-20" cx="95.73" cy="396.79" r="18.17"/><path class="cls-21" d="M100.5,396.19q0,5.68,0,11.37a.57.57,0,0,1-.35.62.6.6,0,0,1-.61-.15l-5.28-4.09c-.71-.55-1.42-1.12-2.15-1.66a.73.73,0,0,0-.41-.13H85.19c-.58,0-.74-.16-.74-.75q0-5.22,0-10.44c0-.59.15-.75.73-.75h6.5a.8.8,0,0,0,.45-.16l7.41-5.74a.6.6,0,0,1,.66-.13.57.57,0,0,1,.3.6Q100.5,390.48,100.5,396.19Z"/><path class="cls-21" d="M102.7,402.38c0-.46,0-.9,0-1.35,0-.07.14-.16.23-.18a4.88,4.88,0,0,0,0-9.42c-.22-.06-.3-.15-.29-.38,0-.39,0-.77,0-1.16a6.32,6.32,0,0,1,0,12.49Z"/><path class="cls-21" d="M102.7,400.2c0-.53,0-1,0-1.54,0-.07.08-.15.15-.2a2.57,2.57,0,0,0,0-4.11.34.34,0,0,1-.13-.21c0-.49,0-1,0-1.49,1.18.15,2.47,1.82,2.63,3.37A4.06,4.06,0,0,1,102.7,400.2Z"/><circle class="cls-20" cx="110.21" cy="236.69" r="18.17"/><path class="cls-21" d="M115,236.09q0,5.68,0,11.37a.57.57,0,0,1-.35.62.6.6,0,0,1-.61-.15l-5.28-4.09c-.71-.55-1.42-1.12-2.15-1.66a.73.73,0,0,0-.41-.13H99.67c-.58,0-.74-.16-.74-.75q0-5.22,0-10.44c0-.59.15-.75.73-.75h6.5a.8.8,0,0,0,.45-.16L114,224.2a.6.6,0,0,1,.66-.13.57.57,0,0,1,.3.6Q115,230.38,115,236.09Z"/><path class="cls-21" d="M117.17,242.28c0-.46,0-.9,0-1.35,0-.07.14-.16.23-.18a4.88,4.88,0,0,0,0-9.42c-.22-.06-.3-.15-.29-.38,0-.39,0-.77,0-1.16a6.32,6.32,0,0,1,0,12.49Z"/><path class="cls-21" d="M117.18,240.1c0-.53,0-1,0-1.54,0-.07.08-.15.15-.2a2.57,2.57,0,0,0,0-4.11.34.34,0,0,1-.13-.21c0-.49,0-1,0-1.49,1.18.15,2.47,1.82,2.63,3.37A4.06,4.06,0,0,1,117.18,240.1Z"/><circle class="cls-20" cx="340.49" cy="121.92" r="18.17"/><path class="cls-21" d="M345.26,121.32q0,5.68,0,11.37a.57.57,0,0,1-.35.62.6.6,0,0,1-.61-.15L339,129.07c-.71-.55-1.42-1.12-2.15-1.66a.73.73,0,0,0-.41-.13H330c-.58,0-.74-.16-.74-.75q0-5.22,0-10.44c0-.59.15-.75.73-.75h6.5a.8.8,0,0,0,.45-.16l7.41-5.74a.6.6,0,0,1,.66-.13.57.57,0,0,1,.3.6Q345.26,115.61,345.26,121.32Z"/><path class="cls-21" d="M347.46,127.52c0-.46,0-.9,0-1.35,0-.07.14-.16.23-.18a4.88,4.88,0,0,0,0-9.42c-.22-.06-.3-.15-.29-.38,0-.39,0-.77,0-1.16a6.32,6.32,0,0,1,0,12.49Z"/><path class="cls-21" d="M347.46,125.33c0-.53,0-1,0-1.54,0-.07.08-.15.15-.2a2.57,2.57,0,0,0,0-4.11.34.34,0,0,1-.13-.21c0-.49,0-1,0-1.49,1.18.15,2.47,1.82,2.63,3.37A4.06,4.06,0,0,1,347.46,125.33Z"/><circle class="cls-22" cx="234.51" cy="284.43" r="17.38"/><text class="cls-23" transform="translate(228.55 288.36)">1.</text><circle class="cls-22" cx="110.51" cy="272.43" r="17.38"/><text class="cls-23" transform="translate(104.55 276.36)">2.</text><circle class="cls-22" cx="134.51" cy="396.43" r="17.38"/><text class="cls-23" transform="translate(128.55 400.36)">3.</text><circle class="cls-22" cx="339.51" cy="159.43" r="17.38"/><text class="cls-23" transform="translate(333.55 163.36)">4.</text></g></g></svg>