<svg xmlns="http://www.w3.org/2000/svg" xmlns:xlink="http://www.w3.org/1999/xlink" viewBox="0 0 821.77 379"><defs><style>.cls-1{fill:#562d00;}.cls-2,.cls-50{fill:none;}.cls-3{fill:#c27514;}.cls-4{fill:#643a00;}.cls-5{fill:#8a5213;}.cls-6{clip-path:url(#clip-path);}.cls-7{fill:#231f20;}.cls-8{fill:#bcbec0;}.cls-9{fill:#e2cf91;}.cls-10{fill:#fffef9;}.cls-11{fill:#fdc581;}.cls-12{fill:#a2a2c9;}.cls-13{clip-path:url(#clip-path-2);}.cls-14,.cls-15{fill:#00a881;stroke-width:0.36px;}.cls-14{stroke:#f37443;}.cls-14,.cls-15,.cls-24,.cls-31,.cls-32,.cls-33,.cls-36,.cls-41,.cls-42,.cls-50{stroke-miterlimit:10;}.cls-15{stroke:#489086;}.cls-16{fill:#e06a4d;}.cls-17{fill:#fff;}.cls-18{fill:#d8dcec;}.cls-19{fill:#00b262;}.cls-20{clip-path:url(#clip-path-3);}.cls-21{fill:#00793a;}.cls-22,.cls-24{fill:#0054a6;}.cls-23{fill:#7bafde;}.cls-24{stroke:#7bafde;stroke-width:0.4px;}.cls-25{fill:#58469f;}.cls-26{font-size:13.74px;fill:#ffffec;font-family:Raleway-Bold, Raleway;font-weight:700;}.cls-27{letter-spacing:-0.02em;}.cls-28{letter-spacing:-0.07em;}.cls-29{fill:#666e9c;}.cls-30,.cls-31,.cls-32,.cls-33,.cls-41,.cls-42{fill:#c3ba69;}.cls-31,.cls-32,.cls-33,.cls-41,.cls-42{stroke:#c3ba69;}.cls-31{stroke-width:0.29px;}.cls-32,.cls-36{stroke-width:0.38px;}.cls-33{stroke-width:0.32px;}.cls-34{fill:#c1c0db;}.cls-35,.cls-36{fill:#ffddb3;}.cls-36{stroke:#e1835b;}.cls-37{fill:#d53d96;}.cls-38{fill:#cc6ca2;}.cls-39{fill:#f8b1b2;}.cls-40{fill:#d9d29a;}.cls-41{stroke-width:0.34px;}.cls-42{stroke-width:0.38px;}.cls-43{fill:#cd4f62;}.cls-44{fill:#f5908a;}.cls-45{fill:#eed1bf;}.cls-46{clip-path:url(#clip-path-4);}.cls-47{fill:#eff9fe;}.cls-48{fill:#ffcf01;}.cls-49{clip-path:url(#clip-path-5);}.cls-50{stroke:#c4a006;stroke-width:1.08px;}.cls-51{fill:#4fbfa5;}.cls-52{fill:#f15d2a;}.cls-53{clip-path:url(#clip-path-6);}.cls-54{clip-path:url(#clip-path-7);}.cls-55{fill:#cabcdc;}.cls-56{fill:#fffabe;}.cls-57{fill:#ebe2a3;}.cls-58{clip-path:url(#clip-path-8);}.cls-59{clip-path:url(#clip-path-9);}.cls-60{fill:#d55225;}</style><clipPath id="clip-path"><path class="cls-1" d="M236.48,81.42h-6.76c-2.22,5.75-8.34,9.88-15.54,9.88s-13.32-4.13-15.54-9.88h-6.76c-8.19,0-21.45,8.39-16.1,9,2.26.25,5,3.44,7.65,11.46v72h61.5v-72c2.6-8,5.39-11.21,7.65-11.46C257.93,89.81,244.67,81.42,236.48,81.42Z"/></clipPath><clipPath id="clip-path-2"><polyline class="cls-2" points="41.41 87.38 46.98 165.04 35.95 176.59 28.45 165.44 32.65 87.38"/></clipPath><clipPath id="clip-path-3"><path class="cls-2" d="M222.14,70.92h-6.76c-2.22,5.75-8.34,9.88-15.54,9.88s-13.32-4.13-15.54-9.88h-6.76c-8.19,0-21.45,8.39-16.1,9,2.26.25,5,3.44,7.65,11.46v72h61.5v-72c2.6-8,5.39-11.21,7.65-11.46C243.59,79.31,230.32,70.92,222.14,70.92Z"/></clipPath><clipPath id="clip-path-4"><path class="cls-2" d="M598.11,80.87c-2.22.26-5,3.44-7.54,11.36,0,2.28,1.31,16.94-3.32,23.52-1,10.36,2.86,35.69,4.15,46.32-26.11,21.6-60.23-2.22-61.21,2.12,1.26-10.48,3.09-38.25,2.12-48.47-5.16-7.06-4.87-23.79-4.87-23.79-2.55-7.69-5.24-10.79-7.44-11.05-5.45-.63,8-9.5,16.37-9.5h6.88a17.19,17.19,0,0,0,31.61,0h6.88C590.06,71.38,603.56,80.24,598.11,80.87Z"/></clipPath><clipPath id="clip-path-5"><path class="cls-2" d="M621.56,73.21,610.78,150.8s6.52,10.65,25.51,0c0,0,12.89,7.91,24.23,0,0,0,9.45,6.35,13.94,0l-12.6-77.59Z"/></clipPath><clipPath id="clip-path-6"><path class="cls-2" d="M726.17,302.71v39.56h-25.5a5.38,5.38,0,0,1-5.38-5.38v-3.29a5.38,5.38,0,0,1,5.38-5.38h10.84v-25.5Z"/></clipPath><clipPath id="clip-path-7"><path class="cls-2" d="M743.95,319.54v39.56h-25.5a5.38,5.38,0,0,1-5.38-5.38v-3.29a5.38,5.38,0,0,1,5.38-5.38h10.84v-25.5Z"/></clipPath><clipPath id="clip-path-8"><path class="cls-2" d="M630,251.27c-2.17.26-4.84,3.35-7.36,11.08,0,2.22,1.28,16.53-3.24,23-1,10.11,2.79,34.83,4.05,45.2-25.48,21.08-58.77-2.17-59.73,2.07,1.23-10.22,3-37.32,2.06-47.3-5-6.89-4.75-23.21-4.75-23.21-2.49-7.51-5.11-10.53-7.26-10.79-5.32-.62,7.85-9.27,16-9.27h6.71a16.77,16.77,0,0,0,30.85,0H614C622.13,242,635.29,250.65,630,251.27Z"/></clipPath><clipPath id="clip-path-9"><path class="cls-2" d="M732.32,142.53a178.24,178.24,0,0,1-.5-31.47c3.75-6.58,3.86-21,3.85-23.29,2.09-7.91,4.31-11.08,6.11-11.34,4.42-.64-6.52-9.49-13.28-9.49h-5.57c-1.83,6.06-6.88,10.42-12.82,10.42s-11-4.36-12.82-10.42h-5.57c-6.75,0-17.69,8.85-13.28,9.49,1.78.26,4,3.35,6,11,0,0-.24,16.71,3.95,23.76a178.45,178.45,0,0,1-.52,31.3l-15,87s7.87,10.39,30.79,0c0,0,15.56,7.72,29.25,0,0,0,11.41,6.2,16.83,0Z"/></clipPath></defs><title>clothes 15</title><g id="Layer_2" data-name="Layer 2"><g id="Glavno_Besedilo" data-name="Glavno Besedilo"><rect class="cls-3" width="809.91" height="373.62"/><rect class="cls-4" x="23.13" y="11.17" width="763.64" height="351.28"/><rect class="cls-5" x="8.42" y="11.17" width="156.92" height="351.28"/><path class="cls-1" d="M145.21,157.37l-18.71-.82V96.35s4.32-24.94,11-11.4Q143,122.8,145.21,157.37Z"/><path class="cls-1" d="M58.93,157.37l18.71-.82V96.35s-4.32-24.94-11-11.4Q61.15,122.8,58.93,157.37Z"/><path class="cls-1" d="M122.61,76.24h-6.22c-2,5.29-7.68,9.09-14.31,9.09s-12.27-3.8-14.31-9.09H81.54C74,76.24,61.79,84,66.72,84.52c2.08.23,4.65,3.17,7,10.55v66.31h56.62V95.07c2.4-7.38,5-10.32,7-10.55C142.36,84,130.14,76.24,122.61,76.24Z"/><line class="cls-1" x1="102.07" y1="161.38" x2="102.07" y2="85.33"/><path class="cls-1" d="M73.76,161.38"/><rect class="cls-1" x="73.76" y="161.38" width="56.57" height="19.1"/><polygon class="cls-1" points="102.07 180.49 92.72 267.61 82.02 267.61 73.76 180.49 102.07 180.49"/><polygon class="cls-1" points="130.34 180.49 121.03 267.61 110.39 267.61 102.17 180.49 130.34 180.49"/><circle class="cls-1" cx="106.82" cy="99.33" r="1.43" transform="translate(-19.69 171.95) rotate(-72.78)"/><circle class="cls-1" cx="97.47" cy="99.33" r="1.43" transform="translate(-26.27 163.02) rotate(-72.78)"/><circle class="cls-1" cx="106.82" cy="110.09" r="1.43" transform="translate(-29.96 179.52) rotate(-72.78)"/><circle class="cls-1" cx="97.47" cy="110.09" r="1.43" transform="translate(-36.54 170.6) rotate(-72.78)"/><circle class="cls-1" cx="106.82" cy="120.85" r="1.43" transform="translate(-40.24 187.09) rotate(-72.78)"/><circle class="cls-1" cx="97.47" cy="120.85" r="1.43" transform="translate(-46.81 178.17) rotate(-72.78)"/><circle class="cls-1" cx="106.82" cy="131.6" r="1.43" transform="translate(-50.51 194.66) rotate(-72.78)"/><circle class="cls-1" cx="97.47" cy="131.6" r="1.43" transform="translate(-57.09 185.74) rotate(-72.78)"/><circle class="cls-1" cx="106.82" cy="142.36" r="1.43" transform="translate(-60.79 202.24) rotate(-72.78)"/><circle class="cls-1" cx="97.47" cy="142.36" r="1.43" transform="translate(-67.36 193.31) rotate(-72.78)"/><path class="cls-1" d="M114.58,79.44C102.55,90.53,102,106.1,102,106.1c0-13.57-11.17-25.19-11.17-25.19C98.31,87.12,106.19,87,114.58,79.44Z"/><path class="cls-1" d="M261,169.53l-20.32-.89V103.26s4.7-27.09,11.92-12.39Q258.63,132,261,169.53Z"/><path class="cls-1" d="M167.33,169.53l20.32-.89V103.26S183,76.17,175.73,90.87Q169.74,132,167.33,169.53Z"/><path class="cls-1" d="M236.48,81.42h-6.76c-2.22,5.75-8.34,9.88-15.54,9.88s-13.32-4.13-15.54-9.88h-6.76c-8.19,0-21.45,8.39-16.1,9,2.26.25,5,3.44,7.65,11.46v72h61.5v-72c2.6-8,5.39-11.21,7.65-11.46C257.93,89.81,244.67,81.42,236.48,81.42Z"/><path class="cls-1" d="M236.48,81.42h-6.76c-2.22,5.75-8.34,9.88-15.54,9.88s-13.32-4.13-15.54-9.88h-6.76c-8.19,0-21.45,8.39-16.1,9,2.26.25,5,3.44,7.65,11.46v72h61.5v-72c2.6-8,5.39-11.21,7.65-11.46C257.93,89.81,244.67,81.42,236.48,81.42Z"/><g class="cls-6"><rect class="cls-1" x="166.24" y="104.46" width="93.7" height="16.72"/><rect class="cls-1" x="166.24" y="127.66" width="93.7" height="16.72"/></g><polygon class="cls-3" points="785.88 0 821.77 0 821.77 362.45 776.69 362.45 776.69 0 785.88 0"/><rect class="cls-7" x="10.15" y="373.62" width="18.32" height="5.38"/><rect class="cls-7" x="289.79" y="373.62" width="18.32" height="5.38"/><rect class="cls-7" x="578.33" y="373.62" width="18.32" height="5.38"/><rect class="cls-7" x="767.64" y="373.62" width="18.32" height="5.38"/><rect class="cls-8" x="9.39" y="59.48" width="763.64" height="1.59"/><rect class="cls-8" x="10.16" y="235.05" width="763.64" height="1.59"/><path class="cls-9" d="M173.31,72.26l25.59-5.81,25.59,5.81-4.9,5.31a49.73,49.73,0,0,0-42.59-1Z"/><path class="cls-10" d="M204.29,60a.46.46,0,0,1-.14.9h0a4.87,4.87,0,0,0-4.87,4.87,4.93,4.93,0,0,0,0,.55.46.46,0,0,1-.88.24A4.91,4.91,0,0,1,204.29,60Z"/><circle class="cls-7" cx="798.93" cy="181.22" r="10.75"/><path class="cls-9" d="M76.72,72.26l19.64-5.81L116,72.26l-3.76,5.31a30.48,30.48,0,0,0-32.69-1Z"/><path class="cls-10" d="M101.74,60a.46.46,0,0,1-.14.9h0a4.87,4.87,0,0,0-4.87,4.87,4.93,4.93,0,0,0,0,.55.46.46,0,0,1-.88.24A4.91,4.91,0,0,1,101.74,60Z"/><polygon class="cls-4" points="36.59 72.87 51.59 73.67 51.59 87.38 36.59 87.38 36.59 72.87"/><polyline class="cls-4" points="47.78 87.38 53.35 165.04 42.32 176.59 34.82 165.44 39.02 87.38"/><path class="cls-9" d="M17.82,72.26l19.64-5.81L57.1,72.26l-3.76,5.31a30.48,30.48,0,0,0-32.69-1Z"/><path class="cls-10" d="M42.85,60a.46.46,0,0,1-.14.9h0a4.87,4.87,0,0,0-4.87,4.87,4.93,4.93,0,0,0,0,.55.46.46,0,0,1-.88.24A4.91,4.91,0,0,1,42.85,60Z"/><polygon class="cls-11" points="30.22 72.87 45.22 73.67 45.22 87.38 30.22 87.38 30.22 72.87"/><polyline class="cls-12" points="41.41 87.38 46.98 165.04 35.95 176.59 28.45 165.44 32.65 87.38"/><g class="cls-13"><rect class="cls-11" x="24.3" y="93.76" width="29.67" height="2.19"/><rect class="cls-11" x="24.3" y="104.31" width="29.67" height="2.19"/><rect class="cls-11" x="24.3" y="114.86" width="29.67" height="2.19"/><rect class="cls-11" x="24.3" y="125.42" width="29.67" height="2.19"/><rect class="cls-11" x="24.3" y="135.97" width="29.67" height="2.19"/><rect class="cls-11" x="24.3" y="146.52" width="29.67" height="2.19"/><rect class="cls-11" x="24.3" y="157.07" width="29.67" height="2.19"/></g><path class="cls-7" d="M138.64,153.14l-18.71-.82V92.12s4.32-24.94,11-11.4Q136.43,118.58,138.64,153.14Z"/><path class="cls-7" d="M52.37,153.14l18.71-.82V92.12s-4.32-24.94-11-11.4Q54.58,118.58,52.37,153.14Z"/><path class="cls-7" d="M116,72h-6.22c-2,5.29-7.68,9.09-14.31,9.09S83.24,77.3,81.2,72H75c-7.54,0-19.75,7.72-14.82,8.28,2.08.23,4.65,3.17,7,10.55v66.31h56.62V90.85c2.4-7.38,5-10.32,7-10.55C135.79,79.74,123.57,72,116,72Z"/><line class="cls-14" x1="95.5" y1="157.15" x2="95.5" y2="81.11"/><path class="cls-15" d="M67.19,157.15"/><rect class="cls-7" x="67.19" y="157.15" width="56.57" height="19.1"/><polygon class="cls-7" points="95.51 176.26 86.15 263.38 75.45 263.38 67.19 176.26 95.51 176.26"/><polygon class="cls-7" points="123.77 176.26 114.46 263.38 103.82 263.38 95.61 176.26 123.77 176.26"/><circle class="cls-16" cx="100.25" cy="95.11" r="1.43" transform="translate(-20.28 162.7) rotate(-72.78)"/><circle class="cls-16" cx="90.91" cy="95.11" r="1.43" transform="translate(-26.85 153.78) rotate(-72.78)"/><circle class="cls-16" cx="100.25" cy="105.86" r="1.43" transform="translate(-30.55 170.27) rotate(-72.78)"/><circle class="cls-16" cx="90.91" cy="105.86" r="1.43" transform="translate(-37.13 161.35) rotate(-72.78)"/><circle class="cls-16" cx="100.25" cy="116.62" r="1.43" transform="translate(-40.82 177.84) rotate(-72.78)"/><circle class="cls-16" cx="90.91" cy="116.62" r="1.43" transform="translate(-47.4 168.92) rotate(-72.78)"/><circle class="cls-16" cx="100.25" cy="127.38" r="1.43" transform="translate(-51.1 185.41) rotate(-72.78)"/><circle class="cls-16" cx="90.91" cy="127.38" r="1.43" transform="translate(-57.67 176.49) rotate(-72.78)"/><circle class="cls-16" cx="100.25" cy="138.13" r="1.43" transform="translate(-61.37 192.99) rotate(-72.78)"/><circle class="cls-16" cx="90.91" cy="138.13" r="1.43" transform="translate(-67.95 184.06) rotate(-72.78)"/><path class="cls-17" d="M108,75.21c-12,11.1-12.53,26.67-12.53,26.67,0-13.57-11.17-25.19-11.17-25.19C91.75,82.89,99.62,82.82,108,75.21Z"/><path class="cls-18" d="M246.69,159l-20.32-.89V92.76s4.7-27.09,11.92-12.39Q244.28,121.49,246.69,159Z"/><path class="cls-18" d="M153,159l20.32-.89V92.76s-4.7-27.09-11.92-12.39Q155.39,121.49,153,159Z"/><path class="cls-19" d="M222.14,70.92h-6.76c-2.22,5.75-8.34,9.88-15.54,9.88s-13.32-4.13-15.54-9.88h-6.76c-8.19,0-21.45,8.39-16.1,9,2.26.25,5,3.44,7.65,11.46v72h61.5v-72c2.6-8,5.39-11.21,7.65-11.46C243.59,79.31,230.32,70.92,222.14,70.92Z"/><g class="cls-20"><rect class="cls-21" x="151.9" y="93.96" width="93.7" height="16.72"/><rect class="cls-17" x="151.9" y="117.15" width="93.7" height="16.72"/></g><polygon class="cls-22" points="169.37 163.39 169.37 176.67 179.03 294.9 191.53 294.9 200.49 198.04 208.05 294.9 220.01 294.9 230.47 176.67 230.47 163.39 169.37 163.39"/><polygon class="cls-23" points="230.47 169.53 187.65 169.53 169.37 169.53 169.37 163.39 230.47 163.39 230.47 169.53"/><rect class="cls-23" x="198.18" y="167.75" width="3.31" height="8.05"/><path class="cls-24" d="M210.89,169.53s7.1,32.28,18.68,17.28"/><path class="cls-24" d="M185.8,169.53s-3.45,33.37-15.17,22.6"/><circle class="cls-25" cx="40.93" cy="193.95" r="13.27"/><text class="cls-26" transform="translate(36.39 196.94)">1.</text><circle class="cls-25" cx="124.14" cy="46.62" r="13.27"/><text class="cls-26" transform="translate(119.59 49.62)">2.</text><circle class="cls-25" cx="204.29" cy="42.8" r="13.27"/><text class="cls-26" transform="translate(199.74 45.8)">3.</text><circle class="cls-25" cx="158.49" cy="324.48" r="13.27"/><text class="cls-26" transform="translate(153.94 327.47)">5.</text><circle class="cls-25" cx="302.76" cy="42.8" r="13.27"/><text class="cls-26" transform="translate(298.21 45.8)">6.</text><circle class="cls-25" cx="384.44" cy="42.8" r="13.27"/><text class="cls-26" transform="translate(376.84 45.8)">10.</text><circle class="cls-25" cx="469.17" cy="42.8" r="13.27"/><text class="cls-26" transform="translate(461.57 45.8)">12.</text><circle class="cls-25" cx="505.81" cy="214.56" r="13.27"/><text class="cls-26" transform="translate(498.21 217.55)">13.</text><circle class="cls-25" cx="561.53" cy="42.8" r="13.27"/><text class="cls-26" transform="translate(553.93 45.8)">14.</text><circle class="cls-25" cx="641.68" cy="42.8" r="13.27"/><text class="cls-26" transform="translate(634.08 45.8)">16.</text><circle class="cls-25" cx="712.67" cy="42.8" r="13.27"/><text class="cls-26" transform="translate(705.07 45.8)"><tspan class="cls-27">1</tspan><tspan class="cls-28" x="6.54" y="0">7</tspan><tspan x="13.27" y="0">.</tspan></text><circle class="cls-25" cx="712.67" cy="285.55" r="13.27"/><text class="cls-26" transform="translate(705.07 288.54)">18.</text><circle class="cls-25" cx="592.06" cy="214.56" r="13.27"/><text class="cls-26" transform="translate(584.47 217.55)">15.</text><circle class="cls-25" cx="302.76" cy="206.16" r="13.27"/><text class="cls-26" transform="translate(298.21 209.16)"><tspan class="cls-28">7</tspan><tspan x="6.73" y="0">.</tspan></text><circle class="cls-25" cx="302.76" cy="294.71" r="13.27"/><text class="cls-26" transform="translate(298.21 297.7)">8.</text><circle class="cls-25" cx="397.41" cy="218.37" r="13.27"/><text class="cls-26" transform="translate(392.87 221.37)">9.</text><circle class="cls-25" cx="441.69" cy="218.37" r="13.27"/><text class="cls-26" transform="translate(434.09 221.37)">11.</text><circle class="cls-25" cx="330.24" cy="331.35" r="13.27"/><text class="cls-26" transform="translate(322.64 334.34)">12.</text><circle class="cls-25" cx="61.92" cy="302.72" r="13.27"/><text class="cls-26" transform="translate(57.38 305.72)">4.</text><path class="cls-1" d="M336.28,75.43h-6.45c-2.12,3.29-8,5.65-14.82,5.65s-12.71-2.36-14.82-5.65h-6.45c-7.81,0-20.46,4.8-15.35,5.14,2.15.15,4.81,2,7.29,6.56v77.21h58.65V87.13c2.48-4.59,5.14-6.41,7.29-6.56C356.74,80.23,344.08,75.43,336.28,75.43Z"/><path class="cls-1" d="M361.15,150.49l-19.73-.76V93.84S346,70.68,353,83.25Q358.82,118.4,361.15,150.49Z"/><path class="cls-1" d="M268.14,150.49l19.73-.76V93.84s-4.56-23.15-11.57-10.59Q270.48,118.4,268.14,150.49Z"/><line class="cls-1" x1="315.01" y1="81.08" x2="315.01" y2="164.33"/><circle class="cls-1" cx="321.43" cy="110.77" r="2.03"/><circle class="cls-1" cx="321.43" cy="130.01" r="2.03"/><circle class="cls-1" cx="321.43" cy="152.44" r="2.03"/><path class="cls-1" d="M294.71,75.43h5.47S303.57,79.1,314,80.9C314,80.9,306.23,82.59,294.71,75.43Z"/><path class="cls-1" d="M335.29,75.43h-5.47S326.43,79.1,316,80.9C316,80.9,323.77,82.59,335.29,75.43Z"/><path class="cls-9" d="M285.26,72.09,304,66.54l18.73,5.54-3.59,5.06a29.07,29.07,0,0,0-31.17-1Z"/><path class="cls-10" d="M309.12,60.35a.44.44,0,0,1-.14.86h0a4.65,4.65,0,0,0-4.64,4.64,4.7,4.7,0,0,0,0,.53.44.44,0,0,1-.84.22,4.69,4.69,0,0,1,5.62-6.25Z"/><path class="cls-29" d="M325.26,70.57h-6.45c-2.12,3.29-8,5.65-14.82,5.65s-12.71-2.36-14.82-5.65h-6.45c-7.81,0-20.46,4.8-15.35,5.14,2.15.15,4.81,2,7.29,6.56v77.21h58.65V82.27c2.48-4.59,5.14-6.41,7.29-6.56C345.72,75.37,333.06,70.57,325.26,70.57Z"/><path class="cls-30" d="M350.13,145.63l-19.73-.76V89S335,65.83,342,78.39Q347.8,113.54,350.13,145.63Z"/><path class="cls-30" d="M257.12,145.63l19.73-.76V89s-4.56-23.15-11.57-10.59Q259.46,113.54,257.12,145.63Z"/><line class="cls-31" x1="303.99" y1="76.22" x2="303.99" y2="159.48"/><circle class="cls-32" cx="310.41" cy="105.92" r="2.03"/><circle class="cls-32" cx="310.41" cy="125.15" r="2.03"/><circle class="cls-32" cx="310.41" cy="147.58" r="2.03"/><path class="cls-33" d="M283.69,70.57h5.47s3.39,3.67,13.77,5.48C302.94,76,295.21,77.73,283.69,70.57Z"/><path class="cls-33" d="M324.27,70.57h-5.47S315.41,74.24,305,76C305,76,312.75,77.73,324.27,70.57Z"/><path class="cls-1" d="M413.15,91.4a16.31,16.31,0,0,1,.17,16.14c.08.63.17,1.27.27,1.92.21,1.39.47,2.84.78,4.37,1.78,10.19,6.34,20.07,4.82,30.32,0,1.9-5.32,2.66-8.39,4.79-1.21.72-2.43,1.51-3.62,2.37-4.74,3.47-8.95,8.24-10,15.46.41-2.91-5.07-11.84-20.47-22.24q-1.53-1-3.19-2.1c1.18-12,4.22-23,4.19-34.74q.12-1,.24-2.14a16,16,0,0,1-1.71-7.29,15.82,15.82,0,0,1,2.06-7.94,63.91,63.91,0,0,0-3.88-19.26,10.94,10.94,0,0,1,2.64-.36h5.67c1.86,6.17,7,10.6,13,10.6s11.19-4.44,13-10.6h5.67A15.7,15.7,0,0,1,421,72.5C420.82,72.67,414.83,78.2,413.15,91.4Z"/><path class="cls-9" d="M369.55,70.94l18.73-5.54L407,70.94,403.43,76a29.07,29.07,0,0,0-31.17-1Z"/><path class="cls-10" d="M393.42,59.2a.44.44,0,0,1-.14.86h0a4.65,4.65,0,0,0-4.64,4.64,4.7,4.7,0,0,0,0,.53.44.44,0,0,1-.84.22,4.69,4.69,0,0,1,5.62-6.25Z"/><path class="cls-34" d="M404.8,91.4a16.31,16.31,0,0,1,.17,16.14c.08.63.17,1.27.27,1.92.21,1.39.47,2.84.78,4.37,1.78,10.19,6.34,20.07,4.82,30.32,0,1.9-5.32,2.66-8.39,4.79-1.21.72-2.43,1.51-3.62,2.37-4.74,3.47-8.95,8.24-10,15.46.41-2.91-5.07-11.84-20.47-22.24q-1.53-1-3.19-2.1c1.18-12,4.22-23,4.19-34.74q.12-1,.24-2.14a16,16,0,0,1-1.71-7.29A15.82,15.82,0,0,1,370,90.32a63.91,63.91,0,0,0-3.88-19.26,10.94,10.94,0,0,1,2.64-.36h5.67c1.86,6.17,7,10.6,13,10.6s11.19-4.44,13-10.6h5.67a15.7,15.7,0,0,1,6.46,1.8C412.46,72.67,406.48,78.2,404.8,91.4Z"/><path class="cls-35" d="M131.57,362.19c-7,0-14,0-21,0-1.19,0-1.48-.35-1.55-1.52a26.69,26.69,0,0,1,2-10.52c.32-.9.24-1.35-.6-1.78a3.8,3.8,0,0,1-1.6-1.33,2.53,2.53,0,0,1-.18-.69c.23-.05.49-.2.7-.14a2.07,2.07,0,0,1,1,.53c1.56,2,3.91,2.27,6.11,2.64a12.47,12.47,0,0,0,7.21-.75c1.89-.82,2.64-2.67,3.92-4,.25-.27-.07-.66-.11-1a2.19,2.19,0,0,1,1-2.19,1.65,1.65,0,0,1,2.19.28,27.1,27.1,0,0,1,2.57,2.52c3.11,3.69,7.21,6.07,11.14,8.73s8,3,12.32,3.5a6.24,6.24,0,0,1,3.31,1.26c.86.69.88,1.27-.07,2a12.11,12.11,0,0,1-7.55,2.41c-7,0-13.9,0-20.85,0Z"/><line class="cls-36" x1="136.02" y1="346.99" x2="133.05" y2="349.9"/><line class="cls-36" x1="137.64" y1="348.44" x2="134.67" y2="351.35"/><line class="cls-36" x1="139.73" y1="349.9" x2="136.77" y2="352.8"/><line class="cls-36" x1="142" y1="351.35" x2="139.04" y2="354.25"/><path class="cls-35" d="M185.78,362.19c-7,0-14,0-21,0-1.19,0-1.48-.35-1.55-1.52a26.69,26.69,0,0,1,2-10.52c.32-.9.24-1.35-.6-1.78a3.8,3.8,0,0,1-1.6-1.33,2.53,2.53,0,0,1-.18-.69c.23-.05.49-.2.7-.14a2.07,2.07,0,0,1,1,.53c1.56,2,3.91,2.27,6.11,2.64a12.47,12.47,0,0,0,7.21-.75c1.89-.82,2.64-2.67,3.92-4,.25-.27-.07-.66-.11-1a2.19,2.19,0,0,1,1-2.19,1.65,1.65,0,0,1,2.19.28,27.1,27.1,0,0,1,2.57,2.52c3.11,3.69,7.21,6.07,11.14,8.73s8,3,12.32,3.5a6.24,6.24,0,0,1,3.31,1.26c.86.69.88,1.27-.07,2a12.11,12.11,0,0,1-7.55,2.41c-7,0-13.9,0-20.85,0Z"/><line class="cls-36" x1="189.84" y1="346.45" x2="186.87" y2="349.35"/><line class="cls-36" x1="191.46" y1="347.9" x2="188.49" y2="350.8"/><line class="cls-36" x1="193.55" y1="349.35" x2="190.59" y2="352.25"/><line class="cls-36" x1="195.82" y1="350.8" x2="192.86" y2="353.71"/><ellipse class="cls-37" cx="338.44" cy="229.49" rx="31.98" ry="4.64"/><path class="cls-38" d="M338.44,198.75h0c-12,0-21.76,7-21.76,15.6v15.6a203.87,203.87,0,0,0,43.51,0v-15.6C360.2,205.73,350.46,198.75,338.44,198.75Z"/><path class="cls-39" d="M316.68,218.25v6.46a146.58,146.58,0,0,0,43.51,0v-6.46A146.58,146.58,0,0,1,316.68,218.25Z"/><path class="cls-7" d="M53.66,321.82v39.11H28.45a5.32,5.32,0,0,1-5.32-5.32v-3.26A5.32,5.32,0,0,1,28.45,347H39.17V321.82Z"/><path class="cls-7" d="M84.08,321.82v39.11H58.86a5.32,5.32,0,0,1-5.32-5.32v-3.26A5.32,5.32,0,0,1,58.86,347H69.58V321.82Z"/><path class="cls-9" d="M450.23,71.65l18.65-5.52,18.65,5.52-3.57,5a28.94,28.94,0,0,0-31-1Z"/><path class="cls-10" d="M474,60a.44.44,0,0,1-.13.85h0a4.63,4.63,0,0,0-4.62,4.62,4.68,4.68,0,0,0,0,.52.44.44,0,0,1-.83.22A4.67,4.67,0,0,1,474,60Z"/><path class="cls-4" d="M500.66,76.36h-6.42c-2.11,4.53-7.92,7.79-14.76,7.79s-12.65-3.26-14.76-7.79h-6.42c-7.77,0-20.37,6.62-15.28,7.1,2.14.2,4.79,2.72,7.26,9V199h58.39V92.5c2.47-6.33,5.12-8.84,7.26-9C521,83,508.43,76.36,500.66,76.36Z"/><path class="cls-4" d="M526.94,153l-19.64-.75V96.63s4.54-23.05,11.52-10.54Q524.61,121.08,526.94,153Z"/><path class="cls-4" d="M432,153l19.64-.75V96.63s-4.54-23.05-11.52-10.54Q434.36,121.08,432,153Z"/><line class="cls-4" x1="479.49" y1="84.16" x2="479.49" y2="199.02"/><circle class="cls-4" cx="485.88" cy="111.55" r="2.02"/><circle class="cls-4" cx="485.88" cy="140.67" r="2.02"/><circle class="cls-4" cx="485.88" cy="173.44" r="2.02"/><path class="cls-4" d="M459.28,76.36h5.45s3.37,5.23,13.71,7.79C478.44,84.16,470.75,86.55,459.28,76.36Z"/><path class="cls-4" d="M499.68,76.36h-5.45s-3.37,5.23-13.71,7.79C480.52,84.16,488.21,86.55,499.68,76.36Z"/><path class="cls-40" d="M490,70.14h-6.42c-2.11,4.53-7.92,7.79-14.76,7.79s-12.65-3.26-14.76-7.79H447.7c-7.77,0-20.37,6.62-15.28,7.1,2.14.2,4.79,2.72,7.26,9V192.8h58.39V86.28c2.47-6.33,5.12-8.84,7.26-9C510.42,76.76,497.82,70.14,490,70.14Z"/><path class="cls-30" d="M516.33,146.81l-19.64-.75V90.41s4.54-23.05,11.52-10.54Q514,114.86,516.33,146.81Z"/><path class="cls-30" d="M421.43,146.81l19.64-.75V90.41s-4.54-23.05-11.52-10.54Q423.75,114.86,421.43,146.81Z"/><line class="cls-41" x1="468.88" y1="77.93" x2="468.88" y2="192.8"/><circle class="cls-42" cx="475.27" cy="105.32" r="2.02"/><circle class="cls-42" cx="475.27" cy="134.44" r="2.02"/><circle class="cls-42" cx="475.27" cy="167.21" r="2.02"/><path class="cls-42" d="M448.67,70.14h5.45s3.37,5.23,13.71,7.79C467.83,77.93,460.14,80.32,448.67,70.14Z"/><path class="cls-42" d="M489.07,70.14h-5.45s-3.37,5.23-13.71,7.79C469.91,77.93,477.6,80.32,489.07,70.14Z"/><path class="cls-9" d="M371.38,240l22.5-4.85L420,240l-4.66,5a47.22,47.22,0,0,0-40.44-1Z"/><rect class="cls-16" x="376.31" y="243.44" width="38.73" height="68.27"/><rect class="cls-43" x="382.55" y="245" width="26.27" height="62.17"/><rect class="cls-44" x="386.5" y="243.44" width="18.35" height="68.27"/><rect class="cls-45" x="376.32" y="311.71" width="1.47" height="11.53"/><rect class="cls-45" x="380.29" y="311.71" width="1.47" height="11.53"/><rect class="cls-45" x="384.26" y="311.71" width="1.47" height="11.53"/><rect class="cls-45" x="388.23" y="311.71" width="1.47" height="11.53"/><rect class="cls-45" x="392.2" y="311.71" width="1.47" height="11.53"/><rect class="cls-45" x="396.17" y="311.71" width="1.47" height="11.53"/><rect class="cls-45" x="400.14" y="311.71" width="1.47" height="11.53"/><rect class="cls-45" x="404.11" y="311.71" width="1.47" height="11.53"/><rect class="cls-45" x="408.08" y="311.71" width="1.47" height="11.53"/><rect class="cls-45" x="412.05" y="311.71" width="1.47" height="11.53"/><path class="cls-7" d="M431.47,272.57l-1.83-11.65h-.17v17.56c-15.11-4.78-8.37-21.32-6.74-24.82v-9h11.09v14.82l1.27,8.09A4.36,4.36,0,0,1,431.47,272.57Z"/><path class="cls-7" d="M447.62,272.57l1.83-11.65h.17v17.56c15.11-4.78,8.37-21.32,6.74-24.82v-9H445.26v14.82L444,267.6A4.36,4.36,0,0,0,447.62,272.57Z"/><path class="cls-9" d="M420.77,244.93l18.65-5.52,18.65,5.52-3.57,5a28.94,28.94,0,0,0-31-1Z"/><path class="cls-10" d="M444.53,233.24a.44.44,0,0,1-.13.85h0a4.63,4.63,0,0,0-4.62,4.62,4.68,4.68,0,0,0,0,.52.44.44,0,0,1-.83.22,4.67,4.67,0,0,1,5.59-6.22Z"/><path class="cls-4" d="M614.22,87c-2.51.3-5.61,3.88-8.52,12.83,0,2.57,1.48,19.14-3.75,26.58-1.13,11.7,3.24,40.33,4.69,52.33-29.5,24.41-68-2.51-69.15,2.39,1.42-11.84,3.49-43.22,2.39-54.77-5.83-8-5.5-26.88-5.5-26.88-2.88-8.69-5.92-12.2-8.4-12.49-6.16-.72,9.09-10.73,18.5-10.73h7.77c2.55,6.86,9.58,11.79,17.86,11.79S585.41,83.12,588,76.27h7.77C605.13,76.27,620.38,86.28,614.22,87Z"/><path class="cls-9" d="M540.2,72.19l18.86-5.58,18.86,5.58-3.61,5.1a29.28,29.28,0,0,0-31.39-1Z"/><path class="cls-10" d="M564.23,60.37a.44.44,0,0,1-.14.86h0a4.68,4.68,0,0,0-4.68,4.68,4.73,4.73,0,0,0,0,.53.44.44,0,0,1-.84.23,4.72,4.72,0,0,1,5.66-6.3Z"/><path class="cls-23" d="M598.11,80.36c-2.22.26-5,3.44-7.54,11.36,0,2.28,1.31,16.94-3.32,23.52-1,10.36,2.86,35.69,4.15,46.32-26.11,21.6-60.23-2.22-61.21,2.12,1.26-10.48,3.09-38.25,2.12-48.47-5.16-7.06-4.87-23.79-4.87-23.79-2.55-7.69-5.24-10.79-7.44-11.05-5.45-.63,8-9.5,16.37-9.5h6.88a17.19,17.19,0,0,0,31.61,0h6.88C590.06,70.87,603.56,79.73,598.11,80.36Z"/><g class="cls-46"><rect class="cls-47" x="504.44" y="90.46" width="114.74" height="9.06"/><rect class="cls-47" x="504.44" y="103.72" width="114.74" height="9.06"/><rect class="cls-47" x="504.44" y="116.79" width="114.74" height="9.06"/><rect class="cls-47" x="504.44" y="129.86" width="114.74" height="9.06"/><rect class="cls-47" x="504.44" y="142.93" width="114.74" height="9.06"/><rect class="cls-47" x="504.44" y="156" width="114.74" height="9.06"/></g><path class="cls-1" d="M635.46,88.43,624.67,166s6.52,10.65,25.51,0c0,0,12.89,7.91,24.23,0,0,0,9.45,6.35,13.94,0L667.53,71.95Z"/><path class="cls-9" d="M622.45,72.19l18.86-5.58,18.86,5.58-3.61,5.1a29.28,29.28,0,0,0-31.39-1Z"/><path class="cls-10" d="M646.49,60.37a.44.44,0,0,1-.14.86h0a4.68,4.68,0,0,0-4.68,4.68,4.73,4.73,0,0,0,0,.53.44.44,0,0,1-.84.23,4.72,4.72,0,0,1,5.66-6.3Z"/><path class="cls-48" d="M621.56,73.21,610.78,150.8s6.52,10.65,25.51,0c0,0,12.89,7.91,24.23,0,0,0,9.45,6.35,13.94,0l-12.6-77.59Z"/><g class="cls-49"><path class="cls-50" d="M605.06,75.88s37.82,34.61,75.11-2.68"/><path class="cls-50" d="M605.06,87.8s37.82,34.61,75.11-2.68"/><path class="cls-50" d="M605.06,99.73s37.82,34.61,75.11-2.68"/><path class="cls-50" d="M605.06,111.65s37.82,34.61,75.11-2.68"/></g><polygon class="cls-1" points="321.99 252.63 321.99 263.31 321.99 297.14 339.82 297.14 346.57 272.28 353.12 297.14 369.8 297.14 371.15 263.31 366.43 241.41 321.99 252.63"/><path class="cls-9" d="M314,241.65l24.58-5.58,24.58,5.58-4.71,5.1a47.76,47.76,0,0,0-40.91-1Z"/><path class="cls-10" d="M343.72,229.83a.44.44,0,0,1-.14.86h0a4.68,4.68,0,0,0-4.68,4.68,4.73,4.73,0,0,0,0,.53.44.44,0,0,1-.84.23,4.72,4.72,0,0,1,5.66-6.3Z"/><polygon class="cls-51" points="313.97 241.41 313.97 252.09 313.97 285.92 331.8 285.92 338.55 261.06 345.09 285.92 361.78 285.92 363.13 252.09 363.13 241.41 313.97 241.41"/><path class="cls-52" d="M726.17,302.71v39.56h-25.5a5.38,5.38,0,0,1-5.38-5.38v-3.29a5.38,5.38,0,0,1,5.38-5.38h10.84v-25.5Z"/><g class="cls-53"><rect class="cls-10" x="707.33" y="308.05" width="24.1" height="1.66"/><rect class="cls-10" x="707.33" y="311.11" width="24.1" height="1.66"/><rect class="cls-10" x="707.33" y="314.17" width="24.1" height="1.66"/><rect class="cls-10" x="707.33" y="317.23" width="24.1" height="1.66"/></g><path class="cls-52" d="M743.95,319.54v39.56h-25.5a5.38,5.38,0,0,1-5.38-5.38v-3.29a5.38,5.38,0,0,1,5.38-5.38h10.84v-25.5Z"/><g class="cls-54"><rect class="cls-10" x="725.11" y="324.87" width="24.1" height="1.66"/><rect class="cls-10" x="725.11" y="327.93" width="24.1" height="1.66"/><rect class="cls-10" x="725.11" y="330.99" width="24.1" height="1.66"/><rect class="cls-10" x="725.11" y="334.05" width="24.1" height="1.66"/></g><path class="cls-55" d="M330.85,348v14.61h-9v-5.84S302,364,293.25,362.31c0,0-9.95-1.34,5.32-6.84C310,351.35,314,346,314,346"/><path class="cls-55" d="M333.83,348v14.61h9v-5.84s19.87,7.3,28.59,5.58c0,0,9.95-1.34-5.32-6.84-11.43-4.12-16.25-8.92-16.25-8.92"/><path class="cls-4" d="M645.7,257.74c-2.45.29-5.47,3.79-8.31,12.52,0,2.51,1.45,18.67-3.66,25.93-1.1,11.42,3.16,39.35,4.58,51.06-28.79,23.82-66.4-2.45-67.48,2.33,1.39-11.55,3.4-42.17,2.33-53.44-5.69-7.79-5.37-26.23-5.37-26.23-2.81-8.48-5.78-11.9-8.2-12.19-6-.7,8.87-10.47,18-10.47h7.58c2.49,6.69,9.35,11.5,17.42,11.5s14.94-4.81,17.43-11.5h7.58C636.83,247.27,651.71,257,645.7,257.74Z"/><path class="cls-4" d="M657.11,340.41l-23.32-.9V273.43s5.39-27.37,13.68-12.52Q654.35,302.47,657.11,340.41Z"/><path class="cls-9" d="M573.47,243.29l18.4-5.45,18.4,5.45-3.53,5a28.57,28.57,0,0,0-30.63-.95Z"/><path class="cls-10" d="M596.92,231.75a.43.43,0,0,1-.13.84h0a4.57,4.57,0,0,0-4.56,4.56,4.62,4.62,0,0,0,0,.52.43.43,0,0,1-.82.22,4.61,4.61,0,0,1,5.52-6.14Z"/><path class="cls-56" d="M544.86,331.19l23.32-.9V264.21s-5.39-27.37-13.68-12.52Q547.62,293.24,544.86,331.19Z"/><path class="cls-56" d="M638.45,331.19l-23.32-.9V264.21s5.39-27.37,13.68-12.52Q635.69,293.24,638.45,331.19Z"/><path class="cls-57" d="M630,251.27c-2.17.26-4.84,3.35-7.36,11.08,0,2.22,1.28,16.53-3.24,23-1,10.11,2.79,34.83,4.05,45.2-25.48,21.08-58.77-2.17-59.73,2.07,1.23-10.22,3-37.32,2.06-47.3-5-6.89-4.75-23.21-4.75-23.21-2.49-7.51-5.11-10.53-7.26-10.79-5.32-.62,7.85-9.27,16-9.27h6.71a16.77,16.77,0,0,0,30.85,0H614C622.13,242,635.29,250.65,630,251.27Z"/><g class="cls-58"><polygon class="cls-9" points="623.03 320.05 625.55 316.36 625.43 320.83 629.64 319.33 626.92 322.88 631.21 324.14 626.92 325.41 629.64 328.95 625.43 327.45 625.55 331.92 623.03 328.23 620.5 331.92 620.62 327.45 616.41 328.95 619.14 325.41 614.85 324.14 619.14 322.88 616.41 319.33 620.62 320.83 620.5 316.36 623.03 320.05"/><polygon class="cls-9" points="620.79 296.17 623.32 292.48 623.19 296.95 627.4 295.45 624.68 298.99 628.97 300.26 624.68 301.52 627.4 305.07 623.19 303.57 623.32 308.04 620.79 304.35 618.26 308.04 618.38 303.57 614.17 305.07 616.9 301.52 612.61 300.26 616.9 298.99 614.17 295.45 618.38 296.95 618.26 292.48 620.79 296.17"/><polygon class="cls-9" points="563.07 315.33 565.59 311.64 565.47 316.11 569.68 314.61 566.96 318.15 571.25 319.42 566.96 320.68 569.68 324.22 565.47 322.73 565.59 327.19 563.07 323.51 560.54 327.19 560.66 322.73 556.45 324.22 559.18 320.68 554.89 319.42 559.18 318.15 556.45 314.61 560.66 316.11 560.54 311.64 563.07 315.33"/><polygon class="cls-9" points="581.09 303.95 583.62 300.26 583.5 304.73 587.71 303.23 584.98 306.77 589.27 308.04 584.98 309.3 587.71 312.85 583.5 311.35 583.62 315.82 581.09 312.13 578.57 315.82 578.69 311.35 574.48 312.85 577.21 309.3 572.91 308.04 577.21 306.77 574.48 303.23 578.69 304.73 578.57 300.26 581.09 303.95"/><polygon class="cls-9" points="569.4 282.3 571.93 278.61 571.8 283.08 576.02 281.58 573.29 285.13 577.58 286.39 573.29 287.65 576.02 291.2 571.8 289.7 571.93 294.17 569.4 290.48 566.87 294.17 567 289.7 562.78 291.2 565.51 287.65 561.22 286.39 565.51 285.13 562.78 281.58 567 283.08 566.87 278.61 569.4 282.3"/><polygon class="cls-9" points="585.11 332.81 587.63 329.12 587.51 333.59 591.72 332.09 589 335.63 593.29 336.9 589 338.16 591.72 341.71 587.51 340.21 587.63 344.68 585.11 340.99 582.58 344.68 582.7 340.21 578.49 341.71 581.22 338.16 576.93 336.9 581.22 335.63 578.49 332.09 582.7 333.59 582.58 329.12 585.11 332.81"/><polygon class="cls-9" points="563.07 261.96 565.59 258.28 565.47 262.75 569.68 261.25 566.96 264.79 571.25 266.06 566.96 267.32 569.68 270.86 565.47 269.36 565.59 273.83 563.07 270.14 560.54 273.83 560.66 269.36 556.45 270.86 559.18 267.32 554.89 266.06 559.18 264.79 556.45 261.25 560.66 262.75 560.54 258.28 563.07 261.96"/><polygon class="cls-9" points="581.09 246.41 583.62 242.72 583.5 247.19 587.71 245.69 584.98 249.23 589.27 250.5 584.98 251.76 587.71 255.3 583.5 253.81 583.62 258.28 581.09 254.59 578.57 258.28 578.69 253.81 574.48 255.3 577.21 251.76 572.91 250.5 577.21 249.23 574.48 245.69 578.69 247.19 578.57 242.72 581.09 246.41"/><polygon class="cls-9" points="602.65 243.67 605.17 239.98 605.05 244.45 609.26 242.95 606.54 246.5 610.83 247.76 606.54 249.02 609.26 252.57 605.05 251.07 605.17 255.54 602.65 251.85 600.12 255.54 600.24 251.07 596.03 252.57 598.76 249.02 594.47 247.76 598.76 246.5 596.03 242.95 600.24 244.45 600.12 239.98 602.65 243.67"/><polygon class="cls-9" points="617.58 265.32 620.1 261.63 619.98 266.1 624.19 264.6 621.47 268.14 625.75 269.41 621.47 270.67 624.19 274.21 619.98 272.71 620.1 277.19 617.58 273.5 615.05 277.19 615.17 272.71 610.96 274.21 613.69 270.67 609.4 269.41 613.69 268.14 610.96 264.6 615.17 266.1 615.05 261.63 617.58 265.32"/><polygon class="cls-9" points="597.26 269.74 599.79 266.06 599.66 270.52 603.88 269.03 601.15 272.57 605.44 273.83 601.15 275.1 603.88 278.64 599.66 277.14 599.79 281.61 597.26 277.92 594.73 281.61 594.86 277.14 590.64 278.64 593.37 275.1 589.08 273.83 593.37 272.57 590.64 269.03 594.86 270.52 594.73 266.06 597.26 269.74"/></g><path class="cls-56" d="M591.87,252.18l5.36,87.29s-3.11-81,5.41-91.06"/><polygon class="cls-56" points="581.09 248.41 589.06 251.95 597.26 340.42 581.09 248.41"/><path class="cls-1" d="M749.29,142.76a178.24,178.24,0,0,1-.5-31.47c3.75-6.58,3.86-21,3.85-23.29,2.09-7.91,4.31-11.08,6.11-11.34,4.42-.64-6.52-9.49-13.28-9.49H739.9c-1.83,6.06-6.88,10.42-12.82,10.42s-11-4.36-12.82-10.42h-5.57c-6.75,0-17.69,8.85-13.28,9.49,1.78.26,4,3.35,6,11,0,0-.24,16.71,3.95,23.76a178.45,178.45,0,0,1-.52,31.3l-15,87s7.87,10.39,30.79,0c0,0,15.56,7.72,29.25,0,0,0,11.41,6.2,16.83,0Z"/><path class="cls-9" d="M691.69,68.49,710.1,63l18.4,5.45-3.53,5a28.57,28.57,0,0,0-30.63-.95Z"/><path class="cls-10" d="M715.15,56.95a.43.43,0,0,1-.13.84h0a4.57,4.57,0,0,0-4.56,4.56,4.62,4.62,0,0,0,0,.52.43.43,0,0,1-.82.22,4.61,4.61,0,0,1,5.52-6.14Z"/><path class="cls-52" d="M732.32,142.53a178.24,178.24,0,0,1-.5-31.47c3.75-6.58,3.86-21,3.85-23.29,2.09-7.91,4.31-11.08,6.11-11.34,4.42-.64-6.52-9.49-13.28-9.49h-5.57c-1.83,6.06-6.88,10.42-12.82,10.42s-11-4.36-12.82-10.42h-5.57c-6.75,0-17.69,8.85-13.28,9.49,1.78.26,4,3.35,6,11,0,0-.24,16.71,3.95,23.76a178.45,178.45,0,0,1-.52,31.3l-15,87s7.87,10.39,30.79,0c0,0,15.56,7.72,29.25,0,0,0,11.41,6.2,16.83,0Z"/><g class="cls-59"><ellipse class="cls-60" cx="690.4" cy="112.3" rx="17.47" ry="5.6"/><ellipse class="cls-60" cx="723.74" cy="129.22" rx="17.47" ry="5.6"/><ellipse class="cls-60" cx="688.81" cy="144.97" rx="17.47" ry="5.6"/><ellipse class="cls-60" cx="736.33" cy="93.46" rx="17.47" ry="5.6"/><ellipse class="cls-60" cx="732.4" cy="167.99" rx="5.6" ry="17.47" transform="translate(176.4 673.45) rotate(-55.19)"/><ellipse class="cls-60" cx="733.22" cy="202.89" rx="17.47" ry="5.6" transform="translate(-25.76 255.1) rotate(-19.4)"/><ellipse class="cls-60" cx="682.22" cy="175.77" rx="17.47" ry="5.6" transform="translate(-19.65 236.61) rotate(-19.4)"/></g><polygon class="cls-1" points="493.62 251.11 493.62 261.54 501.2 354.36 511.01 354.36 518.05 278.31 523.99 354.36 533.38 354.36 541.59 261.54 541.59 251.11 493.62 251.11"/><path class="cls-9" d="M483,242.53l24-5.45,24,5.45-4.59,5a46.6,46.6,0,0,0-39.92-.95Z"/><path class="cls-10" d="M512,231a.43.43,0,0,1-.13.84h0a4.57,4.57,0,0,0-4.56,4.56,4.62,4.62,0,0,0,0,.52.43.43,0,0,1-.82.22A4.61,4.61,0,0,1,512,231Z"/><polygon class="cls-22" points="482.98 242.29 482.98 252.72 490.56 345.54 500.38 345.54 507.41 269.5 513.35 345.54 522.74 345.54 530.95 252.72 530.95 242.29 482.98 242.29"/></g></g></svg>