<svg xmlns="http://www.w3.org/2000/svg" xmlns:xlink="http://www.w3.org/1999/xlink" viewBox="0 0 1542 1080"><defs><style>.cls-1{fill:#562d00;}.cls-2,.cls-46{fill:none;}.cls-3{fill:#e4e3e8;}.cls-4{fill:#c27514;}.cls-5{fill:#643a00;}.cls-6{fill:#8a5213;}.cls-7{clip-path:url(#clip-path);}.cls-8{fill:#231f20;}.cls-9{fill:#bcbec0;}.cls-10{fill:#e2cf91;}.cls-11{fill:#fffef9;}.cls-12{fill:#fdc581;}.cls-13{fill:#a2a2c9;}.cls-14{clip-path:url(#clip-path-2);}.cls-15{fill:#00a881;stroke:#f37443;stroke-width:0.48px;}.cls-15,.cls-24,.cls-27,.cls-28,.cls-29,.cls-32,.cls-37,.cls-38,.cls-46{stroke-miterlimit:10;}.cls-16{fill:#e06a4d;}.cls-17{fill:#fff;}.cls-18{fill:#d8dcec;}.cls-19{fill:#00b262;}.cls-20{clip-path:url(#clip-path-3);}.cls-21{fill:#00793a;}.cls-22,.cls-24{fill:#0054a6;}.cls-23{fill:#7bafde;}.cls-24{stroke:#7bafde;stroke-width:0.52px;}.cls-25{fill:#666e9c;}.cls-26,.cls-27,.cls-28,.cls-29,.cls-37,.cls-38{fill:#c3ba69;}.cls-27,.cls-28,.cls-29,.cls-37,.cls-38{stroke:#c3ba69;}.cls-27{stroke-width:0.39px;}.cls-28,.cls-32{stroke-width:0.5px;}.cls-29{stroke-width:0.42px;}.cls-30{fill:#c1c0db;}.cls-31,.cls-32{fill:#ffddb3;}.cls-32{stroke:#e1835b;}.cls-33{fill:#d53d96;}.cls-34{fill:#cc6ca2;}.cls-35{fill:#f8b1b2;}.cls-36{fill:#d9d29a;}.cls-37{stroke-width:0.45px;}.cls-38{stroke-width:0.5px;}.cls-39{fill:#cd4f62;}.cls-40{fill:#f5908a;}.cls-41{fill:#eed1bf;}.cls-42{clip-path:url(#clip-path-4);}.cls-43{fill:#eff9fe;}.cls-44{fill:#ffcf01;}.cls-45{clip-path:url(#clip-path-5);}.cls-46{stroke:#c4a006;stroke-width:1.42px;}.cls-47{fill:#4fbfa5;}.cls-48{fill:#f15d2a;}.cls-49{clip-path:url(#clip-path-6);}.cls-50{clip-path:url(#clip-path-7);}.cls-51{fill:#cabcdc;}.cls-52{fill:#fffabe;}.cls-53{fill:#ebe2a3;}.cls-54{clip-path:url(#clip-path-8);}.cls-55{clip-path:url(#clip-path-9);}.cls-56{fill:#d55225;}</style><clipPath id="clip-path"><path class="cls-1" d="M309.8,382.66h-8.86C298,390.19,290,395.6,280.58,395.6s-17.45-5.41-20.36-12.94h-8.85c-10.72,0-28.1,11-21.09,11.79,3,.33,6.61,4.51,10,15V503.8h80.56V409.46c3.41-10.5,7.07-14.68,10-15C337.9,393.65,320.52,382.66,309.8,382.66Z"/></clipPath><clipPath id="clip-path-2"><polyline class="cls-2" points="54.25 390.48 61.55 492.21 47.1 507.34 37.27 492.73 42.77 390.48"/></clipPath><clipPath id="clip-path-3"><path class="cls-2" d="M291,368.91h-8.86c-2.9,7.52-10.92,12.94-20.35,12.94s-17.46-5.42-20.36-12.94h-8.86c-10.72,0-28.1,11-21.08,11.78,2.95.33,6.61,4.51,10,15V490h80.57V395.71c3.4-10.51,7.06-14.69,10-15C319.11,379.9,301.73,368.91,291,368.91Z"/></clipPath><clipPath id="clip-path-4"><path class="cls-2" d="M783.54,382c-2.91.34-6.5,4.5-9.87,14.88,0,3,1.71,22.19-4.35,30.81-1.31,13.57,3.75,46.76,5.44,60.68-34.21,28.3-78.9-2.91-80.19,2.77,1.66-13.72,4-50.11,2.78-63.5-6.77-9.25-6.38-31.16-6.38-31.16-3.34-10.08-6.87-14.14-9.75-14.48-7.13-.83,10.54-12.44,21.45-12.44h9c3,7.95,11.1,13.66,20.7,13.66s17.75-5.71,20.71-13.66h9C773,369.51,790.68,381.12,783.54,382Z"/></clipPath><clipPath id="clip-path-5"><path class="cls-2" d="M814.26,371.9,800.14,473.55s8.54,13.95,33.41,0c0,0,16.88,10.36,31.74,0,0,0,12.38,8.32,18.26,0L867,371.9Z"/></clipPath><clipPath id="clip-path-6"><path class="cls-2" d="M951.3,672.55v51.82H917.89a7,7,0,0,1-7-7V713a7.05,7.05,0,0,1,7-7H932.1V672.55Z"/></clipPath><clipPath id="clip-path-7"><path class="cls-2" d="M974.59,694.6v51.82H941.18a7.05,7.05,0,0,1-7-7v-4.31a7,7,0,0,1,7-7h14.21V694.6Z"/></clipPath><clipPath id="clip-path-8"><path class="cls-2" d="M825.29,605.17c-2.84.33-6.34,4.39-9.64,14.52,0,2.91,1.68,21.65-4.24,30.07-1.27,13.24,3.66,45.62,5.31,59.2-33.38,27.62-77-2.83-78.24,2.71,1.61-13.39,3.94-48.9,2.7-62-6.6-9-6.22-30.41-6.22-30.41-3.26-9.84-6.7-13.8-9.51-14.13-7-.81,10.29-12.14,20.93-12.14h8.79c2.88,7.76,10.83,13.33,20.2,13.33s17.32-5.57,20.21-13.33h8.78C815,593,832.25,604.36,825.29,605.17Z"/></clipPath><clipPath id="clip-path-9"><path class="cls-2" d="M959.36,462.72a232.22,232.22,0,0,1-.66-41.22c4.92-8.62,5-27.53,5-30.51,2.74-10.36,5.65-14.52,8-14.86,5.79-.83-8.55-12.43-17.39-12.43h-7.31c-2.39,7.94-9,13.65-16.79,13.65s-14.39-5.71-16.79-13.65h-7.3c-8.85,0-23.18,11.6-17.4,12.43,2.34.34,5.2,4.4,7.91,14.46,0,0-.32,21.89,5.17,31.13a234.54,234.54,0,0,1-.68,41l-19.61,114s10.32,13.62,40.34,0c0,0,20.38,10.12,38.32,0,0,0,14.94,8.12,22,0Z"/></clipPath></defs><g id="Layer_2" data-name="Layer 2"><g id="Right"><rect class="cls-3" x="1119" width="423" height="1080"/></g><g id="Glavno_Besedilo" data-name="Glavno Besedilo"><rect class="cls-4" y="276" width="1061" height="489.46"/><rect class="cls-5" x="30.31" y="290.64" width="1000.39" height="460.18"/><rect class="cls-6" x="11.03" y="290.64" width="205.57" height="460.18"/><path class="cls-1" d="M190.23,482.16l-24.51-1.07V402.22s5.67-32.68,14.38-14.94Q187.33,436.87,190.23,482.16Z"/><path class="cls-1" d="M77.21,482.16l24.51-1.07V402.22s-5.67-32.68-14.38-14.94Q80.11,436.87,77.21,482.16Z"/><path class="cls-1" d="M160.62,375.88h-8.16c-2.67,6.93-10.05,11.91-18.74,11.91s-16.07-5-18.75-11.91h-8.15C97,375.88,81,386,87.41,386.72c2.72.31,6.08,4.16,9.22,13.83v86.86h74.18V400.55c3.13-9.67,6.5-13.52,9.22-13.83C186.49,386,170.49,375.88,160.62,375.88Z"/><line class="cls-1" x1="133.72" y1="487.41" x2="133.72" y2="387.79"/><rect class="cls-1" x="96.63" y="487.41" width="74.11" height="25.03"/><polygon class="cls-1" points="133.72 512.44 121.46 626.57 107.45 626.57 96.63 512.44 133.72 512.44"/><polygon class="cls-1" points="170.74 512.44 158.55 626.57 144.62 626.57 133.85 512.44 170.74 512.44"/><circle class="cls-1" cx="139.93" cy="406.13" r="1.87"/><circle class="cls-1" cx="127.69" cy="406.13" r="1.87"/><circle class="cls-1" cx="139.93" cy="420.22" r="1.87"/><circle class="cls-1" cx="127.69" cy="420.22" r="1.87"/><circle class="cls-1" cx="139.93" cy="434.31" r="1.87"/><circle class="cls-1" cx="127.69" cy="434.31" r="1.87"/><circle class="cls-1" cx="139.93" cy="448.4" r="1.87"/><circle class="cls-1" cx="127.69" cy="448.4" r="1.87"/><circle class="cls-1" cx="139.93" cy="462.5" r="1.87"/><circle class="cls-1" cx="127.69" cy="462.5" r="1.87"/><path class="cls-1" d="M150.1,380.06C134.34,394.6,133.69,415,133.69,415c0-17.77-14.64-33-14.64-33C128.79,390.13,139.11,390,150.1,380.06Z"/><path class="cls-1" d="M342,498.1l-26.62-1.17V411.27s6.15-35.48,15.61-16.22Q338.81,448.92,342,498.1Z"/><path class="cls-1" d="M219.21,498.1l26.61-1.17V411.27s-6.15-35.48-15.61-16.22Q222.36,448.92,219.21,498.1Z"/><path class="cls-1" d="M309.8,382.66h-8.86C298,390.19,290,395.6,280.58,395.6s-17.45-5.41-20.36-12.94h-8.85c-10.72,0-28.1,11-21.09,11.79,3,.33,6.61,4.51,10,15V503.8h80.56V409.46c3.41-10.5,7.07-14.68,10-15C337.9,393.65,320.52,382.66,309.8,382.66Z"/><path class="cls-1" d="M309.8,382.66h-8.86C298,390.19,290,395.6,280.58,395.6s-17.45-5.41-20.36-12.94h-8.85c-10.72,0-28.1,11-21.09,11.79,3,.33,6.61,4.51,10,15V503.8h80.56V409.46c3.41-10.5,7.07-14.68,10-15C337.9,393.65,320.52,382.66,309.8,382.66Z"/><g class="cls-7"><rect class="cls-1" x="217.78" y="412.85" width="122.75" height="21.91"/><rect class="cls-1" x="217.78" y="443.23" width="122.75" height="21.91"/></g><polygon class="cls-4" points="1029.53 276 1076.54 276 1076.54 750.82 1017.49 750.82 1017.49 276 1029.53 276"/><rect class="cls-8" x="13.3" y="765.46" width="24" height="7.04"/><rect class="cls-8" x="379.63" y="765.46" width="24" height="7.04"/><rect class="cls-8" x="757.63" y="765.46" width="24" height="7.04"/><rect class="cls-8" x="1005.63" y="765.46" width="24" height="7.04"/><rect class="cls-9" x="12.31" y="353.92" width="1000.39" height="2.09"/><rect class="cls-9" x="13.31" y="583.92" width="1000.39" height="2.09"/><path class="cls-10" d="M227,370.67l33.53-7.62,33.52,7.62-6.42,6.95s-25.41-14.73-55.8-1.32Z"/><path class="cls-11" d="M267.62,354.54a.6.6,0,0,1-.18,1.18h0A6.38,6.38,0,0,0,261,362.1a5.79,5.79,0,0,0,0,.72.6.6,0,0,1-1.15.31,6.36,6.36,0,0,1-.46-2.39,6.43,6.43,0,0,1,6.43-6.44A6.59,6.59,0,0,1,267.62,354.54Z"/><circle class="cls-8" cx="1046.62" cy="513.41" r="14.09"/><path class="cls-10" d="M100.5,370.67l25.73-7.62L152,370.67,147,377.62s-19.5-14.73-42.82-1.32Z"/><path class="cls-11" d="M133.29,354.54a.6.6,0,0,1-.19,1.18h0a6.38,6.38,0,0,0-6.38,6.38c0,.24,0,.48,0,.72a.6.6,0,0,1-1.15.31,6.56,6.56,0,0,1-.46-2.39,6.44,6.44,0,0,1,6.44-6.44A6.7,6.7,0,0,1,133.29,354.54Z"/><polygon class="cls-5" points="47.93 371.46 67.58 372.51 67.58 390.48 47.93 390.48 47.93 371.46"/><polyline class="cls-5" points="62.59 390.48 69.9 492.21 55.45 507.34 45.62 492.73 51.12 390.48"/><path class="cls-10" d="M23.34,370.67l25.73-7.62,25.73,7.62-4.93,6.95s-19.5-14.73-42.82-1.32Z"/><path class="cls-11" d="M56.13,354.54a.6.6,0,0,1-.19,1.18h0a6.38,6.38,0,0,0-6.38,6.38c0,.24,0,.48,0,.72a.6.6,0,0,1-1.15.31,6.55,6.55,0,0,1-.45-2.39,6.43,6.43,0,0,1,6.43-6.44A6.7,6.7,0,0,1,56.13,354.54Z"/><polygon class="cls-12" points="39.58 371.46 59.24 372.51 59.24 390.48 39.58 390.48 39.58 371.46"/><polyline class="cls-13" points="54.25 390.48 61.55 492.21 47.1 507.34 37.27 492.73 42.77 390.48"/><g class="cls-14"><rect class="cls-12" x="31.83" y="398.82" width="38.87" height="2.87"/><rect class="cls-12" x="31.83" y="412.65" width="38.87" height="2.87"/><rect class="cls-12" x="31.83" y="426.47" width="38.87" height="2.87"/><rect class="cls-12" x="31.83" y="440.3" width="38.87" height="2.87"/><rect class="cls-12" x="31.83" y="454.12" width="38.87" height="2.87"/><rect class="cls-12" x="31.83" y="467.95" width="38.87" height="2.87"/><rect class="cls-12" x="31.83" y="481.77" width="38.87" height="2.87"/></g><path class="cls-8" d="M181.63,476.62l-24.51-1.07V396.68s5.66-32.67,14.37-14.94Q178.72,431.33,181.63,476.62Z"/><path class="cls-8" d="M68.6,476.62l24.51-1.07V396.68S87.45,364,78.74,381.74Q71.5,431.33,68.6,476.62Z"/><path class="cls-8" d="M152,370.34h-8.15c-2.68,6.93-10.06,11.91-18.75,11.91s-16.07-5-18.74-11.91H98.22c-9.88,0-25.88,10.12-19.42,10.85,2.72.3,6.09,4.15,9.23,13.82v86.87H162.2V395c3.14-9.67,6.51-13.52,9.23-13.82C177.89,380.46,161.89,370.34,152,370.34Z"/><line class="cls-15" x1="125.11" y1="481.88" x2="125.11" y2="382.25"/><rect class="cls-8" x="88.03" y="481.88" width="74.11" height="25.03"/><polygon class="cls-8" points="125.12 506.9 112.86 621.04 98.85 621.04 88.03 506.9 125.12 506.9"/><polygon class="cls-8" points="162.14 506.9 149.95 621.04 136.01 621.04 125.25 506.9 162.14 506.9"/><circle class="cls-16" cx="131.33" cy="400.59" r="1.87"/><circle class="cls-16" cx="119.09" cy="400.59" r="1.87"/><circle class="cls-16" cx="131.33" cy="414.68" r="1.87"/><circle class="cls-16" cx="119.09" cy="414.68" r="1.87"/><circle class="cls-16" cx="131.33" cy="428.77" r="1.87"/><circle class="cls-16" cx="119.09" cy="428.77" r="1.87"/><circle class="cls-16" cx="131.33" cy="442.87" r="1.87"/><circle class="cls-16" cx="119.09" cy="442.87" r="1.87"/><circle class="cls-16" cx="131.33" cy="456.96" r="1.87"/><circle class="cls-16" cx="119.09" cy="456.96" r="1.87"/><path class="cls-17" d="M141.5,374.52c-15.76,14.54-16.42,34.94-16.42,34.94,0-17.77-14.63-33-14.63-33C120.19,384.59,130.5,384.49,141.5,374.52Z"/><path class="cls-18" d="M323.17,484.34l-26.62-1.16V397.51s6.16-35.48,15.61-16.22Q320,435.16,323.17,484.34Z"/><path class="cls-18" d="M200.42,484.34,227,483.18V397.51s-6.16-35.48-15.61-16.22Q203.57,435.16,200.42,484.34Z"/><path class="cls-19" d="M291,368.91h-8.86c-2.9,7.52-10.92,12.94-20.35,12.94s-17.46-5.42-20.36-12.94h-8.86c-10.72,0-28.1,11-21.08,11.78,2.95.33,6.61,4.51,10,15V490h80.57V395.71c3.4-10.51,7.06-14.69,10-15C319.11,379.9,301.73,368.91,291,368.91Z"/><g class="cls-20"><rect class="cls-21" x="198.99" y="399.09" width="122.75" height="21.91"/><rect class="cls-17" x="198.99" y="429.48" width="122.75" height="21.91"/></g><polygon class="cls-22" points="221.88 490.04 221.88 507.44 234.53 662.33 250.91 662.33 262.65 535.44 272.56 662.33 288.22 662.33 301.92 507.44 301.92 490.04 221.88 490.04"/><polygon class="cls-23" points="301.92 498.1 245.82 498.1 221.88 498.1 221.88 490.04 301.92 490.04 301.92 498.1"/><rect class="cls-23" x="259.63" y="495.75" width="4.34" height="10.54"/><path class="cls-24" d="M276.27,498.1s9.3,42.28,24.47,22.63"/><path class="cls-24" d="M243.4,498.1s-4.52,43.72-19.86,29.61"/><path class="cls-1" d="M440.53,374.81h-8.44c-2.77,4.31-10.42,7.4-19.42,7.4s-16.65-3.09-19.42-7.4h-8.44c-10.23,0-26.81,6.29-20.11,6.74,2.81.19,6.3,2.58,9.55,8.59V491.28h76.84V390.14c3.25-6,6.73-8.4,9.55-8.59C467.34,381.1,450.76,374.81,440.53,374.81Z"/><path class="cls-1" d="M473.12,473.15l-25.84-1V398.93s6-30.33,15.15-13.87Q470.06,431.11,473.12,473.15Z"/><path class="cls-1" d="M351.27,473.15l25.84-1V398.93s-6-30.33-15.15-13.87Q354.33,431.11,351.27,473.15Z"/><line class="cls-1" x1="412.67" y1="382.21" x2="412.67" y2="491.28"/><circle class="cls-1" cx="421.08" cy="421.12" r="2.65"/><circle class="cls-1" cx="421.08" cy="446.31" r="2.65"/><circle class="cls-1" cx="421.08" cy="475.7" r="2.65"/><path class="cls-1" d="M386.08,374.81h7.17s4.44,4.82,18,7.18C411.29,382,401.17,384.19,386.08,374.81Z"/><path class="cls-1" d="M439.24,374.81h-7.17s-4.44,4.82-18,7.18C414,382,424.15,384.19,439.24,374.81Z"/><path class="cls-10" d="M373.69,370.44l24.54-7.26,24.54,7.26-4.7,6.63a38.07,38.07,0,0,0-40.84-1.26Z"/><path class="cls-11" d="M405,355.06a.57.57,0,0,1-.18,1.12h0a6.09,6.09,0,0,0-6.09,6.08,5.22,5.22,0,0,0,0,.69.58.58,0,0,1-1.1.3,6.2,6.2,0,0,1-.43-2.28,6.13,6.13,0,0,1,6.13-6.14A6.05,6.05,0,0,1,405,355.06Z"/><path class="cls-25" d="M426.09,368.45h-8.44c-2.77,4.3-10.42,7.4-19.42,7.4s-16.64-3.1-19.42-7.4h-8.44c-10.23,0-26.81,6.28-20.11,6.74,2.82.19,6.3,2.58,9.55,8.58V484.92h76.84V383.77c3.25-6,6.74-8.39,9.56-8.58C452.9,374.73,436.32,368.45,426.09,368.45Z"/><path class="cls-26" d="M458.68,466.78l-25.84-1V392.57s6-30.34,15.16-13.87Q455.62,424.74,458.68,466.78Z"/><path class="cls-26" d="M336.83,466.78l25.85-1V392.57s-6-30.34-15.16-13.87Q339.9,424.74,336.83,466.78Z"/><line class="cls-27" x1="398.23" y1="375.85" x2="398.23" y2="484.92"/><circle class="cls-28" cx="406.64" cy="414.75" r="2.65"/><circle class="cls-28" cx="406.64" cy="439.95" r="2.65"/><circle class="cls-28" cx="406.64" cy="469.34" r="2.65"/><path class="cls-29" d="M371.64,368.45h7.17s4.44,4.81,18,7.17C396.85,375.62,386.74,377.83,371.64,368.45Z"/><path class="cls-29" d="M424.8,368.45h-7.17s-4.44,4.81-18,7.17C399.59,375.62,409.71,377.83,424.8,368.45Z"/><path class="cls-1" d="M541.24,395.74a21.36,21.36,0,0,1,.22,21.14c.1.83.22,1.67.35,2.52.28,1.82.61,3.72,1,5.72,2.33,13.35,8.3,26.29,6.31,39.72,0,2.49-7,3.48-11,6.27-1.59.95-3.18,2-4.74,3.11-6.21,4.54-11.72,10.79-13,20.25.53-3.81-6.65-15.51-26.81-29.14-1.34-.9-2.73-1.82-4.18-2.74,1.54-15.66,5.52-30.09,5.49-45.51.11-.87.21-1.8.31-2.8a21.5,21.5,0,0,1,.46-19.95,83.52,83.52,0,0,0-5.08-25.23,14.61,14.61,0,0,1,3.47-.48h7.43c2.44,8.08,9.16,13.9,17.09,13.9s14.65-5.82,17.09-13.9h7.43a20.54,20.54,0,0,1,8.47,2.36C551.28,371.21,543.45,378.44,541.24,395.74Z"/><path class="cls-10" d="M484.13,368.94l24.54-7.26,24.53,7.26-4.7,6.63a38.07,38.07,0,0,0-40.84-1.26Z"/><path class="cls-11" d="M515.4,353.56a.57.57,0,0,1-.18,1.12h0a6.08,6.08,0,0,0-6.08,6.08c0,.23,0,.47,0,.69a.57.57,0,0,1-1.09.3,6.21,6.21,0,0,1-.44-2.28,6.14,6.14,0,0,1,7.8-5.91Z"/><path class="cls-30" d="M530.29,395.74a21.36,21.36,0,0,1,.22,21.14c.11.83.22,1.67.35,2.52.28,1.82.61,3.72,1,5.72,2.33,13.35,8.3,26.29,6.31,39.72,0,2.49-7,3.48-11,6.27-1.58.95-3.18,2-4.73,3.11-6.22,4.54-11.73,10.79-13,20.25.53-3.81-6.65-15.51-26.81-29.14-1.34-.9-2.74-1.82-4.19-2.74,1.54-15.66,5.52-30.09,5.49-45.51.11-.87.21-1.8.31-2.8a21,21,0,0,1-2.23-9.55,20.67,20.67,0,0,1,2.7-10.4,84.14,84.14,0,0,0-5.08-25.23,14.46,14.46,0,0,1,3.46-.48h7.43c2.44,8.08,9.17,13.9,17.09,13.9s14.65-5.82,17.09-13.9h7.44a20.49,20.49,0,0,1,8.46,2.36C540.34,371.21,532.5,378.44,530.29,395.74Z"/><path class="cls-31" d="M172.36,750.48c-9.18,0-18.35,0-27.52,0-1.56,0-1.94-.47-2-2-.27-4.83,1-9.34,2.63-13.78.42-1.17.31-1.76-.79-2.34a5,5,0,0,1-2.09-1.74,3.6,3.6,0,0,1-.24-.9c.31-.07.65-.26.92-.19a2.81,2.81,0,0,1,1.36.7c2,2.64,5.13,3,8,3.46a16.33,16.33,0,0,0,9.44-1c2.47-1.08,3.45-3.5,5.13-5.28.33-.35-.09-.87-.15-1.32a2.88,2.88,0,0,1,1.32-2.86,2.16,2.16,0,0,1,2.87.36,34.89,34.89,0,0,1,3.36,3.3c4.08,4.83,9.45,7.94,14.59,11.44,5,3.39,10.51,4,16.14,4.59a8.13,8.13,0,0,1,4.34,1.65c1.13.91,1.16,1.67-.09,2.63a15.85,15.85,0,0,1-9.9,3.15c-9.1.06-18.21,0-27.31,0Z"/><line class="cls-32" x1="178.19" y1="730.57" x2="174.3" y2="734.37"/><line class="cls-32" x1="180.31" y1="732.47" x2="176.42" y2="736.28"/><line class="cls-32" x1="183.05" y1="734.37" x2="179.17" y2="738.18"/><line class="cls-32" x1="186.03" y1="736.28" x2="182.14" y2="740.08"/><path class="cls-31" d="M243.38,750.48c-9.17,0-18.35,0-27.52,0-1.56,0-1.94-.47-2-2-.27-4.83,1-9.34,2.63-13.78.42-1.17.31-1.76-.79-2.34a5,5,0,0,1-2.09-1.74,3.6,3.6,0,0,1-.24-.9c.31-.07.65-.26.92-.19a2.77,2.77,0,0,1,1.36.7c2,2.64,5.13,3,8,3.46a16.33,16.33,0,0,0,9.44-1c2.47-1.08,3.45-3.5,5.13-5.28.33-.35-.09-.87-.15-1.32a2.88,2.88,0,0,1,1.32-2.86,2.16,2.16,0,0,1,2.87.36,34.89,34.89,0,0,1,3.36,3.3c4.08,4.83,9.45,7.94,14.59,11.44,5,3.39,10.51,4,16.14,4.59a8.13,8.13,0,0,1,4.34,1.65c1.13.91,1.16,1.67-.09,2.63a15.85,15.85,0,0,1-9.9,3.15c-9.1.06-18.21,0-27.31,0Z"/><line class="cls-32" x1="248.69" y1="729.85" x2="244.81" y2="733.66"/><line class="cls-32" x1="250.82" y1="731.76" x2="246.93" y2="735.56"/><line class="cls-32" x1="253.56" y1="733.66" x2="249.67" y2="737.46"/><line class="cls-32" x1="256.54" y1="735.56" x2="252.65" y2="739.37"/><ellipse class="cls-33" cx="443.37" cy="576.64" rx="41.89" ry="6.08"/><path class="cls-34" d="M443.37,536.37h0c-15.74,0-28.5,9.15-28.5,20.43v20.44a267.51,267.51,0,0,0,57,0V556.8C471.87,545.52,459.11,536.37,443.37,536.37Z"/><path class="cls-35" d="M414.87,561.92v8.46a191.73,191.73,0,0,0,57,0v-8.46A192.4,192.4,0,0,1,414.87,561.92Z"/><path class="cls-8" d="M70.3,697.59v51.23h-33a7,7,0,0,1-7-7v-4.27a7,7,0,0,1,7-7h14v-33Z"/><path class="cls-8" d="M110.14,697.59v51.23h-33a7,7,0,0,1-7-7v-4.27a7,7,0,0,1,7-7h14v-33Z"/><path class="cls-10" d="M589.81,369.86l24.43-7.23,24.43,7.23-4.68,6.6a37.92,37.92,0,0,0-40.66-1.25Z"/><path class="cls-11" d="M620.94,354.55a.57.57,0,0,1-.18,1.11h0a6.06,6.06,0,0,0-6.06,6.06,5.32,5.32,0,0,0,0,.69.57.57,0,0,1-1.09.29,6.1,6.1,0,0,1,5.67-8.38A6,6,0,0,1,620.94,354.55Z"/><path class="cls-5" d="M655.88,376h-8.41c-2.76,5.94-10.36,10.21-19.33,10.21S611.57,382,608.81,376h-8.4c-10.19,0-26.69,8.67-20,9.29,2.81.27,6.28,3.56,9.52,11.85V536.73h76.49V397.18c3.24-8.29,6.71-11.58,9.51-11.85C682.57,384.71,666.06,376,655.88,376Z"/><path class="cls-5" d="M690.31,476.48l-25.73-1v-72.9s5.95-30.2,15.09-13.81Q687.26,434.62,690.31,476.48Z"/><path class="cls-5" d="M566,476.48l25.73-1v-72.9s-6-30.2-15.09-13.81Q569,434.62,566,476.48Z"/><line class="cls-5" x1="628.14" y1="386.25" x2="628.14" y2="536.73"/><circle class="cls-5" cx="636.51" cy="422.13" r="2.64"/><circle class="cls-5" cx="636.51" cy="460.28" r="2.64"/><circle class="cls-5" cx="636.51" cy="503.21" r="2.64"/><path class="cls-5" d="M601.67,376h7.14s4.42,6.85,18,10.21C626.77,386.25,616.7,389.38,601.67,376Z"/><path class="cls-5" d="M654.59,376h-7.13s-4.42,6.85-18,10.21C629.5,386.25,639.57,389.38,654.59,376Z"/><path class="cls-36" d="M642,367.88h-8.41c-2.76,5.94-10.37,10.21-19.33,10.21s-16.57-4.27-19.33-10.21H586.5c-10.18,0-26.68,8.67-20,9.3,2.81.26,6.28,3.56,9.51,11.84V528.57h76.5V389c3.23-8.28,6.7-11.58,9.51-11.84C668.66,376.55,652.16,367.88,642,367.88Z"/><path class="cls-26" d="M676.4,468.32l-25.72-1v-72.9s5.94-30.19,15.08-13.8Q673.37,426.47,676.4,468.32Z"/><path class="cls-26" d="M552.08,468.32l25.72-1v-72.9s-5.94-30.19-15.08-13.8Q555.13,426.47,552.08,468.32Z"/><line class="cls-37" x1="614.24" y1="378.09" x2="614.24" y2="528.57"/><circle class="cls-38" cx="622.61" cy="413.98" r="2.64"/><circle class="cls-38" cx="622.61" cy="452.12" r="2.64"/><circle class="cls-38" cx="622.61" cy="495.05" r="2.64"/><path class="cls-38" d="M587.77,367.88h7.14s4.42,6.85,18,10.21C612.87,378.09,602.8,381.23,587.77,367.88Z"/><path class="cls-38" d="M640.69,367.88h-7.14s-4.42,6.85-18,10.21C615.59,378.09,625.67,381.23,640.69,367.88Z"/><path class="cls-10" d="M486.52,590.36,516,584l34.19,6.36-6.1,6.6s-24.13-14-53-1.25Z"/><rect class="cls-16" x="492.98" y="594.92" width="50.73" height="89.43"/><rect class="cls-39" x="501.15" y="596.96" width="34.42" height="81.44"/><rect class="cls-40" x="506.33" y="594.92" width="24.03" height="89.43"/><rect class="cls-41" x="492.99" y="684.35" width="1.93" height="15.11"/><rect class="cls-41" x="498.19" y="684.35" width="1.93" height="15.11"/><rect class="cls-41" x="503.39" y="684.35" width="1.93" height="15.11"/><rect class="cls-41" x="508.59" y="684.35" width="1.93" height="15.11"/><rect class="cls-41" x="513.8" y="684.35" width="1.93" height="15.11"/><rect class="cls-41" x="519" y="684.35" width="1.93" height="15.11"/><rect class="cls-41" x="524.2" y="684.35" width="1.93" height="15.11"/><rect class="cls-41" x="529.4" y="684.35" width="1.93" height="15.11"/><rect class="cls-41" x="534.6" y="684.35" width="1.93" height="15.11"/><rect class="cls-41" x="539.8" y="684.35" width="1.93" height="15.11"/><path class="cls-8" d="M565.24,633.08l-2.39-15.26h-.23v23c-19.79-6.26-11-27.94-8.83-32.52V596.55h14.53V616l1.66,10.6A5.7,5.7,0,0,1,565.24,633.08Z"/><path class="cls-8" d="M586.39,633.08l2.39-15.26H589v23c19.79-6.26,11-27.94,8.84-32.52V596.55H583.31V616l-1.67,10.6A5.71,5.71,0,0,0,586.39,633.08Z"/><path class="cls-10" d="M551.22,596.86l24.43-7.23,24.43,7.23-4.68,6.6a37.92,37.92,0,0,0-40.66-1.25Z"/><path class="cls-11" d="M582.35,581.55a.57.57,0,0,1-.18,1.11h0a6.06,6.06,0,0,0-6,6.06q0,.35,0,.69a.57.57,0,0,1-1.09.29,6.11,6.11,0,0,1,7.33-8.15Z"/><path class="cls-5" d="M804.65,390c-3.29.39-7.35,5.09-11.16,16.81,0,3.37,1.94,25.07-4.91,34.82-1.48,15.33,4.24,52.82,6.15,68.55-38.65,32-89.15-3.28-90.6,3.13,1.87-15.5,4.57-56.61,3.13-71.74-7.64-10.45-7.21-35.21-7.21-35.21-3.77-11.39-7.75-16-11-16.36C681,389,701,375.91,713.28,375.91h10.17c3.34,9,12.55,15.44,23.39,15.44s20.06-6.46,23.4-15.44h10.18C792.74,375.91,812.71,389,804.65,390Z"/><path class="cls-10" d="M707.67,370.57l24.71-7.31,24.71,7.31-4.73,6.68A38.36,38.36,0,0,0,711.23,376Z"/><path class="cls-11" d="M739.16,355.08a.58.58,0,0,1-.18,1.13h0a6.12,6.12,0,0,0-6.12,6.13c0,.23,0,.47,0,.69a.58.58,0,0,1-1.1.3,6.19,6.19,0,0,1,5.74-8.48A6.12,6.12,0,0,1,739.16,355.08Z"/><path class="cls-23" d="M783.54,381.28c-2.91.34-6.5,4.5-9.87,14.88,0,3,1.71,22.19-4.35,30.81-1.31,13.57,3.75,46.76,5.44,60.68-34.21,28.3-78.9-2.91-80.19,2.77,1.66-13.72,4-50.1,2.78-63.5-6.77-9.25-6.38-31.16-6.38-31.16-3.34-10.08-6.87-14.14-9.75-14.48-7.13-.83,10.54-12.44,21.45-12.44h9c3,8,11.1,13.66,20.7,13.66s17.75-5.71,20.71-13.66h9C773,368.84,790.68,380.45,783.54,381.28Z"/><g class="cls-42"><rect class="cls-43" x="660.83" y="394.51" width="150.31" height="11.87"/><rect class="cls-43" x="660.83" y="411.88" width="150.31" height="11.87"/><rect class="cls-43" x="660.83" y="429" width="150.31" height="11.87"/><rect class="cls-43" x="660.83" y="446.12" width="150.31" height="11.87"/><rect class="cls-43" x="660.83" y="463.24" width="150.31" height="11.87"/><rect class="cls-43" x="660.83" y="480.36" width="150.31" height="11.87"/></g><path class="cls-1" d="M832.47,391.85,818.34,493.5s8.55,13.95,33.42,0c0,0,16.88,10.36,31.74,0,0,0,12.38,8.31,18.26,0L874.48,370.25Z"/><path class="cls-10" d="M815.43,370.57l24.71-7.31,24.71,7.31-4.74,6.68S841.38,363.1,819,376Z"/><path class="cls-11" d="M846.91,355.08a.58.58,0,0,1-.17,1.13h0a6.13,6.13,0,0,0-6.13,6.13,5.22,5.22,0,0,0,0,.69.58.58,0,0,1-1.1.3,6,6,0,0,1-.44-2.3,6.17,6.17,0,0,1,7.84-5.95Z"/><path class="cls-44" d="M814.26,371.9,800.14,473.55s8.54,13.95,33.41,0c0,0,16.88,10.36,31.74,0,0,0,12.38,8.32,18.26,0L867,371.9Z"/><g class="cls-45"><path class="cls-46" d="M792.65,375.41s49.54,45.35,98.39-3.51"/><path class="cls-46" d="M792.65,391s49.54,45.34,98.39-3.51"/><path class="cls-46" d="M792.65,406.64S842.19,452,891,403.14"/><path class="cls-46" d="M792.65,422.26s49.54,45.34,98.39-3.51"/></g><polygon class="cls-1" points="421.82 606.95 421.82 620.95 421.82 665.26 445.18 665.26 454.02 632.69 462.6 665.26 484.45 665.26 486.22 620.95 480.03 592.25 421.82 606.95"/><path class="cls-10" d="M411.31,592.57l32.2-7.31,32.2,7.31-6.17,6.68S445.13,585.1,416,598Z"/><path class="cls-11" d="M450.29,577.08a.58.58,0,0,1-.18,1.13h0a6.13,6.13,0,0,0-6.13,6.13c0,.23,0,.47,0,.69a.58.58,0,0,1-1.1.3,6,6,0,0,1-.44-2.3,6.18,6.18,0,0,1,6.17-6.18A6.25,6.25,0,0,1,450.29,577.08Z"/><polygon class="cls-47" points="411.31 592.25 411.31 606.25 411.31 650.56 434.67 650.56 443.51 617.99 452.08 650.56 473.94 650.56 475.71 606.25 475.71 592.25 411.31 592.25"/><path class="cls-48" d="M951.3,672.55v51.82H917.89a7,7,0,0,1-7-7V713a7.05,7.05,0,0,1,7-7H932.1V672.55Z"/><g class="cls-49"><rect class="cls-11" x="926.63" y="679.55" width="31.57" height="2.17"/><rect class="cls-11" x="926.63" y="683.56" width="31.57" height="2.17"/><rect class="cls-11" x="926.63" y="687.57" width="31.57" height="2.17"/><rect class="cls-11" x="926.63" y="691.57" width="31.57" height="2.17"/></g><path class="cls-48" d="M974.59,694.6v51.82H941.18a7.05,7.05,0,0,1-7-7v-4.31a7,7,0,0,1,7-7h14.21V694.6Z"/><g class="cls-50"><rect class="cls-11" x="949.92" y="701.6" width="31.57" height="2.17"/><rect class="cls-11" x="949.92" y="705.6" width="31.57" height="2.17"/><rect class="cls-11" x="949.92" y="709.61" width="31.57" height="2.17"/><rect class="cls-11" x="949.92" y="713.62" width="31.57" height="2.17"/></g><path class="cls-51" d="M433.43,731.85V751H421.62v-7.65s-26,9.56-37.46,7.31c0,0-13-1.76,7-9,15-5.4,20.25-12.34,20.25-12.34"/><path class="cls-51" d="M437.32,731.85V751h11.81v-7.65s26,9.56,37.46,7.31c0,0,13-1.76-7-9-15-5.4-21.28-11.68-21.28-11.68"/><path class="cls-5" d="M845.89,613.65c-3.21.38-7.17,5-10.89,16.4,0,3.29,1.89,24.46-4.79,34-1.45,15,4.13,51.55,6,66.9-37.71,31.2-87-3.21-88.4,3.06,1.82-15.14,4.46-55.25,3.06-70-7.46-10.2-7-34.36-7-34.36-3.69-11.11-7.57-15.59-10.74-16-7.87-.92,11.61-13.72,23.64-13.72h9.93c3.25,8.76,12.24,15.07,22.82,15.07s19.58-6.31,22.83-15.07h9.93C834.27,599.93,853.76,612.73,845.89,613.65Z"/><path class="cls-5" d="M860.83,722l-30.55-1.17V634.21s7.06-35.86,17.92-16.4Q857.22,672.25,860.83,722Z"/><path class="cls-10" d="M751.26,594.72l24.11-7.14,24.11,7.14-4.62,6.51A37.44,37.44,0,0,0,754.73,600Z"/><path class="cls-11" d="M782,579.61a.56.56,0,0,1-.17,1.1h0a6,6,0,0,0-6,6c0,.23,0,.45,0,.67a.56.56,0,0,1-1.08.29,6.16,6.16,0,0,1-.43-2.24,6,6,0,0,1,6-6A5.84,5.84,0,0,1,782,579.61Z"/><path class="cls-52" d="M713.78,709.86l30.55-1.17V622.12s-7.06-35.86-17.92-16.4Q717.4,660.16,713.78,709.86Z"/><path class="cls-52" d="M836.39,709.86l-30.56-1.17V622.12s7.07-35.86,17.92-16.4Q832.77,660.16,836.39,709.86Z"/><path class="cls-53" d="M825.29,605.17c-2.84.33-6.34,4.39-9.64,14.52,0,2.91,1.68,21.65-4.24,30.07-1.27,13.24,3.66,45.62,5.31,59.2-33.38,27.62-77-2.83-78.24,2.71,1.61-13.39,3.94-48.9,2.7-62-6.6-9-6.22-30.41-6.22-30.41-3.26-9.84-6.7-13.8-9.51-14.13-7-.81,10.29-12.14,20.93-12.14h8.79c2.88,7.76,10.83,13.33,20.2,13.33s17.32-5.57,20.21-13.33h8.78C815,593,832.25,604.36,825.29,605.17Z"/><g class="cls-54"><polygon class="cls-10" points="816.18 695.28 819.5 690.45 819.33 696.3 824.85 694.34 821.28 698.98 826.9 700.64 821.28 702.29 824.85 706.93 819.33 704.97 819.5 710.83 816.18 706 812.87 710.83 813.03 704.97 807.51 706.93 811.09 702.29 805.47 700.64 811.09 698.98 807.51 694.34 813.03 696.3 812.87 690.45 816.18 695.28"/><polygon class="cls-10" points="813.25 663.99 816.56 659.16 816.4 665.01 821.92 663.05 818.35 667.69 823.97 669.35 818.35 671 821.92 675.64 816.4 673.68 816.56 679.54 813.25 674.7 809.94 679.54 810.1 673.68 804.58 675.64 808.15 671 802.53 669.35 808.15 667.69 804.58 663.05 810.1 665.01 809.94 659.16 813.25 663.99"/><polygon class="cls-10" points="737.63 689.09 740.94 684.25 740.78 690.11 746.3 688.15 742.73 692.79 748.35 694.44 742.73 696.1 746.3 700.74 740.78 698.78 740.94 704.63 737.63 699.8 734.32 704.63 734.48 698.78 728.96 700.74 732.54 696.1 726.92 694.44 732.54 692.79 728.96 688.15 734.48 690.11 734.32 684.25 737.63 689.09"/><polygon class="cls-10" points="761.25 674.18 764.56 669.35 764.4 675.2 769.92 673.24 766.35 677.88 771.97 679.54 766.35 681.19 769.92 685.84 764.4 683.87 764.56 689.73 761.25 684.89 757.94 689.73 758.1 683.87 752.58 685.84 756.15 681.19 750.53 679.54 756.15 677.88 752.58 673.24 758.1 675.2 757.94 669.35 761.25 674.18"/><polygon class="cls-10" points="745.93 645.82 749.24 640.99 749.08 646.85 754.6 644.88 751.03 649.52 756.65 651.18 751.03 652.84 754.6 657.48 749.08 655.51 749.24 661.37 745.93 656.54 742.62 661.37 742.78 655.51 737.26 657.48 740.84 652.84 735.22 651.18 740.84 649.52 737.26 644.88 742.78 646.85 742.62 640.99 745.93 645.82"/><polygon class="cls-10" points="766.51 711.99 769.82 707.16 769.66 713.01 775.17 711.05 771.6 715.69 777.22 717.35 771.6 719 775.17 723.64 769.66 721.68 769.82 727.54 766.51 722.71 763.2 727.54 763.36 721.68 757.84 723.64 761.41 719 755.79 717.35 761.41 715.69 757.84 711.05 763.36 713.01 763.2 707.16 766.51 711.99"/><polygon class="cls-10" points="737.63 619.18 740.94 614.35 740.78 620.21 746.3 618.24 742.73 622.88 748.35 624.54 742.73 626.2 746.3 630.84 740.78 628.87 740.94 634.73 737.63 629.9 734.32 634.73 734.48 628.87 728.96 630.84 732.54 626.2 726.92 624.54 732.54 622.88 728.96 618.24 734.48 620.21 734.32 614.35 737.63 619.18"/><polygon class="cls-10" points="761.25 598.8 764.56 593.97 764.4 599.82 769.92 597.86 766.35 602.5 771.97 604.16 766.35 605.81 769.92 610.46 764.4 608.49 764.56 614.35 761.25 609.51 757.94 614.35 758.1 608.49 752.58 610.46 756.15 605.81 750.53 604.16 756.15 602.5 752.58 597.86 758.1 599.82 757.94 593.97 761.25 598.8"/><polygon class="cls-10" points="789.49 595.22 792.8 590.38 792.63 596.24 798.15 594.27 794.58 598.92 800.2 600.57 794.58 602.23 798.15 606.87 792.63 604.91 792.8 610.76 789.49 605.93 786.17 610.76 786.34 604.91 780.82 606.87 784.39 602.23 778.77 600.57 784.39 598.92 780.82 594.27 786.34 596.24 786.17 590.38 789.49 595.22"/><polygon class="cls-10" points="809.04 623.57 812.35 618.74 812.19 624.6 817.71 622.63 814.14 627.27 819.76 628.93 814.14 630.59 817.71 635.23 812.19 633.26 812.35 639.12 809.04 634.29 805.73 639.12 805.89 633.26 800.37 635.23 803.95 630.59 798.33 628.93 803.95 627.27 800.37 622.63 805.89 624.6 805.73 618.74 809.04 623.57"/><polygon class="cls-10" points="782.43 629.37 785.74 624.54 785.58 630.4 791.1 628.43 787.52 633.08 793.14 634.73 787.52 636.39 791.1 641.03 785.58 639.07 785.74 644.92 782.43 640.09 779.12 644.92 779.28 639.07 773.76 641.03 777.33 636.39 771.71 634.73 777.33 633.08 773.76 628.43 779.28 630.4 779.12 624.54 782.43 629.37"/></g><path class="cls-52" d="M775.37,606.36l7,114.36s-4.07-106.1,7.1-119.29"/><polygon class="cls-52" points="761.25 601.43 771.68 606.07 782.43 721.95 761.25 601.43"/><path class="cls-1" d="M981.6,463a232.22,232.22,0,0,1-.66-41.22c4.91-8.62,5-27.53,5-30.51,2.74-10.36,5.65-14.52,8-14.86,5.79-.83-8.55-12.43-17.39-12.43h-7.31c-2.39,7.94-9,13.65-16.79,13.65s-14.39-5.71-16.79-13.65h-7.3c-8.85,0-23.18,11.6-17.4,12.43,2.34.34,5.2,4.4,7.9,14.46,0,0-.31,21.89,5.18,31.13a234.54,234.54,0,0,1-.68,41L903.8,577s10.32,13.62,40.34,0c0,0,20.38,10.12,38.32,0,0,0,14.94,8.12,22,0Z"/><path class="cls-10" d="M906.14,365.72l24.11-7.14,24.11,7.14-4.62,6.51A37.45,37.45,0,0,0,909.61,371Z"/><path class="cls-11" d="M936.86,350.61a.56.56,0,0,1-.17,1.1h0a6,6,0,0,0-6,6,4.92,4.92,0,0,0,0,.67.56.56,0,0,1-1.08.29,6.16,6.16,0,0,1-.43-2.24,6,6,0,0,1,6-6A5.84,5.84,0,0,1,936.86,350.61Z"/><path class="cls-48" d="M959.36,462.72a232.22,232.22,0,0,1-.66-41.22c4.92-8.62,5-27.53,5-30.51,2.74-10.36,5.65-14.52,8-14.86,5.79-.83-8.55-12.43-17.39-12.43h-7.31c-2.39,7.94-9,13.65-16.79,13.65s-14.39-5.71-16.79-13.65h-7.3c-8.85,0-23.18,11.6-17.4,12.43,2.34.34,5.2,4.4,7.91,14.46,0,0-.32,21.89,5.17,31.13a234.54,234.54,0,0,1-.68,41l-19.61,114s10.32,13.62,40.34,0c0,0,20.38,10.12,38.32,0,0,0,14.94,8.12,22,0Z"/><g class="cls-55"><ellipse class="cls-56" cx="904.44" cy="423.12" rx="22.88" ry="7.33"/><ellipse class="cls-56" cx="948.12" cy="445.29" rx="22.88" ry="7.33"/><ellipse class="cls-56" cx="902.36" cy="465.91" rx="22.88" ry="7.33"/><ellipse class="cls-56" cx="964.61" cy="398.44" rx="22.88" ry="7.33"/><ellipse class="cls-56" cx="959.46" cy="496.07" rx="7.33" ry="22.88" transform="translate(4.47 1000.69) rotate(-55.19)"/><ellipse class="cls-56" cx="960.54" cy="541.79" rx="22.88" ry="7.33" transform="translate(-125.43 349.86) rotate(-19.4)"/><ellipse class="cls-56" cx="893.73" cy="506.26" rx="22.88" ry="7.33" transform="translate(-117.42 325.64) rotate(-19.4)"/></g><polygon class="cls-1" points="646.65 604.96 646.65 618.62 656.59 740.22 669.45 740.22 678.66 640.6 686.44 740.22 698.74 740.22 709.49 618.62 709.49 604.96 646.65 604.96"/><path class="cls-10" d="M632.72,593.72l31.42-7.14,31.42,7.14-6,6.51s-23.82-13.8-52.29-1.24Z"/><path class="cls-11" d="M670.75,578.61a.56.56,0,0,1-.17,1.1h0a6,6,0,0,0-6,6c0,.23,0,.45,0,.67a.56.56,0,0,1-1.08.29,6.16,6.16,0,0,1-.43-2.24,6,6,0,0,1,6-6A5.84,5.84,0,0,1,670.75,578.61Z"/><polygon class="cls-22" points="632.72 593.41 632.72 607.07 642.65 728.67 655.51 728.67 664.73 629.05 672.51 728.67 684.8 728.67 695.56 607.07 695.56 593.41 632.72 593.41"/></g></g></svg>