<svg xmlns="http://www.w3.org/2000/svg" xmlns:xlink="http://www.w3.org/1999/xlink" viewBox="0 0 468.54 496.5"><defs><style>.cls-1{fill:#562d00;}.cls-2{fill:none;}.cls-3{fill:#c27514;}.cls-4{fill:#643a00;}.cls-5{fill:#8a5213;}.cls-6{clip-path:url(#clip-path);}.cls-23,.cls-7{fill:#0054a6;}.cls-8{fill:#231f20;}.cls-9{fill:#bcbec0;}.cls-10{fill:#e2cf91;}.cls-11{fill:#fffef9;}.cls-12{fill:#fdc581;}.cls-13{fill:#a2a2c9;}.cls-14{clip-path:url(#clip-path-2);}.cls-15{fill:#00a881;stroke:#f37443;stroke-width:0.48px;}.cls-15,.cls-23{stroke-miterlimit:10;}.cls-16{fill:#e06a4d;}.cls-17{fill:#fff;}.cls-18{fill:#d8dcec;}.cls-19{fill:#00b262;}.cls-20{clip-path:url(#clip-path-3);}.cls-21{fill:#00793a;}.cls-22{fill:#7bafde;}.cls-23{stroke:#7bafde;stroke-width:0.52px;}</style><clipPath id="clip-path"><path class="cls-1" d="M362.8,106.66h-8.86C351,114.19,343,119.6,333.58,119.6s-17.45-5.41-20.36-12.94h-8.85c-10.72,0-28.1,11-21.09,11.79,3,.33,6.61,4.51,10,15V227.8h80.56V133.46c3.41-10.5,7.07-14.68,10-15C390.9,117.65,373.52,106.66,362.8,106.66Z"/></clipPath><clipPath id="clip-path-2"><polyline class="cls-2" points="89.25 114.47 96.55 216.21 82.1 231.34 72.27 216.73 77.77 114.47"/></clipPath><clipPath id="clip-path-3"><path class="cls-2" d="M344,92.91h-8.86c-2.9,7.52-10.92,12.94-20.35,12.94s-17.46-5.42-20.36-12.94h-8.86c-10.72,0-28.1,11-21.08,11.78,2.95.33,6.61,4.51,10,15V214h80.57V119.71c3.4-10.51,7.06-14.69,10-15C372.11,103.9,354.73,92.91,344,92.91Z"/></clipPath></defs><g id="Layer_2" data-name="Layer 2"><g id="Glavno_Besedilo" data-name="Glavno Besedilo"><rect class="cls-3" width="421.53" height="489.46"/><rect class="cls-4" x="12.04" y="14.64" width="397.45" height="460.18"/><rect class="cls-5" x="11.03" y="14.64" width="205.57" height="460.18"/><polygon class="cls-4" points="82.93 95.46 102.58 96.51 102.58 114.47 82.93 114.47 82.93 95.46"/><polyline class="cls-4" points="97.59 114.47 104.9 216.21 90.44 231.34 80.62 216.73 86.11 114.47"/><path class="cls-1" d="M242.23,206.16l-24.51-1.07V126.22s5.67-32.68,14.38-14.94Q239.33,160.87,242.23,206.16Z"/><path class="cls-1" d="M129.21,206.16l24.51-1.07V126.22s-5.67-32.68-14.38-14.94Q132.11,160.87,129.21,206.16Z"/><path class="cls-1" d="M212.62,99.88h-8.16c-2.67,6.93-10.05,11.91-18.74,11.91s-16.07-5-18.75-11.91h-8.15C149,99.88,133,110,139.41,110.72c2.72.31,6.08,4.16,9.22,13.83v86.86h74.18V124.55c3.13-9.67,6.5-13.52,9.22-13.83C238.49,110,222.49,99.88,212.62,99.88Z"/><line class="cls-1" x1="185.72" y1="211.41" x2="185.72" y2="111.79"/><rect class="cls-1" x="148.63" y="211.41" width="74.11" height="25.03"/><polygon class="cls-1" points="185.72 236.44 173.46 350.57 159.45 350.57 148.63 236.44 185.72 236.44"/><polygon class="cls-1" points="222.74 236.44 210.55 350.57 196.62 350.57 185.85 236.44 222.74 236.44"/><circle class="cls-1" cx="191.93" cy="130.13" r="1.87"/><circle class="cls-1" cx="179.69" cy="130.13" r="1.87"/><circle class="cls-1" cx="191.93" cy="144.22" r="1.87"/><circle class="cls-1" cx="179.69" cy="144.22" r="1.87"/><circle class="cls-1" cx="191.93" cy="158.31" r="1.87"/><circle class="cls-1" cx="179.69" cy="158.31" r="1.87"/><circle class="cls-1" cx="191.93" cy="172.4" r="1.87"/><circle class="cls-1" cx="179.69" cy="172.4" r="1.87"/><circle class="cls-1" cx="191.93" cy="186.5" r="1.87"/><circle class="cls-1" cx="179.69" cy="186.5" r="1.87"/><path class="cls-1" d="M202.1,104.06C186.34,118.6,185.69,139,185.69,139c0-17.77-14.64-33-14.64-33C180.79,114.13,191.11,114,202.1,104.06Z"/><path class="cls-1" d="M395,222.1l-26.62-1.17V135.27s6.15-35.48,15.61-16.22Q391.81,172.92,395,222.1Z"/><path class="cls-1" d="M272.21,222.1l26.61-1.17V135.27s-6.15-35.48-15.61-16.22Q275.37,172.92,272.21,222.1Z"/><path class="cls-1" d="M362.8,106.66h-8.86C351,114.19,343,119.6,333.58,119.6s-17.45-5.41-20.36-12.94h-8.85c-10.72,0-28.1,11-21.09,11.79,3,.33,6.61,4.51,10,15V227.8h80.56V133.46c3.41-10.5,7.07-14.68,10-15C390.9,117.65,373.52,106.66,362.8,106.66Z"/><path class="cls-1" d="M362.8,106.66h-8.86C351,114.19,343,119.6,333.58,119.6s-17.45-5.41-20.36-12.94h-8.85c-10.72,0-28.1,11-21.09,11.79,3,.33,6.61,4.51,10,15V227.8h80.56V133.46c3.41-10.5,7.07-14.68,10-15C390.9,117.65,373.52,106.66,362.8,106.66Z"/><g class="cls-6"><rect class="cls-1" x="270.78" y="136.85" width="122.75" height="21.91"/><rect class="cls-1" x="270.78" y="167.23" width="122.75" height="21.91"/></g><polygon class="cls-7" points="274.88 214.04 274.88 231.44 287.53 386.33 303.91 386.33 315.65 259.44 325.56 386.33 341.22 386.33 354.92 231.44 354.92 214.04 274.88 214.04"/><polygon class="cls-3" points="421.53 0 468.54 0 468.54 474.82 409.49 474.82 409.49 0 421.53 0"/><rect class="cls-8" x="13.3" y="489.46" width="24" height="7.04"/><rect class="cls-8" x="379.63" y="489.46" width="24" height="7.04"/><rect class="cls-9" x="12.04" y="79.92" width="397.45" height="2.09"/><path class="cls-10" d="M58.34,94.67l25.73-7.62,25.73,7.62-4.93,7s-19.5-14.73-42.82-1.32Z"/><path class="cls-11" d="M91.13,78.54a.6.6,0,0,1-.19,1.18h0a6.38,6.38,0,0,0-6.38,6.38c0,.24,0,.48,0,.72a.6.6,0,0,1-1.15.31A6.55,6.55,0,0,1,83,84.74a6.43,6.43,0,0,1,6.43-6.44A6.7,6.7,0,0,1,91.13,78.54Z"/><path class="cls-10" d="M280,94.67l33.53-7.62,33.52,7.62-6.42,7s-25.41-14.73-55.8-1.32Z"/><path class="cls-11" d="M320.62,78.54a.6.6,0,0,1-.18,1.18h0A6.38,6.38,0,0,0,314,86.1a5.79,5.79,0,0,0,0,.72.6.6,0,0,1-1.15.31,6.36,6.36,0,0,1-.46-2.39,6.43,6.43,0,0,1,6.43-6.44A6.59,6.59,0,0,1,320.62,78.54Z"/><circle class="cls-8" cx="447.62" cy="237.41" r="14.09"/><path class="cls-10" d="M152.5,94.67l25.73-7.62L204,94.67l-4.93,7s-19.5-14.73-42.82-1.32Z"/><path class="cls-11" d="M185.29,78.54a.6.6,0,0,1-.19,1.18h0a6.38,6.38,0,0,0-6.38,6.38c0,.24,0,.48,0,.72a.6.6,0,0,1-1.15.31,6.56,6.56,0,0,1-.46-2.39,6.44,6.44,0,0,1,6.44-6.44A6.7,6.7,0,0,1,185.29,78.54Z"/><polygon class="cls-12" points="74.58 95.46 94.24 96.51 94.24 114.47 74.58 114.47 74.58 95.46"/><polyline class="cls-13" points="89.25 114.47 96.55 216.21 82.1 231.34 72.27 216.73 77.77 114.47"/><g class="cls-14"><rect class="cls-12" x="66.83" y="122.82" width="38.87" height="2.87"/><rect class="cls-12" x="66.83" y="136.65" width="38.87" height="2.87"/><rect class="cls-12" x="66.83" y="150.47" width="38.87" height="2.87"/><rect class="cls-12" x="66.83" y="164.3" width="38.87" height="2.87"/><rect class="cls-12" x="66.83" y="178.12" width="38.87" height="2.87"/><rect class="cls-12" x="66.83" y="191.95" width="38.87" height="2.87"/><rect class="cls-12" x="66.83" y="205.77" width="38.87" height="2.87"/></g><path class="cls-8" d="M233.63,200.62l-24.51-1.07V120.68s5.66-32.67,14.37-14.94Q230.72,155.33,233.63,200.62Z"/><path class="cls-8" d="M120.6,200.62l24.51-1.07V120.68S139.45,88,130.74,105.74Q123.49,155.33,120.6,200.62Z"/><path class="cls-8" d="M204,94.34h-8.15c-2.68,6.93-10.06,11.91-18.75,11.91s-16.07-5-18.74-11.91h-8.15c-9.88,0-25.88,10.12-19.42,10.85,2.72.3,6.09,4.15,9.23,13.82v86.87H214.2V119c3.14-9.67,6.51-13.52,9.23-13.82C229.89,104.46,213.89,94.34,204,94.34Z"/><line class="cls-15" x1="177.11" y1="205.88" x2="177.11" y2="106.25"/><rect class="cls-8" x="140.03" y="205.88" width="74.11" height="25.03"/><polygon class="cls-8" points="177.12 230.9 164.86 345.04 150.85 345.04 140.03 230.9 177.12 230.9"/><polygon class="cls-8" points="214.14 230.9 201.95 345.04 188.01 345.04 177.25 230.9 214.14 230.9"/><circle class="cls-16" cx="183.33" cy="124.59" r="1.87"/><circle class="cls-16" cx="171.09" cy="124.59" r="1.87"/><circle class="cls-16" cx="183.33" cy="138.68" r="1.87"/><circle class="cls-16" cx="171.09" cy="138.68" r="1.87"/><circle class="cls-16" cx="183.33" cy="152.77" r="1.87"/><circle class="cls-16" cx="171.09" cy="152.77" r="1.87"/><circle class="cls-16" cx="183.33" cy="166.87" r="1.87"/><circle class="cls-16" cx="171.09" cy="166.87" r="1.87"/><circle class="cls-16" cx="183.33" cy="180.96" r="1.87"/><circle class="cls-16" cx="171.09" cy="180.96" r="1.87"/><path class="cls-17" d="M193.5,98.52c-15.76,14.54-16.42,34.94-16.42,34.94,0-17.77-14.63-33-14.63-33C172.19,108.59,182.5,108.49,193.5,98.52Z"/><path class="cls-18" d="M376.17,208.34l-26.62-1.16V121.51s6.16-35.48,15.61-16.22Q373,159.15,376.17,208.34Z"/><path class="cls-18" d="M253.42,208.34,280,207.18V121.51S273.88,86,264.43,105.29Q256.57,159.15,253.42,208.34Z"/><path class="cls-19" d="M344,92.91h-8.86c-2.9,7.52-10.92,12.94-20.35,12.94s-17.46-5.42-20.36-12.94h-8.86c-10.72,0-28.1,11-21.08,11.78,2.95.33,6.61,4.51,10,15V214h80.57V119.71c3.4-10.51,7.06-14.69,10-15C372.11,103.9,354.73,92.91,344,92.91Z"/><g class="cls-20"><rect class="cls-21" x="251.99" y="123.09" width="122.75" height="21.91"/><rect class="cls-17" x="251.99" y="153.48" width="122.75" height="21.91"/></g><polygon class="cls-22" points="354.92 222.09 298.82 222.09 274.88 222.09 274.88 214.04 354.92 214.04 354.92 222.09"/><rect class="cls-22" x="312.63" y="219.75" width="4.34" height="10.54"/><path class="cls-23" d="M329.27,222.1s9.3,42.28,24.47,22.63"/><path class="cls-23" d="M296.4,222.1s-4.52,43.72-19.86,29.61"/></g></g></svg>