<svg xmlns="http://www.w3.org/2000/svg" xmlns:xlink="http://www.w3.org/1999/xlink" viewBox="0 0 223.67 388.1"><defs><style>.cls-1,.cls-12{fill:none;stroke-miterlimit:10;}.cls-1{stroke:#c4463a;stroke-width:5.67px;}.cls-2{clip-path:url(#clip-path);}.cls-3{fill:#fbc5aa;}.cls-4{fill:#d8dcec;}.cls-5{fill:#c4463a;}.cls-6{fill:#eed1bf;}.cls-7{fill:#fff;}.cls-8{fill:#514835;}.cls-9{fill:#cabcdc;}.cls-10{fill:#ebaf89;}.cls-11{fill:#c1c0db;}.cls-12{stroke:#231f20;stroke-width:0.63px;}.cls-13{fill:#200600;}.cls-14{fill:#d55227;}</style><clipPath id="clip-path"><circle class="cls-1" cx="111.83" cy="111.83" r="109"/></clipPath></defs><g id="Layer_2" data-name="Layer 2"><g id="Avatar"><g class="cls-2"><path id="Vrat" class="cls-3" d="M149.83,181.31c-5.1,12.81-18.42,22-34.07,22-15.37,0-28.5-8.84-33.8-21.31,4-1.14,12.58-5.35,13.09-20.48h35.3S133.59,185.26,149.83,181.31Z"/><path class="cls-4" d="M11.07,371.49l51.93-2V230.05s-12-61-30.45-27.87C22.33,263.87,15.23,315.1,11.07,371.49Z"/><path class="cls-4" d="M219.49,371.49l-51.93-2V230.05s12-61,30.45-27.87C208.23,263.87,215.33,315.1,219.49,371.49Z"/><path id="Majica" class="cls-5" d="M200.62,201.24c-4.83.58-10.78,7.47-16.38,24.68,0,5,2.85,29.09-7.21,43.4-2.17,22.51,5.85,74.46,8.65,97.55-56.74,46.95-129,1.63-132.81,0,2.74-22.76,6.89-75.42,4.78-97.64-11.22-15.34-10.58-44-10.58-44-5.54-16.71-11.39-23.45-16.16-24-11.84-1.38,17.48-20.63,35.57-20.63H81.42q.26.69.54,1.35c5.3,12.47,18.43,21.31,33.8,21.31,15.65,0,29-9.15,34.07-22,.1-.23.19-.47.28-.7h14.94C183.14,180.61,212.46,199.86,200.62,201.24Z"/><path id="Koza" class="cls-6" d="M109.23,44.94h8.2a37.7,37.7,0,0,1,37.7,37.7V132.7a41.8,41.8,0,0,1-41.8,41.8h0a41.8,41.8,0,0,1-41.8-41.8V82.64a37.7,37.7,0,0,1,37.7-37.7Z"/><path class="cls-7" d="M101.78,105.3c.09-8-22.94-8.35-23-.3C78.67,112.27,101.7,112.57,101.78,105.3Z"/><path class="cls-7" d="M148.06,105.3c.09-8-22.93-8.35-23-.3C125,112.27,148,112.57,148.06,105.3Z"/><ellipse class="cls-8" cx="89.55" cy="104.86" rx="3.81" ry="4.14"/><ellipse class="cls-8" cx="136.55" cy="104.86" rx="3.81" ry="4.14"/><path id="Oci" class="cls-9" d="M77.32,105.47s9.78-10.67,27.09,0C104.41,105.47,89.36,87.4,77.32,105.47Z"/><path id="Oci-2" data-name="Oci" class="cls-9" d="M123.43,105.47s9.78-10.67,27.09,0C150.52,105.47,135.47,87.4,123.43,105.47Z"/><g id="Nos"><path class="cls-10" d="M115.44,132.7a25.86,25.86,0,0,1-8.42-1.91l.46-1.11c2.44,1,9.25,3.13,11.48.7.32-.83-.91-7.55-1.9-12.95-2.1-11.49-2.61-15.2-1.7-16a.81.81,0,0,1,.77-.2l-.3,1.16a.35.35,0,0,0,.38-.13c-.53,1,1,9.09,2,15,1.86,10.15,2.29,13.22,1.6,14A5.81,5.81,0,0,1,115.44,132.7Z"/></g><path id="Obrve" class="cls-11" d="M105.12,96.07c-16.86-9.24-24.66-.3-24.74-.21l-1.33-1.12c.35-.41,8.81-10.12,26.91-.2Z"/><path id="Obrve-2" data-name="Obrve" class="cls-11" d="M150.1,97.24C133.24,88,125.44,97,125.36,97L124,95.92c.35-.42,8.81-10.12,26.91-.2Z"/><g id="ocala"><rect class="cls-12" x="122.82" y="96.48" width="28.9" height="19.11" rx="8.59"/><rect class="cls-12" x="77.13" y="96.48" width="28.9" height="19.11" rx="8.59"/><path class="cls-12" d="M106,106.64s10.1-8.28,16.79,0"/><line class="cls-12" x1="71.53" y1="99.4" x2="77.13" y2="105.43"/><line class="cls-12" x1="155.12" y1="98.64" x2="151.72" y2="106.03"/></g><path id="Koza-2" data-name="Koza" class="cls-6" d="M154.42,98.22s10.48-3.18,7.43,13.86-7.43,27.6-7.43,27.6Z"/><path id="Koza-3" data-name="Koza" class="cls-6" d="M71.93,99.07s-10.48-3.19-7.43,13.86,7.43,27.6,7.43,27.6Z"/><ellipse id="Uhani" class="cls-5" cx="71.53" cy="138.01" rx="3.31" ry="3.59"/><ellipse id="Uhani-2" data-name="Uhani" class="cls-5" cx="156.72" cy="137.88" rx="3.31" ry="3.59"/><path class="cls-13" d="M132,143.92a15.24,15.24,0,0,1-6.56,8.15c-1.24-5.12-23.8-3.13-23.88-3.13a19.27,19.27,0,0,1-3.44-5A86.89,86.89,0,0,0,132,143.92Z"/><path class="cls-14" d="M125.47,152.07h0a19.32,19.32,0,0,1-9.33,2.69,18.06,18.06,0,0,1-14.55-5.82C101.67,148.94,124.23,147,125.47,152.07Z"/><polygon class="cls-13" points="101.59 148.94 101.59 148.94 101.59 148.94 101.59 148.94"/><path id="Lasje1" class="cls-11" d="M70.09,114.9c.25-2.32.57-4.69,1-7.06a45.6,45.6,0,0,1,5.45-18.13,32.65,32.65,0,0,1,3.48-5c2.28-1.57,4.06-5.13,6.6-5.92A24.32,24.32,0,0,1,90.79,77a29.53,29.53,0,0,1,4.35-1,92.8,92.8,0,0,1,10.91.34A28.5,28.5,0,0,1,116,79.15c1.56.46,3.13.92,4.69,1.34a42.1,42.1,0,0,1,5.82-.86,38.08,38.08,0,0,1,5.85,0,16.11,16.11,0,0,1,3,.08,15.05,15.05,0,0,1,2.85.61c4.3,1,6.08,4.55,9.36,6.64.64.77,1.24,1.58,1.82,2.42S150.53,91.1,151,92a42.19,42.19,0,0,1,2.61,5.58,44.56,44.56,0,0,1,1.74,5.66c.53,1.11,1.58,1.11,2.63,1.67,0-1.23.14-2.45.27-3.67s.31-2.43.51-3.63c7.41-7.4,15.49-16.29,14.74-28.06a16.76,16.76,0,0,0-.69-3.15,16.35,16.35,0,0,0-1.35-3.13,31.94,31.94,0,0,0-1.78-2.94c-3.27-4.82-7.85-9.18-12.24-13A27.91,27.91,0,0,1,156.06,44a22.94,22.94,0,0,0-1.4-2.29A24,24,0,0,0,153,39.6a21.37,21.37,0,0,0-2.6-2.43,33.65,33.65,0,0,0-11.88-4.56c-1.08-.2-2.16-.36-3.25-.48-8.7-1.47-17.56,3-26.61,1.77-1-.21-2-.45-3-.71s-2-.53-3-.82a24.22,24.22,0,0,0-26.85,4,31.55,31.55,0,0,0-2.35,2.27A29.71,29.71,0,0,0,67,50c-.59.95-1.21,1.9-1.82,2.86-.58.47-1.17.92-1.76,1.38a70.44,70.44,0,0,1-7.48,5,14.35,14.35,0,0,0-2,2.82,24.35,24.35,0,0,0-1.46,3.27c-.37,1-.71,2.09-1,3.16-2.33,8.57-2,17.84,5,24.31.78.77,1.56,1.51,2.36,2.24,3.93,3.66,8,7.18,8.55,12.53.45,1.56.89,3.09,1.34,4.6C69.49,113.91,70.09,114.9,70.09,114.9Z"/></g><circle class="cls-1" cx="111.83" cy="111.83" r="109"/></g></g></svg>