<svg xmlns="http://www.w3.org/2000/svg" xmlns:xlink="http://www.w3.org/1999/xlink" viewBox="0 0 277.84 713.37"><defs><style>.cls-1,.cls-19,.cls-20,.cls-7{fill:none;stroke-miterlimit:10;}.cls-1{stroke:#00a881;stroke-width:5.67px;}.cls-2{clip-path:url(#clip-path);}.cls-3{fill:#fcc5aa;}.cls-4{fill:#dce6e0;}.cls-5{fill:#d9dceb;}.cls-6{fill:#00a881;}.cls-7{stroke:#499086;stroke-width:0.95px;}.cls-8{fill:#017dad;}.cls-9{fill:#eed1bf;}.cls-10{fill:#44515d;}.cls-11{fill:#499086;}.cls-12{fill:#ffebc6;}.cls-13{fill:#fff;}.cls-14{fill:#524935;}.cls-15{fill:#ebaf88;}.cls-16{fill:#ffe6b4;}.cls-17{fill:#301812;}.cls-18{fill:#d55227;}.cls-19,.cls-20{stroke:#231f20;}.cls-19{stroke-width:0.62px;}.cls-20{stroke-width:0.56px;}</style><clipPath id="clip-path" transform="translate(32.26)"><circle id="Krog" class="cls-1" cx="111.83" cy="111.83" r="109"/></clipPath></defs><g id="Layer_2" data-name="Layer 2"><g id="Layer_1-2" data-name="Layer 1"><g class="cls-2"><path id="Vrat" class="cls-3" d="M151.77,176.92l-.21.53c-5.49,13.54-20,23.2-37.1,23.2-17.29,0-32-9.91-37.3-23.71H77a18.31,18.31,0,0,0,12.53-7.4,18,18,0,0,0,2-3.72A25.58,25.58,0,0,0,93.36,157h38.38a36.91,36.91,0,0,0,1.89,8.82c1.18,3.37,3.09,6.95,6.14,9.24C142.61,177.21,146.6,178.22,151.77,176.92Z" transform="translate(32.26)"/><ellipse class="cls-4" cx="138.92" cy="697.54" rx="138.92" ry="15.83"/><path class="cls-5" d="M226.92,388.44l-48.77-2.13V229.36s11.27-65,28.6-29.74Q221.15,298.34,226.92,388.44Z" transform="translate(32.26)"/><path class="cls-5" d="M2,388.44l48.78-2.13V229.36s-11.28-65-28.61-29.74Q7.79,298.34,2,388.44Z" transform="translate(32.26)"/><path id="Pulover" class="cls-6" d="M206.63,198.5l-.41.06c-5.35.94-11.87,8.69-17.95,27.46V398.87H40.66V226c-6.09-18.77-12.6-26.52-17.95-27.46l-.41-.06c-12.85-1.45,19-21.59,38.64-21.59H77.16c5.33,13.8,20,23.71,37.3,23.71,17.08,0,31.61-9.66,37.1-23.2.08-.17.14-.34.21-.51H168C187.64,176.91,219.48,197.05,206.63,198.5Z" transform="translate(32.26)"/><line id="Zadrga" class="cls-7" x1="146.73" y1="398.9" x2="146.73" y2="200.65"/><polygon id="Hlace" class="cls-8" points="220.4 398.89 220.4 448.7 197.23 665.61 168.41 675.83 146.99 448.7 146.73 448.7 122.34 675.83 122.23 675.83 93.48 665.63 72.92 448.7 72.92 398.89 220.4 398.89"/><path id="Koza" class="cls-9" d="M16.34,387.78s-5.53,43.56,24.32,47.93v-49Z" transform="translate(32.26)"/><path id="Koza-2" data-name="Koza" class="cls-9" d="M212.46,387.84s5.53,43.56-24.32,47.93v-49Z" transform="translate(32.26)"/><path class="cls-10" d="M208.23,697.38H136.15V675.83L165,665.61s0,0,0,.08c-1.25,12.27,9.29,14.13,9.29,14.13C217.74,675.78,208.23,697.38,208.23,697.38Z" transform="translate(32.26)"/><path class="cls-10" d="M90,675.83v21.55H17.89s-9.51-21.6,34-17.56c0,0,10.59-1.87,9.27-14.21l.08,0Z" transform="translate(32.26)"/><circle id="Gumb" class="cls-11" cx="159.1" cy="237.15" r="3.72"/><circle id="Gumb-2" data-name="Gumb" class="cls-11" cx="134.74" cy="237.15" r="3.72"/><circle id="Gumb-3" data-name="Gumb" class="cls-11" cx="159.1" cy="265.19" r="3.72"/><circle id="Gumb-4" data-name="Gumb" class="cls-11" cx="134.74" cy="265.19" r="3.72"/><circle id="Gumb-5" data-name="Gumb" class="cls-11" cx="159.1" cy="293.23" r="3.72"/><circle id="Gumb-6" data-name="Gumb" class="cls-11" cx="134.74" cy="293.23" r="3.72"/><circle id="Gumb-7" data-name="Gumb" class="cls-11" cx="159.1" cy="321.27" r="3.72"/><circle id="Gumb-8" data-name="Gumb" class="cls-11" cx="134.74" cy="321.27" r="3.72"/><circle id="Gumb-9" data-name="Gumb" class="cls-11" cx="159.1" cy="349.31" r="3.72"/><circle id="Gumb-10" data-name="Gumb" class="cls-11" cx="134.74" cy="349.31" r="3.72"/><path id="Koza-3" data-name="Koza" class="cls-9" d="M166.66,102.73a133.55,133.55,0,0,1-7.42,25.57,49.25,49.25,0,0,1-97.41-1.91,155.45,155.45,0,0,1-6.64-24.12C52.73,89.6,58.3,88,61.42,88V85.1a44.43,44.43,0,0,1,44.43-44.43h9.66A44.43,44.43,0,0,1,159.94,85.1v4.42C162.43,89.22,169.22,89.53,166.66,102.73Z" transform="translate(32.26)"/><path id="Brki" class="cls-12" d="M122.42,127.31s18.2,4.36,15.57,23.41-24,18.57-24,18.57-25.42,1.47-26-18.57,12.57-22.49,15.66-23.41Z" transform="translate(32.26)"/><path class="cls-13" d="M100,96.34c.09-7.57-23.45-7.86-23.54-.28C76.41,102.9,100,103.19,100,96.34Z" transform="translate(32.26)"/><path class="cls-13" d="M147.34,96.34c.1-7.57-23.44-7.86-23.54-.28C123.72,102.9,147.26,103.19,147.34,96.34Z" transform="translate(32.26)"/><circle class="cls-14" cx="119.79" cy="95.93" r="3.89"/><circle class="cls-14" cx="167.84" cy="95.93" r="3.89"/><path id="Oci" class="cls-15" d="M75,96.5s10-10,27.69,0C102.72,96.5,87.33,79.49,75,96.5Z" transform="translate(32.26)"/><path id="Oci-2" data-name="Oci" class="cls-15" d="M122.16,96.5s10-10,27.7,0C149.86,96.5,134.47,79.49,122.16,96.5Z" transform="translate(32.26)"/><path class="cls-9" d="M114.17,93l-.4,1.56C113.75,93.51,113.87,92.93,114.17,93Z" transform="translate(32.26)"/><path id="Nos" class="cls-15" d="M113.71,125.73a19.72,19.72,0,0,1-7.44-2l.52-1c2.11,1.06,8,3.27,9.91.75.32-.85-.76-8-1.64-13.83-1.86-12.28-2.3-16.22-1.43-17a.73.73,0,0,1,.72-.15l-.35,1.1a.4.4,0,0,0,.44-.15c-.5,1,.81,9.67,1.76,16,1.62,10.7,2,13.93,1.42,14.7A4.66,4.66,0,0,1,113.71,125.73Z" transform="translate(32.26)"/><g id="obrve"><path class="cls-16" d="M103.23,88.22c-16.77-8.47-24.38-.65-24.69-.31l-2.13-2c.37-.41,9.28-9.83,28.12-.32Z" transform="translate(32.26)"/></g><g id="Obrve-2" data-name="Obrve"><g id="Obrve-3" data-name="Obrve"><path id="Obrve-4" data-name="Obrve" class="cls-16" d="M149.21,89.32c-16.9-8.53-24.61-.4-24.69-.31l-2.13-2c.37-.4,9.28-9.82,28.12-.31Z" transform="translate(32.26)"/></g></g><path class="cls-17" d="M130.8,133.76a21.55,21.55,0,0,1-7.34,10.91c-1.39-6.86-26.65-4.2-26.74-4.18a32,32,0,0,1-3.86-6.73Z" transform="translate(32.26)"/><path class="cls-18" d="M123.46,144.67h0A19.11,19.11,0,0,1,113,148.28c-7.92.46-13.15-3.78-16.29-7.79C96.81,140.47,122.07,137.81,123.46,144.67Z" transform="translate(32.26)"/><polygon class="cls-17" points="128.98 140.49 128.99 140.49 128.98 140.49 128.98 140.49"/><polygon class="cls-13" points="125.13 133.76 126.21 136.15 162.25 136.15 163.07 133.76 125.13 133.76"/><g id="ocala"><path class="cls-19" d="M104.52,97.07s10.32-7.8,17.16,0" transform="translate(32.26)"/><line class="cls-19" x1="96.49" y1="90.25" x2="107.24" y2="95.92"/><line class="cls-19" x1="194.23" y1="90.02" x2="183.48" y2="96.49"/><circle class="cls-20" cx="122.01" cy="97.07" r="14.77"/><circle class="cls-20" cx="168.71" cy="97.07" r="14.77"/></g><path id="Lasje" class="cls-12" d="M62.44,102.65s-7.43-23.06,0-38,5.64-19.09,46.17-28.05S161,64,161,64c-2.92-9.1-16.9-7.34-16.9-7.34s4.7,5.28-8.22,4.84S122.26,50.67,93.65,53.6,69.39,99.39,69.39,99.39Z" transform="translate(32.26)"/></g><circle id="Krog-2" data-name="Krog" class="cls-1" cx="144.1" cy="111.83" r="109"/></g></g></svg>