<svg xmlns="http://www.w3.org/2000/svg" xmlns:xlink="http://www.w3.org/1999/xlink" viewBox="0 0 277.84 716.12"><defs><style>.cls-1,.cls-19,.cls-20,.cls-7{fill:none;stroke-miterlimit:10;}.cls-1{stroke:#00a881;stroke-width:5.67px;}.cls-2{clip-path:url(#clip-path);}.cls-3{fill:#fcc5aa;}.cls-4{fill:#dce6e0;}.cls-5{fill:#d9dceb;}.cls-6{fill:#00a881;}.cls-7{stroke:#499086;stroke-width:0.95px;}.cls-8{fill:#017dad;}.cls-9{fill:#eed1bf;}.cls-10{fill:#44515d;}.cls-11{fill:#499086;}.cls-12{fill:#fff;}.cls-13{fill:#524935;}.cls-14{fill:#ebaf88;}.cls-15{fill:#ffebc6;}.cls-16{fill:#ffe6b4;}.cls-17{fill:#301812;}.cls-18{fill:#d55227;}.cls-19,.cls-20{stroke:#231f20;}.cls-19{stroke-width:0.62px;}.cls-20{stroke-width:0.56px;}</style><clipPath id="clip-path" transform="translate(31.34)"><circle id="Krog" class="cls-1" cx="111.83" cy="111.83" r="109"/></clipPath></defs><g id="Layer_2" data-name="Layer 2"><g id="Layer_1-2" data-name="Layer 1"><g class="cls-2"><path id="Vrat" class="cls-3" d="M152.69,179.67l-.21.53c-5.49,13.54-20,23.2-37.1,23.2-17.29,0-32-9.91-37.3-23.71h-.15a18.31,18.31,0,0,0,12.53-7.4,18,18,0,0,0,2-3.72,25.58,25.58,0,0,0,1.79-8.83h38.38a36.91,36.91,0,0,0,1.89,8.82c1.18,3.37,3.09,6.95,6.14,9.24C143.53,180,147.52,181,152.69,179.67Z" transform="translate(31.34)"/><ellipse class="cls-4" cx="138.92" cy="700.29" rx="138.92" ry="15.83"/><path class="cls-5" d="M227.85,391.19l-48.77-2.12v-157s11.27-65,28.6-29.73Q222.07,301.08,227.85,391.19Z" transform="translate(31.34)"/><path class="cls-5" d="M2.93,391.19l48.77-2.12v-157s-11.27-65-28.6-29.73Q8.7,301.08,2.93,391.19Z" transform="translate(31.34)"/><path id="Pulover" class="cls-6" d="M207.55,201.26l-.41.06c-5.35.94-11.87,8.69-17.95,27.46V401.63H41.58V228.78C35.49,210,29,202.26,23.63,201.32l-.41-.06c-12.85-1.45,19-21.59,38.64-21.59H78.08c5.33,13.8,20,23.71,37.3,23.71,17.08,0,31.61-9.66,37.1-23.2.08-.17.14-.34.21-.51h16.22C188.56,179.67,220.4,199.81,207.55,201.26Z" transform="translate(31.34)"/><line id="Zadrga" class="cls-7" x1="146.73" y1="401.65" x2="146.73" y2="203.4"/><polygon id="Hlace" class="cls-8" points="220.4 401.65 220.4 451.46 197.23 668.36 168.41 678.58 146.99 451.46 146.73 451.46 122.34 678.58 122.23 678.58 93.48 668.39 72.92 451.46 72.92 401.65 220.4 401.65"/><path id="Koza" class="cls-9" d="M17.26,390.53s-5.52,43.56,24.32,47.94v-49Z" transform="translate(31.34)"/><path id="Koza-2" data-name="Koza" class="cls-9" d="M213.39,390.59s5.52,43.56-24.32,47.94v-49Z" transform="translate(31.34)"/><path class="cls-10" d="M209.15,700.13H137.07V678.58l28.82-10.22s0,0,0,.08c-1.25,12.27,9.29,14.13,9.29,14.13C218.66,678.53,209.15,700.13,209.15,700.13Z" transform="translate(31.34)"/><path class="cls-10" d="M90.89,678.58v21.55H18.81s-9.51-21.6,34-17.56c0,0,10.59-1.87,9.27-14.21l.08,0Z" transform="translate(31.34)"/><circle id="Gumb" class="cls-11" cx="159.1" cy="239.9" r="3.72"/><circle id="Gumb-2" data-name="Gumb" class="cls-11" cx="134.74" cy="239.9" r="3.72"/><circle id="Gumb-3" data-name="Gumb" class="cls-11" cx="159.1" cy="267.94" r="3.72"/><circle id="Gumb-4" data-name="Gumb" class="cls-11" cx="134.74" cy="267.94" r="3.72"/><circle id="Gumb-5" data-name="Gumb" class="cls-11" cx="159.1" cy="295.98" r="3.72"/><circle id="Gumb-6" data-name="Gumb" class="cls-11" cx="134.74" cy="295.98" r="3.72"/><circle id="Gumb-7" data-name="Gumb" class="cls-11" cx="159.1" cy="324.02" r="3.72"/><circle id="Gumb-8" data-name="Gumb" class="cls-11" cx="134.74" cy="324.02" r="3.72"/><circle id="Gumb-9" data-name="Gumb" class="cls-11" cx="159.1" cy="352.06" r="3.72"/><circle id="Gumb-10" data-name="Gumb" class="cls-11" cx="134.74" cy="352.06" r="3.72"/><path id="Koza-3" data-name="Koza" class="cls-9" d="M167.59,105.48a133.55,133.55,0,0,1-7.42,25.57,49.25,49.25,0,0,1-97.41-1.91A155.45,155.45,0,0,1,56.12,105c-2.46-12.67,3.11-14.27,6.23-14.23V87.85a44.43,44.43,0,0,1,44.43-44.43h9.66a44.43,44.43,0,0,1,44.43,44.43v4.42C163.36,92,170.15,92.28,167.59,105.48Z" transform="translate(31.34)"/><path class="cls-12" d="M101,99.1c.09-7.58-23.45-7.87-23.55-.29C77.33,105.65,100.87,105.94,101,99.1Z" transform="translate(31.34)"/><path class="cls-12" d="M148.27,99.1c.09-7.58-23.45-7.87-23.54-.29C124.65,105.65,148.19,105.94,148.27,99.1Z" transform="translate(31.34)"/><circle class="cls-13" cx="119.79" cy="98.68" r="3.89"/><circle class="cls-13" cx="167.84" cy="98.68" r="3.89"/><path id="Oci" class="cls-14" d="M76,99.26s10-10.05,27.7,0C103.65,99.26,88.26,82.24,76,99.26Z" transform="translate(31.34)"/><path id="Oci-2" data-name="Oci" class="cls-14" d="M123.08,99.26s10-10.05,27.7,0C150.78,99.26,135.39,82.24,123.08,99.26Z" transform="translate(31.34)"/><path id="Brki" class="cls-15" d="M131.73,136.51H93.79c1.23-4.43,4.24-8,9.5-10.49h4.36c1.25.59,8.06,3.63,10.44.49a1.07,1.07,0,0,0,.12-.49h3.62C127,129,130.41,132.45,131.73,136.51Z" transform="translate(31.34)"/><path class="cls-9" d="M115.1,95.77l-.4,1.56C114.68,96.26,114.8,95.68,115.1,95.77Z" transform="translate(31.34)"/><path id="Nos" class="cls-14" d="M114.63,128.48a19.66,19.66,0,0,1-7.44-2l.52-1c2.11,1.06,8,3.28,9.92.75.32-.85-.77-8-1.64-13.83-1.86-12.28-2.3-16.22-1.44-17a.76.76,0,0,1,.72-.15l-.34,1.11a.41.41,0,0,0,.44-.16c-.5,1,.8,9.67,1.76,16,1.62,10.71,2,13.93,1.42,14.7A4.65,4.65,0,0,1,114.63,128.48Z" transform="translate(31.34)"/><g id="obrve"><path class="cls-16" d="M104.15,91c-16.77-8.46-24.37-.65-24.69-.31l-2.12-2c.37-.41,9.28-9.82,28.11-.32Z" transform="translate(31.34)"/></g><g id="Obrve-2" data-name="Obrve"><g id="Obrve-3" data-name="Obrve"><path id="Obrve-4" data-name="Obrve" class="cls-16" d="M150.13,92.07c-16.9-8.52-24.61-.39-24.68-.31l-2.13-2c.37-.4,9.28-9.82,28.11-.31Z" transform="translate(31.34)"/></g></g><path class="cls-17" d="M131.73,136.52a21.64,21.64,0,0,1-7.35,10.9c-1.38-6.86-26.65-4.19-26.73-4.18a31.85,31.85,0,0,1-3.86-6.72Z" transform="translate(31.34)"/><path class="cls-18" d="M124.38,147.42h0A19.11,19.11,0,0,1,113.94,151c-7.92.47-13.15-3.77-16.29-7.79C97.73,143.23,123,140.56,124.38,147.42Z" transform="translate(31.34)"/><polygon class="cls-17" points="128.98 143.24 128.99 143.24 128.98 143.24 128.98 143.24"/><polygon class="cls-12" points="125.13 136.52 126.21 138.9 162.25 138.9 163.07 136.52 125.13 136.52"/><g id="ocala"><path class="cls-19" d="M105.45,99.82s10.31-7.8,17.16,0" transform="translate(31.34)"/><line class="cls-19" x1="96.49" y1="93" x2="107.24" y2="98.68"/><line class="cls-19" x1="194.23" y1="92.78" x2="183.48" y2="99.25"/><circle class="cls-20" cx="122.01" cy="99.82" r="14.77"/><circle class="cls-20" cx="168.71" cy="99.82" r="14.77"/></g><path id="Lasje" class="cls-15" d="M63.36,105.4s-7.43-23.05,0-38S69,48.28,109.53,39.32,162,66.78,162,66.78c-2.93-9.1-16.9-7.34-16.9-7.34s4.7,5.29-8.23,4.85-13.65-10.87-42.26-7.93-24.26,45.78-24.26,45.78Z" transform="translate(31.34)"/></g><circle id="Krog-2" data-name="Krog" class="cls-1" cx="143.17" cy="111.83" r="109"/></g></g></svg>