<svg xmlns="http://www.w3.org/2000/svg" xmlns:xlink="http://www.w3.org/1999/xlink" viewBox="0 0 277.84 719.02"><defs><style>.cls-1,.cls-15{fill:none;stroke-miterlimit:10;}.cls-1{stroke:#00a881;stroke-width:5.67px;}.cls-2{clip-path:url(#clip-path);}.cls-3{fill:#fcc5aa;}.cls-4{fill:#dce6e0;}.cls-5{fill:#d9dceb;}.cls-6{fill:#eed1bf;}.cls-7{fill:#fff;}.cls-8{fill:#ffebc6;}.cls-9{fill:#524935;}.cls-10{fill:#ebaf88;}.cls-11{fill:#ffe6b4;}.cls-12{fill:#301812;}.cls-13{fill:#d55227;}.cls-14{fill:#00a881;}.cls-15{stroke:#499086;stroke-width:0.95px;}.cls-16{fill:#017dad;}.cls-17{fill:#44515d;}.cls-18{fill:#499086;}</style><clipPath id="clip-path" transform="translate(33.61)"><circle id="Krog" class="cls-1" cx="111.83" cy="111.83" r="109"/></clipPath></defs><g id="Layer_2" data-name="Layer 2"><g id="Layer_1-2" data-name="Layer 1"><g class="cls-2"><path id="Vrat" class="cls-3" d="M150.42,182.57l-.21.53c-5.49,13.54-20,23.2-37.1,23.2-17.29,0-32-9.91-37.3-23.71h-.15a18.31,18.31,0,0,0,12.53-7.4,18,18,0,0,0,2-3.72A25.58,25.58,0,0,0,92,162.64h38.38a36.91,36.91,0,0,0,1.89,8.82c1.18,3.37,3.09,6.95,6.14,9.24C141.26,182.86,145.25,183.87,150.42,182.57Z" transform="translate(33.61)"/><ellipse class="cls-4" cx="138.92" cy="703.19" rx="138.92" ry="15.83"/><path class="cls-5" d="M225.57,394.1,176.8,392V235s11.27-65,28.6-29.73Q219.8,304,225.57,394.1Z" transform="translate(33.61)"/><path id="Koza" class="cls-6" d="M167.22,109.56a133.55,133.55,0,0,1-7.42,25.57,49.25,49.25,0,0,1-97.41-1.91,155.45,155.45,0,0,1-6.64-24.12C53.29,96.43,58.86,94.83,62,94.87V91.93A44.43,44.43,0,0,1,106.41,47.5h9.66A44.43,44.43,0,0,1,160.5,91.93v4.42C163,96.05,169.78,96.36,167.22,109.56Z" transform="translate(33.61)"/><path class="cls-7" d="M100.58,103.18c.09-7.58-23.45-7.87-23.54-.29C77,109.73,100.5,110,100.58,103.18Z" transform="translate(33.61)"/><path id="Brada" class="cls-8" d="M162.52,127.76a84.45,84.45,0,0,1-.63,11.28,62.13,62.13,0,0,1-1.21,6.71,39.35,39.35,0,0,1-1.16,5.64,32.64,32.64,0,0,1-2,5.14,35.78,35.78,0,0,1-2.67,4.52,30.91,30.91,0,0,1-3.45,4.06c-.85,1.37-1.75,2.71-2.72,4a47.51,47.51,0,0,1-3.09,3.69,40.28,40.28,0,0,1-3.68,4.5q-1.72,1.77-3.54,3.41c-4.92,4.45-10.38,8-16.56,9.76a31.32,31.32,0,0,1-4.76.94,14.39,14.39,0,0,1-9.82-1.72C101,184.11,94.91,179,88.19,175.19a54,54,0,0,0-12-5.12,36,36,0,0,1-3.44-2.68,41.17,41.17,0,0,1-3.12-3.08,41.47,41.47,0,0,1-2.61-4,43.1,43.1,0,0,1-3.87-8.89c-.41-1.52-.74-3.05-1-4.61a67.93,67.93,0,0,1-.86-16.61c0-.67.09-1.34.16-2-.07-2.28-.1-4.58-.06-6.77.13-6.57.88-12.17,3-13.27,3.29-1.73,4.5-2,4.94-1.83a.32.32,0,0,1,.23.14h0a.25.25,0,0,1,0,.16s1.52,23.72,23.84,33.95h37.94S154,118.65,154,106.65L159.7,108l.8.19A102.54,102.54,0,0,1,162.52,127.76Z" transform="translate(33.61)"/><path class="cls-7" d="M147.9,103.18c.09-7.58-23.45-7.87-23.54-.29C124.27,109.73,147.81,110,147.9,103.18Z" transform="translate(33.61)"/><circle class="cls-9" cx="121.69" cy="102.76" r="3.89"/><circle class="cls-9" cx="169.74" cy="102.76" r="3.89"/><path id="Oci" class="cls-10" d="M75.58,103.34s10-10,27.7,0C103.28,103.34,87.89,86.32,75.58,103.34Z" transform="translate(33.61)"/><path id="Oci-2" data-name="Oci" class="cls-10" d="M122.71,103.34s10-10,27.7,0C150.41,103.34,135,86.32,122.71,103.34Z" transform="translate(33.61)"/><path id="Brki" class="cls-8" d="M131.36,140.59H93.42c1.23-4.43,4.25-8,9.5-10.49h4.36c1.25.59,8.06,3.63,10.44.49a1.07,1.07,0,0,0,.12-.49h3.62C126.59,133.07,130,136.53,131.36,140.59Z" transform="translate(33.61)"/><path class="cls-6" d="M114.73,99.85l-.4,1.56C114.31,100.34,114.43,99.76,114.73,99.85Z" transform="translate(33.61)"/><path id="Nos" class="cls-10" d="M114.26,132.56a19.53,19.53,0,0,1-7.44-2l.52-1c2.11,1.06,8,3.28,9.92.75.32-.85-.77-8-1.64-13.82-1.86-12.29-2.3-16.23-1.44-17a.76.76,0,0,1,.72-.15l-.35,1.11a.4.4,0,0,0,.44-.16c-.5,1,.81,9.68,1.77,16,1.61,10.7,2,13.92,1.42,14.69A4.65,4.65,0,0,1,114.26,132.56Z" transform="translate(33.61)"/><g id="Obrve"><path class="cls-11" d="M103.78,95.05C87,86.59,79.41,94.4,79.09,94.74L77,92.79c.36-.41,9.27-9.82,28.11-.32Z" transform="translate(33.61)"/></g><g id="Obrve-2" data-name="Obrve"><g id="Obrve-3" data-name="Obrve"><path id="Obrve-4" data-name="Obrve" class="cls-11" d="M149.76,96.15c-16.9-8.52-24.61-.39-24.68-.31l-2.13-2c.36-.4,9.27-9.82,28.11-.31Z" transform="translate(33.61)"/></g></g><path class="cls-12" d="M131.36,140.6c-.09,0-1.53,6.58-7.35,10.9-1.38-6.86-26.65-4.19-26.74-4.18a31.51,31.51,0,0,1-3.85-6.72Z" transform="translate(33.61)"/><path class="cls-13" d="M124,151.5h0a19.06,19.06,0,0,1-10.44,3.61c-7.92.47-13.15-3.77-16.3-7.79C97.36,147.31,122.63,144.64,124,151.5Z" transform="translate(33.61)"/><polygon class="cls-12" points="130.89 147.32 130.89 147.32 130.89 147.32 130.89 147.32"/><polygon class="cls-7" points="127.03 140.6 128.11 142.98 164.16 142.98 164.97 140.6 127.03 140.6"/><path class="cls-5" d="M.65,394.1,49.43,392V235s-11.28-65-28.61-29.73Q6.44,304,.65,394.1Z" transform="translate(33.61)"/><path id="Pulover" class="cls-14" d="M205.28,204.16l-.41.06c-5.35.94-11.87,8.69-18,27.46V404.53H39.31V231.68c-6.09-18.77-12.6-26.52-18-27.46l-.41-.06c-12.85-1.45,19-21.59,38.64-21.59H75.81c5.33,13.8,20,23.71,37.3,23.71,17.08,0,31.61-9.66,37.1-23.2.08-.17.14-.34.21-.51h16.22C186.29,182.57,218.13,202.71,205.28,204.16Z" transform="translate(33.61)"/><line id="Zadrga" class="cls-15" x1="146.73" y1="404.55" x2="146.73" y2="206.3"/><polygon id="Hlace" class="cls-16" points="220.4 404.55 220.4 454.36 197.23 671.26 168.41 681.48 146.99 454.36 146.73 454.36 122.34 681.48 122.23 681.48 93.48 671.29 72.92 454.36 72.92 404.55 220.4 404.55"/><path id="Koza-2" data-name="Koza" class="cls-6" d="M15,393.43S9.46,437,39.31,441.37v-49Z" transform="translate(33.61)"/><path id="Koza-3" data-name="Koza" class="cls-6" d="M211.11,393.49s5.53,43.56-24.32,47.94v-49Z" transform="translate(33.61)"/><path class="cls-17" d="M206.88,703H134.8V681.48l28.82-10.22s0,0,0,.08c-1.25,12.27,9.29,14.13,9.29,14.13C216.39,681.43,206.88,703,206.88,703Z" transform="translate(33.61)"/><path class="cls-17" d="M88.62,681.48V703H16.54s-9.51-21.6,34-17.56c0,0,10.59-1.87,9.27-14.21l.08,0Z" transform="translate(33.61)"/><circle id="Gumb" class="cls-18" cx="159.1" cy="242.8" r="3.72"/><circle id="Gumb-2" data-name="Gumb" class="cls-18" cx="134.74" cy="242.8" r="3.72"/><circle id="Gumb-3" data-name="Gumb" class="cls-18" cx="159.1" cy="270.84" r="3.72"/><circle id="Gumb-4" data-name="Gumb" class="cls-18" cx="134.74" cy="270.84" r="3.72"/><circle id="Gumb-5" data-name="Gumb" class="cls-18" cx="159.1" cy="298.88" r="3.72"/><circle id="Gumb-6" data-name="Gumb" class="cls-18" cx="134.74" cy="298.88" r="3.72"/><circle id="Gumb-7" data-name="Gumb" class="cls-18" cx="159.1" cy="326.92" r="3.72"/><circle id="Gumb-8" data-name="Gumb" class="cls-18" cx="134.74" cy="326.92" r="3.72"/><circle id="Gumb-9" data-name="Gumb" class="cls-18" cx="159.1" cy="354.97" r="3.72"/><circle id="Gumb-10" data-name="Gumb" class="cls-18" cx="134.74" cy="354.97" r="3.72"/></g><circle id="Krog-2" data-name="Krog" class="cls-1" cx="145.45" cy="111.83" r="109"/></g></g></svg>