<svg xmlns="http://www.w3.org/2000/svg" xmlns:xlink="http://www.w3.org/1999/xlink" viewBox="0 0 277.84 717.51"><defs><style>.cls-1,.cls-14{fill:none;stroke-miterlimit:10;}.cls-1{stroke:#00a881;stroke-width:5.67px;}.cls-2{clip-path:url(#clip-path);}.cls-3{fill:#fcc5aa;}.cls-4{fill:#dce6e0;}.cls-5{fill:#d9dceb;}.cls-6{fill:#eed1bf;}.cls-7{fill:#fff;}.cls-8{fill:#524935;}.cls-9{fill:#ebaf88;}.cls-10{fill:#ffe6b4;}.cls-11{fill:#301812;}.cls-12{fill:#d55227;}.cls-13{fill:#00a881;}.cls-14{stroke:#499086;stroke-width:0.95px;}.cls-15{fill:#017dad;}.cls-16{fill:#44515d;}.cls-17{fill:#499086;}</style><clipPath id="clip-path" transform="translate(34.17)"><circle id="Krog" class="cls-1" cx="111.83" cy="111.83" r="109"/></clipPath></defs><g id="Layer_2" data-name="Layer 2"><g id="Layer_1-2" data-name="Layer 1"><g class="cls-2"><path id="Vrat" class="cls-3" d="M149.86,181.06l-.21.53c-5.49,13.54-20,23.2-37.1,23.2-17.29,0-32-9.91-37.3-23.71H75.1a18.31,18.31,0,0,0,12.53-7.4,18,18,0,0,0,2-3.72,25.58,25.58,0,0,0,1.79-8.83h38.38a36.91,36.91,0,0,0,1.89,8.82c1.18,3.37,3.09,7,6.14,9.24C140.7,181.35,144.69,182.36,149.86,181.06Z" transform="translate(34.17)"/><ellipse class="cls-4" cx="138.92" cy="701.68" rx="138.92" ry="15.83"/><path class="cls-5" d="M225,392.59l-48.77-2.13v-157s11.27-65,28.6-29.73Q219.25,302.47,225,392.59Z" transform="translate(34.17)"/><path id="Koza" class="cls-6" d="M166.66,108.05a133.55,133.55,0,0,1-7.42,25.57,49.25,49.25,0,0,1-97.41-1.91,155.45,155.45,0,0,1-6.64-24.12c-2.46-12.67,3.11-14.27,6.23-14.23V90.42A44.43,44.43,0,0,1,105.85,46h9.66a44.43,44.43,0,0,1,44.43,44.43v4.42C162.43,94.54,169.22,94.85,166.66,108.05Z" transform="translate(34.17)"/><path class="cls-7" d="M100,101.67c.09-7.58-23.45-7.86-23.54-.29C76.41,108.22,100,108.51,100,101.67Z" transform="translate(34.17)"/><path class="cls-7" d="M147.35,101.67c.09-7.58-23.45-7.86-23.55-.29C123.72,108.22,147.26,108.51,147.35,101.67Z" transform="translate(34.17)"/><circle class="cls-8" cx="121.69" cy="101.25" r="3.89"/><circle class="cls-8" cx="169.74" cy="101.25" r="3.89"/><path id="Oci" class="cls-9" d="M75,101.83s10-10,27.69,0C102.72,101.83,87.34,84.81,75,101.83Z" transform="translate(34.17)"/><path id="Oci-2" data-name="Oci" class="cls-9" d="M122.16,101.83s10-10,27.7,0C149.86,101.83,134.47,84.81,122.16,101.83Z" transform="translate(34.17)"/><path class="cls-6" d="M114.17,98.34l-.4,1.56C113.75,98.83,113.87,98.25,114.17,98.34Z" transform="translate(34.17)"/><path id="Nos" class="cls-9" d="M113.71,131.05a19.53,19.53,0,0,1-7.44-2l.52-1c2.11,1.06,8,3.28,9.92.75.32-.84-.77-8-1.65-13.82-1.86-12.29-2.29-16.23-1.43-17a.75.75,0,0,1,.72-.15L114,98.9a.42.42,0,0,0,.44-.16c-.5,1,.81,9.68,1.76,16,1.62,10.7,2,13.92,1.43,14.69A4.67,4.67,0,0,1,113.71,131.05Z" transform="translate(34.17)"/><g id="Obrve"><path class="cls-10" d="M103.23,93.54c-16.77-8.46-24.38-.65-24.69-.31l-2.13-2c.37-.41,9.28-9.82,28.12-.32Z" transform="translate(34.17)"/></g><g id="Obrve-2" data-name="Obrve"><g id="Obrve-3" data-name="Obrve"><path id="Obrve-4" data-name="Obrve" class="cls-10" d="M149.21,94.64c-16.9-8.52-24.61-.39-24.69-.31l-2.13-2c.37-.4,9.28-9.82,28.12-.31Z" transform="translate(34.17)"/></g></g><path class="cls-11" d="M130.8,139.09a21.58,21.58,0,0,1-7.34,10.9c-1.39-6.86-26.65-4.19-26.74-4.18a31.51,31.51,0,0,1-3.85-6.72Z" transform="translate(34.17)"/><path class="cls-12" d="M123.46,150h0A19,19,0,0,1,113,153.6c-7.92.47-13.15-3.77-16.29-7.79C96.81,145.8,122.07,143.13,123.46,150Z" transform="translate(34.17)"/><polygon class="cls-11" points="130.89 145.81 130.89 145.81 130.89 145.81 130.89 145.81"/><polygon class="cls-7" points="127.03 139.09 128.11 141.47 164.16 141.47 164.97 139.09 127.03 139.09"/><path class="cls-5" d="M.1,392.59l48.77-2.13v-157s-11.27-65-28.6-29.73Q5.87,302.47.1,392.59Z" transform="translate(34.17)"/><path id="Pulover" class="cls-13" d="M204.72,202.65l-.41.06c-5.35.94-11.87,8.69-17.95,27.46V403H38.75V230.17c-6.09-18.77-12.6-26.52-17.95-27.46l-.41-.06c-12.85-1.45,19-21.59,38.64-21.59H75.25c5.33,13.8,20,23.71,37.3,23.71,17.08,0,31.61-9.66,37.1-23.2.08-.17.14-.34.21-.51h16.22C185.73,181.06,217.57,201.2,204.72,202.65Z" transform="translate(34.17)"/><line id="Zadrga" class="cls-14" x1="146.73" y1="403.04" x2="146.73" y2="204.79"/><polygon id="Hlace" class="cls-15" points="220.4 403.04 220.4 452.85 197.23 669.75 168.41 679.97 146.99 452.85 146.73 452.85 122.34 679.97 122.23 679.97 93.48 669.78 72.92 452.85 72.92 403.04 220.4 403.04"/><path id="Koza-2" data-name="Koza" class="cls-6" d="M14.43,391.92s-5.52,43.56,24.32,47.94v-49Z" transform="translate(34.17)"/><path id="Koza-3" data-name="Koza" class="cls-6" d="M210.56,392s5.53,43.56-24.32,47.94v-49Z" transform="translate(34.17)"/><path class="cls-16" d="M206.32,701.52H134.24V680l28.82-10.22s0,0,0,.08C161.8,682.1,172.34,684,172.34,684,215.83,679.92,206.32,701.52,206.32,701.52Z" transform="translate(34.17)"/><path class="cls-16" d="M88.06,680v21.55H16S6.47,679.92,50,684c0,0,10.59-1.87,9.27-14.21l.08,0Z" transform="translate(34.17)"/><circle id="Gumb" class="cls-17" cx="159.1" cy="241.29" r="3.72"/><circle id="Gumb-2" data-name="Gumb" class="cls-17" cx="134.74" cy="241.29" r="3.72"/><circle id="Gumb-3" data-name="Gumb" class="cls-17" cx="159.1" cy="269.33" r="3.72"/><circle id="Gumb-4" data-name="Gumb" class="cls-17" cx="134.74" cy="269.33" r="3.72"/><circle id="Gumb-5" data-name="Gumb" class="cls-17" cx="159.1" cy="297.37" r="3.72"/><circle id="Gumb-6" data-name="Gumb" class="cls-17" cx="134.74" cy="297.37" r="3.72"/><circle id="Gumb-7" data-name="Gumb" class="cls-17" cx="159.1" cy="325.41" r="3.72"/><circle id="Gumb-8" data-name="Gumb" class="cls-17" cx="134.74" cy="325.41" r="3.72"/><circle id="Gumb-9" data-name="Gumb" class="cls-17" cx="159.1" cy="353.46" r="3.72"/><circle id="Gumb-10" data-name="Gumb" class="cls-17" cx="134.74" cy="353.46" r="3.72"/></g><circle id="Krog-2" data-name="Krog" class="cls-1" cx="146" cy="111.83" r="109"/></g></g></svg>