<svg xmlns="http://www.w3.org/2000/svg" viewBox="0 0 208.42 646.45"><defs><style>.cls-1{fill:#eed1bf;}.cls-2{fill:#fcc5aa;}.cls-3{fill:#d9dceb;}.cls-4{fill:#074368;}.cls-5{fill:none;stroke:#c1c0da;stroke-miterlimit:10;stroke-width:1.01px;}.cls-6{fill:#c4463a;}.cls-7{fill:#fff;}.cls-8{fill:#524935;}.cls-9{fill:#c9bcdd;}.cls-10{fill:#ebaf89;}.cls-11{fill:#c1c0da;}.cls-12{fill:#200600;}.cls-13{fill:#d55227;}</style></defs><g id="Layer_2" data-name="Layer 2"><g id="Layer_1-2" data-name="Layer 1"><path id="Koza" class="cls-1" d="M15.41,332.22s-5.89,46.38,25.89,51V331.09Z"/><path id="Koza-2" data-name="Koza" class="cls-1" d="M197.48,340.23s5.88,46.38-25.9,51V339.1Z"/><path id="Vrat" class="cls-2" d="M138.76,152.2c-5.1,12.81-18.42,22-34.07,22-15.37,0-28.5-8.84-33.8-21.31,4-1.14,12.58-5.35,13.09-20.48h35.3S122.52,156.15,138.76,152.2Z"/><path class="cls-3" d="M0,350.1l51.93-2V201s-12-61-30.45-27.88Q6.15,265.62,0,350.1Z"/><path class="cls-3" d="M208.42,350.1l-51.94-2V201s12-61,30.46-27.88Q202.27,265.62,208.42,350.1Z"/><path id="Koza-3" data-name="Koza" class="cls-1" d="M89.92,622.15l-30.69,4.17c3.61-2.34,5.93-4.17,5.93-4.17Z"/><path id="Koza-4" data-name="Koza" class="cls-1" d="M156.64,626.32,126,622.15h24.77S153,624,156.64,626.32Z"/><path id="cevlje" class="cls-4" d="M89.92,622.15v20.39h-15v-5.82S41.87,648.88,27.36,646c0,0-16.55-2.23,8.86-11.39,19-6.85,22.83-8.27,22.83-8.27l.17,0h0Z"/><path id="cevlje-2" data-name="cevlje" class="cls-4" d="M188.51,646c-14.5,2.87-47.57-9.29-47.57-9.29v5.82H126V622.15l30.69,4.17h0l.17,0s3.83,1.42,22.84,8.27C205.06,643.78,188.51,646,188.51,646Z"/><path class="cls-5" d="M43.14,319.06c.14-12.1,61.31,48.45,119,0"/><polygon id="Hlace" class="cls-4" points="182.45 345.48 179.01 376.09 151.87 622.15 125.89 622.15 109.44 418.38 89.97 622.15 62.79 622.15 34.76 377.09 30.76 345.48 182.45 345.48"/><path id="Majica" class="cls-6" d="M189.55,172.13c-4.83.58-10.78,7.47-16.38,24.68,0,4.95,2.85,36.81-7.21,51.12-2.17,22.51,13.69,74.46,16.49,97.55-56.74,46.95-147.92,1.63-151.69,0,2.74-22.76,17.93-75.42,15.82-97.64C35.36,232.5,36,196.15,36,196.15c-5.54-16.71-11.39-23.45-16.16-24C8,170.75,37.32,151.5,55.41,151.5H70.35q.25.69.54,1.35c5.3,12.47,18.43,21.31,33.8,21.31,15.65,0,29-9.15,34.07-22,.1-.23.19-.47.28-.7H154C172.07,151.5,201.39,170.75,189.55,172.13Z"/><path id="Koza-5" data-name="Koza" class="cls-1" d="M99.43,15h8.2a37.7,37.7,0,0,1,37.7,37.7v50.06a41.8,41.8,0,0,1-41.8,41.8h0a41.8,41.8,0,0,1-41.8-41.8V52.67A37.7,37.7,0,0,1,99.43,15Z"/><path class="cls-7" d="M92,75.33c.09-8-22.94-8.35-23-.3C68.87,82.3,91.89,82.6,92,75.33Z"/><path class="cls-7" d="M138.26,75.33c.09-8-22.94-8.35-23-.3C115.15,82.3,138.18,82.6,138.26,75.33Z"/><ellipse class="cls-8" cx="79.75" cy="74.89" rx="3.81" ry="4.14"/><ellipse class="cls-8" cx="126.75" cy="74.89" rx="3.81" ry="4.14"/><path id="Oci" class="cls-9" d="M67.52,75.5s9.78-10.67,27.09,0C94.61,75.5,79.56,57.43,67.52,75.5Z"/><path id="Oci-2" data-name="Oci" class="cls-9" d="M113.62,75.5s9.79-10.67,27.1,0C140.72,75.5,125.67,57.43,113.62,75.5Z"/><g id="Nos"><path class="cls-10" d="M105.64,102.73a25.5,25.5,0,0,1-8.42-1.92l.46-1.1c2.44,1,9.25,3.13,11.48.7.31-.83-.91-7.55-1.9-13-2.1-11.49-2.61-15.2-1.71-16a.83.83,0,0,1,.78-.2l-.3,1.16a.36.36,0,0,0,.38-.14c-.53,1,1,9.1,2,15,1.85,10.15,2.29,13.22,1.6,14A5.81,5.81,0,0,1,105.64,102.73Z"/></g><path id="Obrve" class="cls-11" d="M95.32,66.09c-16.86-9.23-24.66-.29-24.74-.2l-1.33-1.12c.35-.42,8.81-10.12,26.91-.2Z"/><path id="Obrve-2" data-name="Obrve" class="cls-11" d="M140.3,67.27c-16.86-9.24-24.66-.3-24.74-.2L114.23,66c.35-.42,8.81-10.12,26.91-.21Z"/><path id="Koza-6" data-name="Koza" class="cls-1" d="M144.61,68.25S155.1,65.07,152,82.11s-7.43,27.6-7.43,27.6Z"/><path id="Koza-7" data-name="Koza" class="cls-1" d="M62.13,69.1S51.65,65.91,54.7,83s7.43,27.6,7.43,27.6Z"/><ellipse id="Uhani" class="cls-6" cx="61.73" cy="108.04" rx="3.31" ry="3.59"/><ellipse id="Uhani-2" data-name="Uhani" class="cls-6" cx="146.92" cy="107.91" rx="3.31" ry="3.59"/><path class="cls-12" d="M122.23,114a15.3,15.3,0,0,1-6.56,8.15C114.43,117,91.87,119,91.79,119a19,19,0,0,1-3.44-5A87.09,87.09,0,0,0,122.23,114Z"/><path class="cls-13" d="M115.67,122.1h0a19.25,19.25,0,0,1-9.32,2.69A18.06,18.06,0,0,1,91.79,119C91.87,119,114.43,117,115.67,122.1Z"/><polygon class="cls-12" points="91.79 118.97 91.79 118.97 91.79 118.97 91.79 118.97"/><path id="Lasje" class="cls-11" d="M60.29,84.93c.25-2.33.57-4.69,1-7.06a45.6,45.6,0,0,1,5.45-18.13,32.65,32.65,0,0,1,3.48-5c2.28-1.58,4-5.13,6.59-5.93A25.2,25.2,0,0,1,81,47.05a29.53,29.53,0,0,1,4.35-1,92.8,92.8,0,0,1,10.91.34,28.28,28.28,0,0,1,9.94,2.76c1.56.46,3.12.92,4.69,1.34a42.1,42.1,0,0,1,5.82-.86,38.08,38.08,0,0,1,5.85,0,17,17,0,0,1,3,.07,15.59,15.59,0,0,1,2.84.62c4.31,1,6.08,4.55,9.37,6.63.63.77,1.24,1.58,1.82,2.43s1.11,1.72,1.62,2.61a41.58,41.58,0,0,1,2.6,5.59,44.64,44.64,0,0,1,1.75,5.66c.53,1.11,1.58,1.11,2.63,1.67,0-1.23.13-2.46.27-3.67s.3-2.43.51-3.64c7.41-7.4,15.49-16.28,14.73-28.06a16.14,16.14,0,0,0-.68-3.15,17.22,17.22,0,0,0-1.35-3.12,30,30,0,0,0-1.79-2.94c-3.26-4.82-7.84-9.18-12.23-13A26.4,26.4,0,0,1,146.26,14a23,23,0,0,0-1.41-2.29,22.22,22.22,0,0,0-1.63-2.1,22.11,22.11,0,0,0-2.6-2.42,33.78,33.78,0,0,0-11.89-4.56q-1.6-.3-3.24-.48c-8.7-1.47-17.56,3-26.61,1.77-1-.21-2-.45-3-.71s-2-.54-3-.82a24.24,24.24,0,0,0-26.86,4A29.85,29.85,0,0,0,57.18,20c-.59,1-1.21,1.9-1.82,2.86l-1.77,1.38a68.46,68.46,0,0,1-7.48,5.05,14,14,0,0,0-2,2.82,24.79,24.79,0,0,0-1.46,3.26c-.38,1-.71,2.1-1,3.17-2.34,8.56-2,17.83,5,24.31.78.77,1.56,1.51,2.35,2.24,3.94,3.66,8,7.18,8.55,12.53.45,1.55.9,3.09,1.35,4.6C59.69,83.94,60.29,84.93,60.29,84.93Z"/></g></g></svg>