<svg xmlns="http://www.w3.org/2000/svg" viewBox="0 0 208.42 645.47"><defs><style>.cls-1{fill:#eed1bf;}.cls-2{fill:#fcc5aa;}.cls-3{fill:#d9dceb;}.cls-4{fill:#074368;}.cls-5{fill:none;stroke:#c1c0da;stroke-miterlimit:10;stroke-width:1.01px;}.cls-6{fill:#c4463a;}.cls-7{fill:#fff;}.cls-8{fill:#524935;}.cls-9{fill:#c9bcdd;}.cls-10{fill:#ebaf89;}.cls-11{fill:#c1c0da;}.cls-12{fill:#200600;}.cls-13{fill:#d55227;}</style></defs><g id="Layer_2" data-name="Layer 2"><g id="Layer_1-2" data-name="Layer 1"><path id="Koza" class="cls-1" d="M15.41,331.24s-5.89,46.38,25.89,51V330.11Z"/><path id="Koza-2" data-name="Koza" class="cls-1" d="M197.48,339.25s5.88,46.38-25.9,51V338.12Z"/><path id="Vrat" class="cls-2" d="M138.76,151.22c-5.1,12.81-18.42,22-34.07,22-15.37,0-28.5-8.84-33.8-21.31,4-1.14,12.58-5.35,13.09-20.48h35.3S122.52,155.17,138.76,151.22Z"/><path class="cls-3" d="M0,349.12l51.93-2V200s-12-61-30.45-27.88Q6.15,264.64,0,349.12Z"/><path class="cls-3" d="M208.42,349.12l-51.94-2V200s12-61,30.46-27.88Q202.27,264.64,208.42,349.12Z"/><path id="Koza-3" data-name="Koza" class="cls-1" d="M89.92,621.17l-30.69,4.17c3.61-2.34,5.93-4.17,5.93-4.17Z"/><path id="Koza-4" data-name="Koza" class="cls-1" d="M156.64,625.34,126,621.17h24.77S153,623,156.64,625.34Z"/><path id="cevlje" class="cls-4" d="M89.92,621.17v20.39h-15v-5.82S41.87,647.9,27.36,645c0,0-16.55-2.23,8.86-11.39,19-6.85,22.83-8.27,22.83-8.27l.17,0h0Z"/><path id="cevlje-2" data-name="cevlje" class="cls-4" d="M188.51,645c-14.5,2.87-47.57-9.29-47.57-9.29v5.82H126V621.17l30.69,4.17h0l.17,0s3.83,1.42,22.84,8.27C205.06,642.8,188.51,645,188.51,645Z"/><path class="cls-5" d="M43.14,318.08c.14-12.11,61.31,48.45,119,0"/><polygon id="Hlace" class="cls-4" points="182.45 344.5 179.01 375.11 151.87 621.17 125.89 621.17 109.44 417.4 89.97 621.17 62.79 621.17 34.76 376.11 30.76 344.5 182.45 344.5"/><path id="Majica" class="cls-6" d="M189.55,171.15c-4.83.58-10.78,7.47-16.38,24.68,0,4.95,2.85,36.81-7.21,51.12-2.17,22.51,13.69,74.46,16.49,97.55-56.74,46.95-147.92,1.63-151.69,0,2.74-22.76,17.93-75.42,15.82-97.64C35.36,231.52,36,195.17,36,195.17c-5.54-16.71-11.39-23.45-16.16-24C8,169.77,37.32,150.52,55.41,150.52H70.35q.25.69.54,1.35c5.3,12.47,18.43,21.31,33.8,21.31,15.65,0,29-9.15,34.07-22,.1-.23.19-.47.28-.7H154C172.07,150.52,201.39,169.77,189.55,171.15Z"/><path id="Koza-5" data-name="Koza" class="cls-1" d="M100.6,14h8.2a37.7,37.7,0,0,1,37.7,37.7v50.06a41.8,41.8,0,0,1-41.8,41.8h0a41.8,41.8,0,0,1-41.8-41.8V51.67A37.7,37.7,0,0,1,100.6,14Z"/><path class="cls-7" d="M93.15,74.34c.09-8-22.94-8.36-23-.31C70,81.3,93.07,81.6,93.15,74.34Z"/><path class="cls-7" d="M139.44,74.34c.09-8-22.94-8.36-23-.31C116.33,81.3,139.36,81.6,139.44,74.34Z"/><ellipse class="cls-8" cx="80.92" cy="73.89" rx="3.81" ry="4.14"/><ellipse class="cls-8" cx="127.92" cy="73.89" rx="3.81" ry="4.14"/><path id="Oci" class="cls-9" d="M68.69,74.5s9.79-10.67,27.1,0C95.79,74.5,80.73,56.43,68.69,74.5Z"/><path id="Oci-2" data-name="Oci" class="cls-9" d="M114.8,74.5s9.78-10.67,27.09,0C141.89,74.5,126.84,56.43,114.8,74.5Z"/><g id="Nos"><path class="cls-10" d="M106.81,101.73a25.86,25.86,0,0,1-8.42-1.91l.47-1.11c2.43,1,9.24,3.13,11.47.7.32-.83-.91-7.55-1.9-13-2.1-11.49-2.61-15.2-1.7-16a.79.79,0,0,1,.78-.19l-.3,1.16a.39.39,0,0,0,.38-.14c-.54,1,.94,9.09,2,15,1.86,10.15,2.29,13.22,1.6,14A5.81,5.81,0,0,1,106.81,101.73Z"/></g><path id="Obrve" class="cls-11" d="M96.5,65.1c-16.86-9.24-24.67-.3-24.74-.21l-1.34-1.12c.36-.41,8.81-10.12,26.91-.2Z"/><path id="Obrve-2" data-name="Obrve" class="cls-11" d="M141.48,66.27c-16.87-9.24-24.67-.29-24.74-.2L115.4,65c.35-.42,8.81-10.12,26.91-.2Z"/><path class="cls-12" d="M123.4,113a15.23,15.23,0,0,1-6.56,8.14C115.61,116,93,118,93,118a19.45,19.45,0,0,1-3.44-5A87.28,87.28,0,0,0,123.4,113Z"/><path class="cls-13" d="M116.84,121.1h0a19.28,19.28,0,0,1-9.32,2.69A18.1,18.1,0,0,1,93,118C93,118,115.61,116,116.84,121.1Z"/><polygon class="cls-12" points="92.96 117.97 92.97 117.97 92.97 117.97 92.96 117.97"/><path id="Lasje" class="cls-11" d="M158.53,165.24s-5.39-1.23-9.24-14c-9.46-9.12-22.53-16.13-22.53-16.13,8.06-5,14.52-16.65,18.33-24,.14-6,1-12.52,1.59-19.91,5.8-68.52-40.06-48.71-42-48.56h0c-1.77-.1-46.8-19.69-41.95,48.56.52,7.36,1.8,13.9,1.94,19.86,5.21,9.14,15.5,22.5,15.5,22.5-5.51-3.78-12.91,4.31-18.89,13.26-3.82,17-10.4,18.45-10.4,18.45S23.51-6.67,104.7.2C185.89-6.67,158.53,165.24,158.53,165.24Z"/><path id="Koza-6" data-name="Koza" class="cls-1" d="M145.79,67.25s10.48-3.18,7.43,13.86-7.43,27.6-7.43,27.6Z"/><path id="Koza-7" data-name="Koza" class="cls-1" d="M64.78,69.73S54.3,66.54,57.35,83.59s7.43,27.6,7.43,27.6Z"/><ellipse id="Uhani" class="cls-6" cx="62.9" cy="107.04" rx="3.31" ry="3.59"/><ellipse id="Uhani-2" data-name="Uhani" class="cls-6" cx="148.1" cy="106.91" rx="3.31" ry="3.59"/></g></g></svg>