<svg xmlns="http://www.w3.org/2000/svg" viewBox="0 0 208.42 678.04"><defs><style>.cls-1{fill:#eed1bf;}.cls-2{fill:#fbc5aa;}.cls-3{fill:#d8dcec;}.cls-4{fill:#074368;}.cls-5{fill:none;stroke:#c1c0db;stroke-miterlimit:10;stroke-width:1.01px;}.cls-6{fill:#c4463a;}.cls-7{fill:#fff;}.cls-8{fill:#514835;}.cls-9{fill:#cabcdc;}.cls-10{fill:#ebaf89;}.cls-11{fill:#c1c0db;}.cls-12{fill:#200600;}.cls-13{fill:#d55227;}</style></defs><g id="Layer_2" data-name="Layer 2"><g id="Avatar"><path id="Koza" class="cls-1" d="M15.41,324.63S9.52,371,41.3,375.68V323.51Z"/><path id="Koza-2" data-name="Koza" class="cls-1" d="M189.81,329.81s5.89,46.38-25.9,51V328.68Z"/><path id="Vrat" class="cls-2" d="M138.76,152.34c-5.1,12.81-18.42,22-34.07,22-15.37,0-28.5-8.84-33.8-21.31,4-1.14,12.58-5.35,13.09-20.48h35.3S122.52,156.29,138.76,152.34Z"/><path class="cls-3" d="M0,342.52l51.93-2V201.09s-12-61-30.45-27.88C11.26,234.9,4.16,286.13,0,342.52Z"/><path class="cls-3" d="M208.42,342.52l-51.94-2V201.09s12-61,30.46-27.88C197.16,234.9,204.26,286.13,208.42,342.52Z"/><path id="Koza-3" data-name="Koza" class="cls-1" d="M89.92,653.75l-30.69,4.17c3.61-2.34,5.93-4.17,5.93-4.17Z"/><path id="Koza-4" data-name="Koza" class="cls-1" d="M156.64,657.92,126,653.75h24.77S153,655.58,156.64,657.92Z"/><path id="cevlje" class="cls-4" d="M89.92,653.75v20.39h-15v-5.82s-33.06,12.16-47.57,9.29c0,0-16.55-2.23,8.86-11.39,19-6.85,22.83-8.27,22.83-8.27l.17,0h0Z"/><path id="cevlje-2" data-name="cevlje" class="cls-4" d="M188.51,677.61c-14.5,2.87-47.57-9.29-47.57-9.29v5.82H126V653.75l30.69,4.17h0l.17,0s3.83,1.42,22.84,8.27C205.06,675.38,188.51,677.61,188.51,677.61Z"/><path class="cls-5" d="M43.14,311.48c.14-12.11,61.31,48.44,119,0"/><polygon id="Hlace" class="cls-4" points="182.76 337.87 180.76 371.87 151.87 653.75 125.89 653.75 109.44 449.98 89.97 653.75 62.79 653.75 35.76 367.87 31.76 337.87 182.76 337.87"/><path id="Majica" class="cls-6" d="M189.55,172.27c-4.83.58-10.78,7.47-16.38,24.68,0,5,2.85,29.09-7.21,43.4-2.17,22.51,14,74.46,16.8,97.55-56.74,47-147.23,1.63-151,0,2.74-22.76,16.93-75.42,14.82-97.64-11.22-15.34-10.58-44-10.58-44-5.54-16.71-11.39-23.45-16.16-24C8,170.89,37.32,151.64,55.41,151.64H70.35q.25.69.54,1.35c5.3,12.47,18.43,21.31,33.8,21.31,15.65,0,29-9.15,34.07-22,.1-.23.19-.47.28-.7H154C172.07,151.64,201.39,170.89,189.55,172.27Z"/><path id="Koza-5" data-name="Koza" class="cls-1" d="M99.31,14h8.2a37.7,37.7,0,0,1,37.7,37.7v50.06a41.8,41.8,0,0,1-41.8,41.8h0a41.8,41.8,0,0,1-41.8-41.8V51.67A37.7,37.7,0,0,1,99.31,14Z"/><path class="cls-7" d="M91.86,74.34c.09-8-22.94-8.36-23-.31C68.75,81.3,91.78,81.6,91.86,74.34Z"/><path class="cls-7" d="M138.14,74.34c.09-8-22.93-8.36-23-.31C115,81.3,138.06,81.6,138.14,74.34Z"/><ellipse class="cls-8" cx="79.63" cy="73.89" rx="3.81" ry="4.14"/><ellipse class="cls-8" cx="126.63" cy="73.89" rx="3.81" ry="4.14"/><path id="Oci" class="cls-9" d="M67.4,74.5s9.78-10.67,27.09,0C94.49,74.5,79.44,56.43,67.4,74.5Z"/><path id="Oci-2" data-name="Oci" class="cls-9" d="M113.51,74.5s9.78-10.67,27.09,0C140.6,74.5,125.55,56.43,113.51,74.5Z"/><g id="Nos"><path class="cls-10" d="M105.52,101.73a25.86,25.86,0,0,1-8.42-1.91l.46-1.11c2.44,1,9.25,3.13,11.48.7.32-.83-.91-7.55-1.9-13-2.1-11.49-2.61-15.2-1.7-16a.78.78,0,0,1,.77-.19l-.3,1.16a.37.37,0,0,0,.38-.14c-.53,1,.95,9.09,2,15,1.86,10.15,2.29,13.22,1.6,14A5.81,5.81,0,0,1,105.52,101.73Z"/></g><path id="Obrve" class="cls-11" d="M95.2,65.1c-16.86-9.24-24.66-.3-24.74-.21l-1.33-1.12c.35-.41,8.81-10.12,26.91-.2Z"/><path id="Obrve-2" data-name="Obrve" class="cls-11" d="M140.18,66.27c-16.86-9.24-24.66-.29-24.74-.2L114.11,65c.35-.42,8.81-10.12,26.91-.2Z"/><path class="cls-12" d="M122.11,113a15.23,15.23,0,0,1-6.56,8.14C114.31,116,91.75,118,91.67,118a19.14,19.14,0,0,1-3.44-5A87.28,87.28,0,0,0,122.11,113Z"/><path class="cls-13" d="M115.55,121.1h0a19.32,19.32,0,0,1-9.33,2.69A18.09,18.09,0,0,1,91.67,118C91.75,118,114.31,116,115.55,121.1Z"/><polygon class="cls-12" points="91.67 117.97 91.67 117.97 91.67 117.97 91.67 117.97"/><path id="Lasje3" class="cls-11" d="M157.24,165.24s-5.39-1.23-9.25-14c-9.45-9.12-22.52-16.13-22.52-16.13,8.06-5,14.52-16.65,18.33-24,.14-6,1-12.52,1.59-19.91,5.8-68.52-40.06-48.71-42-48.56h0c-1.77-.1-46.8-19.69-41.94,48.56.52,7.36,1.79,13.9,1.94,19.86,5.21,9.14,15.5,22.5,15.5,22.5C73.36,129.75,66,137.84,60,146.79c-3.82,17-10.4,18.45-10.4,18.45S22.22-6.67,103.41.2C184.59-6.67,157.24,165.24,157.24,165.24Z"/><path id="Koza-6" data-name="Koza" class="cls-1" d="M144.5,67.25s10.48-3.18,7.43,13.86-7.43,27.6-7.43,27.6Z"/><path id="Koza-7" data-name="Koza" class="cls-1" d="M63.49,69.73S53,66.54,56.06,83.59s7.43,27.6,7.43,27.6Z"/><ellipse id="Uhani" class="cls-6" cx="61.61" cy="107.04" rx="3.31" ry="3.59"/><ellipse id="Uhani-2" data-name="Uhani" class="cls-6" cx="146.8" cy="106.91" rx="3.31" ry="3.59"/></g></g></svg>