<svg xmlns="http://www.w3.org/2000/svg" viewBox="0 0 208.42 674.15"><defs><style>.cls-1{fill:#eed1bf;}.cls-2{fill:#fbc5aa;}.cls-3{fill:#d8dcec;}.cls-4{fill:#074368;}.cls-5{fill:none;stroke:#c1c0db;stroke-miterlimit:10;stroke-width:1.01px;}.cls-6{fill:#fff;}.cls-7{fill:#514835;}.cls-8{fill:#cabcdc;}.cls-9{fill:#ebaf89;}.cls-10{fill:#bbb8dc;}.cls-11{fill:#c4463a;}.cls-12{fill:#200600;}.cls-13{fill:#d55227;}</style></defs><g id="Layer_2" data-name="Layer 2"><g id="Avatar"><path id="Koza" class="cls-1" d="M15.41,320.75s-5.89,46.38,25.89,51V319.62Z"/><path id="Koza-2" data-name="Koza" class="cls-1" d="M189.81,325.92s5.89,46.38-25.9,51V324.79Z"/><path id="Vrat" class="cls-2" d="M138.76,148.45c-5.1,12.81-18.42,22-34.07,22-15.37,0-28.5-8.84-33.8-21.31,4-1.14,12.58-5.35,13.09-20.48h35.3S122.52,152.4,138.76,148.45Z"/><path class="cls-3" d="M0,338.63l51.93-2V197.2s-12-61-30.45-27.88C11.26,231,4.16,282.25,0,338.63Z"/><path class="cls-3" d="M208.42,338.63l-51.94-2V197.2s12-61,30.46-27.88C197.16,231,204.26,282.25,208.42,338.63Z"/><path id="Koza-3" data-name="Koza" class="cls-1" d="M89.92,649.86,59.23,654c3.61-2.34,5.93-4.17,5.93-4.17Z"/><path id="Koza-4" data-name="Koza" class="cls-1" d="M156.64,654,126,649.86h24.77S153,651.69,156.64,654Z"/><path id="cevlje" class="cls-4" d="M89.92,649.86v20.39h-15v-5.82s-33.06,12.16-47.57,9.29c0,0-16.55-2.23,8.86-11.39,19-6.85,22.83-8.27,22.83-8.27l.17,0h0Z"/><path id="cevlje-2" data-name="cevlje" class="cls-4" d="M188.51,673.72c-14.5,2.87-47.57-9.29-47.57-9.29v5.82H126V649.86L156.64,654h0l.17,0s3.83,1.42,22.84,8.27C205.06,671.49,188.51,673.72,188.51,673.72Z"/><path class="cls-5" d="M43.14,307.59c.14-12.11,61.31,48.44,119,0"/><path id="Koza-5" data-name="Koza" class="cls-1" d="M98.16,10.63h8.2a37.7,37.7,0,0,1,37.7,37.7V98.39a41.8,41.8,0,0,1-41.8,41.8h0a41.8,41.8,0,0,1-41.8-41.8V48.33A37.7,37.7,0,0,1,98.16,10.63Z"/><path class="cls-6" d="M90.71,71c.09-8-22.94-8.35-23-.3C67.6,78,90.63,78.26,90.71,71Z"/><path class="cls-6" d="M137,71c.09-8-22.93-8.35-23-.3C113.88,78,136.91,78.26,137,71Z"/><ellipse class="cls-7" cx="78.48" cy="70.55" rx="3.81" ry="4.14"/><ellipse class="cls-7" cx="125.48" cy="70.55" rx="3.81" ry="4.14"/><path id="Oci" class="cls-8" d="M66.25,71.16s9.78-10.67,27.09,0C93.34,71.16,78.29,53.09,66.25,71.16Z"/><path id="Oci-2" data-name="Oci" class="cls-8" d="M112.36,71.16s9.78-10.67,27.09,0C139.45,71.16,124.4,53.09,112.36,71.16Z"/><g id="Nos"><path class="cls-9" d="M104.37,98.39A25.77,25.77,0,0,1,96,96.47l.46-1.1c2.44,1,9.25,3.12,11.48.7.32-.83-.91-7.55-1.9-12.95-2.1-11.49-2.61-15.2-1.7-16a.81.81,0,0,1,.77-.2l-.3,1.16a.35.35,0,0,0,.38-.14c-.53,1,1,9.1,2,15,1.86,10.15,2.29,13.22,1.6,14A5.81,5.81,0,0,1,104.37,98.39Z"/></g><path id="Obrve" class="cls-10" d="M94.05,61.75c-16.86-9.24-24.66-.29-24.74-.2L68,60.43c.35-.42,8.81-10.12,26.91-.2Z"/><path id="Obrve-2" data-name="Obrve" class="cls-10" d="M139,62.93c-16.86-9.24-24.66-.3-24.74-.21L113,61.6c.35-.41,8.81-10.11,26.91-.2Z"/><path id="Lasje" class="cls-10" d="M70.6,48.86c5.19-8,11.87-14.33,20.73-17.15a26.17,26.17,0,0,1,4.16-.9,23.3,23.3,0,0,1,4.26-.15,45.6,45.6,0,0,1,6,.18,48.83,48.83,0,0,1,6,1,26.42,26.42,0,0,1,5.08,1.51c14.11,4.83,19.12,21.14,21.34,35.3.31,1.85.53,3.66.68,5.43.43,1.42.83,2.82,1.21,4.22s.72,2.81,1,4.23c.64,2.84,1.15,5.7,1.58,8.64q.65,3.21,1,6.4c.24,2.12.38,4.23.45,6.35,1.71,11.78-.55,23.42,1.71,35.07,11.28-4.9,15.8-19,15.47-31.39.14-2.59.25-5.21.35-7.75.24-3.18.36-6.35.44-9.45s.16-6.4.14-9.59c-.06-9.56-.62-19-.63-27.43-.4-3.26-.91-6.51-1.56-9.73s-1.41-6.41-2.33-9.57a54,54,0,0,0-4.56-7.49,56.8,56.8,0,0,0-5.52-6.51A67.76,67.76,0,0,0,106.82.71a47,47,0,0,0-19.08.59A49.27,49.27,0,0,0,72.22,8a51.6,51.6,0,0,0-6.72,5.18,50.65,50.65,0,0,0-6,7,64.7,64.7,0,0,0-4.39,7.61c-.65,1.3-1.25,2.63-1.82,4s-1.1,2.71-1.6,4.09c-1.74,8.69-5.08,16.84-5.23,25.86Q46.14,65,46,68.26a169.54,169.54,0,0,0,2.11,32.93c.63,4.92,1.34,9.53,2.06,13.68,2.13,12.46,4.32,20.82,4.32,20.82a17.51,17.51,0,0,0,7.66.07,9.93,9.93,0,0,0,5.44-4.29c1.39-4.16,3.08-9.06,1.56-14.24-.33-2.54-.8-5-1.2-7.18-.31-2.79-.64-5.87-1-9.15-.61-6.14-1.28-12.41-1.58-18.67-.1-2.09-.15-4.18-.13-6.25,1.34-6.12.5-12.46,3.46-19.16A54.48,54.48,0,0,1,70.6,48.86Z"/><path id="Koza-6" data-name="Koza" class="cls-1" d="M143.35,63.91s10.48-3.19,7.43,13.86-7.43,27.6-7.43,27.6Z"/><path id="Koza-7" data-name="Koza" class="cls-1" d="M61.59,65.7s-10.48-3.19-7.43,13.86,7.43,27.6,7.43,27.6Z"/><ellipse id="Uhani" class="cls-11" cx="60.46" cy="103.7" rx="3.31" ry="3.59"/><ellipse id="Uhani-2" data-name="Uhani" class="cls-11" cx="145.65" cy="103.57" rx="3.31" ry="3.59"/><path class="cls-12" d="M121,109.61a15.24,15.24,0,0,1-6.56,8.15c-1.24-5.13-23.8-3.14-23.88-3.13a19,19,0,0,1-3.44-5A87.08,87.08,0,0,0,121,109.61Z"/><path class="cls-13" d="M114.4,117.76h0a19.32,19.32,0,0,1-9.33,2.69,18.06,18.06,0,0,1-14.55-5.82C90.6,114.62,113.16,112.63,114.4,117.76Z"/><polygon class="cls-12" points="90.52 114.63 90.52 114.63 90.52 114.63 90.52 114.63"/><polygon id="Hlace" class="cls-4" points="182.76 333.98 180.76 367.98 151.87 649.86 125.89 649.86 109.44 446.09 89.97 649.86 62.79 649.86 35.76 363.98 31.76 333.98 182.76 333.98"/><path id="Majica" class="cls-11" d="M189.55,168.38c-4.83.58-10.78,7.47-16.38,24.68,0,4.95,2.85,29.09-7.21,43.4-2.17,22.51,14,74.46,16.8,97.55C126,381,35.53,335.64,31.76,334c2.74-22.76,16.93-75.42,14.82-97.64C35.36,221,36,192.4,36,192.4c-5.54-16.71-11.39-23.45-16.16-24C8,167,37.32,147.75,55.41,147.75H70.35q.25.69.54,1.35c5.3,12.47,18.43,21.31,33.8,21.31,15.65,0,29-9.15,34.07-22,.1-.23.19-.47.28-.7H154C172.07,147.75,201.39,167,189.55,168.38Z"/></g></g></svg>