<svg xmlns="http://www.w3.org/2000/svg" xmlns:xlink="http://www.w3.org/1999/xlink" viewBox="0 0 223.67 250"><defs><style>.cls-1,.cls-7{fill:none;stroke-miterlimit:10;}.cls-1{stroke:#c54639;stroke-width:5.67px;}.cls-2{clip-path:url(#clip-path);}.cls-3{fill:#eed1bf;}.cls-4{fill:#fcc5aa;}.cls-5{fill:#d9dceb;}.cls-6{fill:#074368;}.cls-7{stroke:#c1c0da;stroke-width:1.01px;}.cls-8{fill:#c4463a;}.cls-9{fill:#fff;}.cls-10{fill:#524935;}.cls-11{fill:#c9bcdd;}.cls-12{fill:#ebaf89;}.cls-13{fill:#c1c0da;}.cls-14{fill:#200600;}.cls-15{fill:#d55227;}</style><clipPath id="clip-path"><circle id="Krog" class="cls-1" cx="111.83" cy="111.83" r="109"/></clipPath></defs><g id="Layer_2" data-name="Layer 2"><g id="Layer_1-2" data-name="Layer 1"><g class="cls-2"><path id="Koza" class="cls-3" d="M24.59,356.2s-5.88,46.38,25.9,51V355.07Z"/><path id="Koza-2" data-name="Koza" class="cls-3" d="M199,361.38s5.88,46.38-25.9,51V360.25Z"/><path id="Vrat" class="cls-4" d="M148,176.18c-5.1,12.81-18.42,22-34.07,22-15.37,0-28.5-8.84-33.8-21.31,4-1.14,12.58-5.35,13.09-20.48h35.3S131.71,180.13,148,176.18Z"/><path class="cls-5" d="M9.19,374.08l51.93-2V224.93s-12-61-30.45-27.88Q15.34,289.6,9.19,374.08Z"/><path class="cls-5" d="M217.61,374.08l-51.94-2V224.93s12-61,30.46-27.88Q211.46,289.6,217.61,374.08Z"/><path id="Koza-3" data-name="Koza" class="cls-3" d="M99.11,646.13,68.42,650.3c3.61-2.34,5.93-4.17,5.93-4.17Z"/><path id="Koza-4" data-name="Koza" class="cls-3" d="M165.83,650.3l-30.69-4.17h24.77S162.23,648,165.83,650.3Z"/><path id="cevlje" class="cls-6" d="M99.11,646.13v20.39h-15V660.7S51.06,672.86,36.55,670c0,0-16.55-2.23,8.86-11.39,19-6.85,22.83-8.27,22.83-8.27l.17,0h0Z"/><path id="cevlje-2" data-name="cevlje" class="cls-6" d="M197.7,670c-14.5,2.87-47.57-9.29-47.57-9.29v5.82h-15V646.13l30.69,4.17h0l.17,0s3.83,1.42,22.84,8.27C214.25,667.76,197.7,670,197.7,670Z"/><path class="cls-7" d="M52.33,343c.14-12.1,61.31,48.45,119,0"/><polygon id="Hlace" class="cls-6" points="183.8 369.46 183.8 397.4 161.06 646.13 135.08 646.13 118.63 442.36 99.16 646.13 71.98 646.13 50.99 397.4 50.99 369.46 183.8 369.46"/><path id="Majica" class="cls-8" d="M198.74,196.11c-4.83.58-10.78,7.47-16.38,24.68,0,5,2.85,36.81-7.21,51.12-2.17,22.51,5.85,74.46,8.65,97.55-56.74,47-129,1.63-132.81,0,2.74-22.76,6.89-75.42,4.78-97.64-11.22-15.34-10.58-51.69-10.58-51.69-5.54-16.71-11.39-23.45-16.16-24-11.84-1.38,17.48-20.63,35.57-20.63H79.54q.25.69.54,1.35c5.3,12.47,18.43,21.31,33.8,21.31,15.65,0,29-9.15,34.07-22,.1-.23.19-.47.28-.7h14.94C181.26,175.48,210.58,194.73,198.74,196.11Z"/><path id="Koza-5" data-name="Koza" class="cls-3" d="M107.92,39.84h8.2a37.7,37.7,0,0,1,37.7,37.7V127.6A41.8,41.8,0,0,1,112,169.4h0a41.8,41.8,0,0,1-41.8-41.8V77.54a37.7,37.7,0,0,1,37.7-37.7Z"/><path class="cls-9" d="M100.47,100.21c.09-8-22.93-8.35-23-.31C77.36,107.17,100.39,107.47,100.47,100.21Z"/><path class="cls-9" d="M146.76,100.21c.09-8-22.94-8.35-23-.31C123.65,107.17,146.68,107.47,146.76,100.21Z"/><ellipse class="cls-10" cx="88.24" cy="99.76" rx="3.81" ry="4.14"/><ellipse class="cls-10" cx="135.25" cy="99.76" rx="3.81" ry="4.14"/><path id="Oci" class="cls-11" d="M76,100.38s9.79-10.68,27.1,0C103.11,100.38,88.06,82.3,76,100.38Z"/><path id="Oci-2" data-name="Oci" class="cls-11" d="M122.12,100.38s9.79-10.68,27.1,0C149.22,100.38,134.16,82.3,122.12,100.38Z"/><g id="Nos"><path class="cls-12" d="M114.13,127.6a25.7,25.7,0,0,1-8.41-1.91l.46-1.11c2.44,1,9.25,3.13,11.47.7.32-.83-.91-7.55-1.89-12.94-2.1-11.49-2.61-15.21-1.71-16a.8.8,0,0,1,.78-.19l-.3,1.16a.39.39,0,0,0,.38-.14c-.53,1,.94,9.1,2,15,1.86,10.15,2.3,13.22,1.61,14A5.83,5.83,0,0,1,114.13,127.6Z"/></g><path id="Obrve" class="cls-13" d="M103.82,91c-16.86-9.24-24.66-.3-24.74-.2l-1.33-1.12c.35-.42,8.8-10.12,26.91-.21Z"/><path id="Obrve-2" data-name="Obrve" class="cls-13" d="M148.8,92.14c-16.87-9.24-24.67-.29-24.74-.2l-1.33-1.12c.35-.42,8.81-10.12,26.91-.2Z"/><path id="Koza-6" data-name="Koza" class="cls-3" d="M153.11,93.13s10.48-3.19,7.43,13.86-7.43,27.6-7.43,27.6Z"/><path id="Koza-7" data-name="Koza" class="cls-3" d="M71.36,94.91s-10.49-3.18-7.44,13.86,7.44,27.6,7.44,27.6Z"/><ellipse id="Uhani" class="cls-8" cx="70.23" cy="132.91" rx="3.31" ry="3.59"/><ellipse id="Uhani-2" data-name="Uhani" class="cls-8" cx="155.42" cy="132.79" rx="3.31" ry="3.59"/><path class="cls-14" d="M130.73,138.83a15.29,15.29,0,0,1-6.56,8.14c-1.24-5.12-23.81-3.13-23.88-3.12a19.14,19.14,0,0,1-3.44-5A87.28,87.28,0,0,0,130.73,138.83Z"/><path class="cls-15" d="M124.17,147h0a19.17,19.17,0,0,1-9.32,2.69,18,18,0,0,1-14.55-5.81C100.36,143.84,122.93,141.85,124.17,147Z"/><polygon class="cls-14" points="100.29 143.85 100.29 143.85 100.29 143.85 100.29 143.85"/><path id="Lasje" class="cls-13" d="M169.13,66.52H164.9a30,30,0,0,1-6.15,6.8c-6.81,5.5-15.41,7.19-24,5.83-2.49-.38-5.08-1-7.72-1.6-1.57-.39-3.15-.83-4.74-1.28l-4.81-1.4a65.26,65.26,0,0,0-6.42-1.75A61.37,61.37,0,0,0,104.23,72c-5.55-2.45-10.59.07-15.41,2.85a31.87,31.87,0,0,0-3.18,2.57c-2.93,3.89-7.13,6.41-8.37,11.7-.91,1.71-1.74,3.49-2.53,5.29s-1.53,3.64-2.26,5.48c-.46,1.93-.85,3.9-1.18,5.86s-.64,3.91-.92,5.8c0,0-.61-1-1.42-2.75a30,30,0,0,0-1.25-4,45.59,45.59,0,0,1-3.59-4.6,28.5,28.5,0,0,1-4.38-4.63,28.79,28.79,0,0,1-4.35-11.23,33.57,33.57,0,0,1-.47-6.19c1.74-16.18,11-33,26.8-38.79q3-1.27,6-2.27c.61-.2,1.22-.39,1.84-.57a20.6,20.6,0,0,1-.1-2.09,21.2,21.2,0,1,1,42.4,0c0,.71,0,1.41-.1,2.1a75.68,75.68,0,0,1,12.32,4.57,56,56,0,0,1,5.33,2.9A47.58,47.58,0,0,1,169.13,66.52Z"/></g><circle id="Krog-2" data-name="Krog" class="cls-1" cx="111.83" cy="111.83" r="109"/></g></g></svg>