<svg xmlns="http://www.w3.org/2000/svg" xmlns:xlink="http://www.w3.org/1999/xlink" viewBox="0 0 223.67 646.91"><defs><style>.cls-1,.cls-6{fill:none;stroke-miterlimit:10;}.cls-1{stroke:#c54639;stroke-width:5.67px;}.cls-2{clip-path:url(#clip-path);}.cls-3{fill:#eed1bf;}.cls-4{fill:#fcc5aa;}.cls-5{fill:#d9dceb;}.cls-6{stroke:#c1c0da;stroke-width:1.01px;}.cls-7{fill:#074368;}.cls-8{fill:#c4463a;}.cls-9{fill:#fff;}.cls-10{fill:#524935;}.cls-11{fill:#c9bcdd;}.cls-12{fill:#ebaf89;}.cls-13{fill:#c1c0da;}.cls-14{fill:#200600;}.cls-15{fill:#d55227;}</style><clipPath id="clip-path"><circle id="Krog" class="cls-1" cx="111.83" cy="111.83" r="109"/></clipPath></defs><g id="Layer_2" data-name="Layer 2"><g id="Layer_1-2" data-name="Layer 1"><g class="cls-2"><path id="Koza" class="cls-3" d="M24.9,357S19,403.36,50.8,408V355.85Z"/><path id="Koza-2" data-name="Koza" class="cls-3" d="M199.3,362.16s5.89,46.38-25.89,51V361Z"/><path id="Vrat" class="cls-4" d="M148.26,177c-5.1,12.81-18.42,22-34.07,22-15.37,0-28.5-8.84-33.8-21.31,4-1.14,12.58-5.35,13.09-20.48h35.3S132,180.91,148.26,177Z"/><path class="cls-5" d="M9.49,374.86l51.94-2V225.7s-12-61-30.46-27.87Q15.64,290.36,9.49,374.86Z"/><path class="cls-5" d="M217.91,374.86l-51.93-2V225.7s12-61,30.45-27.87Q211.76,290.36,217.91,374.86Z"/><path class="cls-6" d="M52.63,343.82c.14-12.11,61.31,48.44,119,0"/><polygon id="Hlace" class="cls-7" points="184.11 370.24 184.11 398.18 161.37 646.91 135.39 646.91 118.94 443.14 99.47 646.91 72.29 646.91 51.3 398.18 51.3 370.24 184.11 370.24"/><path id="Majica" class="cls-8" d="M199.05,196.89c-4.83.58-10.78,7.47-16.38,24.68,0,5,2.85,36.81-7.21,51.12-2.17,22.51,5.85,74.46,8.65,97.55-56.74,46.95-129,1.63-132.81,0,2.74-22.76,6.89-75.42,4.78-97.64C44.86,257.26,45.5,220.91,45.5,220.91c-5.54-16.71-11.39-23.45-16.16-24-11.84-1.38,17.48-20.63,35.57-20.63H79.85q.25.69.54,1.35c5.3,12.47,18.43,21.31,33.8,21.31,15.65,0,29-9.15,34.07-22,.1-.23.19-.47.28-.7h14.94C181.57,176.26,210.89,195.51,199.05,196.89Z"/><path id="Koza-3" data-name="Koza" class="cls-3" d="M107.74,39.84h8.2a37.7,37.7,0,0,1,37.7,37.7V127.6a41.8,41.8,0,0,1-41.8,41.8h0A41.8,41.8,0,0,1,70,127.6V77.54a37.7,37.7,0,0,1,37.7-37.7Z"/><path class="cls-9" d="M100.29,100.21c.09-8-22.94-8.35-23-.31C77.18,107.17,100.21,107.47,100.29,100.21Z"/><path class="cls-9" d="M146.57,100.21c.09-8-22.94-8.35-23-.31C123.46,107.17,146.49,107.47,146.57,100.21Z"/><ellipse class="cls-10" cx="88.06" cy="99.76" rx="3.81" ry="4.14"/><ellipse class="cls-10" cx="135.06" cy="99.76" rx="3.81" ry="4.14"/><path id="Oci" class="cls-11" d="M75.83,100.38s9.78-10.68,27.09,0C102.92,100.38,87.87,82.3,75.83,100.38Z"/><path id="Oci-2" data-name="Oci" class="cls-11" d="M121.93,100.38s9.79-10.68,27.1,0C149,100.38,134,82.3,121.93,100.38Z"/><g id="Nos"><path class="cls-12" d="M114,127.6a25.86,25.86,0,0,1-8.42-1.91l.46-1.11c2.44,1,9.25,3.13,11.48.7.32-.83-.91-7.55-1.9-12.94-2.1-11.49-2.61-15.21-1.71-16a.8.8,0,0,1,.78-.19l-.3,1.16a.38.38,0,0,0,.38-.14c-.53,1,1,9.1,2,15,1.85,10.15,2.29,13.22,1.6,14A5.81,5.81,0,0,1,114,127.6Z"/></g><path id="Obrve" class="cls-13" d="M103.63,91c-16.86-9.24-24.66-.3-24.74-.2l-1.33-1.12c.35-.42,8.81-10.12,26.91-.21Z"/><path id="Obrve-2" data-name="Obrve" class="cls-13" d="M148.61,92.14c-16.86-9.24-24.66-.29-24.74-.2l-1.33-1.12c.35-.42,8.81-10.12,26.91-.2Z"/><path id="Koza-4" data-name="Koza" class="cls-3" d="M152.93,93.13s10.48-3.19,7.43,13.86-7.43,27.6-7.43,27.6Z"/><path id="Koza-5" data-name="Koza" class="cls-3" d="M70.44,94S60,90.78,63,107.83s7.43,27.6,7.43,27.6Z"/><ellipse id="Uhani" class="cls-8" cx="70.04" cy="132.91" rx="3.31" ry="3.59"/><ellipse id="Uhani-2" data-name="Uhani" class="cls-8" cx="155.23" cy="132.79" rx="3.31" ry="3.59"/><path class="cls-14" d="M130.54,138.83A15.29,15.29,0,0,1,124,147c-1.24-5.12-23.8-3.13-23.88-3.12a19.14,19.14,0,0,1-3.44-5A87.28,87.28,0,0,0,130.54,138.83Z"/><path class="cls-15" d="M124,147h0a19.14,19.14,0,0,1-9.32,2.69,18.06,18.06,0,0,1-14.55-5.81C100.18,143.84,122.74,141.85,124,147Z"/><polygon class="cls-14" points="100.1 143.85 100.1 143.85 100.1 143.85 100.1 143.85"/><path id="Lasje" class="cls-13" d="M68.6,109.8c.25-2.32.57-4.69,1-7A45.65,45.65,0,0,1,75,84.61a33.14,33.14,0,0,1,3.48-5c2.28-1.57,4.06-5.13,6.6-5.92a23.21,23.21,0,0,1,4.19-1.72,28.35,28.35,0,0,1,4.35-1,92.8,92.8,0,0,1,10.91.34,28.71,28.71,0,0,1,9.94,2.76c1.56.46,3.12.92,4.69,1.34a42.1,42.1,0,0,1,5.82-.86,39.39,39.39,0,0,1,5.85,0,16.13,16.13,0,0,1,3,.08,15.58,15.58,0,0,1,2.84.61c4.31,1,6.08,4.55,9.37,6.64.63.77,1.24,1.58,1.82,2.42S149,86,149.55,86.9a40.9,40.9,0,0,1,2.6,5.58,44.28,44.28,0,0,1,1.75,5.67c.53,1.11,1.58,1.11,2.63,1.66,0-1.23.14-2.45.27-3.67s.3-2.43.51-3.63c7.41-7.4,15.49-16.29,14.73-28.06a16.14,16.14,0,0,0-.68-3.15A17.3,17.3,0,0,0,170,58.17a30,30,0,0,0-1.79-2.94c-3.26-4.82-7.84-9.18-12.23-13a28.45,28.45,0,0,1-1.42-3.38,23.17,23.17,0,0,0-1.41-2.3,22.08,22.08,0,0,0-1.63-2.09,21.37,21.37,0,0,0-2.6-2.43,33.52,33.52,0,0,0-11.88-4.55c-1.08-.21-2.16-.37-3.25-.48-8.7-1.48-17.56,3-26.61,1.76-1-.21-2-.45-3-.71s-2-.53-3-.81a24.22,24.22,0,0,0-26.86,4,31.47,31.47,0,0,0-2.34,2.28,29.6,29.6,0,0,0-6.56,11.32c-.59,1-1.21,1.91-1.82,2.86-.59.47-1.17.93-1.77,1.38a68.46,68.46,0,0,1-7.48,5,14.3,14.3,0,0,0-2,2.82,24.92,24.92,0,0,0-1.46,3.27c-.37,1-.71,2.09-1,3.16-2.34,8.57-2,17.84,5,24.32.78.76,1.56,1.5,2.36,2.23,3.93,3.66,8,7.19,8.55,12.53.44,1.56.89,3.09,1.34,4.6C68,108.81,68.6,109.8,68.6,109.8Z"/></g><circle id="Krog-2" data-name="Krog" class="cls-1" cx="111.83" cy="111.83" r="109"/></g></g></svg>