<svg xmlns="http://www.w3.org/2000/svg" xmlns:xlink="http://www.w3.org/1999/xlink" viewBox="0 0 223.67 668.66"><defs><style>.cls-1,.cls-7{fill:none;stroke-miterlimit:10;}.cls-1{stroke:#c54639;stroke-width:5.67px;}.cls-2{clip-path:url(#clip-path);}.cls-3{fill:#eed1bf;}.cls-4{fill:#fcc5aa;}.cls-5{fill:#d9dceb;}.cls-6{fill:#074368;}.cls-7{stroke:#c1c0da;stroke-width:1.01px;}.cls-8{fill:#c4463a;}.cls-9{fill:#fff;}.cls-10{fill:#524935;}.cls-11{fill:#c9bcdd;}.cls-12{fill:#ebaf89;}.cls-13{fill:#c1c0da;}.cls-14{fill:#200600;}.cls-15{fill:#d55227;}</style><clipPath id="clip-path"><circle id="Krog" class="cls-1" cx="111.83" cy="111.83" r="109"/></clipPath></defs><g id="Layer_2" data-name="Layer 2"><g id="Layer_1-2" data-name="Layer 1"><g class="cls-2"><path id="Koza" class="cls-3" d="M24.33,354.43s-5.88,46.38,25.9,51V353.3Z"/><path id="Koza-2" data-name="Koza" class="cls-3" d="M198.74,359.61s5.88,46.38-25.9,51V358.48Z"/><path id="Vrat" class="cls-4" d="M147.69,174.41c-5.1,12.81-18.42,22-34.07,22-15.37,0-28.5-8.84-33.8-21.31,4-1.14,12.58-5.35,13.09-20.48h35.3S131.45,178.36,147.69,174.41Z"/><path class="cls-5" d="M8.93,372.31l51.93-2V223.16s-12-61-30.45-27.88Q15.08,287.82,8.93,372.31Z"/><path class="cls-5" d="M217.35,372.31l-51.94-2V223.16s12-61,30.46-27.88Q211.2,287.82,217.35,372.31Z"/><path id="Koza-3" data-name="Koza" class="cls-3" d="M98.85,644.36l-30.69,4.17c3.61-2.34,5.93-4.17,5.93-4.17Z"/><path id="Koza-4" data-name="Koza" class="cls-3" d="M165.57,648.53l-30.69-4.17h24.77S162,646.19,165.57,648.53Z"/><path id="cevlje" class="cls-6" d="M98.85,644.36v20.39h-15v-5.82s-33.06,12.16-47.57,9.29c0,0-16.55-2.23,8.86-11.39C64.16,650,68,648.56,68,648.56l.17,0h0Z"/><path id="cevlje-2" data-name="cevlje" class="cls-6" d="M197.44,668.22c-14.5,2.87-47.57-9.29-47.57-9.29v5.82h-15V644.36l30.69,4.17h0l.17,0s3.83,1.42,22.84,8.27C214,666,197.44,668.22,197.44,668.22Z"/><path class="cls-7" d="M52.07,341.27c.14-12.11,61.31,48.44,119,0"/><polygon id="Hlace" class="cls-6" points="183.54 367.69 183.54 395.63 160.8 644.36 134.82 644.36 118.37 440.59 98.9 644.36 71.72 644.36 50.73 395.63 50.73 367.69 183.54 367.69"/><path id="Majica" class="cls-8" d="M198.48,194.34c-4.83.58-10.78,7.47-16.38,24.68,0,4.95,2.85,36.81-7.21,51.12-2.17,22.51,5.85,74.46,8.65,97.55-56.74,46.95-129,1.63-132.81,0,2.74-22.76,6.89-75.42,4.78-97.64-11.22-15.34-10.58-51.69-10.58-51.69-5.54-16.71-11.39-23.45-16.16-24C16.93,193,46.25,173.71,64.34,173.71H79.28q.25.69.54,1.35c5.3,12.47,18.43,21.31,33.8,21.31,15.65,0,29-9.15,34.07-22,.1-.23.19-.47.28-.7h14.94C181,173.71,210.32,193,198.48,194.34Z"/><path id="Koza-5" data-name="Koza" class="cls-3" d="M107.48,39.84h8.2a37.7,37.7,0,0,1,37.7,37.7V127.6a41.8,41.8,0,0,1-41.8,41.8h0a41.8,41.8,0,0,1-41.8-41.8V77.54a37.7,37.7,0,0,1,37.7-37.7Z"/><path class="cls-9" d="M100,100.21c.09-8-22.94-8.35-23-.31C76.92,107.17,100,107.47,100,100.21Z"/><path class="cls-9" d="M146.31,100.21c.09-8-22.94-8.35-23-.31C123.2,107.17,146.23,107.47,146.31,100.21Z"/><ellipse class="cls-10" cx="87.8" cy="99.76" rx="3.81" ry="4.14"/><ellipse class="cls-10" cx="134.8" cy="99.76" rx="3.81" ry="4.14"/><path id="Oci" class="cls-11" d="M75.57,100.38s9.78-10.68,27.09,0C102.66,100.38,87.61,82.3,75.57,100.38Z"/><path id="Oci-2" data-name="Oci" class="cls-11" d="M121.67,100.38s9.79-10.68,27.1,0C148.77,100.38,133.72,82.3,121.67,100.38Z"/><g id="Nos"><path class="cls-12" d="M113.69,127.6a25.86,25.86,0,0,1-8.42-1.91l.46-1.11c2.44,1,9.25,3.13,11.48.7.32-.83-.91-7.55-1.9-12.94-2.1-11.49-2.61-15.21-1.71-16a.8.8,0,0,1,.78-.19l-.3,1.16a.38.38,0,0,0,.38-.14c-.53,1,1,9.1,2,15,1.85,10.15,2.29,13.22,1.6,14A5.81,5.81,0,0,1,113.69,127.6Z"/></g><path id="Obrve" class="cls-13" d="M103.37,91c-16.86-9.24-24.66-.3-24.74-.2L77.3,89.65c.35-.42,8.81-10.12,26.91-.21Z"/><path id="Obrve-2" data-name="Obrve" class="cls-13" d="M148.35,92.14c-16.86-9.24-24.66-.29-24.74-.2l-1.33-1.12c.35-.42,8.81-10.12,26.91-.2Z"/><path class="cls-14" d="M130.28,138.83a15.29,15.29,0,0,1-6.56,8.14c-1.24-5.12-23.8-3.13-23.88-3.12a19.14,19.14,0,0,1-3.44-5A87.28,87.28,0,0,0,130.28,138.83Z"/><path class="cls-15" d="M123.72,147h0a19.14,19.14,0,0,1-9.32,2.69,18.06,18.06,0,0,1-14.55-5.81C99.92,143.84,122.48,141.85,123.72,147Z"/><polygon class="cls-14" points="99.84 143.85 99.84 143.85 99.84 143.85 99.84 143.85"/><path id="Lasje" class="cls-13" d="M165.4,191.11s-5.38-1.23-9.24-14C146.71,168,133.64,161,133.64,161c8.05-5,14.52-16.65,18.32-24,.15-6,1-12.53,1.6-19.92,5.8-68.52-40.06-48.7-42-48.56h0c-1.77-.09-46.8-19.69-41.95,48.56.53,7.36,1.8,13.9,2,19.86C76.74,146,87,159.4,87,159.4c-5.51-3.78-12.91,4.31-18.89,13.26-3.82,17-10.4,18.45-10.4,18.45S30.39,19.2,111.58,26.07C192.76,19.2,165.4,191.11,165.4,191.11Z"/><path id="Koza-6" data-name="Koza" class="cls-3" d="M152.67,93.13s10.48-3.19,7.43,13.86-7.43,27.6-7.43,27.6Z"/><path id="Koza-7" data-name="Koza" class="cls-3" d="M71.65,95.6s-10.48-3.19-7.43,13.86,7.43,27.6,7.43,27.6Z"/><ellipse id="Uhani" class="cls-8" cx="69.78" cy="132.91" rx="3.31" ry="3.59"/><ellipse id="Uhani-2" data-name="Uhani" class="cls-8" cx="154.97" cy="132.79" rx="3.31" ry="3.59"/></g><circle id="Krog-2" data-name="Krog" class="cls-1" cx="111.83" cy="111.83" r="109"/></g></g></svg>