<svg xmlns="http://www.w3.org/2000/svg" xmlns:xlink="http://www.w3.org/1999/xlink" viewBox="0 0 223.67 678.24"><defs><style>.cls-1,.cls-7{fill:none;stroke-miterlimit:10;}.cls-1{stroke:#c54639;stroke-width:5.67px;}.cls-2{clip-path:url(#clip-path);}.cls-3{fill:#eed1bf;}.cls-4{fill:#fcc5aa;}.cls-5{fill:#d9dceb;}.cls-6{fill:#074368;}.cls-7{stroke:#c1c0da;stroke-width:1.01px;}.cls-8{fill:#fff;}.cls-9{fill:#524935;}.cls-10{fill:#c9bcdd;}.cls-11{fill:#ebaf89;}.cls-12{fill:#bbb7dc;}.cls-13{fill:#c4463a;}.cls-14{fill:#200600;}.cls-15{fill:#d55227;}</style><clipPath id="clip-path"><circle id="Krog" class="cls-1" cx="111.83" cy="111.83" r="109"/></clipPath></defs><g id="Layer_2" data-name="Layer 2"><g id="Layer_1-2" data-name="Layer 1"><g class="cls-2"><path id="Koza" class="cls-3" d="M24.59,364s-5.88,46.38,25.9,51V362.88Z"/><path id="Koza-2" data-name="Koza" class="cls-3" d="M199,369.19s5.88,46.38-25.9,51V368.06Z"/><path id="Vrat" class="cls-4" d="M148,184c-5.1,12.81-18.42,22-34.07,22-15.37,0-28.5-8.84-33.8-21.31,4-1.14,12.58-5.35,13.09-20.48h35.3S131.71,187.94,148,184Z"/><path class="cls-5" d="M9.19,381.89l51.93-2V232.74s-12-61-30.45-27.88Q15.34,297.41,9.19,381.89Z"/><path class="cls-5" d="M217.61,381.89l-51.94-2V232.74s12-61,30.46-27.88Q211.46,297.41,217.61,381.89Z"/><path id="Koza-3" data-name="Koza" class="cls-3" d="M99.11,653.94l-30.69,4.17c3.61-2.34,5.93-4.17,5.93-4.17Z"/><path id="Koza-4" data-name="Koza" class="cls-3" d="M165.83,658.11l-30.69-4.17h24.77S162.23,655.77,165.83,658.11Z"/><path id="cevlje" class="cls-6" d="M99.11,653.94v20.39h-15v-5.82s-33.06,12.16-47.57,9.29c0,0-16.55-2.23,8.86-11.39,19-6.85,22.83-8.27,22.83-8.27l.17,0h0Z"/><path id="cevlje-2" data-name="cevlje" class="cls-6" d="M197.7,677.8c-14.5,2.87-47.57-9.29-47.57-9.29v5.82h-15V653.94l30.69,4.17h0l.17,0s3.83,1.42,22.84,8.27C214.25,675.57,197.7,677.8,197.7,677.8Z"/><path class="cls-7" d="M52.33,350.85c.14-12.1,61.31,48.45,119,0"/><path id="Koza-5" data-name="Koza" class="cls-3" d="M107.35,46.17h8.2a37.7,37.7,0,0,1,37.7,37.7v50.06a41.8,41.8,0,0,1-41.8,41.8h0a41.8,41.8,0,0,1-41.8-41.8V83.87a37.7,37.7,0,0,1,37.7-37.7Z"/><path class="cls-8" d="M99.9,106.53c.09-8-22.94-8.35-23-.3C76.79,113.5,99.81,113.8,99.9,106.53Z"/><path class="cls-8" d="M146.18,106.53c.09-8-22.94-8.35-23-.3C123.07,113.5,146.1,113.8,146.18,106.53Z"/><ellipse class="cls-9" cx="87.67" cy="106.09" rx="3.81" ry="4.14"/><ellipse class="cls-9" cx="134.67" cy="106.09" rx="3.81" ry="4.14"/><path id="Oci" class="cls-10" d="M75.44,106.7s9.78-10.67,27.09,0C102.53,106.7,87.48,88.63,75.44,106.7Z"/><path id="Oci-2" data-name="Oci" class="cls-10" d="M121.54,106.7s9.79-10.67,27.1,0C148.64,106.7,133.59,88.63,121.54,106.7Z"/><g id="Nos"><path class="cls-11" d="M113.55,133.93a25.85,25.85,0,0,1-8.41-1.91l.46-1.11c2.44,1,9.25,3.13,11.48.7.31-.83-.91-7.55-1.9-13-2.1-11.49-2.61-15.2-1.71-16a.83.83,0,0,1,.78-.2l-.3,1.16a.36.36,0,0,0,.38-.13c-.53,1,1,9.09,2,15,1.85,10.15,2.29,13.22,1.6,14A5.82,5.82,0,0,1,113.55,133.93Z"/></g><path id="Obrve" class="cls-12" d="M103.24,97.3c-16.86-9.24-24.66-.3-24.74-.21L77.17,96c.35-.41,8.81-10.12,26.91-.2Z"/><path id="Obrve-2" data-name="Obrve" class="cls-12" d="M148.22,98.47c-16.86-9.24-24.66-.29-24.74-.2l-1.33-1.12c.35-.42,8.81-10.12,26.91-.21Z"/><path id="Lasje" class="cls-12" d="M79.78,84.41c5.2-8,11.88-14.34,20.74-17.16a25.08,25.08,0,0,1,4.16-.89,23.19,23.19,0,0,1,4.25-.16,45.7,45.7,0,0,1,6,.18,47.3,47.3,0,0,1,6,1,26.64,26.64,0,0,1,5.08,1.51c14.11,4.83,19.12,21.13,21.34,35.29.31,1.85.52,3.67.68,5.44.43,1.41.83,2.81,1.21,4.21s.72,2.82,1,4.23c.63,2.84,1.15,5.71,1.58,8.64q.65,3.23,1,6.4t.45,6.36c1.7,11.77-.55,23.42,1.7,35.06,11.29-4.9,15.81-19,15.47-31.39.15-2.59.26-5.21.36-7.75.23-3.18.36-6.35.44-9.44s.16-6.4.14-9.6c-.06-9.56-.62-19-.63-27.43-.4-3.26-.92-6.51-1.56-9.73s-1.42-6.41-2.33-9.56a54.9,54.9,0,0,0-10.08-14A67.51,67.51,0,0,0,116,36.26a46.5,46.5,0,0,0-19.08.59,48.92,48.92,0,0,0-15.52,6.67,52.49,52.49,0,0,0-6.72,5.18,51.42,51.42,0,0,0-6,7,67.79,67.79,0,0,0-4.38,7.61c-.65,1.31-1.26,2.64-1.83,4s-1.1,2.72-1.59,4.09C59.12,80,55.78,88.19,55.63,97.21c-.21,2.19-.35,4.39-.44,6.59a168.71,168.71,0,0,0,2.11,32.93c.63,4.92,1.34,9.53,2.05,13.69,2.14,12.46,4.33,20.81,4.33,20.81a17.34,17.34,0,0,0,7.66.07A9.93,9.93,0,0,0,76.78,167c1.39-4.15,3.08-9.06,1.56-14.24-.33-2.54-.8-5-1.2-7.18-.31-2.78-.64-5.87-1-9.15-.61-6.14-1.28-12.41-1.58-18.67-.1-2.09-.16-4.18-.13-6.25,1.33-6.12.5-12.46,3.45-19.16A57,57,0,0,1,79.78,84.41Z"/><path id="Koza-6" data-name="Koza" class="cls-3" d="M152.53,99.45S163,96.27,160,113.31s-7.43,27.6-7.43,27.6Z"/><path id="Koza-7" data-name="Koza" class="cls-3" d="M70.78,101.24s-10.49-3.19-7.43,13.86,7.43,27.6,7.43,27.6Z"/><ellipse id="Uhani" class="cls-13" cx="69.65" cy="139.24" rx="3.31" ry="3.59"/><ellipse id="Uhani-2" data-name="Uhani" class="cls-13" cx="154.84" cy="139.11" rx="3.31" ry="3.59"/><path class="cls-14" d="M130.15,145.15a15.3,15.3,0,0,1-6.56,8.15c-1.24-5.13-23.8-3.13-23.88-3.13a19,19,0,0,1-3.44-5A87.09,87.09,0,0,0,130.15,145.15Z"/><path class="cls-15" d="M123.59,153.3h0a19.28,19.28,0,0,1-9.32,2.69,18.06,18.06,0,0,1-14.55-5.82C99.79,150.17,122.35,148.17,123.59,153.3Z"/><polygon class="cls-14" points="99.71 150.17 99.71 150.17 99.71 150.17 99.71 150.17"/><polygon id="Hlace" class="cls-6" points="183.8 377.27 183.8 405.21 161.06 653.94 135.08 653.94 118.63 450.17 99.16 653.94 71.98 653.94 50.99 405.21 50.99 377.27 183.8 377.27"/><path id="Majica" class="cls-13" d="M198.74,203.92c-4.83.58-10.78,7.47-16.38,24.68,0,5,2.85,36.81-7.21,51.12-2.17,22.51,5.85,74.46,8.65,97.55-56.74,47-129,1.63-132.81,0,2.74-22.76,6.89-75.42,4.78-97.64-11.22-15.34-10.58-51.69-10.58-51.69-5.54-16.71-11.39-23.45-16.16-24-11.84-1.38,17.48-20.63,35.57-20.63H79.54q.25.69.54,1.35c5.3,12.47,18.43,21.31,33.8,21.31,15.65,0,29-9.15,34.07-22,.1-.23.19-.47.28-.7h14.94C181.26,183.29,210.58,202.54,198.74,203.92Z"/></g><circle id="Krog-2" data-name="Krog" class="cls-1" cx="111.83" cy="111.83" r="109"/></g></g></svg>