<svg xmlns="http://www.w3.org/2000/svg" viewBox="0 0 277.84 621.04"><defs><style>.cls-1{fill:#fcc5aa;}.cls-2{fill:#dce6e0;}.cls-3{fill:#d9dceb;}.cls-4{fill:#eed1bf;}.cls-5{fill:#fff;}.cls-6{fill:#524935;}.cls-7{fill:#ebaf88;}.cls-8{fill:#ffebc6;}.cls-9{fill:#ffe6b4;}.cls-10{fill:#301812;}.cls-11{fill:#d55227;}.cls-12{fill:#00a881;}.cls-13{fill:none;stroke:#499086;stroke-miterlimit:10;stroke-width:0.95px;}.cls-14{fill:#017dad;}.cls-15{fill:#44515d;}.cls-16{fill:#499086;}</style></defs><g id="Layer_2" data-name="Layer 2"><g id="Layer_1-2" data-name="Layer 1"><path id="Vrat" class="cls-1" d="M184,144.82l-.21.53c-5.49,13.54-20,23.2-37.1,23.2-17.29,0-32-9.91-37.3-23.71h-.15a18.31,18.31,0,0,0,12.53-7.4,18,18,0,0,0,2-3.72,25.58,25.58,0,0,0,1.79-8.83H164a36.91,36.91,0,0,0,1.89,8.82c1.18,3.37,3.09,6.95,6.14,9.24C174.87,145.11,178.86,146.12,184,144.82Z"/><ellipse class="cls-2" cx="138.92" cy="605.21" rx="138.92" ry="15.83"/><path class="cls-3" d="M259.18,356.35l-48.77-2.13v-157s11.28-65,28.6-29.73Q253.41,266.25,259.18,356.35Z"/><path id="Koza" class="cls-4" d="M200.83,74.32a133.55,133.55,0,0,1-7.42,25.57A49.25,49.25,0,0,1,96,98a155.45,155.45,0,0,1-6.64-24.12c-2.46-12.67,3.11-14.27,6.23-14.23V56.69A44.43,44.43,0,0,1,140,12.26h9.66a44.43,44.43,0,0,1,44.43,44.43v4.42C196.6,60.81,203.39,61.12,200.83,74.32Z"/><path class="cls-5" d="M134.2,67.94c.09-7.58-23.45-7.86-23.54-.29C110.57,74.5,134.11,74.78,134.2,67.94Z"/><path class="cls-5" d="M181.51,67.94c.09-7.58-23.45-7.86-23.54-.29C157.89,74.5,181.43,74.78,181.51,67.94Z"/><circle class="cls-6" cx="121.69" cy="67.52" r="3.89"/><circle class="cls-6" cx="169.74" cy="67.52" r="3.89"/><path id="Oci" class="cls-7" d="M109.19,68.1s10-10,27.7,0C136.89,68.1,121.5,51.08,109.19,68.1Z"/><path id="Oci-2" data-name="Oci" class="cls-7" d="M156.33,68.1s10-10,27.69,0C184,68.1,168.63,51.08,156.33,68.1Z"/><path id="Brki" class="cls-8" d="M165,105.35H127c1.23-4.43,4.25-8,9.5-10.49h4.36c1.25.59,8.06,3.63,10.44.49a1.07,1.07,0,0,0,.12-.49h3.62C160.2,97.83,163.65,101.29,165,105.35Z"/><path class="cls-4" d="M148.34,64.61l-.4,1.56C147.92,65.1,148,64.52,148.34,64.61Z"/><path id="Nos" class="cls-7" d="M147.87,97.32a19.66,19.66,0,0,1-7.44-2l.52-1c2.11,1.07,8,3.28,9.92.75.32-.84-.77-8-1.64-13.82-1.86-12.28-2.3-16.23-1.43-17a.73.73,0,0,1,.71-.14l-.34,1.1a.4.4,0,0,0,.44-.15c-.5,1,.8,9.67,1.76,16,1.62,10.7,2,13.93,1.42,14.69A4.65,4.65,0,0,1,147.87,97.32Z"/><g id="Obrve"><path class="cls-9" d="M137.39,59.81c-16.77-8.46-24.37-.64-24.69-.31l-2.12-2c.37-.4,9.28-9.82,28.11-.31Z"/></g><g id="Obrve-2" data-name="Obrve"><g id="Obrve-3" data-name="Obrve"><path id="Obrve-4" data-name="Obrve" class="cls-9" d="M183.37,60.92c-16.9-8.53-24.6-.4-24.68-.32l-2.13-1.94c.37-.41,9.28-9.83,28.11-.32Z"/></g></g><path class="cls-10" d="M165,105.36a21.69,21.69,0,0,1-7.35,10.91c-1.38-6.87-26.65-4.2-26.73-4.19a31.85,31.85,0,0,1-3.86-6.72Z"/><path class="cls-11" d="M157.62,116.27h0a19,19,0,0,1-10.44,3.6c-7.92.47-13.15-3.77-16.29-7.79C131,112.07,156.24,109.4,157.62,116.27Z"/><polygon class="cls-10" points="130.89 112.08 130.89 112.08 130.89 112.08 130.89 112.08"/><polygon class="cls-5" points="127.03 105.36 128.11 107.75 164.16 107.75 164.97 105.36 127.03 105.36"/><path id="Lasje" class="cls-8" d="M103.19,71.42s-3.33-24.54,7.49-34.2A14.38,14.38,0,0,1,114,35a10.85,10.85,0,0,1,2.18-.77c4-1.14,8.65-.56,12.82-.3l3.12.32c19.3,2.1,29.26,5.74,29.26,5.74s5.78-5.55-3.75-8.63,15.48-.38,22,13.27a93.13,93.13,0,0,1,8,26.81l5.6,1.51s14.88-38.55-2.82-51.8c-9.7-7.27-21.71-16.44-33.59-19.74a35.63,35.63,0,0,0-3.56-.8,29,29,0,0,0-3.18-.46A30.72,30.72,0,0,0,146.9,0a27,27,0,0,0-6.45.56c-1.1.25-2.17.56-3.22.91s-2.07.75-3.07,1.18c-9.91,5-18.57,13.09-29.47,15.75-1,.31-2.08.66-3.06,1-4.93,1.94-8.85,4.92-9.18,11.16-.25,1-.45,1.92-.61,2.9a25.38,25.38,0,0,0-.22,5.9c0,.73.08,1.46.08,2.22C91.65,49.88,94.2,60.1,103.19,71.42Z"/><path class="cls-3" d="M34.27,356.35,83,354.22v-157s-11.28-65-28.6-29.73Q40,266.25,34.27,356.35Z"/><path id="Pulover" class="cls-12" d="M238.89,166.41l-.41.06c-5.35.94-11.87,8.69-17.95,27.46V366.78H72.92V193.93c-6.09-18.77-12.6-26.52-18-27.46l-.41-.06c-12.85-1.45,19-21.59,38.64-21.59h16.22c5.33,13.8,20,23.71,37.3,23.71,17.08,0,31.61-9.66,37.1-23.2.08-.17.14-.34.21-.51h16.22C219.9,144.82,251.74,165,238.89,166.41Z"/><line id="Zadrga" class="cls-13" x1="146.73" y1="366.81" x2="146.73" y2="168.56"/><polygon id="Hlace" class="cls-14" points="220.4 366.43 220.4 405.47 197.23 575.49 168.41 583.5 146.99 405.47 146.73 405.47 122.34 583.5 122.23 583.5 93.48 575.51 72.92 405.47 72.92 366.43 220.4 366.43"/><path id="Koza-2" data-name="Koza" class="cls-4" d="M48.6,355.69s-5.53,43.56,24.32,47.93v-49Z"/><path id="Koza-3" data-name="Koza" class="cls-4" d="M244.72,355.75s5.53,43.56-24.32,47.93v-49Z"/><path class="cls-15" d="M240.49,605.05H168.41V583.5l28.82-10.22s0,.05,0,.08c-1.25,12.27,9.29,14.13,9.29,14.13C250,583.45,240.49,605.05,240.49,605.05Z"/><path class="cls-15" d="M122.23,583.5v21.55H50.15s-9.51-21.6,34-17.56c0,0,10.59-1.87,9.27-14.21l.08,0Z"/><circle id="Gumb" class="cls-16" cx="159.1" cy="205.05" r="3.72"/><circle id="Gumb-2" data-name="Gumb" class="cls-16" cx="134.74" cy="205.05" r="3.72"/><circle id="Gumb-3" data-name="Gumb" class="cls-16" cx="159.1" cy="233.1" r="3.72"/><circle id="Gumb-4" data-name="Gumb" class="cls-16" cx="134.74" cy="233.1" r="3.72"/><circle id="Gumb-5" data-name="Gumb" class="cls-16" cx="159.1" cy="261.14" r="3.72"/><circle id="Gumb-6" data-name="Gumb" class="cls-16" cx="134.74" cy="261.14" r="3.72"/><circle id="Gumb-7" data-name="Gumb" class="cls-16" cx="159.1" cy="289.18" r="3.72"/><circle id="Gumb-8" data-name="Gumb" class="cls-16" cx="134.74" cy="289.18" r="3.72"/><circle id="Gumb-9" data-name="Gumb" class="cls-16" cx="159.1" cy="317.22" r="3.72"/><circle id="Gumb-10" data-name="Gumb" class="cls-16" cx="134.74" cy="317.22" r="3.72"/></g></g></svg>