<svg xmlns="http://www.w3.org/2000/svg" viewBox="0 0 208.42 627.97"><defs><style>.cls-1{fill:#eed1bf;}.cls-2{fill:#fcc5aa;}.cls-3{fill:#d9dceb;}.cls-4{fill:#074368;}.cls-5{fill:none;stroke:#c1c0da;stroke-miterlimit:10;stroke-width:1.01px;}.cls-6{fill:#c4463a;}.cls-7{fill:#fff;}.cls-8{fill:#524935;}.cls-9{fill:#c9bcdd;}.cls-10{fill:#ebaf89;}.cls-11{fill:#c1c0da;}.cls-12{fill:#200600;}.cls-13{fill:#d55227;}</style></defs><g id="Layer_2" data-name="Layer 2"><g id="Layer_1-2" data-name="Layer 1"><path id="Koza" class="cls-1" d="M15.41,346.44s-5.89,46.38,25.89,51V345.31Z"/><path id="Koza-2" data-name="Koza" class="cls-1" d="M189.81,351.61s5.89,46.38-25.9,51V350.48Z"/><path id="Vrat" class="cls-2" d="M138.76,166.42c-5.1,12.81-18.42,22-34.07,22-15.37,0-28.5-8.84-33.8-21.31,4-1.14,12.58-5.35,13.09-20.48h35.3S122.52,170.37,138.76,166.42Z"/><path class="cls-3" d="M0,364.32l51.93-2V215.16s-12-61-30.45-27.87Q6.15,279.83,0,364.32Z"/><path class="cls-3" d="M208.42,364.32l-51.94-2V215.16s12-61,30.46-27.87Q202.27,279.83,208.42,364.32Z"/><path id="Koza-3" data-name="Koza" class="cls-1" d="M89.92,603.68l-30.69,4.17c3.61-2.34,5.93-4.17,5.93-4.17Z"/><path id="Koza-4" data-name="Koza" class="cls-1" d="M156.64,607.85,126,603.68h24.77S153,605.51,156.64,607.85Z"/><path id="cevlje" class="cls-4" d="M89.92,603.68v20.39h-15v-5.82s-33.06,12.16-47.57,9.29c0,0-16.55-2.23,8.86-11.39,19-6.85,22.83-8.27,22.83-8.27l.17,0h0Z"/><path id="cevlje-2" data-name="cevlje" class="cls-4" d="M188.51,627.54c-14.5,2.87-47.57-9.29-47.57-9.29v5.82H126V603.68l30.69,4.17h0l.17,0s3.83,1.42,22.84,8.27C205.06,625.31,188.51,627.54,188.51,627.54Z"/><path class="cls-5" d="M43.14,333.28c.14-12.11,61.31,48.44,119,0"/><polygon id="Hlace" class="cls-4" points="174.61 359.7 174.61 387.64 151.87 603.68 125.89 603.68 109.44 432.6 89.97 603.68 62.79 603.68 41.8 387.64 41.8 359.7 174.61 359.7"/><path id="Majica" class="cls-6" d="M189.55,186.35c-4.83.58-10.78,7.47-16.38,24.68,0,4.95,2.85,36.81-7.21,51.12-2.17,22.51,5.85,74.46,8.65,97.55-56.74,46.95-129,1.63-132.81,0,2.74-22.76,6.89-75.42,4.78-97.64C35.36,246.72,36,210.37,36,210.37c-5.54-16.71-11.39-23.45-16.16-24C8,185,37.32,165.72,55.41,165.72H70.35q.25.69.54,1.35c5.3,12.47,18.43,21.31,33.8,21.31,15.65,0,29-9.15,34.07-22,.1-.23.19-.47.28-.7H154C172.07,165.72,201.39,185,189.55,186.35Z"/><path id="Koza-5" data-name="Koza" class="cls-1" d="M98.55,26.6h8.2a37.7,37.7,0,0,1,37.7,37.7v50.06a41.8,41.8,0,0,1-41.8,41.8h0a41.8,41.8,0,0,1-41.8-41.8V64.3a37.7,37.7,0,0,1,37.7-37.7Z"/><path class="cls-7" d="M91.1,87c.09-8-22.94-8.35-23-.31C68,93.93,91,94.24,91.1,87Z"/><path class="cls-7" d="M137.39,87c.09-8-22.94-8.35-23-.31C114.27,93.93,137.3,94.24,137.39,87Z"/><ellipse class="cls-8" cx="78.87" cy="86.52" rx="3.81" ry="4.14"/><ellipse class="cls-8" cx="125.87" cy="86.52" rx="3.81" ry="4.14"/><path id="Oci" class="cls-9" d="M66.64,87.14s9.78-10.67,27.09,0C93.73,87.14,78.68,69.06,66.64,87.14Z"/><path id="Oci-2" data-name="Oci" class="cls-9" d="M112.75,87.14s9.78-10.67,27.09,0C139.84,87.14,124.79,69.06,112.75,87.14Z"/><g id="Nos"><path class="cls-10" d="M104.76,114.36a25.86,25.86,0,0,1-8.42-1.91l.46-1.11c2.44,1,9.25,3.13,11.48.7.32-.83-.91-7.54-1.9-12.94-2.1-11.49-2.61-15.2-1.7-16a.8.8,0,0,1,.77-.19l-.3,1.16a.37.37,0,0,0,.38-.14c-.53,1,1,9.1,2,15,1.86,10.16,2.29,13.22,1.6,14A5.8,5.8,0,0,1,104.76,114.36Z"/></g><path id="Obrve" class="cls-11" d="M94.44,77.73c-16.86-9.24-24.66-.29-24.74-.2l-1.33-1.12c.35-.42,8.81-10.12,26.91-.21Z"/><path id="Obrve-2" data-name="Obrve" class="cls-11" d="M139.42,78.9c-16.86-9.24-24.66-.29-24.74-.2l-1.33-1.12c.35-.42,8.81-10.12,26.91-.2Z"/><path id="Koza-6" data-name="Koza" class="cls-1" d="M143.74,79.89s10.48-3.19,7.43,13.86-7.43,27.6-7.43,27.6Z"/><path id="Koza-7" data-name="Koza" class="cls-1" d="M62,81.67S51.5,78.49,54.55,95.54,62,123.14,62,123.14Z"/><ellipse id="Uhani" class="cls-6" cx="60.85" cy="119.67" rx="3.31" ry="3.59"/><ellipse id="Uhani-2" data-name="Uhani" class="cls-6" cx="146.05" cy="119.55" rx="3.31" ry="3.59"/><path class="cls-12" d="M121.35,125.59a15.23,15.23,0,0,1-6.56,8.14c-1.24-5.12-23.8-3.13-23.88-3.12a19.27,19.27,0,0,1-3.44-5A87.28,87.28,0,0,0,121.35,125.59Z"/><path class="cls-13" d="M114.79,133.73h0a19.21,19.21,0,0,1-9.33,2.7,18.09,18.09,0,0,1-14.55-5.82C91,130.6,113.55,128.61,114.79,133.73Z"/><polygon class="cls-12" points="90.91 130.61 90.91 130.61 90.91 130.61 90.91 130.61"/><path id="Lasje" class="cls-11" d="M159.76,53.28h-4.23a30.23,30.23,0,0,1-6.15,6.8c-6.82,5.5-15.42,7.19-24,5.83-2.49-.37-5.09-1-7.73-1.6q-2.36-.59-4.74-1.28l-4.8-1.39c-2-.68-4.2-1.26-6.42-1.76a64.2,64.2,0,0,0-6.82-1.12c-5.56-2.45-10.6.07-15.41,2.85a31,31,0,0,0-3.18,2.57c-2.93,3.89-7.14,6.42-8.38,11.7-.91,1.72-1.74,3.49-2.52,5.3s-1.54,3.63-2.26,5.47c-.46,1.93-.85,3.91-1.19,5.86s-.64,3.91-.91,5.8a28.67,28.67,0,0,1-1.42-2.75,31.54,31.54,0,0,0-1.26-4A44.42,44.42,0,0,1,54.75,87a27.66,27.66,0,0,1-4.38-4.63A28.65,28.65,0,0,1,46,71.11a33.57,33.57,0,0,1-.47-6.19c1.74-16.18,11-33,26.8-38.79q3-1.27,6-2.27c.62-.2,1.22-.39,1.84-.57-.06-.69-.1-1.38-.1-2.09a21.2,21.2,0,0,1,42.4,0,20.8,20.8,0,0,1-.1,2.1,75.33,75.33,0,0,1,12.32,4.57,57.37,57.37,0,0,1,5.34,2.9A47.68,47.68,0,0,1,159.76,53.28Z"/></g></g></svg>