<svg xmlns="http://www.w3.org/2000/svg" viewBox="0 0 208.42 612.29"><defs><style>.cls-1{fill:#eed1bf;}.cls-2{fill:#fcc5aa;}.cls-3{fill:#d9dceb;}.cls-4{fill:#074368;}.cls-5{fill:none;stroke:#c1c0da;stroke-miterlimit:10;stroke-width:1.01px;}.cls-6{fill:#c4463a;}.cls-7{fill:#fff;}.cls-8{fill:#524935;}.cls-9{fill:#c9bcdd;}.cls-10{fill:#ebaf89;}.cls-11{fill:#c1c0da;}.cls-12{fill:#200600;}.cls-13{fill:#d55227;}</style></defs><g id="Layer_2" data-name="Layer 2"><g id="Layer_1-2" data-name="Layer 1"><path id="Koza" class="cls-1" d="M15.41,330.75s-5.89,46.39,25.89,51V329.62Z"/><path id="Koza-2" data-name="Koza" class="cls-1" d="M189.81,335.93s5.89,46.38-25.9,51V334.8Z"/><path id="Vrat" class="cls-2" d="M138.76,150.74c-5.1,12.81-18.42,22-34.07,22-15.37,0-28.5-8.84-33.8-21.31,4-1.14,12.58-5.35,13.09-20.48h35.3S122.52,154.69,138.76,150.74Z"/><path class="cls-3" d="M0,348.64l51.93-2V199.48s-12-61-30.45-27.87Q6.15,264.15,0,348.64Z"/><path class="cls-3" d="M208.42,348.64l-51.94-2V199.48s12-61,30.46-27.87Q202.27,264.15,208.42,348.64Z"/><path id="Koza-3" data-name="Koza" class="cls-1" d="M89.92,588l-30.69,4.17c3.61-2.34,5.93-4.17,5.93-4.17Z"/><path id="Koza-4" data-name="Koza" class="cls-1" d="M156.64,592.17,126,588h24.77S153,589.83,156.64,592.17Z"/><path id="cevlje" class="cls-4" d="M89.92,588v20.39h-15v-5.82s-33.06,12.16-47.57,9.29c0,0-16.55-2.23,8.86-11.39,19-6.85,22.83-8.27,22.83-8.27l.17,0h0Z"/><path id="cevlje-2" data-name="cevlje" class="cls-4" d="M188.51,611.86c-14.5,2.87-47.57-9.29-47.57-9.29v5.82H126V588l30.69,4.17h0l.17,0s3.83,1.42,22.84,8.27C205.06,609.63,188.51,611.86,188.51,611.86Z"/><path class="cls-5" d="M43.14,317.6c.14-12.11,61.31,48.44,119,0"/><polygon id="Hlace" class="cls-4" points="174.61 344.02 174.61 371.96 151.87 588 125.89 588 109.44 416.92 89.97 588 62.79 588 41.8 371.96 41.8 344.02 174.61 344.02"/><path id="Majica" class="cls-6" d="M189.55,170.67c-4.83.58-10.78,7.47-16.38,24.68,0,5,2.85,36.81-7.21,51.12-2.17,22.51,5.85,74.46,8.65,97.55-56.74,47-129,1.63-132.81,0,2.74-22.76,6.89-75.42,4.78-97.64C35.36,231,36,194.69,36,194.69c-5.54-16.71-11.39-23.45-16.16-24C8,169.29,37.32,150,55.41,150H70.35q.25.69.54,1.35c5.3,12.47,18.43,21.31,33.8,21.31,15.65,0,29-9.15,34.07-22,.1-.23.19-.47.28-.7H154C172.07,150,201.39,169.29,189.55,170.67Z"/><path id="Koza-5" data-name="Koza" class="cls-1" d="M99.25,14h8.2a37.7,37.7,0,0,1,37.7,37.7v50.06a41.8,41.8,0,0,1-41.8,41.8h0a41.8,41.8,0,0,1-41.8-41.8V51.67A37.7,37.7,0,0,1,99.25,14Z"/><path class="cls-7" d="M91.8,74.34c.09-8-22.93-8.36-23-.31C68.69,81.3,91.72,81.6,91.8,74.34Z"/><path class="cls-7" d="M138.09,74.34c.09-8-22.94-8.36-23-.31C115,81.3,138,81.6,138.09,74.34Z"/><ellipse class="cls-8" cx="79.57" cy="73.89" rx="3.81" ry="4.14"/><ellipse class="cls-8" cx="126.58" cy="73.89" rx="3.81" ry="4.14"/><path id="Oci" class="cls-9" d="M67.34,74.5s9.79-10.67,27.1,0C94.44,74.5,79.39,56.43,67.34,74.5Z"/><path id="Oci-2" data-name="Oci" class="cls-9" d="M113.45,74.5s9.79-10.67,27.1,0C140.55,74.5,125.49,56.43,113.45,74.5Z"/><g id="Nos"><path class="cls-10" d="M105.46,101.73a25.7,25.7,0,0,1-8.41-1.91l.46-1.11c2.44,1,9.24,3.13,11.47.7.32-.83-.91-7.55-1.89-13-2.11-11.49-2.61-15.2-1.71-16a.8.8,0,0,1,.78-.19l-.3,1.16a.39.39,0,0,0,.38-.14c-.53,1,.94,9.09,2,15,1.86,10.15,2.3,13.22,1.61,14A5.83,5.83,0,0,1,105.46,101.73Z"/></g><path id="Obrve" class="cls-11" d="M95.15,65.1c-16.86-9.24-24.67-.3-24.74-.21l-1.33-1.12c.35-.41,8.8-10.12,26.91-.2Z"/><path id="Obrve-2" data-name="Obrve" class="cls-11" d="M140.13,66.27c-16.87-9.24-24.67-.29-24.74-.2L114.06,65c.35-.42,8.81-10.12,26.9-.2Z"/><path class="cls-12" d="M122.06,113a15.29,15.29,0,0,1-6.56,8.14C114.26,116,91.69,118,91.62,118a19.14,19.14,0,0,1-3.44-5A87.28,87.28,0,0,0,122.06,113Z"/><path class="cls-13" d="M115.5,121.1h0a19.28,19.28,0,0,1-9.32,2.69A18.07,18.07,0,0,1,91.62,118C91.69,118,114.26,116,115.5,121.1Z"/><polygon class="cls-12" points="91.62 117.97 91.62 117.97 91.62 117.97 91.62 117.97"/><path id="Lasje" class="cls-11" d="M157.18,165.24s-5.39-1.23-9.24-14c-9.45-9.12-22.53-16.13-22.53-16.13,8.06-5,14.52-16.65,18.33-24,.15-6,1-12.52,1.59-19.91,5.8-68.52-40.06-48.71-42-48.56h0c-1.77-.1-46.8-19.69-41.95,48.56.52,7.36,1.8,13.9,1.94,19.86,5.21,9.14,15.51,22.5,15.51,22.5-5.51-3.78-12.91,4.31-18.89,13.26-3.82,17-10.41,18.45-10.41,18.45S22.16-6.67,103.35.2C184.54-6.67,157.18,165.24,157.18,165.24Z"/><path id="Koza-6" data-name="Koza" class="cls-1" d="M144.44,67.25s10.48-3.18,7.43,13.86-7.43,27.6-7.43,27.6Z"/><path id="Koza-7" data-name="Koza" class="cls-1" d="M63.43,69.73S53,66.54,56,83.59s7.43,27.6,7.43,27.6Z"/><ellipse id="Uhani" class="cls-6" cx="61.56" cy="107.04" rx="3.31" ry="3.59"/><ellipse id="Uhani-2" data-name="Uhani" class="cls-6" cx="146.75" cy="106.91" rx="3.31" ry="3.59"/></g></g></svg>