<svg xmlns="http://www.w3.org/2000/svg" viewBox="0 0 57.62 108.9"><defs><style>.cls-1{fill:#008560;}.cls-2{fill:#1ba561;}.cls-3{fill:none;}.cls-4{fill:#df9a34;}.cls-5{fill:#b66229;}.cls-6{fill:#8a5322;opacity:0.29;}.cls-7{fill:#bf713e;}</style></defs><title>ananas</title><g id="Layer_2" data-name="Layer 2"><g id="Glavno_Besedilo" data-name="Glavno Besedilo"><path class="cls-1" d="M51,5.58S31.91,15.72,35.39,25.14C35.39,25.14,46.39,27.45,51,5.58Z"/><path class="cls-2" d="M41.49,1.92S27.09,18,33.6,25.66C33.6,25.66,44.72,24,41.49,1.92Z"/><path class="cls-2" d="M29.07.85S18,19.4,25.89,25.66C25.89,25.66,36.49,21.93,29.07.85Z"/><path class="cls-2" d="M7.56,6.84S26.62,17,23.14,26.41C23.14,26.41,12.14,28.72,7.56,6.84Z"/><path class="cls-1" d="M17.54,0s15.1,15.43,8.93,23.36C26.47,23.36,15.29,22.24,17.54,0Z"/><path class="cls-1" d="M34.52.91s5.29,20.93-4,24.68C30.48,25.6,21.38,19,34.52.91Z"/><path class="cls-3" d="M2.78,65.48l.13-.41-.55.27Z"/><path class="cls-3" d="M6.18,93.54c-.3-.47-.59-.94-.86-1.41L4,92.78Z"/><path class="cls-3" d="M49.38,97,49,96.86l-.4.54Z"/><path class="cls-4" d="M49.35,54.69l.66-.32a80.56,80.56,0,0,0-5.71-9.28l-9.49,4.58Z"/><path class="cls-4" d="M16.9,70.36l13.85-6.69-14.53-5L2.91,65.07l-.13.41Z"/><path class="cls-4" d="M7,55.48a55,55,0,0,0-3.27,7.12l10-4.81Z"/><path class="cls-4" d="M43.2,43.55c-.89-1.21-1.81-2.44-2.82-3.68H18.71s-1.22,1.16-3,3.2l16.6,5.74Z"/><path class="cls-4" d="M29.94,50,14.43,44.59A71.62,71.62,0,0,0,8,53.82l8.14,2.81Z"/><path class="cls-4" d="M55.13,83.58c.11-.51.23-1,.32-1.55l-2,1Z"/><path class="cls-4" d="M37.22,90.83l12.85,4.44a35.13,35.13,0,0,0,4.61-9.88l-3.61-1.25Z"/><path class="cls-4" d="M21,98.66l14.53,5,13-6.29.4-.54L34.84,92Z"/><path class="cls-4" d="M55.75,72.32l-5.48-1.89L36.42,77.11l14.53,5,4.82-2.33A36,36,0,0,0,55.75,72.32Z"/><path class="cls-4" d="M49.46,56.7,35.62,63.39l14.53,5,4.51-2.18a52.59,52.59,0,0,0-3.16-8.83Z"/><path class="cls-4" d="M55.51,70.26c-.11-.71-.26-1.44-.42-2.17l-2.45,1.18Z"/><polygon class="cls-4" points="17.01 72.37 3.17 79.06 17.7 84.08 31.55 77.39 17.01 72.37"/><path class="cls-4" d="M29,108.9h6.29a33.84,33.84,0,0,0,3.41-2.14l-3.07-1.06Z"/><path class="cls-4" d="M18.62,99.81l-5.07,2.45a63.26,63.26,0,0,0,8.59,6.64h2.59l8.42-4.07Z"/><path class="cls-4" d="M40.54,105.42a46,46,0,0,0,5-4.49L38,104.55Z"/><polygon class="cls-4" points="48.57 83.28 34.04 78.26 20.2 84.94 34.73 89.97 48.57 83.28"/><path class="cls-4" d="M8,96.13a43.94,43.94,0,0,0,4.13,4.76l4-1.94Z"/><polygon class="cls-4" points="46.97 55.84 32.44 50.82 18.59 57.5 33.12 62.52 46.97 55.84"/><polygon class="cls-4" points="47.77 69.56 33.24 64.54 19.39 71.22 33.92 76.25 47.77 69.56"/><path class="cls-4" d="M1.37,80.41A31.54,31.54,0,0,0,4.46,90.47l10.86-5.25Z"/><path class="cls-4" d="M18.5,97.8l13.85-6.69-14.53-5-12.5,6c.27.47.57.94.86,1.41Z"/><path class="cls-4" d="M2.29,67.28A36.13,36.13,0,0,0,1.16,78l13.35-6.45Z"/><path class="cls-5" d="M35.53,103.69,21,98.66,34.84,92,49,96.86q.57-.77,1.11-1.59L37.22,90.83l13.84-6.68,3.61,1.25c.17-.59.31-1.2.45-1.82L53.45,83l2-1c.13-.73.24-1.47.32-2.22L51,82.13l-14.53-5,13.85-6.69,5.48,1.89c-.07-.68-.13-1.36-.24-2.06l-2.86-1,2.45-1.18q-.19-.92-.43-1.86l-4.51,2.18-14.53-5L49.46,56.7l2,.7c-.45-1-1-2-1.49-3l-.66.32-14.53-5,9.49-4.58c-.36-.51-.72-1-1.1-1.54L32.32,48.8l-16.6-5.74q-.61.7-1.29,1.53L29.94,50,16.1,56.64,8,53.82c-.31.54-.62,1.09-.93,1.65l6.68,2.31-10,4.81q-.45,1.22-.84,2.48l13.3-6.42,14.53,5L16.9,70.36,2.78,65.48c-.18.59-.34,1.2-.49,1.8l12.22,4.23L1.16,78c0,.81.1,1.63.21,2.45l13.95,4.82L4.46,90.47c.27.55.55,1.1.86,1.65l12.5-6,14.53,5L18.5,97.8,6.18,93.54c.54.87,1.14,1.73,1.79,2.59L16.12,99l-4,1.94c.46.46,1,.91,1.45,1.37l5.07-2.45,14.53,5-8.42,4.07H29l6.63-3.2,3.07,1.06c.56-.39,1.17-.84,1.82-1.34L38,104.55l7.51-3.63a42.5,42.5,0,0,0,3-3.53ZM18.59,57.5l13.84-6.68,14.53,5L33.12,62.52Zm14.65,7,14.53,5L33.92,76.25l-14.53-5ZM17.7,84.08l-14.53-5L17,72.37l14.53,5Zm2.5.86L34,78.26l14.53,5L34.73,90Z"/><path class="cls-3" d="M40.27,40s8,61.5-28.23,60.6"/><path class="cls-6" d="M56,79.81c-.07.76-.2,1.48-.33,2.2l-.3,1.55c-.16.63-.3,1.25-.46,1.84a36.41,36.41,0,0,1-4.61,9.87c-.36.53-.72,1.05-1.12,1.58l-.39.53c-1,1.28-2,2.47-3,3.55a44.82,44.82,0,0,1-5,4.48c-.63.49-1.25,1-1.81,1.35a36.12,36.12,0,0,1-3.42,2.14H22.37c-1.65-1.09-3.16-2.14-4.57-3.26C43.1,100,45,63.23,44.29,44.74l.26.36a82.39,82.39,0,0,1,5.69,9.28c.53,1,1.05,2,1.48,3a50.24,50.24,0,0,1,3.16,8.82c.16.63.33,1.25.46,1.88s.3,1.45.4,2.17.16,1.38.26,2A35.67,35.67,0,0,1,56,79.81Z"/><path class="cls-7" d="M16.9,70.36"/><path class="cls-1" d="M57.62,17.38S32,31,36.67,43.69C36.67,43.69,51.46,46.8,57.62,17.38Z"/><path class="cls-2" d="M44.87,12.47S25.5,34.1,34.27,44.39C34.27,44.39,49.22,42.21,44.87,12.47Z"/><path class="cls-2" d="M28.17,11S13.32,36,23.89,44.39C23.89,44.39,38.15,39.38,28.17,11Z"/><path class="cls-2" d="M0,17.38S25.63,31,21,43.69C21,43.69,6.16,46.8,0,17.38Z"/><path class="cls-1" d="M11.9,12.72s20.31,20.75,12,31.42C23.91,44.13,8.88,42.63,11.9,12.72Z"/><path class="cls-1" d="M35.49,11.11S42.6,39.26,30.06,44.3C30.06,44.3,17.83,35.43,35.49,11.11Z"/></g></g></svg>