<svg xmlns="http://www.w3.org/2000/svg" viewBox="0 0 50.02 72.49"><defs><style>.cls-1{fill:#d6e8b7;stroke:#13795f;stroke-miterlimit:10;stroke-width:1.98px;}.cls-2{fill:#935828;}</style></defs><title>avocado</title><g id="Layer_2" data-name="Layer 2"><g id="Glavno_Besedilo" data-name="Glavno Besedilo"><path class="cls-1" d="M18.26,2.32a1.08,1.08,0,0,0,.31,0A14.66,14.66,0,0,1,25.74,1,15.37,15.37,0,0,1,30.49,2a8.76,8.76,0,0,1,4.43,3.77,20.29,20.29,0,0,1,2.11,5c.77,2.61,1.46,5.24,2.26,7.85.51,1.66,1.16,3.28,1.73,4.92.28.8.49,1.61.8,2.4.71,1.81,1.42,3.62,2.18,5.4,1,2.27,2,4.51,3,6.79a23.73,23.73,0,0,1,2,9.2,2.17,2.17,0,0,0,.09.43c-.06.58-.12,1.16-.18,1.74a25.7,25.7,0,0,1-2.94,10.12,22,22,0,0,1-8.4,8.62,24,24,0,0,1-8.3,2.94,25.41,25.41,0,0,1-16.3-2.68A22,22,0,0,1,5,61.19a24.25,24.25,0,0,1-3.65-9.64A23.85,23.85,0,0,1,1.24,44a29.36,29.36,0,0,1,2.27-7.37c.94-2.13,1.94-4.24,2.87-6.38.51-1.17.95-2.38,1.38-3.58.93-2.56,1.88-5.12,2.74-7.71.56-1.7,1-3.44,1.46-5.17a36.36,36.36,0,0,1,2.47-7,10.67,10.67,0,0,1,3.62-4.22A1,1,0,0,0,18.26,2.32ZM14.63,45.49c.09.76.17,1.85.38,2.92A10.44,10.44,0,0,0,19,55a9.61,9.61,0,0,0,6.94,2,9.56,9.56,0,0,0,7.15-4.12A12.76,12.76,0,0,0,35.24,45a23.11,23.11,0,0,0-1.71-8.22A13.34,13.34,0,0,0,29.46,31a6.83,6.83,0,0,0-6.74-1.27,9.37,9.37,0,0,0-4.81,4.11A23.16,23.16,0,0,0,14.63,45.49Z"/><path class="cls-2" d="M12.77,45.76c.24-4.9,1.22-9.19,3.66-13a10.44,10.44,0,0,1,5.35-4.57,7.61,7.61,0,0,1,7.51,1.41A14.86,14.86,0,0,1,33.82,36a25.75,25.75,0,0,1,1.91,9.16,14.21,14.21,0,0,1-2.43,8.76,10.65,10.65,0,0,1-8,4.59,10.7,10.7,0,0,1-7.73-2.18A11.62,11.62,0,0,1,13.19,49C13,47.82,12.87,46.6,12.77,45.76ZM34.1,44.2a10.68,10.68,0,0,0-.78-4.45,3,3,0,0,0-.73-1,1,1,0,0,0-.85-.15c-.14,0-.26.45-.26.69a7.73,7.73,0,0,0,.13,1.33,18,18,0,0,1,.24,5.54c-.15,1-.28,2-.36,3,0,.24.14.66.3.71a1.05,1.05,0,0,0,.84-.19,2.72,2.72,0,0,0,.68-.95A10.6,10.6,0,0,0,34.1,44.2Z"/></g></g></svg>