<svg xmlns="http://www.w3.org/2000/svg" viewBox="0 0 59.34 31.36"><defs><style>.cls-1{fill:#bb8068;}.cls-2{fill:#9e563c;}.cls-3{fill:#c89881;}.cls-4{fill:#8c3c1f;}</style></defs><title>beans</title><g id="Layer_2" data-name="Layer 2"><g id="Glavno_Besedilo" data-name="Glavno Besedilo"><path class="cls-1" d="M9.72,13.14c8.42,1,2.37-12.6,12-13.14a8.25,8.25,0,0,1,4,2.05,9.62,9.62,0,0,1,1.46,3.63C28.72,17.17,16.63,26.24,6,23.22c-3-1.51-6-4.54-6-9.07,1.51-3,4.54-1.51,7.61-1.29C8.87,13,9.72,13.14,9.72,13.14Z"/><path class="cls-2" d="M17.35,19.75C25.49,17.38,14.6,7.23,23.26,3a8.25,8.25,0,0,1,4.45.34,9.62,9.62,0,0,1,2.77,2.77c5.93,10-1.64,23-12.56,24.4-3.37-.21-7.34-1.81-9.12-6,.21-3.37,3.58-3.17,6.49-4.17C16.5,19.94,17.35,19.75,17.35,19.75Z"/><path class="cls-3" d="M42.76,8.78C44.71,17,55.4,6.68,59.23,15.55A8.25,8.25,0,0,1,58.66,20a9.62,9.62,0,0,1-2.91,2.62C45.5,28,32.83,19.77,32,8.8c.38-3.36,2.18-7.24,6.44-8.8,3.36.38,3,3.74,3.83,6.7C42.61,7.93,42.76,8.78,42.76,8.78Z"/><path class="cls-4" d="M39.18,18.22C44.2,25,50,11.33,57,18a8.25,8.25,0,0,1,1.21,4.3,9.62,9.62,0,0,1-1.65,3.55c-7.31,9-22.2,6.38-27.23-3.41-1-3.24-.83-7.51,2.48-10.62,3.24-1,4.2,2.27,6.14,4.67C38.7,17.49,39.18,18.22,39.18,18.22Z"/></g></g></svg>