<svg xmlns="http://www.w3.org/2000/svg" viewBox="0 0 65.75 83.22"><defs><style>.cls-1{fill:#009764;}.cls-2{fill:#c00848;}.cls-3{fill:#cd4f62;}</style></defs><title>beetroot</title><g id="Layer_2" data-name="Layer 2"><g id="Glavno_Besedilo" data-name="Glavno Besedilo"><path class="cls-1" d="M41.64,54.49C38.38,43.65,49.25,38.18,55,30.66A31.68,31.68,0,0,0,61.4,13.59c.39-1.34,3.46-1.91,4.1-3.74,1.16-4-2-7.51-5.77-7.93-3.85-.61-6.85.85-9.65,2.75-2.56,2.34-5.54,4.5-9,5.18-5.29,1.27-5.18-6.09-8.33-8.34C29-1.37,23,.13,20.47,3.78c-3.25,3.87,1.45,9.71-3.14,13.2-4,2.88-10.84,3.43-14.59,6.25A6.44,6.44,0,0,0,.6,25.82,8.4,8.4,0,0,0,4.28,36.15a13.44,13.44,0,0,0,6.46,1.73c2.82.62,5.91-1.18,8.35.09,2.67,2,1,7,4.68,7.06,7,.23,12,4.35,14.17,10.59"/><path class="cls-2" d="M46.25,83.19l0,0c-37.3-16-6.92-30.64-6.92-30.64l.14.06s.09,0,.14.06C42.23,53.91,61,63.55,46.25,83.19Z"/><path class="cls-3" d="M46.25,83.19c14.76-19.65-4-29.28-6.66-30.5C73.33,63.43,47.26,82.47,46.25,83.19Z"/></g></g></svg>