<svg xmlns="http://www.w3.org/2000/svg" viewBox="0 0 61.8 86.26"><defs><style>.cls-1{fill:#45b757;}.cls-2{fill:#ef3e2d;}.cls-3{fill:#d73828;}</style></defs><title>bell peper</title><g id="Layer_2" data-name="Layer 2"><g id="Glavno_Besedilo" data-name="Glavno Besedilo"><path class="cls-1" d="M15.82,0S34.09,2.3,34.09,21H26l3.27-3S33.06,6.58,15.82,2.19Z"/><path class="cls-2" d="M42.06,86.21h0c-4-.55-6.72-4.91-6.43-10.11L38.26,29c.34-6.05,4.65-10.77,9.24-10.13L55.34,20c4.61.64,7.47,6.39,6.12,12.32L51,78.29C49.84,83.35,46,86.75,42.06,86.21Z"/><path class="cls-2" d="M19.8,86.2h0c3.95-.55,6.72-4.91,6.42-10.11L23.54,29C23.19,23,18.88,18.25,14.29,18.9L6.45,20C1.83,20.64-1,26.39.34,32.32l10.52,46C12,83.35,15.87,86.75,19.8,86.2Z"/><path class="cls-3" d="M30.38,86.26h0a10.22,10.22,0,0,1-10.16-9.12l-5.05-47A10.22,10.22,0,0,1,25.33,18.84H35.68A10.22,10.22,0,0,1,45.84,30.2l-5.31,47A10.22,10.22,0,0,1,30.38,86.26Z"/></g></g></svg>