<svg xmlns="http://www.w3.org/2000/svg" viewBox="0 0 84.11 62.19"><defs><style>.cls-1{fill:#009848;}.cls-2{fill:#48ad71;}.cls-3{fill:#583a83;}.cls-4{fill:#765ba7;}.cls-5{fill:#431e75;}</style></defs><title>blueberry</title><g id="Layer_2" data-name="Layer 2"><g id="Glavno_Besedilo" data-name="Glavno Besedilo"><path class="cls-1" d="M29.46,46.91S53.63,9.09,84.11,26.63C84.11,26.63,83.92,73.07,29.46,46.91Z"/><path class="cls-2" d="M33.64,44.76S36.85,6.62,61.87,0C61.87,0,76.67,29.64,33.64,44.76Z"/><circle class="cls-3" cx="13.99" cy="47.91" r="13.99"/><circle class="cls-4" cx="10.7" cy="41.34" r="5.74"/><path class="cls-5" d="M28.43,47.84c0,7.73-5.89,14-13.1,14,14.22-15.18,0-27.84,0-27.84C22.5,34,28.43,40.18,28.43,47.84Z"/><circle class="cls-3" cx="36.04" cy="29.71" r="16.16" transform="translate(-6.76 48.4) rotate(-63.09)"/><circle class="cls-4" cx="36.09" cy="21.22" r="6.62" transform="translate(0.83 43.8) rotate(-63.09)"/><path class="cls-5" d="M50.94,37.18c-4,8-13.37,11.32-20.8,7.56C52.73,36.53,44.65,16,44.65,16,52.07,19.81,54.94,29.29,50.94,37.18Z"/><circle class="cls-3" cx="34.37" cy="50.92" r="10.99" transform="translate(-26.59 58.53) rotate(-63.09)"/><circle class="cls-4" cx="34.41" cy="45.14" r="4.51" transform="translate(-21.42 55.4) rotate(-63.09)"/><path class="cls-5" d="M44.51,56c-2.75,5.41-9.1,7.7-14.15,5.14,15.37-5.58,9.87-19.52,9.87-19.52C45.28,44.18,47.24,50.64,44.51,56Z"/></g></g></svg>