<svg xmlns="http://www.w3.org/2000/svg" viewBox="0 0 116.7 56.92"><defs><style>.cls-1{fill:#e4995f;}.cls-2{fill:#eab286;}</style></defs><title>bread</title><g id="Layer_2" data-name="Layer 2"><g id="Glavno_Besedilo" data-name="Glavno Besedilo"><path class="cls-1" d="M31.15,29.91a2,2,0,0,1-1.4.56,1.56,1.56,0,0,1-.36,0,2.22,2.22,0,0,1-1.7-1.63c-1-2.85-9.2-12.3-13.29-16.87l11.15-6a22.5,22.5,0,0,1,5.08,6.68C33.29,17.61,32.93,28.13,31.15,29.91Z"/><path class="cls-1" d="M61.92,27.21a1.68,1.68,0,0,1-1.27.53,1.64,1.64,0,0,1-.51-.08,1.3,1.3,0,0,1-1-1.27C60.3,12.32,49.12,2.52,46.6.48L65,0C72.75,14.56,62.4,26.68,61.92,27.21Z"/><path class="cls-1" d="M88.42,30a1.68,1.68,0,0,1-1.25.51,1.76,1.76,0,0,1-.64-.1A1.23,1.23,0,0,1,85.63,29c2.13-9.4-3.51-23.5-4.8-26.5L96.17,8.23C98.08,19.13,88.85,29.47,88.42,30Z"/><path class="cls-2" d="M116.7,35.19c0,18.09-22.31,21.72-58.34,21.72S0,53.28,0,35.19c0-8.89,5.44-17,14.41-23.25C18.5,16.52,26.7,26,27.7,28.81a2.22,2.22,0,0,0,1.7,1.63,1.56,1.56,0,0,0,.36,0,2,2,0,0,0,1.4-.56c1.78-1.78,2.13-12.3-.51-17.33a22.5,22.5,0,0,0-5.08-6.68A82.07,82.07,0,0,1,46.6.48c2.52,2,13.7,11.84,12.5,25.92a1.3,1.3,0,0,0,1,1.27,1.64,1.64,0,0,0,.51.08,1.68,1.68,0,0,0,1.27-.53C62.4,26.68,72.75,14.56,65,0A90.69,90.69,0,0,1,80.83,2.49c1.3,3,6.94,17.1,4.8,26.5a1.23,1.23,0,0,0,.91,1.37,1.76,1.76,0,0,0,.64.1A1.68,1.68,0,0,0,88.42,30c.43-.48,9.66-10.82,7.75-21.72C108.72,14.74,116.7,24.42,116.7,35.19Z"/></g></g></svg>