<svg xmlns="http://www.w3.org/2000/svg" viewBox="0 0 65.54 87.58"><defs><style>.cls-1{fill:#7fb036;}.cls-2{fill:#009155;}.cls-3{fill:#037445;}.cls-4,.cls-5{fill:none;stroke:#48a579;stroke-miterlimit:10;}.cls-4{stroke-width:2.23px;}.cls-5{stroke-width:2.02px;}</style></defs><title>broccoli</title><g id="Layer_2" data-name="Layer 2"><g id="Glavno_Besedilo" data-name="Glavno Besedilo"><path class="cls-1" d="M23.36,45.09s5,17.8,4.18,42.5H37.83s4.06-27.24-3.67-44.4Z"/><path class="cls-1" d="M51.28,45.88A172.38,172.38,0,0,0,37.8,75.16l-4.89-1.87s5.43-20,13.75-30.72Z"/><path class="cls-2" d="M40.82,54.69A13.44,13.44,0,0,0,54,41a14.26,14.26,0,0,0-.14-2A13.51,13.51,0,0,0,65.54,25.45a13.44,13.44,0,0,0-13.2-13.67,12.79,12.79,0,0,0-3.1.38A13.38,13.38,0,0,0,36.11,0a13.19,13.19,0,0,0-12,8,18.72,18.72,0,0,0-7.39,3.52,10.54,10.54,0,0,0-5.84-1.76A11.06,11.06,0,0,0,0,21,11.2,11.2,0,0,0,7.91,31.86a11.5,11.5,0,0,0-1.44,5.59A11.06,11.06,0,0,0,17.34,48.7a10.56,10.56,0,0,0,6.36-2.13,18.51,18.51,0,0,0,4.51.56l.8,0A13.16,13.16,0,0,0,40.82,54.69Z"/><path class="cls-3" d="M46.18,4.82l.11,0-.14-.17C46.16,4.69,46.18,4.76,46.18,4.82Z"/><path class="cls-3" d="M54,40.84a14.26,14.26,0,0,0-.14-2,13.67,13.67,0,0,0,9.67-20.61c0,.3.06.49.06.79A14.45,14.45,0,0,1,51.16,33.55a15.24,15.24,0,0,1,.15,2.13A14.37,14.37,0,0,1,37.19,50.3,13.69,13.69,0,0,1,29.56,48a13.1,13.1,0,0,0,11.25,6.53A13.44,13.44,0,0,0,54,40.84Z"/><path class="cls-3" d="M28.2,46.95h0a14.61,14.61,0,0,1-3.65-4.76l-.86,0a19.79,19.79,0,0,1-4.82-.6,11.28,11.28,0,0,1-10.8,1.54,10.78,10.78,0,0,0,9.26,5.36,10.56,10.56,0,0,0,6.36-2.13A18.51,18.51,0,0,0,28.2,46.95Z"/><path class="cls-4" d="M47.55,12.37s-4-16.88-21.38-6"/><path class="cls-5" d="M62.28,19.71A11.52,11.52,0,0,0,49.46,14"/></g></g></svg>