<svg xmlns="http://www.w3.org/2000/svg" viewBox="0 0 91.91 73.72"><defs><style>.cls-1{fill:#704b43;}.cls-2{fill:#ac6137;}.cls-3{fill:#fbc7ba;}.cls-4{fill:#be8b5b;}</style></defs><title>cake</title><g id="Layer_2" data-name="Layer 2"><g id="Glavno_Besedilo" data-name="Glavno Besedilo"><path class="cls-1" d="M87.21,20.28V66.14a5,5,0,0,1-5,5H0v-56H82.17A5.07,5.07,0,0,1,87.21,20.28Z"/><path class="cls-2" d="M0,12.68v5.06H81.8a5.06,5.06,0,0,1,5.06,5.06V63.61a5.06,5.06,0,0,1-5.06,5.06H0v5.06H86.86a5.06,5.06,0,0,0,5.06-5.06h0V17.73h0a5.06,5.06,0,0,0-5.06-5.06Z"/><polygon class="cls-1" points="0 12.68 57.09 0 86.86 12.68 0 12.68"/><rect class="cls-3" y="26.96" width="86.86" height="9.02"/><rect class="cls-4" y="46.78" width="86.86" height="4.9"/></g></g></svg>