<svg xmlns="http://www.w3.org/2000/svg" xmlns:xlink="http://www.w3.org/1999/xlink" viewBox="0 0 110.08 89.85"><defs><style>.cls-1{fill:none;}.cls-2{fill:#f68720;}.cls-3{clip-path:url(#clip-path);}.cls-4{fill:#d67828;}.cls-5{fill:#009764;}</style><clipPath id="clip-path"><path class="cls-1" d="M65.46,27.87l9.66,12.93a2.28,2.28,0,0,1-.65,3.32l-71,43A2.28,2.28,0,0,1,.77,83.45L62.09,27.55A2.28,2.28,0,0,1,65.46,27.87Z"/></clipPath></defs><title>carrot</title><g id="Layer_2" data-name="Layer 2"><g id="Glavno_Besedilo" data-name="Glavno Besedilo"><path class="cls-2" d="M65.46,27.87l9.66,12.93a2.28,2.28,0,0,1-.65,3.32l-71,43A2.28,2.28,0,0,1,.77,83.45L62.09,27.55A2.28,2.28,0,0,1,65.46,27.87Z"/><g class="cls-3"><polygon class="cls-4" points="59.6 36.55 72.81 52.83 71.18 54.05 59.6 36.55"/><polygon class="cls-4" points="47.49 48.55 60.69 64.82 59.07 66.04 47.49 48.55"/><polygon class="cls-4" points="30.98 60.36 44.19 76.64 42.56 77.86 30.98 60.36"/><polygon class="cls-4" points="18.87 72.36 32.07 88.63 30.45 89.85 18.87 72.36"/><polygon class="cls-4" points="40.7 57.52 26.48 42.13 28.02 40.81 40.7 57.52"/><polygon class="cls-4" points="25.66 69.45 11.44 54.06 12.98 52.74 25.66 69.45"/><polygon class="cls-4" points="55.48 47.88 42.87 31.14 44.54 29.98 55.48 47.88"/></g><path class="cls-5" d="M70.27,34.41c6.54-4.74,12.78,1.3,19.2,3.42a22.61,22.61,0,0,0,13,.3c1-.05,2.1,1.89,3.48,1.89a4.55,4.55,0,0,0,4-5.75c-.49-2.74-2.18-4.42-4.12-5.86a13.93,13.93,0,0,1-5.6-4.84c-2.1-3.27,2.89-4.92,3.67-7.58,1.06-3.21-1.37-6.92-4.42-7.76-3.37-1.28-6.21,3.26-9.63,1C87,7.21,85,2.7,82.21.84A4.6,4.6,0,0,0,80,0a6,6,0,0,0-6.1,4.91,9.6,9.6,0,0,0,.35,4.76c.25,2,2.18,3.71,1.9,5.65-.72,2.27-4.49,2.32-3.66,4.81a10.73,10.73,0,0,1-3.81,12"/></g></g></svg>