<svg xmlns="http://www.w3.org/2000/svg" viewBox="0 0 91.05 78.95"><defs><style>.cls-1{fill:#e6e7e8;}.cls-2{fill:none;}.cls-3{fill:#bd7126;}.cls-4{fill:#a15125;}.cls-5{fill:#d48c74;}</style></defs><title>chciken</title><g id="Layer_2" data-name="Layer 2"><g id="Glavno_Besedilo" data-name="Glavno Besedilo"><path class="cls-1" d="M19.69,7,21,10.52l7.87,16.33L25,28.74l-.19.09-3.94,1.9L13,14.4l-1.89-3.2C3.93,10.27,6.12.71,12.63,3.67l0-.06.14,0,.06-.13,0,.06C14.56-3.36,23.4.88,19.69,7Z"/><path class="cls-2" d="M19.69,7,21,10.52l7.87,16.33L25,28.74l-.19.09-3.94,1.9L13,14.4l-1.89-3.2C3.93,10.27,6.12.71,12.63,3.67l0-.06.14,0,.06-.13,0,.06C14.56-3.36,23.4.88,19.69,7Z"/><path class="cls-3" d="M5,71.86a22.4,22.4,0,0,1,8.87-31.2C19.91,29,34.21,20.84,50.9,20.84,73.07,20.84,91,35.28,91,53.1a28.09,28.09,0,0,1-7.48,18.76Z"/><path class="cls-2" d="M5,71.86a22.4,22.4,0,0,1,8.87-31.2C19.91,29,34.21,20.84,50.9,20.84,73.07,20.84,91,35.28,91,53.1a28.09,28.09,0,0,1-7.48,18.76Z"/><path class="cls-4" d="M18.44,25.53c-.6,5,.34,10.41,1.12,15.29.87,5.46,1.53,11.39,3.71,16.51,1.91,4.48,5.38,8.91,10.27,10.22a16.26,16.26,0,0,0,8,.07c7.75-1.75,14-6,15.76-14,3.5-16.26-18.39-28.33-31.39-32.33Z"/><path class="cls-5" d="M90.94,69.53c0,.22,0,.44,0,.66v.35C91,74,88.71,79,85.93,79h-5l-.4,0-.4,0h-5l-.4,0-.4,0h-5l-.4,0-.4,0h-5l-.4,0-.4,0h-5l-.4,0-.4,0h-5l-.4,0-.4,0h-5l-.4,0-.4,0H40l-.4,0-.4,0h-5l-.4,0-.4,0h-5l-.4,0-.4,0h-5l-.4,0-.4,0h-5l-.4,0-.4,0h-5l-.4,0-.4,0H5C2.25,79,0,74,0,70.54v-.35c0-.22,0-.44,0-.66Z"/><path class="cls-2" d="M18.44,25.53c-.6,5,.34,10.41,1.12,15.29.87,5.46,1.53,11.39,3.71,16.51,1.91,4.48,5.38,8.91,10.27,10.22a16.26,16.26,0,0,0,8,.07c7.75-1.75,14-6,15.76-14,3.5-16.26-18.39-28.33-31.39-32.33Z"/><path class="cls-2" d="M18.44,25.53c-.6,5,.34,10.41,1.12,15.29.87,5.46,1.53,11.39,3.71,16.51,1.91,4.48,5.38,8.91,10.27,10.22a16.26,16.26,0,0,0,8,.07c7.75-1.75,14-6,15.76-14,3.5-16.26-18.39-28.33-31.39-32.33Z"/></g></g></svg>