<svg xmlns="http://www.w3.org/2000/svg" viewBox="0 0 68.57 55"><defs><style>.cls-1{fill:#f5bd5f;}.cls-2{fill:#e3a658;}</style></defs><title>cheese</title><g id="Layer_2" data-name="Layer 2"><g id="Glavno_Besedilo" data-name="Glavno Besedilo"><path class="cls-1" d="M61.29,11.34H0v7.09a6.81,6.81,0,0,1,6.81,6.81A6.81,6.81,0,0,1,0,32.05V53.12H61.29a3.77,3.77,0,0,0,3.77-3.77V15.12A3.77,3.77,0,0,0,61.29,11.34Z"/><path class="cls-2" d="M0,9.46v3.77H61A3.77,3.77,0,0,1,64.8,17V47.46A3.77,3.77,0,0,1,61,51.23H0V55H64.8a3.77,3.77,0,0,0,3.77-3.77h0v-38h0A3.77,3.77,0,0,0,64.8,9.46Z"/><circle class="cls-2" cx="11.06" cy="43.2" r="5.64"/><circle class="cls-2" cx="52.54" cy="20.57" r="2.86"/><circle class="cls-2" cx="41.36" cy="36.74" r="9.61"/><circle class="cls-2" cx="13.65" cy="24.01" r="3.7"/><circle class="cls-2" cx="56.14" cy="30.82" r="4.25"/><circle class="cls-2" cx="29.94" cy="22.23" r="3.44"/><polygon class="cls-1" points="0 9.46 42.59 0 64.8 9.46 0 9.46"/></g></g></svg>