<svg xmlns="http://www.w3.org/2000/svg" viewBox="0 0 107.71 115.26"><defs><style>.cls-1{fill:#c02126;}.cls-2{fill:#912010;}.cls-3{fill:#d63927;}.cls-4{fill:none;stroke:#623d16;stroke-miterlimit:10;stroke-width:3.29px;}.cls-5{fill:#3fa860;}.cls-6{fill:#fff;}</style></defs><title>cherry</title><g id="Layer_2" data-name="Layer 2"><g id="Glavno_Besedilo" data-name="Glavno Besedilo"><path class="cls-1" d="M40.09,97.74c-.84,8.48-5.59,15.24-11.37,17,4.54-7.4,6.12-13.76,6.12-19a24,24,0,0,0-8.12-18.23,10.1,10.1,0,0,1,1.7,0C35.9,78.3,41.13,87.34,40.09,97.74Z"/><path class="cls-2" d="M34.84,95.76c0,5.26-1.58,11.62-6.12,19a10.07,10.07,0,0,1-8.2-.93,10.06,10.06,0,0,1-2.93,1.08c-7.38,1.48-15-5.63-17.07-15.87s2.26-19.75,9.64-21.23a11.66,11.66,0,0,1,9.65,2.77,11.87,11.87,0,0,1,6.92-3.07A24,24,0,0,1,34.84,95.76Z"/><polygon class="cls-3" points="28.72 114.78 28.72 114.78 28.72 114.78 28.72 114.78"/><polygon class="cls-3" points="26.72 77.53 26.72 77.54 26.72 77.54 26.72 77.53"/><path class="cls-1" d="M82.65,97.74c-.84,8.48-5.59,15.24-11.37,17,4.54-7.4,6.12-13.76,6.12-19a24,24,0,0,0-8.12-18.23,10.1,10.1,0,0,1,1.7,0C78.45,78.3,83.68,87.34,82.65,97.74Z"/><path class="cls-2" d="M77.39,95.76c0,5.26-1.58,11.62-6.12,19a10.07,10.07,0,0,1-8.2-.93,10.06,10.06,0,0,1-2.93,1.08c-7.38,1.48-15-5.63-17.07-15.87s2.26-19.75,9.64-21.23a11.66,11.66,0,0,1,9.65,2.77,11.87,11.87,0,0,1,6.92-3.07A24,24,0,0,1,77.39,95.76Z"/><polygon class="cls-3" points="73.96 114.78 73.96 114.78 73.96 114.78 73.96 114.78"/><polygon class="cls-3" points="69.27 77.53 69.27 77.54 69.27 77.54 69.27 77.53"/><path class="cls-4" d="M19.8,80.61S18.4,31.17,54.32,17.46c0,0-12.73,39.92,8,63.15"/><path class="cls-5" d="M51.47,19S76.34-9.85,107.71,3.55C107.71,3.55,107.51,39,51.47,19Z"/><ellipse class="cls-6" cx="49.66" cy="83.05" rx="2.67" ry="1.75" transform="translate(-47.07 80.54) rotate(-57.63)"/></g></g></svg>