<svg xmlns="http://www.w3.org/2000/svg" viewBox="0 0 103.36 95.97"><defs><style>.cls-1{fill:#aa6d43;}.cls-2{fill:#935c34;}.cls-3{fill:#7a4621;}.cls-4{fill:#f2dfc3;}.cls-5{fill:#b97d4f;}.cls-6{fill:#a4683f;}</style></defs><title>cookies</title><g id="Layer_2" data-name="Layer 2"><g id="Glavno_Besedilo" data-name="Glavno Besedilo"><path class="cls-1" d="M41.43,49.11a28.46,28.46,0,0,1-4.69-17.58c.44-7.62-.88-9.09.29-13.77s5-12,10.84-12.6S61.07-1,72.79.16,89.2,9.83,90.38,14.52a67.15,67.15,0,0,0,4.4,12.9c2.64,6.15-2.05,18.17-5,21.39S75.33,56.73,72.4,58.19,50.81,60.83,41.43,49.11Z"/><path class="cls-2" d="M94.77,27.42l-.72-1.69c.57,6.56-2.23,11.58-2.36,12.83C91.55,40,91.55,49,71.18,52.77c-19.29,3.61-31.08-7.23-32.28-8.4a23.06,23.06,0,0,0,2.53,4.73c9.38,11.72,28,10.55,31,9.09S86.86,52,89.79,48.81,97.41,33.57,94.77,27.42Z"/><path class="cls-3" d="M58.53,16s-.66-2.2.29-3.22,3.13-2.86,4.2-3S65.17,8.76,66,8.76s2.74,5.08,1,7.42-2.74,3.22-4.49,3.13A4.67,4.67,0,0,1,58.53,16Z"/><path class="cls-3" d="M74.87,34.5s-1.39-4.4-.59-5.79,1.32-1.61,3.37-1a8.2,8.2,0,0,0,3.81.51c1.69,0,2.05-.29,2.56,1.32s1.54,2.34.66,3.81-1,2.49-3.44,2.71S75.75,37.36,74.87,34.5Z"/><path class="cls-3" d="M49.74,39.14s-1.56-3.22-.29-4.59,2.05-1.27,4-2.74,2.64-.68,4,.1a5.36,5.36,0,0,1,2.34,4.2c-.1,1.27,2.25,3.32.1,4s-5.18,1.56-7,1.17A5.49,5.49,0,0,1,49.74,39.14Z"/><path class="cls-4" d="M47.06,22.23s-.68-1.4-.13-2,.89-.55,1.74-1.19,1.15-.3,1.74,0a2.33,2.33,0,0,1,1,1.83c0,.55,1,1.44,0,1.74a7.35,7.35,0,0,1-3.06.51A2.39,2.39,0,0,1,47.06,22.23Z"/><path class="cls-4" d="M66.47,46.71s-.68-1.4-.13-2,.89-.55,1.74-1.19,1.15-.3,1.74,0a2.33,2.33,0,0,1,1,1.83c0,.55,1,1.44,0,1.74a7.35,7.35,0,0,1-3.06.51A2.39,2.39,0,0,1,66.47,46.71Z"/><path class="cls-4" d="M77.3,12.3s-.68-1.4-.13-2,.89-.55,1.74-1.19,1.15-.3,1.74,0a2.33,2.33,0,0,1,1,1.83c0,.55,1,1.44,0,1.74a7.35,7.35,0,0,1-3.06.51A2.39,2.39,0,0,1,77.3,12.3Z"/><path class="cls-1" d="M4.9,86A28.46,28.46,0,0,1,.21,68.4c.44-7.62-.88-9.09.29-13.77s5-12,10.84-12.6,13.19-6.15,24.91-5S52.67,46.71,53.84,51.4a67.15,67.15,0,0,0,4.4,12.9c2.64,6.15-2.05,18.17-5,21.39S38.79,93.6,35.86,95.07,14.27,97.71,4.9,86Z"/><path class="cls-2" d="M58.24,64.3l-.72-1.69c.57,6.56-2.23,11.58-2.36,12.83C55,76.9,55,85.84,34.64,89.65c-19.29,3.61-31.08-7.23-32.28-8.4A23.07,23.07,0,0,0,4.9,86c9.38,11.72,28,10.55,31,9.09s14.46-6.15,17.39-9.38S60.87,70.45,58.24,64.3Z"/><path class="cls-3" d="M22,52.89s-.66-2.2.29-3.22,3.13-2.86,4.2-3,2.15-1.07,2.93-1.07,2.74,5.08,1,7.42-2.74,3.22-4.49,3.13A4.67,4.67,0,0,1,22,52.89Z"/><path class="cls-4" d="M13.19,61.22s-1.43,0-1.88-.73a6.67,6.67,0,0,1-1-3c.13-.66-.27-1.47-.14-1.94s3.51-.76,4.61.7,1.46,2.19,1.09,3.22A2.9,2.9,0,0,1,13.19,61.22Z"/><path class="cls-4" d="M33.36,86.12s-1.43,0-1.88-.73a6.67,6.67,0,0,1-1-3c.13-.66-.27-1.47-.14-1.94s3.51-.76,4.61.7,1.46,2.19,1.09,3.22A2.9,2.9,0,0,1,33.36,86.12Z"/><path class="cls-3" d="M38.33,71.38s-1.39-4.4-.59-5.79,1.32-1.61,3.37-1a8.2,8.2,0,0,0,3.81.51c1.69,0,2.05-.29,2.56,1.32s1.54,2.34.66,3.81-1,2.49-3.44,2.71S39.21,74.24,38.33,71.38Z"/><path class="cls-3" d="M13.2,76s-1.56-3.22-.29-4.59,2.05-1.27,4-2.74,2.64-.68,4,.1A5.36,5.36,0,0,1,23.26,73c-.1,1.27,2.25,3.32.1,4s-5.18,1.56-7,1.17A5.49,5.49,0,0,1,13.2,76Z"/><path class="cls-5" d="M49.25,80a28.46,28.46,0,0,1-4.69-17.58c.44-7.62-.88-9.09.29-13.77s5-12,10.84-12.6,13.19-6.15,24.91-5S97,40.7,98.19,45.39a67.15,67.15,0,0,0,4.4,12.9c2.64,6.15-2.05,18.17-5,21.39S83.15,87.6,80.22,89.06,58.63,91.7,49.25,80Z"/><path class="cls-6" d="M102.59,58.29l-.72-1.69c.57,6.56-2.23,11.58-2.36,12.83-.15,1.47-.15,10.4-20.52,14.21-19.29,3.61-31.08-7.23-32.28-8.4A23.06,23.06,0,0,0,49.25,80c9.38,11.72,28,10.55,31,9.09s14.46-6.15,17.39-9.38S105.23,64.44,102.59,58.29Z"/><path class="cls-3" d="M66.34,46.88s-.66-2.2.29-3.22,3.13-2.86,4.2-3,2.15-1.07,2.93-1.07,2.74,5.08,1,7.42S72,50.28,70.25,50.18A4.67,4.67,0,0,1,66.34,46.88Z"/><path class="cls-4" d="M82.19,48.95s-.42-1.4.19-2.06A6.84,6.84,0,0,1,85.06,45c.69-.06,1.37-.69,1.87-.69s1.75,3.24.62,4.74-1.75,2.06-2.87,2A3,3,0,0,1,82.19,48.95Z"/><path class="cls-4" d="M74,76s-.42-1.4.19-2.06a6.84,6.84,0,0,1,2.68-1.89c.69-.06,1.37-.69,1.87-.69s1.75,3.24.62,4.74-1.75,2.06-2.87,2A3,3,0,0,1,74,76Z"/><path class="cls-4" d="M52,54.09s-.42-1.4.19-2.06a6.84,6.84,0,0,1,2.68-1.89c.69-.06,1.37-.69,1.87-.69s1.75,3.24.62,4.74-1.75,2.06-2.87,2A3,3,0,0,1,52,54.09Z"/><path class="cls-3" d="M82.68,65.37s-1.39-4.4-.59-5.79,1.32-1.61,3.37-1a8.2,8.2,0,0,0,3.81.51c1.69,0,2.05-.29,2.56,1.32s1.54,2.34.66,3.81-1,2.49-3.44,2.71S83.56,68.23,82.68,65.37Z"/><path class="cls-3" d="M57.55,70s-1.56-3.22-.29-4.59,2.05-1.27,4-2.74,2.64-.68,4,.1A5.36,5.36,0,0,1,67.61,67c-.1,1.27,2.25,3.32.1,4s-5.18,1.56-7,1.17A5.49,5.49,0,0,1,57.55,70Z"/></g></g></svg>