<svg xmlns="http://www.w3.org/2000/svg" viewBox="0 0 100.06 54.09"><defs><style>.cls-1{fill:#de8a4a;}.cls-2{fill:#e4995f;}.cls-3{fill:#eab286;}</style></defs><title>crossaint</title><g id="Layer_2" data-name="Layer 2"><g id="Glavno_Besedilo" data-name="Glavno Besedilo"><path class="cls-1" d="M96.61,36.12c-3.3,4.64-12.37,8.35-12.37,8.35.21.83,13.4,12.89,15.36,8.76S96.61,36.12,96.61,36.12Z"/><path class="cls-1" d="M3.45,34.35s-4.95,13-3,17.11,15.16-7.94,15.36-8.76C15.82,42.7,6.75,39,3.45,34.35Z"/><path class="cls-2" d="M99,32.75c-2.78-8.84-15.16-16.57-15.16-16.57S82.64,36.6,72.43,43.71c0,0,6.8,4,11.76,2.48S100,35.77,99,32.75Z"/><path class="cls-2" d="M16.72,15.87S4.35,23.6,1.56,32.44c-.95,3,9.9,11.88,14.85,13.43s11.76-2.48,11.76-2.48C18,36.28,16.72,15.87,16.72,15.87Z"/><path class="cls-3" d="M82.49,8.7C79.79,7.15,70.73-.58,50.32,0,29.9-.58,20.84,7.15,18.15,8.7c-7.93,4.54,6.19,40.21,15.47,40.21H67C76.3,48.91,90.41,13.24,82.49,8.7Z"/></g></g></svg>