<svg xmlns="http://www.w3.org/2000/svg" viewBox="0 0 80.11 85.07"><defs><style>.cls-1{fill:#4b2c64;}.cls-2{fill:#009764;}</style></defs><title>eggplant</title><g id="Layer_2" data-name="Layer 2"><g id="Glavno_Besedilo" data-name="Glavno Besedilo"><path class="cls-1" d="M3.43,34.44l0,.3Q7.67,61.08,29.84,75.87a54.05,54.05,0,0,0,20.5,8.58c5.63,1,11.2.93,16.48-1.56,6.87-3.24,11.06-8.79,12.94-16,1.17-4.56-.61-8.39-3.88-11.6a32.05,32.05,0,0,0-10.15-6.51c-6-2.46-12-4.75-18.14-6.95A44.52,44.52,0,0,1,31.32,31.69a2.26,2.26,0,0,0-.51-.47s-10-18-19.71-13.6C2.31,21.63,3.19,32.49,3.43,34.44Z"/><path class="cls-2" d="M0,30.79c5.35-.74,8.43-4,9.95-9,2.58,1.39,3.9,3.78,5.49,9.5a36.12,36.12,0,0,0,2.74-4.56,36.3,36.3,0,0,0,1.39-5.18c3.48,2,6.82,4.61,10.8,5.37-1.77-3.21-3.57-6.55-5.45-9.85-1.08-1.9-2.28-3.77-4.3-4.79a16,16,0,0,0-4.19-1.51c-1.31-.24-1.62-1-1.93-2A12.75,12.75,0,0,1,15,.58c.06-.16.1-.32.17-.56H11.62c.44,1.59.92,3.16,1.31,4.74.19.78.2,1.59.32,2.39.34,2.22-.08,3.84-2.53,4.76-4.4,1.65-5.84,5.49-6.57,9.74C3.76,23.9,3.4,26.21,2,28.17,1.38,29.06.68,29.9,0,30.79Z"/></g></g></svg>