<svg xmlns="http://www.w3.org/2000/svg" viewBox="0 0 160.49 37.84"><defs><style>.cls-1{fill:#8988b8;}.cls-2{fill:#4e2c3d;}.cls-3{fill:#4a6aa3;}</style></defs><title>fish</title><g id="Layer_2" data-name="Layer 2"><g id="Glavno_Besedilo" data-name="Glavno Besedilo"><path class="cls-1" d="M160.49,14.49s-19.07-33.75-135,1.76l-3-1.41-2-1c-1.06-.41-2.09-.84-3.11-1.3s-2-.94-3-1.44C8.8,9.67,5.28,4.39,0,4.39,14.08,9.67,17.61,29,3.52,37.84c5.28-1.76,10.56-5.28,15.74-5.4q1.41-.31,2.86-.59c5.77-1.07,11.86-1.56,16.59-.35C38.71,31.51,157,41.49,160.49,14.49Z"/><ellipse class="cls-2" cx="143.37" cy="8.29" rx="2.48" ry="1.65"/><path class="cls-3" d="M36.06,13.13a24.07,24.07,0,0,1,4.69,0,25.85,25.85,0,0,1,4.64.8,17.45,17.45,0,0,1,4.39,1.78,9.4,9.4,0,0,1,3.42,3.23,13.32,13.32,0,0,0-3.78-2.54,25.07,25.07,0,0,0-4.29-1.51c-1.47-.41-3-.72-4.48-1S37.61,13.35,36.06,13.13Z"/><path class="cls-3" d="M47.69,10.24a24.07,24.07,0,0,1,4.69,0A25.83,25.83,0,0,1,57,11a17.45,17.45,0,0,1,4.39,1.78A9.4,9.4,0,0,1,64.82,16,13.32,13.32,0,0,0,61,13.48,25.05,25.05,0,0,0,56.76,12c-1.47-.41-3-.72-4.48-1S49.23,10.45,47.69,10.24Z"/><path class="cls-3" d="M59.32,7.34a24.07,24.07,0,0,1,4.69,0,25.83,25.83,0,0,1,4.64.8A17.45,17.45,0,0,1,73,9.9a9.4,9.4,0,0,1,3.42,3.23,13.32,13.32,0,0,0-3.78-2.54,25.06,25.06,0,0,0-4.29-1.51c-1.47-.41-3-.72-4.48-1S60.86,7.56,59.32,7.34Z"/><path class="cls-3" d="M70.94,4.45a24.07,24.07,0,0,1,4.69,0,25.83,25.83,0,0,1,4.64.8A17.45,17.45,0,0,1,84.66,7a9.4,9.4,0,0,1,3.42,3.23A13.32,13.32,0,0,0,84.3,7.69,25.05,25.05,0,0,0,80,6.18c-1.47-.41-3-.72-4.48-1S72.49,4.67,70.94,4.45Z"/><path class="cls-3" d="M84.11,2.5a24,24,0,0,1,4.69,0,25.83,25.83,0,0,1,4.64.8,17.45,17.45,0,0,1,4.39,1.78,9.4,9.4,0,0,1,3.42,3.23,13.32,13.32,0,0,0-3.78-2.54,25.05,25.05,0,0,0-4.29-1.51c-1.47-.41-3-.72-4.48-1S85.66,2.72,84.11,2.5Z"/><path class="cls-3" d="M96.73.85a24.07,24.07,0,0,1,4.69,0,25.83,25.83,0,0,1,4.64.8,17.45,17.45,0,0,1,4.39,1.78,9.4,9.4,0,0,1,3.42,3.23,13.32,13.32,0,0,0-3.78-2.54,25.05,25.05,0,0,0-4.29-1.51c-1.47-.41-3-.72-4.48-1S98.28,1.07,96.73.85Z"/><path class="cls-3" d="M110.23.25a24,24,0,0,1,4.69,0,25.83,25.83,0,0,1,4.64.8,17.45,17.45,0,0,1,4.39,1.78A9.4,9.4,0,0,1,127.36,6a13.32,13.32,0,0,0-3.78-2.54A25.05,25.05,0,0,0,119.3,2c-1.47-.41-3-.72-4.48-1S111.77.47,110.23.25Z"/></g></g></svg>