<svg xmlns="http://www.w3.org/2000/svg" viewBox="0 0 63.9 70.15"><defs><style>.cls-1{fill:#efe6e3;}.cls-2{fill:#e0cfcb;}.cls-3{fill:#d2bab7;}</style></defs><title>garlic</title><g id="Layer_2" data-name="Layer 2"><g id="Glavno_Besedilo" data-name="Glavno Besedilo"><path class="cls-1" d="M19.73,66.11s.91,3.33,15.08,4c0,0,10.12,0,13-3.83l-4.51-4L24.36,62,17.3,65Z"/><path class="cls-2" d="M30.85,65.74a9.85,9.85,0,0,1-4.94,3.21,10.16,10.16,0,0,1-7-1.07C18,67.38,17,66.44,16,66.36s-2,.75-3,1.07c-4.84,1.53-8.75-.24-11-5a21.29,21.29,0,0,1-2-9.3A25.4,25.4,0,0,1,3.51,39.25a26.8,26.8,0,0,1,7.1-7.19c3.28-2.44,6.6-4.84,9.82-7.35a14.4,14.4,0,0,0,4.76-5.91,12.59,12.59,0,0,0-.34-9.53c-.85-2.19-2-4.29-3-6.43-.14-.29-.33-.55-.48-.83-.75-1.42-.35-2.24,1.2-2,2.31.42,4.55,1.17,6.82,1.78A4.4,4.4,0,0,1,32.08,4a35.55,35.55,0,0,1,3.66,8.82,22,22,0,0,0,8.38,12A67.86,67.86,0,0,1,56,35.86c3.47,4.11,6.42,8.53,7.54,13.91a16.23,16.23,0,0,1-2.58,13.06c-1.85,2.66-4.66,3.8-7.78,4.19a12.14,12.14,0,0,1-8-1.75C39.25,69.64,35.53,69.77,30.85,65.74Z"/><path class="cls-3" d="M45.18,65.28s15.1-12.53-5-43.46"/><path class="cls-3" d="M31,66.1s10.94-13.62,1-49.34"/><path class="cls-3" d="M15.57,66.72S32.4,56,24.67,19.93"/></g></g></svg>