<svg xmlns="http://www.w3.org/2000/svg" viewBox="0 0 132.33 95.23"><defs><style>.cls-1{fill:#d4b6c9;}.cls-2{fill:#008c3f;}.cls-3{fill:#12b259;}.cls-4{fill:#3fa860;}.cls-5{fill:#8a1e61;}.cls-6{fill:#750049;}</style></defs><title>grapes</title><g id="Layer_2" data-name="Layer 2"><g id="Glavno_Besedilo" data-name="Glavno Besedilo"><path class="cls-1" d="M30,79.89a1.44,1.44,0,1,1,1.15-2.63A1.86,1.86,0,0,1,30,79.89Z"/><path class="cls-2" d="M75.92,63.27c1.07-5.34,8.53-9.74,4.45-16.1-.14-.63-.29-1.27-.44-1.9s-.31-1.26-.46-1.86-.32-1.37-.43-2c.35-5,4.07-7.17,11.37-11.63l1.83-.9c2.4-1.19,4.63-2.33,6.35-3.06.31-.52.58-1.06.84-1.6,1.28-2.72,2.11-5.55,4.1-6.39a15.19,15.19,0,0,1,1.57-.89,9,9,0,0,1,6.36-.73,7.24,7.24,0,0,1,2,1,8.6,8.6,0,0,1,1.85,1.84l1.95.62c4.45,1.45,8.11,2.93,9,7a5.84,5.84,0,0,1,0,1.22c-.19,2.11-1.47,4.56-3.93,7.64a9.92,9.92,0,0,0-1.05,1.52c-2.48,4.36-2.62,10.91-6.87,12.72l-1.74,1.25A88.73,88.73,0,0,1,92.52,61.81c-.56.13-1.1.25-1.64.34s-.9.14-1.34.19-.88.08-1.32.09c-3.11.74-11.23-4.51-11,.58Z"/><path class="cls-3" d="M64.24,54.78c-.38-5.44,5.65-11.65,0-16.71-.3-.57-.61-1.15-.93-1.72l-.93-1.67c-.34-.63-.67-1.23-.95-1.82-1-4.88,2-8,7.89-14.22l1.53-1.35c2-1.78,3.85-3.47,5.31-4.63.16-.58.28-1.17.38-1.76.52-3,.57-5.91,2.26-7.25a15.19,15.19,0,0,1,1.28-1.27A9,9,0,0,1,86.06,0,7.24,7.24,0,0,1,88.3.45a8.6,8.6,0,0,1,2.28,1.29l2,.09c4.68.22,8.6.68,10.56,4.4a5.84,5.84,0,0,1,.34,1.18c.37,2.08-.21,4.78-1.77,8.4a9.92,9.92,0,0,0-.61,1.75c-1.24,4.86.36,11.22-3.26,14.09q-.67.85-1.35,1.67A88.73,88.73,0,0,1,79.86,49c-.5.28-1,.53-1.49.76s-.83.37-1.24.54-.83.31-1.25.44c-2.8,1.54-12-1.38-10.45,3.46Z"/><path class="cls-4" d="M69.94,59.81c4.62-2.89,12.93-.5,14.76-7.83.37-.53.73-1.08,1.08-1.63l1-1.61c.39-.6.77-1.17,1.16-1.69,3.85-3.16,8-2,16.26.28l1.91.71c2.52.93,4.87,1.76,6.58,2.51.59-.13,1.17-.3,1.74-.49,2.85-.94,5.48-2.28,7.46-1.41a15.19,15.19,0,0,1,1.72.53,9,9,0,0,1,4.9,4.11,7.24,7.24,0,0,1,.66,2.19,8.6,8.6,0,0,1-.06,2.61l.89,1.85c2,4.23,3.45,7.91,1.09,11.39a5.84,5.84,0,0,1-.88.85c-1.66,1.31-4.32,2.07-8.25,2.39a9.92,9.92,0,0,0-1.83.28c-4.87,1.2-9.73,5.59-14,3.75l-2.1-.4A88.73,88.73,0,0,1,82.4,70.88c-.48-.31-.93-.63-1.37-1s-.72-.55-1.06-.84-.66-.59-1-.9c-2.68-1.75-4.44-11.26-8-7.59Z"/><path class="cls-5" d="M9.08,95.23a9.06,9.06,0,1,1,0-18.12S18.9,85.37,9.08,95.23Z"/><path class="cls-6" d="M18.12,86.15a9.07,9.07,0,0,1-9,9.08c9.82-9.86,0-18.12,0-18.12A9.06,9.06,0,0,1,18.12,86.15Z"/><path class="cls-5" d="M13.47,81a9.06,9.06,0,1,1,0-18.12S23.29,71.13,13.47,81Z"/><path class="cls-1" d="M8.22,69a1.89,1.89,0,1,1,1.52-3.46A2.44,2.44,0,0,1,8.22,69Z"/><path class="cls-6" d="M22.51,71.91a9.07,9.07,0,0,1-9,9.08c9.82-9.86,0-18.12,0-18.12A9.06,9.06,0,0,1,22.51,71.91Z"/><path class="cls-5" d="M29.62,78.07a9.06,9.06,0,1,1,0-18.12S39.44,68.2,29.62,78.07Z"/><path class="cls-1" d="M24.38,66.08a1.89,1.89,0,1,1,1.52-3.46A2.44,2.44,0,0,1,24.38,66.08Z"/><path class="cls-6" d="M38.66,69a9.07,9.07,0,0,1-9,9.08c9.82-9.86,0-18.12,0-18.12A9.06,9.06,0,0,1,38.66,69Z"/><path class="cls-5" d="M24.72,93a9.06,9.06,0,1,1,0-18.12S34.54,83.16,24.72,93Z"/><path class="cls-1" d="M19.47,81A1.89,1.89,0,1,1,21,77.58,2.44,2.44,0,0,1,19.47,81Z"/><path class="cls-6" d="M33.76,83.94a9.07,9.07,0,0,1-9,9.08c9.82-9.86,0-18.12,0-18.12A9.06,9.06,0,0,1,33.76,83.94Z"/><path class="cls-5" d="M40.36,90.5a9.06,9.06,0,1,1,0-18.12S50.18,80.63,40.36,90.5Z"/><path class="cls-1" d="M35.11,78.51a1.89,1.89,0,1,1,1.52-3.46A2.44,2.44,0,0,1,35.11,78.51Z"/><path class="cls-6" d="M49.4,81.41a9.07,9.07,0,0,1-9,9.08c9.82-9.86,0-18.12,0-18.12A9.06,9.06,0,0,1,49.4,81.41Z"/><path class="cls-5" d="M22.38,67.19a9.06,9.06,0,1,1,0-18.12S32.2,57.33,22.38,67.19Z"/><path class="cls-1" d="M17.13,55.21a1.89,1.89,0,1,1,1.52-3.46A2.44,2.44,0,0,1,17.13,55.21Z"/><path class="cls-6" d="M31.42,58.11a9.07,9.07,0,0,1-9,9.08c9.82-9.86,0-18.12,0-18.12A9.06,9.06,0,0,1,31.42,58.11Z"/><path class="cls-5" d="M39.13,66.74a9.06,9.06,0,1,1,0-18.12S48.95,56.88,39.13,66.74Z"/><path class="cls-1" d="M33.88,54.76A1.89,1.89,0,1,1,35.4,51.3,2.44,2.44,0,0,1,33.88,54.76Z"/><path class="cls-6" d="M48.17,57.66a9.07,9.07,0,0,1-9,9.08c9.82-9.86,0-18.12,0-18.12A9.06,9.06,0,0,1,48.17,57.66Z"/><path class="cls-5" d="M47.08,76.7a9.06,9.06,0,1,1,0-18.12S56.9,66.84,47.08,76.7Z"/><path class="cls-1" d="M41.83,64.71a1.89,1.89,0,1,1,1.52-3.46A2.44,2.44,0,0,1,41.83,64.71Z"/><path class="cls-6" d="M56.12,67.62a9.07,9.07,0,0,1-9,9.08c9.82-9.86,0-18.12,0-18.12A9.06,9.06,0,0,1,56.12,67.62Z"/><path class="cls-5" d="M57.25,84.87a9.06,9.06,0,1,1,0-18.12S67.07,75,57.25,84.87Z"/><path class="cls-1" d="M52,72.88a1.89,1.89,0,1,1,1.52-3.46A2.44,2.44,0,0,1,52,72.88Z"/><path class="cls-6" d="M66.3,75.78a9.07,9.07,0,0,1-9,9.08c9.82-9.86,0-18.12,0-18.12A9.06,9.06,0,0,1,66.3,75.78Z"/><path class="cls-5" d="M34.23,55.94a9.06,9.06,0,1,1,0-18.12S44,46.08,34.23,55.94Z"/><path class="cls-1" d="M29,44A1.89,1.89,0,1,1,30.5,40.5,2.44,2.44,0,0,1,29,44Z"/><path class="cls-6" d="M43.27,46.86a9.07,9.07,0,0,1-9,9.08c9.82-9.86,0-18.12,0-18.12A9.06,9.06,0,0,1,43.27,46.86Z"/><path class="cls-5" d="M49.78,57.68a9.06,9.06,0,1,1,0-18.12S59.6,47.82,49.78,57.68Z"/><path class="cls-1" d="M44.54,45.69a1.89,1.89,0,1,1,1.52-3.46A2.44,2.44,0,0,1,44.54,45.69Z"/><path class="cls-6" d="M58.83,48.6a9.07,9.07,0,0,1-9,9.08c9.82-9.86,0-18.12,0-18.12A9.06,9.06,0,0,1,58.83,48.6Z"/><path class="cls-5" d="M57.28,70.16a9.06,9.06,0,1,1,0-18.12S67.1,60.29,57.28,70.16Z"/><path class="cls-1" d="M52,58.17a1.89,1.89,0,1,1,1.52-3.46A2.44,2.44,0,0,1,52,58.17Z"/><path class="cls-6" d="M66.32,61.07a9.07,9.07,0,0,1-9,9.08c9.82-9.86,0-18.12,0-18.12A9.06,9.06,0,0,1,66.32,61.07Z"/><path class="cls-5" d="M66.32,56.36a9.06,9.06,0,1,1,0-18.12S76.14,46.5,66.32,56.36Z"/><path class="cls-1" d="M61.07,44.37a1.89,1.89,0,1,1,1.52-3.46A2.44,2.44,0,0,1,61.07,44.37Z"/><path class="cls-6" d="M75.36,47.28a9.07,9.07,0,0,1-9,9.08c9.82-9.86,0-18.12,0-18.12A9.06,9.06,0,0,1,75.36,47.28Z"/><path class="cls-5" d="M70.86,72a9.06,9.06,0,1,1,0-18.12S80.68,62.1,70.86,72Z"/><path class="cls-1" d="M65.61,60a1.89,1.89,0,1,1,1.52-3.46A2.44,2.44,0,0,1,65.61,60Z"/><path class="cls-6" d="M79.9,62.88a9.07,9.07,0,0,1-9,9.08c9.82-9.86,0-18.12,0-18.12A9.06,9.06,0,0,1,79.9,62.88Z"/><path class="cls-5" d="M69,81.94a9.06,9.06,0,1,1,0-18.12S78.84,72.08,69,81.94Z"/><path class="cls-1" d="M63.78,70a1.89,1.89,0,1,1,1.52-3.46A2.44,2.44,0,0,1,63.78,70Z"/><path class="cls-6" d="M78.06,72.86a9.07,9.07,0,0,1-9,9.08c9.82-9.86,0-18.12,0-18.12A9.06,9.06,0,0,1,78.06,72.86Z"/><path class="cls-5" d="M85.92,79.22a9.06,9.06,0,1,1,0-18.12S95.74,69.36,85.92,79.22Z"/><path class="cls-1" d="M80.67,67.23a1.89,1.89,0,1,1,1.52-3.46A2.44,2.44,0,0,1,80.67,67.23Z"/><path class="cls-6" d="M95,70.14a9.07,9.07,0,0,1-9,9.08c9.82-9.86,0-18.12,0-18.12A9.06,9.06,0,0,1,95,70.14Z"/><path class="cls-5" d="M56.34,43a9.06,9.06,0,1,1,0-18.12S66.16,33.13,56.34,43Z"/><path class="cls-1" d="M51.09,31a1.89,1.89,0,1,1,1.52-3.46A2.44,2.44,0,0,1,51.09,31Z"/><path class="cls-6" d="M65.38,33.91a9.07,9.07,0,0,1-9,9.08c9.82-9.86,0-18.12,0-18.12A9.06,9.06,0,0,1,65.38,33.91Z"/><path class="cls-5" d="M43.67,44.37a9.06,9.06,0,1,1,0-18.12S53.49,34.51,43.67,44.37Z"/><path class="cls-1" d="M38.42,32.38a1.89,1.89,0,1,1,1.52-3.46A2.44,2.44,0,0,1,38.42,32.38Z"/><path class="cls-6" d="M52.71,35.29a9.07,9.07,0,0,1-9,9.08c9.82-9.86,0-18.12,0-18.12A9.06,9.06,0,0,1,52.71,35.29Z"/><path class="cls-5" d="M69.78,41.45a9.06,9.06,0,1,1,0-18.12S79.6,31.58,69.78,41.45Z"/><path class="cls-1" d="M64.54,29.46A1.89,1.89,0,1,1,66.05,26,2.44,2.44,0,0,1,64.54,29.46Z"/><path class="cls-6" d="M78.82,32.36a9.07,9.07,0,0,1-9,9.08c9.82-9.86,0-18.12,0-18.12A9.06,9.06,0,0,1,78.82,32.36Z"/><path class="cls-5" d="M79.92,55.21a9.06,9.06,0,1,1,0-18.12S89.74,45.34,79.92,55.21Z"/><path class="cls-1" d="M74.67,43.22a1.89,1.89,0,1,1,1.52-3.46A2.44,2.44,0,0,1,74.67,43.22Z"/><path class="cls-6" d="M89,46.12a9.07,9.07,0,0,1-9,9.08c9.82-9.86,0-18.12,0-18.12A9.06,9.06,0,0,1,89,46.12Z"/></g></g></svg>