<svg xmlns="http://www.w3.org/2000/svg" viewBox="0 0 49.99 117.2"><defs><style>.cls-1{fill:#b9c2df;}.cls-2{fill:#114c76;}.cls-3{fill:#d8dcec;}</style></defs><title>joghurt</title><g id="Layer_2" data-name="Layer 2"><g id="Glavno_Besedilo" data-name="Glavno Besedilo"><path class="cls-1" d="M35.7,12.14l-.31-4.89H14.6l-.31,4.89c-.3,4.76-5,9.11-9,11.7A11.47,11.47,0,0,0,0,33.47v72.27A11.49,11.49,0,0,0,11.46,117.2H38.54A11.49,11.49,0,0,0,50,105.74V33.47a11.47,11.47,0,0,0-5.27-9.63C40.72,21.26,36,16.9,35.7,12.14Z"/><rect class="cls-2" x="11.94" width="26.11" height="10.8" rx="2.72" ry="2.72"/><path class="cls-3" d="M0,31.8H40.53a0,0,0,0,1,0,0v75.89A9.32,9.32,0,0,1,31.21,117H9.32A9.32,9.32,0,0,1,0,107.69V31.8A0,0,0,0,1,0,31.8Z"/></g></g></svg>