<svg xmlns="http://www.w3.org/2000/svg" viewBox="0 0 79.12 55.08"><defs><style>.cls-1{fill:#ffd54c;}.cls-2{fill:#d5bf4d;}</style></defs><title>lemon</title><g id="Layer_2" data-name="Layer 2"><g id="Glavno_Besedilo" data-name="Glavno Besedilo"><path class="cls-1" d="M78.28,26.42S33.89,61.9,2.57,37.55A20.85,20.85,0,0,1,0,27.54C0,12.31,16.65,0,37.15,0,56.14,0,71.77,10.56,74,24.15A6.88,6.88,0,0,0,78.28,26.42Z"/><path class="cls-2" d="M78.28,30.64a24.79,24.79,0,0,0-5,3.42c-4,12-18.59,21-36.1,21-15.76,0-29.22-7.27-34.58-17.54C33.89,61.9,78.28,26.42,78.28,26.42S80.16,30.08,78.28,30.64Z"/></g></g></svg>