<svg xmlns="http://www.w3.org/2000/svg" viewBox="0 0 71.7 88.63"><defs><style>.cls-1{fill:#a2cda9;}.cls-2{fill:#5aa563;}.cls-3{fill:#7dbb80;}</style></defs><title>lettuce</title><g id="Layer_2" data-name="Layer 2"><g id="Glavno_Besedilo" data-name="Glavno Besedilo"><path class="cls-1" d="M11.46,79.86S13.65,51.1,8.35,44.4.08,36.79.08,36.79-1.45,27,8.84,28.6,20.51,18,20.51,18,19,3.39,32.74,5,43.42,0,43.42,0s12-1.2,2.87,18.22-12.62,32.2-12.62,32.2L9,88.63Z"/><path class="cls-2" d="M3.66,33.52a17.15,17.15,0,0,1,6.77,2.86c.5.37,1,.73,1.49,1.13l1.38,1.27a22,22,0,0,1,2.35,3,18.21,18.21,0,0,1,2.72,7,19.14,19.14,0,0,1,.3,3.7,26.65,26.65,0,0,1-.42,3.65c-.26-1.21-.34-2.4-.59-3.56a31.22,31.22,0,0,0-.86-3.41c-.2-.55-.33-1.11-.54-1.65l-.68-1.58a14,14,0,0,0-.77-1.53l-.41-.75c-.14-.25-.32-.47-.48-.71a24.49,24.49,0,0,0-4.48-5.22A34.46,34.46,0,0,0,3.66,33.52Z"/><path class="cls-2" d="M26.6,11.57A28.52,28.52,0,0,1,30,20.47a32.54,32.54,0,0,1,.6,9.64c-.11.81-.17,1.62-.32,2.42s-.34,1.59-.53,2.38-.52,1.54-.78,2.31l-.41,1.15c-.17.37-.37.73-.55,1.09-.38.72-.72,1.45-1.14,2.14l-1.41,2c-.25.32-.46.65-.74.95s-.55.58-.84.86c-.56.57-1.14,1.12-1.72,1.65.38-.71.76-1.4,1.16-2.07l.6-1c.19-.33.33-.7.5-1.05l1-2.07.79-2.14a34.9,34.9,0,0,0,1.9-8.83,49,49,0,0,0,0-9.11A74.24,74.24,0,0,0,26.6,11.57Z"/><path class="cls-3" d="M16.15,81.63S39.53,64.72,48,65.73,58.82,68.8,58.82,68.8,68,65,61.21,57.06s3-15.51,3-15.51,13.17-6.37,4.62-17.18-1.31-11.72-1.31-11.72-5.24-10.85-17,7.09S29.62,47.32,29.62,47.32L10,88.32Z"/><path class="cls-2" d="M59.73,64a34.44,34.44,0,0,0-6.54-2.77,24.48,24.48,0,0,0-6.79-1.09c-.29,0-.57,0-.86,0l-.86,0a14,14,0,0,0-1.71.14l-1.71.25c-.57.1-1.12.28-1.69.4a31.25,31.25,0,0,0-3.36,1c-1.12.39-2.17.95-3.34,1.36a26.63,26.63,0,0,1,2.89-2.26,19.15,19.15,0,0,1,3.31-1.67,18.21,18.21,0,0,1,7.37-1.33,22,22,0,0,1,3.74.45l1.81.51c.59.2,1.17.45,1.74.68A17.15,17.15,0,0,1,59.73,64Z"/><path class="cls-2" d="M66.45,33a74.21,74.21,0,0,0-8.63,3.53A49,49,0,0,0,50,41.28a34.89,34.89,0,0,0-6.53,6.23l-1.41,1.8-1.25,1.93c-.21.32-.45.63-.64,1l-.54,1c-.36.69-.75,1.38-1.16,2.07.15-.77.32-1.55.51-2.33.09-.39.2-.78.3-1.17s.28-.75.42-1.12l.94-2.23c.37-.72.82-1.39,1.23-2.09.21-.35.41-.7.64-1l.76-.95c.52-.62,1-1.3,1.57-1.87s1.17-1.13,1.76-1.7,1.26-1,1.89-1.54a32.53,32.53,0,0,1,8.53-4.53A28.51,28.51,0,0,1,66.45,33Z"/></g></g></svg>