<svg xmlns="http://www.w3.org/2000/svg" viewBox="0 0 140.96 64.16"><defs><style>.cls-1{fill:#76618e;}.cls-2{fill:#fcdcdb;}.cls-3{fill:#e8b3b1;}.cls-4{fill:#c73355;}</style></defs><title>meat</title><g id="Layer_2" data-name="Layer 2"><g id="Glavno_Besedilo" data-name="Glavno Besedilo"><path class="cls-1" d="M6.79,51.21c.7-1.05,51-10.12,42.57-21.5S75.92,8.64,95.73,12.85s61.12,17.28,38.78,29.09-66.6,5.48-76.3,13.91C58.21,55.85-10.49,77.35,6.79,51.21Z"/><path class="cls-2" d="M2.79,48.59c.7-1.05,51-10.12,42.57-21.5S71.92,6,91.73,10.23s61.12,17.28,38.78,29.09-66.6,5.48-76.3,13.91C54.21,53.22-14.49,74.72,2.79,48.59Z"/><path class="cls-2" d="M0,56.15V46.81S121.93,33.6,137,23v9.72"/><path class="cls-3" d="M2.79,39.36c.7-1.05,51-10.12,42.57-21.5S71.92-3.21,91.73,1s61.12,17.28,38.78,29.09S63.91,35.57,54.21,44C54.21,44-14.49,65.5,2.79,39.36Z"/><path class="cls-4" d="M11.4,37.63c.61-.92,44.32-8.79,37-18.68S71.47.64,88.68,4.3s53.11,15,33.7,25.27S64.51,34.34,56.08,41.66C56.08,41.66-3.62,60.34,11.4,37.63Z"/><path class="cls-3" d="M47.78,13.9s44.81-1,59.17,20.52C107,34.43,107,10.89,47.78,13.9Z"/></g></g></svg>