<svg xmlns="http://www.w3.org/2000/svg" viewBox="0 0 168.33 55.23"><defs><style>.cls-1{fill:#fcdcdb;}.cls-2{fill:#e8b3b1;}.cls-3{fill:#c73355;}</style></defs><title>meat 02</title><g id="Layer_2" data-name="Layer 2"><g id="Glavno_Besedilo" data-name="Glavno Besedilo"><path class="cls-1" d="M110.65,43.34C110,42.57,68.57,41,74.06,30.87S50.37,16.93,34.93,22.54-12.2,43.29,7.07,50.25s54.09-3.09,62.82,2.59C69.89,52.84,127.47,62.38,110.65,43.34Z"/><path class="cls-1" d="M113.72,49.11l-1.05-7.5S13.31,44.7.06,37.91l1.09,7.81"/><path class="cls-2" d="M109.62,35.94c-.68-.77-42.09-2.39-36.6-12.47S49.33,9.52,33.9,15.14-13.23,35.88,6,42.85s54.09-3.09,62.82,2.59C68.85,45.44,126.43,55,109.62,35.94Z"/><path class="cls-3" d="M102.51,35.51c-.59-.67-36.57-2.08-31.8-10.84s-20.58-12.11-34-7.23-41,18-24.21,24.08,47-2.68,54.58,2.25C67.09,43.77,117.12,52.06,102.51,35.51Z"/><path class="cls-2" d="M70.63,20.55s-36.09,4.2-45.2,23.13C25.43,43.68,22.78,24.79,70.63,20.55Z"/><path class="cls-1" d="M165.85,37c-.6-.83-41.63-6.64-35.15-16.11S108.55,4.63,92.63,8.65,43.64,24.52,62.1,33.4s54.12,2.4,62.24,8.93C124.33,42.34,180.66,57.65,165.85,37Z"/><path class="cls-1" d="M168.33,43.05,168,35.48s-99.16-7-111.66-15.07l.3,7.88"/><path class="cls-2" d="M165.57,29.54c-.6-.83-41.63-6.64-35.15-16.11S108.27-2.84,92.34,1.18s-49,15.87-30.53,24.75,54.12,2.4,62.24,8.93C124.05,34.87,180.37,50.18,165.57,29.54Z"/><path class="cls-3" d="M158.54,28.4c-.52-.72-36.17-5.77-30.54-14S108.75.27,94.91,3.76,52.35,17.55,68.39,25.26s47,2.09,54.08,7.76C122.47,33,171.4,46.33,158.54,28.4Z"/><path class="cls-2" d="M128.34,10.28S92,10.81,81,28.72C81,28.72,80.31,9.66,128.34,10.28Z"/></g></g></svg>