<svg xmlns="http://www.w3.org/2000/svg" viewBox="0 0 76.95 84.12"><defs><style>.cls-1{fill:#bd9269;}.cls-2{fill:#b08054;}</style></defs><title>onion</title><g id="Layer_2" data-name="Layer 2"><g id="Glavno_Besedilo" data-name="Glavno Besedilo"><path class="cls-1" d="M17.6,76.45A31.06,31.06,0,0,1,10,72.23,24.92,24.92,0,0,1,.33,54.72C-1.35,41.15,3.57,29.92,12.86,20.4c4.11-4.2,8.57-8,12.82-12a12.58,12.58,0,0,0,4-5.79c.81.58,1.5,1,2.29,1.59C32,4.2-2.31,45.34,17.6,76.45Z"/><path class="cls-1" d="M50.91,78.74c-.69.14-1,.41-1,1.1a7.22,7.22,0,0,1,0,.78c-.06,2.4-1.1,3.47-3.47,3.5-5.35,0-10.74,0-16.12,0-2.31,0-3.47-1.07-3.39-3.36a2.27,2.27,0,0,0-.26-1.42C53.51,44,33.92,4.11,33.92,4.11L38.46,0c1.5,1.36,3,2.69,4.54,4.08.46-.41.9-.81,1.39-1.27.17.46.32.84.52,1.42C44.92,4.22,85.72,43,50.91,78.74Z"/><path class="cls-2" d="M76.89,52.43c-.64,12-7.44,20.69-19.53,24.68a60.09,60.09,0,0,1-6.45,1.62c34.81-35.71-6-74.51-6-74.51.78-.55,1.5-1,2.32-1.56,1.33,3.76,4.34,6,7.09,8.51,4.72,4.22,9.46,8.42,13.43,13.4A39.93,39.93,0,0,1,76.89,52.43Z"/><path class="cls-2" d="M26.75,79.32a1.92,1.92,0,0,0-1.5-.75,39.47,39.47,0,0,1-7.61-2.11h0C-2.31,45.34,32,4.2,32,4.2c.2-.46.38-.87.61-1.36.43.38.84.75,1.36,1.27C33.92,4.11,53.51,44,26.75,79.32Z"/></g></g></svg>