<svg xmlns="http://www.w3.org/2000/svg" viewBox="0 0 56.08 68.02"><defs><style>.cls-1{fill:#7fb036;}.cls-2{fill:#faa961;}.cls-3{fill:#fdc898;}</style></defs><title>peach </title><g id="Layer_2" data-name="Layer 2"><g id="Glavno_Besedilo" data-name="Glavno Besedilo"><path class="cls-1" d="M26.73,19.48c10.7-3,4.55-24.53,23-18.38C40.5,4.17,40.5,16.46,31.49,18.92A9.35,9.35,0,0,1,26.73,19.48Z"/><path class="cls-2" d="M55.9,43.58C54.72,55.4,48.1,64.83,40,67.35,46.38,57,48.57,48.16,48.57,40.83A33.45,33.45,0,0,0,37.25,15.41a14.08,14.08,0,0,1,2.36,0C50.05,16.49,57.34,29.08,55.9,43.58Z"/><path class="cls-3" d="M48.57,40.83c0,7.33-2.2,16.2-8.53,26.52a14,14,0,0,1-11.44-1.3,14,14,0,0,1-4.09,1.51C14.23,69.62,3.57,59.71.71,45.43s3.15-27.54,13.44-29.6c4.66-.93,9.4.59,13.45,3.86a16.55,16.55,0,0,1,9.65-4.28A33.45,33.45,0,0,1,48.57,40.83Z"/><polygon class="cls-3" points="40.04 67.35 40.04 67.35 40.04 67.35 40.04 67.35"/><polygon class="cls-3" points="37.25 15.41 37.25 15.41 37.25 15.41 37.25 15.41"/><path class="cls-2" d="M27.6,19.7s11.74,12.08,1,46.35"/></g></g></svg>