<svg xmlns="http://www.w3.org/2000/svg" viewBox="0 0 41.89 71.9"><defs><style>.cls-1{fill:#3fa860;}.cls-2{fill:#608b28;}.cls-3{fill:#7fb036;}</style></defs><title>pear</title><g id="Layer_2" data-name="Layer 2"><g id="Glavno_Besedilo" data-name="Glavno Besedilo"><path class="cls-1" d="M18.64,13.08s4-13.85,19.24-13C37.88,0,45,13.06,18.64,13.08Z"/><path class="cls-2" d="M41.89,51.78c-.05.51-.11,1-.13,1.47a21.55,21.55,0,0,1-2.58,8.58,18.68,18.68,0,0,1-7.33,7.28,21.5,21.5,0,0,1-7.25,2.5,22.73,22.73,0,0,1-4.66.27,22.51,22.51,0,0,1-9.54-2.53,18.58,18.58,0,0,1-3.84-2.66c37.55,5.6,19.19-53.59,19.19-53.59a7.78,7.78,0,0,1,3.86,3.17,17.61,17.61,0,0,1,1.84,4.24c.67,2.21,1.28,4.45,2,6.64.43,1.41,1,2.77,1.49,4.16.24.69.45,1.39.72,2,.61,1.55,1.23,3.06,1.89,4.58.85,1.92,1.76,3.81,2.61,5.73a20,20,0,0,1,1.71,7.78A1.57,1.57,0,0,0,41.89,51.78Z"/><path class="cls-3" d="M6.55,66.68a19.34,19.34,0,0,1-3.06-3.49A21.07,21.07,0,0,1,.21,48.66a24.71,24.71,0,0,1,2-6.24C3,40.64,3.89,38.85,4.72,37q.64-1.48,1.2-3c.8-2.16,1.65-4.32,2.4-6.5.48-1.44.85-2.93,1.28-4.4a29.87,29.87,0,0,1,2.13-5.94,9.11,9.11,0,0,1,3.17-3.57.64.64,0,0,0,.16-.21.82.82,0,0,0,.27,0,13,13,0,0,1,6.26-1.07,13.21,13.21,0,0,1,4.16.8S44.1,72.27,6.55,66.68Z"/><path class="cls-2" d="M20.19,12.26s-1-5.22-5.07-5.6c0,0,.39-2.33,2.54-.5a11.76,11.76,0,0,1,4.53,6.29Z"/></g></g></svg>