<svg xmlns="http://www.w3.org/2000/svg" viewBox="0 0 72.53 47.36"><defs><style>.cls-1{fill:#c99b6f;}.cls-2{fill:#be8b5b;}.cls-3{fill:#aa6e34;}</style></defs><title>potato</title><g id="Layer_2" data-name="Layer 2"><g id="Glavno_Besedilo" data-name="Glavno Besedilo"><path class="cls-1" d="M8,38.51c-5-4.07-8-9.2-8-14.82C0,10.61,16.23,0,36.26,0A49.6,49.6,0,0,1,58.65,5.06S64,51.32,8,38.51Z"/><path class="cls-2" d="M72.53,23.68c0,13.08-16.23,23.68-36.26,23.68C24.82,47.36,14.63,43.9,8,38.51,64,51.32,58.65,5.06,58.65,5.06,67.09,9.39,72.53,16.12,72.53,23.68Z"/><circle class="cls-3" cx="16.55" cy="11.24" r="2.05" transform="translate(-3.1 15) rotate(-45)"/><circle class="cls-3" cx="23.4" cy="13.75" r="1.45" transform="translate(-2.87 20.58) rotate(-45)"/><circle class="cls-3" cx="17.59" cy="29.81" r="1.27" transform="translate(-15.92 21.17) rotate(-45)"/><circle class="cls-3" cx="20.05" cy="32.27" r="0.9" transform="translate(-16.94 23.63) rotate(-45)"/><circle class="cls-3" cx="24.87" cy="32.9" r="1.47" transform="translate(-15.98 27.22) rotate(-45)"/><circle class="cls-3" cx="54.83" cy="18.66" r="1.27" transform="translate(14.88 60.6) rotate(-65.19)"/><circle class="cls-3" cx="51.67" cy="17.2" r="0.9" transform="translate(14.37 56.88) rotate(-65.19)"/><circle class="cls-3" cx="46.92" cy="18.28" r="1.47" transform="translate(10.64 53.2) rotate(-65.19)"/><circle class="cls-3" cx="51.66" cy="8.68" r="1.27" transform="translate(22.1 51.93) rotate(-65.19)"/><circle class="cls-3" cx="48.5" cy="7.22" r="0.9" transform="translate(21.59 48.22) rotate(-65.19)"/><circle class="cls-3" cx="43.76" cy="8.3" r="1.47" transform="translate(17.86 44.53) rotate(-65.19)"/><circle class="cls-3" cx="47.64" cy="39.2" r="1.27" transform="translate(-6.88 10.32) rotate(-11.54)"/><circle class="cls-3" cx="51.05" cy="38.5" r="0.9" transform="translate(-6.67 10.99) rotate(-11.54)"/><circle class="cls-3" cx="54.23" cy="34.83" r="1.47" transform="translate(-5.87 11.55) rotate(-11.54)"/></g></g></svg>