<svg xmlns="http://www.w3.org/2000/svg" viewBox="0 0 126.18 34.84"><defs><style>.cls-1{fill:#f69988;}.cls-2{fill:#f26d61;}.cls-3{fill:#fbc7ba;}</style></defs><title>salmon</title><g id="Layer_2" data-name="Layer 2"><g id="Glavno_Besedilo" data-name="Glavno Besedilo"><polygon class="cls-1" points="0 25.05 33.19 34.84 126.18 8.55 99.67 4.04 0 25.05"/><path class="cls-1" d="M0,25.05S2.65,3.73,23.56,2.24,99.67,0,99.67,0V4"/><path class="cls-2" d="M33.35,34.63S36,13.31,56.91,11.81s69.27-9.08,69.27-9.08V8.55"/><polygon class="cls-1" points="99.67 0 126.18 2.74 96.54 7.12 99.67 0"/><path class="cls-3" d="M7.77,9.2a25.49,25.49,0,0,1,9-3.9,34.42,34.42,0,0,1,9.88-.87,36.54,36.54,0,0,1,9.71,2l1.17.39c.38.15.76.32,1.14.49l2.25,1c1.46.75,2.86,1.62,4.23,2.49-1.57-.48-3.06-1.1-4.6-1.58L38.27,8.5l-1.15-.35L36,7.88c-.78-.17-1.55-.35-2.32-.55l-2.35-.38-1.17-.2-1.18-.12c-.79-.06-1.57-.19-2.36-.2l-2.37-.09c-.79,0-1.58.06-2.37.06a43.87,43.87,0,0,0-4.73.44A42.6,42.6,0,0,0,7.77,9.2Z"/><path class="cls-3" d="M28.74,2c2.46.09,4.92.37,7.36.66s4.87.69,7.31,1.06,4.85.86,7.26,1.35l3.61.77c1.2.29,2.4.56,3.59.87-2.45-.28-4.88-.64-7.31-1L43.27,4.57,36,3.32Z"/><path class="cls-3" d="M44.93,1.2c2.46.09,4.92.37,7.36.66s4.87.69,7.31,1.06,4.85.86,7.26,1.35L70.46,5c1.2.29,2.4.56,3.59.87-2.45-.28-4.88-.64-7.31-1L59.46,3.75,52.19,2.49Z"/><path class="cls-3" d="M61.61.63c2.46.09,4.92.37,7.36.66s4.87.69,7.31,1.06,4.85.86,7.26,1.35l3.61.77c1.2.29,2.4.56,3.59.87-2.45-.28-4.88-.64-7.31-1L76.14,3.18,68.87,1.92Z"/></g></g></svg>