<svg xmlns="http://www.w3.org/2000/svg" viewBox="0 0 129.49 66.52"><defs><style>.cls-1{fill:#8c3c1f;}.cls-2{fill:#7e2706;}</style></defs><title>sausage</title><g id="Layer_2" data-name="Layer 2"><g id="Glavno_Besedilo" data-name="Glavno Besedilo"><path class="cls-1" d="M111,5.94C107.46,64.24,10.7,51.77,0,46.21a6.47,6.47,0,0,1,3.53-4.78,6.09,6.09,0,0,1,3.3-.93c12.82.71,85.41.55,90.21-27.86,1.18-7,7.49-11.38,13.2-7.22A3,3,0,0,1,111,5.94Z"/><path class="cls-2" d="M7.72,53.77c-2.12-.39-4.85-1.25-6.26-2.85A6.09,6.09,0,0,1,0,46.21C10.7,51.77,107.46,64.24,111,5.94,122,20.1,98.52,70.43,7.72,53.77Z"/><path class="cls-1" d="M104.28,4l-1.15-4a1.91,1.91,0,0,0,2.75,0,1.41,1.41,0,0,0,2.18,0s.47,2.73,2.28,2l-1.7,2.48Z"/><path class="cls-1" d="M127,15.36C123.46,73.65,26.7,61.18,16,55.62a6.47,6.47,0,0,1,3.53-4.78,6.09,6.09,0,0,1,3.3-.93c12.82.71,85.41.55,90.21-27.86,1.18-7,7.49-11.38,13.2-7.22A3,3,0,0,1,127,15.36Z"/><path class="cls-2" d="M23.72,63.18c-2.12-.39-4.85-1.25-6.26-2.85A6.09,6.09,0,0,1,16,55.62C26.7,61.18,123.46,73.65,127,15.36,138,29.52,114.52,79.84,23.72,63.18Z"/><path class="cls-1" d="M120.28,13.37l-1.15-4a1.91,1.91,0,0,0,2.75,0,1.41,1.41,0,0,0,2.18,0s.47,2.73,2.28,2l-1.7,2.48Z"/></g></g></svg>