<svg xmlns="http://www.w3.org/2000/svg" viewBox="0 0 78.68 59.83"><defs><style>.cls-1{fill:#f68f4e;}.cls-2{fill:#fbc49f;}.cls-3{fill:#fab685;}</style></defs><title>Asset 45</title><g id="Layer_2" data-name="Layer 2"><g id="Glavno_Besedilo" data-name="Glavno Besedilo"><path class="cls-1" d="M45.31,26.55,59.37,41.9S57.81,60.1,24.08,59.83c0,0-40.81-14.71-16.18-49.27,0,0,15.44-19.58,47.15-5.42,0,0,15.17,8.27,19.21,20.86,0,0,.19,1.66-1.38,1,0,0,5.7,4.78,5.8,12a1,1,0,0,1-1.66,0s2.76,11.22-.92,14.43c0,0-18.66-15.9-19.58-24.44a23.08,23.08,0,0,1-3.21-8.18s-6.25,3.67-18-.19c0,0-13.78-.72-8.36,9.24C26.93,29.91,34,36.2,45.31,26.55Z"/><path class="cls-2" d="M44.78,28.67,56.77,42S46.16,56.93,37.06,56.1c0,0-10.07-13-6.21-22.61C30.85,33.49,39.89,35.28,44.78,28.67Z"/><path class="cls-2" d="M28.6,32.94s-3.68,12.75,5.29,23.2c0,0-22.2,1.89-29.65-15.89,0,0,8.41-14.34,19-14.48A8.3,8.3,0,0,0,28.6,32.94Z"/><path class="cls-3" d="M3.55,37.22s6.9-15.72,20-14.07c0,0,2.89-5.24,10.34-4.55,0,0-.14-13.09-14.83-13.78C19.06,4.82,1.49,10.06,3.55,37.22Z"/><path class="cls-3" d="M21.34,3.44S34.16,1.65,36.5,18.88c0,0,11.59,3,16,0,0,0,.13-13.1-18.61-17C33.89,1.92,25.71,1.15,21.34,3.44Z"/></g></g></svg>