<svg xmlns="http://www.w3.org/2000/svg" viewBox="0 0 57.82 57.31"><defs><style>.cls-1{fill:#ffdeab;}.cls-2{fill:#d73828;}.cls-3{fill:#009a46;}</style></defs><title>strawberry</title><g id="Layer_2" data-name="Layer 2"><g id="Glavno_Besedilo" data-name="Glavno Besedilo"><path class="cls-1" d="M24.26,12.84l9.33,2.7L45.21,28.65,48.45,39.6,44.4,48,26.56,54.87,4.64,52.57s-1.19-7.43-1.06-7.84,3-11.51,3-11.51L8.72,23.11l4.73-6.62,6.35-3Z"/><path class="cls-2" d="M9.92,57.3c-1.48-.33-3-.58-4.46-.94a12.21,12.21,0,0,1-2.13-.83c-2.24-1-3-3-3.24-5.26A29.25,29.25,0,0,1,1,40.73c.73-3,1.5-6,2.42-9a84.8,84.8,0,0,1,4.2-11.57,20.33,20.33,0,0,1,7.26-8.62,15.19,15.19,0,0,1,10.5-2.3A20.92,20.92,0,0,1,38.7,16.71a103.54,103.54,0,0,1,8.51,11,19.25,19.25,0,0,1,3.31,12.53c-.6,6.74-4.28,11.3-10.38,14a29.07,29.07,0,0,1-7.64,2l-1.14.18S10.42,57.41,9.92,57.3ZM29,33.82a1.15,1.15,0,0,0-1.47-1.15,3.77,3.77,0,0,0-2.64,2.77c-.22.61,0,1,.66.85A10.58,10.58,0,0,0,28,35.45,2,2,0,0,0,29,33.82Zm4.81,6.64a4,4,0,0,0,3.28-2.21,1.23,1.23,0,0,0-.22-1.38,1.27,1.27,0,0,0-1.45-.17,2.34,2.34,0,0,0-.59.34,4.4,4.4,0,0,0-1.55,2.81C33.26,40.24,33.41,40.49,33.86,40.46ZM25,46.29A3.84,3.84,0,0,0,28,45a1.22,1.22,0,0,0,.14-1.49A1.29,1.29,0,0,0,26.75,43a3.91,3.91,0,0,0-2.53,2C23.67,45.95,23.89,46.3,25,46.29Zm-.78-19.52a3.77,3.77,0,0,0,3-1.35,1.17,1.17,0,0,0,.12-1.49,1.27,1.27,0,0,0-1.44-.45,4,4,0,0,0-2.7,2.43c-.25.54-.07.8.54.85C23.9,26.77,24,26.76,24.18,26.76Zm10.23,2a3.83,3.83,0,0,0,3-1.78,1.17,1.17,0,0,0-.06-1.45A1.23,1.23,0,0,0,36,25.23a3.91,3.91,0,0,0-2.42,2.71C33.32,28.6,33.52,28.82,34.42,28.78ZM18.5,31.44c0-1.19-.85-1.68-1.79-1.24a3.82,3.82,0,0,0-2.12,3.15c-.07.47.22.63.65.56a4.27,4.27,0,0,0,2.68-1.41A4.81,4.81,0,0,0,18.5,31.44ZM16.18,43.16a3.68,3.68,0,0,0,2.95-1.77A1.12,1.12,0,0,0,19,40.05a1.14,1.14,0,0,0-1.31-.29,3.67,3.67,0,0,0-2.36,2.74C15.23,43,15.51,43.19,16.18,43.16ZM7.25,38.41c0,.32.08.65.15,1s.34.43.66.31a3.82,3.82,0,0,0,2.11-2.81c0-.57-.07-1.09-.68-1.33A1.22,1.22,0,0,0,8.06,36,3.59,3.59,0,0,0,7.25,38.41ZM19,52.23a11.86,11.86,0,0,0,1.53-.49,1.19,1.19,0,0,0,.72-1.37A1.24,1.24,0,0,0,20,49.52a3.81,3.81,0,0,0-3.05,1.39c-.31.32-.22.64.18.78C17.69,51.91,18.31,52,19,52.23Zm-.18-34a3.47,3.47,0,0,0,2.16-.68,1.22,1.22,0,0,0,.51-1.46A1.33,1.33,0,0,0,20,15.5a4,4,0,0,0-2.51,1.79c-.24.32-.18.65.26.77S18.44,18.18,18.79,18.23Zm10.85-2.79a4.3,4.3,0,0,0-2.68,1c-.23.22-.38.43-.08.72a3.65,3.65,0,0,0,3.5.5,1.12,1.12,0,0,0,.7-1.07,1.09,1.09,0,0,0-.84-1A3.37,3.37,0,0,0,29.63,15.44Zm2.91,36.11a17.71,17.71,0,0,0,2.14-.71,1.26,1.26,0,0,0,.79-1.51,1.24,1.24,0,0,0-1.63-.48A8.48,8.48,0,0,0,31.91,50a3.62,3.62,0,0,0-.66,1.05Zm12.83-16c0-1.22-.21-1.62-.75-1.74a1.27,1.27,0,0,0-1.4.87,3.62,3.62,0,0,0-.1,2.82c.12.33.37.5.67.27A3.43,3.43,0,0,0,45.38,35.56ZM11,24.82c0,.65.17.87.65.7a3.66,3.66,0,0,0,2.23-1.93A1.24,1.24,0,0,0,13.68,22a1.3,1.3,0,0,0-1.52.32A3.87,3.87,0,0,0,11,24.82ZM7.28,50a3.18,3.18,0,0,0,2.64-1.48c.23-.4.31-.91-.07-1.2a1.48,1.48,0,0,0-1.12-.22,3,3,0,0,0-2,2.3C6.53,49.94,6.82,50.09,7.28,50Zm36.46-5.32a1,1,0,0,0-1.61-.87,3.39,3.39,0,0,0-1.46,2.86c.06.35.26.57.6.38a10,10,0,0,0,1.8-1.16A4.07,4.07,0,0,0,43.73,44.73Z"/><path class="cls-3" d="M34.94,13.42S33.5,3.69,39.35,0a20.13,20.13,0,0,0-.48,5.43,12.2,12.2,0,0,0,.31,2.14L40.05,9c2.45,2.61,4.62,3.69,6.78,2.61,1.44-.36,1.68,0,1.48.73a10.48,10.48,0,0,1-.53,1.32c-1,5.52,1.21,7.68,5.17,9a4.31,4.31,0,0,0-.09,1.19c.08,1.31.88,3.11,5,2.15,0,0-5.68,6.4-12.07-.09Z"/></g></g></svg>