<svg xmlns="http://www.w3.org/2000/svg" viewBox="0 0 47.56 55.41"><defs><style>.cls-1{fill:#c13122;}.cls-2{fill:#ac2a1c;}.cls-3{fill:#008560;}.cls-4{fill:none;}</style></defs><title>tomato</title><g id="Layer_2" data-name="Layer 2"><g id="Glavno_Besedilo" data-name="Glavno Besedilo"><path class="cls-1" d="M25.54,55.34c-.57,0-1.15.07-1.76.07a23.78,23.78,0,0,1,0-47.56,23.29,23.29,0,0,1,5.74.72C50.25,43.5,25.54,55.34,25.54,55.34Z"/><path class="cls-2" d="M47.56,31.63a23.75,23.75,0,0,1-22,23.71s24.71-11.84,4-46.77A23.75,23.75,0,0,1,47.56,31.63Z"/><path class="cls-3" d="M16.4,10.27S9.66,5.65,10.72,0a16.72,16.72,0,0,0,3,3.36,10.14,10.14,0,0,0,1.48,1l1.38.28c3,0,4.85-.73,5.42-2.66.59-1.08,1-1,1.28-.49a8.71,8.71,0,0,1,.51,1.07c2.82,3.7,5.36,3.6,8.42,2a3.58,3.58,0,0,0,.67.73C33.74,6,35.29,6.49,37,3.46c0,0,.69,7.07-6.87,7.3Z"/><path class="cls-4" d="M29.52,8.56c-.14-.25-.29-.47-.43-.72"/></g></g></svg>