<svg xmlns="http://www.w3.org/2000/svg" viewBox="0 0 94.76 36.27"><defs><style>.cls-1{fill:#008035;}.cls-2{fill:#d82435;}.cls-3{fill:#7a0026;}</style></defs><title>watermelon</title><g id="Layer_2" data-name="Layer 2"><g id="Glavno_Besedilo" data-name="Glavno Besedilo"><path class="cls-1" d="M94.76,0C47.78,75.2.47,11.89,0,.92l1.7,0c8.58,17.33,48.85,59,89.7-.86Z"/><path class="cls-2" d="M91.39,0C50.55,59.88,10.27,18.22,1.7.89Z"/><path class="cls-3" d="M15.62,3.91s-2.72,3.89,0,5.8C15.62,9.71,18.75,8.39,15.62,3.91Z"/><path class="cls-3" d="M26.2,9s-2.72,3.89,0,5.8C26.2,14.81,29.33,13.49,26.2,9Z"/><path class="cls-3" d="M38.25,3.21s-2.72,3.89,0,5.8C38.25,9,41.38,7.69,38.25,3.21Z"/><path class="cls-3" d="M42.44,14.81s-2.72,3.89,0,5.8C42.44,20.61,45.57,19.29,42.44,14.81Z"/><path class="cls-3" d="M53.67,4.88s-2.72,3.89,0,5.8C53.67,10.68,56.79,9.36,53.67,4.88Z"/><path class="cls-3" d="M71.66,3.91s-2.72,3.89,0,5.8C71.66,9.71,74.78,8.39,71.66,3.91Z"/><path class="cls-3" d="M60.29,13.64s-2.72,3.89,0,5.8C60.29,19.44,63.42,18.12,60.29,13.64Z"/></g></g></svg>