<svg xmlns="http://www.w3.org/2000/svg" viewBox="0 0 84.22 61.45"><defs><style>.cls-1{fill:#459b51;}.cls-2{fill:#73af75;}.cls-3{fill:#478c59;}</style></defs><title>zucchini</title><g id="Layer_2" data-name="Layer 2"><g id="Glavno_Besedilo" data-name="Glavno Besedilo"><path class="cls-1" d="M82,9.64a10.55,10.55,0,0,0-1.91-2A13.85,13.85,0,0,0,75.6,5.18a8.44,8.44,0,0,0-.93-.27,10.92,10.92,0,0,0-2.25-.3A13.22,13.22,0,0,0,68,5.3a18.84,18.84,0,0,0-3,1.34C58.68,10,53.9,16.51,53.9,16.51c-.16.27-.09.36-.25.5-9.28,17.15-33.29,8.78-46,16.79a14.57,14.57,0,0,0-1.21.86C3.3,37.06,1,40.68,0,46.27a19.4,19.4,0,0,0,2.28,4.62c.11.18.25.36.39.55C5.19,55,9,57.78,14.24,59.65c5.8,2.07,11.94,2.14,18.16,1.3A70.9,70.9,0,0,0,55,53.78C71.28,45.57,80.93,34.1,84,19.45a1,1,0,0,1,0-.23A13.44,13.44,0,0,0,82,9.64Z"/><path class="cls-2" d="M74.67,4.91c-1.48,10.56-6.19,19.07-14,25.3-12.85,10.24-31.28,12.31-44,12.31a104.5,104.5,0,0,1-14.49-.93l.32-2.34c.36,0,36.56,5.23,56.81-10.92C66.59,22.5,71,14.51,72.42,4.61A10.92,10.92,0,0,1,74.67,4.91Z"/><path class="cls-2" d="M68,5.3c-10.6,27.3-36,31.53-50.71,31.53A62.41,62.41,0,0,1,6.21,36l.23-1.3a14.57,14.57,0,0,1,1.21-.86c6.57,1,43.23,4.8,57.36-27.16A18.84,18.84,0,0,1,68,5.3Z"/><path class="cls-2" d="M82,9.64C75.78,48.71,21.73,51.5,6.32,51.5c-1.77,0-3,0-3.66-.07-.14-.18-.27-.36-.39-.55L2.39,49c.71,0,72.21,3.57,77.54-41.45l.11,0A10.55,10.55,0,0,1,82,9.64Z"/><path class="cls-3" d="M68,5.3V.21s10.79-2,16.19,6.4l-1.56,4.27S74.44,3.7,68,5.3Z"/></g></g></svg>