<svg xmlns="http://www.w3.org/2000/svg" xmlns:xlink="http://www.w3.org/1999/xlink" viewBox="0 0 223.67 383.1"><defs><style>.cls-1,.cls-15{fill:none;stroke-miterlimit:10;}.cls-1{stroke:#0073bc;stroke-width:5.67px;}.cls-2{clip-path:url(#clip-path);}.cls-3{fill:#fbc5aa;}.cls-4{fill:#d8dcec;}.cls-5{fill:#0073bc;}.cls-6{fill:#eed1bf;}.cls-7{fill:#fff;}.cls-8{fill:#514835;}.cls-9{fill:#cabcdc;}.cls-10{fill:#ebaf89;}.cls-11{fill:#c1c0db;}.cls-12{fill:#200600;}.cls-13{fill:#d55227;}.cls-14{fill:#c4463a;}.cls-15{stroke:#231f20;stroke-width:0.63px;}</style><clipPath id="clip-path"><circle class="cls-1" cx="111.83" cy="111.83" r="109"/></clipPath></defs><g id="Layer_2" data-name="Layer 2"><g id="Avatar"><g class="cls-2"><path id="Vrat" class="cls-3" d="M145.83,176.31c-5.1,12.81-18.42,22-34.07,22-15.37,0-28.5-8.84-33.8-21.31,4-1.14,12.58-5.35,13.09-20.48h35.3S129.59,180.26,145.83,176.31Z"/><path class="cls-4" d="M7.07,366.49l51.93-2V225.05s-12-61-30.45-27.87C18.33,258.87,11.23,310.1,7.07,366.49Z"/><path class="cls-4" d="M215.49,366.49l-51.93-2V225.05s12-61,30.45-27.87C204.23,258.87,211.33,310.1,215.49,366.49Z"/><path id="Majica" class="cls-5" d="M196.62,196.24c-4.83.58-10.78,7.47-16.38,24.68,0,5,2.85,29.09-7.21,43.4-2.17,22.51,5.85,74.46,8.65,97.55-56.74,46.95-129,1.63-132.81,0,2.74-22.76,6.89-75.42,4.78-97.64-11.22-15.34-10.58-44-10.58-44-5.54-16.71-11.39-23.45-16.16-24-11.84-1.38,17.48-20.63,35.57-20.63H77.42q.26.69.54,1.35c5.3,12.47,18.43,21.31,33.8,21.31,15.65,0,29-9.15,34.07-22,.1-.23.19-.47.28-.7h14.94C179.14,175.61,208.46,194.86,196.62,196.24Z"/><path id="Koza" class="cls-6" d="M107.38,35.94h8.2a37.7,37.7,0,0,1,37.7,37.7V123.7a41.8,41.8,0,0,1-41.8,41.8h0a41.8,41.8,0,0,1-41.8-41.8V73.64a37.7,37.7,0,0,1,37.7-37.7Z"/><path class="cls-7" d="M99.93,96.3c.09-8-22.94-8.35-23-.3C76.82,103.27,99.85,103.57,99.93,96.3Z"/><path class="cls-7" d="M146.21,96.3c.09-8-22.93-8.35-23-.3C123.1,103.27,146.13,103.57,146.21,96.3Z"/><ellipse class="cls-8" cx="87.7" cy="95.86" rx="3.81" ry="4.14"/><ellipse class="cls-8" cx="134.7" cy="95.86" rx="3.81" ry="4.14"/><path id="Oci" class="cls-9" d="M75.47,96.47s9.78-10.67,27.09,0C102.56,96.47,87.51,78.4,75.47,96.47Z"/><path id="Oci-2" data-name="Oci" class="cls-9" d="M121.58,96.47s9.78-10.67,27.09,0C148.67,96.47,133.62,78.4,121.58,96.47Z"/><g id="Nos"><path class="cls-10" d="M113.59,123.7a25.86,25.86,0,0,1-8.42-1.91l.46-1.11c2.44,1,9.25,3.13,11.48.7.32-.83-.91-7.55-1.9-12.95-2.1-11.49-2.61-15.2-1.7-16a.81.81,0,0,1,.77-.2l-.3,1.16a.35.35,0,0,0,.38-.13c-.53,1,1,9.09,2,15,1.86,10.15,2.29,13.22,1.6,14A5.81,5.81,0,0,1,113.59,123.7Z"/></g><path id="Obrve" class="cls-11" d="M103.27,87.07c-16.86-9.24-24.66-.3-24.74-.21L77.2,85.74c.35-.41,8.81-10.12,26.91-.2Z"/><path id="Obrve-2" data-name="Obrve" class="cls-11" d="M148.25,88.24C131.39,79,123.59,88,123.51,88l-1.33-1.12c.35-.42,8.81-10.12,26.91-.2Z"/><path class="cls-12" d="M130.18,134.92a15.24,15.24,0,0,1-6.56,8.15c-1.24-5.12-23.8-3.13-23.88-3.13a19.27,19.27,0,0,1-3.44-5A86.89,86.89,0,0,0,130.18,134.92Z"/><path class="cls-13" d="M123.62,143.07h0a19.32,19.32,0,0,1-9.33,2.69,18.06,18.06,0,0,1-14.55-5.82C99.82,139.94,122.38,138,123.62,143.07Z"/><polygon class="cls-12" points="99.74 139.94 99.74 139.94 99.74 139.94 99.74 139.94"/><path id="Lasje3" class="cls-11" d="M165.31,187.21s-5.39-1.23-9.25-14c-9.45-9.12-22.52-16.13-22.52-16.13,8.06-5,14.52-16.65,18.33-24,.14-6,1-12.52,1.59-19.91,5.8-68.52-40.06-48.71-42-48.56h0c-1.76-.1-46.8-19.69-41.94,48.56C70,120.5,71.29,127,71.44,133c5.21,9.14,15.5,22.5,15.5,22.5-5.51-3.78-12.91,4.31-18.89,13.26-3.82,17-10.4,18.45-10.4,18.45S30.29,15.3,111.48,22.17C192.66,15.3,165.31,187.21,165.31,187.21Z"/><path id="Koza-2" data-name="Koza" class="cls-6" d="M152.57,89.22S163.05,86,160,103.08s-7.43,27.6-7.43,27.6Z"/><path id="Koza-3" data-name="Koza" class="cls-6" d="M71.56,91.7s-10.49-3.19-7.43,13.86,7.43,27.6,7.43,27.6Z"/><ellipse id="Uhani" class="cls-14" cx="69.68" cy="129.01" rx="3.31" ry="3.59"/><ellipse id="Uhani-2" data-name="Uhani" class="cls-14" cx="154.87" cy="128.88" rx="3.31" ry="3.59"/><g id="ocala"><rect class="cls-15" x="120.97" y="87.48" width="28.9" height="19.11" rx="8.59"/><rect class="cls-15" x="75.28" y="87.48" width="28.9" height="19.11" rx="8.59"/><path class="cls-15" d="M104.18,97.64s10.1-8.28,16.79,0"/><line class="cls-15" x1="69.68" y1="90.4" x2="75.28" y2="96.43"/><line class="cls-15" x1="153.27" y1="89.64" x2="149.87" y2="97.03"/></g></g><circle class="cls-1" cx="111.83" cy="111.83" r="109"/></g></g></svg>