<svg xmlns="http://www.w3.org/2000/svg" viewBox="0 0 211.19 646.01"><defs><style>.cls-1{fill:#eed1bf;}.cls-2{fill:#fcc5aa;}.cls-3{fill:#d9dceb;}.cls-4{fill:#0474bb;}.cls-11,.cls-5{fill:none;stroke-miterlimit:10;}.cls-5{stroke:#d9dceb;stroke-width:1.18px;}.cls-6{fill:#fff;}.cls-7{fill:#524935;}.cls-8{fill:#c9bcdd;}.cls-9{fill:#ebaf89;}.cls-10{fill:#c1c0da;}.cls-11{stroke:#231f20;stroke-width:0.63px;}.cls-12{fill:#c4463a;}.cls-13{fill:#200600;}.cls-14{fill:#d55227;}</style></defs><g id="Layer_2" data-name="Layer 2"><g id="Layer_1-2" data-name="Layer 1"><path id="Koza" class="cls-1" d="M15.41,331.78s-5.89,46.38,25.89,51V330.65Z"/><path id="Koza-2" data-name="Koza" class="cls-1" d="M196.31,337s5.89,46.38-25.9,51V335.83Z"/><path id="Vrat" class="cls-2" d="M138.76,151.76c-5.1,12.81-18.42,22-34.07,22-15.37,0-28.5-8.84-33.8-21.31,4-1.14,12.58-5.35,13.09-20.48h35.3S122.52,155.71,138.76,151.76Z"/><path class="cls-3" d="M0,349.66l51.93-2V200.5s-12-61-30.45-27.87Q6.15,265.16,0,349.66Z"/><path class="cls-3" d="M208.42,349.66l-51.94-2V200.5s12-61,30.46-27.87Q202.27,265.16,208.42,349.66Z"/><path id="Koza-3" data-name="Koza" class="cls-1" d="M89.92,621.71l-30.69,4.17c3.61-2.34,3.56-4.17,3.56-4.17Z"/><path id="Koza-4" data-name="Koza" class="cls-1" d="M156.64,625.88,126,621.71h25.92A16.63,16.63,0,0,0,156.64,625.88Z"/><path id="cevlje" class="cls-4" d="M89.92,621.71V642.1h-15v-5.82s-33.06,12.16-47.57,9.29c0,0-16.55-2.23,8.86-11.39,19-6.85,22.83-8.27,22.83-8.27l.17,0h0Z"/><path id="cevlje-2" data-name="cevlje" class="cls-4" d="M188.51,645.57c-14.5,2.87-47.57-9.29-47.57-9.29v5.82H126V621.71l30.69,4.17h0l.17,0s3.83,1.42,22.84,8.27C205.06,643.34,188.51,645.57,188.51,645.57Z"/><polygon id="Hlace" class="cls-1" points="174.61 345.04 174.61 372.98 151.87 621.71 125.89 621.71 109.44 417.94 89.97 621.71 62.79 621.71 41.8 372.98 41.8 345.04 174.61 345.04"/><path id="Obleka" class="cls-4" d="M179.78,320.28c-2.81-23.42-19-49.84-16.79-72.68,10.06-14.52,10.34-46.38,10.32-51.4,5.6-17.46,11.54-24.46,16.38-25,11.84-1.41-17.48-20.94-35.57-20.94H139.18c-4.9,13.38-18.43,23-34.35,23s-29.44-9.62-34.35-23H55.55c-18.1,0-47.42,19.53-35.58,20.94,4.78.57,10.63,7.41,16.16,24.37,0,0-.63,36.87,10.58,52.44,2.13,22.73-11.13,47-13.93,70.3L5.22,509.13s21.11,22.94,82.51,0c0,0,41.69,17,78.37,0,0,0,30.57,13.67,45.09,0Z"/><path class="cls-5" d="M29,312.37c.18-12.85,78.16,51.44,151.72,0"/><path id="Koza-5" data-name="Koza" class="cls-1" d="M99.47,15h8.2a37.7,37.7,0,0,1,37.7,37.7v50.06a41.8,41.8,0,0,1-41.8,41.8h0a41.8,41.8,0,0,1-41.8-41.8V52.67A37.7,37.7,0,0,1,99.47,15Z"/><path class="cls-6" d="M92,75.33c.1-8-22.93-8.35-23-.3C68.91,82.3,91.94,82.6,92,75.33Z"/><path class="cls-6" d="M138.31,75.33c.09-8-22.94-8.35-23-.3C115.2,82.3,138.23,82.6,138.31,75.33Z"/><ellipse class="cls-7" cx="79.79" cy="74.89" rx="3.81" ry="4.14"/><ellipse class="cls-7" cx="126.8" cy="74.89" rx="3.81" ry="4.14"/><path id="Oci" class="cls-8" d="M67.56,75.5s9.79-10.67,27.1,0C94.66,75.5,79.61,57.43,67.56,75.5Z"/><path id="Oci-2" data-name="Oci" class="cls-8" d="M113.67,75.5s9.79-10.67,27.1,0C140.77,75.5,125.71,57.43,113.67,75.5Z"/><g id="Nos"><path class="cls-9" d="M105.68,102.73a25.41,25.41,0,0,1-8.41-1.92l.46-1.1c2.44,1,9.25,3.13,11.48.7.31-.83-.92-7.55-1.9-13-2.1-11.49-2.61-15.2-1.71-16a.83.83,0,0,1,.78-.2l-.3,1.16a.36.36,0,0,0,.38-.14c-.53,1,1,9.1,2,15,1.85,10.15,2.29,13.22,1.6,14A5.83,5.83,0,0,1,105.68,102.73Z"/></g><path id="Obrve" class="cls-10" d="M95.37,66.09c-16.86-9.23-24.66-.29-24.74-.2L69.3,64.77c.35-.42,8.81-10.12,26.91-.2Z"/><path id="Obrve-2" data-name="Obrve" class="cls-10" d="M140.35,67.27c-16.86-9.24-24.67-.3-24.74-.2L114.28,66c.35-.42,8.81-10.12,26.91-.21Z"/><g id="ocala"><rect class="cls-11" x="113.07" y="66.51" width="28.9" height="19.11" rx="8.59"/><rect class="cls-11" x="67.38" y="66.51" width="28.9" height="19.11" rx="8.59"/><path class="cls-11" d="M96.28,76.67s10.09-8.29,16.79,0"/><line class="cls-11" x1="61.78" y1="69.43" x2="67.38" y2="75.46"/><line class="cls-11" x1="145.37" y1="68.66" x2="141.96" y2="76.06"/></g><path id="Koza-6" data-name="Koza" class="cls-1" d="M144.66,68.25s10.49-3.18,7.43,13.86-7.43,27.6-7.43,27.6Z"/><path id="Koza-7" data-name="Koza" class="cls-1" d="M62.18,69.1S51.7,65.91,54.75,83s7.43,27.6,7.43,27.6Z"/><ellipse id="Uhani" class="cls-12" cx="61.78" cy="108.04" rx="3.31" ry="3.59"/><ellipse id="Uhani-2" data-name="Uhani" class="cls-12" cx="146.97" cy="107.91" rx="3.31" ry="3.59"/><path class="cls-13" d="M122.28,114a15.3,15.3,0,0,1-6.56,8.15C114.48,117,91.92,119,91.84,119a19,19,0,0,1-3.44-5A87.09,87.09,0,0,0,122.28,114Z"/><path class="cls-14" d="M115.72,122.1h0a19.28,19.28,0,0,1-9.32,2.69A18.06,18.06,0,0,1,91.84,119C91.92,119,114.48,117,115.72,122.1Z"/><polygon class="cls-13" points="91.84 118.97 91.84 118.97 91.84 118.97 91.84 118.97"/><path id="Lasje" class="cls-10" d="M60.33,84.93c.26-2.33.58-4.69,1-7.06a45.6,45.6,0,0,1,5.45-18.13,32.65,32.65,0,0,1,3.48-5c2.28-1.58,4-5.13,6.59-5.93A25.45,25.45,0,0,1,81,47.05a30,30,0,0,1,4.36-1,92.87,92.87,0,0,1,10.91.34,28.28,28.28,0,0,1,9.94,2.76c1.56.46,3.12.92,4.69,1.34a42.1,42.1,0,0,1,5.82-.86,38.08,38.08,0,0,1,5.85,0,16.92,16.92,0,0,1,3,.07,15.7,15.7,0,0,1,2.85.62c4.31,1,6.08,4.55,9.37,6.63.63.77,1.24,1.58,1.82,2.43s1.11,1.72,1.62,2.61a41.58,41.58,0,0,1,2.6,5.59,44.64,44.64,0,0,1,1.75,5.66c.53,1.11,1.58,1.11,2.63,1.67,0-1.23.13-2.46.27-3.67s.3-2.43.5-3.64c7.42-7.4,15.5-16.28,14.74-28.06a16.9,16.9,0,0,0-.68-3.15,17.22,17.22,0,0,0-1.35-3.12A30,30,0,0,0,160,30.36c-3.26-4.82-7.84-9.18-12.23-13A26.4,26.4,0,0,1,146.31,14a23,23,0,0,0-1.41-2.29,22.22,22.22,0,0,0-1.63-2.1,22.11,22.11,0,0,0-2.6-2.42,33.78,33.78,0,0,0-11.89-4.56c-1.07-.2-2.15-.36-3.25-.48C116.84.69,108,5.13,98.92,3.93c-1-.21-2-.45-3-.71s-2-.54-3-.82a24.24,24.24,0,0,0-26.86,4,31.48,31.48,0,0,0-2.35,2.27A29.69,29.69,0,0,0,57.23,20c-.59,1-1.21,1.9-1.82,2.86l-1.77,1.38a68.46,68.46,0,0,1-7.48,5.05,14,14,0,0,0-2,2.82,22.41,22.41,0,0,0-1.46,3.26c-.38,1-.71,2.1-1,3.17-2.34,8.56-2,17.83,5,24.31.77.77,1.56,1.51,2.35,2.24,3.93,3.66,8,7.18,8.55,12.53.45,1.55.9,3.09,1.35,4.6A30.36,30.36,0,0,0,60.33,84.93Z"/></g></g></svg>