<svg xmlns="http://www.w3.org/2000/svg" viewBox="0 0 76.71 139.34"><defs><style>.cls-1{fill:none;stroke:#3eb871;stroke-miterlimit:10;stroke-width:3.92px;}.cls-2{fill:#00bdcd;}.cls-3{fill:#f4d5e3;}.cls-4{fill:#008747;}</style></defs><g id="Layer_2" data-name="Layer 2"><g id="Glavno_Besedilo" data-name="Glavno Besedilo"><path class="cls-1" d="M33,55.83s-23,56.23,7.27,82"/><path class="cls-2" d="M38.35,38.35S41.12,11.41,62.19,8C62.19,8,64.27,32.83,38.35,38.35Z"/><path class="cls-2" d="M38.35,38.35s21-17.1,38.36-4.64C76.71,33.71,60.59,52.77,38.35,38.35Z"/><path class="cls-2" d="M38.35,38.35S65.3,41.12,68.76,62.19C68.76,62.19,43.88,64.27,38.35,38.35Z"/><path class="cls-2" d="M38.35,38.35s17.11,21,4.65,38.36C43,76.71,23.94,60.59,38.35,38.35Z"/><path class="cls-2" d="M38.35,38.35S35.59,65.3,14.52,68.76C14.52,68.76,12.44,43.88,38.35,38.35Z"/><path class="cls-2" d="M38.35,38.35S17.35,55.46,0,43C0,43,16.12,23.94,38.35,38.35Z"/><path class="cls-2" d="M38.35,38.35S11.41,35.59,8,14.52C8,14.52,32.83,12.44,38.35,38.35Z"/><path class="cls-2" d="M38.35,38.35S21.25,17.35,33.71,0C33.71,0,52.77,16.12,38.35,38.35Z"/><circle class="cls-3" cx="38.35" cy="38.35" r="8.96"/><path class="cls-4" d="M35.26,136.18c-.43-1.27-8.11-31.73,25.61-43.58,0,0-2.13,44.85-25.61,43.58"/></g></g></svg>