<svg xmlns="http://www.w3.org/2000/svg" xmlns:xlink="http://www.w3.org/1999/xlink" viewBox="0 0 247.62 212.6"><defs><style>.cls-1,.cls-12,.cls-13{fill:none;}.cls-2{fill:#955903;}.cls-3{clip-path:url(#clip-path);}.cls-4{fill:#e2a44f;}.cls-5{clip-path:url(#clip-path-2);}.cls-6{fill:#7d4900;}.cls-7{clip-path:url(#clip-path-3);}.cls-8{fill:#f4dbb8;}.cls-9{fill:#231f20;}.cls-10{fill:#dd8374;}.cls-11{fill:#e09641;}.cls-12,.cls-13{stroke:#e18454;stroke-miterlimit:10;}.cls-12{stroke-width:0.36px;}.cls-13{stroke-width:0.37px;}</style><clipPath id="clip-path" transform="translate(37.75 0.93)"><path class="cls-1" d="M145.21,14.5C143,15.22,129,20.23,124.44,36c0-.14.07-.29.11-.43a23.77,23.77,0,0,0,.31-9c-1-8.29-1.83-16.57-2.72-24.87,0-.49,0-1,0-1.69.87.41,1.62.74,2.36,1.11a74.44,74.44,0,0,1,18.82,13,2,2,0,0,0,1.7.42Z"/></clipPath><clipPath id="clip-path-2" transform="translate(37.75 0.93)"><path class="cls-1" d="M186.46,45c0,.33,0,.68-.06,1A28.53,28.53,0,0,1,182.65,58l0-.23a28.1,28.1,0,0,1-3.53,5.09l-.09.1c-1.93,2-14.36,4.56-24.93,6.06-10.73,1.52-25.8-9-25.8-9a30.88,30.88,0,0,1-2.45-4.61,0,0,0,0,1,0,0,26,26,0,0,1-2.36-8.55,25.55,25.55,0,0,1-.16-3,29.37,29.37,0,0,1,.17-3.31v-.05a14.46,14.46,0,0,1,.25-1.82h0a.06.06,0,0,1,0,0c0-.21.09-.42.13-.62l.15-.63c.12-.48.25-1,.38-1.43C129,20.23,143,15.22,145.21,14.5l.26-.07.06,0a32.6,32.6,0,0,1,15.35-.8h0c.57.24,18.73,8.22,23.44,19.41a1.46,1.46,0,0,1,.07.19q.38,1,.66,2a29.88,29.88,0,0,1,.91,4.3l0-.19A22.19,22.19,0,0,1,186.46,45Z"/></clipPath><clipPath id="clip-path-3" transform="translate(37.75 0.93)"><path class="cls-1" d="M164.59,131.63a11.64,11.64,0,0,0-1.37,6.35c.56,10.74.93,21.47,1.39,32.2.31,7.35.64,14.7.91,22,0,.92.31,1.35,1.24,1.38,5.19.2,9.55,5.59,7.81,11.81a7.81,7.81,0,0,1-6.78,5.91,47.67,47.67,0,0,1-7.47.15,4.71,4.71,0,0,1-4.21-2.76q-5.38-9.63-10.83-19.19c-.84-1.49-1.72-3-2.7-4.66a36.15,36.15,0,0,1-9.05,14.45c1.32,0,2.27,0,3.22,0,2.66.07,5.33,0,8,.29,3.26.36,5,2.09,5.21,4.64.24,3.64-1.11,5.72-4.5,6.67a14.13,14.13,0,0,1-3.54.5c-24.72.1-49.45.11-74.18.26-9.69.06-19.17-.89-28-5.15-20.28-9.77-32.91-25.7-37.74-47.7-.88-4-1.12-8.14-1.66-12.21-.07-.52-.19-1-.28-1.52V138.2c.31-2.63.53-5.28,1-7.89,2.12-12.62,6.91-24,15.94-33.28A33.3,33.3,0,0,1,40.31,87a48.25,48.25,0,0,1,10.4.65c5.31,1,7.83,4.53,7.3,9.42-.39,3.62-2.49,5.7-6.16,5.75a22.08,22.08,0,0,1-5.72-.65c-9.33-2.28-16.6,1.08-22.29,8.28-5.19,6.58-7.87,14.33-9,22.52-1.79,12.66-.21,24.9,5.85,36.27,6.43,12.08,15.92,20.89,29,25.54.57.2,1.17.35,2,.6v-2c0-10.9-.18-21.81.08-32.7.38-16.09,3.2-31.73,10.3-46.32,11.16-23,29.15-37.75,53.93-44.05a11.69,11.69,0,0,0,6.59-3.93c1.8-2.15,3.8-4.14,5.8-6.29,0,0,15.07,10.5,25.8,9,10.57-1.5,23-4,24.93-6.06a4.16,4.16,0,0,0-1,3.41C180.44,89.52,175.23,111.16,164.59,131.63Z"/></clipPath></defs><g id="Layer_2" data-name="Layer 2"><g id="Glavno_Besedilo" data-name="Glavno Besedilo"><path class="cls-2" d="M145.21,14.5C143,15.22,129,20.23,124.44,36c0-.14.07-.29.11-.43a23.77,23.77,0,0,0,.31-9c-1-8.29-1.83-16.57-2.72-24.87,0-.49,0-1,0-1.69.87.41,1.62.74,2.36,1.11a74.44,74.44,0,0,1,18.82,13,2,2,0,0,0,1.7.42Z" transform="translate(37.75 0.93)"/><g class="cls-3"><path class="cls-4" d="M127.42,1.34c-1.78,1.52-1.77,5.31-.09,7s3.69.45,4.91,2.06-.2,3.57.81,4.38c1.41,1.13,5.47-1.76,6.88-2.77,3.35-2.39,5.45-3.9,5.27-5.63-.29-3-7-4.25-12.42-5.28C129.53.46,128.3.59,127.42,1.34Z" transform="translate(37.75 0.93)"/></g><path class="cls-2" d="M186.46,45c0,.33,0,.68-.06,1A28.53,28.53,0,0,1,182.65,58l0-.23a28.1,28.1,0,0,1-3.53,5.09l-.09.1c-1.93,2-14.36,4.56-24.93,6.06-10.73,1.52-25.8-9-25.8-9a30.88,30.88,0,0,1-2.45-4.61,0,0,0,0,1,0,0,26,26,0,0,1-2.36-8.55,25.55,25.55,0,0,1-.16-3,29.37,29.37,0,0,1,.17-3.31v-.05a14.46,14.46,0,0,1,.25-1.82h0a.06.06,0,0,1,0,0c0-.21.09-.42.13-.62l.15-.63c.12-.48.25-1,.38-1.43C129,20.23,143,15.22,145.21,14.5l.26-.07.06,0a32.6,32.6,0,0,1,15.35-.8h0c.57.24,18.73,8.22,23.44,19.41a1.46,1.46,0,0,1,.07.19q.38,1,.66,2a29.88,29.88,0,0,1,.91,4.3l0-.19A22.19,22.19,0,0,1,186.46,45Z" transform="translate(37.75 0.93)"/><g class="cls-5"><path class="cls-4" d="M147.58,13.08c3.61.86,6.83,5.15,4.68,8.91-1.88,2.5-4.67,2.45-7.38,2.56-.68,0-1.36.07-2,.16a24.5,24.5,0,0,0-16.16,11.8c-.25.35-.49.7-.75,1a12.29,12.29,0,0,1-2.66,2.68c-2.34-4.69-.58-9.8,2.19-13.81.39-.57.81-1.13,1.24-1.65,1.94-2.77,4.62-4.38,7.25-6.9a13.29,13.29,0,0,1,1.14-.69,18.37,18.37,0,0,1,2.4-1.08c.55-.21,1.1-.39,1.65-.55s.8-.34,1.21-.49.82-.29,1.23-.41c1.53-.16,3.14-1.23,4.89-1.06C147.22,13.26,147.58,13.08,147.58,13.08Z" transform="translate(37.75 0.93)"/><path class="cls-4" d="M185.1,59c-2.74,1.32-7,.26-7.56-3.23-.11-2.55,1.69-4,3.35-5.43.41-.37.82-.74,1.19-1.13a20,20,0,0,0,4.15-15.81c0-.35,0-.69,0-1a10,10,0,0,1,.3-3.07c3.9,1.76,5.42,5.9,5.73,9.87,0,.57.07,1.14.07,1.69.2,2.75-.67,5.15-1,8.1a9,9,0,0,1-.37,1,14.33,14.33,0,0,1-1,1.92c-.24.41-.49.81-.76,1.2s-.33.63-.51.93-.37.61-.57.9c-.89.89-1.36,2.4-2.55,3.19C185.23,58.68,185.1,59,185.1,59Z" transform="translate(37.75 0.93)"/><path class="cls-4" d="M57.25-.27c-1.77,1.52-1.76,5.31-.09,7s3.7.45,4.92,2.06-.2,3.57.8,4.38c1.42,1.14,5.47-1.76,6.89-2.77C73.11,8,75.21,6.47,75,4.74c-.3-3-7-4.25-12.42-5.28C59.37-1.15,58.13-1,57.25-.27Z" transform="translate(37.75 0.93)"/></g><path class="cls-2" d="M183.12,29.09a2.73,2.73,0,0,0,.12,1.37c.4.85.77,1.71,1.09,2.57-4.71-11.19-22.87-19.17-23.44-19.41.72.12,1.45.29,2.17.47a2.36,2.36,0,0,0,1.87-.55,76,76,0,0,1,19-12.79,13.69,13.69,0,0,1,2.3-.66c-.37,3.58-.7,6.89-1.05,10.19C184.49,16.55,183.79,22.81,183.12,29.09Z" transform="translate(37.75 0.93)"/><path class="cls-6" d="M164.59,131.63a11.64,11.64,0,0,0-1.37,6.35c.56,10.74.93,21.47,1.39,32.2.31,7.35.64,14.7.91,22,0,.92.31,1.35,1.24,1.38,5.19.2,9.55,5.59,7.81,11.81a7.81,7.81,0,0,1-6.78,5.91,47.67,47.67,0,0,1-7.47.15,4.71,4.71,0,0,1-4.21-2.76q-5.38-9.63-10.83-19.19c-.84-1.49-1.72-3-2.7-4.66a36.15,36.15,0,0,1-9.05,14.45c1.32,0,2.27,0,3.22,0,2.66.07,5.33,0,8,.29,3.26.36,5,2.09,5.21,4.64.24,3.64-1.11,5.72-4.5,6.67a14.13,14.13,0,0,1-3.54.5c-24.72.1-49.45.11-74.18.26-9.69.06-19.17-.89-28-5.15-20.28-9.77-32.91-25.7-37.74-47.7-.88-4-1.12-8.14-1.66-12.21-.07-.52-.19-1-.28-1.52V138.2c.31-2.63.53-5.28,1-7.89,2.12-12.62,6.91-24,15.94-33.28A33.3,33.3,0,0,1,40.31,87a48.25,48.25,0,0,1,10.4.65c5.31,1,7.83,4.53,7.3,9.42-.39,3.62-2.49,5.7-6.16,5.75a22.08,22.08,0,0,1-5.72-.65c-9.33-2.28-16.6,1.08-22.29,8.28-5.19,6.58-7.87,14.33-9,22.52-1.79,12.66-.21,24.9,5.85,36.27,6.43,12.08,15.92,20.89,29,25.54.57.2,1.17.35,2,.6v-2c0-10.9-.18-21.81.08-32.7.38-16.09,3.2-31.73,10.3-46.32,11.16-23,29.15-37.75,53.93-44.05a11.69,11.69,0,0,0,6.59-3.93c1.8-2.15,3.8-4.14,5.8-6.29,0,0,15.07,10.5,25.8,9,10.57-1.5,23-4,24.93-6.06a4.16,4.16,0,0,0-1,3.41C180.44,89.52,175.23,111.16,164.59,131.63Z" transform="translate(37.75 0.93)"/><g class="cls-7"><path class="cls-4" d="M39.67,169c5.69,8.33,21.92,10.08,29.85,3.68,7.34-5.92,3.67-15.63,11.15-20.11s15.22,2.55,19.16-1.38c5.54-5.53-5-24.28-8.63-30.83-8.67-15.47-14.12-25.2-21.65-25.28C56.67,95,48,123.15,41.05,145.9,36.87,159.53,36.85,164.9,39.67,169Z" transform="translate(37.75 0.93)"/><path class="cls-4" d="M141.88,114.27c1.45,10,15.27,18.68,25.21,16.41,9.19-2.1,10.15-12.43,18.84-13.18s12.55,9,17.82,7.18c7.41-2.54,6.2-24,5.78-31.49-1-17.71-1.62-28.84-8.36-32.22-11.51-5.76-31.63,15.75-47.89,33.13C143.54,104.51,141.16,109.32,141.88,114.27Z" transform="translate(37.75 0.93)"/><path class="cls-4" d="M-37.63,186.27c1.45,10,15.26,18.69,25.21,16.42,9.18-2.1,10.15-12.44,18.83-13.18s12.56,9,17.83,7.18c7.41-2.54,6.2-24,5.78-31.49-1-17.71-1.62-28.84-8.36-32.22C10.15,127.21-10,148.73-26.24,166.1-36,176.52-38.35,181.33-37.63,186.27Z" transform="translate(37.75 0.93)"/></g><path class="cls-8" d="M134.16,35.34c-.76-.07,7.73-7.46,14.48,0C148.64,35.34,143.55,39.87,134.16,35.34Z" transform="translate(37.75 0.93)"/><circle class="cls-9" cx="179.13" cy="35.61" r="2.67"/><path class="cls-8" d="M159.31,35.34c-.77-.07,7.72-7.46,14.48,0C173.79,35.34,168.69,39.87,159.31,35.34Z" transform="translate(37.75 0.93)"/><circle class="cls-9" cx="204.28" cy="35.61" r="2.67"/><path class="cls-10" d="M153.34,46.14l-2.42,4a.89.89,0,0,0,.76,1.34h4.9a.89.89,0,0,0,.75-1.35l-2.48-4A.88.88,0,0,0,153.34,46.14Z" transform="translate(37.75 0.93)"/><path class="cls-11" d="M123.78,38.64a.06.06,0,0,0,0,0h0A.09.09,0,0,1,123.78,38.64Z" transform="translate(37.75 0.93)"/><path class="cls-12" d="M154.11,51.51s-.28,5.75,4.49,4.1,4.32-3.07,4.32-3.07" transform="translate(37.75 0.93)"/><path class="cls-13" d="M154.11,51.51s.29,5.75-4.59,4.1-4.43-3.07-4.43-3.07" transform="translate(37.75 0.93)"/></g></g></svg>