<svg xmlns="http://www.w3.org/2000/svg" xmlns:xlink="http://www.w3.org/1999/xlink" viewBox="0 0 169.11 158.3"><defs><style>.cls-1,.cls-6{fill:none;}.cls-2{fill:#7d4900;}.cls-3{fill:#d7771a;}.cls-4{fill:#fcd0b8;}.cls-5{clip-path:url(#clip-path);}.cls-6{stroke:#fff;stroke-miterlimit:10;stroke-width:0.64px;}</style><clipPath id="clip-path"><path class="cls-1" d="M159.32,143.27c.28,4.24,1.9,8.65.37,11.08s-6.12,3.41-9.51,3.8A27.33,27.33,0,0,1,139.12,157c-5.16-1.61-5.44-4.27-2.58-8.95,2.11-3.44,4.55-7.34,4.66-11.09.05-2-4.27-5.47-7-6-3.14-.53-7.26.72-10,2.58-8.2,5.55-17.19,7.22-26.77,7.11a10.93,10.93,0,0,0-2.47.32c-.36.08-.64.47-1,.72,4.36,8.06,2.7,11.08-6.67,11.33a30.89,30.89,0,0,1-11-1.39c-2.16-.77-5-3.59-5.06-5.55-.22-9.46-7.13-13.3-14-15.46-8.12-2.57-17-2.76-25.52-4-1,8.77-11.38,11.51-19,6.8A36.91,36.91,0,0,0,5.64,130c-5.93-2.09-7.39-6.72-3.39-11.6a13.24,13.24,0,0,1,3.25-2.91c7.67-4.75,10.46-11.88,11-20.58C17.7,75.77,34.37,60.82,53.29,61.78a23.22,23.22,0,0,1,9,2.18c14.28,7.13,27.09-.88,31.6-13.07,3-8.24,2.75-17.72,3.94-26.64h0C98,23.69,103.44,6.11,111.94.05h0c14.75.58,27.17,6.3,38,15.46h0c4.24,7.5-6.47,30-6.75,30.58h0c-2.8,8-5.73,16.63-1.15,26.47,2.82,6.07,3.92,13.06,5,19.76,1.05,6.54,2.84,12.29,7.19,17.61a71,71,0,0,1,10.61,17.47C167.76,134.53,164.79,140.23,159.32,143.27Z"/></clipPath></defs><g id="Layer_2" data-name="Layer 2"><g id="Glavno_Besedilo" data-name="Glavno Besedilo"><path d="M159.32,143.27c.28,4.24,1.9,8.65.37,11.08s-6.12,3.41-9.51,3.8A27.33,27.33,0,0,1,139.12,157c-5.16-1.61-5.44-4.27-2.58-8.95,2.11-3.44,4.55-7.34,4.66-11.09.05-2-4.27-5.47-7-6-3.14-.53-7.26.72-10,2.58-8.2,5.55-17.19,7.22-26.77,7.11a10.93,10.93,0,0,0-2.47.32c-.36.08-.64.47-1,.72,4.36,8.06,2.7,11.08-6.67,11.33a30.89,30.89,0,0,1-11-1.39c-2.16-.77-5-3.59-5.06-5.55-.22-9.46-7.13-13.3-14-15.46-8.12-2.57-17-2.76-25.52-4-1,8.77-11.38,11.51-19,6.8A36.91,36.91,0,0,0,5.64,130c-5.93-2.09-7.39-6.72-3.39-11.6a13.24,13.24,0,0,1,3.25-2.91c7.67-4.75,10.46-11.88,11-20.58C17.7,75.77,34.37,60.82,53.29,61.78a23.22,23.22,0,0,1,9,2.18c14.28,7.13,27.09-.88,31.6-13.07,3-8.24,2.75-17.72,3.94-26.64h0C98,23.69,103.44,6.11,111.94.05h0c14.75.58,27.17,6.3,38,15.46h0c4.24,7.5-6.47,30-6.75,30.58h0c-2.8,8-5.73,16.63-1.15,26.47,2.82,6.07,3.92,13.06,5,19.76,1.05,6.54,2.84,12.29,7.19,17.61a71,71,0,0,1,10.61,17.47C167.76,134.53,164.79,140.23,159.32,143.27Z"/><path class="cls-2" d="M99,19.8c0,.83.53,1.4.53,2,4-2.84,9.65-8,14.76-4,1.7,1.7,2.84,3.41,2.87,5.52a13.31,13.31,0,0,1,.29,2,15.21,15.21,0,0,1,0,1.91,12.8,12.8,0,0,1-.21,1.53,9.59,9.59,0,0,1-.42,1.48c-.12.71-.25,1.41-.37,2.09s-.2,1.35-.25,2a3.29,3.29,0,0,1,2.13.5,9.56,9.56,0,0,0,1.59-.82,13.51,13.51,0,0,0,1.44-1.08l1.19-1.2c3.66-4.79,7.63-9.9,14.45-8.19,5.11,1.7,6.81,7.94,5.42,12.63-.19.48-.39.94-.56,1.41-.72,1.85-1.17,3.6.25,5.26,0,.57,2.27-.57,3.4-1.7-.56.56-.56,1.13-.88,1.42s-.65.88-1,1.47l-1,1.36c-5.29,7.25-17.51,21.22-30.58,17-9.67-3.12-13.16-12.7-14.35-20.61-.12-.79-.21-1.56-.29-2.31q.18-1,.3-1.95c.08-.66.14-1.33.19-2s.15-1.35.21-2,.11-1.35.15-2c.07-1.7,0-3.4,0-5.1,0-.56,0-1.13,0-1.69.14-1.15.14-2.29.36-3.54C98.69,20.65,98.83,20.23,99,19.8Z"/><path class="cls-2" d="M148.92,50.67c-1.59.25-3.71-2.88-5.73-4.56h0c.28-.58,11-23.08,6.75-30.58A95.28,95.28,0,0,1,159,24.36C166.87,33.1,160.78,48.81,148.92,50.67Z"/><path class="cls-2" d="M111.94.05C103.44,6.11,98,23.69,97.86,24.24h0l-2.45-.7-5.79,3.33C83.35,12.82,90.44,1.12,105.07.15A66.09,66.09,0,0,1,111.94.05Z"/><path d="M112,0l0,.06h0A.18.18,0,0,0,112,0Z"/><path class="cls-3" d="M108.28,41l10.11-9.77a3.88,3.88,0,0,1,6.52,2.13l2.37,13.77a3.88,3.88,0,0,1-5,4.35l-12.49-4A3.88,3.88,0,0,1,108.28,41Z"/><path class="cls-4" d="M116.73,39.7l4.51,1.73a.82.82,0,0,1,.16,1.45l-4.26,2.84a.82.82,0,0,1-1.27-.64l-.25-4.57A.82.82,0,0,1,116.73,39.7Z"/><path d="M111.19,47.94s-.34,7.4,4,7.4,6.06-4.19,6.06-4.19Z"/><g class="cls-5"><path class="cls-3" d="M32.44,64.36c.64.43-.64,31.91,20.78,24.84S64.14,70.36,79.77,73.57,78.7,57.72,78.7,57.72Z"/><path class="cls-2" d="M151.6,68.58c-.27.73-31.14,7-19.16,26.12s20.92,6.1,21.54,22,15.13-4.83,15.13-4.83Z"/><path class="cls-2" d="M110.83,90.06c4.94.88,9.79,5.68,9.64,10.06-.09,2.48-1.71,3.26-4.93,7.72-6,8.27-5.17,12.21-8.14,13.06-4.62,1.33-13.83-6.13-13.92-15C93.39,96.78,103,88.66,110.83,90.06Z"/></g><path class="cls-6" d="M130.17,29.67s6.47-4.61,8.73,3.12"/><path class="cls-6" d="M104.19,24.06s7-7.09,9.23,1.35"/></g></g></svg>