<svg xmlns="http://www.w3.org/2000/svg" viewBox="0 0 58 58"><defs><style>.cls-1{fill:#e6a454;}.cls-2{fill:#ffffec;}</style></defs><g id="Layer_2" data-name="Layer 2"><g id="Glavno_Besedilo" data-name="Glavno Besedilo"><circle class="cls-1" cx="29" cy="29" r="29"/><path class="cls-2" d="M37,30q0,9.08,0,18.14a.93.93,0,0,1-.56,1,1,1,0,0,1-1-.24c-2.8-2.19-5.61-4.36-8.42-6.54-1.14-.88-2.27-1.78-3.42-2.65a1.2,1.2,0,0,0-.66-.21c-3.47,0-6.94,0-10.41,0-.92,0-1.17-.26-1.17-1.2V21.68c0-.94.24-1.19,1.17-1.19H22.9a1.28,1.28,0,0,0,.73-.25q5.93-4.56,11.82-9.15a1,1,0,0,1,1-.22.91.91,0,0,1,.49,1Q37,20.93,37,30Z"/><path class="cls-2" d="M40.49,39.93c0-.74,0-1.44,0-2.15,0-.1.23-.25.37-.29a7.68,7.68,0,0,0,4.87-3.89,7.78,7.78,0,0,0-4.8-11.14c-.36-.09-.48-.23-.46-.6,0-.61,0-1.23,0-1.86a10.09,10.09,0,0,1,0,19.93Z"/><path class="cls-2" d="M40.49,36.44c0-.85,0-1.65,0-2.45,0-.11.13-.24.24-.32a4.11,4.11,0,0,0,0-6.57.53.53,0,0,1-.21-.33c0-.79,0-1.58,0-2.37,1.87.24,3.94,2.9,4.19,5.37A6.47,6.47,0,0,1,40.49,36.44Z"/></g></g></svg>