<svg xmlns="http://www.w3.org/2000/svg" viewBox="0 0 60.83 60.83"><defs><style>.cls-1{fill:#ffffec;stroke:#e6a454;stroke-miterlimit:10;stroke-width:2.83px;}.cls-2{fill:#e6a454;}</style></defs><g id="Layer_2" data-name="Layer 2"><g id="Glavno_Besedilo" data-name="Glavno Besedilo"><circle class="cls-1" cx="30.42" cy="30.42" r="29"/><path class="cls-2" d="M39,31.46q0,9.07,0,18.14a.91.91,0,0,1-.56,1,1,1,0,0,1-1-.24l-8.42-6.53c-1.14-.89-2.27-1.78-3.42-2.65A1.21,1.21,0,0,0,25,41H14.6c-.93,0-1.18-.26-1.18-1.19V23.1c0-.94.24-1.19,1.17-1.19,3.45,0,6.91,0,10.36,0a1.25,1.25,0,0,0,.73-.24q5.92-4.56,11.82-9.16a1,1,0,0,1,1-.21.9.9,0,0,1,.49,1Q39,22.35,39,31.46Z"/><path class="cls-2" d="M42.54,41.35c0-.74,0-1.45,0-2.15,0-.11.23-.25.37-.29a7.79,7.79,0,0,0,.07-15c-.36-.1-.48-.24-.46-.6,0-.62,0-1.24,0-1.86a10.09,10.09,0,0,1,0,19.93Z"/><path class="cls-2" d="M42.54,37.86c0-.85,0-1.66,0-2.46,0-.11.14-.23.24-.32a4.1,4.1,0,0,0,0-6.56.53.53,0,0,1-.21-.33c0-.79,0-1.58,0-2.37,1.88.24,3.94,2.9,4.2,5.37A6.49,6.49,0,0,1,42.54,37.86Z"/></g></g></svg>