<svg xmlns="http://www.w3.org/2000/svg" viewBox="0 0 71.12 121.65"><defs><style>.cls-1{fill:none;stroke:#3eb871;stroke-miterlimit:10;stroke-width:3.92px;}.cls-2{fill:#f4d5e3;}.cls-3{fill:#d07cab;}.cls-4{fill:#008747;}</style></defs><g id="Layer_2" data-name="Layer 2"><g id="Glavno_Besedilo" data-name="Glavno Besedilo"><path class="cls-1" d="M34.19,34.71S52.76,83,41.46,121.1"/><path class="cls-2" d="M34.72,34.72l-10-21.84a8.39,8.39,0,0,1,2.8-10.39c3.56-2.49,8.59-4.12,13.94.16a8.32,8.32,0,0,1,2.4,9.62Z"/><path class="cls-2" d="M34.72,34.72l8.35-22.54a8.41,8.41,0,0,1,9.34-5.36c4.28.75,9,3.16,9.73,10A8.32,8.32,0,0,1,57,25.29Z"/><path class="cls-2" d="M34.72,34.72l21.85-10A8.4,8.4,0,0,1,67,27.49c2.49,3.56,4.12,8.59-.16,13.94a8.33,8.33,0,0,1-9.63,2.4Z"/><path class="cls-2" d="M34.72,34.72l22.54,8.35a8.4,8.4,0,0,1,5.37,9.34c-.75,4.28-3.16,9-10,9.73A8.32,8.32,0,0,1,44.16,57Z"/><path class="cls-2" d="M34.72,34.72l10,21.85A8.41,8.41,0,0,1,42,67c-3.57,2.49-8.6,4.12-13.94-.16a8.35,8.35,0,0,1-2.41-9.63Z"/><path class="cls-2" d="M34.72,34.72,26.37,57.26A8.39,8.39,0,0,1,17,62.63c-4.28-.75-9-3.16-9.74-10a8.33,8.33,0,0,1,5.11-8.51Z"/><path class="cls-2" d="M34.72,34.72l-21.84,10A8.41,8.41,0,0,1,2.49,42C0,38.39-1.63,33.36,2.65,28a8.34,8.34,0,0,1,9.62-2.41Z"/><path class="cls-2" d="M34.72,34.72,12.18,26.37A8.39,8.39,0,0,1,6.82,17c.75-4.28,3.16-9,10-9.74a8.33,8.33,0,0,1,8.51,5.11Z"/><circle class="cls-3" cx="35.26" cy="34.19" r="9.2"/><path class="cls-4" d="M45.51,116.59C45.08,115.32,37.4,84.86,71.12,73c0,0-2.14,44.85-25.61,43.58"/></g></g></svg>