<svg xmlns="http://www.w3.org/2000/svg" viewBox="0 0 81 135.82"><defs><style>.cls-1{fill:#3b3a3e;stroke:#704b43;stroke-width:5.49px;}.cls-1,.cls-4,.cls-5{stroke-miterlimit:10;}.cls-2{fill:#009055;}.cls-3{fill:#007445;}.cls-4,.cls-5{fill:none;stroke:#49a579;}.cls-4{stroke-width:3.3px;}.cls-5{stroke-width:2.99px;}</style></defs><g id="Layer_2" data-name="Layer 2"><g id="Glavno_Besedilo" data-name="Glavno Besedilo"><line class="cls-1" x1="43.79" y1="135.82" x2="43.79" y2="58.31"/><path class="cls-2" d="M81,36.61c0-10.8-9.07-19.56-20.25-19.56a22,22,0,0,0-3,.21A20,20,0,0,0,37.69,0C26.51,0,17.44,8.75,17.44,19.55a18.82,18.82,0,0,0,.57,4.6C7.88,25.23,0,33.52,0,43.58A19.53,19.53,0,0,0,11.89,61.39a27.6,27.6,0,0,0,5.22,10.94A15.65,15.65,0,0,0,14.5,81c0,8.88,7.45,16.09,16.66,16.09a16.58,16.58,0,0,0,16-11.72,17,17,0,0,0,8.27,2.13c9.21,0,16.66-7.21,16.66-16.09A15.67,15.67,0,0,0,69,62a27.2,27.2,0,0,0,.83-6.67c0-.4,0-.79,0-1.18A19.52,19.52,0,0,0,81,36.61Z"/><path class="cls-3" d="M7.14,28.66l0-.16-.26.2Z"/><path class="cls-3" d="M60.49,17.05a22.18,22.18,0,0,0-3,.21C56.36,7.54,47.81,0,37.43,0A20.09,20.09,0,0,0,27,2.94c.45,0,.72-.1,1.18-.1,11.1,0,20.24,8.07,21.5,18.46a21.83,21.83,0,0,1,3.15-.23c12,0,21.66,9.37,21.66,20.91a20.33,20.33,0,0,1-3.44,11.3,19.42,19.42,0,0,0,9.68-16.67C80.74,25.81,71.67,17.05,60.49,17.05Z"/><path class="cls-3" d="M69.53,55.3h0a21.55,21.55,0,0,1-7,5.41c0,.42,0,.84,0,1.27a29,29,0,0,1-.89,7.14,16.67,16.67,0,0,1,2.29,16,16,16,0,0,0,7.94-13.71A15.67,15.67,0,0,0,68.71,62,27.69,27.69,0,0,0,69.53,55.3Z"/><path class="cls-4" d="M18.32,26.64s-25,5.9-8.92,31.67"/><path class="cls-5" d="M29.2,4.82s-11.11,5.42-8.4,19"/></g></g></svg>