<svg xmlns="http://www.w3.org/2000/svg" viewBox="0 0 195.86 160.65"><defs><style>.cls-1{fill:#9b9892;}.cls-2,.cls-4{fill:#3b3a3e;}.cls-3{fill:#c01823;}.cls-4{stroke:#3b3a3e;stroke-width:0.6px;}.cls-4,.cls-5{stroke-miterlimit:10;}.cls-5{fill:none;stroke:#fff;}</style></defs><g id="Layer_2" data-name="Layer 2"><g id="Glavno_Besedilo" data-name="Glavno Besedilo"><path d="M91,1.44l0,.06h0A.18.18,0,0,0,91,1.44Z"/><rect class="cls-1" y="31.02" width="195.86" height="129.63"/><rect class="cls-2" x="8.43" y="39.44" width="179" height="112.78"/><rect class="cls-2" x="79.17" y="156.24" width="116.69" height="4.41"/><rect class="cls-3" x="169.32" y="156.24" width="26.54" height="4.41"/><line class="cls-4" x1="97.93" y1="31.02" x2="128.73" y2="0.21"/><line class="cls-4" x1="67.12" y1="0.21" x2="97.93" y2="31.02"/><polyline class="cls-5" points="8.43 62.32 18.35 74.32 28.28 62.32 38.21 74.32 48.14 62.32 58.07 74.32 67.99 62.32 77.92 74.32 87.85 62.32 97.78 74.32 107.71 62.32 117.64 74.32 127.57 62.32 137.5 74.32 147.43 62.32 157.37 74.32 167.3 62.32 177.24 74.32 187.17 62.32"/><polyline class="cls-5" points="8.43 73.32 18.35 85.32 28.28 73.32 38.21 85.32 48.14 73.32 58.07 85.32 67.99 73.32 77.92 85.32 87.85 73.32 97.78 85.32 107.71 73.32 117.64 85.32 127.57 73.32 137.5 85.32 147.43 73.32 157.37 85.32 167.3 73.32 177.24 85.32 187.17 73.32"/><polyline class="cls-5" points="8.43 84.32 18.35 96.32 28.28 84.32 38.21 96.32 48.14 84.32 58.07 96.32 67.99 84.32 77.92 96.32 87.85 84.32 97.78 96.32 107.71 84.32 117.64 96.32 127.57 84.32 137.5 96.32 147.43 84.32 157.37 96.32 167.3 84.32 177.24 96.32 187.17 84.32"/><polyline class="cls-5" points="8.43 95.32 18.35 107.32 28.28 95.32 38.21 107.32 48.14 95.32 58.07 107.32 67.99 95.32 77.92 107.32 87.85 95.32 97.78 107.32 107.71 95.32 117.64 107.32 127.57 95.32 137.5 107.32 147.43 95.32 157.37 107.32 167.3 95.32 177.24 107.32 187.17 95.32"/><polyline class="cls-5" points="8.43 106.32 18.35 118.32 28.28 106.32 38.21 118.32 48.14 106.32 58.07 118.32 67.99 106.32 77.92 118.32 87.85 106.32 97.78 118.32 107.71 106.32 117.64 118.32 127.57 106.32 137.5 118.32 147.43 106.32 157.37 118.32 167.3 106.32 177.24 118.32 187.17 106.32"/><polyline class="cls-5" points="8.43 117.32 18.35 129.32 28.28 117.32 38.21 129.32 48.14 117.32 58.07 129.32 67.99 117.32 77.92 129.32 87.85 117.32 97.78 129.32 107.71 117.32 117.64 129.32 127.57 117.32 137.5 129.32 147.43 117.32 157.37 129.32 167.3 117.32 177.24 129.32 187.17 117.32"/></g></g></svg>