<svg xmlns="http://www.w3.org/2000/svg" viewBox="0 0 195.86 160.65"><defs><style>.cls-1{fill:#9b9892;}.cls-2,.cls-5{fill:#3b3a3e;}.cls-3{fill:#85837d;}.cls-4{fill:#c01823;}.cls-5{stroke:#3b3a3e;stroke-width:0.6px;}.cls-5,.cls-6{stroke-miterlimit:10;}.cls-6{fill:none;stroke:#fff;stroke-width:0.78px;}</style></defs><g id="Layer_2" data-name="Layer 2"><g id="Glavno_Besedilo" data-name="Glavno Besedilo"><path d="M91,1.44l0,.06h0A.18.18,0,0,0,91,1.44Z"/><rect class="cls-1" y="31.02" width="195.86" height="129.63"/><rect class="cls-2" x="79.17" y="38.73" width="108.26" height="113.5"/><rect class="cls-3" x="9.93" y="39.09" width="49.5" height="113.5"/><rect class="cls-2" x="79.17" y="156.24" width="116.69" height="4.41"/><rect class="cls-4" x="169.32" y="156.24" width="26.54" height="4.41"/><line class="cls-5" x1="97.93" y1="31.02" x2="128.73" y2="0.21"/><line class="cls-5" x1="67.12" y1="0.21" x2="97.93" y2="31.02"/><polyline class="cls-6" points="79.48 52.65 85.48 61.98 91.48 52.65 97.48 61.98 103.48 52.65 109.48 61.98 115.47 52.65 121.47 61.98 127.47 52.65 133.47 61.98 139.47 52.65 145.47 61.98 151.47 52.65 157.47 61.98 163.47 52.65 169.47 61.98 175.47 52.65 181.48 61.98 187.49 52.65"/><polyline class="cls-6" points="79.48 63.49 85.48 72.81 91.48 63.49 97.48 72.81 103.48 63.49 109.48 72.81 115.47 63.49 121.47 72.81 127.47 63.49 133.47 72.81 139.47 63.49 145.47 72.81 151.47 63.49 157.47 72.81 163.47 63.49 169.47 72.81 175.47 63.49 181.48 72.81 187.49 63.49"/><polyline class="cls-6" points="79.48 74.32 85.48 83.65 91.48 74.32 97.48 83.65 103.48 74.32 109.48 83.65 115.47 74.32 121.47 83.65 127.47 74.32 133.47 83.65 139.47 74.32 145.47 83.65 151.47 74.32 157.47 83.65 163.47 74.32 169.47 83.65 175.47 74.32 181.48 83.65 187.49 74.32"/><polyline class="cls-6" points="79.48 85.15 85.48 94.48 91.48 85.15 97.48 94.48 103.48 85.15 109.48 94.48 115.47 85.15 121.47 94.48 127.47 85.15 133.47 94.48 139.47 85.15 145.47 94.48 151.47 85.15 157.47 94.48 163.47 85.15 169.47 94.48 175.47 85.15 181.48 94.48 187.49 85.15"/><polyline class="cls-6" points="79.48 95.99 85.48 105.31 91.48 95.99 97.48 105.31 103.48 95.99 109.48 105.31 115.47 95.99 121.47 105.31 127.47 95.99 133.47 105.31 139.47 95.99 145.47 105.31 151.47 95.99 157.47 105.31 163.47 95.99 169.47 105.31 175.47 95.99 181.48 105.31 187.49 95.99"/><polyline class="cls-6" points="79.48 106.82 85.48 116.15 91.48 106.82 97.48 116.15 103.48 106.82 109.48 116.15 115.47 106.82 121.47 116.15 127.47 106.82 133.47 116.15 139.47 106.82 145.47 116.15 151.47 106.82 157.47 116.15 163.47 106.82 169.47 116.15 175.47 106.82 181.48 116.15 187.49 106.82"/><polyline class="cls-6" points="79.48 117.65 85.48 126.98 91.48 117.65 97.48 126.98 103.48 117.65 109.48 126.98 115.47 117.65 121.47 126.98 127.47 117.65 133.47 126.98 139.47 117.65 145.47 126.98 151.47 117.65 157.47 126.98 163.47 117.65 169.47 126.98 175.47 117.65 181.48 126.98 187.49 117.65"/></g></g></svg>