<svg xmlns="http://www.w3.org/2000/svg" viewBox="0 0 224.92 667.79"><defs><style>.cls-1{fill:#eed1bf;}.cls-2{fill:#fcc5aa;}.cls-3{fill:#d9dceb;}.cls-4{fill:#fff;}.cls-5{fill:#524935;}.cls-6{fill:#ebaf88;}.cls-7{fill:#ffebc6;}.cls-8{fill:#ffe6b4;}.cls-9{fill:#301812;}.cls-10{fill:#d55227;}.cls-11{fill:#00a881;}.cls-12{fill:none;stroke:#499086;stroke-miterlimit:10;stroke-width:0.95px;}.cls-13{fill:#017dad;}.cls-14{fill:#44515d;}.cls-15{fill:#499086;}</style></defs><g id="Layer_2" data-name="Layer 2"><g id="Layer_1-2" data-name="Layer 1"><path id="Koza" class="cls-1" d="M14.33,358.2s-5.52,43.55,24.32,47.93v-49Z"/><path id="Koza-2" data-name="Koza" class="cls-1" d="M210.46,358.25s5.53,43.56-24.32,47.94v-49Z"/><path id="Vrat" class="cls-2" d="M149.77,147.33l-.21.53c-5.49,13.54-20,23.2-37.1,23.2-17.29,0-32-9.91-37.3-23.71H75A18.31,18.31,0,0,0,87.54,140a18,18,0,0,0,2-3.72,25.58,25.58,0,0,0,1.79-8.83h38.38a36.91,36.91,0,0,0,1.89,8.82c1.18,3.37,3.09,6.95,6.14,9.24C140.61,147.62,144.6,148.63,149.77,147.33Z"/><path class="cls-3" d="M224.92,358.86l-48.77-2.13v-157s11.27-65,28.6-29.73Q219.15,268.74,224.92,358.86Z"/><path id="Koza-3" data-name="Koza" class="cls-1" d="M166.57,74.32a133.55,133.55,0,0,1-7.42,25.57A49.25,49.25,0,0,1,61.74,98,155.45,155.45,0,0,1,55.1,73.86c-2.46-12.67,3.11-14.27,6.23-14.23V56.69a44.43,44.43,0,0,1,44.43-44.43h9.66a44.43,44.43,0,0,1,44.43,44.43v4.42C162.34,60.81,169.13,61.12,166.57,74.32Z"/><path class="cls-4" d="M99.93,67.94c.09-7.58-23.45-7.86-23.54-.29C76.31,74.5,99.85,74.78,99.93,67.94Z"/><path class="cls-4" d="M147.25,67.94c.09-7.58-23.45-7.86-23.55-.29C123.62,74.5,147.16,74.78,147.25,67.94Z"/><circle class="cls-5" cx="87.43" cy="67.52" r="3.89"/><circle class="cls-5" cx="135.48" cy="67.52" r="3.89"/><path id="Oci" class="cls-6" d="M74.93,68.1s10-10,27.69,0C102.62,68.1,87.24,51.08,74.93,68.1Z"/><path id="Oci-2" data-name="Oci" class="cls-6" d="M122.06,68.1s10-10,27.7,0C149.76,68.1,134.37,51.08,122.06,68.1Z"/><path id="Brki" class="cls-7" d="M130.71,105.35H92.77c1.23-4.43,4.25-8,9.5-10.49h4.36c1.25.59,8.06,3.63,10.44.49a1.07,1.07,0,0,0,.12-.49h3.62C125.94,97.83,129.39,101.29,130.71,105.35Z"/><path class="cls-1" d="M114.08,64.61l-.4,1.56C113.66,65.1,113.78,64.52,114.08,64.61Z"/><path id="Nos" class="cls-6" d="M113.61,97.32a19.53,19.53,0,0,1-7.44-2l.52-1c2.11,1.07,8,3.28,9.92.75.32-.84-.77-8-1.65-13.82-1.85-12.28-2.29-16.23-1.43-17a.75.75,0,0,1,.72-.14l-.35,1.1a.4.4,0,0,0,.44-.15c-.5,1,.81,9.67,1.76,16,1.62,10.7,2,13.93,1.43,14.69A4.67,4.67,0,0,1,113.61,97.32Z"/><g id="Obrve"><path class="cls-8" d="M103.13,59.81c-16.77-8.46-24.38-.64-24.69-.31l-2.13-2c.37-.4,9.28-9.82,28.12-.31Z"/></g><g id="Obrve-2" data-name="Obrve"><g id="Obrve-3" data-name="Obrve"><path id="Obrve-4" data-name="Obrve" class="cls-8" d="M149.11,60.92c-16.9-8.53-24.61-.4-24.69-.32l-2.13-1.94c.37-.41,9.28-9.83,28.12-.32Z"/></g></g><path class="cls-9" d="M130.7,105.36a21.63,21.63,0,0,1-7.34,10.91c-1.39-6.87-26.65-4.2-26.74-4.19a31.51,31.51,0,0,1-3.85-6.72Z"/><path class="cls-10" d="M123.36,116.27h0a19,19,0,0,1-10.43,3.6c-7.93.47-13.16-3.77-16.3-7.79C96.71,112.07,122,109.4,123.36,116.27Z"/><polygon class="cls-9" points="96.62 112.08 96.62 112.08 96.62 112.08 96.62 112.08"/><polygon class="cls-4" points="92.77 105.36 93.84 107.75 129.89 107.75 130.71 105.36 92.77 105.36"/><path id="Lasje" class="cls-7" d="M68.93,71.42s-3.34-24.54,7.48-34.2A14.38,14.38,0,0,1,79.72,35a11.07,11.07,0,0,1,2.18-.77c4-1.14,8.66-.56,12.82-.3l3.12.32C117.15,36.33,127.1,40,127.1,40s5.78-5.55-3.74-8.63,15.48-.38,22,13.27a93.13,93.13,0,0,1,8,26.81l5.6,1.51s14.87-38.55-2.82-51.8c-9.7-7.27-21.71-16.44-33.6-19.74A34.42,34.42,0,0,0,119,.59a28.48,28.48,0,0,0-3.17-.46A30.72,30.72,0,0,0,112.64,0a27,27,0,0,0-6.46.56c-1.1.25-2.17.56-3.22.91s-2.06.75-3.07,1.18C90,7.68,81.33,15.76,70.43,18.42c-1.05.31-2.08.66-3.07,1-4.93,1.94-8.84,4.92-9.17,11.16a28.73,28.73,0,0,0-.61,2.9,25.39,25.39,0,0,0-.23,5.9c0,.73.09,1.46.08,2.22C57.38,49.88,59.94,60.1,68.93,71.42Z"/><path class="cls-3" d="M0,358.86l48.77-2.13v-157s-11.27-65-28.6-29.73Q5.77,268.74,0,358.86Z"/><path id="Pulover" class="cls-11" d="M204.63,168.92l-.41.06c-5.35.94-11.87,8.69-17.95,27.46l10.64,172.85H26.29L38.66,196.44c-6.09-18.77-12.6-26.52-17.95-27.46l-.41-.06c-12.85-1.45,19-21.59,38.64-21.59H75.16c5.33,13.8,20,23.71,37.3,23.71,17.08,0,31.61-9.66,37.1-23.2.08-.17.14-.34.21-.51H166C185.64,147.33,217.48,167.47,204.63,168.92Z"/><line id="Zadrga" class="cls-12" x1="112.46" y1="369.32" x2="112.46" y2="171.06"/><polygon id="Hlace" class="cls-13" points="196.91 369.29 188.82 420.75 162.97 636.02 134.15 646.24 112.72 419.12 112.47 419.12 88.08 646.24 87.97 646.24 59.22 636.05 34.08 419.75 26.29 369.29 196.91 369.29"/><path class="cls-14" d="M206.23,667.79H134.15V646.24L163,636s0,.05,0,.08c-1.25,12.27,9.29,14.13,9.29,14.13C215.74,646.19,206.23,667.79,206.23,667.79Z"/><path class="cls-14" d="M88,646.24v21.55H15.89s-9.51-21.6,34-17.56c0,0,10.59-1.87,9.27-14.21l.08,0Z"/><circle id="Gumb" class="cls-15" cx="124.83" cy="207.56" r="3.72"/><circle id="Gumb-2" data-name="Gumb" class="cls-15" cx="100.47" cy="207.56" r="3.72"/><circle id="Gumb-3" data-name="Gumb" class="cls-15" cx="124.83" cy="235.6" r="3.72"/><circle id="Gumb-4" data-name="Gumb" class="cls-15" cx="100.47" cy="235.6" r="3.72"/><circle id="Gumb-5" data-name="Gumb" class="cls-15" cx="124.83" cy="263.64" r="3.72"/><circle id="Gumb-6" data-name="Gumb" class="cls-15" cx="100.47" cy="263.64" r="3.72"/><circle id="Gumb-7" data-name="Gumb" class="cls-15" cx="124.83" cy="291.69" r="3.72"/><circle id="Gumb-8" data-name="Gumb" class="cls-15" cx="100.47" cy="291.69" r="3.72"/><circle id="Gumb-9" data-name="Gumb" class="cls-15" cx="124.83" cy="319.73" r="3.72"/><circle id="Gumb-10" data-name="Gumb" class="cls-15" cx="100.47" cy="319.73" r="3.72"/></g></g></svg>