<svg xmlns="http://www.w3.org/2000/svg" viewBox="0 0 127.98 302.93"><defs><style>.cls-1{fill:#d8dcec;}.cls-2{fill:#0073bc;}.cls-3{fill:none;stroke:#d8dcec;stroke-miterlimit:10;stroke-width:0.65px;}</style></defs><g id="Layer_2" data-name="Layer 2"><g id="Avatar"><path class="cls-1" d="M0,123.35l31.47-1.2V33S24.2-4,13,16.08Q3.72,72.15,0,123.35Z"/><path class="cls-1" d="M126.3,123.35l-31.47-1.2V33S102.1-4,113.28,16.08Q122.57,72.15,126.3,123.35Z"/><path id="cevlje" class="cls-2" d="M54.49,288.21v12.36H45.41V297s-20,7.37-28.83,5.63c0,0-10-1.35,5.37-6.9,11.52-4.15,13.84-5,13.84-5l.1,0h0Z"/><path id="cevlje-2" data-name="cevlje" class="cls-2" d="M114.23,302.67c-8.78,1.74-28.82-5.63-28.82-5.63v3.53H76.32V288.21l18.6,2.53h0l.1,0s2.32.86,13.84,5C124.26,301.32,114.23,302.67,114.23,302.67Z"/><path class="cls-2" d="M99.59,101.09A195.91,195.91,0,0,1,98.77,59c6.09-8.8,6.26-28.1,6.25-31.15C108.41,17.28,112,13,115,12.69,122.12,11.84,104.35,0,93.39,0h-9c-3,8.11-11.17,13.94-20.82,13.94S45.68,8.11,42.71,0H33.66C22.7,0,4.93,11.84,12.1,12.69c2.9.34,6.44,4.49,9.8,14.76,0,0-.39,22.35,6.41,31.79a196.38,196.38,0,0,1-.85,41.85L3.17,217.49s12.78,13.9,50,0c0,0,25.27,10.33,47.49,0,0,0,18.53,8.29,27.33,0Z"/><path class="cls-3" d="M25.24,100.76c.09-7.79,39.45,31.17,76.57,0"/></g></g></svg>