<svg xmlns="http://www.w3.org/2000/svg" viewBox="0 0 94.39 81.25"><defs><style>.cls-1{fill:#643a00;}</style></defs><g id="Layer_2" data-name="Layer 2"><g id="Glavno_Besedilo" data-name="Glavno Besedilo"><path id="Lasje2" class="cls-1" d="M94.39,44H90.9a25,25,0,0,1-5.09,5.62C80.18,54.19,73.08,55.59,66,54.47c-2-.31-4.2-.78-6.38-1.32-1.3-.32-2.61-.69-3.92-1.06l-4-1.15a54.07,54.07,0,0,0-5.31-1.46,52.43,52.43,0,0,0-5.63-.92c-4.59-2-8.76.06-12.74,2.36A24.74,24.74,0,0,0,25.4,53c-2.43,3.22-5.9,5.3-6.93,9.67-.75,1.42-1.43,2.88-2.08,4.37s-1.27,3-1.87,4.53c-.38,1.59-.7,3.23-1,4.84s-.53,3.23-.76,4.8c0,0-.5-.84-1.17-2.28a24.8,24.8,0,0,0-1-3.29,38.29,38.29,0,0,1-3-3.8A24.15,24.15,0,0,1,4,68.05a23.84,23.84,0,0,1-3.6-9.29A27.17,27.17,0,0,1,0,53.65C1.44,40.28,9.08,26.39,22.15,21.59q2.45-1.05,5-1.87c.5-.17,1-.32,1.52-.47a16.42,16.42,0,0,1-.09-1.73,17.52,17.52,0,0,1,35,0,16.44,16.44,0,0,1-.08,1.73A63.84,63.84,0,0,1,73.7,23a44.65,44.65,0,0,1,4.41,2.4A39.36,39.36,0,0,1,94.39,44Z"/></g></g></svg>