<svg xmlns="http://www.w3.org/2000/svg" viewBox="0 0 94.78 65.2"><defs><style>.cls-1{fill:#643a00;}</style></defs><g id="Layer_2" data-name="Layer 2"><g id="Glavno_Besedilo" data-name="Glavno Besedilo"><path id="Lasje1" class="cls-1" d="M15.32,65.2c.2-1.78.45-3.6.76-5.42a35,35,0,0,1,4.18-13.92A25.83,25.83,0,0,1,22.94,42c1.75-1.21,3.11-3.93,5.06-4.55a19.27,19.27,0,0,1,3.22-1.32,22,22,0,0,1,3.34-.74,69.53,69.53,0,0,1,8.37.26,22,22,0,0,1,7.64,2.11c1.2.36,2.39.71,3.6,1a33.3,33.3,0,0,1,4.46-.66,30.59,30.59,0,0,1,4.49,0,13,13,0,0,1,2.34.06,12.07,12.07,0,0,1,2.18.47c3.31.77,4.67,3.5,7.19,5.1.49.59,1,1.21,1.4,1.86s.85,1.32,1.24,2a30.76,30.76,0,0,1,2,4.28,34.91,34.91,0,0,1,1.35,4.35c.4.86,1.2.86,2,1.28,0-.94.11-1.88.21-2.82s.23-1.86.39-2.79c5.69-5.68,11.89-12.5,11.31-21.54A12.47,12.47,0,0,0,94.22,28a13.83,13.83,0,0,0-1-2.4c-.41-.76-.87-1.52-1.37-2.26a53.27,53.27,0,0,0-9.39-9.94,21.69,21.69,0,0,1-1.09-2.6A18.56,18.56,0,0,0,80.25,9,17.72,17.72,0,0,0,79,7.39a15.94,15.94,0,0,0-2-1.86A25.63,25.63,0,0,0,67.87,2c-.82-.16-1.65-.28-2.49-.37C58.7.53,51.9,3.94,45,3c-.77-.17-1.54-.35-2.29-.55s-1.52-.41-2.27-.63A18.59,18.59,0,0,0,19.77,4.91,24.64,24.64,0,0,0,18,6.65a22.79,22.79,0,0,0-5,8.69c-.46.74-.93,1.47-1.4,2.2L10.19,18.6a53.55,53.55,0,0,1-5.75,3.88,11,11,0,0,0-1.56,2.16,19.09,19.09,0,0,0-1.12,2.51c-.29.8-.54,1.61-.77,2.43C-.8,36.15-.52,43.27,4.84,48.25c.6.58,1.2,1.15,1.81,1.71,3,2.81,6.16,5.52,6.56,9.62l1,3.54C14.86,64.44,15.32,65.2,15.32,65.2Z"/></g></g></svg>