<svg xmlns="http://www.w3.org/2000/svg" xmlns:xlink="http://www.w3.org/1999/xlink" viewBox="0 0 223.67 662.01"><defs><style>.cls-1,.cls-13,.cls-7{fill:none;stroke-miterlimit:10;}.cls-1{stroke:#d16e80;stroke-width:5.67px;}.cls-2{clip-path:url(#clip-path);}.cls-3{fill:#eed1bf;}.cls-4{fill:#fbc5aa;}.cls-5{fill:#d8dcec;}.cls-6{fill:#074368;}.cls-7{stroke:#c1c0db;stroke-width:1.01px;}.cls-8{fill:#fff;}.cls-9{fill:#514835;}.cls-10{fill:#cabcdc;}.cls-11{fill:#ebaf89;}.cls-12{fill:#bbb8dc;}.cls-13{stroke:#231f20;stroke-width:0.63px;}.cls-14{fill:#c4463a;}.cls-15{fill:#200600;}.cls-16{fill:#d55227;}.cls-17{fill:#d16e80;}</style><clipPath id="clip-path"><circle class="cls-1" cx="111.83" cy="111.83" r="109"/></clipPath></defs><g id="Layer_2" data-name="Layer 2"><g id="Avatar"><g class="cls-2"><path id="Koza" class="cls-3" d="M24.48,347.78s-5.89,46.38,25.89,51V346.65Z"/><path id="Koza-2" data-name="Koza" class="cls-3" d="M198.88,353s5.89,46.38-25.9,51V351.83Z"/><path id="Vrat" class="cls-4" d="M147.83,167.76c-5.1,12.81-18.42,22-34.07,22-15.37,0-28.5-8.84-33.8-21.31,4-1.14,12.58-5.35,13.09-20.48h35.3S131.59,171.71,147.83,167.76Z"/><path class="cls-5" d="M9.07,365.66l51.93-2V216.51s-12-61-30.45-27.88Q15.22,281.18,9.07,365.66Z"/><path class="cls-5" d="M217.49,365.66l-51.93-2V216.51s12-61,30.45-27.88Q211.34,281.18,217.49,365.66Z"/><path id="Koza-3" data-name="Koza" class="cls-3" d="M99,637.71,68.3,641.88c3.61-2.34,5.93-4.17,5.93-4.17Z"/><path id="Koza-4" data-name="Koza" class="cls-3" d="M165.71,641.88,135,637.71h24.77S162.11,639.54,165.71,641.88Z"/><path id="cevlje" class="cls-6" d="M99,637.71V658.1H84v-5.82s-33.06,12.16-47.57,9.29c0,0-16.55-2.23,8.86-11.39,19-6.85,22.83-8.27,22.83-8.27l.17,0h0Z"/><path id="cevlje-2" data-name="cevlje" class="cls-6" d="M197.58,661.57c-14.5,2.87-47.57-9.29-47.57-9.29v5.82H135V637.71l30.69,4.17h0l.17,0s3.83,1.42,22.84,8.27C214.13,659.34,197.58,661.57,197.58,661.57Z"/><path class="cls-7" d="M52.21,334.63c.14-12.11,61.31,48.44,119,0"/><path id="Koza-5" data-name="Koza" class="cls-3" d="M107.23,29.94h8.2a37.7,37.7,0,0,1,37.7,37.7V117.7a41.8,41.8,0,0,1-41.8,41.8h0a41.8,41.8,0,0,1-41.8-41.8V67.64A37.7,37.7,0,0,1,107.23,29.94Z"/><path class="cls-8" d="M99.78,90.3c.09-8-22.94-8.35-23-.3C76.67,97.27,99.7,97.57,99.78,90.3Z"/><path class="cls-8" d="M146.06,90.3c.09-8-22.93-8.35-23-.3C123,97.27,146,97.57,146.06,90.3Z"/><ellipse class="cls-9" cx="87.55" cy="89.86" rx="3.81" ry="4.14"/><ellipse class="cls-9" cx="134.55" cy="89.86" rx="3.81" ry="4.14"/><path id="Oci" class="cls-10" d="M75.32,90.47s9.78-10.67,27.09,0C102.41,90.47,87.36,72.4,75.32,90.47Z"/><path id="Oci-2" data-name="Oci" class="cls-10" d="M121.43,90.47s9.78-10.67,27.09,0C148.52,90.47,133.47,72.4,121.43,90.47Z"/><g id="Nos"><path class="cls-11" d="M113.44,117.7a25.86,25.86,0,0,1-8.42-1.91l.46-1.11c2.44,1,9.25,3.13,11.48.7.32-.83-.91-7.55-1.9-12.95-2.1-11.49-2.61-15.2-1.7-16a.81.81,0,0,1,.77-.2l-.3,1.16a.35.35,0,0,0,.38-.13c-.53,1,1,9.09,2,15,1.86,10.15,2.29,13.22,1.6,14A5.81,5.81,0,0,1,113.44,117.7Z"/></g><path id="Obrve" class="cls-12" d="M103.12,81.07c-16.86-9.24-24.66-.3-24.74-.21l-1.33-1.12c.35-.41,8.81-10.12,26.91-.2Z"/><path id="Obrve-2" data-name="Obrve" class="cls-12" d="M148.1,82.24C131.24,73,123.44,82,123.36,82L122,80.92c.35-.42,8.81-10.12,26.91-.2Z"/><g id="ocala"><rect class="cls-13" x="120.82" y="81.48" width="28.9" height="19.11" rx="8.59"/><rect class="cls-13" x="75.13" y="81.48" width="28.9" height="19.11" rx="8.59"/><path class="cls-13" d="M104,91.64s10.1-8.28,16.79,0"/><line class="cls-13" x1="69.53" y1="84.4" x2="75.13" y2="90.43"/><line class="cls-13" x1="153.12" y1="83.64" x2="149.72" y2="91.03"/></g><path id="Lasje" class="cls-12" d="M79.67,68.18c5.19-8,11.87-14.34,20.73-17.16a26.14,26.14,0,0,1,4.16-.89,23.3,23.3,0,0,1,4.26-.16,45.6,45.6,0,0,1,6,.18,47,47,0,0,1,6,1,26.42,26.42,0,0,1,5.08,1.51c14.12,4.83,19.12,21.13,21.35,35.29.3,1.85.52,3.67.67,5.44.43,1.41.83,2.81,1.21,4.21s.72,2.82,1,4.23c.64,2.84,1.16,5.71,1.58,8.64q.65,3.22,1,6.4c.24,2.12.38,4.24.45,6.36,1.71,11.77-.55,23.42,1.71,35.06,11.29-4.9,15.8-19,15.47-31.38.15-2.6.25-5.22.35-7.75.24-3.19.36-6.36.44-9.45s.16-6.4.14-9.59c-.06-9.57-.62-19-.63-27.44-.4-3.26-.91-6.51-1.56-9.73s-1.41-6.41-2.33-9.56a54.07,54.07,0,0,0-4.56-7.5,55.85,55.85,0,0,0-5.52-6.5A67.53,67.53,0,0,0,115.9,20a46.55,46.55,0,0,0-19.09.59,49,49,0,0,0-15.52,6.67,52.49,52.49,0,0,0-6.72,5.18,50.65,50.65,0,0,0-6,7,66.36,66.36,0,0,0-4.39,7.61c-.65,1.31-1.25,2.64-1.82,4s-1.1,2.72-1.6,4.1C59,63.81,55.66,72,55.51,81c-.2,2.18-.35,4.38-.44,6.58a169.49,169.49,0,0,0,2.11,32.93c.63,4.92,1.34,9.53,2.06,13.69C61.37,146.65,63.56,155,63.56,155a17.34,17.34,0,0,0,7.66.07,9.86,9.86,0,0,0,5.44-4.29c1.39-4.15,3.08-9.06,1.56-14.24-.33-2.54-.8-5-1.2-7.18-.31-2.78-.64-5.87-1-9.15-.61-6.14-1.28-12.41-1.58-18.67-.1-2.09-.15-4.18-.13-6.25,1.34-6.12.5-12.46,3.46-19.16A54.31,54.31,0,0,1,79.67,68.18Z"/><path id="Koza-6" data-name="Koza" class="cls-3" d="M152.42,83.22S162.9,80,159.85,97.08s-7.43,27.6-7.43,27.6Z"/><path id="Koza-7" data-name="Koza" class="cls-3" d="M70.66,85s-10.48-3.19-7.43,13.86,7.43,27.6,7.43,27.6Z"/><ellipse id="Uhani" class="cls-14" cx="69.53" cy="123.01" rx="3.31" ry="3.59"/><ellipse id="Uhani-2" data-name="Uhani" class="cls-14" cx="154.72" cy="122.88" rx="3.31" ry="3.59"/><path class="cls-15" d="M130,128.92a15.24,15.24,0,0,1-6.56,8.15c-1.24-5.12-23.8-3.13-23.88-3.13a19.27,19.27,0,0,1-3.44-5A86.89,86.89,0,0,0,130,128.92Z"/><path class="cls-16" d="M123.47,137.07h0a19.32,19.32,0,0,1-9.33,2.69,18.06,18.06,0,0,1-14.55-5.82C99.67,133.94,122.23,132,123.47,137.07Z"/><polygon class="cls-15" points="99.59 133.94 99.59 133.94 99.59 133.94 99.59 133.94"/><polygon id="Hlace" class="cls-6" points="183.69 361.05 183.69 388.99 160.94 637.72 134.97 637.72 118.52 433.94 99.05 637.72 71.86 637.72 50.88 388.99 50.88 361.05 183.69 361.05"/><path id="Majica" class="cls-17" d="M198.62,187.69c-4.83.58-10.78,7.47-16.38,24.68,0,4.95,2.85,36.81-7.21,51.12C172.86,286,180.88,338,183.68,361c-56.74,46.95-129,1.63-132.81,0,2.74-22.76,6.89-75.42,4.78-97.64-11.22-15.34-10.58-51.69-10.58-51.69-5.54-16.71-11.39-23.45-16.16-24-11.84-1.38,17.48-20.63,35.57-20.63H79.42q.26.69.54,1.35c5.3,12.47,18.43,21.31,33.8,21.31,15.65,0,29-9.15,34.07-22,.1-.23.19-.47.28-.7h14.94C181.14,167.06,210.46,186.31,198.62,187.69Z"/></g><circle class="cls-1" cx="111.83" cy="111.83" r="109"/></g></g></svg>