<svg xmlns="http://www.w3.org/2000/svg" viewBox="0 0 277.84 662.54"><defs><style>.cls-1{fill:#dce6e0;}.cls-2{fill:#eed1bf;}.cls-3{fill:#fbc5aa;}.cls-4{fill:#d8dcec;}.cls-5{fill:#074368;}.cls-12,.cls-6{fill:none;stroke-miterlimit:10;}.cls-6{stroke:#c1c0db;stroke-width:1.01px;}.cls-7{fill:#fff;}.cls-8{fill:#514835;}.cls-9{fill:#cabcdc;}.cls-10{fill:#ebaf89;}.cls-11{fill:#bbb8dc;}.cls-12{stroke:#231f20;stroke-width:0.63px;}.cls-13{fill:#c4463a;}.cls-14{fill:#200600;}.cls-15{fill:#d55227;}</style></defs><g id="Layer_2" data-name="Layer 2"><g id="Avatar"><ellipse class="cls-1" cx="138.92" cy="646.71" rx="138.92" ry="15.83"/><path id="Koza" class="cls-2" d="M50.48,328.47s-5.88,46.38,25.9,51V327.34Z"/><path id="Koza-2" data-name="Koza" class="cls-2" d="M224.89,333.65s5.88,46.38-25.9,51V332.52Z"/><path id="Vrat" class="cls-3" d="M173.84,148.45c-5.1,12.81-18.42,22-34.07,22-15.37,0-28.5-8.84-33.8-21.31,4-1.14,12.58-5.35,13.09-20.48h35.3S157.6,152.4,173.84,148.45Z"/><path class="cls-4" d="M35.08,346.35l51.93-2V197.2s-12-61-30.46-27.88Q41.24,261.87,35.08,346.35Z"/><path class="cls-4" d="M243.49,346.35l-51.93-2V197.2s12-61,30.46-27.88Q237.35,261.87,243.49,346.35Z"/><path id="Koza-3" data-name="Koza" class="cls-2" d="M125,618.4l-30.69,4.17c3.61-2.34,5.93-4.17,5.93-4.17Z"/><path id="Koza-4" data-name="Koza" class="cls-2" d="M191.72,622.57,161,618.4H185.8S188.12,620.23,191.72,622.57Z"/><path id="cevlje" class="cls-5" d="M125,618.4v20.39H110V633S77,645.13,62.44,642.26c0,0-16.55-2.23,8.86-11.39,19-6.85,22.83-8.27,22.83-8.27l.17,0h0Z"/><path id="cevlje-2" data-name="cevlje" class="cls-5" d="M223.59,642.26C209.09,645.13,176,633,176,633v5.82H161V618.4l30.69,4.17h0l.17,0s3.83,1.42,22.84,8.27C240.14,640,223.59,642.26,223.59,642.26Z"/><path class="cls-6" d="M78.22,315.31c.14-12.11,61.31,48.44,119,0"/><path id="Koza-5" data-name="Koza" class="cls-2" d="M133.23,10.63h8.2a37.7,37.7,0,0,1,37.7,37.7V98.39a41.8,41.8,0,0,1-41.8,41.8h0a41.8,41.8,0,0,1-41.8-41.8V48.33a37.7,37.7,0,0,1,37.7-37.7Z"/><path class="cls-7" d="M125.78,71c.09-8-22.93-8.35-23-.3C102.67,78,125.7,78.26,125.78,71Z"/><path class="cls-7" d="M172.07,71c.09-8-22.94-8.35-23-.3C149,78,172,78.26,172.07,71Z"/><ellipse class="cls-8" cx="113.55" cy="70.55" rx="3.81" ry="4.14"/><ellipse class="cls-8" cx="160.56" cy="70.55" rx="3.81" ry="4.14"/><path id="Oci" class="cls-9" d="M101.32,71.16s9.79-10.67,27.1,0C128.42,71.16,113.37,53.09,101.32,71.16Z"/><path id="Oci-2" data-name="Oci" class="cls-9" d="M147.43,71.16s9.79-10.67,27.1,0C174.53,71.16,159.47,53.09,147.43,71.16Z"/><g id="Nos"><path class="cls-10" d="M139.44,98.39A25.6,25.6,0,0,1,131,96.47l.46-1.1c2.44,1,9.25,3.12,11.47.7.32-.83-.91-7.55-1.89-12.95-2.1-11.49-2.61-15.2-1.71-16a.83.83,0,0,1,.78-.2l-.3,1.16a.37.37,0,0,0,.38-.14c-.53,1,.94,9.1,2,15,1.86,10.15,2.3,13.22,1.61,14A5.83,5.83,0,0,1,139.44,98.39Z"/></g><path id="Obrve" class="cls-11" d="M129.13,61.75c-16.86-9.24-24.66-.29-24.74-.2l-1.33-1.12c.35-.42,8.8-10.12,26.91-.2Z"/><path id="Obrve-2" data-name="Obrve" class="cls-11" d="M174.11,62.93c-16.87-9.24-24.67-.3-24.74-.21L148,61.6c.35-.41,8.81-10.11,26.91-.2Z"/><g id="ocala"><rect class="cls-12" x="146.83" y="62.16" width="28.9" height="19.11" rx="8.59"/><rect class="cls-12" x="101.14" y="62.16" width="28.9" height="19.11" rx="8.59"/><path class="cls-12" d="M130,72.33s10.09-8.29,16.79,0"/><line class="cls-12" x1="95.54" y1="65.08" x2="101.14" y2="71.11"/><line class="cls-12" x1="179.13" y1="64.32" x2="175.72" y2="71.72"/></g><path id="Lasje" class="cls-11" d="M105.67,48.86c5.2-8,11.88-14.33,20.74-17.15a25.93,25.93,0,0,1,4.16-.9,23.15,23.15,0,0,1,4.25-.15,45.7,45.7,0,0,1,6,.18,49.14,49.14,0,0,1,6,1,26.64,26.64,0,0,1,5.08,1.51c14.11,4.83,19.12,21.14,21.34,35.3.31,1.85.52,3.66.68,5.43.43,1.42.83,2.82,1.2,4.22s.73,2.81,1,4.23c.64,2.84,1.16,5.7,1.59,8.64.43,2.14.75,4.27,1,6.4s.37,4.23.45,6.35c1.7,11.78-.56,23.42,1.7,35.07,11.29-4.9,15.81-19,15.47-31.39.15-2.59.26-5.21.36-7.75.23-3.18.36-6.35.43-9.45s.16-6.4.15-9.59c-.06-9.56-.63-19-.64-27.43-.39-3.26-.91-6.51-1.55-9.73s-1.42-6.41-2.33-9.57a55,55,0,0,0-4.57-7.49,55.73,55.73,0,0,0-5.51-6.51A67.76,67.76,0,0,0,141.9.71a47,47,0,0,0-19.09.59A49.21,49.21,0,0,0,107.3,8a52.38,52.38,0,0,0-6.73,5.18,52.05,52.05,0,0,0-6,7,66.06,66.06,0,0,0-4.38,7.61c-.65,1.3-1.26,2.63-1.83,4s-1.1,2.71-1.59,4.09C85,44.5,81.67,52.65,81.52,61.67c-.21,2.19-.35,4.39-.44,6.59a168,168,0,0,0,2.11,32.93c.63,4.92,1.34,9.53,2,13.68,2.14,12.46,4.33,20.82,4.33,20.82a17.51,17.51,0,0,0,7.66.07,10,10,0,0,0,5.44-4.29c1.38-4.16,3.08-9.06,1.56-14.24-.33-2.54-.8-5-1.2-7.18-.31-2.79-.64-5.87-1-9.15-.61-6.14-1.28-12.41-1.58-18.67-.1-2.09-.16-4.18-.14-6.25,1.34-6.12.51-12.46,3.46-19.16A57.21,57.21,0,0,1,105.67,48.86Z"/><path id="Koza-6" data-name="Koza" class="cls-2" d="M178.42,63.91s10.48-3.19,7.43,13.86-7.43,27.6-7.43,27.6Z"/><path id="Koza-7" data-name="Koza" class="cls-2" d="M96.67,65.7s-10.49-3.19-7.44,13.86,7.44,27.6,7.44,27.6Z"/><ellipse id="Uhani" class="cls-13" cx="95.54" cy="103.7" rx="3.31" ry="3.59"/><ellipse id="Uhani-2" data-name="Uhani" class="cls-13" cx="180.73" cy="103.57" rx="3.31" ry="3.59"/><path class="cls-14" d="M156,109.61a15.3,15.3,0,0,1-6.56,8.15c-1.24-5.13-23.81-3.14-23.88-3.13a19,19,0,0,1-3.44-5A87.09,87.09,0,0,0,156,109.61Z"/><path class="cls-15" d="M149.48,117.76h0a19.28,19.28,0,0,1-9.32,2.69,18,18,0,0,1-14.55-5.82C125.67,114.62,148.24,112.63,149.48,117.76Z"/><polygon class="cls-14" points="125.6 114.63 125.6 114.63 125.6 114.63 125.6 114.63"/><polygon id="Hlace" class="cls-5" points="209.69 341.73 209.69 369.67 186.95 618.4 160.97 618.4 144.52 414.63 125.05 618.4 97.87 618.4 76.88 369.67 76.88 341.73 209.69 341.73"/><path id="Majica" class="cls-13" d="M224.63,168.38c-4.83.58-10.78,7.47-16.38,24.68,0,4.95,2.85,36.81-7.21,51.12-2.17,22.51,5.85,74.46,8.65,97.55-56.74,46.95-129,1.63-132.81,0,2.74-22.76,6.89-75.42,4.78-97.64C70.44,228.75,71.08,192.4,71.08,192.4c-5.54-16.71-11.39-23.45-16.16-24C43.08,167,72.4,147.75,90.49,147.75h14.94q.25.69.54,1.35c5.3,12.47,18.43,21.31,33.8,21.31,15.65,0,29-9.15,34.07-22,.1-.23.19-.47.28-.7h14.94C207.15,147.75,236.47,167,224.63,168.38Z"/></g></g></svg>