<svg xmlns="http://www.w3.org/2000/svg" viewBox="0 0 81.93 97.92"><defs><style>.cls-1{fill:#643a00;}</style></defs><g id="Layer_2" data-name="Layer 2"><g id="Glavno_Besedilo" data-name="Glavno Besedilo"><path id="Lasje" class="cls-1" d="M17.41,34.43C21.08,28.8,25.78,24.33,32,22.34A18.79,18.79,0,0,1,35,21.71a16.56,16.56,0,0,1,3-.11,32.8,32.8,0,0,1,4.2.13,33.88,33.88,0,0,1,4.21.69,19.23,19.23,0,0,1,3.58,1.06c9.94,3.41,13.47,14.9,15,24.87.22,1.3.37,2.58.48,3.83.3,1,.59,2,.85,3s.51,2,.73,3c.45,2,.82,4,1.12,6.09.3,1.51.53,3,.7,4.51s.26,3,.32,4.48c1.2,8.3-.4,16.5,1.2,24.71,7.95-3.46,11.13-13.39,10.9-22.12.1-1.83.18-3.67.25-5.46.16-2.24.25-4.48.3-6.66s.12-4.51.1-6.76c0-6.74-.43-13.41-.44-19.33-.28-2.3-.64-4.59-1.1-6.85s-1-4.52-1.64-6.74a38.17,38.17,0,0,0-3.21-5.29,40,40,0,0,0-3.89-4.58A47.52,47.52,0,0,0,49.25,1.59,49.52,49.52,0,0,0,42.94.5,33,33,0,0,0,29.49.92a34.51,34.51,0,0,0-10.93,4.7,37.12,37.12,0,0,0-4.74,3.65,36.32,36.32,0,0,0-4.24,4.91,47,47,0,0,0-3.09,5.36C6,20.47,5.6,21.4,5.2,22.35s-.77,1.91-1.12,2.88C2.85,31.35.5,37.1.39,43.46.25,45,.15,46.55.08,48.1A119.28,119.28,0,0,0,1.57,71.3C2,74.77,2.51,78,3,80.94c1.5,8.78,3,14.67,3,14.67a12.22,12.22,0,0,0,5.4,0,6.94,6.94,0,0,0,3.83-3c1-2.93,2.18-6.38,1.11-10-.24-1.79-.57-3.54-.85-5.07-.22-2-.45-4.13-.68-6.44-.43-4.33-.9-8.75-1.11-13.16-.07-1.47-.11-2.94-.1-4.4.95-4.31.36-8.78,2.44-13.5A40.34,40.34,0,0,1,17.41,34.43Z"/></g></g></svg>