<svg xmlns="http://www.w3.org/2000/svg" viewBox="0 0 123.06 291.3"><defs><style>.cls-1{fill:#d8dcec;}.cls-2{fill:#cd9247;}.cls-3{fill:none;stroke:#d8dcec;stroke-miterlimit:10;stroke-width:0.63px;}</style></defs><g id="Layer_2" data-name="Layer 2"><g id="Avatar"><path class="cls-1" d="M0,118.62l30.26-1.17V31.7s-7-35.52-17.74-16.24Q3.58,69.38,0,118.62Z"/><path class="cls-1" d="M121.44,118.62l-30.26-1.17V31.7s7-35.52,17.75-16.24Q117.85,69.38,121.44,118.62Z"/><path id="cevlje" class="cls-2" d="M52.4,277.14V289H43.66v-3.39S24.4,292.71,15.94,291c0,0-9.64-1.3,5.17-6.64,11.07-4,13.3-4.81,13.3-4.81l.1,0h0Z"/><path id="cevlje-2" data-name="cevlje" class="cls-2" d="M109.85,291c-8.45,1.67-27.72-5.41-27.72-5.41V289H73.39V277.14l17.89,2.43h0l.1,0s2.23.82,13.31,4.81C119.49,289.74,109.85,291,109.85,291Z"/><path class="cls-2" d="M95.76,97.21A189.33,189.33,0,0,1,95,56.74c5.87-8.46,6-27,6-29.95,3.26-10.17,6.72-14.25,9.54-14.59C117.43,11.38,100.34,0,89.8,0H81.1c-2.86,7.8-10.74,13.4-20,13.4S43.93,7.8,41.07,0h-8.7C21.82,0,4.74,11.38,11.64,12.2c2.78.33,6.19,4.32,9.42,14.2,0,0-.38,21.49,6.16,30.56a189.24,189.24,0,0,1-.81,40.25L3,209.14s12.3,13.36,48.08,0c0,0,24.29,9.93,45.66,0,0,0,17.82,8,26.28,0Z"/><path class="cls-3" d="M24.27,96.89c.09-7.49,37.93,30,73.63,0"/></g></g></svg>