<svg xmlns="http://www.w3.org/2000/svg" viewBox="0 0 121.53 288.6"><defs><style>.cls-1{fill:#d8dcec;}.cls-2{fill:#bbb8dc;}.cls-3{fill:#d16e80;}</style></defs><g id="Layer_2" data-name="Layer 2"><g id="Avatar"><path class="cls-1" d="M0,115.8l30.28-1.16V28.83s-7-35.54-17.76-16.25Q3.6,66.54,0,115.8Z"/><path class="cls-1" d="M121.53,115.8l-30.28-1.16V28.83s7-35.54,17.75-16.25Q117.94,66.54,121.53,115.8Z"/><path id="cevlje" class="cls-2" d="M52.43,274.43v11.89H43.69v-3.39S24.42,290,16,288.35c0,0-9.65-1.3,5.16-6.65,11.09-4,13.31-4.82,13.31-4.82h.11Z"/><path id="cevlje-2" data-name="cevlje" class="cls-2" d="M109.92,288.35c-8.45,1.67-27.74-5.42-27.74-5.42v3.39H73.44V274.43l17.9,2.44h.1s2.24.83,13.32,4.82C119.57,287.05,109.92,288.35,109.92,288.35Z"/><polygon id="Hlace" class="cls-2" points="101.82 113.11 101.82 129.4 88.56 274.43 73.41 274.43 63.82 155.62 52.46 274.43 36.62 274.43 24.38 129.4 24.38 113.11 101.82 113.11"/><path id="Majica" class="cls-3" d="M110.53,12c-2.82.34-6.29,4.35-9.55,14.39,0,2.89,1.66,21.46-4.21,29.81-1.26,13.12,3.41,43.42,5,56.88-33.09,27.38-75.25,1-77.44,0,1.59-13.27,4-44,2.78-56.93C20.62,47.23,21,26,21,26c-3.23-9.75-6.64-13.68-9.42-14C4.67,11.22,21.76,0,32.31,0H41c.1.27.21.53.32.79,3.09,7.27,10.74,12.42,19.71,12.42,9.12,0,16.89-5.33,19.86-12.8C81,.27,81,.13,81.08,0h8.71C100.34,0,117.43,11.22,110.53,12Z"/></g></g></svg>