<svg xmlns="http://www.w3.org/2000/svg" viewBox="0 0 127.74 303.37"><defs><style>.cls-1{fill:#d8dcec;}.cls-2{fill:#074368;}.cls-3{fill:#c4463a;}</style></defs><g id="Layer_2" data-name="Layer 2"><g id="Avatar"><path class="cls-1" d="M0,121.73l31.83-1.23V30.31S24.47-7.06,13.16,13.22Q3.77,69.94,0,121.73Z"/><path class="cls-1" d="M127.74,121.73,95.91,120.5V30.31s7.36-37.37,18.67-17.09Q124,69.94,127.74,121.73Z"/><path id="cevlje" class="cls-2" d="M55.12,288.47V301H45.93V297.4s-20.26,7.46-29.16,5.7c0,0-10.14-1.37,5.43-7,11.65-4.2,14-5.07,14-5.07l.1,0h0Z"/><path id="cevlje-2" data-name="cevlje" class="cls-2" d="M115.54,303.1c-8.88,1.76-29.15-5.7-29.15-5.7V301H77.2v-12.5L96,291h0l.1,0s2.35.87,14,5.07C125.69,301.73,115.54,303.1,115.54,303.1Z"/><polygon id="Hlace" class="cls-2" points="107.03 118.89 107.03 136.02 93.09 288.47 77.16 288.47 67.08 163.58 55.15 288.47 38.49 288.47 25.62 136.02 25.62 118.89 107.03 118.89"/><path id="Majica" class="cls-3" d="M116.18,12.64c-3,.36-6.61,4.58-10,15.13,0,3,1.75,22.56-4.42,31.33-1.33,13.8,3.59,45.64,5.31,59.79-34.78,28.78-79.1,1-81.41,0,1.68-14,4.23-46.22,2.93-59.84-6.87-9.4-6.48-31.68-6.48-31.68-3.4-10.24-7-14.38-9.91-14.73C4.91,11.8,22.88,0,34,0h9.16l.33.83c3.25,7.64,11.3,13.06,20.72,13.06,9.59,0,17.76-5.61,20.88-13.46.06-.14.12-.29.17-.43h9.16C105.47,0,123.44,11.8,116.18,12.64Z"/></g></g></svg>