<svg xmlns="http://www.w3.org/2000/svg" viewBox="0 0 72.72 103.11"><defs><style>.cls-1{fill:#643a00;}</style></defs><g id="Layer_2" data-name="Layer 2"><g id="Glavno_Besedilo" data-name="Glavno Besedilo"><path id="Lasje3" class="cls-1" d="M70,103.11s-3.36-.76-5.77-8.74A73.47,73.47,0,0,0,50.13,84.31c5-3.1,9.06-10.4,11.43-15,.09-3.74.6-7.82,1-12.43,3.63-42.76-25-30.39-26.21-30.3h0c-1.11-.06-29.21-12.29-26.18,30.3.33,4.59,1.12,8.67,1.21,12.4a159,159,0,0,0,9.68,14C17.61,81,13,86,9.26,91.6c-2.38,10.58-6.49,11.51-6.49,11.51S-14.31-4.16,36.36.13C87-4.16,70,103.11,70,103.11Z"/></g></g></svg>