<svg xmlns="http://www.w3.org/2000/svg" viewBox="0 0 277.84 737.79"><defs><style>.cls-1{fill:#dce6e0;}.cls-2{fill:#fbc5aa;}.cls-3{fill:#d8dcec;}.cls-4,.cls-5{fill:#00a881;}.cls-5{stroke:#489086;stroke-miterlimit:10;stroke-width:0.95px;}.cls-6{fill:#007dac;}.cls-7{fill:#eed1bf;}.cls-8{fill:#44515c;}.cls-9{fill:#489086;}.cls-10{fill:#fff;}.cls-11{fill:#514835;}.cls-12{fill:#ebaf88;}.cls-13{fill:#ffe6b4;}.cls-14{fill:#ffebc6;}.cls-15{fill:#301812;}.cls-16{fill:#d55227;}</style></defs><g id="Layer_2" data-name="Layer 2"><g id="Avatar"><ellipse class="cls-1" cx="138.92" cy="721.95" rx="138.92" ry="15.83"/><path class="cls-2" d="M109.27,143.35s15.63-1.16,16.35-19.95H164s1.58,24.54,19.88,19.95l-1.66,14.11-37.39,14.89-32.47-8.71-7.92-15.76Z"/><path class="cls-3" d="M259.18,354.86l-48.77-2.13v-157s11.28-65,28.6-29.73Q253.41,264.74,259.18,354.86Z"/><path class="cls-3" d="M34.27,354.86,83,352.73v-157s-11.28-65-28.6-29.73Q40,264.74,34.27,354.86Z"/><path class="cls-4" d="M200.25,143.35H184c-5.33,13.8-20,23.71-37.3,23.71s-32-9.91-37.31-23.71H93.2c-19.65,0-51.49,20.14-38.64,21.59,5.42.61,12.12,8.27,18.36,27.52V365.32H220.53V192.46c6.24-19.25,12.94-26.91,18.36-27.52C251.74,163.49,219.9,143.35,200.25,143.35Z"/><line class="cls-5" x1="146.73" y1="365.32" x2="146.73" y2="167.06"/><rect class="cls-6" x="72.92" y="365.32" width="147.48" height="49.8"/><polygon class="cls-6" points="146.73 414.76 122.34 700.24 94.45 700.24 72.92 414.76 146.73 414.76"/><polygon class="cls-6" points="220.4 414.76 196.14 700.24 168.41 700.24 146.99 414.76 220.4 414.76"/><path class="cls-7" d="M48.6,354.2s-5.53,43.55,24.32,47.93v-49Z"/><path class="cls-7" d="M244.72,354.25s5.53,43.56-24.32,47.94v-49Z"/><path class="cls-8" d="M168.41,700.24v21.55h72.08s9.51-21.59-34-17.55c0,0-10.59-1.88-9.28-14.22"/><path class="cls-8" d="M122.23,700.24v21.55H50.15s-9.51-21.59,34-17.55c0,0,10.59-1.88,9.27-14.22"/><circle class="cls-9" cx="159.1" cy="203.56" r="3.72"/><circle class="cls-9" cx="134.74" cy="203.56" r="3.72"/><circle class="cls-9" cx="159.1" cy="231.6" r="3.72"/><circle class="cls-9" cx="134.74" cy="231.6" r="3.72"/><circle class="cls-9" cx="159.1" cy="259.64" r="3.72"/><circle class="cls-9" cx="134.74" cy="259.64" r="3.72"/><circle class="cls-9" cx="159.1" cy="287.69" r="3.72"/><circle class="cls-9" cx="134.74" cy="287.69" r="3.72"/><circle class="cls-9" cx="159.1" cy="315.73" r="3.72"/><circle class="cls-9" cx="134.74" cy="315.73" r="3.72"/><path id="Koza" class="cls-7" d="M199.8,74.32a133.55,133.55,0,0,1-7.42,25.57A49.25,49.25,0,0,1,95,98a155.45,155.45,0,0,1-6.64-24.12c-2.46-12.67,3.11-14.27,6.23-14.23V56.69A44.43,44.43,0,0,1,139,12.26h9.66a44.43,44.43,0,0,1,44.43,44.43v4.42C195.57,60.81,202.36,61.12,199.8,74.32Z"/><path class="cls-10" d="M133.16,67.94c.1-7.58-23.44-7.86-23.54-.29C109.54,74.5,133.08,74.78,133.16,67.94Z"/><path class="cls-10" d="M180.48,67.94c.09-7.58-23.45-7.86-23.54-.29C156.86,74.5,180.4,74.78,180.48,67.94Z"/><circle class="cls-11" cx="120.66" cy="67.52" r="3.89"/><circle class="cls-11" cx="168.71" cy="67.52" r="3.89"/><path id="Oci" class="cls-12" d="M108.16,68.1s10-10,27.7,0C135.86,68.1,120.47,51.08,108.16,68.1Z"/><path id="Oci-2" data-name="Oci" class="cls-12" d="M155.29,68.1s10-10,27.7,0C183,68.1,167.6,51.08,155.29,68.1Z"/><path class="cls-7" d="M147.31,64.61l-.4,1.56C146.89,65.1,147,64.52,147.31,64.61Z"/><path id="Nos" class="cls-12" d="M146.84,97.32a19.66,19.66,0,0,1-7.44-2l.52-1c2.11,1.07,8,3.28,9.92.75.32-.84-.77-8-1.64-13.82-1.86-12.28-2.3-16.23-1.44-17a.76.76,0,0,1,.72-.14l-.34,1.1a.4.4,0,0,0,.44-.15c-.51,1,.8,9.67,1.76,16,1.62,10.7,2,13.93,1.42,14.69A4.65,4.65,0,0,1,146.84,97.32Z"/><g id="Obrve"><path class="cls-13" d="M136.36,59.81c-16.77-8.46-24.37-.64-24.69-.31l-2.12-2c.37-.4,9.28-9.82,28.11-.31Z"/></g><g id="Obrve-2" data-name="Obrve"><g id="Obrve-3" data-name="Obrve"><path id="Obrve-4" data-name="Obrve" class="cls-13" d="M182.34,60.92c-16.9-8.53-24.61-.4-24.68-.32l-2.13-1.94c.37-.41,9.27-9.83,28.11-.32Z"/></g></g><path id="Lasje1" class="cls-14" d="M102.16,71.42s-3.33-24.54,7.49-34.2A14.38,14.38,0,0,1,113,35a10.85,10.85,0,0,1,2.18-.77c4-1.14,8.65-.56,12.82-.3l3.12.32c19.3,2.1,29.26,5.74,29.26,5.74s5.78-5.55-3.75-8.63,15.48-.38,22,13.27a93.13,93.13,0,0,1,8,26.81l5.6,1.51s14.88-38.55-2.82-51.8c-9.7-7.27-21.71-16.44-33.59-19.74a35.19,35.19,0,0,0-3.57-.8,28.48,28.48,0,0,0-3.17-.46A30.72,30.72,0,0,0,145.87,0a27,27,0,0,0-6.45.56c-1.1.25-2.17.56-3.22.91s-2.07.75-3.07,1.18c-9.91,5-18.57,13.09-29.47,15.75-1,.31-2.08.66-3.06,1-4.93,1.94-8.85,4.92-9.18,11.16-.25,1-.45,1.92-.61,2.9a25.38,25.38,0,0,0-.22,5.9c0,.73.08,1.46.08,2.22C90.61,49.88,93.17,60.1,102.16,71.42Z"/><path id="Brki2" class="cls-14" d="M154.39,98.7s18.2,4.35,15.57,23.4-24,18.57-24,18.57-25.42,1.47-26.06-18.57,12.58-22.49,15.67-23.4Z"/><path class="cls-15" d="M163.94,105.36a21.69,21.69,0,0,1-7.35,10.91c-1.38-6.87-26.65-4.2-26.74-4.19a31.51,31.51,0,0,1-3.85-6.72Z"/><path class="cls-16" d="M156.59,116.27h0a19,19,0,0,1-10.44,3.6c-7.92.47-13.15-3.77-16.3-7.79C129.94,112.07,155.21,109.4,156.59,116.27Z"/><polygon class="cls-15" points="129.85 112.08 129.86 112.08 129.86 112.08 129.85 112.08"/><polygon class="cls-10" points="126 105.36 127.08 107.75 163.13 107.75 163.94 105.36 126 105.36"/></g></g></svg>