<svg xmlns="http://www.w3.org/2000/svg" viewBox="0 0 277.84 623.38"><defs><style>.cls-1{fill:#eed1bf;}.cls-2{fill:#fcc5aa;}.cls-3{fill:#dce6e0;}.cls-4{fill:#d9dceb;}.cls-5{fill:#00a881;}.cls-6{fill:none;stroke:#499086;stroke-miterlimit:10;stroke-width:0.95px;}.cls-7{fill:#017dad;}.cls-8{fill:#44515d;}.cls-9{fill:#499086;}.cls-10{fill:#fff;}.cls-11{fill:#524935;}.cls-12{fill:#ebaf88;}.cls-13{fill:#ffe6b4;}.cls-14{fill:#301812;}.cls-15{fill:#d55227;}.cls-16{fill:#ffebc6;}</style></defs><g id="Layer_2" data-name="Layer 2"><g id="Layer_1-2" data-name="Layer 1"><path id="Koza" class="cls-1" d="M48.6,358.34s-5.53,43.56,24.32,47.93v-49Z"/><path id="Koza-2" data-name="Koza" class="cls-1" d="M244.72,358.4s5.53,43.56-24.32,47.93v-49Z"/><path id="Vrat" class="cls-2" d="M184,147.47l-.21.53c-5.49,13.54-20,23.2-37.1,23.2-17.29,0-32-9.91-37.3-23.71h-.15a18.31,18.31,0,0,0,12.53-7.4,18,18,0,0,0,2-3.72,25.58,25.58,0,0,0,1.79-8.83H164a36.91,36.91,0,0,0,1.89,8.82c1.18,3.37,3.09,6.95,6.14,9.24C174.87,147.76,178.86,148.77,184,147.47Z"/><ellipse class="cls-3" cx="138.92" cy="607.55" rx="138.92" ry="15.83"/><path class="cls-4" d="M259.18,359l-48.77-2.13v-157s11.28-65,28.6-29.73Q253.41,268.9,259.18,359Z"/><path class="cls-4" d="M34.27,359,83,356.87v-157s-11.28-65-28.6-29.73Q40,268.9,34.27,359Z"/><path id="Pulover" class="cls-5" d="M238.89,169.06l-.41.06c-5.35.94-11.87,8.69-17.95,27.46l10.64,172.85H60.56L72.92,196.58c-6.09-18.77-12.6-26.52-18-27.46l-.41-.06c-12.85-1.45,19-21.59,38.64-21.59h16.22c5.33,13.8,20,23.71,37.3,23.71,17.08,0,31.61-9.66,37.1-23.2.08-.17.14-.34.21-.51h16.22C219.9,147.47,251.74,167.61,238.89,169.06Z"/><line id="Zadrga" class="cls-6" x1="146.73" y1="369.46" x2="146.73" y2="171.21"/><polygon id="Hlace" class="cls-7" points="231.17 368.89 223.09 409.21 197.23 577.83 168.41 585.83 146.99 407.93 146.73 407.93 122.34 585.83 122.23 585.83 93.48 577.85 68.34 408.42 60.56 368.89 231.17 368.89"/><path class="cls-8" d="M240.49,607.38H168.41V585.83l28.82-10.22s0,0,0,.08c-1.25,12.27,9.29,14.13,9.29,14.13C250,585.78,240.49,607.38,240.49,607.38Z"/><path class="cls-8" d="M122.23,585.83v21.55H50.15s-9.51-21.6,34-17.56c0,0,10.59-1.87,9.27-14.21l.08,0Z"/><circle id="Gumb" class="cls-9" cx="159.1" cy="207.7" r="3.72"/><circle id="Gumb-2" data-name="Gumb" class="cls-9" cx="134.74" cy="207.7" r="3.72"/><circle id="Gumb-3" data-name="Gumb" class="cls-9" cx="159.1" cy="235.75" r="3.72"/><circle id="Gumb-4" data-name="Gumb" class="cls-9" cx="134.74" cy="235.75" r="3.72"/><circle id="Gumb-5" data-name="Gumb" class="cls-9" cx="159.1" cy="263.79" r="3.72"/><circle id="Gumb-6" data-name="Gumb" class="cls-9" cx="134.74" cy="263.79" r="3.72"/><circle id="Gumb-7" data-name="Gumb" class="cls-9" cx="159.1" cy="291.83" r="3.72"/><circle id="Gumb-8" data-name="Gumb" class="cls-9" cx="134.74" cy="291.83" r="3.72"/><circle id="Gumb-9" data-name="Gumb" class="cls-9" cx="159.1" cy="319.87" r="3.72"/><circle id="Gumb-10" data-name="Gumb" class="cls-9" cx="134.74" cy="319.87" r="3.72"/><path id="Koza-3" data-name="Koza" class="cls-1" d="M204.46,73.51A133.55,133.55,0,0,1,197,99.08a49.25,49.25,0,0,1-97.41-1.91A155.45,155.45,0,0,1,93,73.05c-2.46-12.67,3.11-14.27,6.23-14.23V55.88a44.43,44.43,0,0,1,44.43-44.43h9.66a44.43,44.43,0,0,1,44.43,44.43V60.3C200.23,60,207,60.31,204.46,73.51Z"/><path class="cls-10" d="M137.82,67.13c.09-7.57-23.45-7.86-23.54-.29C114.2,73.69,137.74,74,137.82,67.13Z"/><path class="cls-10" d="M185.14,67.13c.09-7.57-23.45-7.86-23.54-.29C161.51,73.69,185.05,74,185.14,67.13Z"/><circle class="cls-11" cx="125.32" cy="66.71" r="3.89"/><circle class="cls-11" cx="173.37" cy="66.71" r="3.89"/><path id="Oci" class="cls-12" d="M112.82,67.29s10-10.05,27.7,0C140.52,67.29,125.13,50.27,112.82,67.29Z"/><path id="Oci-2" data-name="Oci" class="cls-12" d="M160,67.29s10-10.05,27.7,0C187.65,67.29,172.26,50.27,160,67.29Z"/><path class="cls-1" d="M152,63.8l-.4,1.56C151.55,64.29,151.67,63.71,152,63.8Z"/><path id="Nos" class="cls-12" d="M151.5,96.52a19.47,19.47,0,0,1-7.44-2l.52-1c2.11,1.07,8,3.28,9.92.75.32-.84-.77-8-1.64-13.82-1.86-12.28-2.3-16.23-1.44-17a.75.75,0,0,1,.72-.14l-.35,1.1a.39.39,0,0,0,.44-.15c-.5,1,.81,9.67,1.77,16,1.61,10.7,2,13.93,1.42,14.69A4.66,4.66,0,0,1,151.5,96.52Z"/><g id="Obrve"><path class="cls-13" d="M141,59c-16.77-8.46-24.37-.64-24.69-.31l-2.12-1.95c.36-.4,9.27-9.82,28.11-.31Z"/></g><g id="Obrve-2" data-name="Obrve"><g id="Obrve-3" data-name="Obrve"><path id="Obrve-4" data-name="Obrve" class="cls-13" d="M187,60.11c-16.9-8.53-24.61-.4-24.68-.32l-2.13-1.94c.36-.41,9.27-9.82,28.11-.32Z"/></g></g><path class="cls-14" d="M168.6,104.55c-.09,0-1.53,6.58-7.35,10.91-1.38-6.86-26.65-4.2-26.74-4.19a31.51,31.51,0,0,1-3.85-6.72Z"/><path class="cls-15" d="M161.25,115.46h0a19.09,19.09,0,0,1-10.44,3.6c-7.93.47-13.15-3.77-16.3-7.79C134.6,111.26,159.87,108.6,161.25,115.46Z"/><polygon class="cls-14" points="134.51 111.27 134.51 111.27 134.51 111.27 134.51 111.27"/><polygon class="cls-10" points="130.66 104.55 131.74 106.94 167.78 106.94 168.6 104.55 130.66 104.55"/><path id="Lasje" class="cls-16" d="M205.75,165.24s-5.67-1.23-9.72-14c-9.94-9.12-23.69-16.13-23.69-16.13,8.48-5,15.75-16.51,19.75-23.88.16-6,.54-12.66,1.2-20,6.1-68.52-42.13-48.71-44.18-48.56,0,0,0,0,0,0h0c-2-.14-50.22-20-44.11,48.56.66,7.35,1,14,1.19,19.94,5.48,9.13,17.16,22.42,17.16,22.42-5.8-3.78-13.58,4.31-19.87,13.26-4,17-10.94,18.45-10.94,18.45S63.77-6.67,149.15.2C234.52-6.67,205.75,165.24,205.75,165.24Z"/></g></g></svg>