<svg xmlns="http://www.w3.org/2000/svg" viewBox="0 0 206.7 645.68"><defs><style>.cls-1{fill:#eed1bf;}.cls-2{fill:#d8dcec;}.cls-3{fill:#0073bc;}.cls-4{fill:none;stroke:#c1c0db;stroke-miterlimit:10;stroke-width:1.06px;}.cls-5{fill:#fbc5aa;}.cls-6{fill:#fff;}.cls-7{fill:#514835;}.cls-8{fill:#cabcdc;}.cls-9{fill:#ebaf89;}.cls-10{fill:#c1c0db;}.cls-11{fill:#c4463a;}.cls-12{fill:#200600;}.cls-13{fill:#d55227;}</style></defs><g id="Layer_2" data-name="Layer 2"><g id="Avatar"><path id="Koza" class="cls-1" d="M18.87,319.06S13,361.92,44.76,366.23V318Z"/><path id="Koza-2" data-name="Koza" class="cls-1" d="M189.81,323.84s5.89,42.87-25.9,47.18V322.8Z"/><path class="cls-2" d="M0,335.58l51.93-1.84V204.87s-12-56.33-30.45-25.76C11.26,236.13,4.16,283.48,0,335.58Z"/><path class="cls-2" d="M206.7,335.58l-51.94-1.84V204.87s12-56.33,30.46-25.76C195.44,236.13,202.53,283.48,206.7,335.58Z"/><polygon id="Hlace" class="cls-1" points="174.61 385.5 174.61 406.53 150.76 623.33 125.89 623.24 109.44 469.86 89.97 623.24 64.76 623.33 41.8 406.53 41.8 385.5 174.61 385.5"/><path class="cls-3" d="M170.76,303.58c-2.56-20.11-16-40-14-59.64,9.19-12.47,9.44-39.83,9.42-44.14,5.11-15,10.54-21,15-21.5,10.8-1.21-16-18-32.47-18H135c-4.47,11.49-16.81,19.75-31.35,19.75s-26.87-8.26-31.35-19.75H58.7c-16.52,0-43.28,16.78-32.47,18,4.35.48,9.69,6.35,14.75,20.92,0,0-.58,31.67,9.65,45,1.95,19.52-8.32,39.32-10.87,59.33l-27,195s19.26,19.7,75.31,0c0,0,38.05,14.64,71.53,0,0,0,27.91,11.74,41.16,0Z"/><path class="cls-4" d="M39.76,306.79c.17-11.19,63.39,44.78,132,0"/><path id="Vrat" class="cls-5" d="M138.76,159.82c-5.1,11.84-18.42,20.3-34.07,20.3-15.37,0-28.5-8.17-33.8-19.69,4-1.06,12.58-5,13.09-18.93h35.3S122.52,163.48,138.76,159.82Z"/><path id="Koza-3" data-name="Koza" class="cls-1" d="M89.92,623.22l-30.69,3.85c3.61-2.16,5.93-3.85,5.93-3.85Z"/><path id="Koza-4" data-name="Koza" class="cls-1" d="M156.64,627.07,126,623.22h24.77S153,624.91,156.64,627.07Z"/><path id="cevlje" class="cls-3" d="M89.92,623.22v18.84h-15v-5.37s-33.06,11.23-47.57,8.58c0,0-16.55-2.06,8.86-10.53,19-6.33,22.83-7.64,22.83-7.64l.17,0h0Z"/><path id="cevlje-2" data-name="cevlje" class="cls-3" d="M188.51,645.27c-14.5,2.65-47.57-8.58-47.57-8.58v5.37H126V623.22l30.69,3.85h0l.17,0s3.83,1.31,22.84,7.64C205.06,643.21,188.51,645.27,188.51,645.27Z"/><path id="Koza-5" data-name="Koza" class="cls-1" d="M100.47,26.6h8.2a37.7,37.7,0,0,1,37.7,37.7v50.06a41.8,41.8,0,0,1-41.8,41.8h0a41.8,41.8,0,0,1-41.8-41.8V64.3A37.7,37.7,0,0,1,100.47,26.6Z"/><path class="cls-6" d="M93,87c.09-8-22.94-8.35-23-.31C69.91,93.93,92.94,94.24,93,87Z"/><path class="cls-6" d="M139.31,87c.09-8-22.94-8.35-23-.31C116.2,93.93,139.23,94.24,139.31,87Z"/><ellipse class="cls-7" cx="80.79" cy="86.52" rx="3.81" ry="4.14"/><ellipse class="cls-7" cx="127.79" cy="86.52" rx="3.81" ry="4.14"/><path id="Oci" class="cls-8" d="M68.56,87.14s9.78-10.67,27.09,0C95.65,87.14,80.6,69.06,68.56,87.14Z"/><path id="Oci-2" data-name="Oci" class="cls-8" d="M114.67,87.14s9.78-10.67,27.09,0C141.76,87.14,126.71,69.06,114.67,87.14Z"/><g id="Nos"><path class="cls-9" d="M106.68,114.36a25.86,25.86,0,0,1-8.42-1.91l.47-1.11c2.43,1,9.24,3.13,11.47.7.32-.83-.91-7.54-1.9-12.94-2.1-11.49-2.61-15.2-1.7-16a.82.82,0,0,1,.78-.19l-.3,1.16a.39.39,0,0,0,.38-.14c-.54,1,.94,9.1,2,15,1.86,10.16,2.29,13.22,1.6,14A5.8,5.8,0,0,1,106.68,114.36Z"/></g><path id="Obrve" class="cls-10" d="M96.37,77.73c-16.87-9.24-24.67-.29-24.74-.2l-1.34-1.12c.36-.42,8.81-10.12,26.91-.21Z"/><path id="Obrve-2" data-name="Obrve" class="cls-10" d="M141.35,78.9c-16.87-9.24-24.67-.29-24.74-.2l-1.34-1.12c.35-.42,8.81-10.12,26.91-.2Z"/><path id="Koza-6" data-name="Koza" class="cls-1" d="M145.66,79.89s10.48-3.19,7.43,13.86-7.43,27.6-7.43,27.6Z"/><path id="Koza-7" data-name="Koza" class="cls-1" d="M63.9,81.67s-10.48-3.18-7.43,13.87,7.43,27.6,7.43,27.6Z"/><ellipse id="Uhani" class="cls-11" cx="62.77" cy="119.67" rx="3.31" ry="3.59"/><ellipse id="Uhani-2" data-name="Uhani" class="cls-11" cx="147.97" cy="119.55" rx="3.31" ry="3.59"/><path class="cls-12" d="M123.27,125.59a15.23,15.23,0,0,1-6.56,8.14c-1.23-5.12-23.8-3.13-23.88-3.12a19.27,19.27,0,0,1-3.44-5A87.28,87.28,0,0,0,123.27,125.59Z"/><path class="cls-13" d="M116.71,133.73h0a19.2,19.2,0,0,1-9.32,2.7,18.1,18.1,0,0,1-14.56-5.82C92.91,130.6,115.48,128.61,116.71,133.73Z"/><polygon class="cls-12" points="92.83 130.61 92.84 130.61 92.84 130.61 92.83 130.61"/><path id="Lasje2" class="cls-10" d="M161.68,53.28h-4.23a30.23,30.23,0,0,1-6.15,6.8c-6.82,5.5-15.41,7.19-24,5.83-2.49-.37-5.09-1-7.73-1.6q-2.36-.59-4.74-1.28L110,61.64c-2-.68-4.2-1.26-6.42-1.76a64.2,64.2,0,0,0-6.82-1.12c-5.55-2.45-10.6.07-15.41,2.85a31,31,0,0,0-3.18,2.57c-2.93,3.89-7.13,6.42-8.38,11.7-.91,1.72-1.74,3.49-2.52,5.3S65.75,84.81,65,86.65c-.46,1.93-.85,3.91-1.18,5.86s-.64,3.91-.92,5.8c0,0-.61-1-1.42-2.75a33.24,33.24,0,0,0-1.25-4A44.49,44.49,0,0,1,56.67,87a28.08,28.08,0,0,1-4.38-4.63,28.79,28.79,0,0,1-4.35-11.23,31.92,31.92,0,0,1-.47-6.19c1.73-16.18,11-33,26.8-38.79,2-.85,4-1.61,6-2.27.62-.2,1.22-.39,1.84-.57-.06-.69-.1-1.38-.1-2.09a21.2,21.2,0,0,1,42.4,0,20.8,20.8,0,0,1-.1,2.1,75,75,0,0,1,12.32,4.57,56.13,56.13,0,0,1,5.34,2.9A47.68,47.68,0,0,1,161.68,53.28Z"/></g></g></svg>