<svg xmlns="http://www.w3.org/2000/svg" viewBox="0 0 211.19 611.81"><defs><style>.cls-1{fill:#eed1bf;}.cls-2{fill:#fcc5aa;}.cls-3{fill:#d9dceb;}.cls-4{fill:#0474bb;}.cls-5{fill:none;stroke:#d9dceb;stroke-miterlimit:10;stroke-width:1.21px;}.cls-6{fill:#fff;}.cls-7{fill:#524935;}.cls-8{fill:#c9bcdd;}.cls-9{fill:#ebaf89;}.cls-10{fill:#c1c0da;}.cls-11{fill:#c4463a;}.cls-12{fill:#200600;}.cls-13{fill:#d55227;}</style></defs><g id="Layer_2" data-name="Layer 2"><g id="Layer_1-2" data-name="Layer 1"><path id="Koza" class="cls-1" d="M15.41,333.68S9.52,380.86,41.3,385.6V332.53Z"/><path id="Koza-2" data-name="Koza" class="cls-1" d="M199.5,338.94s5.88,47.19-25.9,51.93V337.79Z"/><path id="Vrat" class="cls-2" d="M138.76,150.55c-5.1,13-18.42,22.34-34.07,22.34-15.37,0-28.5-9-33.8-21.68,4-1.16,12.58-5.44,13.09-20.83h35.3S122.52,154.57,138.76,150.55Z"/><path class="cls-3" d="M0,351.87l51.93-2V200.13s-12-62-30.45-28.35Q6.15,265.92,0,351.87Z"/><path class="cls-3" d="M208.42,351.87l-51.94-2V200.13s12-62,30.46-28.35Q202.27,265.92,208.42,351.87Z"/><path id="Koza-3" data-name="Koza" class="cls-1" d="M89.92,587.09l-30.69,4.24c3.61-2.38,3.56-4.24,3.56-4.24Z"/><path id="Koza-4" data-name="Koza" class="cls-1" d="M156.64,591.33,126,587.09h25.92A16.76,16.76,0,0,0,156.64,591.33Z"/><path id="cevlje" class="cls-4" d="M89.92,587.09v20.74h-15v-5.92s-33.06,12.37-47.57,9.45c0,0-16.55-2.27,8.86-11.58,19-7,22.83-8.42,22.83-8.42l.17,0h0Z"/><path id="cevlje-2" data-name="cevlje" class="cls-4" d="M188.51,611.36c-14.5,2.92-47.57-9.45-47.57-9.45v5.92H126V587.09l30.69,4.24h0l.17,0s3.83,1.45,22.84,8.42C205.06,609.09,188.51,611.36,188.51,611.36Z"/><polygon id="Hlace" class="cls-1" points="174.61 347.17 174.61 375.59 151.87 587.09 125.89 587.09 109.44 421.32 89.97 587.09 62.79 587.09 41.8 375.59 41.8 347.17 174.61 347.17"/><path id="Obleka" class="cls-4" d="M179.45,305.22c-2.81-21.71-18.64-44.85-16.46-66,10.06-13.46,10.34-43,10.32-47.65,5.6-16.19,11.54-22.68,16.38-23.21,11.84-1.31-17.48-19.42-35.57-19.42H139.18c-4.9,12.41-18.43,21.32-34.35,21.32s-29.44-8.91-34.35-21.32H55.55C37.45,148.91,8.13,167,20,168.33c4.78.52,10.63,6.86,16.16,22.58,0,0-.63,34.19,10.58,48.63,2.13,21.07-11,41.59-13.76,63.18L5.22,481.65s21.11,21.27,82.51,0c0,0,41.69,15.8,78.37,0,0,0,30.57,12.68,45.09,0Z"/><path class="cls-5" d="M26.21,313.93c.18-13.07,81,52.33,157.25,0"/><path id="Koza-5" data-name="Koza" class="cls-1" d="M102.2,15h8.2a37.7,37.7,0,0,1,37.7,37.7v50.06a41.8,41.8,0,0,1-41.8,41.8h0a41.8,41.8,0,0,1-41.8-41.8V52.67A37.7,37.7,0,0,1,102.2,15Z"/><path class="cls-6" d="M94.75,75.33c.09-8-22.94-8.35-23-.3C71.64,82.3,94.67,82.6,94.75,75.33Z"/><path class="cls-6" d="M141,75.33c.09-8-22.94-8.35-23-.3C117.93,82.3,141,82.6,141,75.33Z"/><ellipse class="cls-7" cx="82.52" cy="74.89" rx="3.81" ry="4.14"/><ellipse class="cls-7" cx="129.52" cy="74.89" rx="3.81" ry="4.14"/><path id="Oci" class="cls-8" d="M70.29,75.5s9.79-10.67,27.1,0C97.39,75.5,82.33,57.43,70.29,75.5Z"/><path id="Oci-2" data-name="Oci" class="cls-8" d="M116.4,75.5s9.78-10.67,27.09,0C143.49,75.5,128.44,57.43,116.4,75.5Z"/><g id="Nos"><path class="cls-9" d="M108.41,102.73a25.33,25.33,0,0,1-8.41-1.92l.46-1.1c2.43,1,9.24,3.13,11.47.7.32-.83-.91-7.55-1.9-13-2.1-11.49-2.61-15.2-1.7-16a.82.82,0,0,1,.78-.2l-.3,1.16a.37.37,0,0,0,.38-.14c-.54,1,.94,9.1,2,15,1.86,10.15,2.29,13.22,1.6,14A5.79,5.79,0,0,1,108.41,102.73Z"/></g><path id="Obrve" class="cls-10" d="M98.1,66.09c-16.86-9.23-24.67-.29-24.74-.2L72,64.77c.36-.42,8.81-10.12,26.91-.2Z"/><path id="Obrve-2" data-name="Obrve" class="cls-10" d="M143.08,67.27c-16.87-9.24-24.67-.3-24.74-.2L117,66c.35-.42,8.81-10.12,26.91-.21Z"/><path id="Koza-6" data-name="Koza" class="cls-1" d="M147.39,68.25s10.48-3.18,7.43,13.86-7.43,27.6-7.43,27.6Z"/><path id="Koza-7" data-name="Koza" class="cls-1" d="M64.91,69.1S54.43,65.91,57.48,83s7.43,27.6,7.43,27.6Z"/><ellipse id="Uhani" class="cls-11" cx="64.5" cy="108.04" rx="3.31" ry="3.59"/><ellipse id="Uhani-2" data-name="Uhani" class="cls-11" cx="149.7" cy="107.91" rx="3.31" ry="3.59"/><path class="cls-12" d="M125,114a15.24,15.24,0,0,1-6.56,8.15C117.21,117,94.64,119,94.56,119a19.27,19.27,0,0,1-3.44-5A87.08,87.08,0,0,0,125,114Z"/><path class="cls-13" d="M118.44,122.1h0a19.28,19.28,0,0,1-9.32,2.69A18.07,18.07,0,0,1,94.56,119C94.64,119,117.21,117,118.44,122.1Z"/><polygon class="cls-12" points="94.56 118.97 94.57 118.97 94.57 118.97 94.56 118.97"/><path id="Lasje" class="cls-10" d="M63.06,84.93c.25-2.33.58-4.69,1-7.06A45.28,45.28,0,0,1,69.5,59.74a32.65,32.65,0,0,1,3.48-5c2.28-1.58,4-5.13,6.59-5.93a25.1,25.1,0,0,1,4.19-1.72,29.38,29.38,0,0,1,4.36-1,92.63,92.63,0,0,1,10.9.34,28.28,28.28,0,0,1,10,2.76c1.56.46,3.12.92,4.69,1.34a42.18,42.18,0,0,1,5.81-.86,38.08,38.08,0,0,1,5.85,0,17,17,0,0,1,3,.07,15.89,15.89,0,0,1,2.85.62c4.31,1,6.08,4.55,9.36,6.63a29.57,29.57,0,0,1,1.82,2.43c.58.84,1.12,1.72,1.62,2.61a42.91,42.91,0,0,1,2.61,5.59,44.64,44.64,0,0,1,1.75,5.66c.52,1.11,1.57,1.11,2.62,1.67,0-1.23.14-2.46.27-3.67s.31-2.43.51-3.64c7.42-7.4,15.49-16.28,14.74-28.06a17.74,17.74,0,0,0-.68-3.15,18,18,0,0,0-1.35-3.12c-.54-1-1.14-2-1.79-2.94-3.26-4.82-7.85-9.18-12.23-13A25.05,25.05,0,0,1,149,14a23,23,0,0,0-1.41-2.29A24.1,24.1,0,0,0,146,9.62a22.11,22.11,0,0,0-2.6-2.42,33.65,33.65,0,0,0-11.88-4.56c-1.07-.2-2.16-.36-3.25-.48-8.69-1.47-17.56,3-26.61,1.77-1-.21-2-.45-3-.71s-2-.54-3-.82a24.22,24.22,0,0,0-26.85,4A29.56,29.56,0,0,0,60,20c-.6,1-1.21,1.9-1.83,2.86l-1.76,1.38a68.46,68.46,0,0,1-7.48,5.05,14.06,14.06,0,0,0-2,2.82,24.79,24.79,0,0,0-1.46,3.26c-.37,1-.7,2.1-1,3.17-2.33,8.56-2,17.83,5,24.31.78.77,1.57,1.51,2.36,2.24,3.93,3.66,8,7.18,8.55,12.53l1.34,4.6C62.46,83.94,63.06,84.93,63.06,84.93Z"/></g></g></svg>