<svg xmlns="http://www.w3.org/2000/svg" viewBox="0 0 206.7 634.04"><defs><style>.cls-1{fill:#eed1bf;}.cls-2{fill:#d8dcec;}.cls-3{fill:#0073bc;}.cls-4{fill:none;stroke:#c1c0db;stroke-miterlimit:10;stroke-width:1.06px;}.cls-5{fill:#fbc5aa;}.cls-6{fill:#fff;}.cls-7{fill:#514835;}.cls-8{fill:#cabcdc;}.cls-9{fill:#ebaf89;}.cls-10{fill:#c1c0db;}.cls-11{fill:#200600;}.cls-12{fill:#d55227;}.cls-13{fill:#c4463a;}</style></defs><g id="Layer_2" data-name="Layer 2"><g id="Avatar"><path id="Koza" class="cls-1" d="M18.87,307.43S13,350.29,44.76,354.6V306.38Z"/><path id="Koza-2" data-name="Koza" class="cls-1" d="M189.81,312.21s5.89,42.87-25.9,47.17V311.17Z"/><path class="cls-2" d="M0,324l51.93-1.84V193.24s-12-56.34-30.45-25.76C11.26,224.5,4.16,271.84,0,324Z"/><path class="cls-2" d="M206.7,324l-51.94-1.84V193.24s12-56.34,30.46-25.76C195.44,224.5,202.53,271.84,206.7,324Z"/><polygon id="Hlace" class="cls-1" points="174.61 373.87 174.61 394.9 150.76 611.7 125.89 611.61 109.44 458.23 89.97 611.61 64.76 611.7 41.8 394.9 41.8 373.87 174.61 373.87"/><path class="cls-3" d="M170.76,292c-2.56-20.12-16-40-14-59.64,9.19-12.47,9.44-39.83,9.42-44.14,5.11-15,10.54-21,15-21.51,10.8-1.21-16-18-32.47-18H135c-4.47,11.49-16.81,19.75-31.35,19.75s-26.87-8.26-31.35-19.75H58.7c-16.52,0-43.28,16.77-32.47,18,4.35.49,9.69,6.36,14.75,20.93,0,0-.58,31.67,9.65,45C52.58,252.15,42.31,272,39.76,292l-27,195s19.26,19.7,75.31,0c0,0,38.05,14.64,71.53,0,0,0,27.91,11.74,41.16,0Z"/><path class="cls-4" d="M39.76,295.16c.17-11.19,63.39,44.77,132,0"/><path id="Vrat" class="cls-5" d="M138.76,148.19c-5.1,11.84-18.42,20.3-34.07,20.3-15.37,0-28.5-8.17-33.8-19.7,4-1,12.58-4.94,13.09-18.92h35.3S122.52,151.84,138.76,148.19Z"/><path id="Koza-3" data-name="Koza" class="cls-1" d="M89.92,611.59l-30.69,3.85c3.61-2.16,5.93-3.85,5.93-3.85Z"/><path id="Koza-4" data-name="Koza" class="cls-1" d="M156.64,615.44,126,611.59h24.77S153,613.28,156.64,615.44Z"/><path id="cevlje" class="cls-3" d="M89.92,611.59v18.84h-15v-5.38s-33.06,11.24-47.57,8.59c0,0-16.55-2.06,8.86-10.53,19-6.33,22.83-7.64,22.83-7.64l.17,0h0Z"/><path id="cevlje-2" data-name="cevlje" class="cls-3" d="M188.51,633.64c-14.5,2.65-47.57-8.59-47.57-8.59v5.38H126V611.59l30.69,3.85h0l.17,0s3.83,1.31,22.84,7.64C205.06,631.58,188.51,633.64,188.51,633.64Z"/><path id="Koza-5" data-name="Koza" class="cls-1" d="M99.31,14h8.2a37.7,37.7,0,0,1,37.7,37.7v50.06a41.8,41.8,0,0,1-41.8,41.8h0a41.8,41.8,0,0,1-41.8-41.8V51.67A37.7,37.7,0,0,1,99.31,14Z"/><path class="cls-6" d="M91.86,74.34c.09-8-22.94-8.36-23-.31C68.75,81.3,91.78,81.6,91.86,74.34Z"/><path class="cls-6" d="M138.14,74.34c.09-8-22.93-8.36-23-.31C115,81.3,138.06,81.6,138.14,74.34Z"/><ellipse class="cls-7" cx="79.63" cy="73.89" rx="3.81" ry="4.14"/><ellipse class="cls-7" cx="126.63" cy="73.89" rx="3.81" ry="4.14"/><path id="Oci" class="cls-8" d="M67.4,74.5s9.78-10.67,27.09,0C94.49,74.5,79.44,56.43,67.4,74.5Z"/><path id="Oci-2" data-name="Oci" class="cls-8" d="M113.51,74.5s9.78-10.67,27.09,0C140.6,74.5,125.55,56.43,113.51,74.5Z"/><g id="Nos"><path class="cls-9" d="M105.52,101.73a25.86,25.86,0,0,1-8.42-1.91l.46-1.11c2.44,1,9.25,3.13,11.48.7.32-.83-.91-7.55-1.9-13-2.1-11.49-2.61-15.2-1.7-16a.78.78,0,0,1,.77-.19l-.3,1.16a.37.37,0,0,0,.38-.14c-.53,1,.95,9.09,2,15,1.86,10.15,2.29,13.22,1.6,14A5.81,5.81,0,0,1,105.52,101.73Z"/></g><path id="Obrve" class="cls-10" d="M95.2,65.1c-16.86-9.24-24.66-.3-24.74-.21l-1.33-1.12c.35-.41,8.81-10.12,26.91-.2Z"/><path id="Obrve-2" data-name="Obrve" class="cls-10" d="M140.18,66.27c-16.86-9.24-24.66-.29-24.74-.2L114.11,65c.35-.42,8.81-10.12,26.91-.2Z"/><path class="cls-11" d="M122.11,113a15.23,15.23,0,0,1-6.56,8.14C114.31,116,91.75,118,91.67,118a19.14,19.14,0,0,1-3.44-5A87.28,87.28,0,0,0,122.11,113Z"/><path class="cls-12" d="M115.55,121.1h0a19.32,19.32,0,0,1-9.33,2.69A18.09,18.09,0,0,1,91.67,118C91.75,118,114.31,116,115.55,121.1Z"/><polygon class="cls-11" points="91.67 117.97 91.67 117.97 91.67 117.97 91.67 117.97"/><path id="Lasje3" class="cls-10" d="M157.24,165.24s-5.39-1.23-9.25-14c-9.45-9.12-22.52-16.13-22.52-16.13,8.06-5,14.52-16.65,18.33-24,.14-6,1-12.52,1.59-19.91,5.8-68.52-40.06-48.71-42-48.56h0c-1.77-.1-46.8-19.69-41.94,48.56.52,7.36,1.79,13.9,1.94,19.86,5.21,9.14,15.5,22.5,15.5,22.5C73.36,129.75,66,137.84,60,146.79c-3.82,17-10.4,18.45-10.4,18.45S22.22-6.67,103.41.2C184.59-6.67,157.24,165.24,157.24,165.24Z"/><path id="Koza-6" data-name="Koza" class="cls-1" d="M144.5,67.25s10.48-3.18,7.43,13.86-7.43,27.6-7.43,27.6Z"/><path id="Koza-7" data-name="Koza" class="cls-1" d="M63.49,69.73S53,66.54,56.06,83.59s7.43,27.6,7.43,27.6Z"/><ellipse id="Uhani" class="cls-13" cx="61.61" cy="107.04" rx="3.31" ry="3.59"/><ellipse id="Uhani-2" data-name="Uhani" class="cls-13" cx="146.8" cy="106.91" rx="3.31" ry="3.59"/></g></g></svg>