<svg xmlns="http://www.w3.org/2000/svg" viewBox="0 0 211.19 613.17"><defs><style>.cls-1{fill:#eed1bf;}.cls-2{fill:#fcc5aa;}.cls-3{fill:#d9dceb;}.cls-4{fill:#0474bb;}.cls-5{fill:none;stroke:#d9dceb;stroke-miterlimit:10;stroke-width:1.21px;}.cls-6{fill:#fff;}.cls-7{fill:#524935;}.cls-8{fill:#c9bcdd;}.cls-9{fill:#ebaf89;}.cls-10{fill:#c1c0da;}.cls-11{fill:#200600;}.cls-12{fill:#d55227;}.cls-13{fill:#c4463a;}</style></defs><g id="Layer_2" data-name="Layer 2"><g id="Layer_1-2" data-name="Layer 1"><path id="Koza" class="cls-1" d="M15.41,335S9.52,382.22,41.3,387V333.89Z"/><path id="Koza-2" data-name="Koza" class="cls-1" d="M200.51,340.3s5.89,47.19-25.9,51.93V339.16Z"/><path id="Vrat" class="cls-2" d="M138.76,151.91c-5.1,13-18.42,22.34-34.07,22.34-15.37,0-28.5-9-33.8-21.68,4-1.16,12.58-5.44,13.09-20.83h35.3S122.52,155.93,138.76,151.91Z"/><path class="cls-3" d="M0,353.23l51.93-2V201.5s-12-62-30.45-28.36Q6.15,267.28,0,353.23Z"/><path class="cls-3" d="M208.42,353.23l-51.94-2V201.5s12-62,30.46-28.36Q202.27,267.28,208.42,353.23Z"/><path id="Koza-3" data-name="Koza" class="cls-1" d="M89.92,588.45l-30.69,4.24c3.61-2.38,3.56-4.24,3.56-4.24Z"/><path id="Koza-4" data-name="Koza" class="cls-1" d="M156.64,592.69,126,588.45h25.92A16.76,16.76,0,0,0,156.64,592.69Z"/><path id="cevlje" class="cls-4" d="M89.92,588.45v20.74h-15v-5.92s-33.06,12.37-47.57,9.45c0,0-16.55-2.27,8.86-11.58,19-7,22.83-8.42,22.83-8.42l.17,0h0Z"/><path id="cevlje-2" data-name="cevlje" class="cls-4" d="M188.51,612.72c-14.5,2.92-47.57-9.45-47.57-9.45v5.92H126V588.45l30.69,4.24h0l.17,0s3.83,1.45,22.84,8.42C205.06,610.45,188.51,612.72,188.51,612.72Z"/><polygon id="Hlace" class="cls-1" points="174.61 348.53 174.61 376.95 151.87 588.45 125.89 588.45 109.44 422.69 89.97 588.45 62.79 588.45 41.8 376.95 41.8 348.53 174.61 348.53"/><path id="Obleka" class="cls-4" d="M179.45,306.58c-2.81-21.71-18.64-44.85-16.46-66,10.06-13.46,10.34-43,10.32-47.65,5.6-16.18,11.54-22.68,16.38-23.21,11.84-1.31-17.48-19.42-35.57-19.42H139.18c-4.9,12.41-18.43,21.32-34.35,21.32s-29.44-8.91-34.35-21.32H55.55c-18.1,0-47.42,18.11-35.58,19.42,4.78.52,10.63,6.86,16.16,22.58,0,0-.63,34.19,10.58,48.63,2.13,21.07-11,41.59-13.76,63.18L5.22,483s21.11,21.27,82.51,0c0,0,41.69,15.8,78.37,0,0,0,30.57,12.68,45.09,0Z"/><path class="cls-5" d="M26.21,315.29c.18-13.07,81,52.33,157.25,0"/><path id="Koza-5" data-name="Koza" class="cls-1" d="M100.73,14h8.2a37.7,37.7,0,0,1,37.7,37.7v50.06a41.8,41.8,0,0,1-41.8,41.8h0A41.8,41.8,0,0,1,63,101.73V51.67A37.7,37.7,0,0,1,100.73,14Z"/><path class="cls-6" d="M93.28,74.34c.09-8-22.94-8.36-23-.31C70.17,81.3,93.2,81.6,93.28,74.34Z"/><path class="cls-6" d="M139.57,74.34c.09-8-22.94-8.36-23-.31C116.46,81.3,139.49,81.6,139.57,74.34Z"/><ellipse class="cls-7" cx="81.05" cy="73.89" rx="3.81" ry="4.14"/><ellipse class="cls-7" cx="128.05" cy="73.89" rx="3.81" ry="4.14"/><path id="Oci" class="cls-8" d="M68.82,74.5s9.79-10.67,27.1,0C95.92,74.5,80.86,56.43,68.82,74.5Z"/><path id="Oci-2" data-name="Oci" class="cls-8" d="M114.93,74.5s9.79-10.67,27.1,0C142,74.5,127,56.43,114.93,74.5Z"/><g id="Nos"><path class="cls-9" d="M106.94,101.73a25.7,25.7,0,0,1-8.41-1.91L99,98.71c2.44,1,9.24,3.13,11.47.7.32-.83-.91-7.55-1.9-13-2.1-11.49-2.61-15.2-1.7-16a.79.79,0,0,1,.78-.19l-.3,1.16a.39.39,0,0,0,.38-.14c-.54,1,.94,9.09,2,15,1.86,10.15,2.3,13.22,1.61,14A5.83,5.83,0,0,1,106.94,101.73Z"/></g><path id="Obrve" class="cls-10" d="M96.63,65.1c-16.86-9.24-24.67-.3-24.74-.21l-1.33-1.12c.35-.41,8.8-10.12,26.9-.2Z"/><path id="Obrve-2" data-name="Obrve" class="cls-10" d="M141.61,66.27c-16.87-9.24-24.67-.29-24.74-.2L115.54,65c.35-.42,8.81-10.12,26.9-.2Z"/><path class="cls-11" d="M123.54,113A15.29,15.29,0,0,1,117,121.1C115.74,116,93.17,118,93.1,118a19.35,19.35,0,0,1-3.45-5A87.33,87.33,0,0,0,123.54,113Z"/><path class="cls-12" d="M117,121.1h0a19.28,19.28,0,0,1-9.32,2.69A18.06,18.06,0,0,1,93.1,118C93.17,118,115.74,116,117,121.1Z"/><polygon class="cls-11" points="93.1 117.97 93.1 117.97 93.1 117.97 93.1 117.97"/><path id="Lasje" class="cls-10" d="M158.66,165.24s-5.39-1.23-9.24-14c-9.45-9.12-22.53-16.13-22.53-16.13,8.06-5,14.52-16.65,18.33-24,.15-6,1-12.52,1.59-19.91,5.8-68.52-40.06-48.71-42-48.56h0C103,42.51,58,22.92,62.85,91.17c.52,7.36,1.8,13.9,1.94,19.86,5.21,9.14,15.51,22.5,15.51,22.5-5.51-3.78-12.91,4.31-18.9,13.26-3.82,17-10.4,18.45-10.4,18.45S23.64-6.67,104.83.2C186-6.67,158.66,165.24,158.66,165.24Z"/><path id="Koza-6" data-name="Koza" class="cls-1" d="M145.92,67.25s10.48-3.18,7.43,13.86-7.43,27.6-7.43,27.6Z"/><path id="Koza-7" data-name="Koza" class="cls-1" d="M64.91,69.73s-10.48-3.19-7.43,13.86,7.43,27.6,7.43,27.6Z"/><ellipse id="Uhani" class="cls-13" cx="63.03" cy="107.04" rx="3.31" ry="3.59"/><ellipse id="Uhani-2" data-name="Uhani" class="cls-13" cx="148.23" cy="106.91" rx="3.31" ry="3.59"/></g></g></svg>