<svg xmlns="http://www.w3.org/2000/svg" viewBox="0 0 161.72 341.02"><defs><style>.cls-1{fill:#dce6e0;}.cls-10,.cls-2,.cls-9{fill:#eed1bf;}.cls-3{fill:#fbc5aa;}.cls-4{fill:#007dac;}.cls-5{fill:#00bdcd;}.cls-6{fill:#df584f;}.cls-7{fill:#44515c;}.cls-8{fill:#ebae8a;}.cls-10,.cls-9{stroke:#ebae8a;stroke-miterlimit:10;}.cls-9{stroke-width:0.64px;}.cls-10{stroke-width:0.32px;}.cls-11{fill:#ffcf01;}.cls-12{fill:#fbb040;}.cls-13{fill:#ee202e;}</style></defs><title>Asset 5</title><g id="Layer_2" data-name="Layer 2"><g id="Glavno_Besedilo" data-name="Glavno Besedilo"><ellipse class="cls-1" cx="80.86" cy="331.81" rx="80.86" ry="9.22"/><path class="cls-2" d="M37.33,179S33.77,207,53,209.81V178.29Z"/><path class="cls-2" d="M133.82,179.74s3.55,28-15.65,30.84V179.06Z"/><path class="cls-3" d="M66,80.27s8.14-.6,8.52-10.4h20s.82,12.79,10.35,10.4L104,87.62,84.51,95.38,67.59,90.84l-4.13-8.21Z"/><path class="cls-4" d="M140.36,180.9l-28-.32V106.49s7.23-30.69,18.35-14C136.85,123.52,137.85,152.52,140.36,180.9Z"/><path class="cls-4" d="M32,180.9l26.12-.32v-74S50.85,76,39.73,92.61C33.58,123.62,34.47,152.57,32,180.9Z"/><path class="cls-5" d="M110.51,80h-7.73C100.24,86.84,93.24,91.73,85,91.73S69.75,86.84,67.21,80H59.48c-9.37,0-24.55,10-18.42,10.66,2.58.31,5.77,4.09,8.75,13.59v94.27h70.37V104.27c3-9.5,6.17-13.28,8.75-13.59C135.06,90,119.88,80,110.51,80Z"/><rect class="cls-6" x="49.7" y="198.54" width="70.88" height="17.71"/><polygon class="cls-6" points="85.17 216.26 72.34 322.11 60.05 318.71 49.7 216.26 85.17 216.26"/><polygon class="cls-6" points="120.58 216.26 108.92 318.71 96.15 321.66 85.29 216.26 120.58 216.26"/><path class="cls-7" d="M59.79,317.18c.59,5.52-4.15,6.36-4.15,6.36-19.46-1.81-15.2,7.86-15.2,7.86H59l13.37-.1v-9.64Z"/><path class="cls-7" d="M109.19,316.92c-.61,5.72,4.29,6.59,4.29,6.59,20.15-1.87,15.74,8.13,15.74,8.13H96.15v-10Z"/><path class="cls-2" d="M82.23,4.09h5.33a24.54,24.54,0,0,1,24.54,24.54V47.95a27.2,27.2,0,0,1-27.2,27.2h0a27.2,27.2,0,0,1-27.2-27.2V28.63A24.54,24.54,0,0,1,82.23,4.09Z"/><path class="cls-8" d="M64.53,37.81s5.52-5.54,15.29,0C79.82,37.81,71.33,28.42,64.53,37.81Z"/><path class="cls-8" d="M90.56,37.81s5.52-5.54,15.29,0C105.85,37.81,97.36,28.42,90.56,37.81Z"/><path class="cls-9" d="M81.93,50.29s4.42,2.24,5.87.33c.63-.83-2.76-17.32-1.65-17"/><path class="cls-10" d="M65.88,30.28s4.6-5,14.58,0"/><path class="cls-10" d="M91.27,30.89s4.6-5,14.58,0"/><path class="cls-2" d="M58.08,31.8s-5.91-1.66-4.19,7.2a71.27,71.27,0,0,0,4.19,14.35Z"/><path class="cls-2" d="M110.94,31.8s5.92-1.66,4.19,7.2a71.27,71.27,0,0,1-4.19,14.35Z"/><path class="cls-8" d="M78,59.71a22.47,22.47,0,0,0,8.73,2.57A10.83,10.83,0,0,0,91,61.59a17.22,17.22,0,0,0,4-2.26l.23.2A9.48,9.48,0,0,1,91.63,63a9.3,9.3,0,0,1-5,1.12,12.76,12.76,0,0,1-4.86-1.26,13.28,13.28,0,0,1-4-2.87Z"/><rect class="cls-11" x="59.71" y="101.07" width="27.45" height="48.91" rx="11.9"/><rect class="cls-11" x="92.17" y="148.21" width="18.77" height="33.44" rx="8.14"/><path class="cls-12" d="M84.16,15.58s3.82,7.59,23.3,23.17c4,2.78.25,31.25-12.13,34.33l20.12,7.32s12.63-31-7.58-69.12A27.65,27.65,0,0,0,84.9,0S59.35-.82,55.83,20.5L55,31.67S75.21,27.68,84.16,15.58Z"/><path class="cls-12" d="M56.3,18.27s-17,52.78,12.62,60"/><rect class="cls-13" x="52.97" y="29.77" width="6.21" height="1.9"/></g></g></svg>