<svg xmlns="http://www.w3.org/2000/svg" viewBox="0 0 150.51 356.3"><defs><style>.cls-1{fill:#fbc5aa;}.cls-2{fill:#dce6e0;}.cls-3{fill:#d8dcec;}.cls-4{fill:#eed1bf;}.cls-5{fill:#fff;}.cls-6{fill:#7d4900;}.cls-7{fill:#514835;}.cls-8{fill:#ebaf88;}.cls-9{fill:#301812;}.cls-10{fill:#d55227;}.cls-11,.cls-12,.cls-14{fill:none;stroke-miterlimit:10;}.cls-11,.cls-12{stroke:#231f20;}.cls-11{stroke-width:0.33px;}.cls-12{stroke-width:0.31px;}.cls-13{fill:#00bdcd;}.cls-14{stroke:#007dac;stroke-width:0.51px;}.cls-15{fill:#017dad;}.cls-16{fill:#44515c;}.cls-17{fill:#007dac;}</style></defs><title>Asset 7</title><g id="Layer_2" data-name="Layer 2"><g id="Glavno_Besedilo" data-name="Glavno Besedilo"><path id="Vrat" class="cls-1" d="M99.69,79.81l-.11.29c-3,7.33-10.85,12.57-20.1,12.57S62.16,87.3,59.27,79.82h-.08a9.92,9.92,0,0,0,6.79-4,9.59,9.59,0,0,0,1.1-2,13.89,13.89,0,0,0,1-4.79H88.84a20.25,20.25,0,0,0,1,4.78,10.55,10.55,0,0,0,3.33,5A7.37,7.37,0,0,0,99.69,79.81Z"/><ellipse class="cls-2" cx="75.25" cy="347.73" rx="75.25" ry="8.58"/><path class="cls-3" d="M140.4,194.4,114,193.24v-85s6.11-35.22,15.5-16.11Q137.26,145.59,140.4,194.4Z"/><path id="Koza" class="cls-4" d="M108.79,40.26a72.28,72.28,0,0,1-4,13.85,26.68,26.68,0,0,1-52.77-1A83.93,83.93,0,0,1,48.41,40c-1.34-6.86,1.68-7.73,3.37-7.71V30.71A24.07,24.07,0,0,1,75.85,6.64h5.23a24.07,24.07,0,0,1,24.07,24.07V33.1C106.5,32.94,110.18,33.11,108.79,40.26Z"/><path class="cls-5" d="M72.69,36.8c0-4.1-12.7-4.26-12.75-.15C59.9,40.35,72.65,40.51,72.69,36.8Z"/><path id="Brada" class="cls-6" d="M106.25,50.12a46.11,46.11,0,0,1-.35,6.11,33.09,33.09,0,0,1-.65,3.64,20.84,20.84,0,0,1-.63,3.05,16.82,16.82,0,0,1-1.06,2.78,19.19,19.19,0,0,1-1.44,2.45,16.68,16.68,0,0,1-1.87,2.2c-.46.74-1,1.47-1.48,2.16a23,23,0,0,1-1.67,2,21.58,21.58,0,0,1-2,2.44c-.63.64-1.26,1.26-1.92,1.85a22.71,22.71,0,0,1-9,5.28,15.92,15.92,0,0,1-2.58.51,7.75,7.75,0,0,1-5.32-.93A63.85,63.85,0,0,0,66,75.81,29.15,29.15,0,0,0,59.51,73a19,19,0,0,1-1.87-1.45c-.58-.52-1.15-1.08-1.69-1.67a22.24,22.24,0,0,1-1.41-2.16,23.6,23.6,0,0,1-2.1-4.82c-.22-.82-.4-1.65-.55-2.5a36.85,36.85,0,0,1-.47-9c0-.37,0-.73.09-1.09,0-1.23,0-2.48,0-3.66.07-3.56.48-6.6,1.61-7.19,1.78-.94,2.44-1.06,2.67-1a.18.18,0,0,1,.13.07h0a.13.13,0,0,1,0,.08s.82,12.85,12.91,18.4H89.37s12.27-11.9,12.27-18.4l3.08.72.43.11A55.89,55.89,0,0,1,106.25,50.12Z"/><path class="cls-5" d="M98.33,36.8c0-4.1-12.71-4.26-12.76-.15C85.53,40.35,98.28,40.51,98.33,36.8Z"/><circle class="cls-7" cx="65.92" cy="36.58" r="2.11"/><circle class="cls-7" cx="91.95" cy="36.58" r="2.11"/><path id="Oci" class="cls-8" d="M59.15,36.89s5.42-5.44,15,0C74.15,36.89,65.82,27.67,59.15,36.89Z"/><path id="Oci-2" data-name="Oci" class="cls-8" d="M84.68,36.89s5.42-5.44,15,0C99.69,36.89,91.35,27.67,84.68,36.89Z"/><path class="cls-6" d="M89.37,57.07H68.81A8.87,8.87,0,0,1,74,51.39h2.36c.68.32,4.37,2,5.66.26a.57.57,0,0,0,.06-.26h2C86.78,53,88.65,54.87,89.37,57.07Z"/><path class="cls-4" d="M80.36,35l-.22.85C80.13,35.27,80.19,35,80.36,35Z"/><path id="Nos" class="cls-8" d="M80.1,52.72a10.52,10.52,0,0,1-4-1.11l.29-.55c1.14.57,4.33,1.77,5.37.4.17-.45-.42-4.35-.89-7.48-1-6.66-1.25-8.79-.78-9.2a.39.39,0,0,1,.39-.07l-.19.59a.23.23,0,0,0,.24-.08c-.27.55.44,5.24,1,8.66.87,5.8,1.08,7.55.77,8A2.52,2.52,0,0,1,80.1,52.72Z"/><g id="Obrve"><path class="cls-6" d="M74.43,32.4c-9.09-4.58-13.21-.35-13.38-.17l-1.15-1c.2-.22,5-5.32,15.23-.17Z"/></g><g id="Obrve-2" data-name="Obrve"><g id="Obrve-3" data-name="Obrve"><path id="Obrve-4" data-name="Obrve" class="cls-6" d="M99.33,33C90.18,28.38,86,32.78,86,32.83l-1.15-1.06c.2-.22,5-5.32,15.23-.17Z"/></g></g><path class="cls-9" d="M89.37,57.07a11.79,11.79,0,0,1-4,5.91C84.64,59.26,71,60.71,70.9,60.72a17.19,17.19,0,0,1-2.09-3.65Z"/><path class="cls-10" d="M85.39,63h0A10.42,10.42,0,0,1,70.9,60.72S84.64,59.26,85.39,63Z"/><polygon class="cls-9" points="70.9 60.71 70.9 60.72 70.9 60.71 70.9 60.71"/><polygon class="cls-5" points="68.81 57.07 69.4 58.37 88.93 58.37 89.36 57.07 68.81 57.07"/><g id="Ocala"><path class="cls-11" d="M75.13,37.19s5.59-4.22,9.29,0"/><line class="cls-11" x1="53.3" y1="33.5" x2="59.13" y2="36.58"/><line class="cls-11" x1="106.25" y1="33.38" x2="100.42" y2="36.88"/><circle class="cls-12" cx="67.13" cy="37.19" r="8"/><circle class="cls-12" cx="92.42" cy="37.19" r="8"/></g><path id="Lasje1" class="cls-6" d="M55.9,38.69S54.09,25.39,60,20.16A8,8,0,0,1,61.75,19a5.91,5.91,0,0,1,1.18-.42c2.19-.61,4.69-.3,6.94-.16l1.69.17C82,19.68,87.41,21.65,87.41,21.65s3.14-3-2-4.67,8.38-.21,11.92,7.19a50.13,50.13,0,0,1,4.33,14.52l3,.82s8.06-20.89-1.52-28.07C97.89,7.51,91.39,2.54,85,.76A19.15,19.15,0,0,0,83,.32,14.55,14.55,0,0,0,81.3.07,16.48,16.48,0,0,0,79.58,0a14,14,0,0,0-3.5.31,16.54,16.54,0,0,0-1.74.49c-.57.19-1.12.4-1.67.64-5.36,2.71-10.05,7.09-16,8.53-.57.17-1.12.35-1.66.56-2.67,1.05-4.79,2.67-5,6.05-.13.52-.25,1-.33,1.57a14.28,14.28,0,0,0-.12,3.2c0,.39,0,.79,0,1.2C49.64,27,51,32.56,55.9,38.69Z"/><path class="cls-3" d="M18.56,194.4,45,193.24v-85S38.88,73,29.49,92.11Q21.69,145.59,18.56,194.4Z"/><path id="Pulover" class="cls-13" d="M129.41,91.51a1.46,1.46,0,0,0-.22,0c-2.9.51-6.43,4.71-9.73,14.87v93.64h-80V106.41c-3.3-10.16-6.82-14.36-9.72-14.87l-.22,0c-7-.79,10.28-11.7,20.93-11.7h8.78c2.89,7.48,10.84,12.84,20.21,12.84s17.12-5.23,20.1-12.56c0-.1.07-.19.11-.28h8.79C119.12,79.81,136.37,90.72,129.41,91.51Z"/><line id="Zadrga" class="cls-14" x1="79.48" y1="200.06" x2="79.48" y2="92.67"/><polygon id="Hlace" class="cls-15" points="119.39 200.06 119.39 227.04 106.84 330.43 91.23 335.97 79.63 227.04 79.48 227.04 66.27 335.97 66.21 335.97 50.64 330.45 39.5 227.04 39.5 200.06 119.39 200.06"/><path id="Koza-2" data-name="Koza" class="cls-4" d="M26.33,194s-3,23.59,13.17,26V193.46Z"/><path id="Koza-3" data-name="Koza" class="cls-4" d="M132.57,194.07s3,23.59-13.18,26V193.49Z"/><path class="cls-16" d="M130.28,347.64h-39V336l15.61-5.54v0c-.68,6.65,5,7.66,5,7.66C135.43,335.94,130.28,347.64,130.28,347.64Z"/><path class="cls-16" d="M66.21,336v11.67h-39s-5.15-11.7,18.4-9.51c0,0,5.74-1,5-7.7l0,0Z"/><circle id="Gumb" class="cls-17" cx="86.18" cy="112.44" r="2.02"/><circle id="Gumb-2" data-name="Gumb" class="cls-17" cx="72.99" cy="112.44" r="2.02"/><circle id="Gumb-3" data-name="Gumb" class="cls-17" cx="86.18" cy="127.63" r="2.02"/><circle id="Gumb-4" data-name="Gumb" class="cls-17" cx="72.99" cy="127.63" r="2.02"/><circle id="Gumb-5" data-name="Gumb" class="cls-17" cx="86.18" cy="142.82" r="2.02"/><circle id="Gumb-6" data-name="Gumb" class="cls-17" cx="72.99" cy="142.82" r="2.02"/><circle id="Gumb-7" data-name="Gumb" class="cls-17" cx="86.18" cy="158.01" r="2.02"/><circle id="Gumb-8" data-name="Gumb" class="cls-17" cx="72.99" cy="158.01" r="2.02"/><circle id="Gumb-9" data-name="Gumb" class="cls-17" cx="86.18" cy="173.2" r="2.02"/><circle id="Gumb-10" data-name="Gumb" class="cls-17" cx="72.99" cy="173.2" r="2.02"/></g></g></svg>