<svg xmlns="http://www.w3.org/2000/svg" viewBox="0 0 96.25 113.04"><defs><style>.cls-1{fill:#790002;}.cls-2{fill:#c01823;}.cls-3{fill:#d73828;}.cls-4{fill:#3fa860;}</style></defs><g id="Layer_2" data-name="Layer 2"><g id="Glavno_Besedilo" data-name="Glavno Besedilo"><path class="cls-1" d="M47.5,33.55A27.56,27.56,0,0,0,32,9.53l2.85-2.85S51,20.71,47.5,33.55Z"/><path class="cls-2" d="M95.94,71.1c-2,20.29-13.38,36.47-27.22,40.8C79.59,94.18,83.36,79,83.36,66.38c0-28.54-19.38-43.59-19.42-43.62a23.85,23.85,0,0,1,4,.06C85.91,24.6,98.42,46.22,95.94,71.1Z"/><path class="cls-3" d="M83.36,66.38c0,12.59-3.77,27.8-14.64,45.52a24.13,24.13,0,0,1-19.62-2.23,24.28,24.28,0,0,1-7,2.59c-17.65,3.54-35.95-13.47-40.86-38S6.64,27,24.29,23.48c8-1.61,16.13,1,23.08,6.63a28.44,28.44,0,0,1,16.57-7.35S83.36,37.84,83.36,66.38Z"/><polygon class="cls-3" points="63.94 22.76 63.94 22.76 63.94 22.76 63.94 22.76"/><path class="cls-4" d="M47.91,28S46.34,7,63.8,0C63.8,0,77.56,13.92,47.91,28Z"/></g></g></svg>