<svg xmlns="http://www.w3.org/2000/svg" viewBox="0 0 58 58"><defs><style>.cls-1{fill:#e6a454;}.cls-2{fill:#ffffec;}</style></defs><g id="Layer_2" data-name="Layer 2"><g id="Glavno_Besedilo" data-name="Glavno Besedilo"><circle class="cls-1" cx="29" cy="29" r="29"/><path class="cls-2" d="M36.62,28q0,9.08,0,18.14a.93.93,0,0,1-.56,1,1,1,0,0,1-1-.24L26.66,40.4c-1.14-.88-2.27-1.78-3.42-2.65a1.14,1.14,0,0,0-.65-.21c-3.47,0-6.94,0-10.41,0-.92,0-1.18-.26-1.18-1.2V19.68c0-.94.25-1.19,1.17-1.19H22.54a1.25,1.25,0,0,0,.72-.25q5.93-4.56,11.82-9.15a1,1,0,0,1,1.06-.22.92.92,0,0,1,.48,1Q36.61,18.93,36.62,28Z"/><path class="cls-2" d="M40.12,37.93c0-.74,0-1.44,0-2.15,0-.1.22-.25.36-.29a7.68,7.68,0,0,0,4.87-3.89,7.78,7.78,0,0,0-4.8-11.14c-.35-.1-.48-.23-.46-.6,0-.61,0-1.23,0-1.86a10.09,10.09,0,0,1,0,19.93Z"/><path class="cls-2" d="M40.12,34.44c0-.85,0-1.65,0-2.45a.61.61,0,0,1,.24-.32,4.11,4.11,0,0,0,0-6.57.54.54,0,0,1-.22-.33c0-.79,0-1.58,0-2.37,1.88.24,3.94,2.9,4.2,5.37A6.48,6.48,0,0,1,40.12,34.44Z"/></g></g></svg>