<svg xmlns="http://www.w3.org/2000/svg" xmlns:xlink="http://www.w3.org/1999/xlink" viewBox="0 0 664.3 391.58"><defs><style>.cls-1{fill:none;}.cls-2,.cls-3{fill:#ebb6d4;}.cls-3{stroke:#df83b6;stroke-miterlimit:10;stroke-width:0.7px;}.cls-4{clip-path:url(#clip-path);}.cls-5{fill:#e292be;}</style><clipPath id="clip-path"><path class="cls-1" d="M581.3,159c.75-6.84-1.39-10.19-5.72-11.55-5.09-1.59-9.11-6.53-10.49-12.9-8.27-29.06-25.86-46.45-47-58.44C476.33,52.27,433.05,44.6,387.79,57.53S296.9,78.89,250.21,78.89c-14.91,0-31,2.77-44.47,10.22-15.68,8.58-26.39,5.15-37.08-9.2a31.7,31.7,0,0,0-8-7.51,45.63,45.63,0,0,0-10-3.18l4,17.25a171.48,171.48,0,0,0-21.11-3.71c-6.79-.36-10.07,4.71-7.61,11.08,5.11,13.38,10.45,26.65,16.45,39.41,3,6.37,4.2,12.19.64,17.95-10.09,16.31-23.22,26.62-40,27.39-10.42.5-11.21.58-12,13.85-.28,4.51-.15,9.06-.46,13.57-.53,9.14,3.54,12.85,9.83,15.87A113.86,113.86,0,0,1,126,237.17c16.1,13.68,33.4,21.71,52.78,21.44a115.94,115.94,0,0,1,52.78,12c7.74,3.77,18.52,4.18,22.76,11.08,4.69,7.64,3.72,21,4.66,31.93,1.52,17.45-.63,33.6-11.5,46.39a56.63,56.63,0,0,0-7.19,11.42c-3.39,6.81-1.87,10,4.55,10.52,12.47,1,16.76-3.16,23.38-23,6.73,3.13,8.8-1.38,9-9,.22-6.81.58-13.62,1.28-20.38.7-4.55,1.62-9.05,2.75-13.46,7.39,9.09,10.06,22.65,6.9,35-2.2,9.86-6.13,19.09-9.43,28.53-1.34,3.82-3.83,7.56.88,10.53,5.41,3.43,17.09.38,20.83-5.54,3.16-5,2.48-14.07,10.09-14.49.7,0,1.8-4.49,1.78-6.89,0-6.46-.46-12.94-.83-19.39-.88-15.48-3-31.05-2.49-46.45.77-23.68,8.4-31.49,27.2-27.2,23.65,5.38,47.24,2.25,70.86,2.77,15.4.31,30.13-2.1,43.68-12.79,6.42-5.07,10.69-1.64,13.3,7.89a56,56,0,0,0,5,13.85c9,14.62,10.44,27.89,3,44q-6.48,12.66-14,24.4c-4.51,7.68-9.1,15.29-13.66,23l1.08,3.55c7.39-1.08,16.1.5,21.77-4s8.29-15.07,12.27-23c8.43,7.15,8.14,7,12.08-3.88,6.75-18.69,13.92-37.11,20.91-55.66,24.88,14.87,33.41,45.56,22.26,74.3-2.75,7.12-4.84,14.63-8.07,24.46a99.6,99.6,0,0,0,14.82-1.11c6.6-1.6,15.09-1.19,14.41-14.65a3.69,3.69,0,0,1,1.53-2.77c9-1.94,6.6-10.69,5.19-16.62a81.37,81.37,0,0,1,.86-40.07c2.36-9.34,2-18.61-3.63-26.48-2.92-4.1-6-8.09-8.66-12.41-3.85-6.23-5.83-13.07-2.55-20.74,11.65-27.2,15.88-56.67,16.62-87.13.16-6.32,2.09-9.45,6.27-9.5.2,5.73-.46,11.07.79,15.75C572.39,173.36,579.41,176.79,581.3,159Z"/></clipPath></defs><title>Asset 1</title><g id="Layer_2" data-name="Layer 2"><g id="Layer_1-2" data-name="Layer 1"><g id="Glavno_Besedilo" data-name="Glavno Besedilo"><path class="cls-2" d="M581.3,159c.75-6.84-1.39-10.19-5.72-11.55-5.09-1.59-9.11-6.53-10.49-12.9-8.27-29.06-25.86-46.45-47-58.44C476.33,52.27,433.05,44.6,387.79,57.53S296.9,78.89,250.21,78.89c-14.91,0-31,2.77-44.47,10.22-15.68,8.58-26.39,5.15-37.08-9.2a31.7,31.7,0,0,0-8-7.51,45.63,45.63,0,0,0-10-3.18l4,17.25a171.48,171.48,0,0,0-21.11-3.71c-6.79-.36-10.07,4.71-7.61,11.08,5.11,13.38,10.45,26.65,16.45,39.41,3,6.37,4.2,12.19.64,17.95-10.09,16.31-23.22,26.62-40,27.39-10.42.5-11.21.58-12,13.85-.28,4.51-.15,9.06-.46,13.57-.53,9.14,3.54,12.85,9.83,15.87A113.86,113.86,0,0,1,126,237.17c16.1,13.68,33.4,21.71,52.78,21.44a115.94,115.94,0,0,1,52.78,12c7.74,3.77,18.52,4.18,22.76,11.08,4.69,7.64,3.72,21,4.66,31.93,1.52,17.45-.63,33.6-11.5,46.39a56.63,56.63,0,0,0-7.19,11.42c-3.39,6.81-1.87,10,4.55,10.52,12.47,1,16.76-3.16,23.38-23,6.73,3.13,8.8-1.38,9-9,.22-6.81.58-13.62,1.28-20.38.7-4.55,1.62-9.05,2.75-13.46,7.39,9.09,10.06,22.65,6.9,35-2.2,9.86-6.13,19.09-9.43,28.53-1.34,3.82-3.83,7.56.88,10.53,5.41,3.43,17.09.38,20.83-5.54,3.16-5,2.48-14.07,10.09-14.49.7,0,1.8-4.49,1.78-6.89,0-6.46-.46-12.94-.83-19.39-.88-15.48-3-31.05-2.49-46.45.77-23.68,8.4-31.49,27.2-27.2,23.65,5.38,47.24,2.25,70.86,2.77,15.4.31,30.13-2.1,43.68-12.79,6.42-5.07,10.69-1.64,13.3,7.89a56,56,0,0,0,5,13.85c9,14.62,10.44,27.89,3,44q-6.48,12.66-14,24.4c-4.51,7.68-9.1,15.29-13.66,23l1.08,3.55c7.39-1.08,16.1.5,21.77-4s8.29-15.07,12.27-23c8.43,7.15,8.14,7,12.08-3.88,6.75-18.69,13.92-37.11,20.91-55.66,24.88,14.87,33.41,45.56,22.26,74.3-2.75,7.12-4.84,14.63-8.07,24.46a99.6,99.6,0,0,0,14.82-1.11c6.6-1.6,15.09-1.19,14.41-14.65a3.69,3.69,0,0,1,1.53-2.77c9-1.94,6.6-10.69,5.19-16.62a81.37,81.37,0,0,1,.86-40.07c2.36-9.34,2-18.61-3.63-26.48-2.92-4.1-6-8.09-8.66-12.41-3.85-6.23-5.83-13.07-2.55-20.74,11.65-27.2,15.88-56.67,16.62-87.13.16-6.32,2.09-9.45,6.27-9.5.2,5.73-.46,11.07.79,15.75C572.39,173.36,579.41,176.79,581.3,159Z"/><path class="cls-3" d="M160.26,150.26s11.7,28.33,30.18,2.41"/><g class="cls-4"><path class="cls-5" d="M230.24,54c-1.8,15.56,38.31,34,35.58,66.22-1,11.49-6.59,15.07-4.64,22.38,5.63,20.91,61.16,26.7,74.23,1,7.12-14-2.91-28.64,5.41-39.72C350.27,91,366,106.44,383.35,93.09c13.94-10.74,12.91-27.69,24.74-30.18,9.52-1.92,13.46,8.5,24,6.81s21.68-14.79,20.89-22.38C449.63,15.46,234.33,18.9,230.24,54Z"/><path class="cls-5" d="M276.89,244.54c-1.81,15.56,38.33,34,35.58,66.22-1,11.49-6.6,15.07-4.64,22.38,5.63,20.91,61.16,26.7,74.22,1,7.13-14.07-2.9-28.72,5.41-39.93,9.48-12.8,25.21,2.77,42.53-10.72,13.95-10.72,12.94-27.7,24.75-30.19,9.52-1.91,13.45,8.5,24,6.84s21.66-14.79,20.87-22.41C496.3,206,281,209.42,276.89,244.54Z"/><path class="cls-5" d="M496.94,27.23c-9.77,9.83,9.54,57.83-9.92,79-6.95,7.57-13,5.35-15.53,12.38-7.21,20.14,30.22,72,53.71,64.54C538,179,538.66,159.65,550.8,158.6c13.85-1.2,17,23.57,36.88,28.74,16,4.16,24.52-9.19,34.44-.77,8,6.76,5.23,17.78,13.81,25.56s23.86,7.84,27.4,1.61C678.13,187.7,519,5.1,496.94,27.23Z"/><path class="cls-5" d="M7.55,274.12c11.59,5.9,35.19-38.78,59.38-27.89,8.64,3.9,10.09,11.63,16.18,11.07,17.6-2,35-68.57,18.28-90.62-9.08-12.16-22.74-3.35-29.45-16.14-7.63-14.63,8-30.22,1.78-54.59-5-19.61-18.32-22.38-17.46-37.39.77-12.11,9.74-14.49,11-27.7S61,.87,54.92,0C29.56-3.48-18.6,260.85,7.55,274.12Z"/></g></g></g></g></svg>