<svg xmlns="http://www.w3.org/2000/svg" viewBox="0 0 141 168.51"><defs><style>.cls-1{fill:#fbad18;}.cls-2{fill:#63b1dc;}.cls-3{fill:#a0cae7;}</style></defs><g id="Layer_2" data-name="Layer 2"><g id="Glavno_Besedilo" data-name="Glavno Besedilo"><path class="cls-1" d="M141,88c0,1.68-.06,3.35-.18,5A70.5,70.5,0,0,0,.18,93C.06,91.37,0,89.7,0,88a70.5,70.5,0,0,1,141,0Z"/><path class="cls-1" d="M141,98A70.5,70.5,0,0,1,0,98c0-1.68.06-3.35.18-5a70.5,70.5,0,0,0,140.64,0C140.94,94.67,141,96.34,141,98Z"/><path class="cls-2" d="M92.5,12a12,12,0,0,1-22.42,6A12,12,0,0,0,86.79,1.78,12,12,0,0,1,92.5,12Z"/><path class="cls-3" d="M88.38,7.75A12,12,0,0,1,70.08,18,12,12,0,0,1,86.79,1.78,12,12,0,0,1,88.38,7.75Z"/><path class="cls-2" d="M104.53,19.34a8.46,8.46,0,0,1-15.8,4.2,8.46,8.46,0,0,0,11.78-11.41A8.49,8.49,0,0,1,104.53,19.34Z"/><path class="cls-3" d="M101.63,16.34a8.46,8.46,0,0,1-12.9,7.2,8.47,8.47,0,0,1,11.78-11.41A8.46,8.46,0,0,1,101.63,16.34Z"/><path class="cls-2" d="M72.43,16.34a8.46,8.46,0,0,1-15.8,4.21A8.46,8.46,0,0,0,68.41,9.14,8.46,8.46,0,0,1,72.43,16.34Z"/><path class="cls-3" d="M69.53,13.35a8.47,8.47,0,0,1-12.9,7.2A8.47,8.47,0,0,1,68.41,9.14,8.46,8.46,0,0,1,69.53,13.35Z"/></g></g></svg>