<svg xmlns="http://www.w3.org/2000/svg" viewBox="0 0 152.11 148.29"><defs><style>.cls-1{fill:#ffd54c;}.cls-2{fill:#ffcf01;}.cls-3{fill:#f9eed3;}</style></defs><g id="Layer_2" data-name="Layer 2"><g id="Glavno_Besedilo" data-name="Glavno Besedilo"><path class="cls-1" d="M144.57,107.14l-38.78-9.28,17.69,35.75-30.93-25.2L93,148.29,76.05,112.18c57.16-57.16,0-76.06,0-76.06L93,0l-.43,39.89,30.93-25.2L105.79,50.44l38.78-9.29L113.13,65.69l39,8.46-39,8.46Z"/><path class="cls-2" d="M76.05,112.18,59.13,148.29l.43-39.88-30.93,25.2L46.32,97.86,7.53,107.14,39,82.61,0,74.15l39-8.46L7.53,41.15l38.79,9.29L28.63,14.69l30.93,25.2L59.13,0,76.05,36.12S133.21,55,76.05,112.18Z"/><circle class="cls-3" cx="76.05" cy="74.15" r="29.73"/></g></g></svg>