<svg xmlns="http://www.w3.org/2000/svg" viewBox="0 0 377.5 368"><defs><style>.cls-1{fill:#e6a454;}.cls-2{fill:#58469f;}.cls-3{font-size:24px;}.cls-3,.cls-4,.cls-5{fill:#ffffec;}.cls-3,.cls-4{font-family:Raleway-ExtraBold, Raleway;font-weight:700;}.cls-4{font-size:19.97px;}.cls-6{fill:none;stroke:#ffffec;stroke-miterlimit:10;stroke-width:5.67px;}</style></defs><title>clock 04</title><g id="Layer_2" data-name="Layer 2"><g id="Glavno_Besedilo" data-name="Glavno Besedilo"><line class="cls-1" x1="203.5" y1="198" x2="287.5" y2="198"/><path class="cls-1" d="M0,196S7.5,0,200.5,0V194Z"/><circle class="cls-2" cx="203.5" cy="194" r="174"/><text class="cls-3" transform="translate(190.83 50.33)">12</text><text class="cls-3" transform="translate(280.83 78.33)">1</text><text class="cls-3" transform="translate(116.83 78.33)">11</text><text class="cls-3" transform="translate(327.83 135.33)">2</text><text class="cls-3" transform="translate(66.83 135.33)">10</text><text class="cls-3" transform="translate(324.83 278.33)">4</text><text class="cls-3" transform="translate(69.83 278.33)">8</text><text class="cls-3" transform="translate(271.83 327.33)">5</text><text class="cls-3" transform="translate(124.83 327.33)">7</text><text class="cls-3" transform="translate(193.83 353.33)">6</text><text class="cls-3" transform="translate(350.83 206.33)">3</text><text class="cls-4" transform="translate(46.98 205.08)">9</text><circle class="cls-5" cx="203.5" cy="197" r="10"/><line class="cls-5" x1="75.5" y1="196" x2="194.5" y2="196"/><line class="cls-6" x1="83.64" y1="196" x2="194.5" y2="196"/><polygon class="cls-5" points="85.29 201.65 75.5 196 85.29 190.35 85.29 201.65"/><line class="cls-5" x1="286.5" y1="198" x2="202.5" y2="198"/><line class="cls-6" x1="278.36" y1="198" x2="202.5" y2="198"/><polygon class="cls-5" points="276.71 192.35 286.5 198 276.71 203.65 276.71 192.35"/></g></g></svg>