<svg xmlns="http://www.w3.org/2000/svg" viewBox="0 0 348 348"><defs><style>.cls-1{fill:#e6a454;}.cls-2{fill:#58469f;}.cls-3{font-size:24px;}.cls-3,.cls-4,.cls-5{fill:#ffffec;}.cls-3,.cls-4{font-family:Raleway-ExtraBold, Raleway;font-weight:700;}.cls-4{font-size:19.97px;}.cls-6{fill:none;stroke:#ffffec;stroke-miterlimit:10;stroke-width:5.67px;}</style></defs><title>clock 05</title><g id="Layer_2" data-name="Layer 2"><g id="Glavno_Besedilo" data-name="Glavno Besedilo"><line class="cls-1" x1="174" y1="178" x2="258" y2="178"/><circle class="cls-2" cx="174" cy="174" r="174"/><text class="cls-3" transform="translate(161.33 30.33)">12</text><text class="cls-3" transform="translate(251.33 58.33)">1</text><text class="cls-3" transform="translate(87.33 58.33)">11</text><text class="cls-3" transform="translate(298.33 115.33)">2</text><text class="cls-3" transform="translate(37.33 115.33)">10</text><text class="cls-3" transform="translate(295.33 258.33)">4</text><text class="cls-3" transform="translate(40.33 258.33)">8</text><text class="cls-3" transform="translate(242.33 307.33)">5</text><text class="cls-3" transform="translate(95.33 307.33)">7</text><text class="cls-3" transform="translate(164.33 333.33)">6</text><text class="cls-3" transform="translate(321.33 186.33)">3</text><text class="cls-4" transform="translate(17.48 185.08)">9</text><circle class="cls-5" cx="174" cy="177" r="10"/><line class="cls-5" x1="119.64" y1="69.91" x2="173.36" y2="176.09"/><line class="cls-6" x1="123.31" y1="77.17" x2="173.36" y2="176.09"/><polygon class="cls-5" points="119.01 81.2 119.64 69.91 129.1 76.09 119.01 81.2"/><line class="cls-5" x1="257" y1="178" x2="173" y2="178"/><line class="cls-6" x1="248.86" y1="178" x2="173" y2="178"/><polygon class="cls-5" points="247.21 172.35 257 178 247.21 183.65 247.21 172.35"/></g></g></svg>