<svg xmlns="http://www.w3.org/2000/svg" viewBox="0 0 348 348"><defs><style>.cls-1{fill:#58469f;}.cls-2{font-size:24px;}.cls-2,.cls-3,.cls-4{fill:#ffffec;}.cls-2,.cls-3{font-family:Raleway-ExtraBold, Raleway;font-weight:800;}.cls-3{font-size:19.97px;}.cls-5{fill:none;stroke:#ffffec;stroke-miterlimit:10;stroke-width:5.67px;}</style></defs><g id="Layer_2" data-name="Layer 2"><g id="Glavno_Besedilo" data-name="Glavno Besedilo"><circle class="cls-1" cx="174" cy="174" r="174"/><text class="cls-2" transform="translate(161.33 30.33)">12</text><text class="cls-2" transform="translate(251.33 58.33)">1</text><text class="cls-2" transform="translate(87.33 58.33)">11</text><text class="cls-2" transform="translate(298.33 115.33)">2</text><text class="cls-2" transform="translate(37.33 115.33)">10</text><text class="cls-2" transform="translate(295.33 258.33)">4</text><text class="cls-2" transform="translate(40.33 258.33)">8</text><text class="cls-2" transform="translate(242.33 307.33)">5</text><text class="cls-2" transform="translate(95.33 307.33)">7</text><text class="cls-2" transform="translate(164.33 333.33)">6</text><text class="cls-2" transform="translate(321.33 186.33)">3</text><text class="cls-3" transform="translate(17.48 185.08)">9</text><circle class="cls-4" cx="174" cy="177" r="10"/><line class="cls-4" x1="174" y1="58" x2="174" y2="177"/><line class="cls-5" x1="174" y1="66.14" x2="174" y2="177"/><polygon class="cls-4" points="168.35 67.79 174 58 179.65 67.79 168.35 67.79"/><line class="cls-4" x1="258" y1="178" x2="174" y2="178"/><line class="cls-5" x1="249.86" y1="178" x2="174" y2="178"/><polygon class="cls-4" points="248.21 172.35 258 178 248.21 183.65 248.21 172.35"/></g></g></svg>