<svg xmlns="http://www.w3.org/2000/svg" viewBox="0 0 370 370.5"><defs><style>.cls-1{fill:#e6a454;}.cls-2{fill:#58469f;}.cls-3{font-size:24px;}.cls-3,.cls-4,.cls-5{fill:#ffffec;}.cls-3,.cls-4{font-family:Raleway-ExtraBold, Raleway;font-weight:800;}.cls-4{font-size:19.97px;}.cls-6{fill:none;stroke:#ffffec;stroke-miterlimit:10;stroke-width:5.67px;}</style></defs><g id="Layer_2" data-name="Layer 2"><g id="Glavno_Besedilo" data-name="Glavno Besedilo"><line class="cls-1" x1="174" y1="200.5" x2="258" y2="200.5"/><path class="cls-1" d="M174,0S370,7.5,370,200.5H176Z"/><circle class="cls-2" cx="174" cy="196.5" r="174"/><text class="cls-3" transform="translate(161.33 52.83)">12</text><text class="cls-3" transform="translate(251.33 80.83)">1</text><text class="cls-3" transform="translate(87.33 80.83)">11</text><text class="cls-3" transform="translate(298.33 137.83)">2</text><text class="cls-3" transform="translate(37.33 137.83)">10</text><text class="cls-3" transform="translate(295.33 280.83)">4</text><text class="cls-3" transform="translate(40.33 280.83)">8</text><text class="cls-3" transform="translate(242.33 329.83)">5</text><text class="cls-3" transform="translate(95.33 329.83)">7</text><text class="cls-3" transform="translate(164.33 355.83)">6</text><text class="cls-3" transform="translate(321.33 208.83)">3</text><text class="cls-4" transform="translate(17.48 207.58)">9</text><circle class="cls-5" cx="174" cy="199.5" r="10"/><line class="cls-5" x1="302" y1="200.5" x2="183" y2="200.5"/><line class="cls-6" x1="293.86" y1="200.5" x2="183" y2="200.5"/><polygon class="cls-5" points="292.21 194.85 302 200.5 292.21 206.15 292.21 194.85"/><line class="cls-5" x1="257" y1="200.5" x2="173" y2="200.5"/><line class="cls-6" x1="248.86" y1="200.5" x2="173" y2="200.5"/><polygon class="cls-5" points="247.21 194.85 257 200.5 247.21 206.15 247.21 194.85"/></g></g></svg>