<svg xmlns="http://www.w3.org/2000/svg" viewBox="0 0 845 425"><defs><style>.cls-1,.cls-11{fill:#e6a454;}.cls-2{fill:#58469f;}.cls-3{font-size:24px;}.cls-3,.cls-4,.cls-5,.cls-8{fill:#ffffec;}.cls-3,.cls-4{font-family:Raleway-ExtraBold, Raleway;font-weight:800;}.cls-4{font-size:19.97px;}.cls-6,.cls-7{fill:none;stroke-miterlimit:10;}.cls-6{stroke:#ffffec;stroke-width:5.67px;}.cls-7{stroke:#58469f;stroke-width:6.17px;}.cls-8{font-size:22.12px;font-family:Raleway-Medium, Raleway;font-weight:500;}.cls-9{letter-spacing:-0.01em;}.cls-10{letter-spacing:-0.01em;}.cls-11{letter-spacing:-0.01em;}</style></defs><g id="Layer_2" data-name="Layer 2"><g id="Glavno_Besedilo" data-name="Glavno Besedilo"><line class="cls-1" x1="427" y1="222" x2="511" y2="222"/><circle class="cls-2" cx="427" cy="218" r="174"/><text class="cls-3" transform="translate(414.33 74.33)">12</text><text class="cls-3" transform="translate(504.33 102.33)">1</text><text class="cls-3" transform="translate(340.33 102.33)">11</text><text class="cls-3" transform="translate(551.33 159.33)">2</text><text class="cls-3" transform="translate(290.33 159.33)">10</text><text class="cls-3" transform="translate(548.33 302.33)">4</text><text class="cls-3" transform="translate(293.33 302.33)">8</text><text class="cls-3" transform="translate(495.33 351.33)">5</text><text class="cls-3" transform="translate(348.33 351.33)">7</text><text class="cls-3" transform="translate(417.33 377.33)">6</text><text class="cls-3" transform="translate(574.33 230.33)">3</text><text class="cls-4" transform="translate(270.48 229.08)">9</text><circle class="cls-5" cx="427" cy="221" r="10"/><line class="cls-5" x1="372.64" y1="113.91" x2="426.36" y2="220.09"/><line class="cls-6" x1="376.31" y1="121.17" x2="426.36" y2="220.09"/><polygon class="cls-5" points="372.01 125.2 372.64 113.91 382.1 120.09 372.01 125.2"/><line class="cls-7" x1="559.25" y1="45.25" x2="521.59" y2="82.91"/><rect class="cls-2" x="530" width="254" height="51" rx="25.4"/><text class="cls-8" transform="translate(564 31.15)"><tspan class="cls-9">I</tspan><tspan x="5.6" y="0">t</tspan><tspan class="cls-10" x="13.38" y="0">’</tspan><tspan x="17.54" y="0">s 5 minu</tspan><tspan class="cls-9" x="103.66" y="0">t</tspan><tspan x="111.29" y="0">es </tspan><tspan class="cls-1" x="140.89" y="0">past</tspan><tspan x="185.64" y="0" xml:space="preserve"> ... </tspan></text><line class="cls-7" x1="612.25" y1="114.25" x2="574.59" y2="151.91"/><rect class="cls-2" x="583" y="69" width="262" height="51" rx="25.5"/><text class="cls-8" transform="translate(617 100.15)"><tspan class="cls-9">I</tspan><tspan x="5.6" y="0">t</tspan><tspan class="cls-10" x="13.38" y="0">’</tspan><tspan x="17.54" y="0">s 10 minu</tspan><tspan class="cls-9" x="115.08" y="0">t</tspan><tspan x="122.71" y="0">es </tspan><tspan class="cls-1" x="152.31" y="0">past</tspan><tspan x="197.06" y="0" xml:space="preserve"> ...</tspan></text><line class="cls-7" x1="602.25" y1="324.91" x2="564.59" y2="287.25"/><rect class="cls-2" x="583" y="303" width="262" height="51" rx="25.5"/><text class="cls-8" transform="translate(617 334.15)"><tspan class="cls-9">I</tspan><tspan x="5.6" y="0">t</tspan><tspan class="cls-10" x="13.38" y="0">’</tspan><tspan x="17.54" y="0">s 20 minu</tspan><tspan class="cls-9" x="116.96" y="0">t</tspan><tspan x="124.59" y="0">es </tspan><tspan class="cls-1" x="154.19" y="0">past</tspan><tspan x="198.94" y="0" xml:space="preserve"> ...</tspan></text><line class="cls-7" x1="552.25" y1="395.91" x2="514.59" y2="358.25"/><rect class="cls-2" x="533" y="374" width="262" height="51" rx="25.5"/><text class="cls-8" transform="translate(567 405.15)"><tspan class="cls-9">I</tspan><tspan x="5.6" y="0">t</tspan><tspan class="cls-10" x="13.38" y="0">’</tspan><tspan x="17.54" y="0">s 25 minu</tspan><tspan class="cls-9" x="115.5" y="0">t</tspan><tspan x="123.13" y="0">es </tspan><tspan class="cls-1" x="152.73" y="0">past</tspan><tspan x="197.48" y="0" xml:space="preserve"> ...</tspan></text><line class="cls-7" x1="310.59" y1="392.91" x2="348.25" y2="355.25"/><rect class="cls-2" x="67" y="374" width="262" height="51" rx="25.5"/><text class="cls-8" transform="translate(95 405.15)"><tspan class="cls-9">I</tspan><tspan x="5.6" y="0">t</tspan><tspan class="cls-10" x="13.38" y="0">’</tspan><tspan x="17.54" y="0">s 25 minu</tspan><tspan class="cls-9" x="115.5" y="0">t</tspan><tspan x="123.13" y="0">es </tspan><tspan class="cls-11" x="152.73" y="0">t</tspan><tspan class="cls-1" x="160.36" y="0">o</tspan><tspan x="173.61" y="0" xml:space="preserve"> ...</tspan></text><line class="cls-7" x1="249.69" y1="332.47" x2="293.15" y2="301.69"/><rect class="cls-2" x="9" y="307" width="262" height="51" rx="25.5"/><text class="cls-8" transform="translate(37 338.15)"><tspan class="cls-9">I</tspan><tspan x="5.6" y="0">t</tspan><tspan class="cls-10" x="13.38" y="0">’</tspan><tspan x="17.54" y="0">s 20 minu</tspan><tspan class="cls-9" x="116.96" y="0">t</tspan><tspan x="124.59" y="0">es </tspan><tspan class="cls-11" x="154.19" y="0">t</tspan><tspan class="cls-1" x="161.82" y="0">o</tspan><tspan x="175.07" y="0" xml:space="preserve"> ...</tspan></text><line class="cls-7" x1="243.71" y1="113.13" x2="281.13" y2="151.03"/><rect class="cls-2" y="95" width="262" height="51" rx="25.5"/><text class="cls-8" transform="translate(28 126.15)"><tspan class="cls-9">I</tspan><tspan x="5.6" y="0">t</tspan><tspan class="cls-10" x="13.38" y="0">’</tspan><tspan x="17.54" y="0">s 10 minu</tspan><tspan class="cls-9" x="115.08" y="0">t</tspan><tspan x="122.71" y="0">es </tspan><tspan class="cls-11" x="152.31" y="0">t</tspan><tspan class="cls-1" x="159.94" y="0">o</tspan><tspan x="173.19" y="0" xml:space="preserve"> ...</tspan></text><line class="cls-7" x1="291.71" y1="44.13" x2="329.13" y2="82.03"/><rect class="cls-2" x="48" y="26" width="262" height="51" rx="25.5"/><text class="cls-8" transform="translate(76 57.15)"><tspan class="cls-9">I</tspan><tspan x="5.6" y="0">t</tspan><tspan class="cls-10" x="13.38" y="0">’</tspan><tspan x="17.54" y="0">s 5 minu</tspan><tspan class="cls-9" x="103.66" y="0">t</tspan><tspan x="111.29" y="0">es </tspan><tspan class="cls-11" x="140.89" y="0">t</tspan><tspan class="cls-1" x="148.52" y="0">o</tspan><tspan x="161.77" y="0" xml:space="preserve"> ...</tspan></text><line class="cls-5" x1="510" y1="222" x2="426" y2="222"/><line class="cls-6" x1="501.86" y1="222" x2="426" y2="222"/><polygon class="cls-5" points="500.21 216.35 510 222 500.21 227.65 500.21 216.35"/></g></g></svg>