<?xml version="1.0" encoding="utf-8"?>
<!-- Generator: Adobe Illustrator 19.0.0, SVG Export Plug-In . SVG Version: 6.00 Build 0)  -->
<svg version="1.0" id="Layer_1" xmlns="http://www.w3.org/2000/svg" xmlns:xlink="http://www.w3.org/1999/xlink" x="0px" y="0px"
	 viewBox="0 0 262.2 127" style="enable-background:new 0 0 262.2 127;" xml:space="preserve">
<style type="text/css">
	.st0{fill-rule:evenodd;clip-rule:evenodd;}
	.st1{fill-rule:evenodd;clip-rule:evenodd;fill:#DA2520;}
	.st2{fill:#D21029;}
</style>
<g>
	<path class="st0" d="M82.1,7.1c0,0.7,0,1.2-0.5,1.7c-0.5,0.5-1.4,0.7-2.1,0.7c-0.7,0-1.7-0.2-2.1-0.9c-0.3-0.5-0.3-1.4-0.3-2V3
		c0-0.8-0.1-1.1,0.9-1.1c0.1,0,0.3,0,0.3-0.2c0-0.1-0.1-0.2-0.2-0.2c-0.5,0-1,0.1-1.5,0.1c-0.5,0-1-0.1-1.5-0.1
		c-0.1,0-0.2,0-0.2,0.2c0,0.2,0.2,0.2,0.3,0.2c0.9,0,0.9,0.2,0.9,1.1v4.1c0,0.9,0,1.6,0.8,2.2c0.7,0.5,1.7,0.6,2.4,0.6
		c0.9,0,1.8-0.1,2.5-0.7c0.7-0.6,0.7-1.2,0.7-2.1V3c0-0.6-0.1-1.1,0.7-1.1c0.1,0,0.4,0,0.4-0.2c0-0.2-0.2-0.2-0.3-0.2
		c-0.3,0-0.7,0.1-1,0.1c-0.4,0-0.8-0.1-1.2-0.1c-0.1,0-0.3,0-0.3,0.2c0,0.2,0.2,0.2,0.4,0.2c0.3,0,0.6,0,0.8,0.3
		c0.2,0.3,0.1,1,0.1,1.3V7.1z"/>
	<path class="st0" d="M84.4,8.4c0,0.6,0.1,1-0.6,1.1c-0.1,0-0.4,0-0.4,0.2c0,0.1,0.1,0.1,0.2,0.1c0.4,0,0.8-0.1,1.2-0.1
		c0.4,0,0.8,0.1,1.2,0.1c0.1,0,0.2,0,0.2-0.1c0-0.2-0.2-0.2-0.4-0.2c-0.7-0.1-0.6-0.5-0.6-1.1V6.2c0-0.5,0-0.8,0.4-1.2
		c0.3-0.4,0.8-0.6,1.3-0.6c0.5,0,1,0.2,1.2,0.6c0.2,0.4,0.2,0.9,0.2,1.3v2.1c0,0.6,0.1,1-0.6,1.1c-0.1,0-0.4,0-0.4,0.2
		c0,0.1,0.1,0.1,0.2,0.1c0.4,0,0.8-0.1,1.2-0.1c0.4,0,0.8,0.1,1.2,0.1c0.1,0,0.2,0,0.2-0.1c0-0.2-0.2-0.2-0.4-0.2
		c-0.7-0.1-0.6-0.5-0.6-1.1V6.3c0-0.6,0-1.3-0.4-1.8c-0.4-0.5-0.9-0.7-1.5-0.7c-1.2,0-1.9,1.1-2.1,1.1V4c0-0.1,0-0.2-0.1-0.2
		c-0.1,0-0.2,0.1-0.2,0.2c-0.2,0.2-0.8,0.6-1.1,0.7c-0.1,0-0.3,0.1-0.3,0.2c0,0.1,0.1,0.1,0.2,0.1h0.2c0.1,0,0.3,0,0.4,0.1
		c0.1,0.1,0.1,0.7,0.1,0.8V8.4z"/>
	<path class="st0" d="M92.4,2.6C92.8,2.6,93,2.3,93,2c0-0.3-0.2-0.6-0.5-0.6c-0.4,0-0.6,0.3-0.6,0.7C91.9,2.3,92.1,2.6,92.4,2.6z
		 M92.9,4c0-0.1,0-0.2-0.1-0.2c-0.1,0-0.2,0.1-0.2,0.2c-0.2,0.2-0.8,0.6-1.1,0.7c-0.1,0-0.3,0.1-0.3,0.2c0,0.1,0.1,0.1,0.2,0.1h0.2
		c0.1,0,0.3,0,0.4,0.1C92,5.2,92,5.7,92,5.9v2.5c0,0.6,0.1,1-0.6,1.1c-0.1,0-0.4,0-0.4,0.2c0,0.1,0.1,0.1,0.2,0.1
		c0.4,0,0.8-0.1,1.2-0.1c0.4,0,0.8,0.1,1.2,0.1c0.1,0,0.2,0,0.2-0.1c0-0.2-0.2-0.2-0.4-0.2c-0.7-0.1-0.6-0.5-0.6-1.1V4z"/>
	<path class="st0" d="M97.3,8.5L96,5.2c-0.1-0.2-0.2-0.5-0.2-0.7c0-0.2,0.2-0.4,0.5-0.4c0.1,0,0.4,0,0.4-0.1c0-0.2-0.1-0.1-0.2-0.1
		H94c-0.1,0-0.2,0-0.2,0.1c0,0.1,0.1,0.1,0.2,0.1c0.5,0,0.6,0.3,0.8,0.8l1.9,4.6l0.1,0.2c0,0.1,0.1,0.1,0.1,0.1
		c0.1,0,0.2-0.3,0.2-0.3l1.9-4.1c0.2-0.5,0.5-1.2,1.1-1.3c0.1,0,0.3,0,0.3-0.2c0-0.1-0.1-0.1-0.2-0.1h-1.9c-0.1,0-0.2,0-0.2,0.1
		c0,0.1,0.2,0.1,0.4,0.1c0.2,0,0.5,0.1,0.5,0.4c0,0.2-0.1,0.4-0.2,0.6L97.3,8.5z"/>
	<path class="st0" d="M101.5,5.8c-0.1,0-0.4,0-0.4-0.2c0-0.2,0.2-0.6,0.3-0.8c0.4-0.5,1-0.9,1.7-0.9c0.4,0,0.9,0.1,1.1,0.4
		c0.2,0.2,0.3,0.5,0.3,0.8c0,0.3-0.2,0.5-0.5,0.5c-0.4,0.1-1.1,0.1-1.5,0.1H101.5z M105.5,6.1c0.1,0,0.2-0.1,0.2-0.2
		c0-0.4-0.2-1-0.5-1.3c-0.5-0.6-1.2-0.8-1.9-0.8c-0.9,0-1.7,0.3-2.4,0.9c-0.7,0.6-0.9,1.3-0.9,2.2c0,1.6,1.3,3,3,3
		c0.8,0,1.5-0.2,2.1-0.7c0.1-0.1,0.5-0.4,0.5-0.6c0-0.1,0-0.1-0.1-0.1c-0.2,0-0.7,0.8-1.9,0.8c-1.6,0-2.5-1.3-2.5-2.7
		c0-0.4,0.1-0.4,0.5-0.4H105.5z"/>
	<path class="st0" d="M106.9,8.4c0,0.6,0.1,1-0.6,1.1c-0.1,0-0.4,0-0.4,0.2c0,0.1,0.1,0.1,0.2,0.1c0.4,0,0.8-0.1,1.2-0.1
		c0.4,0,0.8,0.1,1.2,0.1c0.1,0,0.2,0,0.2-0.1c0-0.2-0.2-0.2-0.4-0.2c-0.7-0.1-0.6-0.5-0.6-1.1V6.3c0-0.5,0-0.9,0.3-1.3
		c0.1-0.2,0.4-0.5,0.7-0.5c0.4,0,0.4,0.5,0.8,0.5c0.3,0,0.5-0.2,0.5-0.5c0-0.4-0.4-0.6-0.7-0.6c-0.9,0-1.4,1-1.5,1
		c-0.1,0-0.1-0.2-0.1-0.3V4c0-0.1,0-0.2-0.1-0.2c-0.1,0-0.2,0.1-0.2,0.2c-0.2,0.2-0.8,0.6-1.1,0.7c-0.1,0-0.3,0.1-0.3,0.2
		c0,0.1,0.1,0.1,0.2,0.1h0.2c0.1,0,0.3,0,0.4,0.1c0.1,0.1,0.1,0.7,0.1,0.8V8.4z"/>
	<path class="st0" d="M115.5,4.4c0.1-0.1,0.2-0.3,0.2-0.4c0-0.1-0.2-0.1-0.2-0.1h-3.2c-0.3,0-0.7,0-0.7-0.4c0-0.1,0-0.2-0.1-0.2
		c-0.1,0-0.2,0.3-0.2,0.4l-0.3,1c0,0-0.1,0.2-0.1,0.3c0,0.1,0.1,0.1,0.1,0.1c0.1,0,0.2-0.1,0.2-0.2c0.1-0.2,0.4-0.4,0.7-0.5
		c0.3-0.1,0.7-0.1,1-0.1h1.3c0.1,0,0.2,0,0.2,0.1c0,0.1-0.1,0.2-0.2,0.3l-3.5,4.6c0,0.1-0.2,0.2-0.2,0.3c0,0.2,0.4,0.1,0.5,0.1h4.4
		c0.3,0,0.2-0.3,0.2-0.5l0-0.6c0-0.1,0.1-0.5-0.1-0.5c-0.1,0-0.2,0.2-0.2,0.3c-0.1,0.3-0.3,0.7-0.6,0.8c-0.3,0.2-0.9,0.2-1.3,0.2
		h-1.1c-0.1,0-0.5,0-0.5-0.1c0-0.1,0.2-0.3,0.2-0.3L115.5,4.4z"/>
	<path class="st0" d="M119.7,6.6c0,0,0.1-0.1,0.1-0.1c0.1,0,0.1,0.3,0.1,0.4v0.8c0,0.4,0,0.7-0.3,1c-0.3,0.3-0.8,0.5-1.2,0.5
		c-0.5,0-0.9-0.3-0.9-0.8c0-0.6,0.5-1,1-1.2L119.7,6.6z M118.4,7c-0.7,0.3-1.9,0.9-1.9,1.8c0,0.7,0.6,1,1.2,1c1.1,0,2-1,2.1-1
		c0.2,0,0.2,0.9,0.9,0.9c0.3,0,0.7-0.2,0.9-0.4c0.1-0.1,0.3-0.3,0.3-0.4c0-0.1,0-0.1-0.1-0.1c-0.1,0-0.3,0.3-0.6,0.3
		c-0.5,0-0.5-0.8-0.5-1V5.1c0-0.4,0.1-0.7-0.3-1c-0.3-0.3-0.8-0.3-1.2-0.3c-0.8,0-1.7,0.4-2.3,0.9c-0.2,0.2-0.5,0.6-0.5,0.9
		c0,0.1,0.1,0.2,0.2,0.2c0.2,0,0.4-0.1,0.6-0.2c0.2-0.1,0.3-0.3,0.4-0.5c0.3-0.7,0.7-1.1,1.5-1.1c0.8,0,0.8,0.5,0.8,1.2v0.6
		c0,0.5,0,0.5-0.5,0.7L118.4,7z"/>
	<path class="st0" d="M129.5,5.1c0.1-0.3,0.2-0.6,0.2-0.9c0-0.3-0.2-0.5-0.5-0.5c-0.3,0-0.8,0.3-1,0.5c-0.4,0.3-0.6,0.5-0.9,1
		c0,0.1-0.2,0.2-0.2,0.3c0,0.1,0,0.1,0.1,0.1c0.1,0,0.1-0.1,0.2-0.1c0.2-0.3,0.9-1.1,1.2-1.1c0.1,0,0.2,0.1,0.2,0.2
		c0,0.1-0.1,0.4-0.2,0.6l-0.9,2.3c-0.1,0.3-0.4,0.9-0.4,1.3c0,0.8,0.4,1.1,1.2,1.1c2.1,0,4.3-3.4,4.3-5.3c0-0.3-0.1-0.9-0.5-0.9
		c-0.3,0-0.4,0.3-0.4,0.6c0,0.3,0.1,0.4,0.2,0.6c0.1,0.2,0.2,0.3,0.2,0.5c0,1.4-1.9,4.1-3.4,4.1c-0.4,0-0.7-0.3-0.7-0.7
		c0-0.3,0.1-0.7,0.3-1L129.5,5.1z"/>
	<path class="st0" d="M141.9,8.3c0-0.1,0.1-0.2,0.1-0.4c0-0.1-0.1-0.1-0.1-0.1c-0.1,0-0.2,0.2-0.3,0.3c-0.6,1.3-1.6,1.2-2.9,1.2
		c-0.2,0-0.5,0.1-0.5-0.3c0-0.1,0.1-0.3,0.1-0.4l1.8-5.8c0.2-0.6,0.3-1,1.2-1c0.1,0,0.4,0,0.4-0.2c0-0.1-0.1-0.2-0.2-0.2
		c-0.5,0-1,0.1-1.5,0.1c-0.4,0-0.8,0-1.2-0.1c-0.1,0-0.4-0.1-0.4,0.1c0,0.2,0.2,0.2,0.3,0.2c0.3,0,0.6-0.1,0.6,0.3
		c0,0.2-0.1,0.5-0.2,0.6l-1.7,5.5c-0.1,0.3-0.2,0.7-0.4,0.9c-0.2,0.1-0.5,0.1-0.7,0.1c-0.1,0-0.3,0-0.3,0.2c0,0.2,0.5,0.1,0.7,0.1
		h4.5c0.5,0,0.5,0,0.6-0.4L141.9,8.3z"/>
	<path class="st0" d="M145.4,5.1c0.1-0.2,0.2-0.7,0.2-0.9c0-0.3-0.1-0.5-0.4-0.5c-0.5,0-1.2,0.6-1.5,1c-0.1,0.1-0.7,0.7-0.7,0.8
		c0,0.1,0,0.1,0.1,0.1c0.2,0,0.9-1.1,1.3-1.1c0.1,0,0.2,0.1,0.2,0.2s-0.1,0.3-0.1,0.4l-1.9,6.3c-0.1,0.4-0.3,1.1-0.8,1.1
		c-0.5,0-0.5-0.8-1-0.8c-0.2,0-0.4,0.2-0.4,0.5c0,0.5,0.6,0.7,1,0.7c0.6,0,1.2-0.3,1.6-0.7c0.5-0.5,0.8-1.3,1-2L145.4,5.1z M146.3,2
		c0-0.2-0.2-0.5-0.4-0.5c-0.4,0-0.7,0.5-0.7,0.8c0,0.3,0.1,0.5,0.4,0.5C146,2.9,146.3,2.4,146.3,2z"/>
	<path class="st0" d="M151.3,6.3l-0.6,1.9c-0.1,0.3-0.2,0.8-0.2,1.2c0,0.2,0.1,0.5,0.4,0.5c0.6,0,1.4-0.7,1.8-1.1
		c0.1-0.1,0.7-0.8,0.7-1c0-0.1,0-0.1-0.1-0.1c-0.1,0-0.1,0.1-0.2,0.1c-0.2,0.4-0.9,1.3-1.4,1.3c-0.1,0-0.2-0.1-0.2-0.3
		c0-0.2,0.1-0.4,0.1-0.5l1.3-4.1c0-0.1,0.1-0.2,0.1-0.3c0-0.2-0.3-0.1-0.4-0.1c-0.5,0-0.4,0.1-0.5,0.5c-0.4,1.3-1,2.5-1.9,3.5
		c-0.4,0.4-1.5,1.5-2.1,1.5c-0.2,0-0.4-0.1-0.4-0.4c0-0.2,0.1-0.5,0.1-0.6l1-3.1c0.1-0.3,0.2-0.6,0.2-0.9s-0.1-0.6-0.4-0.6
		c-0.5,0-1.1,0.6-1.4,0.9c-0.1,0.1-0.7,0.9-0.7,1.1c0,0.1,0,0.1,0.1,0.1c0.1,0,0.2-0.2,0.3-0.3c0.2-0.2,0.8-1,1.1-1
		c0.1,0,0.2,0.1,0.2,0.2c0,0.1-0.1,0.4-0.1,0.5l-1,3c-0.1,0.3-0.2,0.7-0.2,1.1c0,0.4,0.1,0.7,0.6,0.7c0.8,0,1.7-0.7,2.2-1.2
		c0.8-0.7,1.2-1.3,1.8-2.2L151.3,6.3z"/>
	<path class="st0" d="M159.5,5.4c0,1.6-1.6,4.2-3.3,4.2c-0.5,0-1-0.3-1-0.8c0-1.2,2.2-4.5,3.6-4.5C159.4,4.3,159.5,5,159.5,5.4z
		 M154.8,6.8c-0.1,0.5-0.3,1-0.3,1.5c0,1,0.7,1.5,1.7,1.5c2.2,0,4.3-2.2,4.3-4.4c0-0.8-0.4-1.8-1.3-1.8c-1.3,0-2.9,1.9-3.4,3l1.8-6
		c0-0.1,0-0.1-0.1-0.1c-0.1,0-0.1,0-0.1,0.1c-0.5,0.3-0.8,0.3-1.3,0.3c-0.1,0-0.4,0-0.4,0.2c0,0.2,0.4,0.1,0.5,0.1
		c0.2,0,0.4,0.1,0.4,0.3c0,0.2-0.1,0.5-0.2,0.7L154.8,6.8z"/>
	<path class="st0" d="M161.3,8.2C161.2,8.5,161,9,161,9.3c0,0.3,0.1,0.5,0.4,0.5c0.5,0,1.3-0.8,1.6-1.1c0.1-0.2,0.5-0.7,0.5-0.9
		c0-0.1,0-0.1-0.1-0.1c-0.1,0-0.2,0.1-0.2,0.2c-0.2,0.3-0.8,1.2-1.1,1.2c-0.1,0-0.2-0.1-0.2-0.2c0-0.2,0.1-0.4,0.1-0.5l2.2-7.3
		c0-0.1,0.1-0.2,0.1-0.3s0-0.1-0.1-0.1c0,0-0.1,0-0.1,0.1c-0.4,0.3-1,0.5-1.5,0.5c-0.1,0-0.4,0-0.4,0.2c0,0.1,0.1,0.1,0.2,0.1l0.2,0
		c0.2,0,0.5,0,0.5,0.3c0,0.1-0.1,0.4-0.1,0.5L161.3,8.2z"/>
	<path class="st0" d="M167,5.1c0.1-0.2,0.2-0.7,0.2-0.9c0-0.3-0.1-0.5-0.4-0.5c-0.5,0-1.2,0.6-1.5,1c-0.1,0.1-0.7,0.7-0.7,0.8
		c0,0.1,0,0.1,0.1,0.1c0.2,0,0.9-1.1,1.3-1.1c0.1,0,0.2,0.1,0.2,0.2s-0.1,0.3-0.1,0.4l-1.9,6.3c-0.1,0.4-0.3,1.1-0.8,1.1
		c-0.5,0-0.5-0.8-1-0.8c-0.2,0-0.4,0.2-0.4,0.5c0,0.5,0.6,0.7,1,0.7c0.6,0,1.2-0.3,1.6-0.7c0.5-0.5,0.8-1.3,1-2L167,5.1z M168,2
		c0-0.2-0.2-0.5-0.4-0.5c-0.4,0-0.7,0.5-0.7,0.8c0,0.3,0.1,0.5,0.4,0.5C167.7,2.9,168,2.4,168,2z"/>
	<path class="st0" d="M173.2,4.6c0,0.6-1.1,2.1-1.4,2.6c-0.5,0.6-1.6,2-2.4,2c-0.4,0-0.6-0.4-0.6-0.8c0-0.8,0.7-2.1,1.2-2.8
		c0.5-0.7,1.5-1.6,2.4-1.6C172.8,3.9,173.2,4.1,173.2,4.6z M173.4,4.2c-0.3-0.4-0.6-0.5-1-0.5c-1.2,0-2.4,0.7-3.2,1.6
		c-0.7,0.8-1.5,2.1-1.5,3.2c0,0.6,0.3,1.3,1,1.3c1.5,0,3.3-2.5,4-3.7L172,8.7c-0.1,0.2-0.1,0.5-0.1,0.7c0,0.2,0.1,0.4,0.4,0.4
		c0.5,0,1.2-0.6,1.6-1c0.2-0.2,0.7-0.8,0.7-1.1c0-0.1,0-0.1-0.1-0.1c-0.1,0-0.2,0.2-0.2,0.2C174,8.2,173.3,9,173,9
		c-0.1,0-0.1-0.1-0.1-0.2c0-0.1,0.1-0.3,0.1-0.4l1.3-4.4c0-0.1,0.1-0.2,0.1-0.3c0-0.2-0.4-0.1-0.4-0.1c-0.4,0-0.4,0.1-0.5,0.5
		L173.4,4.2z"/>
	<path class="st0" d="M181.9,5.4c0.1-0.3,0.2-0.7,0.2-1c0-0.5-0.4-0.7-0.8-0.7c-1.7,0-3.2,2.3-3.9,3.6l0,0l0.6-1.8
		c0.1-0.4,0.2-0.8,0.2-1.2c0-0.4-0.1-0.6-0.5-0.6c-0.5,0-1.2,0.7-1.6,1c-0.1,0.1-0.6,0.7-0.6,0.9c0,0.1,0.1,0.1,0.1,0.1
		c0.1,0,0.1-0.1,0.1-0.1c0.2-0.3,0.9-1.2,1.2-1.2c0.2,0,0.3,0.1,0.3,0.3c0,0.2-0.1,0.5-0.2,0.7l-1.2,3.8c0,0.1-0.1,0.2-0.1,0.3
		c0,0.2,0.3,0.2,0.4,0.2c0.4,0,0.4-0.1,0.5-0.4c0.3-1,1.3-2.8,2-3.6c0.4-0.5,1.2-1.4,1.9-1.4c0.3,0,0.5,0.2,0.5,0.5
		c0,0.2-0.1,0.5-0.2,0.7L180,7.9c-0.2,0.4-0.4,1-0.4,1.4c0,0.4,0.2,0.6,0.6,0.6c0.5,0,1.3-0.8,1.7-1.1c0.1-0.1,0.6-0.7,0.6-0.9
		c0-0.1-0.1-0.1-0.1-0.1c-0.1,0-0.1,0.1-0.2,0.1c-0.2,0.3-1,1.2-1.4,1.2c-0.2,0-0.2-0.1-0.2-0.3c0-0.2,0.1-0.5,0.2-0.7L181.9,5.4z"
		/>
	<path class="st0" d="M186.8,2c0-0.2-0.2-0.5-0.4-0.5c-0.4,0-0.7,0.5-0.7,0.8c0,0.2,0.1,0.5,0.4,0.5C186.5,2.9,186.8,2.4,186.8,2z
		 M184.1,8.2c-0.1,0.3-0.2,0.8-0.2,1.2c0,0.3,0.1,0.5,0.4,0.5c0.5,0,1.3-0.8,1.6-1.2c0.1-0.2,0.5-0.7,0.5-0.9c0-0.1,0-0.1-0.1-0.1
		c-0.1,0-0.1,0.1-0.2,0.2C186,8.1,185.3,9,185,9c-0.1,0-0.2-0.1-0.2-0.2c0-0.2,0.1-0.4,0.1-0.5l1-3.1c0.1-0.2,0.2-0.7,0.2-1
		c0-0.3-0.1-0.5-0.4-0.5c-0.5,0-1.2,0.6-1.5,1c-0.1,0.1-0.6,0.7-0.6,0.8c0,0.1,0,0.1,0.1,0.1c0.2,0,0.9-1.2,1.3-1.2
		c0.1,0,0.2,0.1,0.2,0.2c0,0.1-0.1,0.3-0.1,0.4L184.1,8.2z"/>
</g>
<g>
	<rect x="112.4" y="88.8" class="st1" width="37" height="37"/>
	<path class="st0" d="M124.7,87.6l-12.3,0v-7.1h0.2v6.8h12V87.6z M127.4,87.6h-1.9v-0.3h1.9V87.6z M131.5,87.6h-3.3v-0.3h3.3V87.6z
		 M134.6,87.6l-2.4,0v-0.3h2.4V87.6z M135.9,87.6h-0.5v-0.3h0.5V87.6z M149.4,87.6h-12.7v-0.3l12.3,0v-6.4h0.4L149.4,87.6z
		 M149,80.1l0-8.1h0.4v8.1H149z M137.9,71.2h10.9v0.3L137.9,71.2z M130.1,72.3c0.1-0.2,0.5-0.4,0.9-0.4c0.5,0,0.9,0.4,0.9,0.5l0,2.3
		h-0.4l0-2.2c0-0.1-0.3-0.4-0.7-0.4C130.5,72.1,130.2,72.2,130.1,72.3z M129.8,67.5l1.1-0.8l0.8,0.5c0.2,0.2,0.4,0.4,0.4,0.8v1.3
		h-0.3v-1.3c0-0.3-0.1-0.5-0.3-0.6l-0.7-0.5L129.8,67.5z M131.7,60.5l0-1.4l-1.8-0.3h2.2l0,1.7H131.7z M130.8,57.2v-6.6h0.2v6.6
		H130.8z M129.7,60.8h2.4l1.8,1.5h-0.5l-1.6-1.3L129.7,60.8z M127.5,62.7h6.5l1.2,5.1l-0.3,0l-1.2-4.8L127.5,62.7z M112.4,79.1v-7.3
		h0.2v7.3H112.4z M136.5,86.8h-0.4v-6h0.4V86.8z M125.8,80.1h10.1v0.3L125.8,80.1z M147.5,68.2l-1.1-3.2l-10.6-0.3h10.9l1.2,3.4
		L147.5,68.2z M128.6,67.1l2.3-1.5l2.4,1.5v2.4h-0.4v-2.3l-2-1.4L128.6,67.1z M130.8,63.6c0-0.1,0.1-0.2,0.2-0.2
		c0.1,0,0.2,0.1,0.2,0.2c0,0.1-0.1,0.2-0.2,0.2C130.8,63.8,130.8,63.7,130.8,63.6z M130.5,65.2l0.1-0.3l0.6,0l-0.2-0.8l0.5,1.1
		H130.5z M128.5,65c0-0.1,0.1-0.2,0.2-0.2s0.2,0.1,0.2,0.2c0,0.1-0.1,0.2-0.2,0.2S128.5,65,128.5,65z M128.3,66.2l0-0.2l0.5,0
		l-0.1-0.6l0.4,0.9H128.3z M115.3,74.7h-0.3l0-1.8l-0.6-0.1h1V74.7z M124.9,79.1v-7.1h0.4v7.1L124.9,79.1z M113.8,71.2h10.9v0.3
		L113.8,71.2z M124.9,86.8l0-6h0.4v6H124.9z M113.8,80.1h10.9v0.3L113.8,80.1z M114.2,68.4l1.1-3.6h11.1v0.3h-10.9L114.2,68.4z
		 M148.4,80.5l-11.5-0.4h11.5L148.4,80.5z M118.2,74.7h-0.3l0-1.8l-0.6-0.1h1V74.7z M121,74.7h-0.3l0-1.8l-0.6-0.1h1V74.7z
		 M123.8,74.7h-0.3l0-1.8l-0.6-0.1h1V74.7z M127.8,74.7h-0.3v-1.8l-0.6-0.1h1V74.7z M135,74.7h-0.3l0-1.8l-0.6-0.1h1V74.7z
		 M138.7,74.7h-0.3l0-1.8l-0.6-0.1h1V74.7z M141.6,74.7h-0.3l0-1.8l-0.6-0.1h1V74.7z M144.4,74.7H144l0-1.8l-0.6-0.1h1V74.7z
		 M147.2,74.7h-0.3l0-1.8l-0.6-0.1h1V74.7z M115.3,83.4l-0.3,0l0-1.8l-0.6-0.1h1V83.4z M118.2,83.4l-0.3,0l0-1.8l-0.6-0.1h1V83.4z
		 M121,83.4l-0.3,0l0-1.8l-0.6-0.1h1V83.4z M123.8,83.4l-0.3,0l0-1.8l-0.6-0.1h1V83.4z M138.7,83.4l-0.3,0l0-1.8l-0.6-0.1h1V83.4z
		 M141.6,83.4l-0.3,0l0-1.8l-0.6-0.1h1V83.4z M144.4,83.4l-0.3,0l0-1.8l-0.6-0.1h1V83.4z M147.2,83.4l-0.3,0l0-1.8l-0.6-0.1h1V83.4z
		 M115.3,86.5h-0.3l0-1.3l-0.6-0.1h1V86.5z M118.2,86.5h-0.3l0-1.3l-0.6-0.1h1V86.5z M121,86.5h-0.3l0-1.3l-0.6-0.1h1V86.5z
		 M123.8,86.5h-0.3l0-1.3l-0.6-0.1h1V86.5z M138.7,86.5h-0.3l0-1.3l-0.6-0.1h1V86.5z M141.6,86.5h-0.3l0-1.3l-0.6-0.1h1V86.5z
		 M144.4,86.5H144l0-1.3l-0.6-0.1h1V86.5z M147.2,86.5h-0.3l0-1.3l-0.6-0.1h1V86.5z M126.3,70.4l-0.3,0v-1.9l-0.6-0.2h0.9V70.4z
		 M126.3,67.8h-0.8v-0.3h0.5l-0.2-1.4L126.3,67.8z M136.5,70.4l-0.3,0v-1.9l-0.6-0.2h0.9V70.4z M136.5,67.8h-0.8v-0.3h0.5l-0.2-1.4
		L136.5,67.8z M149.4,70.7h-0.3v-2.2l-0.9-0.3h1.2V70.7z M149.4,67.7h-1.1v-0.3h0.7l-0.3-2.1L149.4,67.7z M113.5,70.7h-0.3l0-2.2
		l-0.9-0.3h1.2V70.7z M113.5,67.7h-1.1v-0.3h0.7l-0.3-2.1L113.5,67.7z M133,65c0-0.1,0.1-0.2,0.2-0.2s0.2,0.1,0.2,0.2
		c0,0.1-0.1,0.2-0.2,0.2S133,65,133,65z M132.9,66.2l0-0.2l0.5,0l-0.1-0.6l0.4,0.9H132.9z M132.1,86.8h-0.4l0-4.3
		c0-0.6-0.4-1.1-1-1.1c-0.2,0-0.5,0.1-0.6,0.2c0.2-0.3,0.5-0.5,0.9-0.5c0.6,0,1.2,0.5,1.2,1.2L132.1,86.8z M135.2,86.8h-0.4l0-4.1
		c0-0.5-0.3-0.8-0.7-0.8c-0.2,0-0.4,0.1-0.5,0.2c0.2-0.2,0.4-0.4,0.7-0.4c0.5,0,0.8,0.4,0.8,0.9L135.2,86.8z M128,86.8h-0.4l0-4.1
		c0-0.5-0.3-0.8-0.7-0.8c-0.2,0-0.4,0.1-0.5,0.2c0.2-0.2,0.4-0.4,0.7-0.4c0.5,0,0.8,0.4,0.8,0.9L128,86.8z M135,79.1h-0.3l0-2.1
		c0-0.2-0.1-0.4-0.3-0.4c-0.1,0-0.2,0-0.2,0.1c0.1-0.1,0.2-0.2,0.4-0.2c0.3,0,0.5,0.2,0.5,0.5L135,79.1z M131.5,79.1l0-2.1
		c0-0.5-0.3-0.8-0.8-0.8c-0.3,0-0.5,0.2-0.7,0.4c0.1-0.4,0.5-0.6,0.9-0.6c0.5,0,0.9,0.4,0.9,0.9l0,2.2H131.5z M127.8,79.1h-0.3
		l0-2.1c0-0.2-0.1-0.4-0.3-0.4c-0.1,0-0.2,0-0.2,0.1c0.1-0.1,0.2-0.2,0.4-0.2c0.3,0,0.5,0.2,0.5,0.5L127.8,79.1z M138.7,79.1h-0.3
		l0-2.1c0-0.2-0.1-0.4-0.3-0.4c-0.1,0-0.2,0-0.2,0.1c0.1-0.1,0.2-0.2,0.4-0.2c0.3,0,0.5,0.2,0.5,0.5L138.7,79.1z M141.5,79.1h-0.3
		l0-2.1c0-0.2-0.1-0.4-0.3-0.4c-0.1,0-0.2,0-0.2,0.1c0.1-0.1,0.2-0.2,0.4-0.2c0.3,0,0.5,0.2,0.5,0.5L141.5,79.1z M144.4,79.1H144
		l0-2.1c0-0.2-0.1-0.4-0.3-0.4c-0.1,0-0.2,0-0.2,0.1c0.1-0.1,0.2-0.2,0.4-0.2c0.3,0,0.5,0.2,0.5,0.5L144.4,79.1z M147.1,79.1h-0.3
		l0-2.1c0-0.2-0.1-0.4-0.3-0.4c-0.1,0-0.2,0-0.2,0.1c0.1-0.1,0.2-0.2,0.4-0.2c0.3,0,0.5,0.2,0.5,0.5L147.1,79.1z M123.7,79.1h-0.3
		l0-2.1c0-0.2-0.1-0.4-0.3-0.4c-0.1,0-0.2,0-0.2,0.1c0.1-0.1,0.2-0.2,0.4-0.2c0.3,0,0.5,0.2,0.5,0.5L123.7,79.1z M121,79.1h-0.3
		l0-2.1c0-0.2-0.1-0.4-0.3-0.4c-0.1,0-0.2,0-0.2,0.1c0.1-0.1,0.2-0.2,0.4-0.2c0.3,0,0.5,0.2,0.5,0.5L121,79.1z M118.1,79.1h-0.3
		l0-2.1c0-0.2-0.1-0.4-0.3-0.4c-0.1,0-0.2,0-0.2,0.1c0.1-0.1,0.2-0.2,0.4-0.2c0.3,0,0.5,0.2,0.5,0.5L118.1,79.1z M115.3,79.1H115
		l0-2.1c0-0.2-0.1-0.4-0.3-0.4c-0.1,0-0.2,0-0.2,0.1c0.1-0.1,0.2-0.2,0.4-0.2c0.3,0,0.5,0.2,0.5,0.5L115.3,79.1z M123.1,67.3
		c0-0.1,0.1-0.1,0.1-0.1s0.1,0.1,0.1,0.1s-0.1,0.1-0.1,0.1S123.1,67.4,123.1,67.3z M123.6,69.6h-0.3v-1.4c0-0.2-0.2-0.4-0.3-0.4
		c-0.1,0-0.1,0-0.2,0c0.1-0.1,0.2-0.1,0.3-0.1c0.3,0,0.5,0.2,0.5,0.5V69.6z M120.7,67.3c0-0.1,0.1-0.1,0.1-0.1s0.1,0.1,0.1,0.1
		s-0.1,0.1-0.1,0.1S120.7,67.4,120.7,67.3z M121.2,69.6h-0.3v-1.4c0-0.2-0.2-0.4-0.3-0.4c-0.1,0-0.1,0-0.2,0
		c0.1-0.1,0.2-0.1,0.3-0.1c0.3,0,0.5,0.2,0.5,0.5V69.6z M118,67.3c0-0.1,0.1-0.1,0.1-0.1s0.1,0.1,0.1,0.1s-0.1,0.1-0.1,0.1
		S118,67.4,118,67.3z M118.6,69.6h-0.3v-1.4c0-0.2-0.2-0.4-0.3-0.4c-0.1,0-0.1,0-0.2,0c0.1-0.1,0.2-0.1,0.3-0.1
		c0.3,0,0.5,0.2,0.5,0.5V69.6z M119.7,66.6h-0.3v-0.7c0-0.2-0.1-0.3-0.3-0.3c-0.1,0-0.1,0-0.1,0c0.1-0.1,0.2-0.1,0.3-0.1
		c0.2,0,0.4,0.2,0.4,0.4V66.6z M122.5,66.6h-0.3v-0.7c0-0.2-0.1-0.3-0.3-0.3c-0.1,0-0.1,0-0.1,0c0.1-0.1,0.2-0.1,0.3-0.1
		c0.2,0,0.4,0.2,0.4,0.4V66.6z M139.8,66.6h-0.3v-0.7c0-0.2-0.1-0.3-0.3-0.3c-0.1,0-0.1,0-0.1,0c0.1-0.1,0.2-0.1,0.3-0.1
		c0.2,0,0.4,0.2,0.4,0.4V66.6z M138.4,67.3c0-0.1,0.1-0.1,0.1-0.1s0.1,0.1,0.1,0.1s-0.1,0.1-0.1,0.1S138.4,67.4,138.4,67.3z
		 M138.9,69.6h-0.3v-1.4c0-0.2-0.2-0.4-0.3-0.4c-0.1,0-0.1,0-0.2,0c0.1-0.1,0.2-0.1,0.3-0.1c0.3,0,0.5,0.2,0.5,0.5V69.6z
		 M142.6,66.6h-0.3v-0.7c0-0.2-0.1-0.3-0.3-0.3c-0.1,0-0.1,0-0.1,0c0.1-0.1,0.2-0.1,0.3-0.1c0.2,0,0.4,0.2,0.4,0.4V66.6z M141,67.3
		c0-0.1,0.1-0.1,0.1-0.1c0.1,0,0.1,0.1,0.1,0.1s-0.1,0.1-0.1,0.1C141.1,67.5,141,67.4,141,67.3z M141.6,69.6h-0.3v-1.4
		c0-0.2-0.2-0.4-0.3-0.4c-0.1,0-0.1,0-0.2,0c0.1-0.1,0.2-0.1,0.3-0.1c0.3,0,0.5,0.2,0.5,0.5V69.6z M143.4,67.3
		c0-0.1,0.1-0.1,0.1-0.1s0.1,0.1,0.1,0.1s-0.1,0.1-0.1,0.1S143.4,67.4,143.4,67.3z M144,69.6h-0.3v-1.4c0-0.2-0.2-0.4-0.3-0.4
		c-0.1,0-0.1,0-0.2,0c0.1-0.1,0.2-0.1,0.3-0.1c0.3,0,0.5,0.2,0.5,0.5V69.6z M114.8,59.1c0-0.1,0.1-0.2,0.2-0.2s0.2,0.1,0.2,0.2
		c0,0.1-0.1,0.2-0.2,0.2S114.8,59.2,114.8,59.1z M115.7,64.3h-0.3l0-1.8c0-0.5-0.3-0.8-0.7-0.8c-0.1,0-0.3,0-0.4,0.1
		c0.2-0.1,0.3-0.2,0.6-0.2c0.5,0,0.9,0.4,0.9,0.9V64.3z M115.6,61.2h-1.1l0-0.3l0.7,0l-0.2-1.4L115.6,61.2z M146.3,59.1
		c0-0.1,0.1-0.2,0.2-0.2c0.1,0,0.2,0.1,0.2,0.2c0,0.1-0.1,0.2-0.2,0.2C146.4,59.2,146.3,59.2,146.3,59.1z M147.3,64.3H147l0-1.8
		c0-0.5-0.3-0.8-0.7-0.8c-0.1,0-0.3,0-0.4,0.1c0.2-0.1,0.3-0.2,0.6-0.2c0.5,0,0.9,0.4,0.9,0.9V64.3z M147.1,61.2h-1.1l0-0.3l0.7,0
		l-0.2-1.4L147.1,61.2z M130.9,57.6c0.4,0,0.8,0.3,0.8,0.8h-0.3c-0.1-0.3-0.3-0.6-0.7-0.6c-0.3,0-0.6,0.2-0.7,0.5
		C130.1,57.9,130.5,57.6,130.9,57.6z M133.5,71h2.5v0.3l-2.6-0.1c-0.3-0.7-1.3-1.2-2.5-1.2c-1.1,0-2.1,0.5-2.5,1.1
		c0.3-0.7,1.4-1.2,2.6-1.2C132.1,69.9,133.1,70.4,133.5,71z M136.5,71.6v7.5h-0.4l0-7.5H136.5z"/>
</g>
<g>
	<path d="M4.3,19.8c-0.3,0-0.3,0-0.5,0.5c-0.2,0.4-0.6,1.3-0.6,1.7c0,0.5,0.7,0.5,0.9,0.5c0.1,0,0.3,0,0.3,0.2s-0.2,0.2-0.3,0.2
		c-0.2,0-0.9-0.1-1.1-0.1c-0.2,0-1.1,0.1-1.3,0.1c-0.1,0-0.2,0-0.2-0.2c0-0.2,0.2-0.2,0.4-0.2c0.6,0,0.7-0.1,1.1-1.2
		c0.8-2,1.5-4,2.3-6c0.1-0.2,0.1-0.3,0.2-0.5c0-0.1,0.1-0.3,0.2-0.3c0.1,0,0.2,0.2,0.2,0.2c0.9,2.2,1.8,4.4,2.6,6.5
		c0.2,0.5,0.4,1.3,1.1,1.3c0.1,0,0.4,0,0.4,0.2c0,0.1-0.1,0.1-0.2,0.1c-0.6,0-1.1-0.1-1.7-0.1c-0.5,0-1,0.1-1.4,0.1
		c-0.1,0-0.2,0-0.2-0.1c0-0.2,0.2-0.2,0.4-0.2c0.3,0,0.8,0,0.8-0.4c0-0.3-0.5-1.3-0.6-1.6c-0.3-0.7-0.2-0.7-0.8-0.7H4.3z M6.1,19.4
		c0.3,0,0.4,0,0.4-0.1c0-0.1-0.1-0.3-0.1-0.3c-0.3-0.7-0.6-1.5-0.9-2.2c0-0.1-0.1-0.4-0.2-0.4c-0.1,0-0.2,0.3-0.2,0.4
		c-0.3,0.8-0.6,1.6-0.9,2.4c0,0,0,0.1,0,0.2c0,0.1,0.1,0.1,0.3,0.1H6.1z"/>
	<path d="M11.1,15.1c0-0.6-0.2-0.6-0.6-0.6c-0.1,0-0.2,0-0.2-0.1c0-0.1,0.1-0.1,0.2-0.1c0.4-0.1,0.9-0.2,1.2-0.4
		c0.1-0.1,0.2-0.1,0.3-0.1c0.1,0,0.1,0.1,0.1,0.2v5.6c0,0.1,0,0.3,0.1,0.3c0.1,0,0.2-0.2,0.4-0.3c0.6-0.5,1.1-0.9,1.7-1.4
		c0.1-0.1,0.5-0.4,0.5-0.6c0-0.2-0.3-0.2-0.4-0.2c-0.1,0-0.5,0-0.5-0.2c0-0.1,0.1-0.1,0.3-0.1c0.4,0,0.8,0,1.1,0s0.8,0,1.1,0
		c0.2,0,0.2,0,0.2,0.1c0,0.2-0.1,0.2-0.3,0.2c-0.7,0-1,0.3-1.5,0.7c-0.3,0.3-0.6,0.5-1,0.8c-0.1,0.1-0.3,0.2-0.3,0.4
		c0,0.1,0.1,0.2,0.2,0.3c0.6,0.8,1.2,1.6,1.8,2.3c0.3,0.4,0.6,0.7,0.8,0.7c0.2,0,0.4,0,0.4,0.2c0,0.1-0.1,0.2-0.2,0.2
		c-0.4,0-0.9-0.1-1.3-0.1c-0.4,0-0.8,0.1-1.3,0.1c-0.1,0-0.2,0-0.2-0.1c0-0.2,0.2-0.2,0.3-0.2c0.2,0,0.4,0,0.4-0.2
		c0-0.2-0.2-0.4-0.3-0.5c-0.4-0.5-0.7-1-1.1-1.4c-0.2-0.3-0.4-0.5-0.5-0.5c-0.1,0-0.7,0.4-0.7,0.7v1.4c0,0.5,0.2,0.7,0.5,0.7
		c0.1,0,0.4,0,0.4,0.2c0,0.1-0.1,0.1-0.2,0.1c-0.4,0-0.8-0.1-1.2-0.1c-0.4,0-0.8,0.1-1.2,0.1c-0.1,0-0.2,0-0.2-0.1
		c0-0.2,0.2-0.2,0.4-0.2c0.5,0,0.6-0.3,0.6-0.7V15.1z"/>
	<path d="M20.8,18.3c0-0.6,0-1.2-0.8-1.2c-0.8,0-1.2,0.4-1.5,1.1c-0.1,0.2-0.2,0.4-0.4,0.5c-0.1,0.1-0.4,0.2-0.6,0.2
		c-0.1,0-0.2,0-0.2-0.2c0-0.7,1.4-1.8,2.9-1.8c0.4,0,0.9,0.1,1.2,0.3c0.2,0.2,0.3,0.4,0.3,0.9v3.1c0,0.3,0,1,0.5,1
		c0.2,0,0.3-0.1,0.4-0.2c0.1-0.1,0.2-0.2,0.2-0.2c0.1,0,0.1,0.1,0.1,0.1c0,0.2-0.7,0.8-1.2,0.8c-0.5,0-0.6-0.5-0.7-0.7
		c-0.1-0.1-0.1-0.2-0.1-0.2c-0.1,0-0.3,0.3-0.7,0.5c-0.4,0.2-0.8,0.5-1.4,0.5c-0.6,0-1.2-0.4-1.2-1c0-0.9,1.2-1.5,1.9-1.8
		c0.3-0.2,0.7-0.3,1-0.5c0.5-0.2,0.5-0.2,0.5-0.7V18.3z M18.3,21.6c0,0.5,0.4,0.8,0.9,0.8c0.5,0,0.9-0.2,1.2-0.5
		c0.3-0.3,0.3-0.5,0.3-1V20c0-0.3,0-0.4-0.1-0.4c-0.1,0-0.2,0.1-0.3,0.1c-0.3,0.2-0.7,0.4-1,0.5C18.8,20.6,18.3,20.9,18.3,21.6
		L18.3,21.6z"/>
	<path d="M29.4,21.5c0,0.4,0,0.7,0.2,0.7c0.3,0,0.5-0.5,0.6-0.5c0.1,0,0.1,0,0.1,0.1c0,0.4-0.1,0.4-0.2,0.5
		c-0.2,0.1-0.4,0.2-0.7,0.3c-0.2,0.1-0.5,0.3-0.7,0.3s-0.1-0.3-0.1-0.4c0-0.1,0-0.4-0.1-0.4c-0.1,0-0.3,0.2-0.7,0.4
		c-0.4,0.2-0.8,0.4-1.3,0.4c-1.7,0-2.8-1.4-2.8-3c0-1.9,1.7-3,3.1-3c0.2,0,0.8,0,1.5,0.3c0.1,0,0.2,0.1,0.2,0.1
		c0.1,0,0.1-0.1,0.1-0.3v-1.8c0-0.6-0.2-0.6-0.6-0.6c-0.1,0-0.2,0-0.2-0.1c0-0.1,0.1-0.1,0.2-0.1c0.4-0.1,0.9-0.2,1.2-0.4
		c0.1-0.1,0.2-0.1,0.3-0.1c0.1,0,0.1,0.1,0.1,0.2V21.5z M24.5,19.7c0,1.3,0.8,2.6,2.2,2.6c0.5,0,1.2-0.2,1.5-0.6
		c0.1-0.2,0.1-0.2,0.1-0.6v-2.4c0-0.5,0-0.9-0.3-1.2c-0.3-0.3-0.8-0.4-1.2-0.4C25.7,17.1,24.5,18.1,24.5,19.7L24.5,19.7z"/>
	<path d="M32.4,19.2c-0.5,0-0.5,0-0.5,0.4c0,1.5,0.9,2.7,2.5,2.7c0.7,0,1.2-0.3,1.5-0.5c0.2-0.2,0.4-0.4,0.4-0.4
		c0.1,0,0.1,0.1,0.1,0.1c0,0.2-0.4,0.5-0.5,0.6c-0.6,0.5-1.2,0.7-2.1,0.7c-1.7,0-3-1.4-3-3c0-2.2,2-3,3.3-3c1.6,0,2.3,1.1,2.3,2.1
		c0,0.1,0,0.2-0.2,0.2H32.4z M31.9,18.7c0,0.2,0.1,0.2,0.4,0.2h1.1c0.4,0,1.1,0,1.5-0.1c0.3-0.1,0.5-0.2,0.5-0.5
		c0-0.2-0.2-1.2-1.5-1.2C32.6,17.1,31.9,18.3,31.9,18.7L31.9,18.7z"/>
	<path d="M38.1,19c0-0.8-0.1-0.9-0.5-0.9c-0.2,0-0.3,0-0.3-0.1c0-0.2,0.2-0.2,0.3-0.2c0.3-0.1,0.9-0.4,1.1-0.7
		c0.1-0.1,0.1-0.2,0.2-0.2C39,16.9,39,17,39,17v0.4c0,0.2,0,0.4,0.1,0.4c0.1,0,0.3-0.3,0.7-0.5c0.3-0.2,0.8-0.4,1.3-0.4
		c1,0,1.3,0.6,1.5,1c0.1,0.1,0.1,0.2,0.1,0.2c0,0,0.1-0.1,0.2-0.1c0.3-0.3,0.9-1,1.9-1c0.7,0,1.1,0.3,1.4,0.6c0.4,0.5,0.4,1,0.4,1.7
		v2.2c0,0.8,0,1.1,0.6,1.1c0.1,0,0.4,0,0.4,0.2c0,0.1-0.1,0.1-0.2,0.1c-0.4,0-0.8-0.1-1.2-0.1c-0.4,0-0.8,0.1-1.2,0.1
		c-0.1,0-0.2,0-0.2-0.1c0-0.2,0.2-0.2,0.4-0.2c0.6,0,0.6-0.3,0.6-1.1v-2.6c0-0.9-0.5-1.5-1.2-1.5c-0.1,0-0.8,0.1-1.2,0.5
		c-0.4,0.4-0.4,0.7-0.4,1.2v2.3c0,0.8,0,1.1,0.6,1.1c0.1,0,0.4,0,0.4,0.2c0,0.1-0.1,0.1-0.2,0.1c-0.4,0-0.8-0.1-1.2-0.1
		c-0.4,0-0.8,0.1-1.2,0.1c-0.1,0-0.2,0-0.2-0.1c0-0.2,0.2-0.2,0.4-0.2c0.6,0,0.6-0.3,0.6-1.1v-2.2c0-0.4,0-0.9-0.2-1.2
		c-0.2-0.4-0.7-0.6-1-0.6c-0.1,0-0.8,0.1-1.2,0.5C39,18.3,39,18.6,39,19.1v2.3c0,0.8,0,1.1,0.6,1.1c0.1,0,0.4,0,0.4,0.2
		c0,0.1-0.1,0.1-0.2,0.1c-0.4,0-0.8-0.1-1.2-0.1c-0.4,0-0.8,0.1-1.2,0.1c-0.1,0-0.2,0-0.2-0.1c0-0.2,0.2-0.2,0.4-0.2
		c0.6,0,0.6-0.3,0.6-1.1V19z"/>
	<path d="M48.9,19c0-0.8-0.1-0.9-0.5-0.9c-0.2,0-0.3,0-0.3-0.1c0-0.2,0.2-0.2,0.3-0.2c0.3-0.1,0.9-0.4,1.1-0.7
		c0.1-0.1,0.1-0.2,0.2-0.2c0.1,0,0.1,0.1,0.1,0.2v0.6v3.7c0,0.7,0,1.1,0.6,1.1c0.1,0,0.4,0,0.4,0.2c0,0.1-0.1,0.1-0.2,0.1
		c-0.4,0-0.8-0.1-1.2-0.1c-0.4,0-0.8,0.1-1.2,0.1c-0.1,0-0.2,0-0.2-0.1c0-0.2,0.2-0.2,0.4-0.2c0.6,0,0.6-0.3,0.6-1.1V19z M49.3,15.7
		c-0.3,0-0.5-0.3-0.5-0.6s0.2-0.6,0.6-0.6c0.3,0,0.5,0.3,0.5,0.6C49.9,15.4,49.7,15.7,49.3,15.7L49.3,15.7z"/>
	<path d="M53,23c0,0.6,0,1.2-0.4,1.7c-0.4,0.6-1.4,1.3-1.5,1.3c-0.1,0-0.1,0-0.1-0.1c0-0.1,0.1-0.2,0.1-0.2c0.7-0.6,1-1,1-1.9V19
		c0-0.8-0.1-0.9-0.5-0.9c-0.2,0-0.3,0-0.3-0.1c0-0.2,0.2-0.2,0.3-0.2c0.3-0.1,0.9-0.4,1.1-0.7c0.1-0.1,0.1-0.2,0.2-0.2
		c0.1,0,0.1,0.1,0.1,0.2V23z M52.5,15.7c-0.4,0-0.5-0.3-0.5-0.6c0-0.3,0.2-0.6,0.6-0.6c0.4,0,0.6,0.3,0.6,0.6
		C53.1,15.5,52.9,15.7,52.5,15.7L52.5,15.7z"/>
	<path d="M57.7,18.3c0-0.6,0-1.2-0.8-1.2c-0.8,0-1.2,0.4-1.5,1.1c-0.1,0.2-0.2,0.4-0.4,0.5c-0.1,0.1-0.4,0.2-0.6,0.2
		c-0.1,0-0.2,0-0.2-0.2c0-0.7,1.4-1.8,2.9-1.8c0.4,0,0.9,0.1,1.2,0.3c0.2,0.2,0.3,0.4,0.3,0.9v3.1c0,0.3,0,1,0.5,1
		c0.2,0,0.3-0.1,0.4-0.2c0.1-0.1,0.2-0.2,0.2-0.2c0.1,0,0.1,0.1,0.1,0.1c0,0.2-0.7,0.8-1.2,0.8c-0.5,0-0.6-0.5-0.7-0.7
		c-0.1-0.1-0.1-0.2-0.1-0.2c-0.1,0-0.3,0.3-0.7,0.5c-0.4,0.2-0.8,0.5-1.4,0.5c-0.6,0-1.2-0.4-1.2-1c0-0.9,1.2-1.5,1.9-1.8
		c0.3-0.2,0.7-0.3,1-0.5c0.5-0.2,0.5-0.2,0.5-0.7V18.3z M55.3,21.6c0,0.5,0.4,0.8,0.9,0.8c0.5,0,0.9-0.2,1.2-0.5
		c0.3-0.3,0.3-0.5,0.3-1V20c0-0.3,0-0.4-0.1-0.4c-0.1,0-0.2,0.1-0.3,0.1c-0.3,0.2-0.7,0.4-1,0.5C55.8,20.6,55.3,20.9,55.3,21.6
		L55.3,21.6z"/>
	<path class="st2" d="M64.2,22.5c0-0.2,0.2-0.4,0.5-0.5c0.3-0.1,0.6-0.2,0.7-0.2c0.3-0.3,0.7-0.7,1-1c1.1-1.1,2.3-2.1,3.5-2.9l0,0
		c-0.3,0.1-0.7,0.2-1.1,0.2c-0.9,0-1.6-0.4-2.2-0.4c-0.6,0-0.9,0.3-0.9,0.8c0,0.1,0,0.2-0.1,0.2c-0.2,0-0.2-0.3-0.2-0.4
		c0-0.9,0.7-1.6,1.6-1.6c0.4,0,0.8,0.2,1.3,0.4c0.6,0.3,1.1,0.5,1.8,0.4c0.1-0.1,0.3-0.3,0.5-0.5c0.2-0.2,0.4-0.3,0.6-0.3
		c0.1,0,0.3,0.1,0.3,0.2c0,0.3-0.6,0.6-0.8,0.7c-0.5,0.3-0.6,0.3-1,0.7c-0.7,0.6-1.4,1.2-2,1.8c-0.6,0.5-1.3,1.1-1.9,1.6l0,0
		c0.3-0.1,0.6-0.1,0.9-0.1c0.5,0,0.9,0.1,1.3,0.2c0.4,0.1,0.7,0.2,0.9,0.2c0.5,0,0.9-0.3,0.9-0.8c0-0.2-0.1-0.3-0.1-0.4
		c0-0.1,0.1-0.1,0.1-0.1c0.2,0,0.2,0.4,0.2,0.5c0,0.4-0.2,0.8-0.4,1c-0.4,0.4-0.9,0.5-1.4,0.5s-1-0.2-1.4-0.4
		c-0.4-0.2-0.8-0.4-1.1-0.4c-0.2,0-0.4,0.2-0.6,0.4c-0.2,0.2-0.4,0.4-0.6,0.4C64.3,22.8,64.2,22.7,64.2,22.5L64.2,22.5z"/>
	<path class="st2" d="M71.2,21.6c0-1.1,0.8-2.4,1.5-3.2c0.8-0.8,2-1.6,3.1-1.6c0.8,0,1,0.5,1,0.5s0.1-0.2,0.2-0.4
		c0-0.1,0.1-0.1,0.2-0.1c0.1,0,0.3,0,0.5,0c0.1,0,0.2,0,0.2,0.1c0,0.1-0.1,0.2-0.1,0.3c-0.4,1.5-0.9,2.9-1.3,4.4
		c0,0.1-0.1,0.3-0.1,0.4c0,0.1,0,0.2,0.1,0.2c0.3,0,0.9-0.8,1.1-1.1c0-0.1,0.1-0.2,0.2-0.2c0.1,0,0.1,0.1,0.1,0.1
		c0,0.2-0.5,0.9-0.7,1.1c-0.3,0.4-1,1-1.5,1c-0.2,0-0.4-0.2-0.4-0.4c0-0.2,0.1-0.5,0.1-0.7c0.3-0.9,0.5-1.7,0.8-2.6h0
		c-0.7,1.2-2.5,3.7-4,3.7C71.5,22.9,71.2,22.2,71.2,21.6L71.2,21.6z M76.6,17.7c0-0.5-0.4-0.7-0.8-0.7c-0.9,0-1.9,0.9-2.4,1.6
		c-0.5,0.6-1.2,1.9-1.2,2.8c0,0.4,0.2,0.8,0.6,0.8c0.8,0,2-1.4,2.4-2C75.6,19.8,76.6,18.3,76.6,17.7L76.6,17.7z"/>
	<path class="st2" d="M82.3,22.4c0-0.4,0.1-0.8,0.2-1.1c0.6-2,1.2-3.9,1.8-5.9c0-0.1,0.1-0.4,0.1-0.5c0-0.3-0.3-0.3-0.5-0.3
		c-0.2,0-0.4,0-0.4-0.1c0-0.2,0.2-0.2,0.4-0.2c0.4,0,1-0.2,1.4-0.4c0.1-0.1,0.2-0.1,0.3-0.1c0.1,0,0.1,0.1,0.1,0.1s-0.1,0.2-0.1,0.3
		c-0.7,2.4-1.5,4.8-2.2,7.3c-0.1,0.2-0.1,0.4-0.1,0.5c0,0.1,0.1,0.2,0.2,0.2c0.3,0,1-0.9,1.1-1.2c0-0.1,0.1-0.2,0.2-0.2
		c0.1,0,0.1,0,0.1,0.1c0,0.2-0.4,0.8-0.5,0.9c-0.3,0.4-1,1.1-1.6,1.1C82.4,22.9,82.3,22.7,82.3,22.4L82.3,22.4z"/>
	<path class="st2" d="M88.5,17.3c0,0.2-0.1,0.7-0.2,0.9c-0.3,1-0.6,2.1-1,3.1c-0.1,0.2-0.1,0.4-0.1,0.5c0,0.1,0.1,0.2,0.2,0.2
		c0.2,0,0.7-0.5,1-0.9c0.1-0.2,0.2-0.4,0.4-0.4c0.1,0,0.1,0,0.1,0.1c0,0.2-0.4,0.8-0.5,0.9c-0.3,0.4-1,1.1-1.6,1.1
		c-0.3,0-0.4-0.2-0.4-0.5c0-0.3,0.1-0.8,0.2-1.1c0.3-1,0.6-2,0.9-3c0-0.1,0.1-0.3,0.1-0.4c0-0.1,0-0.2-0.2-0.2
		c-0.2,0-0.5,0.3-0.8,0.5c-0.3,0.3-0.5,0.6-0.6,0.6c-0.1,0-0.1,0-0.1-0.1c0-0.2,0.5-0.7,0.6-0.8c0.3-0.3,1-0.9,1.5-0.9
		C88.4,16.8,88.5,17,88.5,17.3L88.5,17.3z M89.2,15.1c0,0.4-0.3,0.8-0.7,0.8c-0.3,0-0.4-0.2-0.4-0.5c0-0.3,0.3-0.8,0.7-0.8
		C89,14.7,89.2,14.9,89.2,15.1L89.2,15.1z"/>
	<path class="st2" d="M95.6,18c0,1.4-1.7,2.2-3.4,2.4l0,0c0.4,0.2,0.6,0.6,0.8,1c0.2,0.4,0.5,1.2,1.1,1.2c0.3,0,0.6-0.2,0.6-0.5
		c0-0.4-0.6-0.2-0.6-0.7c0-0.2,0.1-0.4,0.3-0.4c0.4,0,0.6,0.4,0.6,0.7c0,0.7-0.6,1.2-1.3,1.2c-1.1,0-1.5-1-1.9-1.8
		c-0.1-0.3-0.3-0.6-0.6-0.6c-0.1,0-0.2,0-0.2,0.3c-0.2,0.5-0.3,1-0.5,1.5c-0.2,0.5-0.2,0.6-0.4,0.6h-0.4c-0.2,0-0.2,0-0.2-0.1
		c0-0.1,0.1-0.4,0.1-0.5c0.7-2.2,1.4-4.5,2-6.7c0.1-0.2,0.2-0.5,0.2-0.7c0-0.3-0.3-0.3-0.5-0.3c-0.1,0-0.3,0-0.3-0.1
		s0.2-0.1,0.3-0.1c0.5,0,0.9,0,1.4-0.3c0.1-0.1,0.2-0.1,0.3-0.1c0.1,0,0.1,0,0.1,0.1c0,0.1-0.1,0.4-0.2,0.7l-1.6,5.2l0,0
		c0.5-1,2.1-2.9,3.3-2.9C95.2,16.8,95.6,17.3,95.6,18L95.6,18z M94.7,17.9c0-0.3-0.2-0.6-0.6-0.6c-1.1,0-2.5,2-3,2.9h0.3
		C92.6,20.2,94.7,19.4,94.7,17.9L94.7,17.9z"/>
	<path class="st2" d="M101.8,19.3c0,0.9-0.4,1.8-1.1,2.4c-0.6,0.6-1.6,1.2-2.5,1.2c-1.4,0-2.2-1.3-2.2-2.5c0-1.8,1.7-3.6,3.5-3.6
		C100.9,16.8,101.8,18,101.8,19.3L101.8,19.3z M100.9,18.7c0-0.9-0.3-1.7-1.3-1.7c-0.7,0-1.3,0.4-1.7,1C97.3,18.8,97,20,97,20.8
		c0,0.9,0.3,1.8,1.3,1.8c0.7,0,1.3-0.4,1.7-1.1C100.6,20.7,100.9,19.6,100.9,18.7L100.9,18.7z"/>
	<path class="st2" d="M102.7,21.8c0-0.3,0.2-0.9,0.4-1.3c0.3-0.8,0.6-1.5,0.9-2.3c0.1-0.1,0.2-0.4,0.2-0.6c0-0.1-0.1-0.2-0.2-0.2
		c-0.3,0-1,0.8-1.2,1.1c0,0-0.1,0.1-0.2,0.1c-0.1,0-0.1-0.1-0.1-0.1c0-0.1,0.1-0.2,0.2-0.3c0.3-0.4,0.5-0.6,0.9-0.9
		c0.3-0.2,0.7-0.5,1-0.5c0.3,0,0.5,0.2,0.5,0.5c0,0.3-0.1,0.6-0.2,0.9c-0.4,0.9-0.7,1.7-1.1,2.6c-0.1,0.3-0.3,0.7-0.3,1
		c0,0.4,0.3,0.7,0.7,0.7c1.5,0,3.4-2.7,3.4-4c0-0.2,0-0.4-0.2-0.5c-0.1-0.2-0.2-0.4-0.2-0.6c0-0.2,0.1-0.5,0.4-0.5
		c0.4,0,0.5,0.6,0.5,0.9c0,1.9-2.2,5.3-4.3,5.3C103.1,22.9,102.7,22.6,102.7,21.8L102.7,21.8z"/>
	<path class="st2" d="M115.3,17.5c0,0.3-0.1,0.7-0.2,0.9c-0.4,0.9-0.7,1.8-1.1,2.8c-0.1,0.2-0.2,0.5-0.2,0.7c0,0.2,0.1,0.3,0.2,0.3
		c0.3,0,0.7-0.5,1.1-0.8c0.2-0.2,0.4-0.5,0.5-0.5c0,0,0.1,0,0.1,0.1c0,0.2-0.2,0.5-0.6,0.9c-0.3,0.4-1.1,1.1-1.7,1.1
		c-0.4,0-0.6-0.2-0.6-0.6c0-0.4,0.2-1,0.4-1.4c0.3-0.8,0.6-1.6,0.9-2.5c0.1-0.2,0.2-0.5,0.2-0.7c0-0.3-0.2-0.5-0.5-0.5
		c-0.7,0-1.5,1-1.9,1.4c-0.7,0.8-1.7,2.5-2,3.6c-0.1,0.4-0.1,0.4-0.4,0.4h-0.2c-0.2,0-0.3,0-0.3-0.2c0-0.1,0.1-0.2,0.1-0.3
		c0.4-1.3,0.8-2.5,1.2-3.8c0.1-0.2,0.2-0.5,0.2-0.7c0-0.2-0.1-0.3-0.3-0.3c-0.3,0-0.8,0.5-1.1,0.9c-0.1,0.1-0.2,0.4-0.3,0.4
		c-0.1,0-0.1,0-0.1-0.1c0-0.1,0.5-0.7,0.6-0.8c0.3-0.4,1-1,1.5-1c0.4,0,0.5,0.3,0.5,0.6s-0.1,0.8-0.2,1.1c-0.2,0.6-0.4,1.2-0.6,1.8
		l0,0c0.7-1.3,2.2-3.6,3.9-3.6C114.9,16.8,115.3,17.1,115.3,17.5L115.3,17.5z"/>
	<path class="st2" d="M122.3,19.3c0,0.9-0.4,1.8-1.1,2.4c-0.6,0.6-1.6,1.2-2.5,1.2c-1.4,0-2.2-1.3-2.2-2.5c0-1.8,1.7-3.6,3.5-3.6
		C121.4,16.8,122.3,18,122.3,19.3L122.3,19.3z M121.4,18.7c0-0.9-0.3-1.7-1.3-1.7c-0.7,0-1.3,0.4-1.7,1c-0.6,0.8-0.9,1.9-0.9,2.8
		c0,0.9,0.3,1.8,1.3,1.8c0.7,0,1.3-0.4,1.7-1.1C121.1,20.7,121.4,19.6,121.4,18.7L121.4,18.7z"/>
	<path class="st2" d="M127,22.2c0-0.3,0.1-0.7,0.2-1c0.3-1,0.7-2,1-3c0-0.1,0.1-0.4,0.1-0.5c0-0.1,0-0.2-0.2-0.2
		c-0.3,0-0.9,0.8-1.1,1c-0.1,0.1-0.2,0.3-0.3,0.3c-0.1,0-0.1,0-0.1-0.1c0-0.2,1.2-1.9,2.1-1.9c0.3,0,0.4,0.3,0.4,0.6
		s-0.1,0.6-0.2,0.9c-0.3,1-0.7,2.1-1,3.1c-0.1,0.2-0.1,0.4-0.1,0.6c0,0.2,0.1,0.4,0.4,0.4c0.6,0,1.7-1.1,2.1-1.5
		c0.9-1,1.5-2.2,1.9-3.4c0.1-0.4,0.2-0.5,0.2-0.5c0.1-0.1,0.5,0,0.6,0c0.1,0,0.2,0,0.2,0.1s0,0.2-0.1,0.3c-0.4,1.3-0.8,2.7-1.2,4
		c0,0.2-0.1,0.4-0.1,0.5c0,0.1,0.1,0.3,0.2,0.3c0.4,0,1.2-0.9,1.4-1.3c0-0.1,0.1-0.1,0.2-0.1c0.1,0,0.1,0,0.1,0.1
		c0,0.3-1.4,2.1-2.4,2.1c-0.3,0-0.4-0.3-0.4-0.5c0-0.6,0.5-2.1,0.8-2.9h-0.1c-0.8,1.3-2.5,3.3-4,3.3C127.2,22.9,127,22.6,127,22.2
		L127,22.2z"/>
	<path class="st2" d="M137.2,17.4c0,0.7-0.5,2.1-0.7,2.7h0c0.5-0.8,2-3.4,3.2-3.4c0.6,0,0.8,0.5,0.8,1c0,0.7-0.4,1.7-0.6,2.4h0
		c0.4-0.7,0.8-1.5,1.4-2.2c0.4-0.5,1.2-1.2,1.9-1.2c0.5,0,0.8,0.3,0.8,0.8c0,0.4-0.1,0.9-0.3,1.3c-0.3,0.9-0.6,1.8-1,2.7
		c-0.1,0.2-0.1,0.4-0.1,0.5c0,0.1,0.1,0.2,0.2,0.2c0.3,0,0.7-0.5,1-0.9c0.1-0.2,0.4-0.5,0.4-0.5c0.1,0,0.1,0,0.1,0.1
		c0,0.2-0.5,0.8-0.7,1c-0.3,0.4-1,1-1.6,1c-0.4,0-0.5-0.2-0.5-0.6c0-0.4,0.2-1,0.4-1.4c0.2-0.6,0.5-1.2,0.7-1.9
		c0.1-0.3,0.3-0.9,0.3-1.2c0-0.3-0.1-0.4-0.4-0.4c-0.6,0-1.5,1.1-1.8,1.6c-0.6,0.9-1.4,2.3-1.6,3.3c-0.1,0.4-0.2,0.5-0.4,0.5h-0.3
		c-0.1,0-0.3,0-0.3-0.1c0-0.1,0.1-0.2,0.1-0.4c0.4-1.2,0.7-2.4,1.1-3.5c0.1-0.2,0.2-0.6,0.2-0.8c0-0.2-0.1-0.5-0.4-0.5
		c-0.5,0-1.3,1-1.6,1.3c-0.7,0.9-1.5,2.4-1.8,3.5c-0.1,0.5-0.2,0.5-0.4,0.5h-0.3c-0.1,0-0.3,0-0.3-0.2c0-0.1,0.1-0.3,0.1-0.4
		c0.4-1.3,0.8-2.5,1.2-3.8c0.1-0.2,0.1-0.5,0.1-0.7c0-0.1,0-0.2-0.2-0.2c-0.2,0-0.7,0.4-0.9,0.7c-0.2,0.2-0.4,0.5-0.5,0.5
		c-0.1,0-0.1-0.1-0.1-0.1c0-0.1,0.5-0.8,0.6-0.9c0.4-0.4,1-1,1.6-1C137.2,16.8,137.2,17.2,137.2,17.4L137.2,17.4z"/>
	<path class="st2" d="M150.7,18c0,1.9-2.9,2.1-4.3,2.3c-0.1,0-0.1,0-0.2,0c0,0.2,0,0.3,0,0.5c0,0.9,0.5,1.5,1.4,1.5
		c0.8,0,1.6-0.6,2-1.2c0-0.1,0.1-0.1,0.1-0.1c0.1,0,0.1,0,0.1,0.1c0,0.1-0.3,0.4-0.3,0.5c-0.6,0.7-1.5,1.3-2.5,1.3
		c-1.2,0-1.9-0.9-1.9-2c0-2,2-4.1,4-4.1C150,16.8,150.7,17.2,150.7,18L150.7,18z M149.1,17c-1.4,0-2.4,1.8-2.7,3
		c0.9-0.1,2.4-0.3,3-1.1c0.3-0.3,0.4-0.8,0.4-1.2C149.8,17.3,149.6,17,149.1,17L149.1,17z"/>
	<path class="st2" d="M151.2,22.2c0-0.3,0.1-0.8,0.2-1.1c0.4-1.3,0.8-2.5,1.2-3.8h-0.7c-0.2,0-0.3,0-0.3-0.1c0-0.1,0-0.1,0.1-0.2
		c0.1-0.1,0.2-0.1,0.3-0.1h0.8l0.4-1.4c0-0.1,0.1-0.1,0.2-0.1h0.2h0.2c0.1,0,0.2,0,0.2,0.1s-0.1,0.3-0.1,0.3
		c-0.1,0.4-0.2,0.7-0.3,1.1h1c0.2,0,0.3,0,0.3,0.1c0,0.1,0,0.1-0.1,0.2c0,0.1-0.2,0.1-0.3,0.1h-1c-0.4,1.3-0.8,2.6-1.2,3.9
		c-0.1,0.2-0.2,0.5-0.2,0.6c0,0.1,0.1,0.3,0.2,0.3c0.3,0,0.8-0.6,1-0.9c0.2-0.2,0.3-0.5,0.4-0.5c0.1,0,0.1,0.1,0.1,0.1
		c0,0.1-0.3,0.6-0.4,0.7c-0.3,0.4-1.1,1.4-1.7,1.4C151.3,22.9,151.2,22.5,151.2,22.2L151.2,22.2z"/>
	<path class="st2" d="M161.6,17.5c0,0.3-0.1,0.7-0.2,0.9c-0.4,0.9-0.7,1.8-1.1,2.8c-0.1,0.2-0.2,0.5-0.2,0.7c0,0.2,0.1,0.3,0.2,0.3
		c0.3,0,0.7-0.5,1.1-0.8c0.2-0.2,0.4-0.5,0.5-0.5c0,0,0.1,0,0.1,0.1c0,0.2-0.2,0.5-0.6,0.9c-0.3,0.4-1.1,1.1-1.7,1.1
		c-0.4,0-0.6-0.2-0.6-0.6c0-0.4,0.2-1,0.4-1.4c0.3-0.8,0.6-1.6,0.9-2.5c0.1-0.2,0.2-0.5,0.2-0.7c0-0.3-0.2-0.5-0.5-0.5
		c-0.7,0-1.5,1-1.9,1.4c-0.7,0.8-1.7,2.5-2,3.6c-0.1,0.4-0.1,0.4-0.4,0.4h-0.2c-0.2,0-0.3,0-0.3-0.2c0-0.1,0.1-0.2,0.1-0.3
		c0.4-1.3,0.8-2.5,1.2-3.8c0.1-0.2,0.2-0.5,0.2-0.7c0-0.2-0.1-0.3-0.3-0.3c-0.3,0-0.8,0.5-1.1,0.9c-0.1,0.1-0.2,0.4-0.3,0.4
		c-0.1,0-0.1,0-0.1-0.1c0-0.1,0.5-0.7,0.6-0.8c0.3-0.4,1-1,1.5-1c0.4,0,0.5,0.3,0.5,0.6s-0.1,0.8-0.2,1.1c-0.2,0.6-0.4,1.2-0.6,1.8
		l0,0c0.7-1.3,2.2-3.6,3.9-3.6C161.2,16.8,161.6,17.1,161.6,17.5L161.6,17.5z"/>
	<path class="st2" d="M168.6,19.3c0,0.9-0.4,1.8-1.1,2.4c-0.6,0.6-1.6,1.2-2.5,1.2c-1.4,0-2.2-1.3-2.2-2.5c0-1.8,1.7-3.6,3.5-3.6
		C167.7,16.8,168.6,18,168.6,19.3L168.6,19.3z M167.7,18.7c0-0.9-0.3-1.7-1.3-1.7c-0.7,0-1.3,0.4-1.7,1c-0.6,0.8-0.9,1.9-0.9,2.8
		c0,0.9,0.3,1.8,1.3,1.8c0.7,0,1.3-0.4,1.7-1.1C167.4,20.7,167.7,19.6,167.7,18.7L167.7,18.7z"/>
	<path class="st2" d="M172.8,21.2c0,0.5-0.4,1-0.8,1.3c-0.4,0.3-1,0.5-1.5,0.5c-0.5,0-1.1-0.2-1.5-0.4c-0.1-0.1-0.3-0.2-0.3-0.4
		c0-0.1,0.1-0.3,0.1-0.4c0-0.1,0.1-0.5,0.3-0.5c0.1,0,0.2,0.1,0.3,0.3c0.3,0.4,0.6,1.1,1.4,1.1c0.5,0,1.2-0.4,1.2-1
		c0-0.6-0.5-1-1-1.5c-0.5-0.5-1-1-1-1.6c0-1.1,1.1-1.8,2.1-1.8c0.3,0,1.6,0.1,1.6,0.5c0,0.1-0.1,0.3-0.1,0.4c0,0.1-0.1,0.4-0.2,0.4
		c-0.1,0-0.3-0.2-0.6-0.5c-0.3-0.3-0.6-0.5-1.1-0.5c-0.5,0-0.9,0.4-0.9,0.9c0,0.5,0.5,1,1,1.5C172.2,19.9,172.8,20.5,172.8,21.2
		L172.8,21.2z"/>
	<path class="st2" d="M174.1,22.2c0-0.3,0.1-0.8,0.2-1.1c0.4-1.3,0.8-2.5,1.2-3.8h-0.7c-0.2,0-0.3,0-0.3-0.1c0-0.1,0-0.1,0.1-0.2
		c0.1-0.1,0.2-0.1,0.3-0.1h0.8l0.4-1.4c0-0.1,0.1-0.1,0.2-0.1h0.2h0.2c0.1,0,0.2,0,0.2,0.1s-0.1,0.3-0.1,0.3
		c-0.1,0.4-0.2,0.7-0.3,1.1h1c0.2,0,0.3,0,0.3,0.1c0,0.1,0,0.1-0.1,0.2c0,0.1-0.2,0.1-0.3,0.1h-1c-0.4,1.3-0.8,2.6-1.2,3.9
		c-0.1,0.2-0.2,0.5-0.2,0.6c0,0.1,0.1,0.3,0.2,0.3c0.3,0,0.8-0.6,1-0.9c0.2-0.2,0.3-0.5,0.4-0.5c0.1,0,0.1,0.1,0.1,0.1
		c0,0.1-0.3,0.6-0.4,0.7c-0.3,0.4-1.1,1.4-1.7,1.4C174.2,22.9,174.1,22.5,174.1,22.2L174.1,22.2z"/>
	<path class="st2" d="M184,17.3c0,0.2-0.1,0.7-0.2,0.9c-0.3,1-0.6,2.1-1,3.1c-0.1,0.2-0.1,0.4-0.1,0.5c0,0.1,0.1,0.2,0.2,0.2
		c0.2,0,0.7-0.5,1-0.9c0.1-0.2,0.2-0.4,0.4-0.4c0.1,0,0.1,0,0.1,0.1c0,0.2-0.4,0.8-0.5,0.9c-0.3,0.4-1,1.1-1.6,1.1
		c-0.3,0-0.4-0.2-0.4-0.5c0-0.3,0.1-0.8,0.2-1.1c0.3-1,0.6-2,0.9-3c0-0.1,0.1-0.3,0.1-0.4c0-0.1,0-0.2-0.2-0.2
		c-0.2,0-0.5,0.3-0.8,0.5c-0.3,0.3-0.5,0.6-0.6,0.6c-0.1,0-0.1,0-0.1-0.1c0-0.2,0.5-0.7,0.6-0.8c0.3-0.3,1-0.9,1.5-0.9
		C183.9,16.8,184,17,184,17.3L184,17.3z M184.7,15.1c0,0.4-0.3,0.8-0.7,0.8c-0.3,0-0.4-0.2-0.4-0.5c0-0.3,0.3-0.8,0.7-0.8
		C184.5,14.7,184.7,14.9,184.7,15.1L184.7,15.1z"/>
	<path class="st2" d="M191.9,17.5c0,0.3-0.1,0.7-0.2,0.9c-0.4,0.9-0.7,1.8-1.1,2.8c-0.1,0.2-0.2,0.5-0.2,0.7c0,0.2,0.1,0.3,0.2,0.3
		c0.3,0,0.7-0.5,1.1-0.8c0.2-0.2,0.4-0.5,0.5-0.5c0,0,0.1,0,0.1,0.1c0,0.2-0.2,0.5-0.6,0.9c-0.3,0.4-1.1,1.1-1.7,1.1
		c-0.4,0-0.6-0.2-0.6-0.6c0-0.4,0.2-1,0.4-1.4c0.3-0.8,0.6-1.6,0.9-2.5c0.1-0.2,0.2-0.5,0.2-0.7c0-0.3-0.2-0.5-0.5-0.5
		c-0.7,0-1.5,1-1.9,1.4c-0.7,0.8-1.7,2.5-2,3.6c-0.1,0.4-0.1,0.4-0.4,0.4h-0.2c-0.2,0-0.3,0-0.3-0.2c0-0.1,0.1-0.2,0.1-0.3
		c0.4-1.3,0.8-2.5,1.2-3.8c0.1-0.2,0.2-0.5,0.2-0.7c0-0.2-0.1-0.3-0.3-0.3c-0.3,0-0.8,0.5-1.1,0.9c-0.1,0.1-0.2,0.4-0.3,0.4
		c-0.1,0-0.1,0-0.1-0.1c0-0.1,0.5-0.7,0.6-0.8c0.3-0.4,1-1,1.5-1c0.4,0,0.5,0.3,0.5,0.6s-0.1,0.8-0.2,1.1c-0.2,0.6-0.4,1.2-0.6,1.8
		l0,0c0.7-1.3,2.2-3.6,3.9-3.6C191.5,16.8,191.9,17.1,191.9,17.5L191.9,17.5z"/>
	<path class="st2" d="M202.5,19.3c0,0.9-0.4,1.8-1.1,2.4c-0.6,0.6-1.6,1.2-2.5,1.2c-1.4,0-2.2-1.3-2.2-2.5c0-1.8,1.7-3.6,3.5-3.6
		C201.6,16.8,202.5,18,202.5,19.3L202.5,19.3z M201.6,18.7c0-0.9-0.3-1.7-1.3-1.7c-0.7,0-1.3,0.4-1.7,1c-0.6,0.8-0.9,1.9-0.9,2.8
		c0,0.9,0.3,1.8,1.3,1.8c0.7,0,1.3-0.4,1.7-1.1C201.3,20.7,201.6,19.6,201.6,18.7L201.6,18.7z"/>
	<path class="st2" d="M209.5,18.6c0,2.2-2.1,4.4-4.3,4.4c-1,0-1.7-0.5-1.7-1.5c0-0.5,0.2-1,0.3-1.5c0.5-1.5,0.9-3,1.4-4.5
		c0.1-0.2,0.2-0.5,0.2-0.6c0-0.2-0.1-0.3-0.4-0.3c-0.1,0-0.5,0-0.5-0.1c0-0.2,0.3-0.2,0.4-0.2c0.5,0,0.9,0,1.3-0.3
		c0,0,0.1-0.1,0.1-0.1c0.1,0,0.1,0,0.1,0.1c-0.1,0.2-0.1,0.4-0.2,0.6l-1.6,5.3h0c0.6-1,2.1-2.9,3.4-2.9
		C209.1,16.8,209.5,17.7,209.5,18.6L209.5,18.6z M208.5,18.5c0-0.5-0.1-1.1-0.7-1.1c-1.3,0-3.6,3.2-3.6,4.5c0,0.6,0.4,0.8,1,0.8
		C206.9,22.7,208.5,20.1,208.5,18.5L208.5,18.5z"/>
	<path class="st2" d="M210.1,22.4c0-0.4,0.1-0.8,0.2-1.1c0.6-2,1.2-3.9,1.8-5.9c0-0.1,0.1-0.4,0.1-0.5c0-0.3-0.3-0.3-0.5-0.3
		c-0.2,0-0.4,0-0.4-0.1c0-0.2,0.2-0.2,0.4-0.2c0.4,0,1-0.2,1.4-0.4c0.1-0.1,0.2-0.1,0.3-0.1s0.1,0.1,0.1,0.1s-0.1,0.2-0.1,0.3
		c-0.7,2.4-1.5,4.8-2.2,7.3c-0.1,0.2-0.1,0.4-0.1,0.5c0,0.1,0.1,0.2,0.2,0.2c0.3,0,1-0.9,1.1-1.2c0-0.1,0.1-0.2,0.2-0.2
		c0.1,0,0.1,0,0.1,0.1c0,0.2-0.4,0.8-0.5,0.9c-0.3,0.4-1,1.1-1.6,1.1C210.1,22.9,210.1,22.7,210.1,22.4L210.1,22.4z"/>
	<path class="st2" d="M216.2,17.3c0,0.2-0.1,0.7-0.2,0.9c-0.3,1-0.6,2.1-1,3.1c-0.1,0.2-0.1,0.4-0.1,0.5c0,0.1,0.1,0.2,0.2,0.2
		c0.2,0,0.7-0.5,1-0.9c0.1-0.2,0.2-0.4,0.4-0.4c0.1,0,0.1,0,0.1,0.1c0,0.2-0.4,0.8-0.5,0.9c-0.3,0.4-1,1.1-1.6,1.1
		c-0.3,0-0.4-0.2-0.4-0.5c0-0.3,0.1-0.8,0.2-1.1c0.3-1,0.6-2,0.9-3c0-0.1,0.1-0.3,0.1-0.4c0-0.1,0-0.2-0.2-0.2
		c-0.2,0-0.5,0.3-0.8,0.5c-0.3,0.3-0.5,0.6-0.6,0.6c-0.1,0-0.1,0-0.1-0.1c0-0.2,0.5-0.7,0.6-0.8c0.3-0.3,1-0.9,1.5-0.9
		C216.1,16.8,216.2,17,216.2,17.3L216.2,17.3z M216.9,15.1c0,0.4-0.3,0.8-0.7,0.8c-0.3,0-0.4-0.2-0.4-0.5c0-0.3,0.3-0.8,0.7-0.8
		C216.7,14.7,216.9,14.9,216.9,15.1L216.9,15.1z"/>
	<path class="st2" d="M223.4,18c0,1.4-1.7,2.2-3.4,2.4l0,0c0.4,0.2,0.6,0.6,0.8,1c0.2,0.4,0.5,1.2,1.1,1.2c0.3,0,0.6-0.2,0.6-0.5
		c0-0.4-0.6-0.2-0.6-0.7c0-0.2,0.1-0.4,0.3-0.4c0.4,0,0.6,0.4,0.6,0.7c0,0.7-0.6,1.2-1.3,1.2c-1.1,0-1.5-1-1.9-1.8
		c-0.1-0.3-0.3-0.6-0.6-0.6c-0.1,0-0.2,0-0.2,0.3c-0.2,0.5-0.3,1-0.5,1.5c-0.2,0.5-0.2,0.6-0.4,0.6h-0.4c-0.2,0-0.2,0-0.2-0.1
		c0-0.1,0.1-0.4,0.1-0.5c0.7-2.2,1.4-4.5,2-6.7c0.1-0.2,0.2-0.5,0.2-0.7c0-0.3-0.3-0.3-0.5-0.3c-0.1,0-0.3,0-0.3-0.1
		s0.2-0.1,0.3-0.1c0.5,0,0.9,0,1.4-0.3c0.1-0.1,0.2-0.1,0.3-0.1c0.1,0,0.1,0,0.1,0.1c0,0.1-0.1,0.4-0.2,0.7l-1.6,5.2l0,0
		c0.5-1,2.1-2.9,3.3-2.9C222.9,16.8,223.4,17.3,223.4,18L223.4,18z M222.5,17.9c0-0.3-0.2-0.6-0.6-0.6c-1.1,0-2.5,2-3,2.9h0.3
		C220.4,20.2,222.5,19.4,222.5,17.9L222.5,17.9z"/>
	<path class="st2" d="M229.5,19.3c0,0.9-0.4,1.8-1.1,2.4c-0.6,0.6-1.6,1.2-2.5,1.2c-1.4,0-2.2-1.3-2.2-2.5c0-1.8,1.7-3.6,3.5-3.6
		C228.6,16.8,229.5,18,229.5,19.3L229.5,19.3z M228.6,18.7c0-0.9-0.3-1.7-1.3-1.7c-0.7,0-1.3,0.4-1.7,1c-0.6,0.8-0.9,1.9-0.9,2.8
		c0,0.9,0.3,1.8,1.3,1.8c0.7,0,1.3-0.4,1.7-1.1C228.3,20.7,228.6,19.6,228.6,18.7L228.6,18.7z"/>
	<path class="st2" d="M230.4,21.8c0-0.3,0.2-0.9,0.4-1.3c0.3-0.8,0.6-1.5,0.9-2.3c0.1-0.1,0.2-0.4,0.2-0.6c0-0.1-0.1-0.2-0.2-0.2
		c-0.3,0-1,0.8-1.2,1.1c0,0-0.1,0.1-0.2,0.1c-0.1,0-0.1-0.1-0.1-0.1c0-0.1,0.1-0.2,0.2-0.3c0.3-0.4,0.5-0.6,0.9-0.9
		c0.3-0.2,0.7-0.5,1-0.5c0.3,0,0.5,0.2,0.5,0.5c0,0.3-0.1,0.6-0.2,0.9c-0.4,0.9-0.7,1.7-1.1,2.6c-0.1,0.3-0.3,0.7-0.3,1
		c0,0.4,0.3,0.7,0.7,0.7c1.5,0,3.4-2.7,3.4-4c0-0.2,0-0.4-0.2-0.5c-0.1-0.2-0.2-0.4-0.2-0.6c0-0.2,0.1-0.5,0.4-0.5
		c0.4,0,0.5,0.6,0.5,0.9c0,1.9-2.2,5.3-4.3,5.3C230.9,22.9,230.4,22.6,230.4,21.8L230.4,21.8z"/>
	<path class="st2" d="M236,21.6c0-1.1,0.8-2.4,1.5-3.2c0.8-0.8,2-1.6,3.1-1.6c0.8,0,1,0.5,1,0.5s0.1-0.2,0.2-0.4
		c0-0.1,0.1-0.1,0.2-0.1c0.1,0,0.3,0,0.5,0c0.1,0,0.2,0,0.2,0.1c0,0.1-0.1,0.2-0.1,0.3c-0.4,1.5-0.9,2.9-1.3,4.4
		c0,0.1-0.1,0.3-0.1,0.4c0,0.1,0,0.2,0.1,0.2c0.3,0,0.9-0.8,1.1-1.1c0-0.1,0.1-0.2,0.2-0.2c0.1,0,0.1,0.1,0.1,0.1
		c0,0.2-0.5,0.9-0.7,1.1c-0.3,0.4-1,1-1.5,1c-0.2,0-0.4-0.2-0.4-0.4c0-0.2,0.1-0.5,0.1-0.7c0.3-0.9,0.5-1.7,0.8-2.6h0
		c-0.7,1.2-2.5,3.7-4,3.7C236.3,22.9,236,22.2,236,21.6L236,21.6z M241.4,17.7c0-0.5-0.4-0.7-0.8-0.7c-0.9,0-1.9,0.9-2.4,1.6
		c-0.5,0.6-1.2,1.9-1.2,2.8c0,0.4,0.2,0.8,0.6,0.8c0.8,0,2-1.4,2.4-2C240.4,19.8,241.4,18.3,241.4,17.7L241.4,17.7z"/>
	<path class="st2" d="M250.3,17.5c0,0.3-0.1,0.7-0.2,0.9c-0.4,0.9-0.7,1.8-1.1,2.8c-0.1,0.2-0.2,0.5-0.2,0.7c0,0.2,0.1,0.3,0.2,0.3
		c0.3,0,0.7-0.5,1.1-0.8c0.2-0.2,0.4-0.5,0.5-0.5c0,0,0.1,0,0.1,0.1c0,0.2-0.2,0.5-0.6,0.9c-0.3,0.4-1.1,1.1-1.7,1.1
		c-0.4,0-0.6-0.2-0.6-0.6c0-0.4,0.2-1,0.4-1.4c0.3-0.8,0.6-1.6,0.9-2.5c0.1-0.2,0.2-0.5,0.2-0.7c0-0.3-0.2-0.5-0.5-0.5
		c-0.7,0-1.5,1-1.9,1.4c-0.7,0.8-1.7,2.5-2,3.6c-0.1,0.4-0.1,0.4-0.4,0.4h-0.2c-0.2,0-0.3,0-0.3-0.2c0-0.1,0.1-0.2,0.1-0.3
		c0.4-1.3,0.8-2.5,1.2-3.8c0.1-0.2,0.2-0.5,0.2-0.7c0-0.2-0.1-0.3-0.3-0.3c-0.3,0-0.8,0.5-1.1,0.9c-0.1,0.1-0.2,0.4-0.3,0.4
		c-0.1,0-0.1,0-0.1-0.1c0-0.1,0.5-0.7,0.6-0.8c0.3-0.4,1-1,1.5-1c0.4,0,0.5,0.3,0.5,0.6s-0.1,0.8-0.2,1.1c-0.2,0.6-0.4,1.2-0.6,1.8
		l0,0c0.7-1.3,2.2-3.6,3.9-3.6C249.9,16.8,250.3,17.1,250.3,17.5L250.3,17.5z"/>
	<path class="st2" d="M254.3,17.3c0,0.2-0.1,0.7-0.2,0.9c-0.5,1.6-1,3.2-1.5,4.9c-0.2,0.7-0.5,1.5-1,2c-0.4,0.4-1,0.7-1.6,0.7
		c-0.4,0-1-0.2-1-0.7c0-0.2,0.2-0.5,0.4-0.5c0.3,0,0.4,0.2,0.5,0.4c0.1,0.2,0.2,0.4,0.5,0.4c0.3,0,0.5-0.2,0.6-0.4
		c0.1-0.2,0.2-0.5,0.2-0.7c0.6-2.1,1.3-4.2,1.9-6.3c0-0.1,0.1-0.4,0.1-0.4c0-0.1,0-0.2-0.2-0.2c-0.2,0-0.5,0.3-0.8,0.6
		c-0.3,0.3-0.5,0.6-0.6,0.6c-0.1,0-0.1,0-0.1-0.1c0-0.2,0.5-0.7,0.7-0.8c0.3-0.3,1-0.9,1.5-0.9C254.2,16.8,254.3,17,254.3,17.3
		L254.3,17.3z M255,15.1c0,0.4-0.3,0.8-0.7,0.8c-0.3,0-0.4-0.2-0.4-0.5c0-0.3,0.3-0.8,0.7-0.8C254.9,14.7,255,14.9,255,15.1
		L255,15.1z"/>
	<path class="st2" d="M260.3,18c0,1.9-2.9,2.1-4.3,2.3c-0.1,0-0.1,0-0.2,0c0,0.2,0,0.3,0,0.5c0,0.9,0.5,1.5,1.4,1.5
		c0.8,0,1.6-0.6,2-1.2c0-0.1,0.1-0.1,0.1-0.1c0.1,0,0.1,0,0.1,0.1c0,0.1-0.3,0.4-0.3,0.5c-0.6,0.7-1.5,1.3-2.5,1.3
		c-1.2,0-1.9-0.9-1.9-2c0-2,2-4.1,4-4.1C259.5,16.8,260.3,17.2,260.3,18L260.3,18z M258.6,17c-1.4,0-2.4,1.8-2.7,3
		c0.9-0.1,2.4-0.3,3-1.1c0.3-0.3,0.4-0.8,0.4-1.2C259.4,17.3,259.1,17,258.6,17L258.6,17z"/>
</g>
</svg>
