<svg xmlns="http://www.w3.org/2000/svg" xmlns:xlink="http://www.w3.org/1999/xlink" viewBox="0 0 277.84 714.94"><defs><style>.cls-1,.cls-14,.cls-15,.cls-17{fill:none;stroke-miterlimit:10;}.cls-1{stroke:#00a881;stroke-width:5.67px;}.cls-2{clip-path:url(#clip-path);}.cls-3{fill:#fcc5aa;}.cls-4{fill:#dce6e0;}.cls-5{fill:#d9dceb;}.cls-6{fill:#eed1bf;}.cls-7{fill:#ffebc6;}.cls-8{fill:#fff;}.cls-9{fill:#524935;}.cls-10{fill:#ebaf88;}.cls-11{fill:#ffe6b4;}.cls-12{fill:#301812;}.cls-13{fill:#d55227;}.cls-14,.cls-15{stroke:#231f20;}.cls-14{stroke-width:0.62px;}.cls-15{stroke-width:0.56px;}.cls-16{fill:#00a881;}.cls-17{stroke:#499086;stroke-width:0.95px;}.cls-18{fill:#017dad;}.cls-19{fill:#44515d;}.cls-20{fill:#499086;}</style><clipPath id="clip-path" transform="translate(33.61)"><circle id="Krog" class="cls-1" cx="111.83" cy="111.83" r="109"/></clipPath></defs><g id="Layer_2" data-name="Layer 2"><g id="Layer_1-2" data-name="Layer 1"><g class="cls-2"><path id="Vrat" class="cls-3" d="M150.42,178.49l-.21.53c-5.49,13.54-20,23.2-37.1,23.2-17.29,0-32-9.91-37.3-23.71h-.15a18.31,18.31,0,0,0,12.53-7.4,18,18,0,0,0,2-3.72A25.58,25.58,0,0,0,92,158.56h38.38a36.91,36.91,0,0,0,1.89,8.82c1.18,3.37,3.09,7,6.14,9.24C141.26,178.78,145.25,179.79,150.42,178.49Z" transform="translate(33.61)"/><ellipse class="cls-4" cx="138.92" cy="699.11" rx="138.92" ry="15.83"/><path class="cls-5" d="M225.57,390l-48.77-2.13v-157s11.27-65,28.6-29.73Q219.8,299.9,225.57,390Z" transform="translate(33.61)"/><path id="Koza" class="cls-6" d="M167.22,105.48a133.55,133.55,0,0,1-7.42,25.57,49.25,49.25,0,0,1-97.41-1.91A155.45,155.45,0,0,1,55.75,105C53.29,92.35,58.86,90.75,62,90.79V87.85a44.43,44.43,0,0,1,44.43-44.43h9.66A44.43,44.43,0,0,1,160.5,87.85v4.42C163,92,169.78,92.28,167.22,105.48Z" transform="translate(33.61)"/><path id="Brki" class="cls-7" d="M121.71,130.07s18.19,4.35,15.56,23.4-24,18.57-24,18.57-25.42,1.47-26.06-18.57,12.58-22.49,15.67-23.4Z" transform="translate(33.61)"/><path class="cls-8" d="M100.58,99.1c.09-7.58-23.45-7.87-23.54-.29C77,105.65,100.5,105.94,100.58,99.1Z" transform="translate(33.61)"/><path class="cls-8" d="M147.9,99.1c.09-7.58-23.45-7.87-23.54-.29C124.27,105.65,147.81,105.94,147.9,99.1Z" transform="translate(33.61)"/><circle class="cls-9" cx="121.69" cy="98.68" r="3.89"/><circle class="cls-9" cx="169.74" cy="98.68" r="3.89"/><path id="Oci" class="cls-10" d="M75.58,99.26s10-10.05,27.7,0C103.28,99.26,87.89,82.24,75.58,99.26Z" transform="translate(33.61)"/><path id="Oci-2" data-name="Oci" class="cls-10" d="M122.71,99.26s10-10.05,27.7,0C150.41,99.26,135,82.24,122.71,99.26Z" transform="translate(33.61)"/><path class="cls-6" d="M114.73,95.77l-.4,1.56C114.31,96.26,114.43,95.68,114.73,95.77Z" transform="translate(33.61)"/><path id="Nos" class="cls-10" d="M114.26,128.48a19.53,19.53,0,0,1-7.44-2l.52-1c2.11,1.06,8,3.28,9.92.75.32-.85-.77-8-1.64-13.82-1.86-12.29-2.3-16.23-1.44-17a.76.76,0,0,1,.72-.15l-.35,1.11a.4.4,0,0,0,.44-.16c-.5,1,.81,9.68,1.77,16,1.61,10.7,2,13.92,1.42,14.69A4.65,4.65,0,0,1,114.26,128.48Z" transform="translate(33.61)"/><g id="Obrve"><path class="cls-11" d="M103.78,91c-16.77-8.46-24.37-.65-24.69-.31l-2.12-2c.36-.41,9.27-9.82,28.11-.32Z" transform="translate(33.61)"/></g><g id="Obrve-2" data-name="Obrve"><g id="Obrve-3" data-name="Obrve"><path id="Obrve-4" data-name="Obrve" class="cls-11" d="M149.76,92.07c-16.9-8.52-24.61-.39-24.68-.31l-2.13-2c.36-.4,9.27-9.82,28.11-.31Z" transform="translate(33.61)"/></g></g><path class="cls-12" d="M131.36,136.52c-.09,0-1.53,6.58-7.35,10.9-1.38-6.86-26.65-4.19-26.74-4.18a31.51,31.51,0,0,1-3.85-6.72Z" transform="translate(33.61)"/><path class="cls-13" d="M124,147.42h0A19.14,19.14,0,0,1,113.57,151c-7.92.47-13.15-3.77-16.3-7.79C97.36,143.23,122.63,140.56,124,147.42Z" transform="translate(33.61)"/><polygon class="cls-12" points="130.89 143.24 130.89 143.24 130.89 143.24 130.89 143.24"/><polygon class="cls-8" points="127.03 136.52 128.11 138.9 164.16 138.9 164.97 136.52 127.03 136.52"/><g id="Ocala"><path class="cls-14" d="M105.07,99.82s10.32-7.8,17.16,0" transform="translate(33.61)"/><line class="cls-14" x1="98.4" y1="93" x2="109.15" y2="98.68"/><line class="cls-14" x1="196.14" y1="92.78" x2="185.39" y2="99.25"/><circle class="cls-15" cx="123.92" cy="99.82" r="14.77"/><circle class="cls-15" cx="170.62" cy="99.82" r="14.77"/></g><path class="cls-5" d="M.65,390l48.78-2.13v-157s-11.28-65-28.61-29.73Q6.44,299.9.65,390Z" transform="translate(33.61)"/><path id="Pulover" class="cls-16" d="M205.28,200.08l-.41.06c-5.35.94-11.87,8.69-18,27.46V400.45H39.31V227.6c-6.09-18.77-12.6-26.52-18-27.46l-.41-.06c-12.85-1.45,19-21.59,38.64-21.59H75.81c5.33,13.8,20,23.71,37.3,23.71,17.08,0,31.61-9.66,37.1-23.2.08-.17.14-.34.21-.51h16.22C186.29,178.49,218.13,198.63,205.28,200.08Z" transform="translate(33.61)"/><line id="Zadrga" class="cls-17" x1="146.73" y1="400.47" x2="146.73" y2="202.22"/><polygon id="Hlace" class="cls-18" points="220.4 400.47 220.4 450.28 197.23 667.18 168.41 677.4 146.99 450.28 146.73 450.28 122.34 677.4 122.23 677.4 93.48 667.21 72.92 450.28 72.92 400.47 220.4 400.47"/><path id="Koza-2" data-name="Koza" class="cls-6" d="M15,389.35s-5.53,43.56,24.32,47.94v-49Z" transform="translate(33.61)"/><path id="Koza-3" data-name="Koza" class="cls-6" d="M211.11,389.41s5.53,43.56-24.32,47.94v-49Z" transform="translate(33.61)"/><path class="cls-19" d="M206.88,699H134.8V677.4l28.82-10.22s0,.05,0,.08c-1.25,12.27,9.29,14.13,9.29,14.13C216.39,677.35,206.88,699,206.88,699Z" transform="translate(33.61)"/><path class="cls-19" d="M88.62,677.4V699H16.54s-9.51-21.6,34-17.56c0,0,10.59-1.87,9.27-14.21l.08,0Z" transform="translate(33.61)"/><circle id="Gumb" class="cls-20" cx="159.1" cy="238.72" r="3.72"/><circle id="Gumb-2" data-name="Gumb" class="cls-20" cx="134.74" cy="238.72" r="3.72"/><circle id="Gumb-3" data-name="Gumb" class="cls-20" cx="159.1" cy="266.76" r="3.72"/><circle id="Gumb-4" data-name="Gumb" class="cls-20" cx="134.74" cy="266.76" r="3.72"/><circle id="Gumb-5" data-name="Gumb" class="cls-20" cx="159.1" cy="294.8" r="3.72"/><circle id="Gumb-6" data-name="Gumb" class="cls-20" cx="134.74" cy="294.8" r="3.72"/><circle id="Gumb-7" data-name="Gumb" class="cls-20" cx="159.1" cy="322.84" r="3.72"/><circle id="Gumb-8" data-name="Gumb" class="cls-20" cx="134.74" cy="322.84" r="3.72"/><circle id="Gumb-9" data-name="Gumb" class="cls-20" cx="159.1" cy="350.89" r="3.72"/><circle id="Gumb-10" data-name="Gumb" class="cls-20" cx="134.74" cy="350.89" r="3.72"/></g><circle id="Krog-2" data-name="Krog" class="cls-1" cx="145.45" cy="111.83" r="109"/></g></g></svg>