<svg xmlns="http://www.w3.org/2000/svg" xmlns:xlink="http://www.w3.org/1999/xlink" viewBox="0 0 277.84 712.24"><defs><style>.cls-1,.cls-14,.cls-15,.cls-17{fill:none;stroke-miterlimit:10;}.cls-1{stroke:#00a881;stroke-width:5.67px;}.cls-2{clip-path:url(#clip-path);}.cls-3{fill:#fcc5aa;}.cls-4{fill:#dce6e0;}.cls-5{fill:#d9dceb;}.cls-6{fill:#eed1bf;}.cls-7{fill:#fff;}.cls-8{fill:#524935;}.cls-9{fill:#ebaf88;}.cls-10{fill:#ffebc6;}.cls-11{fill:#ffe6b4;}.cls-12{fill:#301812;}.cls-13{fill:#d55227;}.cls-14,.cls-15{stroke:#231f20;}.cls-14{stroke-width:0.62px;}.cls-15{stroke-width:0.56px;}.cls-16{fill:#00a881;}.cls-17{stroke:#499086;stroke-width:0.95px;}.cls-18{fill:#017dad;}.cls-19{fill:#44515d;}.cls-20{fill:#499086;}</style><clipPath id="clip-path" transform="translate(32.37)"><circle id="Krog" class="cls-1" cx="111.83" cy="111.83" r="109"/></clipPath></defs><g id="Layer_2" data-name="Layer 2"><g id="Layer_1-2" data-name="Layer 1"><g class="cls-2"><path id="Vrat" class="cls-3" d="M151.66,175.79l-.21.53c-5.49,13.54-20,23.2-37.1,23.2-17.29,0-32-9.91-37.3-23.71H76.9a18.31,18.31,0,0,0,12.53-7.4,18,18,0,0,0,2-3.72,25.58,25.58,0,0,0,1.79-8.83h38.38a36.91,36.91,0,0,0,1.89,8.82c1.18,3.37,3.09,6.95,6.14,9.24C142.5,176.08,146.49,177.09,151.66,175.79Z" transform="translate(32.37)"/><ellipse class="cls-4" cx="138.92" cy="696.41" rx="138.92" ry="15.83"/><path class="cls-5" d="M226.82,387.32l-48.77-2.13v-157s11.27-65,28.6-29.73Q221,297.2,226.82,387.32Z" transform="translate(32.37)"/><path id="Koza" class="cls-6" d="M168.46,102.78A133.55,133.55,0,0,1,161,128.35a49.25,49.25,0,0,1-97.41-1.91A155.45,155.45,0,0,1,57,102.32c-2.46-12.67,3.11-14.27,6.23-14.23V85.15a44.43,44.43,0,0,1,44.43-44.43h9.66a44.43,44.43,0,0,1,44.43,44.43v4.42C164.23,89.27,171,89.58,168.46,102.78Z" transform="translate(32.37)"/><path class="cls-7" d="M101.83,96.4c.09-7.58-23.45-7.86-23.54-.29C78.21,103,101.75,103.24,101.83,96.4Z" transform="translate(32.37)"/><path class="cls-7" d="M149.14,96.4c.1-7.58-23.44-7.86-23.54-.29C125.52,103,149.06,103.24,149.14,96.4Z" transform="translate(32.37)"/><circle class="cls-8" cx="121.69" cy="95.98" r="3.89"/><circle class="cls-8" cx="169.74" cy="95.98" r="3.89"/><path id="Oci" class="cls-9" d="M76.83,96.56s10-10,27.69,0C104.52,96.56,89.14,79.54,76.83,96.56Z" transform="translate(32.37)"/><path id="Oci-2" data-name="Oci" class="cls-9" d="M124,96.56s10-10,27.7,0C151.66,96.56,136.27,79.54,124,96.56Z" transform="translate(32.37)"/><path id="Brki" class="cls-10" d="M132.6,133.81H94.66c1.23-4.43,4.25-8,9.5-10.49h4.36c1.25.59,8.06,3.63,10.44.49a1.07,1.07,0,0,0,.12-.49h3.62C127.83,126.29,131.28,129.75,132.6,133.81Z" transform="translate(32.37)"/><path class="cls-6" d="M116,93.07l-.4,1.56C115.55,93.56,115.67,93,116,93.07Z" transform="translate(32.37)"/><path id="Nos" class="cls-9" d="M115.51,125.78a19.53,19.53,0,0,1-7.44-2l.52-1c2.11,1.06,8,3.28,9.92.75.31-.84-.77-8-1.65-13.82-1.86-12.28-2.29-16.23-1.43-17a.72.72,0,0,1,.72-.14l-.35,1.1a.41.41,0,0,0,.44-.15c-.5,1,.81,9.67,1.76,16,1.62,10.7,2,13.93,1.43,14.69A4.67,4.67,0,0,1,115.51,125.78Z" transform="translate(32.37)"/><g id="Obrve"><path class="cls-11" d="M105,88.27c-16.77-8.46-24.38-.64-24.69-.31L78.21,86c.37-.41,9.28-9.82,28.12-.31Z" transform="translate(32.37)"/></g><g id="Obrve-2" data-name="Obrve"><g id="Obrve-3" data-name="Obrve"><path id="Obrve-4" data-name="Obrve" class="cls-11" d="M151,89.38c-16.9-8.53-24.61-.4-24.69-.32l-2.13-1.94c.37-.41,9.28-9.83,28.12-.32Z" transform="translate(32.37)"/></g></g><path class="cls-12" d="M132.6,133.82a21.58,21.58,0,0,1-7.34,10.9c-1.39-6.86-26.65-4.19-26.74-4.18a32.4,32.4,0,0,1-3.86-6.72Z" transform="translate(32.37)"/><path class="cls-13" d="M125.26,144.72h0a19,19,0,0,1-10.44,3.61c-7.92.47-13.15-3.77-16.29-7.79C98.61,140.53,123.87,137.86,125.26,144.72Z" transform="translate(32.37)"/><polygon class="cls-12" points="130.89 140.54 130.89 140.54 130.89 140.54 130.89 140.54"/><polygon class="cls-7" points="127.03 133.82 128.11 136.2 164.16 136.2 164.97 133.82 127.03 133.82"/><g id="Ocala"><path class="cls-14" d="M106.32,97.12s10.32-7.8,17.16,0" transform="translate(32.37)"/><line class="cls-14" x1="98.4" y1="90.3" x2="109.15" y2="95.98"/><line class="cls-14" x1="196.14" y1="90.08" x2="185.39" y2="96.55"/><circle class="cls-15" cx="123.92" cy="97.12" r="14.77"/><circle class="cls-15" cx="170.62" cy="97.12" r="14.77"/></g><path class="cls-5" d="M1.9,387.32l48.77-2.13v-157s-11.27-65-28.6-29.73Q7.67,297.2,1.9,387.32Z" transform="translate(32.37)"/><path id="Pulover" class="cls-16" d="M206.52,197.38l-.41.06c-5.35.94-11.87,8.69-18,27.46V397.75H40.55V224.9C34.46,206.13,28,198.38,22.6,197.44l-.41-.06c-12.85-1.45,19-21.59,38.64-21.59H77.05c5.33,13.8,20,23.71,37.3,23.71,17.08,0,31.61-9.66,37.1-23.2.08-.17.14-.34.21-.51h16.22C187.53,175.79,219.37,195.93,206.52,197.38Z" transform="translate(32.37)"/><line id="Zadrga" class="cls-17" x1="146.73" y1="397.77" x2="146.73" y2="199.52"/><polygon id="Hlace" class="cls-18" points="220.4 397.77 220.4 447.58 197.23 664.48 168.41 674.7 146.99 447.58 146.73 447.58 122.34 674.7 122.23 674.7 93.48 664.51 72.92 447.58 72.92 397.77 220.4 397.77"/><path id="Koza-2" data-name="Koza" class="cls-6" d="M16.23,386.65s-5.52,43.56,24.32,47.94v-49Z" transform="translate(32.37)"/><path id="Koza-3" data-name="Koza" class="cls-6" d="M212.36,386.71s5.52,43.56-24.32,47.94v-49Z" transform="translate(32.37)"/><path class="cls-19" d="M208.12,696.25H136V674.7l28.82-10.22s0,0,0,.08c-1.25,12.27,9.29,14.13,9.29,14.13C217.63,674.65,208.12,696.25,208.12,696.25Z" transform="translate(32.37)"/><path class="cls-19" d="M89.86,674.7v21.55H17.78s-9.51-21.6,34-17.56c0,0,10.59-1.87,9.27-14.21l.08,0Z" transform="translate(32.37)"/><circle id="Gumb" class="cls-20" cx="159.1" cy="236.02" r="3.72"/><circle id="Gumb-2" data-name="Gumb" class="cls-20" cx="134.74" cy="236.02" r="3.72"/><circle id="Gumb-3" data-name="Gumb" class="cls-20" cx="159.1" cy="264.06" r="3.72"/><circle id="Gumb-4" data-name="Gumb" class="cls-20" cx="134.74" cy="264.06" r="3.72"/><circle id="Gumb-5" data-name="Gumb" class="cls-20" cx="159.1" cy="292.1" r="3.72"/><circle id="Gumb-6" data-name="Gumb" class="cls-20" cx="134.74" cy="292.1" r="3.72"/><circle id="Gumb-7" data-name="Gumb" class="cls-20" cx="159.1" cy="320.15" r="3.72"/><circle id="Gumb-8" data-name="Gumb" class="cls-20" cx="134.74" cy="320.15" r="3.72"/><circle id="Gumb-9" data-name="Gumb" class="cls-20" cx="159.1" cy="348.19" r="3.72"/><circle id="Gumb-10" data-name="Gumb" class="cls-20" cx="134.74" cy="348.19" r="3.72"/></g><circle id="Krog-2" data-name="Krog" class="cls-1" cx="144.2" cy="111.83" r="109"/></g></g></svg>