<svg xmlns="http://www.w3.org/2000/svg" xmlns:xlink="http://www.w3.org/1999/xlink" viewBox="0 0 277.84 712.19"><defs><style>.cls-1,.cls-13,.cls-14,.cls-16{fill:none;stroke-miterlimit:10;}.cls-1{stroke:#00a881;stroke-width:5.67px;}.cls-2{clip-path:url(#clip-path);}.cls-3{fill:#fcc5aa;}.cls-4{fill:#dce6e0;}.cls-5{fill:#d9dceb;}.cls-6{fill:#eed1bf;}.cls-7{fill:#fff;}.cls-8{fill:#524935;}.cls-9{fill:#ebaf88;}.cls-10{fill:#ffe6b4;}.cls-11{fill:#301812;}.cls-12{fill:#d55227;}.cls-13,.cls-14{stroke:#231f20;}.cls-13{stroke-width:0.62px;}.cls-14{stroke-width:0.56px;}.cls-15{fill:#00a881;}.cls-16{stroke:#499086;stroke-width:0.95px;}.cls-17{fill:#017dad;}.cls-18{fill:#44515d;}.cls-19{fill:#499086;}</style><clipPath id="clip-path" transform="translate(34.83)"><circle id="Krog" class="cls-1" cx="111.83" cy="111.83" r="109"/></clipPath></defs><g id="Layer_2" data-name="Layer 2"><g id="Layer_1-2" data-name="Layer 1"><g class="cls-2"><path id="Vrat" class="cls-3" d="M149.2,175.74l-.21.53c-5.49,13.54-20,23.2-37.1,23.2-17.29,0-32-9.91-37.3-23.71h-.15A18.31,18.31,0,0,0,87,168.36a18,18,0,0,0,2-3.72,25.58,25.58,0,0,0,1.79-8.83h38.38a36.91,36.91,0,0,0,1.89,8.82c1.18,3.37,3.09,7,6.14,9.24C140,176,144,177,149.2,175.74Z" transform="translate(34.83)"/><ellipse class="cls-4" cx="138.92" cy="696.36" rx="138.92" ry="15.83"/><path class="cls-5" d="M224.36,387.26l-48.77-2.12v-157s11.27-65,28.6-29.73Q218.59,297.15,224.36,387.26Z" transform="translate(34.83)"/><path id="Koza" class="cls-6" d="M166,102.73a133.55,133.55,0,0,1-7.42,25.57,49.25,49.25,0,0,1-97.41-1.91,155.45,155.45,0,0,1-6.64-24.12C52.07,89.6,57.64,88,60.76,88V85.1a44.43,44.43,0,0,1,44.43-44.43h9.66A44.43,44.43,0,0,1,159.28,85.1v4.42C161.77,89.22,168.56,89.53,166,102.73Z" transform="translate(34.83)"/><path class="cls-7" d="M99.37,96.34c.09-7.57-23.45-7.86-23.54-.28C75.75,102.9,99.29,103.19,99.37,96.34Z" transform="translate(34.83)"/><path class="cls-7" d="M146.69,96.34c.09-7.57-23.45-7.86-23.55-.28C123.06,102.9,146.6,103.19,146.69,96.34Z" transform="translate(34.83)"/><circle class="cls-8" cx="121.69" cy="95.93" r="3.89"/><circle class="cls-8" cx="169.74" cy="95.93" r="3.89"/><path id="Oci" class="cls-9" d="M74.37,96.5s10-10,27.69,0C102.06,96.5,86.68,79.49,74.37,96.5Z" transform="translate(34.83)"/><path id="Oci-2" data-name="Oci" class="cls-9" d="M121.5,96.5s10-10,27.7,0C149.2,96.5,133.81,79.49,121.5,96.5Z" transform="translate(34.83)"/><path class="cls-6" d="M113.51,93l-.4,1.56C113.09,93.51,113.21,92.93,113.51,93Z" transform="translate(34.83)"/><path id="Nos" class="cls-9" d="M113.05,125.73a19.72,19.72,0,0,1-7.44-2l.52-1c2.11,1.06,8,3.27,9.92.75.32-.85-.77-8-1.65-13.82-1.86-12.29-2.29-16.23-1.43-17a.73.73,0,0,1,.72-.15l-.35,1.1a.4.4,0,0,0,.44-.15c-.5,1,.81,9.67,1.76,16,1.62,10.7,2,13.93,1.43,14.69A4.67,4.67,0,0,1,113.05,125.73Z" transform="translate(34.83)"/><g id="Obrve"><path class="cls-10" d="M102.57,88.22c-16.77-8.47-24.38-.65-24.69-.31l-2.13-2c.37-.41,9.28-9.83,28.12-.32Z" transform="translate(34.83)"/></g><g id="Obrve-2" data-name="Obrve"><g id="Obrve-3" data-name="Obrve"><path id="Obrve-4" data-name="Obrve" class="cls-10" d="M148.55,89.32c-16.9-8.53-24.61-.4-24.69-.31l-2.13-2c.37-.4,9.28-9.82,28.12-.31Z" transform="translate(34.83)"/></g></g><path class="cls-11" d="M130.14,133.76a21.55,21.55,0,0,1-7.34,10.91c-1.39-6.86-26.65-4.2-26.74-4.18a31.17,31.17,0,0,1-3.85-6.73Z" transform="translate(34.83)"/><path class="cls-12" d="M122.8,144.67h0a19.11,19.11,0,0,1-10.44,3.61c-7.92.46-13.15-3.78-16.29-7.79C96.15,140.47,121.41,137.81,122.8,144.67Z" transform="translate(34.83)"/><polygon class="cls-11" points="130.89 140.49 130.89 140.49 130.89 140.49 130.89 140.49"/><polygon class="cls-7" points="127.03 133.76 128.11 136.15 164.16 136.15 164.97 133.76 127.03 133.76"/><g id="Ocala"><path class="cls-13" d="M103.86,97.07s10.32-7.8,17.16,0" transform="translate(34.83)"/><line class="cls-13" x1="98.4" y1="90.25" x2="109.15" y2="95.92"/><line class="cls-13" x1="196.14" y1="90.02" x2="185.39" y2="96.49"/><circle class="cls-14" cx="123.92" cy="97.07" r="14.77"/><circle class="cls-14" cx="170.62" cy="97.07" r="14.77"/></g><path class="cls-5" d="M-.56,387.26l48.77-2.12v-157s-11.27-65-28.6-29.73Q5.21,297.15-.56,387.26Z" transform="translate(34.83)"/><path id="Pulover" class="cls-15" d="M204.06,197.33l-.41.06c-5.35.94-11.87,8.69-18,27.46V397.7H38.09V224.85c-6.09-18.77-12.6-26.52-18-27.46l-.41-.06c-12.85-1.45,19-21.59,38.64-21.59H74.59c5.33,13.8,20,23.71,37.3,23.71,17.08,0,31.61-9.66,37.1-23.2.08-.17.14-.34.21-.51h16.22C185.07,175.74,216.91,195.88,204.06,197.33Z" transform="translate(34.83)"/><line id="Zadrga" class="cls-16" x1="146.73" y1="397.72" x2="146.73" y2="199.47"/><polygon id="Hlace" class="cls-17" points="220.4 397.72 220.4 447.53 197.23 664.43 168.41 674.65 146.99 447.53 146.73 447.53 122.34 674.65 122.23 674.65 93.48 664.46 72.92 447.53 72.92 397.72 220.4 397.72"/><path id="Koza-2" data-name="Koza" class="cls-6" d="M13.77,386.6s-5.52,43.56,24.32,47.93v-49Z" transform="translate(34.83)"/><path id="Koza-3" data-name="Koza" class="cls-6" d="M209.9,386.66s5.52,43.56-24.32,47.93v-49Z" transform="translate(34.83)"/><path class="cls-18" d="M205.66,696.2H133.58V674.65l28.82-10.22s0,.05,0,.08c-1.25,12.27,9.29,14.13,9.29,14.13C215.17,674.6,205.66,696.2,205.66,696.2Z" transform="translate(34.83)"/><path class="cls-18" d="M87.4,674.65V696.2H15.32s-9.51-21.6,34-17.56c0,0,10.59-1.87,9.27-14.21l.08,0Z" transform="translate(34.83)"/><circle id="Gumb" class="cls-19" cx="159.1" cy="235.97" r="3.72"/><circle id="Gumb-2" data-name="Gumb" class="cls-19" cx="134.74" cy="235.97" r="3.72"/><circle id="Gumb-3" data-name="Gumb" class="cls-19" cx="159.1" cy="264.01" r="3.72"/><circle id="Gumb-4" data-name="Gumb" class="cls-19" cx="134.74" cy="264.01" r="3.72"/><circle id="Gumb-5" data-name="Gumb" class="cls-19" cx="159.1" cy="292.05" r="3.72"/><circle id="Gumb-6" data-name="Gumb" class="cls-19" cx="134.74" cy="292.05" r="3.72"/><circle id="Gumb-7" data-name="Gumb" class="cls-19" cx="159.1" cy="320.09" r="3.72"/><circle id="Gumb-8" data-name="Gumb" class="cls-19" cx="134.74" cy="320.09" r="3.72"/><circle id="Gumb-9" data-name="Gumb" class="cls-19" cx="159.1" cy="348.13" r="3.72"/><circle id="Gumb-10" data-name="Gumb" class="cls-19" cx="134.74" cy="348.13" r="3.72"/></g><circle id="Krog-2" data-name="Krog" class="cls-1" cx="146.66" cy="111.83" r="109"/></g></g></svg>