<svg xmlns="http://www.w3.org/2000/svg" xmlns:xlink="http://www.w3.org/1999/xlink" viewBox="0 0 118.33 362.48"><defs><style>.cls-1{fill:#58469f;}.cls-2{clip-path:url(#clip-path);}.cls-11,.cls-3{fill:#eed1bf;}.cls-4{fill:#fbc5aa;}.cls-5{fill:#a862a7;}.cls-6{fill:#ebae8a;}.cls-7{fill:none;stroke:#c1c0db;stroke-width:0.57px;}.cls-11,.cls-7{stroke-miterlimit:10;}.cls-8{fill:#fff;}.cls-9{fill:#514835;}.cls-10{fill:#cabcdc;}.cls-11{stroke:#ebae8a;stroke-width:0.7px;}.cls-12{fill:#5a3b34;}.cls-13{fill:#d55225;}.cls-14{fill:#f5e6c1;}.cls-15{fill:#ffebc6;}</style><clipPath id="clip-path" transform="translate(0.23)"><circle class="cls-1" cx="59.05" cy="59.05" r="59.05"/></clipPath></defs><g id="Layer_2" data-name="Layer 2"><g id="Glavno_Besedilo" data-name="Glavno Besedilo"><circle class="cls-1" cx="59.28" cy="59.05" r="59.05"/><g class="cls-2"><path class="cls-3" d="M8.45,199.13S5.14,225.26,23,227.89V198.5Z" transform="translate(0.23)"/><path class="cls-3" d="M106.71,202.05s3.32,26.13-14.59,28.76v-29.4Z" transform="translate(0.23)"/><path class="cls-4" d="M38.62,98.3s8.1-.69,8.47-11.76H67S67.79,101,77.28,98.3l-.86,8.31L57,115.39l-16.83-5.13-4.1-9.3Z" transform="translate(0.23)"/><path class="cls-5" d="M-.23,209.21,29,208.08V125.17s-6.76-34.34-17.16-15.7Q3.25,161.61-.23,209.21Z" transform="translate(0.23)"/><path class="cls-5" d="M117.2,209.21l-29.26-1.13V125.17s6.76-34.34,17.16-15.7Q113.73,161.61,117.2,209.21Z" transform="translate(0.23)"/><polygon class="cls-5" points="62.85 248.9 50.66 362.48 36.71 362.48 25.94 248.9 62.85 248.9"/><polygon class="cls-5" points="95.7 248.9 83.57 362.48 69.7 362.48 58.99 248.9 95.7 248.9"/><path class="cls-6" d="M91.13,187a165.48,165.48,0,0,1-.76-37.17C96,142.09,96.2,125,96.19,122.35c3.15-9.35,6.5-13.1,9.23-13.41,6.67-.75-9.85-11.21-20-11.21H77c-2.77,7.17-10.38,12.32-19.35,12.32S41,104.9,38.25,97.73H29.84c-10.2,0-26.71,10.46-20,11.21,2.68.31,6,4,9.1,13,0,0-.36,19.74,6,28.08a165.48,165.48,0,0,1-.78,37L1.49,289.84s11.88,12.28,46.48,0c0,0,23.49,9.13,44.15,0,0,0,17.23,7.32,25.41,0Z" transform="translate(0.23)"/><path class="cls-7" d="M24.08,191.72c.08-6.82,34.54,27.29,67.05,0" transform="translate(0.23)"/><path class="cls-3" d="M54.77,19.51h6.16A22.19,22.19,0,0,1,83.12,41.7V67.06A24.61,24.61,0,0,1,58.51,91.66H57.18A24.61,24.61,0,0,1,32.57,67.06V41.7A22.19,22.19,0,0,1,54.77,19.51Z"/><path class="cls-8" d="M50.63,53.13c.06-4.49-13.87-4.65-13.92-.17C36.66,57,50.58,57.17,50.63,53.13Z" transform="translate(0.23)"/><path class="cls-8" d="M78.62,53.13c.06-4.49-13.87-4.65-13.92-.17C64.65,57,78.57,57.17,78.62,53.13Z" transform="translate(0.23)"/><circle class="cls-9" cx="43.47" cy="52.88" r="2.3"/><circle class="cls-9" cx="71.89" cy="52.88" r="2.3"/><path class="cls-10" d="M35.84,53.22s5.92-5.94,16.39,0C52.23,53.22,43.13,43.15,35.84,53.22Z" transform="translate(0.23)"/><path class="cls-10" d="M63.72,53.22s5.92-5.94,16.39,0C80.11,53.22,71,43.15,63.72,53.22Z" transform="translate(0.23)"/><path class="cls-11" d="M53.94,67s5.53,2.13,7.35.31c.78-.79-3.45-16.49-2.07-16.16" transform="translate(0.23)"/><path class="cls-11" d="M37.29,47.56s4.93-5.4,15.62,0" transform="translate(0.23)"/><path class="cls-11" d="M64.49,48.21s4.93-5.4,15.62,0" transform="translate(0.23)"/><path class="cls-12" d="M68.84,75.34a8.72,8.72,0,0,1-4.35,4.47c-.82-2.81-15.76-1.72-15.81-1.72a10.4,10.4,0,0,1-2.28-2.75Z" transform="translate(0.23)"/><path class="cls-13" d="M64.49,79.81h0a14.71,14.71,0,0,1-6.18,1.48,13.23,13.23,0,0,1-9.63-3.2S63.67,77,64.49,79.81Z" transform="translate(0.23)"/><polygon class="cls-12" points="48.9 78.09 48.9 78.09 48.9 78.09 48.9 78.09"/><path class="cls-3" d="M82.46,49.18S88.8,47.41,87,56.9a76.42,76.42,0,0,1-4.5,15.37Z" transform="translate(0.23)"/><path class="cls-14" d="M57.6,27.37h0Z" transform="translate(0.23)"/><line class="cls-14" x1="57.84" y1="27.37" x2="57.84" y2="27.37"/><path class="cls-15" d="M89.11,105.14s-3.16-.68-5.41-7.8a69.69,69.69,0,0,0-13.19-9c3.1-1.81,5.9-5.2,8.1-8.48.36-.54.71-1.08,1-1.62A5.44,5.44,0,0,1,80.9,76c1.26-1.7.09-3.45.73-5,.05-1.76.16-3.53.28-5.3.51-7.08,1.11-14.13-1.34-20.56-.2-.54-.42-1-.65-1.53A15.16,15.16,0,0,0,76.61,39a13.72,13.72,0,0,0-1.27-1.06c-3.1-2.67-7.18-2.67-11.3-2.41-.87.09-1.68.22-2.42.37-2.22.44-3.78,1-4,1h0c-.17,0-.94-.28-2.11-.59A31,31,0,0,0,51,35.44a18.23,18.23,0,0,0-5.72.19,16,16,0,0,0-3,.91,13.06,13.06,0,0,0-2.79,1.64A37.89,37.89,0,0,0,36.1,42c-.29.64-.59,1.27-.88,1.88a24,24,0,0,0-1.9,5.1c-.16.7-.3,1.41-.42,2.12a32.41,32.41,0,0,0-.31,6.55c0,.74.1,1.49.18,2.23s-.05,1.3,0,1.94c-.16,6.08-1.33,13.08,3.74,17.29.52.71,1.05,1.41,1.58,2.09,2.65,3.41,5.19,6.3,5.19,6.3-1.61-1-3.5-.45-5.43,1a17.87,17.87,0,0,0-1.93,1.75A12.62,12.62,0,0,0,31,98.91c-.22.57-.44,1.08-.66,1.55-2,4.21-4.2,4.68-4.2,4.68s-.14-.82-.35-2.32c-.11-.75-.23-1.67-.43-2.71-3.82-6.55-2.66-13.55-.36-20.72.12-.86.23-1.73.29-2.6a23.57,23.57,0,0,0,.05-2.66c-.07-.71-.15-1.42-.22-2.13-.38-3.53-.68-7,.47-10.52.32-.89.61-1.76.87-2.58s.48-1.59.64-2.26.33-1.08.48-1.63a15.71,15.71,0,0,0,.37-1.71,3.13,3.13,0,0,0,0-2c-.14-.76-.25-1.52-.32-2.28s-.11-1.51-.11-2.25a11.94,11.94,0,0,1-.2-2.49,12.62,12.62,0,0,1,.32-2.38c.19-.75.4-1.5.65-2.23s.52-1.45.82-2.16.6-1.37.92-2,.64-1.35,1-2.06.59-1.61.93-2.41.71-1.6,1.11-2.37q.34-.93.75-1.77c.27-.56.56-1.1.87-1.61,3.94-7.26,11.89-10.82,20-11.08.9,0,1.79,0,2.68,0a22.65,22.65,0,0,1,12.37,2.11c.78.36,1.54.75,2.29,1.18,5.59,4.35,10.84,9,14.43,15.35a10.51,10.51,0,0,1,.14,2.33,13.86,13.86,0,0,1,.63,2.29,11.22,11.22,0,0,1,.19,2.4A11.75,11.75,0,0,1,87,42c.43,5.62,1.14,11.19,1.65,16.73.08.79.15,1.58.21,2.38,1.43,6.79,3.76,13.79,1.2,21.53-.16.76-.34,1.5-.55,2.24s-.45,1.47-.71,2.19c0,.76-.08,1.53-.11,2.3a51.8,51.8,0,0,0,.19,6.83,9.65,9.65,0,0,0,.92,2.1,12.77,12.77,0,0,1-.14,2.79C89.35,103.67,89.11,105.14,89.11,105.14Z" transform="translate(0.23)"/></g></g></g></svg>