<svg xmlns="http://www.w3.org/2000/svg" xmlns:xlink="http://www.w3.org/1999/xlink" viewBox="0 0 118.1 362.53"><defs><style>.cls-1{fill:#58469f;}.cls-2{clip-path:url(#clip-path);}.cls-12,.cls-13,.cls-3{fill:#eed1bf;}.cls-4{fill:#fbc5aa;}.cls-5{fill:#d8dcec;}.cls-6{fill:#d55225;}.cls-7{fill:#065;}.cls-8{fill:none;stroke:#c1c0db;stroke-width:0.53px;}.cls-12,.cls-13,.cls-8{stroke-miterlimit:10;}.cls-9{fill:#fff;}.cls-10{fill:#514835;}.cls-11{fill:#cabcdc;}.cls-12,.cls-13{stroke:#ebae8a;}.cls-12{stroke-width:0.73px;}.cls-13{stroke-width:0.36px;}.cls-14{fill:#5a3b34;}.cls-15{fill:#231f20;}.cls-16{fill:#c26b9b;}</style><clipPath id="clip-path"><circle class="cls-1" cx="59.05" cy="59.05" r="59.05"/></clipPath></defs><title>daughter in law</title><g id="Layer_2" data-name="Layer 2"><g id="Glavno_Besedilo" data-name="Glavno Besedilo"><circle class="cls-1" cx="59.05" cy="59.05" r="59.05"/><g class="cls-2"><path class="cls-3" d="M11.81,197s-3.1,24.43,13.64,26.88V196.43Z"/><path class="cls-3" d="M103.67,199.75s3.1,24.43-13.64,26.88V199.16Z"/><path class="cls-4" d="M40,102.76s7.57-.64,7.92-11h18.6s.76,13.52,9.63,11l-.8,7.77-18.12,8.21-15.73-4.8-3.84-8.69Z"/><path class="cls-5" d="M3.69,206.44,31,205.39V127.88S24.72,95.77,15,113.2Q6.93,161.94,3.69,206.44Z"/><path class="cls-5" d="M113.47,206.44l-27.35-1.05V127.88s6.32-32.11,16-14.68Q110.23,161.94,113.47,206.44Z"/><polygon class="cls-3" points="62.45 243.55 51.05 349.73 38.01 349.73 27.94 243.55 62.45 243.55"/><polygon class="cls-3" points="93.16 243.55 81.82 349.73 68.85 349.73 58.84 243.55 93.16 243.55"/><path class="cls-6" d="M89.1,190.1a170.86,170.86,0,0,1-.71-36.58c5.3-7.64,5.45-24.43,5.44-27.07,2.95-9.19,6.08-12.88,8.63-13.19,6.24-.74-9.21-11-18.74-11H75.85a19.08,19.08,0,0,1-18.09,12.11,19.08,19.08,0,0,1-18.09-12.11H31.8c-9.53,0-25,10.29-18.74,11,2.51.3,5.6,3.9,8.51,12.83,0,0-.34,19.42,5.57,27.63a171.06,171.06,0,0,1-.73,36.38L5.29,291.27s11.11,12.08,43.46,0c0,0,22,9,41.28,0,0,0,16.1,7.2,23.75,0Z"/><path class="cls-3" d="M38,349.73s-9.65,7.61-16.84,7.46l29.89.22v-7.68Z"/><path class="cls-7" d="M51.06,349.73v10.74h-7.9v-3.06s-17.41,6.4-25.06,4.89c0,0-8.72-1.17,4.66-6,10-3.61,12-4.36,12-4.36"/><path class="cls-3" d="M81.89,349.73s9.65,7.61,16.84,7.46l-29.89.22v-7.68Z"/><path class="cls-7" d="M68.85,349.73v10.74h7.9v-3.06s17.41,6.4,25.06,4.89c0,0,8.72-1.17-4.66-6-10-3.61-12-4.36-12-4.36"/><path class="cls-8" d="M26.41,190.09c.07-6.38,32.29,25.52,62.69,0"/><path class="cls-3" d="M56.47,23.77h4.77A21.92,21.92,0,0,1,83.15,45.69V75a24.3,24.3,0,0,1-24.3,24.3h0A24.3,24.3,0,0,1,34.55,75V45.69A21.92,21.92,0,0,1,56.47,23.77Z"/><path class="cls-9" d="M53.11,59c.06-4.69-14.52-4.87-14.58-.18C38.48,63,53.06,63.21,53.11,59Z"/><path class="cls-9" d="M80.57,59C80.62,54.28,66,54.1,66,58.79,65.93,63,80.51,63.21,80.57,59Z"/><circle class="cls-10" cx="45.82" cy="58.71" r="2.41"/><circle class="cls-10" cx="73.54" cy="58.71" r="2.41"/><path class="cls-11" d="M37.62,59.07s6.19-6.22,17.15,0C54.77,59.07,45.24,48.53,37.62,59.07Z"/><path class="cls-11" d="M65,59.07s6.19-6.22,17.15,0C82.12,59.07,72.59,48.53,65,59.07Z"/><path class="cls-12" d="M55,73.51s5.79,2.23,7.69.32c.82-.82-3.61-17.26-2.16-16.92"/><path class="cls-13" d="M37.56,53.14s5.16-5.65,16.35,0"/><path class="cls-13" d="M66,53.82s5.16-5.65,16.35,0"/><path class="cls-14" d="M68.79,82.23a8.79,8.79,0,0,1-3.85,4.69c-.73-2.95-14-1.8-14-1.8a11,11,0,0,1-2-2.89A42.46,42.46,0,0,0,68.79,82.23Z"/><path class="cls-6" d="M64.94,86.91h0a11.47,11.47,0,0,1-5.48,1.55,10.72,10.72,0,0,1-8.55-3.35S64.21,84,64.94,86.91Z"/><polygon class="cls-14" points="50.91 85.11 50.91 85.11 50.91 85.11 50.91 85.11"/><path class="cls-3" d="M82.74,54.84s6.09-1.86,4.32,8.08A85.46,85.46,0,0,1,82.74,79Z"/><path class="cls-15" d="M32.86,68.52c.18-1.18.36-2.4.57-3.63s.45-2.47.74-3.68c.45-1.15.92-2.3,1.41-3.43s1-2.24,1.58-3.32c.78-3.31,3.42-4.89,5.25-7.33a19.5,19.5,0,0,1,2-1.61c3-1.75,6.18-3.33,9.66-1.79a39.43,39.43,0,0,1,4.27.7c1.4.31,2.75.68,4,1.1l3,.87c1,.29,2,.56,3,.8,1.66.41,3.28.77,4.84,1A18.25,18.25,0,0,0,92.1,40.3h2.65A29.86,29.86,0,0,0,82.41,26.19a37.08,37.08,0,0,0-3.35-1.81,48.33,48.33,0,0,0-11.37-3.73q-2-.38-4-.61a45.94,45.94,0,0,0-20,1.83q-1.92.62-3.77,1.42c-9.91,3.64-15.71,14.17-16.8,24.31a20.84,20.84,0,0,0,.3,3.88,18.12,18.12,0,0,0,2.73,7,18.18,18.18,0,0,0,2.74,2.9,29.23,29.23,0,0,0,2.25,2.88A19.59,19.59,0,0,1,32,66.8,18.69,18.69,0,0,0,32.86,68.52Z"/><circle class="cls-15" cx="58.12" cy="20.2" r="13.29"/><path class="cls-3" d="M35.21,55.88S29.11,54,30.89,64a85.46,85.46,0,0,0,4.32,16.1Z"/><ellipse class="cls-16" cx="32.89" cy="76.51" rx="1.91" ry="2.07"/><ellipse class="cls-16" cx="84.65" cy="75.06" rx="1.91" ry="2.07"/></g></g></g></svg>