<svg xmlns="http://www.w3.org/2000/svg" xmlns:xlink="http://www.w3.org/1999/xlink" viewBox="0 0 118.33 362.48"><defs><style>.cls-1{fill:#58469f;}.cls-2{clip-path:url(#clip-path);}.cls-3{fill:#00a881;stroke:#489086;stroke-width:0.59px;}.cls-12,.cls-3,.cls-8{stroke-miterlimit:10;}.cls-12,.cls-4{fill:#eed1bf;}.cls-5{fill:#fbc5aa;}.cls-6{fill:#a862a7;}.cls-7{fill:#ebae8a;}.cls-8{fill:none;stroke:#c1c0db;stroke-width:0.57px;}.cls-9{fill:#fff;}.cls-10{fill:#514835;}.cls-11{fill:#cabcdc;}.cls-12{stroke:#ebae8a;stroke-width:0.7px;}.cls-13{fill:#5a3b34;}.cls-14{fill:#d55225;}.cls-15{fill:#f5e6c1;}.cls-16{fill:#ffebc6;}</style><clipPath id="clip-path"><circle class="cls-1" cx="59.28" cy="59.05" r="59.05"/></clipPath></defs><title>daughter</title><g id="Layer_2" data-name="Layer 2"><g id="Glavno_Besedilo" data-name="Glavno Besedilo"><circle class="cls-1" cx="59.28" cy="59.05" r="59.05"/><g class="cls-2"><path class="cls-3" d="M97.19,198.35"/><path class="cls-4" d="M8.68,199.13s-3.32,26.13,14.59,28.76V198.5Z"/><path class="cls-4" d="M106.94,202.05s3.32,26.13-14.59,28.76V201.41Z"/><path class="cls-5" d="M38.84,98.3s8.1-.69,8.47-11.76H67.21S68,101,77.51,98.3l-.86,8.31-19.38,8.78-16.83-5.14L36.34,101Z"/><path class="cls-6" d="M0,209.21l29.26-1.12V125.17S22.5,90.83,12.1,109.47Q3.46,161.61,0,209.21Z"/><path class="cls-6" d="M117.42,209.21l-29.26-1.12V125.17s6.76-34.35,17.16-15.7Q114,161.61,117.42,209.21Z"/><polygon class="cls-6" points="62.85 248.9 50.66 362.48 36.71 362.48 25.94 248.9 62.85 248.9"/><polygon class="cls-6" points="95.7 248.9 83.57 362.48 69.7 362.48 58.99 248.9 95.7 248.9"/><path class="cls-7" d="M91.36,187a165,165,0,0,1-.76-37.17c5.67-7.77,5.83-24.82,5.81-27.51,3.15-9.34,6.5-13.09,9.23-13.4,6.67-.75-9.85-11.21-20-11.21H77.18C74.42,104.9,66.8,110,57.83,110S41.24,104.9,38.48,97.73H30.06c-10.19,0-26.71,10.46-20,11.21,2.69.3,6,4,9.11,13,0,0-.36,19.74,6,28.07a165.21,165.21,0,0,1-.78,37L1.71,289.84s11.89,12.28,46.48,0c0,0,23.49,9.12,44.15,0,0,0,17.22,7.32,25.41,0Z"/><path class="cls-8" d="M24.31,191.72c.08-6.82,34.54,27.29,67.05,0"/><path class="cls-4" d="M54.77,19.51h6.16A22.19,22.19,0,0,1,83.12,41.7V67.06A24.61,24.61,0,0,1,58.51,91.66H57.18A24.61,24.61,0,0,1,32.57,67.06V41.7A22.19,22.19,0,0,1,54.77,19.51Z"/><path class="cls-9" d="M50.86,53.13C50.92,48.64,37,48.48,36.94,53,36.89,57,50.81,57.17,50.86,53.13Z"/><path class="cls-9" d="M78.85,53.13C78.9,48.64,65,48.48,64.92,53,64.87,57,78.8,57.17,78.85,53.13Z"/><circle class="cls-10" cx="43.47" cy="52.88" r="2.3"/><circle class="cls-10" cx="71.89" cy="52.88" r="2.3"/><path class="cls-11" d="M36.07,53.22s5.92-5.94,16.38,0C52.45,53.22,43.35,43.15,36.07,53.22Z"/><path class="cls-11" d="M64,53.22s5.92-5.94,16.38,0C80.33,53.22,71.23,43.15,64,53.22Z"/><path class="cls-12" d="M54.17,67s5.53,2.13,7.34.31c.78-.79-3.45-16.49-2.07-16.16"/><path class="cls-12" d="M37.52,47.56s4.92-5.4,15.61,0"/><path class="cls-12" d="M64.72,48.21s4.92-5.4,15.61,0"/><path class="cls-13" d="M69.06,75.34a8.68,8.68,0,0,1-4.34,4.47C63.9,77,49,78.09,48.9,78.09a10.57,10.57,0,0,1-2.28-2.76Z"/><path class="cls-14" d="M64.72,79.81h0a14.7,14.7,0,0,1-6.17,1.48,13.24,13.24,0,0,1-9.64-3.2C49,78.09,63.9,77,64.72,79.81Z"/><polygon class="cls-13" points="48.9 78.09 48.9 78.09 48.9 78.09 48.9 78.09"/><path class="cls-4" d="M82.69,49.18S89,47.41,87.18,56.9a76.55,76.55,0,0,1-4.49,15.37Z"/><path class="cls-15" d="M57.83,27.37h0Z"/><line class="cls-15" x1="57.84" y1="27.37" x2="57.84" y2="27.37"/><path class="cls-16" d="M89.33,105.14s-3.15-.69-5.41-7.8a69.09,69.09,0,0,0-13.18-9c3.1-1.81,5.9-5.2,8.1-8.48.37-.55.71-1.09,1-1.62A5.41,5.41,0,0,1,81.12,76c1.26-1.69.1-3.44.73-5,.05-1.76.16-3.53.29-5.3.5-7.08,1.1-14.13-1.35-20.56q-.3-.8-.65-1.52A15,15,0,0,0,76.83,39a13.09,13.09,0,0,0-1.27-1.06c-3.1-2.67-7.18-2.67-11.3-2.41-.86.09-1.68.23-2.42.37-2.22.44-3.78,1-4,1h0c-.17,0-.94-.28-2.11-.59a31.36,31.36,0,0,0-4.51-.86,18.4,18.4,0,0,0-5.72.2,15.38,15.38,0,0,0-3,.91,12.79,12.79,0,0,0-2.79,1.63A37.22,37.22,0,0,0,36.33,42l-.88,1.88a23.56,23.56,0,0,0-1.9,5.1q-.25,1-.42,2.12a31.73,31.73,0,0,0-.32,6.56q.06,1.11.18,2.23c0,.66,0,1.3,0,1.94-.16,6.08-1.33,13.08,3.74,17.3.52.7,1.05,1.41,1.58,2.09,2.65,3.41,5.19,6.3,5.19,6.3-1.61-1.05-3.5-.45-5.43,1a18.6,18.6,0,0,0-1.93,1.75,12.67,12.67,0,0,0-4.93,8.63c-.22.56-.44,1.08-.66,1.55-2,4.22-4.19,4.69-4.19,4.69s-.14-.83-.35-2.32c-.11-.75-.23-1.67-.43-2.71-3.82-6.55-2.66-13.55-.36-20.72.12-.86.23-1.73.29-2.6a23.84,23.84,0,0,0,.05-2.66c-.07-.71-.15-1.42-.23-2.12-.38-3.53-.68-7,.47-10.53.32-.88.61-1.76.87-2.58s.48-1.59.64-2.25.33-1.08.48-1.64.28-1.12.37-1.71a3.15,3.15,0,0,0,0-2q-.22-1.15-.32-2.28t-.11-2.26a11.39,11.39,0,0,1-.2-2.49,12.16,12.16,0,0,1,.32-2.37q.28-1.14.65-2.23t.82-2.16q.44-1,.92-2c.32-.68.65-1.35,1-2.06s.59-1.61.93-2.41.71-1.59,1.11-2.37q.34-.93.75-1.77t.87-1.61c3.94-7.26,11.89-10.83,20-11.08.9,0,1.79,0,2.68,0a22.56,22.56,0,0,1,12.37,2.11c.78.36,1.54.75,2.29,1.17,5.59,4.35,10.84,9,14.43,15.36a10.69,10.69,0,0,1,.15,2.32,15,15,0,0,1,.63,2.29,11.64,11.64,0,0,1,.19,2.41A12.27,12.27,0,0,1,87.27,42c.43,5.61,1.13,11.18,1.65,16.73q.11,1.19.21,2.38c1.42,6.79,3.76,13.79,1.19,21.53q-.23,1.13-.55,2.24t-.7,2.19Q89,88.21,89,89.36a51.2,51.2,0,0,0,.19,6.84,9.83,9.83,0,0,0,.92,2.1,12.69,12.69,0,0,1-.15,2.79C89.58,103.67,89.33,105.14,89.33,105.14Z"/></g></g></g></svg>