<svg xmlns="http://www.w3.org/2000/svg" xmlns:xlink="http://www.w3.org/1999/xlink" viewBox="0 0 577.5 529"><defs><style>.cls-1,.cls-2,.cls-30{fill:#58469f;}.cls-2,.cls-29,.cls-3,.cls-30{stroke:#58469f;}.cls-11,.cls-12,.cls-16,.cls-17,.cls-2,.cls-29,.cls-3,.cls-30{stroke-miterlimit:10;}.cls-2{stroke-width:8.5px;}.cls-16,.cls-17,.cls-20,.cls-29,.cls-3{fill:none;}.cls-3{stroke-width:7.35px;}.cls-4{clip-path:url(#clip-path);}.cls-11,.cls-12,.cls-5{fill:#eed1bf;}.cls-6{fill:#fbc5aa;}.cls-7{fill:#d8dcec;}.cls-8{fill:#fff;}.cls-9{fill:#514835;}.cls-10{fill:#cabcdc;}.cls-11,.cls-12{stroke:#ebc35c;}.cls-11{stroke-width:0.72px;}.cls-12{stroke-width:1.07px;}.cls-13{fill:#5a3b34;}.cls-14{fill:#d55225;}.cls-15{fill:#c1c0db;}.cls-16,.cls-17{stroke:#231f20;}.cls-16{stroke-width:0.36px;}.cls-17{stroke-width:0.33px;}.cls-18{fill:#d1bbae;}.cls-19{fill:#e6a454;}.cls-21{fill:#0068ac;}.cls-22{font-size:15px;fill:#ffffec;font-family:Raleway-Bold, Raleway;font-weight:700;}.cls-23{letter-spacing:-0.01em;}.cls-24{letter-spacing:0em;}.cls-25{letter-spacing:-0.01em;}.cls-26{letter-spacing:-0.02em;}.cls-27{letter-spacing:-0.01em;}.cls-28{letter-spacing:-0.03em;}.cls-29{stroke-width:9.06px;}.cls-30{stroke-width:10.26px;}</style><clipPath id="clip-path"><circle class="cls-1" cx="374.2" cy="59.05" r="59.05"/></clipPath></defs><title>Asset 1</title><g id="Layer_2" data-name="Layer 2"><g id="Glavno_Besedilo" data-name="Glavno Besedilo"><circle class="cls-1" cx="221" cy="68" r="59"/><circle class="cls-1" cx="59" cy="246" r="59"/><circle class="cls-1" cx="221" cy="246" r="59"/><circle class="cls-1" cx="373" cy="246" r="59"/><circle class="cls-1" cx="517" cy="246" r="59"/><circle class="cls-1" cx="380" cy="441" r="59"/><circle class="cls-1" cx="146" cy="441" r="59"/><circle class="cls-1" cx="517" cy="441" r="59"/><line class="cls-2" x1="273.82" y1="68" x2="322" y2="68"/><line class="cls-2" x1="117.82" y1="246" x2="166" y2="246"/><line class="cls-2" x1="423.82" y1="250" x2="472" y2="250"/><polyline class="cls-3" points="222.82 204.5 222.82 169 373 169 373 204.5"/><circle class="cls-1" cx="374.2" cy="59.05" r="59.05"/><g class="cls-4"><path class="cls-5" d="M323.44,192.6s-3.34,26.4,14.75,29.06V192Z"/><path class="cls-5" d="M422.72,195.55s3.35,26.4-14.74,29V194.91Z"/><path class="cls-6" d="M353.92,90.73s8.18-.69,8.56-11.88h20.09S383.4,93.46,393,90.73l-.87,8.4L372.54,108l-17-5.19-4.15-9.39Z"/><path class="cls-7" d="M314.68,202.78l29.56-1.13V117.88S337.4,83.18,326.9,102Q318.17,154.69,314.68,202.78Z"/><path class="cls-7" d="M433.31,202.78l-29.56-1.13V117.88s6.83-34.7,17.33-15.87Q429.81,154.69,433.31,202.78Z"/><path class="cls-5" d="M371.35,17.21h4.51A20.75,20.75,0,0,1,396.61,38V64.76a23,23,0,0,1-23,23h0a23,23,0,0,1-23-23V38a20.75,20.75,0,0,1,20.75-20.75Z"/><path class="cls-8" d="M366.78,50.05c.06-3.71-13.56-3.85-13.61-.15C353.12,53.25,366.73,53.39,366.78,50.05Z"/><path class="cls-8" d="M394.15,50.05c.05-3.71-13.56-3.85-13.62-.15C380.49,53.25,394.1,53.39,394.15,50.05Z"/><circle class="cls-9" cx="359.55" cy="49.84" r="2.25"/><circle class="cls-9" cx="387.34" cy="49.84" r="2.25"/><path class="cls-10" d="M352.32,50.17s5.78-5.81,16,0C368.34,50.17,359.44,40.33,352.32,50.17Z"/><path class="cls-10" d="M379.58,50.17s5.79-5.81,16,0C395.6,50.17,386.7,40.33,379.58,50.17Z"/><path class="cls-11" d="M370,65.67s5.41,2.36,7.18.34c.77-.87-3.37-18.21-2-17.85"/><path class="cls-12" d="M353.74,44.64s4.81-5.28,15.27,0"/><path class="cls-12" d="M380.33,45.28s4.82-5.28,15.27,0"/><path class="cls-13" d="M383.87,71.84a9,9,0,0,1-3.87,4.8c-.72-3-14-1.84-14.07-1.84a11.33,11.33,0,0,1-2-3A51.35,51.35,0,0,0,383.87,71.84Z"/><path class="cls-14" d="M380,76.64h0a11.41,11.41,0,0,1-5.49,1.59,10.67,10.67,0,0,1-8.58-3.43C366,74.8,379.28,73.62,380,76.64Z"/><polygon class="cls-13" points="365.93 74.8 365.93 74.8 365.93 74.8 365.93 74.8"/><path class="cls-5" d="M396.47,46.2s6.2-1.73,4.39,7.55a74.75,74.75,0,0,1-4.39,15Z"/><path class="cls-15" d="M348.19,59.36c.15-1.39.35-2.81.59-4.23A27.59,27.59,0,0,1,352,44.24a19.73,19.73,0,0,1,2.07-3c1.36-1,2.41-3.08,3.93-3.56a13.89,13.89,0,0,1,2.49-1A17.26,17.26,0,0,1,363.1,36a55.18,55.18,0,0,1,6.49.2,17,17,0,0,1,5.91,1.66c.93.28,1.86.56,2.79.81a23.88,23.88,0,0,1,3.46-.52,22.46,22.46,0,0,1,3.48,0,9.83,9.83,0,0,1,1.81,0,9.5,9.5,0,0,1,1.7.36c2.56.6,3.61,2.74,5.57,4,.37.46.74,1,1.08,1.46s.66,1,1,1.57A25.34,25.34,0,0,1,397.9,49a25.82,25.82,0,0,1,1,3.4c.32.67.94.67,1.56,1,0-.74.09-1.48.17-2.21s.18-1.46.3-2.18c4.41-4.45,9.21-9.79,8.77-16.86a10.65,10.65,0,0,0-.41-1.89,10.5,10.5,0,0,0-.8-1.88,20.16,20.16,0,0,0-1.07-1.76,41.32,41.32,0,0,0-7.27-7.79,15.57,15.57,0,0,1-.85-2,12.09,12.09,0,0,0-.84-1.38,13.18,13.18,0,0,0-1-1.26A13.3,13.3,0,0,0,396,12.68a19.83,19.83,0,0,0-7.07-2.74c-.63-.12-1.28-.22-1.93-.29-5.17-.88-10.44,1.78-15.83,1.06-.6-.13-1.19-.27-1.78-.42l-1.75-.49a14.29,14.29,0,0,0-16,2.39,18,18,0,0,0-1.39,1.37,17.75,17.75,0,0,0-3.9,6.8l-1.09,1.72c-.35.28-.69.55-1.05.82a39.64,39.64,0,0,1-4.45,3,8.69,8.69,0,0,0-1.21,1.69,15.12,15.12,0,0,0-.87,2c-.22.63-.42,1.26-.59,1.91-1.39,5.14-1.18,10.71,3,14.6.46.46.93.9,1.4,1.34,2.34,2.2,4.78,4.32,5.09,7.53.26.93.53,1.86.8,2.76C347.84,58.77,348.19,59.36,348.19,59.36Z"/><path class="cls-5" d="M350.73,47.2s-6.2-1.74-4.39,7.55a74.75,74.75,0,0,0,4.39,15Z"/><path class="cls-16" d="M368.14,50.33s6-4.51,9.93,0"/><line class="cls-16" x1="348.45" y1="47.16" x2="351.06" y2="49.67"/><line class="cls-16" x1="398.27" y1="46.19" x2="395.16" y2="50"/><circle class="cls-17" cx="359.6" cy="50.33" r="8.54"/><circle class="cls-17" cx="386.61" cy="50.33" r="8.54"/><circle class="cls-18" cx="349.62" cy="67.83" r="1.95"/><circle class="cls-18" cx="397.8" cy="66.83" r="1.95"/><path class="cls-5" d="M349.68,371.56s-9.06,8.22-16.84,8.06l32.3.23v-8.29Z"/><path class="cls-19" d="M365.14,371.56v11.61h-8.53v-3.31s-18.82,6.91-27.08,5.28c0,0-9.42-1.27,5-6.48,10.82-3.9,13-4.71,13-4.71"/><path class="cls-5" d="M400.38,371.56s9.75,8.22,17.53,8.06l-32.3.23v-8.29Z"/><path class="cls-19" d="M385.61,371.56v11.61h8.53v-3.31s18.82,6.91,27.08,5.28c0,0,9.42-1.27-5-6.48-10.82-3.9-13-4.71-13-4.71"/><path class="cls-20" d="M339.24,185.06l0-.26A1.09,1.09,0,0,0,339.24,185.06Z"/><polygon class="cls-21" points="337.73 200.15 337.73 216.06 349.68 371.56 365.14 371.56 376.23 241.65 385.59 371.56 400.38 371.56 413.32 216.06 413.32 200.15 337.73 200.15"/><path class="cls-19" d="M421.4,102.08c-2.75.33-6.13,4.31-9.32,14.25,0,2.86,1.62,21.26-4.1,29.53-1.24,13,3.54,44.79,5.13,58.13-32.3,27.11-74.49-2.79-75.7,2.65,1.56-13.15,3.81-48,2.61-60.83-6.38-8.87-6-29.86-6-29.86-3.15-9.65-6.48-13.55-9.2-13.87-6.74-.8,9.95-11.92,20.25-11.92h8.5c2.79,7.62,10.49,13.09,19.55,13.09s16.76-5.47,19.55-13.09h8.51C411.45,90.16,428.14,101.28,421.4,102.08Z"/></g><rect class="cls-1" x="172" y="127" width="94.25" height="29" rx="14.5"/><rect class="cls-1" x="12" y="305" width="94.25" height="29" rx="14.5"/><rect class="cls-1" x="169" y="305" width="94.25" height="29" rx="14.5"/><rect class="cls-1" x="326" y="305" width="94.25" height="29" rx="14.5"/><rect class="cls-1" x="470" y="305" width="94.25" height="29" rx="14.5"/><rect class="cls-1" x="94" y="500" width="94.25" height="29" rx="14.5"/><rect class="cls-1" x="333" y="500" width="94.25" height="29" rx="14.5"/><rect class="cls-1" x="470" y="500" width="94.25" height="29" rx="14.5"/><text class="cls-22" transform="translate(184 71.95)">Husband</text><text class="cls-22" transform="translate(203 246.95)">Son</text><text class="cls-22" transform="translate(103 443.95)">G<tspan class="cls-23" x="10.88" y="0">r</tspan><tspan x="16.57" y="0">andson</tspan></text><text class="cls-22" transform="translate(333 443.95)">G<tspan class="cls-23" x="10.88" y="0">r</tspan><tspan x="16.57" y="0">andaug</tspan><tspan class="cls-24" x="71.31" y="0">h</tspan><tspan class="cls-25" x="80.29" y="0">t</tspan><tspan x="85.86" y="0">e</tspan><tspan class="cls-26" x="94.84" y="0">r</tspan></text><text class="cls-22" transform="translate(466 443.95)">G<tspan class="cls-23" x="10.88" y="0">r</tspan><tspan x="16.57" y="0">andaug</tspan><tspan class="cls-24" x="71.31" y="0">h</tspan><tspan class="cls-25" x="80.29" y="0">t</tspan><tspan x="85.86" y="0">e</tspan><tspan class="cls-26" x="94.84" y="0">r</tspan></text><text class="cls-22" transform="translate(338 246.95)">Daug<tspan class="cls-24" x="38.13" y="0">h</tspan><tspan class="cls-25" x="47.11" y="0">t</tspan><tspan x="52.68" y="0">e</tspan><tspan class="cls-26" x="61.66" y="0">r</tspan></text><text class="cls-22" transform="translate(483.5 248.45)">Son in l<tspan class="cls-27" x="52.18" y="0">a</tspan><tspan class="cls-28" x="60.58" y="0">w</tspan></text><text class="cls-22" transform="translate(16.7 245.45)">Daug<tspan class="cls-24" x="38.13" y="0">h</tspan><tspan class="cls-25" x="47.11" y="0">t</tspan><tspan x="52.68" y="0">e</tspan><tspan class="cls-26" x="61.66" y="0">r</tspan><tspan x="67.11" y="0" xml:space="preserve"> in </tspan><tspan x="29.13" y="20">l</tspan><tspan class="cls-27" x="33.88" y="20">a</tspan><tspan class="cls-28" x="42.28" y="20">w</tspan></text><line class="cls-29" x1="297.91" y1="169" x2="297.5" y2="68.5"/><line class="cls-2" x1="141.91" y1="403" x2="141.5" y2="246"/><line class="cls-30" x1="483" y1="403" x2="412.82" y2="403"/><line class="cls-2" x1="447.91" y1="246" x2="448.32" y2="403"/></g></g></svg>