<svg xmlns="http://www.w3.org/2000/svg" viewBox="0 0 338.16 431.97"><defs><style>.cls-1{fill:#fbc5aa;}.cls-2{fill:#317b89;}.cls-21,.cls-22,.cls-27,.cls-28,.cls-3,.cls-7,.cls-8{fill:#eed1bf;}.cls-4{fill:#fff;}.cls-5{fill:#514835;}.cls-6{fill:#ebae8a;}.cls-21,.cls-22,.cls-27,.cls-28,.cls-7{stroke:#ebae8a;}.cls-11,.cls-12,.cls-19,.cls-21,.cls-22,.cls-27,.cls-28,.cls-7,.cls-8{stroke-miterlimit:10;}.cls-7{stroke-width:0.74px;}.cls-11,.cls-12,.cls-8{stroke:#231f20;}.cls-8{stroke-width:1.85px;}.cls-9{fill:#5a3b34;}.cls-10{fill:#d55225;}.cls-11,.cls-12,.cls-19{fill:none;}.cls-11{stroke-width:0.39px;}.cls-12{stroke-width:0.36px;}.cls-13{fill:#231f20;}.cls-14{fill:#065;}.cls-15{fill:#007dac;}.cls-16{fill:#44515c;}.cls-17{fill:#004368;}.cls-18{fill:#d8dcec;}.cls-19{stroke:#c1c0db;stroke-width:0.63px;}.cls-20{fill:#cabcdc;}.cls-21{stroke-width:0.86px;}.cls-22{stroke-width:0.42px;}.cls-23{fill:#c26b9b;}.cls-24{fill:#866aa1;}.cls-25{fill:#511c74;}.cls-26{fill:#d9d29a;}.cls-27{stroke-width:0.66px;}.cls-28{stroke-width:0.33px;}.cls-29{fill:#9d4838;}.cls-30{fill:#c9b474;}.cls-31{fill:#c7522f;}</style></defs><g id="Layer_2" data-name="Layer 2"><g id="Glavno_Besedilo" data-name="Glavno Besedilo"><path class="cls-1" d="M48,94.34s10-.75,10.47-12.78H83.06s1,15.72,12.73,12.78l-1.07,9L70.79,112.9,50,107.32,44.92,97.23Z"/><path class="cls-2" d="M144,229.75l-31.23-1.37V127.9s7.22-41.63,18.31-19Q140.3,172.06,144,229.75Z"/><path class="cls-3" d="M40.49,38.33s-7.36-2.06-5.22,9a88.44,88.44,0,0,0,5.22,17.84Z"/><path class="cls-3" d="M67.7,7.85h6.18a28.44,28.44,0,0,1,28.44,28.44v22.4A31.54,31.54,0,0,1,70.8,90.23h0A31.54,31.54,0,0,1,39.26,58.69V36.29A28.44,28.44,0,0,1,67.7,7.85Z"/><path class="cls-4" d="M64,43.5c.06-4.85-15-5-15.07-.19C48.85,47.69,63.92,47.88,64,43.5Z"/><path class="cls-4" d="M94.27,43.5c.06-4.85-15-5-15.07-.19C79.14,47.69,94.22,47.88,94.27,43.5Z"/><circle class="cls-5" cx="55.97" cy="43.23" r="2.49"/><circle class="cls-5" cx="86.73" cy="43.23" r="2.49"/><path class="cls-6" d="M48,43.6s6.4-6.43,17.73,0C65.7,43.6,55.85,32.7,48,43.6Z"/><path class="cls-6" d="M78.14,43.6s6.41-6.43,17.74,0C95.88,43.6,86,32.7,78.14,43.6Z"/><path class="cls-7" d="M68.14,60.67s5.12,2.59,6.81.38c.72-1-3.2-20.08-1.92-19.68"/><path class="cls-8" d="M49.54,37.47s5.33-5.84,16.9,0"/><path class="cls-8" d="M79,38.18s5.32-5.85,16.9,0"/><path class="cls-9" d="M83.68,67.45a13.22,13.22,0,0,1-4.7,7c-.89-4.39-17.07-2.68-17.12-2.67a17,17,0,0,1-2.47-4.31Z"/><path class="cls-10" d="M79,74.43h0a12.33,12.33,0,0,1-17.11-2.67S78.09,70,79,74.43Z"/><polygon class="cls-9" points="61.86 71.75 61.86 71.75 61.86 71.75 61.86 71.75"/><path class="cls-3" d="M101.77,39.23s6.86-1.92,4.87,8.35a82.72,82.72,0,0,1-4.87,16.64Z"/><polygon class="cls-4" points="59.39 67.45 60.08 68.98 83.16 68.98 83.68 67.45 59.39 67.45"/><path class="cls-11" d="M66.85,44s6.61-5,11,0"/><line class="cls-11" x1="41.06" y1="39.59" x2="47.94" y2="43.23"/><line class="cls-11" x1="103.63" y1="39.45" x2="96.75" y2="43.59"/><circle class="cls-12" cx="57.4" cy="43.96" r="9.46"/><circle class="cls-12" cx="87.29" cy="43.96" r="9.46"/><path class="cls-13" d="M44.13,45.72S42,30,48.92,23.83A9.21,9.21,0,0,1,51,22.39a7.25,7.25,0,0,1,1.4-.49c2.58-.73,5.54-.36,8.2-.19.68.07,1.35.13,2,.21C75,23.26,81.37,25.59,81.37,25.59S85.07,22,79,20.07s9.9-.25,14.09,8.49a59.56,59.56,0,0,1,5.12,17.16l3.58,1S111.3,22,100,13.53C93.76,8.88,86.07,3,78.46.89A23.32,23.32,0,0,0,76.18.38a17.75,17.75,0,0,0-2-.3,19.87,19.87,0,0,0-2-.07A17.08,17.08,0,0,0,68,.37c-.71.16-1.39.36-2.06.58s-1.33.48-2,.76c-6.34,3.21-11.88,8.38-18.86,10.08-.67.2-1.33.42-2,.67C40,13.7,37.46,15.61,37.25,19.6c-.16.62-.29,1.23-.39,1.86a16.51,16.51,0,0,0-.14,3.78c0,.46.05.93.05,1.42C36.74,31.93,38.37,38.48,44.13,45.72Z"/><path class="cls-2" d="M0,229.75l31.23-1.37V127.9s-7.22-41.63-18.32-19Q3.7,172.06,0,229.75Z"/><path class="cls-14" d="M106.27,94.34H95.88c-3.41,8.83-12.81,15.18-23.88,15.18s-20.47-6.35-23.88-15.18H37.73c-12.58,0-33,12.89-24.73,13.82,3.46.39,7.75,5.29,11.75,17.62V236.44h94.5V125.78c4-12.33,8.28-17.23,11.75-17.62C139.23,107.23,118.85,94.34,106.27,94.34Z"/><rect class="cls-15" x="24.75" y="236.44" width="94.42" height="31.88"/><polygon class="cls-15" points="72 268.32 56.38 413.73 38.53 413.73 24.75 268.32 72 268.32"/><polygon class="cls-15" points="119.17 268.32 103.64 413.73 85.88 413.73 72.17 268.32 119.17 268.32"/><path class="cls-3" d="M9.57,220.77s-3.69,29.09,16.25,32V220.06Z"/><path class="cls-3" d="M134.74,229.36s3.54,27.89-15.57,30.69V228.68Z"/><path class="cls-16" d="M85.88,413.73v13.8H132s6.09-13.83-21.75-11.24c0,0-6.78-1.2-5.93-9.1"/><path class="cls-16" d="M56.32,413.73v13.8H10.17S4.08,413.7,31.92,416.29c0,0,6.79-1.2,5.94-9.1"/><circle class="cls-17" cx="57.58" cy="145.1" r="17.39"/><path class="cls-3" d="M126.1,237.34s-3.64,28.73,16.05,31.61V236.64Z"/><path class="cls-3" d="M234.13,240.54s3.64,28.73-16,31.62V239.85Z"/><path class="cls-1" d="M159.26,126.48s8.91-.75,9.32-12.93h21.87s.89,15.91,11.32,12.93l-.94,9.14-21.31,9.65L161,139.63l-4.51-10.22Z"/><path class="cls-18" d="M116.56,248.41l32.17-1.23V156s-7.44-37.76-18.86-17.27Q120.38,196.08,116.56,248.41Z"/><path class="cls-18" d="M245.65,248.41l-32.16-1.23V156s7.43-37.76,18.86-17.27Q241.85,196.08,245.65,248.41Z"/><polygon class="cls-3" points="185.66 292.05 172.25 416.92 156.92 416.92 145.08 292.05 185.66 292.05"/><polygon class="cls-3" points="221.77 292.05 208.44 416.92 193.19 416.92 181.41 292.05 221.77 292.05"/><path class="cls-10" d="M217,229.19a201.33,201.33,0,0,1-.84-43c6.23-9,6.41-28.73,6.39-31.84,3.47-10.81,7.16-15.15,10.15-15.5,7.33-.88-10.83-13-22-13h-9.26c-3,8.29-11.41,14.25-21.27,14.25s-18.24-6-21.27-14.25h-9.26c-11.2,0-29.36,12.1-22,13,3,.35,6.58,4.58,10,15.09,0,0-.39,22.84,6.55,32.48a201.25,201.25,0,0,1-.86,42.79l-24.83,119s13.06,14.21,51.1,0c0,0,25.82,10.56,48.54,0,0,0,18.93,8.47,27.93,0Z"/><path class="cls-3" d="M156.92,416.92s-11.34,8.95-19.8,8.77l35.14.25v-9Z"/><path class="cls-14" d="M172.26,416.92v12.63H163V426s-20.48,7.52-29.47,5.75c0,0-10.25-1.38,5.49-7.06,11.77-4.24,14.14-5.12,14.14-5.12"/><path class="cls-3" d="M208.52,416.92s11.35,8.95,19.81,8.77l-35.15.25v-9Z"/><path class="cls-14" d="M193.18,416.92v12.63h9.29V426s20.48,7.52,29.46,5.75c0,0,10.26-1.38-5.48-7.06-11.78-4.24-14.15-5.12-14.15-5.12"/><path class="cls-19" d="M143.28,229.19c.09-7.5,38,30,73.72,0"/><path class="cls-3" d="M178.63,33.59h5.6A25.77,25.77,0,0,1,210,59.37v34.5a28.58,28.58,0,0,1-28.58,28.58h0a28.58,28.58,0,0,1-28.58-28.58V59.37A25.77,25.77,0,0,1,178.63,33.59Z"/><path class="cls-4" d="M174.67,75c.07-5.52-17.07-5.73-17.14-.21C157.47,79.76,174.61,80,174.67,75Z"/><path class="cls-4" d="M207,75c.07-5.52-17.07-5.73-17.14-.21C189.76,79.76,206.9,80,207,75Z"/><circle class="cls-5" cx="166.1" cy="74.68" r="2.84"/><circle class="cls-5" cx="198.71" cy="74.68" r="2.84"/><path class="cls-20" d="M156.46,75.1s7.29-7.31,20.18,0C176.64,75.1,165.43,62.71,156.46,75.1Z"/><path class="cls-20" d="M188.62,75.1s7.28-7.31,20.17,0C208.79,75.1,197.59,62.71,188.62,75.1Z"/><path class="cls-21" d="M176.89,92.08s6.81,2.63,9.05.38c1-1-4.25-20.3-2.55-19.89"/><path class="cls-22" d="M156.39,68.13s6.06-6.64,19.23,0"/><path class="cls-22" d="M189.88,68.94s6.06-6.65,19.23,0"/><path class="cls-9" d="M193.12,102.34a10.34,10.34,0,0,1-4.53,5.51c-.86-3.47-16.44-2.12-16.5-2.12a13.08,13.08,0,0,1-2.38-3.39A50,50,0,0,0,193.12,102.34Z"/><path class="cls-10" d="M188.59,107.85h0a13.6,13.6,0,0,1-6.44,1.82,12.63,12.63,0,0,1-10-3.94C172.15,105.73,187.73,104.38,188.59,107.85Z"/><polygon class="cls-9" points="172.09 105.73 172.09 105.73 172.09 105.73 172.09 105.73"/><path class="cls-3" d="M209.52,70.13s7.17-2.18,5.08,9.51a100,100,0,0,1-5.08,18.93Z"/><path class="cls-13" d="M150.87,86.22c.21-1.39.43-2.82.67-4.27s.54-2.9.88-4.32c.53-1.36,1.08-2.71,1.66-4s1.2-2.63,1.86-3.9c.92-3.89,4-5.75,6.18-8.62a21.7,21.7,0,0,1,2.34-1.89c3.55-2.06,7.27-3.91,11.36-2.11a46.49,46.49,0,0,1,5,.83,48.61,48.61,0,0,1,4.73,1.29l3.54,1c1.18.34,2.34.66,3.5.94,1.95.49,3.86.91,5.69,1.19,6.34,1,12.67-.25,17.7-4.3a22.65,22.65,0,0,0,4.53-5h3.12a35.12,35.12,0,0,0-14.52-16.6,40.32,40.32,0,0,0-3.94-2.13,56.79,56.79,0,0,0-13.37-4.39q-2.31-.45-4.65-.72a54.16,54.16,0,0,0-23.51,2.15q-2.26.73-4.43,1.67c-11.66,4.28-18.47,16.67-19.76,28.59a23.85,23.85,0,0,0,.35,4.56A21.2,21.2,0,0,0,143,74.46a21.07,21.07,0,0,0,3.22,3.41,34.36,34.36,0,0,0,2.65,3.38,23.64,23.64,0,0,1,.92,3C150.42,85.48,150.87,86.22,150.87,86.22Z"/><circle class="cls-13" cx="180.56" cy="29.39" r="15.62"/><path class="cls-3" d="M153.62,71.36s-7.16-2.19-5.08,9.5a101,101,0,0,0,5.08,18.93Z"/><ellipse class="cls-23" cx="150.89" cy="95.61" rx="2.25" ry="2.44"/><ellipse class="cls-23" cx="211.77" cy="93.91" rx="2.25" ry="2.44"/><path class="cls-3" d="M225.57,274.35s-3.67,28.9,16.13,31.8v-32.5Z"/><path class="cls-3" d="M326.83,274.35s3.66,28.9-16.14,31.8v-32.5Z"/><path class="cls-1" d="M256.64,171.78s8.4-.62,8.78-10.72h20.63s.84,13.19,10.68,10.72l-.9,7.58-20.09,8-17.44-4.68L254,174.21Z"/><path class="cls-24" d="M338.16,275.55l-28.89-.33v-76.4s7.46-31.65,18.92-14.47C334.54,216.38,335.57,246.28,338.16,275.55Z"/><path class="cls-24" d="M216.29,275.55l26.93-.33V199s-7.45-31.59-18.92-14.44C218,216.48,218.88,246.33,216.29,275.55Z"/><path class="cls-25" d="M303.91,171.52h-8.39c-2.75,7-10.34,12.08-19.27,12.08s-16.53-5-19.28-12.08h-8.38c-10.15,0-26.61,10.26-20,11,2.8.31,6.26,4.21,9.48,14v97.21h76.28V196.53c3.22-9.8,6.68-13.7,9.48-14C330.51,181.78,314.06,171.52,303.91,171.52Z"/><rect class="cls-26" x="238.52" y="293.74" width="75.75" height="18.27"/><polygon class="cls-26" points="276.43 312.01 262.72 421.16 249.58 417.65 238.51 312.01 276.43 312.01"/><polygon class="cls-26" points="314.27 312.01 301.81 417.65 288.16 420.69 276.56 312.01 314.27 312.01"/><path class="cls-16" d="M249.42,416.44c.6,5.7-4.28,6.56-4.28,6.56-20.07-1.86-15.68,8.1-15.68,8.1h33.26v-9.94Z"/><path class="cls-16" d="M301.93,415.81c-.63,5.9,4.43,6.79,4.43,6.79,20.78-1.93,16.24,8.39,16.24,8.39H288.16v-10.3Z"/><path class="cls-3" d="M273.4,93.22h5.5a25.3,25.3,0,0,1,25.3,25.3v19.92a28.05,28.05,0,0,1-28.05,28.05h0a28.05,28.05,0,0,1-28.05-28.05V118.52a25.3,25.3,0,0,1,25.3-25.3Z"/><path class="cls-6" d="M255.14,128s5.7-5.72,15.77,0C270.91,128,262.15,118.31,255.14,128Z"/><path class="cls-6" d="M282,128s5.7-5.72,15.78,0C297.76,128,289,118.31,282,128Z"/><path class="cls-27" d="M273.08,140.86s4.56,2.31,6.06.34c.65-.85-2.84-17.86-1.7-17.5"/><path class="cls-28" d="M256.54,120.23s4.74-5.2,15,0"/><path class="cls-28" d="M282.72,120.85s4.74-5.19,15,0"/><path class="cls-9" d="M286.91,146.9a11.8,11.8,0,0,1-4.19,6.21c-.79-3.91-15.17-2.39-15.22-2.39a15.07,15.07,0,0,1-2.2-3.82Z"/><path class="cls-10" d="M282.72,153.11h0a10.89,10.89,0,0,1-5.94,2,10.68,10.68,0,0,1-9.28-4.44C267.55,150.72,281.93,149.2,282.72,153.11Z"/><polygon class="cls-9" points="267.5 150.72 267.5 150.72 267.5 150.72 267.5 150.72"/><path class="cls-3" d="M248.5,121.79s-6.11-1.71-4.33,7.43A73.83,73.83,0,0,0,248.5,144Z"/><path class="cls-3" d="M303,121.79s6.1-1.71,4.33,7.43A73.83,73.83,0,0,1,303,144Z"/><path class="cls-29" d="M251.67,126.81s-.87-8.6,1.72-16.18c.18-.5.37-1,.59-1.48a8.43,8.43,0,0,1,.79-1.52,9.87,9.87,0,0,1,1.1-1.32,12.82,12.82,0,0,1,3.72-2.19,9.44,9.44,0,0,1,1.91-.5c.9-.51,2,.19,3,.55a19.16,19.16,0,0,1,2.07,1.48c.67.55,1.33,1.12,2,1.65a5,5,0,0,0,2.11,1.52,2.9,2.9,0,0,0,2.26-.09,20.9,20.9,0,0,1,7.77-2.33,19.79,19.79,0,0,1,2-.08c5-.4,8.47,2.76,12.33,4.87a4.2,4.2,0,0,0,3.95.1,8.44,8.44,0,0,0,1.79-1.1,8.16,8.16,0,0,0,3.05-5.67c0-.71,1.26.33,2,.68s.63.78.84,1.07a22.93,22.93,0,0,0-3.66-7,28.53,28.53,0,0,0-2.55-3.08,27.59,27.59,0,0,0-3-2.71c-.61-.47-1.23-.92-1.87-1.34a25.1,25.1,0,0,0-4-2.14q-.84-.45-1.68-.81c-.57-.24-1.15-.45-1.73-.64s-1.16-.35-1.75-.49a19.16,19.16,0,0,0-2.14-.62c-.71-.16-1.42-.28-2.13-.37a46.69,46.69,0,0,0-7.1.16c-.47,0-.94.12-1.41.2-4.19,1.29-8.41,1.64-12.46,3-.59.22-1.17.47-1.73.74a20.84,20.84,0,0,0-8.49,7.24c-.39.58-.75,1.18-1.09,1.8a28.48,28.48,0,0,0-2.34,5.85c-.22.46-.42.92-.6,1.39-3.41,8.92.6,21.37.6,21.37"/><rect class="cls-30" x="250.25" y="198.61" width="52.63" height="22.2" rx="11.1"/><rect class="cls-31" x="280.68" y="256.07" width="22.2" height="22.2" rx="11.1"/></g></g></svg>