<svg xmlns="http://www.w3.org/2000/svg" viewBox="0 0 386 400.05"><defs><style>.cls-1,.cls-23,.cls-24{fill:#00a881;}.cls-1,.cls-24{stroke:#489086;}.cls-1,.cls-11,.cls-18,.cls-19,.cls-20,.cls-21,.cls-23,.cls-24,.cls-30,.cls-31,.cls-7{stroke-miterlimit:10;}.cls-1{stroke-width:0.62px;}.cls-11,.cls-18,.cls-19,.cls-2,.cls-30,.cls-31{fill:#eed1bf;}.cls-3{fill:#fbc5aa;}.cls-4{fill:#a862a7;}.cls-5{fill:#ebae8a;}.cls-6{fill:#d89f72;}.cls-20,.cls-21,.cls-7{fill:none;}.cls-7{stroke:#c1c0db;stroke-width:0.6px;}.cls-8{fill:#fff;}.cls-9{fill:#514835;}.cls-10{fill:#cabcdc;}.cls-11,.cls-18,.cls-30,.cls-31{stroke:#ebae8a;}.cls-11{stroke-width:0.74px;}.cls-12{fill:#5a3b34;}.cls-13{fill:#d55225;}.cls-14{fill:#f5e6c1;}.cls-15{fill:#ffebc6;}.cls-16{fill:#d8dcec;}.cls-17{fill:#9d4838;}.cls-18{stroke-width:0.69px;}.cls-19{stroke:#e2e0df;stroke-width:1.73px;}.cls-20,.cls-21{stroke:#231f20;}.cls-20{stroke-width:0.37px;}.cls-21{stroke-width:0.34px;}.cls-22{fill:#fbb040;}.cls-23{stroke:#f37443;}.cls-23,.cls-24{stroke-width:0.57px;}.cls-25{fill:#007dac;}.cls-26{fill:#44515c;}.cls-27{fill:#e06a4d;}.cls-28{fill:#004e7c;}.cls-29{fill:#df584f;}.cls-30{stroke-width:0.63px;}.cls-31{stroke-width:0.31px;}.cls-32{fill:#c26b9b;}.cls-33{fill:#ffcf01;}.cls-34{fill:#00a657;}</style></defs><title>family members 05</title><g id="Layer_2" data-name="Layer 2"><g id="Glavno_Besedilo" data-name="Glavno Besedilo"><path class="cls-1" d="M190.48,208.45"/><path class="cls-2" d="M96.89,209.29s-3.5,27.63,15.43,30.4V208.61Z"/><path class="cls-2" d="M200.78,212.37s3.5,27.63-15.43,30.4V211.7Z"/><path class="cls-3" d="M128.78,102.68s8.56-.72,9-12.44h21s.86,15.3,10.89,12.44l-.91,8.79-20.49,9.28-17.79-5.43-4.34-9.82Z"/><path class="cls-4" d="M87.72,219.94l30.94-1.19V131.09s-7.15-36.31-18.14-16.6Q91.38,169.61,87.72,219.94Z"/><path class="cls-4" d="M211.87,219.94l-30.94-1.19V131.09s7.15-36.31,18.14-16.6Q208.2,169.61,211.87,219.94Z"/><polygon class="cls-4" points="154.17 261.91 141.27 381.99 126.53 381.99 115.14 261.91 154.17 261.91"/><polygon class="cls-4" points="188.9 261.91 176.07 381.99 161.41 381.99 150.08 261.91 188.9 261.91"/><path class="cls-5" d="M184.31,196.49a174.47,174.47,0,0,1-.81-39.3c6-8.21,6.16-26.24,6.15-29.09,3.34-9.88,6.88-13.84,9.76-14.17,7.05-.8-10.41-11.85-21.19-11.85h-8.9c-2.92,7.57-11,13-20.46,13s-17.54-5.44-20.46-13h-8.9c-10.78,0-28.24,11.06-21.19,11.85,2.84.32,6.33,4.19,9.63,13.79,0,0-.38,20.87,6.3,29.68a174.67,174.67,0,0,1-.83,39.09L89.53,305.19s12.57,13,49.15,0c0,0,24.83,9.65,46.68,0,0,0,18.21,7.74,26.86,0Z"/><path class="cls-6" d="M126.53,382s-10.91,8.61-19,8.44l33.8.25V382Z"/><path class="cls-5" d="M141.28,382v12.15h-8.93v-3.46s-19.69,7.24-28.34,5.53c0,0-9.86-1.33,5.28-6.78,11.32-4.08,13.6-4.93,13.6-4.93"/><path class="cls-6" d="M176.16,382s10.91,8.61,19,8.44l-33.8.25V382Z"/><path class="cls-5" d="M161.4,382v12.15h8.93v-3.46s19.69,7.24,28.34,5.53c0,0,9.86-1.33-5.28-6.78-11.32-4.08-13.6-4.93-13.6-4.93"/><path class="cls-7" d="M113.41,201.45c.08-7.21,36.52,28.86,70.89,0"/><path class="cls-2" d="M145.62,19.38h6.51a23.46,23.46,0,0,1,23.46,23.46V69.65a26,26,0,0,1-26,26h-1.41a26,26,0,0,1-26-26V42.84a23.46,23.46,0,0,1,23.46-23.46Z"/><path class="cls-8" d="M141.49,54.92c.06-4.74-14.66-4.92-14.72-.18C126.72,59,141.44,59.2,141.49,54.92Z"/><path class="cls-8" d="M171.08,54.92c.06-4.74-14.66-4.92-14.72-.18C156.31,59,171,59.2,171.08,54.92Z"/><circle class="cls-9" cx="133.67" cy="54.66" r="2.44"/><circle class="cls-9" cx="163.72" cy="54.66" r="2.44"/><path class="cls-10" d="M125.85,55s6.25-6.28,17.32,0C143.17,55,133.55,44.38,125.85,55Z"/><path class="cls-10" d="M155.33,55s6.25-6.28,17.32,0C172.65,55,163,44.38,155.33,55Z"/><path class="cls-11" d="M145,69.6s5.85,2.25,7.77.33c.83-.83-3.64-17.43-2.18-17.08"/><path class="cls-11" d="M127.39,49s5.21-5.7,16.51,0"/><path class="cls-11" d="M156.14,49.72s5.21-5.7,16.51,0"/><path class="cls-12" d="M160.74,78.4a9.18,9.18,0,0,1-4.59,4.73c-.87-3-16.67-1.82-16.72-1.81A11.18,11.18,0,0,1,137,78.4Z"/><path class="cls-13" d="M156.14,83.13h0a15.55,15.55,0,0,1-6.53,1.56,14,14,0,0,1-10.19-3.38C139.47,81.31,155.28,80.16,156.14,83.13Z"/><polygon class="cls-12" points="139.42 81.32 139.42 81.32 139.42 81.32 139.42 81.32"/><path class="cls-2" d="M175.14,50.75s6.7-1.88,4.75,8.16a80.93,80.93,0,0,1-4.75,16.25Z"/><path class="cls-14" d="M148.86,27.69h0Z"/><line class="cls-14" x1="148.87" y1="27.69" x2="148.87" y2="27.69"/><path class="cls-15" d="M182.17,109.92s-3.33-.73-5.72-8.25a73,73,0,0,0-13.94-9.49c3.27-1.92,6.24-5.5,8.56-9,.39-.58.76-1.15,1.1-1.71a5.72,5.72,0,0,1,1.31-2.4c1.33-1.79.1-3.64.77-5.31.05-1.86.17-3.73.3-5.6.53-7.48,1.17-14.94-1.42-21.74q-.32-.85-.68-1.61a15.91,15.91,0,0,0-3.5-4.9,13.84,13.84,0,0,0-1.34-1.12C164.33,36,160,36,155.66,36.26c-.91.1-1.78.24-2.56.39-2.35.47-4,1.07-4.27,1.09h0c-.18,0-1-.3-2.23-.62a33.15,33.15,0,0,0-4.76-.91,19.46,19.46,0,0,0-6.05.21,16.27,16.27,0,0,0-3.12,1,13.52,13.52,0,0,0-3,1.73,39.35,39.35,0,0,0-3.58,4l-.93,2a24.9,24.9,0,0,0-2,5.39q-.27,1.11-.44,2.24a33.55,33.55,0,0,0-.33,6.93q.06,1.17.19,2.36c0,.69,0,1.37,0,2-.17,6.43-1.4,13.83,4,18.29.55.74,1.11,1.49,1.67,2.21,2.8,3.6,5.49,6.66,5.49,6.66-1.71-1.11-3.7-.48-5.74,1.09a19.66,19.66,0,0,0-2,1.85,13.39,13.39,0,0,0-5.22,9.13c-.23.6-.46,1.14-.7,1.64-2.14,4.46-4.43,5-4.43,5s-.15-.87-.37-2.46c-.11-.79-.25-1.76-.46-2.87-4-6.93-2.81-14.33-.38-21.9.13-.91.24-1.83.31-2.75a25.21,25.21,0,0,0,.06-2.81c-.08-.75-.16-1.5-.24-2.24-.4-3.73-.72-7.43.5-11.13.34-.93.65-1.86.92-2.73s.51-1.68.68-2.38.35-1.14.5-1.73.29-1.19.39-1.8a3.33,3.33,0,0,0,0-2.17q-.23-1.21-.34-2.41T117,48.14a12,12,0,0,1-.21-2.64A12.86,12.86,0,0,1,117.1,43q.3-1.2.69-2.36t.87-2.29q.47-1.1,1-2.16c.33-.72.68-1.42,1-2.17s.62-1.71,1-2.55.75-1.68,1.18-2.51q.36-1,.79-1.87t.92-1.7c4.17-7.68,12.58-11.45,21.09-11.71.95,0,1.89,0,2.84,0A23.85,23.85,0,0,1,161.55,16c.82.38,1.63.79,2.42,1.24,5.91,4.6,11.46,9.54,15.25,16.24a11.3,11.3,0,0,1,.15,2.46,15.91,15.91,0,0,1,.67,2.42,12.31,12.31,0,0,1,.2,2.54,13,13,0,0,1-.27,2.29c.45,5.94,1.2,11.82,1.75,17.69q.12,1.26.22,2.51c1.5,7.18,4,14.58,1.26,22.77q-.25,1.2-.58,2.37t-.74,2.31q-.08,1.21-.12,2.43a54.13,54.13,0,0,0,.2,7.23,10.4,10.4,0,0,0,1,2.22,13.42,13.42,0,0,1-.15,3C182.43,108.35,182.17,109.92,182.17,109.92Z"/><path class="cls-3" d="M216.39,88.27s9.36-.7,9.79-12h23s.94,14.7,11.91,12l-1,8.45-22.4,8.92-19.45-5.22L213.49,91Z"/><path class="cls-16" d="M306.2,215,277,213.7v-94s6.75-39,17.13-17.81Q302.74,161,306.2,215Z"/><path class="cls-2" d="M209.34,35.86s-6.88-1.93-4.88,8.38a83.14,83.14,0,0,0,4.88,16.7Z"/><path class="cls-2" d="M234.81,7.34h5.79A26.62,26.62,0,0,1,267.21,34v21A29.51,29.51,0,0,1,237.7,84.43h0a29.51,29.51,0,0,1-29.51-29.51V34A26.62,26.62,0,0,1,234.81,7.34Z"/><path class="cls-17" d="M212.75,42.78S213.66,57,227,63.12h22.73S263.33,50,263.33,42.78l3.88.91A60.76,60.76,0,0,1,268,62.18a37.8,37.8,0,0,1-.73,4,23.63,23.63,0,0,1-.7,3.38,19.35,19.35,0,0,1-1.16,3.08,21,21,0,0,1-1.6,2.71,18.13,18.13,0,0,1-2.06,2.43Q261,79,260.16,80.19t-1.85,2.21a24.75,24.75,0,0,1-2.2,2.7c-3.49,3.59-7.43,6.59-12,7.89a17.92,17.92,0,0,1-2.85.56,8.59,8.59,0,0,1-5.88-1c-5.88-5.19-11.41-9.68-18.6-11.75a20.5,20.5,0,0,1-2.06-1.6,23.85,23.85,0,0,1-1.87-1.85,25.27,25.27,0,0,1-1.57-2.39,25.85,25.85,0,0,1-2.32-5.33c-.24-.91-.44-1.83-.61-2.76a41,41,0,0,1-.42-11.15c0-1.36-.06-2.74,0-4.05.07-3.94.53-7.29,1.78-8C213,41.94,212.75,42.78,212.75,42.78Z"/><path class="cls-8" d="M231.32,40.7c.06-4.54-14-4.71-14.1-.17C217.17,44.63,231.27,44.8,231.32,40.7Z"/><path class="cls-8" d="M259.67,40.7c.06-4.54-14-4.71-14.1-.17C245.51,44.63,259.62,44.8,259.67,40.7Z"/><circle class="cls-9" cx="223.83" cy="40.45" r="2.33"/><circle class="cls-9" cx="252.62" cy="40.45" r="2.33"/><path class="cls-5" d="M216.34,40.8s6-6,16.59,0C232.93,40.8,223.72,30.6,216.34,40.8Z"/><path class="cls-5" d="M244.58,40.8s6-6,16.59,0C261.17,40.8,252,30.6,244.58,40.8Z"/><path class="cls-17" d="M232.72,56.83A9.77,9.77,0,0,0,227,63.12h22.73c-.79-2.44-2.86-4.51-5.93-6.29Z"/><path class="cls-18" d="M235.21,56.77s4.8,2.43,6.37.35c.68-.9-3-18.79-1.79-18.41"/><path class="cls-19" d="M217.81,35.06s5-5.46,15.81,0"/><path class="cls-19" d="M245.36,35.72s5-5.46,15.81,0"/><path class="cls-12" d="M249.76,63.12a12.34,12.34,0,0,1-4.4,6.53c-.83-4.11-16-2.51-16-2.51a15.94,15.94,0,0,1-2.31-4Z"/><path class="cls-13" d="M245.36,69.65h0a11.42,11.42,0,0,1-6.25,2.16,11.26,11.26,0,0,1-9.76-4.67C229.39,67.14,244.53,65.54,245.36,69.65Z"/><polygon class="cls-12" points="229.34 67.14 229.34 67.14 229.34 67.14 229.34 67.14"/><path class="cls-2" d="M266.69,36.71s6.42-1.8,4.55,7.82a77.53,77.53,0,0,1-4.55,15.57Z"/><polygon class="cls-8" points="227.03 63.12 227.68 64.55 249.27 64.55 249.76 63.12 227.03 63.12"/><path class="cls-20" d="M234,41.13s6.18-4.67,10.28,0"/><line class="cls-20" x1="209.87" y1="37.05" x2="216.32" y2="40.45"/><line class="cls-20" x1="268.43" y1="36.91" x2="261.99" y2="40.79"/><circle class="cls-21" cx="225.16" cy="41.13" r="8.85"/><circle class="cls-21" cx="253.14" cy="41.13" r="8.85"/><path class="cls-17" d="M212.75,42.78s-2-14.7,4.48-20.49a8.82,8.82,0,0,1,2-1.34,6.88,6.88,0,0,1,1.31-.46c2.42-.68,5.19-.33,7.68-.18l1.87.19c11.57,1.26,17.53,3.43,17.53,3.43s3.46-3.32-2.24-5.17,9.27-.23,13.19,8a55.78,55.78,0,0,1,4.79,16.06l3.35.91s8.91-23.1-1.69-31C259.19,8.31,252,2.81,244.87.84a21.88,21.88,0,0,0-2.14-.48,17.22,17.22,0,0,0-1.9-.28,18.06,18.06,0,0,0-1.9-.07,15.85,15.85,0,0,0-3.87.34,19.66,19.66,0,0,0-1.93.54c-.63.21-1.24.45-1.84.71-5.94,3-11.12,7.84-17.65,9.43-.63.19-1.24.39-1.84.63-3,1.16-5.3,2.95-5.5,6.68-.15.58-.27,1.15-.36,1.74a15.13,15.13,0,0,0-.13,3.54c0,.43.05.87,0,1.33C205.83,29.88,207.36,36,212.75,42.78Z"/><path class="cls-16" d="M171.46,215l29.22-1.27v-94s-6.75-39-17.13-17.81Q174.92,161,171.46,215Z"/><path class="cls-22" d="M270.89,88.27h-9.72c-3.19,8.26-12,14.2-22.35,14.2s-19.16-5.94-22.35-14.2h-9.72c-11.77,0-30.85,12.06-23.14,12.93,3.24.37,7.26,5,11,16.48V221.24H283V117.69c3.74-11.53,7.75-16.12,11-16.48C301.74,100.34,282.66,88.27,270.89,88.27Z"/><line class="cls-23" x1="238.83" y1="221.24" x2="238.83" y2="102.48"/><path class="cls-24" d="M194.61,221.24"/><rect class="cls-25" x="194.61" y="221.24" width="88.35" height="29.84"/><polygon class="cls-25" points="238.83 251.08 224.22 387.14 207.51 387.14 194.61 251.08 238.83 251.08"/><polygon class="cls-25" points="282.96 251.08 268.43 387.14 251.82 387.14 238.98 251.08 282.96 251.08"/><path class="cls-2" d="M180,214.58s-3.31,26.09,14.57,28.72V213.95Z"/><path class="cls-2" d="M297.54,214.62s3.31,26.09-14.57,28.72V214Z"/><path class="cls-26" d="M251.82,387.14V400H295s5.7-12.94-20.35-10.52c0,0-6.35-1.12-5.56-8.52"/><path class="cls-26" d="M224.15,387.14V400H181s-5.7-12.94,20.35-10.52c0,0,6.35-1.12,5.56-8.52"/><circle class="cls-27" cx="246.24" cy="124.34" r="2.23" transform="translate(54.56 322.72) rotate(-72.78)"/><circle class="cls-27" cx="231.65" cy="124.34" r="2.23" transform="translate(44.29 308.78) rotate(-72.78)"/><circle class="cls-27" cx="246.24" cy="141.14" r="2.23" transform="translate(38.52 334.55) rotate(-72.78)"/><circle class="cls-27" cx="231.65" cy="141.14" r="2.23" transform="translate(28.24 320.61) rotate(-72.78)"/><circle class="cls-27" cx="246.24" cy="157.94" r="2.23" transform="translate(22.47 346.37) rotate(-72.78)"/><circle class="cls-27" cx="231.65" cy="157.94" r="2.23" transform="translate(12.2 332.43) rotate(-72.78)"/><circle class="cls-27" cx="246.24" cy="174.74" r="2.23" transform="translate(6.42 358.19) rotate(-72.78)"/><circle class="cls-27" cx="231.65" cy="174.74" r="2.23" transform="translate(-3.85 344.26) rotate(-72.78)"/><circle class="cls-27" cx="246.24" cy="191.54" r="2.23" transform="translate(-9.62 370.02) rotate(-72.78)"/><circle class="cls-27" cx="231.65" cy="191.54" r="2.23" transform="translate(-19.89 356.08) rotate(-72.78)"/><path class="cls-2" d="M284.3,249.22s-3.51,27.66,15.45,30.44V248.54Z"/><path class="cls-2" d="M379.54,250s3.51,27.66-15.45,30.44V249.3Z"/><path class="cls-3" d="M312.58,151.79s8-.6,8.41-10.26h19.74s.81,12.62,10.22,10.26L350.1,159l-19.23,7.66-16.7-4.48-4.07-8.11Z"/><path class="cls-25" d="M386,251.12l-27.65-.32V177.67s7.14-30.3,18.11-13.85C382.54,194.48,383.52,223.1,386,251.12Z"/><path class="cls-25" d="M279,251.12l25.78-.32v-73s-7.14-30.24-18.11-13.83C280.59,194.58,281.48,223.15,279,251.12Z"/><path class="cls-28" d="M356.54,151.54h-7.63c-2.51,6.72-9.42,11.56-17.55,11.56s-15-4.83-17.55-11.56h-7.63c-9.25,0-24.23,9.81-18.18,10.52,2.55.3,5.7,4,8.64,13.41v93.06h69.47V175.48c2.94-9.38,6.09-13.11,8.64-13.41C380.77,161.36,365.79,151.54,356.54,151.54Z"/><rect class="cls-29" x="296.51" y="268.54" width="69.97" height="17.49"/><polygon class="cls-29" points="331.52 286.02 318.86 390.51 306.72 387.15 296.5 286.02 331.52 286.02"/><polygon class="cls-29" points="366.47 286.02 354.96 387.15 342.36 390.07 331.64 286.02 366.47 286.02"/><path class="cls-26" d="M306.47,385.64c.58,5.45-4.1,6.28-4.1,6.28-19.21-1.78-15,7.75-15,7.75h18.35l13.2-.09v-9.52Z"/><path class="cls-26" d="M355.23,385.39c-.6,5.64,4.24,6.5,4.24,6.5,19.89-1.85,15.54,8,15.54,8H342.37v-9.85Z"/><path class="cls-2" d="M328.62,76.59h5.27a24.22,24.22,0,0,1,24.22,24.22v19.07a26.85,26.85,0,0,1-26.85,26.85h0a26.85,26.85,0,0,1-26.85-26.85V100.81a24.22,24.22,0,0,1,24.22-24.22Z"/><path class="cls-5" d="M311.15,109.88s5.45-5.48,15.1,0C326.24,109.88,317.86,100.6,311.15,109.88Z"/><path class="cls-5" d="M336.84,109.88s5.45-5.48,15.1,0C351.94,109.88,343.55,100.6,336.84,109.88Z"/><path class="cls-30" d="M328.32,122.19s4.37,2.21,5.8.32c.62-.82-2.72-17.1-1.63-16.75"/><path class="cls-31" d="M312.48,102.44s4.54-5,14.39,0"/><path class="cls-31" d="M337.55,103s4.54-5,14.39,0"/><path class="cls-12" d="M341.55,128a11.23,11.23,0,0,1-4,5.94c-.75-3.74-14.53-2.29-14.58-2.28a14.5,14.5,0,0,1-2.1-3.66Z"/><path class="cls-13" d="M337.55,133.91h0a10.39,10.39,0,0,1-5.69,2,10.25,10.25,0,0,1-8.88-4.25S336.79,130.17,337.55,133.91Z"/><polygon class="cls-12" points="322.97 131.63 322.97 131.63 322.97 131.63 322.97 131.63"/><path class="cls-2" d="M304.78,103.94s-5.84-1.64-4.14,7.11a70.55,70.55,0,0,0,4.14,14.17Z"/><path class="cls-2" d="M357,103.94s5.84-1.64,4.14,7.11A70.55,70.55,0,0,1,357,125.22Z"/><rect class="cls-32" x="306.39" y="172.31" width="27.1" height="48.28" rx="11.74" ry="11.74"/><rect class="cls-32" x="338.43" y="218.85" width="18.53" height="33.01" rx="8.03" ry="8.03"/><path class="cls-17" d="M330.52,87.93s3.77,7.49,23,22.87c3.91,2.74.26,30.85-12,33.89l19.86,7.23s12.47-30.59-7.49-68.23a27.28,27.28,0,0,0-22.67-11.13s-25.23-.81-28.7,20.24l-.84,11S321.69,99.87,330.52,87.93Z"/><path class="cls-17" d="M303,90.59s-16.77,52.1,12.45,59.27"/><rect class="cls-33" x="299.74" y="101.93" width="6.13" height="1.88"/><path class="cls-2" d="M5.3,249.22s-3.51,27.66,15.45,30.44V248.54Z"/><path class="cls-2" d="M100.54,250s3.51,27.66-15.45,30.44V249.3Z"/><path class="cls-3" d="M33.58,151.79s8-.6,8.41-10.26H61.73s.81,12.62,10.22,10.26L71.1,159,51.87,166.7l-16.7-4.48-4.07-8.11Z"/><path class="cls-25" d="M107,251.12l-27.65-.32V177.67s7.14-30.3,18.11-13.85C103.54,194.48,104.52,223.1,107,251.12Z"/><path class="cls-25" d="M0,251.12l25.78-.32v-73S18.64,147.56,7.67,164C1.59,194.58,2.48,223.15,0,251.12Z"/><path class="cls-34" d="M77.54,151.54H69.91c-2.51,6.72-9.42,11.56-17.55,11.56s-15-4.83-17.55-11.56H27.16c-9.25,0-24.23,9.81-18.18,10.52,2.55.3,5.7,4,8.64,13.41v93.06H87.08V175.48c2.94-9.38,6.09-13.11,8.64-13.41C101.77,161.36,86.79,151.54,77.54,151.54Z"/><polygon class="cls-2" points="52.52 286.02 39.86 390.51 27.72 387.15 17.5 286.02 52.52 286.02"/><polygon class="cls-2" points="87.47 286.02 75.96 387.15 63.36 390.07 52.64 286.02 87.47 286.02"/><path class="cls-26" d="M27.47,385.64c.58,5.45-4.1,6.28-4.1,6.28-19.21-1.78-15,7.75-15,7.75H26.72l13.2-.09v-9.52Z"/><path class="cls-26" d="M76.23,385.39c-.6,5.64,4.24,6.5,4.24,6.5,19.89-1.85,15.54,8,15.54,8H63.37v-9.85Z"/><path class="cls-2" d="M49.62,76.59h5.27a24.22,24.22,0,0,1,24.22,24.22v19.07a26.85,26.85,0,0,1-26.85,26.85h0A26.85,26.85,0,0,1,25.4,119.88V100.81A24.22,24.22,0,0,1,49.62,76.59Z"/><path class="cls-5" d="M32.15,109.88s5.45-5.48,15.1,0C47.24,109.88,38.86,100.6,32.15,109.88Z"/><path class="cls-5" d="M57.84,109.88s5.45-5.48,15.1,0C72.94,109.88,64.55,100.6,57.84,109.88Z"/><path class="cls-30" d="M49.32,122.19s4.37,2.21,5.8.32c.62-.82-2.72-17.1-1.63-16.75"/><path class="cls-31" d="M33.48,102.44s4.54-5,14.39,0"/><path class="cls-31" d="M58.55,103s4.54-5,14.39,0"/><path class="cls-12" d="M62.55,128a11.23,11.23,0,0,1-4,5.94c-.75-3.74-14.53-2.29-14.58-2.28a14.5,14.5,0,0,1-2.1-3.66Z"/><path class="cls-13" d="M58.55,133.91h0a10.39,10.39,0,0,1-5.69,2A10.25,10.25,0,0,1,44,131.63S57.79,130.17,58.55,133.91Z"/><polygon class="cls-12" points="43.97 131.63 43.97 131.63 43.97 131.63 43.97 131.63"/><path class="cls-2" d="M25.78,103.94s-5.84-1.64-4.14,7.11a70.55,70.55,0,0,0,4.14,14.17Z"/><path class="cls-2" d="M78,103.94S83.8,102.3,82.1,111A70.55,70.55,0,0,1,78,125.22Z"/><path class="cls-15" d="M51.52,87.93s3.77,7.49,23,22.87c3.91,2.74-3.1,41.71-13.55,59.49l27,6s5.23-61.74-13-92.6A27.28,27.28,0,0,0,52.26,72.55S27,71.74,23.56,92.79l-.84,11S42.69,99.87,51.52,87.93Z"/><path class="cls-15" d="M24,90.59s-15,70.79,14.18,78"/><polygon class="cls-34" points="107.2 317.55 3.2 317.55 17.51 254.54 87.47 254.54 107.2 317.55"/><rect class="cls-15" x="72.2" y="189.38" width="4" height="47.33"/><rect class="cls-15" x="64.2" y="189.38" width="4" height="47.33"/><rect class="cls-15" x="56.2" y="189.38" width="4" height="47.33"/><rect class="cls-15" x="32.2" y="189.38" width="4" height="47.33"/><circle class="cls-4" cx="46.2" cy="198.55" r="8"/></g></g></svg>