<svg xmlns="http://www.w3.org/2000/svg" viewBox="0 0 338.16 431.97"><defs><style>.cls-1{fill:#fbc5aa;}.cls-2{fill:#317b89;}.cls-22,.cls-23,.cls-28,.cls-29,.cls-3,.cls-7,.cls-8{fill:#eed1bf;}.cls-4{fill:#fff;}.cls-5{fill:#514835;}.cls-6{fill:#ebae8a;}.cls-22,.cls-23,.cls-28,.cls-29,.cls-7{stroke:#ebae8a;}.cls-11,.cls-12,.cls-15,.cls-20,.cls-22,.cls-23,.cls-28,.cls-29,.cls-7,.cls-8{stroke-miterlimit:10;}.cls-7{stroke-width:0.74px;}.cls-11,.cls-12,.cls-8{stroke:#231f20;}.cls-8{stroke-width:1.85px;}.cls-9{fill:#5a3b34;}.cls-10{fill:#d55225;}.cls-11,.cls-12,.cls-20{fill:none;}.cls-11{stroke-width:0.39px;}.cls-12{stroke-width:0.36px;}.cls-13{fill:#231f20;}.cls-14{fill:#065;}.cls-15{fill:#00a881;stroke:#489086;stroke-width:0.63px;}.cls-16{fill:#007dac;}.cls-17{fill:#44515c;}.cls-18{fill:#004368;}.cls-19{fill:#d8dcec;}.cls-20{stroke:#c1c0db;stroke-width:0.63px;}.cls-21{fill:#cabcdc;}.cls-22{stroke-width:0.86px;}.cls-23{stroke-width:0.42px;}.cls-24{fill:#c26b9b;}.cls-25{fill:#866aa1;}.cls-26{fill:#511c74;}.cls-27{fill:#d9d29a;}.cls-28{stroke-width:0.66px;}.cls-29{stroke-width:0.33px;}.cls-30{fill:#9d4838;}.cls-31{fill:#c9b474;}.cls-32{fill:#c7522f;}</style></defs><title>family members 04</title><g id="Layer_2" data-name="Layer 2"><g id="Glavno_Besedilo" data-name="Glavno Besedilo"><path class="cls-1" d="M48,94.34s10-.74,10.47-12.78H83.06s1,15.71,12.73,12.78l-1.06,9L70.79,112.9,50,107.32,44.92,97.23Z"/><path class="cls-2" d="M144,229.75l-31.23-1.36V127.9s7.22-41.63,18.31-19Q140.3,172.05,144,229.75Z"/><path class="cls-3" d="M40.49,38.33s-7.36-2.06-5.21,9a88.85,88.85,0,0,0,5.21,17.84Z"/><path class="cls-3" d="M67.7,7.85h6.18a28.44,28.44,0,0,1,28.44,28.44v22.4A31.54,31.54,0,0,1,70.8,90.23h0A31.54,31.54,0,0,1,39.26,58.69V36.29A28.44,28.44,0,0,1,67.7,7.85Z"/><path class="cls-4" d="M64,43.5c.06-4.85-15-5-15.07-.18C48.85,47.69,63.92,47.88,64,43.5Z"/><path class="cls-4" d="M94.27,43.5c.06-4.85-15-5-15.07-.18C79.14,47.69,94.22,47.88,94.27,43.5Z"/><circle class="cls-5" cx="55.97" cy="43.23" r="2.49"/><circle class="cls-5" cx="86.73" cy="43.23" r="2.49"/><path class="cls-6" d="M48,43.6s6.4-6.43,17.73,0C65.7,43.6,55.85,32.7,48,43.6Z"/><path class="cls-6" d="M78.14,43.6s6.4-6.43,17.73,0C95.88,43.6,86,32.7,78.14,43.6Z"/><path class="cls-7" d="M68.14,60.67s5.13,2.59,6.81.37c.73-1-3.2-20.08-1.92-19.68"/><path class="cls-8" d="M49.54,37.47s5.33-5.84,16.9,0"/><path class="cls-8" d="M79,38.18s5.33-5.84,16.9,0"/><path class="cls-9" d="M83.68,67.45a13.19,13.19,0,0,1-4.7,7c-.89-4.39-17.06-2.69-17.12-2.68a17,17,0,0,1-2.47-4.3Z"/><path class="cls-10" d="M79,74.43h0a12.2,12.2,0,0,1-6.68,2.31,12,12,0,0,1-10.43-5C61.91,71.75,78.09,70,79,74.43Z"/><polygon class="cls-9" points="61.86 71.75 61.86 71.75 61.86 71.75 61.86 71.75"/><path class="cls-3" d="M101.77,39.23s6.86-1.92,4.86,8.36a82.85,82.85,0,0,1-4.86,16.64Z"/><polygon class="cls-4" points="59.39 67.45 60.08 68.98 83.16 68.98 83.68 67.45 59.39 67.45"/><path class="cls-11" d="M66.85,44s6.61-5,11,0"/><line class="cls-11" x1="41.06" y1="39.59" x2="47.94" y2="43.23"/><line class="cls-11" x1="103.63" y1="39.45" x2="96.75" y2="43.59"/><circle class="cls-12" cx="57.4" cy="43.96" r="9.46"/><circle class="cls-12" cx="87.29" cy="43.96" r="9.46"/><path class="cls-13" d="M44.13,45.72S42,30,48.92,23.83A9.43,9.43,0,0,1,51,22.39a7.36,7.36,0,0,1,1.39-.49c2.59-.73,5.54-.36,8.21-.19l2,.21C75,23.26,81.37,25.59,81.37,25.59S85.07,22,79,20.07s9.91-.25,14.1,8.5a59.61,59.61,0,0,1,5.12,17.16l3.59,1S111.3,22,100,13.53C93.76,8.88,86.07,3,78.46.89A23.38,23.38,0,0,0,76.18.38a18.4,18.4,0,0,0-2-.29,19.3,19.3,0,0,0-2-.07A16.94,16.94,0,0,0,68,.37,21,21,0,0,0,65.92,1c-.67.22-1.32.48-2,.76-6.35,3.21-11.89,8.38-18.86,10.08-.67.2-1.33.42-2,.67C40,13.7,37.46,15.61,37.25,19.6c-.16.61-.29,1.23-.39,1.86a16.17,16.17,0,0,0-.14,3.78c0,.46.05.93.05,1.42C36.74,31.93,38.37,38.48,44.13,45.72Z"/><path class="cls-2" d="M0,229.75l31.23-1.36V127.9s-7.22-41.63-18.31-19Q3.7,172.05,0,229.75Z"/><path class="cls-14" d="M106.27,94.34H95.88c-3.41,8.83-12.81,15.18-23.88,15.18s-20.47-6.35-23.88-15.18H37.73c-12.58,0-33,12.89-24.73,13.82,3.47.39,7.75,5.29,11.75,17.62V236.44h94.5V125.78c4-12.32,8.28-17.22,11.75-17.62C139.23,107.23,118.85,94.34,106.27,94.34Z"/><path class="cls-15" d="M25.82,228.19"/><rect class="cls-16" x="24.75" y="236.44" width="94.42" height="31.88"/><polygon class="cls-16" points="72 268.32 56.38 413.73 38.53 413.73 24.75 268.32 72 268.32"/><polygon class="cls-16" points="119.17 268.32 103.64 413.73 85.88 413.73 72.17 268.32 119.17 268.32"/><path class="cls-3" d="M9.57,220.77s-3.69,29.09,16.24,32V220.06Z"/><path class="cls-3" d="M134.74,229.36s3.54,27.89-15.57,30.69V228.68Z"/><path class="cls-17" d="M85.88,413.73v13.79H132s6.09-13.83-21.75-11.24c0,0-6.78-1.2-5.94-9.1"/><path class="cls-17" d="M56.32,413.73v13.79H10.17S4.08,413.7,31.92,416.29c0,0,6.78-1.2,5.94-9.1"/><circle class="cls-18" cx="57.58" cy="145.1" r="17.39"/><path class="cls-3" d="M126.1,237.34s-3.64,28.73,16,31.61V236.64Z"/><path class="cls-3" d="M234.13,240.54s3.64,28.73-16,31.61V239.85Z"/><path class="cls-1" d="M159.26,126.48s8.91-.75,9.31-12.93h21.87s.9,15.9,11.32,12.93l-.94,9.14-21.3,9.65L161,139.63l-4.51-10.21Z"/><path class="cls-19" d="M116.56,248.41l32.17-1.24V156s-7.44-37.76-18.86-17.27Q120.37,196.08,116.56,248.41Z"/><path class="cls-19" d="M245.65,248.41l-32.17-1.24V156s7.44-37.76,18.86-17.27Q241.85,196.08,245.65,248.41Z"/><polygon class="cls-3" points="185.66 292.05 172.25 416.92 156.92 416.92 145.08 292.05 185.66 292.05"/><polygon class="cls-3" points="221.77 292.05 208.44 416.92 193.19 416.92 181.41 292.05 221.77 292.05"/><path class="cls-10" d="M217,229.19a200.93,200.93,0,0,1-.84-43c6.23-9,6.4-28.72,6.39-31.83,3.47-10.81,7.15-15.15,10.15-15.51,7.33-.87-10.83-13-22-13h-9.25c-3,8.29-11.41,14.25-21.27,14.25s-18.24-6-21.27-14.25h-9.25c-11.21,0-29.37,12.1-22,13,3,.35,6.58,4.59,10,15.09,0,0-.39,22.84,6.55,32.49a201.16,201.16,0,0,1-.86,42.78l-24.84,119s13.07,14.21,51.1,0c0,0,25.82,10.56,48.54,0,0,0,18.93,8.47,27.93,0Z"/><path class="cls-3" d="M156.92,416.92s-11.34,8.95-19.81,8.77l35.15.26v-9Z"/><path class="cls-14" d="M172.26,416.92v12.63H163v-3.6s-20.48,7.53-29.47,5.75c0,0-10.25-1.38,5.49-7.05,11.77-4.24,14.14-5.13,14.14-5.13"/><path class="cls-3" d="M208.52,416.92s11.34,8.95,19.81,8.77l-35.15.26v-9Z"/><path class="cls-14" d="M193.18,416.92v12.63h9.29v-3.6s20.48,7.53,29.47,5.75c0,0,10.25-1.38-5.49-7.05-11.77-4.24-14.14-5.13-14.14-5.13"/><path class="cls-20" d="M143.28,229.19c.09-7.5,38,30,73.72,0"/><path class="cls-3" d="M178.63,33.59h5.6A25.77,25.77,0,0,1,210,59.37v34.5a28.58,28.58,0,0,1-28.58,28.58h0a28.58,28.58,0,0,1-28.58-28.58V59.37A25.77,25.77,0,0,1,178.63,33.59Z"/><path class="cls-4" d="M174.67,75c.07-5.52-17.08-5.73-17.15-.21C157.47,79.76,174.61,80,174.67,75Z"/><path class="cls-4" d="M207,75c.07-5.52-17.08-5.73-17.15-.21C189.76,79.76,206.9,80,207,75Z"/><circle class="cls-5" cx="166.1" cy="74.68" r="2.84"/><circle class="cls-5" cx="198.71" cy="74.68" r="2.84"/><path class="cls-21" d="M156.46,75.1s7.28-7.32,20.17,0C176.64,75.1,165.43,62.71,156.46,75.1Z"/><path class="cls-21" d="M188.62,75.1s7.28-7.32,20.17,0C208.79,75.1,197.59,62.71,188.62,75.1Z"/><path class="cls-22" d="M176.89,92.08s6.81,2.62,9,.38c1-1-4.24-20.3-2.54-19.9"/><path class="cls-23" d="M156.39,68.13s6.06-6.64,19.23,0"/><path class="cls-23" d="M189.88,68.94s6.06-6.64,19.23,0"/><path class="cls-9" d="M193.12,102.34a10.34,10.34,0,0,1-4.53,5.51c-.85-3.47-16.44-2.12-16.49-2.11a12.94,12.94,0,0,1-2.38-3.4A49.93,49.93,0,0,0,193.12,102.34Z"/><path class="cls-10" d="M188.59,107.85h0a13.49,13.49,0,0,1-6.44,1.82,12.6,12.6,0,0,1-10.05-3.94C172.15,105.73,187.73,104.38,188.59,107.85Z"/><polygon class="cls-9" points="172.09 105.73 172.09 105.73 172.09 105.73 172.09 105.73"/><path class="cls-3" d="M209.52,70.13s7.17-2.19,5.08,9.51a100.5,100.5,0,0,1-5.08,18.93Z"/><path class="cls-13" d="M150.87,86.22c.21-1.39.43-2.82.68-4.27s.53-2.9.88-4.32c.53-1.35,1.08-2.7,1.66-4s1.19-2.64,1.86-3.91c.92-3.89,4-5.75,6.18-8.62a22.94,22.94,0,0,1,2.34-1.89c3.55-2.05,7.27-3.91,11.36-2.1a46.36,46.36,0,0,1,5,.83c1.64.36,3.23.8,4.73,1.29l3.54,1c1.17.34,2.34.66,3.49.95,1.95.48,3.86.9,5.69,1.18,6.34,1,12.67-.25,17.7-4.3a22.34,22.34,0,0,0,4.54-5h3.11a35.11,35.11,0,0,0-14.52-16.6,43.6,43.6,0,0,0-3.94-2.13,56.84,56.84,0,0,0-13.37-4.38q-2.31-.45-4.65-.72a54,54,0,0,0-23.51,2.15q-2.26.73-4.43,1.67c-11.66,4.28-18.47,16.67-19.76,28.59a24.51,24.51,0,0,0,.35,4.56A21.31,21.31,0,0,0,143,74.46a21.38,21.38,0,0,0,3.23,3.41,34.37,34.37,0,0,0,2.64,3.38,23,23,0,0,1,.93,2.95A22,22,0,0,0,150.87,86.22Z"/><circle class="cls-13" cx="180.56" cy="29.39" r="15.62"/><path class="cls-3" d="M153.62,71.36s-7.17-2.19-5.08,9.51a100.5,100.5,0,0,0,5.08,18.93Z"/><ellipse class="cls-24" cx="150.89" cy="95.61" rx="2.25" ry="2.44"/><ellipse class="cls-24" cx="211.77" cy="93.91" rx="2.25" ry="2.44"/><path class="cls-3" d="M225.57,274.35s-3.67,28.9,16.14,31.8V273.65Z"/><path class="cls-3" d="M326.83,274.35s3.67,28.9-16.14,31.8V273.65Z"/><path class="cls-1" d="M256.64,171.78s8.4-.62,8.78-10.72H286s.84,13.19,10.68,10.72l-.89,7.58-20.09,8-17.45-4.68L254,174.21Z"/><path class="cls-25" d="M338.16,275.55l-28.88-.33v-76.4s7.46-31.65,18.92-14.47C334.54,216.38,335.57,246.28,338.16,275.55Z"/><path class="cls-25" d="M216.29,275.55l26.93-.33V199s-7.46-31.59-18.92-14.45C218,216.48,218.88,246.33,216.29,275.55Z"/><path class="cls-26" d="M303.91,171.52h-8.38c-2.75,7-10.34,12.07-19.28,12.07s-16.52-5-19.28-12.07h-8.38c-10.15,0-26.61,10.25-20,11,2.8.31,6.26,4.21,9.48,14v97.21h76.27V196.53c3.23-9.8,6.69-13.7,9.48-14C330.51,181.78,314.06,171.52,303.91,171.52Z"/><rect class="cls-27" x="238.52" y="293.74" width="75.75" height="18.27"/><polygon class="cls-27" points="276.43 312.01 262.72 421.16 249.58 417.65 238.51 312.01 276.43 312.01"/><polygon class="cls-27" points="314.27 312.01 301.81 417.65 288.16 420.69 276.56 312.01 314.27 312.01"/><path class="cls-17" d="M249.42,416.44c.61,5.7-4.28,6.56-4.28,6.56-20.07-1.86-15.68,8.1-15.68,8.1h33.26v-9.94Z"/><path class="cls-17" d="M301.93,415.81c-.63,5.9,4.43,6.79,4.43,6.79,20.78-1.93,16.23,8.39,16.23,8.39H288.16V420.69Z"/><path class="cls-3" d="M273.4,93.22h5.5a25.3,25.3,0,0,1,25.3,25.3v19.92a28.05,28.05,0,0,1-28.05,28.05h0a28.05,28.05,0,0,1-28.05-28.05V118.52a25.3,25.3,0,0,1,25.3-25.3Z"/><path class="cls-6" d="M255.14,128s5.7-5.72,15.77,0C270.91,128,262.15,118.31,255.14,128Z"/><path class="cls-6" d="M282,128s5.7-5.72,15.77,0C297.76,128,289,118.31,282,128Z"/><path class="cls-28" d="M273.08,140.86s4.56,2.31,6.06.33c.65-.85-2.84-17.86-1.7-17.5"/><path class="cls-29" d="M256.54,120.23s4.74-5.19,15,0"/><path class="cls-29" d="M282.72,120.85s4.74-5.19,15,0"/><path class="cls-9" d="M286.91,146.9a11.73,11.73,0,0,1-4.18,6.21c-.79-3.91-15.18-2.39-15.23-2.38a15.15,15.15,0,0,1-2.19-3.83Z"/><path class="cls-10" d="M282.72,153.11h0a10.85,10.85,0,0,1-5.94,2.05,10.71,10.71,0,0,1-9.28-4.44S281.93,149.2,282.72,153.11Z"/><polygon class="cls-9" points="267.5 150.72 267.5 150.72 267.5 150.72 267.5 150.72"/><path class="cls-3" d="M248.5,121.79s-6.1-1.71-4.33,7.43A73.7,73.7,0,0,0,248.5,144Z"/><path class="cls-3" d="M303,121.79s6.1-1.71,4.33,7.43A73.7,73.7,0,0,1,303,144Z"/><path class="cls-30" d="M251.67,126.81s-.87-8.6,1.72-16.17c.18-.5.37-1,.58-1.49a9.05,9.05,0,0,1,.8-1.52,8.86,8.86,0,0,1,1.1-1.32,12.81,12.81,0,0,1,3.72-2.19,9.47,9.47,0,0,1,1.91-.5c.9-.51,2,.2,3,.55a20.17,20.17,0,0,1,2.07,1.49c.67.54,1.33,1.12,2,1.65a5,5,0,0,0,2.11,1.52,2.86,2.86,0,0,0,2.26-.08,20.8,20.8,0,0,1,7.77-2.33,20.27,20.27,0,0,1,2-.08c5-.4,8.47,2.76,12.33,4.87a4.17,4.17,0,0,0,4,.1,8.25,8.25,0,0,0,1.78-1.1,8.13,8.13,0,0,0,3-5.68c0-.7,1.27.33,2,.68s.64.78.84,1.08a22.83,22.83,0,0,0-3.65-7,28.6,28.6,0,0,0-2.55-3.09,26.85,26.85,0,0,0-3-2.71q-.9-.71-1.86-1.34a24.94,24.94,0,0,0-4-2.15q-.83-.45-1.68-.81t-1.72-.64q-.87-.28-1.75-.49a19.87,19.87,0,0,0-2.14-.62,20.76,20.76,0,0,0-2.13-.37,47.21,47.21,0,0,0-7.1.16c-.47.05-.94.12-1.42.2-4.19,1.29-8.4,1.64-12.46,2.95q-.88.34-1.73.74a20.92,20.92,0,0,0-8.49,7.24c-.39.58-.75,1.18-1.08,1.79a28.43,28.43,0,0,0-2.34,5.86q-.33.68-.59,1.38c-3.41,8.93.6,21.37.6,21.37"/><rect class="cls-31" x="250.25" y="198.61" width="52.63" height="22.2" rx="11.1" ry="11.1"/><rect class="cls-32" x="280.68" y="256.07" width="22.2" height="22.2" rx="11.1" ry="11.1"/></g></g></svg>