<svg xmlns="http://www.w3.org/2000/svg" viewBox="0 0 386 400.05"><defs><style>.cls-1,.cls-10,.cls-17,.cls-18,.cls-28,.cls-29{fill:#eed1bf;}.cls-2{fill:#fbc5aa;}.cls-3{fill:#a862a7;}.cls-4{fill:#ebae8a;}.cls-5{fill:#d89f72;}.cls-19,.cls-20,.cls-6{fill:none;}.cls-6{stroke:#c1c0db;stroke-width:0.6px;}.cls-10,.cls-17,.cls-18,.cls-19,.cls-20,.cls-22,.cls-28,.cls-29,.cls-6{stroke-miterlimit:10;}.cls-7{fill:#fff;}.cls-8{fill:#514835;}.cls-9{fill:#cabcdc;}.cls-10,.cls-17,.cls-28,.cls-29{stroke:#ebae8a;}.cls-10{stroke-width:0.74px;}.cls-11{fill:#5a3b34;}.cls-12{fill:#d55225;}.cls-13{fill:#f5e6c1;}.cls-14{fill:#ffebc6;}.cls-15{fill:#d8dcec;}.cls-16{fill:#9d4838;}.cls-17{stroke-width:0.69px;}.cls-18{stroke:#e2e0df;stroke-width:1.73px;}.cls-19,.cls-20{stroke:#231f20;}.cls-19{stroke-width:0.37px;}.cls-20{stroke-width:0.34px;}.cls-21{fill:#fbb040;}.cls-22{fill:#00a881;stroke:#f37443;stroke-width:0.57px;}.cls-23{fill:#007dac;}.cls-24{fill:#44515c;}.cls-25{fill:#e06a4d;}.cls-26{fill:#004e7c;}.cls-27{fill:#df584f;}.cls-28{stroke-width:0.63px;}.cls-29{stroke-width:0.31px;}.cls-30{fill:#c26b9b;}.cls-31{fill:#ffcf01;}.cls-32{fill:#00a657;}</style></defs><g id="Layer_2" data-name="Layer 2"><g id="Glavno_Besedilo" data-name="Glavno Besedilo"><path class="cls-1" d="M96.89,209.29s-3.5,27.63,15.43,30.4V208.61Z"/><path class="cls-1" d="M200.78,212.37s3.51,27.63-15.42,30.41V211.7Z"/><path class="cls-2" d="M128.78,102.68s8.57-.72,9-12.44h21s.86,15.3,10.89,12.44l-.91,8.79-20.48,9.28-17.8-5.43-4.34-9.82Z"/><path class="cls-3" d="M87.72,219.94l30.93-1.19V131.09s-7.15-36.31-18.14-16.6Q91.38,169.62,87.72,219.94Z"/><path class="cls-3" d="M211.87,219.94l-30.94-1.19V131.09s7.15-36.31,18.14-16.6Q208.21,169.62,211.87,219.94Z"/><polygon class="cls-3" points="154.17 261.91 141.27 381.99 126.53 381.99 115.14 261.91 154.17 261.91"/><polygon class="cls-3" points="188.9 261.91 176.07 381.99 161.41 381.99 150.08 261.91 188.9 261.91"/><path class="cls-4" d="M184.31,196.49a175,175,0,0,1-.81-39.3c6-8.22,6.16-26.25,6.15-29.09,3.34-9.88,6.88-13.84,9.76-14.17,7.05-.79-10.42-11.85-21.19-11.85h-8.9c-2.92,7.57-11,13-20.46,13s-17.54-5.45-20.46-13h-8.9c-10.77,0-28.24,11.06-21.19,11.85,2.85.33,6.33,4.19,9.63,13.79,0,0-.38,20.87,6.3,29.68a174.31,174.31,0,0,1-.83,39.09L89.53,305.19s12.57,13,49.14,0c0,0,24.84,9.65,46.69,0,0,0,18.21,7.74,26.86,0Z"/><path class="cls-5" d="M126.53,382s-10.91,8.61-19,8.43l33.8.25V382Z"/><path class="cls-4" d="M141.28,382v12.15h-8.93v-3.47s-19.69,7.24-28.33,5.53c0,0-9.86-1.33,5.27-6.78,11.33-4.08,13.61-4.93,13.61-4.93"/><path class="cls-5" d="M176.16,382s10.9,8.61,19,8.43l-33.8.25V382Z"/><path class="cls-4" d="M161.4,382v12.15h8.93v-3.47s19.7,7.24,28.34,5.53c0,0,9.86-1.33-5.27-6.78-11.33-4.08-13.61-4.93-13.61-4.93"/><path class="cls-6" d="M113.41,201.45c.09-7.21,36.53,28.86,70.9,0"/><path class="cls-1" d="M145.62,19.38h6.51a23.46,23.46,0,0,1,23.46,23.46V69.65a26,26,0,0,1-26,26h-1.41a26,26,0,0,1-26-26V42.84a23.46,23.46,0,0,1,23.46-23.46Z"/><path class="cls-7" d="M141.49,54.92c.06-4.74-14.66-4.92-14.72-.18C126.72,59,141.44,59.2,141.49,54.92Z"/><path class="cls-7" d="M171.08,54.92c.06-4.74-14.66-4.92-14.72-.18C156.31,59,171,59.2,171.08,54.92Z"/><circle class="cls-8" cx="133.67" cy="54.66" r="2.44"/><circle class="cls-8" cx="163.72" cy="54.66" r="2.44"/><path class="cls-9" d="M125.85,55s6.26-6.28,17.32,0C143.17,55,133.55,44.38,125.85,55Z"/><path class="cls-9" d="M155.33,55s6.25-6.28,17.32,0C172.65,55,163,44.38,155.33,55Z"/><path class="cls-10" d="M145,69.6s5.84,2.25,7.76.32c.83-.83-3.64-17.43-2.18-17.08"/><path class="cls-10" d="M127.39,49s5.2-5.7,16.51,0"/><path class="cls-10" d="M156.14,49.72s5.21-5.7,16.51,0"/><path class="cls-11" d="M160.74,78.4a9.2,9.2,0,0,1-4.6,4.73c-.86-3-16.67-1.82-16.72-1.81A11.12,11.12,0,0,1,137,78.4Z"/><path class="cls-12" d="M156.14,83.13h0a15.63,15.63,0,0,1-6.53,1.57,14,14,0,0,1-10.19-3.38C139.47,81.31,155.28,80.16,156.14,83.13Z"/><polygon class="cls-11" points="139.42 81.32 139.42 81.32 139.42 81.32 139.42 81.32"/><path class="cls-1" d="M175.14,50.75s6.7-1.88,4.75,8.16a80.77,80.77,0,0,1-4.75,16.25Z"/><path class="cls-13" d="M148.86,27.69h0Z"/><line class="cls-13" x1="148.87" y1="27.69" x2="148.87" y2="27.69"/><path class="cls-14" d="M182.17,109.92s-3.34-.73-5.72-8.25a72.83,72.83,0,0,0-13.94-9.49c3.27-1.92,6.24-5.51,8.56-9,.38-.58.75-1.15,1.1-1.71a5.72,5.72,0,0,1,1.31-2.4c1.34-1.79.11-3.64.78-5.31.05-1.87.17-3.74.3-5.61.53-7.48,1.17-14.93-1.42-21.74-.22-.56-.44-1.1-.69-1.61a15.8,15.8,0,0,0-3.5-4.9,14,14,0,0,0-1.34-1.12c-3.28-2.83-7.59-2.83-12-2.55-.91.1-1.77.24-2.56.39-2.35.47-4,1.08-4.27,1.1h0c-.18,0-1-.3-2.23-.63a31.89,31.89,0,0,0-4.77-.9,19.44,19.44,0,0,0-6.05.2,16.29,16.29,0,0,0-3.12,1,13.36,13.36,0,0,0-3,1.73,40.16,40.16,0,0,0-3.57,4l-.93,2a24.81,24.81,0,0,0-2,5.4c-.18.73-.33,1.48-.44,2.23a33.35,33.35,0,0,0-.34,6.94c0,.78.11,1.56.19,2.35s0,1.37,0,2c-.17,6.43-1.4,13.83,4,18.29.55.74,1.11,1.48,1.67,2.2,2.81,3.61,5.49,6.66,5.49,6.66-1.7-1.11-3.7-.48-5.74,1.1a20,20,0,0,0-2,1.85,13.43,13.43,0,0,0-5.22,9.13c-.22.59-.46,1.14-.69,1.63-2.15,4.46-4.44,5-4.44,5s-.15-.88-.37-2.46c-.11-.79-.25-1.76-.46-2.87-4-6.93-2.8-14.33-.38-21.9.13-.91.24-1.83.31-2.76a23.82,23.82,0,0,0,.06-2.81l-.24-2.24c-.4-3.74-.72-7.43.5-11.13.34-.93.65-1.86.92-2.73s.51-1.68.68-2.38.35-1.14.5-1.73.29-1.19.4-1.8a3.36,3.36,0,0,0,0-2.17,22.53,22.53,0,0,1-.34-2.41c-.08-.8-.12-1.6-.12-2.39a11.91,11.91,0,0,1-.21-2.63A13.07,13.07,0,0,1,117.1,43c.2-.8.43-1.58.69-2.36s.55-1.54.87-2.29.63-1.44,1-2.15.68-1.43,1.05-2.18.62-1.7,1-2.55.75-1.68,1.18-2.5a20,20,0,0,1,.79-1.88,18.21,18.21,0,0,1,.92-1.69c4.16-7.68,12.57-11.45,21.09-11.72,1,0,1.9,0,2.84,0A23.86,23.86,0,0,1,161.55,16c.82.37,1.63.79,2.42,1.24,5.91,4.6,11.47,9.53,15.26,16.23a11.08,11.08,0,0,1,.15,2.46,15.48,15.48,0,0,1,.67,2.42,12.67,12.67,0,0,1,.2,2.55,13.21,13.21,0,0,1-.27,2.29c.46,5.93,1.2,11.82,1.75,17.68.08.84.15,1.68.22,2.52,1.5,7.18,4,14.58,1.26,22.76-.16.8-.36,1.59-.58,2.37s-.47,1.56-.74,2.32c-.06.8-.09,1.61-.12,2.42a52.75,52.75,0,0,0,.2,7.23,9.79,9.79,0,0,0,1,2.22,13,13,0,0,1-.15,3C182.43,108.35,182.17,109.92,182.17,109.92Z"/><path class="cls-2" d="M216.39,88.27s9.37-.69,9.79-12h23s.94,14.7,11.91,12l-1,8.45-22.4,8.93-19.45-5.22L213.49,91Z"/><path class="cls-15" d="M306.2,215,277,213.7v-94s6.75-38.95,17.13-17.81Q302.74,161,306.2,215Z"/><path class="cls-1" d="M209.34,35.86s-6.88-1.92-4.88,8.39a83.53,83.53,0,0,0,4.88,16.69Z"/><path class="cls-1" d="M234.81,7.34h5.79A26.62,26.62,0,0,1,267.21,34v21A29.51,29.51,0,0,1,237.7,84.43h0a29.51,29.51,0,0,1-29.51-29.51V34A26.62,26.62,0,0,1,234.81,7.34Z"/><path class="cls-16" d="M212.75,42.78S213.66,57,227,63.12h22.73S263.33,50,263.33,42.78l3.88.91a60.65,60.65,0,0,1,.84,18.49,36.41,36.41,0,0,1-.73,4,22.22,22.22,0,0,1-.7,3.38,18.61,18.61,0,0,1-1.16,3.08,21,21,0,0,1-1.6,2.71,18.8,18.8,0,0,1-2.07,2.43c-.5.82-1.05,1.62-1.63,2.39a28.1,28.1,0,0,1-1.85,2.21,24,24,0,0,1-2.2,2.7c-3.49,3.59-7.43,6.59-12.05,7.89a17.84,17.84,0,0,1-2.84.56,8.6,8.6,0,0,1-5.89-1c-5.87-5.19-11.4-9.68-18.59-11.75a20.22,20.22,0,0,1-2.06-1.6,23.3,23.3,0,0,1-1.87-1.85,25.45,25.45,0,0,1-3.89-7.72c-.24-.9-.44-1.82-.61-2.75a41.15,41.15,0,0,1-.41-11.16c-.05-1.36-.06-2.74,0-4,.07-3.94.53-7.29,1.78-8C213,41.94,212.75,42.78,212.75,42.78Z"/><path class="cls-7" d="M231.32,40.7c.06-4.54-14-4.71-14.1-.17C217.17,44.63,231.27,44.8,231.32,40.7Z"/><path class="cls-7" d="M259.67,40.7c.05-4.54-14.05-4.71-14.11-.17C245.51,44.63,259.62,44.8,259.67,40.7Z"/><circle class="cls-8" cx="223.83" cy="40.45" r="2.33"/><circle class="cls-8" cx="252.62" cy="40.45" r="2.33"/><path class="cls-4" d="M216.34,40.8s6-6,16.59,0C232.93,40.8,223.72,30.6,216.34,40.8Z"/><path class="cls-4" d="M244.58,40.8s6-6,16.59,0C261.17,40.8,252,30.6,244.58,40.8Z"/><path class="cls-16" d="M232.72,56.83A9.74,9.74,0,0,0,227,63.12h22.73c-.79-2.44-2.86-4.51-5.93-6.29Z"/><path class="cls-17" d="M235.21,56.77s4.8,2.43,6.38.35c.68-.89-3-18.78-1.8-18.41"/><path class="cls-18" d="M217.81,35.06s5-5.47,15.82,0"/><path class="cls-18" d="M245.36,35.72s5-5.46,15.81,0"/><path class="cls-11" d="M249.76,63.12a12.36,12.36,0,0,1-4.4,6.53c-.83-4.11-16-2.51-16-2.51a15.71,15.71,0,0,1-2.31-4Z"/><path class="cls-12" d="M245.36,69.65h0a11.44,11.44,0,0,1-6.25,2.16,11.24,11.24,0,0,1-9.76-4.67S244.53,65.54,245.36,69.65Z"/><polygon class="cls-11" points="229.34 67.14 229.34 67.14 229.34 67.14 229.34 67.14"/><path class="cls-1" d="M266.69,36.71s6.42-1.8,4.55,7.81a77.58,77.58,0,0,1-4.55,15.57Z"/><polygon class="cls-7" points="227.03 63.12 227.68 64.55 249.27 64.55 249.76 63.12 227.03 63.12"/><path class="cls-19" d="M234,41.13s6.18-4.67,10.28,0"/><line class="cls-19" x1="209.87" y1="37.05" x2="216.32" y2="40.45"/><line class="cls-19" x1="268.43" y1="36.91" x2="261.99" y2="40.79"/><circle class="cls-20" cx="225.16" cy="41.13" r="8.85"/><circle class="cls-20" cx="253.14" cy="41.13" r="8.85"/><path class="cls-16" d="M212.75,42.78s-2-14.7,4.48-20.48a8.94,8.94,0,0,1,2-1.35,7.16,7.16,0,0,1,1.3-.46c2.42-.68,5.19-.33,7.68-.18l1.87.2c11.57,1.25,17.53,3.43,17.53,3.43s3.46-3.32-2.24-5.16,9.27-.23,13.19,8a55.9,55.9,0,0,1,4.78,16.05l3.36.91s8.91-23.1-1.69-31C259.19,8.31,252,2.81,244.87.84c-.71-.2-1.42-.36-2.13-.49a15.51,15.51,0,0,0-1.9-.27A17.42,17.42,0,0,0,238.93,0a15.91,15.91,0,0,0-3.86.34c-.66.15-1.3.33-1.93.54s-1.24.45-1.84.71c-5.94,3-11.12,7.84-17.65,9.43-.63.19-1.25.4-1.84.63-2.95,1.16-5.3,2.95-5.5,6.68-.14.58-.27,1.16-.36,1.74a15,15,0,0,0-.13,3.54c0,.43.05.87,0,1.33C205.83,29.88,207.36,36,212.75,42.78Z"/><path class="cls-15" d="M171.46,215l29.22-1.28v-94s-6.76-38.95-17.14-17.81Q174.92,161,171.46,215Z"/><path class="cls-21" d="M270.89,88.27h-9.72c-3.19,8.27-12,14.21-22.34,14.21s-19.16-5.94-22.35-14.21h-9.72c-11.77,0-30.85,12.07-23.14,12.94,3.24.36,7.25,5,11,16.48V221.24H283V117.69c3.74-11.53,7.75-16.12,11-16.48C301.74,100.34,282.66,88.27,270.89,88.27Z"/><line class="cls-22" x1="238.83" y1="221.24" x2="238.83" y2="102.48"/><rect class="cls-23" x="194.61" y="221.24" width="88.35" height="29.84"/><polygon class="cls-23" points="238.83 251.08 224.22 387.14 207.51 387.14 194.61 251.08 238.83 251.08"/><polygon class="cls-23" points="282.96 251.08 268.43 387.14 251.82 387.14 238.98 251.08 282.96 251.08"/><path class="cls-1" d="M180,214.58s-3.31,26.1,14.57,28.72V214Z"/><path class="cls-1" d="M297.54,214.62s3.31,26.09-14.57,28.71V214Z"/><path class="cls-24" d="M251.82,387.14v12.91H295s5.69-12.94-20.36-10.52c0,0-6.34-1.12-5.55-8.51"/><path class="cls-24" d="M224.15,387.14v12.91H181s-5.69-12.94,20.36-10.52c0,0,6.34-1.12,5.55-8.51"/><circle class="cls-25" cx="246.24" cy="124.34" r="2.23"/><circle class="cls-25" cx="231.65" cy="124.34" r="2.23"/><circle class="cls-25" cx="246.24" cy="141.14" r="2.23"/><circle class="cls-25" cx="231.65" cy="141.14" r="2.23"/><circle class="cls-25" cx="246.24" cy="157.94" r="2.23"/><circle class="cls-25" cx="231.65" cy="157.94" r="2.23"/><circle class="cls-25" cx="246.24" cy="174.74" r="2.23"/><circle class="cls-25" cx="231.65" cy="174.74" r="2.23"/><circle class="cls-25" cx="246.24" cy="191.54" r="2.23"/><circle class="cls-25" cx="231.65" cy="191.54" r="2.23"/><path class="cls-1" d="M284.3,249.22s-3.51,27.66,15.44,30.44V248.54Z"/><path class="cls-1" d="M379.54,250s3.51,27.66-15.44,30.44V249.3Z"/><path class="cls-2" d="M312.58,151.79s8-.6,8.41-10.27h19.74s.81,12.63,10.22,10.27L350.1,159l-19.23,7.66-16.7-4.48-4.08-8.11Z"/><path class="cls-23" d="M386,251.12l-27.65-.31V177.67s7.14-30.29,18.11-13.85C382.54,194.48,383.52,223.1,386,251.12Z"/><path class="cls-23" d="M279,251.12l25.78-.31v-73s-7.14-30.24-18.11-13.83C280.59,194.58,281.48,223.15,279,251.12Z"/><path class="cls-26" d="M356.54,151.54h-7.63c-2.51,6.73-9.42,11.56-17.56,11.56s-15.05-4.83-17.55-11.56h-7.64c-9.25,0-24.23,9.82-18.18,10.53,2.55.29,5.7,4,8.64,13.41v93.06h69.46V175.48c2.94-9.38,6.09-13.12,8.64-13.41C380.77,161.36,365.79,151.54,356.54,151.54Z"/><rect class="cls-27" x="296.51" y="268.54" width="69.97" height="17.49"/><polygon class="cls-27" points="331.52 286.02 318.86 390.51 306.72 387.15 296.5 286.02 331.52 286.02"/><polygon class="cls-27" points="366.47 286.02 354.96 387.15 342.36 390.07 331.64 286.02 366.47 286.02"/><path class="cls-24" d="M306.47,385.64c.59,5.46-4.09,6.28-4.09,6.28-19.21-1.78-15,7.76-15,7.76h18.35l13.2-.1v-9.51Z"/><path class="cls-24" d="M355.23,385.39c-.6,5.64,4.24,6.5,4.24,6.5,19.89-1.85,15.54,8,15.54,8H342.37v-9.85Z"/><path class="cls-1" d="M328.62,76.59h5.27a24.22,24.22,0,0,1,24.22,24.22v19.07a26.85,26.85,0,0,1-26.85,26.85h0a26.85,26.85,0,0,1-26.85-26.85V100.81a24.22,24.22,0,0,1,24.22-24.22Z"/><path class="cls-4" d="M311.15,109.88s5.45-5.48,15.09,0C326.24,109.88,317.86,100.6,311.15,109.88Z"/><path class="cls-4" d="M336.84,109.88s5.45-5.48,15.1,0C351.94,109.88,343.55,100.6,336.84,109.88Z"/><path class="cls-28" d="M328.32,122.19s4.36,2.21,5.8.32c.62-.81-2.72-17.09-1.63-16.75"/><path class="cls-29" d="M312.48,102.44s4.54-5,14.39,0"/><path class="cls-29" d="M337.55,103s4.54-5,14.39,0"/><path class="cls-11" d="M341.55,128a11.2,11.2,0,0,1-4,5.94c-.76-3.74-14.53-2.28-14.58-2.28a14.31,14.31,0,0,1-2.1-3.66Z"/><path class="cls-12" d="M337.55,133.91h0A10.5,10.5,0,0,1,323,131.63S336.79,130.17,337.55,133.91Z"/><polygon class="cls-11" points="322.97 131.63 322.97 131.63 322.97 131.63 322.97 131.63"/><path class="cls-1" d="M304.78,103.94s-5.84-1.64-4.14,7.11a70.63,70.63,0,0,0,4.14,14.17Z"/><path class="cls-1" d="M357,103.94s5.84-1.64,4.14,7.11A70.63,70.63,0,0,1,357,125.22Z"/><rect class="cls-30" x="306.39" y="172.31" width="27.1" height="48.28" rx="11.74"/><rect class="cls-30" x="338.43" y="218.85" width="18.53" height="33.01" rx="8.03"/><path class="cls-16" d="M330.52,87.93s3.78,7.49,23,22.87c3.91,2.74.26,30.85-12,33.89l19.86,7.22s12.47-30.59-7.49-68.23a27.27,27.27,0,0,0-22.66-11.13s-25.23-.81-28.7,20.24l-.84,11S321.69,99.87,330.52,87.93Z"/><path class="cls-16" d="M303,90.59s-16.76,52.09,12.46,59.26"/><rect class="cls-31" x="299.74" y="101.93" width="6.13" height="1.88"/><path class="cls-1" d="M5.3,249.22s-3.51,27.66,15.44,30.44V248.54Z"/><path class="cls-1" d="M100.54,250s3.51,27.66-15.44,30.44V249.3Z"/><path class="cls-2" d="M33.58,151.79s8-.6,8.41-10.27H61.73s.81,12.63,10.22,10.27L71.1,159,51.87,166.7l-16.7-4.48-4.08-8.11Z"/><path class="cls-23" d="M107,251.12l-27.65-.31V177.67s7.14-30.29,18.11-13.85C103.54,194.48,104.52,223.1,107,251.12Z"/><path class="cls-23" d="M0,251.12l25.78-.31v-73S18.64,147.56,7.67,164C1.59,194.58,2.48,223.15,0,251.12Z"/><path class="cls-32" d="M77.54,151.54H69.91c-2.51,6.73-9.42,11.56-17.56,11.56S37.3,158.27,34.8,151.54H27.16c-9.25,0-24.23,9.82-18.18,10.53,2.55.29,5.7,4,8.64,13.41v93.06H87.08V175.48c2.94-9.38,6.09-13.12,8.64-13.41C101.77,161.36,86.79,151.54,77.54,151.54Z"/><polygon class="cls-1" points="52.52 286.02 39.86 390.51 27.72 387.15 17.5 286.02 52.52 286.02"/><polygon class="cls-1" points="87.47 286.02 75.96 387.15 63.36 390.07 52.64 286.02 87.47 286.02"/><path class="cls-24" d="M27.47,385.64c.59,5.46-4.09,6.28-4.09,6.28-19.21-1.78-15,7.76-15,7.76H26.72l13.2-.1v-9.51Z"/><path class="cls-24" d="M76.23,385.39c-.6,5.64,4.24,6.5,4.24,6.5,19.89-1.85,15.54,8,15.54,8H63.37v-9.85Z"/><path class="cls-1" d="M49.62,76.59h5.27a24.22,24.22,0,0,1,24.22,24.22v19.07a26.85,26.85,0,0,1-26.85,26.85h0A26.85,26.85,0,0,1,25.4,119.88V100.81A24.22,24.22,0,0,1,49.62,76.59Z"/><path class="cls-4" d="M32.15,109.88s5.45-5.48,15.09,0C47.24,109.88,38.86,100.6,32.15,109.88Z"/><path class="cls-4" d="M57.84,109.88s5.45-5.48,15.1,0C72.94,109.88,64.55,100.6,57.84,109.88Z"/><path class="cls-28" d="M49.32,122.19s4.36,2.21,5.8.32c.62-.81-2.72-17.09-1.63-16.75"/><path class="cls-29" d="M33.48,102.44s4.54-5,14.39,0"/><path class="cls-29" d="M58.55,103s4.54-5,14.39,0"/><path class="cls-11" d="M62.55,128a11.2,11.2,0,0,1-4,5.94c-.76-3.74-14.53-2.28-14.58-2.28a14.31,14.31,0,0,1-2.1-3.66Z"/><path class="cls-12" d="M58.55,133.91h0A10.5,10.5,0,0,1,44,131.63C44,131.63,57.79,130.17,58.55,133.91Z"/><polygon class="cls-11" points="43.97 131.63 43.97 131.63 43.97 131.63 43.97 131.63"/><path class="cls-1" d="M25.78,103.94s-5.84-1.64-4.14,7.11a70.63,70.63,0,0,0,4.14,14.17Z"/><path class="cls-1" d="M78,103.94s5.84-1.64,4.14,7.11A70.63,70.63,0,0,1,78,125.22Z"/><path class="cls-14" d="M51.52,87.93s3.78,7.49,23,22.87c3.91,2.74-3.1,41.71-13.55,59.49l27,6s5.23-61.74-13-92.61A27.27,27.27,0,0,0,52.26,72.55S27,71.74,23.56,92.79l-.84,11S42.69,99.87,51.52,87.93Z"/><path class="cls-14" d="M24,90.59s-15,70.79,14.18,78"/><polygon class="cls-32" points="107.2 317.55 3.2 317.55 17.51 254.54 87.47 254.54 107.2 317.55"/><rect class="cls-14" x="72.2" y="189.38" width="4" height="47.33"/><rect class="cls-14" x="64.2" y="189.38" width="4" height="47.33"/><rect class="cls-14" x="56.2" y="189.38" width="4" height="47.33"/><rect class="cls-14" x="32.2" y="189.38" width="4" height="47.33"/><circle class="cls-3" cx="46.2" cy="198.55" r="8"/></g></g></svg>