<svg xmlns="http://www.w3.org/2000/svg" viewBox="0 0 325.61 286"><defs><style>.cls-1{fill:#dce6e0;}.cls-2{fill:#fbc5aa;}.cls-3,.cls-36,.cls-39,.cls-7{fill:#00a881;}.cls-3,.cls-36,.cls-39{stroke:#489086;}.cls-14,.cls-15,.cls-18,.cls-20,.cls-21,.cls-23,.cls-24,.cls-3,.cls-30,.cls-31,.cls-32,.cls-33,.cls-36,.cls-39,.cls-42,.cls-43,.cls-7{stroke-miterlimit:10;}.cls-3,.cls-7{stroke-width:0.4px;}.cls-14,.cls-15,.cls-20,.cls-21,.cls-30,.cls-31,.cls-4,.cls-43{fill:#eed1bf;}.cls-5{fill:#d8dcec;}.cls-6{fill:#0054a6;}.cls-7{stroke:#003d7b;}.cls-8{fill:#7bafde;}.cls-9{fill:#44515c;}.cls-10{fill:#003d7b;}.cls-11{fill:#fff;}.cls-12{fill:#514835;}.cls-13{fill:#ebae8a;}.cls-14,.cls-15,.cls-30,.cls-43{stroke:#ebae8a;}.cls-14{stroke-width:0.47px;}.cls-15{stroke-width:0.23px;}.cls-16{fill:#5a3b34;}.cls-17{fill:#d55225;}.cls-18,.cls-23,.cls-24,.cls-27,.cls-32,.cls-33,.cls-42{fill:none;}.cls-18,.cls-23,.cls-24,.cls-31,.cls-32,.cls-33{stroke:#231f20;}.cls-18{stroke-width:0.25px;}.cls-19{fill:#cabcdc;}.cls-20,.cls-21{stroke:#ebc35c;}.cls-20{stroke-width:0.53px;}.cls-21{stroke-width:0.79px;}.cls-22{fill:#c1c0db;}.cls-23{stroke-width:0.26px;}.cls-24{stroke-width:0.24px;}.cls-25{fill:#d1bbae;}.cls-26{fill:#e6a454;}.cls-28{fill:#0068ac;}.cls-29{fill:#317b89;}.cls-30{stroke-width:0.46px;}.cls-31{stroke-width:1.16px;}.cls-32{stroke-width:0.25px;}.cls-33{stroke-width:0.23px;}.cls-34{fill:#231f20;}.cls-35{fill:#006a65;}.cls-36{stroke-width:0.4px;}.cls-37{fill:#007dac;}.cls-38{fill:#004368;}.cls-39{stroke-width:0.43px;}.cls-40{fill:#a862a7;}.cls-41{fill:#d89f72;}.cls-42{stroke:#c1c0db;stroke-width:0.42px;}.cls-43{stroke-width:0.52px;}.cls-44{fill:#f5e6c1;}.cls-45{fill:#ffebc6;}</style></defs><title>family members 02</title><g id="Layer_2" data-name="Layer 2"><g id="Glavno_Besedilo" data-name="Glavno Besedilo"><ellipse class="cls-1" cx="162.8" cy="278.27" rx="162.8" ry="7.73"/><path class="cls-2" d="M110.08,60.95s6.55-.49,6.85-8.36H133s.66,10.28,8.32,8.36l-.69,5.91L125,73.09l-13.6-3.65-3.32-6.6Z"/><path class="cls-3" d="M94.86,153.9"/><path class="cls-4" d="M84.67,149.24s-2.31,18.24,10.19,20.07V148.8Z"/><path class="cls-4" d="M166.81,149.27s2.31,18.24-10.19,20.07V148.82Z"/><path class="cls-5" d="M172.86,149.52l-20.43-.89V82.9s4.72-27.23,12-12.45Q170.44,111.78,172.86,149.52Z"/><path class="cls-5" d="M78.67,149.52l20.43-.89V82.9s-4.72-27.23-12-12.45Q81.09,111.78,78.67,149.52Z"/><path class="cls-6" d="M148.18,60.95h-6.79c-2.23,5.78-8.38,9.93-15.62,9.93s-13.39-4.15-15.62-9.93h-6.79c-8.23,0-21.56,8.43-16.18,9,2.27.26,5.07,3.46,7.69,11.52V153.9h61.82V81.51c2.62-8.06,5.42-11.27,7.69-11.52C169.75,69.38,156.41,60.95,148.18,60.95Z"/><line class="cls-7" x1="125.77" y1="153.9" x2="125.77" y2="70.88"/><rect class="cls-8" x="94.86" y="153.9" width="61.76" height="20.86"/><polygon class="cls-8" points="125.77 174.76 115.56 269.87 103.88 269.87 94.86 174.76 125.77 174.76"/><polygon class="cls-8" points="156.62 174.76 146.46 269.87 134.85 269.87 125.88 174.76 156.62 174.76"/><path class="cls-9" d="M134.85,269.87v9H165s4-9-14.23-7.35c0,0-4.44-.78-3.88-6"/><path class="cls-9" d="M115.51,269.87v9H85.33s-4-9,14.23-7.35c0,0,4.44-.78,3.88-6"/><circle class="cls-10" cx="130.95" cy="86.16" r="1.56" transform="translate(9.88 185.72) rotate(-72.78)"/><circle class="cls-10" cx="120.75" cy="86.16" r="1.56" transform="translate(2.7 175.98) rotate(-72.78)"/><circle class="cls-10" cx="130.95" cy="97.9" r="1.56" transform="translate(-1.34 193.99) rotate(-72.78)"/><circle class="cls-10" cx="120.75" cy="97.9" r="1.56" transform="translate(-8.52 184.25) rotate(-72.78)"/><circle class="cls-10" cx="130.95" cy="109.65" r="1.56" transform="translate(-12.56 202.26) rotate(-72.78)"/><circle class="cls-10" cx="120.75" cy="109.65" r="1.56" transform="translate(-19.74 192.51) rotate(-72.78)"/><circle class="cls-10" cx="130.95" cy="121.39" r="1.56" transform="translate(-23.77 210.52) rotate(-72.78)"/><circle class="cls-10" cx="120.75" cy="121.39" r="1.56" transform="translate(-30.95 200.78) rotate(-72.78)"/><circle class="cls-10" cx="130.95" cy="133.13" r="1.56" transform="matrix(0.3, -0.96, 0.96, 0.3, -34.99, 218.79)"/><circle class="cls-10" cx="120.75" cy="133.13" r="1.56" transform="translate(-42.17 209.05) rotate(-72.78)"/><path class="cls-4" d="M123.92,6h3.9a18,18,0,0,1,18,18V38.15a19.91,19.91,0,0,1-19.91,19.91h0A19.91,19.91,0,0,1,106,38.15V24a18,18,0,0,1,18-18Z"/><path class="cls-11" d="M121.1,29c0-3.06-9.48-3.18-9.52-.12C111.55,31.68,121.06,31.79,121.1,29Z"/><path class="cls-11" d="M140.22,29c0-3.06-9.48-3.18-9.52-.12C130.67,31.68,140.19,31.79,140.22,29Z"/><circle class="cls-12" cx="116.04" cy="28.86" r="1.57"/><circle class="cls-12" cx="135.47" cy="28.86" r="1.57"/><path class="cls-13" d="M111,29.09s4-4.06,11.2,0C122.19,29.09,116,22.21,111,29.09Z"/><path class="cls-13" d="M130,29.09s4-4.06,11.2,0C141.24,29.09,135,22.21,130,29.09Z"/><path class="cls-14" d="M123.72,39.87s3.24,1.64,4.3.24c.46-.6-2-12.68-1.21-12.42"/><path class="cls-15" d="M112,25.22s3.36-3.69,10.67,0"/><path class="cls-15" d="M130.57,25.67s3.36-3.69,10.67,0"/><path class="cls-16" d="M133.54,46a5.93,5.93,0,0,1-3,3.06c-.56-1.92-10.77-1.18-10.81-1.17A7.23,7.23,0,0,1,118.2,46Z"/><path class="cls-17" d="M130.57,49h0a10,10,0,0,1-4.22,1,9.05,9.05,0,0,1-6.59-2.18S130,47.09,130.57,49Z"/><polygon class="cls-16" points="119.76 47.84 119.76 47.84 119.76 47.84 119.76 47.84"/><path class="cls-4" d="M106.27,26.33s-4.33-1.21-3.07,5.28a52.31,52.31,0,0,0,3.07,10.51Z"/><path class="cls-4" d="M145,26.33s4.33-1.21,3.07,5.28A52.31,52.31,0,0,1,145,42.11Z"/><path class="cls-15" d="M123,55.21s3.15-3.15,6.38-.16"/><rect class="cls-18" x="129.5" y="25.22" width="11.94" height="7.27" rx="3.41" ry="3.41"/><rect class="cls-18" x="110.62" y="25.22" width="11.94" height="7.27" rx="3.41" ry="3.41"/><path class="cls-18" d="M122.56,29.09s4.17-3.15,6.94,0"/><line class="cls-18" x1="106.27" y1="26.33" x2="110.62" y2="28.62"/><line class="cls-18" x1="145.78" y1="26.24" x2="141.44" y2="28.86"/><path class="cls-4" d="M15.44,136S13,155.44,26.32,157.39V135.48Z"/><path class="cls-4" d="M88.7,138.13s2.47,19.48-10.88,21.44V137.66Z"/><path class="cls-2" d="M37.93,60.79s6-.51,6.32-8.77H59.08s.61,10.79,7.68,8.77L66.11,67,51.67,73.53,39.12,69.7l-3.06-6.93Z"/><path class="cls-5" d="M9,143.47l21.81-.84V80.82s-5-25.6-12.79-11.71Q11.56,108,9,143.47Z"/><path class="cls-5" d="M96.51,143.47l-21.81-.84V80.82s5-25.6,12.79-11.71Q93.93,108,96.51,143.47Z"/><path class="cls-4" d="M50.8,6.53h3.33A15.31,15.31,0,0,1,69.43,21.84V41.63a17,17,0,0,1-17,17h0a17,17,0,0,1-17-17V21.84A15.31,15.31,0,0,1,50.8,6.53Z"/><path class="cls-11" d="M47.42,30.76c0-2.73-10-2.84-10-.1C37.34,33.13,47.39,33.23,47.42,30.76Z"/><path class="cls-11" d="M67.62,30.76c0-2.73-10-2.84-10-.1C57.53,33.13,67.58,33.23,67.62,30.76Z"/><circle class="cls-12" cx="42.09" cy="30.61" r="1.66"/><circle class="cls-12" cx="62.59" cy="30.61" r="1.66"/><path class="cls-19" d="M36.75,30.86s4.27-4.29,11.82,0C48.57,30.86,42,23.6,36.75,30.86Z"/><path class="cls-19" d="M56.87,30.86s4.27-4.29,11.82,0C68.69,30.86,62.12,23.6,56.87,30.86Z"/><path class="cls-20" d="M49.81,42.3s4,1.74,5.3.25c.57-.64-2.49-13.44-1.49-13.17"/><path class="cls-21" d="M37.8,26.77s3.55-3.89,11.27,0"/><path class="cls-21" d="M57.42,27.24s3.55-3.89,11.27,0"/><path class="cls-16" d="M60,46.85a6.64,6.64,0,0,1-2.85,3.54C56.64,48.16,46.83,49,46.8,49a8.33,8.33,0,0,1-1.5-2.18A37.92,37.92,0,0,0,60,46.85Z"/><path class="cls-17" d="M57.18,50.39h0a8.36,8.36,0,0,1-4.05,1.17A7.85,7.85,0,0,1,46.8,49S56.64,48.16,57.18,50.39Z"/><polygon class="cls-16" points="46.8 49.03 46.8 49.03 46.8 49.03 46.8 49.03"/><path class="cls-4" d="M69.33,27.93s4.57-1.28,3.24,5.57a55.24,55.24,0,0,1-3.24,11.09Z"/><path class="cls-22" d="M33.71,37.64c.11-1,.25-2.08.43-3.13a20.33,20.33,0,0,1,2.39-8,14.48,14.48,0,0,1,1.53-2.24c1-.7,1.78-2.27,2.89-2.62a10.64,10.64,0,0,1,1.84-.76,12.41,12.41,0,0,1,1.91-.43,40.3,40.3,0,0,1,4.79.15,12.44,12.44,0,0,1,4.37,1.22c.69.2,1.37.41,2.06.59A18.13,18.13,0,0,1,58.47,22,16.72,16.72,0,0,1,61,22a7.1,7.1,0,0,1,1.33,0,6.94,6.94,0,0,1,1.25.27c1.89.44,2.67,2,4.11,2.94.28.34.55.7.8,1.07s.49.76.71,1.16A18.73,18.73,0,0,1,70.39,30a20,20,0,0,1,.77,2.51c.23.49.69.49,1.15.74,0-.54.06-1.09.12-1.63s.13-1.08.22-1.61c3.26-3.28,6.8-7.22,6.47-12.44a7.59,7.59,0,0,0-.89-2.78,14.75,14.75,0,0,0-.78-1.3,30.64,30.64,0,0,0-5.37-5.74,12.09,12.09,0,0,1-.62-1.5,10.38,10.38,0,0,0-.62-1,10.27,10.27,0,0,0-.72-.93A9.47,9.47,0,0,0,69,3.19a14.68,14.68,0,0,0-5.22-2Q63,1,62.33,1c-3.82-.65-7.71,1.32-11.68.78-.44-.1-.88-.2-1.31-.32L48,1.07A10.55,10.55,0,0,0,36.25,2.83a13.17,13.17,0,0,0-3.91,6l-.8,1.27-.77.61A30.31,30.31,0,0,1,27.49,13a6.27,6.27,0,0,0-.89,1.25A10.6,10.6,0,0,0,26,15.67c-.16.46-.31.93-.44,1.4-1,3.8-.87,7.9,2.2,10.78.34.34.69.67,1,1,1.73,1.62,3.52,3.18,3.75,5.55l.59,2A13.5,13.5,0,0,0,33.71,37.64Z"/><path class="cls-4" d="M35.58,28.66S31,27.38,32.34,34.23a55.24,55.24,0,0,0,3.24,11.09Z"/><path class="cls-23" d="M48.43,31s4.4-3.33,7.32,0"/><line class="cls-23" x1="33.9" y1="28.64" x2="35.82" y2="30.49"/><line class="cls-23" x1="70.65" y1="27.92" x2="68.36" y2="30.73"/><circle class="cls-24" cx="42.12" cy="30.97" r="6.3"/><circle class="cls-24" cx="62.06" cy="30.97" r="6.3"/><circle class="cls-25" cx="34.76" cy="43.88" r="1.44"/><circle class="cls-25" cx="70.31" cy="43.15" r="1.44"/><path class="cls-4" d="M34.8,268s-6.68,6.07-12.42,5.95l23.83.17V268Z"/><path class="cls-26" d="M46.21,268v8.57h-6.3v-2.44s-13.89,5.1-20,3.9c0,0-7-.94,3.72-4.78,8-2.88,9.59-3.48,9.59-3.48"/><path class="cls-4" d="M72.22,268s7.19,6.07,12.93,5.95l-23.83.17V268Z"/><path class="cls-26" d="M61.32,268v8.57h6.3v-2.44s13.89,5.1,20,3.9c0,0,7-.94-3.72-4.78-8-2.88-9.59-3.48-9.59-3.48"/><path class="cls-27" d="M27.1,130.39l0-.19A1.1,1.1,0,0,0,27.1,130.39Z"/><polygon class="cls-28" points="25.98 141.53 25.98 153.26 34.8 268.01 46.22 268.01 54.4 172.15 61.3 268.01 72.22 268.01 81.77 153.26 81.77 141.53 25.98 141.53"/><path class="cls-26" d="M87.73,69.16c-2,.24-4.53,3.18-6.88,10.52,0,2.11,1.2,15.69-3,21.78-.91,9.59,2.61,33.05,3.79,42.89-23.83,20-55-2.06-55.86,2,1.15-9.7,2.82-35.42,1.93-44.89-4.71-6.54-4.44-22-4.44-22-2.33-7.12-4.78-10-6.79-10.24-5-.59,7.34-8.8,14.94-8.8h6.28A15.21,15.21,0,0,0,52.09,70a15.21,15.21,0,0,0,14.43-9.66h6.28C80.39,60.36,92.7,68.57,87.73,69.16Z"/><path class="cls-2" d="M177.87,70s6.29-.47,6.58-8H199.9s.63,9.88,8,8l-.67,5.68-15.05,6-13.07-3.51-3.19-6.35Z"/><path class="cls-29" d="M238.21,155.16l-19.63-.86V91.12s4.54-26.17,11.51-12Q235.89,118.89,238.21,155.16Z"/><path class="cls-4" d="M173.13,34.81s-4.63-1.3-3.28,5.63a55.87,55.87,0,0,0,3.28,11.22Z"/><path class="cls-4" d="M190.24,15.64h3.89A17.89,17.89,0,0,1,212,33.53V47.61a19.83,19.83,0,0,1-19.83,19.83h0a19.83,19.83,0,0,1-19.83-19.83V33.53a17.89,17.89,0,0,1,17.89-17.89Z"/><path class="cls-11" d="M187.9,38.05c0-3-9.44-3.17-9.48-.12C178.39,40.69,187.87,40.81,187.9,38.05Z"/><path class="cls-11" d="M206.95,38.05c0-3-9.44-3.17-9.48-.12C197.44,40.69,206.91,40.81,206.95,38.05Z"/><circle class="cls-12" cx="182.87" cy="37.89" r="1.57"/><circle class="cls-12" cx="202.21" cy="37.89" r="1.57"/><path class="cls-13" d="M177.83,38.12s4-4,11.15,0C189,38.12,182.79,31.27,177.83,38.12Z"/><path class="cls-13" d="M196.81,38.12s4-4,11.15,0C208,38.12,201.76,31.27,196.81,38.12Z"/><path class="cls-30" d="M190.51,48.85s3.22,1.63,4.28.24c.46-.6-2-12.62-1.2-12.37"/><path class="cls-31" d="M178.82,34.26s3.35-3.67,10.63,0"/><path class="cls-31" d="M197.33,34.71s3.35-3.67,10.63,0"/><path class="cls-16" d="M200.29,53.12a8.29,8.29,0,0,1-3,4.39c-.56-2.76-10.73-1.69-10.76-1.68A10.71,10.71,0,0,1,185,53.12Z"/><path class="cls-17" d="M197.33,57.51h0a7.67,7.67,0,0,1-4.2,1.45,7.57,7.57,0,0,1-6.56-3.14S196.77,54.75,197.33,57.51Z"/><polygon class="cls-16" points="186.57 55.82 186.57 55.82 186.57 55.82 186.57 55.82"/><path class="cls-4" d="M211.66,35.37s4.31-1.21,3.06,5.25a52.09,52.09,0,0,1-3.06,10.46Z"/><polygon class="cls-11" points="185.01 53.12 185.45 54.08 199.96 54.08 200.29 53.12 185.01 53.12"/><path class="cls-32" d="M189.71,38.34s4.15-3.14,6.91,0"/><line class="cls-32" x1="173.49" y1="35.6" x2="177.82" y2="37.89"/><line class="cls-32" x1="212.83" y1="35.51" x2="208.51" y2="38.12"/><circle class="cls-33" cx="183.76" cy="38.34" r="5.95"/><circle class="cls-33" cx="202.56" cy="38.34" r="5.95"/><path class="cls-34" d="M175.42,39.45s-1.34-9.88,3-13.77a5.93,5.93,0,0,1,1.33-.9,4.63,4.63,0,0,1,.88-.31,15.92,15.92,0,0,1,5.16-.12l1.26.13a55.23,55.23,0,0,1,11.78,2.31s2.33-2.23-1.51-3.47,6.23-.15,8.86,5.34a37.48,37.48,0,0,1,3.22,10.79l2.25.61s6-15.52-1.14-20.85c-3.9-2.92-8.74-6.62-13.52-7.94a14.7,14.7,0,0,0-1.43-.32,11.57,11.57,0,0,0-1.28-.19,12.13,12.13,0,0,0-1.28,0,10.65,10.65,0,0,0-2.6.23,13.21,13.21,0,0,0-1.3.36c-.42.14-.83.3-1.24.48-4,2-7.47,5.27-11.86,6.34-.42.13-.84.27-1.23.42-2,.78-3.56,2-3.69,4.49-.1.39-.18.78-.24,1.17a10.17,10.17,0,0,0-.09,2.38c0,.29,0,.59,0,.89C170.77,30.78,171.8,34.9,175.42,39.45Z"/><path class="cls-29" d="M147.67,155.16l19.63-.86V91.12s-4.54-26.17-11.51-12Q150,118.89,147.67,155.16Z"/><path class="cls-35" d="M214.49,70H208c-2.14,5.55-8.05,9.54-15,9.54s-12.87-4-15-9.54H171.4c-7.91,0-20.73,8.11-15.55,8.69,2.18.25,4.88,3.33,7.39,11.08v69.58h59.42V89.79C225.17,82,227.86,79,230,78.71,235.22,78.13,222.4,70,214.49,70Z"/><path class="cls-36" d="M163.9,154.19"/><rect class="cls-37" x="163.23" y="159.37" width="59.37" height="20.05"/><polygon class="cls-37" points="192.94 179.42 183.13 270.85 171.9 270.85 163.23 179.42 192.94 179.42"/><polygon class="cls-37" points="222.6 179.42 212.84 270.85 201.67 270.85 193.05 179.42 222.6 179.42"/><path class="cls-4" d="M153.69,149.52s-2.32,18.29,10.21,20.13V149.07Z"/><path class="cls-4" d="M232.39,154.92s2.22,17.53-9.79,19.3V154.49Z"/><path class="cls-9" d="M201.67,270.85v8.67h29s3.83-8.69-13.68-7.07c0,0-4.26-.75-3.73-5.72"/><path class="cls-9" d="M183.08,270.85v8.67h-29s-3.83-8.69,13.68-7.07c0,0,4.26-.75,3.73-5.72"/><circle class="cls-38" cx="183.88" cy="101.94" r="10.93"/><path class="cls-39" d="M303.29,149.76"/><path class="cls-4" d="M238.55,150.34s-2.42,19.11,10.67,21v-21.5Z"/><path class="cls-4" d="M310.42,152.47s2.42,19.11-10.67,21V152Z"/><path class="cls-2" d="M260.61,76.59s5.92-.5,6.2-8.6h14.55s.6,10.58,7.53,8.6l-.63,6.08-14.17,6.42-12.31-3.76-3-6.8Z"/><path class="cls-40" d="M232.2,157.7l21.4-.82V96.24s-4.95-25.12-12.55-11.49Q234.74,122.89,232.2,157.7Z"/><path class="cls-40" d="M318.08,157.7l-21.4-.82V96.24s4.95-25.12,12.55-11.49Q315.55,122.89,318.08,157.7Z"/><polygon class="cls-40" points="278.17 186.74 269.25 269.8 259.05 269.8 251.18 186.74 278.17 186.74"/><polygon class="cls-40" points="302.2 186.74 293.32 269.8 283.18 269.8 275.35 186.74 302.2 186.74"/><path class="cls-13" d="M299,141.48a120.69,120.69,0,0,1-.56-27.19c4.15-5.68,4.26-18.15,4.25-20.12,2.31-6.83,4.76-9.58,6.75-9.8,4.88-.55-7.2-8.2-14.66-8.2h-6.16c-2,5.24-7.59,9-14.15,9s-12.13-3.77-14.15-9h-6.16c-7.45,0-19.54,7.65-14.66,8.2,2,.22,4.38,2.9,6.66,9.54,0,0-.26,14.44,4.36,20.53a120.83,120.83,0,0,1-.57,27l-16.52,75.19s8.69,9,34,0c0,0,17.18,6.67,32.29,0,0,0,12.6,5.35,18.58,0Z"/><path class="cls-41" d="M259.05,269.8s-7.55,6-13.18,5.84l23.38.17v-6Z"/><path class="cls-13" d="M269.26,269.8v8.4h-6.18v-2.4s-13.62,5-19.6,3.83c0,0-6.82-.92,3.65-4.69,7.83-2.82,9.41-3.41,9.41-3.41"/><path class="cls-41" d="M293.38,269.8s7.55,6,13.18,5.84l-23.38.17v-6Z"/><path class="cls-13" d="M283.18,269.8v8.4h6.18v-2.4s13.62,5,19.6,3.83c0,0,6.82-.92-3.65-4.69-7.83-2.82-9.41-3.41-9.41-3.41"/><path class="cls-42" d="M250,144.91c.06-5,25.26,20,49,0"/><path class="cls-4" d="M272.26,19h4.5A16.23,16.23,0,0,1,293,35.2V53.74a18,18,0,0,1-18,18h-1a18,18,0,0,1-18-18V35.2A16.23,16.23,0,0,1,272.26,19Z"/><path class="cls-11" d="M269.4,43.55c0-3.28-10.14-3.4-10.18-.12C259.18,46.39,269.36,46.51,269.4,43.55Z"/><path class="cls-11" d="M289.87,43.55c0-3.28-10.14-3.4-10.18-.12C279.65,46.39,289.83,46.51,289.87,43.55Z"/><circle class="cls-12" cx="263.99" cy="43.37" r="1.68"/><circle class="cls-12" cx="284.78" cy="43.37" r="1.68"/><path class="cls-19" d="M258.58,43.62s4.33-4.35,12,0C270.57,43.62,263.91,36.26,258.58,43.62Z"/><path class="cls-19" d="M279,43.62s4.33-4.35,12,0C291,43.62,284.3,36.26,279,43.62Z"/><path class="cls-43" d="M271.82,53.71s4,1.56,5.37.23c.57-.58-2.52-12.06-1.51-11.82"/><path class="cls-43" d="M259.64,39.48s3.6-3.95,11.42,0"/><path class="cls-43" d="M279.54,40S283.14,36,291,40"/><path class="cls-16" d="M282.71,59.8a6.35,6.35,0,0,1-3.18,3.27C278.94,61,268,61.81,268,61.81a7.73,7.73,0,0,1-1.67-2Z"/><path class="cls-17" d="M279.54,63.07h0A10.75,10.75,0,0,1,275,64.15a9.69,9.69,0,0,1-7-2.34S278.94,61,279.54,63.07Z"/><polygon class="cls-16" points="267.97 61.81 267.97 61.81 267.97 61.81 267.97 61.81"/><path class="cls-4" d="M292.68,40.67s4.64-1.3,3.29,5.65a56,56,0,0,1-3.29,11.24Z"/><path class="cls-44" d="M274.5,24.72h0Z"/><line class="cls-44" x1="274.51" y1="24.72" x2="274.51" y2="24.72"/><path class="cls-45" d="M297.54,81.6s-2.31-.5-4-5.71a50.53,50.53,0,0,0-9.64-6.57,20.36,20.36,0,0,0,5.92-6.2c.27-.4.52-.8.76-1.19a4,4,0,0,1,.91-1.66c.92-1.24.07-2.52.54-3.67,0-1.29.12-2.58.21-3.88.37-5.18.81-10.33-1-15q-.22-.59-.47-1.11a11,11,0,0,0-2.42-3.39,9.57,9.57,0,0,0-.93-.78c-2.27-2-5.25-2-8.27-1.77-.63.07-1.23.17-1.77.27-1.63.32-2.76.74-3,.76h0c-.12,0-.69-.2-1.55-.43a22.93,22.93,0,0,0-3.3-.63,13.46,13.46,0,0,0-4.19.14,11.25,11.25,0,0,0-2.16.67,9.35,9.35,0,0,0-2,1.2,27.22,27.22,0,0,0-2.47,2.79l-.64,1.37a17.23,17.23,0,0,0-1.39,3.73q-.18.77-.31,1.55a23.21,23.21,0,0,0-.23,4.79q0,.81.13,1.63c0,.48,0,.95,0,1.42-.12,4.45-1,9.57,2.73,12.65.38.52.77,1,1.16,1.53,1.94,2.49,3.79,4.61,3.79,4.61-1.18-.77-2.56-.33-4,.76a13.6,13.6,0,0,0-1.41,1.28A9.26,9.26,0,0,0,255,77c-.16.41-.32.79-.48,1.13-1.48,3.08-3.07,3.43-3.07,3.43s-.1-.61-.26-1.7c-.08-.55-.17-1.22-.31-2-2.8-4.79-1.94-9.91-.26-15.15.09-.63.17-1.26.21-1.9a17.44,17.44,0,0,0,0-1.94c-.05-.52-.11-1-.17-1.55a17.87,17.87,0,0,1,.34-7.7c.24-.65.45-1.29.64-1.89s.35-1.16.47-1.65.24-.79.35-1.2.2-.82.27-1.25a2.3,2.3,0,0,0,0-1.5q-.16-.84-.24-1.67t-.08-1.65A8.33,8.33,0,0,1,252.3,37a8.9,8.9,0,0,1,.23-1.73q.21-.83.48-1.63t.6-1.58q.32-.76.67-1.49c.23-.5.47-1,.73-1.5s.43-1.18.68-1.77.52-1.17.81-1.73.35-.88.55-1.29.41-.8.64-1.17c2.88-5.31,8.7-7.92,14.59-8.1.65,0,1.31,0,2,0a16.5,16.5,0,0,1,9,1.54c.57.26,1.13.55,1.68.86,4.09,3.18,7.93,6.6,10.55,11.23a7.82,7.82,0,0,1,.11,1.7,11,11,0,0,1,.46,1.67,8.51,8.51,0,0,1,.14,1.76,9,9,0,0,1-.18,1.59c.31,4.11.83,8.18,1.21,12.23q.08.87.15,1.74c1,5,2.75,10.09.87,15.75q-.17.83-.4,1.64t-.51,1.6q-.05.84-.08,1.68a37.45,37.45,0,0,0,.14,5,7.19,7.19,0,0,0,.68,1.53,9.28,9.28,0,0,1-.11,2C297.72,80.51,297.54,81.6,297.54,81.6Z"/></g></g></svg>