<svg xmlns="http://www.w3.org/2000/svg" viewBox="0 0 425.79 374"><defs><style>.cls-1{fill:#dce6e0;}.cls-2{fill:#fbc5aa;}.cls-3,.cls-36,.cls-39,.cls-7{fill:#00a881;}.cls-3,.cls-36,.cls-39{stroke:#489086;}.cls-14,.cls-15,.cls-18,.cls-20,.cls-21,.cls-23,.cls-24,.cls-3,.cls-30,.cls-31,.cls-32,.cls-33,.cls-36,.cls-39,.cls-42,.cls-43,.cls-7{stroke-miterlimit:10;}.cls-3,.cls-7{stroke-width:0.52px;}.cls-14,.cls-15,.cls-20,.cls-21,.cls-30,.cls-31,.cls-4,.cls-43{fill:#eed1bf;}.cls-5{fill:#d8dcec;}.cls-6{fill:#0054a6;}.cls-7{stroke:#003d7b;}.cls-8{fill:#7bafde;}.cls-9{fill:#44515c;}.cls-10{fill:#003d7b;}.cls-11{fill:#fff;}.cls-12{fill:#514835;}.cls-13{fill:#ebae8a;}.cls-14,.cls-15,.cls-30,.cls-43{stroke:#ebae8a;}.cls-14{stroke-width:0.61px;}.cls-15{stroke-width:0.31px;}.cls-16{fill:#5a3b34;}.cls-17{fill:#d55225;}.cls-18,.cls-23,.cls-24,.cls-27,.cls-32,.cls-33,.cls-42{fill:none;}.cls-18,.cls-23,.cls-24,.cls-31,.cls-32,.cls-33{stroke:#231f20;}.cls-18{stroke-width:0.33px;}.cls-19{fill:#cabcdc;}.cls-20,.cls-21{stroke:#ebc35c;}.cls-20{stroke-width:0.7px;}.cls-21{stroke-width:1.03px;}.cls-22{fill:#c1c0db;}.cls-23{stroke-width:0.34px;}.cls-24{stroke-width:0.32px;}.cls-25{fill:#d1bbae;}.cls-26{fill:#e6a454;}.cls-28{fill:#0068ac;}.cls-29{fill:#317b89;}.cls-30{stroke-width:0.61px;}.cls-31{stroke-width:1.52px;}.cls-32{stroke-width:0.32px;}.cls-33{stroke-width:0.3px;}.cls-34{fill:#231f20;}.cls-35{fill:#065;}.cls-36{stroke-width:0.52px;}.cls-37{fill:#007dac;}.cls-38{fill:#004368;}.cls-39{stroke-width:0.56px;}.cls-40{fill:#a862a7;}.cls-41{fill:#d89f72;}.cls-42{stroke:#c1c0db;stroke-width:0.55px;}.cls-43{stroke-width:0.67px;}.cls-44{fill:#f5e6c1;}.cls-45{fill:#ffebc6;}</style></defs><title>family members 01</title><g id="Layer_2" data-name="Layer 2"><g id="Glavno_Besedilo" data-name="Glavno Besedilo"><ellipse class="cls-1" cx="212.9" cy="363.89" rx="212.9" ry="10.11"/><path class="cls-2" d="M144,79.7s8.56-.64,9-10.93h21s.86,13.44,10.89,10.93l-.91,7.72-20.48,8.16-17.78-4.77-4.34-8.63Z"/><path class="cls-3" d="M124,201.25"/><path class="cls-4" d="M110.73,195.16S107.7,219,124,221.41V194.58Z"/><path class="cls-4" d="M218.13,195.2s3,23.85-13.32,26.25V194.62Z"/><path class="cls-5" d="M226.05,195.53l-26.71-1.17v-86S205.52,72.8,215,92.12Q222.89,146.18,226.05,195.53Z"/><path class="cls-5" d="M102.88,195.53l26.71-1.17v-86s-6.17-35.61-15.66-16.28Q106,146.18,102.88,195.53Z"/><path class="cls-6" d="M193.78,79.7h-8.88c-2.92,7.55-11,13-20.43,13S147,87.25,144,79.7h-8.88c-10.76,0-28.2,11-21.16,11.82,3,.33,6.63,4.53,10.05,15.07v94.66h80.84V106.59c3.42-10.54,7.09-14.73,10.05-15.07C222,90.73,204.54,79.7,193.78,79.7Z"/><line class="cls-7" x1="164.47" y1="201.25" x2="164.47" y2="92.68"/><rect class="cls-8" x="124.05" y="201.25" width="80.77" height="27.27"/><polygon class="cls-8" points="164.47 228.53 151.11 352.91 135.84 352.91 124.05 228.53 164.47 228.53"/><polygon class="cls-8" points="204.81 228.53 191.53 352.91 176.34 352.91 164.61 228.53 204.81 228.53"/><path class="cls-9" d="M176.34,352.91v11.8h39.47s5.21-11.83-18.61-9.61c0,0-5.8-1-5.08-7.79"/><path class="cls-9" d="M151.05,352.91v11.8H111.58s-5.21-11.83,18.61-9.61c0,0,5.8-1,5.08-7.79"/><circle class="cls-10" cx="171.24" cy="112.67" r="2.04" transform="translate(12.92 242.87) rotate(-72.78)"/><circle class="cls-10" cx="157.9" cy="112.67" r="2.04" transform="translate(3.53 230.13) rotate(-72.78)"/><circle class="cls-10" cx="171.24" cy="128.03" r="2.04" transform="matrix(0.3, -0.96, 0.96, 0.3, -1.75, 253.68)"/><circle class="cls-10" cx="157.9" cy="128.03" r="2.04" transform="translate(-11.14 240.94) rotate(-72.78)"/><circle class="cls-10" cx="171.24" cy="143.38" r="2.04" transform="translate(-16.42 264.49) rotate(-72.78)"/><circle class="cls-10" cx="157.9" cy="143.38" r="2.04" transform="translate(-25.81 251.75) rotate(-72.78)"/><circle class="cls-10" cx="171.24" cy="158.74" r="2.04" transform="matrix(0.3, -0.96, 0.96, 0.3, -31.09, 275.3)"/><circle class="cls-10" cx="157.9" cy="158.74" r="2.04" transform="translate(-40.48 262.56) rotate(-72.78)"/><circle class="cls-10" cx="171.24" cy="174.1" r="2.04" transform="translate(-45.75 286.11) rotate(-72.78)"/><circle class="cls-10" cx="157.9" cy="174.1" r="2.04" transform="translate(-55.14 273.37) rotate(-72.78)"/><path class="cls-4" d="M162,7.91h5.11A23.49,23.49,0,0,1,190.64,31.4V49.89a26,26,0,0,1-26,26h0a26,26,0,0,1-26-26V31.4A23.49,23.49,0,0,1,162,7.91Z"/><path class="cls-11" d="M158.36,38c0-4-12.4-4.16-12.44-.15C145.87,41.42,158.31,41.57,158.36,38Z"/><path class="cls-11" d="M183.37,38c0-4-12.4-4.16-12.44-.15C170.88,41.42,183.33,41.57,183.37,38Z"/><circle class="cls-12" cx="151.75" cy="37.73" r="2.06"/><circle class="cls-12" cx="177.15" cy="37.73" r="2.06"/><path class="cls-13" d="M145.14,38s5.29-5.31,14.64,0C159.78,38,151.65,29,145.14,38Z"/><path class="cls-13" d="M170.06,38s5.29-5.31,14.64,0C184.7,38,176.56,29,170.06,38Z"/><path class="cls-14" d="M161.79,52.14s4.23,2.14,5.62.31c.6-.79-2.64-16.58-1.58-16.25"/><path class="cls-15" d="M146.44,33s4.4-4.82,14,0"/><path class="cls-15" d="M170.74,33.56s4.4-4.82,14,0"/><path class="cls-16" d="M174.63,60.09a7.76,7.76,0,0,1-3.88,4c-.73-2.52-14.09-1.54-14.14-1.53a9.45,9.45,0,0,1-2-2.47Z"/><path class="cls-17" d="M170.74,64.09h0a13.14,13.14,0,0,1-5.52,1.32,11.84,11.84,0,0,1-8.61-2.86S170,61.58,170.74,64.09Z"/><polygon class="cls-16" points="156.61 62.56 156.61 62.56 156.61 62.56 156.61 62.56"/><path class="cls-4" d="M139,34.43s-5.66-1.59-4,6.9a68.41,68.41,0,0,0,4,13.74Z"/><path class="cls-4" d="M189.57,34.43s5.66-1.59,4,6.9a68.41,68.41,0,0,1-4,13.74Z"/><path class="cls-15" d="M160.85,72.19s4.12-4.12,8.34-.2"/><rect class="cls-18" x="169.34" y="32.98" width="15.62" height="9.51" rx="4.45" ry="4.45"/><rect class="cls-18" x="144.65" y="32.98" width="15.62" height="9.51" rx="4.45" ry="4.45"/><path class="cls-18" d="M160.27,38s5.45-4.12,9.07,0"/><line class="cls-18" x1="138.97" y1="34.43" x2="144.65" y2="37.43"/><line class="cls-18" x1="190.64" y1="34.31" x2="184.96" y2="37.73"/><path class="cls-4" d="M20.2,177.79s-3.23,25.47,14.22,28V177.17Z"/><path class="cls-4" d="M116,180.63s3.23,25.47-14.22,28V180Z"/><path class="cls-2" d="M49.6,79.49s7.9-.67,8.26-11.47H77.25s.79,14.1,10,11.47l-.84,8.1L67.57,96.15l-16.41-5-4-9.06Z"/><path class="cls-5" d="M11.73,187.61l28.52-1.1V105.69S33.67,72.2,23.53,90.38Q15.11,141.21,11.73,187.61Z"/><path class="cls-5" d="M126.21,187.61l-28.52-1.1V105.69s6.59-33.48,16.73-15.31Q122.83,141.21,126.21,187.61Z"/><path class="cls-4" d="M66.43,8.54h4.35a20,20,0,0,1,20,20V54.43A22.19,22.19,0,0,1,68.6,76.63h0A22.19,22.19,0,0,1,46.41,54.43V28.56a20,20,0,0,1,20-20Z"/><path class="cls-11" d="M62,40.23c.05-3.58-13.09-3.71-13.14-.14C48.83,43.32,62,43.46,62,40.23Z"/><path class="cls-11" d="M88.42,40.23c.05-3.58-13.09-3.71-13.14-.14C75.24,43.32,88.38,43.46,88.42,40.23Z"/><circle class="cls-12" cx="55.04" cy="40.03" r="2.17"/><circle class="cls-12" cx="81.85" cy="40.03" r="2.17"/><path class="cls-19" d="M48.06,40.35s5.58-5.61,15.46,0C63.52,40.35,54.93,30.86,48.06,40.35Z"/><path class="cls-19" d="M74.37,40.35s5.58-5.61,15.46,0C89.82,40.35,81.24,30.86,74.37,40.35Z"/><path class="cls-20" d="M65.14,55.31s5.22,2.27,6.93.33c.74-.84-3.25-17.58-1.95-17.23"/><path class="cls-21" d="M49.43,35s4.65-5.09,14.73,0"/><path class="cls-21" d="M75.09,35.63s4.65-5.09,14.73,0"/><path class="cls-16" d="M78.5,61.26a8.68,8.68,0,0,1-3.73,4.63c-.7-2.91-13.53-1.78-13.58-1.78a10.89,10.89,0,0,1-2-2.85A49.58,49.58,0,0,0,78.5,61.26Z"/><path class="cls-17" d="M74.77,65.89h0a10.93,10.93,0,0,1-5.3,1.53,10.27,10.27,0,0,1-8.27-3.31S74.07,63,74.77,65.89Z"/><polygon class="cls-16" points="61.2 64.12 61.2 64.12 61.2 64.12 61.2 64.12"/><path class="cls-4" d="M90.66,36.52s6-1.67,4.24,7.28a72.23,72.23,0,0,1-4.24,14.5Z"/><path class="cls-22" d="M44.08,49.22c.14-1.35.33-2.72.57-4.09a26.58,26.58,0,0,1,3.13-10.51,18.93,18.93,0,0,1,2-2.92c1.31-.91,2.33-3,3.78-3.43a13.92,13.92,0,0,1,2.41-1,16.22,16.22,0,0,1,2.5-.56,52.7,52.7,0,0,1,6.26.2,16.26,16.26,0,0,1,5.71,1.6c.9.27,1.79.54,2.69.78a23.71,23.71,0,0,1,3.34-.5,21.87,21.87,0,0,1,3.36,0,9.28,9.28,0,0,1,1.74,0,9.08,9.08,0,0,1,1.64.35c2.47.58,3.49,2.64,5.38,3.85.36.45.71.92,1,1.41s.64,1,.93,1.52A24.49,24.49,0,0,1,92,39.18a26.12,26.12,0,0,1,1,3.28c.3.64.9.64,1.51,1,0-.71.08-1.42.16-2.13s.18-1.41.29-2.11c4.26-4.29,8.89-9.44,8.46-16.26a9.93,9.93,0,0,0-1.17-3.64,19.29,19.29,0,0,0-1-1.71,40.06,40.06,0,0,0-7-7.51,15.81,15.81,0,0,1-.82-2,13.57,13.57,0,0,0-.81-1.33,13.43,13.43,0,0,0-.94-1.21,12.39,12.39,0,0,0-1.49-1.41,19.2,19.2,0,0,0-6.82-2.64q-.92-.18-1.87-.28c-5-.86-10.08,1.72-15.28,1-.58-.12-1.15-.26-1.72-.41l-1.69-.47A13.8,13.8,0,0,0,47.41,3.7a17.22,17.22,0,0,0-5.11,7.88l-1,1.66-1,.8A39.63,39.63,0,0,1,35.94,17a8.2,8.2,0,0,0-1.17,1.63,13.86,13.86,0,0,0-.84,1.89c-.21.6-.41,1.21-.57,1.83-1.34,5-1.13,10.34,2.88,14.09.45.44.9.87,1.35,1.3,2.26,2.12,4.61,4.16,4.91,7.26q.39,1.35.77,2.67A17.65,17.65,0,0,0,44.08,49.22Z"/><path class="cls-4" d="M46.53,37.48s-6-1.67-4.24,7.28a72.23,72.23,0,0,0,4.24,14.5Z"/><path class="cls-23" d="M63.33,40.5s5.76-4.35,9.58,0"/><line class="cls-23" x1="44.33" y1="37.45" x2="46.84" y2="39.87"/><line class="cls-23" x1="92.39" y1="36.51" x2="89.39" y2="40.18"/><circle class="cls-24" cx="55.09" cy="40.5" r="8.24"/><circle class="cls-24" cx="81.15" cy="40.5" r="8.24"/><circle class="cls-25" cx="45.45" cy="57.39" r="1.89"/><circle class="cls-25" cx="91.95" cy="56.42" r="1.89"/><path class="cls-4" d="M45.51,350.47s-8.74,7.94-16.24,7.78l31.17.23v-8Z"/><path class="cls-26" d="M60.43,350.47v11.2H52.2v-3.19s-18.16,6.67-26.13,5.1c0,0-9.09-1.22,4.86-6.25,10.44-3.76,12.54-4.54,12.54-4.54"/><path class="cls-4" d="M94.44,350.47s9.41,7.94,16.91,7.78l-31.17.23v-8Z"/><path class="cls-26" d="M80.18,350.47v11.2h8.23v-3.19s18.16,6.67,26.13,5.1c0,0,9.09-1.22-4.86-6.25-10.44-3.76-12.54-4.54-12.54-4.54"/><path class="cls-27" d="M35.43,170.51l0-.25A1.43,1.43,0,0,0,35.43,170.51Z"/><polygon class="cls-28" points="33.98 185.08 33.98 200.42 45.51 350.47 60.43 350.47 71.13 225.12 80.16 350.47 94.44 350.47 106.92 200.42 106.92 185.08 33.98 185.08"/><path class="cls-26" d="M114.72,90.44c-2.65.32-5.92,4.16-9,13.75,0,2.76,1.57,20.51-4,28.49-1.19,12.54,3.42,43.22,5,56.09-31.16,26.16-71.88-2.69-73.05,2.56,1.5-12.69,3.68-46.32,2.52-58.7-6.16-8.55-5.81-28.81-5.81-28.81-3-9.32-6.26-13.07-8.88-13.39-6.5-.77,9.6-11.5,19.54-11.5h8.21A19.89,19.89,0,0,0,68.11,91.57,19.9,19.9,0,0,0,87,78.94h8.21C105.12,78.94,121.22,89.67,114.72,90.44Z"/><path class="cls-2" d="M232.6,91.57s8.23-.61,8.61-10.51h20.2s.83,12.92,10.46,10.51L271,99l-19.68,7.84-17.09-4.59L230,93.95Z"/><path class="cls-29" d="M311.51,202.91l-25.67-1.12V119.16s5.93-34.23,15.06-15.65Q308.47,155.47,311.51,202.91Z"/><path class="cls-4" d="M226.4,45.51s-6-1.69-4.29,7.37a73.06,73.06,0,0,0,4.29,14.67Z"/><path class="cls-4" d="M248.78,20.45h5.08a23.39,23.39,0,0,1,23.39,23.39V62.26a25.93,25.93,0,0,1-25.93,25.93h0a25.93,25.93,0,0,1-25.93-25.93V43.84A23.39,23.39,0,0,1,248.78,20.45Z"/><path class="cls-11" d="M245.71,49.76c0-4-12.34-4.14-12.39-.15C233.28,53.21,245.67,53.37,245.71,49.76Z"/><path class="cls-11" d="M270.62,49.76c0-4-12.34-4.14-12.39-.15C258.19,53.21,270.58,53.37,270.62,49.76Z"/><circle class="cls-12" cx="239.13" cy="49.54" r="2.05"/><circle class="cls-12" cx="264.42" cy="49.54" r="2.05"/><path class="cls-13" d="M232.55,49.85s5.26-5.29,14.58,0C247.13,49.85,239,40.89,232.55,49.85Z"/><path class="cls-13" d="M257.36,49.85s5.26-5.29,14.58,0C271.94,49.85,263.84,40.89,257.36,49.85Z"/><path class="cls-30" d="M249.13,63.89s4.22,2.13,5.6.31c.6-.79-2.63-16.51-1.58-16.18"/><path class="cls-31" d="M233.84,44.81s4.38-4.8,13.9,0"/><path class="cls-31" d="M258,45.39s4.38-4.8,13.9,0"/><path class="cls-16" d="M261.91,69.46A10.84,10.84,0,0,1,258,75.2C257.32,71.59,244,73,244,73a14,14,0,0,1-2-3.54Z"/><path class="cls-17" d="M258,75.2h0a10,10,0,0,1-5.49,1.9A9.9,9.9,0,0,1,244,73S257.32,71.59,258,75.2Z"/><polygon class="cls-16" points="243.97 73 243.97 73 243.97 73 243.97 73"/><path class="cls-4" d="M276.79,46.25s5.64-1.58,4,6.87a68.12,68.12,0,0,1-4,13.68Z"/><polygon class="cls-11" points="241.94 69.46 242.51 70.72 261.49 70.72 261.91 69.46 241.94 69.46"/><path class="cls-32" d="M248.08,50.14s5.43-4.11,9,0"/><line class="cls-32" x1="226.87" y1="46.55" x2="232.53" y2="49.54"/><line class="cls-32" x1="278.32" y1="46.44" x2="272.66" y2="49.84"/><circle class="cls-33" cx="240.3" cy="50.14" r="7.77"/><circle class="cls-33" cx="264.89" cy="50.14" r="7.77"/><path class="cls-34" d="M229.39,51.59s-1.76-12.92,3.94-18a7.75,7.75,0,0,1,1.74-1.18,6,6,0,0,1,1.15-.41c2.13-.6,4.56-.29,6.75-.16l1.64.17c10.16,1.1,15.4,3,15.4,3s3-2.92-2-4.54,8.15-.2,11.59,7a49,49,0,0,1,4.21,14.11l2.95.8s7.83-20.29-1.48-27.27c-5.11-3.82-11.43-8.65-17.68-10.39a19.23,19.23,0,0,0-1.88-.42,15.13,15.13,0,0,0-1.67-.24A15.87,15.87,0,0,0,252.4,14a13.93,13.93,0,0,0-3.4.3,17.27,17.27,0,0,0-1.69.48c-.55.18-1.09.39-1.62.62-5.22,2.64-9.77,6.89-15.51,8.29-.55.17-1.09.35-1.61.55-2.59,1-4.66,2.59-4.83,5.87-.13.51-.24,1-.32,1.53a13.3,13.3,0,0,0-.12,3.11c0,.38,0,.77,0,1.17C223.32,40.25,224.66,45.64,229.39,51.59Z"/><path class="cls-29" d="M193.11,202.91l25.67-1.12V119.16s-5.93-34.23-15.06-15.65Q196.15,155.47,193.11,202.91Z"/><path class="cls-35" d="M280.49,91.57h-8.54c-2.8,7.26-10.53,12.48-19.64,12.48s-16.83-5.22-19.64-12.48h-8.54c-10.34,0-27.11,10.6-20.34,11.36,2.85.32,6.38,4.35,9.66,14.48v91h77.7v-91c3.29-10.13,6.81-14.16,9.66-14.48C307.59,102.17,290.83,91.57,280.49,91.57Z"/><path class="cls-36" d="M214.34,201.63"/><rect class="cls-37" x="213.46" y="208.41" width="77.64" height="26.22"/><polygon class="cls-37" points="252.31 234.63 239.47 354.19 224.79 354.19 213.46 234.63 252.31 234.63"/><polygon class="cls-37" points="291.09 234.63 278.32 354.19 263.72 354.19 252.45 234.63 291.09 234.63"/><path class="cls-4" d="M201,195.52s-3,23.92,13.36,26.32v-26.9Z"/><path class="cls-4" d="M303.9,202.59s2.91,22.93-12.8,25.23V202Z"/><path class="cls-9" d="M263.72,354.19v11.34h37.94s5-11.37-17.89-9.24c0,0-5.58-1-4.88-7.48"/><path class="cls-9" d="M239.41,354.19v11.34H201.47s-5-11.37,17.89-9.24c0,0,5.58-1,4.88-7.48"/><circle class="cls-38" cx="240.46" cy="133.3" r="14.3"/><path class="cls-39" d="M396.6,195.84"/><path class="cls-4" d="M312,196.59s-3.17,25,14,27.5V196Z"/><path class="cls-4" d="M405.93,199.38s3.17,25-14,27.5V198.78Z"/><path class="cls-2" d="M340.8,100.16s7.75-.66,8.1-11.25h19s.78,13.84,9.85,11.25l-.82,8-18.53,8.39-16.1-4.91-3.93-8.89Z"/><path class="cls-40" d="M303.65,206.23l28-1.07v-79.3s-6.47-32.85-16.41-15Q307,160.7,303.65,206.23Z"/><path class="cls-40" d="M416,206.23l-28-1.07v-79.3s6.47-32.85,16.41-15Q412.64,160.7,416,206.23Z"/><polygon class="cls-40" points="363.76 244.19 352.1 352.82 338.76 352.82 328.46 244.19 363.76 244.19"/><polygon class="cls-40" points="395.18 244.19 383.58 352.82 370.31 352.82 360.07 244.19 395.18 244.19"/><path class="cls-13" d="M391,185a157.83,157.83,0,0,1-.73-35.55c5.42-7.43,5.57-23.74,5.56-26.31,3-8.94,6.22-12.52,8.83-12.82,6.38-.72-9.42-10.72-19.17-10.72h-8c-2.64,6.85-9.93,11.77-18.51,11.77s-15.87-4.92-18.51-11.77h-8c-9.75,0-25.55,10-19.17,10.72,2.57.29,5.73,3.79,8.71,12.47,0,0-.34,18.88,5.7,26.85a158,158,0,0,1-.75,35.36l-21.61,98.33s11.37,11.74,44.46,0c0,0,22.46,8.72,42.23,0,0,0,16.47,7,24.3,0Z"/><path class="cls-41" d="M338.76,352.82s-9.87,7.78-17.23,7.63l30.58.22v-7.85Z"/><path class="cls-13" d="M352.11,352.82v11H344v-3.13s-17.82,6.55-25.63,5c0,0-8.92-1.2,4.77-6.14,10.24-3.69,12.31-4.46,12.31-4.46"/><path class="cls-41" d="M383.65,352.82s9.87,7.78,17.23,7.63l-30.58.22v-7.85Z"/><path class="cls-13" d="M370.31,352.82v11h8.08v-3.13s17.82,6.55,25.63,5c0,0,8.92-1.2-4.77-6.14-10.24-3.69-12.31-4.46-12.31-4.46"/><path class="cls-42" d="M326.9,189.5c.08-6.52,33,26.1,64.13,0"/><path class="cls-4" d="M356,24.8h5.89A21.23,21.23,0,0,1,383.14,46V70.27a23.53,23.53,0,0,1-23.53,23.53h-1.27A23.53,23.53,0,0,1,334.8,70.27V46A21.23,21.23,0,0,1,356,24.8Z"/><path class="cls-11" d="M352.29,57c.05-4.29-13.27-4.45-13.32-.16C338.93,60.66,352.25,60.82,352.29,57Z"/><path class="cls-11" d="M379.06,57c.05-4.29-13.27-4.45-13.32-.16C365.7,60.66,379,60.82,379.06,57Z"/><circle class="cls-12" cx="345.22" cy="56.72" r="2.2"/><circle class="cls-12" cx="372.4" cy="56.72" r="2.2"/><path class="cls-19" d="M338.15,57s5.66-5.68,15.67,0C353.82,57,345.11,47.42,338.15,57Z"/><path class="cls-19" d="M364.81,57s5.66-5.68,15.67,0C380.48,57,371.78,47.42,364.81,57Z"/><path class="cls-43" d="M355.46,70.23s5.29,2,7,.29c.75-.75-3.3-15.77-2-15.45"/><path class="cls-43" d="M339.53,51.63s4.71-5.16,14.93,0"/><path class="cls-43" d="M365.55,52.25s4.71-5.16,14.93,0"/><path class="cls-16" d="M369.7,78.19a8.3,8.3,0,0,1-4.16,4.28c-.78-2.69-15.08-1.65-15.13-1.64a10.11,10.11,0,0,1-2.18-2.64Z"/><path class="cls-17" d="M365.55,82.47h0a14.06,14.06,0,0,1-5.91,1.42,12.67,12.67,0,0,1-9.22-3.06S364.76,79.78,365.55,82.47Z"/><polygon class="cls-16" points="350.42 80.83 350.42 80.83 350.42 80.83 350.42 80.83"/><path class="cls-4" d="M382.73,53.18s6.06-1.7,4.3,7.38a73.21,73.21,0,0,1-4.3,14.7Z"/><path class="cls-44" d="M359,32.32h0Z"/><line class="cls-44" x1="358.97" y1="32.32" x2="358.97" y2="32.32"/><path class="cls-45" d="M389.09,106.7s-3-.66-5.17-7.46a66.08,66.08,0,0,0-12.61-8.59c3-1.73,5.65-5,7.74-8.11.35-.52.68-1,1-1.55a5.17,5.17,0,0,1,1.19-2.17c1.21-1.62.09-3.29.7-4.8,0-1.68.15-3.38.27-5.07.48-6.77,1.06-13.51-1.29-19.67q-.29-.77-.62-1.46a14.39,14.39,0,0,0-3.17-4.43,12.52,12.52,0,0,0-1.21-1c-3-2.56-6.87-2.56-10.81-2.31-.83.09-1.61.22-2.31.36-2.13.42-3.62,1-3.86,1h0c-.16,0-.9-.27-2-.56A30,30,0,0,0,352.6,40a17.6,17.6,0,0,0-5.47.19,14.71,14.71,0,0,0-2.83.87,12.23,12.23,0,0,0-2.67,1.56,35.6,35.6,0,0,0-3.23,3.65l-.84,1.8A22.53,22.53,0,0,0,335.74,53q-.24,1-.4,2a30.35,30.35,0,0,0-.3,6.27q.05,1.06.17,2.13c0,.63,0,1.24,0,1.85-.15,5.81-1.27,12.51,3.57,16.54.5.67,1,1.35,1.51,2,2.53,3.26,5,6,5,6-1.54-1-3.35-.43-5.19,1a17.79,17.79,0,0,0-1.85,1.68,12.11,12.11,0,0,0-4.72,8.26c-.21.54-.42,1-.63,1.48-1.94,4-4,4.48-4,4.48s-.13-.79-.34-2.22c-.1-.72-.22-1.59-.41-2.59-3.66-6.27-2.54-13-.35-19.81.12-.82.22-1.65.28-2.49a22.8,22.8,0,0,0,.05-2.54c-.07-.68-.14-1.36-.22-2-.36-3.38-.65-6.72.45-10.07.31-.85.59-1.68.83-2.47s.46-1.52.61-2.15.31-1,.45-1.57.26-1.07.36-1.63a3,3,0,0,0,0-2q-.21-1.1-.31-2.18t-.11-2.16a10.89,10.89,0,0,1-.19-2.38,11.63,11.63,0,0,1,.3-2.27q.27-1.09.62-2.14t.78-2.07q.42-1,.88-2c.3-.65.62-1.29.95-2s.56-1.54.89-2.31.68-1.52,1.06-2.27q.32-.89.71-1.69t.83-1.54c3.77-6.95,11.38-10.35,19.08-10.6.86,0,1.71,0,2.57,0a21.57,21.57,0,0,1,11.83,2c.74.34,1.48.72,2.19,1.12C378,27,383,31.46,386.43,37.52a10.23,10.23,0,0,1,.14,2.22,14.39,14.39,0,0,1,.6,2.19,11.13,11.13,0,0,1,.18,2.3,11.73,11.73,0,0,1-.24,2.07c.41,5.37,1.09,10.7,1.58,16q.11,1.14.2,2.27c1.36,6.5,3.59,13.19,1.14,20.6q-.22,1.08-.53,2.14t-.67,2.09q-.07,1.1-.11,2.2a49,49,0,0,0,.18,6.54,9.4,9.4,0,0,0,.88,2,12.14,12.14,0,0,1-.14,2.67C389.32,105.29,389.09,106.7,389.09,106.7Z"/></g></g></svg>