<svg xmlns="http://www.w3.org/2000/svg" xmlns:xlink="http://www.w3.org/1999/xlink" viewBox="0 0 118.1 328.66"><defs><style>.cls-1{fill:#58469f;}.cls-2{clip-path:url(#clip-path);}.cls-10,.cls-11,.cls-3{fill:#eed1bf;}.cls-4{fill:#fbc5aa;}.cls-5{fill:#007dac;}.cls-6{fill:#004e7c;}.cls-7{fill:#df584f;}.cls-8{fill:#44515c;}.cls-9{fill:#ebae8a;}.cls-10,.cls-11{stroke:#ebae8a;stroke-miterlimit:10;}.cls-10{stroke-width:0.6px;}.cls-11{stroke-width:0.3px;}.cls-12{fill:#5a3b34;}.cls-13{fill:#d55225;}.cls-14{fill:#c26b9b;}.cls-15{fill:#9d4838;}.cls-16{fill:#ffcf01;}</style><clipPath id="clip-path"><circle class="cls-1" cx="59.05" cy="59.05" r="59.05"/></clipPath></defs><g id="Layer_2" data-name="Layer 2"><g id="Glavno_Besedilo" data-name="Glavno Besedilo"><circle class="cls-1" cx="59.05" cy="59.05" r="59.05"/><g class="cls-2"><path class="cls-3" d="M14.46,186.12s-3.32,26.16,14.61,28.79V185.48Z"/><path class="cls-3" d="M104.55,186.84s3.32,26.16-14.61,28.79V186.2Z"/><path class="cls-4" d="M41.21,94s7.61-.57,7.95-9.71H67.84S68.6,96.2,77.51,94l-.81,6.86-18.19,7.24-15.8-4.24-3.85-7.67Z"/><path class="cls-5" d="M110.65,187.92l-26.15-.3V118.45s6.75-28.66,17.13-13.11C107.38,134.34,108.31,161.42,110.65,187.92Z"/><path class="cls-5" d="M9.45,187.92l24.39-.3V118.57S27.08,90,16.71,105.49C11,134.44,11.79,161.46,9.45,187.92Z"/><path class="cls-6" d="M82.79,93.73H75.57c-2.37,6.36-8.91,10.93-16.6,10.93s-14.24-4.57-16.61-10.93H35.14c-8.75,0-22.92,9.29-17.2,10,2.41.28,5.39,3.81,8.17,12.68v88H91.82v-88c2.78-8.87,5.76-12.4,8.17-12.68C105.71,103,91.54,93.73,82.79,93.73Z"/><rect class="cls-7" x="26.01" y="204.39" width="66.18" height="16.54"/><polygon class="cls-7" points="59.13 220.93 47.15 319.76 35.67 316.58 26.01 220.93 59.13 220.93"/><polygon class="cls-7" points="92.18 220.93 81.3 316.58 69.38 319.34 59.24 220.93 92.18 220.93"/><path class="cls-8" d="M35.44,315.15c.55,5.16-3.88,5.94-3.88,5.94-18.17-1.68-14.2,7.34-14.2,7.34H34.72l12.49-.09v-9Z"/><path class="cls-8" d="M81.55,314.91c-.57,5.34,4,6.15,4,6.15,18.81-1.74,14.7,7.6,14.7,7.6H69.38v-9.32Z"/><path class="cls-3" d="M56.39,22.84h5A22.91,22.91,0,0,1,84.28,45.75v18a25.4,25.4,0,0,1-25.4,25.4h0a25.4,25.4,0,0,1-25.4-25.4v-18A22.91,22.91,0,0,1,56.39,22.84Z"/><path class="cls-9" d="M39.86,54.32s5.15-5.18,14.28,0C54.14,54.32,46.2,45.55,39.86,54.32Z"/><path class="cls-9" d="M64.16,54.32s5.15-5.18,14.28,0C78.44,54.32,70.5,45.55,64.16,54.32Z"/><path class="cls-10" d="M56.1,66s4.13,2.09,5.48.31C62.17,65.5,59,50.11,60,50.43"/><path class="cls-11" d="M41.12,47.29s4.29-4.71,13.61,0"/><path class="cls-11" d="M64.83,47.86s4.29-4.71,13.61,0"/><path class="cls-12" d="M68.62,71.44a10.67,10.67,0,0,1-3.79,5.62C64.11,73.52,51.09,74.9,51,74.9a13.67,13.67,0,0,1-2-3.46Z"/><path class="cls-13" d="M64.83,77.06h0a9.89,9.89,0,0,1-5.38,1.86,9.7,9.7,0,0,1-8.4-4C51.09,74.9,64.11,73.52,64.83,77.06Z"/><polygon class="cls-12" points="51.04 74.9 51.04 74.9 51.04 74.9 51.04 74.9"/><path class="cls-3" d="M33.84,48.7s-5.53-1.54-3.92,6.73a66.6,66.6,0,0,0,3.92,13.4Z"/><path class="cls-3" d="M83.19,48.7s5.52-1.54,3.91,6.73a66.26,66.26,0,0,1-3.91,13.4Z"/><rect class="cls-14" x="35.36" y="113.38" width="25.63" height="45.66" rx="11.11"/><rect class="cls-14" x="65.66" y="157.4" width="17.52" height="31.22" rx="7.6"/><path class="cls-15" d="M58.18,33.57s3.57,7.08,21.75,21.63c3.71,2.59.25,29.18-11.31,32.05L87.4,94.08s11.79-28.93-7.08-64.53A25.81,25.81,0,0,0,58.88,19S35,18.26,31.73,38.16l-.79,10.43S49.83,44.86,58.18,33.57Z"/><path class="cls-15" d="M32.17,36.08S16.31,85.35,44,92.14"/><rect class="cls-16" x="29.06" y="46.81" width="5.8" height="1.78"/></g></g></g></svg>