<svg xmlns="http://www.w3.org/2000/svg" xmlns:xlink="http://www.w3.org/1999/xlink" viewBox="0 0 118.1 313.86"><defs><style>.cls-1{fill:#58469f;}.cls-2{clip-path:url(#clip-path);}.cls-3,.cls-8,.cls-9{fill:#eed1bf;}.cls-4{fill:#fbc5aa;}.cls-5{fill:#007dac;}.cls-6{fill:#00a657;}.cls-7{fill:#ebae8a;}.cls-8,.cls-9{stroke:#ebae8a;stroke-miterlimit:10;}.cls-8{stroke-width:0.6px;}.cls-9{stroke-width:0.3px;}.cls-10{fill:#5a3b34;}.cls-11{fill:#d55225;}.cls-12{fill:#ffebc6;}.cls-13{fill:#a862a7;}</style><clipPath id="clip-path"><circle class="cls-1" cx="59.05" cy="59.05" r="59.05"/></clipPath></defs><g id="Layer_2" data-name="Layer 2"><g id="Glavno_Besedilo" data-name="Glavno Besedilo"><circle class="cls-1" cx="59.05" cy="59.05" r="59.05"/><g class="cls-2"><path class="cls-3" d="M15.12,180.21S11.8,206.38,29.73,209V179.58Z"/><path class="cls-3" d="M105.2,180.93s3.32,26.17-14.61,28.79V180.29Z"/><path class="cls-4" d="M41.87,88.06s7.6-.57,8-9.71H68.49s.77,11.94,9.67,9.71l-.8,6.86-18.19,7.25-15.8-4.24-3.86-7.67Z"/><path class="cls-5" d="M111.31,182l-26.15-.3V112.54s6.75-28.65,17.13-13.1C108,128.44,109,155.51,111.31,182Z"/><path class="cls-5" d="M10.11,182l24.38-.3V112.66s-6.75-28.6-17.13-13.08C11.61,128.53,12.45,155.56,10.11,182Z"/><path class="cls-6" d="M83.45,87.83H76.23c-2.37,6.36-8.91,10.93-16.61,10.93S45.39,94.19,43,87.83H35.8c-8.75,0-22.92,9.28-17.2,10,2.41.28,5.39,3.81,8.17,12.69v88h65.7v-88c2.78-8.88,5.76-12.41,8.17-12.69C106.37,97.11,92.19,87.83,83.45,87.83Z"/><polygon class="cls-3" points="59.78 215.03 47.81 313.86 36.33 310.68 26.66 215.03 59.78 215.03"/><polygon class="cls-3" points="92.84 215.03 81.95 310.68 70.03 313.43 59.9 215.03 92.84 215.03"/><path class="cls-3" d="M57,16.93h5A22.91,22.91,0,0,1,84.93,39.84v18a25.4,25.4,0,0,1-25.4,25.4h0a25.4,25.4,0,0,1-25.4-25.4v-18A22.91,22.91,0,0,1,57,16.93Z"/><path class="cls-7" d="M40.51,48.42s5.16-5.18,14.28,0C54.79,48.42,46.86,39.64,40.51,48.42Z"/><path class="cls-7" d="M64.81,48.42s5.16-5.18,14.29,0C79.1,48.42,71.16,39.64,64.81,48.42Z"/><path class="cls-8" d="M56.75,60.07s4.13,2.09,5.49.3c.59-.77-2.57-16.17-1.54-15.85"/><path class="cls-9" d="M41.78,41.38s4.29-4.7,13.61,0"/><path class="cls-9" d="M65.48,42s4.3-4.7,13.62,0"/><path class="cls-10" d="M69.27,65.53a10.6,10.6,0,0,1-3.79,5.62C64.77,67.62,51.74,69,51.7,69a13.81,13.81,0,0,1-2-3.47Z"/><path class="cls-11" d="M65.48,71.15h0A9.93,9.93,0,0,1,51.7,69S64.77,67.62,65.48,71.15Z"/><polygon class="cls-10" points="51.7 69 51.7 69 51.7 69 51.7 69"/><path class="cls-3" d="M34.49,42.8S29,41.25,30.58,49.53a67.34,67.34,0,0,0,3.91,13.4Z"/><path class="cls-3" d="M83.84,42.8s5.53-1.55,3.92,6.73a66.88,66.88,0,0,1-3.92,13.4Z"/><path class="cls-12" d="M58.84,27.66s3.57,7.08,21.75,21.63c3.7,2.6-2.93,39.46-12.82,56.26l25.54,5.68s5-58.39-12.34-87.59A25.79,25.79,0,0,0,59.53,13.12s-23.86-.77-27.14,19.14l-.8,10.42S50.48,39,58.84,27.66Z"/><path class="cls-12" d="M32.83,30.17s-14.23,67,13.41,73.74"/><polygon class="cls-6" points="111.5 244.84 13.13 244.84 26.66 185.24 92.84 185.24 111.5 244.84"/><rect class="cls-12" x="78.39" y="123.62" width="3.78" height="44.77"/><rect class="cls-12" x="70.83" y="123.62" width="3.78" height="44.77"/><rect class="cls-12" x="63.26" y="123.62" width="3.78" height="44.77"/><rect class="cls-12" x="40.56" y="123.62" width="3.78" height="44.77"/><circle class="cls-13" cx="53.8" cy="132.29" r="7.57"/></g></g></g></svg>