<svg xmlns="http://www.w3.org/2000/svg" xmlns:xlink="http://www.w3.org/1999/xlink" viewBox="0 0 127.65 127.65"><defs><style>.cls-1{fill:#58469f;}.cls-2{clip-path:url(#clip-path);}.cls-10,.cls-11,.cls-3{fill:#eed1bf;}.cls-4{fill:#fbc5aa;}.cls-5{fill:#866aa1;}.cls-6{fill:#511c74;}.cls-7{fill:#d9d29a;}.cls-8{fill:#44515c;}.cls-9{fill:#ebae8a;}.cls-10,.cls-11{stroke:#ebae8a;stroke-miterlimit:10;}.cls-10{stroke-width:0.56px;}.cls-11{stroke-width:0.28px;}.cls-12{fill:#5a3b34;}.cls-13{fill:#d55225;}.cls-14{fill:#9d4838;}.cls-15{fill:#c9b474;}.cls-16{fill:#c7522f;}</style><clipPath id="clip-path"><circle class="cls-1" cx="59.05" cy="59.05" r="59.05"/></clipPath></defs><g id="Layer_2" data-name="Layer 2"><g id="Glavno_Besedilo" data-name="Glavno Besedilo"><circle class="cls-1" cx="59.05" cy="59.05" r="59.05"/><g class="cls-2"><path class="cls-3" d="M16.08,175.35S13,199.93,29.8,202.4V174.76Z"/><path class="cls-3" d="M102.18,175.35s3.12,24.58-13.72,27.05V174.76Z"/><path class="cls-4" d="M42.5,88.13S49.64,87.6,50,79H67.5s.72,11.22,9.09,9.12l-.76,6.45-17.08,6.8-14.84-4-3.62-7.2Z"/><path class="cls-5" d="M111.82,176.37l-24.56-.28v-65s6.34-26.91,16.09-12.3C108.75,126.05,109.62,151.48,111.82,176.37Z"/><path class="cls-5" d="M8.19,176.37l22.9-.28V111.24S24.75,84.37,15,99C9.6,126.14,10.39,151.53,8.19,176.37Z"/><path class="cls-6" d="M82.69,87.91H75.56c-2.34,6-8.79,10.27-16.39,10.27S45.12,93.89,42.78,87.91H35.65c-8.63,0-22.62,8.72-17,9.35,2.38.27,5.32,3.58,8.06,11.91v82.67H91.6V109.17c2.75-8.33,5.69-11.64,8.07-11.91C105.32,96.63,91.33,87.91,82.69,87.91Z"/><rect class="cls-7" x="27.09" y="191.84" width="64.42" height="15.53"/><polygon class="cls-7" points="59.33 207.38 47.67 300.2 36.49 297.21 27.09 207.38 59.33 207.38"/><polygon class="cls-7" points="91.5 207.38 80.91 297.21 69.3 299.8 59.44 207.38 91.5 207.38"/><path class="cls-8" d="M36.36,296.18c.51,4.85-3.64,5.58-3.64,5.58-17.07-1.58-13.34,6.89-13.34,6.89H47.67V300.2Z"/><path class="cls-8" d="M81,295.64c-.53,5,3.77,5.78,3.77,5.78,17.67-1.64,13.81,7.13,13.81,7.13H69.3V299.8Z"/><path class="cls-3" d="M56.75,21.33h4.68A21.52,21.52,0,0,1,82.94,42.84V59.79A23.85,23.85,0,0,1,59.09,83.64h0A23.85,23.85,0,0,1,35.24,59.79V42.84A21.52,21.52,0,0,1,56.75,21.33Z"/><path class="cls-9" d="M41.23,50.9s4.84-4.86,13.41,0C54.64,50.9,47.19,42.66,41.23,50.9Z"/><path class="cls-9" d="M64.05,50.9s4.84-4.86,13.41,0C77.46,50.9,70,42.66,64.05,50.9Z"/><path class="cls-10" d="M56.48,61.84s3.88,2,5.15.29c.55-.73-2.41-15.19-1.45-14.89"/><path class="cls-11" d="M42.41,44.29s4-4.42,12.79,0"/><path class="cls-11" d="M64.68,44.83s4-4.42,12.78,0"/><path class="cls-12" d="M68.24,67a10,10,0,0,1-3.56,5.28c-.67-3.32-12.91-2-13-2A13.17,13.17,0,0,1,49.86,67Z"/><path class="cls-13" d="M64.68,72.25h0A9.23,9.23,0,0,1,59.62,74a9.11,9.11,0,0,1-7.89-3.77S64,68.93,64.68,72.25Z"/><polygon class="cls-12" points="51.73 70.23 51.73 70.23 51.73 70.23 51.73 70.23"/><path class="cls-3" d="M35.57,45.62s-5.19-1.45-3.67,6.32a62.94,62.94,0,0,0,3.67,12.59Z"/><path class="cls-3" d="M81.92,45.62s5.19-1.45,3.68,6.32a62.49,62.49,0,0,1-3.68,12.59Z"/><path class="cls-14" d="M38.28,49.89a36.92,36.92,0,0,1,1.46-13.75c.15-.43.31-.86.49-1.27a8.81,8.81,0,0,1,.68-1.29,8.38,8.38,0,0,1,.93-1.12A11,11,0,0,1,45,30.6a8.09,8.09,0,0,1,1.62-.43c.77-.43,1.67.17,2.56.47A16.21,16.21,0,0,1,51,31.9c.58.46,1.13,1,1.69,1.4a4.32,4.32,0,0,0,1.8,1.29,2.41,2.41,0,0,0,1.92-.07,17.54,17.54,0,0,1,6.61-2,14.22,14.22,0,0,1,1.73-.07c4.21-.34,7.2,2.35,10.48,4.14a3.53,3.53,0,0,0,3.36.08,7.21,7.21,0,0,0,1.52-.93,6.91,6.91,0,0,0,2.59-4.83c0-.59,1.08.28,1.67.58s.55.67.72.92a19.42,19.42,0,0,0-3.11-6,23.48,23.48,0,0,0-2.17-2.63,24.29,24.29,0,0,0-2.55-2.3q-.76-.6-1.59-1.14a20.83,20.83,0,0,0-3.43-1.82c-.47-.25-1-.48-1.43-.69s-1-.38-1.46-.54-1-.3-1.5-.42A17.66,17.66,0,0,0,66,16.4c-.61-.13-1.21-.24-1.82-.31a39.13,39.13,0,0,0-6,.14c-.4,0-.8.1-1.2.17-3.57,1.09-7.15,1.39-10.6,2.5q-.75.29-1.47.63a17.75,17.75,0,0,0-7.22,6.16c-.33.5-.64,1-.92,1.53a24.23,24.23,0,0,0-2,5c-.18.38-.35.78-.5,1.17-2.9,7.59.51,18.18.51,18.18"/><rect class="cls-15" x="37.06" y="110.95" width="44.75" height="18.87" rx="9.44"/><rect class="cls-16" x="62.94" y="159.81" width="18.87" height="18.87" rx="9.44"/></g></g></g></svg>