<svg xmlns="http://www.w3.org/2000/svg" xmlns:xlink="http://www.w3.org/1999/xlink" viewBox="0 0 127.65 385.13"><defs><style>.cls-1{fill:#58469f;}.cls-2{clip-path:url(#clip-path);}.cls-3{fill:#fbc5aa;}.cls-14,.cls-15,.cls-4{fill:#eed1bf;}.cls-5{fill:#d8dcec;}.cls-6{fill:#0054a6;}.cls-7{fill:#00a881;stroke:#003d7b;stroke-width:0.54px;}.cls-14,.cls-15,.cls-18,.cls-7{stroke-miterlimit:10;}.cls-8{fill:#7bafde;}.cls-9{fill:#44515c;}.cls-10{fill:#003d7b;}.cls-11{fill:#fff;}.cls-12{fill:#514835;}.cls-13{fill:#ebae8a;}.cls-14,.cls-15{stroke:#ebae8a;}.cls-14{stroke-width:0.63px;}.cls-15{stroke-width:0.32px;}.cls-16{fill:#5a3b34;}.cls-17{fill:#d55225;}.cls-18{fill:none;stroke:#231f20;stroke-width:0.34px;}</style><clipPath id="clip-path" transform="translate(5.22)"><circle class="cls-1" cx="59.05" cy="59.05" r="59.05"/></clipPath></defs><g id="Layer_2" data-name="Layer 2"><g id="Glavno_Besedilo" data-name="Glavno Besedilo"><circle class="cls-1" cx="64.27" cy="59.05" r="59.05"/><g class="cls-2"><path class="cls-3" d="M37.35,89.77s8.87-.66,9.28-11.33H68.41s.89,13.93,11.28,11.33l-.94,8-21.22,8.46-18.43-5-4.5-9Z" transform="translate(5.22)"/><path class="cls-4" d="M2.91,209.43s-3.13,24.72,13.81,27.2V208.82Z" transform="translate(5.22)"/><path class="cls-4" d="M114.22,209.46s3.14,24.72-13.8,27.2v-27.8Z" transform="translate(5.22)"/><path class="cls-5" d="M122.43,209.8l-27.68-1.2V119.52s6.39-36.9,16.23-16.88Q119.16,158.67,122.43,209.8Z" transform="translate(5.22)"/><path class="cls-5" d="M-5.22,209.8l27.68-1.2V119.52s-6.4-36.9-16.23-16.88Q-1.95,158.67-5.22,209.8Z" transform="translate(5.22)"/><path class="cls-6" d="M89,89.77H79.77c-3,7.83-11.35,13.45-21.17,13.45S40.45,97.6,37.43,89.77H28.22C17.07,89.77-1,101.2,6.3,102c3.07.35,6.87,4.69,10.42,15.62v98.1h83.77v-98.1c3.54-10.93,7.34-15.27,10.42-15.62C118.2,101.2,100.13,89.77,89,89.77Z" transform="translate(5.22)"/><line class="cls-7" x1="63.82" y1="215.74" x2="63.82" y2="103.22"/><rect class="cls-8" x="21.94" y="215.74" width="83.7" height="28.26"/><polygon class="cls-8" points="63.83 244 49.98 372.9 34.16 372.9 21.94 244 63.83 244"/><polygon class="cls-8" points="105.64 244 91.87 372.9 76.13 372.9 63.97 244 105.64 244"/><path class="cls-9" d="M70.91,372.9v12.23h40.9s5.4-12.25-19.28-10c0,0-6-1.07-5.26-8.07" transform="translate(5.22)"/><path class="cls-9" d="M44.7,372.9v12.23H3.79s-5.39-12.25,19.29-10c0,0,6-1.07,5.26-8.07" transform="translate(5.22)"/><circle class="cls-10" cx="70.84" cy="123.94" r="2.11"/><circle class="cls-10" cx="57.02" cy="123.94" r="2.11"/><circle class="cls-10" cx="70.84" cy="139.85" r="2.11"/><circle class="cls-10" cx="57.02" cy="139.85" r="2.11"/><circle class="cls-10" cx="70.84" cy="155.77" r="2.11"/><circle class="cls-10" cx="57.02" cy="155.77" r="2.11"/><circle class="cls-10" cx="70.84" cy="171.68" r="2.11"/><circle class="cls-10" cx="57.02" cy="171.68" r="2.11"/><circle class="cls-10" cx="70.84" cy="187.6" r="2.11"/><circle class="cls-10" cx="57.02" cy="187.6" r="2.11"/><path class="cls-4" d="M61.32,15.37h5.29A24.34,24.34,0,0,1,90.95,39.71V58.88a27,27,0,0,1-27,27h0a27,27,0,0,1-27-27V39.71A24.34,24.34,0,0,1,61.32,15.37Z"/><path class="cls-11" d="M52.27,46.51c0-4.15-12.84-4.31-12.89-.16C39.33,50.1,52.23,50.26,52.27,46.51Z" transform="translate(5.22)"/><path class="cls-11" d="M78.19,46.51c0-4.15-12.84-4.31-12.89-.16C65.25,50.1,78.15,50.26,78.19,46.51Z" transform="translate(5.22)"/><circle class="cls-12" cx="50.65" cy="46.28" r="2.13"/><circle class="cls-12" cx="76.97" cy="46.28" r="2.13"/><path class="cls-13" d="M38.57,46.59s5.48-5.5,15.18,0C53.75,46.59,45.32,37.27,38.57,46.59Z" transform="translate(5.22)"/><path class="cls-13" d="M64.4,46.59s5.48-5.5,15.17,0C79.57,46.59,71.14,37.27,64.4,46.59Z" transform="translate(5.22)"/><path class="cls-14" d="M55.83,61.2s4.39,2.22,5.83.32c.62-.82-2.73-17.18-1.64-16.83" transform="translate(5.22)"/><path class="cls-15" d="M39.92,41.35s4.56-5,14.46,0" transform="translate(5.22)"/><path class="cls-15" d="M65.11,42s4.56-5,14.46,0" transform="translate(5.22)"/><path class="cls-16" d="M69.13,69.45a8.06,8.06,0,0,1-4,4.14C64.35,71,50.51,72,50.46,72a9.71,9.71,0,0,1-2.11-2.55Z" transform="translate(5.22)"/><path class="cls-17" d="M65.11,73.59h0A13.64,13.64,0,0,1,59.39,75a12.24,12.24,0,0,1-8.93-3S64.35,71,65.11,73.59Z" transform="translate(5.22)"/><polygon class="cls-16" points="55.68 72 55.68 72 55.68 72 55.68 72"/><path class="cls-4" d="M32.18,42.85S26.31,41.21,28,50a70.94,70.94,0,0,0,4.16,14.24Z" transform="translate(5.22)"/><path class="cls-4" d="M84.62,42.85s5.87-1.64,4.16,7.15a70.94,70.94,0,0,1-4.16,14.24Z" transform="translate(5.22)"/><path class="cls-15" d="M54.85,82s4.27-4.27,8.64-.21" transform="translate(5.22)"/><rect class="cls-18" x="68.88" y="41.35" width="16.18" height="9.86" rx="4.62"/><rect class="cls-18" x="43.29" y="41.35" width="16.18" height="9.86" rx="4.62"/><path class="cls-18" d="M54.25,46.59s5.66-4.27,9.4,0" transform="translate(5.22)"/><line class="cls-18" x1="37.4" y1="42.85" x2="43.29" y2="45.96"/><line class="cls-18" x1="90.95" y1="42.73" x2="85.06" y2="46.28"/></g></g></g></svg>