<svg xmlns="http://www.w3.org/2000/svg" xmlns:xlink="http://www.w3.org/1999/xlink" viewBox="0 0 118.63 385.39"><defs><style>.cls-1{fill:#58469f;}.cls-2{clip-path:url(#clip-path);}.cls-10,.cls-3,.cls-9{fill:#eed1bf;}.cls-4{fill:#fbc5aa;}.cls-5{fill:#d8dcec;}.cls-6{fill:#fff;}.cls-7{fill:#514835;}.cls-8{fill:#cabcdc;}.cls-10,.cls-9{stroke:#ebc35c;}.cls-10,.cls-14,.cls-15,.cls-9{stroke-miterlimit:10;}.cls-9{stroke-width:0.72px;}.cls-10{stroke-width:1.07px;}.cls-11{fill:#5a3b34;}.cls-12{fill:#d55225;}.cls-13{fill:#c1c0db;}.cls-14,.cls-15,.cls-18{fill:none;}.cls-14,.cls-15{stroke:#231f20;}.cls-14{stroke-width:0.36px;}.cls-15{stroke-width:0.33px;}.cls-16{fill:#d1bbae;}.cls-17{fill:#e6a454;}.cls-19{fill:#0068ac;}</style><clipPath id="clip-path"><circle class="cls-1" cx="59.52" cy="59.05" r="59.05"/></clipPath></defs><title>jenny</title><g id="Layer_2" data-name="Layer 2"><g id="Glavno_Besedilo" data-name="Glavno Besedilo"><circle class="cls-1" cx="59.52" cy="59.05" r="59.05"/><g class="cls-2"><path class="cls-3" d="M8.77,192.6S5.42,219,23.51,221.66V192Z"/><path class="cls-3" d="M108,195.55S111.39,222,93.3,224.6v-29.7Z"/><path class="cls-4" d="M39.24,90.73S47.43,90,47.8,78.85H67.9s.82,14.62,10.41,11.88l-.87,8.4L57.86,108l-17-5.19-4.15-9.39Z"/><path class="cls-5" d="M0,202.78l29.56-1.14V117.88S22.73,83.18,12.23,102Q3.5,154.69,0,202.78Z"/><path class="cls-5" d="M118.63,202.78l-29.56-1.14V117.88s6.83-34.7,17.34-15.87Q115.13,154.69,118.63,202.78Z"/><path class="cls-3" d="M56.68,17.21h4.51A20.75,20.75,0,0,1,81.94,38V64.76a23,23,0,0,1-23,23h0a23,23,0,0,1-23-23V38A20.75,20.75,0,0,1,56.68,17.21Z"/><path class="cls-6" d="M52.11,50c.05-3.71-13.56-3.85-13.62-.14C38.44,53.25,52.06,53.39,52.11,50Z"/><path class="cls-6" d="M79.48,50c.05-3.71-13.56-3.85-13.62-.14C65.81,53.25,79.43,53.39,79.48,50Z"/><circle class="cls-7" cx="44.87" cy="49.84" r="2.25"/><circle class="cls-7" cx="72.67" cy="49.84" r="2.25"/><path class="cls-8" d="M37.64,50.17s5.79-5.81,16,0C53.66,50.17,44.76,40.33,37.64,50.17Z"/><path class="cls-8" d="M64.91,50.17s5.79-5.81,16,0C80.93,50.17,72,40.33,64.91,50.17Z"/><path class="cls-9" d="M55.34,65.67S60.75,68,62.53,66c.77-.87-3.37-18.22-2-17.85"/><path class="cls-10" d="M39.06,44.64s4.81-5.28,15.27,0"/><path class="cls-10" d="M65.66,45.28s4.81-5.28,15.27,0"/><path class="cls-11" d="M69.19,71.84a9,9,0,0,1-3.87,4.8c-.73-3-14-1.85-14.07-1.84a11.29,11.29,0,0,1-2-3A51.38,51.38,0,0,0,69.19,71.84Z"/><path class="cls-12" d="M65.33,76.64h0a11.33,11.33,0,0,1-5.49,1.59,10.64,10.64,0,0,1-8.58-3.43S64.6,73.62,65.33,76.64Z"/><polygon class="cls-11" points="51.26 74.8 51.26 74.8 51.26 74.8 51.26 74.8"/><path class="cls-3" d="M81.8,46.2s6.2-1.74,4.39,7.55a74.86,74.86,0,0,1-4.39,15Z"/><path class="cls-13" d="M33.52,59.36c.15-1.39.34-2.82.59-4.24a27.55,27.55,0,0,1,3.24-10.89,19.62,19.62,0,0,1,2.07-3c1.36-.94,2.41-3.08,3.92-3.56a14.43,14.43,0,0,1,2.49-1A16.81,16.81,0,0,1,48.42,36a54.61,54.61,0,0,1,6.49.2,16.85,16.85,0,0,1,5.92,1.66c.93.28,1.86.55,2.79.8a24.57,24.57,0,0,1,3.46-.51,22.66,22.66,0,0,1,3.48,0,9.62,9.62,0,0,1,1.81,0,9.4,9.4,0,0,1,1.69.37c2.56.6,3.62,2.74,5.57,4,.38.46.74.95,1.08,1.46s.66,1,1,1.57A25.38,25.38,0,0,1,83.23,49a27.07,27.07,0,0,1,1,3.4c.31.67.94.67,1.56,1,0-.74.08-1.47.16-2.21s.18-1.46.3-2.18c4.41-4.44,9.22-9.78,8.77-16.85a10.29,10.29,0,0,0-1.21-3.77,20,20,0,0,0-1.06-1.77,41.52,41.52,0,0,0-7.28-7.78,16.38,16.38,0,0,1-.84-2,14.07,14.07,0,0,0-.84-1.38,13.92,13.92,0,0,0-1-1.26,12.84,12.84,0,0,0-1.55-1.46,19.9,19.9,0,0,0-7.07-2.74q-1-.18-1.93-.29c-5.17-.89-10.45,1.78-15.83,1.06-.6-.13-1.19-.27-1.78-.43L52.94,9.8a14.3,14.3,0,0,0-16,2.39,17.84,17.84,0,0,0-5.3,8.17l-1.09,1.72-1,.83a41.07,41.07,0,0,1-4.45,3,8.49,8.49,0,0,0-1.21,1.69,14.37,14.37,0,0,0-.87,2c-.22.62-.42,1.26-.59,1.9-1.39,5.14-1.18,10.71,3,14.6.46.46.93.9,1.4,1.34,2.34,2.2,4.78,4.32,5.09,7.53q.4,1.4.8,2.77A18.29,18.29,0,0,0,33.52,59.36Z"/><path class="cls-3" d="M36.06,47.2s-6.2-1.74-4.39,7.55a74.86,74.86,0,0,0,4.39,15Z"/><path class="cls-14" d="M53.47,50.33s6-4.51,9.93,0"/><line class="cls-14" x1="33.78" y1="47.16" x2="36.38" y2="49.67"/><line class="cls-14" x1="83.59" y1="46.19" x2="80.48" y2="50"/><circle class="cls-15" cx="44.93" cy="50.33" r="8.54"/><circle class="cls-15" cx="71.94" cy="50.33" r="8.54"/><circle class="cls-16" cx="34.94" cy="67.83" r="1.95"/><circle class="cls-16" cx="83.13" cy="66.83" r="1.95"/><path class="cls-3" d="M35,371.56s-9.06,8.22-16.83,8.06l32.3.23v-8.3Z"/><path class="cls-17" d="M50.46,371.56v11.61H41.93v-3.31s-18.82,6.92-27.08,5.28c0,0-9.42-1.27,5-6.48,10.82-3.9,13-4.71,13-4.71"/><path class="cls-3" d="M85.71,371.56s9.75,8.22,17.53,8.06l-32.3.23v-8.3Z"/><path class="cls-17" d="M70.93,371.56v11.61h8.53v-3.31s18.82,6.92,27.08,5.28c0,0,9.42-1.27-5-6.48-10.82-3.9-13-4.71-13-4.71"/><path class="cls-18" d="M24.56,185.06l0-.26A1.49,1.49,0,0,0,24.56,185.06Z"/><polygon class="cls-19" points="23.05 200.15 23.05 216.06 35 371.56 50.47 371.56 61.55 241.65 70.92 371.56 85.71 371.56 98.65 216.06 98.65 200.15 23.05 200.15"/><path class="cls-17" d="M106.73,102.08c-2.75.33-6.14,4.31-9.32,14.25,0,2.86,1.62,21.26-4.1,29.52-1.24,13,3.54,44.79,5.14,58.13-32.3,27.11-74.49-2.79-75.7,2.66,1.56-13.15,3.82-48,2.62-60.84-6.39-8.86-6-29.86-6-29.86-3.15-9.65-6.48-13.55-9.2-13.87-6.74-.8,9.95-11.92,20.25-11.92h8.5c2.79,7.62,10.48,13.09,19.55,13.09S75.19,97.78,78,90.16h8.5C96.78,90.16,113.47,101.28,106.73,102.08Z"/></g></g></g></svg>