<svg id="Layer_1" data-name="Layer 1" xmlns="http://www.w3.org/2000/svg" xmlns:xlink="http://www.w3.org/1999/xlink" viewBox="0 0 127.65 127.65"><defs><style>.cls-1,.cls-15,.cls-16{fill:none;}.cls-2{fill:#58469f;}.cls-3{clip-path:url(#clip-path);}.cls-10,.cls-11,.cls-4{fill:#eed1bf;}.cls-5{fill:#fbc5aa;}.cls-6{fill:#d8dcec;}.cls-7{fill:#fff;}.cls-8{fill:#514835;}.cls-9{fill:#cabcdc;}.cls-10,.cls-11{stroke:#ebc35c;}.cls-10,.cls-11,.cls-15,.cls-16{stroke-miterlimit:10;}.cls-10{stroke-width:0.72px;}.cls-11{stroke-width:1.07px;}.cls-12{fill:#5a3b34;}.cls-13{fill:#d55225;}.cls-14{fill:#c1c0db;}.cls-15,.cls-16{stroke:#231f20;}.cls-15{stroke-width:0.36px;}.cls-16{stroke-width:0.33px;}.cls-17{fill:#d1bbae;}.cls-18{fill:#e6a454;}.cls-19{fill:#0068ac;}</style><clipPath id="clip-path" transform="translate(0.51)"><circle class="cls-1" cx="63.83" cy="63.83" r="63.83"/></clipPath></defs><title>jenny</title><g id="Glavno_Besedilo" data-name="Glavno Besedilo"><circle class="cls-2" cx="64.33" cy="63.83" r="63.83"/><g class="cls-3"><path class="cls-4" d="M9,208.17S5.35,236.71,24.9,239.58V207.53Z" transform="translate(0.51)"/><path class="cls-4" d="M116.23,211.36s3.66,28.59-15.89,31.4v-32.1Z" transform="translate(0.51)"/><path class="cls-5" d="M41.91,98.07s8.85-.79,9.25-12.84H72.88s.89,15.8,11.25,12.84l-.94,9.08L62,116.73l-18.37-5.61L39.17,101Z" transform="translate(0.51)"/><path class="cls-6" d="M-.51,219.18l32-1.23V127.41s-7.38-37.5-18.73-17.16Q3.27,167.21-.51,219.18Z" transform="translate(0.51)"/><path class="cls-6" d="M127.71,219.18,95.76,218V127.41s7.39-37.5,18.75-17.15Q123.93,167.2,127.71,219.18Z" transform="translate(0.51)"/><path class="cls-4" d="M60.76,18.6h4.87A22.43,22.43,0,0,1,88.06,41V70A24.86,24.86,0,0,1,63.2,94.86h0A24.86,24.86,0,0,1,38.34,70V41.07A22.43,22.43,0,0,1,60.72,18.6Z" transform="translate(0.51)"/><path class="cls-7" d="M55.82,54c0-4-14.66-4.16-14.73-.15C41,57.56,55.76,57.71,55.82,54Z" transform="translate(0.51)"/><path class="cls-7" d="M85.4,54c0-4-14.66-4.16-14.72-.15C70.62,57.56,85.34,57.71,85.4,54Z" transform="translate(0.51)"/><circle class="cls-8" cx="48.5" cy="53.87" r="2.43"/><circle class="cls-8" cx="78.55" cy="53.87" r="2.43"/><path class="cls-9" d="M40.18,54.23s6.25-6.28,17.29,0C57.49,54.23,47.87,43.59,40.18,54.23Z" transform="translate(0.51)"/><path class="cls-9" d="M69.65,54.23s6.26-6.28,17.29,0C87,54.23,77.31,43.59,69.65,54.23Z" transform="translate(0.51)"/><path class="cls-10" d="M59.31,71s5.84,2.52,7.77.36c.83-.94-3.64-19.7-2.16-19.3" transform="translate(0.51)"/><path class="cls-11" d="M41.71,48.25s5.2-5.71,16.51,0" transform="translate(0.51)"/><path class="cls-11" d="M70.46,48.94s5.2-5.71,16.51,0" transform="translate(0.51)"/><path class="cls-12" d="M74.28,77.65a9.73,9.73,0,0,1-4.19,5.19c-.79-3.25-15.13-2-15.2-2a12.43,12.43,0,0,1-2.17-3.24A55.67,55.67,0,0,0,74.28,77.65Z" transform="translate(0.51)"/><path class="cls-13" d="M70.1,82.84h0a12.26,12.26,0,0,1-5.93,1.72,11.51,11.51,0,0,1-9.27-3.71S69.32,79.57,70.1,82.84Z" transform="translate(0.51)"/><polygon class="cls-12" points="55.41 80.85 55.41 80.85 55.41 80.85 55.41 80.85"/><path class="cls-4" d="M87.91,49.94s6.7-1.88,4.74,8.16a81,81,0,0,1-4.74,16.21Z" transform="translate(0.51)"/><path class="cls-14" d="M35.72,64.16c.16-1.5.37-3,.64-4.58a29.8,29.8,0,0,1,3.5-11.77,21.32,21.32,0,0,1,2.24-3.25c1.47-1,2.6-3.33,4.24-3.84A14.54,14.54,0,0,1,49,39.64a18,18,0,0,1,2.8-.73,58.57,58.57,0,0,1,7,.22,18.26,18.26,0,0,1,6.4,1.79c1,.3,2,.6,3,.87a25.39,25.39,0,0,1,7.5-.56,10.59,10.59,0,0,1,1.95,0,11.26,11.26,0,0,1,1.83.4c2.77.65,3.91,3,6,4.33.41.5.8,1,1.17,1.58s.71,1.08,1.08,1.69A26.89,26.89,0,0,1,89.45,53a29.28,29.28,0,0,1,1.08,3.68c.34.72,1,.72,1.69,1.08,0-.8.09-1.59.17-2.39s.2-1.58.33-2.36c4.76-4.8,10-10.57,9.48-18.21a11.24,11.24,0,0,0-1.31-4.07,20.73,20.73,0,0,0-1.15-1.92,44.82,44.82,0,0,0-7.87-8.41A17,17,0,0,1,91,18.2a17.44,17.44,0,0,0-.91-1.49c-.34-.47-.7-.93-1.08-1.36a14.75,14.75,0,0,0-1.68-1.58,21.49,21.49,0,0,0-7.64-3c-.72-.13-1.42-.24-2.09-.31-5.58-1-11.29,1.92-17.11,1.14-.64-.14-1.28-.29-1.92-.46l-1.83-.59a15.45,15.45,0,0,0-17.29,2.59A19.23,19.23,0,0,0,33.69,22l-1.18,1.86-1.08.89A44.55,44.55,0,0,1,26.62,28a9,9,0,0,0-1.31,1.82A17.2,17.2,0,0,0,24.37,32c-.23.67-.45,1.37-.63,2.06C22.23,39.6,22.46,45.62,27,49.83c.5.5,1,1,1.51,1.45C31,53.65,33.66,56,34,59.42l.87,3C35.12,63,35.41,63.59,35.72,64.16Z" transform="translate(0.51)"/><path class="cls-4" d="M38.47,51s-6.7-1.88-4.75,8.16a80.36,80.36,0,0,0,4.75,16.21Z" transform="translate(0.51)"/><path class="cls-15" d="M57.29,54.4s6.48-4.87,10.73,0" transform="translate(0.51)"/><line class="cls-15" x1="36.51" y1="50.97" x2="39.32" y2="53.69"/><line class="cls-15" x1="90.35" y1="49.93" x2="86.99" y2="54.04"/><circle class="cls-16" cx="48.56" cy="54.4" r="9.23"/><circle class="cls-16" cx="77.76" cy="54.4" r="9.23"/><circle class="cls-17" cx="37.77" cy="73.31" r="2.11"/><circle class="cls-17" cx="89.85" cy="72.23" r="2.11"/><path class="cls-4" d="M37.32,401.61s-9.79,8.88-18.19,8.71l34.91.25v-9Z" transform="translate(0.51)"/><path class="cls-18" d="M54,401.61v12.54H44.81v-3.57s-20.34,7.48-29.27,5.7c0,0-10.18-1.37,5.41-7C32.64,405.06,35,404.19,35,404.19" transform="translate(0.51)"/><path class="cls-4" d="M92.13,401.61s10.54,8.88,19,8.71l-34.91.25v-9Z" transform="translate(0.51)"/><path class="cls-18" d="M76.16,401.61v12.54h9.22v-3.57s20.34,7.48,29.27,5.7c0,0,10.18-1.37-5.41-7-11.69-4.22-14-5.09-14-5.09" transform="translate(0.51)"/><path class="cls-1" d="M26,200v-.28A1.31,1.31,0,0,0,26,200Z" transform="translate(0.51)"/><polygon class="cls-19" points="24.91 216.34 24.91 233.53 37.83 401.61 54.55 401.61 66.53 261.19 76.66 401.61 92.64 401.61 106.63 233.53 106.63 216.34 24.91 216.34"/><path class="cls-18" d="M114.85,110.33c-3,.36-6.63,4.66-10.07,15.41,0,3.09,1.75,23-4.43,31.9-1.34,14.06,3.82,48.42,5.55,62.83-34.91,29.31-80.51-3-81.82,2.88,1.69-14.21,4.13-51.88,2.83-65.76-6.9-9.58-6.48-32.27-6.48-32.27-3.41-10.43-7-14.65-9.95-15-7.28-.86,10.76-12.88,21.89-12.88h9.19c3,8.24,11.33,14.15,21.13,14.15A22.26,22.26,0,0,0,83.8,97.45H93C104.1,97.45,122.14,109.47,114.85,110.33Z" transform="translate(0.51)"/></g></g></svg>