<svg xmlns="http://www.w3.org/2000/svg" xmlns:xlink="http://www.w3.org/1999/xlink" viewBox="0 0 127.65 385.13"><defs><style>.cls-1{fill:#58469f;}.cls-2{clip-path:url(#clip-path);}.cls-3{fill:#fbc5aa;}.cls-4,.cls-8{fill:#00a881;stroke-width:0.54px;}.cls-4{stroke:#489086;}.cls-15,.cls-16,.cls-19,.cls-4,.cls-8{stroke-miterlimit:10;}.cls-15,.cls-16,.cls-5{fill:#eed1bf;}.cls-6{fill:#d8dcec;}.cls-7{fill:#0054a6;}.cls-8{stroke:#003d7b;}.cls-9{fill:#7bafde;}.cls-10{fill:#44515c;}.cls-11{fill:#003d7b;}.cls-12{fill:#fff;}.cls-13{fill:#514835;}.cls-14{fill:#ebae8a;}.cls-15,.cls-16{stroke:#ebae8a;}.cls-15{stroke-width:0.63px;}.cls-16{stroke-width:0.32px;}.cls-17{fill:#5a3b34;}.cls-18{fill:#d55225;}.cls-19{fill:none;stroke:#231f20;stroke-width:0.34px;}</style><clipPath id="clip-path"><circle class="cls-1" cx="64.27" cy="59.05" r="59.05"/></clipPath></defs><title>john</title><g id="Layer_2" data-name="Layer 2"><g id="Glavno_Besedilo" data-name="Glavno Besedilo"><circle class="cls-1" cx="64.27" cy="59.05" r="59.05"/><g class="cls-2"><path class="cls-3" d="M42.57,89.77s8.87-.66,9.28-11.33H73.63s.89,13.93,11.28,11.33l-.94,8-21.22,8.45-18.43-4.95-4.5-8.95Z"/><path class="cls-4" d="M21.94,215.74"/><path class="cls-5" d="M8.13,209.43S5,234.15,21.94,236.63V208.82Z"/><path class="cls-5" d="M119.44,209.46s3.14,24.72-13.8,27.2V208.86Z"/><path class="cls-6" d="M127.65,209.8,100,208.6V119.52s6.4-36.9,16.23-16.87Q124.37,158.66,127.65,209.8Z"/><path class="cls-6" d="M0,209.8l27.68-1.21V119.52s-6.4-36.9-16.23-16.87Q3.28,158.66,0,209.8Z"/><path class="cls-7" d="M94.2,89.77H85c-3,7.83-11.36,13.46-21.17,13.46S45.68,97.6,42.65,89.77H33.45C22.3,89.77,4.22,101.2,11.52,102c3.07.35,6.87,4.69,10.42,15.62v98.1h83.77v-98.1c3.54-10.92,7.34-15.27,10.42-15.62C123.43,101.2,105.35,89.77,94.2,89.77Z"/><line class="cls-8" x1="63.82" y1="215.74" x2="63.82" y2="103.22"/><rect class="cls-9" x="21.94" y="215.74" width="83.7" height="28.26"/><polygon class="cls-9" points="63.83 244 49.98 372.9 34.16 372.9 21.94 244 63.83 244"/><polygon class="cls-9" points="105.64 244 91.87 372.9 76.13 372.9 63.97 244 105.64 244"/><path class="cls-10" d="M76.13,372.9v12.23H117s5.4-12.26-19.28-10c0,0-6-1.06-5.26-8.07"/><path class="cls-10" d="M49.92,372.9v12.23H9s-5.4-12.26,19.28-10c0,0,6-1.06,5.26-8.07"/><circle class="cls-11" cx="70.84" cy="123.94" r="2.11" transform="translate(-68.51 154.91) rotate(-72.78)"/><circle class="cls-11" cx="57.02" cy="123.94" r="2.11" transform="translate(-78.24 141.7) rotate(-72.78)"/><circle class="cls-11" cx="70.84" cy="139.85" r="2.11" transform="translate(-83.71 166.11) rotate(-72.78)"/><circle class="cls-11" cx="57.02" cy="139.85" r="2.11" transform="translate(-93.44 152.91) rotate(-72.78)"/><circle class="cls-11" cx="70.84" cy="155.77" r="2.11" transform="translate(-98.91 177.31) rotate(-72.78)"/><circle class="cls-11" cx="57.02" cy="155.77" r="2.11" transform="translate(-108.64 164.11) rotate(-72.78)"/><circle class="cls-11" cx="70.84" cy="171.68" r="2.11" transform="translate(-114.11 188.51) rotate(-72.78)"/><circle class="cls-11" cx="57.02" cy="171.68" r="2.11" transform="translate(-123.85 175.31) rotate(-72.78)"/><circle class="cls-11" cx="70.84" cy="187.6" r="2.11" transform="translate(-129.32 199.72) rotate(-72.78)"/><circle class="cls-11" cx="57.02" cy="187.6" r="2.11" transform="translate(-139.05 186.51) rotate(-72.78)"/><path class="cls-5" d="M61.32,15.37h5.29A24.34,24.34,0,0,1,90.95,39.71V58.88a27,27,0,0,1-27,27h0a27,27,0,0,1-27-27V39.71A24.34,24.34,0,0,1,61.32,15.37Z"/><path class="cls-12" d="M57.5,46.51c.05-4.15-12.85-4.31-12.9-.16C44.55,50.1,57.45,50.26,57.5,46.51Z"/><path class="cls-12" d="M83.42,46.51c.05-4.15-12.85-4.31-12.9-.16C70.47,50.1,83.37,50.26,83.42,46.51Z"/><circle class="cls-13" cx="50.65" cy="46.28" r="2.13"/><circle class="cls-13" cx="76.97" cy="46.28" r="2.13"/><path class="cls-14" d="M43.8,46.59s5.48-5.5,15.17,0C59,46.59,50.54,37.27,43.8,46.59Z"/><path class="cls-14" d="M69.62,46.59s5.48-5.5,15.17,0C84.79,46.59,76.36,37.27,69.62,46.59Z"/><path class="cls-15" d="M61.05,61.2s4.39,2.22,5.83.32c.62-.82-2.73-17.18-1.64-16.84"/><path class="cls-16" d="M45.14,41.35s4.56-5,14.46,0"/><path class="cls-16" d="M70.33,42s4.56-5,14.46,0"/><path class="cls-17" d="M74.35,69.45a8,8,0,0,1-4,4.14C69.57,71,55.73,72,55.68,72a9.79,9.79,0,0,1-2.11-2.55Z"/><path class="cls-18" d="M70.33,73.59h0A13.62,13.62,0,0,1,64.61,75a12.27,12.27,0,0,1-8.93-3S69.57,71,70.33,73.59Z"/><polygon class="cls-17" points="55.68 72 55.68 72 55.68 72 55.68 72"/><path class="cls-5" d="M37.4,42.85S31.53,41.21,33.24,50A70.9,70.9,0,0,0,37.4,64.24Z"/><path class="cls-5" d="M89.84,42.85S95.71,41.21,94,50a70.9,70.9,0,0,1-4.16,14.24Z"/><path class="cls-16" d="M60.08,82s4.27-4.27,8.64-.21"/><rect class="cls-19" x="68.88" y="41.35" width="16.18" height="9.86" rx="4.62" ry="4.62"/><rect class="cls-19" x="43.29" y="41.35" width="16.18" height="9.86" rx="4.62" ry="4.62"/><path class="cls-19" d="M59.47,46.59s5.65-4.27,9.4,0"/><line class="cls-19" x1="37.4" y1="42.85" x2="43.29" y2="45.96"/><line class="cls-19" x1="90.95" y1="42.73" x2="85.06" y2="46.28"/></g></g></g></svg>