<svg xmlns="http://www.w3.org/2000/svg" xmlns:xlink="http://www.w3.org/1999/xlink" viewBox="0 0 127.44 390.19"><defs><style>.cls-1{fill:#58469f;}.cls-2{clip-path:url(#clip-path);}.cls-3{fill:#fbc5aa;}.cls-4{fill:#d8dcec;}.cls-10,.cls-11,.cls-5{fill:#eed1bf;}.cls-6{fill:#9d4838;}.cls-7{fill:#fff;}.cls-8{fill:#514835;}.cls-9{fill:#ebae8a;}.cls-10{stroke:#ebae8a;stroke-width:0.65px;}.cls-10,.cls-11,.cls-14,.cls-15,.cls-17{stroke-miterlimit:10;}.cls-11{stroke:#e2e0df;stroke-width:1.63px;}.cls-12{fill:#5a3b34;}.cls-13{fill:#d55225;}.cls-14,.cls-15{fill:none;stroke:#231f20;}.cls-14{stroke-width:0.35px;}.cls-15{stroke-width:0.32px;}.cls-16{fill:#fbb040;}.cls-17{fill:#00a881;stroke:#f37443;stroke-width:0.54px;}.cls-18{fill:#007dac;}.cls-19{fill:#44515c;}.cls-20{fill:#e06a4d;}</style><clipPath id="clip-path" transform="translate(4.87)"><circle class="cls-1" cx="59.05" cy="59.05" r="59.05"/></clipPath></defs><g id="Layer_2" data-name="Layer 2"><g id="Glavno_Besedilo" data-name="Glavno Besedilo"><circle class="cls-1" cx="63.92" cy="59.05" r="59.05"/><g class="cls-2"><path class="cls-3" d="M37.63,95.3s8.85-.65,9.26-11.3H68.64s.89,13.9,11.26,11.3l-.94,8-21.18,8.43L39.37,106.8l-4.48-8.93Z" transform="translate(4.87)"/><path class="cls-4" d="M122.57,215.15l-27.64-1.21V125s6.39-36.84,16.21-16.84Q119.3,164.08,122.57,215.15Z" transform="translate(4.87)"/><path class="cls-5" d="M31,45.73s-6.51-1.82-4.62,7.93A78.59,78.59,0,0,0,31,69.45Z" transform="translate(4.87)"/><path class="cls-5" d="M59.92,18.76H65.4A25.17,25.17,0,0,1,90.57,43.93V63.75A27.91,27.91,0,0,1,62.66,91.66h0A27.91,27.91,0,0,1,34.75,63.75V43.93A25.17,25.17,0,0,1,59.92,18.76Z"/><path class="cls-6" d="M34.18,52.28S35,65.71,47.69,71.51h21.5S82,59.07,82,52.28l3.67.85a57.69,57.69,0,0,1,.79,17.5,35.66,35.66,0,0,1-.69,3.8,22.94,22.94,0,0,1-.66,3.2,17.7,17.7,0,0,1-1.1,2.9,20,20,0,0,1-1.52,2.57,17.41,17.41,0,0,1-2,2.3c-.48.78-1,1.53-1.54,2.26s-1.14,1.42-1.75,2.09a22.52,22.52,0,0,1-2.09,2.55c-3.29,3.4-7,6.23-11.39,7.46a16,16,0,0,1-2.69.53,8.11,8.11,0,0,1-5.57-1C50,94.41,44.75,90.16,38,88.21A20.62,20.62,0,0,1,36,86.69a22.47,22.47,0,0,1-1.77-1.75,24,24,0,0,1-3.68-7.3c-.23-.85-.42-1.72-.57-2.6a38.69,38.69,0,0,1-.4-10.55c0-1.29-.06-2.59,0-3.84.07-3.72.5-6.89,1.68-7.52C34.4,51.47,34.18,52.28,34.18,52.28Z" transform="translate(4.87)"/><path class="cls-7" d="M51.75,50.31c0-4.3-13.29-4.46-13.34-.17C38.36,54,51.7,54.18,51.75,50.31Z" transform="translate(4.87)"/><path class="cls-7" d="M78.56,50.31c0-4.3-13.29-4.46-13.34-.17C65.17,54,78.51,54.18,78.56,50.31Z" transform="translate(4.87)"/><circle class="cls-8" cx="49.54" cy="50.07" r="2.21"/><circle class="cls-8" cx="76.76" cy="50.07" r="2.21"/><path class="cls-9" d="M37.58,50.4s5.67-5.7,15.69,0C53.27,50.4,44.56,40.75,37.58,50.4Z" transform="translate(4.87)"/><path class="cls-9" d="M64.29,50.4S70,44.7,80,50.4C80,50.4,71.26,40.75,64.29,50.4Z" transform="translate(4.87)"/><path class="cls-6" d="M53.07,65.56a9.2,9.2,0,0,0-5.38,6h21.5c-.75-2.31-2.71-4.26-5.61-6Z" transform="translate(4.87)"/><path class="cls-10" d="M55.43,65.51s4.54,2.29,6,.33c.64-.85-2.83-17.77-1.7-17.42" transform="translate(4.87)"/><path class="cls-11" d="M39,45s4.72-5.17,15,0" transform="translate(4.87)"/><path class="cls-11" d="M65,45.6s4.72-5.17,15,0" transform="translate(4.87)"/><path class="cls-12" d="M69.19,71.51A11.67,11.67,0,0,1,65,77.69c-.78-3.89-15.1-2.38-15.15-2.37a15.2,15.2,0,0,1-2.18-3.81Z" transform="translate(4.87)"/><path class="cls-13" d="M65,77.69h0a10.82,10.82,0,0,1-5.91,2,10.66,10.66,0,0,1-9.24-4.41C49.92,75.31,64.24,73.8,65,77.69Z" transform="translate(4.87)"/><polygon class="cls-12" points="54.75 75.32 54.75 75.32 54.75 75.32 54.75 75.32"/><path class="cls-5" d="M85.2,46.53s6.07-1.7,4.3,7.39a72.89,72.89,0,0,1-4.3,14.73Z" transform="translate(4.87)"/><polygon class="cls-7" points="52.56 71.51 53.17 72.86 73.6 72.86 74.06 71.51 52.56 71.51"/><path class="cls-14" d="M54.29,50.71s5.85-4.42,9.73,0" transform="translate(4.87)"/><line class="cls-14" x1="36.34" y1="46.85" x2="42.43" y2="50.07"/><line class="cls-14" x1="91.72" y1="46.72" x2="85.63" y2="50.39"/><circle class="cls-15" cx="50.8" cy="50.71" r="8.37"/><circle class="cls-15" cx="77.26" cy="50.71" r="8.37"/><path class="cls-6" d="M34.18,52.28S32.29,38.37,38.42,32.9a8.17,8.17,0,0,1,1.88-1.27,6.67,6.67,0,0,1,1.23-.44c2.29-.64,4.91-.31,7.27-.17l1.77.19c10.93,1.18,16.58,3.24,16.58,3.24s3.27-3.14-2.13-4.88,8.77-.22,12.48,7.52A53,53,0,0,1,82,52.28l3.17.85s8.43-21.84-1.6-29.35c-5.49-4.11-12.3-9.31-19-11.18-.68-.19-1.35-.34-2-.46s-1.2-.2-1.8-.26-1.2-.07-1.8-.06a14.77,14.77,0,0,0-3.66.32,18.09,18.09,0,0,0-1.82.51c-.6.2-1.17.43-1.74.67-5.62,2.84-10.52,7.42-16.7,8.92-.59.18-1.18.38-1.73.6-2.8,1.09-5,2.79-5.2,6.32a15.44,15.44,0,0,0-.35,1.64,15,15,0,0,0-.13,3.35c0,.41.05.82.05,1.26C27.64,40.07,29.09,45.86,34.18,52.28Z" transform="translate(4.87)"/><path class="cls-4" d="M-4.87,215.15l27.63-1.21V125s-6.39-36.84-16.2-16.84Q-1.6,164.08-4.87,215.15Z" transform="translate(4.87)"/><path class="cls-16" d="M89.18,95.3H80c-3,7.82-11.33,13.44-21.13,13.44S40.73,103.12,37.71,95.3H28.52c-11.13,0-29.18,11.41-21.89,12.24,3.07.34,6.86,4.68,10.4,15.59v97.94h83.64V123.13c3.54-10.91,7.33-15.25,10.4-15.59C118.35,106.71,100.31,95.3,89.18,95.3Z" transform="translate(4.87)"/><line class="cls-17" x1="63.72" y1="221.07" x2="63.72" y2="108.74"/><rect class="cls-18" x="21.9" y="221.07" width="83.57" height="28.22"/><polygon class="cls-18" points="63.72 249.29 49.9 377.98 34.1 377.98 21.9 249.29 63.72 249.29"/><polygon class="cls-18" points="105.47 249.29 91.72 377.98 76.01 377.98 63.87 249.29 105.47 249.29"/><path class="cls-5" d="M3.25,214.77S.12,239.45,17,241.93V214.17Z" transform="translate(4.87)"/><path class="cls-5" d="M114.38,214.8s3.13,24.68-13.78,27.16V214.2Z" transform="translate(4.87)"/><path class="cls-19" d="M71.13,378v12.21H112s5.39-12.23-19.25-9.95c0,0-6-1.06-5.25-8.05" transform="translate(4.87)"/><path class="cls-19" d="M45,378v12.21H4.13S-1.26,378,23.38,380.24c0,0,6-1.06,5.25-8.05" transform="translate(4.87)"/><circle class="cls-20" cx="70.73" cy="129.42" r="2.11"/><circle class="cls-20" cx="56.93" cy="129.42" r="2.11"/><circle class="cls-20" cx="70.73" cy="145.31" r="2.11"/><circle class="cls-20" cx="56.93" cy="145.31" r="2.11"/><circle class="cls-20" cx="70.73" cy="161.2" r="2.11"/><circle class="cls-20" cx="56.93" cy="161.2" r="2.11"/><circle class="cls-20" cx="70.73" cy="177.08" r="2.11"/><circle class="cls-20" cx="56.93" cy="177.08" r="2.11"/><circle class="cls-20" cx="70.73" cy="192.97" r="2.11"/><circle class="cls-20" cx="56.93" cy="192.97" r="2.11"/></g></g></g></svg>