<svg xmlns="http://www.w3.org/2000/svg" xmlns:xlink="http://www.w3.org/1999/xlink" viewBox="0 0 122.45 374.11"><defs><style>.cls-1{fill:#58469f;}.cls-2{clip-path:url(#clip-path);}.cls-10,.cls-3,.cls-9{fill:#eed1bf;}.cls-4{fill:#fbc5aa;}.cls-5{fill:#317b89;}.cls-6{fill:#fff;}.cls-7{fill:#514835;}.cls-8{fill:#ebae8a;}.cls-9{stroke:#ebae8a;stroke-width:0.63px;}.cls-10,.cls-13,.cls-14,.cls-17,.cls-9{stroke-miterlimit:10;}.cls-10,.cls-13,.cls-14{stroke:#231f20;}.cls-10{stroke-width:1.57px;}.cls-11{fill:#5a3b34;}.cls-12{fill:#d55225;}.cls-13,.cls-14{fill:none;}.cls-13{stroke-width:0.34px;}.cls-14{stroke-width:0.31px;}.cls-15{fill:#231f20;}.cls-16{fill:#065;}.cls-17{fill:#00a881;stroke:#489086;stroke-width:0.54px;}.cls-18{fill:#007dac;}.cls-19{fill:#44515c;}.cls-20{fill:#004368;}</style><clipPath id="clip-path"><circle class="cls-1" cx="61.18" cy="59.05" r="59.05"/></clipPath></defs><title>son</title><g id="Layer_2" data-name="Layer 2"><g id="Glavno_Besedilo" data-name="Glavno Besedilo"><circle class="cls-1" cx="61.18" cy="59.05" r="59.05"/><g class="cls-2"><path class="cls-3" d="M8.14,198.29S5,223,22,225.51V197.69Z"/><path class="cls-4" d="M40.84,90.78s8.51-.63,8.9-10.86h20.9s.86,13.36,10.82,10.86l-.9,7.68-20.36,8.11-17.68-4.74L38.2,93.24Z"/><path class="cls-5" d="M122.45,205.92,95.9,204.76V119.31s6.14-35.4,15.57-16.19Q119.3,156.86,122.45,205.92Z"/><path class="cls-3" d="M34.43,43.15S28.17,41.4,30,50.77a75.55,75.55,0,0,0,4.43,15.17Z"/><path class="cls-3" d="M57.57,17.23h5.26A24.19,24.19,0,0,1,87,41.42v19A26.82,26.82,0,0,1,60.2,87.28h0A26.82,26.82,0,0,1,33.39,60.46v-19A24.19,24.19,0,0,1,57.57,17.23Z"/><path class="cls-6" d="M54.4,47.54c.05-4.12-12.77-4.28-12.82-.16C41.54,51.11,54.36,51.27,54.4,47.54Z"/><path class="cls-6" d="M80.16,47.54c.05-4.12-12.77-4.28-12.82-.16C67.3,51.11,80.12,51.27,80.16,47.54Z"/><circle class="cls-7" cx="47.6" cy="47.32" r="2.12"/><circle class="cls-7" cx="73.75" cy="47.32" r="2.12"/><path class="cls-8" d="M40.79,47.63s5.44-5.47,15.08,0C55.87,47.63,47.49,38.36,40.79,47.63Z"/><path class="cls-8" d="M66.45,47.63s5.44-5.47,15.08,0C81.53,47.63,73.15,38.36,66.45,47.63Z"/><path class="cls-9" d="M57.94,62.15s4.36,2.21,5.79.32c.62-.81-2.72-17.07-1.63-16.73"/><path class="cls-10" d="M42.13,42.42s4.53-5,14.37,0"/><path class="cls-10" d="M67.16,43s4.53-5,14.37,0"/><path class="cls-11" d="M71.16,67.91a11.21,11.21,0,0,1-4,5.94c-.75-3.74-14.51-2.28-14.56-2.28a14.48,14.48,0,0,1-2.1-3.66Z"/><path class="cls-12" d="M67.16,73.85h0a10.38,10.38,0,0,1-5.68,2,10.24,10.24,0,0,1-8.87-4.24S66.4,70.12,67.16,73.85Z"/><polygon class="cls-11" points="52.6 71.57 52.6 71.57 52.6 71.57 52.6 71.57"/><path class="cls-3" d="M86.54,43.91s5.83-1.63,4.14,7.11a70.45,70.45,0,0,1-4.14,14.15Z"/><polygon class="cls-6" points="50.5 67.92 51.09 69.21 70.72 69.21 71.16 67.92 50.5 67.92"/><path class="cls-13" d="M56.85,47.94s5.62-4.25,9.34,0"/><line class="cls-13" x1="34.91" y1="44.22" x2="40.77" y2="47.31"/><line class="cls-13" x1="88.12" y1="44.1" x2="82.27" y2="47.62"/><circle class="cls-14" cx="48.81" cy="47.94" r="8.04"/><circle class="cls-14" cx="74.23" cy="47.94" r="8.04"/><path class="cls-15" d="M37.53,49.44S35.71,36.08,41.6,30.82a8,8,0,0,1,1.8-1.22,6.26,6.26,0,0,1,1.19-.42c2.2-.62,4.71-.3,7-.16l1.7.18c10.51,1.14,15.93,3.12,15.93,3.12s3.15-3-2-4.69,8.43-.21,12,7.23a50.69,50.69,0,0,1,4.35,14.59l3,.82s8.1-21-1.54-28.2c-5.28-4-11.82-8.95-18.29-10.74a19.88,19.88,0,0,0-1.94-.44,15.65,15.65,0,0,0-1.73-.25,16.41,16.41,0,0,0-1.73-.06,14.4,14.4,0,0,0-3.51.31,17.87,17.87,0,0,0-1.75.49c-.57.19-1.13.41-1.67.65-5.4,2.73-10.11,7.13-16,8.57-.57.17-1.13.36-1.67.57-2.68,1.05-4.82,2.68-5,6.07-.14.52-.25,1-.33,1.58A13.75,13.75,0,0,0,31.22,32c0,.39,0,.79,0,1.21C31.24,37.71,32.63,43.27,37.53,49.44Z"/><path class="cls-5" d="M0,205.92l26.55-1.16V119.31S20.42,83.92,11,103.13Q3.14,156.86,0,205.92Z"/><path class="cls-16" d="M90.37,90.78H81.53c-2.9,7.51-10.89,12.91-20.31,12.91s-17.41-5.4-20.31-12.91H32.08c-10.7,0-28,11-21,11.75,2.95.33,6.59,4.5,10,15v94.11H101.4V117.51c3.4-10.48,7-14.65,10-15C118.4,101.74,101.06,90.78,90.37,90.78Z"/><path class="cls-17" d="M22,204.6"/><rect class="cls-18" x="21.04" y="211.62" width="80.29" height="27.11"/><polygon class="cls-18" points="61.23 238.73 47.95 362.38 32.77 362.38 21.04 238.73 61.23 238.73"/><polygon class="cls-18" points="101.34 238.73 88.13 362.38 73.03 362.38 61.37 238.73 101.34 238.73"/><path class="cls-3" d="M114.58,205.59s3,23.71-13.24,26.1V205Z"/><path class="cls-19" d="M73,362.38v11.73h39.24s5.18-11.76-18.5-9.56c0,0-5.77-1-5-7.74"/><path class="cls-19" d="M47.89,362.38v11.73H8.65s-5.18-11.76,18.5-9.56c0,0,5.77-1,5-7.74"/><circle class="cls-20" cx="48.97" cy="133.94" r="14.79"/></g></g></g></svg>