<svg xmlns="http://www.w3.org/2000/svg" xmlns:xlink="http://www.w3.org/1999/xlink" viewBox="0 0 122.45 374.11"><defs><style>.cls-1{fill:#58469f;}.cls-2{clip-path:url(#clip-path);}.cls-10,.cls-3,.cls-9{fill:#eed1bf;}.cls-4{fill:#fbc5aa;}.cls-5{fill:#317b89;}.cls-6{fill:#fff;}.cls-7{fill:#514835;}.cls-8{fill:#ebae8a;}.cls-9{stroke:#ebae8a;stroke-width:0.63px;}.cls-10,.cls-13,.cls-14,.cls-9{stroke-miterlimit:10;}.cls-10,.cls-13,.cls-14{stroke:#231f20;}.cls-10{stroke-width:1.57px;}.cls-11{fill:#5a3b34;}.cls-12{fill:#d55225;}.cls-13,.cls-14{fill:none;}.cls-13{stroke-width:0.34px;}.cls-14{stroke-width:0.31px;}.cls-15{fill:#231f20;}.cls-16{fill:#065;}.cls-17{fill:#007dac;}.cls-18{fill:#44515c;}.cls-19{fill:#004368;}</style><clipPath id="clip-path" transform="translate(2.13)"><circle class="cls-1" cx="59.05" cy="59.05" r="59.05"/></clipPath></defs><g id="Layer_2" data-name="Layer 2"><g id="Glavno_Besedilo" data-name="Glavno Besedilo"><circle class="cls-1" cx="61.18" cy="59.05" r="59.05"/><g class="cls-2"><path class="cls-3" d="M6,198.29S2.87,223,19.82,225.51V197.69Z" transform="translate(2.13)"/><path class="cls-4" d="M38.71,90.78s8.51-.64,8.9-10.87H68.5s.86,13.37,10.82,10.87l-.9,7.68-20.36,8.1-17.68-4.74-4.31-8.58Z" transform="translate(2.13)"/><path class="cls-5" d="M120.32,205.92l-26.55-1.16V119.31s6.13-35.39,15.57-16.18Q117.17,156.86,120.32,205.92Z" transform="translate(2.13)"/><path class="cls-3" d="M32.3,43.15S26,41.4,27.86,50.77A76,76,0,0,0,32.3,65.94Z" transform="translate(2.13)"/><path class="cls-3" d="M57.57,17.23h5.26A24.19,24.19,0,0,1,87,41.42v19A26.82,26.82,0,0,1,60.2,87.28h0A26.82,26.82,0,0,1,33.39,60.46v-19A24.19,24.19,0,0,1,57.57,17.23Z"/><path class="cls-6" d="M52.27,47.54c0-4.12-12.76-4.28-12.81-.15C39.41,51.11,52.23,51.27,52.27,47.54Z" transform="translate(2.13)"/><path class="cls-6" d="M78,47.54c0-4.12-12.76-4.28-12.81-.15C65.17,51.11,78,51.27,78,47.54Z" transform="translate(2.13)"/><circle class="cls-7" cx="47.6" cy="47.32" r="2.12"/><circle class="cls-7" cx="73.75" cy="47.32" r="2.12"/><path class="cls-8" d="M38.66,47.63s5.45-5.47,15.08,0C53.74,47.63,45.36,38.36,38.66,47.63Z" transform="translate(2.13)"/><path class="cls-8" d="M64.32,47.63s5.45-5.47,15.08,0C79.4,47.63,71,38.36,64.32,47.63Z" transform="translate(2.13)"/><path class="cls-9" d="M55.81,62.15s4.36,2.2,5.79.32c.62-.82-2.71-17.08-1.63-16.74" transform="translate(2.13)"/><path class="cls-10" d="M40,42.42s4.53-5,14.37,0" transform="translate(2.13)"/><path class="cls-10" d="M65,43s4.53-5,14.37,0" transform="translate(2.13)"/><path class="cls-11" d="M69,67.91a11.24,11.24,0,0,1-4,5.94c-.75-3.73-14.51-2.28-14.56-2.28a14.69,14.69,0,0,1-2.1-3.66Z" transform="translate(2.13)"/><path class="cls-12" d="M65,73.85h0a10.46,10.46,0,0,1-5.69,2,10.24,10.24,0,0,1-8.87-4.25C50.52,71.57,64.28,70.12,65,73.85Z" transform="translate(2.13)"/><polygon class="cls-11" points="52.6 71.57 52.6 71.57 52.6 71.57 52.6 71.57"/><path class="cls-3" d="M84.41,43.91s5.84-1.63,4.14,7.11a70.39,70.39,0,0,1-4.14,14.15Z" transform="translate(2.13)"/><polygon class="cls-6" points="50.5 67.92 51.09 69.21 70.72 69.21 71.16 67.92 50.5 67.92"/><path class="cls-13" d="M54.72,47.94s5.62-4.25,9.34,0" transform="translate(2.13)"/><line class="cls-13" x1="34.91" y1="44.22" x2="40.77" y2="47.31"/><line class="cls-13" x1="88.12" y1="44.1" x2="82.27" y2="47.62"/><circle class="cls-14" cx="48.81" cy="47.94" r="8.04"/><circle class="cls-14" cx="74.23" cy="47.94" r="8.04"/><path class="cls-15" d="M35.4,49.44s-1.82-13.36,4.07-18.62a8,8,0,0,1,1.8-1.22,6.23,6.23,0,0,1,1.19-.42c2.2-.62,4.71-.31,7-.16l1.7.17c10.51,1.14,15.93,3.12,15.93,3.12s3.14-3-2-4.69,8.42-.21,12,7.22a50.76,50.76,0,0,1,4.35,14.6l3,.82s8.1-21-1.53-28.2c-5.28-4-11.82-8.95-18.29-10.75-.65-.17-1.29-.32-1.94-.43a14.42,14.42,0,0,0-1.73-.25,14.22,14.22,0,0,0-1.73-.06,14.53,14.53,0,0,0-3.51.3,16.76,16.76,0,0,0-1.75.5c-.57.19-1.13.4-1.68.64-5.39,2.73-10.1,7.13-16,8.57-.57.17-1.13.36-1.67.57-2.68,1.05-4.81,2.68-5,6.07a14.8,14.8,0,0,0-.33,1.58A13.37,13.37,0,0,0,29.1,32c0,.39,0,.79,0,1.21C29.11,37.71,30.5,43.27,35.4,49.44Z" transform="translate(2.13)"/><path class="cls-5" d="M-2.13,205.92l26.55-1.16V119.31S18.29,83.92,8.85,103.13Q1,156.86-2.13,205.92Z" transform="translate(2.13)"/><path class="cls-16" d="M88.24,90.78H79.4c-2.9,7.51-10.89,12.91-20.3,12.91s-17.41-5.4-20.31-12.91H30c-10.69,0-28,11-21,11.75,2.95.33,6.6,4.5,10,15v94.11H99.28V117.51c3.4-10.48,7-14.65,10-15C116.27,101.74,98.93,90.78,88.24,90.78Z" transform="translate(2.13)"/><rect class="cls-17" x="21.04" y="211.62" width="80.29" height="27.11"/><polygon class="cls-17" points="61.23 238.73 47.95 362.38 32.77 362.38 21.04 238.73 61.23 238.73"/><polygon class="cls-17" points="101.34 238.73 88.13 362.38 73.03 362.38 61.37 238.73 101.34 238.73"/><path class="cls-3" d="M112.45,205.59s3,23.72-13.24,26.1V205Z" transform="translate(2.13)"/><path class="cls-18" d="M70.9,362.38v11.73h39.24s5.18-11.76-18.5-9.56c0,0-5.76-1-5-7.74" transform="translate(2.13)"/><path class="cls-18" d="M45.76,362.38v11.73H6.52S1.34,362.35,25,364.55c0,0,5.76-1,5.05-7.74" transform="translate(2.13)"/><circle class="cls-19" cx="48.97" cy="133.94" r="14.79"/></g></g></g></svg>