<svg xmlns="http://www.w3.org/2000/svg" xmlns:xlink="http://www.w3.org/1999/xlink" viewBox="0 0 127.65 127.65"><defs><style>.cls-1{fill:#58469f;}.cls-2{clip-path:url(#clip-path);}.cls-3{fill:#fbc5aa;}.cls-4{fill:#d8dcec;}.cls-10,.cls-11,.cls-5{fill:#eed1bf;}.cls-6{fill:#9d4838;}.cls-7{fill:#fff;}.cls-8{fill:#514835;}.cls-9{fill:#ebae8a;}.cls-10{stroke:#ebae8a;stroke-width:0.65px;}.cls-10,.cls-11,.cls-14,.cls-15,.cls-17,.cls-18{stroke-miterlimit:10;}.cls-11{stroke:#e2e0df;stroke-width:1.63px;}.cls-12{fill:#5a3b34;}.cls-13{fill:#d55225;}.cls-14,.cls-15{fill:none;stroke:#231f20;}.cls-14{stroke-width:0.35px;}.cls-15{stroke-width:0.32px;}.cls-16{fill:#fbb040;}.cls-17,.cls-18{fill:#00a881;stroke-width:0.54px;}.cls-17{stroke:#f37443;}.cls-18{stroke:#489086;}.cls-19{fill:#007dac;}.cls-20{fill:#44515c;}.cls-21{fill:#e06a4d;}</style><clipPath id="clip-path"><circle class="cls-1" cx="63.92" cy="59.05" r="59.05"/></clipPath></defs><title>son in law</title><g id="Layer_2" data-name="Layer 2"><g id="Glavno_Besedilo" data-name="Glavno Besedilo"><circle class="cls-1" cx="63.92" cy="59.05" r="59.05"/><g class="cls-2"><path class="cls-3" d="M42.5,95.3s8.86-.66,9.26-11.31H73.51S74.4,97.9,84.77,95.3l-.94,8-21.19,8.44-18.4-4.94-4.49-8.93Z"/><path class="cls-4" d="M127.44,215.15l-27.64-1.21V125S106.2,88.16,116,108.16Q124.17,164.09,127.44,215.15Z"/><path class="cls-5" d="M35.83,45.73s-6.51-1.82-4.62,7.93a78.64,78.64,0,0,0,4.62,15.79Z"/><path class="cls-5" d="M59.92,18.76H65.4A25.17,25.17,0,0,1,90.57,43.93V63.75A27.91,27.91,0,0,1,62.66,91.66h0A27.91,27.91,0,0,1,34.75,63.75V43.93A25.17,25.17,0,0,1,59.92,18.76Z"/><path class="cls-6" d="M39.06,52.28s.86,13.44,13.51,19.23h21.5S86.9,59.07,86.9,52.28l3.67.86a57.47,57.47,0,0,1,.79,17.49,35.75,35.75,0,0,1-.69,3.8,22.35,22.35,0,0,1-.66,3.2,18.3,18.3,0,0,1-1.1,2.91A19.81,19.81,0,0,1,87.4,83.1a17.15,17.15,0,0,1-2,2.3q-.72,1.17-1.54,2.26t-1.75,2.09a23.41,23.41,0,0,1-2.08,2.55c-3.3,3.39-7,6.23-11.39,7.46a17,17,0,0,1-2.69.53,8.12,8.12,0,0,1-5.56-1c-5.56-4.9-10.79-9.15-17.59-11.11a19.39,19.39,0,0,1-1.95-1.52,22.56,22.56,0,0,1-1.77-1.75,23.9,23.9,0,0,1-1.48-2.26,24.45,24.45,0,0,1-2.2-5c-.23-.86-.42-1.73-.58-2.61a38.79,38.79,0,0,1-.4-10.55c0-1.29-.06-2.59,0-3.83.07-3.72.5-6.9,1.68-7.52C39.27,51.47,39.06,52.28,39.06,52.28Z"/><path class="cls-7" d="M56.62,50.31c.05-4.29-13.29-4.46-13.34-.16C43.24,54,56.58,54.18,56.62,50.31Z"/><path class="cls-7" d="M83.43,50.31c.05-4.29-13.29-4.46-13.34-.16C70,54,83.38,54.18,83.43,50.31Z"/><circle class="cls-8" cx="49.54" cy="50.07" r="2.21"/><circle class="cls-8" cx="76.76" cy="50.07" r="2.21"/><path class="cls-9" d="M42.45,50.4s5.67-5.69,15.69,0C58.15,50.4,49.43,40.75,42.45,50.4Z"/><path class="cls-9" d="M69.16,50.4s5.67-5.69,15.69,0C84.85,50.4,76.14,40.75,69.16,50.4Z"/><path class="cls-6" d="M57.94,65.56a9.24,9.24,0,0,0-5.38,5.95h21.5c-.75-2.3-2.7-4.26-5.61-5.95Z"/><path class="cls-10" d="M60.3,65.51s4.54,2.3,6,.33C67,65,63.5,48.07,64.64,48.42"/><path class="cls-11" d="M43.84,45s4.72-5.17,15,0"/><path class="cls-11" d="M69.9,45.6s4.72-5.17,15,0"/><path class="cls-12" d="M74.06,71.51a11.67,11.67,0,0,1-4.16,6.18c-.78-3.89-15.1-2.38-15.15-2.37a15.08,15.08,0,0,1-2.18-3.81Z"/><path class="cls-13" d="M69.9,77.69h0a10.8,10.8,0,0,1-5.91,2,10.65,10.65,0,0,1-9.23-4.41S69.11,73.8,69.9,77.69Z"/><polygon class="cls-12" points="54.75 75.32 54.75 75.32 54.75 75.32 54.75 75.32"/><path class="cls-5" d="M90.07,46.53s6.07-1.7,4.3,7.39a73.33,73.33,0,0,1-4.3,14.72Z"/><polygon class="cls-7" points="52.56 71.51 53.17 72.86 73.6 72.86 74.06 71.51 52.56 71.51"/><path class="cls-14" d="M59.17,50.71s5.85-4.42,9.72,0"/><line class="cls-14" x1="36.34" y1="46.85" x2="42.43" y2="50.07"/><line class="cls-14" x1="91.72" y1="46.72" x2="85.63" y2="50.39"/><circle class="cls-15" cx="50.8" cy="50.71" r="8.37"/><circle class="cls-15" cx="77.26" cy="50.71" r="8.37"/><path class="cls-6" d="M39.06,52.28S37.17,38.37,43.3,32.9a8.34,8.34,0,0,1,1.88-1.27,6.51,6.51,0,0,1,1.23-.44c2.29-.64,4.9-.31,7.26-.17l1.77.18C66.38,32.39,72,34.45,72,34.45s3.28-3.14-2.12-4.89,8.77-.22,12.48,7.52A52.76,52.76,0,0,1,86.9,52.28l3.17.86s8.43-21.84-1.6-29.35c-5.5-4.12-12.3-9.31-19-11.18a20.7,20.7,0,0,0-2-.46,16.29,16.29,0,0,0-1.8-.26,17.08,17.08,0,0,0-1.8-.06,15,15,0,0,0-3.66.32,18.59,18.59,0,0,0-1.82.51c-.59.2-1.17.42-1.74.67-5.62,2.84-10.52,7.42-16.7,8.92-.6.18-1.18.37-1.74.59-2.79,1.1-5,2.79-5.2,6.32-.14.54-.26,1.09-.34,1.64a14.32,14.32,0,0,0-.13,3.35c0,.41,0,.83,0,1.26C32.51,40.07,34,45.86,39.06,52.28Z"/><path class="cls-4" d="M0,215.15l27.64-1.21V125s-6.39-36.84-16.21-16.85Q3.27,164.09,0,215.15Z"/><path class="cls-16" d="M94.05,95.3H84.86c-3,7.82-11.34,13.43-21.14,13.43S45.6,103.12,42.59,95.3H33.39c-11.13,0-29.18,11.41-21.89,12.23,3.07.35,6.86,4.68,10.4,15.59v97.94h83.64V123.13c3.54-10.91,7.33-15.24,10.4-15.59C123.23,106.71,105.18,95.3,94.05,95.3Z"/><line class="cls-17" x1="63.72" y1="221.07" x2="63.72" y2="108.74"/><path class="cls-18" d="M21.9,221.07"/><rect class="cls-19" x="21.9" y="221.07" width="83.57" height="28.22"/><polygon class="cls-19" points="63.72 249.29 49.9 377.98 34.1 377.98 21.9 249.29 63.72 249.29"/><polygon class="cls-19" points="105.47 249.29 91.72 377.98 76.01 377.98 63.87 249.29 105.47 249.29"/><path class="cls-5" d="M8.12,214.77S5,239.45,21.9,241.93V214.17Z"/><path class="cls-5" d="M119.25,214.8s3.13,24.68-13.78,27.16V214.2Z"/><path class="cls-20" d="M76,378v12.21h40.84s5.39-12.24-19.25-9.95c0,0-6-1.06-5.25-8.06"/><path class="cls-20" d="M49.84,378v12.21H9S3.61,378,28.25,380.24c0,0,6-1.06,5.25-8.06"/><circle class="cls-21" cx="70.73" cy="129.42" r="2.11" transform="translate(-73.83 158.66) rotate(-72.78)"/><circle class="cls-21" cx="56.93" cy="129.42" r="2.11" transform="translate(-83.54 145.47) rotate(-72.78)"/><circle class="cls-21" cx="70.73" cy="145.31" r="2.11" transform="translate(-89 169.84) rotate(-72.78)"/><circle class="cls-21" cx="56.93" cy="145.31" r="2.11" transform="translate(-98.72 156.66) rotate(-72.78)"/><circle class="cls-21" cx="70.73" cy="161.2" r="2.11" transform="translate(-104.18 181.03) rotate(-72.78)"/><circle class="cls-21" cx="56.93" cy="161.2" r="2.11" transform="translate(-113.89 167.84) rotate(-72.78)"/><circle class="cls-21" cx="70.73" cy="177.08" r="2.11" transform="translate(-119.36 192.21) rotate(-72.78)"/><circle class="cls-21" cx="56.93" cy="177.08" r="2.11" transform="translate(-129.07 179.03) rotate(-72.78)"/><circle class="cls-21" cx="70.73" cy="192.97" r="2.11" transform="translate(-134.53 203.39) rotate(-72.78)"/><circle class="cls-21" cx="56.93" cy="192.97" r="2.11" transform="translate(-144.25 190.21) rotate(-72.78)"/></g></g></g></svg>