<svg xmlns="http://www.w3.org/2000/svg" viewBox="0 0 655.12 323.97"><defs><style>.cls-1{fill:#fbc5aa;}.cls-12,.cls-13,.cls-18,.cls-19,.cls-2,.cls-28,.cls-29,.cls-37,.cls-38,.cls-43,.cls-44,.cls-51,.cls-54,.cls-55,.cls-63,.cls-64{fill:#eed1bf;}.cls-3{fill:#d8dcec;}.cls-4{fill:#0054a6;}.cls-5,.cls-59{fill:#00a881;}.cls-5{stroke:#003d7b;stroke-width:0.46px;}.cls-12,.cls-13,.cls-16,.cls-18,.cls-19,.cls-21,.cls-22,.cls-28,.cls-29,.cls-30,.cls-31,.cls-36,.cls-37,.cls-38,.cls-43,.cls-44,.cls-5,.cls-50,.cls-51,.cls-54,.cls-55,.cls-56,.cls-57,.cls-59,.cls-63,.cls-64{stroke-miterlimit:10;}.cls-6{fill:#7bafde;}.cls-7{fill:#44515c;}.cls-8{fill:#003d7b;}.cls-9{fill:#fff;}.cls-10{fill:#514835;}.cls-11{fill:#ebae8a;}.cls-12,.cls-13,.cls-28,.cls-37,.cls-38,.cls-43,.cls-44,.cls-51,.cls-54,.cls-63,.cls-64{stroke:#ebae8a;}.cls-12{stroke-width:0.54px;}.cls-13{stroke-width:0.27px;}.cls-14{fill:#5a3b34;}.cls-15{fill:#d55225;}.cls-16,.cls-21,.cls-22,.cls-25,.cls-30,.cls-31,.cls-36,.cls-50,.cls-56,.cls-57{fill:none;}.cls-16,.cls-21,.cls-22,.cls-29,.cls-30,.cls-31,.cls-56,.cls-57{stroke:#231f20;}.cls-16{stroke-width:0.29px;}.cls-17{fill:#cabcdc;}.cls-18,.cls-19{stroke:#ebc35c;}.cls-18{stroke-width:0.61px;}.cls-19{stroke-width:0.9px;}.cls-20{fill:#c1c0db;}.cls-21{stroke-width:0.3px;}.cls-22{stroke-width:0.28px;}.cls-23{fill:#d1bbae;}.cls-24{fill:#e6a454;}.cls-26{fill:#0068ac;}.cls-27{fill:#317b89;}.cls-28{stroke-width:0.53px;}.cls-29{stroke-width:1.33px;}.cls-30{stroke-width:0.28px;}.cls-31{stroke-width:0.26px;}.cls-32{fill:#231f20;}.cls-33{fill:#065;}.cls-34{fill:#007dac;}.cls-35{fill:#004368;}.cls-36,.cls-50{stroke:#c1c0db;}.cls-36{stroke-width:0.45px;}.cls-37{stroke-width:0.62px;}.cls-38{stroke-width:0.3px;}.cls-39{fill:#c26b9b;}.cls-40{fill:#866aa1;}.cls-41{fill:#511c74;}.cls-42{fill:#d9d29a;}.cls-43{stroke-width:0.47px;}.cls-44{stroke-width:0.24px;}.cls-45{fill:#9d4838;}.cls-46{fill:#c9b474;}.cls-47{fill:#c7522f;}.cls-48{fill:#a862a7;}.cls-49{fill:#d89f72;}.cls-50{stroke-width:0.48px;}.cls-51{stroke-width:0.6px;}.cls-52{fill:#f5e6c1;}.cls-53{fill:#ffebc6;}.cls-54{stroke-width:0.55px;}.cls-55{stroke:#e2e0df;stroke-width:1.38px;}.cls-56{stroke-width:0.3px;}.cls-57{stroke-width:0.27px;}.cls-58{fill:#fbb040;}.cls-59{stroke:#f37443;stroke-width:0.46px;}.cls-60{fill:#e06a4d;}.cls-61{fill:#004e7c;}.cls-62{fill:#df584f;}.cls-63{stroke-width:0.5px;}.cls-64{stroke-width:0.25px;}.cls-65{fill:#ffcf01;}.cls-66{fill:#00a657;}</style></defs><g id="Layer_2" data-name="Layer 2"><g id="Glavno_Besedilo" data-name="Glavno Besedilo"><path class="cls-1" d="M377.07,71s7.51-.56,7.85-9.59h18.45s.75,11.8,9.55,9.59l-.8,6.78-18,7.15-15.6-4.18-3.81-7.58Z"/><path class="cls-2" d="M347.91,172.33s-2.66,20.93,11.69,23V171.82Z"/><path class="cls-2" d="M442.16,172.36s2.65,20.93-11.69,23V171.85Z"/><path class="cls-3" d="M449.1,172.65l-23.43-1V96.2S431.08,65,439.41,81.91Q446.32,129.34,449.1,172.65Z"/><path class="cls-3" d="M341,172.65l23.44-1V96.2S359,65,350.71,81.91Q343.8,129.34,341,172.65Z"/><path class="cls-4" d="M420.78,71H413c-2.56,6.63-9.62,11.39-17.93,11.39S379.7,77.64,377.14,71h-7.8c-9.44,0-24.74,9.68-18.56,10.37,2.6.3,5.82,4,8.82,13.23v83.06h70.93V94.61c3-9.25,6.22-12.93,8.82-13.23C445.53,80.69,430.23,71,420.78,71Z"/><line class="cls-5" x1="395.06" y1="177.67" x2="395.06" y2="82.4"/><rect class="cls-6" x="359.6" y="177.67" width="70.87" height="23.93"/><polygon class="cls-6" points="395.06 201.6 383.34 310.75 369.94 310.75 359.6 201.6 395.06 201.6"/><polygon class="cls-6" points="430.47 201.6 418.81 310.75 405.48 310.75 395.19 201.6 430.47 201.6"/><path class="cls-7" d="M405.48,310.75V321.1h34.64s4.57-10.37-16.33-8.43c0,0-5.09-.9-4.46-6.83"/><path class="cls-7" d="M383.29,310.75V321.1H348.65s-4.57-10.37,16.33-8.43c0,0,5.09-.9,4.46-6.83"/><circle class="cls-8" cx="401.01" cy="99.94" r="1.79"/><circle class="cls-8" cx="389.3" cy="99.94" r="1.79"/><circle class="cls-8" cx="401.01" cy="113.42" r="1.79"/><circle class="cls-8" cx="389.3" cy="113.42" r="1.79"/><circle class="cls-8" cx="401.01" cy="126.89" r="1.79"/><circle class="cls-8" cx="389.3" cy="126.89" r="1.79"/><circle class="cls-8" cx="401.01" cy="140.37" r="1.79"/><circle class="cls-8" cx="389.3" cy="140.37" r="1.79"/><circle class="cls-8" cx="401.01" cy="153.84" r="1.79"/><circle class="cls-8" cx="389.3" cy="153.84" r="1.79"/><path class="cls-2" d="M392.94,8h4.48A20.61,20.61,0,0,1,418,28.62V44.85A22.85,22.85,0,0,1,395.18,67.7h0a22.85,22.85,0,0,1-22.85-22.85V28.62A20.61,20.61,0,0,1,392.94,8Z"/><path class="cls-9" d="M389.7,34.38c.05-3.52-10.87-3.65-10.92-.13C378.74,37.42,389.66,37.55,389.7,34.38Z"/><path class="cls-9" d="M411.65,34.38c0-3.52-10.88-3.65-10.92-.13C400.69,37.42,411.61,37.55,411.65,34.38Z"/><circle class="cls-10" cx="383.9" cy="34.18" r="1.81"/><circle class="cls-10" cx="406.19" cy="34.18" r="1.81"/><path class="cls-11" d="M378.1,34.45s4.64-4.66,12.85,0C391,34.45,383.81,26.56,378.1,34.45Z"/><path class="cls-11" d="M400,34.45s4.64-4.66,12.85,0C412.82,34.45,405.68,26.56,400,34.45Z"/><path class="cls-12" d="M392.72,46.82s3.71,1.88,4.93.27c.53-.69-2.31-14.54-1.39-14.25"/><path class="cls-13" d="M379.24,30s3.86-4.23,12.25,0"/><path class="cls-13" d="M400.57,30.52s3.86-4.23,12.25,0"/><path class="cls-14" d="M404,53.8a6.76,6.76,0,0,1-3.41,3.51c-.64-2.2-12.36-1.35-12.4-1.34a8.31,8.31,0,0,1-1.79-2.17Z"/><path class="cls-15" d="M400.57,57.31h0a11.46,11.46,0,0,1-4.84,1.16,10.4,10.4,0,0,1-7.56-2.5S399.93,55.11,400.57,57.31Z"/><polygon class="cls-14" points="388.17 55.97 388.17 55.97 388.17 55.97 388.17 55.97"/><path class="cls-2" d="M372.69,31.29s-5-1.4-3.52,6.05a59.39,59.39,0,0,0,3.52,12Z"/><path class="cls-2" d="M417.09,31.29s5-1.4,3.52,6.05a59.39,59.39,0,0,1-3.52,12Z"/><path class="cls-13" d="M391.89,64.42s3.61-3.61,7.31-.18"/><rect class="cls-16" x="399.34" y="30.01" width="13.7" height="8.35" rx="3.91"/><rect class="cls-16" x="377.68" y="30.01" width="13.7" height="8.35" rx="3.91"/><path class="cls-16" d="M391.38,34.45s4.79-3.62,8,0"/><line class="cls-16" x1="372.69" y1="31.29" x2="377.68" y2="33.92"/><line class="cls-16" x1="418.03" y1="31.18" x2="413.04" y2="34.18"/><path class="cls-2" d="M268.47,157.08s-2.84,22.36,12.48,24.6V156.54Z"/><path class="cls-2" d="M352.52,159.58s2.84,22.35-12.48,24.6V159Z"/><path class="cls-1" d="M294.27,70.83s6.93-.59,7.25-10.07h17s.7,12.38,8.82,10.07l-.74,7.11L310,85.45l-14.39-4.4-3.52-8Z"/><path class="cls-3" d="M261,165.7l25-1V93.81s-5.78-29.38-14.68-13.43Q264,125,261,165.7Z"/><path class="cls-3" d="M361.49,165.7l-25-1V93.81s5.79-29.38,14.68-13.43Q358.54,125,361.49,165.7Z"/><path class="cls-2" d="M309,8.57h3.82a17.57,17.57,0,0,1,17.57,17.57v22.7a19.48,19.48,0,0,1-19.48,19.48h0a19.48,19.48,0,0,1-19.48-19.48V26.14A17.57,17.57,0,0,1,309,8.57Z"/><path class="cls-9" d="M305.16,36.37c0-3.13-11.48-3.25-11.53-.11C293.59,39.09,305.12,39.21,305.16,36.37Z"/><path class="cls-9" d="M328.34,36.37c0-3.13-11.49-3.25-11.53-.11C316.77,39.09,328.3,39.21,328.34,36.37Z"/><circle class="cls-10" cx="299.04" cy="36.2" r="1.91"/><circle class="cls-10" cx="322.57" cy="36.2" r="1.91"/><path class="cls-17" d="M292.92,36.48s4.89-4.92,13.56,0C306.48,36.48,298.94,28.15,292.92,36.48Z"/><path class="cls-17" d="M316,36.48s4.9-4.92,13.57,0C329.57,36.48,322,28.15,316,36.48Z"/><path class="cls-18" d="M307.9,49.61s4.58,2,6.08.29c.65-.74-2.85-15.43-1.71-15.12"/><path class="cls-19" d="M294.12,31.79s4.07-4.46,12.93,0"/><path class="cls-19" d="M316.64,32.34s4.07-4.47,12.93,0"/><path class="cls-14" d="M319.63,54.83a7.56,7.56,0,0,1-3.27,4.06c-.62-2.55-11.88-1.56-11.92-1.55a9.51,9.51,0,0,1-1.71-2.51A43.44,43.44,0,0,0,319.63,54.83Z"/><path class="cls-15" d="M316.36,58.89h0a9.6,9.6,0,0,1-4.66,1.35,9,9,0,0,1-7.26-2.9S315.74,56.34,316.36,58.89Z"/><polygon class="cls-14" points="304.44 57.34 304.44 57.34 304.44 57.34 304.44 57.34"/><path class="cls-2" d="M330.3,33.12s5.25-1.47,3.72,6.39a63.66,63.66,0,0,1-3.72,12.73Z"/><path class="cls-20" d="M289.42,44.27c.13-1.19.29-2.39.5-3.59a23.38,23.38,0,0,1,2.74-9.22,16.65,16.65,0,0,1,1.76-2.57c1.15-.8,2-2.61,3.32-3a12.2,12.2,0,0,1,2.11-.88,14.63,14.63,0,0,1,2.19-.49,45,45,0,0,1,5.5.17,14.46,14.46,0,0,1,5,1.4c.78.24,1.57.47,2.36.68a20.49,20.49,0,0,1,2.93-.43,18.16,18.16,0,0,1,3,0,7.79,7.79,0,0,1,1.53,0,7.58,7.58,0,0,1,1.43.31c2.17.51,3.06,2.32,4.72,3.37.32.4.63.81.91,1.24s.57.87.82,1.33a20.24,20.24,0,0,1,1.31,2.84,22,22,0,0,1,.88,2.88c.27.56.8.56,1.33.85,0-.63.07-1.25.13-1.87s.16-1.24.26-1.85c3.73-3.76,7.8-8.28,7.42-14.27a8.31,8.31,0,0,0-.34-1.6,8.45,8.45,0,0,0-.68-1.59,16.53,16.53,0,0,0-.9-1.5,35.32,35.32,0,0,0-6.16-6.59,13.59,13.59,0,0,1-.72-1.72A9.84,9.84,0,0,0,332,7,10.68,10.68,0,0,0,331.2,6a11.8,11.8,0,0,0-1.31-1.24,16.88,16.88,0,0,0-6-2.31c-.54-.11-1.08-.19-1.63-.25-4.38-.75-8.85,1.51-13.41.9-.5-.11-1-.23-1.5-.36l-1.49-.41a12.12,12.12,0,0,0-13.53,2,16.15,16.15,0,0,0-1.18,1.16,15.1,15.1,0,0,0-3.3,5.76l-.92,1.45c-.29.24-.59.47-.89.7A32.06,32.06,0,0,1,282.28,16a7.66,7.66,0,0,0-1,1.44,11.93,11.93,0,0,0-.74,1.66c-.18.53-.35,1.06-.5,1.61-1.18,4.35-1,9.07,2.52,12.36.39.39.79.77,1.19,1.14,2,1.86,4,3.65,4.31,6.37.22.8.45,1.58.67,2.34C289.12,43.76,289.42,44.27,289.42,44.27Z"/><path class="cls-2" d="M291.57,34s-5.25-1.47-3.72,6.39a63.41,63.41,0,0,0,3.72,12.72Z"/><path class="cls-21" d="M306.32,36.61s5.05-3.82,8.4,0"/><line class="cls-21" x1="289.64" y1="33.93" x2="291.85" y2="36.06"/><line class="cls-21" x1="331.82" y1="33.11" x2="329.19" y2="36.33"/><circle class="cls-22" cx="299.08" cy="36.61" r="7.23"/><circle class="cls-22" cx="321.95" cy="36.61" r="7.23"/><circle class="cls-23" cx="290.63" cy="51.43" r="1.65"/><circle class="cls-23" cx="331.43" cy="50.58" r="1.65"/><path class="cls-2" d="M290.68,308.61s-7.67,7-14.26,6.83l27.35.19v-7Z"/><path class="cls-24" d="M303.77,308.61v9.83h-7.22v-2.8s-15.94,5.85-22.93,4.47c0,0-8-1.07,4.27-5.49,9.16-3.3,11-4,11-4"/><path class="cls-2" d="M333.61,308.61s8.26,7,14.84,6.83l-27.35.19v-7Z"/><path class="cls-24" d="M321.1,308.61v9.83h7.23v-2.8s15.94,5.85,22.93,4.47c0,0,8-1.07-4.27-5.49-9.16-3.3-11-4-11-4"/><path class="cls-25" d="M281.84,150.7c0-.07,0-.15,0-.22A1.5,1.5,0,0,0,281.84,150.7Z"/><polygon class="cls-26" points="280.56 163.48 280.56 176.94 290.68 308.61 303.77 308.61 313.16 198.61 321.09 308.61 333.61 308.61 344.57 176.94 344.57 163.48 280.56 163.48"/><path class="cls-24" d="M351.41,80.43c-2.33.28-5.19,3.66-7.89,12.07,0,2.42,1.37,18-3.48,25-1,11,3,37.93,4.35,49.22-27.35,23-63.07-2.36-64.1,2.25,1.32-11.13,3.23-40.65,2.21-51.51-5.4-7.51-5.09-25.28-5.09-25.28-2.67-8.17-5.49-11.47-7.79-11.75-5.71-.67,8.42-10.09,17.14-10.09H294a17.9,17.9,0,0,0,33.11,0h7.2C343,70.34,357.12,79.76,351.41,80.43Z"/><path class="cls-1" d="M446.22,80.86s7.2-.53,7.53-9.2h17.69s.73,11.32,9.17,9.2l-.77,6.51-17.23,6.86-15-4L444,83Z"/><path class="cls-27" d="M515.32,178.36l-22.48-1V105S498,75.06,506,91.32Q512.67,136.83,515.32,178.36Z"/><path class="cls-2" d="M440.79,40.53S435.49,39.05,437,47a64,64,0,0,0,3.75,12.84Z"/><path class="cls-2" d="M460.39,18.59h4.45a20.48,20.48,0,0,1,20.48,20.48V55.2A22.71,22.71,0,0,1,462.62,77.9h0A22.71,22.71,0,0,1,439.91,55.2V39.07a20.48,20.48,0,0,1,20.48-20.48Z"/><path class="cls-9" d="M457.7,44.26c.05-3.5-10.8-3.63-10.85-.14C446.81,47.28,457.67,47.41,457.7,44.26Z"/><path class="cls-9" d="M479.52,44.26c0-3.5-10.81-3.63-10.86-.14C468.63,47.28,479.48,47.41,479.52,44.26Z"/><circle class="cls-10" cx="451.94" cy="44.06" r="1.8"/><circle class="cls-10" cx="474.09" cy="44.06" r="1.8"/><path class="cls-11" d="M446.18,44.33s4.61-4.63,12.77,0C459,44.33,451.85,36.48,446.18,44.33Z"/><path class="cls-11" d="M467.91,44.33s4.61-4.63,12.76,0C480.67,44.33,473.58,36.48,467.91,44.33Z"/><path class="cls-28" d="M460.7,56.62s3.69,1.87,4.9.27c.53-.69-2.3-14.45-1.38-14.17"/><path class="cls-29" d="M447.31,39.92s3.84-4.21,12.17,0"/><path class="cls-29" d="M468.5,40.43s3.84-4.21,12.17,0"/><path class="cls-14" d="M471.89,61.51a9.47,9.47,0,0,1-3.39,5c-.63-3.16-12.28-1.93-12.32-1.93a12.31,12.31,0,0,1-1.78-3.09Z"/><path class="cls-15" d="M468.5,66.53h0a8.79,8.79,0,0,1-4.81,1.67,8.66,8.66,0,0,1-7.51-3.6S467.87,63.37,468.5,66.53Z"/><polygon class="cls-14" points="456.18 64.6 456.18 64.6 456.18 64.6 456.18 64.6"/><path class="cls-2" d="M484.92,41.18s4.94-1.38,3.5,6a59.88,59.88,0,0,1-3.5,12Z"/><polygon class="cls-9" points="454.4 61.51 454.9 62.6 471.52 62.6 471.89 61.51 454.4 61.51"/><path class="cls-30" d="M459.77,44.59s4.76-3.6,7.92,0"/><line class="cls-30" x1="441.2" y1="41.44" x2="446.16" y2="44.06"/><line class="cls-30" x1="486.26" y1="41.34" x2="481.3" y2="44.33"/><circle class="cls-31" cx="452.97" cy="44.59" r="6.81"/><circle class="cls-31" cx="474.49" cy="44.59" r="6.81"/><path class="cls-32" d="M443.41,45.86s-1.53-11.31,3.45-15.77a7.07,7.07,0,0,1,1.53-1,5.16,5.16,0,0,1,1-.35,18,18,0,0,1,5.91-.14l1.44.15a62.89,62.89,0,0,1,13.49,2.64s2.66-2.56-1.73-4,7.14-.18,10.15,6.11a42.91,42.91,0,0,1,3.69,12.36l2.58.7s6.86-17.77-1.3-23.88c-4.47-3.35-10-7.58-15.49-9.1a15.53,15.53,0,0,0-1.64-.37A12.22,12.22,0,0,0,465,13a12,12,0,0,0-1.47-.05,12.17,12.17,0,0,0-3,.26,14.89,14.89,0,0,0-1.49.41c-.48.17-1,.35-1.41.55-4.57,2.31-8.56,6-13.59,7.26q-.72.21-1.41.48c-2.27.89-4.08,2.27-4.23,5.14-.11.44-.21.89-.28,1.34a11.81,11.81,0,0,0-.1,2.72c0,.33,0,.67,0,1C438.09,35.93,439.27,40.64,443.41,45.86Z"/><path class="cls-27" d="M411.64,178.36l22.48-1V105s-5.19-30-13.18-13.71Q414.29,136.83,411.64,178.36Z"/><path class="cls-33" d="M488.15,80.86h-7.47c-2.46,6.36-9.23,10.93-17.2,10.93s-14.74-4.57-17.2-10.93h-7.47c-9.06,0-23.74,9.29-17.81,10,2.49.28,5.58,3.81,8.46,12.68v79.68h68V103.5c2.88-8.87,6-12.4,8.46-12.68C511.89,90.15,497.21,80.86,488.15,80.86Z"/><rect class="cls-34" x="429.46" y="183.18" width="67.99" height="22.96"/><polygon class="cls-34" points="463.48 206.14 452.24 310.84 439.38 310.84 429.46 206.14 463.48 206.14"/><polygon class="cls-34" points="497.44 206.14 486.26 310.84 473.48 310.84 463.6 206.14 497.44 206.14"/><path class="cls-2" d="M418.53,171.9s-2.66,20.94,11.7,23V171.39Z"/><path class="cls-2" d="M508.66,178.08s2.54,20.08-11.22,22.1V177.59Z"/><path class="cls-7" d="M473.48,310.84v9.93H506.7s4.39-9.95-15.66-8.09c0,0-4.88-.87-4.28-6.56"/><path class="cls-7" d="M452.19,310.84v9.93H419s-4.38-9.95,15.67-8.09c0,0,4.88-.87,4.27-6.56"/><circle class="cls-35" cx="453.1" cy="117.41" r="12.52"/><path class="cls-2" d="M502.44,183.83s-2.63,20.68,11.55,22.76V183.32Z"/><path class="cls-2" d="M580.22,186.14s2.62,20.68-11.55,22.76V185.63Z"/><path class="cls-1" d="M526.31,104s6.42-.54,6.71-9.31h15.75s.64,11.45,8.15,9.31l-.68,6.58-15.34,7-13.32-4.07-3.25-7.35Z"/><path class="cls-3" d="M495.57,191.8l23.16-.89V125.28s-5.35-27.18-13.58-12.43Q498.31,154.13,495.57,191.8Z"/><path class="cls-3" d="M588.52,191.8l-23.16-.89V125.28s5.35-27.18,13.58-12.43Q585.78,154.13,588.52,191.8Z"/><polygon class="cls-2" points="545.32 223.22 535.66 313.13 524.63 313.13 516.1 223.22 545.32 223.22"/><polygon class="cls-2" points="571.32 223.22 561.72 313.13 550.74 313.13 542.26 223.22 571.32 223.22"/><path class="cls-15" d="M567.89,178a144.18,144.18,0,0,1-.61-31c4.49-6.47,4.61-20.68,4.61-22.92,2.49-7.79,5.14-10.91,7.3-11.17,5.28-.62-7.8-9.34-15.86-9.34h-6.67a16.56,16.56,0,0,1-30.63,0h-6.66c-8.07,0-21.15,8.72-15.87,9.34,2.13.26,4.74,3.31,7.21,10.87,0,0-.29,16.45,4.72,23.39a145.32,145.32,0,0,1-.62,30.81l-17.89,85.66s9.41,10.23,36.8,0c0,0,18.59,7.6,34.95,0,0,0,13.63,6.1,20.11,0Z"/><path class="cls-2" d="M524.63,313.13s-8.17,6.44-14.26,6.32l25.3.18v-6.5Z"/><path class="cls-33" d="M535.67,313.13v9.1H529v-2.6s-14.75,5.42-21.22,4.14c0,0-7.38-1,4-5.08,8.48-3.05,10.19-3.69,10.19-3.69"/><path class="cls-2" d="M561.78,313.13s8.17,6.44,14.26,6.32l-25.3.18v-6.5Z"/><path class="cls-33" d="M550.74,313.13v9.1h6.68v-2.6s14.75,5.42,21.22,4.14c0,0,7.38-1-3.95-5.08-8.48-3.05-10.19-3.69-10.19-3.69"/><path class="cls-36" d="M514.81,178c.06-5.4,27.34,21.6,53.07,0"/><path class="cls-2" d="M540.26,37.13h4a18.56,18.56,0,0,1,18.56,18.56V80.52a20.58,20.58,0,0,1-20.58,20.58h0A20.58,20.58,0,0,1,521.7,80.52V55.68a18.56,18.56,0,0,1,18.56-18.56Z"/><path class="cls-9" d="M537.41,66.93c.05-4-12.3-4.12-12.35-.15C525,70.37,537.37,70.52,537.41,66.93Z"/><path class="cls-9" d="M560.66,66.93c.05-4-12.3-4.12-12.35-.15C548.27,70.37,560.62,70.52,560.66,66.93Z"/><circle class="cls-10" cx="531.24" cy="66.71" r="2.04"/><circle class="cls-10" cx="554.71" cy="66.71" r="2.04"/><path class="cls-17" d="M524.3,67s5.24-5.27,14.52,0C538.82,67,530.75,58.09,524.3,67Z"/><path class="cls-17" d="M547.45,67s5.25-5.27,14.53,0C562,67,553.91,58.09,547.45,67Z"/><path class="cls-37" d="M539,79.24s4.9,1.89,6.51.27c.69-.69-3.06-14.61-1.83-14.32"/><path class="cls-38" d="M524.25,62s4.36-4.78,13.84,0"/><path class="cls-38" d="M548.36,62.57s4.36-4.78,13.84,0"/><path class="cls-14" d="M550.69,86.62a7.43,7.43,0,0,1-3.26,4c-.62-2.5-11.84-1.53-11.88-1.52a9.11,9.11,0,0,1-1.71-2.45A35.92,35.92,0,0,0,550.69,86.62Z"/><path class="cls-15" d="M547.43,90.59h0a9.56,9.56,0,0,1-4.63,1.31,9.08,9.08,0,0,1-7.24-2.83S546.81,88.09,547.43,90.59Z"/><polygon class="cls-14" points="535.55 89.07 535.55 89.07 535.55 89.07 535.55 89.07"/><path class="cls-2" d="M562.5,63.44s5.16-1.58,3.66,6.84a72,72,0,0,1-3.66,13.63Z"/><path class="cls-32" d="M520.27,75c.15-1,.31-2,.49-3.07s.38-2.09.63-3.12.77-1.94,1.19-2.9.86-1.9,1.34-2.81c.66-2.81,2.89-4.15,4.45-6.21a17.19,17.19,0,0,1,1.68-1.36c2.56-1.48,5.24-2.82,8.18-1.52a33.32,33.32,0,0,1,3.62.6,33.93,33.93,0,0,1,3.41.93l2.55.74c.84.24,1.68.47,2.51.68,1.41.35,2.78.65,4.1.85a15.49,15.49,0,0,0,16-6.7h2.24a25.22,25.22,0,0,0-10.45-12,28.71,28.71,0,0,0-2.84-1.54,40.71,40.71,0,0,0-9.63-3.16c-1.1-.21-2.22-.39-3.34-.51a38.87,38.87,0,0,0-16.93,1.54,33.17,33.17,0,0,0-3.19,1.21c-8.4,3.08-13.3,12-14.23,20.58a17.85,17.85,0,0,0,.25,3.28,15.37,15.37,0,0,0,2.31,6A15.84,15.84,0,0,0,517,69a22.9,22.9,0,0,0,1.9,2.43,18.77,18.77,0,0,1,.67,2.12A13.71,13.71,0,0,0,520.27,75Z"/><circle class="cls-32" cx="541.65" cy="34.1" r="11.25"/><path class="cls-2" d="M522.25,64.32s-5.16-1.58-3.65,6.84a72.56,72.56,0,0,0,3.65,13.63Z"/><ellipse class="cls-39" cx="520.29" cy="81.78" rx="1.62" ry="1.76"/><ellipse class="cls-39" cx="564.12" cy="80.56" rx="1.62" ry="1.76"/><path class="cls-2" d="M574.05,210.48s-2.64,20.81,11.62,22.9V210Z"/><path class="cls-2" d="M647,210.48s2.63,20.81-11.62,22.9V210Z"/><path class="cls-1" d="M596.43,136.62s6-.45,6.32-7.72H617.6s.61,9.5,7.69,7.72l-.64,5.46-14.47,5.76-12.56-3.37-3.06-6.1Z"/><path class="cls-40" d="M655.12,211.34l-20.79-.24v-55s5.37-22.78,13.62-10.42C652.52,168.73,653.26,190.27,655.12,211.34Z"/><path class="cls-40" d="M567.37,211.34l19.4-.24V156.19s-5.37-22.75-13.63-10.4C568.57,168.81,569.24,190.3,567.37,211.34Z"/><path class="cls-41" d="M630.46,136.44h-6c-2,5.06-7.45,8.69-13.88,8.69s-11.9-3.63-13.88-8.69h-6c-7.31,0-19.16,7.38-14.37,7.91,2,.23,4.5,3,6.83,10.09v70H638v-70c2.32-7.05,4.81-9.86,6.83-10.09C649.62,143.82,637.77,136.44,630.46,136.44Z"/><rect class="cls-42" x="583.38" y="224.44" width="54.54" height="13.15"/><polygon class="cls-42" points="610.67 237.59 600.8 316.19 591.34 313.66 583.38 237.59 610.67 237.59"/><polygon class="cls-42" points="637.92 237.59 628.95 313.66 619.12 315.85 610.77 237.59 637.92 237.59"/><path class="cls-7" d="M591.23,312.79a4,4,0,0,1-3.09,4.72c-14.44-1.34-11.28,5.84-11.28,5.84H600.8v-7.16Z"/><path class="cls-7" d="M629,312.33c-.45,4.25,3.19,4.89,3.19,4.89,15-1.39,11.69,6,11.69,6h-24.8v-7.41Z"/><path class="cls-2" d="M608.5,80.06h4a18.22,18.22,0,0,1,18.22,18.22v14.34a20.2,20.2,0,0,1-20.2,20.2h0a20.2,20.2,0,0,1-20.2-20.2V98.28A18.22,18.22,0,0,1,608.5,80.06Z"/><path class="cls-11" d="M595.35,105.1s4.1-4.12,11.36,0C606.71,105.1,600.4,98.12,595.35,105.1Z"/><path class="cls-11" d="M614.68,105.1s4.1-4.12,11.35,0C626,105.1,619.72,98.12,614.68,105.1Z"/><path class="cls-43" d="M608.27,114.36s3.28,1.66,4.36.24c.46-.61-2-12.85-1.23-12.6"/><path class="cls-44" d="M596.35,99.5s3.42-3.74,10.83,0"/><path class="cls-44" d="M615.21,100s3.41-3.74,10.82,0"/><path class="cls-14" d="M618.22,118.71a8.44,8.44,0,0,1-3,4.47c-.57-2.81-10.93-1.72-11-1.72a11.07,11.07,0,0,1-1.58-2.75Z"/><path class="cls-15" d="M615.21,123.18h0a7.81,7.81,0,0,1-4.28,1.48,7.72,7.72,0,0,1-6.69-3.2S614.64,120.37,615.21,123.18Z"/><polygon class="cls-14" points="604.25 121.46 604.25 121.46 604.25 121.46 604.25 121.46"/><path class="cls-2" d="M590.56,100.63s-4.39-1.23-3.11,5.35a53.5,53.5,0,0,0,3.11,10.66Z"/><path class="cls-2" d="M629.81,100.63s4.39-1.23,3.11,5.35a53.5,53.5,0,0,1-3.11,10.66Z"/><path class="cls-45" d="M592.85,104.24a31.32,31.32,0,0,1,1.24-11.64c.13-.36.26-.72.42-1.07a5.6,5.6,0,0,1,1.36-2,9.11,9.11,0,0,1,2.68-1.58,6.39,6.39,0,0,1,1.38-.36c.65-.37,1.41.14,2.16.39a15.22,15.22,0,0,1,1.5,1.07c.48.39.95.81,1.43,1.19a3.59,3.59,0,0,0,1.52,1.09,2.09,2.09,0,0,0,1.63-.06,15,15,0,0,1,5.59-1.68c.49,0,1-.06,1.46-.06,3.57-.29,6.1,2,8.88,3.51a3,3,0,0,0,2.85.07,6.21,6.21,0,0,0,1.28-.79,5.85,5.85,0,0,0,2.2-4.09c0-.5.91.24,1.41.49s.46.56.61.78a16.69,16.69,0,0,0-2.63-5A20.44,20.44,0,0,0,628,82.19a20,20,0,0,0-2.16-2c-.44-.34-.88-.66-1.35-1a17.2,17.2,0,0,0-2.9-1.55c-.4-.21-.8-.41-1.21-.58s-.82-.33-1.24-.46-.84-.25-1.27-.35a12.64,12.64,0,0,0-1.53-.45,14.21,14.21,0,0,0-1.54-.27,34.83,34.83,0,0,0-5.11.12l-1,.14c-3,.93-6,1.18-9,2.13-.42.16-.84.34-1.25.53a15.14,15.14,0,0,0-6.11,5.21c-.28.42-.54.85-.78,1.3a20.25,20.25,0,0,0-1.69,4.21c-.15.33-.3.66-.43,1-2.45,6.43.44,15.39.44,15.39"/><rect class="cls-46" x="591.82" y="155.95" width="37.89" height="15.98" rx="7.99"/><rect class="cls-47" x="613.73" y="197.32" width="15.98" height="15.98" rx="7.99"/><path class="cls-2" d="M77.6,167.61S74.79,189.74,90,192V167.07Z"/><path class="cls-2" d="M160.8,170.08s2.81,22.13-12.35,24.35V169.54Z"/><path class="cls-1" d="M103.14,82.23s6.86-.58,7.17-10h16.85s.69,12.25,8.72,10l-.73,7-16.41,7.44-14.25-4.35L101,84.49Z"/><path class="cls-48" d="M70.25,176.14,95,175.19V105S89.3,75.91,80.5,91.69Q73.18,135.84,70.25,176.14Z"/><path class="cls-48" d="M169.68,176.14l-24.78-.95V105s5.73-29.08,14.53-13.3Q166.75,135.84,169.68,176.14Z"/><polygon class="cls-48" points="123.47 209.76 113.14 305.93 101.33 305.93 92.22 209.76 123.47 209.76"/><polygon class="cls-48" points="151.28 209.76 141.01 305.93 129.27 305.93 120.2 209.76 151.28 209.76"/><path class="cls-11" d="M147.61,157.36a140.13,140.13,0,0,1-.65-31.47c4.8-6.58,4.94-21,4.93-23.3,2.67-7.91,5.5-11.08,7.81-11.34,5.65-.64-8.34-9.49-17-9.49H135.6c-2.33,6.06-8.78,10.42-16.38,10.42s-14-4.36-16.39-10.42H95.71c-8.63,0-22.62,8.85-17,9.49,2.27.25,5.07,3.35,7.71,11,0,0-.31,16.71,5,23.77a139.9,139.9,0,0,1-.66,31.31l-19.13,87s10.07,10.4,39.36,0c0,0,19.89,7.73,37.39,0,0,0,14.58,6.2,21.51,0Z"/><path class="cls-49" d="M101.34,305.93s-8.74,6.89-15.26,6.75l27.07.2v-6.95Z"/><path class="cls-11" d="M113.15,305.93v9.72H106v-2.77s-15.77,5.8-22.7,4.43c0,0-7.89-1.07,4.23-5.43,9.07-3.27,10.89-3.95,10.89-3.95"/><path class="cls-49" d="M141.08,305.93s8.74,6.89,15.25,6.75l-27.07.2v-6.95Z"/><path class="cls-11" d="M129.26,305.93v9.72h7.16v-2.77s15.77,5.8,22.69,4.43c0,0,7.9-1.07-4.22-5.43-9.07-3.27-10.9-3.95-10.9-3.95"/><path class="cls-50" d="M90.83,161.34c.07-5.78,29.25,23.11,56.78,0"/><path class="cls-2" d="M116.62,15.52h5.21a18.79,18.79,0,0,1,18.79,18.79V55.78a20.84,20.84,0,0,1-20.84,20.84h-1.13A20.84,20.84,0,0,1,97.83,55.78V34.31a18.79,18.79,0,0,1,18.79-18.79Z"/><path class="cls-9" d="M113.32,44c0-3.79-11.75-3.93-11.79-.14C101.48,47.27,113.27,47.41,113.32,44Z"/><path class="cls-9" d="M137,44c.05-3.79-11.74-3.93-11.79-.14C125.18,47.27,137,47.41,137,44Z"/><circle class="cls-10" cx="107.05" cy="43.77" r="1.95"/><circle class="cls-10" cx="131.12" cy="43.77" r="1.95"/><path class="cls-17" d="M100.79,44.06s5-5,13.87,0C114.66,44.06,107,35.54,100.79,44.06Z"/><path class="cls-17" d="M124.4,44.06s5-5,13.87,0C138.27,44.06,130.56,35.54,124.4,44.06Z"/><path class="cls-51" d="M116.12,55.74s4.68,1.8,6.22.26c.66-.67-2.92-14-1.75-13.68"/><path class="cls-51" d="M102,39.27s4.17-4.57,13.22,0"/><path class="cls-51" d="M125.05,39.82s4.17-4.57,13.22,0"/><path class="cls-14" d="M128.73,62.79a7.37,7.37,0,0,1-3.68,3.79c-.69-2.39-13.35-1.46-13.39-1.46a8.84,8.84,0,0,1-1.93-2.33Z"/><path class="cls-15" d="M125.05,66.58h0a12.43,12.43,0,0,1-5.23,1.25,11.19,11.19,0,0,1-8.16-2.71S124.36,64.19,125.05,66.58Z"/><polygon class="cls-14" points="111.66 65.12 111.66 65.12 111.66 65.12 111.66 65.12"/><path class="cls-2" d="M140.27,40.64s5.36-1.5,3.8,6.54a64.91,64.91,0,0,1-3.8,13Z"/><path class="cls-52" d="M119.22,22.18h0Z"/><line class="cls-52" x1="119.23" y1="22.17" x2="119.23" y2="22.18"/><path class="cls-53" d="M145.89,88s-2.67-.58-4.58-6.61a58.22,58.22,0,0,0-11.16-7.6c2.62-1.53,5-4.41,6.85-7.18.31-.46.61-.92.89-1.37a4.52,4.52,0,0,1,1.05-1.92c1.07-1.43.08-2.92.62-4.26,0-1.49.14-3,.24-4.48.43-6,.94-12-1.14-17.42-.17-.45-.35-.88-.55-1.29a12.84,12.84,0,0,0-2.8-3.92,11.19,11.19,0,0,0-1.08-.9c-2.62-2.26-6.08-2.26-9.57-2-.73.08-1.42.19-2,.31-1.89.38-3.21.86-3.42.88h0c-.15,0-.8-.24-1.79-.5a27.47,27.47,0,0,0-3.82-.73,15.62,15.62,0,0,0-4.84.17,13.44,13.44,0,0,0-2.51.77,11,11,0,0,0-2.36,1.39A31.72,31.72,0,0,0,101,34.56l-.74,1.59a19.48,19.48,0,0,0-1.61,4.32c-.14.59-.26,1.18-.36,1.79A27,27,0,0,0,98,47.81q0,.94.15,1.89c0,.55,0,1.1,0,1.63C98,56.48,97,62.41,101.32,66c.44.6.89,1.19,1.34,1.77,2.24,2.89,4.39,5.33,4.39,5.33-1.36-.89-3-.38-4.59.88a16.73,16.73,0,0,0-1.64,1.48,10.74,10.74,0,0,0-4.18,7.31c-.18.48-.37.91-.55,1.31-1.72,3.57-3.56,4-3.56,4s-.11-.7-.29-2c-.09-.63-.2-1.41-.37-2.3-3.24-5.54-2.25-11.47-.3-17.54.1-.73.19-1.46.24-2.2a18.69,18.69,0,0,0,0-2.25c-.06-.6-.13-1.2-.19-1.8-.33-3-.58-5.95.4-8.91.27-.75.52-1.49.74-2.19s.4-1.35.54-1.91.28-.91.4-1.38a13.3,13.3,0,0,0,.32-1.45,2.63,2.63,0,0,0,0-1.73c-.12-.65-.21-1.29-.27-1.93s-.09-1.28-.1-1.91a10.16,10.16,0,0,1,.1-4.12c.16-.64.35-1.27.56-1.89s.44-1.23.69-1.83.51-1.16.78-1.73.55-1.14.84-1.74.5-1.37.78-2.05.61-1.34.95-2A14.68,14.68,0,0,1,99,21.7a13.55,13.55,0,0,1,.74-1.36c3.33-6.15,10.07-9.17,16.89-9.38.76,0,1.52,0,2.27,0a19.1,19.1,0,0,1,10.47,1.79c.66.3,1.31.63,1.94,1,4.74,3.69,9.18,7.64,12.22,13a9,9,0,0,1,.12,2,13.31,13.31,0,0,1,.54,1.94,10.54,10.54,0,0,1,.16,2,10.85,10.85,0,0,1-.22,1.84c.37,4.75,1,9.47,1.4,14.16.07.67.12,1.34.18,2,1.2,5.75,3.18,11.68,1,18.24-.13.64-.29,1.27-.47,1.89s-.37,1.25-.59,1.86c0,.64-.07,1.29-.1,1.94a44.7,44.7,0,0,0,.16,5.79,8.39,8.39,0,0,0,.78,1.78,10.18,10.18,0,0,1-.12,2.36C146.1,86.78,145.89,88,145.89,88Z"/><path class="cls-1" d="M173.3,70.7s7.5-.56,7.85-9.58h18.41s.75,11.78,9.54,9.58l-.8,6.76-17.94,7.15-15.58-4.18L171,72.87Z"/><path class="cls-3" d="M245.23,172.17l-23.4-1V95.85s5.4-31.2,13.72-14.27Q242.45,128.94,245.23,172.17Z"/><path class="cls-2" d="M167.66,28.72s-5.52-1.54-3.91,6.72a66,66,0,0,0,3.91,13.37Z"/><path class="cls-2" d="M188.05,5.88h4.63A21.32,21.32,0,0,1,214,27.2V44a23.63,23.63,0,0,1-23.63,23.63h0A23.63,23.63,0,0,1,166.74,44V27.2A21.32,21.32,0,0,1,188.05,5.88Z"/><path class="cls-45" d="M170.39,34.26s.72,11.38,11.43,16.29H200S210.9,40,210.9,34.26L214,35a48.64,48.64,0,0,1,.67,14.81,27.16,27.16,0,0,1-.58,3.22,17.56,17.56,0,0,1-.56,2.71,14.51,14.51,0,0,1-.93,2.46,17.41,17.41,0,0,1-1.28,2.17,15,15,0,0,1-1.66,2,22.9,22.9,0,0,1-1.3,1.91c-.47.62-1,1.21-1.48,1.78a21.75,21.75,0,0,1-1.77,2.15,22.14,22.14,0,0,1-9.65,6.32,14.37,14.37,0,0,1-2.28.45,6.9,6.9,0,0,1-4.71-.82c-4.7-4.16-9.13-7.76-14.89-9.41a17.38,17.38,0,0,1-1.65-1.29,19,19,0,0,1-1.5-1.48A19,19,0,0,1,169.18,60a20.67,20.67,0,0,1-1.86-4.27c-.19-.72-.35-1.46-.49-2.2a32.84,32.84,0,0,1-.33-8.94c0-1.09-.05-2.19,0-3.24.06-3.16.42-5.84,1.42-6.37C170.57,33.58,170.39,34.26,170.39,34.26Z"/><path class="cls-9" d="M185.26,32.6c0-3.64-11.25-3.78-11.29-.14C173.93,35.74,185.22,35.88,185.26,32.6Z"/><path class="cls-9" d="M208,32.6c0-3.64-11.25-3.78-11.29-.14C196.63,35.74,207.92,35.88,208,32.6Z"/><circle class="cls-10" cx="179.26" cy="32.4" r="1.87"/><circle class="cls-10" cx="202.31" cy="32.4" r="1.87"/><path class="cls-11" d="M173.26,32.67s4.8-4.82,13.29,0C186.55,32.67,179.17,24.51,173.26,32.67Z"/><path class="cls-11" d="M195.88,32.67s4.8-4.82,13.28,0C209.16,32.67,201.78,24.51,195.88,32.67Z"/><path class="cls-45" d="M186.38,45.51a7.85,7.85,0,0,0-4.56,5H200c-.63-1.95-2.28-3.61-4.74-5Z"/><path class="cls-54" d="M188.38,45.47s3.84,1.94,5.1.28c.55-.72-2.39-15-1.43-14.75"/><path class="cls-55" d="M174.44,28.08s4-4.38,12.67,0"/><path class="cls-55" d="M196.5,28.61s4-4.38,12.66,0"/><path class="cls-14" d="M200,50.55a9.85,9.85,0,0,1-3.52,5.23c-.66-3.29-12.79-2-12.83-2a12.86,12.86,0,0,1-1.85-3.22Z"/><path class="cls-15" d="M196.5,55.78h0a9.15,9.15,0,0,1-5,1.73,9,9,0,0,1-7.82-3.74S195.84,52.49,196.5,55.78Z"/><polygon class="cls-14" points="183.67 53.77 183.67 53.77 183.67 53.77 183.67 53.77"/><path class="cls-2" d="M213.58,29.4s5.14-1.44,3.65,6.26a62.18,62.18,0,0,1-3.65,12.47Z"/><polygon class="cls-9" points="181.82 50.55 182.34 51.69 199.63 51.69 200.02 50.55 181.82 50.55"/><path class="cls-56" d="M187.41,32.94s5-3.74,8.24,0"/><line class="cls-56" x1="168.08" y1="29.67" x2="173.24" y2="32.39"/><line class="cls-56" x1="214.98" y1="29.56" x2="209.82" y2="32.67"/><circle class="cls-57" cx="180.33" cy="32.94" r="7.09"/><circle class="cls-57" cx="202.73" cy="32.94" r="7.09"/><path class="cls-45" d="M170.39,34.26s-1.6-11.77,3.59-16.4a6.91,6.91,0,0,1,1.58-1.08,5.7,5.7,0,0,1,1.05-.37,18.92,18.92,0,0,1,6.15-.14l1.5.15c9.26,1,14,2.75,14,2.75s2.77-2.66-1.8-4.13,7.43-.19,10.56,6.36a44.79,44.79,0,0,1,3.84,12.86l2.68.73s7.14-18.5-1.35-24.85c-4.65-3.49-10.42-7.89-16.12-9.47q-.86-.24-1.71-.39c-.5-.1-1-.17-1.52-.22s-1-.06-1.52,0a12.7,12.7,0,0,0-3.1.27c-.53.12-1,.27-1.55.43s-1,.36-1.47.57c-4.75,2.41-8.91,6.28-14.14,7.56-.5.15-1,.31-1.47.5-2.36.93-4.24,2.36-4.4,5.35a13.19,13.19,0,0,0-.29,1.39,12.22,12.22,0,0,0-.11,2.83c0,.35,0,.7,0,1.07C164.84,23.93,166.07,28.83,170.39,34.26Z"/><path class="cls-3" d="M137.32,172.17l23.4-1V95.85S155.31,64.65,147,81.58Q140.09,128.94,137.32,172.17Z"/><path class="cls-58" d="M217,70.7h-7.78c-2.56,6.61-9.6,11.37-17.9,11.37s-15.34-4.76-17.9-11.37h-7.78c-9.43,0-24.7,9.66-18.54,10.35,2.6.3,5.81,4,8.81,13.21v82.93h70.82V94.26c3-9.24,6.21-12.91,8.81-13.21C241.66,80.36,226.38,70.7,217,70.7Z"/><line class="cls-59" x1="191.27" y1="177.19" x2="191.27" y2="82.07"/><rect class="cls-34" x="155.86" y="177.19" width="70.76" height="23.89"/><polygon class="cls-34" points="191.27 201.08 179.57 310.05 166.19 310.05 155.86 201.08 191.27 201.08"/><polygon class="cls-34" points="226.62 201.08 214.98 310.05 201.67 310.05 191.4 201.08 226.62 201.08"/><path class="cls-2" d="M144.19,171.85s-2.65,20.9,11.67,23V171.34Z"/><path class="cls-2" d="M238.29,171.88s2.65,20.9-11.67,23V171.37Z"/><path class="cls-7" d="M201.67,310.05v10.34h34.58S240.82,310,220,312c0,0-5.08-.9-4.45-6.82"/><path class="cls-7" d="M179.52,310.05v10.34H144.94S140.37,310,161.24,312c0,0,5.08-.9,4.45-6.82"/><circle class="cls-60" cx="197.21" cy="99.58" r="1.79"/><circle class="cls-60" cx="185.52" cy="99.58" r="1.79"/><circle class="cls-60" cx="197.21" cy="113.04" r="1.79"/><circle class="cls-60" cx="185.52" cy="113.04" r="1.79"/><circle class="cls-60" cx="197.21" cy="126.49" r="1.79"/><circle class="cls-60" cx="185.52" cy="126.49" r="1.79"/><circle class="cls-60" cx="197.21" cy="139.94" r="1.79"/><circle class="cls-60" cx="185.52" cy="139.94" r="1.79"/><circle class="cls-60" cx="197.21" cy="153.4" r="1.79"/><circle class="cls-60" cx="185.52" cy="153.4" r="1.79"/><path class="cls-2" d="M227.69,199.59s-2.81,22.16,12.37,24.38V199.05Z"/><path class="cls-2" d="M304,200.2s2.81,22.15-12.37,24.38V199.66Z"/><path class="cls-1" d="M250.34,121.56s6.44-.48,6.73-8.22h15.81s.65,10.11,8.19,8.22l-.68,5.81L265,133.51l-13.37-3.59-3.27-6.49Z"/><path class="cls-34" d="M309.14,201.12,287,200.86V142.29S292.71,118,301.5,131.2C306.37,155.75,307.15,178.68,309.14,201.12Z"/><path class="cls-34" d="M223.44,201.12l20.65-.25V142.4s-5.71-24.22-14.5-11.08C224.72,155.83,225.43,178.72,223.44,201.12Z"/><path class="cls-61" d="M285.54,121.37h-6.11a15.31,15.31,0,0,1-28.12,0H245.2c-7.41,0-19.41,7.86-14.56,8.42,2,.24,4.56,3.23,6.91,10.74v74.53h55.64V140.53c2.35-7.51,4.87-10.5,6.91-10.74C305,129.23,293,121.37,285.54,121.37Z"/><rect class="cls-62" x="237.46" y="215.06" width="56.03" height="14"/><polygon class="cls-62" points="265.51 229.07 255.37 312.75 245.65 310.06 237.46 229.07 265.51 229.07"/><polygon class="cls-62" points="293.5 229.07 284.28 310.06 274.19 312.39 265.6 229.07 293.5 229.07"/><path class="cls-7" d="M245.45,308.85c.46,4.37-3.28,5-3.28,5-15.39-1.43-12,6.21-12,6.21h14.69l10.57-.07v-7.63Z"/><path class="cls-7" d="M284.49,308.65c-.48,4.52,3.4,5.21,3.4,5.21,15.93-1.48,12.45,6.43,12.45,6.43H274.19v-7.9Z"/><path class="cls-2" d="M263.19,61.34h4.22a19.4,19.4,0,0,1,19.4,19.4V96a21.51,21.51,0,0,1-21.51,21.51h0A21.51,21.51,0,0,1,243.79,96V80.73a19.4,19.4,0,0,1,19.4-19.4Z"/><path class="cls-11" d="M249.19,88s4.37-4.39,12.09,0C261.28,88,254.56,80.57,249.19,88Z"/><path class="cls-11" d="M269.77,88s4.36-4.39,12.09,0C281.86,88,275.14,80.57,269.77,88Z"/><path class="cls-63" d="M262.94,97.86s3.5,1.77,4.65.26c.49-.66-2.18-13.69-1.31-13.42"/><path class="cls-64" d="M250.26,82s3.63-4,11.52,0"/><path class="cls-64" d="M270.33,82.52s3.64-4,11.53,0"/><path class="cls-14" d="M273.54,102.49a9,9,0,0,1-3.21,4.76c-.6-3-11.63-1.83-11.67-1.83a11.37,11.37,0,0,1-1.68-2.93Z"/><path class="cls-15" d="M270.33,107.25h0a8.32,8.32,0,0,1-4.56,1.57,8.2,8.2,0,0,1-7.11-3.4S269.73,104.25,270.33,107.25Z"/><polygon class="cls-14" points="258.66 105.42 258.66 105.42 258.66 105.42 258.66 105.42"/><path class="cls-2" d="M244.09,83.24s-4.67-1.31-3.31,5.7a56.7,56.7,0,0,0,3.31,11.34Z"/><path class="cls-2" d="M285.88,83.24s4.68-1.31,3.32,5.7a57.05,57.05,0,0,1-3.32,11.34Z"/><rect class="cls-39" x="245.38" y="138" width="21.7" height="38.66" rx="9.41"/><rect class="cls-39" x="271.04" y="175.27" width="14.84" height="26.44" rx="6.43"/><path class="cls-45" d="M264.71,70.42s3,6,18.42,18.32c3.13,2.19.2,24.7-9.59,27.14l15.9,5.78s10-24.5-6-54.64a21.82,21.82,0,0,0-18.15-8.91s-20.21-.65-23,16.2l-.67,8.83S257.63,80,264.71,70.42Z"/><path class="cls-45" d="M242.68,72.55s-13.42,41.72,10,47.46"/><rect class="cls-65" x="240.05" y="81.64" width="4.91" height="1.51"/><path class="cls-2" d="M4.24,199.59S1.43,221.75,16.61,224V199.05Z"/><path class="cls-2" d="M80.52,200.2s2.81,22.15-12.37,24.38V199.66Z"/><path class="cls-1" d="M26.89,121.56s6.44-.48,6.74-8.22H49.44s.65,10.11,8.18,8.22l-.68,5.81-15.4,6.14-13.38-3.59-3.26-6.49Z"/><path class="cls-34" d="M85.69,201.12l-22.14-.26V142.29S69.27,118,78.06,131.2C82.92,155.75,83.71,178.68,85.69,201.12Z"/><path class="cls-34" d="M0,201.12l20.65-.25V142.4s-5.72-24.22-14.51-11.08C1.28,155.83,2,178.72,0,201.12Z"/><path class="cls-66" d="M62.1,121.37H56a14.84,14.84,0,0,1-14.06,9.25,14.82,14.82,0,0,1-14.06-9.25H21.75c-7.4,0-19.4,7.86-14.56,8.42,2,.24,4.57,3.23,6.92,10.74v74.53H69.74V140.53c2.36-7.51,4.88-10.5,6.92-10.74C81.51,129.23,69.51,121.37,62.1,121.37Z"/><polygon class="cls-2" points="42.06 229.07 31.92 312.75 22.2 310.06 14.02 229.07 42.06 229.07"/><polygon class="cls-2" points="70.05 229.07 60.84 310.06 50.74 312.39 42.16 229.07 70.05 229.07"/><path class="cls-7" d="M22,308.85c.47,4.37-3.28,5-3.28,5-15.38-1.43-12,6.21-12,6.21H21.4L32,320v-7.63Z"/><path class="cls-7" d="M61.05,308.65c-.48,4.52,3.4,5.21,3.4,5.21,15.92-1.48,12.44,6.43,12.44,6.43H50.75v-7.9Z"/><path class="cls-2" d="M39.74,61.34H44a19.4,19.4,0,0,1,19.4,19.4V96a21.51,21.51,0,0,1-21.51,21.51h0A21.51,21.51,0,0,1,20.35,96V80.73a19.4,19.4,0,0,1,19.4-19.4Z"/><path class="cls-11" d="M25.75,88s4.36-4.39,12.09,0C37.84,88,31.12,80.57,25.75,88Z"/><path class="cls-11" d="M46.32,88s4.37-4.39,12.09,0C58.41,88,51.7,80.57,46.32,88Z"/><path class="cls-63" d="M39.5,97.86s3.49,1.77,4.64.26c.5-.66-2.18-13.69-1.3-13.42"/><path class="cls-64" d="M26.82,82s3.63-4,11.52,0"/><path class="cls-64" d="M46.89,82.52s3.63-4,11.52,0"/><path class="cls-14" d="M50.1,102.49a9,9,0,0,1-3.21,4.76c-.6-3-11.64-1.83-11.67-1.83a11.6,11.6,0,0,1-1.69-2.93Z"/><path class="cls-15" d="M46.89,107.25h0a8.32,8.32,0,0,1-4.56,1.57,8.19,8.19,0,0,1-7.11-3.4S46.29,104.25,46.89,107.25Z"/><polygon class="cls-14" points="35.22 105.42 35.22 105.42 35.22 105.42 35.22 105.42"/><path class="cls-2" d="M20.65,83.24s-4.68-1.31-3.32,5.7a57.05,57.05,0,0,0,3.32,11.34Z"/><path class="cls-2" d="M62.44,83.24s4.67-1.31,3.31,5.7a56.7,56.7,0,0,1-3.31,11.34Z"/><path class="cls-53" d="M41.26,70.42s3,6,18.42,18.32c3.14,2.19-2.48,33.4-10.85,47.64l21.62,4.8S74.64,91.74,60,67a21.83,21.83,0,0,0-18.16-8.91s-20.2-.65-23,16.2l-.68,8.83S34.19,80,41.26,70.42Z"/><path class="cls-53" d="M19.24,72.55S7.19,129.24,30.59,135"/><polygon class="cls-66" points="85.85 254.32 2.56 254.32 14.02 203.85 70.05 203.85 85.85 254.32"/><rect class="cls-53" x="57.82" y="151.67" width="3.2" height="37.91"/><rect class="cls-53" x="51.41" y="151.67" width="3.2" height="37.91"/><rect class="cls-53" x="45.01" y="151.67" width="3.2" height="37.91"/><rect class="cls-53" x="25.79" y="151.67" width="3.2" height="37.91"/><circle class="cls-48" cx="37" cy="159.01" r="6.41"/></g></g></svg>