<svg xmlns="http://www.w3.org/2000/svg" xmlns:xlink="http://www.w3.org/1999/xlink" viewBox="0 0 277.84 769.87"><defs><style>.cls-1,.cls-15,.cls-16{fill:none;}.cls-1{stroke:#00a881;stroke-width:5.67px;}.cls-1,.cls-11,.cls-12,.cls-15,.cls-16,.cls-18{stroke-miterlimit:10;}.cls-2{clip-path:url(#clip-path);}.cls-3{fill:#dce6e0;}.cls-4{fill:#fbc5aa;}.cls-5{fill:#d8dcec;}.cls-11,.cls-12,.cls-6{fill:#eed1bf;}.cls-7{fill:#ffebc6;}.cls-8{fill:#fff;}.cls-9{fill:#514835;}.cls-10{fill:#ebaf82;}.cls-11{stroke:#ebaf82;stroke-width:1.15px;}.cls-12{stroke:#ffe6b4;stroke-width:2.89px;}.cls-13{fill:#5a3b34;}.cls-14{fill:#d55225;}.cls-15,.cls-16{stroke:#231f20;}.cls-15{stroke-width:0.62px;}.cls-16{stroke-width:0.56px;}.cls-17,.cls-18{fill:#00a881;}.cls-18{stroke:#489086;stroke-width:0.95px;}.cls-19{fill:#007dac;}.cls-20{fill:#44515c;}.cls-21{fill:#489086;}</style><clipPath id="clip-path" transform="translate(34.12)"><circle class="cls-1" cx="111.83" cy="111.83" r="109"/></clipPath></defs><g id="Layer_2" data-name="Layer 2"><g id="Avatar"><g class="cls-2"><ellipse class="cls-3" cx="104.8" cy="754.04" rx="138.92" ry="15.83" transform="translate(33.07 0.15) rotate(-0.08)"/><path class="cls-4" d="M74.36,175.48s15.62-1.18,16.32-20l38.38-.05s1.6,24.54,19.9,19.93l-1.64,14.1-37.37,15-32.48-8.67-8-15.75Z" transform="translate(34.12)"/><path class="cls-5" d="M224.56,386.78l-48.78-2.06-.21-157s11.18-65,28.56-29.77Q218.67,296.67,224.56,386.78Z" transform="translate(34.12)"/><path class="cls-6" d="M62.47,88s-11.5-3.2-8.13,14,8.18,27.85,8.18,27.85Z" transform="translate(34.12)"/><path class="cls-6" d="M105,40.33h9.66a44.43,44.43,0,0,1,44.43,44.43v35A49.26,49.26,0,0,1,109.83,169h0a49.26,49.26,0,0,1-49.26-49.26v-35A44.43,44.43,0,0,1,105,40.33Z" transform="translate(33.97 0.15) rotate(-0.08)"/><path class="cls-7" d="M68.17,99.55s1.55,23.71,23.89,33.91l37.93-.05s22.63-22,22.62-34l6.48,1.51s3.42,15.18,1.44,30.87a64.68,64.68,0,0,1-1.21,6.71,39.35,39.35,0,0,1-1.16,5.64,31.62,31.62,0,0,1-1.93,5.14,34.62,34.62,0,0,1-2.67,4.52,30.3,30.3,0,0,1-3.44,4.07,47.5,47.5,0,0,1-2.72,4q-1.46,1.94-3.08,3.7a42.44,42.44,0,0,1-3.67,4.51c-5.81,6-12.39,11-20.09,13.19a30,30,0,0,1-4.75.95,14.36,14.36,0,0,1-9.83-1.71c-9.82-8.64-19.06-16.13-31.07-19.57a35.54,35.54,0,0,1-3.44-2.67,41.17,41.17,0,0,1-3.12-3.08,44.8,44.8,0,0,1-2.62-4,42.9,42.9,0,0,1-3.88-8.89c-.41-1.51-.75-3.05-1-4.6a68.34,68.34,0,0,1-.72-18.62c-.08-2.27-.11-4.57-.07-6.76.12-6.58.86-12.18,2.95-13.28C68.55,98.13,68.17,99.55,68.17,99.55Z" transform="translate(34.12)"/><path class="cls-8" d="M99.17,96c.08-7.58-23.46-7.83-23.54-.25C75.55,102.62,99.09,102.87,99.17,96Z" transform="translate(34.12)"/><path class="cls-8" d="M146.48,96c.08-7.57-23.46-7.83-23.54-.25C122.87,102.55,146.41,102.81,146.48,96Z" transform="translate(34.12)"/><circle class="cls-9" cx="120.78" cy="95.63" r="3.89"/><circle class="cls-9" cx="168.83" cy="95.56" r="3.89"/><path class="cls-10" d="M74.16,96.22s10-10.06,27.7,0C101.86,96.18,86.45,79.19,74.16,96.22Z" transform="translate(34.12)"/><path class="cls-10" d="M121.3,96.16s10-10.06,27.69,0C149,96.12,133.58,79.12,121.3,96.16Z" transform="translate(34.12)"/><path class="cls-7" d="M101.54,123c-5.25,2.5-8.27,6.07-9.48,10.51L130,133.4c-1.32-4.06-4.77-7.51-9.91-10.48Z" transform="translate(34.12)"/><path class="cls-11" d="M105.7,122.85s8,4,10.64.57c1.13-1.5-5-31.36-3-30.73" transform="translate(34.12)"/><path class="cls-12" d="M76.6,86.64s8.31-9.13,26.4,0" transform="translate(34.12)"/><path class="cls-12" d="M122.58,87.69s8.32-9.14,26.4,0" transform="translate(34.12)"/><path class="cls-13" d="M130,133.41a20.56,20.56,0,0,1-7.33,10.91c-1.39-6.86-26.65-4.16-26.74-4.14a26.46,26.46,0,0,1-3.86-6.72Z" transform="translate(34.12)"/><path class="cls-14" d="M122.66,144.32h0a19,19,0,0,1-10.44,3.62c-7.92.48-13.15-3.75-16.3-7.76C96,140.16,121.27,137.46,122.66,144.32Z" transform="translate(34.12)"/><polygon class="cls-13" points="130.04 140.18 130.04 140.18 130.04 140.17 130.04 140.18"/><path class="cls-6" d="M158.19,89.28s10.72-3,7.62,13-7.56,26-7.56,26Z" transform="translate(34.12)"/><polygon class="cls-8" points="126.17 133.46 127.25 135.84 163.3 135.79 164.11 133.41 126.17 133.46"/><path class="cls-15" d="M103.66,96.74s10.31-7.81,17.16,0" transform="translate(34.12)"/><line class="cls-15" x1="97.48" y1="89.98" x2="108.24" y2="95.64"/><line class="cls-15" x1="195.22" y1="89.62" x2="184.48" y2="96.11"/><circle class="cls-16" cx="123.01" cy="96.76" r="14.77"/><circle class="cls-16" cx="169.71" cy="96.7" r="14.77"/><path class="cls-7" d="M169.06,187.39s-5.67-1.23-9.74-14c-9.95-9.1-23.71-16.09-23.71-16.09,8.47-5,15.73-16.53,19.72-23.9.14-6,.51-12.67,1.17-20.06,6-68.53-42.19-48.65-44.25-48.5h0c-2-.13-50.24-19.92-44,48.62.66,7.35,1.05,14,1.22,19.94,5.48,9.13,17.18,22.4,17.18,22.4C80.81,152,73,160.12,66.76,169.08c-4,16.95-10.91,18.46-10.91,18.46s-29-171.87,56.38-165.12C197.59,15.44,169.06,187.39,169.06,187.39Z" transform="translate(34.12)"/><path class="cls-5" d="M-.36,387.09l48.77-2.2-.22-157s-11.36-65-28.64-29.69Q5.28,297-.36,387.09Z" transform="translate(34.12)"/><path class="cls-17" d="M165.33,175.35l-16.22,0c-5.31,13.8-20,23.73-37.27,23.76s-32-9.88-37.34-23.66l-16.22,0c-19.65,0-51.46,20.21-38.6,21.64,5.41.61,12.12,8.25,18.39,27.49l.24,172.86,73.8-.1,73.81-.1-.24-172.86c6.22-19.26,12.9-26.92,18.32-27.54C216.85,195.42,185,175.33,165.33,175.35Z" transform="translate(34.12)"/><line class="cls-18" x1="146.23" y1="397.39" x2="145.96" y2="199.14"/><rect class="cls-19" x="38.34" y="397.39" width="147.48" height="49.8" transform="translate(33.53 0.16) rotate(-0.08)"/><polygon class="cls-19" points="146.3 446.83 122.31 732.35 94.42 732.39 72.49 446.94 146.3 446.83"/><polygon class="cls-19" points="219.98 446.73 196.11 732.25 168.38 732.29 146.56 446.83 219.98 446.73"/><path class="cls-6" d="M14,386.4S8.51,430,38.36,434.3l-.07-49Z" transform="translate(34.12)"/><path class="cls-6" d="M210.1,386.19s5.58,43.55-24.26,48l-.06-49Z" transform="translate(34.12)"/><path class="cls-20" d="M134.26,732.29l0,21.54,30.53,0,41.55-.06s9.48-21.61-34-17.51c0,0-10.6-1.85-9.3-14.2" transform="translate(34.12)"/><path class="cls-20" d="M88.08,732.35l0,21.55-30.53,0L16,754s-9.54-21.59,34-17.61c0,0,10.59-1.88,9.25-14.23" transform="translate(34.12)"/><circle class="cls-21" cx="158.38" cy="235.62" r="3.72"/><circle class="cls-21" cx="134.02" cy="235.65" r="3.72"/><circle class="cls-21" cx="158.42" cy="263.66" r="3.72"/><circle class="cls-21" cx="134.06" cy="263.69" r="3.72"/><circle class="cls-21" cx="158.46" cy="291.7" r="3.72"/><circle class="cls-21" cx="134.1" cy="291.73" r="3.72"/><circle class="cls-21" cx="158.49" cy="319.74" r="3.72"/><circle class="cls-21" cx="134.14" cy="319.78" r="3.72"/><circle class="cls-21" cx="158.53" cy="347.78" r="3.72"/><circle class="cls-21" cx="134.18" cy="347.82" r="3.72"/></g><circle class="cls-1" cx="145.95" cy="111.83" r="109"/></g></g></svg>