<svg xmlns="http://www.w3.org/2000/svg" viewBox="0 0 208.42 646.04"><defs><style>.cls-1{fill:#eed1bf;}.cls-2{fill:#fbc5aa;}.cls-3{fill:#d8dcec;}.cls-4{fill:#074368;}.cls-14,.cls-5{fill:none;stroke-miterlimit:10;}.cls-5{stroke:#c1c0db;stroke-width:1.01px;}.cls-6{fill:#fff;}.cls-7{fill:#514835;}.cls-8{fill:#cabcdc;}.cls-9{fill:#ebaf89;}.cls-10{fill:#c1c0db;}.cls-11{fill:#200600;}.cls-12{fill:#d55227;}.cls-13{fill:#c4463a;}.cls-14{stroke:#231f20;stroke-width:0.63px;}</style></defs><g id="Layer_2" data-name="Layer 2"><g id="Avatar"><path id="Koza" class="cls-1" d="M15.41,331.81s-5.89,46.38,25.89,51V330.68Z"/><path id="Koza-2" data-name="Koza" class="cls-1" d="M189.81,337s5.89,46.38-25.9,51V335.86Z"/><path id="Vrat" class="cls-2" d="M138.76,151.8c-5.1,12.81-18.42,22-34.07,22-15.37,0-28.5-8.84-33.8-21.31,4-1.14,12.58-5.35,13.09-20.48h35.3S122.52,155.75,138.76,151.8Z"/><path class="cls-3" d="M0,349.69l51.93-2V200.54s-12-61-30.45-27.88Q6.15,265.21,0,349.69Z"/><path class="cls-3" d="M208.42,349.69l-51.94-2V200.54s12-61,30.46-27.88Q202.27,265.21,208.42,349.69Z"/><path id="Koza-3" data-name="Koza" class="cls-1" d="M89.92,621.75l-30.69,4.17c3.61-2.34,5.93-4.17,5.93-4.17Z"/><path id="Koza-4" data-name="Koza" class="cls-1" d="M156.64,625.92,126,621.75h24.77S153,623.58,156.64,625.92Z"/><path id="cevlje" class="cls-4" d="M89.92,621.75v20.39h-15v-5.82s-33.06,12.16-47.57,9.29c0,0-16.55-2.23,8.86-11.39,19-6.85,22.83-8.27,22.83-8.27l.17,0h0Z"/><path id="cevlje-2" data-name="cevlje" class="cls-4" d="M188.51,645.61c-14.5,2.87-47.57-9.29-47.57-9.29v5.82H126V621.75l30.69,4.17h0l.17,0s3.83,1.42,22.84,8.27C205.06,643.38,188.51,645.61,188.51,645.61Z"/><path class="cls-5" d="M43.14,318.66c.14-12.11,61.31,48.44,119,0"/><path id="Koza-5" data-name="Koza" class="cls-1" d="M98.16,14h8.2a37.7,37.7,0,0,1,37.7,37.7v50.06a41.8,41.8,0,0,1-41.8,41.8h0a41.8,41.8,0,0,1-41.8-41.8V51.67A37.7,37.7,0,0,1,98.16,14Z"/><path class="cls-6" d="M90.71,74.34c.09-8-22.94-8.36-23-.31C67.6,81.3,90.63,81.6,90.71,74.34Z"/><path class="cls-6" d="M137,74.34c.09-8-22.93-8.36-23-.31C113.88,81.3,136.91,81.6,137,74.34Z"/><ellipse class="cls-7" cx="78.48" cy="73.89" rx="3.81" ry="4.14"/><ellipse class="cls-7" cx="125.48" cy="73.89" rx="3.81" ry="4.14"/><path id="Oci" class="cls-8" d="M66.25,74.5s9.78-10.67,27.09,0C93.34,74.5,78.29,56.43,66.25,74.5Z"/><path id="Oci-2" data-name="Oci" class="cls-8" d="M112.36,74.5s9.78-10.67,27.09,0C139.45,74.5,124.4,56.43,112.36,74.5Z"/><g id="Nos"><path class="cls-9" d="M104.37,101.73A25.86,25.86,0,0,1,96,99.82l.46-1.11c2.44,1,9.25,3.13,11.48.7.32-.83-.91-7.55-1.9-13-2.1-11.49-2.61-15.2-1.7-16a.78.78,0,0,1,.77-.19l-.3,1.16a.37.37,0,0,0,.38-.14c-.53,1,1,9.09,2,15,1.86,10.15,2.29,13.22,1.6,14A5.81,5.81,0,0,1,104.37,101.73Z"/></g><path id="Obrve" class="cls-10" d="M94.05,65.1c-16.86-9.24-24.66-.3-24.74-.21L68,63.77c.35-.41,8.81-10.12,26.91-.2Z"/><path id="Obrve-2" data-name="Obrve" class="cls-10" d="M139,66.27c-16.86-9.24-24.66-.29-24.74-.2L113,65c.35-.42,8.81-10.12,26.91-.2Z"/><path class="cls-11" d="M121,113a15.23,15.23,0,0,1-6.56,8.14C113.16,116,90.6,118,90.52,118a19.14,19.14,0,0,1-3.44-5A87.28,87.28,0,0,0,121,113Z"/><path class="cls-12" d="M114.4,121.1h0a19.32,19.32,0,0,1-9.33,2.69A18.09,18.09,0,0,1,90.52,118C90.6,118,113.16,116,114.4,121.1Z"/><polygon class="cls-11" points="90.52 117.97 90.52 117.97 90.52 117.97 90.52 117.97"/><polygon id="Hlace" class="cls-4" points="174.61 345.07 174.61 373.01 151.87 621.75 125.89 621.75 109.44 417.98 89.97 621.75 62.79 621.75 41.8 373.01 41.8 345.07 174.61 345.07"/><path id="Majica" class="cls-13" d="M189.55,171.73c-4.83.58-10.78,7.47-16.38,24.68,0,5,2.85,36.81-7.21,51.12-2.17,22.51,5.85,74.46,8.65,97.55-56.74,46.95-129,1.63-132.81,0,2.74-22.76,6.89-75.42,4.78-97.64C35.36,232.1,36,195.75,36,195.75c-5.54-16.71-11.39-23.45-16.16-24C8,170.35,37.32,151.1,55.41,151.1H70.35q.25.69.54,1.35c5.3,12.47,18.43,21.31,33.8,21.31,15.65,0,29-9.15,34.07-22,.1-.23.19-.47.28-.7H154C172.07,151.1,201.39,170.35,189.55,171.73Z"/><path id="Lasje3" class="cls-10" d="M156.09,165.24s-5.39-1.23-9.25-14c-9.45-9.12-22.52-16.13-22.52-16.13,8.06-5,14.52-16.65,18.33-24,.14-6,1-12.52,1.59-19.91,5.8-68.52-40.06-48.71-42-48.56h0c-1.77-.1-46.8-19.69-41.94,48.56.52,7.36,1.79,13.9,1.94,19.86,5.21,9.14,15.5,22.5,15.5,22.5-5.51-3.78-12.91,4.31-18.89,13.26-3.82,17-10.4,18.45-10.4,18.45S21.07-6.67,102.26.2C183.44-6.67,156.09,165.24,156.09,165.24Z"/><path id="Koza-6" data-name="Koza" class="cls-1" d="M143.35,67.25s10.48-3.18,7.43,13.86-7.43,27.6-7.43,27.6Z"/><path id="Koza-7" data-name="Koza" class="cls-1" d="M62.34,69.73s-10.49-3.19-7.43,13.86,7.43,27.6,7.43,27.6Z"/><ellipse id="Uhani" class="cls-13" cx="60.46" cy="107.04" rx="3.31" ry="3.59"/><ellipse id="Uhani-2" data-name="Uhani" class="cls-13" cx="145.65" cy="106.91" rx="3.31" ry="3.59"/><g id="ocala"><rect class="cls-14" x="111.75" y="65.51" width="28.9" height="19.11" rx="8.59"/><rect class="cls-14" x="66.06" y="65.51" width="28.9" height="19.11" rx="8.59"/><path class="cls-14" d="M95,75.67s10.09-8.28,16.79,0"/><line class="cls-14" x1="60.46" y1="68.43" x2="66.06" y2="74.46"/><line class="cls-14" x1="144.05" y1="67.67" x2="140.65" y2="75.06"/></g></g></g></svg>