<svg xmlns="http://www.w3.org/2000/svg" viewBox="0 0 208.42 658.68"><defs><style>.cls-1{fill:#eed1bf;}.cls-2{fill:#fbc5aa;}.cls-3{fill:#d8dcec;}.cls-4{fill:#074368;}.cls-11,.cls-5{fill:none;stroke-miterlimit:10;}.cls-5{stroke:#c1c0db;stroke-width:1.01px;}.cls-6{fill:#fff;}.cls-7{fill:#514835;}.cls-8{fill:#cabcdc;}.cls-9{fill:#ebaf89;}.cls-10{fill:#c1c0db;}.cls-11{stroke:#231f20;stroke-width:0.63px;}.cls-12{fill:#c4463a;}.cls-13{fill:#200600;}.cls-14{fill:#d55227;}</style></defs><g id="Layer_2" data-name="Layer 2"><g id="Avatar"><path id="Koza" class="cls-1" d="M15.41,344.45s-5.89,46.38,25.89,51V343.32Z"/><path id="Koza-2" data-name="Koza" class="cls-1" d="M189.81,349.62s5.89,46.39-25.9,51.05V348.5Z"/><path id="Vrat" class="cls-2" d="M138.76,164.43c-5.1,12.81-18.42,22-34.07,22-15.37,0-28.5-8.84-33.8-21.31,4-1.14,12.58-5.35,13.09-20.48h35.3S122.52,168.38,138.76,164.43Z"/><path class="cls-3" d="M0,362.33l51.93-2V213.17s-12-61-30.45-27.87Q6.15,277.84,0,362.33Z"/><path class="cls-3" d="M208.42,362.33l-51.94-2V213.17s12-61,30.46-27.87Q202.27,277.84,208.42,362.33Z"/><path id="Koza-3" data-name="Koza" class="cls-1" d="M89.92,634.38l-30.69,4.17c3.61-2.34,5.93-4.17,5.93-4.17Z"/><path id="Koza-4" data-name="Koza" class="cls-1" d="M156.64,638.55,126,634.38h24.77S153,636.21,156.64,638.55Z"/><path id="cevlje" class="cls-4" d="M89.92,634.38v20.39h-15V649s-33.06,12.16-47.57,9.29c0,0-16.55-2.23,8.86-11.39,19-6.85,22.83-8.27,22.83-8.27l.17,0h0Z"/><path id="cevlje-2" data-name="cevlje" class="cls-4" d="M188.51,658.24C174,661.11,140.94,649,140.94,649v5.82H126V634.38l30.69,4.17h0l.17,0s3.83,1.42,22.84,8.27C205.06,656,188.51,658.24,188.51,658.24Z"/><path class="cls-5" d="M43.14,331.29c.14-12.11,61.31,48.44,119,0"/><path id="Koza-5" data-name="Koza" class="cls-1" d="M98.16,26.6h8.2a37.7,37.7,0,0,1,37.7,37.7v50.06a41.8,41.8,0,0,1-41.8,41.8h0a41.8,41.8,0,0,1-41.8-41.8V64.3a37.7,37.7,0,0,1,37.7-37.7Z"/><path class="cls-6" d="M90.71,87c.09-8-22.94-8.35-23-.31C67.6,93.93,90.63,94.24,90.71,87Z"/><path class="cls-6" d="M137,87c.09-8-22.93-8.35-23-.31C113.88,93.93,136.91,94.24,137,87Z"/><ellipse class="cls-7" cx="78.48" cy="86.52" rx="3.81" ry="4.14"/><ellipse class="cls-7" cx="125.48" cy="86.52" rx="3.81" ry="4.14"/><path id="Oci" class="cls-8" d="M66.25,87.14s9.78-10.67,27.09,0C93.34,87.14,78.29,69.06,66.25,87.14Z"/><path id="Oci-2" data-name="Oci" class="cls-8" d="M112.36,87.14s9.78-10.67,27.09,0C139.45,87.14,124.4,69.06,112.36,87.14Z"/><g id="Nos"><path class="cls-9" d="M104.37,114.36A25.86,25.86,0,0,1,96,112.45l.46-1.11c2.44,1,9.25,3.13,11.48.7.32-.83-.91-7.54-1.9-12.94-2.1-11.49-2.61-15.2-1.7-16a.8.8,0,0,1,.77-.19l-.3,1.16a.37.37,0,0,0,.38-.14c-.53,1,1,9.1,2,15,1.86,10.16,2.29,13.22,1.6,14A5.8,5.8,0,0,1,104.37,114.36Z"/></g><path id="Obrve" class="cls-10" d="M94.05,77.73c-16.86-9.24-24.66-.29-24.74-.2L68,76.41c.35-.42,8.81-10.12,26.91-.21Z"/><path id="Obrve-2" data-name="Obrve" class="cls-10" d="M139,78.9c-16.86-9.24-24.66-.29-24.74-.2L113,77.58c.35-.42,8.81-10.12,26.91-.2Z"/><g id="ocala"><rect class="cls-11" x="111.75" y="78.14" width="28.9" height="19.11" rx="8.59"/><rect class="cls-11" x="66.06" y="78.14" width="28.9" height="19.11" rx="8.59"/><path class="cls-11" d="M95,88.3s10.09-8.28,16.79,0"/><line class="cls-11" x1="60.46" y1="81.06" x2="66.06" y2="87.09"/><line class="cls-11" x1="144.05" y1="80.3" x2="140.65" y2="87.7"/></g><path id="Koza-6" data-name="Koza" class="cls-1" d="M143.35,79.89s10.48-3.19,7.43,13.86-7.43,27.6-7.43,27.6Z"/><path id="Koza-7" data-name="Koza" class="cls-1" d="M61.59,81.67s-10.48-3.18-7.43,13.87,7.43,27.6,7.43,27.6Z"/><ellipse id="Uhani" class="cls-12" cx="60.46" cy="119.67" rx="3.31" ry="3.59"/><ellipse id="Uhani-2" data-name="Uhani" class="cls-12" cx="145.65" cy="119.55" rx="3.31" ry="3.59"/><path class="cls-13" d="M121,125.59a15.23,15.23,0,0,1-6.56,8.14c-1.24-5.12-23.8-3.13-23.88-3.12a19,19,0,0,1-3.44-5A87.28,87.28,0,0,0,121,125.59Z"/><path class="cls-14" d="M114.4,133.73h0a19.21,19.21,0,0,1-9.33,2.7,18.09,18.09,0,0,1-14.55-5.82C90.6,130.6,113.16,128.61,114.4,133.73Z"/><polygon class="cls-13" points="90.52 130.61 90.52 130.61 90.52 130.61 90.52 130.61"/><polygon id="Hlace" class="cls-4" points="174.61 357.71 174.61 385.65 151.87 634.38 125.89 634.38 109.44 430.61 89.97 634.38 62.79 634.38 41.8 385.65 41.8 357.71 174.61 357.71"/><path id="Majica" class="cls-12" d="M189.55,184.36c-4.83.58-10.78,7.47-16.38,24.68,0,5,2.85,36.81-7.21,51.12-2.17,22.51,5.85,74.46,8.65,97.55-56.74,47-129,1.63-132.81,0,2.74-22.76,6.89-75.42,4.78-97.64C35.36,244.73,36,208.38,36,208.38c-5.54-16.71-11.39-23.45-16.16-24C8,183,37.32,163.73,55.41,163.73H70.35q.25.69.54,1.35c5.3,12.47,18.43,21.31,33.8,21.31,15.65,0,29-9.15,34.07-22,.1-.23.19-.47.28-.7H154C172.07,163.73,201.39,183,189.55,184.36Z"/><path id="Lasje2" class="cls-10" d="M159.37,53.28h-4.23a30.23,30.23,0,0,1-6.15,6.8c-6.82,5.5-15.42,7.19-24,5.83-2.49-.37-5.09-1-7.73-1.6q-2.35-.59-4.74-1.28l-4.8-1.39a66.23,66.23,0,0,0-6.43-1.76,63.6,63.6,0,0,0-6.81-1.12c-5.56-2.45-10.6.07-15.41,2.85a31,31,0,0,0-3.18,2.57C73,68.07,68.74,70.6,67.5,75.88c-.91,1.72-1.74,3.49-2.52,5.3s-1.54,3.63-2.26,5.47c-.46,1.93-.85,3.91-1.19,5.86s-.64,3.91-.91,5.8a28.67,28.67,0,0,1-1.42-2.75,31.54,31.54,0,0,0-1.26-4A44.42,44.42,0,0,1,54.36,87,27.66,27.66,0,0,1,50,82.34a28.65,28.65,0,0,1-4.36-11.23,33.57,33.57,0,0,1-.47-6.19c1.74-16.18,11-33,26.8-38.79q3-1.27,6-2.27c.61-.2,1.22-.39,1.84-.57a20.6,20.6,0,0,1-.1-2.09,21.2,21.2,0,0,1,42.4,0,20.8,20.8,0,0,1-.1,2.1,75.33,75.33,0,0,1,12.32,4.57,57.37,57.37,0,0,1,5.34,2.9A47.68,47.68,0,0,1,159.37,53.28Z"/></g></g></svg>