<svg xmlns="http://www.w3.org/2000/svg" viewBox="0 0 77.26 104.18"><defs><style>.cls-1{fill:#643a00;}</style></defs><g id="Layer_2" data-name="Layer 2"><g id="Glavno_Besedilo" data-name="Glavno Besedilo"><path class="cls-1" d="M74.32,104.18s-3.58-.77-6.13-8.84A78.57,78.57,0,0,0,53.25,85.18c5.35-3.13,9.93-10.41,12.46-15.06.09-3.78.33-8,.75-12.64,3.85-43.2-26.56-30.71-27.85-30.61,0,0,0,0,0,0h0C37.34,26.78,7,14.26,10.8,57.48c.41,4.63.65,8.81.75,12.57C15,75.81,22.36,84.19,22.36,84.19c-3.65-2.38-8.56,2.72-12.52,8.36-2.54,10.69-6.9,11.63-6.9,11.63S-15.2-4.21,38.63.13C92.45-4.2,74.32,104.18,74.32,104.18Z"/></g></g></svg>