<svg xmlns="http://www.w3.org/2000/svg" viewBox="0 0 119.88 277.4"><defs><style>.cls-1{fill:#d8dcec;}.cls-2,.cls-3{fill:#00a881;}.cls-3{stroke:#489086;stroke-miterlimit:10;stroke-width:0.51px;}.cls-4{fill:#007dac;}.cls-5{fill:#44515c;}.cls-6{fill:#489086;}</style></defs><g id="Layer_2" data-name="Layer 2"><g id="Avatar"><path class="cls-1" d="M119.88,112.73l-26-1.13V27.94s6-34.66,15.24-15.85Q116.81,64.71,119.88,112.73Z"/><path class="cls-1" d="M0,112.73l26-1.13V27.94S20-6.72,10.75,12.09Q3.08,64.71,0,112.73Z"/><path class="cls-2" d="M88.47,0H79.83C77,7.35,69.16,12.64,59.94,12.64S42.9,7.35,40.06,0H31.41C20.94,0,4,10.73,10.82,11.51c2.89.32,6.46,4.4,9.78,14.66v92.14H99.28V26.17c3.33-10.26,6.9-14.34,9.79-14.66C115.92,10.73,99,0,88.47,0Z"/><line class="cls-3" x1="59.94" y1="118.31" x2="59.94" y2="12.64"/><rect class="cls-4" x="20.6" y="118.31" width="78.61" height="26.55"/><polygon class="cls-4" points="59.94 144.85 46.94 265.91 32.08 265.91 20.6 144.85 59.94 144.85"/><polygon class="cls-4" points="99.21 144.85 86.28 265.91 71.5 265.91 60.08 144.85 99.21 144.85"/><path class="cls-5" d="M71.5,265.91V277.4h38.42S115,265.89,91.81,268c0,0-5.65-1-5-7.58"/><path class="cls-5" d="M46.89,265.91V277.4H8.47S3.4,265.89,26.58,268c0,0,5.64-1,4.94-7.58"/><circle class="cls-6" cx="66.54" cy="32.09" r="1.98"/><circle class="cls-6" cx="53.55" cy="32.09" r="1.98"/><circle class="cls-6" cx="66.54" cy="47.04" r="1.98"/><circle class="cls-6" cx="53.55" cy="47.04" r="1.98"/><circle class="cls-6" cx="66.54" cy="61.98" r="1.98"/><circle class="cls-6" cx="53.55" cy="61.98" r="1.98"/><circle class="cls-6" cx="66.54" cy="76.93" r="1.98"/><circle class="cls-6" cx="53.55" cy="76.93" r="1.98"/><circle class="cls-6" cx="66.54" cy="91.88" r="1.98"/><circle class="cls-6" cx="53.55" cy="91.88" r="1.98"/></g></g></svg>