<svg xmlns="http://www.w3.org/2000/svg" viewBox="0 0 107.54 72.93"><defs><style>.cls-1{fill:#643a00;}</style></defs><g id="Layer_2" data-name="Layer 2"><g id="Glavno_Besedilo" data-name="Glavno Besedilo"><path class="cls-1" d="M11.65,71.42s-3.33-24.54,7.49-34.2A14.38,14.38,0,0,1,22.45,35a10.85,10.85,0,0,1,2.18-.77c4-1.14,8.65-.56,12.82-.3l3.12.32C59.87,36.33,69.83,40,69.83,40s5.78-5.55-3.75-8.63,15.48-.38,22,13.27a93.13,93.13,0,0,1,8,26.81l5.6,1.51s14.88-38.55-2.82-51.8C89.17,13.86,77.16,4.69,65.28,1.39a35.63,35.63,0,0,0-3.56-.8A29,29,0,0,0,58.54.13,30.72,30.72,0,0,0,55.36,0a27,27,0,0,0-6.45.56c-1.1.25-2.17.56-3.22.91s-2.07.75-3.07,1.18c-9.91,5-18.57,13.09-29.47,15.75-1.05.31-2.08.66-3.06,1C5.16,21.4,1.24,24.38.91,30.62c-.25,1-.45,1.92-.61,2.9a25.38,25.38,0,0,0-.22,5.9c0,.73.08,1.46.08,2.22C.11,49.88,2.66,60.1,11.65,71.42Z"/></g></g></svg>