<svg xmlns="http://www.w3.org/2000/svg" xmlns:xlink="http://www.w3.org/1999/xlink" viewBox="0 0 277.84 716.12"><defs><style>.cls-1,.cls-7{fill:none;stroke-miterlimit:10;}.cls-1{stroke:#00a881;stroke-width:5.67px;}.cls-2{clip-path:url(#clip-path);}.cls-3{fill:#fcc5aa;}.cls-4{fill:#dce6e0;}.cls-5{fill:#d9dceb;}.cls-6{fill:#00a881;}.cls-7{stroke:#499086;stroke-width:0.95px;}.cls-8{fill:#017dad;}.cls-9{fill:#eed1bf;}.cls-10{fill:#44515d;}.cls-11{fill:#499086;}.cls-12{fill:#ffebc6;}.cls-13{fill:#fff;}.cls-14{fill:#524935;}.cls-15{fill:#ebaf88;}.cls-16{fill:#ffe6b4;}.cls-17{fill:#301812;}.cls-18{fill:#d55227;}</style><clipPath id="clip-path" transform="translate(31.71)"><circle id="Krog" class="cls-1" cx="111.83" cy="111.83" r="109"/></clipPath></defs><g id="Layer_2" data-name="Layer 2"><g id="Layer_1-2" data-name="Layer 1"><g class="cls-2"><path id="Vrat" class="cls-3" d="M152.32,179.67l-.21.53c-5.49,13.54-20,23.2-37.1,23.2-17.29,0-32-9.91-37.3-23.71h-.15a18.31,18.31,0,0,0,12.53-7.4,18,18,0,0,0,2-3.72,25.58,25.58,0,0,0,1.79-8.83h38.38a36.91,36.91,0,0,0,1.89,8.82c1.18,3.37,3.09,6.95,6.14,9.24C143.16,180,147.15,181,152.32,179.67Z" transform="translate(31.71)"/><ellipse class="cls-4" cx="138.92" cy="700.29" rx="138.92" ry="15.83"/><path class="cls-5" d="M227.48,391.19l-48.78-2.12v-157s11.28-65,28.6-29.73Q221.7,301.08,227.48,391.19Z" transform="translate(31.71)"/><path class="cls-5" d="M2.56,391.19l48.77-2.12v-157s-11.27-65-28.6-29.73Q8.33,301.08,2.56,391.19Z" transform="translate(31.71)"/><path id="Pulover" class="cls-6" d="M207.18,201.26l-.41.06c-5.35.94-11.87,8.69-18,27.46V401.63H41.21V228.78c-6.09-18.77-12.6-26.52-17.95-27.46l-.41-.06c-12.85-1.45,19-21.59,38.64-21.59H77.71c5.33,13.8,20,23.71,37.3,23.71,17.08,0,31.61-9.66,37.1-23.2.08-.17.14-.34.21-.51h16.22C188.19,179.67,220,199.81,207.18,201.26Z" transform="translate(31.71)"/><line id="Zadrga" class="cls-7" x1="146.73" y1="401.65" x2="146.73" y2="203.4"/><polygon id="Hlace" class="cls-8" points="220.4 401.65 220.4 451.46 197.23 668.36 168.41 678.58 146.99 451.46 146.73 451.46 122.34 678.58 122.23 678.58 93.48 668.39 72.92 451.46 72.92 401.65 220.4 401.65"/><path id="Koza" class="cls-9" d="M16.89,390.53s-5.53,43.56,24.32,47.94v-49Z" transform="translate(31.71)"/><path id="Koza-2" data-name="Koza" class="cls-9" d="M213,390.59s5.52,43.56-24.33,47.94v-49Z" transform="translate(31.71)"/><path class="cls-10" d="M208.78,700.13H136.7V678.58l28.82-10.22s0,0,0,.08c-1.25,12.27,9.29,14.13,9.29,14.13C218.29,678.53,208.78,700.13,208.78,700.13Z" transform="translate(31.71)"/><path class="cls-10" d="M90.52,678.58v21.55H18.44s-9.51-21.6,34-17.56c0,0,10.59-1.87,9.27-14.21l.08,0Z" transform="translate(31.71)"/><circle id="Gumb" class="cls-11" cx="159.1" cy="239.9" r="3.72"/><circle id="Gumb-2" data-name="Gumb" class="cls-11" cx="134.74" cy="239.9" r="3.72"/><circle id="Gumb-3" data-name="Gumb" class="cls-11" cx="159.1" cy="267.94" r="3.72"/><circle id="Gumb-4" data-name="Gumb" class="cls-11" cx="134.74" cy="267.94" r="3.72"/><circle id="Gumb-5" data-name="Gumb" class="cls-11" cx="159.1" cy="295.98" r="3.72"/><circle id="Gumb-6" data-name="Gumb" class="cls-11" cx="134.74" cy="295.98" r="3.72"/><circle id="Gumb-7" data-name="Gumb" class="cls-11" cx="159.1" cy="324.02" r="3.72"/><circle id="Gumb-8" data-name="Gumb" class="cls-11" cx="134.74" cy="324.02" r="3.72"/><circle id="Gumb-9" data-name="Gumb" class="cls-11" cx="159.1" cy="352.06" r="3.72"/><circle id="Gumb-10" data-name="Gumb" class="cls-11" cx="134.74" cy="352.06" r="3.72"/><path id="Koza-3" data-name="Koza" class="cls-9" d="M167.22,105.48a133.55,133.55,0,0,1-7.42,25.57,49.25,49.25,0,0,1-97.41-1.91A155.45,155.45,0,0,1,55.75,105C53.29,92.35,58.86,90.75,62,90.79V87.85a44.43,44.43,0,0,1,44.43-44.43h9.66A44.43,44.43,0,0,1,160.5,87.85v4.42C163,92,169.78,92.28,167.22,105.48Z" transform="translate(31.71)"/><path id="Brada" class="cls-12" d="M162.52,123.68a84.45,84.45,0,0,1-.63,11.28,62.13,62.13,0,0,1-1.21,6.71,39.35,39.35,0,0,1-1.16,5.64,32.64,32.64,0,0,1-2,5.14A35.78,35.78,0,0,1,154.9,157a30.91,30.91,0,0,1-3.45,4.06c-.85,1.37-1.75,2.71-2.72,4a47.51,47.51,0,0,1-3.09,3.69,40.28,40.28,0,0,1-3.68,4.5q-1.72,1.77-3.54,3.41c-4.92,4.45-10.38,8-16.56,9.76a31.32,31.32,0,0,1-4.76.94,14.39,14.39,0,0,1-9.82-1.72C101,180,94.91,175,88.19,171.11a54,54,0,0,0-12-5.12,36,36,0,0,1-3.44-2.68,41.17,41.17,0,0,1-3.12-3.08,41.47,41.47,0,0,1-2.61-4,43.1,43.1,0,0,1-3.87-8.89c-.41-1.52-.74-3-1-4.61a67.93,67.93,0,0,1-.86-16.61c0-.67.09-1.34.16-2-.07-2.28-.1-4.58-.06-6.77.13-6.57.88-12.17,3-13.27,3.29-1.73,4.5-2,4.94-1.83a.32.32,0,0,1,.23.14h0a.25.25,0,0,1,0,.16s1.52,23.72,23.84,34h37.94s22.66-22,22.66-34l5.68,1.33.8.19A102.54,102.54,0,0,1,162.52,123.68Z" transform="translate(31.71)"/><path class="cls-13" d="M100.58,99.1c.09-7.58-23.45-7.87-23.54-.29C77,105.65,100.5,105.94,100.58,99.1Z" transform="translate(31.71)"/><path class="cls-13" d="M147.9,99.1c.09-7.58-23.45-7.87-23.54-.29C124.27,105.65,147.81,105.94,147.9,99.1Z" transform="translate(31.71)"/><circle class="cls-14" cx="119.79" cy="98.68" r="3.89"/><circle class="cls-14" cx="167.84" cy="98.68" r="3.89"/><path id="Oci" class="cls-15" d="M75.58,99.26s10-10.05,27.7,0C103.28,99.26,87.89,82.24,75.58,99.26Z" transform="translate(31.71)"/><path id="Oci-2" data-name="Oci" class="cls-15" d="M122.71,99.26s10-10.05,27.7,0C150.41,99.26,135,82.24,122.71,99.26Z" transform="translate(31.71)"/><path id="Brki" class="cls-12" d="M131.36,136.51H93.42c1.23-4.43,4.24-8,9.5-10.49h4.36c1.25.59,8.06,3.63,10.44.49a1.07,1.07,0,0,0,.12-.49h3.62C126.59,129,130,132.45,131.36,136.51Z" transform="translate(31.71)"/><path class="cls-9" d="M114.73,95.77l-.4,1.56C114.31,96.26,114.43,95.68,114.73,95.77Z" transform="translate(31.71)"/><path id="Nos" class="cls-15" d="M114.26,128.48a19.53,19.53,0,0,1-7.44-2l.52-1c2.11,1.06,8,3.28,9.92.75.32-.85-.77-8-1.65-13.83-1.85-12.28-2.29-16.22-1.43-17a.75.75,0,0,1,.72-.15l-.35,1.11a.4.4,0,0,0,.44-.16c-.5,1,.81,9.67,1.77,16,1.61,10.71,2,13.93,1.42,14.7A4.65,4.65,0,0,1,114.26,128.48Z" transform="translate(31.71)"/><g id="obrve"><path class="cls-16" d="M103.78,91c-16.77-8.46-24.37-.65-24.69-.31l-2.12-2c.36-.41,9.27-9.82,28.11-.32Z" transform="translate(31.71)"/></g><g id="Obrve-2" data-name="Obrve"><g id="Obrve-3" data-name="Obrve"><path id="Obrve-4" data-name="Obrve" class="cls-16" d="M149.76,92.07c-16.9-8.52-24.61-.39-24.68-.31l-2.13-2c.36-.4,9.27-9.82,28.11-.31Z" transform="translate(31.71)"/></g></g><path class="cls-17" d="M131.36,136.52c-.09,0-1.53,6.58-7.35,10.9-1.38-6.86-26.65-4.19-26.74-4.18a31.51,31.51,0,0,1-3.85-6.72Z" transform="translate(31.71)"/><path class="cls-18" d="M124,147.42h0A19.14,19.14,0,0,1,113.57,151c-7.92.47-13.15-3.77-16.3-7.79C97.36,143.23,122.63,140.56,124,147.42Z" transform="translate(31.71)"/><polygon class="cls-17" points="128.98 143.24 128.99 143.24 128.98 143.24 128.98 143.24"/><polygon class="cls-13" points="125.13 136.52 126.21 138.9 162.25 138.9 163.07 136.52 125.13 136.52"/><path id="Lasje" class="cls-12" d="M63,105.4s-7.43-23.05,0-38,5.64-19.09,46.17-28.05,52.43,27.46,52.43,27.46c-2.92-9.1-16.9-7.34-16.9-7.34s4.7,5.29-8.22,4.85-13.66-10.87-42.26-7.93-24.27,45.78-24.27,45.78Z" transform="translate(31.71)"/></g><circle id="Krog-2" data-name="Krog" class="cls-1" cx="143.54" cy="111.83" r="109"/></g></g></svg>