<svg xmlns="http://www.w3.org/2000/svg" xmlns:xlink="http://www.w3.org/1999/xlink" viewBox="0 0 277.84 720.2"><defs><style>.cls-1,.cls-7{fill:none;stroke-miterlimit:10;}.cls-1{stroke:#00a881;stroke-width:5.67px;}.cls-2{clip-path:url(#clip-path);}.cls-3{fill:#fcc5aa;}.cls-4{fill:#dce6e0;}.cls-5{fill:#d9dceb;}.cls-6{fill:#00a881;}.cls-7{stroke:#499086;stroke-width:0.95px;}.cls-8{fill:#017dad;}.cls-9{fill:#eed1bf;}.cls-10{fill:#44515d;}.cls-11{fill:#499086;}.cls-12{fill:#ffebc6;}.cls-13{fill:#fff;}.cls-14{fill:#524935;}.cls-15{fill:#ebaf88;}.cls-16{fill:#ffe6b4;}.cls-17{fill:#301812;}.cls-18{fill:#d55227;}</style><clipPath id="clip-path" transform="translate(34.83)"><circle id="Krog" class="cls-1" cx="111.83" cy="111.83" r="109"/></clipPath></defs><g id="Layer_2" data-name="Layer 2"><g id="Layer_1-2" data-name="Layer 1"><g class="cls-2"><path id="Vrat" class="cls-3" d="M149.2,183.75l-.21.53c-5.49,13.54-20,23.2-37.1,23.2-17.29,0-32-9.91-37.3-23.71h-.15A18.31,18.31,0,0,0,87,176.37a18,18,0,0,0,2-3.72,25.58,25.58,0,0,0,1.79-8.83h38.38a36.91,36.91,0,0,0,1.89,8.82c1.18,3.37,3.09,7,6.14,9.24C140,184,144,185.05,149.2,183.75Z" transform="translate(34.83)"/><ellipse class="cls-4" cx="138.92" cy="704.37" rx="138.92" ry="15.83"/><path class="cls-5" d="M224.36,395.27l-48.77-2.12v-157s11.27-65,28.6-29.73Q218.59,305.16,224.36,395.27Z" transform="translate(34.83)"/><path class="cls-5" d="M-.56,395.27l48.77-2.12v-157s-11.27-65-28.6-29.73Q5.21,305.16-.56,395.27Z" transform="translate(34.83)"/><path id="Pulover" class="cls-6" d="M204.06,205.34l-.41.06c-5.35.94-11.87,8.69-18,27.46V405.71H38.09V232.86c-6.09-18.77-12.6-26.52-18-27.46l-.41-.06c-12.85-1.45,19-21.59,38.64-21.59H74.59c5.33,13.8,20,23.71,37.3,23.71,17.08,0,31.61-9.66,37.1-23.2.08-.17.14-.34.21-.51h16.22C185.07,183.75,216.91,203.89,204.06,205.34Z" transform="translate(34.83)"/><line id="Zadrga" class="cls-7" x1="146.73" y1="405.73" x2="146.73" y2="207.48"/><polygon id="Hlace" class="cls-8" points="220.4 405.73 220.4 455.54 197.23 672.44 168.41 682.66 146.99 455.54 146.73 455.54 122.34 682.66 122.23 682.66 93.48 672.47 72.92 455.54 72.92 405.73 220.4 405.73"/><path id="Koza" class="cls-9" d="M13.77,394.61s-5.52,43.56,24.32,47.94v-49Z" transform="translate(34.83)"/><path id="Koza-2" data-name="Koza" class="cls-9" d="M209.9,394.67s5.52,43.56-24.32,47.94v-49Z" transform="translate(34.83)"/><path class="cls-10" d="M205.66,704.21H133.58V682.66l28.82-10.22s0,0,0,.08c-1.25,12.27,9.29,14.13,9.29,14.13C215.17,682.61,205.66,704.21,205.66,704.21Z" transform="translate(34.83)"/><path class="cls-10" d="M87.4,682.66v21.55H15.32s-9.51-21.6,34-17.56c0,0,10.59-1.87,9.27-14.21l.08,0Z" transform="translate(34.83)"/><circle id="Gumb" class="cls-11" cx="159.1" cy="243.98" r="3.72"/><circle id="Gumb-2" data-name="Gumb" class="cls-11" cx="134.74" cy="243.98" r="3.72"/><circle id="Gumb-3" data-name="Gumb" class="cls-11" cx="159.1" cy="272.02" r="3.72"/><circle id="Gumb-4" data-name="Gumb" class="cls-11" cx="134.74" cy="272.02" r="3.72"/><circle id="Gumb-5" data-name="Gumb" class="cls-11" cx="159.1" cy="300.06" r="3.72"/><circle id="Gumb-6" data-name="Gumb" class="cls-11" cx="134.74" cy="300.06" r="3.72"/><circle id="Gumb-7" data-name="Gumb" class="cls-11" cx="159.1" cy="328.1" r="3.72"/><circle id="Gumb-8" data-name="Gumb" class="cls-11" cx="134.74" cy="328.1" r="3.72"/><circle id="Gumb-9" data-name="Gumb" class="cls-11" cx="159.1" cy="356.14" r="3.72"/><circle id="Gumb-10" data-name="Gumb" class="cls-11" cx="134.74" cy="356.14" r="3.72"/><path id="Koza-3" data-name="Koza" class="cls-9" d="M164.1,109.56a133.55,133.55,0,0,1-7.42,25.57,49.25,49.25,0,0,1-97.41-1.91,155.45,155.45,0,0,1-6.64-24.12c-2.46-12.67,3.11-14.27,6.23-14.23V91.93A44.43,44.43,0,0,1,103.29,47.5H113a44.43,44.43,0,0,1,44.43,44.43v4.42C159.87,96.05,166.66,96.36,164.1,109.56Z" transform="translate(34.83)"/><path id="Brki" class="cls-12" d="M119.86,134.15s18.19,4.35,15.56,23.4-23.95,18.57-23.95,18.57-25.42,1.47-26.06-18.57,12.57-22.49,15.66-23.4Z" transform="translate(34.83)"/><path class="cls-13" d="M97.47,103.18c.09-7.58-23.45-7.87-23.54-.29C73.84,109.73,97.38,110,97.47,103.18Z" transform="translate(34.83)"/><path class="cls-13" d="M144.78,103.18c.09-7.58-23.45-7.87-23.54-.29C121.16,109.73,144.7,110,144.78,103.18Z" transform="translate(34.83)"/><circle class="cls-14" cx="119.79" cy="102.76" r="3.89"/><circle class="cls-14" cx="167.84" cy="102.76" r="3.89"/><path id="Oci" class="cls-15" d="M72.46,103.34s10-10,27.7,0C100.16,103.34,84.77,86.32,72.46,103.34Z" transform="translate(34.83)"/><path id="Oci-2" data-name="Oci" class="cls-15" d="M119.6,103.34s10-10,27.69,0C147.29,103.34,131.91,86.32,119.6,103.34Z" transform="translate(34.83)"/><path class="cls-9" d="M111.61,99.85l-.4,1.56C111.19,100.34,111.31,99.76,111.61,99.85Z" transform="translate(34.83)"/><path id="Nos" class="cls-15" d="M111.14,132.56a19.66,19.66,0,0,1-7.44-2l.52-1c2.11,1.06,8,3.28,9.92.75.32-.85-.77-8-1.64-13.83-1.86-12.28-2.3-16.22-1.43-17a.74.74,0,0,1,.71-.15l-.34,1.11a.41.41,0,0,0,.44-.16c-.5,1,.8,9.67,1.76,16,1.62,10.71,2,13.93,1.42,14.7A4.65,4.65,0,0,1,111.14,132.56Z" transform="translate(34.83)"/><g id="obrve"><path class="cls-16" d="M100.66,95.05C83.89,86.59,76.29,94.4,76,94.74l-2.12-1.95c.37-.41,9.28-9.82,28.11-.32Z" transform="translate(34.83)"/></g><g id="Obrve-2" data-name="Obrve"><g id="Obrve-3" data-name="Obrve"><path id="Obrve-4" data-name="Obrve" class="cls-16" d="M146.64,96.15c-16.9-8.52-24.6-.39-24.68-.31l-2.13-2c.37-.4,9.28-9.82,28.11-.31Z" transform="translate(34.83)"/></g></g><path class="cls-17" d="M128.24,140.6a21.64,21.64,0,0,1-7.35,10.9c-1.38-6.86-26.65-4.19-26.73-4.18a31.85,31.85,0,0,1-3.86-6.72Z" transform="translate(34.83)"/><path class="cls-18" d="M120.89,151.5h0a19,19,0,0,1-10.44,3.61c-7.92.47-13.15-3.77-16.29-7.79C94.24,147.31,119.51,144.64,120.89,151.5Z" transform="translate(34.83)"/><polygon class="cls-17" points="128.98 147.32 128.99 147.32 128.98 147.32 128.98 147.32"/><polygon class="cls-13" points="125.13 140.6 126.21 142.98 162.25 142.98 163.07 140.6 125.13 140.6"/><path id="Lasje" class="cls-12" d="M59.87,109.48s-7.42-23,0-38S65.51,52.36,106,43.4s52.44,27.46,52.44,27.46c-2.93-9.1-16.9-7.34-16.9-7.34s4.7,5.29-8.23,4.85S119.7,57.5,91.09,60.44s-24.26,45.78-24.26,45.78Z" transform="translate(34.83)"/></g><circle id="Krog-2" data-name="Krog" class="cls-1" cx="146.66" cy="111.83" r="109"/></g></g></svg>