<svg xmlns="http://www.w3.org/2000/svg" xmlns:xlink="http://www.w3.org/1999/xlink" viewBox="0 0 277.84 720.2"><defs><style>.cls-1,.cls-7{fill:none;stroke-miterlimit:10;}.cls-1{stroke:#00a881;stroke-width:5.67px;}.cls-2{clip-path:url(#clip-path);}.cls-3{fill:#fcc5aa;}.cls-4{fill:#dce6e0;}.cls-5{fill:#d9dceb;}.cls-6{fill:#00a881;}.cls-7{stroke:#499086;stroke-width:0.95px;}.cls-8{fill:#017dad;}.cls-9{fill:#eed1bf;}.cls-10{fill:#44515d;}.cls-11{fill:#499086;}.cls-12{fill:#fff;}.cls-13{fill:#524935;}.cls-14{fill:#ebaf88;}.cls-15{fill:#ffebc6;}.cls-16{fill:#ffe6b4;}.cls-17{fill:#301812;}.cls-18{fill:#d55227;}</style><clipPath id="clip-path" transform="translate(32.41)"><circle id="Krog" class="cls-1" cx="111.83" cy="111.83" r="109"/></clipPath></defs><g id="Layer_2" data-name="Layer 2"><g id="Layer_1-2" data-name="Layer 1"><g class="cls-2"><path id="Vrat" class="cls-3" d="M151.62,183.75l-.21.53c-5.49,13.54-20,23.2-37.1,23.2-17.29,0-32-9.91-37.3-23.71h-.15a18.31,18.31,0,0,0,12.53-7.4,18,18,0,0,0,2-3.72,25.58,25.58,0,0,0,1.79-8.83h38.38a36.91,36.91,0,0,0,1.89,8.82c1.18,3.37,3.09,7,6.14,9.24C142.46,184,146.45,185.05,151.62,183.75Z" transform="translate(32.41)"/><ellipse class="cls-4" cx="138.92" cy="704.37" rx="138.92" ry="15.83"/><path class="cls-5" d="M226.77,395.27,178,393.15v-157s11.27-65,28.6-29.73Q221,305.16,226.77,395.27Z" transform="translate(32.41)"/><path class="cls-5" d="M1.85,395.27l48.78-2.12v-157s-11.28-65-28.6-29.73Q7.63,305.16,1.85,395.27Z" transform="translate(32.41)"/><path id="Pulover" class="cls-6" d="M206.48,205.34l-.41.06c-5.35.94-11.87,8.69-17.95,27.46V405.71H40.51V232.86c-6.09-18.77-12.6-26.52-17.95-27.46l-.41-.06c-12.85-1.45,19-21.59,38.64-21.59H77c5.33,13.8,20,23.71,37.3,23.71,17.08,0,31.61-9.66,37.1-23.2.08-.17.14-.34.21-.51h16.22C187.49,183.75,219.33,203.89,206.48,205.34Z" transform="translate(32.41)"/><line id="Zadrga" class="cls-7" x1="146.73" y1="405.73" x2="146.73" y2="207.48"/><polygon id="Hlace" class="cls-8" points="220.4 405.73 220.4 455.54 197.23 672.44 168.41 682.66 146.99 455.54 146.73 455.54 122.34 682.66 122.23 682.66 93.48 672.47 72.92 455.54 72.92 405.73 220.4 405.73"/><path id="Koza" class="cls-9" d="M16.19,394.61s-5.53,43.56,24.32,47.94v-49Z" transform="translate(32.41)"/><path id="Koza-2" data-name="Koza" class="cls-9" d="M212.31,394.67s5.53,43.56-24.32,47.94v-49Z" transform="translate(32.41)"/><path class="cls-10" d="M208.08,704.21H136V682.66l28.82-10.22s0,0,0,.08c-1.25,12.27,9.29,14.13,9.29,14.13C217.59,682.61,208.08,704.21,208.08,704.21Z" transform="translate(32.41)"/><path class="cls-10" d="M89.82,682.66v21.55H17.74s-9.51-21.6,34-17.56c0,0,10.59-1.87,9.27-14.21l.08,0Z" transform="translate(32.41)"/><circle id="Gumb" class="cls-11" cx="159.1" cy="243.98" r="3.72"/><circle id="Gumb-2" data-name="Gumb" class="cls-11" cx="134.74" cy="243.98" r="3.72"/><circle id="Gumb-3" data-name="Gumb" class="cls-11" cx="159.1" cy="272.02" r="3.72"/><circle id="Gumb-4" data-name="Gumb" class="cls-11" cx="134.74" cy="272.02" r="3.72"/><circle id="Gumb-5" data-name="Gumb" class="cls-11" cx="159.1" cy="300.06" r="3.72"/><circle id="Gumb-6" data-name="Gumb" class="cls-11" cx="134.74" cy="300.06" r="3.72"/><circle id="Gumb-7" data-name="Gumb" class="cls-11" cx="159.1" cy="328.1" r="3.72"/><circle id="Gumb-8" data-name="Gumb" class="cls-11" cx="134.74" cy="328.1" r="3.72"/><circle id="Gumb-9" data-name="Gumb" class="cls-11" cx="159.1" cy="356.14" r="3.72"/><circle id="Gumb-10" data-name="Gumb" class="cls-11" cx="134.74" cy="356.14" r="3.72"/><path id="Koza-3" data-name="Koza" class="cls-9" d="M166.52,109.56a133.55,133.55,0,0,1-7.42,25.57,49.25,49.25,0,0,1-97.41-1.91,155.45,155.45,0,0,1-6.64-24.12c-2.46-12.67,3.11-14.27,6.23-14.23V91.93A44.43,44.43,0,0,1,105.71,47.5h9.66A44.43,44.43,0,0,1,159.8,91.93v4.42C162.29,96.05,169.08,96.36,166.52,109.56Z" transform="translate(32.41)"/><path class="cls-12" d="M99.88,103.18c.09-7.58-23.45-7.87-23.54-.29C76.26,109.73,99.8,110,99.88,103.18Z" transform="translate(32.41)"/><path class="cls-12" d="M147.2,103.18c.09-7.58-23.45-7.87-23.54-.29C123.57,109.73,147.11,110,147.2,103.18Z" transform="translate(32.41)"/><circle class="cls-13" cx="119.79" cy="102.76" r="3.89"/><circle class="cls-13" cx="167.84" cy="102.76" r="3.89"/><path id="Oci" class="cls-14" d="M74.88,103.34s10-10,27.69,0C102.57,103.34,87.19,86.32,74.88,103.34Z" transform="translate(32.41)"/><path id="Oci-2" data-name="Oci" class="cls-14" d="M122,103.34s10-10,27.7,0C149.71,103.34,134.32,86.32,122,103.34Z" transform="translate(32.41)"/><path id="Brki" class="cls-15" d="M130.66,140.59H92.72c1.23-4.43,4.24-8,9.5-10.49h4.36c1.25.59,8.06,3.63,10.44.49a1.07,1.07,0,0,0,.12-.49h3.62C125.89,133.07,129.34,136.53,130.66,140.59Z" transform="translate(32.41)"/><path class="cls-9" d="M114,99.85l-.4,1.56C113.61,100.34,113.73,99.76,114,99.85Z" transform="translate(32.41)"/><path id="Nos" class="cls-14" d="M113.56,132.56a19.53,19.53,0,0,1-7.44-2l.52-1c2.11,1.06,8,3.28,9.92.75.32-.85-.77-8-1.65-13.83-1.85-12.28-2.29-16.22-1.43-17a.75.75,0,0,1,.72-.15l-.35,1.11a.4.4,0,0,0,.44-.16c-.5,1,.81,9.67,1.76,16,1.62,10.71,2,13.93,1.43,14.7A4.67,4.67,0,0,1,113.56,132.56Z" transform="translate(32.41)"/><g id="obrve"><path class="cls-16" d="M103.08,95.05c-16.77-8.46-24.37-.65-24.69-.31l-2.13-1.95c.37-.41,9.28-9.82,28.12-.32Z" transform="translate(32.41)"/></g><g id="Obrve-2" data-name="Obrve"><g id="Obrve-3" data-name="Obrve"><path id="Obrve-4" data-name="Obrve" class="cls-16" d="M149.06,96.15c-16.9-8.52-24.61-.39-24.69-.31l-2.13-2c.37-.4,9.28-9.82,28.12-.31Z" transform="translate(32.41)"/></g></g><path class="cls-17" d="M130.66,140.6c-.09,0-1.53,6.58-7.35,10.9-1.39-6.86-26.65-4.19-26.74-4.18a31.51,31.51,0,0,1-3.85-6.72Z" transform="translate(32.41)"/><path class="cls-18" d="M123.31,151.5h0a19,19,0,0,1-10.43,3.61c-7.93.47-13.15-3.77-16.3-7.79C96.66,147.31,121.92,144.64,123.31,151.5Z" transform="translate(32.41)"/><polygon class="cls-17" points="128.98 147.32 128.99 147.32 128.98 147.32 128.98 147.32"/><polygon class="cls-12" points="125.13 140.6 126.21 142.98 162.25 142.98 163.07 140.6 125.13 140.6"/><path id="Lasje" class="cls-15" d="M62.29,109.48s-7.43-23,0-38,5.64-19.09,46.17-28.05,52.43,27.46,52.43,27.46C158,61.76,144,63.52,144,63.52s4.7,5.29-8.22,4.85S122.11,57.5,93.51,60.44s-24.27,45.78-24.27,45.78Z" transform="translate(32.41)"/></g><circle id="Krog-2" data-name="Krog" class="cls-1" cx="144.25" cy="111.83" r="109"/></g></g></svg>