<svg xmlns="http://www.w3.org/2000/svg" xmlns:xlink="http://www.w3.org/1999/xlink" viewBox="0 0 277.84 716.12"><defs><style>.cls-1,.cls-7{fill:none;stroke-miterlimit:10;}.cls-1{stroke:#00a881;stroke-width:5.67px;}.cls-2{clip-path:url(#clip-path);}.cls-3{fill:#fcc5aa;}.cls-4{fill:#dce6e0;}.cls-5{fill:#d9dceb;}.cls-6{fill:#00a881;}.cls-7{stroke:#499086;stroke-width:0.95px;}.cls-8{fill:#017dad;}.cls-9{fill:#eed1bf;}.cls-10{fill:#44515d;}.cls-11{fill:#499086;}.cls-12{fill:#fff;}.cls-13{fill:#524935;}.cls-14{fill:#ebaf88;}.cls-15{fill:#ffe6b4;}.cls-16{fill:#301812;}.cls-17{fill:#d55227;}.cls-18{fill:#ffebc6;}</style><clipPath id="clip-path" transform="translate(32.26)"><circle id="Krog" class="cls-1" cx="111.83" cy="111.83" r="109"/></clipPath></defs><g id="Layer_2" data-name="Layer 2"><g id="Layer_1-2" data-name="Layer 1"><g class="cls-2"><path id="Vrat" class="cls-3" d="M151.77,179.67l-.21.53c-5.49,13.54-20,23.2-37.1,23.2-17.29,0-32-9.91-37.3-23.71H77a18.31,18.31,0,0,0,12.53-7.4,18,18,0,0,0,2-3.72,25.58,25.58,0,0,0,1.79-8.83h38.38a36.91,36.91,0,0,0,1.89,8.82c1.18,3.37,3.09,6.95,6.14,9.24C142.61,180,146.6,181,151.77,179.67Z" transform="translate(32.26)"/><ellipse class="cls-4" cx="138.92" cy="700.29" rx="138.92" ry="15.83"/><path class="cls-5" d="M226.92,391.19l-48.77-2.12v-157s11.27-65,28.6-29.73Q221.15,301.08,226.92,391.19Z" transform="translate(32.26)"/><path class="cls-5" d="M2,391.19l48.78-2.12v-157s-11.28-65-28.61-29.73Q7.79,301.08,2,391.19Z" transform="translate(32.26)"/><path id="Pulover" class="cls-6" d="M206.63,201.26l-.41.06c-5.35.94-11.87,8.69-17.95,27.46V401.63H40.66V228.78c-6.09-18.77-12.6-26.52-17.95-27.46l-.41-.06c-12.85-1.45,19-21.59,38.64-21.59H77.16c5.33,13.8,20,23.71,37.3,23.71,17.08,0,31.61-9.66,37.1-23.2.08-.17.14-.34.21-.51H168C187.64,179.67,219.48,199.81,206.63,201.26Z" transform="translate(32.26)"/><line id="Zadrga" class="cls-7" x1="146.73" y1="401.65" x2="146.73" y2="203.4"/><polygon id="Hlace" class="cls-8" points="220.4 401.65 220.4 451.46 197.23 668.36 168.41 678.58 146.99 451.46 146.73 451.46 122.34 678.58 122.23 678.58 93.48 668.39 72.92 451.46 72.92 401.65 220.4 401.65"/><path id="Koza" class="cls-9" d="M16.34,390.53s-5.53,43.56,24.32,47.94v-49Z" transform="translate(32.26)"/><path id="Koza-2" data-name="Koza" class="cls-9" d="M212.46,390.59s5.53,43.56-24.32,47.94v-49Z" transform="translate(32.26)"/><path class="cls-10" d="M208.23,700.13H136.15V678.58L165,668.36s0,0,0,.08c-1.25,12.27,9.29,14.13,9.29,14.13C217.74,678.53,208.23,700.13,208.23,700.13Z" transform="translate(32.26)"/><path class="cls-10" d="M90,678.58v21.55H17.89s-9.51-21.6,34-17.56c0,0,10.59-1.87,9.27-14.21l.08,0Z" transform="translate(32.26)"/><circle id="Gumb" class="cls-11" cx="159.1" cy="239.9" r="3.72"/><circle id="Gumb-2" data-name="Gumb" class="cls-11" cx="134.74" cy="239.9" r="3.72"/><circle id="Gumb-3" data-name="Gumb" class="cls-11" cx="159.1" cy="267.94" r="3.72"/><circle id="Gumb-4" data-name="Gumb" class="cls-11" cx="134.74" cy="267.94" r="3.72"/><circle id="Gumb-5" data-name="Gumb" class="cls-11" cx="159.1" cy="295.98" r="3.72"/><circle id="Gumb-6" data-name="Gumb" class="cls-11" cx="134.74" cy="295.98" r="3.72"/><circle id="Gumb-7" data-name="Gumb" class="cls-11" cx="159.1" cy="324.02" r="3.72"/><circle id="Gumb-8" data-name="Gumb" class="cls-11" cx="134.74" cy="324.02" r="3.72"/><circle id="Gumb-9" data-name="Gumb" class="cls-11" cx="159.1" cy="352.06" r="3.72"/><circle id="Gumb-10" data-name="Gumb" class="cls-11" cx="134.74" cy="352.06" r="3.72"/><path id="Koza-3" data-name="Koza" class="cls-9" d="M166.67,105.48a133.55,133.55,0,0,1-7.42,25.57,49.25,49.25,0,0,1-97.41-1.91A155.45,155.45,0,0,1,55.2,105c-2.46-12.67,3.11-14.27,6.23-14.23V87.85a44.43,44.43,0,0,1,44.43-44.43h9.66A44.43,44.43,0,0,1,160,87.85v4.42C162.44,92,169.23,92.28,166.67,105.48Z" transform="translate(32.26)"/><path class="cls-12" d="M100,99.1c.09-7.58-23.45-7.87-23.54-.29C76.41,105.65,100,105.94,100,99.1Z" transform="translate(32.26)"/><path class="cls-12" d="M147.35,99.1c.09-7.58-23.45-7.87-23.55-.29C123.72,105.65,147.26,105.94,147.35,99.1Z" transform="translate(32.26)"/><circle class="cls-13" cx="119.79" cy="98.68" r="3.89"/><circle class="cls-13" cx="167.84" cy="98.68" r="3.89"/><path id="Oci" class="cls-14" d="M75,99.26s10-10.05,27.69,0C102.72,99.26,87.34,82.24,75,99.26Z" transform="translate(32.26)"/><path id="Oci-2" data-name="Oci" class="cls-14" d="M122.16,99.26s10-10.05,27.7,0C149.86,99.26,134.47,82.24,122.16,99.26Z" transform="translate(32.26)"/><path class="cls-9" d="M114.18,95.77l-.4,1.56C113.76,96.26,113.88,95.68,114.18,95.77Z" transform="translate(32.26)"/><path id="Nos" class="cls-14" d="M113.71,128.48a19.53,19.53,0,0,1-7.44-2l.52-1c2.11,1.06,8,3.28,9.92.75.31-.85-.77-8-1.65-13.83-1.85-12.28-2.29-16.22-1.43-17a.75.75,0,0,1,.72-.15L114,96.33a.4.4,0,0,0,.44-.16c-.5,1,.81,9.67,1.76,16,1.62,10.71,2,13.93,1.43,14.7A4.67,4.67,0,0,1,113.71,128.48Z" transform="translate(32.26)"/><g id="obrve"><path class="cls-15" d="M103.23,91c-16.77-8.46-24.38-.65-24.69-.31l-2.13-2c.37-.41,9.28-9.82,28.12-.32Z" transform="translate(32.26)"/></g><g id="Obrve-2" data-name="Obrve"><g id="Obrve-3" data-name="Obrve"><path id="Obrve-4" data-name="Obrve" class="cls-15" d="M149.21,92.07c-16.9-8.52-24.61-.39-24.69-.31l-2.13-2c.37-.4,9.28-9.82,28.12-.31Z" transform="translate(32.26)"/></g></g><path class="cls-16" d="M130.8,136.52a21.58,21.58,0,0,1-7.34,10.9c-1.39-6.86-26.65-4.19-26.74-4.18a31.51,31.51,0,0,1-3.85-6.72Z" transform="translate(32.26)"/><path class="cls-17" d="M123.46,147.42h0A19.11,19.11,0,0,1,113,151c-7.92.47-13.15-3.77-16.29-7.79C96.81,143.23,122.07,140.56,123.46,147.42Z" transform="translate(32.26)"/><polygon class="cls-16" points="128.98 143.24 128.99 143.24 128.98 143.24 128.98 143.24"/><polygon class="cls-12" points="125.13 136.52 126.21 138.9 162.25 138.9 163.07 136.52 125.13 136.52"/><path id="Lasje" class="cls-18" d="M62.44,105.4s-7.43-23.05,0-38,5.64-19.09,46.17-28.05S161,66.78,161,66.78c-2.92-9.1-16.9-7.34-16.9-7.34s4.7,5.29-8.22,4.85-13.66-10.87-42.27-7.93-24.26,45.78-24.26,45.78Z" transform="translate(32.26)"/></g><circle id="Krog-2" data-name="Krog" class="cls-1" cx="144.1" cy="111.83" r="109"/></g></g></svg>