<svg xmlns="http://www.w3.org/2000/svg" viewBox="0 0 224.92 611.52"><defs><style>.cls-1{fill:#fcc5aa;}.cls-2{fill:#d9dceb;}.cls-3{fill:#00a881;}.cls-4{fill:none;stroke:#499086;stroke-miterlimit:10;stroke-width:0.95px;}.cls-5{fill:#017dad;}.cls-6{fill:#eed1bf;}.cls-7{fill:#44515d;}.cls-8{fill:#499086;}.cls-9{fill:#ffebc6;}.cls-10{fill:#fff;}.cls-11{fill:#524935;}.cls-12{fill:#ebaf88;}.cls-13{fill:#ffe6b4;}.cls-14{fill:#301812;}.cls-15{fill:#d55227;}</style></defs><g id="Layer_2" data-name="Layer 2"><g id="Layer_1-2" data-name="Layer 1"><path id="Vrat" class="cls-1" d="M149.77,151.29l-.21.53c-5.49,13.54-20,23.2-37.1,23.2-17.29,0-32-9.91-37.3-23.71H75a18.31,18.31,0,0,0,12.53-7.4,18,18,0,0,0,2-3.72,25.58,25.58,0,0,0,1.79-8.83h38.38a36.91,36.91,0,0,0,1.89,8.82c1.18,3.37,3.09,6.95,6.14,9.24C140.61,151.58,144.6,152.59,149.77,151.29Z"/><path class="cls-2" d="M224.92,362.82l-48.77-2.13v-157s11.27-65,28.6-29.73Q219.15,272.7,224.92,362.82Z"/><path class="cls-2" d="M0,362.82l48.77-2.13v-157s-11.27-65-28.6-29.73Q5.77,272.7,0,362.82Z"/><path id="Pulover" class="cls-3" d="M204.63,172.88l-.41.06c-5.35.94-11.87,8.69-17.95,27.46V373.25H38.66V200.4c-6.09-18.77-12.6-26.52-17.95-27.46l-.41-.06c-12.85-1.45,19-21.59,38.64-21.59H75.16c5.33,13.8,20,23.71,37.3,23.71,17.08,0,31.61-9.66,37.1-23.2.08-.17.14-.34.21-.51H166C185.64,151.29,217.48,171.43,204.63,172.88Z"/><line id="Zadrga" class="cls-4" x1="112.46" y1="373.27" x2="112.46" y2="175.02"/><polygon id="Hlace" class="cls-5" points="186.13 372.9 186.13 411.94 162.97 581.96 134.15 589.97 112.72 411.94 112.47 411.94 88.08 589.97 87.97 589.97 59.22 581.98 38.66 411.94 38.66 372.9 186.13 372.9"/><path id="Koza" class="cls-6" d="M14.33,362.15s-5.52,43.56,24.32,47.94v-49Z"/><path id="Koza-2" data-name="Koza" class="cls-6" d="M210.46,362.21s5.53,43.56-24.32,47.94v-49Z"/><path class="cls-7" d="M206.23,611.52H134.15V590L163,579.75s0,0,0,.08c-1.25,12.27,9.29,14.13,9.29,14.13C215.74,589.92,206.23,611.52,206.23,611.52Z"/><path class="cls-7" d="M88,590v21.55H15.89s-9.51-21.6,34-17.56c0,0,10.59-1.87,9.27-14.21l.08,0Z"/><circle id="Gumb" class="cls-8" cx="124.83" cy="211.52" r="3.72"/><circle id="Gumb-2" data-name="Gumb" class="cls-8" cx="100.47" cy="211.52" r="3.72"/><circle id="Gumb-3" data-name="Gumb" class="cls-8" cx="124.83" cy="239.56" r="3.72"/><circle id="Gumb-4" data-name="Gumb" class="cls-8" cx="100.47" cy="239.56" r="3.72"/><circle id="Gumb-5" data-name="Gumb" class="cls-8" cx="124.83" cy="267.6" r="3.72"/><circle id="Gumb-6" data-name="Gumb" class="cls-8" cx="100.47" cy="267.6" r="3.72"/><circle id="Gumb-7" data-name="Gumb" class="cls-8" cx="124.83" cy="295.64" r="3.72"/><circle id="Gumb-8" data-name="Gumb" class="cls-8" cx="100.47" cy="295.64" r="3.72"/><circle id="Gumb-9" data-name="Gumb" class="cls-8" cx="124.83" cy="323.68" r="3.72"/><circle id="Gumb-10" data-name="Gumb" class="cls-8" cx="100.47" cy="323.68" r="3.72"/><path id="Koza-3" data-name="Koza" class="cls-6" d="M167.7,73.51a133.55,133.55,0,0,1-7.42,25.57,49.25,49.25,0,0,1-97.41-1.91,155.45,155.45,0,0,1-6.64-24.12c-2.46-12.67,3.11-14.27,6.23-14.23V55.88a44.43,44.43,0,0,1,44.43-44.43h9.66A44.43,44.43,0,0,1,161,55.88V60.3C163.47,60,170.26,60.31,167.7,73.51Z"/><path id="Brada" class="cls-9" d="M163,91.71a84.45,84.45,0,0,1-.63,11.28,62.13,62.13,0,0,1-1.21,6.71,39.35,39.35,0,0,1-1.16,5.64,32.64,32.64,0,0,1-1.95,5.14,35.78,35.78,0,0,1-2.67,4.52,30.91,30.91,0,0,1-3.45,4.06c-.85,1.37-1.75,2.71-2.72,4a47.51,47.51,0,0,1-3.09,3.69,40.28,40.28,0,0,1-3.68,4.5q-1.73,1.77-3.54,3.41c-4.92,4.45-10.38,8-16.56,9.76a31.32,31.32,0,0,1-4.76.94,14.39,14.39,0,0,1-9.82-1.72c-6.31-5.57-12.37-10.65-19.09-14.49a54,54,0,0,0-12-5.12,36,36,0,0,1-3.44-2.68,41.17,41.17,0,0,1-3.12-3.08,41.47,41.47,0,0,1-2.61-4,43.1,43.1,0,0,1-3.87-8.89c-.41-1.52-.74-3-1-4.61a67.93,67.93,0,0,1-.86-16.61c0-.67.09-1.34.16-2-.07-2.28-.1-4.58-.06-6.77.13-6.57.88-12.17,3-13.27,3.29-1.73,4.5-2,4.94-1.83a.32.32,0,0,1,.23.14h0a.25.25,0,0,1,0,.16s1.52,23.72,23.84,34h37.94s22.66-22,22.66-33.95l5.68,1.33.8.19A102.54,102.54,0,0,1,163,91.71Z"/><path class="cls-10" d="M101.06,67.13c.1-7.57-23.45-7.86-23.54-.29C77.44,73.69,101,74,101.06,67.13Z"/><path class="cls-10" d="M148.38,67.13c.09-7.57-23.45-7.86-23.54-.29C124.75,73.69,148.29,74,148.38,67.13Z"/><circle class="cls-11" cx="88.56" cy="66.71" r="3.89"/><circle class="cls-11" cx="136.61" cy="66.71" r="3.89"/><path id="Oci" class="cls-12" d="M76.06,67.29s10-10.05,27.7,0C103.76,67.29,88.37,50.27,76.06,67.29Z"/><path id="Oci-2" data-name="Oci" class="cls-12" d="M123.19,67.29s10-10.05,27.7,0C150.89,67.29,135.5,50.27,123.19,67.29Z"/><path id="Brki" class="cls-9" d="M131.84,104.54H93.9c1.23-4.43,4.25-8,9.5-10.49h4.36c1.25.59,8.06,3.63,10.44.49a1.07,1.07,0,0,0,.12-.49h3.62C127.07,97,130.52,100.48,131.84,104.54Z"/><path class="cls-6" d="M115.21,63.8l-.4,1.56C114.79,64.29,114.91,63.71,115.21,63.8Z"/><path id="Nos" class="cls-12" d="M114.74,96.52a19.53,19.53,0,0,1-7.44-2l.52-1c2.11,1.07,8,3.28,9.92.75.32-.84-.77-8-1.64-13.82-1.86-12.28-2.3-16.23-1.44-17a.75.75,0,0,1,.72-.14l-.35,1.1a.39.39,0,0,0,.44-.15c-.5,1,.81,9.67,1.77,16,1.62,10.7,2,13.93,1.42,14.69A4.66,4.66,0,0,1,114.74,96.52Z"/><g id="Obrve"><path class="cls-13" d="M104.26,59c-16.77-8.46-24.37-.64-24.69-.31l-2.12-1.95c.37-.4,9.27-9.82,28.11-.31Z"/></g><g id="Obrve-2" data-name="Obrve"><g id="Obrve-3" data-name="Obrve"><path id="Obrve-4" data-name="Obrve" class="cls-13" d="M150.24,60.11c-16.9-8.53-24.61-.4-24.68-.32l-2.13-1.94c.36-.41,9.27-9.82,28.11-.32Z"/></g></g><path class="cls-14" d="M131.84,104.55c-.09,0-1.53,6.58-7.35,10.91-1.38-6.86-26.65-4.2-26.74-4.19a31.51,31.51,0,0,1-3.85-6.72Z"/><path class="cls-15" d="M124.49,115.46h0a19.06,19.06,0,0,1-10.44,3.6c-7.92.47-13.15-3.77-16.3-7.79C97.84,111.26,123.11,108.6,124.49,115.46Z"/><polygon class="cls-14" points="97.75 111.27 97.75 111.27 97.75 111.27 97.75 111.27"/><polygon class="cls-10" points="93.9 104.55 94.98 106.94 131.03 106.94 131.84 104.55 93.9 104.55"/><path id="Lasje" class="cls-9" d="M169,165.24s-5.67-1.23-9.72-14c-9.94-9.12-23.69-16.13-23.69-16.13,8.48-5,15.75-16.51,19.75-23.88.16-6,.54-12.66,1.2-20,6.1-68.52-42.12-48.71-44.18-48.56h0c-2-.14-50.22-20-44.11,48.56.66,7.35,1,14,1.19,19.94,5.48,9.13,17.16,22.42,17.16,22.42-5.8-3.78-13.58,4.31-19.87,13.26-4,17-10.94,18.45-10.94,18.45S27-6.67,112.39.2C197.76-6.67,169,165.24,169,165.24Z"/></g></g></svg>