<svg xmlns="http://www.w3.org/2000/svg" xmlns:xlink="http://www.w3.org/1999/xlink" viewBox="0 0 277.84 769.86"><defs><style>.cls-1,.cls-15,.cls-16{fill:none;}.cls-1{stroke:#00a881;stroke-width:5.67px;}.cls-1,.cls-11,.cls-12,.cls-15,.cls-16,.cls-18{stroke-miterlimit:10;}.cls-2{clip-path:url(#clip-path);}.cls-3{fill:#dce6e0;}.cls-4{fill:#fbc5aa;}.cls-5{fill:#d8dcec;}.cls-11,.cls-12,.cls-6{fill:#eed1bf;}.cls-7{fill:#ffebc6;}.cls-8{fill:#fff;}.cls-9{fill:#514835;}.cls-10{fill:#ebaf82;}.cls-11{stroke:#ebaf82;stroke-width:1.15px;}.cls-12{stroke:#ffe6b4;stroke-width:2.89px;}.cls-13{fill:#5a3b34;}.cls-14{fill:#d55225;}.cls-15,.cls-16{stroke:#231f20;}.cls-15{stroke-width:0.62px;}.cls-16{stroke-width:0.56px;}.cls-17,.cls-18{fill:#00a881;}.cls-18{stroke:#489086;stroke-width:0.95px;}.cls-19{fill:#007dac;}.cls-20{fill:#44515c;}.cls-21{fill:#489086;}</style><clipPath id="clip-path" transform="translate(32.01)"><circle class="cls-1" cx="111.83" cy="111.83" r="109"/></clipPath></defs><g id="Layer_2" data-name="Layer 2"><g id="Avatar"><g class="cls-2"><ellipse class="cls-3" cx="138.92" cy="754.03" rx="138.92" ry="15.83"/><path class="cls-4" d="M77.27,175.43s15.63-1.17,16.35-20H132s1.57,24.55,19.87,20l-1.65,14.1-37.39,14.89-32.48-8.71L72.43,180Z" transform="translate(32.01)"/><path class="cls-5" d="M227.18,386.93l-48.77-2.13v-157s11.27-65,28.6-29.73Q221.41,296.83,227.18,386.93Z" transform="translate(32.01)"/><path class="cls-6" d="M65.5,87.94s-11.49-3.22-8.15,14S65.5,129.8,65.5,129.8Z" transform="translate(32.01)"/><path class="cls-6" d="M140,40.33h9.66a44.43,44.43,0,0,1,44.43,44.43v35A49.26,49.26,0,0,1,144.85,169h0a49.26,49.26,0,0,1-49.26-49.26v-35A44.43,44.43,0,0,1,140,40.33Z"/><path class="cls-7" d="M71.19,99.49S72.7,123.21,95,133.43H133s22.67-22,22.67-33.94L162.1,101s3.4,15.19,1.4,30.87a64.39,64.39,0,0,1-1.21,6.72,40.77,40.77,0,0,1-1.17,5.64,31.89,31.89,0,0,1-1.94,5.13,35.84,35.84,0,0,1-2.68,4.52,30.27,30.27,0,0,1-3.45,4.06,47.5,47.5,0,0,1-2.72,4q-1.46,1.94-3.08,3.7a41.21,41.21,0,0,1-3.68,4.5c-5.82,6-12.4,11-20.11,13.16a28.93,28.93,0,0,1-4.75.94,14.31,14.31,0,0,1-9.82-1.72c-9.81-8.65-19-16.16-31-19.61a32.92,32.92,0,0,1-3.43-2.68,37.74,37.74,0,0,1-3.12-3.08,42.6,42.6,0,0,1-2.61-4,43.21,43.21,0,0,1-3.88-8.9c-.4-1.51-.74-3-1-4.6A68.33,68.33,0,0,1,63.09,121c-.08-2.27-.1-4.57-.06-6.76.12-6.58.87-12.18,3-13.28C71.57,98.07,71.19,99.49,71.19,99.49Z" transform="translate(32.01)"/><path class="cls-8" d="M102.19,96c.09-7.57-23.45-7.86-23.54-.28C78.57,102.57,102.11,102.85,102.19,96Z" transform="translate(32.01)"/><path class="cls-8" d="M149.51,96c.09-7.57-23.45-7.86-23.55-.28C125.88,102.57,149.42,102.85,149.51,96Z" transform="translate(32.01)"/><circle class="cls-9" cx="121.69" cy="95.59" r="3.89"/><circle class="cls-9" cx="169.74" cy="95.59" r="3.89"/><path class="cls-10" d="M77.19,96.17s10-10,27.69,0C104.88,96.17,89.5,79.15,77.19,96.17Z" transform="translate(32.01)"/><path class="cls-10" d="M124.32,96.17s10-10,27.7,0C152,96.17,136.63,79.15,124.32,96.17Z" transform="translate(32.01)"/><path class="cls-7" d="M104.52,122.93c-5.25,2.49-8.27,6.06-9.49,10.5H133c-1.31-4.07-4.76-7.52-9.89-10.5Z" transform="translate(32.01)"/><path class="cls-11" d="M108.69,122.84s8,4,10.64.58c1.13-1.49-5-31.36-3-30.73" transform="translate(32.01)"/><path class="cls-12" d="M79.64,86.6s8.32-9.13,26.4,0" transform="translate(32.01)"/><path class="cls-12" d="M125.62,87.7s8.32-9.12,26.4,0" transform="translate(32.01)"/><path class="cls-13" d="M133,133.43a20.58,20.58,0,0,1-7.34,10.91c-1.39-6.86-26.65-4.2-26.74-4.19A26.59,26.59,0,0,1,95,133.43Z" transform="translate(32.01)"/><path class="cls-14" d="M125.62,144.34h0a19,19,0,0,1-10.44,3.6c-7.92.47-13.15-3.77-16.29-7.79C99,140.14,124.23,137.48,125.62,144.34Z" transform="translate(32.01)"/><polygon class="cls-13" points="130.89 140.15 130.89 140.15 130.89 140.15 130.89 140.15"/><path class="cls-6" d="M161.23,89.34s10.71-3,7.59,13.06-7.59,26-7.59,26Z" transform="translate(32.01)"/><polygon class="cls-8" points="127.03 133.43 128.11 135.82 164.16 135.82 164.97 133.43 127.03 133.43"/><path class="cls-15" d="M106.68,96.73s10.32-7.8,17.16,0" transform="translate(32.01)"/><line class="cls-15" x1="98.4" y1="89.91" x2="109.15" y2="95.59"/><line class="cls-15" x1="196.14" y1="89.69" x2="185.39" y2="96.16"/><circle class="cls-16" cx="123.92" cy="96.73" r="14.77"/><circle class="cls-16" cx="170.62" cy="96.73" r="14.77"/><path class="cls-5" d="M2.26,386.93,51,384.8v-157s-11.27-65-28.6-29.73Q8,296.83,2.26,386.93Z" transform="translate(32.01)"/><path class="cls-17" d="M168.25,175.43H152c-5.32,13.79-20,23.71-37.3,23.71s-32-9.92-37.3-23.71H61.19c-19.65,0-51.49,20.14-38.63,21.59,5.41.61,12.11,8.26,18.35,27.51V397.39H188.52V224.53c6.25-19.25,12.95-26.9,18.36-27.51C219.74,195.57,187.89,175.43,168.25,175.43Z" transform="translate(32.01)"/><line class="cls-18" x1="146.73" y1="397.39" x2="146.73" y2="199.14"/><rect class="cls-19" x="72.92" y="397.39" width="147.48" height="49.8"/><polygon class="cls-19" points="146.73 446.83 122.34 732.32 94.45 732.32 72.92 446.83 146.73 446.83"/><polygon class="cls-19" points="220.4 446.83 196.14 732.32 168.41 732.32 146.99 446.83 220.4 446.83"/><path class="cls-6" d="M16.59,386.27s-5.52,43.56,24.32,47.93v-49Z" transform="translate(32.01)"/><path class="cls-6" d="M212.72,386.33s5.52,43.56-24.32,47.93v-49Z" transform="translate(32.01)"/><path class="cls-20" d="M136.4,732.32v21.54h72.08s9.51-21.59-34-17.55c0,0-10.59-1.88-9.27-14.22" transform="translate(32.01)"/><path class="cls-20" d="M90.22,732.32v21.54H18.15s-9.51-21.59,34-17.55c0,0,10.6-1.88,9.28-14.22" transform="translate(32.01)"/><circle class="cls-21" cx="159.1" cy="235.63" r="3.72"/><circle class="cls-21" cx="134.74" cy="235.63" r="3.72"/><circle class="cls-21" cx="159.1" cy="263.68" r="3.72"/><circle class="cls-21" cx="134.74" cy="263.68" r="3.72"/><circle class="cls-21" cx="159.1" cy="291.72" r="3.72"/><circle class="cls-21" cx="134.74" cy="291.72" r="3.72"/><circle class="cls-21" cx="159.1" cy="319.76" r="3.72"/><circle class="cls-21" cx="134.74" cy="319.76" r="3.72"/><circle class="cls-21" cx="159.1" cy="347.8" r="3.72"/><circle class="cls-21" cx="134.74" cy="347.8" r="3.72"/></g><circle class="cls-1" cx="143.84" cy="111.83" r="109"/></g></g></svg>