<svg xmlns="http://www.w3.org/2000/svg" viewBox="0 0 208.42 613.55"><defs><style>.cls-1{fill:#eed1bf;}.cls-2{fill:#fcc5aa;}.cls-3{fill:#d9dceb;}.cls-4{fill:#074368;}.cls-12,.cls-5{fill:none;stroke-miterlimit:10;}.cls-5{stroke:#c1c0da;stroke-width:1.01px;}.cls-6{fill:#c4463a;}.cls-7{fill:#fff;}.cls-8{fill:#524935;}.cls-9{fill:#c9bcdd;}.cls-10{fill:#ebaf89;}.cls-11{fill:#c1c0da;}.cls-12{stroke:#231f20;stroke-width:0.63px;}.cls-13{fill:#200600;}.cls-14{fill:#d55227;}</style></defs><g id="Layer_2" data-name="Layer 2"><g id="Layer_1-2" data-name="Layer 1"><path id="Koza" class="cls-1" d="M15.41,332s-5.89,46.38,25.89,51V330.88Z"/><path id="Koza-2" data-name="Koza" class="cls-1" d="M189.81,337.19s5.89,46.38-25.9,51V336.06Z"/><path id="Vrat" class="cls-2" d="M138.76,152c-5.1,12.81-18.42,22-34.07,22-15.37,0-28.5-8.84-33.8-21.31,4-1.14,12.58-5.35,13.09-20.48h35.3S122.52,155.94,138.76,152Z"/><path class="cls-3" d="M0,349.89l51.93-2V200.73s-12-61-30.45-27.87Q6.15,265.4,0,349.89Z"/><path class="cls-3" d="M208.42,349.89l-51.94-2V200.73s12-61,30.46-27.87Q202.27,265.4,208.42,349.89Z"/><path id="Koza-3" data-name="Koza" class="cls-1" d="M89.92,589.25l-30.69,4.17c3.61-2.34,5.93-4.17,5.93-4.17Z"/><path id="Koza-4" data-name="Koza" class="cls-1" d="M156.64,593.42,126,589.25h24.77S153,591.08,156.64,593.42Z"/><path id="cevlje" class="cls-4" d="M89.92,589.25v20.39h-15v-5.82S41.87,616,27.36,613.11c0,0-16.55-2.23,8.86-11.39,19-6.85,22.83-8.27,22.83-8.27l.17,0h0Z"/><path id="cevlje-2" data-name="cevlje" class="cls-4" d="M188.51,613.11c-14.5,2.87-47.57-9.29-47.57-9.29v5.82H126V589.25l30.69,4.17h0l.17,0s3.83,1.42,22.84,8.27C205.06,610.88,188.51,613.11,188.51,613.11Z"/><path class="cls-5" d="M43.14,318.85c.14-12.11,61.31,48.44,119,0"/><polygon id="Hlace" class="cls-4" points="174.61 345.27 174.61 373.21 151.87 589.25 125.89 589.25 109.44 418.17 89.97 589.25 62.79 589.25 41.8 373.21 41.8 345.27 174.61 345.27"/><path id="Majica" class="cls-6" d="M189.55,171.92c-4.83.58-10.78,7.47-16.38,24.68,0,5,2.85,36.81-7.21,51.12-2.17,22.51,5.85,74.46,8.65,97.55-56.74,47-129,1.63-132.81,0,2.74-22.76,6.89-75.42,4.78-97.64C35.36,232.29,36,195.94,36,195.94c-5.54-16.71-11.39-23.45-16.16-24C8,170.54,37.32,151.29,55.41,151.29H70.35q.25.69.54,1.35c5.3,12.47,18.43,21.31,33.8,21.31,15.65,0,29-9.15,34.07-22,.1-.23.19-.47.28-.7H154C172.07,151.29,201.39,170.54,189.55,171.92Z"/><path id="Koza-5" data-name="Koza" class="cls-1" d="M102.07,15h8.2A37.7,37.7,0,0,1,148,52.67v50.06a41.8,41.8,0,0,1-41.8,41.8h0a41.8,41.8,0,0,1-41.8-41.8V52.67A37.7,37.7,0,0,1,102.07,15Z"/><path class="cls-7" d="M94.62,75.33c.09-8-22.94-8.35-23-.3C71.51,82.3,94.54,82.6,94.62,75.33Z"/><path class="cls-7" d="M140.91,75.33c.09-8-22.94-8.35-23-.3C117.8,82.3,140.83,82.6,140.91,75.33Z"/><ellipse class="cls-8" cx="82.39" cy="74.89" rx="3.81" ry="4.14"/><ellipse class="cls-8" cx="129.39" cy="74.89" rx="3.81" ry="4.14"/><path id="Oci" class="cls-9" d="M70.16,75.5s9.79-10.67,27.1,0C97.26,75.5,82.2,57.43,70.16,75.5Z"/><path id="Oci-2" data-name="Oci" class="cls-9" d="M116.27,75.5s9.78-10.67,27.09,0C143.36,75.5,128.31,57.43,116.27,75.5Z"/><g id="Nos"><path class="cls-10" d="M108.28,102.73a25.33,25.33,0,0,1-8.41-1.92l.46-1.1c2.43,1,9.24,3.13,11.47.7.32-.83-.91-7.55-1.9-13-2.1-11.49-2.61-15.2-1.7-16a.82.82,0,0,1,.78-.2l-.3,1.16a.37.37,0,0,0,.38-.14c-.54,1,.94,9.1,2,15,1.86,10.15,2.29,13.22,1.6,14A5.79,5.79,0,0,1,108.28,102.73Z"/></g><path id="Obrve" class="cls-11" d="M98,66.09c-16.86-9.23-24.67-.29-24.74-.2l-1.34-1.12c.36-.42,8.81-10.12,26.91-.2Z"/><path id="Obrve-2" data-name="Obrve" class="cls-11" d="M143,67.27c-16.87-9.24-24.67-.3-24.74-.2L116.87,66c.35-.42,8.81-10.12,26.91-.21Z"/><g id="ocala"><rect class="cls-12" x="115.66" y="66.51" width="28.9" height="19.11" rx="8.59"/><rect class="cls-12" x="69.98" y="66.51" width="28.9" height="19.11" rx="8.59"/><path class="cls-12" d="M98.87,76.67s10.1-8.29,16.79,0"/><line class="cls-12" x1="64.37" y1="69.43" x2="69.98" y2="75.46"/><line class="cls-12" x1="147.97" y1="68.66" x2="144.56" y2="76.06"/></g><path id="Koza-6" data-name="Koza" class="cls-1" d="M147.26,68.25s10.48-3.18,7.43,13.86-7.43,27.6-7.43,27.6Z"/><path id="Koza-7" data-name="Koza" class="cls-1" d="M64.78,69.1S54.3,65.91,57.35,83s7.43,27.6,7.43,27.6Z"/><ellipse id="Uhani" class="cls-6" cx="64.37" cy="108.04" rx="3.31" ry="3.59"/><ellipse id="Uhani-2" data-name="Uhani" class="cls-6" cx="149.57" cy="107.91" rx="3.31" ry="3.59"/><path class="cls-13" d="M124.87,114a15.24,15.24,0,0,1-6.56,8.15C117.08,117,94.51,119,94.43,119A19.27,19.27,0,0,1,91,114,87.08,87.08,0,0,0,124.87,114Z"/><path class="cls-14" d="M118.31,122.1h0a19.28,19.28,0,0,1-9.32,2.69A18.07,18.07,0,0,1,94.43,119C94.51,119,117.08,117,118.31,122.1Z"/><polygon class="cls-13" points="94.44 118.97 94.44 118.97 94.44 118.97 94.44 118.97"/><path id="Lasje" class="cls-11" d="M62.93,84.93c.25-2.33.58-4.69,1-7.06a45.28,45.28,0,0,1,5.45-18.13,32.65,32.65,0,0,1,3.48-5c2.28-1.58,4.05-5.13,6.59-5.93a25.1,25.1,0,0,1,4.19-1.72,29.38,29.38,0,0,1,4.36-1,92.63,92.63,0,0,1,10.9.34,28.28,28.28,0,0,1,10,2.76c1.56.46,3.12.92,4.69,1.34a42.18,42.18,0,0,1,5.81-.86,38.08,38.08,0,0,1,5.85,0,17,17,0,0,1,3,.07,15.89,15.89,0,0,1,2.85.62c4.31,1,6.08,4.55,9.36,6.63a29.57,29.57,0,0,1,1.82,2.43c.58.84,1.12,1.72,1.62,2.61a42.91,42.91,0,0,1,2.61,5.59,44.64,44.64,0,0,1,1.75,5.66c.52,1.11,1.57,1.11,2.62,1.67,0-1.23.14-2.46.27-3.67s.31-2.43.51-3.64c7.42-7.4,15.49-16.28,14.74-28.06a17.74,17.74,0,0,0-.68-3.15,18,18,0,0,0-1.35-3.12c-.54-1-1.14-2-1.79-2.94-3.26-4.82-7.85-9.18-12.23-13A25.05,25.05,0,0,1,148.91,14a23,23,0,0,0-1.41-2.29,24.1,24.1,0,0,0-1.64-2.1,22.11,22.11,0,0,0-2.6-2.42,33.65,33.65,0,0,0-11.88-4.56c-1.07-.2-2.16-.36-3.25-.48-8.69-1.47-17.56,3-26.61,1.77-1-.21-2-.45-3-.71s-2-.54-3-.82a24.22,24.22,0,0,0-26.85,4A29.56,29.56,0,0,0,59.83,20c-.6,1-1.21,1.9-1.83,2.86l-1.76,1.38a68.46,68.46,0,0,1-7.48,5.05,14.06,14.06,0,0,0-2,2.82,24.79,24.79,0,0,0-1.46,3.26c-.37,1-.7,2.1-1,3.17-2.33,8.56-2,17.83,5,24.31.78.77,1.57,1.51,2.36,2.24,3.93,3.66,8,7.18,8.55,12.53l1.34,4.6C62.33,83.94,62.93,84.93,62.93,84.93Z"/></g></g></svg>