<svg xmlns="http://www.w3.org/2000/svg" xmlns:xlink="http://www.w3.org/1999/xlink" viewBox="0 0 223.67 392.1"><defs><style>.cls-1{fill:none;stroke:#0073bc;stroke-miterlimit:10;stroke-width:5.67px;}.cls-2{clip-path:url(#clip-path);}.cls-3{fill:#fbc5aa;}.cls-4{fill:#d8dcec;}.cls-5{fill:#eed1bf;}.cls-6{fill:#fff;}.cls-7{fill:#514835;}.cls-8{fill:#cabcdc;}.cls-9{fill:#ebaf89;}.cls-10{fill:#bbb8dc;}.cls-11{fill:#0073bc;}.cls-12{fill:#200600;}.cls-13{fill:#d55227;}</style><clipPath id="clip-path"><circle class="cls-1" cx="111.83" cy="111.83" r="109"/></clipPath></defs><g id="Layer_2" data-name="Layer 2"><g id="Avatar"><g class="cls-2"><path id="Vrat" class="cls-3" d="M147.83,185.31c-5.1,12.81-18.42,22-34.07,22-15.37,0-28.5-8.84-33.8-21.31,4-1.14,12.58-5.35,13.09-20.48h35.3S131.59,189.26,147.83,185.31Z"/><path class="cls-4" d="M9.07,375.49l51.93-2V234.05s-12-61-30.45-27.87C20.33,267.87,13.23,319.1,9.07,375.49Z"/><path class="cls-4" d="M217.49,375.49l-51.93-2V234.05s12-61,30.45-27.87C206.23,267.87,213.33,319.1,217.49,375.49Z"/><path id="Koza" class="cls-5" d="M107.23,47.49h8.2a37.7,37.7,0,0,1,37.7,37.7v50.06a41.8,41.8,0,0,1-41.8,41.8h0a41.8,41.8,0,0,1-41.8-41.8V85.18A37.7,37.7,0,0,1,107.23,47.49Z"/><path class="cls-6" d="M99.78,107.85c.09-8-22.94-8.35-23-.3C76.67,114.81,99.7,115.12,99.78,107.85Z"/><path class="cls-6" d="M146.06,107.85c.09-8-22.93-8.35-23-.3C123,114.81,146,115.12,146.06,107.85Z"/><ellipse class="cls-7" cx="87.55" cy="107.41" rx="3.81" ry="4.14"/><ellipse class="cls-7" cx="134.55" cy="107.41" rx="3.81" ry="4.14"/><path id="Oci" class="cls-8" d="M75.32,108s9.78-10.67,27.09,0C102.41,108,87.36,89.94,75.32,108Z"/><path id="Oci-2" data-name="Oci" class="cls-8" d="M121.43,108s9.78-10.67,27.09,0C148.52,108,133.47,89.94,121.43,108Z"/><g id="Nos"><path class="cls-9" d="M113.44,135.24a25.86,25.86,0,0,1-8.42-1.91l.46-1.1c2.44,1,9.25,3.12,11.48.7.32-.83-.91-7.55-1.9-13-2.1-11.49-2.61-15.2-1.7-16a.83.83,0,0,1,.77-.19l-.3,1.16a.35.35,0,0,0,.38-.14c-.53,1,1,9.1,2,15,1.86,10.16,2.29,13.22,1.6,14A5.8,5.8,0,0,1,113.44,135.24Z"/></g><path id="Obrve" class="cls-10" d="M103.12,98.61c-16.86-9.24-24.66-.29-24.74-.2l-1.33-1.12c.35-.42,8.81-10.12,26.91-.2Z"/><path id="Obrve-2" data-name="Obrve" class="cls-10" d="M148.1,99.79c-16.86-9.25-24.66-.3-24.74-.21L122,98.46c.35-.41,8.81-10.12,26.91-.2Z"/><path id="Lasje" class="cls-10" d="M79.67,85.72c5.19-8,11.87-14.33,20.73-17.15a25.11,25.11,0,0,1,4.16-.9,23.3,23.3,0,0,1,4.26-.15,43.92,43.92,0,0,1,6,.18,47,47,0,0,1,6,1,26.42,26.42,0,0,1,5.08,1.51c14.12,4.83,19.12,21.14,21.35,35.29.3,1.85.52,3.67.67,5.44.43,1.42.83,2.81,1.21,4.22s.72,2.81,1,4.23c.64,2.84,1.16,5.7,1.58,8.63.43,2.15.76,4.28,1,6.41s.38,4.23.45,6.35c1.71,11.78-.55,23.42,1.71,35.07,11.29-4.91,15.8-19,15.47-31.39.15-2.59.25-5.21.35-7.75.24-3.18.36-6.36.44-9.45s.16-6.4.14-9.59c-.06-9.56-.62-19-.63-27.43-.4-3.27-.91-6.51-1.56-9.73s-1.41-6.41-2.33-9.57a54.07,54.07,0,0,0-4.56-7.5,56.69,56.69,0,0,0-5.52-6.5A67.78,67.78,0,0,0,115.9,37.57a47.21,47.21,0,0,0-9.72-.68,46.46,46.46,0,0,0-9.37,1.27,49.24,49.24,0,0,0-15.52,6.67A52.57,52.57,0,0,0,74.57,50a49.5,49.5,0,0,0-6,7,65.39,65.39,0,0,0-4.39,7.6c-.65,1.31-1.25,2.64-1.82,4s-1.1,2.71-1.6,4.09C59,81.35,55.66,89.51,55.51,98.53q-.3,3.28-.44,6.59a169.54,169.54,0,0,0,2.11,32.93c.63,4.92,1.34,9.53,2.06,13.68,2.13,12.46,4.32,20.82,4.32,20.82a17.42,17.42,0,0,0,7.66.06,9.84,9.84,0,0,0,5.44-4.28c1.39-4.16,3.08-9.06,1.56-14.24-.33-2.54-.8-5-1.2-7.18-.31-2.79-.64-5.87-1-9.15-.61-6.14-1.28-12.41-1.58-18.67-.1-2.09-.15-4.18-.13-6.25,1.34-6.12.5-12.46,3.46-19.16A54.48,54.48,0,0,1,79.67,85.72Z"/><path id="Koza-2" data-name="Koza" class="cls-5" d="M152.42,100.77s10.48-3.19,7.43,13.86-7.43,27.6-7.43,27.6Z"/><path id="Koza-3" data-name="Koza" class="cls-5" d="M70.66,102.56s-10.48-3.19-7.43,13.86S70.66,144,70.66,144Z"/><ellipse id="Uhani" class="cls-11" cx="69.53" cy="140.56" rx="3.31" ry="3.59"/><ellipse id="Uhani-2" data-name="Uhani" class="cls-11" cx="154.72" cy="140.43" rx="3.31" ry="3.59"/><path class="cls-12" d="M130,146.47a15.2,15.2,0,0,1-6.56,8.14c-1.24-5.12-23.8-3.13-23.88-3.12a19.27,19.27,0,0,1-3.44-5A87.28,87.28,0,0,0,130,146.47Z"/><path class="cls-13" d="M123.47,154.61h0a19.21,19.21,0,0,1-9.33,2.7,18.06,18.06,0,0,1-14.55-5.82C99.67,151.48,122.23,149.49,123.47,154.61Z"/><polygon class="cls-12" points="99.59 151.49 99.59 151.49 99.59 151.49 99.59 151.49"/><path id="Majica" class="cls-11" d="M198.62,205.24c-4.83.58-10.78,7.47-16.38,24.68,0,5,2.85,29.09-7.21,43.4-2.17,22.51,5.85,74.46,8.65,97.55-56.74,46.95-129,1.63-132.81,0,2.74-22.76,6.89-75.42,4.78-97.64-11.22-15.34-10.58-44-10.58-44-5.54-16.71-11.39-23.45-16.16-24-11.84-1.38,17.48-20.63,35.57-20.63H79.42q.26.69.54,1.35c5.3,12.47,18.43,21.31,33.8,21.31,15.65,0,29-9.15,34.07-22,.1-.23.19-.47.28-.7h14.94C181.14,184.61,210.46,203.86,198.62,205.24Z"/></g><circle class="cls-1" cx="111.83" cy="111.83" r="109"/></g></g></svg>