<svg xmlns="http://www.w3.org/2000/svg" viewBox="0 0 211.19 654.59"><defs><style>.cls-1{fill:#eed1bf;}.cls-2{fill:#fcc5aa;}.cls-3{fill:#d9dceb;}.cls-4{fill:#0474bb;}.cls-11,.cls-5{fill:none;stroke-miterlimit:10;}.cls-5{stroke:#d9dceb;stroke-width:1.07px;}.cls-6{fill:#fff;}.cls-7{fill:#524935;}.cls-8{fill:#c9bcdd;}.cls-9{fill:#ebaf89;}.cls-10{fill:#c1c0da;}.cls-11{stroke:#231f20;stroke-width:0.63px;}.cls-12{fill:#c4463a;}.cls-13{fill:#200600;}.cls-14{fill:#d55227;}</style></defs><g id="Layer_2" data-name="Layer 2"><g id="Layer_1-2" data-name="Layer 1"><path id="Koza" class="cls-1" d="M15.41,340.36s-5.89,46.38,25.89,51V339.23Z"/><path id="Koza-2" data-name="Koza" class="cls-1" d="M189.81,345.54s5.89,46.38-25.9,51V344.41Z"/><path id="Vrat" class="cls-2" d="M138.76,160.35c-5.1,12.81-18.42,22-34.07,22-15.37,0-28.5-8.84-33.8-21.31,4-1.14,12.58-5.35,13.09-20.48h35.3S122.52,164.3,138.76,160.35Z"/><path class="cls-3" d="M0,358.24l51.93-2V209.09s-12-61-30.45-27.88Q6.15,273.76,0,358.24Z"/><path class="cls-3" d="M208.42,358.24l-51.94-2V209.09s12-61,30.46-27.88Q202.27,273.76,208.42,358.24Z"/><path id="Koza-3" data-name="Koza" class="cls-1" d="M89.92,630.3l-30.69,4.17c3.61-2.34,3.56-4.17,3.56-4.17Z"/><path id="Koza-4" data-name="Koza" class="cls-1" d="M156.64,634.47,126,630.3h25.92A16.63,16.63,0,0,0,156.64,634.47Z"/><path id="cevlje" class="cls-4" d="M89.92,630.3v20.39h-15v-5.82S41.87,657,27.36,654.16c0,0-16.55-2.23,8.86-11.39,19-6.85,22.83-8.27,22.83-8.27l.17,0h0Z"/><path id="cevlje-2" data-name="cevlje" class="cls-4" d="M188.51,654.16c-14.5,2.87-47.57-9.29-47.57-9.29v5.82H126V630.3l30.69,4.17h0l.17,0s3.83,1.42,22.84,8.27C205.06,651.93,188.51,654.16,188.51,654.16Z"/><polygon id="Hlace" class="cls-1" points="174.61 353.63 174.61 381.56 151.87 630.29 125.89 630.29 109.44 426.52 89.97 630.29 62.79 630.29 41.8 381.56 41.8 353.63 174.61 353.63"/><path id="Obleka" class="cls-4" d="M164.34,326.34A324,324,0,0,1,163,256.89c10.06-14.51,10.34-46.38,10.32-51.4,5.6-17.45,11.54-24.46,16.38-25,11.84-1.41-17.48-21-35.57-21H139.18c-4.9,13.38-18.43,23-34.35,23s-29.44-9.62-34.35-23H55.55c-18.1,0-47.42,19.54-35.58,21,4.78.56,10.63,7.4,16.16,24.36,0,0-.63,36.88,10.58,52.45a325.07,325.07,0,0,1-1.39,69.07L5.22,518.42s21.11,23,82.51,0c0,0,41.69,17.05,78.37,0,0,0,30.57,13.68,45.09,0Z"/><path class="cls-5" d="M41.65,321c.15-12.86,65.1,51.43,126.36,0"/><path id="Koza-5" data-name="Koza" class="cls-1" d="M100.73,26.6h8.2a37.7,37.7,0,0,1,37.7,37.7v50.06a41.8,41.8,0,0,1-41.8,41.8h0A41.8,41.8,0,0,1,63,114.36V64.3A37.7,37.7,0,0,1,100.73,26.6Z"/><path class="cls-6" d="M93.28,87c.09-8-22.94-8.35-23-.31C70.17,93.93,93.2,94.24,93.28,87Z"/><path class="cls-6" d="M139.57,87c.09-8-22.94-8.35-23-.31C116.46,93.93,139.49,94.24,139.57,87Z"/><ellipse class="cls-7" cx="81.05" cy="86.52" rx="3.81" ry="4.14"/><ellipse class="cls-7" cx="128.05" cy="86.52" rx="3.81" ry="4.14"/><path id="Oci" class="cls-8" d="M68.82,87.14s9.79-10.67,27.1,0C95.92,87.14,80.86,69.06,68.82,87.14Z"/><path id="Oci-2" data-name="Oci" class="cls-8" d="M114.93,87.14s9.78-10.67,27.09,0C142,87.14,127,69.06,114.93,87.14Z"/><g id="Nos"><path class="cls-9" d="M106.94,114.36a25.86,25.86,0,0,1-8.42-1.91l.47-1.11c2.43,1,9.24,3.13,11.47.7.32-.83-.91-7.54-1.9-12.94-2.1-11.49-2.61-15.2-1.7-16a.82.82,0,0,1,.78-.19l-.3,1.16a.39.39,0,0,0,.38-.14c-.54,1,.94,9.1,2,15,1.86,10.16,2.29,13.22,1.6,14A5.8,5.8,0,0,1,106.94,114.36Z"/></g><path id="Obrve" class="cls-10" d="M96.63,77.73c-16.86-9.24-24.67-.29-24.74-.2l-1.34-1.12c.36-.42,8.81-10.12,26.91-.21Z"/><path id="Obrve-2" data-name="Obrve" class="cls-10" d="M141.61,78.9c-16.87-9.24-24.67-.29-24.74-.2l-1.34-1.12c.35-.42,8.81-10.12,26.91-.2Z"/><g id="ocala"><rect class="cls-11" x="114.32" y="78.14" width="28.9" height="19.11" rx="8.59"/><rect class="cls-11" x="68.64" y="78.14" width="28.9" height="19.11" rx="8.59"/><path class="cls-11" d="M97.53,88.3s10.1-8.28,16.79,0"/><line class="cls-11" x1="63.03" y1="81.06" x2="68.64" y2="87.09"/><line class="cls-11" x1="146.63" y1="80.3" x2="143.22" y2="87.7"/></g><path id="Koza-6" data-name="Koza" class="cls-1" d="M145.92,79.89s10.48-3.19,7.43,13.86-7.43,27.6-7.43,27.6Z"/><path id="Koza-7" data-name="Koza" class="cls-1" d="M64.16,81.67s-10.48-3.18-7.43,13.87,7.43,27.6,7.43,27.6Z"/><ellipse id="Uhani" class="cls-12" cx="63.03" cy="119.67" rx="3.31" ry="3.59"/><ellipse id="Uhani-2" data-name="Uhani" class="cls-12" cx="148.23" cy="119.55" rx="3.31" ry="3.59"/><path class="cls-13" d="M123.53,125.59a15.23,15.23,0,0,1-6.56,8.14c-1.23-5.12-23.8-3.13-23.88-3.12a19.27,19.27,0,0,1-3.44-5A87.28,87.28,0,0,0,123.53,125.59Z"/><path class="cls-14" d="M117,133.73h0a19.17,19.17,0,0,1-9.32,2.7,18.1,18.1,0,0,1-14.56-5.82C93.17,130.6,115.74,128.61,117,133.73Z"/><polygon class="cls-13" points="93.09 130.61 93.1 130.61 93.1 130.61 93.09 130.61"/><path id="Lasje" class="cls-10" d="M161.94,53.28h-4.23a30.23,30.23,0,0,1-6.15,6.8c-6.82,5.5-15.41,7.19-24,5.83-2.49-.37-5.09-1-7.72-1.6q-2.37-.59-4.74-1.28l-4.81-1.39c-2-.68-4.2-1.26-6.42-1.76A64.2,64.2,0,0,0,97,58.76c-5.55-2.45-10.6.07-15.41,2.85a31,31,0,0,0-3.18,2.57c-2.93,3.89-7.13,6.42-8.38,11.7-.91,1.72-1.74,3.49-2.52,5.3S66,84.81,65.29,86.65c-.46,1.93-.85,3.91-1.18,5.86s-.64,3.91-.92,5.8c0,0-.61-1-1.42-2.75a33.24,33.24,0,0,0-1.25-4A44.49,44.49,0,0,1,56.93,87a28.08,28.08,0,0,1-4.38-4.63A28.79,28.79,0,0,1,48.2,71.11a31.92,31.92,0,0,1-.47-6.19c1.74-16.18,11-33,26.8-38.79,2-.85,4-1.61,6-2.27.62-.2,1.22-.39,1.84-.57-.06-.69-.1-1.38-.1-2.09a21.2,21.2,0,0,1,42.4,0,20.8,20.8,0,0,1-.1,2.1,75,75,0,0,1,12.32,4.57,56.13,56.13,0,0,1,5.34,2.9A47.68,47.68,0,0,1,161.94,53.28Z"/></g></g></svg>