<svg xmlns="http://www.w3.org/2000/svg" viewBox="0 0 211.19 646.02"><defs><style>.cls-1{fill:#eed1bf;}.cls-2{fill:#fcc5aa;}.cls-3{fill:#d9dceb;}.cls-4{fill:#0474bb;}.cls-14,.cls-5{fill:none;stroke-miterlimit:10;}.cls-5{stroke:#d9dceb;stroke-width:1.07px;}.cls-6{fill:#fff;}.cls-7{fill:#524935;}.cls-8{fill:#c9bcdd;}.cls-9{fill:#ebaf89;}.cls-10{fill:#c1c0da;}.cls-11{fill:#200600;}.cls-12{fill:#d55227;}.cls-13{fill:#c4463a;}.cls-14{stroke:#231f20;stroke-width:0.63px;}</style></defs><g id="Layer_2" data-name="Layer 2"><g id="Layer_1-2" data-name="Layer 1"><path id="Koza" class="cls-1" d="M15.41,331.79s-5.89,46.38,25.89,51V330.66Z"/><path id="Koza-2" data-name="Koza" class="cls-1" d="M189.81,337s5.89,46.38-25.9,51V335.84Z"/><path id="Vrat" class="cls-2" d="M138.76,151.77c-5.1,12.81-18.42,22-34.07,22-15.37,0-28.5-8.84-33.8-21.31,4-1.14,12.58-5.35,13.09-20.48h35.3S122.52,155.72,138.76,151.77Z"/><path class="cls-3" d="M0,349.67l51.93-2V200.52s-12-61-30.45-27.88Q6.15,265.19,0,349.67Z"/><path class="cls-3" d="M208.42,349.67l-51.94-2V200.52s12-61,30.46-27.88Q202.27,265.19,208.42,349.67Z"/><path id="Koza-3" data-name="Koza" class="cls-1" d="M89.92,621.72l-30.69,4.17c3.61-2.34,3.56-4.17,3.56-4.17Z"/><path id="Koza-4" data-name="Koza" class="cls-1" d="M156.64,625.89,126,621.72h25.92A16.63,16.63,0,0,0,156.64,625.89Z"/><path id="cevlje" class="cls-4" d="M89.92,621.72v20.39h-15v-5.82s-33.06,12.16-47.57,9.29c0,0-16.55-2.23,8.86-11.39,19-6.85,22.83-8.27,22.83-8.27l.17,0h0Z"/><path id="cevlje-2" data-name="cevlje" class="cls-4" d="M188.51,645.58c-14.5,2.87-47.57-9.29-47.57-9.29v5.82H126V621.72l30.69,4.17h0l.17,0s3.83,1.42,22.84,8.27C205.06,643.35,188.51,645.58,188.51,645.58Z"/><polygon id="Hlace" class="cls-1" points="174.61 345.05 174.61 372.99 151.87 621.72 125.89 621.72 109.44 417.95 89.97 621.72 62.79 621.72 41.8 372.99 41.8 345.05 174.61 345.05"/><path id="Obleka" class="cls-4" d="M164.34,317.77c-2.81-23.43-3.53-46.61-1.35-69.45,10.06-14.52,10.34-46.38,10.32-51.4,5.6-17.46,11.54-24.46,16.38-25,11.84-1.4-17.48-20.94-35.57-20.94H139.18c-4.9,13.38-18.43,23-34.35,23s-29.44-9.62-34.35-23H55.55c-18.1,0-47.42,19.54-35.58,20.94,4.78.57,10.63,7.41,16.16,24.37,0,0-.63,36.87,10.58,52.45a325.07,325.07,0,0,1-1.39,69.07L5.22,509.85s21.11,22.94,82.51,0c0,0,41.69,17,78.37,0,0,0,30.57,13.67,45.09,0Z"/><path class="cls-5" d="M41.65,312.38c.15-12.85,65.1,51.44,126.36,0"/><path id="Koza-5" data-name="Koza" class="cls-1" d="M98.57,14h8.2a37.7,37.7,0,0,1,37.7,37.7v50.06a41.8,41.8,0,0,1-41.8,41.8h0a41.8,41.8,0,0,1-41.8-41.8V51.67A37.7,37.7,0,0,1,98.57,14Z"/><path class="cls-6" d="M91.12,74.34c.09-8-22.94-8.36-23-.31C68,81.3,91,81.6,91.12,74.34Z"/><path class="cls-6" d="M137.41,74.34c.09-8-22.94-8.36-23-.31C114.3,81.3,137.32,81.6,137.41,74.34Z"/><ellipse class="cls-7" cx="78.89" cy="73.89" rx="3.81" ry="4.14"/><ellipse class="cls-7" cx="125.89" cy="73.89" rx="3.81" ry="4.14"/><path id="Oci" class="cls-8" d="M66.66,74.5s9.78-10.67,27.09,0C93.75,74.5,78.7,56.43,66.66,74.5Z"/><path id="Oci-2" data-name="Oci" class="cls-8" d="M112.77,74.5s9.78-10.67,27.09,0C139.86,74.5,124.81,56.43,112.77,74.5Z"/><g id="Nos"><path class="cls-9" d="M104.78,101.73a25.86,25.86,0,0,1-8.42-1.91l.46-1.11c2.44,1,9.25,3.13,11.48.7.32-.83-.91-7.55-1.9-13-2.1-11.49-2.61-15.2-1.7-16a.78.78,0,0,1,.77-.19l-.3,1.16a.37.37,0,0,0,.38-.14c-.53,1,1,9.09,2,15,1.86,10.15,2.29,13.22,1.6,14A5.81,5.81,0,0,1,104.78,101.73Z"/></g><path id="Obrve" class="cls-10" d="M94.46,65.1c-16.86-9.24-24.66-.3-24.74-.21l-1.33-1.12c.35-.41,8.81-10.12,26.91-.2Z"/><path id="Obrve-2" data-name="Obrve" class="cls-10" d="M139.44,66.27c-16.86-9.24-24.66-.29-24.74-.2L113.37,65c.35-.42,8.81-10.12,26.91-.2Z"/><path class="cls-11" d="M121.37,113a15.23,15.23,0,0,1-6.56,8.14C113.57,116,91,118,90.93,118a19.45,19.45,0,0,1-3.44-5A87.28,87.28,0,0,0,121.37,113Z"/><path class="cls-12" d="M114.81,121.1h0a19.32,19.32,0,0,1-9.33,2.69A18.09,18.09,0,0,1,90.93,118C91,118,113.57,116,114.81,121.1Z"/><polygon class="cls-11" points="90.93 117.97 90.94 117.97 90.94 117.97 90.93 117.97"/><path id="Lasje" class="cls-10" d="M156.5,165.24s-5.39-1.23-9.25-14c-9.45-9.12-22.52-16.13-22.52-16.13,8.06-5,14.52-16.65,18.33-24,.14-6,1-12.52,1.59-19.91,5.8-68.52-40.06-48.71-42-48.56h0c-1.77-.1-46.8-19.69-41.95,48.56.52,7.36,1.79,13.9,1.94,19.86,5.21,9.14,15.5,22.5,15.5,22.5-5.51-3.78-12.91,4.31-18.89,13.26-3.82,17-10.4,18.45-10.4,18.45S21.48-6.67,102.67.2C183.86-6.67,156.5,165.24,156.5,165.24Z"/><path id="Koza-6" data-name="Koza" class="cls-1" d="M143.76,67.25s10.48-3.18,7.43,13.86-7.43,27.6-7.43,27.6Z"/><path id="Koza-7" data-name="Koza" class="cls-1" d="M62.75,69.73s-10.48-3.19-7.43,13.86,7.43,27.6,7.43,27.6Z"/><ellipse id="Uhani" class="cls-13" cx="60.87" cy="107.04" rx="3.31" ry="3.59"/><ellipse id="Uhani-2" data-name="Uhani" class="cls-13" cx="146.07" cy="106.91" rx="3.31" ry="3.59"/><g id="ocala"><rect class="cls-14" x="112.16" y="65.51" width="28.9" height="19.11" rx="8.59"/><rect class="cls-14" x="66.48" y="65.51" width="28.9" height="19.11" rx="8.59"/><path class="cls-14" d="M95.37,75.67s10.1-8.28,16.79,0"/><line class="cls-14" x1="60.87" y1="68.43" x2="66.48" y2="74.46"/><line class="cls-14" x1="144.46" y1="67.67" x2="141.06" y2="75.06"/></g></g></g></svg>