<svg xmlns="http://www.w3.org/2000/svg" viewBox="0 0 117.58 272.08"><defs><style>.cls-1{fill:#d8dcec;}.cls-2{fill:#0054a6;}.cls-3{fill:#00a881;stroke:#003d7b;stroke-miterlimit:10;stroke-width:0.5px;}.cls-4{fill:#7bafde;}.cls-5{fill:#44515c;}.cls-6{fill:#003d7b;}</style></defs><g id="Layer_2" data-name="Layer 2"><g id="Background"><path class="cls-1" d="M117.58,110.57l-25.49-1.11V27.4s5.89-34,15-15.54Q114.57,63.46,117.58,110.57Z"/><path class="cls-1" d="M0,110.57l25.5-1.11V27.4s-5.9-34-14.95-15.54Q3,63.46,0,110.57Z"/><path class="cls-2" d="M86.78,0H78.29c-2.78,7.21-10.46,12.4-19.5,12.4S42.07,7.21,39.29,0H30.81C20.54,0,3.89,10.53,10.61,11.29c2.83.32,6.33,4.32,9.6,14.38V116H97.38V25.67c3.26-10.06,6.76-14.06,9.59-14.38C113.7,10.53,97.05,0,86.78,0Z"/><line class="cls-3" x1="58.79" y1="116.04" x2="58.79" y2="12.4"/><rect class="cls-4" x="20.21" y="116.04" width="77.1" height="26.04"/><polygon class="cls-4" points="58.79 142.07 46.04 260.81 31.47 260.81 20.21 142.07 58.79 142.07"/><polygon class="cls-4" points="97.31 142.07 84.63 260.81 70.13 260.81 58.93 142.07 97.31 142.07"/><path class="cls-5" d="M70.13,260.81v11.27h37.68s5-11.29-17.76-9.18c0,0-5.54-1-4.85-7.43"/><path class="cls-5" d="M46,260.81v11.27H8.31s-5-11.29,17.76-9.18c0,0,5.54-1,4.85-7.43"/><circle class="cls-6" cx="65.26" cy="31.48" r="1.95"/><circle class="cls-6" cx="52.53" cy="31.48" r="1.95"/><circle class="cls-6" cx="65.26" cy="46.14" r="1.95"/><circle class="cls-6" cx="52.53" cy="46.14" r="1.95"/><circle class="cls-6" cx="65.26" cy="60.79" r="1.95"/><circle class="cls-6" cx="52.53" cy="60.79" r="1.95"/><circle class="cls-6" cx="65.26" cy="75.45" r="1.95"/><circle class="cls-6" cx="52.53" cy="75.45" r="1.95"/><circle class="cls-6" cx="65.26" cy="90.11" r="1.95"/><circle class="cls-6" cx="52.53" cy="90.11" r="1.95"/></g></g></svg>