<svg xmlns="http://www.w3.org/2000/svg" xmlns:xlink="http://www.w3.org/1999/xlink" viewBox="0 0 223.67 404.82"><defs><style>.cls-1,.cls-6{fill:none;stroke-miterlimit:10;}.cls-1{stroke:#c4463a;stroke-width:5.67px;}.cls-2{clip-path:url(#clip-path);}.cls-3{fill:#eed1bf;}.cls-4{fill:#fbc5aa;}.cls-5{fill:#d8dcec;}.cls-6{stroke:#c1c0db;stroke-width:1.01px;}.cls-7{fill:#c4463a;}.cls-8{fill:#fff;}.cls-9{fill:#514835;}.cls-10{fill:#cabcdc;}.cls-11{fill:#ebaf89;}.cls-12{fill:#c1c0db;}.cls-13{fill:#200600;}.cls-14{fill:#d55227;}</style><clipPath id="clip-path"><circle class="cls-1" cx="111.83" cy="111.83" r="109"/></clipPath></defs><g id="Layer_2" data-name="Layer 2"><g id="Avatar"><g class="cls-2"><path id="Koza" class="cls-3" d="M24.48,348.6s-5.89,46.39,25.89,51V347.47Z"/><path id="Koza-2" data-name="Koza" class="cls-3" d="M198.88,353.78s5.89,46.38-25.9,51V352.65Z"/><path id="Vrat" class="cls-4" d="M147.83,176.31c-5.1,12.81-18.42,22-34.07,22-15.37,0-28.5-8.84-33.8-21.31,4-1.14,12.58-5.35,13.09-20.48h35.3S131.59,180.26,147.83,176.31Z"/><path class="cls-5" d="M9.07,366.49l51.93-2V225.05s-12-61-30.45-27.87C20.33,258.87,13.23,310.1,9.07,366.49Z"/><path class="cls-5" d="M217.49,366.49l-51.93-2V225.05s12-61,30.45-27.87C206.23,258.87,213.33,310.1,217.49,366.49Z"/><path class="cls-6" d="M52.21,335.45c.14-12.11,61.31,48.44,119,0"/><path id="Majica" class="cls-7" d="M198.62,196.24c-4.83.58-10.78,7.47-16.38,24.68,0,5,2.85,29.09-7.21,43.4-2.17,22.51,5.85,74.46,8.65,97.55-56.74,46.95-129,1.63-132.81,0,2.74-22.76,6.89-75.42,4.78-97.64-11.22-15.34-10.58-44-10.58-44-5.54-16.71-11.39-23.45-16.16-24-11.84-1.38,17.48-20.63,35.57-20.63H79.42q.26.69.54,1.35c5.3,12.47,18.43,21.31,33.8,21.31,15.65,0,29-9.15,34.07-22,.1-.23.19-.47.28-.7h14.94C181.14,175.61,210.46,194.86,198.62,196.24Z"/><path id="Koza-3" data-name="Koza" class="cls-3" d="M107.23,39.94h8.2a37.7,37.7,0,0,1,37.7,37.7V127.7a41.8,41.8,0,0,1-41.8,41.8h0a41.8,41.8,0,0,1-41.8-41.8V77.64A37.7,37.7,0,0,1,107.23,39.94Z"/><path class="cls-8" d="M99.78,100.3c.09-8-22.94-8.35-23-.3C76.67,107.27,99.7,107.57,99.78,100.3Z"/><path class="cls-8" d="M146.06,100.3c.09-8-22.93-8.35-23-.3C123,107.27,146,107.57,146.06,100.3Z"/><ellipse class="cls-9" cx="87.55" cy="99.86" rx="3.81" ry="4.14"/><ellipse class="cls-9" cx="134.55" cy="99.86" rx="3.81" ry="4.14"/><path id="Oci" class="cls-10" d="M75.32,100.47s9.78-10.67,27.09,0C102.41,100.47,87.36,82.4,75.32,100.47Z"/><path id="Oci-2" data-name="Oci" class="cls-10" d="M121.43,100.47s9.78-10.67,27.09,0C148.52,100.47,133.47,82.4,121.43,100.47Z"/><g id="Nos"><path class="cls-11" d="M113.44,127.7a25.86,25.86,0,0,1-8.42-1.91l.46-1.11c2.44,1,9.25,3.13,11.48.7.32-.83-.91-7.55-1.9-12.95-2.1-11.49-2.61-15.2-1.7-16a.81.81,0,0,1,.77-.2l-.3,1.16a.35.35,0,0,0,.38-.13c-.53,1,1,9.09,2,15,1.86,10.15,2.29,13.22,1.6,14A5.81,5.81,0,0,1,113.44,127.7Z"/></g><path id="Obrve" class="cls-12" d="M103.12,91.07c-16.86-9.24-24.66-.3-24.74-.21l-1.33-1.12c.35-.41,8.81-10.12,26.91-.2Z"/><path id="Obrve-2" data-name="Obrve" class="cls-12" d="M148.1,92.24C131.24,83,123.44,92,123.36,92L122,90.92c.35-.42,8.81-10.12,26.91-.2Z"/><path id="Koza-4" data-name="Koza" class="cls-3" d="M152.42,93.22s10.48-3.18,7.43,13.86-7.43,27.6-7.43,27.6Z"/><path id="Koza-5" data-name="Koza" class="cls-3" d="M69.93,94.07s-10.48-3.19-7.43,13.86,7.43,27.6,7.43,27.6Z"/><ellipse id="Uhani" class="cls-7" cx="69.53" cy="133.01" rx="3.31" ry="3.59"/><ellipse id="Uhani-2" data-name="Uhani" class="cls-7" cx="154.72" cy="132.88" rx="3.31" ry="3.59"/><path class="cls-13" d="M130,138.92a15.24,15.24,0,0,1-6.56,8.15c-1.24-5.12-23.8-3.13-23.88-3.13a19.27,19.27,0,0,1-3.44-5A86.89,86.89,0,0,0,130,138.92Z"/><path class="cls-14" d="M123.47,147.07h0a19.32,19.32,0,0,1-9.33,2.69,18.06,18.06,0,0,1-14.55-5.82C99.67,143.94,122.23,142,123.47,147.07Z"/><polygon class="cls-13" points="99.59 143.94 99.59 143.94 99.59 143.94 99.59 143.94"/><path id="Lasje1" class="cls-12" d="M68.09,109.9c.25-2.32.57-4.69,1-7.06a45.6,45.6,0,0,1,5.45-18.13,32.65,32.65,0,0,1,3.48-5c2.28-1.57,4.06-5.13,6.6-5.92A24.32,24.32,0,0,1,88.79,72a29.53,29.53,0,0,1,4.35-1,92.8,92.8,0,0,1,10.91.34A28.5,28.5,0,0,1,114,74.15c1.56.46,3.13.92,4.69,1.34a42.1,42.1,0,0,1,5.82-.86,38.08,38.08,0,0,1,5.85,0,16.11,16.11,0,0,1,3,.08,15.05,15.05,0,0,1,2.85.61c4.3,1,6.08,4.55,9.36,6.64.64.77,1.24,1.58,1.82,2.42S148.53,86.1,149,87a42.19,42.19,0,0,1,2.61,5.58,44.56,44.56,0,0,1,1.74,5.66c.53,1.11,1.58,1.11,2.63,1.67,0-1.23.14-2.45.27-3.67s.31-2.43.51-3.63c7.41-7.4,15.49-16.29,14.74-28.06a16.76,16.76,0,0,0-.69-3.15,16.35,16.35,0,0,0-1.35-3.13,31.94,31.94,0,0,0-1.78-2.94c-3.27-4.82-7.85-9.18-12.24-13A27.91,27.91,0,0,1,154.06,39a22.94,22.94,0,0,0-1.4-2.29A24,24,0,0,0,151,34.6a21.37,21.37,0,0,0-2.6-2.43,33.65,33.65,0,0,0-11.88-4.56c-1.08-.2-2.16-.36-3.25-.48-8.7-1.47-17.56,3-26.61,1.77-1-.21-2-.45-3-.71s-2-.53-3-.82a24.22,24.22,0,0,0-26.85,4,31.55,31.55,0,0,0-2.35,2.27A29.71,29.71,0,0,0,65,45c-.59.95-1.21,1.9-1.82,2.86-.58.47-1.17.92-1.76,1.38a70.44,70.44,0,0,1-7.48,5,14.35,14.35,0,0,0-2,2.82,24.35,24.35,0,0,0-1.46,3.27c-.37,1-.71,2.09-1,3.16-2.33,8.57-2,17.84,5,24.31.78.77,1.56,1.51,2.36,2.24,3.93,3.66,8,7.18,8.55,12.53.45,1.56.89,3.09,1.34,4.6C67.49,108.91,68.09,109.9,68.09,109.9Z"/></g><circle class="cls-1" cx="111.83" cy="111.83" r="109"/></g></g></svg>