<svg xmlns="http://www.w3.org/2000/svg" viewBox="0 0 191.93 569.85"><defs><style>.cls-1{fill:#fbc5aa;}.cls-2{fill:#d8dcec;}.cls-3,.cls-8,.cls-9{fill:#eed1bf;}.cls-4{fill:#e2e0df;}.cls-5{fill:#fff;}.cls-6{fill:#514835;}.cls-7{fill:#ebae8a;}.cls-8{stroke:#ebae8a;stroke-width:0.98px;}.cls-12,.cls-13,.cls-15,.cls-8,.cls-9{stroke-miterlimit:10;}.cls-9{stroke:#e2e0df;stroke-width:2.46px;}.cls-10{fill:#5a3b34;}.cls-11{fill:#d55225;}.cls-12,.cls-13{fill:none;stroke:#231f20;}.cls-12{stroke-width:0.53px;}.cls-13{stroke-width:0.48px;}.cls-14{fill:#fbb040;}.cls-15{fill:#00a881;stroke:#f37443;stroke-width:0.81px;}.cls-16{fill:#007dac;}.cls-17{fill:#44515c;}.cls-18{fill:#e06a4d;}</style></defs><g id="Layer_2" data-name="Layer 2"><g id="Layer_9" data-name="Layer 9"><path class="cls-1" d="M64,125.74s13.34-1,13.95-17h32.75s1.34,21,17,17l-1.41,12L94.35,150.49l-27.71-7.44L59.88,129.6Z"/><path class="cls-2" d="M191.93,306.23l-41.62-1.82V170.47s9.62-55.48,24.41-25.37Q187,229.34,191.93,306.23Z"/><path class="cls-3" d="M54,51.09S44.16,48.34,47,63a118.38,118.38,0,0,0,7,23.78Z"/><path class="cls-3" d="M90.24,10.46h8.24A37.91,37.91,0,0,1,136.4,48.37V78.23a42,42,0,0,1-42,42h0a42,42,0,0,1-42-42V48.37A37.91,37.91,0,0,1,90.24,10.46Z"/><path class="cls-4" d="M58.82,60.94s1.29,20.24,20.34,29h32.38s19.33-18.73,19.33-29l5.53,1.29a86.53,86.53,0,0,1,1.19,26.35,54.24,54.24,0,0,1-1,5.73,34.11,34.11,0,0,1-1,4.81,28,28,0,0,1-1.65,4.38,30.4,30.4,0,0,1-2.29,3.86,25.4,25.4,0,0,1-2.94,3.47c-.72,1.17-1.5,2.3-2.32,3.4s-1.71,2.15-2.64,3.15a34.45,34.45,0,0,1-3.13,3.84c-5,5.11-10.59,9.39-17.16,11.24a26,26,0,0,1-4.06.8A12.23,12.23,0,0,1,91,131.79C82.62,124.4,74.74,118,64.5,115.06a29.88,29.88,0,0,1-2.93-2.29,33,33,0,0,1-2.66-2.63,33.73,33.73,0,0,1-2.23-3.4,36.57,36.57,0,0,1-3.31-7.59c-.35-1.29-.63-2.61-.87-3.93a58.21,58.21,0,0,1-.59-15.88c-.07-2-.09-3.91,0-5.78.1-5.61.74-10.39,2.53-11.33C59.15,59.74,58.82,60.94,58.82,60.94Z"/><path class="cls-5" d="M85.27,58c.08-6.47-20-6.71-20.08-.25C65.12,63.57,85.2,63.82,85.27,58Z"/><path class="cls-5" d="M125.65,58c.08-6.47-20-6.71-20.09-.25C105.49,63.57,125.58,63.82,125.65,58Z"/><circle class="cls-6" cx="74.61" cy="57.62" r="3.32"/><circle class="cls-6" cx="115.61" cy="57.62" r="3.32"/><path class="cls-7" d="M63.94,58.11s8.53-8.57,23.63,0C87.57,58.11,74.44,43.59,63.94,58.11Z"/><path class="cls-7" d="M104.16,58.11s8.53-8.57,23.63,0C127.79,58.11,114.66,43.59,104.16,58.11Z"/><path class="cls-4" d="M87.27,81c-4.49,2.12-7.06,5.17-8.11,9h32.38c-1.13-3.47-4.07-6.42-8.45-9Z"/><path class="cls-8" d="M90.82,80.87s6.83,3.45,9.08.5c1-1.28-4.26-26.76-2.56-26.23"/><path class="cls-9" d="M66,49.94s7.1-7.78,22.53,0"/><path class="cls-9" d="M105.27,50.88s7.1-7.78,22.52,0"/><path class="cls-10" d="M111.54,89.91a17.57,17.57,0,0,1-6.27,9.3c-1.18-5.85-22.75-3.58-22.82-3.57a22.74,22.74,0,0,1-3.29-5.73Z"/><path class="cls-11" d="M105.27,99.21h0a16.21,16.21,0,0,1-8.9,3.08c-6.77.4-11.23-3.22-13.91-6.65C82.52,95.63,104.09,93.36,105.27,99.21Z"/><polygon class="cls-10" points="82.45 95.64 82.45 95.64 82.45 95.64 82.45 95.64"/><path class="cls-3" d="M135.65,52.29s9.15-2.56,6.48,11.13a110.38,110.38,0,0,1-6.48,22.18Z"/><polygon class="cls-5" points="79.16 89.91 80.08 91.94 110.84 91.94 111.54 89.91 79.16 89.91"/><path class="cls-12" d="M89.11,58.59s8.8-6.65,14.64,0"/><line class="cls-12" x1="54.73" y1="52.77" x2="63.9" y2="57.62"/><line class="cls-12" x1="138.13" y1="52.58" x2="128.96" y2="58.1"/><circle class="cls-13" cx="76.5" cy="58.59" r="12.6"/><circle class="cls-13" cx="116.35" cy="58.59" r="12.6"/><path class="cls-4" d="M58.82,60.94S56,40,65.2,31.76A12.34,12.34,0,0,1,68,29.85a9.35,9.35,0,0,1,1.86-.66c3.45-1,7.39-.48,10.94-.25.91.08,1.8.18,2.66.27,16.48,1.79,25,4.89,25,4.89s4.94-4.73-3.19-7.35,13.2-.33,18.79,11.32a79.25,79.25,0,0,1,6.81,22.87l4.78,1.29s12.7-32.89-2.4-44.2C125,11.83,114.72,4,104.58,1.19c-1-.28-2-.51-3-.69A24.91,24.91,0,0,0,98.83.11C97.93,0,97,0,96.12,0A22.31,22.31,0,0,0,90.61.5a27.91,27.91,0,0,0-2.75.77c-.89.3-1.76.64-2.62,1C76.79,6.56,69.4,13.45,60.1,15.72c-.9.26-1.77.56-2.62.89-4.2,1.65-7.54,4.2-7.83,9.52-.21.82-.39,1.64-.52,2.47a21.85,21.85,0,0,0-.19,5c0,.62.08,1.25.07,1.9C49,42.56,51.15,51.29,58.82,60.94Z"/><path class="cls-2" d="M0,306.23l41.62-1.82V170.47S32,115,17.21,145.1Q4.92,229.34,0,306.23Z"/><path class="cls-14" d="M141.64,125.74H127.8C123.26,137.51,110.72,146,96,146s-27.29-8.47-31.84-20.24H50.29c-16.77,0-43.94,17.19-33,18.43,4.62.52,10.34,7.05,15.67,23.48v147.5H159V167.65c5.33-16.43,11-23,15.66-23.48C185.58,142.93,158.41,125.74,141.64,125.74Z"/><line class="cls-15" x1="95.97" y1="315.15" x2="95.97" y2="145.98"/><rect class="cls-16" x="32.99" y="315.15" width="125.85" height="42.5"/><polygon class="cls-16" points="95.97 357.65 75.16 551.47 51.36 551.47 32.98 357.65 95.97 357.65"/><polygon class="cls-16" points="158.84 357.65 138.14 551.47 114.47 551.47 96.19 357.65 158.84 357.65"/><path class="cls-3" d="M12.23,305.66S7.52,342.83,33,346.57V304.76Z"/><path class="cls-3" d="M179.59,305.71s4.72,37.17-20.75,40.91V304.81Z"/><path class="cls-17" d="M114.47,551.47v18.38H176s8.11-18.42-29-15c0,0-9-1.6-7.91-12.13"/><path class="cls-17" d="M75.06,551.47v18.38H13.56s-8.12-18.42,29-15c0,0,9-1.6,7.92-12.13"/><circle class="cls-18" cx="106.52" cy="177.12" r="3.18"/><circle class="cls-18" cx="85.74" cy="177.12" r="3.18"/><circle class="cls-18" cx="106.52" cy="201.05" r="3.18"/><circle class="cls-18" cx="85.74" cy="201.05" r="3.18"/><circle class="cls-18" cx="106.52" cy="224.98" r="3.18"/><circle class="cls-18" cx="85.74" cy="224.98" r="3.18"/><circle class="cls-18" cx="106.52" cy="248.91" r="3.18"/><circle class="cls-18" cx="85.74" cy="248.91" r="3.18"/><circle class="cls-18" cx="106.52" cy="272.84" r="3.18"/><circle class="cls-18" cx="85.74" cy="272.84" r="3.18"/></g></g></svg>