<svg xmlns="http://www.w3.org/2000/svg" viewBox="0 0 58 58"><defs><style>.cls-1{fill:#e6a454;}.cls-2{fill:#ffffec;}</style></defs><g id="Layer_2" data-name="Layer 2"><g id="Glavno_Besedilo" data-name="Glavno Besedilo"><circle class="cls-1" cx="29" cy="29" r="29"/><path class="cls-2" d="M29.63,40.31a22.63,22.63,0,0,1-15.36-5.89,21.79,21.79,0,0,1-3.6-4.13,1.68,1.68,0,0,1,0-2.08A22.43,22.43,0,0,1,17,22a22,22,0,0,1,9.71-3.61,22.66,22.66,0,0,1,19.65,7,21.24,21.24,0,0,1,2.34,2.92,1.59,1.59,0,0,1,0,1.92,22.58,22.58,0,0,1-8.77,7.67A22.41,22.41,0,0,1,29.63,40.31Zm0-3.09a21.38,21.38,0,0,0,3.3-.25,19.81,19.81,0,0,0,9.91-4.76,19.38,19.38,0,0,0,2.5-2.7.33.33,0,0,0,0-.49c-.25-.29-.47-.6-.73-.89a19.32,19.32,0,0,0-16.37-6.76,19.06,19.06,0,0,0-11.87,5,17.51,17.51,0,0,0-2.29,2.5c-.3.4-.3.41,0,.78.56.64,1.1,1.3,1.71,1.89A19.44,19.44,0,0,0,29.63,37.22Z"/><path class="cls-2" d="M31,22.32a6,6,0,0,0-1.16,4,5.87,5.87,0,0,0,.85,2.83,4.37,4.37,0,0,0,1.81,1.69,3.53,3.53,0,0,0,2.28.25,4.8,4.8,0,0,0,2.14-1.21,14.55,14.55,0,0,1-.15,3.39A9.25,9.25,0,0,1,34,38.45,6.22,6.22,0,0,1,24.79,38,10.59,10.59,0,0,1,23.41,26.5C25.28,22.76,28.35,21.69,31,22.32Z"/></g></g></svg>