<svg xmlns="http://www.w3.org/2000/svg" viewBox="0 0 170.49 526.38"><defs><style>.cls-1,.cls-10,.cls-11{fill:#d89f72;}.cls-2{fill:#c18043;}.cls-3{fill:#d8dcec;}.cls-4{fill:#f15d2a;}.cls-5{fill:#6a8a7f;}.cls-16,.cls-17,.cls-6{fill:none;}.cls-6{stroke:#c1c0db;stroke-width:0.83px;}.cls-10,.cls-11,.cls-16,.cls-17,.cls-6{stroke-miterlimit:10;}.cls-7{fill:#fff;}.cls-8{fill:#514835;}.cls-9{fill:#cabcdc;}.cls-10,.cls-11{stroke:#be6641;}.cls-10{stroke-width:1.02px;}.cls-11{stroke-width:0.5px;}.cls-12{fill:#5a3b34;}.cls-13{fill:#d55225;}.cls-14{fill:#eed1bf;}.cls-15{fill:#f5e6c1;}.cls-16,.cls-17{stroke:#231f20;}.cls-16{stroke-width:0.53px;}.cls-17{stroke-width:0.49px;}.cls-18{fill:#d6cab9;}</style></defs><g id="Layer_2" data-name="Layer 2"><g id="Layer_9" data-name="Layer 9"><path class="cls-1" d="M12.57,270.07S7.77,307.9,33.69,311.7V269.15Z"/><path class="cls-1" d="M154.83,274.29s4.8,37.83-21.12,41.63V273.37Z"/><path class="cls-2" d="M56.24,124.08s11.73-1,12.26-17H97.3s1.18,21,14.92,17l-1.25,12-28,12.7-24.37-7.43-5.94-13.45Z"/><path class="cls-3" d="M0,284.65,42.36,283V163s-9.79-49.73-24.84-22.74Q5,215.73,0,284.65Z"/><path class="cls-3" d="M170,284.65,127.65,283V163s9.79-49.73,24.84-22.74Q165,215.73,170,284.65Z"/><polygon class="cls-1" points="91 342.13 73.34 506.56 53.15 506.56 37.56 342.13 91 342.13"/><polygon class="cls-1" points="138.56 342.13 120.99 506.56 100.92 506.56 85.41 342.13 138.56 342.13"/><path class="cls-4" d="M132.27,288.47a389.21,389.21,0,0,1-1.1-68.78c8.21-14.37,8.43-45.92,8.42-50.9C144.15,151.51,149,144.57,153,144c9.66-1.39-14.26-20.74-29-20.74H111.75c-4,13.25-15,22.78-28,22.78s-24-9.53-28-22.78H43.53c-14.76,0-38.68,19.35-29,20.74,3.89.56,8.67,7.33,13.18,24.13,0,0-.52,36.52,8.63,51.94a389.74,389.74,0,0,1-1.13,68.4L2.48,478.69s17.21,22.72,67.3,0c0,0,34,16.88,63.93,0,0,0,24.93,13.54,36.78,0Z"/><path class="cls-1" d="M53.15,506.56s-14.94,11.79-26.08,11.55l46.29.34V506.56Z"/><path class="cls-5" d="M73.36,506.56V523.2H61.13v-4.75s-27,9.92-38.81,7.58c0,0-13.5-1.82,7.23-9.29,15.5-5.59,18.62-6.75,18.62-6.75"/><path class="cls-1" d="M121.11,506.56s14.94,11.79,26.08,11.55l-46.28.34V506.56Z"/><path class="cls-5" d="M100.91,506.56V523.2h12.23v-4.75s27,9.92,38.8,7.58c0,0,13.5-1.82-7.22-9.29-15.51-5.59-18.63-6.75-18.63-6.75"/><path class="cls-6" d="M35.19,259.33c.12-9.87,50,39.52,97.08,0"/><path class="cls-1" d="M79.25,9.3h9a32.52,32.52,0,0,1,32.52,32.52V79A36.06,36.06,0,0,1,84.73,115h-2A36.06,36.06,0,0,1,46.72,79V41.82A32.52,32.52,0,0,1,79.25,9.3Z"/><path class="cls-7" d="M73.52,58.56c.08-6.56-20.32-6.81-20.4-.25C53.05,64.24,73.45,64.49,73.52,58.56Z"/><path class="cls-7" d="M114.54,58.56c.08-6.56-20.33-6.81-20.41-.25C94.06,64.24,114.46,64.49,114.54,58.56Z"/><circle class="cls-8" cx="62.69" cy="58.2" r="3.38"/><circle class="cls-8" cx="104.33" cy="58.2" r="3.38"/><path class="cls-9" d="M51.85,58.7s8.67-8.71,24,0C75.86,58.7,62.52,44,51.85,58.7Z"/><path class="cls-9" d="M92.71,58.7s8.67-8.71,24,0C116.71,58.7,103.38,44,92.71,58.7Z"/><path class="cls-10" d="M78.38,78.91s8.1,3.12,10.76.45c1.15-1.15-5-24.16-3-23.68"/><path class="cls-11" d="M54,50.4s7.21-7.91,22.88,0"/><path class="cls-11" d="M93.83,51.36s7.22-7.91,22.88,0"/><path class="cls-12" d="M100.2,91.11s-1.3,4-6.37,6.56c-1.2-4.13-23.1-2.53-23.18-2.52a15.61,15.61,0,0,1-3.34-4Z"/><path class="cls-13" d="M93.83,97.67h0a21.54,21.54,0,0,1-9,2.16,19.36,19.36,0,0,1-14.13-4.68C70.73,95.14,92.63,93.54,93.83,97.67Z"/><polygon class="cls-12" points="70.66 95.15 70.66 95.15 70.66 95.15 70.66 95.15"/><path class="cls-14" d="M120.17,52.78s9.28-2.6,6.58,11.32a112,112,0,0,1-6.58,22.52Z"/><path class="cls-15" d="M83.74,20.82h0Z"/><line class="cls-15" x1="83.76" y1="20.82" x2="83.76" y2="20.82"/><path class="cls-16" d="M75.89,61.58s8.94-6.76,14.87,0"/><line class="cls-16" x1="46.38" y1="56.83" x2="50.28" y2="60.59"/><line class="cls-16" x1="121.03" y1="55.37" x2="116.37" y2="61.08"/><circle class="cls-17" cx="63.09" cy="61.58" r="12.8"/><circle class="cls-17" cx="103.57" cy="61.58" r="12.8"/><path class="cls-18" d="M129.9,134.79s-4.62-1-7.93-11.43c-8.1-7.44-19.32-13.16-19.32-13.16,6.92-4,12.85-13.47,16.11-19.47.13-4.9.44-10.33,1-16.36,5-55.9-34.36-39.73-36-39.61h0c-1.63-.12-41-16.31-36,39.61.54,6,.85,11.39,1,16.26,4.47,7.45,14,18.29,14,18.29-4.73-3.08-11.08,3.52-16.21,10.82-3.28,13.82-8.92,15-8.92,15S14.09-5.44,83.73.16C153.37-5.44,129.9,134.79,129.9,134.79Z"/><circle class="cls-4" cx="84.59" cy="47.84" r="2.35"/></g></g></svg>