<svg xmlns="http://www.w3.org/2000/svg" viewBox="0 0 211.09 519.5"><defs><style>.cls-1{fill:#eed1bf;}.cls-2{fill:#fbc5aa;}.cls-3{fill:#dce6e0;}.cls-4{fill:#d8dcec;}.cls-5{fill:#fff;}.cls-6{fill:#c1c0db;}.cls-7{fill:#514835;}.cls-8{fill:#ebaf88;}.cls-9{fill:#301812;}.cls-10{fill:#d55227;}.cls-11,.cls-12,.cls-14{fill:none;stroke-miterlimit:10;}.cls-11,.cls-12{stroke:#231f20;}.cls-11{stroke-width:0.47px;}.cls-12{stroke-width:0.43px;}.cls-13{fill:#db8362;}.cls-14{stroke:#c56c66;stroke-width:0.72px;}.cls-15{fill:#eec494;}.cls-16{fill:#44515c;}.cls-17{fill:#c56c66;}</style></defs><title>Asset 10</title><g id="Layer_2" data-name="Layer 2"><g id="Glavno_Besedilo" data-name="Glavno Besedilo"><path id="Koza" class="cls-1" d="M36.92,272.14s-4.2,33.09,18.48,36.41V271.33Z"/><path id="Koza-2" data-name="Koza" class="cls-1" d="M185.93,272.18s4.2,33.09-18.48,36.42V271.37Z"/><path id="Vrat" class="cls-2" d="M139.82,111.93l-.16.41C135.48,122.62,124.45,130,111.47,130c-13.14,0-24.29-7.53-28.34-18H83a13.55,13.55,0,0,0,11.06-8.45,19.56,19.56,0,0,0,1.36-6.71H124.6a27.87,27.87,0,0,0,1.43,6.7,14.79,14.79,0,0,0,4.67,7C132.86,112.15,135.89,112.92,139.82,111.93Z"/><ellipse class="cls-3" cx="105.54" cy="507.47" rx="105.54" ry="12.03"/><path class="cls-4" d="M196.91,272.64l-37-1.62V151.78s8.56-49.4,21.73-22.59Q192.52,204.18,196.91,272.64Z"/><path id="Koza-3" data-name="Koza" class="cls-1" d="M152.58,56.47a101.44,101.44,0,0,1-5.64,19.42,37.42,37.42,0,0,1-74-1.45,117.67,117.67,0,0,1-5-18.32C66,46.49,70.25,45.27,72.62,45.31V43.07A33.76,33.76,0,0,1,106.38,9.32h7.34a33.75,33.75,0,0,1,33.75,33.75v3.36C149.37,46.2,154.52,46.44,152.58,56.47Z"/><path class="cls-5" d="M102,51.62c.07-5.76-17.81-6-17.88-.22C84,56.6,101.89,56.82,102,51.62Z"/><path id="Brada" class="cls-6" d="M149,70.29a65,65,0,0,1-.48,8.57,47.46,47.46,0,0,1-.92,5.1,29.87,29.87,0,0,1-.88,4.29,25.7,25.7,0,0,1-1.48,3.9,26.67,26.67,0,0,1-2,3.43,23.86,23.86,0,0,1-2.62,3.09c-.65,1-1.33,2.06-2.07,3a35.15,35.15,0,0,1-2.35,2.8,29.07,29.07,0,0,1-2.79,3.42c-.88.9-1.77,1.77-2.69,2.59a31.92,31.92,0,0,1-12.58,7.42,23,23,0,0,1-3.62.71,11,11,0,0,1-7.46-1.3c-4.79-4.24-9.4-8.1-14.5-11a40.82,40.82,0,0,0-9.08-3.89,27.41,27.41,0,0,1-2.62-2,32.65,32.65,0,0,1-2.37-2.34,31.58,31.58,0,0,1-2-3,33.39,33.39,0,0,1-2.94-6.75c-.31-1.16-.56-2.32-.77-3.51a51.16,51.16,0,0,1-.66-12.62c0-.5.07-1,.12-1.52,0-1.73-.07-3.47,0-5.14.1-5,.67-9.24,2.25-10.08C77,54.1,77.87,53.93,78.21,54c.1,0,.15.06.17.11h0a.22.22,0,0,1,0,.12s1.15,18,18.11,25.8h28.82s17.22-16.68,17.22-25.8l4.32,1,.6.14A77.55,77.55,0,0,1,149,70.29Z"/><path class="cls-5" d="M137.9,51.62c.07-5.76-17.81-6-17.88-.22C120,56.6,137.84,56.82,137.9,51.62Z"/><circle class="cls-7" cx="92.46" cy="51.3" r="2.96"/><circle class="cls-7" cx="128.96" cy="51.3" r="2.96"/><path id="Oci" class="cls-8" d="M83,51.74s7.6-7.64,21,0C104,51.74,92.31,38.81,83,51.74Z"/><path id="Oci-2" data-name="Oci" class="cls-8" d="M118.77,51.74s7.6-7.64,21,0C139.81,51.74,128.12,38.81,118.77,51.74Z"/><path class="cls-6" d="M125.33,80H96.51c.93-3.37,3.23-6.08,7.22-8H107c.95.45,6.12,2.76,7.93.37a.7.7,0,0,0,.09-.37h2.75C121.71,74.33,124.33,77,125.33,80Z"/><path class="cls-1" d="M112.7,49.09l-.3,1.18C112.38,49.46,112.47,49,112.7,49.09Z"/><path id="Nos" class="cls-8" d="M112.35,73.94a14.92,14.92,0,0,1-5.66-1.55l.4-.78c1.6.81,6.08,2.49,7.53.57.25-.64-.58-6.11-1.24-10.5-1.42-9.34-1.75-12.33-1.09-12.9a.56.56,0,0,1,.54-.11l-.26.84a.29.29,0,0,0,.33-.11c-.38.77.62,7.34,1.34,12.15,1.23,8.13,1.52,10.58,1.08,11.16A3.51,3.51,0,0,1,112.35,73.94Z"/><g id="Obrve"><path class="cls-6" d="M104.38,45.44C91.64,39,85.87,45,85.63,45.21L84,43.72c.28-.3,7-7.46,21.36-.24Z"/></g><g id="Obrve-2" data-name="Obrve"><g id="Obrve-3" data-name="Obrve"><path id="Obrve-4" data-name="Obrve" class="cls-6" d="M139.32,46.28c-12.84-6.48-18.7-.3-18.76-.24l-1.62-1.48c.28-.3,7-7.46,21.36-.24Z"/></g></g><path class="cls-9" d="M125.33,80.05a16.42,16.42,0,0,1-5.58,8.28c-1-5.21-20.25-3.19-20.31-3.18a24.61,24.61,0,0,1-2.93-5.1Z"/><path class="cls-10" d="M119.75,88.33h0a14.47,14.47,0,0,1-7.93,2.74,14.28,14.28,0,0,1-12.38-5.92C99.5,85.14,118.7,83.12,119.75,88.33Z"/><polygon class="cls-9" points="99.44 85.15 99.44 85.15 99.44 85.15 99.44 85.15"/><polygon class="cls-5" points="96.51 80.05 97.33 81.86 124.72 81.86 125.33 80.05 96.51 80.05"/><g id="Ocala"><path class="cls-11" d="M105.37,52.16s7.83-5.92,13,0"/><line class="cls-11" x1="74.76" y1="46.98" x2="82.92" y2="51.3"/><line class="cls-11" x1="149.01" y1="46.81" x2="140.85" y2="51.73"/><circle class="cls-12" cx="94.14" cy="52.16" r="11.22"/><circle class="cls-12" cx="129.62" cy="52.16" r="11.22"/></g><path id="Lasje1" class="cls-6" d="M78.4,54.26s-2.53-18.64,5.69-26a11.31,11.31,0,0,1,2.51-1.7A8.59,8.59,0,0,1,88.26,26c3.07-.86,6.57-.42,9.74-.23l2.37.25C115,27.6,122.6,30.36,122.6,30.36s4.39-4.21-2.85-6.55,11.76-.29,16.73,10.08a70.72,70.72,0,0,1,6.07,20.37l4.26,1.15s11.3-29.29-2.15-39.36c-7.36-5.52-16.49-12.49-25.52-15a25.8,25.8,0,0,0-2.71-.61A21.86,21.86,0,0,0,114,.1c-.8-.07-1.61-.1-2.41-.09a20.46,20.46,0,0,0-4.91.43,24.41,24.41,0,0,0-2.44.69c-.8.27-1.57.57-2.33.9C94.4,5.84,87.82,12,79.54,14c-.8.24-1.58.5-2.33.8-3.74,1.47-6.72,3.73-7,8.47a21,21,0,0,0-.46,2.2A18.79,18.79,0,0,0,69.61,30c0,.55.06,1.11.06,1.69C69.63,37.89,71.57,45.66,78.4,54.26Z"/><path class="cls-4" d="M26,272.64,63.09,271V151.78s-8.57-49.4-21.73-22.59Q30.43,204.18,26,272.64Z"/><path id="Pulover" class="cls-13" d="M181.49,128.34l-.31,0c-4.06.72-9,6.6-13.63,20.86L186,280.61H39.58L55.4,149.24C50.77,135,45.83,129.1,41.76,128.38l-.31,0c-9.76-1.11,14.43-16.41,29.36-16.41H83.13c4.05,10.49,15.2,18,28.34,18,13,0,24-7.34,28.19-17.63.06-.13.1-.26.16-.39h12.32C167.07,111.93,191.26,127.23,181.49,128.34Z"/><line id="Zadrga" class="cls-14" x1="111.47" y1="280.58" x2="111.47" y2="129.96"/><polygon id="Hlace" class="cls-15" points="185.99 280.61 177.2 322.58 149.84 483.21 127.95 490.98 111.67 318.42 111.48 318.42 92.95 490.98 92.86 490.98 71.02 483.24 46.42 320.62 39.58 280.61 185.99 280.61"/><path class="cls-16" d="M182.71,507.35H128V491l21.89-7.77v.06c-1,9.32,7,10.74,7,10.74C189.94,490.94,182.71,507.35,182.71,507.35Z"/><path class="cls-16" d="M92.86,491v16.37H38.1S30.88,490.94,63.92,494c0,0,8-1.42,7-10.8l.06,0Z"/><circle id="Gumb" class="cls-17" cx="120.87" cy="157.69" r="2.83"/><circle id="Gumb-2" data-name="Gumb" class="cls-17" cx="102.37" cy="157.69" r="2.83"/><circle id="Gumb-3" data-name="Gumb" class="cls-17" cx="120.87" cy="179" r="2.83"/><circle id="Gumb-4" data-name="Gumb" class="cls-17" cx="102.37" cy="179" r="2.83"/><circle id="Gumb-5" data-name="Gumb" class="cls-17" cx="120.87" cy="200.3" r="2.83"/><circle id="Gumb-6" data-name="Gumb" class="cls-17" cx="102.37" cy="200.3" r="2.83"/><circle id="Gumb-7" data-name="Gumb" class="cls-17" cx="120.87" cy="221.61" r="2.83"/><circle id="Gumb-8" data-name="Gumb" class="cls-17" cx="102.37" cy="221.61" r="2.83"/><circle id="Gumb-9" data-name="Gumb" class="cls-17" cx="120.87" cy="242.91" r="2.83"/><circle id="Gumb-10" data-name="Gumb" class="cls-17" cx="102.37" cy="242.91" r="2.83"/></g></g></svg>