<svg xmlns="http://www.w3.org/2000/svg" viewBox="0 0 207.84 499.43"><defs><style>.cls-1{fill:#dce6e0;}.cls-2{fill:#fbc5aa;}.cls-3{fill:#d8dcec;}.cls-4{fill:#006a65;}.cls-5{fill:#00a881;stroke:#223b1e;stroke-width:0.72px;}.cls-12,.cls-13,.cls-14,.cls-5{stroke-miterlimit:10;}.cls-6{fill:#6a8a7f;}.cls-12,.cls-13,.cls-7{fill:#eed1bf;}.cls-8{fill:#44515c;}.cls-9{fill:#223b1e;}.cls-10{fill:#ffebc6;}.cls-11{fill:#ebae8a;}.cls-12,.cls-13{stroke:#ebae8a;}.cls-12{stroke-width:0.91px;}.cls-13,.cls-14{stroke-width:0.45px;}.cls-14{fill:none;stroke:#fff;}</style></defs><title>Asset 17</title><g id="Layer_2" data-name="Layer 2"><g id="Glavno_Besedilo" data-name="Glavno Besedilo"><ellipse class="cls-1" cx="103.92" cy="487.59" rx="103.92" ry="11.84"/><path class="cls-2" d="M74.38,106.72s12.17-.85,12.73-14.57H117s1.23,17.92,15.49,14.57L131.2,117l-29.12,10.87-25.3-6.36L70.61,110Z"/><path class="cls-3" d="M191.16,261.15l-38-1.56V145s8.79-47.47,22.29-21.71Q186.65,195.36,191.16,261.15Z"/><path class="cls-3" d="M15.94,261.15l38-1.56V145s-8.78-47.47-22.28-21.71Q20.44,195.36,15.94,261.15Z"/><path class="cls-4" d="M145.25,106.72H132.61C128.46,116.79,117,124,103.55,124s-24.91-7.24-29.06-17.31H61.85c-15.3,0-40.11,14.7-30.09,15.76,4.22.45,9.43,6,14.3,20.09V268.78h115V142.57c4.86-14,10.08-19.64,14.3-20.09C185.36,121.42,160.56,106.72,145.25,106.72Z"/><line class="cls-5" x1="103.55" y1="268.78" x2="103.55" y2="124.03"/><rect class="cls-6" x="46.06" y="268.78" width="114.89" height="36.36"/><polygon class="cls-6" points="103.55 305.14 84.55 470.98 62.83 470.98 46.05 305.14 103.55 305.14"/><polygon class="cls-6" points="160.95 305.14 142.05 470.98 120.44 470.98 103.76 305.14 160.95 305.14"/><path class="cls-7" d="M27.11,260.66s-4.3,31.81,19,35V259.89Z"/><path class="cls-7" d="M179.89,260.71s4.31,31.8-18.94,35V259.93Z"/><path class="cls-8" d="M120.44,471v16.78h56.15s7.41-16.82-26.47-13.67c0,0-8.25-1.46-7.22-11.08"/><path class="cls-8" d="M84.47,471v16.78H28.32s-7.41-16.82,26.47-13.67c0,0,8.25-1.46,7.22-11.08"/><ellipse class="cls-9" cx="113.19" cy="150.68" rx="2.9" ry="2.72"/><ellipse class="cls-9" cx="94.21" cy="150.68" rx="2.9" ry="2.72"/><ellipse class="cls-9" cx="113.19" cy="171.15" rx="2.9" ry="2.72"/><ellipse class="cls-9" cx="94.21" cy="171.15" rx="2.9" ry="2.72"/><ellipse class="cls-9" cx="113.19" cy="191.63" rx="2.9" ry="2.72"/><ellipse class="cls-9" cx="94.21" cy="191.63" rx="2.9" ry="2.72"/><ellipse class="cls-9" cx="113.19" cy="212.1" rx="2.9" ry="2.72"/><ellipse class="cls-9" cx="94.21" cy="212.1" rx="2.9" ry="2.72"/><ellipse class="cls-9" cx="113.19" cy="232.57" rx="2.9" ry="2.72"/><ellipse class="cls-9" cx="94.21" cy="232.57" rx="2.9" ry="2.72"/><path class="cls-7" d="M100.49,0h7.61a35,35,0,0,1,35,35V62.53a38.79,38.79,0,0,1-38.79,38.79h0A38.79,38.79,0,0,1,65.5,62.53V35A35,35,0,0,1,100.49,0Z"/><path class="cls-10" d="M111.37,66s14.14,3.66,12.1,19.72-18.62,15.64-18.62,15.64-19.76,1.24-20.26-15.64,9.77-19,12.18-19.72"/><path class="cls-11" d="M134.16,42.13s-7.87,7.91-21.81,0C112.35,42.13,124.47,55.53,134.16,42.13Z"/><path class="cls-11" d="M97.05,42.13s-7.87,7.91-21.81,0C75.24,42.13,87.36,55.53,97.05,42.13Z"/><path class="cls-12" d="M100.05,65.87s6.3,3.19,8.37.46c.9-1.17-3.93-24.69-2.35-24.2"/><path class="cls-13" d="M77.17,37.34s6.56-7.19,20.79,0"/><path class="cls-13" d="M113.38,38.21s6.55-7.19,20.78,0"/><path class="cls-7" d="M66.05,39.5s-8.43-2.36-6,10.28a102.43,102.43,0,0,0,6,20.46Z"/><path class="cls-7" d="M141.41,39.5s8.44-2.36,6,10.28a101.62,101.62,0,0,1-6,20.46Z"/><path class="cls-14" d="M76.49,17.6s17.58-19.34,47-8.47"/><path class="cls-14" d="M76.54,17.47s19-18,47.47-4.95"/><path class="cls-14" d="M76.08,17.85s16-20.67,46.16-12.15"/><path class="cls-11" d="M92.42,76.6a49.34,49.34,0,0,0,6.52,2.66,24.49,24.49,0,0,0,6.62,1.22,15.56,15.56,0,0,0,3.28-.19,15.35,15.35,0,0,0,3.18-.83A24.88,24.88,0,0,0,118,76l.34.31A14,14,0,0,1,113,81.52a14.41,14.41,0,0,1-7.51,1.67,18.73,18.73,0,0,1-7.33-1.91,19.6,19.6,0,0,1-6-4.32Z"/></g></g></svg>